<?xml version="1.0" encoding="UTF-8" standalone="no"?>
<!DOCTYPE svg PUBLIC "-//W3C//DTD SVG 1.1//EN"
 "http://www.w3.org/Graphics/SVG/1.1/DTD/svg11.dtd">
<!-- Generated by graphviz version 9.0.0 (20230911.1827)
 -->
<!-- Title: buffer.hpp Pages: 1 -->
<svg width="546pt" height="304pt"
 viewBox="0.00 0.00 545.88 303.50" xmlns="http://www.w3.org/2000/svg" xmlns:xlink="http://www.w3.org/1999/xlink">
<g id="graph0" class="graph" transform="scale(1 1) rotate(0) translate(4 299.5)">
<title>buffer.hpp</title>
<!-- Node1 -->
<g id="Node000001" class="node">
<title>Node1</title>
<g id="a_Node000001"><a xlink:title=" ">
<polygon fill="#999999" stroke="#666666" points="275.75,-295.5 217,-295.5 217,-276.25 275.75,-276.25 275.75,-295.5"/>
<text text-anchor="middle" x="246.38" y="-282" font-family="Helvetica,sans-Serif" font-size="10.00">buffer.hpp</text>
</a>
</g>
</g>
<!-- Node2 -->
<g id="Node000002" class="node">
<title>Node2</title>
<g id="a_Node000002"><a xlink:href="first__draft_2command__buffer_8hpp.html" target="_top" xlink:title=" ">
<polygon fill="white" stroke="#666666" points="106.75,-240.25 0,-240.25 0,-221 106.75,-221 106.75,-240.25"/>
<text text-anchor="middle" x="53.38" y="-226.75" font-family="Helvetica,sans-Serif" font-size="10.00">command_buffer.hpp</text>
</a>
</g>
</g>
<!-- Node1&#45;&gt;Node2 -->
<g id="edge1_Node000001_Node000002" class="edge">
<title>Node1&#45;&gt;Node2</title>
<g id="a_edge1_Node000001_Node000002"><a xlink:title=" ">
<path fill="none" stroke="#63b8ff" d="M205.7,-273.65C170.22,-263.86 119.39,-249.84 86.38,-240.73"/>
<polygon fill="#63b8ff" stroke="#63b8ff" points="204.61,-276.98 215.18,-276.27 206.47,-270.24 204.61,-276.98"/>
</a>
</g>
</g>
<!-- Node3 -->
<g id="Node000003" class="node">
<title>Node3</title>
<g id="a_Node000003"><a xlink:href="deprecated_2device_8hpp_source.html" target="_top" xlink:title=" ">
<polygon fill="white" stroke="#666666" points="188,-240.25 124.75,-240.25 124.75,-221 188,-221 188,-240.25"/>
<text text-anchor="middle" x="156.38" y="-226.75" font-family="Helvetica,sans-Serif" font-size="10.00">device.hpp</text>
</a>
</g>
</g>
<!-- Node1&#45;&gt;Node3 -->
<g id="edge2_Node000001_Node000003" class="edge">
<title>Node1&#45;&gt;Node3</title>
<g id="a_edge2_Node000001_Node000003"><a xlink:title=" ">
<path fill="none" stroke="#63b8ff" d="M221.36,-270.07C205.43,-260.65 185.32,-248.75 171.72,-240.7"/>
<polygon fill="#63b8ff" stroke="#63b8ff" points="219.42,-272.99 229.81,-275.07 222.98,-266.97 219.42,-272.99"/>
</a>
</g>
</g>
<!-- Node4 -->
<g id="Node000004" class="node">
<title>Node4</title>
<g id="a_Node000004"><a xlink:href="device_8hpp.html" target="_top" xlink:title=" ">
<polygon fill="white" stroke="#666666" points="278,-185 214.75,-185 214.75,-165.75 278,-165.75 278,-185"/>
<text text-anchor="middle" x="246.38" y="-171.5" font-family="Helvetica,sans-Serif" font-size="10.00">device.hpp</text>
</a>
</g>
</g>
<!-- Node1&#45;&gt;Node4 -->
<g id="edge3_Node000001_Node000004" class="edge">
<title>Node1&#45;&gt;Node4</title>
<g id="a_edge3_Node000001_Node000004"><a xlink:title=" ">
<path fill="none" stroke="#63b8ff" d="M239.87,-264.81C236.56,-252.27 233.58,-235.75 235.38,-221 236.89,-208.48 240.73,-194.42 243.44,-185.48"/>
<polygon fill="#63b8ff" stroke="#63b8ff" points="236.51,-265.77 242.7,-274.37 243.22,-263.79 236.51,-265.77"/>
</a>
</g>
</g>
<!-- Node9 -->
<g id="Node000009" class="node">
<title>Node9</title>
<g id="a_Node000009"><a xlink:href="first__draft_2device_8hpp_source.html" target="_top" xlink:title=" ">
<polygon fill="white" stroke="#666666" points="308,-240.25 244.75,-240.25 244.75,-221 308,-221 308,-240.25"/>
<text text-anchor="middle" x="276.38" y="-226.75" font-family="Helvetica,sans-Serif" font-size="10.00">device.hpp</text>
</a>
</g>
</g>
<!-- Node1&#45;&gt;Node9 -->
<g id="edge9_Node000001_Node000009" class="edge">
<title>Node1&#45;&gt;Node9</title>
<g id="a_edge9_Node000001_Node000009"><a xlink:title=" ">
<path fill="none" stroke="#63b8ff" d="M256.96,-266.08C261.84,-257.42 267.4,-247.56 271.31,-240.61"/>
<polygon fill="#63b8ff" stroke="#63b8ff" points="253.93,-264.33 252.07,-274.76 260.03,-267.77 253.93,-264.33"/>
</a>
</g>
</g>
<!-- Node10 -->
<g id="Node000010" class="node">
<title>Node10</title>
<g id="a_Node000010"><a xlink:href="render__graph_8hpp.html" target="_top" xlink:title=" ">
<polygon fill="white" stroke="#666666" points="416.88,-240.25 325.88,-240.25 325.88,-221 416.88,-221 416.88,-240.25"/>
<text text-anchor="middle" x="371.38" y="-226.75" font-family="Helvetica,sans-Serif" font-size="10.00">render_graph.hpp</text>
</a>
</g>
</g>
<!-- Node1&#45;&gt;Node10 -->
<g id="edge10_Node000001_Node000010" class="edge">
<title>Node1&#45;&gt;Node10</title>
<g id="a_edge10_Node000001_Node000010"><a xlink:title=" ">
<path fill="none" stroke="#63b8ff" d="M278,-271.4C300.56,-261.79 330.28,-249.13 350.07,-240.7"/>
<polygon fill="#63b8ff" stroke="#63b8ff" points="276.8,-268.11 268.97,-275.25 279.54,-274.55 276.8,-268.11"/>
</a>
</g>
</g>
<!-- Node12 -->
<g id="Node000012" class="node">
<title>Node12</title>
<g id="a_Node000012"><a xlink:href="synchronization_8hpp.html" target="_top" xlink:title=" ">
<polygon fill="white" stroke="#666666" points="537.88,-240.25 434.88,-240.25 434.88,-221 537.88,-221 537.88,-240.25"/>
<text text-anchor="middle" x="486.38" y="-226.75" font-family="Helvetica,sans-Serif" font-size="10.00">synchronization.hpp</text>
</a>
</g>
</g>
<!-- Node1&#45;&gt;Node12 -->
<g id="edge13_Node000001_Node000012" class="edge">
<title>Node1&#45;&gt;Node12</title>
<g id="a_edge13_Node000001_Node000012"><a xlink:title=" ">
<path fill="none" stroke="#63b8ff" d="M286.97,-275.87C331.1,-266.08 401.21,-250.52 445.46,-240.7"/>
<polygon fill="#63b8ff" stroke="#63b8ff" points="286.29,-272.43 277.28,-278.02 287.8,-279.27 286.29,-272.43"/>
</a>
</g>
</g>
<!-- Node5 -->
<g id="Node000005" class="node">
<title>Node5</title>
<g id="a_Node000005"><a xlink:href="instance_8hpp.html" target="_top" xlink:title=" ">
<polygon fill="white" stroke="#666666" points="250.12,-129.75 178.62,-129.75 178.62,-110.5 250.12,-110.5 250.12,-129.75"/>
<text text-anchor="middle" x="214.38" y="-116.25" font-family="Helvetica,sans-Serif" font-size="10.00">instance.hpp</text>
</a>
</g>
</g>
<!-- Node4&#45;&gt;Node5 -->
<g id="edge4_Node000004_Node000005" class="edge">
<title>Node4&#45;&gt;Node5</title>
<g id="a_edge4_Node000004_Node000005"><a xlink:title=" ">
<path fill="none" stroke="#63b8ff" d="M235.25,-155.87C230.01,-147.14 224,-137.14 219.77,-130.11"/>
<polygon fill="#63b8ff" stroke="#63b8ff" points="232.16,-157.52 240.31,-164.28 238.16,-153.91 232.16,-157.52"/>
</a>
</g>
</g>
<!-- Node8 -->
<g id="Node000008" class="node">
<title>Node8</title>
<g id="a_Node000008"><a xlink:href="vulkan__utils_8hpp.html" target="_top" xlink:title=" ">
<polygon fill="white" stroke="#666666" points="346.62,-74.5 260.12,-74.5 260.12,-55.25 346.62,-55.25 346.62,-74.5"/>
<text text-anchor="middle" x="303.38" y="-61" font-family="Helvetica,sans-Serif" font-size="10.00">vulkan_utils.hpp</text>
</a>
</g>
</g>
<!-- Node4&#45;&gt;Node8 -->
<g id="edge7_Node000004_Node000008" class="edge">
<title>Node4&#45;&gt;Node8</title>
<g id="a_edge7_Node000004_Node000008"><a xlink:title=" ">
<path fill="none" stroke="#63b8ff" d="M256.38,-155.33C268.78,-131.72 289.41,-92.46 298.65,-74.88"/>
<polygon fill="#63b8ff" stroke="#63b8ff" points="253.3,-153.68 251.74,-164.16 259.49,-156.93 253.3,-153.68"/>
</a>
</g>
</g>
<!-- Node6 -->
<g id="Node000006" class="node">
<title>Node6</title>
<g id="a_Node000006"><a xlink:href="vulkan__instance_8hpp.html" target="_top" xlink:title=" ">
<polygon fill="white" stroke="#666666" points="242,-74.5 136.75,-74.5 136.75,-55.25 242,-55.25 242,-74.5"/>
<text text-anchor="middle" x="189.38" y="-61" font-family="Helvetica,sans-Serif" font-size="10.00">vulkan_instance.hpp</text>
</a>
</g>
</g>
<!-- Node5&#45;&gt;Node6 -->
<g id="edge5_Node000005_Node000006" class="edge">
<title>Node5&#45;&gt;Node6</title>
<g id="a_edge5_Node000005_Node000006"><a xlink:title=" ">
<path fill="none" stroke="#63b8ff" d="M205.41,-100.04C201.38,-91.46 196.82,-81.73 193.59,-74.86"/>
<polygon fill="#63b8ff" stroke="#63b8ff" points="202.19,-101.4 209.6,-108.96 208.52,-98.42 202.19,-101.4"/>
</a>
</g>
</g>
<!-- Node7 -->
<g id="Node000007" class="node">
<title>Node7</title>
<g id="a_Node000007"><a xlink:href="vulkan__instance_8cpp.html" target="_top" xlink:title=" ">
<polygon fill="white" stroke="#666666" points="299,-19.25 193.75,-19.25 193.75,0 299,0 299,-19.25"/>
<text text-anchor="middle" x="246.38" y="-5.75" font-family="Helvetica,sans-Serif" font-size="10.00">vulkan_instance.cpp</text>
</a>
</g>
</g>
<!-- Node6&#45;&gt;Node7 -->
<g id="edge6_Node000006_Node000007" class="edge">
<title>Node6&#45;&gt;Node7</title>
<g id="a_edge6_Node000006_Node000007"><a xlink:title=" ">
<path fill="none" stroke="#63b8ff" d="M207.32,-47.11C217.11,-37.97 228.82,-27.03 236.85,-19.52"/>
<polygon fill="#63b8ff" stroke="#63b8ff" points="205.07,-44.42 200.15,-53.81 209.85,-49.54 205.07,-44.42"/>
</a>
</g>
</g>
<!-- Node8&#45;&gt;Node7 -->
<g id="edge8_Node000008_Node000007" class="edge">
<title>Node8&#45;&gt;Node7</title>
<g id="a_edge8_Node000008_Node000007"><a xlink:title=" ">
<path fill="none" stroke="#63b8ff" d="M285.43,-47.11C275.64,-37.97 263.93,-27.03 255.9,-19.52"/>
<polygon fill="#63b8ff" stroke="#63b8ff" points="282.9,-49.54 292.6,-53.81 287.68,-44.42 282.9,-49.54"/>
</a>
</g>
</g>
<!-- Node10&#45;&gt;Node4 -->
<g id="edge11_Node000010_Node000004" class="edge">
<title>Node10&#45;&gt;Node4</title>
<g id="a_edge11_Node000010_Node000004"><a xlink:title=" ">
<path fill="none" stroke="#63b8ff" d="M339.75,-216.15C317.19,-206.54 287.47,-193.88 267.68,-185.45"/>
<polygon fill="#63b8ff" stroke="#63b8ff" points="338.21,-219.3 348.78,-220 340.95,-212.86 338.21,-219.3"/>
</a>
</g>
</g>
<!-- Node11 -->
<g id="Node000011" class="node">
<title>Node11</title>
<g id="a_Node000011"><a xlink:href="render__graph_8cpp.html" target="_top" xlink:title=" ">
<polygon fill="white" stroke="#666666" points="416.88,-185 325.88,-185 325.88,-165.75 416.88,-165.75 416.88,-185"/>
<text text-anchor="middle" x="371.38" y="-171.5" font-family="Helvetica,sans-Serif" font-size="10.00">render_graph.cpp</text>
</a>
</g>
</g>
<!-- Node10&#45;&gt;Node11 -->
<g id="edge12_Node000010_Node000011" class="edge">
<title>Node10&#45;&gt;Node11</title>
<g id="a_edge12_Node000010_Node000011"><a xlink:title=" ">
<path fill="none" stroke="#63b8ff" d="M371.38,-209.38C371.38,-201.09 371.38,-191.92 371.38,-185.36"/>
<polygon fill="#63b8ff" stroke="#63b8ff" points="367.88,-209.32 371.38,-219.32 374.88,-209.32 367.88,-209.32"/>
</a>
</g>
</g>
</g>
</svg>
