<?xml version="1.0" encoding="UTF-8" standalone="no"?>
<!DOCTYPE svg PUBLIC "-//W3C//DTD SVG 1.1//EN"
 "http://www.w3.org/Graphics/SVG/1.1/DTD/svg11.dtd">
<!-- Generated by graphviz version 9.0.0 (20230911.1827)
 -->
<!-- Title: buffer.hpp Pages: 1 -->
<svg width="225pt" height="138pt"
 viewBox="0.00 0.00 225.12 137.75" xmlns="http://www.w3.org/2000/svg" xmlns:xlink="http://www.w3.org/1999/xlink">

<svg id="main" version="1.1" xmlns="http://www.w3.org/2000/svg" xmlns:xlink="http://www.w3.org/1999/xlink" xml:space="preserve" onload="init(evt)">
<style type="text/css"><![CDATA[
.node, .edge {opacity: 0.7;}
.node.selected, .edge.selected {opacity: 1;}
.edge:hover path { stroke: red; }
.edge:hover polygon { stroke: red; fill: red; }
]]></style>
<script type="application/ecmascript" xlink:href="svg.min.js"/>
<svg id="graph" class="graph">
<g id="graph0" class="graph" transform="scale(1 1) rotate(0) translate(4 133.75)">
<title>buffer.hpp</title>
<!-- Node1 -->
<g id="Node000001" class="node">
<title>Node1</title>
<g id="a_Node000001"><a xlink:title=" ">
<polygon fill="#999999" stroke="#666666" points="123.87,-129.75 65.12,-129.75 65.12,-110.5 123.87,-110.5 123.87,-129.75"/>
<text text-anchor="middle" x="94.49" y="-116.25" font-family="Helvetica,sans-Serif" font-size="10.00">buffer.hpp</text>
</a>
</g>
</g>
<!-- Node2 -->
<g id="Node000002" class="node">
<title>Node2</title>
<g id="a_Node000002"><a xlink:href="command__buffer_8hpp.html" target="_top" xlink:title=" ">
<polygon fill="white" stroke="#666666" points="106.87,-19.25 0.12,-19.25 0.12,0 106.87,0 106.87,-19.25"/>
<text text-anchor="middle" x="53.49" y="-5.75" font-family="Helvetica,sans-Serif" font-size="10.00">command_buffer.hpp</text>
</a>
</g>
</g>
<!-- Node1&#45;&gt;Node2 -->
<g id="edge1_Node000001_Node000002" class="edge">
<title>Node1&#45;&gt;Node2</title>
<g id="a_edge1_Node000001_Node000002"><a xlink:title=" ">
<path fill="none" stroke="#63b8ff" d="M53.97,-109.82C35.2,-103.26 14.62,-92.35 3.49,-74.5 -9.47,-53.71 18.29,-31.67 37.4,-19.69"/>
<polygon fill="#63b8ff" stroke="#63b8ff" points="52.7,-113.09 63.29,-112.74 54.8,-106.41 52.7,-113.09"/>
</a>
</g>
</g>
<!-- Node3 -->
<g id="Node000003" class="node">
<title>Node3</title>
<g id="a_Node000003"><a xlink:href="deprecated_2device_8hpp_source.html" target="_top" xlink:title=" ">
<polygon fill="white" stroke="#666666" points="76.12,-74.5 12.87,-74.5 12.87,-55.25 76.12,-55.25 76.12,-74.5"/>
<text text-anchor="middle" x="44.49" y="-61" font-family="Helvetica,sans-Serif" font-size="10.00">device.hpp</text>
</a>
</g>
</g>
<!-- Node1&#45;&gt;Node3 -->
<g id="edge2_Node000001_Node000003" class="edge">
<title>Node1&#45;&gt;Node3</title>
<g id="a_edge2_Node000001_Node000003"><a xlink:title=" ">
<path fill="none" stroke="#63b8ff" d="M78.45,-102.04C69.96,-93 59.89,-82.27 52.93,-74.86"/>
<polygon fill="#63b8ff" stroke="#63b8ff" points="75.8,-104.33 85.2,-109.23 80.91,-99.54 75.8,-104.33"/>
</a>
</g>
</g>
<!-- Node4 -->
<g id="Node000004" class="node">
<title>Node4</title>
<g id="a_Node000004"><a xlink:href="device_8hpp_source.html" target="_top" xlink:title=" ">
<polygon fill="white" stroke="#666666" points="217.12,-19.25 153.87,-19.25 153.87,0 217.12,0 217.12,-19.25"/>
<text text-anchor="middle" x="185.49" y="-5.75" font-family="Helvetica,sans-Serif" font-size="10.00">device.hpp</text>
</a>
</g>
</g>
<!-- Node1&#45;&gt;Node4 -->
<g id="edge3_Node000001_Node000004" class="edge">
<title>Node1&#45;&gt;Node4</title>
<g id="a_edge3_Node000001_Node000004"><a xlink:title=" ">
<path fill="none" stroke="#63b8ff" d="M135.36,-114.3C160.42,-108.99 190.65,-97.86 206.49,-74.5 218.28,-57.11 203.11,-32.6 193.06,-19.57"/>
<polygon fill="#63b8ff" stroke="#63b8ff" points="134.96,-110.81 125.77,-116.07 136.24,-117.7 134.96,-110.81"/>
</a>
</g>
</g>
<!-- Node5 -->
<g id="Node000005" class="node">
<title>Node5</title>
<g id="a_Node000005"><a xlink:href="synchronization_8hpp.html" target="_top" xlink:title=" ">
<polygon fill="white" stroke="#666666" points="196.99,-74.5 93.99,-74.5 93.99,-55.25 196.99,-55.25 196.99,-74.5"/>
<text text-anchor="middle" x="145.49" y="-61" font-family="Helvetica,sans-Serif" font-size="10.00">synchronization.hpp</text>
</a>
</g>
</g>
<!-- Node1&#45;&gt;Node5 -->
<g id="edge4_Node000001_Node000005" class="edge">
<title>Node1&#45;&gt;Node5</title>
<g id="a_edge4_Node000001_Node000005"><a xlink:title=" ">
<path fill="none" stroke="#63b8ff" d="M110.85,-102.04C119.51,-93 129.79,-82.27 136.89,-74.86"/>
<polygon fill="#63b8ff" stroke="#63b8ff" points="108.35,-99.6 103.96,-109.24 113.41,-104.44 108.35,-99.6"/>
</a>
</g>
</g>
<!-- Node5&#45;&gt;Node2 -->
<g id="edge5_Node000005_Node000002" class="edge">
<title>Node5&#45;&gt;Node2</title>
<g id="a_edge5_Node000005_Node000002"><a xlink:title=" ">
<path fill="none" stroke="#63b8ff" d="M120.38,-49.34C104.03,-39.88 83.21,-27.83 69.18,-19.7"/>
<polygon fill="#63b8ff" stroke="#63b8ff" points="118.17,-52.1 128.58,-54.08 121.68,-46.04 118.17,-52.1"/>
</a>
</g>
</g>
<!-- Node5&#45;&gt;Node4 -->
<g id="edge6_Node000005_Node000004" class="edge">
<title>Node5&#45;&gt;Node4</title>
<g id="a_edge6_Node000005_Node000004"><a xlink:title=" ">
<path fill="none" stroke="#63b8ff" d="M158.97,-45.94C165.62,-37.09 173.35,-26.79 178.74,-19.61"/>
<polygon fill="#63b8ff" stroke="#63b8ff" points="156.21,-43.77 153.01,-53.87 161.81,-47.98 156.21,-43.77"/>
</a>
</g>
</g>
</g>
</svg>
</svg>

<style type='text/css'>
<![CDATA[
[data-mouse-over-selected='false'] { opacity: 0.7; }
[data-mouse-over-selected='true']  { opacity: 1.0; }
]]>
</style>
<script type="application/ecmascript"><![CDATA[
document.addEventListener('DOMContentLoaded', (event) => {
  highlightEdges();
  highlightAdjacentNodes();
});
]]></script>
</svg>
