<?xml version="1.0" encoding="UTF-8" standalone="no"?>
<!DOCTYPE svg PUBLIC "-//W3C//DTD SVG 1.1//EN"
 "http://www.w3.org/Graphics/SVG/1.1/DTD/svg11.dtd">
<!-- Generated by graphviz version 9.0.0 (20230911.1827)
 -->
<!-- Title: buffer.hpp Pages: 1 -->
<svg width="264pt" height="193pt"
 viewBox="0.00 0.00 263.75 193.00" xmlns="http://www.w3.org/2000/svg" xmlns:xlink="http://www.w3.org/1999/xlink">
<g id="graph0" class="graph" transform="scale(1 1) rotate(0) translate(4 189)">
<title>buffer.hpp</title>
<!-- Node1 -->
<g id="Node000001" class="node">
<title>Node1</title>
<g id="a_Node000001"><a xlink:title=" ">
<polygon fill="#999999" stroke="#666666" points="196.12,-185 137.38,-185 137.38,-165.75 196.12,-165.75 196.12,-185"/>
<text text-anchor="middle" x="166.75" y="-171.5" font-family="Helvetica,sans-Serif" font-size="10.00">buffer.hpp</text>
</a>
</g>
</g>
<!-- Node2 -->
<g id="Node000002" class="node">
<title>Node2</title>
<g id="a_Node000002"><a xlink:href="device__resource__state_8hpp.html" target="_top" xlink:title=" ">
<polygon fill="white" stroke="#666666" points="197.5,-129.75 0,-129.75 0,-110.5 197.5,-110.5 197.5,-129.75"/>
<text text-anchor="middle" x="98.75" y="-116.25" font-family="Helvetica,sans-Serif" font-size="10.00">liger/render/rhi/device_resource_state.hpp</text>
</a>
</g>
</g>
<!-- Node1&#45;&gt;Node2 -->
<g id="edge1_Node000001_Node000002" class="edge">
<title>Node1&#45;&gt;Node2</title>
<g id="a_edge1_Node000001_Node000002"><a xlink:title=" ">
<path fill="none" stroke="#63b8ff" d="M155.21,-165.34C145.29,-157.57 130.74,-146.17 118.89,-136.9"/>
<polygon fill="#63b8ff" stroke="#63b8ff" points="121.34,-134.37 111.31,-130.96 117.02,-139.88 121.34,-134.37"/>
</a>
</g>
</g>
<!-- Node5 -->
<g id="Node000005" class="node">
<title>Node5</title>
<g id="a_Node000005"><a xlink:title=" ">
<polygon fill="#e0e0e0" stroke="#999999" points="255.75,-129.75 215.75,-129.75 215.75,-110.5 255.75,-110.5 255.75,-129.75"/>
<text text-anchor="middle" x="235.75" y="-116.25" font-family="Helvetica,sans-Serif" font-size="10.00">string</text>
</a>
</g>
</g>
<!-- Node1&#45;&gt;Node5 -->
<g id="edge4_Node000001_Node000005" class="edge">
<title>Node1&#45;&gt;Node5</title>
<g id="a_edge4_Node000001_Node000005"><a xlink:title=" ">
<path fill="none" stroke="#63b8ff" d="M178.45,-165.34C188.53,-157.57 203.29,-146.17 215.31,-136.9"/>
<polygon fill="#63b8ff" stroke="#63b8ff" points="217.24,-139.83 223.02,-130.95 212.96,-134.29 217.24,-139.83"/>
</a>
</g>
</g>
<!-- Node3 -->
<g id="Node000003" class="node">
<title>Node3</title>
<g id="a_Node000003"><a xlink:href="enum__bitmask_8hpp.html" target="_top" xlink:title=" ">
<polygon fill="white" stroke="#666666" points="169.38,-74.5 28.12,-74.5 28.12,-55.25 169.38,-55.25 169.38,-74.5"/>
<text text-anchor="middle" x="98.75" y="-61" font-family="Helvetica,sans-Serif" font-size="10.00">liger/core/enum_bitmask.hpp</text>
</a>
</g>
</g>
<!-- Node2&#45;&gt;Node3 -->
<g id="edge2_Node000002_Node000003" class="edge">
<title>Node2&#45;&gt;Node3</title>
<g id="a_edge2_Node000002_Node000003"><a xlink:title=" ">
<path fill="none" stroke="#63b8ff" d="M98.75,-110.33C98.75,-103.82 98.75,-94.67 98.75,-86.37"/>
<polygon fill="#63b8ff" stroke="#63b8ff" points="102.25,-86.37 98.75,-76.37 95.25,-86.37 102.25,-86.37"/>
</a>
</g>
</g>
<!-- Node4 -->
<g id="Node000004" class="node">
<title>Node4</title>
<g id="a_Node000004"><a xlink:title=" ">
<polygon fill="#e0e0e0" stroke="#999999" points="129.62,-19.25 67.88,-19.25 67.88,0 129.62,0 129.62,-19.25"/>
<text text-anchor="middle" x="98.75" y="-5.75" font-family="Helvetica,sans-Serif" font-size="10.00">type_traits</text>
</a>
</g>
</g>
<!-- Node3&#45;&gt;Node4 -->
<g id="edge3_Node000003_Node000004" class="edge">
<title>Node3&#45;&gt;Node4</title>
<g id="a_edge3_Node000003_Node000004"><a xlink:title=" ">
<path fill="none" stroke="#63b8ff" d="M98.75,-55.08C98.75,-48.57 98.75,-39.42 98.75,-31.12"/>
<polygon fill="#63b8ff" stroke="#63b8ff" points="102.25,-31.12 98.75,-21.12 95.25,-31.12 102.25,-31.12"/>
</a>
</g>
</g>
</g>
</svg>
