<?xml version="1.0" encoding="UTF-8" standalone="no"?>
<!DOCTYPE svg PUBLIC "-//W3C//DTD SVG 1.1//EN"
 "http://www.w3.org/Graphics/SVG/1.1/DTD/svg11.dtd">
<!-- Generated by graphviz version 9.0.0 (20230911.1827)
 -->
<!-- Title: buffer.hpp Pages: 1 -->
<svg width="198pt" height="138pt"
 viewBox="0.00 0.00 198.38 137.75" xmlns="http://www.w3.org/2000/svg" xmlns:xlink="http://www.w3.org/1999/xlink">
<g id="graph0" class="graph" transform="scale(1 1) rotate(0) translate(4 133.75)">
<title>buffer.hpp</title>
<!-- Node1 -->
<g id="Node000001" class="node">
<title>Node1</title>
<g id="a_Node000001"><a xlink:title=" ">
<polygon fill="#999999" stroke="#666666" points="77.5,-129.75 18.75,-129.75 18.75,-110.5 77.5,-110.5 77.5,-129.75"/>
<text text-anchor="middle" x="48.12" y="-116.25" font-family="Helvetica,sans-Serif" font-size="10.00">buffer.hpp</text>
</a>
</g>
</g>
<!-- Node2 -->
<g id="Node000002" class="node">
<title>Node2</title>
<g id="a_Node000002"><a xlink:title=" ">
<polygon fill="#e0e0e0" stroke="#999999" points="96.25,-19.25 0,-19.25 0,0 96.25,0 96.25,-19.25"/>
<text text-anchor="middle" x="48.12" y="-5.75" font-family="Helvetica,sans-Serif" font-size="10.00">liger/core/core.hpp</text>
</a>
</g>
</g>
<!-- Node1&#45;&gt;Node2 -->
<g id="edge1_Node000001_Node000002" class="edge">
<title>Node1&#45;&gt;Node2</title>
<g id="a_edge1_Node000001_Node000002"><a xlink:title=" ">
<path fill="none" stroke="#63b8ff" d="M37.34,-110.14C28.39,-101.92 16.31,-88.89 11.12,-74.5 4.98,-57.46 16.9,-39.76 28.82,-27.32"/>
<polygon fill="#63b8ff" stroke="#63b8ff" points="30.95,-30.13 35.75,-20.68 26.11,-25.07 30.95,-30.13"/>
</a>
</g>
</g>
<!-- Node3 -->
<g id="Node000003" class="node">
<title>Node3</title>
<g id="a_Node000003"><a xlink:href="device__resource_8hpp.html" target="_top" xlink:title=" ">
<polygon fill="white" stroke="#666666" points="190.38,-74.5 19.88,-74.5 19.88,-55.25 190.38,-55.25 190.38,-74.5"/>
<text text-anchor="middle" x="105.12" y="-61" font-family="Helvetica,sans-Serif" font-size="10.00">liger/render/rhi/device_resource.hpp</text>
</a>
</g>
</g>
<!-- Node1&#45;&gt;Node3 -->
<g id="edge2_Node000001_Node000003" class="edge">
<title>Node1&#45;&gt;Node3</title>
<g id="a_edge2_Node000001_Node000003"><a xlink:title=" ">
<path fill="none" stroke="#63b8ff" d="M57.79,-110.09C65.87,-102.55 77.59,-91.6 87.35,-82.48"/>
<polygon fill="#63b8ff" stroke="#63b8ff" points="89.57,-85.19 94.49,-75.81 84.8,-80.08 89.57,-85.19"/>
</a>
</g>
</g>
<!-- Node3&#45;&gt;Node2 -->
<g id="edge3_Node000003_Node000002" class="edge">
<title>Node3&#45;&gt;Node2</title>
<g id="a_edge3_Node000003_Node000002"><a xlink:title=" ">
<path fill="none" stroke="#63b8ff" d="M95.46,-54.84C87.38,-47.3 75.66,-36.35 65.9,-27.23"/>
<polygon fill="#63b8ff" stroke="#63b8ff" points="68.45,-24.83 58.76,-20.56 63.68,-29.94 68.45,-24.83"/>
</a>
</g>
</g>
</g>
</svg>
