<?xml version="1.0" encoding="UTF-8" standalone="no"?>
<!DOCTYPE svg PUBLIC "-//W3C//DTD SVG 1.1//EN"
 "http://www.w3.org/Graphics/SVG/1.1/DTD/svg11.dtd">
<!-- Generated by graphviz version 7.1.0 (20230121.1956)
 -->
<!-- Title: callback.hpp Pages: 1 -->
<svg width="611pt" height="476pt"
 viewBox="0.00 0.00 611.00 476.00" xmlns="http://www.w3.org/2000/svg" xmlns:xlink="http://www.w3.org/1999/xlink">
<g id="graph0" class="graph" transform="scale(1 1) rotate(0) translate(4 472)">
<title>callback.hpp</title>
<polygon fill="white" stroke="none" points="-4,4 -4,-472 607,-472 607,4 -4,4"/>
<!-- Node1 -->
<g id="node1" class="node">
<title>Node1</title>
<g id="a_node1"><a xlink:title=" ">
<polygon fill="#bfbfbf" stroke="black" points="261.5,-448.5 261.5,-467.5 332.5,-467.5 332.5,-448.5 261.5,-448.5"/>
<text text-anchor="middle" x="297" y="-455.5" font-family="Helvetica,sans-Serif" font-size="10.00">callback.hpp</text>
</a>
</g>
</g>
<!-- Node2 -->
<g id="node2" class="node">
<title>Node2</title>
<g id="a_node2"><a xlink:href="default__log_8hpp.html" target="_top" xlink:title=" ">
<polygon fill="white" stroke="black" points="81.5,-392.5 81.5,-411.5 222.5,-411.5 222.5,-392.5 81.5,-392.5"/>
<text text-anchor="middle" x="152" y="-399.5" font-family="Helvetica,sans-Serif" font-size="10.00">liger/core/log/default_log.hpp</text>
</a>
</g>
</g>
<!-- Node1&#45;&gt;Node2 -->
<g id="edge1" class="edge">
<title>Node1&#45;&gt;Node2</title>
<path fill="none" stroke="midnightblue" d="M274.34,-448.56C250.4,-439.65 212.4,-425.5 185.11,-415.33"/>
<polygon fill="midnightblue" stroke="midnightblue" points="186.51,-412.12 175.92,-411.91 184.07,-418.68 186.51,-412.12"/>
</g>
<!-- Node8 -->
<g id="node8" class="node">
<title>Node8</title>
<g id="a_node8"><a xlink:href="types_8hpp.html" target="_top" xlink:title=" ">
<polygon fill="white" stroke="black" points="227,-56.5 227,-75.5 329,-75.5 329,-56.5 227,-56.5"/>
<text text-anchor="middle" x="278" y="-63.5" font-family="Helvetica,sans-Serif" font-size="10.00">liger/core/types.hpp</text>
</a>
</g>
</g>
<!-- Node1&#45;&gt;Node8 -->
<g id="edge22" class="edge">
<title>Node1&#45;&gt;Node8</title>
<path fill="none" stroke="midnightblue" d="M297,-448.72C297,-430.39 297,-385 297,-347 297,-347 297,-347 297,-177 297,-144.92 289.06,-108.34 283.44,-86.49"/>
<polygon fill="midnightblue" stroke="midnightblue" points="286.85,-85.68 280.88,-76.93 280.09,-87.5 286.85,-85.68"/>
</g>
<!-- Node19 -->
<g id="node19" class="node">
<title>Node19</title>
<g id="a_node19"><a xlink:href="log__channels_8hpp_source.html" target="_top" xlink:title=" ">
<polygon fill="white" stroke="black" points="325.5,-336.5 325.5,-355.5 476.5,-355.5 476.5,-336.5 325.5,-336.5"/>
<text text-anchor="middle" x="401" y="-343.5" font-family="Helvetica,sans-Serif" font-size="10.00">liger/core/log/log_channels.hpp</text>
</a>
</g>
</g>
<!-- Node1&#45;&gt;Node19 -->
<g id="edge20" class="edge">
<title>Node1&#45;&gt;Node19</title>
<path fill="none" stroke="midnightblue" d="M304.82,-448.73C321.91,-430.66 362.87,-387.33 385.43,-363.46"/>
<polygon fill="midnightblue" stroke="midnightblue" points="387.73,-366.13 392.05,-356.46 382.64,-361.33 387.73,-366.13"/>
</g>
<!-- Node3 -->
<g id="node3" class="node">
<title>Node3</title>
<g id="a_node3"><a xlink:href="log_8hpp.html" target="_top" xlink:title=" ">
<polygon fill="white" stroke="black" points="74.5,-336.5 74.5,-355.5 181.5,-355.5 181.5,-336.5 74.5,-336.5"/>
<text text-anchor="middle" x="128" y="-343.5" font-family="Helvetica,sans-Serif" font-size="10.00">liger/core/log/log.hpp</text>
</a>
</g>
</g>
<!-- Node2&#45;&gt;Node3 -->
<g id="edge2" class="edge">
<title>Node2&#45;&gt;Node3</title>
<path fill="none" stroke="midnightblue" d="M148.25,-392.56C145.06,-385.39 140.37,-374.82 136.3,-365.67"/>
<polygon fill="midnightblue" stroke="midnightblue" points="139.52,-364.3 132.26,-356.58 133.12,-367.14 139.52,-364.3"/>
</g>
<!-- Node4 -->
<g id="node4" class="node">
<title>Node4</title>
<g id="a_node4"><a xlink:title=" ">
<polygon fill="white" stroke="#bfbfbf" points="15.5,-280.5 15.5,-299.5 76.5,-299.5 76.5,-280.5 15.5,-280.5"/>
<text text-anchor="middle" x="46" y="-287.5" font-family="Helvetica,sans-Serif" font-size="10.00">fmt/core.h</text>
</a>
</g>
</g>
<!-- Node3&#45;&gt;Node4 -->
<g id="edge3" class="edge">
<title>Node3&#45;&gt;Node4</title>
<path fill="none" stroke="midnightblue" d="M115.19,-336.56C102.67,-328.32 83.36,-315.6 68.32,-305.7"/>
<polygon fill="midnightblue" stroke="midnightblue" points="70.26,-302.79 59.99,-300.21 66.41,-308.63 70.26,-302.79"/>
</g>
<!-- Node5 -->
<g id="node5" class="node">
<title>Node5</title>
<g id="a_node5"><a xlink:href="log__message_8hpp.html" target="_top" xlink:title=" ">
<polygon fill="white" stroke="black" points="103,-224.5 103,-243.5 255,-243.5 255,-224.5 103,-224.5"/>
<text text-anchor="middle" x="179" y="-231.5" font-family="Helvetica,sans-Serif" font-size="10.00">liger/core/log/log_message.hpp</text>
</a>
</g>
</g>
<!-- Node3&#45;&gt;Node5 -->
<g id="edge4" class="edge">
<title>Node3&#45;&gt;Node5</title>
<path fill="none" stroke="midnightblue" d="M124.98,-336.51C120.93,-323.6 115.19,-298.59 124,-280 129.99,-267.37 141.45,-257.1 152.37,-249.58"/>
<polygon fill="midnightblue" stroke="midnightblue" points="154.2,-252.56 160.79,-244.27 150.46,-246.64 154.2,-252.56"/>
</g>
<!-- Node18 -->
<g id="node18" class="node">
<title>Node18</title>
<g id="a_node18"><a xlink:href="log__writer_8hpp.html" target="_top" xlink:title=" ">
<polygon fill="white" stroke="black" points="133.5,-280.5 133.5,-299.5 268.5,-299.5 268.5,-280.5 133.5,-280.5"/>
<text text-anchor="middle" x="201" y="-287.5" font-family="Helvetica,sans-Serif" font-size="10.00">liger/core/log/log_writer.hpp</text>
</a>
</g>
</g>
<!-- Node3&#45;&gt;Node18 -->
<g id="edge18" class="edge">
<title>Node3&#45;&gt;Node18</title>
<path fill="none" stroke="midnightblue" d="M139.41,-336.56C150.51,-328.35 167.61,-315.7 180.98,-305.81"/>
<polygon fill="midnightblue" stroke="midnightblue" points="182.74,-308.86 188.7,-300.1 178.58,-303.23 182.74,-308.86"/>
</g>
<!-- Node6 -->
<g id="node6" class="node">
<title>Node6</title>
<g id="a_node6"><a xlink:href="log__level_8hpp.html" target="_top" xlink:title=" ">
<polygon fill="white" stroke="black" points="99,-168.5 99,-187.5 231,-187.5 231,-168.5 99,-168.5"/>
<text text-anchor="middle" x="165" y="-175.5" font-family="Helvetica,sans-Serif" font-size="10.00">liger/core/log/log_level.hpp</text>
</a>
</g>
</g>
<!-- Node5&#45;&gt;Node6 -->
<g id="edge5" class="edge">
<title>Node5&#45;&gt;Node6</title>
<path fill="none" stroke="midnightblue" d="M176.81,-224.56C174.99,-217.55 172.33,-207.29 170,-198.29"/>
<polygon fill="midnightblue" stroke="midnightblue" points="173.4,-197.47 167.51,-188.67 166.63,-199.22 173.4,-197.47"/>
</g>
<!-- Node5&#45;&gt;Node8 -->
<g id="edge17" class="edge">
<title>Node5&#45;&gt;Node8</title>
<path fill="none" stroke="midnightblue" d="M195.82,-224.51C209.56,-216.76 228.53,-204.07 240,-188 262.22,-156.86 271.78,-112.27 275.63,-86.81"/>
<polygon fill="midnightblue" stroke="midnightblue" points="279.1,-87.3 276.96,-76.92 272.16,-86.37 279.1,-87.3"/>
</g>
<!-- Node7 -->
<g id="node7" class="node">
<title>Node7</title>
<g id="a_node7"><a xlink:href="enum__class_8hpp.html" target="_top" xlink:title=" ">
<polygon fill="white" stroke="black" points="99.5,-112.5 99.5,-131.5 230.5,-131.5 230.5,-112.5 99.5,-112.5"/>
<text text-anchor="middle" x="165" y="-119.5" font-family="Helvetica,sans-Serif" font-size="10.00">liger/core/enum_class.hpp</text>
</a>
</g>
</g>
<!-- Node6&#45;&gt;Node7 -->
<g id="edge6" class="edge">
<title>Node6&#45;&gt;Node7</title>
<path fill="none" stroke="midnightblue" d="M165,-168.56C165,-161.63 165,-151.52 165,-142.59"/>
<polygon fill="midnightblue" stroke="midnightblue" points="168.5,-142.71 165,-132.71 161.5,-142.72 168.5,-142.71"/>
</g>
<!-- Node7&#45;&gt;Node8 -->
<g id="edge7" class="edge">
<title>Node7&#45;&gt;Node8</title>
<path fill="none" stroke="midnightblue" d="M182.66,-112.56C200.73,-103.92 229.09,-90.37 250.19,-80.29"/>
<polygon fill="midnightblue" stroke="midnightblue" points="251.59,-83.5 259.1,-76.03 248.57,-77.18 251.59,-83.5"/>
</g>
<!-- Node9 -->
<g id="node9" class="node">
<title>Node9</title>
<g id="a_node9"><a xlink:title=" ">
<polygon fill="white" stroke="#bfbfbf" points="0,-0.5 0,-19.5 46,-19.5 46,-0.5 0,-0.5"/>
<text text-anchor="middle" x="23" y="-7.5" font-family="Helvetica,sans-Serif" font-size="10.00">cstdint</text>
</a>
</g>
</g>
<!-- Node8&#45;&gt;Node9 -->
<g id="edge8" class="edge">
<title>Node8&#45;&gt;Node9</title>
<path fill="none" stroke="midnightblue" d="M230.79,-56.54C187.88,-48.61 122.62,-35.96 56.68,-20.25"/>
<polygon fill="midnightblue" stroke="midnightblue" points="57.68,-16.89 47.14,-17.96 56.05,-23.7 57.68,-16.89"/>
</g>
<!-- Node10 -->
<g id="node10" class="node">
<title>Node10</title>
<g id="a_node10"><a xlink:title=" ">
<polygon fill="white" stroke="#bfbfbf" points="64,-0.5 64,-19.5 114,-19.5 114,-0.5 64,-0.5"/>
<text text-anchor="middle" x="89" y="-7.5" font-family="Helvetica,sans-Serif" font-size="10.00">fstream</text>
</a>
</g>
</g>
<!-- Node8&#45;&gt;Node10 -->
<g id="edge9" class="edge">
<title>Node8&#45;&gt;Node10</title>
<path fill="none" stroke="midnightblue" d="M248.47,-56.56C215.02,-47.01 160.54,-31.44 124.73,-21.21"/>
<polygon fill="midnightblue" stroke="midnightblue" points="125.84,-17.89 115.26,-18.5 123.91,-24.62 125.84,-17.89"/>
</g>
<!-- Node11 -->
<g id="node11" class="node">
<title>Node11</title>
<g id="a_node11"><a xlink:title=" ">
<polygon fill="white" stroke="#bfbfbf" points="132,-0.5 132,-19.5 186,-19.5 186,-0.5 132,-0.5"/>
<text text-anchor="middle" x="159" y="-7.5" font-family="Helvetica,sans-Serif" font-size="10.00">iostream</text>
</a>
</g>
</g>
<!-- Node8&#45;&gt;Node11 -->
<g id="edge10" class="edge">
<title>Node8&#45;&gt;Node11</title>
<path fill="none" stroke="midnightblue" d="M259.41,-56.56C240.19,-47.84 209.95,-34.12 187.68,-24.01"/>
<polygon fill="midnightblue" stroke="midnightblue" points="189.39,-20.95 178.84,-20 186.5,-27.32 189.39,-20.95"/>
</g>
<!-- Node12 -->
<g id="node12" class="node">
<title>Node12</title>
<g id="a_node12"><a xlink:title=" ">
<polygon fill="white" stroke="#bfbfbf" points="204.5,-0.5 204.5,-19.5 239.5,-19.5 239.5,-0.5 204.5,-0.5"/>
<text text-anchor="middle" x="222" y="-7.5" font-family="Helvetica,sans-Serif" font-size="10.00">map</text>
</a>
</g>
</g>
<!-- Node8&#45;&gt;Node12 -->
<g id="edge11" class="edge">
<title>Node8&#45;&gt;Node12</title>
<path fill="none" stroke="midnightblue" d="M269.25,-56.56C261.07,-48.67 248.63,-36.68 238.57,-26.98"/>
<polygon fill="midnightblue" stroke="midnightblue" points="241.22,-24.67 231.59,-20.25 236.36,-29.71 241.22,-24.67"/>
</g>
<!-- Node13 -->
<g id="node13" class="node">
<title>Node13</title>
<g id="a_node13"><a xlink:title=" ">
<polygon fill="white" stroke="#bfbfbf" points="257.5,-0.5 257.5,-19.5 298.5,-19.5 298.5,-0.5 257.5,-0.5"/>
<text text-anchor="middle" x="278" y="-7.5" font-family="Helvetica,sans-Serif" font-size="10.00">string</text>
</a>
</g>
</g>
<!-- Node8&#45;&gt;Node13 -->
<g id="edge12" class="edge">
<title>Node8&#45;&gt;Node13</title>
<path fill="none" stroke="midnightblue" d="M278,-56.56C278,-49.63 278,-39.52 278,-30.59"/>
<polygon fill="midnightblue" stroke="midnightblue" points="281.5,-30.71 278,-20.71 274.5,-30.72 281.5,-30.71"/>
</g>
<!-- Node14 -->
<g id="node14" class="node">
<title>Node14</title>
<g id="a_node14"><a xlink:title=" ">
<polygon fill="white" stroke="#bfbfbf" points="317,-0.5 317,-19.5 383,-19.5 383,-0.5 317,-0.5"/>
<text text-anchor="middle" x="350" y="-7.5" font-family="Helvetica,sans-Serif" font-size="10.00">string_view</text>
</a>
</g>
</g>
<!-- Node8&#45;&gt;Node14 -->
<g id="edge13" class="edge">
<title>Node8&#45;&gt;Node14</title>
<path fill="none" stroke="midnightblue" d="M289.25,-56.56C300.09,-48.43 316.74,-35.95 329.87,-26.1"/>
<polygon fill="midnightblue" stroke="midnightblue" points="331.95,-28.91 337.85,-20.11 327.75,-23.31 331.95,-28.91"/>
</g>
<!-- Node15 -->
<g id="node15" class="node">
<title>Node15</title>
<g id="a_node15"><a xlink:title=" ">
<polygon fill="white" stroke="#bfbfbf" points="401,-0.5 401,-19.5 463,-19.5 463,-0.5 401,-0.5"/>
<text text-anchor="middle" x="432" y="-7.5" font-family="Helvetica,sans-Serif" font-size="10.00">type_traits</text>
</a>
</g>
</g>
<!-- Node8&#45;&gt;Node15 -->
<g id="edge14" class="edge">
<title>Node8&#45;&gt;Node15</title>
<path fill="none" stroke="midnightblue" d="M302.06,-56.56C327.64,-47.59 368.33,-33.33 397.35,-23.15"/>
<polygon fill="midnightblue" stroke="midnightblue" points="398.15,-26.58 406.42,-19.97 395.83,-19.97 398.15,-26.58"/>
</g>
<!-- Node16 -->
<g id="node16" class="node">
<title>Node16</title>
<g id="a_node16"><a xlink:title=" ">
<polygon fill="white" stroke="#bfbfbf" points="481.5,-0.5 481.5,-19.5 540.5,-19.5 540.5,-0.5 481.5,-0.5"/>
<text text-anchor="middle" x="511" y="-7.5" font-family="Helvetica,sans-Serif" font-size="10.00">typeindex</text>
</a>
</g>
</g>
<!-- Node8&#45;&gt;Node16 -->
<g id="edge15" class="edge">
<title>Node8&#45;&gt;Node16</title>
<path fill="none" stroke="midnightblue" d="M314.66,-56.5C357.01,-46.69 426.49,-30.59 470.43,-20.4"/>
<polygon fill="midnightblue" stroke="midnightblue" points="471.13,-23.83 480.09,-18.16 469.55,-17.01 471.13,-23.83"/>
</g>
<!-- Node17 -->
<g id="node17" class="node">
<title>Node17</title>
<g id="a_node17"><a xlink:title=" ">
<polygon fill="white" stroke="#bfbfbf" points="559,-0.5 559,-19.5 603,-19.5 603,-0.5 559,-0.5"/>
<text text-anchor="middle" x="581" y="-7.5" font-family="Helvetica,sans-Serif" font-size="10.00">vector</text>
</a>
</g>
</g>
<!-- Node8&#45;&gt;Node17 -->
<g id="edge16" class="edge">
<title>Node8&#45;&gt;Node17</title>
<path fill="none" stroke="midnightblue" d="M328.98,-58.41C381.54,-51.2 466.03,-38.48 548.04,-20.21"/>
<polygon fill="midnightblue" stroke="midnightblue" points="548.61,-23.67 557.59,-18.05 547.07,-16.84 548.61,-23.67"/>
</g>
<!-- Node18&#45;&gt;Node5 -->
<g id="edge19" class="edge">
<title>Node18&#45;&gt;Node5</title>
<path fill="none" stroke="midnightblue" d="M197.56,-280.56C194.64,-273.39 190.34,-262.82 186.61,-253.67"/>
<polygon fill="midnightblue" stroke="midnightblue" points="189.93,-252.54 182.91,-244.6 183.44,-255.18 189.93,-252.54"/>
</g>
<!-- Node19&#45;&gt;Node8 -->
<g id="edge21" class="edge">
<title>Node19&#45;&gt;Node8</title>
<path fill="none" stroke="midnightblue" d="M396.69,-336.7C387.74,-318.69 368,-274.48 368,-235 368,-235 368,-235 368,-177 368,-134.99 328.2,-100.21 301.53,-81.62"/>
<polygon fill="midnightblue" stroke="midnightblue" points="303.58,-78.78 293.32,-76.14 299.7,-84.6 303.58,-78.78"/>
</g>
</g>
</svg>
