<?xml version="1.0" encoding="UTF-8" standalone="no"?>
<!DOCTYPE svg PUBLIC "-//W3C//DTD SVG 1.1//EN"
 "http://www.w3.org/Graphics/SVG/1.1/DTD/svg11.dtd">
<!-- Generated by graphviz version 9.0.0 (20230911.1827)
 -->
<!-- Title: liger::core::detail::IBaseEventSink Pages: 1 -->
<svg width="166pt" height="217pt"
 viewBox="0.00 0.00 166.00 217.00" xmlns="http://www.w3.org/2000/svg" xmlns:xlink="http://www.w3.org/1999/xlink">
<g id="graph0" class="graph" transform="scale(1 1) rotate(0) translate(4 213)">
<title>liger::core::detail::IBaseEventSink</title>
<!-- Node1 -->
<g id="Node000001" class="node">
<title>Node1</title>
<g id="a_Node000001"><a xlink:title=" ">
<polygon fill="#999999" stroke="none" points="158,-209 0,-209 0,-160 158,-160 158,-209"/>
<text text-anchor="start" x="4.75" y="-195.5" font-family="Helvetica,sans-Serif" font-size="10.00">liger::core::detail::IBaseEventSink</text>
<text text-anchor="start" x="77.5" y="-180.5" font-family="Helvetica,sans-Serif" font-size="10.00"> </text>
<text text-anchor="start" x="18.5" y="-165.5" font-family="Helvetica,sans-Serif" font-size="10.00">+</text>
<text text-anchor="start" x="43" y="-165.5" font-family="Helvetica,sans-Serif" font-size="10.00">~IBaseEventSink()</text>
<polygon fill="#666666" stroke="#666666" points="0,-192 0,-192 158,-192 158,-192 0,-192"/>
<polygon fill="#666666" stroke="#666666" points="0,-177 0,-177 158,-177 158,-177 0,-177"/>
<polygon fill="none" stroke="#666666" points="0,-160 0,-209 158,-209 158,-160 0,-160"/>
</a>
</g>
</g>
<!-- Node2 -->
<g id="Node000002" class="node">
<title>Node2</title>
<g id="a_Node000002"><a xlink:href="classliger_1_1core_1_1_event_sink.html" target="_top" xlink:title="Event sink for callbacks of the specified event.">
<polygon fill="white" stroke="none" points="155.5,-124 2.5,-124 2.5,0 155.5,0 155.5,-124"/>
<text text-anchor="start" x="7.38" y="-110.5" font-family="Helvetica,sans-Serif" font-size="10.00">liger::core::EventSink&lt; EventT &gt;</text>
<text text-anchor="start" x="77.5" y="-95.5" font-family="Helvetica,sans-Serif" font-size="10.00"> </text>
<text text-anchor="start" x="26" y="-80.5" font-family="Helvetica,sans-Serif" font-size="10.00">+</text>
<text text-anchor="start" x="55.5" y="-80.5" font-family="Helvetica,sans-Serif" font-size="10.00">~EventSink()</text>
<text text-anchor="start" x="26" y="-65.5" font-family="Helvetica,sans-Serif" font-size="10.00">+</text>
<text text-anchor="start" x="55.5" y="-65.5" font-family="Helvetica,sans-Serif" font-size="10.00">Connect()</text>
<text text-anchor="start" x="26" y="-50.5" font-family="Helvetica,sans-Serif" font-size="10.00">+</text>
<text text-anchor="start" x="55.5" y="-50.5" font-family="Helvetica,sans-Serif" font-size="10.00">Connect()</text>
<text text-anchor="start" x="26" y="-35.5" font-family="Helvetica,sans-Serif" font-size="10.00">+</text>
<text text-anchor="start" x="55.5" y="-35.5" font-family="Helvetica,sans-Serif" font-size="10.00">Remove()</text>
<text text-anchor="start" x="26" y="-20.5" font-family="Helvetica,sans-Serif" font-size="10.00">+</text>
<text text-anchor="start" x="55.5" y="-20.5" font-family="Helvetica,sans-Serif" font-size="10.00">Remove()</text>
<text text-anchor="start" x="26" y="-5.5" font-family="Helvetica,sans-Serif" font-size="10.00">+</text>
<text text-anchor="start" x="55.5" y="-5.5" font-family="Helvetica,sans-Serif" font-size="10.00">Dispatch()</text>
<polygon fill="#666666" stroke="#666666" points="2.5,-107 2.5,-107 155.5,-107 155.5,-107 2.5,-107"/>
<polygon fill="#666666" stroke="#666666" points="2.5,-92 2.5,-92 155.5,-92 155.5,-92 2.5,-92"/>
<polygon fill="none" stroke="#666666" points="2.5,0 2.5,-124 155.5,-124 155.5,0 2.5,0"/>
</a>
</g>
</g>
<!-- Node1&#45;&gt;Node2 -->
<g id="edge1_Node000001_Node000002" class="edge">
<title>Node1&#45;&gt;Node2</title>
<g id="a_edge1_Node000001_Node000002"><a xlink:title=" ">
<path fill="none" stroke="#63b8ff" d="M79,-148.99C79,-141.13 79,-132.56 79,-123.97"/>
<polygon fill="none" stroke="#63b8ff" points="75.5,-148.75 79,-158.75 82.5,-148.75 75.5,-148.75"/>
</a>
</g>
</g>
</g>
</svg>
