<?xml version="1.0" encoding="UTF-8" standalone="no"?>
<!DOCTYPE svg PUBLIC "-//W3C//DTD SVG 1.1//EN"
 "http://www.w3.org/Graphics/SVG/1.1/DTD/svg11.dtd">
<!-- Generated by graphviz version 7.1.0 (20230121.1956)
 -->
<!-- Title: liger::EventSink&lt; EventT &gt; Pages: 1 -->
<svg width="148pt" height="215pt"
 viewBox="0.00 0.00 148.00 215.00" xmlns="http://www.w3.org/2000/svg" xmlns:xlink="http://www.w3.org/1999/xlink">
<g id="graph0" class="graph" transform="scale(1 1) rotate(0) translate(4 211)">
<title>liger::EventSink&lt; EventT &gt;</title>
<polygon fill="white" stroke="none" points="-4,4 -4,-211 144,-211 144,4 -4,4"/>
<!-- Node1 -->
<g id="node1" class="node">
<title>Node1</title>
<g id="a_node1"><a xlink:title="Event sink for callbacks of the specified event.">
<polygon fill="#bfbfbf" stroke="black" points="2.5,-0.5 2.5,-112.5 137.5,-112.5 137.5,-0.5 2.5,-0.5"/>
<text text-anchor="middle" x="70" y="-100.5" font-family="Helvetica,sans-Serif" font-size="10.00">liger::EventSink&lt; EventT &gt;</text>
<polyline fill="none" stroke="black" points="2.5,-93.5 137.5,-93.5"/>
<text text-anchor="middle" x="70" y="-81.5" font-family="Helvetica,sans-Serif" font-size="10.00"> </text>
<polyline fill="none" stroke="black" points="2.5,-74.5 137.5,-74.5"/>
<text text-anchor="start" x="10.5" y="-62.5" font-family="Helvetica,sans-Serif" font-size="10.00">+ ~EventSink()</text>
<text text-anchor="start" x="10.5" y="-51.5" font-family="Helvetica,sans-Serif" font-size="10.00">+ Connect()</text>
<text text-anchor="start" x="10.5" y="-40.5" font-family="Helvetica,sans-Serif" font-size="10.00">+ Connect()</text>
<text text-anchor="start" x="10.5" y="-29.5" font-family="Helvetica,sans-Serif" font-size="10.00">+ Remove()</text>
<text text-anchor="start" x="10.5" y="-18.5" font-family="Helvetica,sans-Serif" font-size="10.00">+ Remove()</text>
<text text-anchor="start" x="10.5" y="-7.5" font-family="Helvetica,sans-Serif" font-size="10.00">+ Dispatch()</text>
</a>
</g>
</g>
<!-- Node2 -->
<g id="node2" class="node">
<title>Node2</title>
<g id="a_node2"><a xlink:href="classliger_1_1detail_1_1_i_base_event_sink.html" target="_top" xlink:title=" ">
<polygon fill="white" stroke="black" points="0,-149.5 0,-206.5 140,-206.5 140,-149.5 0,-149.5"/>
<text text-anchor="middle" x="70" y="-194.5" font-family="Helvetica,sans-Serif" font-size="10.00">liger::detail::IBaseEventSink</text>
<polyline fill="none" stroke="black" points="0,-187.5 140,-187.5"/>
<text text-anchor="middle" x="70" y="-175.5" font-family="Helvetica,sans-Serif" font-size="10.00"> </text>
<polyline fill="none" stroke="black" points="0,-168.5 140,-168.5"/>
<text text-anchor="start" x="8" y="-156.5" font-family="Helvetica,sans-Serif" font-size="10.00">+ ~IBaseEventSink()</text>
</a>
</g>
</g>
<!-- Node2&#45;&gt;Node1 -->
<g id="edge1" class="edge">
<title>Node2&#45;&gt;Node1</title>
<path fill="none" stroke="midnightblue" d="M70,-138.28C70,-129.92 70,-120.94 70,-112.11"/>
<polygon fill="none" stroke="midnightblue" points="66.5,-138.07 70,-148.07 73.5,-138.07 66.5,-138.07"/>
</g>
</g>
</svg>
