<?xml version="1.0" encoding="UTF-8" standalone="no"?>
<!DOCTYPE svg PUBLIC "-//W3C//DTD SVG 1.1//EN"
 "http://www.w3.org/Graphics/SVG/1.1/DTD/svg11.dtd">
<!-- Generated by graphviz version 7.1.0 (20230121.1956)
 -->
<!-- Title: liger::detail::IBaseEventSink Pages: 1 -->
<svg width="142pt" height="217pt"
 viewBox="0.00 0.00 142.00 217.00" xmlns="http://www.w3.org/2000/svg" xmlns:xlink="http://www.w3.org/1999/xlink">
<g id="graph0" class="graph" transform="scale(1 1) rotate(0) translate(4 213)">
<title>liger::detail::IBaseEventSink</title>
<!-- Node1 -->
<g id="Node000001" class="node">
<title>Node1</title>
<g id="a_Node000001"><a xlink:title=" ">
<polygon fill="#999999" stroke="none" points="134,-209 0,-209 0,-160 134,-160 134,-209"/>
<text text-anchor="start" x="5" y="-196.5" font-family="Helvetica,sans-Serif" font-size="10.00">liger::detail::IBaseEventSink</text>
<text text-anchor="start" x="65" y="-181.5" font-family="Helvetica,sans-Serif" font-size="10.00"> </text>
<text text-anchor="start" x="12" y="-166.5" font-family="Helvetica,sans-Serif" font-size="10.00">+</text>
<text text-anchor="start" x="31" y="-166.5" font-family="Helvetica,sans-Serif" font-size="10.00">~IBaseEventSink()</text>
<polygon fill="#666666" stroke="#666666" points="0,-191.5 0,-191.5 134,-191.5 134,-191.5 0,-191.5"/>
<polygon fill="#666666" stroke="#666666" points="0,-176.5 0,-176.5 134,-176.5 134,-176.5 0,-176.5"/>
<polygon fill="none" stroke="#666666" points="0,-160 0,-209 134,-209 134,-160 0,-160"/>
</a>
</g>
</g>
<!-- Node2 -->
<g id="Node000002" class="node">
<title>Node2</title>
<g id="a_Node000002"><a xlink:href="classliger_1_1_event_sink.html" target="_top" xlink:title="Event sink for callbacks of the specified event.">
<polygon fill="white" stroke="none" points="131.5,-124 2.5,-124 2.5,0 131.5,0 131.5,-124"/>
<text text-anchor="start" x="8" y="-112" font-family="Helvetica,sans-Serif" font-size="10.00">liger::EventSink&lt; EventT &gt;</text>
<text text-anchor="start" x="65.5" y="-97" font-family="Helvetica,sans-Serif" font-size="10.00"> </text>
<text text-anchor="start" x="20" y="-82" font-family="Helvetica,sans-Serif" font-size="10.00">+</text>
<text text-anchor="start" x="44" y="-82" font-family="Helvetica,sans-Serif" font-size="10.00">~EventSink()</text>
<text text-anchor="start" x="20" y="-67" font-family="Helvetica,sans-Serif" font-size="10.00">+</text>
<text text-anchor="start" x="44" y="-67" font-family="Helvetica,sans-Serif" font-size="10.00">Connect()</text>
<text text-anchor="start" x="20" y="-52" font-family="Helvetica,sans-Serif" font-size="10.00">+</text>
<text text-anchor="start" x="44" y="-52" font-family="Helvetica,sans-Serif" font-size="10.00">Connect()</text>
<text text-anchor="start" x="20" y="-37" font-family="Helvetica,sans-Serif" font-size="10.00">+</text>
<text text-anchor="start" x="44" y="-37" font-family="Helvetica,sans-Serif" font-size="10.00">Remove()</text>
<text text-anchor="start" x="20" y="-22" font-family="Helvetica,sans-Serif" font-size="10.00">+</text>
<text text-anchor="start" x="44" y="-22" font-family="Helvetica,sans-Serif" font-size="10.00">Remove()</text>
<text text-anchor="start" x="20" y="-7" font-family="Helvetica,sans-Serif" font-size="10.00">+</text>
<text text-anchor="start" x="44" y="-7" font-family="Helvetica,sans-Serif" font-size="10.00">Dispatch()</text>
<polygon fill="#666666" stroke="#666666" points="3,-107 3,-107 132,-107 132,-107 3,-107"/>
<polygon fill="#666666" stroke="#666666" points="3,-92 3,-92 132,-92 132,-92 3,-92"/>
<polygon fill="none" stroke="#666666" points="2.5,0 2.5,-124 131.5,-124 131.5,0 2.5,0"/>
</a>
</g>
</g>
<!-- Node1&#45;&gt;Node2 -->
<g id="edge1_Node000001_Node000002" class="edge">
<title>Node1&#45;&gt;Node2</title>
<g id="a_edge1_Node000001_Node000002"><a xlink:title=" ">
<path fill="none" stroke="#63b8ff" d="M67,-148.99C67,-141.13 67,-132.56 67,-123.97"/>
<polygon fill="none" stroke="#63b8ff" points="63.5,-148.75 67,-158.75 70.5,-148.75 63.5,-148.75"/>
</a>
</g>
</g>
</g>
</svg>
