<?xml version="1.0" encoding="UTF-8" standalone="no"?>
<!DOCTYPE svg PUBLIC "-//W3C//DTD SVG 1.1//EN"
 "http://www.w3.org/Graphics/SVG/1.1/DTD/svg11.dtd">
<!-- Generated by graphviz version 9.0.0 (20230911.1827)
 -->
<!-- Title: liger::rhi::ResourceVersionRegistry&lt; ResourceTypes &gt; Pages: 1 -->
<svg width="194pt" height="295pt"
 viewBox="0.00 0.00 194.00 295.25" xmlns="http://www.w3.org/2000/svg" xmlns:xlink="http://www.w3.org/1999/xlink">
<g id="graph0" class="graph" transform="scale(1 1) rotate(0) translate(4 291.25)">
<title>liger::rhi::ResourceVersionRegistry&lt; ResourceTypes &gt;</title>
<!-- Node1 -->
<g id="Node000001" class="node">
<title>Node1</title>
<g id="a_Node000001"><a xlink:title=" ">
<polygon fill="#999999" stroke="none" points="162,-287.25 0,-287.25 0,-167.25 162,-167.25 162,-287.25"/>
<text text-anchor="start" x="4.88" y="-273.75" font-family="Helvetica,sans-Serif" font-size="10.00">liger::rhi::ResourceVersionRegistry</text>
<text text-anchor="start" x="37.88" y="-262.5" font-family="Helvetica,sans-Serif" font-size="10.00">&lt; ResourceTypes &gt;</text>
<text text-anchor="start" x="19.5" y="-247.75" font-family="Helvetica,sans-Serif" font-size="10.00">+</text>
<text text-anchor="start" x="45" y="-247.75" font-family="Helvetica,sans-Serif" font-size="10.00">kInvalidVersion</text>
<text text-anchor="start" x="19.5" y="-232.75" font-family="Helvetica,sans-Serif" font-size="10.00">+</text>
<text text-anchor="start" x="45" y="-232.75" font-family="Helvetica,sans-Serif" font-size="10.00">AddResource()</text>
<text text-anchor="start" x="19.5" y="-217.75" font-family="Helvetica,sans-Serif" font-size="10.00">+</text>
<text text-anchor="start" x="45" y="-217.75" font-family="Helvetica,sans-Serif" font-size="10.00">DeclareResource()</text>
<text text-anchor="start" x="19.5" y="-202.75" font-family="Helvetica,sans-Serif" font-size="10.00">+</text>
<text text-anchor="start" x="45" y="-202.75" font-family="Helvetica,sans-Serif" font-size="10.00">UpdateResource()</text>
<text text-anchor="start" x="19.5" y="-187.75" font-family="Helvetica,sans-Serif" font-size="10.00">+</text>
<text text-anchor="start" x="45" y="-187.75" font-family="Helvetica,sans-Serif" font-size="10.00">NextVersion()</text>
<text text-anchor="start" x="19.5" y="-172.75" font-family="Helvetica,sans-Serif" font-size="10.00">+</text>
<text text-anchor="start" x="45" y="-172.75" font-family="Helvetica,sans-Serif" font-size="10.00">GetResource()</text>
<polygon fill="#666666" stroke="#666666" points="0,-259.25 0,-259.25 162,-259.25 162,-259.25 0,-259.25"/>
<polygon fill="#666666" stroke="#666666" points="0,-244.25 0,-244.25 43,-244.25 43,-244.25 0,-244.25"/>
<polygon fill="#666666" stroke="#666666" points="43,-244.25 43,-244.25 162,-244.25 162,-244.25 43,-244.25"/>
<polygon fill="none" stroke="#666666" points="0,-167.25 0,-287.25 162,-287.25 162,-167.25 0,-167.25"/>
</a>
</g>
</g>
<!-- Node2 -->
<g id="Node000002" class="node">
<title>Node2</title>
<g id="a_Node000002"><a xlink:href="classliger_1_1rhi_1_1_resource_version_registry.html" target="_top" xlink:title=" ">
<polygon fill="white" stroke="none" points="162,-120 0,-120 0,0 162,0 162,-120"/>
<text text-anchor="start" x="4.88" y="-106.5" font-family="Helvetica,sans-Serif" font-size="10.00">liger::rhi::ResourceVersionRegistry</text>
<text text-anchor="start" x="30" y="-95.25" font-family="Helvetica,sans-Serif" font-size="10.00">&lt; ITexture *, IBuffer * &gt;</text>
<text text-anchor="start" x="19.5" y="-80.5" font-family="Helvetica,sans-Serif" font-size="10.00">+</text>
<text text-anchor="start" x="45" y="-80.5" font-family="Helvetica,sans-Serif" font-size="10.00">kInvalidVersion</text>
<text text-anchor="start" x="19.5" y="-65.5" font-family="Helvetica,sans-Serif" font-size="10.00">+</text>
<text text-anchor="start" x="45" y="-65.5" font-family="Helvetica,sans-Serif" font-size="10.00">AddResource()</text>
<text text-anchor="start" x="19.5" y="-50.5" font-family="Helvetica,sans-Serif" font-size="10.00">+</text>
<text text-anchor="start" x="45" y="-50.5" font-family="Helvetica,sans-Serif" font-size="10.00">DeclareResource()</text>
<text text-anchor="start" x="19.5" y="-35.5" font-family="Helvetica,sans-Serif" font-size="10.00">+</text>
<text text-anchor="start" x="45" y="-35.5" font-family="Helvetica,sans-Serif" font-size="10.00">UpdateResource()</text>
<text text-anchor="start" x="19.5" y="-20.5" font-family="Helvetica,sans-Serif" font-size="10.00">+</text>
<text text-anchor="start" x="45" y="-20.5" font-family="Helvetica,sans-Serif" font-size="10.00">NextVersion()</text>
<text text-anchor="start" x="19.5" y="-5.5" font-family="Helvetica,sans-Serif" font-size="10.00">+</text>
<text text-anchor="start" x="45" y="-5.5" font-family="Helvetica,sans-Serif" font-size="10.00">GetResource()</text>
<polygon fill="#bfbfbf" stroke="#bfbfbf" points="0,-92 0,-92 162,-92 162,-92 0,-92"/>
<polygon fill="#bfbfbf" stroke="#bfbfbf" points="0,-77 0,-77 43,-77 43,-77 0,-77"/>
<polygon fill="#bfbfbf" stroke="#bfbfbf" points="43,-77 43,-77 162,-77 162,-77 43,-77"/>
<polygon fill="none" stroke="#bfbfbf" points="0,0 0,-120 162,-120 162,0 0,0"/>
</a>
</g>
</g>
<!-- Node1&#45;&gt;Node2 -->
<g id="edge1_Node000001_Node000002" class="edge">
<title>Node1&#45;&gt;Node2</title>
<g id="a_edge1_Node000001_Node000002"><a xlink:title=" ">
<path fill="none" stroke="orange" d="M81,-156.09C81,-144 81,-131.56 81,-119.82"/>
<polygon fill="orange" stroke="orange" points="77.5,-156.01 81,-166.01 84.5,-156.01 77.5,-156.01"/>
</a>
</g>
<text text-anchor="middle" x="133.5" y="-139.75" font-family="Helvetica,sans-Serif" font-size="10.00" fill="grey"> &lt; ITexture *, IBuffer * &gt;</text>
</g>
</g>
</svg>
