<?xml version="1.0" encoding="UTF-8" standalone="no"?>
<!DOCTYPE svg PUBLIC "-//W3C//DTD SVG 1.1//EN"
 "http://www.w3.org/Graphics/SVG/1.1/DTD/svg11.dtd">
<!-- Generated by graphviz version 9.0.0 (20230911.1827)
 -->
<!-- Title: liger::rhi::VulkanInstance Pages: 1 -->
<svg width="126pt" height="277pt"
 viewBox="0.00 0.00 126.00 277.00" xmlns="http://www.w3.org/2000/svg" xmlns:xlink="http://www.w3.org/1999/xlink">
<g id="graph0" class="graph" transform="scale(1 1) rotate(0) translate(4 273)">
<title>liger::rhi::VulkanInstance</title>
<!-- Node1 -->
<g id="Node000001" class="node">
<title>Node1</title>
<g id="a_Node000001"><a xlink:title=" ">
<polygon fill="#999999" stroke="none" points="118,-94 0,-94 0,0 118,0 118,-94"/>
<text text-anchor="start" x="5" y="-80.5" font-family="Helvetica,sans-Serif" font-size="10.00">liger::rhi::VulkanInstance</text>
<text text-anchor="start" x="57.5" y="-65.5" font-family="Helvetica,sans-Serif" font-size="10.00"> </text>
<text text-anchor="start" x="8" y="-50.5" font-family="Helvetica,sans-Serif" font-size="10.00">+</text>
<text text-anchor="start" x="22" y="-50.5" font-family="Helvetica,sans-Serif" font-size="10.00">~VulkanInstance()</text>
<text text-anchor="start" x="8" y="-35.5" font-family="Helvetica,sans-Serif" font-size="10.00">+</text>
<text text-anchor="start" x="22" y="-35.5" font-family="Helvetica,sans-Serif" font-size="10.00">Init()</text>
<text text-anchor="start" x="8" y="-20.5" font-family="Helvetica,sans-Serif" font-size="10.00">+</text>
<text text-anchor="start" x="22" y="-20.5" font-family="Helvetica,sans-Serif" font-size="10.00">GetDeviceInfoList()</text>
<text text-anchor="start" x="8" y="-5.5" font-family="Helvetica,sans-Serif" font-size="10.00">+</text>
<text text-anchor="start" x="22" y="-5.5" font-family="Helvetica,sans-Serif" font-size="10.00">CreateDevice()</text>
<polygon fill="#666666" stroke="#666666" points="0,-77 0,-77 118,-77 118,-77 0,-77"/>
<polygon fill="#666666" stroke="#666666" points="0,-62 0,-62 118,-62 118,-62 0,-62"/>
<polygon fill="none" stroke="#666666" points="0,0 0,-94 118,-94 118,0 0,0"/>
</a>
</g>
</g>
<!-- Node2 -->
<g id="Node000002" class="node">
<title>Node2</title>
<g id="a_Node000002"><a xlink:href="classliger_1_1rhi_1_1_i_instance.html" target="_top" xlink:title="The RHI instance over particular GraphicsAPIs. Allows creating devices.">
<polygon fill="white" stroke="none" points="110,-269 8,-269 8,-130 110,-130 110,-269"/>
<text text-anchor="start" x="18.5" y="-255.5" font-family="Helvetica,sans-Serif" font-size="10.00">liger::rhi::IInstance</text>
<text text-anchor="start" x="57.5" y="-240.5" font-family="Helvetica,sans-Serif" font-size="10.00"> </text>
<text text-anchor="start" x="12" y="-225.5" font-family="Helvetica,sans-Serif" font-size="10.00">+</text>
<text text-anchor="start" x="22" y="-225.5" font-family="Helvetica,sans-Serif" font-size="10.00">IInstance()</text>
<text text-anchor="start" x="12" y="-210.5" font-family="Helvetica,sans-Serif" font-size="10.00">+</text>
<text text-anchor="start" x="22" y="-210.5" font-family="Helvetica,sans-Serif" font-size="10.00">IInstance()</text>
<text text-anchor="start" x="12" y="-195.5" font-family="Helvetica,sans-Serif" font-size="10.00">+</text>
<text text-anchor="start" x="22" y="-195.5" font-family="Helvetica,sans-Serif" font-size="10.00">operator=()</text>
<text text-anchor="start" x="12" y="-180.5" font-family="Helvetica,sans-Serif" font-size="10.00">+</text>
<text text-anchor="start" x="22" y="-180.5" font-family="Helvetica,sans-Serif" font-size="10.00">~IInstance()</text>
<text text-anchor="start" x="12" y="-165.5" font-family="Helvetica,sans-Serif" font-size="10.00">+</text>
<text text-anchor="start" x="22" y="-165.5" font-family="Helvetica,sans-Serif" font-size="10.00">GetDeviceInfoList()</text>
<text text-anchor="start" x="12" y="-150.5" font-family="Helvetica,sans-Serif" font-size="10.00">+</text>
<text text-anchor="start" x="22" y="-150.5" font-family="Helvetica,sans-Serif" font-size="10.00">CreateDevice()</text>
<text text-anchor="start" x="12" y="-135.5" font-family="Helvetica,sans-Serif" font-size="10.00">+</text>
<text text-anchor="start" x="22" y="-135.5" font-family="Helvetica,sans-Serif" font-size="10.00">Create()</text>
<polygon fill="#666666" stroke="#666666" points="8,-252 8,-252 110,-252 110,-252 8,-252"/>
<polygon fill="#666666" stroke="#666666" points="8,-237 8,-237 110,-237 110,-237 8,-237"/>
<polygon fill="none" stroke="#666666" points="8,-130 8,-269 110,-269 110,-130 8,-130"/>
</a>
</g>
</g>
<!-- Node2&#45;&gt;Node1 -->
<g id="edge1_Node000001_Node000002" class="edge">
<title>Node2&#45;&gt;Node1</title>
<g id="a_edge1_Node000001_Node000002"><a xlink:title=" ">
<path fill="none" stroke="#63b8ff" d="M59,-119.03C59,-110.46 59,-101.97 59,-94"/>
<polygon fill="none" stroke="#63b8ff" points="55.5,-118.78 59,-128.78 62.5,-118.78 55.5,-118.78"/>
</a>
</g>
</g>
</g>
</svg>
