<?xml version="1.0" encoding="UTF-8" standalone="no"?>
<!DOCTYPE svg PUBLIC "-//W3C//DTD SVG 1.1//EN"
 "http://www.w3.org/Graphics/SVG/1.1/DTD/svg11.dtd">
<!-- Generated by graphviz version 9.0.0 (20230911.1827)
 -->
<!-- Title: liger::rhi::IDeviceResource Pages: 1 -->
<svg width="134pt" height="187pt"
 viewBox="0.00 0.00 134.00 187.00" xmlns="http://www.w3.org/2000/svg" xmlns:xlink="http://www.w3.org/1999/xlink">

<svg id="main" version="1.1" xmlns="http://www.w3.org/2000/svg" xmlns:xlink="http://www.w3.org/1999/xlink" xml:space="preserve" onload="init(evt)">
<style type="text/css"><![CDATA[
.node, .edge {opacity: 0.7;}
.node.selected, .edge.selected {opacity: 1;}
.edge:hover path { stroke: red; }
.edge:hover polygon { stroke: red; fill: red; }
]]></style>
<script type="application/ecmascript" xlink:href="svg.min.js"/>
<svg id="graph" class="graph">
<g id="graph0" class="graph" transform="scale(1 1) rotate(0) translate(4 183)">
<title>liger::rhi::IDeviceResource</title>
<!-- Node1 -->
<g id="Node000001" class="node">
<title>Node1</title>
<g id="a_Node000001"><a xlink:title=" ">
<polygon fill="#999999" stroke="none" points="126,-179 0,-179 0,-130 126,-130 126,-179"/>
<text text-anchor="start" x="4.88" y="-165.5" font-family="Helvetica,sans-Serif" font-size="10.00">liger::rhi::IDeviceResource</text>
<text text-anchor="start" x="61.5" y="-150.5" font-family="Helvetica,sans-Serif" font-size="10.00"> </text>
<text text-anchor="start" x="9" y="-135.5" font-family="Helvetica,sans-Serif" font-size="10.00">+</text>
<text text-anchor="start" x="24" y="-135.5" font-family="Helvetica,sans-Serif" font-size="10.00">~IDeviceResource()</text>
<polygon fill="#666666" stroke="#666666" points="0,-162 0,-162 126,-162 126,-162 0,-162"/>
<polygon fill="#666666" stroke="#666666" points="0,-147 0,-147 126,-147 126,-147 0,-147"/>
<polygon fill="none" stroke="#666666" points="0,-130 0,-179 126,-179 126,-130 0,-130"/>
</a>
</g>
</g>
<!-- Node2 -->
<g id="Node000002" class="node">
<title>Node2</title>
<g id="a_Node000002"><a xlink:href="classliger_1_1rhi_1_1_i_texture.html" target="_top" xlink:title=" ">
<polygon fill="white" stroke="none" points="105.5,-94 20.5,-94 20.5,0 105.5,0 105.5,-94"/>
<text text-anchor="start" x="25.12" y="-80.5" font-family="Helvetica,sans-Serif" font-size="10.00">liger::rhi::ITexture</text>
<text text-anchor="start" x="61.5" y="-65.5" font-family="Helvetica,sans-Serif" font-size="10.00"> </text>
<text text-anchor="start" x="29.5" y="-50.5" font-family="Helvetica,sans-Serif" font-size="10.00">+</text>
<text text-anchor="start" x="44.5" y="-50.5" font-family="Helvetica,sans-Serif" font-size="10.00">~ITexture()</text>
<text text-anchor="start" x="29.5" y="-35.5" font-family="Helvetica,sans-Serif" font-size="10.00">+</text>
<text text-anchor="start" x="44.5" y="-35.5" font-family="Helvetica,sans-Serif" font-size="10.00">GetInfo()</text>
<text text-anchor="start" x="29.88" y="-20.5" font-family="Helvetica,sans-Serif" font-size="10.00">#</text>
<text text-anchor="start" x="44.5" y="-20.5" font-family="Helvetica,sans-Serif" font-size="10.00">ITexture()</text>
<text text-anchor="start" x="29.88" y="-5.5" font-family="Helvetica,sans-Serif" font-size="10.00">#</text>
<text text-anchor="start" x="44.5" y="-5.5" font-family="Helvetica,sans-Serif" font-size="10.00">ITexture()</text>
<polygon fill="#bfbfbf" stroke="#bfbfbf" points="20.5,-77 20.5,-77 105.5,-77 105.5,-77 20.5,-77"/>
<polygon fill="#bfbfbf" stroke="#bfbfbf" points="20.5,-62 20.5,-62 105.5,-62 105.5,-62 20.5,-62"/>
<polygon fill="none" stroke="#bfbfbf" points="20.5,0 20.5,-94 105.5,-94 105.5,0 20.5,0"/>
</a>
</g>
</g>
<!-- Node1&#45;&gt;Node2 -->
<g id="edge1_Node000001_Node000002" class="edge">
<title>Node1&#45;&gt;Node2</title>
<g id="a_edge1_Node000001_Node000002"><a xlink:title=" ">
<path fill="none" stroke="#63b8ff" d="M63,-118.63C63,-110.7 63,-102.16 63,-93.85"/>
<polygon fill="none" stroke="#63b8ff" points="59.5,-118.57 63,-128.57 66.5,-118.57 59.5,-118.57"/>
</a>
</g>
</g>
</g>
</svg>
</svg>

<style type='text/css'>
<![CDATA[
[data-mouse-over-selected='false'] { opacity: 0.7; }
[data-mouse-over-selected='true']  { opacity: 1.0; }
]]>
</style>
<script type="application/ecmascript"><![CDATA[
document.addEventListener('DOMContentLoaded', (event) => {
  highlightEdges();
  highlightAdjacentNodes();
});
]]></script>
</svg>
