<?xml version="1.0" encoding="UTF-8" standalone="no"?>
<!DOCTYPE svg PUBLIC "-//W3C//DTD SVG 1.1//EN"
 "http://www.w3.org/Graphics/SVG/1.1/DTD/svg11.dtd">
<!-- Generated by graphviz version 7.1.0 (20230121.1956)
 -->
<!-- Title: liger::ConsoleLogWriter Pages: 1 -->
<svg width="120pt" height="217pt"
 viewBox="0.00 0.00 120.00 217.00" xmlns="http://www.w3.org/2000/svg" xmlns:xlink="http://www.w3.org/1999/xlink">
<g id="graph0" class="graph" transform="scale(1 1) rotate(0) translate(4 213)">
<title>liger::ConsoleLogWriter</title>
<!-- Node1 -->
<g id="Node000001" class="node">
<title>Node1</title>
<g id="a_Node000001"><a xlink:title="Writes log messages to console and allows custom styles.">
<polygon fill="#999999" stroke="none" points="112,-109 0,-109 0,0 112,0 112,-109"/>
<text text-anchor="start" x="5" y="-96.5" font-family="Helvetica,sans-Serif" font-size="10.00">liger::ConsoleLogWriter</text>
<text text-anchor="start" x="54" y="-81.5" font-family="Helvetica,sans-Serif" font-size="10.00"> </text>
<text text-anchor="start" x="4.5" y="-66.5" font-family="Helvetica,sans-Serif" font-size="10.00">+</text>
<text text-anchor="start" x="16" y="-66.5" font-family="Helvetica,sans-Serif" font-size="10.00">ConsoleLogWriter()</text>
<text text-anchor="start" x="4.5" y="-51.5" font-family="Helvetica,sans-Serif" font-size="10.00">+</text>
<text text-anchor="start" x="16" y="-51.5" font-family="Helvetica,sans-Serif" font-size="10.00">~ConsoleLogWriter()</text>
<text text-anchor="start" x="4.5" y="-36.5" font-family="Helvetica,sans-Serif" font-size="10.00">+</text>
<text text-anchor="start" x="16" y="-36.5" font-family="Helvetica,sans-Serif" font-size="10.00">SetStyle()</text>
<text text-anchor="start" x="4.5" y="-21.5" font-family="Helvetica,sans-Serif" font-size="10.00">+</text>
<text text-anchor="start" x="16" y="-21.5" font-family="Helvetica,sans-Serif" font-size="10.00">GetStyle()</text>
<text text-anchor="start" x="4.5" y="-6.5" font-family="Helvetica,sans-Serif" font-size="10.00">+</text>
<text text-anchor="start" x="16" y="-6.5" font-family="Helvetica,sans-Serif" font-size="10.00">OnMessageAdded()</text>
<polygon fill="#666666" stroke="#666666" points="0,-91.5 0,-91.5 112,-91.5 112,-91.5 0,-91.5"/>
<polygon fill="#666666" stroke="#666666" points="0,-76.5 0,-76.5 112,-76.5 112,-76.5 0,-76.5"/>
<polygon fill="none" stroke="#666666" points="0,0 0,-109 112,-109 112,0 0,0"/>
</a>
</g>
</g>
<!-- Node2 -->
<g id="Node000002" class="node">
<title>Node2</title>
<g id="a_Node000002"><a xlink:href="classliger_1_1_i_log_writer.html" target="_top" xlink:title="Manages a particular way of writing log messages (e.g. ConsoleLogWriter).">
<polygon fill="white" stroke="none" points="109,-209 3,-209 3,-145 109,-145 109,-209"/>
<text text-anchor="start" x="21.5" y="-197" font-family="Helvetica,sans-Serif" font-size="10.00">liger::ILogWriter</text>
<text text-anchor="start" x="54" y="-182" font-family="Helvetica,sans-Serif" font-size="10.00"> </text>
<text text-anchor="start" x="7" y="-167" font-family="Helvetica,sans-Serif" font-size="10.00">+</text>
<text text-anchor="start" x="18" y="-167" font-family="Helvetica,sans-Serif" font-size="10.00">~ILogWriter()</text>
<text text-anchor="start" x="7" y="-152" font-family="Helvetica,sans-Serif" font-size="10.00">+</text>
<text text-anchor="start" x="18" y="-152" font-family="Helvetica,sans-Serif" font-size="10.00">OnMessageAdded()</text>
<polygon fill="#666666" stroke="#666666" points="3,-192 3,-192 109,-192 109,-192 3,-192"/>
<polygon fill="#666666" stroke="#666666" points="3,-177 3,-177 109,-177 109,-177 3,-177"/>
<polygon fill="none" stroke="#666666" points="3,-145 3,-209 109,-209 109,-145 3,-145"/>
</a>
</g>
</g>
<!-- Node2&#45;&gt;Node1 -->
<g id="edge1_Node000001_Node000002" class="edge">
<title>Node2&#45;&gt;Node1</title>
<g id="a_edge1_Node000001_Node000002"><a xlink:title=" ">
<path fill="none" stroke="#63b8ff" d="M56,-133.8C56,-125.67 56,-117.06 56,-108.64"/>
<polygon fill="none" stroke="#63b8ff" points="52.5,-133.77 56,-143.77 59.5,-133.77 52.5,-133.77"/>
</a>
</g>
</g>
</g>
</svg>
