<?xml version="1.0" encoding="UTF-8" standalone="no"?>
<!DOCTYPE svg PUBLIC "-//W3C//DTD SVG 1.1//EN"
 "http://www.w3.org/Graphics/SVG/1.1/DTD/svg11.dtd">
<!-- Generated by graphviz version 9.0.0 (20230911.1827)
 -->
<!-- Title: liger::rhi::DeviceResource Pages: 1 -->
<svg width="1539pt" height="277pt"
 viewBox="0.00 0.00 1538.50 277.00" xmlns="http://www.w3.org/2000/svg" xmlns:xlink="http://www.w3.org/1999/xlink">
<g id="graph0" class="graph" transform="scale(1 1) rotate(0) translate(4 273)">
<title>liger::rhi::DeviceResource</title>
<!-- Node1 -->
<g id="Node000001" class="node">
<title>Node1</title>
<g id="a_Node000001"><a xlink:title=" ">
<polygon fill="#999999" stroke="none" points="870,-269 747,-269 747,-175 870,-175 870,-269"/>
<text text-anchor="start" x="751.88" y="-255.5" font-family="Helvetica,sans-Serif" font-size="10.00">liger::rhi::DeviceResource</text>
<text text-anchor="start" x="807" y="-240.5" font-family="Helvetica,sans-Serif" font-size="10.00"> </text>
<text text-anchor="start" x="756" y="-225.5" font-family="Helvetica,sans-Serif" font-size="10.00">+</text>
<text text-anchor="start" x="771" y="-225.5" font-family="Helvetica,sans-Serif" font-size="10.00">DeviceResource()</text>
<text text-anchor="start" x="756" y="-210.5" font-family="Helvetica,sans-Serif" font-size="10.00">+</text>
<text text-anchor="start" x="771" y="-210.5" font-family="Helvetica,sans-Serif" font-size="10.00">~DeviceResource()</text>
<text text-anchor="start" x="756" y="-195.5" font-family="Helvetica,sans-Serif" font-size="10.00">+</text>
<text text-anchor="start" x="771" y="-195.5" font-family="Helvetica,sans-Serif" font-size="10.00">Valid()</text>
<text text-anchor="start" x="756" y="-180.5" font-family="Helvetica,sans-Serif" font-size="10.00">+</text>
<text text-anchor="start" x="771" y="-180.5" font-family="Helvetica,sans-Serif" font-size="10.00">GetInternal()</text>
<polygon fill="#666666" stroke="#666666" points="747,-252 747,-252 870,-252 870,-252 747,-252"/>
<polygon fill="#666666" stroke="#666666" points="747,-237 747,-237 870,-237 870,-237 747,-237"/>
<polygon fill="none" stroke="#666666" points="747,-175 747,-269 870,-269 870,-175 747,-175"/>
</a>
</g>
</g>
<!-- Node2 -->
<g id="Node000002" class="node">
<title>Node2</title>
<g id="a_Node000002"><a xlink:href="classliger_1_1rhi_1_1_buffer.html" target="_top" xlink:title=" ">
<polygon fill="white" stroke="none" points="95,-139 0,-139 0,0 95,0 95,-139"/>
<text text-anchor="start" x="14.12" y="-125.5" font-family="Helvetica,sans-Serif" font-size="10.00">liger::rhi::Buffer</text>
<text text-anchor="start" x="46" y="-110.5" font-family="Helvetica,sans-Serif" font-size="10.00"> </text>
<text text-anchor="start" x="4" y="-95.5" font-family="Helvetica,sans-Serif" font-size="10.00">+</text>
<text text-anchor="start" x="14" y="-95.5" font-family="Helvetica,sans-Serif" font-size="10.00">Buffer()</text>
<text text-anchor="start" x="4" y="-80.5" font-family="Helvetica,sans-Serif" font-size="10.00">+</text>
<text text-anchor="start" x="14" y="-80.5" font-family="Helvetica,sans-Serif" font-size="10.00">Buffer()</text>
<text text-anchor="start" x="4" y="-65.5" font-family="Helvetica,sans-Serif" font-size="10.00">+</text>
<text text-anchor="start" x="14" y="-65.5" font-family="Helvetica,sans-Serif" font-size="10.00">~Buffer()</text>
<text text-anchor="start" x="4" y="-50.5" font-family="Helvetica,sans-Serif" font-size="10.00">+</text>
<text text-anchor="start" x="14" y="-50.5" font-family="Helvetica,sans-Serif" font-size="10.00">GetInfo()</text>
<text text-anchor="start" x="4" y="-35.5" font-family="Helvetica,sans-Serif" font-size="10.00">+</text>
<text text-anchor="start" x="14" y="-35.5" font-family="Helvetica,sans-Serif" font-size="10.00">GetMappedData()</text>
<text text-anchor="start" x="4" y="-20.5" font-family="Helvetica,sans-Serif" font-size="10.00">+</text>
<text text-anchor="start" x="14" y="-20.5" font-family="Helvetica,sans-Serif" font-size="10.00">GetMappedSize()</text>
<text text-anchor="start" x="4" y="-5.5" font-family="Helvetica,sans-Serif" font-size="10.00">+</text>
<text text-anchor="start" x="14" y="-5.5" font-family="Helvetica,sans-Serif" font-size="10.00">OnMapped()</text>
<polygon fill="#bfbfbf" stroke="#bfbfbf" points="0,-122 0,-122 95,-122 95,-122 0,-122"/>
<polygon fill="#bfbfbf" stroke="#bfbfbf" points="0,-107 0,-107 95,-107 95,-107 0,-107"/>
<polygon fill="none" stroke="#bfbfbf" points="0,0 0,-139 95,-139 95,0 0,0"/>
</a>
</g>
</g>
<!-- Node1&#45;&gt;Node2 -->
<g id="edge1_Node000001_Node000002" class="edge">
<title>Node1&#45;&gt;Node2</title>
<g id="a_edge1_Node000001_Node000002"><a xlink:title=" ">
<path fill="none" stroke="#63b8ff" d="M735.69,-219.3C578.36,-214.54 212.23,-197.35 104.5,-139 101.1,-137.16 97.82,-135.02 94.67,-132.67"/>
<polygon fill="none" stroke="#63b8ff" points="735.49,-222.79 745.58,-219.59 735.69,-215.8 735.49,-222.79"/>
</a>
</g>
</g>
<!-- Node3 -->
<g id="Node000003" class="node">
<title>Node3</title>
<g id="a_Node000003"><a xlink:href="classliger_1_1rhi_1_1_command_queue.html" target="_top" xlink:title=" ">
<polygon fill="white" stroke="none" points="237.5,-101.5 113.5,-101.5 113.5,-37.5 237.5,-37.5 237.5,-101.5"/>
<text text-anchor="start" x="118.5" y="-88" font-family="Helvetica,sans-Serif" font-size="10.00">liger::rhi::CommandQueue</text>
<text text-anchor="start" x="174" y="-73" font-family="Helvetica,sans-Serif" font-size="10.00"> </text>
<text text-anchor="start" x="122.5" y="-58" font-family="Helvetica,sans-Serif" font-size="10.00">+</text>
<text text-anchor="start" x="137.5" y="-58" font-family="Helvetica,sans-Serif" font-size="10.00">CommandQueue()</text>
<text text-anchor="start" x="122.5" y="-43" font-family="Helvetica,sans-Serif" font-size="10.00">+</text>
<text text-anchor="start" x="137.5" y="-43" font-family="Helvetica,sans-Serif" font-size="10.00">~CommandQueue()</text>
<polygon fill="#bfbfbf" stroke="#bfbfbf" points="113.5,-84.5 113.5,-84.5 237.5,-84.5 237.5,-84.5 113.5,-84.5"/>
<polygon fill="#bfbfbf" stroke="#bfbfbf" points="113.5,-69.5 113.5,-69.5 237.5,-69.5 237.5,-69.5 113.5,-69.5"/>
<polygon fill="none" stroke="#bfbfbf" points="113.5,-37.5 113.5,-101.5 237.5,-101.5 237.5,-37.5 113.5,-37.5"/>
</a>
</g>
</g>
<!-- Node1&#45;&gt;Node3 -->
<g id="edge2_Node000001_Node000003" class="edge">
<title>Node1&#45;&gt;Node3</title>
<g id="a_edge2_Node000001_Node000003"><a xlink:title=" ">
<path fill="none" stroke="#8b1a1a" d="M735.93,-215.95C604.16,-205.89 331.33,-180.63 246.5,-139 228.51,-130.17 212.13,-115.11 199.65,-101.35"/>
<polygon fill="none" stroke="#8b1a1a" points="735.34,-219.42 745.57,-216.68 735.87,-212.44 735.34,-219.42"/>
</a>
</g>
</g>
<!-- Node4 -->
<g id="Node000004" class="node">
<title>Node4</title>
<g id="a_Node000004"><a xlink:href="classliger_1_1rhi_1_1_compute_pipeline.html" target="_top" xlink:title=" ">
<polygon fill="white" stroke="none" points="379.5,-101.5 255.5,-101.5 255.5,-37.5 379.5,-37.5 379.5,-101.5"/>
<text text-anchor="start" x="260.12" y="-88" font-family="Helvetica,sans-Serif" font-size="10.00">liger::rhi::ComputePipeline</text>
<text text-anchor="start" x="316" y="-73" font-family="Helvetica,sans-Serif" font-size="10.00"> </text>
<text text-anchor="start" x="264.5" y="-58" font-family="Helvetica,sans-Serif" font-size="10.00">+</text>
<text text-anchor="start" x="279.5" y="-58" font-family="Helvetica,sans-Serif" font-size="10.00">ComputePipeline()</text>
<text text-anchor="start" x="264.5" y="-43" font-family="Helvetica,sans-Serif" font-size="10.00">+</text>
<text text-anchor="start" x="279.5" y="-43" font-family="Helvetica,sans-Serif" font-size="10.00">~ComputePipeline()</text>
<polygon fill="#bfbfbf" stroke="#bfbfbf" points="255.5,-84.5 255.5,-84.5 379.5,-84.5 379.5,-84.5 255.5,-84.5"/>
<polygon fill="#bfbfbf" stroke="#bfbfbf" points="255.5,-69.5 255.5,-69.5 379.5,-69.5 379.5,-69.5 255.5,-69.5"/>
<polygon fill="none" stroke="#bfbfbf" points="255.5,-37.5 255.5,-101.5 379.5,-101.5 379.5,-37.5 255.5,-37.5"/>
</a>
</g>
</g>
<!-- Node1&#45;&gt;Node4 -->
<g id="edge3_Node000001_Node000004" class="edge">
<title>Node1&#45;&gt;Node4</title>
<g id="a_edge3_Node000001_Node000004"><a xlink:title=" ">
<path fill="none" stroke="#8b1a1a" d="M735.88,-219.2C648.75,-214.33 500.43,-197.29 388.5,-139 370.88,-129.82 354.65,-114.9 342.17,-101.32"/>
<polygon fill="none" stroke="#8b1a1a" points="735.56,-222.68 745.72,-219.7 735.92,-215.69 735.56,-222.68"/>
</a>
</g>
</g>
<!-- Node5 -->
<g id="Node000005" class="node">
<title>Node5</title>
<g id="a_Node000005"><a xlink:href="classliger_1_1rhi_1_1_fence.html" target="_top" xlink:title=" ">
<polygon fill="white" stroke="none" points="475,-101.5 398,-101.5 398,-37.5 475,-37.5 475,-101.5"/>
<text text-anchor="start" x="402.75" y="-88" font-family="Helvetica,sans-Serif" font-size="10.00">liger::rhi::Fence</text>
<text text-anchor="start" x="435" y="-73" font-family="Helvetica,sans-Serif" font-size="10.00"> </text>
<text text-anchor="start" x="407" y="-58" font-family="Helvetica,sans-Serif" font-size="10.00">+</text>
<text text-anchor="start" x="422" y="-58" font-family="Helvetica,sans-Serif" font-size="10.00">Fence()</text>
<text text-anchor="start" x="407" y="-43" font-family="Helvetica,sans-Serif" font-size="10.00">+</text>
<text text-anchor="start" x="422" y="-43" font-family="Helvetica,sans-Serif" font-size="10.00">~Fence()</text>
<polygon fill="#bfbfbf" stroke="#bfbfbf" points="398,-84.5 398,-84.5 475,-84.5 475,-84.5 398,-84.5"/>
<polygon fill="#bfbfbf" stroke="#bfbfbf" points="398,-69.5 398,-69.5 475,-69.5 475,-69.5 398,-69.5"/>
<polygon fill="none" stroke="#bfbfbf" points="398,-37.5 398,-101.5 475,-101.5 475,-37.5 398,-37.5"/>
</a>
</g>
</g>
<!-- Node1&#45;&gt;Node5 -->
<g id="edge4_Node000001_Node000005" class="edge">
<title>Node1&#45;&gt;Node5</title>
<g id="a_edge4_Node000001_Node000005"><a xlink:title=" ">
<path fill="none" stroke="#8b1a1a" d="M735.83,-217.3C665.64,-210.57 559.16,-191.69 483.5,-139 469.89,-129.52 459.02,-114.74 451.18,-101.32"/>
<polygon fill="none" stroke="#8b1a1a" points="735.42,-220.78 745.69,-218.19 736.04,-213.81 735.42,-220.78"/>
</a>
</g>
</g>
<!-- Node6 -->
<g id="Node000006" class="node">
<title>Node6</title>
<g id="a_Node000006"><a xlink:href="classliger_1_1rhi_1_1_framebuffer.html" target="_top" xlink:title=" ">
<polygon fill="white" stroke="none" points="596,-116.5 493,-116.5 493,-22.5 596,-22.5 596,-116.5"/>
<text text-anchor="start" x="498" y="-103" font-family="Helvetica,sans-Serif" font-size="10.00">liger::rhi::Framebuffer</text>
<text text-anchor="start" x="498.5" y="-88" font-family="Helvetica,sans-Serif" font-size="10.00">+</text>
<text text-anchor="start" x="510" y="-88" font-family="Helvetica,sans-Serif" font-size="10.00">kMaxAttachments</text>
<text text-anchor="start" x="498.5" y="-73" font-family="Helvetica,sans-Serif" font-size="10.00">+</text>
<text text-anchor="start" x="510" y="-73" font-family="Helvetica,sans-Serif" font-size="10.00">Framebuffer()</text>
<text text-anchor="start" x="498.5" y="-58" font-family="Helvetica,sans-Serif" font-size="10.00">+</text>
<text text-anchor="start" x="510" y="-58" font-family="Helvetica,sans-Serif" font-size="10.00">Framebuffer()</text>
<text text-anchor="start" x="498.5" y="-43" font-family="Helvetica,sans-Serif" font-size="10.00">+</text>
<text text-anchor="start" x="510" y="-43" font-family="Helvetica,sans-Serif" font-size="10.00">~Framebuffer()</text>
<text text-anchor="start" x="498.5" y="-28" font-family="Helvetica,sans-Serif" font-size="10.00">+</text>
<text text-anchor="start" x="510" y="-28" font-family="Helvetica,sans-Serif" font-size="10.00">GetInfo()</text>
<polygon fill="#bfbfbf" stroke="#bfbfbf" points="493,-99.5 493,-99.5 596,-99.5 596,-99.5 493,-99.5"/>
<polygon fill="#bfbfbf" stroke="#bfbfbf" points="493,-84.5 493,-84.5 508,-84.5 508,-84.5 493,-84.5"/>
<polygon fill="#bfbfbf" stroke="#bfbfbf" points="508,-84.5 508,-84.5 596,-84.5 596,-84.5 508,-84.5"/>
<polygon fill="none" stroke="#bfbfbf" points="493,-22.5 493,-116.5 596,-116.5 596,-22.5 493,-22.5"/>
</a>
</g>
</g>
<!-- Node1&#45;&gt;Node6 -->
<g id="edge5_Node000001_Node000006" class="edge">
<title>Node1&#45;&gt;Node6</title>
<g id="a_edge5_Node000001_Node000006"><a xlink:title=" ">
<path fill="none" stroke="#8b1a1a" d="M736.19,-200.8C695.49,-187.3 645.07,-166.87 605.5,-139 596.39,-132.58 587.7,-124.55 579.88,-116.27"/>
<polygon fill="none" stroke="#8b1a1a" points="735.09,-204.12 745.68,-203.87 737.24,-197.46 735.09,-204.12"/>
</a>
</g>
</g>
<!-- Node7 -->
<g id="Node000007" class="node">
<title>Node7</title>
<g id="a_Node000007"><a xlink:href="classliger_1_1rhi_1_1_graphics_pipeline.html" target="_top" xlink:title=" ">
<polygon fill="white" stroke="none" points="738.5,-101.5 614.5,-101.5 614.5,-37.5 738.5,-37.5 738.5,-101.5"/>
<text text-anchor="start" x="619.5" y="-88" font-family="Helvetica,sans-Serif" font-size="10.00">liger::rhi::GraphicsPipeline</text>
<text text-anchor="start" x="622" y="-73" font-family="Helvetica,sans-Serif" font-size="10.00">+</text>
<text text-anchor="start" x="635.5" y="-73" font-family="Helvetica,sans-Serif" font-size="10.00">kMaxShaderModules</text>
<text text-anchor="start" x="622" y="-58" font-family="Helvetica,sans-Serif" font-size="10.00">+</text>
<text text-anchor="start" x="635.5" y="-58" font-family="Helvetica,sans-Serif" font-size="10.00">GraphicsPipeline()</text>
<text text-anchor="start" x="622" y="-43" font-family="Helvetica,sans-Serif" font-size="10.00">+</text>
<text text-anchor="start" x="635.5" y="-43" font-family="Helvetica,sans-Serif" font-size="10.00">~GraphicsPipeline()</text>
<polygon fill="#bfbfbf" stroke="#bfbfbf" points="614.5,-84.5 614.5,-84.5 738.5,-84.5 738.5,-84.5 614.5,-84.5"/>
<polygon fill="#bfbfbf" stroke="#bfbfbf" points="614.5,-69.5 614.5,-69.5 633.5,-69.5 633.5,-69.5 614.5,-69.5"/>
<polygon fill="#bfbfbf" stroke="#bfbfbf" points="633.5,-69.5 633.5,-69.5 738.5,-69.5 738.5,-69.5 633.5,-69.5"/>
<polygon fill="none" stroke="#bfbfbf" points="614.5,-37.5 614.5,-101.5 738.5,-101.5 738.5,-37.5 614.5,-37.5"/>
</a>
</g>
</g>
<!-- Node1&#45;&gt;Node7 -->
<g id="edge6_Node000001_Node000007" class="edge">
<title>Node1&#45;&gt;Node7</title>
<g id="a_edge6_Node000001_Node000007"><a xlink:title=" ">
<path fill="none" stroke="#8b1a1a" d="M760.67,-166.47C741.48,-144.59 720.07,-120.17 703.64,-101.44"/>
<polygon fill="none" stroke="#8b1a1a" points="757.96,-168.68 767.18,-173.89 763.22,-164.06 757.96,-168.68"/>
</a>
</g>
</g>
<!-- Node8 -->
<g id="Node000008" class="node">
<title>Node8</title>
<g id="a_Node000008"><a xlink:href="classliger_1_1rhi_1_1_render_pass.html" target="_top" xlink:title=" ">
<polygon fill="white" stroke="none" points="860.5,-116.5 756.5,-116.5 756.5,-22.5 860.5,-22.5 860.5,-116.5"/>
<text text-anchor="start" x="761.25" y="-103" font-family="Helvetica,sans-Serif" font-size="10.00">liger::rhi::RenderPass</text>
<text text-anchor="start" x="807" y="-88" font-family="Helvetica,sans-Serif" font-size="10.00"> </text>
<text text-anchor="start" x="765.5" y="-73" font-family="Helvetica,sans-Serif" font-size="10.00">+</text>
<text text-anchor="start" x="780.5" y="-73" font-family="Helvetica,sans-Serif" font-size="10.00">RenderPass()</text>
<text text-anchor="start" x="765.5" y="-58" font-family="Helvetica,sans-Serif" font-size="10.00">+</text>
<text text-anchor="start" x="780.5" y="-58" font-family="Helvetica,sans-Serif" font-size="10.00">RenderPass()</text>
<text text-anchor="start" x="765.5" y="-43" font-family="Helvetica,sans-Serif" font-size="10.00">+</text>
<text text-anchor="start" x="780.5" y="-43" font-family="Helvetica,sans-Serif" font-size="10.00">~RenderPass()</text>
<text text-anchor="start" x="765.5" y="-28" font-family="Helvetica,sans-Serif" font-size="10.00">+</text>
<text text-anchor="start" x="780.5" y="-28" font-family="Helvetica,sans-Serif" font-size="10.00">GetInfo()</text>
<polygon fill="#bfbfbf" stroke="#bfbfbf" points="756.5,-99.5 756.5,-99.5 860.5,-99.5 860.5,-99.5 756.5,-99.5"/>
<polygon fill="#bfbfbf" stroke="#bfbfbf" points="756.5,-84.5 756.5,-84.5 860.5,-84.5 860.5,-84.5 756.5,-84.5"/>
<polygon fill="none" stroke="#bfbfbf" points="756.5,-22.5 756.5,-116.5 860.5,-116.5 860.5,-22.5 756.5,-22.5"/>
</a>
</g>
</g>
<!-- Node1&#45;&gt;Node8 -->
<g id="edge7_Node000001_Node000008" class="edge">
<title>Node1&#45;&gt;Node8</title>
<g id="a_edge7_Node000001_Node000008"><a xlink:title=" ">
<path fill="none" stroke="#8b1a1a" d="M808.5,-163.86C808.5,-148.19 808.5,-131.4 808.5,-116.45"/>
<polygon fill="none" stroke="#8b1a1a" points="805,-163.51 808.5,-173.51 812,-163.51 805,-163.51"/>
</a>
</g>
</g>
<!-- Node9 -->
<g id="Node000009" class="node">
<title>Node9</title>
<g id="a_Node000009"><a xlink:href="classliger_1_1rhi_1_1_sampler.html" target="_top" xlink:title=" ">
<polygon fill="white" stroke="none" points="964.5,-116.5 878.5,-116.5 878.5,-22.5 964.5,-22.5 964.5,-116.5"/>
<text text-anchor="start" x="883.25" y="-103" font-family="Helvetica,sans-Serif" font-size="10.00">liger::rhi::Sampler</text>
<text text-anchor="start" x="920" y="-88" font-family="Helvetica,sans-Serif" font-size="10.00"> </text>
<text text-anchor="start" x="887.5" y="-73" font-family="Helvetica,sans-Serif" font-size="10.00">+</text>
<text text-anchor="start" x="902.5" y="-73" font-family="Helvetica,sans-Serif" font-size="10.00">Sampler()</text>
<text text-anchor="start" x="887.5" y="-58" font-family="Helvetica,sans-Serif" font-size="10.00">+</text>
<text text-anchor="start" x="902.5" y="-58" font-family="Helvetica,sans-Serif" font-size="10.00">Sampler()</text>
<text text-anchor="start" x="887.5" y="-43" font-family="Helvetica,sans-Serif" font-size="10.00">+</text>
<text text-anchor="start" x="902.5" y="-43" font-family="Helvetica,sans-Serif" font-size="10.00">~Sampler()</text>
<text text-anchor="start" x="887.5" y="-28" font-family="Helvetica,sans-Serif" font-size="10.00">+</text>
<text text-anchor="start" x="902.5" y="-28" font-family="Helvetica,sans-Serif" font-size="10.00">GetInfo()</text>
<polygon fill="#bfbfbf" stroke="#bfbfbf" points="878.5,-99.5 878.5,-99.5 964.5,-99.5 964.5,-99.5 878.5,-99.5"/>
<polygon fill="#bfbfbf" stroke="#bfbfbf" points="878.5,-84.5 878.5,-84.5 964.5,-84.5 964.5,-84.5 878.5,-84.5"/>
<polygon fill="none" stroke="#bfbfbf" points="878.5,-22.5 878.5,-116.5 964.5,-116.5 964.5,-22.5 878.5,-22.5"/>
</a>
</g>
</g>
<!-- Node1&#45;&gt;Node9 -->
<g id="edge8_Node000001_Node000009" class="edge">
<title>Node1&#45;&gt;Node9</title>
<g id="a_edge8_Node000001_Node000009"><a xlink:title=" ">
<path fill="none" stroke="#8b1a1a" d="M849.7,-166.13C861.94,-149.82 875.23,-132.13 887,-116.45"/>
<polygon fill="none" stroke="#8b1a1a" points="847.13,-163.72 843.93,-173.82 852.73,-167.92 847.13,-163.72"/>
</a>
</g>
</g>
<!-- Node10 -->
<g id="Node000010" class="node">
<title>Node10</title>
<g id="a_Node000010"><a xlink:href="classliger_1_1rhi_1_1_semaphore.html" target="_top" xlink:title=" ">
<polygon fill="white" stroke="none" points="1082.5,-101.5 982.5,-101.5 982.5,-37.5 1082.5,-37.5 1082.5,-101.5"/>
<text text-anchor="start" x="987.5" y="-88" font-family="Helvetica,sans-Serif" font-size="10.00">liger::rhi::Semaphore</text>
<text text-anchor="start" x="1031" y="-73" font-family="Helvetica,sans-Serif" font-size="10.00"> </text>
<text text-anchor="start" x="991.5" y="-58" font-family="Helvetica,sans-Serif" font-size="10.00">+</text>
<text text-anchor="start" x="1006.5" y="-58" font-family="Helvetica,sans-Serif" font-size="10.00">Semaphore()</text>
<text text-anchor="start" x="991.5" y="-43" font-family="Helvetica,sans-Serif" font-size="10.00">+</text>
<text text-anchor="start" x="1006.5" y="-43" font-family="Helvetica,sans-Serif" font-size="10.00">~Semaphore()</text>
<polygon fill="#bfbfbf" stroke="#bfbfbf" points="982.5,-84.5 982.5,-84.5 1082.5,-84.5 1082.5,-84.5 982.5,-84.5"/>
<polygon fill="#bfbfbf" stroke="#bfbfbf" points="982.5,-69.5 982.5,-69.5 1082.5,-69.5 1082.5,-69.5 982.5,-69.5"/>
<polygon fill="none" stroke="#bfbfbf" points="982.5,-37.5 982.5,-101.5 1082.5,-101.5 1082.5,-37.5 982.5,-37.5"/>
</a>
</g>
</g>
<!-- Node1&#45;&gt;Node10 -->
<g id="edge9_Node000001_Node000010" class="edge">
<title>Node1&#45;&gt;Node10</title>
<g id="a_edge9_Node000001_Node000010"><a xlink:title=" ">
<path fill="none" stroke="#8b1a1a" d="M880.02,-193C910.46,-179.23 945.36,-160.86 973.5,-139 987.26,-128.31 1000.18,-114.01 1010.4,-101.25"/>
<polygon fill="none" stroke="#8b1a1a" points="878.99,-189.62 871.27,-196.88 881.83,-196.02 878.99,-189.62"/>
</a>
</g>
</g>
<!-- Node11 -->
<g id="Node000011" class="node">
<title>Node11</title>
<g id="a_Node000011"><a xlink:href="classliger_1_1rhi_1_1_shader_module.html" target="_top" xlink:title=" ">
<polygon fill="white" stroke="none" points="1212.5,-101.5 1100.5,-101.5 1100.5,-37.5 1212.5,-37.5 1212.5,-101.5"/>
<text text-anchor="start" x="1105.12" y="-88" font-family="Helvetica,sans-Serif" font-size="10.00">liger::rhi::ShaderModule</text>
<text text-anchor="start" x="1155" y="-73" font-family="Helvetica,sans-Serif" font-size="10.00"> </text>
<text text-anchor="start" x="1109.5" y="-58" font-family="Helvetica,sans-Serif" font-size="10.00">+</text>
<text text-anchor="start" x="1124.5" y="-58" font-family="Helvetica,sans-Serif" font-size="10.00">ShaderModule()</text>
<text text-anchor="start" x="1109.5" y="-43" font-family="Helvetica,sans-Serif" font-size="10.00">+</text>
<text text-anchor="start" x="1124.5" y="-43" font-family="Helvetica,sans-Serif" font-size="10.00">~ShaderModule()</text>
<polygon fill="#bfbfbf" stroke="#bfbfbf" points="1100.5,-84.5 1100.5,-84.5 1212.5,-84.5 1212.5,-84.5 1100.5,-84.5"/>
<polygon fill="#bfbfbf" stroke="#bfbfbf" points="1100.5,-69.5 1100.5,-69.5 1212.5,-69.5 1212.5,-69.5 1100.5,-69.5"/>
<polygon fill="none" stroke="#bfbfbf" points="1100.5,-37.5 1100.5,-101.5 1212.5,-101.5 1212.5,-37.5 1100.5,-37.5"/>
</a>
</g>
</g>
<!-- Node1&#45;&gt;Node11 -->
<g id="edge10_Node000001_Node000011" class="edge">
<title>Node1&#45;&gt;Node11</title>
<g id="a_edge10_Node000001_Node000011"><a xlink:title=" ">
<path fill="none" stroke="#8b1a1a" d="M881.2,-210.8C941.05,-199.95 1026.34,-178.67 1091.5,-139 1107.46,-129.28 1122.1,-114.64 1133.42,-101.38"/>
<polygon fill="none" stroke="#8b1a1a" points="880.7,-207.34 871.45,-212.51 881.91,-214.23 880.7,-207.34"/>
</a>
</g>
</g>
<!-- Node12 -->
<g id="Node000012" class="node">
<title>Node12</title>
<g id="a_Node000012"><a xlink:href="classliger_1_1rhi_1_1_surface.html" target="_top" xlink:title=" ">
<polygon fill="white" stroke="none" points="1314.5,-101.5 1230.5,-101.5 1230.5,-37.5 1314.5,-37.5 1314.5,-101.5"/>
<text text-anchor="start" x="1235.38" y="-88" font-family="Helvetica,sans-Serif" font-size="10.00">liger::rhi::Surface</text>
<text text-anchor="start" x="1271" y="-73" font-family="Helvetica,sans-Serif" font-size="10.00"> </text>
<text text-anchor="start" x="1239.5" y="-58" font-family="Helvetica,sans-Serif" font-size="10.00">+</text>
<text text-anchor="start" x="1254.5" y="-58" font-family="Helvetica,sans-Serif" font-size="10.00">Surface()</text>
<text text-anchor="start" x="1239.5" y="-43" font-family="Helvetica,sans-Serif" font-size="10.00">+</text>
<text text-anchor="start" x="1254.5" y="-43" font-family="Helvetica,sans-Serif" font-size="10.00">~Surface()</text>
<polygon fill="#bfbfbf" stroke="#bfbfbf" points="1230.5,-84.5 1230.5,-84.5 1314.5,-84.5 1314.5,-84.5 1230.5,-84.5"/>
<polygon fill="#bfbfbf" stroke="#bfbfbf" points="1230.5,-69.5 1230.5,-69.5 1314.5,-69.5 1314.5,-69.5 1230.5,-69.5"/>
<polygon fill="none" stroke="#bfbfbf" points="1230.5,-37.5 1230.5,-101.5 1314.5,-101.5 1314.5,-37.5 1230.5,-37.5"/>
</a>
</g>
</g>
<!-- Node1&#45;&gt;Node12 -->
<g id="edge11_Node000001_Node000012" class="edge">
<title>Node1&#45;&gt;Node12</title>
<g id="a_edge11_Node000001_Node000012"><a xlink:title=" ">
<path fill="none" stroke="#8b1a1a" d="M880.96,-212.95C983.8,-200.47 1165.8,-174.18 1221.5,-139 1236.04,-129.81 1247.88,-114.89 1256.47,-101.31"/>
<polygon fill="none" stroke="#8b1a1a" points="880.76,-209.45 871.25,-214.12 881.59,-216.4 880.76,-209.45"/>
</a>
</g>
</g>
<!-- Node13 -->
<g id="Node000013" class="node">
<title>Node13</title>
<g id="a_Node000013"><a xlink:href="classliger_1_1rhi_1_1_swapchain.html" target="_top" xlink:title=" ">
<polygon fill="white" stroke="none" points="1430.5,-116.5 1332.5,-116.5 1332.5,-22.5 1430.5,-22.5 1430.5,-116.5"/>
<text text-anchor="start" x="1337.25" y="-103" font-family="Helvetica,sans-Serif" font-size="10.00">liger::rhi::Swapchain</text>
<text text-anchor="start" x="1380" y="-88" font-family="Helvetica,sans-Serif" font-size="10.00"> </text>
<text text-anchor="start" x="1341.5" y="-73" font-family="Helvetica,sans-Serif" font-size="10.00">+</text>
<text text-anchor="start" x="1356.5" y="-73" font-family="Helvetica,sans-Serif" font-size="10.00">Swapchain()</text>
<text text-anchor="start" x="1341.5" y="-58" font-family="Helvetica,sans-Serif" font-size="10.00">+</text>
<text text-anchor="start" x="1356.5" y="-58" font-family="Helvetica,sans-Serif" font-size="10.00">Swapchain()</text>
<text text-anchor="start" x="1341.5" y="-43" font-family="Helvetica,sans-Serif" font-size="10.00">+</text>
<text text-anchor="start" x="1356.5" y="-43" font-family="Helvetica,sans-Serif" font-size="10.00">~Swapchain()</text>
<text text-anchor="start" x="1341.5" y="-28" font-family="Helvetica,sans-Serif" font-size="10.00">+</text>
<text text-anchor="start" x="1356.5" y="-28" font-family="Helvetica,sans-Serif" font-size="10.00">GetInfo()</text>
<polygon fill="#bfbfbf" stroke="#bfbfbf" points="1332.5,-99.5 1332.5,-99.5 1430.5,-99.5 1430.5,-99.5 1332.5,-99.5"/>
<polygon fill="#bfbfbf" stroke="#bfbfbf" points="1332.5,-84.5 1332.5,-84.5 1430.5,-84.5 1430.5,-84.5 1332.5,-84.5"/>
<polygon fill="none" stroke="#bfbfbf" points="1332.5,-22.5 1332.5,-116.5 1430.5,-116.5 1430.5,-22.5 1332.5,-22.5"/>
</a>
</g>
</g>
<!-- Node1&#45;&gt;Node13 -->
<g id="edge12_Node000001_Node000013" class="edge">
<title>Node1&#45;&gt;Node13</title>
<g id="a_edge12_Node000001_Node000013"><a xlink:title=" ">
<path fill="none" stroke="#8b1a1a" d="M880.83,-215.7C1004.15,-205.64 1249.02,-180.96 1323.5,-139 1333.68,-133.26 1342.88,-125.01 1350.79,-116.2"/>
<polygon fill="none" stroke="#8b1a1a" points="880.84,-212.18 871.15,-216.47 881.4,-219.16 880.84,-212.18"/>
</a>
</g>
</g>
<!-- Node14 -->
<g id="Node000014" class="node">
<title>Node14</title>
<g id="a_Node000014"><a xlink:href="classliger_1_1rhi_1_1_texture.html" target="_top" xlink:title=" ">
<polygon fill="white" stroke="none" points="1530.5,-116.5 1448.5,-116.5 1448.5,-22.5 1530.5,-22.5 1530.5,-116.5"/>
<text text-anchor="start" x="1453.12" y="-103" font-family="Helvetica,sans-Serif" font-size="10.00">liger::rhi::Texture</text>
<text text-anchor="start" x="1488" y="-88" font-family="Helvetica,sans-Serif" font-size="10.00"> </text>
<text text-anchor="start" x="1457.5" y="-73" font-family="Helvetica,sans-Serif" font-size="10.00">+</text>
<text text-anchor="start" x="1472.5" y="-73" font-family="Helvetica,sans-Serif" font-size="10.00">Texture()</text>
<text text-anchor="start" x="1457.5" y="-58" font-family="Helvetica,sans-Serif" font-size="10.00">+</text>
<text text-anchor="start" x="1472.5" y="-58" font-family="Helvetica,sans-Serif" font-size="10.00">Texture()</text>
<text text-anchor="start" x="1457.5" y="-43" font-family="Helvetica,sans-Serif" font-size="10.00">+</text>
<text text-anchor="start" x="1472.5" y="-43" font-family="Helvetica,sans-Serif" font-size="10.00">~Texture()</text>
<text text-anchor="start" x="1457.5" y="-28" font-family="Helvetica,sans-Serif" font-size="10.00">+</text>
<text text-anchor="start" x="1472.5" y="-28" font-family="Helvetica,sans-Serif" font-size="10.00">GetInfo()</text>
<polygon fill="#bfbfbf" stroke="#bfbfbf" points="1448.5,-99.5 1448.5,-99.5 1530.5,-99.5 1530.5,-99.5 1448.5,-99.5"/>
<polygon fill="#bfbfbf" stroke="#bfbfbf" points="1448.5,-84.5 1448.5,-84.5 1530.5,-84.5 1530.5,-84.5 1448.5,-84.5"/>
<polygon fill="none" stroke="#bfbfbf" points="1448.5,-22.5 1448.5,-116.5 1530.5,-116.5 1530.5,-22.5 1448.5,-22.5"/>
</a>
</g>
</g>
<!-- Node1&#45;&gt;Node14 -->
<g id="edge13_Node000001_Node000014" class="edge">
<title>Node1&#45;&gt;Node14</title>
<g id="a_edge13_Node000001_Node000014"><a xlink:title=" ">
<path fill="none" stroke="#8b1a1a" d="M881.28,-218.67C1026.54,-212.89 1346.44,-194.12 1439.5,-139 1449,-133.37 1457.23,-125.16 1464.11,-116.37"/>
<polygon fill="none" stroke="#8b1a1a" points="881.24,-215.17 871.39,-219.06 881.52,-222.17 881.24,-215.17"/>
</a>
</g>
</g>
</g>
</svg>
