<?xml version="1.0" encoding="UTF-8" standalone="no"?>
<!DOCTYPE svg PUBLIC "-//W3C//DTD SVG 1.1//EN"
 "http://www.w3.org/Graphics/SVG/1.1/DTD/svg11.dtd">
<!-- Generated by graphviz version 9.0.0 (20230911.1827)
 -->
<!-- Title: liger::rhi::Surface Pages: 1 -->
<svg width="131pt" height="202pt"
 viewBox="0.00 0.00 131.00 202.00" xmlns="http://www.w3.org/2000/svg" xmlns:xlink="http://www.w3.org/1999/xlink">

<svg id="main" version="1.1" xmlns="http://www.w3.org/2000/svg" xmlns:xlink="http://www.w3.org/1999/xlink" xml:space="preserve" onload="init(evt)">
<style type="text/css"><![CDATA[
.node, .edge {opacity: 0.7;}
.node.selected, .edge.selected {opacity: 1;}
.edge:hover path { stroke: red; }
.edge:hover polygon { stroke: red; fill: red; }
]]></style>
<script type="application/ecmascript" xlink:href="svg.min.js"/>
<svg id="graph" class="graph">
<g id="graph0" class="graph" transform="scale(1 1) rotate(0) translate(4 198)">
<title>liger::rhi::Surface</title>
<!-- Node1 -->
<g id="Node000001" class="node">
<title>Node1</title>
<g id="a_Node000001"><a xlink:title=" ">
<polygon fill="#999999" stroke="none" points="103.5,-64 19.5,-64 19.5,0 103.5,0 103.5,-64"/>
<text text-anchor="start" x="24.38" y="-50.5" font-family="Helvetica,sans-Serif" font-size="10.00">liger::rhi::Surface</text>
<text text-anchor="start" x="60" y="-35.5" font-family="Helvetica,sans-Serif" font-size="10.00"> </text>
<text text-anchor="start" x="28.5" y="-20.5" font-family="Helvetica,sans-Serif" font-size="10.00">+</text>
<text text-anchor="start" x="43.5" y="-20.5" font-family="Helvetica,sans-Serif" font-size="10.00">Surface()</text>
<text text-anchor="start" x="28.5" y="-5.5" font-family="Helvetica,sans-Serif" font-size="10.00">+</text>
<text text-anchor="start" x="43.5" y="-5.5" font-family="Helvetica,sans-Serif" font-size="10.00">~Surface()</text>
<polygon fill="#666666" stroke="#666666" points="19.5,-47 19.5,-47 103.5,-47 103.5,-47 19.5,-47"/>
<polygon fill="#666666" stroke="#666666" points="19.5,-32 19.5,-32 103.5,-32 103.5,-32 19.5,-32"/>
<polygon fill="none" stroke="#666666" points="19.5,0 19.5,-64 103.5,-64 103.5,0 19.5,0"/>
</a>
</g>
</g>
<!-- Node2 -->
<g id="Node000002" class="node">
<title>Node2</title>
<g id="a_Node000002"><a xlink:href="classliger_1_1rhi_1_1_device_resource.html" target="_top" xlink:title=" ">
<polygon fill="white" stroke="none" points="123,-194 0,-194 0,-100 123,-100 123,-194"/>
<text text-anchor="start" x="4.88" y="-180.5" font-family="Helvetica,sans-Serif" font-size="10.00">liger::rhi::DeviceResource</text>
<text text-anchor="start" x="60" y="-165.5" font-family="Helvetica,sans-Serif" font-size="10.00"> </text>
<text text-anchor="start" x="9" y="-150.5" font-family="Helvetica,sans-Serif" font-size="10.00">+</text>
<text text-anchor="start" x="24" y="-150.5" font-family="Helvetica,sans-Serif" font-size="10.00">DeviceResource()</text>
<text text-anchor="start" x="9" y="-135.5" font-family="Helvetica,sans-Serif" font-size="10.00">+</text>
<text text-anchor="start" x="24" y="-135.5" font-family="Helvetica,sans-Serif" font-size="10.00">~DeviceResource()</text>
<text text-anchor="start" x="9" y="-120.5" font-family="Helvetica,sans-Serif" font-size="10.00">+</text>
<text text-anchor="start" x="24" y="-120.5" font-family="Helvetica,sans-Serif" font-size="10.00">Valid()</text>
<text text-anchor="start" x="9" y="-105.5" font-family="Helvetica,sans-Serif" font-size="10.00">+</text>
<text text-anchor="start" x="24" y="-105.5" font-family="Helvetica,sans-Serif" font-size="10.00">GetInternal()</text>
<polygon fill="#bfbfbf" stroke="#bfbfbf" points="0,-177 0,-177 123,-177 123,-177 0,-177"/>
<polygon fill="#bfbfbf" stroke="#bfbfbf" points="0,-162 0,-162 123,-162 123,-162 0,-162"/>
<polygon fill="none" stroke="#bfbfbf" points="0,-100 0,-194 123,-194 123,-100 0,-100"/>
</a>
</g>
</g>
<!-- Node2&#45;&gt;Node1 -->
<g id="edge1_Node000001_Node000002" class="edge">
<title>Node2&#45;&gt;Node1</title>
<g id="a_edge1_Node000001_Node000002"><a xlink:title=" ">
<path fill="none" stroke="#8b1a1a" d="M61.5,-88.75C61.5,-80.11 61.5,-71.51 61.5,-63.73"/>
<polygon fill="none" stroke="#8b1a1a" points="58,-88.52 61.5,-98.53 65,-88.53 58,-88.52"/>
</a>
</g>
</g>
</g>
</svg>
</svg>

<style type='text/css'>
<![CDATA[
[data-mouse-over-selected='false'] { opacity: 0.7; }
[data-mouse-over-selected='true']  { opacity: 1.0; }
]]>
</style>
<script type="application/ecmascript"><![CDATA[
document.addEventListener('DOMContentLoaded', (event) => {
  highlightEdges();
  highlightAdjacentNodes();
});
]]></script>
</svg>
