<?xml version="1.0" encoding="UTF-8" standalone="no"?>
<!DOCTYPE svg PUBLIC "-//W3C//DTD SVG 1.1//EN"
 "http://www.w3.org/Graphics/SVG/1.1/DTD/svg11.dtd">
<!-- Generated by graphviz version 9.0.0 (20230911.1827)
 -->
<!-- Title: command_buffer.hpp Pages: 1 -->
<!--zoomable 304 -->

<svg id="main" version="1.1" xmlns="http://www.w3.org/2000/svg" xmlns:xlink="http://www.w3.org/1999/xlink" xml:space="preserve" onload="init(evt)">
<style type="text/css"><![CDATA[
.node, .edge {opacity: 0.7;}
.node.selected, .edge.selected {opacity: 1;}
.edge:hover path { stroke: red; }
.edge:hover polygon { stroke: red; fill: red; }
]]></style>

<defs>
  <circle id="rim" cx="0" cy="0" r="7"/>
  <circle id="rim2" cx="0" cy="0" r="3.5"/>
  <g id="zoomPlus">
    <use xlink:href="#rim" fill="#404040"><set attributeName="fill" to="#808080" begin="zoomplus.mouseover" end="zoomplus.mouseout"/></use>
    <path d="M-4,0h8M0,-4v8" fill="none" stroke="white" stroke-width="1.5" pointer-events="none"/>
  </g>
  <g id="zoomMin">
    <use xlink:href="#rim" fill="#404040"><set attributeName="fill" to="#808080" begin="zoomminus.mouseover" end="zoomminus.mouseout"/></use>
    <path d="M-4,0h8" fill="none" stroke="white" stroke-width="1.5" pointer-events="none"/>
  </g>
  <g id="arrowUp" transform="translate(30 24)">
    <use xlink:href="#rim"/>
    <path pointer-events="none" fill="none" stroke="white" stroke-width="1.5" d="M0,-3.0v7 M-2.5,-0.5L0,-3.0L2.5,-0.5"/>
  </g>
  <g id="arrowRight" transform="rotate(90) translate(36 -43)">
    <use xlink:href="#rim"/>
    <path pointer-events="none" fill="none" stroke="white" stroke-width="1.5" d="M0,-3.0v7 M-2.5,-0.5L0,-3.0L2.5,-0.5"/>
  </g>
  <g id="arrowDown" transform="rotate(180) translate(-30 -48)">
    <use xlink:href="#rim"/>
    <path pointer-events="none" fill="none" stroke="white" stroke-width="1.5" d="M0,-3.0v7 M-2.5,-0.5L0,-3.0L2.5,-0.5"/>
  </g>
  <g id="arrowLeft" transform="rotate(270) translate(-36 17)">
    <use xlink:href="#rim"/>
    <path pointer-events="none" fill="none" stroke="white" stroke-width="1.5" d="M0,-3.0v7 M-2.5,-0.5L0,-3.0L2.5,-0.5"/>
  </g>
  <g id="resetDef">
    <use xlink:href="#rim2" fill="#404040"><set attributeName="fill" to="#808080" begin="reset.mouseover" end="reset.mouseout"/></use>
  </g>
</defs>
<script type="application/ecmascript">
var viewWidth = 871;
var viewHeight = 304;
var sectionId = 'dynsection-0';
</script>
<script type="application/ecmascript" xlink:href="svg.min.js"/>
<svg id="graph" class="graph">
<g id="viewport">
<title>command_buffer.hpp</title>
<!-- Node1 -->
<g id="Node000001" class="node">
<title>Node1</title>
<g id="a_Node000001"><a xlink:title=" ">
<polygon fill="#999999" stroke="#666666" points="438,-295.5 331.25,-295.5 331.25,-276.25 438,-276.25 438,-295.5"/>
<text text-anchor="middle" x="384.62" y="-282" font-family="Helvetica,sans-Serif" font-size="10.00">command_buffer.hpp</text>
</a>
</g>
</g>
<!-- Node2 -->
<g id="Node000002" class="node">
<title>Node2</title>
<g id="a_Node000002"><a xlink:href="buffer_8hpp.html" target="_top" xlink:title=" ">
<polygon fill="white" stroke="#666666" points="123.25,-129.75 0,-129.75 0,-110.5 123.25,-110.5 123.25,-129.75"/>
<text text-anchor="middle" x="61.62" y="-116.25" font-family="Helvetica,sans-Serif" font-size="10.00">liger/render/rhi/buffer.hpp</text>
</a>
</g>
</g>
<!-- Node1&#45;&gt;Node2 -->
<g id="edge1_Node000001_Node000002" class="edge">
<title>Node1&#45;&gt;Node2</title>
<g id="a_edge1_Node000001_Node000002"><a xlink:title=" ">
<path fill="none" stroke="#63b8ff" d="M330.76,-282.76C259.03,-278.88 137.26,-268.27 103.62,-240.25 73.94,-215.52 65.22,-168.41 62.67,-141.44"/>
<polygon fill="#63b8ff" stroke="#63b8ff" points="66.17,-141.23 61.96,-131.51 59.18,-141.73 66.17,-141.23"/>
</a>
</g>
</g>
<!-- Node5 -->
<g id="Node000005" class="node">
<title>Node5</title>
<g id="a_Node000005"><a xlink:href="command__queue_8hpp.html" target="_top" xlink:title=" ">
<polygon fill="white" stroke="#666666" points="336.38,-185 162.88,-185 162.88,-165.75 336.38,-165.75 336.38,-185"/>
<text text-anchor="middle" x="249.62" y="-171.5" font-family="Helvetica,sans-Serif" font-size="10.00">liger/render/rhi/command_queue.hpp</text>
</a>
</g>
</g>
<!-- Node1&#45;&gt;Node5 -->
<g id="edge5_Node000001_Node000005" class="edge">
<title>Node1&#45;&gt;Node5</title>
<g id="a_edge5_Node000001_Node000005"><a xlink:title=" ">
<path fill="none" stroke="#63b8ff" d="M374.61,-275.98C360.4,-263.44 333.44,-239.96 309.62,-221 297.21,-211.12 282.98,-200.5 271.49,-192.1"/>
<polygon fill="#63b8ff" stroke="#63b8ff" points="273.59,-189.3 263.44,-186.26 269.48,-194.97 273.59,-189.3"/>
</a>
</g>
</g>
<!-- Node6 -->
<g id="Node000006" class="node">
<title>Node6</title>
<g id="a_Node000006"><a xlink:href="compute__pipeline_8hpp.html" target="_top" xlink:title=" ">
<polygon fill="white" stroke="#666666" points="300.12,-240.25 125.12,-240.25 125.12,-221 300.12,-221 300.12,-240.25"/>
<text text-anchor="middle" x="212.62" y="-226.75" font-family="Helvetica,sans-Serif" font-size="10.00">liger/render/rhi/compute_pipeline.hpp</text>
</a>
</g>
</g>
<!-- Node1&#45;&gt;Node6 -->
<g id="edge7_Node000001_Node000006" class="edge">
<title>Node1&#45;&gt;Node6</title>
<g id="a_edge7_Node000001_Node000006"><a xlink:title=" ">
<path fill="none" stroke="#63b8ff" d="M355.45,-275.84C327.15,-267.08 284.01,-253.73 252.54,-243.98"/>
<polygon fill="#63b8ff" stroke="#63b8ff" points="253.98,-240.76 243.39,-241.15 251.91,-247.45 253.98,-240.76"/>
</a>
</g>
</g>
<!-- Node8 -->
<g id="Node000008" class="node">
<title>Node8</title>
<g id="a_Node000008"><a xlink:href="graphics__pipeline_8hpp.html" target="_top" xlink:title=" ">
<polygon fill="white" stroke="#666666" points="566.75,-185 392.5,-185 392.5,-165.75 566.75,-165.75 566.75,-185"/>
<text text-anchor="middle" x="479.62" y="-171.5" font-family="Helvetica,sans-Serif" font-size="10.00">liger/render/rhi/graphics_pipeline.hpp</text>
</a>
</g>
</g>
<!-- Node1&#45;&gt;Node8 -->
<g id="edge10_Node000001_Node000008" class="edge">
<title>Node1&#45;&gt;Node8</title>
<g id="a_edge10_Node000001_Node000008"><a xlink:title=" ">
<path fill="none" stroke="#63b8ff" d="M438.43,-283.99C471.61,-280.3 511.86,-269.49 533.62,-240.25 546.61,-222.81 525.94,-203.92 506.54,-191.25"/>
<polygon fill="#63b8ff" stroke="#63b8ff" points="508.63,-188.42 498.27,-186.18 504.97,-194.39 508.63,-188.42"/>
</a>
</g>
</g>
<!-- Node10 -->
<g id="Node000010" class="node">
<title>Node10</title>
<g id="a_Node000010"><a xlink:href="render__pass_8hpp.html" target="_top" xlink:title=" ">
<polygon fill="white" stroke="#666666" points="862.88,-240.25 710.38,-240.25 710.38,-221 862.88,-221 862.88,-240.25"/>
<text text-anchor="middle" x="786.62" y="-226.75" font-family="Helvetica,sans-Serif" font-size="10.00">liger/render/rhi/render_pass.hpp</text>
</a>
</g>
</g>
<!-- Node1&#45;&gt;Node10 -->
<g id="edge14_Node000001_Node000010" class="edge">
<title>Node1&#45;&gt;Node10</title>
<g id="a_edge14_Node000001_Node000010"><a xlink:title=" ">
<path fill="none" stroke="#63b8ff" d="M438.42,-277.75C507.39,-268.61 627.53,-252.7 707.07,-242.16"/>
<polygon fill="#63b8ff" stroke="#63b8ff" points="707.06,-245.69 716.52,-240.91 706.14,-238.76 707.06,-245.69"/>
</a>
</g>
</g>
<!-- Node12 -->
<g id="Node000012" class="node">
<title>Node12</title>
<g id="a_Node000012"><a xlink:href="texture_8hpp.html" target="_top" xlink:title=" ">
<polygon fill="white" stroke="#666666" points="688.25,-129.75 559,-129.75 559,-110.5 688.25,-110.5 688.25,-129.75"/>
<text text-anchor="middle" x="623.62" y="-116.25" font-family="Helvetica,sans-Serif" font-size="10.00">liger/render/rhi/texture.hpp</text>
</a>
</g>
</g>
<!-- Node1&#45;&gt;Node12 -->
<g id="edge28_Node000001_Node000012" class="edge">
<title>Node1&#45;&gt;Node12</title>
<g id="a_edge28_Node000001_Node000012"><a xlink:title=" ">
<path fill="none" stroke="#63b8ff" d="M438.3,-278.4C472.2,-272.44 515.82,-261.19 549.62,-240.25 577.53,-222.96 581.49,-212.99 598.62,-185 607.19,-171 613.78,-153.56 618.04,-140.45"/>
<polygon fill="#63b8ff" stroke="#63b8ff" points="621.26,-141.87 620.84,-131.28 614.57,-139.82 621.26,-141.87"/>
</a>
</g>
</g>
<!-- Node13 -->
<g id="Node000013" class="node">
<title>Node13</title>
<g id="a_Node000013"><a xlink:href="sampler_8hpp.html" target="_top" xlink:title=" ">
<polygon fill="white" stroke="#666666" points="274.12,-129.75 141.12,-129.75 141.12,-110.5 274.12,-110.5 274.12,-129.75"/>
<text text-anchor="middle" x="207.62" y="-116.25" font-family="Helvetica,sans-Serif" font-size="10.00">liger/render/rhi/sampler.hpp</text>
</a>
</g>
</g>
<!-- Node1&#45;&gt;Node13 -->
<g id="edge21_Node000001_Node000013" class="edge">
<title>Node1&#45;&gt;Node13</title>
<g id="a_edge21_Node000001_Node000013"><a xlink:title=" ">
<path fill="none" stroke="#63b8ff" d="M330.93,-283.83C260.73,-281.19 143.53,-272.01 116.62,-240.25 85.95,-204.04 145.15,-158.97 181.75,-136.04"/>
<polygon fill="#63b8ff" stroke="#63b8ff" points="183.36,-139.15 190.09,-130.97 179.72,-133.17 183.36,-139.15"/>
</a>
</g>
</g>
<!-- Node14 -->
<g id="Node000014" class="node">
<title>Node14</title>
<g id="a_Node000014"><a xlink:href="synchronization_8hpp.html" target="_top" xlink:title=" ">
<polygon fill="white" stroke="#666666" points="524.38,-240.25 356.88,-240.25 356.88,-221 524.38,-221 524.38,-240.25"/>
<text text-anchor="middle" x="440.62" y="-226.75" font-family="Helvetica,sans-Serif" font-size="10.00">liger/render/rhi/synchronization.hpp</text>
</a>
</g>
</g>
<!-- Node1&#45;&gt;Node14 -->
<g id="edge23_Node000001_Node000014" class="edge">
<title>Node1&#45;&gt;Node14</title>
<g id="a_edge23_Node000001_Node000014"><a xlink:title=" ">
<path fill="none" stroke="#63b8ff" d="M394.12,-275.84C402.06,-268.3 413.57,-257.35 423.16,-248.23"/>
<polygon fill="#63b8ff" stroke="#63b8ff" points="425.33,-250.99 430.17,-241.57 420.51,-245.92 425.33,-250.99"/>
</a>
</g>
</g>
<!-- Node3 -->
<g id="Node000003" class="node">
<title>Node3</title>
<g id="a_Node000003"><a xlink:title=" ">
<polygon fill="#e0e0e0" stroke="#999999" points="350.75,-19.25 254.5,-19.25 254.5,0 350.75,0 350.75,-19.25"/>
<text text-anchor="middle" x="302.62" y="-5.75" font-family="Helvetica,sans-Serif" font-size="10.00">liger/core/core.hpp</text>
</a>
</g>
</g>
<!-- Node2&#45;&gt;Node3 -->
<g id="edge2_Node000002_Node000003" class="edge">
<title>Node2&#45;&gt;Node3</title>
<g id="a_edge2_Node000002_Node000003"><a xlink:title=" ">
<path fill="none" stroke="#63b8ff" d="M81.76,-110.06C124.02,-91.03 222.2,-46.83 272.19,-24.33"/>
<polygon fill="#63b8ff" stroke="#63b8ff" points="273.32,-27.66 281,-20.36 270.44,-21.27 273.32,-27.66"/>
</a>
</g>
</g>
<!-- Node4 -->
<g id="Node000004" class="node">
<title>Node4</title>
<g id="a_Node000004"><a xlink:href="device__resource_8hpp.html" target="_top" xlink:title=" ">
<polygon fill="white" stroke="#666666" points="387.88,-74.5 217.38,-74.5 217.38,-55.25 387.88,-55.25 387.88,-74.5"/>
<text text-anchor="middle" x="302.62" y="-61" font-family="Helvetica,sans-Serif" font-size="10.00">liger/render/rhi/device_resource.hpp</text>
</a>
</g>
</g>
<!-- Node2&#45;&gt;Node4 -->
<g id="edge3_Node000002_Node000004" class="edge">
<title>Node2&#45;&gt;Node4</title>
<g id="a_edge3_Node000002_Node000004"><a xlink:title=" ">
<path fill="none" stroke="#63b8ff" d="M102.78,-110.03C143.59,-101.01 206.26,-87.17 250.53,-77.39"/>
<polygon fill="#63b8ff" stroke="#63b8ff" points="251.15,-80.83 260.16,-75.26 249.64,-74 251.15,-80.83"/>
</a>
</g>
</g>
<!-- Node4&#45;&gt;Node3 -->
<g id="edge4_Node000004_Node000003" class="edge">
<title>Node4&#45;&gt;Node3</title>
<g id="a_edge4_Node000004_Node000003"><a xlink:title=" ">
<path fill="none" stroke="#63b8ff" d="M302.62,-55.08C302.62,-48.57 302.62,-39.42 302.62,-31.12"/>
<polygon fill="#63b8ff" stroke="#63b8ff" points="306.13,-31.12 302.63,-21.12 299.13,-31.12 306.13,-31.12"/>
</a>
</g>
</g>
<!-- Node5&#45;&gt;Node4 -->
<g id="edge6_Node000005_Node000004" class="edge">
<title>Node5&#45;&gt;Node4</title>
<g id="a_edge6_Node000005_Node000004"><a xlink:title=" ">
<path fill="none" stroke="#63b8ff" d="M257.99,-165.47C265.62,-156.9 276.74,-143.3 283.62,-129.75 290.69,-115.84 295.59,-98.85 298.64,-85.89"/>
<polygon fill="#63b8ff" stroke="#63b8ff" points="301.99,-86.93 300.69,-76.42 295.15,-85.45 301.99,-86.93"/>
</a>
</g>
</g>
<!-- Node7 -->
<g id="Node000007" class="node">
<title>Node7</title>
<g id="a_Node000007"><a xlink:href="shader__module_8hpp.html" target="_top" xlink:title=" ">
<polygon fill="white" stroke="#666666" points="496.25,-129.75 331,-129.75 331,-110.5 496.25,-110.5 496.25,-129.75"/>
<text text-anchor="middle" x="413.62" y="-116.25" font-family="Helvetica,sans-Serif" font-size="10.00">liger/render/rhi/shader_module.hpp</text>
</a>
</g>
</g>
<!-- Node6&#45;&gt;Node7 -->
<g id="edge8_Node000006_Node000007" class="edge">
<title>Node6&#45;&gt;Node7</title>
<g id="a_edge8_Node000006_Node000007"><a xlink:title=" ">
<path fill="none" stroke="#63b8ff" d="M193.53,-220.55C170.42,-208.38 136.6,-185.95 153.62,-165.75 164.54,-152.81 249.56,-139.93 319.45,-131.36"/>
<polygon fill="#63b8ff" stroke="#63b8ff" points="319.52,-134.88 329.02,-130.2 318.68,-127.93 319.52,-134.88"/>
</a>
</g>
</g>
<!-- Node7&#45;&gt;Node4 -->
<g id="edge9_Node000007_Node000004" class="edge">
<title>Node7&#45;&gt;Node4</title>
<g id="a_edge9_Node000007_Node000004"><a xlink:title=" ">
<path fill="none" stroke="#63b8ff" d="M394.8,-110.09C377.57,-101.83 351.82,-89.48 331.92,-79.93"/>
<polygon fill="#63b8ff" stroke="#63b8ff" points="333.44,-76.78 322.91,-75.61 330.41,-83.09 333.44,-76.78"/>
</a>
</g>
</g>
<!-- Node8&#45;&gt;Node7 -->
<g id="edge13_Node000008_Node000007" class="edge">
<title>Node8&#45;&gt;Node7</title>
<g id="a_edge13_Node000008_Node000007"><a xlink:title=" ">
<path fill="none" stroke="#63b8ff" d="M468.43,-165.34C458.89,-157.65 444.95,-146.4 433.52,-137.18"/>
<polygon fill="#63b8ff" stroke="#63b8ff" points="435.81,-134.53 425.83,-130.98 431.42,-139.98 435.81,-134.53"/>
</a>
</g>
</g>
<!-- Node9 -->
<g id="Node000009" class="node">
<title>Node9</title>
<g id="a_Node000009"><a xlink:href="format_8hpp.html" target="_top" xlink:title=" ">
<polygon fill="white" stroke="#666666" points="639.12,-74.5 512.12,-74.5 512.12,-55.25 639.12,-55.25 639.12,-74.5"/>
<text text-anchor="middle" x="575.62" y="-61" font-family="Helvetica,sans-Serif" font-size="10.00">liger/render/rhi/format.hpp</text>
</a>
</g>
</g>
<!-- Node8&#45;&gt;Node9 -->
<g id="edge11_Node000008_Node000009" class="edge">
<title>Node8&#45;&gt;Node9</title>
<g id="a_edge11_Node000008_Node000009"><a xlink:title=" ">
<path fill="none" stroke="#63b8ff" d="M487.48,-165.5C503.3,-147.61 539.26,-106.97 560.03,-83.5"/>
<polygon fill="#63b8ff" stroke="#63b8ff" points="562.65,-85.82 566.66,-76.01 557.41,-81.18 562.65,-85.82"/>
</a>
</g>
</g>
<!-- Node9&#45;&gt;Node3 -->
<g id="edge12_Node000009_Node000003" class="edge">
<title>Node9&#45;&gt;Node3</title>
<g id="a_edge12_Node000009_Node000003"><a xlink:title=" ">
<path fill="none" stroke="#63b8ff" d="M529,-54.78C482.28,-45.67 410.27,-31.62 360.05,-21.83"/>
<polygon fill="#63b8ff" stroke="#63b8ff" points="361.02,-18.45 350.54,-19.97 359.68,-25.32 361.02,-18.45"/>
</a>
</g>
</g>
<!-- Node10&#45;&gt;Node9 -->
<g id="edge15_Node000010_Node000009" class="edge">
<title>Node10&#45;&gt;Node9</title>
<g id="a_edge15_Node000010_Node000009"><a xlink:title=" ">
<path fill="none" stroke="#63b8ff" d="M801.49,-220.7C819.87,-208.5 847.16,-185.85 833.62,-165.75 793.29,-105.83 711.31,-81.84 650.53,-72.25"/>
<polygon fill="#63b8ff" stroke="#63b8ff" points="651.34,-68.83 640.94,-70.84 650.32,-75.76 651.34,-68.83"/>
</a>
</g>
</g>
<!-- Node11 -->
<g id="Node000011" class="node">
<title>Node11</title>
<g id="a_Node000011"><a xlink:href="framebuffer_8hpp.html" target="_top" xlink:title=" ">
<polygon fill="white" stroke="#666666" points="808.62,-185 660.62,-185 660.62,-165.75 808.62,-165.75 808.62,-185"/>
<text text-anchor="middle" x="734.62" y="-171.5" font-family="Helvetica,sans-Serif" font-size="10.00">liger/render/rhi/framebuffer.hpp</text>
</a>
</g>
</g>
<!-- Node10&#45;&gt;Node11 -->
<g id="edge16_Node000010_Node000011" class="edge">
<title>Node10&#45;&gt;Node11</title>
<g id="a_edge16_Node000010_Node000011"><a xlink:title=" ">
<path fill="none" stroke="#63b8ff" d="M778.04,-220.83C770.78,-213.4 760.17,-202.54 751.26,-193.41"/>
<polygon fill="#63b8ff" stroke="#63b8ff" points="753.95,-191.15 744.46,-186.44 748.94,-196.04 753.95,-191.15"/>
</a>
</g>
</g>
<!-- Node10&#45;&gt;Node12 -->
<g id="edge20_Node000010_Node000012" class="edge">
<title>Node10&#45;&gt;Node12</title>
<g id="a_edge20_Node000010_Node000012"><a xlink:title=" ">
<path fill="none" stroke="#63b8ff" d="M796.85,-220.67C810.5,-207.64 831.44,-183.11 817.62,-165.75 802.78,-147.1 747.61,-135.59 699.88,-128.95"/>
<polygon fill="#63b8ff" stroke="#63b8ff" points="700.44,-125.49 690.06,-127.64 699.51,-132.43 700.44,-125.49"/>
</a>
</g>
</g>
<!-- Node11&#45;&gt;Node12 -->
<g id="edge17_Node000011_Node000012" class="edge">
<title>Node11&#45;&gt;Node12</title>
<g id="a_edge17_Node000011_Node000012"><a xlink:title=" ">
<path fill="none" stroke="#63b8ff" d="M715.8,-165.34C698.57,-157.08 672.82,-144.73 652.92,-135.18"/>
<polygon fill="#63b8ff" stroke="#63b8ff" points="654.44,-132.03 643.91,-130.86 651.41,-138.34 654.44,-132.03"/>
</a>
</g>
</g>
<!-- Node12&#45;&gt;Node4 -->
<g id="edge18_Node000012_Node000004" class="edge">
<title>Node12&#45;&gt;Node4</title>
<g id="a_edge18_Node000012_Node000004"><a xlink:title=" ">
<path fill="none" stroke="#63b8ff" d="M568.81,-110.03C513.38,-100.84 427.68,-86.62 368.57,-76.81"/>
<polygon fill="#63b8ff" stroke="#63b8ff" points="369.42,-73.41 358.98,-75.22 368.27,-80.31 369.42,-73.41"/>
</a>
</g>
</g>
<!-- Node12&#45;&gt;Node9 -->
<g id="edge19_Node000012_Node000009" class="edge">
<title>Node12&#45;&gt;Node9</title>
<g id="a_edge19_Node000012_Node000009"><a xlink:title=" ">
<path fill="none" stroke="#63b8ff" d="M615.7,-110.33C609.07,-102.98 599.41,-92.26 591.24,-83.19"/>
<polygon fill="#63b8ff" stroke="#63b8ff" points="594.03,-81.07 584.74,-75.98 588.83,-85.75 594.03,-81.07"/>
</a>
</g>
</g>
<!-- Node13&#45;&gt;Node4 -->
<g id="edge22_Node000013_Node000004" class="edge">
<title>Node13&#45;&gt;Node4</title>
<g id="a_edge22_Node000013_Node000004"><a xlink:title=" ">
<path fill="none" stroke="#63b8ff" d="M223.74,-110.09C238.21,-101.98 259.7,-89.93 276.61,-80.46"/>
<polygon fill="#63b8ff" stroke="#63b8ff" points="278.1,-83.64 285.11,-75.69 274.68,-77.53 278.1,-83.64"/>
</a>
</g>
</g>
<!-- Node14&#45;&gt;Node2 -->
<g id="edge24_Node000014_Node000002" class="edge">
<title>Node14&#45;&gt;Node2</title>
<g id="a_edge24_Node000014_Node000002"><a xlink:title=" ">
<path fill="none" stroke="#63b8ff" d="M430.65,-220.71C414.22,-206.56 379.85,-179.18 345.62,-165.75 326.31,-158.17 212.21,-141.6 134.65,-130.93"/>
<polygon fill="#63b8ff" stroke="#63b8ff" points="135.37,-127.49 124.99,-129.6 134.42,-134.43 135.37,-127.49"/>
</a>
</g>
</g>
<!-- Node14&#45;&gt;Node5 -->
<g id="edge25_Node000014_Node000005" class="edge">
<title>Node14&#45;&gt;Node5</title>
<g id="a_edge25_Node000014_Node000005"><a xlink:title=" ">
<path fill="none" stroke="#63b8ff" d="M408.22,-220.59C376.53,-211.76 328.06,-198.24 293.04,-188.48"/>
<polygon fill="#63b8ff" stroke="#63b8ff" points="294.22,-185.17 283.64,-185.86 292.34,-191.92 294.22,-185.17"/>
</a>
</g>
</g>
<!-- Node14&#45;&gt;Node8 -->
<g id="edge26_Node000014_Node000008" class="edge">
<title>Node14&#45;&gt;Node8</title>
<g id="a_edge26_Node000014_Node000008"><a xlink:title=" ">
<path fill="none" stroke="#63b8ff" d="M447.07,-220.83C452.28,-213.71 459.81,-203.43 466.32,-194.55"/>
<polygon fill="#63b8ff" stroke="#63b8ff" points="469.07,-196.72 472.15,-186.58 463.42,-192.58 469.07,-196.72"/>
</a>
</g>
</g>
<!-- Node14&#45;&gt;Node12 -->
<g id="edge27_Node000014_Node000012" class="edge">
<title>Node14&#45;&gt;Node12</title>
<g id="a_edge27_Node000014_Node000012"><a xlink:title=" ">
<path fill="none" stroke="#63b8ff" d="M491.46,-220.51C518.31,-213.88 550.76,-202.85 575.62,-185 592.15,-173.14 605.49,-153.91 613.87,-139.64"/>
<polygon fill="#63b8ff" stroke="#63b8ff" points="616.75,-141.67 618.55,-131.23 610.63,-138.27 616.75,-141.67"/>
</a>
</g>
</g>
</g>
</svg>

<g id="navigator" transform="translate(0 0)" fill="#404254">
  <rect fill="#f2f5e9" fill-opacity="0.5" stroke="#606060" stroke-width=".5" x="0" y="0" width="60" height="60"/>
  <use id="zoomplus" xlink:href="#zoomPlus" x="17" y="9" onmousedown="handleZoom(evt,'in')"/>
  <use id="zoomminus" xlink:href="#zoomMin" x="42" y="9" onmousedown="handleZoom(evt,'out')"/>
  <use id="reset" xlink:href="#resetDef" x="30" y="36" onmousedown="handleReset()"/>
   <use id="arrowup" xlink:href="#arrowUp" x="0" y="0" onmousedown="handlePan(0,-1)"/>
  <use id="arrowright" xlink:href="#arrowRight" x="0" y="0" onmousedown="handlePan(1,0)"/>
  <use id="arrowdown" xlink:href="#arrowDown" x="0" y="0" onmousedown="handlePan(0,1)"/>
  <use id="arrowleft" xlink:href="#arrowLeft" x="0" y="0" onmousedown="handlePan(-1,0)"/>
</g>
<svg viewBox="0 0 15 15" width="100%" height="30px" preserveAspectRatio="xMaxYMin meet">
 <g id="arrow_out" transform="scale(0.3 0.3)">
  <a xlink:href="command__buffer_8hpp__incl_org.svg" target="_base">
   <rect id="button" ry="5" rx="5" y="6" x="6" height="38" width="38"
        fill="#f2f5e9" fill-opacity="0.5" stroke="#606060" stroke-width="1.0"/>
   <path id="arrow"
     d="M 11.500037,31.436501 C 11.940474,20.09759 22.043105,11.32322 32.158766,21.979434 L 37.068811,17.246167 C 37.068811,17.246167 37.088388,32 37.088388,32 L 22.160133,31.978069 C 22.160133,31.978069 26.997745,27.140456 26.997745,27.140456 C 18.528582,18.264221 13.291696,25.230495 11.500037,31.436501 z"
     style="fill:#404040;"/>
  </a>
 </g>
</svg>

<style type='text/css'>
<![CDATA[
[data-mouse-over-selected='false'] { opacity: 0.7; }
[data-mouse-over-selected='true']  { opacity: 1.0; }
]]>
</style>
<script type="application/ecmascript"><![CDATA[
document.addEventListener('DOMContentLoaded', (event) => {
  highlightEdges();
  highlightAdjacentNodes();
});
]]></script>
</svg>
