<?xml version="1.0" encoding="UTF-8" standalone="no"?>
<!DOCTYPE svg PUBLIC "-//W3C//DTD SVG 1.1//EN"
 "http://www.w3.org/Graphics/SVG/1.1/DTD/svg11.dtd">
<!-- Generated by graphviz version 9.0.0 (20230911.1827)
 -->
<!-- Title: command_queue.hpp Pages: 1 -->
<svg width="344pt" height="138pt"
 viewBox="0.00 0.00 343.74 137.75" xmlns="http://www.w3.org/2000/svg" xmlns:xlink="http://www.w3.org/1999/xlink">
<g id="graph0" class="graph" transform="scale(1 1) rotate(0) translate(4 133.75)">
<title>command_queue.hpp</title>
<!-- Node1 -->
<g id="Node000001" class="node">
<title>Node1</title>
<g id="a_Node000001"><a xlink:title=" ">
<polygon fill="#999999" stroke="#666666" points="200.62,-129.75 91.62,-129.75 91.62,-110.5 200.62,-110.5 200.62,-129.75"/>
<text text-anchor="middle" x="146.12" y="-116.25" font-family="Helvetica,sans-Serif" font-size="10.00">command_queue.hpp</text>
</a>
</g>
</g>
<!-- Node2 -->
<g id="Node000002" class="node">
<title>Node2</title>
<g id="a_Node000002"><a xlink:href="command__buffer_8hpp.html" target="_top" xlink:title=" ">
<polygon fill="white" stroke="#666666" points="107.49,-19.25 0.74,-19.25 0.74,0 107.49,0 107.49,-19.25"/>
<text text-anchor="middle" x="54.12" y="-5.75" font-family="Helvetica,sans-Serif" font-size="10.00">command_buffer.hpp</text>
</a>
</g>
</g>
<!-- Node1&#45;&gt;Node2 -->
<g id="edge1_Node000001_Node000002" class="edge">
<title>Node1&#45;&gt;Node2</title>
<g id="a_edge1_Node000001_Node000002"><a xlink:title=" ">
<path fill="none" stroke="#63b8ff" d="M80.17,-115.2C52.02,-109.85 21.67,-98.41 4.12,-74.5 -10.55,-54.52 18.59,-31.82 38.23,-19.59"/>
<polygon fill="#63b8ff" stroke="#63b8ff" points="79.3,-118.6 89.74,-116.77 80.44,-111.69 79.3,-118.6"/>
</a>
</g>
</g>
<!-- Node3 -->
<g id="Node000003" class="node">
<title>Node3</title>
<g id="a_Node000003"><a xlink:href="deprecated_2device_8hpp_source.html" target="_top" xlink:title=" ">
<polygon fill="white" stroke="#666666" points="76.74,-74.5 13.49,-74.5 13.49,-55.25 76.74,-55.25 76.74,-74.5"/>
<text text-anchor="middle" x="45.12" y="-61" font-family="Helvetica,sans-Serif" font-size="10.00">device.hpp</text>
</a>
</g>
</g>
<!-- Node1&#45;&gt;Node3 -->
<g id="edge2_Node000001_Node000003" class="edge">
<title>Node1&#45;&gt;Node3</title>
<g id="a_edge2_Node000001_Node000003"><a xlink:title=" ">
<path fill="none" stroke="#63b8ff" d="M118.81,-104.73C100.82,-95.24 77.82,-83.11 62.34,-74.95"/>
<polygon fill="#63b8ff" stroke="#63b8ff" points="117.17,-107.82 127.65,-109.39 120.43,-101.63 117.17,-107.82"/>
</a>
</g>
</g>
<!-- Node4 -->
<g id="Node000004" class="node">
<title>Node4</title>
<g id="a_Node000004"><a xlink:href="device_8hpp_source.html" target="_top" xlink:title=" ">
<polygon fill="white" stroke="#666666" points="257.74,-19.25 194.49,-19.25 194.49,0 257.74,0 257.74,-19.25"/>
<text text-anchor="middle" x="226.12" y="-5.75" font-family="Helvetica,sans-Serif" font-size="10.00">device.hpp</text>
</a>
</g>
</g>
<!-- Node1&#45;&gt;Node4 -->
<g id="edge3_Node000001_Node000004" class="edge">
<title>Node1&#45;&gt;Node4</title>
<g id="a_edge3_Node000001_Node000004"><a xlink:title=" ">
<path fill="none" stroke="#63b8ff" d="M173.44,-104.09C184.96,-96.54 197.63,-86.45 206.12,-74.5 218.23,-57.44 223.2,-32.79 225.08,-19.66"/>
<polygon fill="#63b8ff" stroke="#63b8ff" points="171.73,-101.04 165.04,-109.26 175.4,-107 171.73,-101.04"/>
</a>
</g>
</g>
<!-- Node5 -->
<g id="Node000005" class="node">
<title>Node5</title>
<g id="a_Node000005"><a xlink:href="swapchain_8hpp.html" target="_top" xlink:title=" ">
<polygon fill="white" stroke="#666666" points="335.74,-74.5 254.49,-74.5 254.49,-55.25 335.74,-55.25 335.74,-74.5"/>
<text text-anchor="middle" x="295.12" y="-61" font-family="Helvetica,sans-Serif" font-size="10.00">swapchain.hpp</text>
</a>
</g>
</g>
<!-- Node1&#45;&gt;Node5 -->
<g id="edge4_Node000001_Node000005" class="edge">
<title>Node1&#45;&gt;Node5</title>
<g id="a_edge4_Node000001_Node000005"><a xlink:title=" ">
<path fill="none" stroke="#63b8ff" d="M182,-106.3C209.09,-96.62 245.6,-83.57 269.72,-74.95"/>
<polygon fill="#63b8ff" stroke="#63b8ff" points="181.06,-102.92 172.82,-109.58 183.41,-109.51 181.06,-102.92"/>
</a>
</g>
</g>
<!-- Node6 -->
<g id="Node000006" class="node">
<title>Node6</title>
<g id="a_Node000006"><a xlink:href="synchronization_8hpp.html" target="_top" xlink:title=" ">
<polygon fill="white" stroke="#666666" points="197.62,-74.5 94.62,-74.5 94.62,-55.25 197.62,-55.25 197.62,-74.5"/>
<text text-anchor="middle" x="146.12" y="-61" font-family="Helvetica,sans-Serif" font-size="10.00">synchronization.hpp</text>
</a>
</g>
</g>
<!-- Node1&#45;&gt;Node6 -->
<g id="edge6_Node000001_Node000006" class="edge">
<title>Node1&#45;&gt;Node6</title>
<g id="a_edge6_Node000001_Node000006"><a xlink:title=" ">
<path fill="none" stroke="#63b8ff" d="M146.12,-98.88C146.12,-90.59 146.12,-81.42 146.12,-74.86"/>
<polygon fill="#63b8ff" stroke="#63b8ff" points="142.62,-98.82 146.12,-108.82 149.62,-98.82 142.62,-98.82"/>
</a>
</g>
</g>
<!-- Node5&#45;&gt;Node4 -->
<g id="edge5_Node000005_Node000004" class="edge">
<title>Node5&#45;&gt;Node4</title>
<g id="a_edge5_Node000005_Node000004"><a xlink:title=" ">
<path fill="none" stroke="#63b8ff" d="M274.47,-47.94C262.42,-38.64 247.67,-27.26 237.65,-19.52"/>
<polygon fill="#63b8ff" stroke="#63b8ff" points="272.16,-50.58 282.22,-53.92 276.44,-45.04 272.16,-50.58"/>
</a>
</g>
</g>
<!-- Node6&#45;&gt;Node2 -->
<g id="edge7_Node000006_Node000002" class="edge">
<title>Node6&#45;&gt;Node2</title>
<g id="a_edge7_Node000006_Node000002"><a xlink:title=" ">
<path fill="none" stroke="#63b8ff" d="M121.01,-49.34C104.66,-39.88 83.84,-27.83 69.8,-19.7"/>
<polygon fill="#63b8ff" stroke="#63b8ff" points="118.79,-52.1 129.2,-54.08 122.3,-46.04 118.79,-52.1"/>
</a>
</g>
</g>
<!-- Node6&#45;&gt;Node4 -->
<g id="edge8_Node000006_Node000004" class="edge">
<title>Node6&#45;&gt;Node4</title>
<g id="a_edge8_Node000006_Node000004"><a xlink:title=" ">
<path fill="none" stroke="#63b8ff" d="M169.17,-48.53C183.19,-39.2 200.62,-27.6 212.48,-19.7"/>
<polygon fill="#63b8ff" stroke="#63b8ff" points="167.34,-45.55 160.95,-54 171.21,-51.38 167.34,-45.55"/>
</a>
</g>
</g>
</g>
</svg>
