<?xml version="1.0" encoding="UTF-8" standalone="no"?>
<!DOCTYPE svg PUBLIC "-//W3C//DTD SVG 1.1//EN"
 "http://www.w3.org/Graphics/SVG/1.1/DTD/svg11.dtd">
<!-- Generated by graphviz version 9.0.0 (20230911.1827)
 -->
<!-- Title: compute_pipeline.hpp Pages: 1 -->
<svg width="179pt" height="193pt"
 viewBox="0.00 0.00 178.50 193.00" xmlns="http://www.w3.org/2000/svg" xmlns:xlink="http://www.w3.org/1999/xlink">
<g id="graph0" class="graph" transform="scale(1 1) rotate(0) translate(4 189)">
<title>compute_pipeline.hpp</title>
<!-- Node1 -->
<g id="Node000001" class="node">
<title>Node1</title>
<g id="a_Node000001"><a xlink:title=" ">
<polygon fill="#999999" stroke="#666666" points="140.5,-185 30,-185 30,-165.75 140.5,-165.75 140.5,-185"/>
<text text-anchor="middle" x="85.25" y="-171.5" font-family="Helvetica,sans-Serif" font-size="10.00">compute_pipeline.hpp</text>
</a>
</g>
</g>
<!-- Node2 -->
<g id="Node000002" class="node">
<title>Node2</title>
<g id="a_Node000002"><a xlink:href="shader__module_8hpp.html" target="_top" xlink:title=" ">
<polygon fill="white" stroke="#666666" points="167.88,-129.75 2.62,-129.75 2.62,-110.5 167.88,-110.5 167.88,-129.75"/>
<text text-anchor="middle" x="85.25" y="-116.25" font-family="Helvetica,sans-Serif" font-size="10.00">liger/render/rhi/shader_module.hpp</text>
</a>
</g>
</g>
<!-- Node1&#45;&gt;Node2 -->
<g id="edge1_Node000001_Node000002" class="edge">
<title>Node1&#45;&gt;Node2</title>
<g id="a_edge1_Node000001_Node000002"><a xlink:title=" ">
<path fill="none" stroke="#63b8ff" d="M85.25,-165.58C85.25,-159.07 85.25,-149.92 85.25,-141.62"/>
<polygon fill="#63b8ff" stroke="#63b8ff" points="88.75,-141.62 85.25,-131.62 81.75,-141.62 88.75,-141.62"/>
</a>
</g>
</g>
<!-- Node3 -->
<g id="Node000003" class="node">
<title>Node3</title>
<g id="a_Node000003"><a xlink:href="device__resource_8hpp.html" target="_top" xlink:title=" ">
<polygon fill="white" stroke="#666666" points="170.5,-74.5 0,-74.5 0,-55.25 170.5,-55.25 170.5,-74.5"/>
<text text-anchor="middle" x="85.25" y="-61" font-family="Helvetica,sans-Serif" font-size="10.00">liger/render/rhi/device_resource.hpp</text>
</a>
</g>
</g>
<!-- Node2&#45;&gt;Node3 -->
<g id="edge2_Node000002_Node000003" class="edge">
<title>Node2&#45;&gt;Node3</title>
<g id="a_edge2_Node000002_Node000003"><a xlink:title=" ">
<path fill="none" stroke="#63b8ff" d="M85.25,-110.33C85.25,-103.82 85.25,-94.67 85.25,-86.37"/>
<polygon fill="#63b8ff" stroke="#63b8ff" points="88.75,-86.37 85.25,-76.37 81.75,-86.37 88.75,-86.37"/>
</a>
</g>
</g>
<!-- Node4 -->
<g id="Node000004" class="node">
<title>Node4</title>
<g id="a_Node000004"><a xlink:title=" ">
<polygon fill="#e0e0e0" stroke="#999999" points="133.38,-19.25 37.12,-19.25 37.12,0 133.38,0 133.38,-19.25"/>
<text text-anchor="middle" x="85.25" y="-5.75" font-family="Helvetica,sans-Serif" font-size="10.00">liger/core/core.hpp</text>
</a>
</g>
</g>
<!-- Node3&#45;&gt;Node4 -->
<g id="edge3_Node000003_Node000004" class="edge">
<title>Node3&#45;&gt;Node4</title>
<g id="a_edge3_Node000003_Node000004"><a xlink:title=" ">
<path fill="none" stroke="#63b8ff" d="M85.25,-55.08C85.25,-48.57 85.25,-39.42 85.25,-31.12"/>
<polygon fill="#63b8ff" stroke="#63b8ff" points="88.75,-31.12 85.25,-21.12 81.75,-31.12 88.75,-31.12"/>
</a>
</g>
</g>
</g>
</svg>
