<?xml version="1.0" encoding="UTF-8" standalone="no"?>
<!DOCTYPE svg PUBLIC "-//W3C//DTD SVG 1.1//EN"
 "http://www.w3.org/Graphics/SVG/1.1/DTD/svg11.dtd">
<!-- Generated by graphviz version 9.0.0 (20230911.1827)
 -->
<!-- Title: compute_pipeline.hpp Pages: 1 -->
<svg width="358pt" height="248pt"
 viewBox="0.00 0.00 358.00 248.25" xmlns="http://www.w3.org/2000/svg" xmlns:xlink="http://www.w3.org/1999/xlink">
<g id="graph0" class="graph" transform="scale(1 1) rotate(0) translate(4 244.25)">
<title>compute_pipeline.hpp</title>
<!-- Node1 -->
<g id="Node000001" class="node">
<title>Node1</title>
<g id="a_Node000001"><a xlink:title=" ">
<polygon fill="#999999" stroke="#666666" points="251.62,-240.25 141.12,-240.25 141.12,-221 251.62,-221 251.62,-240.25"/>
<text text-anchor="middle" x="196.38" y="-226.75" font-family="Helvetica,sans-Serif" font-size="10.00">compute_pipeline.hpp</text>
</a>
</g>
</g>
<!-- Node2 -->
<g id="Node000002" class="node">
<title>Node2</title>
<g id="a_Node000002"><a xlink:href="first__draft_2command__buffer_8hpp.html" target="_top" xlink:title=" ">
<polygon fill="white" stroke="#666666" points="106.75,-185 0,-185 0,-165.75 106.75,-165.75 106.75,-185"/>
<text text-anchor="middle" x="53.38" y="-171.5" font-family="Helvetica,sans-Serif" font-size="10.00">command_buffer.hpp</text>
</a>
</g>
</g>
<!-- Node1&#45;&gt;Node2 -->
<g id="edge1_Node000001_Node000002" class="edge">
<title>Node1&#45;&gt;Node2</title>
<g id="a_edge1_Node000001_Node000002"><a xlink:title=" ">
<path fill="none" stroke="#63b8ff" d="M161.59,-216.67C135.63,-207 100.8,-194.04 77.75,-185.45"/>
<polygon fill="#63b8ff" stroke="#63b8ff" points="160.11,-219.85 170.7,-220.06 162.55,-213.29 160.11,-219.85"/>
</a>
</g>
</g>
<!-- Node3 -->
<g id="Node000003" class="node">
<title>Node3</title>
<g id="a_Node000003"><a xlink:href="deprecated_2device_8hpp_source.html" target="_top" xlink:title=" ">
<polygon fill="white" stroke="#666666" points="188,-185 124.75,-185 124.75,-165.75 188,-165.75 188,-185"/>
<text text-anchor="middle" x="156.38" y="-171.5" font-family="Helvetica,sans-Serif" font-size="10.00">device.hpp</text>
</a>
</g>
</g>
<!-- Node1&#45;&gt;Node3 -->
<g id="edge2_Node000001_Node000003" class="edge">
<title>Node1&#45;&gt;Node3</title>
<g id="a_edge2_Node000001_Node000003"><a xlink:title=" ">
<path fill="none" stroke="#63b8ff" d="M182.9,-211.69C176.25,-202.84 168.52,-192.54 163.12,-185.36"/>
<polygon fill="#63b8ff" stroke="#63b8ff" points="180.06,-213.73 188.86,-219.62 185.65,-209.52 180.06,-213.73"/>
</a>
</g>
</g>
<!-- Node4 -->
<g id="Node000004" class="node">
<title>Node4</title>
<g id="a_Node000004"><a xlink:href="device_8hpp.html" target="_top" xlink:title=" ">
<polygon fill="white" stroke="#666666" points="269,-185 205.75,-185 205.75,-165.75 269,-165.75 269,-185"/>
<text text-anchor="middle" x="237.38" y="-171.5" font-family="Helvetica,sans-Serif" font-size="10.00">device.hpp</text>
</a>
</g>
</g>
<!-- Node1&#45;&gt;Node4 -->
<g id="edge3_Node000001_Node000004" class="edge">
<title>Node1&#45;&gt;Node4</title>
<g id="a_edge3_Node000001_Node000004"><a xlink:title=" ">
<path fill="none" stroke="#63b8ff" d="M209.96,-211.97C216.83,-203.06 224.87,-192.62 230.46,-185.36"/>
<polygon fill="#63b8ff" stroke="#63b8ff" points="207.4,-209.57 204.07,-219.63 212.94,-213.84 207.4,-209.57"/>
</a>
</g>
</g>
<!-- Node9 -->
<g id="Node000009" class="node">
<title>Node9</title>
<g id="a_Node000009"><a xlink:href="first__draft_2device_8hpp_source.html" target="_top" xlink:title=" ">
<polygon fill="white" stroke="#666666" points="350,-185 286.75,-185 286.75,-165.75 350,-165.75 350,-185"/>
<text text-anchor="middle" x="318.38" y="-171.5" font-family="Helvetica,sans-Serif" font-size="10.00">device.hpp</text>
</a>
</g>
</g>
<!-- Node1&#45;&gt;Node9 -->
<g id="edge9_Node000001_Node000009" class="edge">
<title>Node1&#45;&gt;Node9</title>
<g id="a_edge9_Node000001_Node000009"><a xlink:title=" ">
<path fill="none" stroke="#63b8ff" d="M227.54,-216.02C249.52,-206.43 278.35,-193.84 297.58,-185.45"/>
<polygon fill="#63b8ff" stroke="#63b8ff" points="226.22,-212.78 218.46,-219.99 229.02,-219.19 226.22,-212.78"/>
</a>
</g>
</g>
<!-- Node5 -->
<g id="Node000005" class="node">
<title>Node5</title>
<g id="a_Node000005"><a xlink:href="instance_8hpp.html" target="_top" xlink:title=" ">
<polygon fill="white" stroke="#666666" points="235.12,-129.75 163.62,-129.75 163.62,-110.5 235.12,-110.5 235.12,-129.75"/>
<text text-anchor="middle" x="199.38" y="-116.25" font-family="Helvetica,sans-Serif" font-size="10.00">instance.hpp</text>
</a>
</g>
</g>
<!-- Node4&#45;&gt;Node5 -->
<g id="edge4_Node000004_Node000005" class="edge">
<title>Node4&#45;&gt;Node5</title>
<g id="a_edge4_Node000004_Node000005"><a xlink:title=" ">
<path fill="none" stroke="#63b8ff" d="M224.58,-156.44C218.26,-147.59 210.91,-137.29 205.79,-130.11"/>
<polygon fill="#63b8ff" stroke="#63b8ff" points="221.56,-158.24 230.22,-164.35 227.26,-154.18 221.56,-158.24"/>
</a>
</g>
</g>
<!-- Node8 -->
<g id="Node000008" class="node">
<title>Node8</title>
<g id="a_Node000008"><a xlink:href="vulkan__utils_8hpp.html" target="_top" xlink:title=" ">
<polygon fill="white" stroke="#666666" points="331.62,-74.5 245.12,-74.5 245.12,-55.25 331.62,-55.25 331.62,-74.5"/>
<text text-anchor="middle" x="288.38" y="-61" font-family="Helvetica,sans-Serif" font-size="10.00">vulkan_utils.hpp</text>
</a>
</g>
</g>
<!-- Node4&#45;&gt;Node8 -->
<g id="edge7_Node000004_Node000008" class="edge">
<title>Node4&#45;&gt;Node8</title>
<g id="a_edge7_Node000004_Node000008"><a xlink:title=" ">
<path fill="none" stroke="#63b8ff" d="M246.33,-155.33C257.42,-131.72 275.88,-92.46 284.14,-74.88"/>
<polygon fill="#63b8ff" stroke="#63b8ff" points="243.28,-153.59 242.19,-164.13 249.61,-156.57 243.28,-153.59"/>
</a>
</g>
</g>
<!-- Node6 -->
<g id="Node000006" class="node">
<title>Node6</title>
<g id="a_Node000006"><a xlink:href="vulkan__instance_8hpp.html" target="_top" xlink:title=" ">
<polygon fill="white" stroke="#666666" points="227,-74.5 121.75,-74.5 121.75,-55.25 227,-55.25 227,-74.5"/>
<text text-anchor="middle" x="174.38" y="-61" font-family="Helvetica,sans-Serif" font-size="10.00">vulkan_instance.hpp</text>
</a>
</g>
</g>
<!-- Node5&#45;&gt;Node6 -->
<g id="edge5_Node000005_Node000006" class="edge">
<title>Node5&#45;&gt;Node6</title>
<g id="a_edge5_Node000005_Node000006"><a xlink:title=" ">
<path fill="none" stroke="#63b8ff" d="M190.41,-100.04C186.38,-91.46 181.82,-81.73 178.59,-74.86"/>
<polygon fill="#63b8ff" stroke="#63b8ff" points="187.19,-101.4 194.6,-108.96 193.52,-98.42 187.19,-101.4"/>
</a>
</g>
</g>
<!-- Node7 -->
<g id="Node000007" class="node">
<title>Node7</title>
<g id="a_Node000007"><a xlink:href="vulkan__instance_8cpp.html" target="_top" xlink:title=" ">
<polygon fill="white" stroke="#666666" points="284,-19.25 178.75,-19.25 178.75,0 284,0 284,-19.25"/>
<text text-anchor="middle" x="231.38" y="-5.75" font-family="Helvetica,sans-Serif" font-size="10.00">vulkan_instance.cpp</text>
</a>
</g>
</g>
<!-- Node6&#45;&gt;Node7 -->
<g id="edge6_Node000006_Node000007" class="edge">
<title>Node6&#45;&gt;Node7</title>
<g id="a_edge6_Node000006_Node000007"><a xlink:title=" ">
<path fill="none" stroke="#63b8ff" d="M192.32,-47.11C202.11,-37.97 213.82,-27.03 221.85,-19.52"/>
<polygon fill="#63b8ff" stroke="#63b8ff" points="190.07,-44.42 185.15,-53.81 194.85,-49.54 190.07,-44.42"/>
</a>
</g>
</g>
<!-- Node8&#45;&gt;Node7 -->
<g id="edge8_Node000008_Node000007" class="edge">
<title>Node8&#45;&gt;Node7</title>
<g id="a_edge8_Node000008_Node000007"><a xlink:title=" ">
<path fill="none" stroke="#63b8ff" d="M270.43,-47.11C260.64,-37.97 248.93,-27.03 240.9,-19.52"/>
<polygon fill="#63b8ff" stroke="#63b8ff" points="267.9,-49.54 277.6,-53.81 272.68,-44.42 267.9,-49.54"/>
</a>
</g>
</g>
</g>
</svg>
