<?xml version="1.0" encoding="UTF-8" standalone="no"?>
<!DOCTYPE svg PUBLIC "-//W3C//DTD SVG 1.1//EN"
 "http://www.w3.org/Graphics/SVG/1.1/DTD/svg11.dtd">
<!-- Generated by graphviz version 7.1.0 (20230121.1956)
 -->
<!-- Title: console_log_writer.hpp Pages: 1 -->
<svg width="655pt" height="364pt"
 viewBox="0.00 0.00 655.00 364.00" xmlns="http://www.w3.org/2000/svg" xmlns:xlink="http://www.w3.org/1999/xlink">
<g id="graph0" class="graph" transform="scale(1 1) rotate(0) translate(4 360)">
<title>console_log_writer.hpp</title>
<polygon fill="white" stroke="none" points="-4,4 -4,-360 651,-360 651,4 -4,4"/>
<!-- Node1 -->
<g id="node1" class="node">
<title>Node1</title>
<g id="a_node1"><a xlink:title=" ">
<polygon fill="#bfbfbf" stroke="black" points="96,-336.5 96,-355.5 212,-355.5 212,-336.5 96,-336.5"/>
<text text-anchor="middle" x="154" y="-343.5" font-family="Helvetica,sans-Serif" font-size="10.00">console_log_writer.hpp</text>
</a>
</g>
</g>
<!-- Node2 -->
<g id="node2" class="node">
<title>Node2</title>
<g id="a_node2"><a xlink:title=" ">
<polygon fill="white" stroke="#bfbfbf" points="0,-280.5 0,-299.5 62,-299.5 62,-280.5 0,-280.5"/>
<text text-anchor="middle" x="31" y="-287.5" font-family="Helvetica,sans-Serif" font-size="10.00">fmt/color.h</text>
</a>
</g>
</g>
<!-- Node1&#45;&gt;Node2 -->
<g id="edge1" class="edge">
<title>Node1&#45;&gt;Node2</title>
<path fill="none" stroke="midnightblue" d="M134.78,-336.56C114.83,-327.8 83.38,-314 60.33,-303.88"/>
<polygon fill="midnightblue" stroke="midnightblue" points="62.03,-300.8 51.47,-299.99 59.22,-307.21 62.03,-300.8"/>
</g>
<!-- Node3 -->
<g id="node3" class="node">
<title>Node3</title>
<g id="a_node3"><a xlink:title=" ">
<polygon fill="white" stroke="#bfbfbf" points="80.5,-280.5 80.5,-299.5 141.5,-299.5 141.5,-280.5 80.5,-280.5"/>
<text text-anchor="middle" x="111" y="-287.5" font-family="Helvetica,sans-Serif" font-size="10.00">fmt/core.h</text>
</a>
</g>
</g>
<!-- Node1&#45;&gt;Node3 -->
<g id="edge2" class="edge">
<title>Node1&#45;&gt;Node3</title>
<path fill="none" stroke="midnightblue" d="M147.28,-336.56C141.25,-328.99 132.21,-317.64 124.67,-308.16"/>
<polygon fill="midnightblue" stroke="midnightblue" points="127.44,-306.03 118.47,-300.39 121.96,-310.39 127.44,-306.03"/>
</g>
<!-- Node4 -->
<g id="node4" class="node">
<title>Node4</title>
<g id="a_node4"><a xlink:title=" ">
<polygon fill="white" stroke="#bfbfbf" points="159.5,-280.5 159.5,-299.5 236.5,-299.5 236.5,-280.5 159.5,-280.5"/>
<text text-anchor="middle" x="198" y="-287.5" font-family="Helvetica,sans-Serif" font-size="10.00">fmt/ostream.h</text>
</a>
</g>
</g>
<!-- Node1&#45;&gt;Node4 -->
<g id="edge3" class="edge">
<title>Node1&#45;&gt;Node4</title>
<path fill="none" stroke="midnightblue" d="M160.88,-336.56C167.11,-328.91 176.49,-317.4 184.26,-307.86"/>
<polygon fill="midnightblue" stroke="midnightblue" points="186.76,-310.34 190.36,-300.37 181.33,-305.92 186.76,-310.34"/>
</g>
<!-- Node5 -->
<g id="node5" class="node">
<title>Node5</title>
<g id="a_node5"><a xlink:href="log__writer_8hpp.html" target="_top" xlink:title=" ">
<polygon fill="white" stroke="black" points="254.5,-280.5 254.5,-299.5 389.5,-299.5 389.5,-280.5 254.5,-280.5"/>
<text text-anchor="middle" x="322" y="-287.5" font-family="Helvetica,sans-Serif" font-size="10.00">liger/core/log/log_writer.hpp</text>
</a>
</g>
</g>
<!-- Node1&#45;&gt;Node5 -->
<g id="edge4" class="edge">
<title>Node1&#45;&gt;Node5</title>
<path fill="none" stroke="midnightblue" d="M180.25,-336.56C208.4,-327.51 253.32,-313.08 285.04,-302.88"/>
<polygon fill="midnightblue" stroke="midnightblue" points="285.77,-306.32 294.22,-299.93 283.63,-299.66 285.77,-306.32"/>
</g>
<!-- Node6 -->
<g id="node6" class="node">
<title>Node6</title>
<g id="a_node6"><a xlink:href="log__message_8hpp.html" target="_top" xlink:title=" ">
<polygon fill="white" stroke="black" points="246,-224.5 246,-243.5 398,-243.5 398,-224.5 246,-224.5"/>
<text text-anchor="middle" x="322" y="-231.5" font-family="Helvetica,sans-Serif" font-size="10.00">liger/core/log/log_message.hpp</text>
</a>
</g>
</g>
<!-- Node5&#45;&gt;Node6 -->
<g id="edge5" class="edge">
<title>Node5&#45;&gt;Node6</title>
<path fill="none" stroke="midnightblue" d="M322,-280.56C322,-273.63 322,-263.52 322,-254.59"/>
<polygon fill="midnightblue" stroke="midnightblue" points="325.5,-254.71 322,-244.71 318.5,-254.72 325.5,-254.71"/>
</g>
<!-- Node7 -->
<g id="node7" class="node">
<title>Node7</title>
<g id="a_node7"><a xlink:href="log__level_8hpp.html" target="_top" xlink:title=" ">
<polygon fill="white" stroke="black" points="209,-168.5 209,-187.5 341,-187.5 341,-168.5 209,-168.5"/>
<text text-anchor="middle" x="275" y="-175.5" font-family="Helvetica,sans-Serif" font-size="10.00">liger/core/log/log_level.hpp</text>
</a>
</g>
</g>
<!-- Node6&#45;&gt;Node7 -->
<g id="edge6" class="edge">
<title>Node6&#45;&gt;Node7</title>
<path fill="none" stroke="midnightblue" d="M314.66,-224.56C308,-216.91 297.98,-205.4 289.68,-195.86"/>
<polygon fill="midnightblue" stroke="midnightblue" points="292.34,-193.59 283.13,-188.34 287.06,-198.18 292.34,-193.59"/>
</g>
<!-- Node9 -->
<g id="node9" class="node">
<title>Node9</title>
<g id="a_node9"><a xlink:href="types_8hpp.html" target="_top" xlink:title=" ">
<polygon fill="white" stroke="black" points="271,-56.5 271,-75.5 373,-75.5 373,-56.5 271,-56.5"/>
<text text-anchor="middle" x="322" y="-63.5" font-family="Helvetica,sans-Serif" font-size="10.00">liger/core/types.hpp</text>
</a>
</g>
</g>
<!-- Node6&#45;&gt;Node9 -->
<g id="edge18" class="edge">
<title>Node6&#45;&gt;Node9</title>
<path fill="none" stroke="midnightblue" d="M329.15,-224.73C336.03,-216.19 345.96,-202.16 350,-188 359.28,-155.52 359.28,-144.48 350,-112 347.19,-102.16 341.53,-92.37 336.04,-84.45"/>
<polygon fill="midnightblue" stroke="midnightblue" points="338.86,-82.38 330.06,-76.48 333.26,-86.58 338.86,-82.38"/>
</g>
<!-- Node8 -->
<g id="node8" class="node">
<title>Node8</title>
<g id="a_node8"><a xlink:href="enum__class_8hpp.html" target="_top" xlink:title=" ">
<polygon fill="white" stroke="black" points="209.5,-112.5 209.5,-131.5 340.5,-131.5 340.5,-112.5 209.5,-112.5"/>
<text text-anchor="middle" x="275" y="-119.5" font-family="Helvetica,sans-Serif" font-size="10.00">liger/core/enum_class.hpp</text>
</a>
</g>
</g>
<!-- Node7&#45;&gt;Node8 -->
<g id="edge7" class="edge">
<title>Node7&#45;&gt;Node8</title>
<path fill="none" stroke="midnightblue" d="M275,-168.56C275,-161.63 275,-151.52 275,-142.59"/>
<polygon fill="midnightblue" stroke="midnightblue" points="278.5,-142.71 275,-132.71 271.5,-142.72 278.5,-142.71"/>
</g>
<!-- Node8&#45;&gt;Node9 -->
<g id="edge8" class="edge">
<title>Node8&#45;&gt;Node9</title>
<path fill="none" stroke="midnightblue" d="M282.34,-112.56C289,-104.91 299.02,-93.4 307.32,-83.86"/>
<polygon fill="midnightblue" stroke="midnightblue" points="309.94,-86.18 313.87,-76.34 304.66,-81.59 309.94,-86.18"/>
</g>
<!-- Node10 -->
<g id="node10" class="node">
<title>Node10</title>
<g id="a_node10"><a xlink:title=" ">
<polygon fill="white" stroke="#bfbfbf" points="44,-0.5 44,-19.5 90,-19.5 90,-0.5 44,-0.5"/>
<text text-anchor="middle" x="67" y="-7.5" font-family="Helvetica,sans-Serif" font-size="10.00">cstdint</text>
</a>
</g>
</g>
<!-- Node9&#45;&gt;Node10 -->
<g id="edge9" class="edge">
<title>Node9&#45;&gt;Node10</title>
<path fill="none" stroke="midnightblue" d="M274.79,-56.54C231.88,-48.61 166.62,-35.96 100.68,-20.25"/>
<polygon fill="midnightblue" stroke="midnightblue" points="101.68,-16.89 91.14,-17.96 100.05,-23.7 101.68,-16.89"/>
</g>
<!-- Node11 -->
<g id="node11" class="node">
<title>Node11</title>
<g id="a_node11"><a xlink:title=" ">
<polygon fill="white" stroke="#bfbfbf" points="108,-0.5 108,-19.5 158,-19.5 158,-0.5 108,-0.5"/>
<text text-anchor="middle" x="133" y="-7.5" font-family="Helvetica,sans-Serif" font-size="10.00">fstream</text>
</a>
</g>
</g>
<!-- Node9&#45;&gt;Node11 -->
<g id="edge10" class="edge">
<title>Node9&#45;&gt;Node11</title>
<path fill="none" stroke="midnightblue" d="M292.47,-56.56C259.02,-47.01 204.54,-31.44 168.73,-21.21"/>
<polygon fill="midnightblue" stroke="midnightblue" points="169.84,-17.89 159.26,-18.5 167.91,-24.62 169.84,-17.89"/>
</g>
<!-- Node12 -->
<g id="node12" class="node">
<title>Node12</title>
<g id="a_node12"><a xlink:title=" ">
<polygon fill="white" stroke="#bfbfbf" points="176,-0.5 176,-19.5 230,-19.5 230,-0.5 176,-0.5"/>
<text text-anchor="middle" x="203" y="-7.5" font-family="Helvetica,sans-Serif" font-size="10.00">iostream</text>
</a>
</g>
</g>
<!-- Node9&#45;&gt;Node12 -->
<g id="edge11" class="edge">
<title>Node9&#45;&gt;Node12</title>
<path fill="none" stroke="midnightblue" d="M303.41,-56.56C284.19,-47.84 253.95,-34.12 231.68,-24.01"/>
<polygon fill="midnightblue" stroke="midnightblue" points="233.39,-20.95 222.84,-20 230.5,-27.32 233.39,-20.95"/>
</g>
<!-- Node13 -->
<g id="node13" class="node">
<title>Node13</title>
<g id="a_node13"><a xlink:title=" ">
<polygon fill="white" stroke="#bfbfbf" points="248.5,-0.5 248.5,-19.5 283.5,-19.5 283.5,-0.5 248.5,-0.5"/>
<text text-anchor="middle" x="266" y="-7.5" font-family="Helvetica,sans-Serif" font-size="10.00">map</text>
</a>
</g>
</g>
<!-- Node9&#45;&gt;Node13 -->
<g id="edge12" class="edge">
<title>Node9&#45;&gt;Node13</title>
<path fill="none" stroke="midnightblue" d="M313.25,-56.56C305.07,-48.67 292.63,-36.68 282.57,-26.98"/>
<polygon fill="midnightblue" stroke="midnightblue" points="285.22,-24.67 275.59,-20.25 280.36,-29.71 285.22,-24.67"/>
</g>
<!-- Node14 -->
<g id="node14" class="node">
<title>Node14</title>
<g id="a_node14"><a xlink:title=" ">
<polygon fill="white" stroke="#bfbfbf" points="301.5,-0.5 301.5,-19.5 342.5,-19.5 342.5,-0.5 301.5,-0.5"/>
<text text-anchor="middle" x="322" y="-7.5" font-family="Helvetica,sans-Serif" font-size="10.00">string</text>
</a>
</g>
</g>
<!-- Node9&#45;&gt;Node14 -->
<g id="edge13" class="edge">
<title>Node9&#45;&gt;Node14</title>
<path fill="none" stroke="midnightblue" d="M322,-56.56C322,-49.63 322,-39.52 322,-30.59"/>
<polygon fill="midnightblue" stroke="midnightblue" points="325.5,-30.71 322,-20.71 318.5,-30.72 325.5,-30.71"/>
</g>
<!-- Node15 -->
<g id="node15" class="node">
<title>Node15</title>
<g id="a_node15"><a xlink:title=" ">
<polygon fill="white" stroke="#bfbfbf" points="361,-0.5 361,-19.5 427,-19.5 427,-0.5 361,-0.5"/>
<text text-anchor="middle" x="394" y="-7.5" font-family="Helvetica,sans-Serif" font-size="10.00">string_view</text>
</a>
</g>
</g>
<!-- Node9&#45;&gt;Node15 -->
<g id="edge14" class="edge">
<title>Node9&#45;&gt;Node15</title>
<path fill="none" stroke="midnightblue" d="M333.25,-56.56C344.09,-48.43 360.74,-35.95 373.87,-26.1"/>
<polygon fill="midnightblue" stroke="midnightblue" points="375.95,-28.91 381.85,-20.11 371.75,-23.31 375.95,-28.91"/>
</g>
<!-- Node16 -->
<g id="node16" class="node">
<title>Node16</title>
<g id="a_node16"><a xlink:title=" ">
<polygon fill="white" stroke="#bfbfbf" points="445,-0.5 445,-19.5 507,-19.5 507,-0.5 445,-0.5"/>
<text text-anchor="middle" x="476" y="-7.5" font-family="Helvetica,sans-Serif" font-size="10.00">type_traits</text>
</a>
</g>
</g>
<!-- Node9&#45;&gt;Node16 -->
<g id="edge15" class="edge">
<title>Node9&#45;&gt;Node16</title>
<path fill="none" stroke="midnightblue" d="M346.06,-56.56C371.64,-47.59 412.33,-33.33 441.35,-23.15"/>
<polygon fill="midnightblue" stroke="midnightblue" points="442.15,-26.58 450.42,-19.97 439.83,-19.97 442.15,-26.58"/>
</g>
<!-- Node17 -->
<g id="node17" class="node">
<title>Node17</title>
<g id="a_node17"><a xlink:title=" ">
<polygon fill="white" stroke="#bfbfbf" points="525.5,-0.5 525.5,-19.5 584.5,-19.5 584.5,-0.5 525.5,-0.5"/>
<text text-anchor="middle" x="555" y="-7.5" font-family="Helvetica,sans-Serif" font-size="10.00">typeindex</text>
</a>
</g>
</g>
<!-- Node9&#45;&gt;Node17 -->
<g id="edge16" class="edge">
<title>Node9&#45;&gt;Node17</title>
<path fill="none" stroke="midnightblue" d="M358.66,-56.5C401.01,-46.69 470.49,-30.59 514.43,-20.4"/>
<polygon fill="midnightblue" stroke="midnightblue" points="515.13,-23.83 524.09,-18.16 513.55,-17.01 515.13,-23.83"/>
</g>
<!-- Node18 -->
<g id="node18" class="node">
<title>Node18</title>
<g id="a_node18"><a xlink:title=" ">
<polygon fill="white" stroke="#bfbfbf" points="603,-0.5 603,-19.5 647,-19.5 647,-0.5 603,-0.5"/>
<text text-anchor="middle" x="625" y="-7.5" font-family="Helvetica,sans-Serif" font-size="10.00">vector</text>
</a>
</g>
</g>
<!-- Node9&#45;&gt;Node18 -->
<g id="edge17" class="edge">
<title>Node9&#45;&gt;Node18</title>
<path fill="none" stroke="midnightblue" d="M372.98,-58.41C425.54,-51.2 510.03,-38.48 592.04,-20.21"/>
<polygon fill="midnightblue" stroke="midnightblue" points="592.61,-23.67 601.59,-18.05 591.07,-16.84 592.61,-23.67"/>
</g>
</g>
</svg>
