<?xml version="1.0" encoding="UTF-8" standalone="no"?>
<!DOCTYPE svg PUBLIC "-//W3C//DTD SVG 1.1//EN"
 "http://www.w3.org/Graphics/SVG/1.1/DTD/svg11.dtd">
<!-- Generated by graphviz version 7.1.0 (20230121.1956)
 -->
<!-- Title: console_log_writer.cpp Pages: 1 -->
<svg width="781pt" height="420pt"
 viewBox="0.00 0.00 780.50 420.00" xmlns="http://www.w3.org/2000/svg" xmlns:xlink="http://www.w3.org/1999/xlink">
<g id="graph0" class="graph" transform="scale(1 1) rotate(0) translate(4 416)">
<title>console_log_writer.cpp</title>
<polygon fill="white" stroke="none" points="-4,4 -4,-416 776.5,-416 776.5,4 -4,4"/>
<!-- Node1 -->
<g id="node1" class="node">
<title>Node1</title>
<g id="a_node1"><a xlink:title=" ">
<polygon fill="#bfbfbf" stroke="black" points="360.5,-392.5 360.5,-411.5 476.5,-411.5 476.5,-392.5 360.5,-392.5"/>
<text text-anchor="middle" x="418.5" y="-399.5" font-family="Helvetica,sans-Serif" font-size="10.00">console_log_writer.cpp</text>
</a>
</g>
</g>
<!-- Node2 -->
<g id="node2" class="node">
<title>Node2</title>
<g id="a_node2"><a xlink:href="console__log__writer_8hpp.html" target="_top" xlink:title=" ">
<polygon fill="white" stroke="black" points="192.5,-336.5 192.5,-355.5 366.5,-355.5 366.5,-336.5 192.5,-336.5"/>
<text text-anchor="middle" x="279.5" y="-343.5" font-family="Helvetica,sans-Serif" font-size="10.00">liger/core/log/console_log_writer.hpp</text>
</a>
</g>
</g>
<!-- Node1&#45;&gt;Node2 -->
<g id="edge1" class="edge">
<title>Node1&#45;&gt;Node2</title>
<path fill="none" stroke="midnightblue" d="M396.78,-392.56C373.93,-383.69 337.73,-369.62 311.59,-359.46"/>
<polygon fill="midnightblue" stroke="midnightblue" points="313.07,-356.29 302.48,-355.93 310.53,-362.81 313.07,-356.29"/>
</g>
<!-- Node8 -->
<g id="node8" class="node">
<title>Node8</title>
<g id="a_node8"><a xlink:href="log__level_8hpp.html" target="_top" xlink:title=" ">
<polygon fill="white" stroke="black" points="349.5,-168.5 349.5,-187.5 481.5,-187.5 481.5,-168.5 349.5,-168.5"/>
<text text-anchor="middle" x="415.5" y="-175.5" font-family="Helvetica,sans-Serif" font-size="10.00">liger/core/log/log_level.hpp</text>
</a>
</g>
</g>
<!-- Node1&#45;&gt;Node8 -->
<g id="edge23" class="edge">
<title>Node1&#45;&gt;Node8</title>
<path fill="none" stroke="midnightblue" d="M418.39,-392.57C417.95,-360.49 416.4,-245.54 415.77,-198.89"/>
<polygon fill="midnightblue" stroke="midnightblue" points="419.27,-198.91 415.63,-188.95 412.27,-199 419.27,-198.91"/>
</g>
<!-- Node21 -->
<g id="node21" class="node">
<title>Node21</title>
<g id="a_node21"><a xlink:href="log__channels_8hpp_source.html" target="_top" xlink:title=" ">
<polygon fill="white" stroke="black" points="447,-224.5 447,-243.5 598,-243.5 598,-224.5 447,-224.5"/>
<text text-anchor="middle" x="522.5" y="-231.5" font-family="Helvetica,sans-Serif" font-size="10.00">liger/core/log/log_channels.hpp</text>
</a>
</g>
</g>
<!-- Node1&#45;&gt;Node21 -->
<g id="edge21" class="edge">
<title>Node1&#45;&gt;Node21</title>
<path fill="none" stroke="midnightblue" d="M423.8,-392.54C440.01,-366.67 489.14,-288.25 511.37,-252.77"/>
<polygon fill="midnightblue" stroke="midnightblue" points="514.19,-254.86 516.53,-244.53 508.25,-251.14 514.19,-254.86"/>
</g>
<!-- Node3 -->
<g id="node3" class="node">
<title>Node3</title>
<g id="a_node3"><a xlink:title=" ">
<polygon fill="white" stroke="#bfbfbf" points="248.5,-280.5 248.5,-299.5 310.5,-299.5 310.5,-280.5 248.5,-280.5"/>
<text text-anchor="middle" x="279.5" y="-287.5" font-family="Helvetica,sans-Serif" font-size="10.00">fmt/color.h</text>
</a>
</g>
</g>
<!-- Node2&#45;&gt;Node3 -->
<g id="edge2" class="edge">
<title>Node2&#45;&gt;Node3</title>
<path fill="none" stroke="midnightblue" d="M279.5,-336.56C279.5,-329.63 279.5,-319.52 279.5,-310.59"/>
<polygon fill="midnightblue" stroke="midnightblue" points="283,-310.71 279.5,-300.71 276,-310.72 283,-310.71"/>
</g>
<!-- Node4 -->
<g id="node4" class="node">
<title>Node4</title>
<g id="a_node4"><a xlink:title=" ">
<polygon fill="white" stroke="#bfbfbf" points="329,-280.5 329,-299.5 390,-299.5 390,-280.5 329,-280.5"/>
<text text-anchor="middle" x="359.5" y="-287.5" font-family="Helvetica,sans-Serif" font-size="10.00">fmt/core.h</text>
</a>
</g>
</g>
<!-- Node2&#45;&gt;Node4 -->
<g id="edge3" class="edge">
<title>Node2&#45;&gt;Node4</title>
<path fill="none" stroke="midnightblue" d="M292,-336.56C304.21,-328.32 323.05,-315.6 337.73,-305.7"/>
<polygon fill="midnightblue" stroke="midnightblue" points="339.5,-308.72 345.83,-300.23 335.59,-302.92 339.5,-308.72"/>
</g>
<!-- Node5 -->
<g id="node5" class="node">
<title>Node5</title>
<g id="a_node5"><a xlink:title=" ">
<polygon fill="white" stroke="#bfbfbf" points="0,-280.5 0,-299.5 77,-299.5 77,-280.5 0,-280.5"/>
<text text-anchor="middle" x="38.5" y="-287.5" font-family="Helvetica,sans-Serif" font-size="10.00">fmt/ostream.h</text>
</a>
</g>
</g>
<!-- Node2&#45;&gt;Node5 -->
<g id="edge4" class="edge">
<title>Node2&#45;&gt;Node5</title>
<path fill="none" stroke="midnightblue" d="M241.58,-336.5C199.91,-327.17 132.85,-312.14 87.29,-301.93"/>
<polygon fill="midnightblue" stroke="midnightblue" points="88.2,-298.55 77.68,-299.78 86.67,-305.38 88.2,-298.55"/>
</g>
<!-- Node6 -->
<g id="node6" class="node">
<title>Node6</title>
<g id="a_node6"><a xlink:href="log__writer_8hpp.html" target="_top" xlink:title=" ">
<polygon fill="white" stroke="black" points="95,-280.5 95,-299.5 230,-299.5 230,-280.5 95,-280.5"/>
<text text-anchor="middle" x="162.5" y="-287.5" font-family="Helvetica,sans-Serif" font-size="10.00">liger/core/log/log_writer.hpp</text>
</a>
</g>
</g>
<!-- Node2&#45;&gt;Node6 -->
<g id="edge5" class="edge">
<title>Node2&#45;&gt;Node6</title>
<path fill="none" stroke="midnightblue" d="M261.22,-336.56C242.42,-327.88 212.87,-314.25 190.99,-304.15"/>
<polygon fill="midnightblue" stroke="midnightblue" points="192.57,-301.03 182.03,-300.01 189.64,-307.38 192.57,-301.03"/>
</g>
<!-- Node7 -->
<g id="node7" class="node">
<title>Node7</title>
<g id="a_node7"><a xlink:href="log__message_8hpp.html" target="_top" xlink:title=" ">
<polygon fill="white" stroke="black" points="238.5,-224.5 238.5,-243.5 390.5,-243.5 390.5,-224.5 238.5,-224.5"/>
<text text-anchor="middle" x="314.5" y="-231.5" font-family="Helvetica,sans-Serif" font-size="10.00">liger/core/log/log_message.hpp</text>
</a>
</g>
</g>
<!-- Node6&#45;&gt;Node7 -->
<g id="edge6" class="edge">
<title>Node6&#45;&gt;Node7</title>
<path fill="none" stroke="midnightblue" d="M186.25,-280.56C211.39,-271.63 251.3,-257.45 279.92,-247.28"/>
<polygon fill="midnightblue" stroke="midnightblue" points="280.99,-250.62 289.24,-243.97 278.65,-244.02 280.99,-250.62"/>
</g>
<!-- Node7&#45;&gt;Node8 -->
<g id="edge7" class="edge">
<title>Node7&#45;&gt;Node8</title>
<path fill="none" stroke="midnightblue" d="M330.28,-224.56C346.22,-216.04 371.09,-202.74 389.86,-192.71"/>
<polygon fill="midnightblue" stroke="midnightblue" points="391.33,-195.89 398.49,-188.09 388.03,-189.72 391.33,-195.89"/>
</g>
<!-- Node10 -->
<g id="node10" class="node">
<title>Node10</title>
<g id="a_node10"><a xlink:href="types_8hpp.html" target="_top" xlink:title=" ">
<polygon fill="white" stroke="black" points="364.5,-56.5 364.5,-75.5 466.5,-75.5 466.5,-56.5 364.5,-56.5"/>
<text text-anchor="middle" x="415.5" y="-63.5" font-family="Helvetica,sans-Serif" font-size="10.00">liger/core/types.hpp</text>
</a>
</g>
</g>
<!-- Node7&#45;&gt;Node10 -->
<g id="edge20" class="edge">
<title>Node7&#45;&gt;Node10</title>
<path fill="none" stroke="midnightblue" d="M314.13,-224.77C313.62,-203.86 314.87,-147.82 340.5,-112 350.6,-97.89 366.62,-87.41 381.27,-80.13"/>
<polygon fill="midnightblue" stroke="midnightblue" points="382.59,-83.38 390.22,-76.02 379.67,-77.02 382.59,-83.38"/>
</g>
<!-- Node9 -->
<g id="node9" class="node">
<title>Node9</title>
<g id="a_node9"><a xlink:href="enum__class_8hpp.html" target="_top" xlink:title=" ">
<polygon fill="white" stroke="black" points="350,-112.5 350,-131.5 481,-131.5 481,-112.5 350,-112.5"/>
<text text-anchor="middle" x="415.5" y="-119.5" font-family="Helvetica,sans-Serif" font-size="10.00">liger/core/enum_class.hpp</text>
</a>
</g>
</g>
<!-- Node8&#45;&gt;Node9 -->
<g id="edge8" class="edge">
<title>Node8&#45;&gt;Node9</title>
<path fill="none" stroke="midnightblue" d="M415.5,-168.56C415.5,-161.63 415.5,-151.52 415.5,-142.59"/>
<polygon fill="midnightblue" stroke="midnightblue" points="419,-142.71 415.5,-132.71 412,-142.72 419,-142.71"/>
</g>
<!-- Node9&#45;&gt;Node10 -->
<g id="edge9" class="edge">
<title>Node9&#45;&gt;Node10</title>
<path fill="none" stroke="midnightblue" d="M415.5,-112.56C415.5,-105.63 415.5,-95.52 415.5,-86.59"/>
<polygon fill="midnightblue" stroke="midnightblue" points="419,-86.71 415.5,-76.71 412,-86.72 419,-86.71"/>
</g>
<!-- Node11 -->
<g id="node11" class="node">
<title>Node11</title>
<g id="a_node11"><a xlink:title=" ">
<polygon fill="white" stroke="#bfbfbf" points="102.5,-0.5 102.5,-19.5 148.5,-19.5 148.5,-0.5 102.5,-0.5"/>
<text text-anchor="middle" x="125.5" y="-7.5" font-family="Helvetica,sans-Serif" font-size="10.00">cstdint</text>
</a>
</g>
</g>
<!-- Node10&#45;&gt;Node11 -->
<g id="edge10" class="edge">
<title>Node10&#45;&gt;Node11</title>
<path fill="none" stroke="midnightblue" d="M364.77,-57.71C314.87,-50.19 236.34,-37.43 159.05,-20.15"/>
<polygon fill="midnightblue" stroke="midnightblue" points="160.16,-16.81 149.63,-18.01 158.61,-23.64 160.16,-16.81"/>
</g>
<!-- Node12 -->
<g id="node12" class="node">
<title>Node12</title>
<g id="a_node12"><a xlink:title=" ">
<polygon fill="white" stroke="#bfbfbf" points="166.5,-0.5 166.5,-19.5 216.5,-19.5 216.5,-0.5 166.5,-0.5"/>
<text text-anchor="middle" x="191.5" y="-7.5" font-family="Helvetica,sans-Serif" font-size="10.00">fstream</text>
</a>
</g>
</g>
<!-- Node10&#45;&gt;Node12 -->
<g id="edge11" class="edge">
<title>Node10&#45;&gt;Node12</title>
<path fill="none" stroke="midnightblue" d="M378.65,-56.57C342.57,-48.26 285.76,-34.99 227.29,-20.4"/>
<polygon fill="midnightblue" stroke="midnightblue" points="228.38,-17.06 217.83,-18.03 226.68,-23.85 228.38,-17.06"/>
</g>
<!-- Node13 -->
<g id="node13" class="node">
<title>Node13</title>
<g id="a_node13"><a xlink:title=" ">
<polygon fill="white" stroke="#bfbfbf" points="234.5,-0.5 234.5,-19.5 288.5,-19.5 288.5,-0.5 234.5,-0.5"/>
<text text-anchor="middle" x="261.5" y="-7.5" font-family="Helvetica,sans-Serif" font-size="10.00">iostream</text>
</a>
</g>
</g>
<!-- Node10&#45;&gt;Node13 -->
<g id="edge12" class="edge">
<title>Node10&#45;&gt;Node13</title>
<path fill="none" stroke="midnightblue" d="M391.44,-56.56C365.86,-47.59 325.17,-33.33 296.15,-23.15"/>
<polygon fill="midnightblue" stroke="midnightblue" points="297.67,-19.97 287.08,-19.97 295.35,-26.58 297.67,-19.97"/>
</g>
<!-- Node14 -->
<g id="node14" class="node">
<title>Node14</title>
<g id="a_node14"><a xlink:title=" ">
<polygon fill="white" stroke="#bfbfbf" points="307,-0.5 307,-19.5 342,-19.5 342,-0.5 307,-0.5"/>
<text text-anchor="middle" x="324.5" y="-7.5" font-family="Helvetica,sans-Serif" font-size="10.00">map</text>
</a>
</g>
</g>
<!-- Node10&#45;&gt;Node14 -->
<g id="edge13" class="edge">
<title>Node10&#45;&gt;Node14</title>
<path fill="none" stroke="midnightblue" d="M401.28,-56.56C387.12,-48.16 365.13,-35.11 348.31,-25.13"/>
<polygon fill="midnightblue" stroke="midnightblue" points="350.31,-22.24 339.92,-20.15 346.73,-28.26 350.31,-22.24"/>
</g>
<!-- Node15 -->
<g id="node15" class="node">
<title>Node15</title>
<g id="a_node15"><a xlink:title=" ">
<polygon fill="white" stroke="#bfbfbf" points="360,-0.5 360,-19.5 409,-19.5 409,-0.5 360,-0.5"/>
<text text-anchor="middle" x="384.5" y="-7.5" font-family="Helvetica,sans-Serif" font-size="10.00">random</text>
</a>
</g>
</g>
<!-- Node10&#45;&gt;Node15 -->
<g id="edge14" class="edge">
<title>Node10&#45;&gt;Node15</title>
<path fill="none" stroke="midnightblue" d="M410.66,-56.56C406.45,-49.23 400.2,-38.35 394.87,-29.07"/>
<polygon fill="midnightblue" stroke="midnightblue" points="397.98,-27.44 389.96,-20.51 391.91,-30.93 397.98,-27.44"/>
</g>
<!-- Node16 -->
<g id="node16" class="node">
<title>Node16</title>
<g id="a_node16"><a xlink:title=" ">
<polygon fill="white" stroke="#bfbfbf" points="427,-0.5 427,-19.5 468,-19.5 468,-0.5 427,-0.5"/>
<text text-anchor="middle" x="447.5" y="-7.5" font-family="Helvetica,sans-Serif" font-size="10.00">string</text>
</a>
</g>
</g>
<!-- Node10&#45;&gt;Node16 -->
<g id="edge15" class="edge">
<title>Node10&#45;&gt;Node16</title>
<path fill="none" stroke="midnightblue" d="M420.5,-56.56C424.85,-49.23 431.29,-38.35 436.79,-29.07"/>
<polygon fill="midnightblue" stroke="midnightblue" points="439.78,-30.89 441.87,-20.5 433.76,-27.32 439.78,-30.89"/>
</g>
<!-- Node17 -->
<g id="node17" class="node">
<title>Node17</title>
<g id="a_node17"><a xlink:title=" ">
<polygon fill="white" stroke="#bfbfbf" points="486.5,-0.5 486.5,-19.5 552.5,-19.5 552.5,-0.5 486.5,-0.5"/>
<text text-anchor="middle" x="519.5" y="-7.5" font-family="Helvetica,sans-Serif" font-size="10.00">string_view</text>
</a>
</g>
</g>
<!-- Node10&#45;&gt;Node17 -->
<g id="edge16" class="edge">
<title>Node10&#45;&gt;Node17</title>
<path fill="none" stroke="midnightblue" d="M431.75,-56.56C448.24,-48 474.01,-34.62 493.37,-24.57"/>
<polygon fill="midnightblue" stroke="midnightblue" points="494.76,-27.79 502.02,-20.08 491.53,-21.58 494.76,-27.79"/>
</g>
<!-- Node18 -->
<g id="node18" class="node">
<title>Node18</title>
<g id="a_node18"><a xlink:title=" ">
<polygon fill="white" stroke="#bfbfbf" points="570.5,-0.5 570.5,-19.5 632.5,-19.5 632.5,-0.5 570.5,-0.5"/>
<text text-anchor="middle" x="601.5" y="-7.5" font-family="Helvetica,sans-Serif" font-size="10.00">type_traits</text>
</a>
</g>
</g>
<!-- Node10&#45;&gt;Node18 -->
<g id="edge17" class="edge">
<title>Node10&#45;&gt;Node18</title>
<path fill="none" stroke="midnightblue" d="M444.56,-56.56C476,-47.44 526.33,-32.82 561.5,-22.61"/>
<polygon fill="midnightblue" stroke="midnightblue" points="562.25,-26.04 570.88,-19.89 560.3,-19.32 562.25,-26.04"/>
</g>
<!-- Node19 -->
<g id="node19" class="node">
<title>Node19</title>
<g id="a_node19"><a xlink:title=" ">
<polygon fill="white" stroke="#bfbfbf" points="651,-0.5 651,-19.5 710,-19.5 710,-0.5 651,-0.5"/>
<text text-anchor="middle" x="680.5" y="-7.5" font-family="Helvetica,sans-Serif" font-size="10.00">typeindex</text>
</a>
</g>
</g>
<!-- Node10&#45;&gt;Node19 -->
<g id="edge18" class="edge">
<title>Node10&#45;&gt;Node19</title>
<path fill="none" stroke="midnightblue" d="M460.18,-56.52C503.51,-48.2 571.39,-34.92 640.1,-20.24"/>
<polygon fill="midnightblue" stroke="midnightblue" points="640.61,-23.72 649.65,-18.19 639.14,-16.87 640.61,-23.72"/>
</g>
<!-- Node20 -->
<g id="node20" class="node">
<title>Node20</title>
<g id="a_node20"><a xlink:title=" ">
<polygon fill="white" stroke="#bfbfbf" points="728.5,-0.5 728.5,-19.5 772.5,-19.5 772.5,-0.5 728.5,-0.5"/>
<text text-anchor="middle" x="750.5" y="-7.5" font-family="Helvetica,sans-Serif" font-size="10.00">vector</text>
</a>
</g>
</g>
<!-- Node10&#45;&gt;Node20 -->
<g id="edge19" class="edge">
<title>Node10&#45;&gt;Node20</title>
<path fill="none" stroke="midnightblue" d="M466.44,-59.6C524.83,-52.94 623.53,-40.23 717.45,-20.18"/>
<polygon fill="midnightblue" stroke="midnightblue" points="718.07,-23.63 727.1,-18.08 716.58,-16.79 718.07,-23.63"/>
</g>
<!-- Node21&#45;&gt;Node10 -->
<g id="edge22" class="edge">
<title>Node21&#45;&gt;Node10</title>
<path fill="none" stroke="midnightblue" d="M522.29,-224.75C521.36,-203.8 516.35,-147.66 489.5,-112 479.02,-98.08 462.87,-87.54 448.32,-80.18"/>
<polygon fill="midnightblue" stroke="midnightblue" points="450.03,-77.11 439.49,-76.02 447.04,-83.44 450.03,-77.11"/>
</g>
</g>
</svg>
