<?xml version="1.0" encoding="UTF-8" standalone="no"?>
<!DOCTYPE svg PUBLIC "-//W3C//DTD SVG 1.1//EN"
 "http://www.w3.org/Graphics/SVG/1.1/DTD/svg11.dtd">
<!-- Generated by graphviz version 9.0.0 (20230911.1827)
 -->
<!-- Title: console_log_writer.hpp Pages: 1 -->
<svg width="404pt" height="193pt"
 viewBox="0.00 0.00 404.38 193.00" xmlns="http://www.w3.org/2000/svg" xmlns:xlink="http://www.w3.org/1999/xlink">
<g id="graph0" class="graph" transform="scale(1 1) rotate(0) translate(4 189)">
<title>console_log_writer.hpp</title>
<!-- Node1 -->
<g id="Node000001" class="node">
<title>Node1</title>
<g id="a_Node000001"><a xlink:title=" ">
<polygon fill="#999999" stroke="#666666" points="210.38,-185 95.38,-185 95.38,-165.75 210.38,-165.75 210.38,-185"/>
<text text-anchor="middle" x="152.88" y="-171.5" font-family="Helvetica,sans-Serif" font-size="10.00">console_log_writer.hpp</text>
</a>
</g>
</g>
<!-- Node2 -->
<g id="Node000002" class="node">
<title>Node2</title>
<g id="a_Node000002"><a xlink:title=" ">
<polygon fill="#e0e0e0" stroke="#999999" points="61.75,-129.75 0,-129.75 0,-110.5 61.75,-110.5 61.75,-129.75"/>
<text text-anchor="middle" x="30.88" y="-116.25" font-family="Helvetica,sans-Serif" font-size="10.00">fmt/color.h</text>
</a>
</g>
</g>
<!-- Node1&#45;&gt;Node2 -->
<g id="edge1_Node000001_Node000002" class="edge">
<title>Node1&#45;&gt;Node2</title>
<g id="a_edge1_Node000001_Node000002"><a xlink:title=" ">
<path fill="none" stroke="#63b8ff" d="M132.18,-165.34C112.99,-156.97 84.16,-144.38 62.16,-134.78"/>
<polygon fill="#63b8ff" stroke="#63b8ff" points="63.62,-131.6 53.06,-130.81 60.82,-138.02 63.62,-131.6"/>
</a>
</g>
</g>
<!-- Node3 -->
<g id="Node000003" class="node">
<title>Node3</title>
<g id="a_Node000003"><a xlink:title=" ">
<polygon fill="#e0e0e0" stroke="#999999" points="140,-129.75 79.75,-129.75 79.75,-110.5 140,-110.5 140,-129.75"/>
<text text-anchor="middle" x="109.88" y="-116.25" font-family="Helvetica,sans-Serif" font-size="10.00">fmt/core.h</text>
</a>
</g>
</g>
<!-- Node1&#45;&gt;Node3 -->
<g id="edge2_Node000001_Node000003" class="edge">
<title>Node1&#45;&gt;Node3</title>
<g id="a_edge2_Node000001_Node000003"><a xlink:title=" ">
<path fill="none" stroke="#63b8ff" d="M145.77,-165.58C139.96,-158.38 131.54,-147.96 124.32,-139.01"/>
<polygon fill="#63b8ff" stroke="#63b8ff" points="127.09,-136.87 118.08,-131.29 121.64,-141.27 127.09,-136.87"/>
</a>
</g>
</g>
<!-- Node4 -->
<g id="Node000004" class="node">
<title>Node4</title>
<g id="a_Node000004"><a xlink:title=" ">
<polygon fill="#e0e0e0" stroke="#999999" points="235.25,-129.75 158.5,-129.75 158.5,-110.5 235.25,-110.5 235.25,-129.75"/>
<text text-anchor="middle" x="196.88" y="-116.25" font-family="Helvetica,sans-Serif" font-size="10.00">fmt/ostream.h</text>
</a>
</g>
</g>
<!-- Node1&#45;&gt;Node4 -->
<g id="edge3_Node000001_Node000004" class="edge">
<title>Node1&#45;&gt;Node4</title>
<g id="a_edge3_Node000001_Node000004"><a xlink:title=" ">
<path fill="none" stroke="#63b8ff" d="M160.14,-165.58C166.16,-158.3 174.89,-147.73 182.33,-138.73"/>
<polygon fill="#63b8ff" stroke="#63b8ff" points="184.82,-141.21 188.49,-131.28 179.42,-136.76 184.82,-141.21"/>
</a>
</g>
</g>
<!-- Node5 -->
<g id="Node000005" class="node">
<title>Node5</title>
<g id="a_Node000005"><a xlink:href="log__writer_8hpp.html" target="_top" xlink:title=" ">
<polygon fill="white" stroke="#666666" points="388.12,-129.75 253.62,-129.75 253.62,-110.5 388.12,-110.5 388.12,-129.75"/>
<text text-anchor="middle" x="320.88" y="-116.25" font-family="Helvetica,sans-Serif" font-size="10.00">liger/core/log/log_writer.hpp</text>
</a>
</g>
</g>
<!-- Node1&#45;&gt;Node5 -->
<g id="edge4_Node000001_Node000005" class="edge">
<title>Node1&#45;&gt;Node5</title>
<g id="a_edge4_Node000001_Node000005"><a xlink:title=" ">
<path fill="none" stroke="#63b8ff" d="M181.37,-165.34C208.89,-156.62 250.78,-143.34 281.48,-133.61"/>
<polygon fill="#63b8ff" stroke="#63b8ff" points="282.32,-137.02 290.79,-130.66 280.2,-130.34 282.32,-137.02"/>
</a>
</g>
</g>
<!-- Node6 -->
<g id="Node000006" class="node">
<title>Node6</title>
<g id="a_Node000006"><a xlink:href="log__message_8hpp.html" target="_top" xlink:title=" ">
<polygon fill="white" stroke="#666666" points="396.38,-74.5 245.38,-74.5 245.38,-55.25 396.38,-55.25 396.38,-74.5"/>
<text text-anchor="middle" x="320.88" y="-61" font-family="Helvetica,sans-Serif" font-size="10.00">liger/core/log/log_message.hpp</text>
</a>
</g>
</g>
<!-- Node5&#45;&gt;Node6 -->
<g id="edge5_Node000005_Node000006" class="edge">
<title>Node5&#45;&gt;Node6</title>
<g id="a_edge5_Node000005_Node000006"><a xlink:title=" ">
<path fill="none" stroke="#63b8ff" d="M320.88,-110.33C320.88,-103.82 320.88,-94.67 320.88,-86.37"/>
<polygon fill="#63b8ff" stroke="#63b8ff" points="324.38,-86.37 320.88,-76.37 317.38,-86.37 324.38,-86.37"/>
</a>
</g>
</g>
<!-- Node7 -->
<g id="Node000007" class="node">
<title>Node7</title>
<g id="a_Node000007"><a xlink:title=" ">
<polygon fill="#e0e0e0" stroke="#999999" points="371.62,-19.25 270.12,-19.25 270.12,0 371.62,0 371.62,-19.25"/>
<text text-anchor="middle" x="320.88" y="-5.75" font-family="Helvetica,sans-Serif" font-size="10.00">liger/core/types.hpp</text>
</a>
</g>
</g>
<!-- Node6&#45;&gt;Node7 -->
<g id="edge6_Node000006_Node000007" class="edge">
<title>Node6&#45;&gt;Node7</title>
<g id="a_edge6_Node000006_Node000007"><a xlink:title=" ">
<path fill="none" stroke="#63b8ff" d="M320.88,-55.08C320.88,-48.57 320.88,-39.42 320.88,-31.12"/>
<polygon fill="#63b8ff" stroke="#63b8ff" points="324.38,-31.12 320.88,-21.12 317.38,-31.12 324.38,-31.12"/>
</a>
</g>
</g>
</g>
</svg>
