<?xml version="1.0" encoding="UTF-8" standalone="no"?>
<!DOCTYPE svg PUBLIC "-//W3C//DTD SVG 1.1//EN"
 "http://www.w3.org/Graphics/SVG/1.1/DTD/svg11.dtd">
<!-- Generated by graphviz version 7.1.0 (20230121.1956)
 -->
<!-- Title: console_log_writer.cpp Pages: 1 -->
<svg width="812pt" height="412pt"
 viewBox="0.00 0.00 811.50 412.00" xmlns="http://www.w3.org/2000/svg" xmlns:xlink="http://www.w3.org/1999/xlink">
<g id="graph0" class="graph" transform="scale(1 1) rotate(0) translate(4 408)">
<title>console_log_writer.cpp</title>
<!-- Node1 -->
<g id="Node000001" class="node">
<title>Node1</title>
<g id="a_Node000001"><a xlink:title=" ">
<polygon fill="#999999" stroke="#666666" points="476.5,-404 360.5,-404 360.5,-385 476.5,-385 476.5,-404"/>
<text text-anchor="middle" x="418.5" y="-392" font-family="Helvetica,sans-Serif" font-size="10.00">console_log_writer.cpp</text>
</a>
</g>
</g>
<!-- Node2 -->
<g id="Node000002" class="node">
<title>Node2</title>
<g id="a_Node000002"><a xlink:href="console__log__writer_8hpp.html" target="_top" xlink:title=" ">
<polygon fill="white" stroke="#666666" points="366.5,-349 192.5,-349 192.5,-330 366.5,-330 366.5,-349"/>
<text text-anchor="middle" x="279.5" y="-337" font-family="Helvetica,sans-Serif" font-size="10.00">liger/core/log/console_log_writer.hpp</text>
</a>
</g>
</g>
<!-- Node1&#45;&gt;Node2 -->
<g id="edge1_Node000001_Node000002" class="edge">
<title>Node1&#45;&gt;Node2</title>
<g id="a_edge1_Node000001_Node000002"><a xlink:title=" ">
<path fill="none" stroke="#63b8ff" d="M394.92,-384.51C372.52,-375.97 338.6,-363.03 313.32,-353.4"/>
<polygon fill="#63b8ff" stroke="#63b8ff" points="314.74,-350.19 304.15,-349.9 312.24,-356.73 314.74,-350.19"/>
</a>
</g>
</g>
<!-- Node8 -->
<g id="Node000008" class="node">
<title>Node8</title>
<g id="a_Node000008"><a xlink:href="log__level_8hpp.html" target="_top" xlink:title=" ">
<polygon fill="white" stroke="#666666" points="481.5,-184 349.5,-184 349.5,-165 481.5,-165 481.5,-184"/>
<text text-anchor="middle" x="415.5" y="-172" font-family="Helvetica,sans-Serif" font-size="10.00">liger/core/log/log_level.hpp</text>
</a>
</g>
</g>
<!-- Node1&#45;&gt;Node8 -->
<g id="edge24_Node000001_Node000008" class="edge">
<title>Node1&#45;&gt;Node8</title>
<g id="a_edge24_Node000001_Node000008"><a xlink:title=" ">
<path fill="none" stroke="#63b8ff" d="M418.38,-384.68C417.94,-352.57 416.41,-241.33 415.78,-195.49"/>
<polygon fill="#63b8ff" stroke="#63b8ff" points="419.28,-195.65 415.64,-185.7 412.28,-195.75 419.28,-195.65"/>
</a>
</g>
</g>
<!-- Node22 -->
<g id="Node000022" class="node">
<title>Node22</title>
<g id="a_Node000022"><a xlink:href="log__channels_8hpp_source.html" target="_top" xlink:title=" ">
<polygon fill="white" stroke="#666666" points="598,-239 447,-239 447,-220 598,-220 598,-239"/>
<text text-anchor="middle" x="522.5" y="-227" font-family="Helvetica,sans-Serif" font-size="10.00">liger/core/log/log_channels.hpp</text>
</a>
</g>
</g>
<!-- Node1&#45;&gt;Node22 -->
<g id="edge22_Node000001_Node000022" class="edge">
<title>Node1&#45;&gt;Node22</title>
<g id="a_edge22_Node000001_Node000022"><a xlink:title=" ">
<path fill="none" stroke="#63b8ff" d="M424.09,-384.74C440.46,-359.09 488.5,-283.78 510.84,-248.78"/>
<polygon fill="#63b8ff" stroke="#63b8ff" points="513.64,-250.9 516.07,-240.58 507.74,-247.13 513.64,-250.9"/>
</a>
</g>
</g>
<!-- Node3 -->
<g id="Node000003" class="node">
<title>Node3</title>
<g id="a_Node000003"><a xlink:title=" ">
<polygon fill="#e0e0e0" stroke="#999999" points="310.5,-294 248.5,-294 248.5,-275 310.5,-275 310.5,-294"/>
<text text-anchor="middle" x="279.5" y="-282" font-family="Helvetica,sans-Serif" font-size="10.00">fmt/color.h</text>
</a>
</g>
</g>
<!-- Node2&#45;&gt;Node3 -->
<g id="edge2_Node000002_Node000003" class="edge">
<title>Node2&#45;&gt;Node3</title>
<g id="a_edge2_Node000002_Node000003"><a xlink:title=" ">
<path fill="none" stroke="#63b8ff" d="M279.5,-329.75C279.5,-323.27 279.5,-314.16 279.5,-305.9"/>
<polygon fill="#63b8ff" stroke="#63b8ff" points="283,-305.96 279.5,-295.96 276,-305.96 283,-305.96"/>
</a>
</g>
</g>
<!-- Node4 -->
<g id="Node000004" class="node">
<title>Node4</title>
<g id="a_Node000004"><a xlink:title=" ">
<polygon fill="#e0e0e0" stroke="#999999" points="390,-294 329,-294 329,-275 390,-275 390,-294"/>
<text text-anchor="middle" x="359.5" y="-282" font-family="Helvetica,sans-Serif" font-size="10.00">fmt/core.h</text>
</a>
</g>
</g>
<!-- Node2&#45;&gt;Node4 -->
<g id="edge3_Node000002_Node000004" class="edge">
<title>Node2&#45;&gt;Node4</title>
<g id="a_edge3_Node000002_Node000004"><a xlink:title=" ">
<path fill="none" stroke="#63b8ff" d="M293.07,-329.51C304.98,-321.62 322.55,-309.98 336.63,-300.65"/>
<polygon fill="#63b8ff" stroke="#63b8ff" points="338.46,-303.63 344.87,-295.19 334.6,-297.8 338.46,-303.63"/>
</a>
</g>
</g>
<!-- Node5 -->
<g id="Node000005" class="node">
<title>Node5</title>
<g id="a_Node000005"><a xlink:title=" ">
<polygon fill="#e0e0e0" stroke="#999999" points="77,-294 0,-294 0,-275 77,-275 77,-294"/>
<text text-anchor="middle" x="38.5" y="-282" font-family="Helvetica,sans-Serif" font-size="10.00">fmt/ostream.h</text>
</a>
</g>
</g>
<!-- Node2&#45;&gt;Node5 -->
<g id="edge4_Node000002_Node000005" class="edge">
<title>Node2&#45;&gt;Node5</title>
<g id="a_edge4_Node000002_Node000005"><a xlink:title=" ">
<path fill="none" stroke="#63b8ff" d="M238.62,-329.51C197.11,-320.38 132.78,-306.23 88.32,-296.46"/>
<polygon fill="#63b8ff" stroke="#63b8ff" points="89.18,-293.06 78.67,-294.33 87.68,-299.9 89.18,-293.06"/>
</a>
</g>
</g>
<!-- Node6 -->
<g id="Node000006" class="node">
<title>Node6</title>
<g id="a_Node000006"><a xlink:href="log__writer_8hpp.html" target="_top" xlink:title=" ">
<polygon fill="white" stroke="#666666" points="230,-294 95,-294 95,-275 230,-275 230,-294"/>
<text text-anchor="middle" x="162.5" y="-282" font-family="Helvetica,sans-Serif" font-size="10.00">liger/core/log/log_writer.hpp</text>
</a>
</g>
</g>
<!-- Node2&#45;&gt;Node6 -->
<g id="edge5_Node000002_Node000006" class="edge">
<title>Node2&#45;&gt;Node6</title>
<g id="a_edge5_Node000002_Node000006"><a xlink:title=" ">
<path fill="none" stroke="#63b8ff" d="M259.65,-329.51C241.22,-321.16 213.52,-308.61 192.41,-299.05"/>
<polygon fill="#63b8ff" stroke="#63b8ff" points="193.99,-295.92 183.43,-294.98 191.1,-302.3 193.99,-295.92"/>
</a>
</g>
</g>
<!-- Node7 -->
<g id="Node000007" class="node">
<title>Node7</title>
<g id="a_Node000007"><a xlink:href="log__message_8hpp.html" target="_top" xlink:title=" ">
<polygon fill="white" stroke="#666666" points="390.5,-239 238.5,-239 238.5,-220 390.5,-220 390.5,-239"/>
<text text-anchor="middle" x="314.5" y="-227" font-family="Helvetica,sans-Serif" font-size="10.00">liger/core/log/log_message.hpp</text>
</a>
</g>
</g>
<!-- Node6&#45;&gt;Node7 -->
<g id="edge6_Node000006_Node000007" class="edge">
<title>Node6&#45;&gt;Node7</title>
<g id="a_edge6_Node000006_Node000007"><a xlink:title=" ">
<path fill="none" stroke="#63b8ff" d="M188.28,-274.51C212.93,-265.92 250.31,-252.88 278.01,-243.22"/>
<polygon fill="#63b8ff" stroke="#63b8ff" points="279.12,-246.54 287.41,-239.94 276.82,-239.93 279.12,-246.54"/>
</a>
</g>
</g>
<!-- Node7&#45;&gt;Node8 -->
<g id="edge7_Node000007_Node000008" class="edge">
<title>Node7&#45;&gt;Node8</title>
<g id="a_edge7_Node000007_Node000008"><a xlink:title=" ">
<path fill="none" stroke="#63b8ff" d="M331.63,-219.51C347.25,-211.31 370.58,-199.07 388.67,-189.58"/>
<polygon fill="#63b8ff" stroke="#63b8ff" points="390.05,-192.81 397.28,-185.06 386.8,-186.61 390.05,-192.81"/>
</a>
</g>
</g>
<!-- Node10 -->
<g id="Node000010" class="node">
<title>Node10</title>
<g id="a_Node000010"><a xlink:href="types_8hpp.html" target="_top" xlink:title=" ">
<polygon fill="white" stroke="#666666" points="466.5,-74 364.5,-74 364.5,-55 466.5,-55 466.5,-74"/>
<text text-anchor="middle" x="415.5" y="-62" font-family="Helvetica,sans-Serif" font-size="10.00">liger/core/types.hpp</text>
</a>
</g>
</g>
<!-- Node7&#45;&gt;Node10 -->
<g id="edge21_Node000007_Node000010" class="edge">
<title>Node7&#45;&gt;Node10</title>
<g id="a_edge21_Node000007_Node000010"><a xlink:title=" ">
<path fill="none" stroke="#63b8ff" d="M314.16,-219.51C313.8,-198.33 315.58,-144.49 340.5,-110 350.35,-96.37 365.76,-86.19 380.06,-79.04"/>
<polygon fill="#63b8ff" stroke="#63b8ff" points="381.21,-82.36 388.81,-74.99 378.27,-76.01 381.21,-82.36"/>
</a>
</g>
</g>
<!-- Node9 -->
<g id="Node000009" class="node">
<title>Node9</title>
<g id="a_Node000009"><a xlink:href="enum__class_8hpp.html" target="_top" xlink:title=" ">
<polygon fill="white" stroke="#666666" points="481,-129 350,-129 350,-110 481,-110 481,-129"/>
<text text-anchor="middle" x="415.5" y="-117" font-family="Helvetica,sans-Serif" font-size="10.00">liger/core/enum_class.hpp</text>
</a>
</g>
</g>
<!-- Node8&#45;&gt;Node9 -->
<g id="edge8_Node000008_Node000009" class="edge">
<title>Node8&#45;&gt;Node9</title>
<g id="a_edge8_Node000008_Node000009"><a xlink:title=" ">
<path fill="none" stroke="#63b8ff" d="M415.5,-164.75C415.5,-158.27 415.5,-149.16 415.5,-140.9"/>
<polygon fill="#63b8ff" stroke="#63b8ff" points="419,-140.96 415.5,-130.96 412,-140.96 419,-140.96"/>
</a>
</g>
</g>
<!-- Node9&#45;&gt;Node10 -->
<g id="edge9_Node000009_Node000010" class="edge">
<title>Node9&#45;&gt;Node10</title>
<g id="a_edge9_Node000009_Node000010"><a xlink:title=" ">
<path fill="none" stroke="#63b8ff" d="M415.5,-109.75C415.5,-103.27 415.5,-94.16 415.5,-85.9"/>
<polygon fill="#63b8ff" stroke="#63b8ff" points="419,-85.96 415.5,-75.96 412,-85.96 419,-85.96"/>
</a>
</g>
</g>
<!-- Node11 -->
<g id="Node000011" class="node">
<title>Node11</title>
<g id="a_Node000011"><a xlink:title=" ">
<polygon fill="#e0e0e0" stroke="#999999" points="91.5,-19 45.5,-19 45.5,0 91.5,0 91.5,-19"/>
<text text-anchor="middle" x="68.5" y="-7" font-family="Helvetica,sans-Serif" font-size="10.00">cstdint</text>
</a>
</g>
</g>
<!-- Node10&#45;&gt;Node11 -->
<g id="edge10_Node000010_Node000011" class="edge">
<title>Node10&#45;&gt;Node11</title>
<g id="a_edge10_Node000010_Node000011"><a xlink:title=" ">
<path fill="none" stroke="#63b8ff" d="M364.17,-58.15C303.88,-51.45 200.67,-38.67 103.1,-19.31"/>
<polygon fill="#63b8ff" stroke="#63b8ff" points="103.82,-15.89 93.33,-17.34 102.44,-22.75 103.82,-15.89"/>
</a>
</g>
</g>
<!-- Node12 -->
<g id="Node000012" class="node">
<title>Node12</title>
<g id="a_Node000012"><a xlink:title=" ">
<polygon fill="#e0e0e0" stroke="#999999" points="159.5,-19 109.5,-19 109.5,0 159.5,0 159.5,-19"/>
<text text-anchor="middle" x="134.5" y="-7" font-family="Helvetica,sans-Serif" font-size="10.00">fstream</text>
</a>
</g>
</g>
<!-- Node10&#45;&gt;Node12 -->
<g id="edge11_Node000010_Node000012" class="edge">
<title>Node10&#45;&gt;Node12</title>
<g id="a_edge11_Node000010_Node000012"><a xlink:title=" ">
<path fill="none" stroke="#63b8ff" d="M364.21,-55.29C316.57,-47.43 243.39,-34.77 170.87,-19.39"/>
<polygon fill="#63b8ff" stroke="#63b8ff" points="171.7,-15.99 161.19,-17.32 170.23,-22.83 171.7,-15.99"/>
</a>
</g>
</g>
<!-- Node13 -->
<g id="Node000013" class="node">
<title>Node13</title>
<g id="a_Node000013"><a xlink:title=" ">
<polygon fill="#e0e0e0" stroke="#999999" points="247.5,-19 177.5,-19 177.5,0 247.5,0 247.5,-19"/>
<text text-anchor="middle" x="212.5" y="-7" font-family="Helvetica,sans-Serif" font-size="10.00">glm/glm.hpp</text>
</a>
</g>
</g>
<!-- Node10&#45;&gt;Node13 -->
<g id="edge12_Node000010_Node000013" class="edge">
<title>Node10&#45;&gt;Node13</title>
<g id="a_edge12_Node000010_Node000013"><a xlink:title=" ">
<path fill="none" stroke="#63b8ff" d="M381.06,-54.51C347.13,-45.65 295.1,-32.07 257.82,-22.33"/>
<polygon fill="#63b8ff" stroke="#63b8ff" points="258.79,-18.97 248.23,-19.83 257.02,-25.74 258.79,-18.97"/>
</a>
</g>
</g>
<!-- Node14 -->
<g id="Node000014" class="node">
<title>Node14</title>
<g id="a_Node000014"><a xlink:title=" ">
<polygon fill="#e0e0e0" stroke="#999999" points="319.5,-19 265.5,-19 265.5,0 319.5,0 319.5,-19"/>
<text text-anchor="middle" x="292.5" y="-7" font-family="Helvetica,sans-Serif" font-size="10.00">iostream</text>
</a>
</g>
</g>
<!-- Node10&#45;&gt;Node14 -->
<g id="edge13_Node000010_Node000014" class="edge">
<title>Node10&#45;&gt;Node14</title>
<g id="a_edge13_Node000010_Node000014"><a xlink:title=" ">
<path fill="none" stroke="#63b8ff" d="M394.63,-54.51C375.08,-46.08 345.6,-33.38 323.33,-23.79"/>
<polygon fill="#63b8ff" stroke="#63b8ff" points="325.02,-20.7 314.45,-19.96 322.25,-27.13 325.02,-20.7"/>
</a>
</g>
</g>
<!-- Node15 -->
<g id="Node000015" class="node">
<title>Node15</title>
<g id="a_Node000015"><a xlink:title=" ">
<polygon fill="#e0e0e0" stroke="#999999" points="373,-19 338,-19 338,0 373,0 373,-19"/>
<text text-anchor="middle" x="355.5" y="-7" font-family="Helvetica,sans-Serif" font-size="10.00">map</text>
</a>
</g>
</g>
<!-- Node10&#45;&gt;Node15 -->
<g id="edge14_Node000010_Node000015" class="edge">
<title>Node10&#45;&gt;Node15</title>
<g id="a_edge14_Node000010_Node000015"><a xlink:title=" ">
<path fill="none" stroke="#63b8ff" d="M405.32,-54.51C396.74,-46.93 384.23,-35.88 373.9,-26.75"/>
<polygon fill="#63b8ff" stroke="#63b8ff" points="376.47,-24.36 366.66,-20.36 371.84,-29.6 376.47,-24.36"/>
</a>
</g>
</g>
<!-- Node16 -->
<g id="Node000016" class="node">
<title>Node16</title>
<g id="a_Node000016"><a xlink:title=" ">
<polygon fill="#e0e0e0" stroke="#999999" points="440,-19 391,-19 391,0 440,0 440,-19"/>
<text text-anchor="middle" x="415.5" y="-7" font-family="Helvetica,sans-Serif" font-size="10.00">random</text>
</a>
</g>
</g>
<!-- Node10&#45;&gt;Node16 -->
<g id="edge15_Node000010_Node000016" class="edge">
<title>Node10&#45;&gt;Node16</title>
<g id="a_edge15_Node000010_Node000016"><a xlink:title=" ">
<path fill="none" stroke="#63b8ff" d="M415.5,-54.75C415.5,-48.27 415.5,-39.16 415.5,-30.9"/>
<polygon fill="#63b8ff" stroke="#63b8ff" points="419,-30.96 415.5,-20.96 412,-30.96 419,-30.96"/>
</a>
</g>
</g>
<!-- Node17 -->
<g id="Node000017" class="node">
<title>Node17</title>
<g id="a_Node000017"><a xlink:title=" ">
<polygon fill="#e0e0e0" stroke="#999999" points="499,-19 458,-19 458,0 499,0 499,-19"/>
<text text-anchor="middle" x="478.5" y="-7" font-family="Helvetica,sans-Serif" font-size="10.00">string</text>
</a>
</g>
</g>
<!-- Node10&#45;&gt;Node17 -->
<g id="edge16_Node000010_Node000017" class="edge">
<title>Node10&#45;&gt;Node17</title>
<g id="a_edge16_Node000010_Node000017"><a xlink:title=" ">
<path fill="none" stroke="#63b8ff" d="M426.19,-54.51C435.2,-46.93 448.33,-35.88 459.18,-26.75"/>
<polygon fill="#63b8ff" stroke="#63b8ff" points="461.41,-29.45 466.81,-20.33 456.91,-24.09 461.41,-29.45"/>
</a>
</g>
</g>
<!-- Node18 -->
<g id="Node000018" class="node">
<title>Node18</title>
<g id="a_Node000018"><a xlink:title=" ">
<polygon fill="#e0e0e0" stroke="#999999" points="583.5,-19 517.5,-19 517.5,0 583.5,0 583.5,-19"/>
<text text-anchor="middle" x="550.5" y="-7" font-family="Helvetica,sans-Serif" font-size="10.00">string_view</text>
</a>
</g>
</g>
<!-- Node10&#45;&gt;Node18 -->
<g id="edge17_Node000010_Node000018" class="edge">
<title>Node10&#45;&gt;Node18</title>
<g id="a_edge17_Node000010_Node000018"><a xlink:title=" ">
<path fill="none" stroke="#63b8ff" d="M438.4,-54.51C460.06,-46.01 492.81,-33.15 517.32,-23.53"/>
<polygon fill="#63b8ff" stroke="#63b8ff" points="518.5,-26.82 526.53,-19.91 515.94,-20.31 518.5,-26.82"/>
</a>
</g>
</g>
<!-- Node19 -->
<g id="Node000019" class="node">
<title>Node19</title>
<g id="a_Node000019"><a xlink:title=" ">
<polygon fill="#e0e0e0" stroke="#999999" points="663.5,-19 601.5,-19 601.5,0 663.5,0 663.5,-19"/>
<text text-anchor="middle" x="632.5" y="-7" font-family="Helvetica,sans-Serif" font-size="10.00">type_traits</text>
</a>
</g>
</g>
<!-- Node10&#45;&gt;Node19 -->
<g id="edge18_Node000010_Node000019" class="edge">
<title>Node10&#45;&gt;Node19</title>
<g id="a_edge18_Node000010_Node000019"><a xlink:title=" ">
<path fill="none" stroke="#63b8ff" d="M452.31,-54.51C490.47,-45.19 550.05,-30.64 590.14,-20.85"/>
<polygon fill="#63b8ff" stroke="#63b8ff" points="590.8,-24.29 599.68,-18.52 589.14,-17.49 590.8,-24.29"/>
</a>
</g>
</g>
<!-- Node20 -->
<g id="Node000020" class="node">
<title>Node20</title>
<g id="a_Node000020"><a xlink:title=" ">
<polygon fill="#e0e0e0" stroke="#999999" points="741,-19 682,-19 682,0 741,0 741,-19"/>
<text text-anchor="middle" x="711.5" y="-7" font-family="Helvetica,sans-Serif" font-size="10.00">typeindex</text>
</a>
</g>
</g>
<!-- Node10&#45;&gt;Node20 -->
<g id="edge19_Node000010_Node000020" class="edge">
<title>Node10&#45;&gt;Node20</title>
<g id="a_edge19_Node000010_Node000020"><a xlink:title=" ">
<path fill="none" stroke="#63b8ff" d="M466.82,-55.28C516.45,-47.19 594.03,-34.14 670.88,-19.24"/>
<polygon fill="#63b8ff" stroke="#63b8ff" points="671.09,-22.77 680.23,-17.42 669.75,-15.9 671.09,-22.77"/>
</a>
</g>
</g>
<!-- Node21 -->
<g id="Node000021" class="node">
<title>Node21</title>
<g id="a_Node000021"><a xlink:title=" ">
<polygon fill="#e0e0e0" stroke="#999999" points="803.5,-19 759.5,-19 759.5,0 803.5,0 803.5,-19"/>
<text text-anchor="middle" x="781.5" y="-7" font-family="Helvetica,sans-Serif" font-size="10.00">vector</text>
</a>
</g>
</g>
<!-- Node10&#45;&gt;Node21 -->
<g id="edge20_Node000010_Node000021" class="edge">
<title>Node10&#45;&gt;Node21</title>
<g id="a_edge20_Node000010_Node000021"><a xlink:title=" ">
<path fill="none" stroke="#63b8ff" d="M466.94,-58.85C530.75,-52.61 643.01,-40.05 748.11,-19.23"/>
<polygon fill="#63b8ff" stroke="#63b8ff" points="748.64,-22.7 757.75,-17.29 747.26,-15.83 748.64,-22.7"/>
</a>
</g>
</g>
<!-- Node22&#45;&gt;Node10 -->
<g id="edge23_Node000022_Node000010" class="edge">
<title>Node22&#45;&gt;Node10</title>
<g id="a_edge23_Node000022_Node000010"><a xlink:title=" ">
<path fill="none" stroke="#63b8ff" d="M522.22,-219.8C521.12,-198.8 515.75,-144.5 489.5,-110 479.44,-96.79 464.24,-86.68 450.22,-79.46"/>
<polygon fill="#63b8ff" stroke="#63b8ff" points="451.73,-76.3 441.2,-75.15 448.72,-82.62 451.73,-76.3"/>
</a>
</g>
</g>
</g>
</svg>
