<?xml version="1.0" encoding="UTF-8" standalone="no"?>
<!DOCTYPE svg PUBLIC "-//W3C//DTD SVG 1.1//EN"
 "http://www.w3.org/Graphics/SVG/1.1/DTD/svg11.dtd">
<!-- Generated by graphviz version 7.1.0 (20230121.1956)
 -->
<!-- Title: core.hpp Pages: 1 -->
<svg width="804pt" height="420pt"
 viewBox="0.00 0.00 804.00 420.00" xmlns="http://www.w3.org/2000/svg" xmlns:xlink="http://www.w3.org/1999/xlink">
<g id="graph0" class="graph" transform="scale(1 1) rotate(0) translate(4 416)">
<title>core.hpp</title>
<polygon fill="white" stroke="none" points="-4,4 -4,-416 800,-416 800,4 -4,4"/>
<!-- Node1 -->
<g id="node1" class="node">
<title>Node1</title>
<g id="a_node1"><a xlink:title=" ">
<polygon fill="#bfbfbf" stroke="black" points="339,-392.5 339,-411.5 393,-411.5 393,-392.5 339,-392.5"/>
<text text-anchor="middle" x="366" y="-399.5" font-family="Helvetica,sans-Serif" font-size="10.00">core.hpp</text>
</a>
</g>
</g>
<!-- Node2 -->
<g id="node2" class="node">
<title>Node2</title>
<g id="a_node2"><a xlink:href="types_8hpp.html" target="_top" xlink:title=" ">
<polygon fill="white" stroke="black" points="321,-56.5 321,-75.5 423,-75.5 423,-56.5 321,-56.5"/>
<text text-anchor="middle" x="372" y="-63.5" font-family="Helvetica,sans-Serif" font-size="10.00">liger/core/types.hpp</text>
</a>
</g>
</g>
<!-- Node1&#45;&gt;Node2 -->
<g id="edge1" class="edge">
<title>Node1&#45;&gt;Node2</title>
<path fill="none" stroke="midnightblue" d="M339.13,-401.07C287.5,-400.28 171.82,-394 84,-356 40.68,-337.25 0,-338.21 0,-291 0,-291 0,-291 0,-177 0,-132.55 35.58,-130.5 76,-112 151.53,-77.43 248.11,-68.49 310.02,-66.64"/>
<polygon fill="midnightblue" stroke="midnightblue" points="309.74,-70.15 319.65,-66.41 309.57,-63.15 309.74,-70.15"/>
</g>
<!-- Node11 -->
<g id="node11" class="node">
<title>Node11</title>
<g id="a_node11"><a xlink:href="enum__bitmask_8hpp.html" target="_top" xlink:title=" ">
<polygon fill="white" stroke="black" points="93,-336.5 93,-355.5 235,-355.5 235,-336.5 93,-336.5"/>
<text text-anchor="middle" x="164" y="-343.5" font-family="Helvetica,sans-Serif" font-size="10.00">liger/core/enum_bitmask.hpp</text>
</a>
</g>
</g>
<!-- Node1&#45;&gt;Node11 -->
<g id="edge10" class="edge">
<title>Node1&#45;&gt;Node11</title>
<path fill="none" stroke="midnightblue" d="M339.18,-393.83C305.31,-384.78 246.64,-369.09 206.61,-358.39"/>
<polygon fill="midnightblue" stroke="midnightblue" points="207.62,-355.04 197.05,-355.84 205.81,-361.8 207.62,-355.04"/>
</g>
<!-- Node14 -->
<g id="node14" class="node">
<title>Node14</title>
<g id="a_node14"><a xlink:href="enum__class_8hpp.html" target="_top" xlink:title=" ">
<polygon fill="white" stroke="black" points="306.5,-112.5 306.5,-131.5 437.5,-131.5 437.5,-112.5 306.5,-112.5"/>
<text text-anchor="middle" x="372" y="-119.5" font-family="Helvetica,sans-Serif" font-size="10.00">liger/core/enum_class.hpp</text>
</a>
</g>
</g>
<!-- Node1&#45;&gt;Node14 -->
<g id="edge14" class="edge">
<title>Node1&#45;&gt;Node14</title>
<path fill="none" stroke="midnightblue" d="M360.47,-392.56C349.28,-374.65 325,-331.15 325,-291 325,-291 325,-291 325,-233 325,-198 345.37,-161.41 359.29,-140.49"/>
<polygon fill="midnightblue" stroke="midnightblue" points="361.97,-142.77 364.8,-132.56 356.22,-138.78 361.97,-142.77"/>
</g>
<!-- Node15 -->
<g id="node15" class="node">
<title>Node15</title>
<g id="a_node15"><a xlink:href="console__log__writer_8hpp.html" target="_top" xlink:title=" ">
<polygon fill="white" stroke="black" points="479,-336.5 479,-355.5 653,-355.5 653,-336.5 479,-336.5"/>
<text text-anchor="middle" x="566" y="-343.5" font-family="Helvetica,sans-Serif" font-size="10.00">liger/core/log/console_log_writer.hpp</text>
</a>
</g>
</g>
<!-- Node1&#45;&gt;Node15 -->
<g id="edge16" class="edge">
<title>Node1&#45;&gt;Node15</title>
<path fill="none" stroke="midnightblue" d="M392.97,-393.72C426.53,-384.66 484.19,-369.09 523.66,-358.43"/>
<polygon fill="midnightblue" stroke="midnightblue" points="524.32,-361.88 533.06,-355.89 522.5,-355.12 524.32,-361.88"/>
</g>
<!-- Node22 -->
<g id="node22" class="node">
<title>Node22</title>
<g id="a_node22"><a xlink:href="liger__log__channels_8hpp.html" target="_top" xlink:title=" ">
<polygon fill="white" stroke="black" points="622,-168.5 622,-187.5 796,-187.5 796,-168.5 622,-168.5"/>
<text text-anchor="middle" x="709" y="-175.5" font-family="Helvetica,sans-Serif" font-size="10.00">liger/core/log/liger_log_channels.hpp</text>
</a>
</g>
</g>
<!-- Node1&#45;&gt;Node22 -->
<g id="edge25" class="edge">
<title>Node1&#45;&gt;Node22</title>
<path fill="none" stroke="midnightblue" d="M392.62,-401.53C446.08,-401.64 569.3,-396.99 662,-356 725.53,-327.91 749.8,-310.15 771,-244 773.71,-235.54 775.04,-231.92 771,-224 764.16,-210.58 751.23,-200.22 738.94,-192.85"/>
<polygon fill="midnightblue" stroke="midnightblue" points="740.7,-189.82 730.25,-188.08 737.33,-195.96 740.7,-189.82"/>
</g>
<!-- Node23 -->
<g id="node23" class="node">
<title>Node23</title>
<g id="a_node23"><a xlink:href="log_8hpp.html" target="_top" xlink:title=" ">
<polygon fill="white" stroke="black" points="353.5,-336.5 353.5,-355.5 460.5,-355.5 460.5,-336.5 353.5,-336.5"/>
<text text-anchor="middle" x="407" y="-343.5" font-family="Helvetica,sans-Serif" font-size="10.00">liger/core/log/log.hpp</text>
</a>
</g>
</g>
<!-- Node1&#45;&gt;Node23 -->
<g id="edge27" class="edge">
<title>Node1&#45;&gt;Node23</title>
<path fill="none" stroke="midnightblue" d="M372.41,-392.56C378.16,-384.99 386.77,-373.64 393.97,-364.16"/>
<polygon fill="midnightblue" stroke="midnightblue" points="396.6,-366.49 399.86,-356.41 391.02,-362.25 396.6,-366.49"/>
</g>
<!-- Node3 -->
<g id="node3" class="node">
<title>Node3</title>
<g id="a_node3"><a xlink:title=" ">
<polygon fill="white" stroke="#bfbfbf" points="122,-0.5 122,-19.5 168,-19.5 168,-0.5 122,-0.5"/>
<text text-anchor="middle" x="145" y="-7.5" font-family="Helvetica,sans-Serif" font-size="10.00">cstdint</text>
</a>
</g>
</g>
<!-- Node2&#45;&gt;Node3 -->
<g id="edge2" class="edge">
<title>Node2&#45;&gt;Node3</title>
<path fill="none" stroke="midnightblue" d="M333.02,-56.57C295.88,-48.42 238.12,-35.42 178.78,-20.36"/>
<polygon fill="midnightblue" stroke="midnightblue" points="179.71,-16.98 169.16,-17.9 177.98,-23.77 179.71,-16.98"/>
</g>
<!-- Node4 -->
<g id="node4" class="node">
<title>Node4</title>
<g id="a_node4"><a xlink:title=" ">
<polygon fill="white" stroke="#bfbfbf" points="186,-0.5 186,-19.5 236,-19.5 236,-0.5 186,-0.5"/>
<text text-anchor="middle" x="211" y="-7.5" font-family="Helvetica,sans-Serif" font-size="10.00">fstream</text>
</a>
</g>
</g>
<!-- Node2&#45;&gt;Node4 -->
<g id="edge3" class="edge">
<title>Node2&#45;&gt;Node4</title>
<path fill="none" stroke="midnightblue" d="M346.84,-56.56C319.91,-47.53 276.94,-33.12 246.55,-22.92"/>
<polygon fill="midnightblue" stroke="midnightblue" points="248.01,-19.72 237.41,-19.86 245.78,-26.36 248.01,-19.72"/>
</g>
<!-- Node5 -->
<g id="node5" class="node">
<title>Node5</title>
<g id="a_node5"><a xlink:title=" ">
<polygon fill="white" stroke="#bfbfbf" points="254,-0.5 254,-19.5 308,-19.5 308,-0.5 254,-0.5"/>
<text text-anchor="middle" x="281" y="-7.5" font-family="Helvetica,sans-Serif" font-size="10.00">iostream</text>
</a>
</g>
</g>
<!-- Node2&#45;&gt;Node5 -->
<g id="edge4" class="edge">
<title>Node2&#45;&gt;Node5</title>
<path fill="none" stroke="midnightblue" d="M357.78,-56.56C343.62,-48.16 321.63,-35.11 304.81,-25.13"/>
<polygon fill="midnightblue" stroke="midnightblue" points="306.81,-22.24 296.42,-20.15 303.23,-28.26 306.81,-22.24"/>
</g>
<!-- Node6 -->
<g id="node6" class="node">
<title>Node6</title>
<g id="a_node6"><a xlink:title=" ">
<polygon fill="white" stroke="#bfbfbf" points="326.5,-0.5 326.5,-19.5 361.5,-19.5 361.5,-0.5 326.5,-0.5"/>
<text text-anchor="middle" x="344" y="-7.5" font-family="Helvetica,sans-Serif" font-size="10.00">map</text>
</a>
</g>
</g>
<!-- Node2&#45;&gt;Node6 -->
<g id="edge5" class="edge">
<title>Node2&#45;&gt;Node6</title>
<path fill="none" stroke="midnightblue" d="M367.62,-56.56C363.86,-49.31 358.31,-38.59 353.52,-29.37"/>
<polygon fill="midnightblue" stroke="midnightblue" points="356.66,-27.81 348.95,-20.55 350.45,-31.03 356.66,-27.81"/>
</g>
<!-- Node7 -->
<g id="node7" class="node">
<title>Node7</title>
<g id="a_node7"><a xlink:title=" ">
<polygon fill="white" stroke="#bfbfbf" points="379.5,-0.5 379.5,-19.5 420.5,-19.5 420.5,-0.5 379.5,-0.5"/>
<text text-anchor="middle" x="400" y="-7.5" font-family="Helvetica,sans-Serif" font-size="10.00">string</text>
</a>
</g>
</g>
<!-- Node2&#45;&gt;Node7 -->
<g id="edge6" class="edge">
<title>Node2&#45;&gt;Node7</title>
<path fill="none" stroke="midnightblue" d="M376.38,-56.56C380.14,-49.31 385.69,-38.59 390.48,-29.37"/>
<polygon fill="midnightblue" stroke="midnightblue" points="393.55,-31.03 395.05,-20.55 387.34,-27.81 393.55,-31.03"/>
</g>
<!-- Node8 -->
<g id="node8" class="node">
<title>Node8</title>
<g id="a_node8"><a xlink:title=" ">
<polygon fill="white" stroke="#bfbfbf" points="439,-0.5 439,-19.5 505,-19.5 505,-0.5 439,-0.5"/>
<text text-anchor="middle" x="472" y="-7.5" font-family="Helvetica,sans-Serif" font-size="10.00">string_view</text>
</a>
</g>
</g>
<!-- Node2&#45;&gt;Node8 -->
<g id="edge7" class="edge">
<title>Node2&#45;&gt;Node8</title>
<path fill="none" stroke="midnightblue" d="M387.62,-56.56C403.33,-48.08 427.8,-34.87 446.36,-24.85"/>
<polygon fill="midnightblue" stroke="midnightblue" points="448.02,-27.93 455.15,-20.1 444.69,-21.77 448.02,-27.93"/>
</g>
<!-- Node9 -->
<g id="node9" class="node">
<title>Node9</title>
<g id="a_node9"><a xlink:title=" ">
<polygon fill="white" stroke="#bfbfbf" points="523,-0.5 523,-19.5 585,-19.5 585,-0.5 523,-0.5"/>
<text text-anchor="middle" x="554" y="-7.5" font-family="Helvetica,sans-Serif" font-size="10.00">type_traits</text>
</a>
</g>
</g>
<!-- Node2&#45;&gt;Node9 -->
<g id="edge8" class="edge">
<title>Node2&#45;&gt;Node9</title>
<path fill="none" stroke="midnightblue" d="M400.44,-56.56C431.2,-47.44 480.45,-32.82 514.86,-22.61"/>
<polygon fill="midnightblue" stroke="midnightblue" points="515.42,-26.1 524.01,-19.9 513.43,-19.39 515.42,-26.1"/>
</g>
<!-- Node10 -->
<g id="node10" class="node">
<title>Node10</title>
<g id="a_node10"><a xlink:title=" ">
<polygon fill="white" stroke="#bfbfbf" points="603,-0.5 603,-19.5 647,-19.5 647,-0.5 603,-0.5"/>
<text text-anchor="middle" x="625" y="-7.5" font-family="Helvetica,sans-Serif" font-size="10.00">vector</text>
</a>
</g>
</g>
<!-- Node2&#45;&gt;Node10 -->
<g id="edge9" class="edge">
<title>Node2&#45;&gt;Node10</title>
<path fill="none" stroke="midnightblue" d="M419.46,-56.55C462.2,-48.69 526.96,-36.12 592.16,-20.29"/>
<polygon fill="midnightblue" stroke="midnightblue" points="592.7,-23.76 601.58,-17.98 591.03,-16.96 592.7,-23.76"/>
</g>
<!-- Node11&#45;&gt;Node2 -->
<g id="edge12" class="edge">
<title>Node11&#45;&gt;Node2</title>
<path fill="none" stroke="midnightblue" d="M122.06,-336.55C99.88,-330.05 73.84,-318.87 57,-300 36.96,-277.54 38,-265.1 38,-235 38,-235 38,-235 38,-177 38,-120.39 213.3,-88.07 309.9,-74.56"/>
<polygon fill="midnightblue" stroke="midnightblue" points="310.34,-78.03 319.77,-73.21 309.39,-71.09 310.34,-78.03"/>
</g>
<!-- Node12 -->
<g id="node12" class="node">
<title>Node12</title>
<g id="a_node12"><a xlink:title=" ">
<polygon fill="white" stroke="#bfbfbf" points="66.5,-280.5 66.5,-299.5 139.5,-299.5 139.5,-280.5 66.5,-280.5"/>
<text text-anchor="middle" x="103" y="-287.5" font-family="Helvetica,sans-Serif" font-size="10.00">initializer_list</text>
</a>
</g>
</g>
<!-- Node11&#45;&gt;Node12 -->
<g id="edge11" class="edge">
<title>Node11&#45;&gt;Node12</title>
<path fill="none" stroke="midnightblue" d="M154.47,-336.56C145.46,-328.59 131.73,-316.43 120.72,-306.68"/>
<polygon fill="midnightblue" stroke="midnightblue" points="123.21,-304.21 113.4,-300.2 118.57,-309.45 123.21,-304.21"/>
</g>
<!-- Node13 -->
<g id="node13" class="node">
<title>Node13</title>
<g id="a_node13"><a xlink:href="enum__bitmask_8ipp.html" target="_top" xlink:title=" ">
<polygon fill="white" stroke="black" points="157.5,-280.5 157.5,-299.5 296.5,-299.5 296.5,-280.5 157.5,-280.5"/>
<text text-anchor="middle" x="227" y="-287.5" font-family="Helvetica,sans-Serif" font-size="10.00">liger/core/enum_bitmask.ipp</text>
</a>
</g>
</g>
<!-- Node11&#45;&gt;Node13 -->
<g id="edge13" class="edge">
<title>Node11&#45;&gt;Node13</title>
<path fill="none" stroke="midnightblue" d="M173.84,-336.56C183.14,-328.59 197.33,-316.43 208.7,-306.68"/>
<polygon fill="midnightblue" stroke="midnightblue" points="210.97,-309.35 216.28,-300.19 206.41,-304.04 210.97,-309.35"/>
</g>
<!-- Node14&#45;&gt;Node2 -->
<g id="edge15" class="edge">
<title>Node14&#45;&gt;Node2</title>
<path fill="none" stroke="midnightblue" d="M372,-112.56C372,-105.63 372,-95.52 372,-86.59"/>
<polygon fill="midnightblue" stroke="midnightblue" points="375.5,-86.71 372,-76.71 368.5,-86.72 375.5,-86.71"/>
</g>
<!-- Node16 -->
<g id="node16" class="node">
<title>Node16</title>
<g id="a_node16"><a xlink:title=" ">
<polygon fill="white" stroke="#bfbfbf" points="525,-224.5 525,-243.5 587,-243.5 587,-224.5 525,-224.5"/>
<text text-anchor="middle" x="556" y="-231.5" font-family="Helvetica,sans-Serif" font-size="10.00">fmt/color.h</text>
</a>
</g>
</g>
<!-- Node15&#45;&gt;Node16 -->
<g id="edge17" class="edge">
<title>Node15&#45;&gt;Node16</title>
<path fill="none" stroke="midnightblue" d="M565.25,-336.73C563.68,-319.45 560.01,-279.1 557.79,-254.73"/>
<polygon fill="midnightblue" stroke="midnightblue" points="561.29,-254.51 556.9,-244.87 554.32,-255.15 561.29,-254.51"/>
</g>
<!-- Node17 -->
<g id="node17" class="node">
<title>Node17</title>
<g id="a_node17"><a xlink:title=" ">
<polygon fill="white" stroke="#bfbfbf" points="606.5,-224.5 606.5,-243.5 667.5,-243.5 667.5,-224.5 606.5,-224.5"/>
<text text-anchor="middle" x="637" y="-231.5" font-family="Helvetica,sans-Serif" font-size="10.00">fmt/core.h</text>
</a>
</g>
</g>
<!-- Node15&#45;&gt;Node17 -->
<g id="edge18" class="edge">
<title>Node15&#45;&gt;Node17</title>
<path fill="none" stroke="midnightblue" d="M637.92,-336.52C660.19,-330.13 682.42,-319.07 696,-300 709.51,-281.03 685.87,-261.55 664.62,-248.92"/>
<polygon fill="midnightblue" stroke="midnightblue" points="666.62,-246.03 656.18,-244.21 663.2,-252.14 666.62,-246.03"/>
</g>
<!-- Node18 -->
<g id="node18" class="node">
<title>Node18</title>
<g id="a_node18"><a xlink:title=" ">
<polygon fill="white" stroke="#bfbfbf" points="685.5,-224.5 685.5,-243.5 762.5,-243.5 762.5,-224.5 685.5,-224.5"/>
<text text-anchor="middle" x="724" y="-231.5" font-family="Helvetica,sans-Serif" font-size="10.00">fmt/ostream.h</text>
</a>
</g>
</g>
<!-- Node15&#45;&gt;Node18 -->
<g id="edge19" class="edge">
<title>Node15&#45;&gt;Node18</title>
<path fill="none" stroke="midnightblue" d="M645.97,-336.53C670.31,-330.11 695.07,-319.02 712,-300 722.86,-287.79 725.35,-269.05 725.43,-254.83"/>
<polygon fill="midnightblue" stroke="midnightblue" points="728.92,-254.72 725.04,-244.86 721.93,-254.99 728.92,-254.72"/>
</g>
<!-- Node19 -->
<g id="node19" class="node">
<title>Node19</title>
<g id="a_node19"><a xlink:href="log__writer_8hpp.html" target="_top" xlink:title=" ">
<polygon fill="white" stroke="black" points="391.5,-280.5 391.5,-299.5 526.5,-299.5 526.5,-280.5 391.5,-280.5"/>
<text text-anchor="middle" x="459" y="-287.5" font-family="Helvetica,sans-Serif" font-size="10.00">liger/core/log/log_writer.hpp</text>
</a>
</g>
</g>
<!-- Node15&#45;&gt;Node19 -->
<g id="edge20" class="edge">
<title>Node15&#45;&gt;Node19</title>
<path fill="none" stroke="midnightblue" d="M549.28,-336.56C532.24,-327.96 505.55,-314.49 485.61,-304.43"/>
<polygon fill="midnightblue" stroke="midnightblue" points="487.46,-301.44 476.95,-300.06 484.3,-307.69 487.46,-301.44"/>
</g>
<!-- Node20 -->
<g id="node20" class="node">
<title>Node20</title>
<g id="a_node20"><a xlink:href="log__message_8hpp.html" target="_top" xlink:title=" ">
<polygon fill="white" stroke="black" points="354,-224.5 354,-243.5 506,-243.5 506,-224.5 354,-224.5"/>
<text text-anchor="middle" x="430" y="-231.5" font-family="Helvetica,sans-Serif" font-size="10.00">liger/core/log/log_message.hpp</text>
</a>
</g>
</g>
<!-- Node19&#45;&gt;Node20 -->
<g id="edge21" class="edge">
<title>Node19&#45;&gt;Node20</title>
<path fill="none" stroke="midnightblue" d="M454.47,-280.56C450.53,-273.23 444.69,-262.35 439.7,-253.07"/>
<polygon fill="midnightblue" stroke="midnightblue" points="442.94,-251.69 435.12,-244.53 436.77,-255 442.94,-251.69"/>
</g>
<!-- Node20&#45;&gt;Node2 -->
<g id="edge24" class="edge">
<title>Node20&#45;&gt;Node2</title>
<path fill="none" stroke="midnightblue" d="M451.17,-224.51C466.13,-217.26 485.05,-205.24 494,-188 498.1,-180.11 497.08,-176.34 494,-168 478.38,-125.78 432.85,-96.26 402.05,-80.46"/>
<polygon fill="midnightblue" stroke="midnightblue" points="403.72,-77.38 393.2,-76.11 400.63,-83.66 403.72,-77.38"/>
</g>
<!-- Node21 -->
<g id="node21" class="node">
<title>Node21</title>
<g id="a_node21"><a xlink:href="log__level_8hpp.html" target="_top" xlink:title=" ">
<polygon fill="white" stroke="black" points="353,-168.5 353,-187.5 485,-187.5 485,-168.5 353,-168.5"/>
<text text-anchor="middle" x="419" y="-175.5" font-family="Helvetica,sans-Serif" font-size="10.00">liger/core/log/log_level.hpp</text>
</a>
</g>
</g>
<!-- Node20&#45;&gt;Node21 -->
<g id="edge22" class="edge">
<title>Node20&#45;&gt;Node21</title>
<path fill="none" stroke="midnightblue" d="M428.28,-224.56C426.85,-217.55 424.76,-207.29 422.93,-198.29"/>
<polygon fill="midnightblue" stroke="midnightblue" points="426.4,-197.78 420.97,-188.68 419.54,-199.18 426.4,-197.78"/>
</g>
<!-- Node21&#45;&gt;Node14 -->
<g id="edge23" class="edge">
<title>Node21&#45;&gt;Node14</title>
<path fill="none" stroke="midnightblue" d="M411.66,-168.56C405,-160.91 394.98,-149.4 386.68,-139.86"/>
<polygon fill="midnightblue" stroke="midnightblue" points="389.34,-137.59 380.13,-132.34 384.06,-142.18 389.34,-137.59"/>
</g>
<!-- Node22&#45;&gt;Node2 -->
<g id="edge26" class="edge">
<title>Node22&#45;&gt;Node2</title>
<path fill="none" stroke="midnightblue" d="M686.73,-168.56C652.58,-155.72 585.1,-130.79 527,-112 489.13,-99.75 445.56,-87.24 414.28,-78.53"/>
<polygon fill="midnightblue" stroke="midnightblue" points="415.37,-75.2 404.8,-75.9 413.5,-81.95 415.37,-75.2"/>
</g>
<!-- Node23&#45;&gt;Node19 -->
<g id="edge29" class="edge">
<title>Node23&#45;&gt;Node19</title>
<path fill="none" stroke="midnightblue" d="M415.12,-336.56C422.65,-328.75 434.04,-316.92 443.33,-307.27"/>
<polygon fill="midnightblue" stroke="midnightblue" points="445.64,-309.92 450.05,-300.29 440.59,-305.07 445.64,-309.92"/>
</g>
<!-- Node23&#45;&gt;Node20 -->
<g id="edge28" class="edge">
<title>Node23&#45;&gt;Node20</title>
<path fill="none" stroke="midnightblue" d="M399.75,-336.91C389.58,-324.53 373.25,-300.19 382,-280 387.18,-268.05 397.26,-257.82 406.86,-250.15"/>
<polygon fill="midnightblue" stroke="midnightblue" points="408.89,-253 414.87,-244.25 404.74,-247.36 408.89,-253"/>
</g>
<!-- Node24 -->
<g id="node24" class="node">
<title>Node24</title>
<g id="a_node24"><a xlink:href="log_8ipp.html" target="_top" xlink:title=" ">
<polygon fill="white" stroke="black" points="583,-280.5 583,-299.5 687,-299.5 687,-280.5 583,-280.5"/>
<text text-anchor="middle" x="635" y="-287.5" font-family="Helvetica,sans-Serif" font-size="10.00">liger/core/log/log.ipp</text>
</a>
</g>
</g>
<!-- Node23&#45;&gt;Node24 -->
<g id="edge30" class="edge">
<title>Node23&#45;&gt;Node24</title>
<path fill="none" stroke="midnightblue" d="M442.88,-336.5C482.13,-327.21 545.2,-312.27 588.29,-302.06"/>
<polygon fill="midnightblue" stroke="midnightblue" points="588.94,-305.51 597.86,-299.8 587.32,-298.7 588.94,-305.51"/>
</g>
<!-- Node24&#45;&gt;Node16 -->
<g id="edge31" class="edge">
<title>Node24&#45;&gt;Node16</title>
<path fill="none" stroke="midnightblue" d="M622.66,-280.56C610.6,-272.32 591.99,-259.6 577.5,-249.7"/>
<polygon fill="midnightblue" stroke="midnightblue" points="579.74,-246.99 569.51,-244.23 575.79,-252.76 579.74,-246.99"/>
</g>
<!-- Node24&#45;&gt;Node17 -->
<g id="edge32" class="edge">
<title>Node24&#45;&gt;Node17</title>
<path fill="none" stroke="midnightblue" d="M635.31,-280.56C635.57,-273.63 635.94,-263.52 636.27,-254.59"/>
<polygon fill="midnightblue" stroke="midnightblue" points="639.77,-254.84 636.64,-244.71 632.77,-254.58 639.77,-254.84"/>
</g>
<!-- Node24&#45;&gt;Node18 -->
<g id="edge33" class="edge">
<title>Node24&#45;&gt;Node18</title>
<path fill="none" stroke="midnightblue" d="M648.91,-280.56C662.75,-272.16 684.26,-259.11 700.71,-249.13"/>
<polygon fill="midnightblue" stroke="midnightblue" points="702.16,-252.34 708.9,-244.16 698.53,-246.36 702.16,-252.34"/>
</g>
</g>
</svg>
