<?xml version="1.0" encoding="UTF-8" standalone="no"?>
<!DOCTYPE svg PUBLIC "-//W3C//DTD SVG 1.1//EN"
 "http://www.w3.org/Graphics/SVG/1.1/DTD/svg11.dtd">
<!-- Generated by graphviz version 9.0.0 (20230911.1827)
 -->
<!-- Title: core.hpp Pages: 1 -->
<!--zoomable 580 -->

<svg id="main" version="1.1" xmlns="http://www.w3.org/2000/svg" xmlns:xlink="http://www.w3.org/1999/xlink" xml:space="preserve" onload="init(evt)">
<style type="text/css"><![CDATA[
.node, .edge {opacity: 0.7;}
.node.selected, .edge.selected {opacity: 1;}
.edge:hover path { stroke: red; }
.edge:hover polygon { stroke: red; fill: red; }
]]></style>

<defs>
  <circle id="rim" cx="0" cy="0" r="7"/>
  <circle id="rim2" cx="0" cy="0" r="3.5"/>
  <g id="zoomPlus">
    <use xlink:href="#rim" fill="#404040"><set attributeName="fill" to="#808080" begin="zoomplus.mouseover" end="zoomplus.mouseout"/></use>
    <path d="M-4,0h8M0,-4v8" fill="none" stroke="white" stroke-width="1.5" pointer-events="none"/>
  </g>
  <g id="zoomMin">
    <use xlink:href="#rim" fill="#404040"><set attributeName="fill" to="#808080" begin="zoomminus.mouseover" end="zoomminus.mouseout"/></use>
    <path d="M-4,0h8" fill="none" stroke="white" stroke-width="1.5" pointer-events="none"/>
  </g>
  <g id="arrowUp" transform="translate(30 24)">
    <use xlink:href="#rim"/>
    <path pointer-events="none" fill="none" stroke="white" stroke-width="1.5" d="M0,-3.0v7 M-2.5,-0.5L0,-3.0L2.5,-0.5"/>
  </g>
  <g id="arrowRight" transform="rotate(90) translate(36 -43)">
    <use xlink:href="#rim"/>
    <path pointer-events="none" fill="none" stroke="white" stroke-width="1.5" d="M0,-3.0v7 M-2.5,-0.5L0,-3.0L2.5,-0.5"/>
  </g>
  <g id="arrowDown" transform="rotate(180) translate(-30 -48)">
    <use xlink:href="#rim"/>
    <path pointer-events="none" fill="none" stroke="white" stroke-width="1.5" d="M0,-3.0v7 M-2.5,-0.5L0,-3.0L2.5,-0.5"/>
  </g>
  <g id="arrowLeft" transform="rotate(270) translate(-36 17)">
    <use xlink:href="#rim"/>
    <path pointer-events="none" fill="none" stroke="white" stroke-width="1.5" d="M0,-3.0v7 M-2.5,-0.5L0,-3.0L2.5,-0.5"/>
  </g>
  <g id="resetDef">
    <use xlink:href="#rim2" fill="#404040"><set attributeName="fill" to="#808080" begin="reset.mouseover" end="reset.mouseout"/></use>
  </g>
</defs>
<script type="application/ecmascript">
var viewWidth = 1487;
var viewHeight = 580;
var sectionId = 'dynsection-0';
</script>
<script type="application/ecmascript" xlink:href="svg.min.js"/>
<svg id="graph" class="graph">
<g id="viewport">
<title>core.hpp</title>
<!-- Node1 -->
<g id="Node000001" class="node">
<title>Node1</title>
<g id="a_Node000001"><a xlink:title=" ">
<polygon fill="#999999" stroke="#666666" points="743.62,-571.75 690.12,-571.75 690.12,-552.5 743.62,-552.5 743.62,-571.75"/>
<text text-anchor="middle" x="716.88" y="-558.25" font-family="Helvetica,sans-Serif" font-size="10.00">core.hpp</text>
</a>
</g>
</g>
<!-- Node2 -->
<g id="Node000002" class="node">
<title>Node2</title>
<g id="a_Node000002"><a xlink:title=" ">
<polygon fill="#e0e0e0" stroke="#999999" points="109.75,-516.5 0,-516.5 0,-497.25 109.75,-497.25 109.75,-516.5"/>
<text text-anchor="middle" x="54.88" y="-503" font-family="Helvetica,sans-Serif" font-size="10.00">taskflow/taskflow.hpp</text>
</a>
</g>
</g>
<!-- Node1&#45;&gt;Node2 -->
<g id="edge1_Node000001_Node000002" class="edge">
<title>Node1&#45;&gt;Node2</title>
<g id="a_edge1_Node000001_Node000002"><a xlink:title=" ">
<path fill="none" stroke="#63b8ff" d="M689.64,-559.55C605.41,-554.59 341.66,-538.29 123.88,-516.5 123.04,-516.42 122.2,-516.33 121.36,-516.24"/>
<polygon fill="#63b8ff" stroke="#63b8ff" points="122.03,-512.8 111.71,-515.2 121.28,-519.76 122.03,-512.8"/>
</a>
</g>
</g>
<!-- Node3 -->
<g id="Node000003" class="node">
<title>Node3</title>
<g id="a_Node000003"><a xlink:href="enum__bitmask_8hpp.html" target="_top" xlink:title=" ">
<polygon fill="white" stroke="#666666" points="314.5,-185 173.25,-185 173.25,-165.75 314.5,-165.75 314.5,-185"/>
<text text-anchor="middle" x="243.88" y="-171.5" font-family="Helvetica,sans-Serif" font-size="10.00">liger/core/enum_bitmask.hpp</text>
</a>
</g>
</g>
<!-- Node1&#45;&gt;Node3 -->
<g id="edge2_Node000001_Node000003" class="edge">
<title>Node1&#45;&gt;Node3</title>
<g id="a_edge2_Node000001_Node000003"><a xlink:title=" ">
<path fill="none" stroke="#63b8ff" d="M689.78,-559.82C604.45,-555.52 342.19,-540.61 260.88,-516.5 201.82,-498.99 137.88,-514.22 137.88,-452.62 137.88,-452.62 137.88,-452.62 137.88,-284.88 137.88,-240.87 183.04,-208.08 214.41,-190.62"/>
<polygon fill="#63b8ff" stroke="#63b8ff" points="215.91,-193.78 223.1,-186 212.62,-187.6 215.91,-193.78"/>
</a>
</g>
</g>
<!-- Node4 -->
<g id="Node000004" class="node">
<title>Node4</title>
<g id="a_Node000004"><a xlink:href="types_8hpp.html" target="_top" xlink:title=" ">
<polygon fill="white" stroke="#666666" points="835.62,-74.5 734.12,-74.5 734.12,-55.25 835.62,-55.25 835.62,-74.5"/>
<text text-anchor="middle" x="784.88" y="-61" font-family="Helvetica,sans-Serif" font-size="10.00">liger/core/types.hpp</text>
</a>
</g>
</g>
<!-- Node1&#45;&gt;Node4 -->
<g id="edge57_Node000001_Node000004" class="edge">
<title>Node1&#45;&gt;Node4</title>
<g id="a_edge57_Node000001_Node000004"><a xlink:title=" ">
<path fill="none" stroke="#63b8ff" d="M743.77,-560.21C803.09,-556.61 939.88,-538.95 939.88,-452.62 939.88,-452.62 939.88,-452.62 939.88,-395.38 939.88,-365.76 943.37,-356.74 958.88,-331.5 971.05,-311.68 984.7,-315.32 996.88,-295.5 1012.38,-270.26 1015.88,-261.24 1015.88,-231.62 1015.88,-231.62 1015.88,-231.62 1015.88,-174.38 1015.88,-99.56 915.38,-76.24 846.96,-69.03"/>
<polygon fill="#63b8ff" stroke="#63b8ff" points="847.65,-65.58 837.36,-68.11 846.98,-72.54 847.65,-65.58"/>
</a>
</g>
</g>
<!-- Node16 -->
<g id="Node000016" class="node">
<title>Node16</title>
<g id="a_Node000016"><a xlink:href="enum__class_8hpp.html" target="_top" xlink:title=" ">
<polygon fill="white" stroke="#666666" points="1188.88,-461.25 1058.88,-461.25 1058.88,-442 1188.88,-442 1188.88,-461.25"/>
<text text-anchor="middle" x="1123.88" y="-447.75" font-family="Helvetica,sans-Serif" font-size="10.00">liger/core/enum_class.hpp</text>
</a>
</g>
</g>
<!-- Node1&#45;&gt;Node16 -->
<g id="edge16_Node000001_Node000016" class="edge">
<title>Node1&#45;&gt;Node16</title>
<g id="a_edge16_Node000001_Node000016"><a xlink:title=" ">
<path fill="none" stroke="#63b8ff" d="M743.94,-561.61C800.25,-561.73 933.18,-557.23 1034.88,-516.5 1062.58,-505.4 1089.77,-483.91 1106.66,-468.93"/>
<polygon fill="#63b8ff" stroke="#63b8ff" points="1108.77,-471.74 1113.8,-462.41 1104.05,-466.57 1108.77,-471.74"/>
</a>
</g>
</g>
<!-- Node17 -->
<g id="Node000017" class="node">
<title>Node17</title>
<g id="a_Node000017"><a xlink:href="event__dispatcher_8hpp.html" target="_top" xlink:title=" ">
<polygon fill="white" stroke="#666666" points="498.88,-516.5 320.88,-516.5 320.88,-497.25 498.88,-497.25 498.88,-516.5"/>
<text text-anchor="middle" x="409.88" y="-503" font-family="Helvetica,sans-Serif" font-size="10.00">liger/core/event/event_dispatcher.hpp</text>
</a>
</g>
</g>
<!-- Node1&#45;&gt;Node17 -->
<g id="edge18_Node000001_Node000017" class="edge">
<title>Node1&#45;&gt;Node17</title>
<g id="a_edge18_Node000001_Node000017"><a xlink:title=" ">
<path fill="none" stroke="#63b8ff" d="M689.63,-556.4C641.49,-548.05 540.21,-530.48 473.63,-518.93"/>
<polygon fill="#63b8ff" stroke="#63b8ff" points="474.39,-515.51 463.94,-517.25 473.19,-522.41 474.39,-515.51"/>
</a>
</g>
</g>
<!-- Node21 -->
<g id="Node000021" class="node">
<title>Node21</title>
<g id="a_Node000021"><a xlink:href="default__log_8hpp.html" target="_top" xlink:title=" ">
<polygon fill="white" stroke="#666666" points="589.12,-350.75 448.62,-350.75 448.62,-331.5 589.12,-331.5 589.12,-350.75"/>
<text text-anchor="middle" x="518.88" y="-337.25" font-family="Helvetica,sans-Serif" font-size="10.00">liger/core/log/default_log.hpp</text>
</a>
</g>
</g>
<!-- Node1&#45;&gt;Node21 -->
<g id="edge40_Node000001_Node000021" class="edge">
<title>Node1&#45;&gt;Node21</title>
<g id="a_edge40_Node000001_Node000021"><a xlink:title=" ">
<path fill="none" stroke="#63b8ff" d="M703.51,-552.15C672.11,-530.44 592.72,-472.04 545.88,-406 536.28,-392.47 529.19,-374.99 524.69,-361.74"/>
<polygon fill="#63b8ff" stroke="#63b8ff" points="528.1,-360.92 521.74,-352.44 521.42,-363.03 528.1,-360.92"/>
</a>
</g>
</g>
<!-- Node27 -->
<g id="Node000027" class="node">
<title>Node27</title>
<g id="a_Node000027"><a xlink:href="log__channels_8hpp_source.html" target="_top" xlink:title=" ">
<polygon fill="white" stroke="#666666" points="316,-350.75 165.75,-350.75 165.75,-331.5 316,-331.5 316,-350.75"/>
<text text-anchor="middle" x="240.88" y="-337.25" font-family="Helvetica,sans-Serif" font-size="10.00">liger/core/log/log_channels.hpp</text>
</a>
</g>
</g>
<!-- Node1&#45;&gt;Node27 -->
<g id="edge41_Node000001_Node000027" class="edge">
<title>Node1&#45;&gt;Node27</title>
<g id="a_edge41_Node000001_Node000027"><a xlink:title=" ">
<path fill="none" stroke="#63b8ff" d="M689.67,-559.81C610.58,-555.71 381.85,-541.93 311.88,-516.5 270.22,-501.37 253.53,-498.07 228.88,-461.25 210.25,-433.44 209.99,-419.28 217.88,-386.75 220.05,-377.77 224.37,-368.57 228.69,-360.88"/>
<polygon fill="#63b8ff" stroke="#63b8ff" points="231.59,-362.85 233.77,-352.48 225.6,-359.22 231.59,-362.85"/>
</a>
</g>
</g>
<!-- Node28 -->
<g id="Node000028" class="node">
<title>Node28</title>
<g id="a_Node000028"><a xlink:href="console__log__writer_8hpp.html" target="_top" xlink:title=" ">
<polygon fill="white" stroke="#666666" points="987.62,-295.5 814.12,-295.5 814.12,-276.25 987.62,-276.25 987.62,-295.5"/>
<text text-anchor="middle" x="900.88" y="-282" font-family="Helvetica,sans-Serif" font-size="10.00">liger/core/log/console_log_writer.hpp</text>
</a>
</g>
</g>
<!-- Node1&#45;&gt;Node28 -->
<g id="edge35_Node000001_Node000028" class="edge">
<title>Node1&#45;&gt;Node28</title>
<g id="a_edge35_Node000001_Node000028"><a xlink:title=" ">
<path fill="none" stroke="#63b8ff" d="M737.19,-552.06C768.47,-536.56 824.88,-501.79 824.88,-452.62 824.88,-452.62 824.88,-452.62 824.88,-395.38 824.88,-356.77 857.56,-322.14 880.06,-302.87"/>
<polygon fill="#63b8ff" stroke="#63b8ff" points="881.98,-305.82 887.49,-296.77 877.54,-300.41 881.98,-305.82"/>
</a>
</g>
</g>
<!-- Node31 -->
<g id="Node000031" class="node">
<title>Node31</title>
<g id="a_Node000031"><a xlink:href="math__formatting_8hpp.html" target="_top" xlink:title=" ">
<polygon fill="white" stroke="#666666" points="796.25,-295.5 623.5,-295.5 623.5,-276.25 796.25,-276.25 796.25,-295.5"/>
<text text-anchor="middle" x="709.88" y="-282" font-family="Helvetica,sans-Serif" font-size="10.00">liger/core/math/math_formatting.hpp</text>
</a>
</g>
</g>
<!-- Node1&#45;&gt;Node31 -->
<g id="edge42_Node000001_Node000031" class="edge">
<title>Node1&#45;&gt;Node31</title>
<g id="a_edge42_Node000001_Node000031"><a xlink:title=" ">
<path fill="none" stroke="#63b8ff" d="M716.88,-552.12C716.88,-533.53 716.88,-489.55 716.88,-452.62 716.88,-452.62 716.88,-452.62 716.88,-395.38 716.88,-364.59 714.03,-329 711.97,-307.22"/>
<polygon fill="#63b8ff" stroke="#63b8ff" points="715.47,-306.98 711,-297.37 708.5,-307.67 715.47,-306.98"/>
</a>
</g>
</g>
<!-- Node32 -->
<g id="Node000032" class="node">
<title>Node32</title>
<g id="a_Node000032"><a xlink:href="random_8hpp.html" target="_top" xlink:title=" ">
<polygon fill="white" stroke="#666666" points="689.12,-406 554.62,-406 554.62,-386.75 689.12,-386.75 689.12,-406"/>
<text text-anchor="middle" x="621.88" y="-392.5" font-family="Helvetica,sans-Serif" font-size="10.00">liger/core/math/random.hpp</text>
</a>
</g>
</g>
<!-- Node1&#45;&gt;Node32 -->
<g id="edge45_Node000001_Node000032" class="edge">
<title>Node1&#45;&gt;Node32</title>
<g id="a_edge45_Node000001_Node000032"><a xlink:title=" ">
<path fill="none" stroke="#63b8ff" d="M711.77,-552.32C696.82,-526.55 652.93,-450.9 632.53,-415.74"/>
<polygon fill="#63b8ff" stroke="#63b8ff" points="635.81,-414.42 627.77,-407.53 629.76,-417.94 635.81,-414.42"/>
</a>
</g>
</g>
<!-- Node33 -->
<g id="Node000033" class="node">
<title>Node33</title>
<g id="a_Node000033"><a xlink:href="platform__layer_8hpp.html" target="_top" xlink:title=" ">
<polygon fill="white" stroke="#666666" points="1346.12,-240.25 1169.62,-240.25 1169.62,-221 1346.12,-221 1346.12,-240.25"/>
<text text-anchor="middle" x="1257.88" y="-226.75" font-family="Helvetica,sans-Serif" font-size="10.00">liger/core/platform/platform_layer.hpp</text>
</a>
</g>
</g>
<!-- Node1&#45;&gt;Node33 -->
<g id="edge47_Node000001_Node000033" class="edge">
<title>Node1&#45;&gt;Node33</title>
<g id="a_edge47_Node000001_Node000033"><a xlink:title=" ">
<path fill="none" stroke="#63b8ff" d="M743.94,-561.28C850.32,-561.16 1233.88,-553.74 1233.88,-452.62 1233.88,-452.62 1233.88,-452.62 1233.88,-340.12 1233.88,-308.37 1243.8,-272.59 1250.88,-251.09"/>
<polygon fill="#63b8ff" stroke="#63b8ff" points="1254.1,-252.51 1254.05,-241.91 1247.48,-250.23 1254.1,-252.51"/>
</a>
</g>
</g>
<!-- Node38 -->
<g id="Node000038" class="node">
<title>Node38</title>
<g id="a_Node000038"><a xlink:href="time_8hpp.html" target="_top" xlink:title=" ">
<polygon fill="white" stroke="#666666" points="1064,-350.75 967.75,-350.75 967.75,-331.5 1064,-331.5 1064,-350.75"/>
<text text-anchor="middle" x="1015.88" y="-337.25" font-family="Helvetica,sans-Serif" font-size="10.00">liger/core/time.hpp</text>
</a>
</g>
</g>
<!-- Node1&#45;&gt;Node38 -->
<g id="edge55_Node000001_Node000038" class="edge">
<title>Node1&#45;&gt;Node38</title>
<g id="a_edge55_Node000001_Node000038"><a xlink:title=" ">
<path fill="none" stroke="#63b8ff" d="M743.89,-559.43C799.22,-555.44 922.83,-543.65 953.88,-516.5 999.61,-476.51 975.4,-443.58 996.88,-386.75 1000.07,-378.28 1003.94,-369.06 1007.34,-361.2"/>
<polygon fill="#63b8ff" stroke="#63b8ff" points="1010.43,-362.87 1011.26,-352.31 1004.03,-360.05 1010.43,-362.87"/>
</a>
</g>
</g>
<!-- Node39 -->
<g id="Node000039" class="node">
<title>Node39</title>
<g id="a_Node000039"><a xlink:href="uuid_8hpp.html" target="_top" xlink:title=" ">
<polygon fill="white" stroke="#666666" points="1101.62,-406 1006.12,-406 1006.12,-386.75 1101.62,-386.75 1101.62,-406"/>
<text text-anchor="middle" x="1053.88" y="-392.5" font-family="Helvetica,sans-Serif" font-size="10.00">liger/core/uuid.hpp</text>
</a>
</g>
</g>
<!-- Node1&#45;&gt;Node39 -->
<g id="edge58_Node000001_Node000039" class="edge">
<title>Node1&#45;&gt;Node39</title>
<g id="a_edge58_Node000001_Node000039"><a xlink:title=" ">
<path fill="none" stroke="#63b8ff" d="M744.05,-559.77C805.42,-556.25 952.48,-544.98 991.88,-516.5 1025.31,-492.33 1042.15,-444.65 1049.36,-417.51"/>
<polygon fill="#63b8ff" stroke="#63b8ff" points="1052.75,-418.36 1051.73,-407.81 1045.95,-416.7 1052.75,-418.36"/>
</a>
</g>
</g>
<!-- Node3&#45;&gt;Node4 -->
<g id="edge3_Node000003_Node000004" class="edge">
<title>Node3&#45;&gt;Node4</title>
<g id="a_edge3_Node000003_Node000004"><a xlink:title=" ">
<path fill="none" stroke="#63b8ff" d="M252.41,-165.45C266.83,-151.03 297.6,-122.95 329.88,-110.5 399.98,-83.45 615.3,-72 722.67,-67.87"/>
<polygon fill="#63b8ff" stroke="#63b8ff" points="722.59,-71.38 732.45,-67.51 722.33,-64.38 722.59,-71.38"/>
</a>
</g>
</g>
<!-- Node13 -->
<g id="Node000013" class="node">
<title>Node13</title>
<g id="a_Node000013"><a xlink:title=" ">
<polygon fill="#e0e0e0" stroke="#999999" points="353.75,-19.25 292,-19.25 292,0 353.75,0 353.75,-19.25"/>
<text text-anchor="middle" x="322.88" y="-5.75" font-family="Helvetica,sans-Serif" font-size="10.00">type_traits</text>
</a>
</g>
</g>
<!-- Node3&#45;&gt;Node13 -->
<g id="edge15_Node000003_Node000013" class="edge">
<title>Node3&#45;&gt;Node13</title>
<g id="a_edge15_Node000003_Node000013"><a xlink:title=" ">
<path fill="none" stroke="#63b8ff" d="M248.12,-165.57C260.5,-139.92 296.74,-64.8 313.8,-29.44"/>
<polygon fill="#63b8ff" stroke="#63b8ff" points="316.76,-31.36 317.95,-20.84 310.45,-28.32 316.76,-31.36"/>
</a>
</g>
</g>
<!-- Node5 -->
<g id="Node000005" class="node">
<title>Node5</title>
<g id="a_Node000005"><a xlink:title=" ">
<polygon fill="#e0e0e0" stroke="#999999" points="1120.5,-19.25 1075.25,-19.25 1075.25,0 1120.5,0 1120.5,-19.25"/>
<text text-anchor="middle" x="1097.88" y="-5.75" font-family="Helvetica,sans-Serif" font-size="10.00">cstdint</text>
</a>
</g>
</g>
<!-- Node4&#45;&gt;Node5 -->
<g id="edge4_Node000004_Node000005" class="edge">
<title>Node4&#45;&gt;Node5</title>
<g id="a_edge4_Node000004_Node000005"><a xlink:title=" ">
<path fill="none" stroke="#63b8ff" d="M835.89,-57.59C890.24,-50.5 978.99,-37.78 1063.8,-19.73"/>
<polygon fill="#63b8ff" stroke="#63b8ff" points="1064.41,-23.18 1073.45,-17.65 1062.93,-16.34 1064.41,-23.18"/>
</a>
</g>
</g>
<!-- Node6 -->
<g id="Node000006" class="node">
<title>Node6</title>
<g id="a_Node000006"><a xlink:title=" ">
<polygon fill="#e0e0e0" stroke="#999999" points="500.38,-19.25 451.38,-19.25 451.38,0 500.38,0 500.38,-19.25"/>
<text text-anchor="middle" x="475.88" y="-5.75" font-family="Helvetica,sans-Serif" font-size="10.00">fstream</text>
</a>
</g>
</g>
<!-- Node4&#45;&gt;Node6 -->
<g id="edge5_Node000004_Node000006" class="edge">
<title>Node4&#45;&gt;Node6</title>
<g id="a_edge5_Node000004_Node000006"><a xlink:title=" ">
<path fill="none" stroke="#63b8ff" d="M733.74,-57.1C680.52,-49.71 594.55,-36.85 511.8,-19.71"/>
<polygon fill="#63b8ff" stroke="#63b8ff" points="512.67,-16.32 502.16,-17.69 511.23,-23.17 512.67,-16.32"/>
</a>
</g>
</g>
<!-- Node7 -->
<g id="Node000007" class="node">
<title>Node7</title>
<g id="a_Node000007"><a xlink:title=" ">
<polygon fill="#e0e0e0" stroke="#999999" points="587.5,-19.25 518.25,-19.25 518.25,0 587.5,0 587.5,-19.25"/>
<text text-anchor="middle" x="552.88" y="-5.75" font-family="Helvetica,sans-Serif" font-size="10.00">glm/glm.hpp</text>
</a>
</g>
</g>
<!-- Node4&#45;&gt;Node7 -->
<g id="edge6_Node000004_Node000007" class="edge">
<title>Node4&#45;&gt;Node7</title>
<g id="a_edge6_Node000004_Node000007"><a xlink:title=" ">
<path fill="none" stroke="#63b8ff" d="M745.26,-54.78C704.71,-45.48 641.76,-31.03 599,-21.21"/>
<polygon fill="#63b8ff" stroke="#63b8ff" points="599.78,-17.8 589.25,-18.98 598.22,-24.62 599.78,-17.8"/>
</a>
</g>
</g>
<!-- Node8 -->
<g id="Node000008" class="node">
<title>Node8</title>
<g id="a_Node000008"><a xlink:title=" ">
<polygon fill="#e0e0e0" stroke="#999999" points="658.62,-19.25 605.12,-19.25 605.12,0 658.62,0 658.62,-19.25"/>
<text text-anchor="middle" x="631.88" y="-5.75" font-family="Helvetica,sans-Serif" font-size="10.00">iostream</text>
</a>
</g>
</g>
<!-- Node4&#45;&gt;Node8 -->
<g id="edge7_Node000004_Node000008" class="edge">
<title>Node4&#45;&gt;Node8</title>
<g id="a_edge7_Node000004_Node000008"><a xlink:title=" ">
<path fill="none" stroke="#63b8ff" d="M758.92,-54.84C734.08,-46.2 696.38,-33.07 668.49,-23.37"/>
<polygon fill="#63b8ff" stroke="#63b8ff" points="669.98,-20.18 659.39,-20.2 667.68,-26.79 669.98,-20.18"/>
</a>
</g>
</g>
<!-- Node9 -->
<g id="Node000009" class="node">
<title>Node9</title>
<g id="a_Node000009"><a xlink:title=" ">
<polygon fill="#e0e0e0" stroke="#999999" points="711.25,-19.25 676.5,-19.25 676.5,0 711.25,0 711.25,-19.25"/>
<text text-anchor="middle" x="693.88" y="-5.75" font-family="Helvetica,sans-Serif" font-size="10.00">map</text>
</a>
</g>
</g>
<!-- Node4&#45;&gt;Node9 -->
<g id="edge8_Node000004_Node000009" class="edge">
<title>Node4&#45;&gt;Node9</title>
<g id="a_edge8_Node000004_Node000009"><a xlink:title=" ">
<path fill="none" stroke="#63b8ff" d="M769.44,-54.84C755.71,-46.81 735.38,-34.91 719.26,-25.48"/>
<polygon fill="#63b8ff" stroke="#63b8ff" points="721.09,-22.5 710.69,-20.47 717.56,-28.54 721.09,-22.5"/>
</a>
</g>
</g>
<!-- Node10 -->
<g id="Node000010" class="node">
<title>Node10</title>
<g id="a_Node000010"><a xlink:title=" ">
<polygon fill="#e0e0e0" stroke="#999999" points="778,-19.25 729.75,-19.25 729.75,0 778,0 778,-19.25"/>
<text text-anchor="middle" x="753.88" y="-5.75" font-family="Helvetica,sans-Serif" font-size="10.00">random</text>
</a>
</g>
</g>
<!-- Node4&#45;&gt;Node10 -->
<g id="edge9_Node000004_Node000010" class="edge">
<title>Node4&#45;&gt;Node10</title>
<g id="a_edge9_Node000004_Node000010"><a xlink:title=" ">
<path fill="none" stroke="#63b8ff" d="M779.76,-55.08C775.7,-48.11 769.88,-38.12 764.79,-29.37"/>
<polygon fill="#63b8ff" stroke="#63b8ff" points="767.92,-27.8 759.87,-20.92 761.87,-31.32 767.92,-27.8"/>
</a>
</g>
</g>
<!-- Node11 -->
<g id="Node000011" class="node">
<title>Node11</title>
<g id="a_Node000011"><a xlink:title=" ">
<polygon fill="#e0e0e0" stroke="#999999" points="835.88,-19.25 795.88,-19.25 795.88,0 835.88,0 835.88,-19.25"/>
<text text-anchor="middle" x="815.88" y="-5.75" font-family="Helvetica,sans-Serif" font-size="10.00">string</text>
</a>
</g>
</g>
<!-- Node4&#45;&gt;Node11 -->
<g id="edge10_Node000004_Node000011" class="edge">
<title>Node4&#45;&gt;Node11</title>
<g id="a_edge10_Node000004_Node000011"><a xlink:title=" ">
<path fill="none" stroke="#63b8ff" d="M789.99,-55.08C794.05,-48.11 799.87,-38.12 804.96,-29.37"/>
<polygon fill="#63b8ff" stroke="#63b8ff" points="807.88,-31.32 809.88,-20.92 801.83,-27.8 807.88,-31.32"/>
</a>
</g>
</g>
<!-- Node12 -->
<g id="Node000012" class="node">
<title>Node12</title>
<g id="a_Node000012"><a xlink:title=" ">
<polygon fill="#e0e0e0" stroke="#999999" points="919.62,-19.25 854.12,-19.25 854.12,0 919.62,0 919.62,-19.25"/>
<text text-anchor="middle" x="886.88" y="-5.75" font-family="Helvetica,sans-Serif" font-size="10.00">string_view</text>
</a>
</g>
</g>
<!-- Node4&#45;&gt;Node12 -->
<g id="edge11_Node000004_Node000012" class="edge">
<title>Node4&#45;&gt;Node12</title>
<g id="a_edge11_Node000004_Node000012"><a xlink:title=" ">
<path fill="none" stroke="#63b8ff" d="M802.18,-54.84C817.86,-46.66 841.23,-34.46 859.45,-24.94"/>
<polygon fill="#63b8ff" stroke="#63b8ff" points="860.9,-28.13 868.15,-20.4 857.66,-21.93 860.9,-28.13"/>
</a>
</g>
</g>
<!-- Node4&#45;&gt;Node13 -->
<g id="edge12_Node000004_Node000013" class="edge">
<title>Node4&#45;&gt;Node13</title>
<g id="a_edge12_Node000004_Node000013"><a xlink:title=" ">
<path fill="none" stroke="#63b8ff" d="M733.67,-57.97C641.78,-47.38 450.58,-25.34 365.4,-15.53"/>
<polygon fill="#63b8ff" stroke="#63b8ff" points="365.95,-12.07 355.61,-14.4 365.14,-19.02 365.95,-12.07"/>
</a>
</g>
</g>
<!-- Node14 -->
<g id="Node000014" class="node">
<title>Node14</title>
<g id="a_Node000014"><a xlink:title=" ">
<polygon fill="#e0e0e0" stroke="#999999" points="995.88,-19.25 937.88,-19.25 937.88,0 995.88,0 995.88,-19.25"/>
<text text-anchor="middle" x="966.88" y="-5.75" font-family="Helvetica,sans-Serif" font-size="10.00">typeindex</text>
</a>
</g>
</g>
<!-- Node4&#45;&gt;Node14 -->
<g id="edge13_Node000004_Node000014" class="edge">
<title>Node4&#45;&gt;Node14</title>
<g id="a_edge13_Node000004_Node000014"><a xlink:title=" ">
<path fill="none" stroke="#63b8ff" d="M815.75,-54.84C846.36,-45.88 893.41,-32.12 926.88,-22.33"/>
<polygon fill="#63b8ff" stroke="#63b8ff" points="927.59,-25.77 936.21,-19.6 925.63,-19.05 927.59,-25.77"/>
</a>
</g>
</g>
<!-- Node15 -->
<g id="Node000015" class="node">
<title>Node15</title>
<g id="a_Node000015"><a xlink:title=" ">
<polygon fill="#e0e0e0" stroke="#999999" points="1057.38,-19.25 1014.38,-19.25 1014.38,0 1057.38,0 1057.38,-19.25"/>
<text text-anchor="middle" x="1035.88" y="-5.75" font-family="Helvetica,sans-Serif" font-size="10.00">vector</text>
</a>
</g>
</g>
<!-- Node4&#45;&gt;Node15 -->
<g id="edge14_Node000004_Node000015" class="edge">
<title>Node4&#45;&gt;Node15</title>
<g id="a_edge14_Node000004_Node000015"><a xlink:title=" ">
<path fill="none" stroke="#63b8ff" d="M834.9,-54.78C877.19,-46.86 939.61,-34.61 1002.92,-19.58"/>
<polygon fill="#63b8ff" stroke="#63b8ff" points="1003.53,-23.03 1012.44,-17.3 1001.9,-16.23 1003.53,-23.03"/>
</a>
</g>
</g>
<!-- Node16&#45;&gt;Node4 -->
<g id="edge17_Node000016_Node000004" class="edge">
<title>Node16&#45;&gt;Node4</title>
<g id="a_edge17_Node000016_Node000004"><a xlink:title=" ">
<path fill="none" stroke="#63b8ff" d="M1124.71,-441.63C1126.36,-423.06 1129.88,-379.1 1129.88,-342.12 1129.88,-342.12 1129.88,-342.12 1129.88,-174.38 1129.88,-137.77 1109.66,-128.67 1077.88,-110.5 1039.58,-88.61 921.16,-76.02 847.12,-70.1"/>
<polygon fill="#63b8ff" stroke="#63b8ff" points="847.83,-66.64 837.59,-69.36 847.29,-73.62 847.83,-66.64"/>
</a>
</g>
</g>
<!-- Node18 -->
<g id="Node000018" class="node">
<title>Node18</title>
<g id="a_Node000018"><a xlink:href="event__type_8hpp.html" target="_top" xlink:title=" ">
<polygon fill="white" stroke="#666666" points="550.25,-129.75 371.5,-129.75 371.5,-110.5 550.25,-110.5 550.25,-129.75"/>
<text text-anchor="middle" x="460.88" y="-116.25" font-family="Helvetica,sans-Serif" font-size="10.00">liger/core/event/detail/event_type.hpp</text>
</a>
</g>
</g>
<!-- Node17&#45;&gt;Node18 -->
<g id="edge19_Node000017_Node000018" class="edge">
<title>Node17&#45;&gt;Node18</title>
<g id="a_edge19_Node000017_Node000018"><a xlink:title=" ">
<path fill="none" stroke="#63b8ff" d="M411.4,-496.9C414.43,-478.37 420.88,-434.48 420.88,-397.38 420.88,-397.38 420.88,-397.38 420.88,-229.62 420.88,-196.44 437.55,-160.88 449.37,-139.84"/>
<polygon fill="#63b8ff" stroke="#63b8ff" points="452.33,-141.7 454.38,-131.31 446.3,-138.16 452.33,-141.7"/>
</a>
</g>
</g>
<!-- Node19 -->
<g id="Node000019" class="node">
<title>Node19</title>
<g id="a_Node000019"><a xlink:href="event__sink_8hpp.html" target="_top" xlink:title=" ">
<polygon fill="white" stroke="#666666" points="389.75,-461.25 238,-461.25 238,-442 389.75,-442 389.75,-461.25"/>
<text text-anchor="middle" x="313.88" y="-447.75" font-family="Helvetica,sans-Serif" font-size="10.00">liger/core/event/event_sink.hpp</text>
</a>
</g>
</g>
<!-- Node17&#45;&gt;Node19 -->
<g id="edge21_Node000017_Node000019" class="edge">
<title>Node17&#45;&gt;Node19</title>
<g id="a_edge21_Node000017_Node000019"><a xlink:title=" ">
<path fill="none" stroke="#63b8ff" d="M393.59,-496.84C378.97,-488.73 357.25,-476.68 340.17,-467.21"/>
<polygon fill="#63b8ff" stroke="#63b8ff" points="342.01,-464.23 331.56,-462.44 338.61,-470.35 342.01,-464.23"/>
</a>
</g>
</g>
<!-- Node18&#45;&gt;Node4 -->
<g id="edge20_Node000018_Node000004" class="edge">
<title>Node18&#45;&gt;Node4</title>
<g id="a_edge20_Node000018_Node000004"><a xlink:title=" ">
<path fill="none" stroke="#63b8ff" d="M516.2,-110.03C573.51,-100.61 662.87,-85.93 722.61,-76.11"/>
<polygon fill="#63b8ff" stroke="#63b8ff" points="722.99,-79.59 732.29,-74.52 721.85,-72.69 722.99,-79.59"/>
</a>
</g>
</g>
<!-- Node20 -->
<g id="Node000020" class="node">
<title>Node20</title>
<g id="a_Node000020"><a xlink:href="callback_8hpp.html" target="_top" xlink:title=" ">
<polygon fill="white" stroke="#666666" points="393.25,-406 226.5,-406 226.5,-386.75 393.25,-386.75 393.25,-406"/>
<text text-anchor="middle" x="309.88" y="-392.5" font-family="Helvetica,sans-Serif" font-size="10.00">liger/core/event/detail/callback.hpp</text>
</a>
</g>
</g>
<!-- Node19&#45;&gt;Node20 -->
<g id="edge22_Node000019_Node000020" class="edge">
<title>Node19&#45;&gt;Node20</title>
<g id="a_edge22_Node000019_Node000020"><a xlink:title=" ">
<path fill="none" stroke="#63b8ff" d="M313.21,-441.83C312.72,-435.24 312.02,-425.96 311.39,-417.57"/>
<polygon fill="#63b8ff" stroke="#63b8ff" points="314.9,-417.58 310.66,-407.87 307.92,-418.1 314.9,-417.58"/>
</a>
</g>
</g>
<!-- Node20&#45;&gt;Node4 -->
<g id="edge34_Node000020_Node000004" class="edge">
<title>Node20&#45;&gt;Node4</title>
<g id="a_edge34_Node000020_Node000004"><a xlink:title=" ">
<path fill="none" stroke="#63b8ff" d="M314.75,-386.39C324.15,-368.17 343.88,-325.37 343.88,-286.88 343.88,-286.88 343.88,-286.88 343.88,-174.38 343.88,-144.76 340.1,-129.43 362.88,-110.5 389.96,-87.98 612.06,-74.21 722.71,-68.68"/>
<polygon fill="#63b8ff" stroke="#63b8ff" points="722.7,-72.18 732.51,-68.19 722.35,-65.19 722.7,-72.18"/>
</a>
</g>
</g>
<!-- Node20&#45;&gt;Node21 -->
<g id="edge23_Node000020_Node000021" class="edge">
<title>Node20&#45;&gt;Node21</title>
<g id="a_edge23_Node000020_Node000021"><a xlink:title=" ">
<path fill="none" stroke="#63b8ff" d="M345.33,-386.34C380.31,-377.43 433.97,-363.76 472.36,-353.98"/>
<polygon fill="#63b8ff" stroke="#63b8ff" points="472.95,-357.44 481.78,-351.58 471.23,-350.65 472.95,-357.44"/>
</a>
</g>
</g>
<!-- Node20&#45;&gt;Node27 -->
<g id="edge32_Node000020_Node000027" class="edge">
<title>Node20&#45;&gt;Node27</title>
<g id="a_edge32_Node000020_Node000027"><a xlink:title=" ">
<path fill="none" stroke="#63b8ff" d="M298.17,-386.34C288.1,-378.57 273.33,-367.17 261.31,-357.9"/>
<polygon fill="#63b8ff" stroke="#63b8ff" points="263.66,-355.29 253.61,-351.95 259.38,-360.83 263.66,-355.29"/>
</a>
</g>
</g>
<!-- Node22 -->
<g id="Node000022" class="node">
<title>Node22</title>
<g id="a_Node000022"><a xlink:href="log_8hpp.html" target="_top" xlink:title=" ">
<polygon fill="white" stroke="#666666" points="567.88,-295.5 461.88,-295.5 461.88,-276.25 567.88,-276.25 567.88,-295.5"/>
<text text-anchor="middle" x="514.88" y="-282" font-family="Helvetica,sans-Serif" font-size="10.00">liger/core/log/log.hpp</text>
</a>
</g>
</g>
<!-- Node21&#45;&gt;Node22 -->
<g id="edge24_Node000021_Node000022" class="edge">
<title>Node21&#45;&gt;Node22</title>
<g id="a_edge24_Node000021_Node000022"><a xlink:title=" ">
<path fill="none" stroke="#63b8ff" d="M518.21,-331.33C517.72,-324.74 517.02,-315.46 516.39,-307.07"/>
<polygon fill="#63b8ff" stroke="#63b8ff" points="519.9,-307.08 515.66,-297.37 512.92,-307.6 519.9,-307.08"/>
</a>
</g>
</g>
<!-- Node23 -->
<g id="Node000023" class="node">
<title>Node23</title>
<g id="a_Node000023"><a xlink:title=" ">
<polygon fill="#e0e0e0" stroke="#999999" points="776,-240.25 715.75,-240.25 715.75,-221 776,-221 776,-240.25"/>
<text text-anchor="middle" x="745.88" y="-226.75" font-family="Helvetica,sans-Serif" font-size="10.00">fmt/core.h</text>
</a>
</g>
</g>
<!-- Node22&#45;&gt;Node23 -->
<g id="edge25_Node000022_Node000023" class="edge">
<title>Node22&#45;&gt;Node23</title>
<g id="a_edge25_Node000022_Node000023"><a xlink:title=" ">
<path fill="none" stroke="#63b8ff" d="M554.32,-275.78C596.11,-266.15 661.8,-251.01 704.36,-241.2"/>
<polygon fill="#63b8ff" stroke="#63b8ff" points="705.01,-244.64 713.97,-238.98 703.44,-237.82 705.01,-244.64"/>
</a>
</g>
</g>
<!-- Node24 -->
<g id="Node000024" class="node">
<title>Node24</title>
<g id="a_Node000024"><a xlink:href="log__message_8hpp.html" target="_top" xlink:title=" ">
<polygon fill="white" stroke="#666666" points="685.38,-185 534.38,-185 534.38,-165.75 685.38,-165.75 685.38,-185"/>
<text text-anchor="middle" x="609.88" y="-171.5" font-family="Helvetica,sans-Serif" font-size="10.00">liger/core/log/log_message.hpp</text>
</a>
</g>
</g>
<!-- Node22&#45;&gt;Node24 -->
<g id="edge26_Node000022_Node000024" class="edge">
<title>Node22&#45;&gt;Node24</title>
<g id="a_edge26_Node000022_Node000024"><a xlink:title=" ">
<path fill="none" stroke="#63b8ff" d="M512.42,-275.75C509.41,-262.51 505.97,-237.73 516.88,-221 526.58,-206.11 542.74,-196.05 558.89,-189.33"/>
<polygon fill="#63b8ff" stroke="#63b8ff" points="559.88,-192.69 568.01,-185.9 557.42,-186.14 559.88,-192.69"/>
</a>
</g>
</g>
<!-- Node26 -->
<g id="Node000026" class="node">
<title>Node26</title>
<g id="a_Node000026"><a xlink:href="log__writer_8hpp.html" target="_top" xlink:title=" ">
<polygon fill="white" stroke="#666666" points="660.12,-240.25 525.62,-240.25 525.62,-221 660.12,-221 660.12,-240.25"/>
<text text-anchor="middle" x="592.88" y="-226.75" font-family="Helvetica,sans-Serif" font-size="10.00">liger/core/log/log_writer.hpp</text>
</a>
</g>
</g>
<!-- Node22&#45;&gt;Node26 -->
<g id="edge30_Node000022_Node000026" class="edge">
<title>Node22&#45;&gt;Node26</title>
<g id="a_edge30_Node000022_Node000026"><a xlink:title=" ">
<path fill="none" stroke="#63b8ff" d="M528.11,-275.84C539.65,-267.96 556.64,-256.36 570.32,-247.02"/>
<polygon fill="#63b8ff" stroke="#63b8ff" points="572.04,-250.08 578.33,-241.56 568.1,-244.3 572.04,-250.08"/>
</a>
</g>
</g>
<!-- Node24&#45;&gt;Node4 -->
<g id="edge29_Node000024_Node000004" class="edge">
<title>Node24&#45;&gt;Node4</title>
<g id="a_edge29_Node000024_Node000004"><a xlink:title=" ">
<path fill="none" stroke="#63b8ff" d="M634.84,-165.34C655.46,-157.36 685.09,-144.7 708.88,-129.75 730.87,-115.92 753.31,-96.24 768.04,-82.38"/>
<polygon fill="#63b8ff" stroke="#63b8ff" points="770.26,-85.11 775.06,-75.66 765.42,-80.05 770.26,-85.11"/>
</a>
</g>
</g>
<!-- Node25 -->
<g id="Node000025" class="node">
<title>Node25</title>
<g id="a_Node000025"><a xlink:href="log__level_8hpp.html" target="_top" xlink:title=" ">
<polygon fill="white" stroke="#666666" points="699.62,-129.75 568.12,-129.75 568.12,-110.5 699.62,-110.5 699.62,-129.75"/>
<text text-anchor="middle" x="633.88" y="-116.25" font-family="Helvetica,sans-Serif" font-size="10.00">liger/core/log/log_level.hpp</text>
</a>
</g>
</g>
<!-- Node24&#45;&gt;Node25 -->
<g id="edge27_Node000024_Node000025" class="edge">
<title>Node24&#45;&gt;Node25</title>
<g id="a_edge27_Node000024_Node000025"><a xlink:title=" ">
<path fill="none" stroke="#63b8ff" d="M613.84,-165.58C616.91,-158.76 621.29,-149.06 625.16,-140.45"/>
<polygon fill="#63b8ff" stroke="#63b8ff" points="628.29,-142.04 629.2,-131.49 621.9,-139.17 628.29,-142.04"/>
</a>
</g>
</g>
<!-- Node25&#45;&gt;Node4 -->
<g id="edge28_Node000025_Node000004" class="edge">
<title>Node25&#45;&gt;Node4</title>
<g id="a_edge28_Node000025_Node000004"><a xlink:title=" ">
<path fill="none" stroke="#63b8ff" d="M659.49,-110.09C683.89,-101.49 720.89,-88.44 748.37,-78.75"/>
<polygon fill="#63b8ff" stroke="#63b8ff" points="749.44,-82.08 757.71,-75.46 747.11,-75.48 749.44,-82.08"/>
</a>
</g>
</g>
<!-- Node26&#45;&gt;Node24 -->
<g id="edge31_Node000026_Node000024" class="edge">
<title>Node26&#45;&gt;Node24</title>
<g id="a_edge31_Node000026_Node000024"><a xlink:title=" ">
<path fill="none" stroke="#63b8ff" d="M595.68,-220.83C597.81,-214.17 600.82,-204.74 603.52,-196.28"/>
<polygon fill="#63b8ff" stroke="#63b8ff" points="606.84,-197.39 606.55,-186.8 600.17,-195.26 606.84,-197.39"/>
</a>
</g>
</g>
<!-- Node27&#45;&gt;Node3 -->
<g id="edge33_Node000027_Node000003" class="edge">
<title>Node27&#45;&gt;Node3</title>
<g id="a_edge33_Node000027_Node000003"><a xlink:title=" ">
<path fill="none" stroke="#63b8ff" d="M241.04,-331.32C241.5,-306 242.85,-232.5 243.5,-196.59"/>
<polygon fill="#63b8ff" stroke="#63b8ff" points="247,-196.8 243.69,-186.74 240,-196.67 247,-196.8"/>
</a>
</g>
</g>
<!-- Node28&#45;&gt;Node23 -->
<g id="edge37_Node000028_Node000023" class="edge">
<title>Node28&#45;&gt;Node23</title>
<g id="a_edge37_Node000028_Node000023"><a xlink:title=" ">
<path fill="none" stroke="#63b8ff" d="M874.58,-275.84C849.42,-267.2 811.22,-254.07 782.97,-244.37"/>
<polygon fill="#63b8ff" stroke="#63b8ff" points="784.32,-241.13 773.73,-241.19 782.05,-247.75 784.32,-241.13"/>
</a>
</g>
</g>
<!-- Node28&#45;&gt;Node26 -->
<g id="edge39_Node000028_Node000026" class="edge">
<title>Node28&#45;&gt;Node26</title>
<g id="a_edge39_Node000028_Node000026"><a xlink:title=" ">
<path fill="none" stroke="#63b8ff" d="M848.28,-275.78C795.31,-266.62 713.54,-252.49 656.85,-242.69"/>
<polygon fill="#63b8ff" stroke="#63b8ff" points="657.45,-239.24 647,-240.98 656.26,-246.14 657.45,-239.24"/>
</a>
</g>
</g>
<!-- Node29 -->
<g id="Node000029" class="node">
<title>Node29</title>
<g id="a_Node000029"><a xlink:title=" ">
<polygon fill="#e0e0e0" stroke="#999999" points="893.75,-240.25 832,-240.25 832,-221 893.75,-221 893.75,-240.25"/>
<text text-anchor="middle" x="862.88" y="-226.75" font-family="Helvetica,sans-Serif" font-size="10.00">fmt/color.h</text>
</a>
</g>
</g>
<!-- Node28&#45;&gt;Node29 -->
<g id="edge36_Node000028_Node000029" class="edge">
<title>Node28&#45;&gt;Node29</title>
<g id="a_edge36_Node000028_Node000029"><a xlink:title=" ">
<path fill="none" stroke="#63b8ff" d="M894.6,-276.08C889.52,-268.96 882.18,-258.68 875.84,-249.8"/>
<polygon fill="#63b8ff" stroke="#63b8ff" points="878.82,-247.95 870.17,-241.84 873.13,-252.01 878.82,-247.95"/>
</a>
</g>
</g>
<!-- Node30 -->
<g id="Node000030" class="node">
<title>Node30</title>
<g id="a_Node000030"><a xlink:title=" ">
<polygon fill="#e0e0e0" stroke="#999999" points="988.25,-240.25 911.5,-240.25 911.5,-221 988.25,-221 988.25,-240.25"/>
<text text-anchor="middle" x="949.88" y="-226.75" font-family="Helvetica,sans-Serif" font-size="10.00">fmt/ostream.h</text>
</a>
</g>
</g>
<!-- Node28&#45;&gt;Node30 -->
<g id="edge38_Node000028_Node000030" class="edge">
<title>Node28&#45;&gt;Node30</title>
<g id="a_edge38_Node000028_Node000030"><a xlink:title=" ">
<path fill="none" stroke="#63b8ff" d="M908.97,-276.08C915.73,-268.73 925.6,-258.01 933.94,-248.94"/>
<polygon fill="#63b8ff" stroke="#63b8ff" points="936.39,-251.45 940.58,-241.72 931.24,-246.71 936.39,-251.45"/>
</a>
</g>
</g>
<!-- Node31&#45;&gt;Node4 -->
<g id="edge44_Node000031_Node000004" class="edge">
<title>Node31&#45;&gt;Node4</title>
<g id="a_edge44_Node000031_Node000004"><a xlink:title=" ">
<path fill="none" stroke="#63b8ff" d="M738.66,-275.85C755.36,-268.96 774.99,-257.64 784.88,-240.25 813,-190.8 799.83,-119.98 790.84,-85.82"/>
<polygon fill="#63b8ff" stroke="#63b8ff" points="794.28,-85.14 788.21,-76.45 787.55,-87.03 794.28,-85.14"/>
</a>
</g>
</g>
<!-- Node31&#45;&gt;Node23 -->
<g id="edge43_Node000031_Node000023" class="edge">
<title>Node31&#45;&gt;Node23</title>
<g id="a_edge43_Node000031_Node000023"><a xlink:title=" ">
<path fill="none" stroke="#63b8ff" d="M715.82,-276.08C720.59,-269.03 727.44,-258.9 733.4,-250.08"/>
<polygon fill="#63b8ff" stroke="#63b8ff" points="736.25,-252.11 738.95,-241.86 730.45,-248.19 736.25,-252.11"/>
</a>
</g>
</g>
<!-- Node32&#45;&gt;Node4 -->
<g id="edge46_Node000032_Node000004" class="edge">
<title>Node32&#45;&gt;Node4</title>
<g id="a_edge46_Node000032_Node000004"><a xlink:title=" ">
<path fill="none" stroke="#63b8ff" d="M618.32,-386.33C610.75,-365.46 595.23,-312.96 614.88,-276.25 628.49,-250.82 648.49,-260.66 668.88,-240.25 717.82,-191.26 758.15,-118.64 775.59,-84.67"/>
<polygon fill="#63b8ff" stroke="#63b8ff" points="778.54,-86.58 779.92,-76.08 772.29,-83.43 778.54,-86.58"/>
</a>
</g>
</g>
<!-- Node34 -->
<g id="Node000034" class="node">
<title>Node34</title>
<g id="a_Node000034"><a xlink:href="keyboard_8hpp.html" target="_top" xlink:title=" ">
<polygon fill="white" stroke="#666666" points="1478.62,-129.75 1323.12,-129.75 1323.12,-110.5 1478.62,-110.5 1478.62,-129.75"/>
<text text-anchor="middle" x="1400.88" y="-116.25" font-family="Helvetica,sans-Serif" font-size="10.00">liger/core/platform/keyboard.hpp</text>
</a>
</g>
</g>
<!-- Node33&#45;&gt;Node34 -->
<g id="edge48_Node000033_Node000034" class="edge">
<title>Node33&#45;&gt;Node34</title>
<g id="a_edge48_Node000033_Node000034"><a xlink:title=" ">
<path fill="none" stroke="#63b8ff" d="M1264.21,-220.88C1274.09,-207.68 1294.31,-182.43 1315.88,-165.75 1331.88,-153.37 1351.82,-142.69 1368.37,-134.89"/>
<polygon fill="#63b8ff" stroke="#63b8ff" points="1369.65,-138.15 1377.29,-130.82 1366.74,-131.78 1369.65,-138.15"/>
</a>
</g>
</g>
<!-- Node36 -->
<g id="Node000036" class="node">
<title>Node36</title>
<g id="a_Node000036"><a xlink:href="mouse_8hpp.html" target="_top" xlink:title=" ">
<polygon fill="white" stroke="#666666" points="1469.38,-185 1324.38,-185 1324.38,-165.75 1469.38,-165.75 1469.38,-185"/>
<text text-anchor="middle" x="1396.88" y="-171.5" font-family="Helvetica,sans-Serif" font-size="10.00">liger/core/platform/mouse.hpp</text>
</a>
</g>
</g>
<!-- Node33&#45;&gt;Node36 -->
<g id="edge51_Node000033_Node000036" class="edge">
<title>Node33&#45;&gt;Node36</title>
<g id="a_edge51_Node000033_Node000036"><a xlink:title=" ">
<path fill="none" stroke="#63b8ff" d="M1281.45,-220.59C1303.72,-212.06 1337.37,-199.17 1362.6,-189.51"/>
<polygon fill="#63b8ff" stroke="#63b8ff" points="1363.68,-192.84 1371.77,-185.99 1361.18,-186.3 1363.68,-192.84"/>
</a>
</g>
</g>
<!-- Node37 -->
<g id="Node000037" class="node">
<title>Node37</title>
<g id="a_Node000037"><a xlink:href="window_8hpp.html" target="_top" xlink:title=" ">
<polygon fill="white" stroke="#666666" points="1305.5,-129.75 1158.25,-129.75 1158.25,-110.5 1305.5,-110.5 1305.5,-129.75"/>
<text text-anchor="middle" x="1231.88" y="-116.25" font-family="Helvetica,sans-Serif" font-size="10.00">liger/core/platform/window.hpp</text>
</a>
</g>
</g>
<!-- Node33&#45;&gt;Node37 -->
<g id="edge53_Node000033_Node000037" class="edge">
<title>Node33&#45;&gt;Node37</title>
<g id="a_edge53_Node000033_Node000037"><a xlink:title=" ">
<path fill="none" stroke="#63b8ff" d="M1255.75,-220.75C1251.61,-203.5 1242.41,-165.08 1236.71,-141.31"/>
<polygon fill="#63b8ff" stroke="#63b8ff" points="1240.12,-140.51 1234.38,-131.6 1233.31,-142.14 1240.12,-140.51"/>
</a>
</g>
</g>
<!-- Node34&#45;&gt;Node4 -->
<g id="edge50_Node000034_Node000004" class="edge">
<title>Node34&#45;&gt;Node4</title>
<g id="a_edge50_Node000034_Node000004"><a xlink:title=" ">
<path fill="none" stroke="#63b8ff" d="M1323.06,-111.27C1320.3,-111 1317.56,-110.75 1314.88,-110.5 1145.94,-94.92 946.5,-78.72 847.36,-70.81"/>
<polygon fill="#63b8ff" stroke="#63b8ff" points="847.82,-67.34 837.57,-70.03 847.26,-74.31 847.82,-67.34"/>
</a>
</g>
</g>
<!-- Node35 -->
<g id="Node000035" class="node">
<title>Node35</title>
<g id="a_Node000035"><a xlink:title=" ">
<polygon fill="#e0e0e0" stroke="#999999" points="1440.38,-74.5 1361.38,-74.5 1361.38,-55.25 1440.38,-55.25 1440.38,-74.5"/>
<text text-anchor="middle" x="1400.88" y="-61" font-family="Helvetica,sans-Serif" font-size="10.00">GLFW/glfw3.h</text>
</a>
</g>
</g>
<!-- Node34&#45;&gt;Node35 -->
<g id="edge49_Node000034_Node000035" class="edge">
<title>Node34&#45;&gt;Node35</title>
<g id="a_edge49_Node000034_Node000035"><a xlink:title=" ">
<path fill="none" stroke="#63b8ff" d="M1400.88,-110.33C1400.88,-103.82 1400.88,-94.67 1400.88,-86.37"/>
<polygon fill="#63b8ff" stroke="#63b8ff" points="1404.38,-86.37 1400.88,-76.37 1397.38,-86.37 1404.38,-86.37"/>
</a>
</g>
</g>
<!-- Node36&#45;&gt;Node34 -->
<g id="edge52_Node000036_Node000034" class="edge">
<title>Node36&#45;&gt;Node34</title>
<g id="a_edge52_Node000036_Node000034"><a xlink:title=" ">
<path fill="none" stroke="#63b8ff" d="M1397.54,-165.58C1398.03,-158.99 1398.73,-149.71 1399.36,-141.32"/>
<polygon fill="#63b8ff" stroke="#63b8ff" points="1402.83,-141.85 1400.09,-131.62 1395.85,-141.33 1402.83,-141.85"/>
</a>
</g>
</g>
<!-- Node37&#45;&gt;Node4 -->
<g id="edge54_Node000037_Node000004" class="edge">
<title>Node37&#45;&gt;Node4</title>
<g id="a_edge54_Node000037_Node000004"><a xlink:title=" ">
<path fill="none" stroke="#63b8ff" d="M1157.81,-110.3C1070.96,-99.96 928.56,-82.99 847.15,-73.29"/>
<polygon fill="#63b8ff" stroke="#63b8ff" points="847.93,-69.86 837.58,-72.15 847.1,-76.81 847.93,-69.86"/>
</a>
</g>
</g>
<!-- Node38&#45;&gt;Node4 -->
<g id="edge56_Node000038_Node000004" class="edge">
<title>Node38&#45;&gt;Node4</title>
<g id="a_edge56_Node000038_Node000004"><a xlink:title=" ">
<path fill="none" stroke="#63b8ff" d="M1021.32,-331.21C1031.83,-313.13 1053.88,-270.54 1053.88,-231.62 1053.88,-231.62 1053.88,-231.62 1053.88,-174.38 1053.88,-144.05 1053.15,-129.94 1029.88,-110.5 1002.81,-87.9 910.79,-75.98 847.56,-70.31"/>
<polygon fill="#63b8ff" stroke="#63b8ff" points="847.88,-66.83 837.62,-69.45 847.28,-73.8 847.88,-66.83"/>
</a>
</g>
</g>
<!-- Node39&#45;&gt;Node4 -->
<g id="edge59_Node000039_Node000004" class="edge">
<title>Node39&#45;&gt;Node4</title>
<g id="a_edge59_Node000039_Node000004"><a xlink:title=" ">
<path fill="none" stroke="#63b8ff" d="M1059.32,-386.46C1069.83,-368.38 1091.88,-325.79 1091.88,-286.88 1091.88,-286.88 1091.88,-286.88 1091.88,-174.38 1091.88,-140.88 1079.74,-129.09 1051.88,-110.5 1019.22,-88.71 915.45,-76.35 847.31,-70.4"/>
<polygon fill="#63b8ff" stroke="#63b8ff" points="847.63,-66.91 837.37,-69.56 847.04,-73.89 847.63,-66.91"/>
</a>
</g>
</g>
</g>
</svg>

<g id="navigator" transform="translate(0 0)" fill="#404254">
  <rect fill="#f2f5e9" fill-opacity="0.5" stroke="#606060" stroke-width=".5" x="0" y="0" width="60" height="60"/>
  <use id="zoomplus" xlink:href="#zoomPlus" x="17" y="9" onmousedown="handleZoom(evt,'in')"/>
  <use id="zoomminus" xlink:href="#zoomMin" x="42" y="9" onmousedown="handleZoom(evt,'out')"/>
  <use id="reset" xlink:href="#resetDef" x="30" y="36" onmousedown="handleReset()"/>
   <use id="arrowup" xlink:href="#arrowUp" x="0" y="0" onmousedown="handlePan(0,-1)"/>
  <use id="arrowright" xlink:href="#arrowRight" x="0" y="0" onmousedown="handlePan(1,0)"/>
  <use id="arrowdown" xlink:href="#arrowDown" x="0" y="0" onmousedown="handlePan(0,1)"/>
  <use id="arrowleft" xlink:href="#arrowLeft" x="0" y="0" onmousedown="handlePan(-1,0)"/>
</g>
<svg viewBox="0 0 15 15" width="100%" height="30px" preserveAspectRatio="xMaxYMin meet">
 <g id="arrow_out" transform="scale(0.3 0.3)">
  <a xlink:href="core_8hpp__incl_org.svg" target="_base">
   <rect id="button" ry="5" rx="5" y="6" x="6" height="38" width="38"
        fill="#f2f5e9" fill-opacity="0.5" stroke="#606060" stroke-width="1.0"/>
   <path id="arrow"
     d="M 11.500037,31.436501 C 11.940474,20.09759 22.043105,11.32322 32.158766,21.979434 L 37.068811,17.246167 C 37.068811,17.246167 37.088388,32 37.088388,32 L 22.160133,31.978069 C 22.160133,31.978069 26.997745,27.140456 26.997745,27.140456 C 18.528582,18.264221 13.291696,25.230495 11.500037,31.436501 z"
     style="fill:#404040;"/>
  </a>
 </g>
</svg>

<style type='text/css'>
<![CDATA[
[data-mouse-over-selected='false'] { opacity: 0.7; }
[data-mouse-over-selected='true']  { opacity: 1.0; }
]]>
</style>
<script type="application/ecmascript"><![CDATA[
document.addEventListener('DOMContentLoaded', (event) => {
  highlightEdges();
  highlightAdjacentNodes();
});
]]></script>
</svg>
