<?xml version="1.0" encoding="UTF-8" standalone="no"?>
<!DOCTYPE svg PUBLIC "-//W3C//DTD SVG 1.1//EN"
 "http://www.w3.org/Graphics/SVG/1.1/DTD/svg11.dtd">
<!-- Generated by graphviz version 7.1.0 (20230121.1956)
 -->
<!-- Title: core.hpp Pages: 1 -->
<svg width="1100pt" height="644pt"
 viewBox="0.00 0.00 1100.00 644.00" xmlns="http://www.w3.org/2000/svg" xmlns:xlink="http://www.w3.org/1999/xlink">
<g id="graph0" class="graph" transform="scale(1 1) rotate(0) translate(4 640)">
<title>core.hpp</title>
<polygon fill="white" stroke="none" points="-4,4 -4,-640 1096,-640 1096,4 -4,4"/>
<!-- Node1 -->
<g id="node1" class="node">
<title>Node1</title>
<g id="a_node1"><a xlink:title=" ">
<polygon fill="#bfbfbf" stroke="black" points="603,-616.5 603,-635.5 657,-635.5 657,-616.5 603,-616.5"/>
<text text-anchor="middle" x="630" y="-623.5" font-family="Helvetica,sans-Serif" font-size="10.00">core.hpp</text>
</a>
</g>
</g>
<!-- Node2 -->
<g id="node2" class="node">
<title>Node2</title>
<g id="a_node2"><a xlink:href="enum__bitmask_8hpp.html" target="_top" xlink:title=" ">
<polygon fill="white" stroke="black" points="0,-560.5 0,-579.5 142,-579.5 142,-560.5 0,-560.5"/>
<text text-anchor="middle" x="71" y="-567.5" font-family="Helvetica,sans-Serif" font-size="10.00">liger/core/enum_bitmask.hpp</text>
</a>
</g>
</g>
<!-- Node1&#45;&gt;Node2 -->
<g id="edge1" class="edge">
<title>Node1&#45;&gt;Node2</title>
<path fill="none" stroke="midnightblue" d="M603,-622.54C530.59,-615.92 326.05,-597.07 156,-580 155,-579.9 153.99,-579.8 152.98,-579.7"/>
<polygon fill="midnightblue" stroke="midnightblue" points="153.76,-576.26 143.46,-578.72 153.05,-583.22 153.76,-576.26"/>
</g>
<!-- Node4 -->
<g id="node4" class="node">
<title>Node4</title>
<g id="a_node4"><a xlink:href="types_8hpp.html" target="_top" xlink:title=" ">
<polygon fill="white" stroke="black" points="487,-56.5 487,-75.5 589,-75.5 589,-56.5 487,-56.5"/>
<text text-anchor="middle" x="538" y="-63.5" font-family="Helvetica,sans-Serif" font-size="10.00">liger/core/types.hpp</text>
</a>
</g>
</g>
<!-- Node1&#45;&gt;Node4 -->
<g id="edge42" class="edge">
<title>Node1&#45;&gt;Node4</title>
<path fill="none" stroke="midnightblue" d="M603.24,-624.1C526.02,-621.17 304.14,-610.28 239,-580 200.79,-562.24 170,-557.13 170,-515 170,-515 170,-515 170,-177 170,-113.93 370.92,-84.01 475.84,-72.68"/>
<polygon fill="midnightblue" stroke="midnightblue" points="476.13,-76.17 485.71,-71.64 475.4,-69.21 476.13,-76.17"/>
</g>
<!-- Node15 -->
<g id="node15" class="node">
<title>Node15</title>
<g id="a_node15"><a xlink:href="enum__class_8hpp.html" target="_top" xlink:title=" ">
<polygon fill="white" stroke="black" points="472.5,-112.5 472.5,-131.5 603.5,-131.5 603.5,-112.5 472.5,-112.5"/>
<text text-anchor="middle" x="538" y="-119.5" font-family="Helvetica,sans-Serif" font-size="10.00">liger/core/enum_class.hpp</text>
</a>
</g>
</g>
<!-- Node1&#45;&gt;Node15 -->
<g id="edge14" class="edge">
<title>Node1&#45;&gt;Node15</title>
<path fill="none" stroke="midnightblue" d="M609.33,-616.52C553.88,-592.26 406,-516.88 406,-403 406,-403 406,-403 406,-233 406,-183.1 462.36,-151.45 501.42,-135.5"/>
<polygon fill="midnightblue" stroke="midnightblue" points="502.46,-138.85 510.51,-131.96 499.92,-132.33 502.46,-138.85"/>
</g>
<!-- Node16 -->
<g id="node16" class="node">
<title>Node16</title>
<g id="a_node16"><a xlink:href="event__dispatcher_8hpp.html" target="_top" xlink:title=" ">
<polygon fill="white" stroke="black" points="248.5,-560.5 248.5,-579.5 427.5,-579.5 427.5,-560.5 248.5,-560.5"/>
<text text-anchor="middle" x="338" y="-567.5" font-family="Helvetica,sans-Serif" font-size="10.00">liger/core/event/event_dispatcher.hpp</text>
</a>
</g>
</g>
<!-- Node1&#45;&gt;Node16 -->
<g id="edge16" class="edge">
<title>Node1&#45;&gt;Node16</title>
<path fill="none" stroke="midnightblue" d="M603.05,-620.02C556,-611.32 457.91,-593.17 395.15,-581.57"/>
<polygon fill="midnightblue" stroke="midnightblue" points="395.82,-578.13 385.35,-579.76 394.55,-585.02 395.82,-578.13"/>
</g>
<!-- Node20 -->
<g id="node20" class="node">
<title>Node20</title>
<g id="a_node20"><a xlink:href="default__log_8hpp.html" target="_top" xlink:title=" ">
<polygon fill="white" stroke="black" points="472.5,-392.5 472.5,-411.5 613.5,-411.5 613.5,-392.5 472.5,-392.5"/>
<text text-anchor="middle" x="543" y="-399.5" font-family="Helvetica,sans-Serif" font-size="10.00">liger/core/log/default_log.hpp</text>
</a>
</g>
</g>
<!-- Node1&#45;&gt;Node20 -->
<g id="edge38" class="edge">
<title>Node1&#45;&gt;Node20</title>
<path fill="none" stroke="midnightblue" d="M631.34,-616.84C635.25,-590.24 644.36,-504.56 610,-448 601.73,-434.39 587.61,-424 574.45,-416.65"/>
<polygon fill="midnightblue" stroke="midnightblue" points="576.08,-413.55 565.58,-412.09 572.88,-419.78 576.08,-413.55"/>
</g>
<!-- Node26 -->
<g id="node26" class="node">
<title>Node26</title>
<g id="a_node26"><a xlink:href="log__channels_8hpp_source.html" target="_top" xlink:title=" ">
<polygon fill="white" stroke="black" points="631.5,-392.5 631.5,-411.5 782.5,-411.5 782.5,-392.5 631.5,-392.5"/>
<text text-anchor="middle" x="707" y="-399.5" font-family="Helvetica,sans-Serif" font-size="10.00">liger/core/log/log_channels.hpp</text>
</a>
</g>
</g>
<!-- Node1&#45;&gt;Node26 -->
<g id="edge39" class="edge">
<title>Node1&#45;&gt;Node26</title>
<path fill="none" stroke="midnightblue" d="M632.92,-616.57C644.1,-584.36 684.26,-468.56 700.31,-422.29"/>
<polygon fill="midnightblue" stroke="midnightblue" points="703.61,-423.46 703.58,-412.87 696.99,-421.17 703.61,-423.46"/>
</g>
<!-- Node27 -->
<g id="node27" class="node">
<title>Node27</title>
<g id="a_node27"><a xlink:href="console__log__writer_8hpp.html" target="_top" xlink:title=" ">
<polygon fill="white" stroke="black" points="724,-336.5 724,-355.5 898,-355.5 898,-336.5 724,-336.5"/>
<text text-anchor="middle" x="811" y="-343.5" font-family="Helvetica,sans-Serif" font-size="10.00">liger/core/log/console_log_writer.hpp</text>
</a>
</g>
</g>
<!-- Node1&#45;&gt;Node27 -->
<g id="edge33" class="edge">
<title>Node1&#45;&gt;Node27</title>
<path fill="none" stroke="midnightblue" d="M656.71,-621.32C707.06,-612.72 811,-586.34 811,-515 811,-515 811,-515 811,-457 811,-425.38 811,-388.65 811,-366.64"/>
<polygon fill="midnightblue" stroke="midnightblue" points="814.5,-366.79 811,-356.79 807.5,-366.79 814.5,-366.79"/>
</g>
<!-- Node30 -->
<g id="node30" class="node">
<title>Node30</title>
<g id="a_node30"><a xlink:href="time_8hpp.html" target="_top" xlink:title=" ">
<polygon fill="white" stroke="black" points="810.5,-224.5 810.5,-243.5 907.5,-243.5 907.5,-224.5 810.5,-224.5"/>
<text text-anchor="middle" x="859" y="-231.5" font-family="Helvetica,sans-Serif" font-size="10.00">liger/core/time.hpp</text>
</a>
</g>
</g>
<!-- Node1&#45;&gt;Node30 -->
<g id="edge40" class="edge">
<title>Node1&#45;&gt;Node30</title>
<path fill="none" stroke="midnightblue" d="M656.8,-622.13C736.75,-612.85 968,-580.34 968,-515 968,-515 968,-515 968,-345 968,-314.77 967.49,-303.11 948,-280 935.34,-264.98 916.42,-254.44 899.27,-247.35"/>
<polygon fill="midnightblue" stroke="midnightblue" points="900.91,-244.23 890.32,-243.92 898.4,-250.76 900.91,-244.23"/>
</g>
<!-- Node31 -->
<g id="node31" class="node">
<title>Node31</title>
<g id="a_node31"><a xlink:href="uuid_8hpp.html" target="_top" xlink:title=" ">
<polygon fill="white" stroke="black" points="996,-448.5 996,-467.5 1092,-467.5 1092,-448.5 996,-448.5"/>
<text text-anchor="middle" x="1044" y="-455.5" font-family="Helvetica,sans-Serif" font-size="10.00">liger/core/uuid.hpp</text>
</a>
</g>
</g>
<!-- Node1&#45;&gt;Node31 -->
<g id="edge43" class="edge">
<title>Node1&#45;&gt;Node31</title>
<path fill="none" stroke="midnightblue" d="M656.95,-624.73C729.96,-623.52 929.56,-616.82 982,-580 1016.69,-555.64 1033.22,-505.92 1040,-478.41"/>
<polygon fill="midnightblue" stroke="midnightblue" points="1043.41,-479.19 1042.18,-468.67 1036.58,-477.66 1043.41,-479.19"/>
</g>
<!-- Node3 -->
<g id="node3" class="node">
<title>Node3</title>
<g id="a_node3"><a xlink:title=" ">
<polygon fill="white" stroke="#bfbfbf" points="30.5,-504.5 30.5,-523.5 103.5,-523.5 103.5,-504.5 30.5,-504.5"/>
<text text-anchor="middle" x="67" y="-511.5" font-family="Helvetica,sans-Serif" font-size="10.00">initializer_list</text>
</a>
</g>
</g>
<!-- Node2&#45;&gt;Node3 -->
<g id="edge2" class="edge">
<title>Node2&#45;&gt;Node3</title>
<path fill="none" stroke="midnightblue" d="M70.38,-560.56C69.86,-553.63 69.11,-543.52 68.45,-534.59"/>
<polygon fill="midnightblue" stroke="midnightblue" points="71.95,-534.42 67.72,-524.71 64.97,-534.94 71.95,-534.42"/>
</g>
<!-- Node2&#45;&gt;Node4 -->
<g id="edge3" class="edge">
<title>Node2&#45;&gt;Node4</title>
<path fill="none" stroke="midnightblue" d="M80.79,-560.64C90.04,-552.24 103.72,-538.5 112,-524 126.98,-497.75 132,-489.23 132,-459 132,-459 132,-459 132,-177 132,-146.2 131.81,-131.06 156,-112 204.22,-74.02 380.17,-67.38 475.54,-66.66"/>
<polygon fill="midnightblue" stroke="midnightblue" points="475.54,-70.16 485.52,-66.6 475.5,-63.16 475.54,-70.16"/>
</g>
<!-- Node5 -->
<g id="node5" class="node">
<title>Node5</title>
<g id="a_node5"><a xlink:title=" ">
<polygon fill="white" stroke="#bfbfbf" points="225,-0.5 225,-19.5 271,-19.5 271,-0.5 225,-0.5"/>
<text text-anchor="middle" x="248" y="-7.5" font-family="Helvetica,sans-Serif" font-size="10.00">cstdint</text>
</a>
</g>
</g>
<!-- Node4&#45;&gt;Node5 -->
<g id="edge4" class="edge">
<title>Node4&#45;&gt;Node5</title>
<path fill="none" stroke="midnightblue" d="M487.27,-57.71C437.37,-50.19 358.84,-37.43 281.55,-20.15"/>
<polygon fill="midnightblue" stroke="midnightblue" points="282.66,-16.81 272.13,-18.01 281.11,-23.64 282.66,-16.81"/>
</g>
<!-- Node6 -->
<g id="node6" class="node">
<title>Node6</title>
<g id="a_node6"><a xlink:title=" ">
<polygon fill="white" stroke="#bfbfbf" points="289,-0.5 289,-19.5 339,-19.5 339,-0.5 289,-0.5"/>
<text text-anchor="middle" x="314" y="-7.5" font-family="Helvetica,sans-Serif" font-size="10.00">fstream</text>
</a>
</g>
</g>
<!-- Node4&#45;&gt;Node6 -->
<g id="edge5" class="edge">
<title>Node4&#45;&gt;Node6</title>
<path fill="none" stroke="midnightblue" d="M501.15,-56.57C465.07,-48.26 408.26,-34.99 349.79,-20.4"/>
<polygon fill="midnightblue" stroke="midnightblue" points="350.88,-17.06 340.33,-18.03 349.18,-23.85 350.88,-17.06"/>
</g>
<!-- Node7 -->
<g id="node7" class="node">
<title>Node7</title>
<g id="a_node7"><a xlink:title=" ">
<polygon fill="white" stroke="#bfbfbf" points="357,-0.5 357,-19.5 411,-19.5 411,-0.5 357,-0.5"/>
<text text-anchor="middle" x="384" y="-7.5" font-family="Helvetica,sans-Serif" font-size="10.00">iostream</text>
</a>
</g>
</g>
<!-- Node4&#45;&gt;Node7 -->
<g id="edge6" class="edge">
<title>Node4&#45;&gt;Node7</title>
<path fill="none" stroke="midnightblue" d="M513.94,-56.56C488.36,-47.59 447.67,-33.33 418.65,-23.15"/>
<polygon fill="midnightblue" stroke="midnightblue" points="420.17,-19.97 409.58,-19.97 417.85,-26.58 420.17,-19.97"/>
</g>
<!-- Node8 -->
<g id="node8" class="node">
<title>Node8</title>
<g id="a_node8"><a xlink:title=" ">
<polygon fill="white" stroke="#bfbfbf" points="429.5,-0.5 429.5,-19.5 464.5,-19.5 464.5,-0.5 429.5,-0.5"/>
<text text-anchor="middle" x="447" y="-7.5" font-family="Helvetica,sans-Serif" font-size="10.00">map</text>
</a>
</g>
</g>
<!-- Node4&#45;&gt;Node8 -->
<g id="edge7" class="edge">
<title>Node4&#45;&gt;Node8</title>
<path fill="none" stroke="midnightblue" d="M523.78,-56.56C509.62,-48.16 487.63,-35.11 470.81,-25.13"/>
<polygon fill="midnightblue" stroke="midnightblue" points="472.81,-22.24 462.42,-20.15 469.23,-28.26 472.81,-22.24"/>
</g>
<!-- Node9 -->
<g id="node9" class="node">
<title>Node9</title>
<g id="a_node9"><a xlink:title=" ">
<polygon fill="white" stroke="#bfbfbf" points="482.5,-0.5 482.5,-19.5 531.5,-19.5 531.5,-0.5 482.5,-0.5"/>
<text text-anchor="middle" x="507" y="-7.5" font-family="Helvetica,sans-Serif" font-size="10.00">random</text>
</a>
</g>
</g>
<!-- Node4&#45;&gt;Node9 -->
<g id="edge8" class="edge">
<title>Node4&#45;&gt;Node9</title>
<path fill="none" stroke="midnightblue" d="M533.16,-56.56C528.95,-49.23 522.7,-38.35 517.37,-29.07"/>
<polygon fill="midnightblue" stroke="midnightblue" points="520.48,-27.44 512.46,-20.51 514.41,-30.93 520.48,-27.44"/>
</g>
<!-- Node10 -->
<g id="node10" class="node">
<title>Node10</title>
<g id="a_node10"><a xlink:title=" ">
<polygon fill="white" stroke="#bfbfbf" points="549.5,-0.5 549.5,-19.5 590.5,-19.5 590.5,-0.5 549.5,-0.5"/>
<text text-anchor="middle" x="570" y="-7.5" font-family="Helvetica,sans-Serif" font-size="10.00">string</text>
</a>
</g>
</g>
<!-- Node4&#45;&gt;Node10 -->
<g id="edge9" class="edge">
<title>Node4&#45;&gt;Node10</title>
<path fill="none" stroke="midnightblue" d="M543,-56.56C547.35,-49.23 553.79,-38.35 559.29,-29.07"/>
<polygon fill="midnightblue" stroke="midnightblue" points="562.28,-30.89 564.37,-20.5 556.26,-27.32 562.28,-30.89"/>
</g>
<!-- Node11 -->
<g id="node11" class="node">
<title>Node11</title>
<g id="a_node11"><a xlink:title=" ">
<polygon fill="white" stroke="#bfbfbf" points="609,-0.5 609,-19.5 675,-19.5 675,-0.5 609,-0.5"/>
<text text-anchor="middle" x="642" y="-7.5" font-family="Helvetica,sans-Serif" font-size="10.00">string_view</text>
</a>
</g>
</g>
<!-- Node4&#45;&gt;Node11 -->
<g id="edge10" class="edge">
<title>Node4&#45;&gt;Node11</title>
<path fill="none" stroke="midnightblue" d="M554.25,-56.56C570.74,-48 596.51,-34.62 615.87,-24.57"/>
<polygon fill="midnightblue" stroke="midnightblue" points="617.26,-27.79 624.52,-20.08 614.03,-21.58 617.26,-27.79"/>
</g>
<!-- Node12 -->
<g id="node12" class="node">
<title>Node12</title>
<g id="a_node12"><a xlink:title=" ">
<polygon fill="white" stroke="#bfbfbf" points="693,-0.5 693,-19.5 755,-19.5 755,-0.5 693,-0.5"/>
<text text-anchor="middle" x="724" y="-7.5" font-family="Helvetica,sans-Serif" font-size="10.00">type_traits</text>
</a>
</g>
</g>
<!-- Node4&#45;&gt;Node12 -->
<g id="edge11" class="edge">
<title>Node4&#45;&gt;Node12</title>
<path fill="none" stroke="midnightblue" d="M567.06,-56.56C598.5,-47.44 648.83,-32.82 684,-22.61"/>
<polygon fill="midnightblue" stroke="midnightblue" points="684.75,-26.04 693.38,-19.89 682.8,-19.32 684.75,-26.04"/>
</g>
<!-- Node13 -->
<g id="node13" class="node">
<title>Node13</title>
<g id="a_node13"><a xlink:title=" ">
<polygon fill="white" stroke="#bfbfbf" points="773.5,-0.5 773.5,-19.5 832.5,-19.5 832.5,-0.5 773.5,-0.5"/>
<text text-anchor="middle" x="803" y="-7.5" font-family="Helvetica,sans-Serif" font-size="10.00">typeindex</text>
</a>
</g>
</g>
<!-- Node4&#45;&gt;Node13 -->
<g id="edge12" class="edge">
<title>Node4&#45;&gt;Node13</title>
<path fill="none" stroke="midnightblue" d="M582.68,-56.52C626.01,-48.2 693.89,-34.92 762.6,-20.24"/>
<polygon fill="midnightblue" stroke="midnightblue" points="763.11,-23.72 772.15,-18.19 761.64,-16.87 763.11,-23.72"/>
</g>
<!-- Node14 -->
<g id="node14" class="node">
<title>Node14</title>
<g id="a_node14"><a xlink:title=" ">
<polygon fill="white" stroke="#bfbfbf" points="851,-0.5 851,-19.5 895,-19.5 895,-0.5 851,-0.5"/>
<text text-anchor="middle" x="873" y="-7.5" font-family="Helvetica,sans-Serif" font-size="10.00">vector</text>
</a>
</g>
</g>
<!-- Node4&#45;&gt;Node14 -->
<g id="edge13" class="edge">
<title>Node4&#45;&gt;Node14</title>
<path fill="none" stroke="midnightblue" d="M588.75,-59.46C646.91,-52.66 745.26,-39.83 839.84,-19.96"/>
<polygon fill="midnightblue" stroke="midnightblue" points="840.53,-23.39 849.58,-17.88 839.07,-16.55 840.53,-23.39"/>
</g>
<!-- Node15&#45;&gt;Node4 -->
<g id="edge15" class="edge">
<title>Node15&#45;&gt;Node4</title>
<path fill="none" stroke="midnightblue" d="M538,-112.56C538,-105.63 538,-95.52 538,-86.59"/>
<polygon fill="midnightblue" stroke="midnightblue" points="541.5,-86.71 538,-76.71 534.5,-86.72 541.5,-86.71"/>
</g>
<!-- Node17 -->
<g id="node17" class="node">
<title>Node17</title>
<g id="a_node17"><a xlink:href="event__type_8hpp.html" target="_top" xlink:title=" ">
<polygon fill="white" stroke="black" points="198.5,-168.5 198.5,-187.5 377.5,-187.5 377.5,-168.5 198.5,-168.5"/>
<text text-anchor="middle" x="288" y="-175.5" font-family="Helvetica,sans-Serif" font-size="10.00">liger/core/event/detail/event_type.hpp</text>
</a>
</g>
</g>
<!-- Node16&#45;&gt;Node17 -->
<g id="edge17" class="edge">
<title>Node16&#45;&gt;Node17</title>
<path fill="none" stroke="midnightblue" d="M317.04,-560.64C301.1,-553.27 279.81,-541.02 267,-524 248.9,-499.95 248,-489.1 248,-459 248,-459 248,-459 248,-289 248,-255.07 265.02,-218.6 276.86,-197.34"/>
<polygon fill="midnightblue" stroke="midnightblue" points="279.84,-199.17 281.84,-188.76 273.79,-195.65 279.84,-199.17"/>
</g>
<!-- Node18 -->
<g id="node18" class="node">
<title>Node18</title>
<g id="a_node18"><a xlink:href="event__sink_8hpp.html" target="_top" xlink:title=" ">
<polygon fill="white" stroke="black" points="276,-504.5 276,-523.5 428,-523.5 428,-504.5 276,-504.5"/>
<text text-anchor="middle" x="352" y="-511.5" font-family="Helvetica,sans-Serif" font-size="10.00">liger/core/event/event_sink.hpp</text>
</a>
</g>
</g>
<!-- Node16&#45;&gt;Node18 -->
<g id="edge19" class="edge">
<title>Node16&#45;&gt;Node18</title>
<path fill="none" stroke="midnightblue" d="M340.19,-560.56C342.01,-553.55 344.67,-543.29 347,-534.29"/>
<polygon fill="midnightblue" stroke="midnightblue" points="350.37,-535.22 349.49,-524.67 343.6,-533.47 350.37,-535.22"/>
</g>
<!-- Node17&#45;&gt;Node4 -->
<g id="edge18" class="edge">
<title>Node17&#45;&gt;Node4</title>
<path fill="none" stroke="midnightblue" d="M305.84,-168.59C332.67,-156.01 385.03,-131.65 430,-112 455.68,-100.78 485.04,-88.58 506.66,-79.72"/>
<polygon fill="midnightblue" stroke="midnightblue" points="507.87,-83.01 515.8,-75.99 505.22,-76.53 507.87,-83.01"/>
</g>
<!-- Node19 -->
<g id="node19" class="node">
<title>Node19</title>
<g id="a_node19"><a xlink:href="callback_8hpp.html" target="_top" xlink:title=" ">
<polygon fill="white" stroke="black" points="434.5,-448.5 434.5,-467.5 601.5,-467.5 601.5,-448.5 434.5,-448.5"/>
<text text-anchor="middle" x="518" y="-455.5" font-family="Helvetica,sans-Serif" font-size="10.00">liger/core/event/detail/callback.hpp</text>
</a>
</g>
</g>
<!-- Node18&#45;&gt;Node19 -->
<g id="edge20" class="edge">
<title>Node18&#45;&gt;Node19</title>
<path fill="none" stroke="midnightblue" d="M377.94,-504.56C405.63,-495.55 449.75,-481.2 481.07,-471.01"/>
<polygon fill="midnightblue" stroke="midnightblue" points="482.11,-474.36 490.53,-467.94 479.94,-467.7 482.11,-474.36"/>
</g>
<!-- Node19&#45;&gt;Node4 -->
<g id="edge32" class="edge">
<title>Node19&#45;&gt;Node4</title>
<path fill="none" stroke="midnightblue" d="M503.76,-448.81C491.26,-440.91 473.49,-427.84 463,-412 446.39,-386.9 444,-377.1 444,-347 444,-347 444,-347 444,-177 444,-146.9 444.61,-135.83 463,-112 473.75,-98.07 490.14,-87.53 504.85,-80.17"/>
<polygon fill="midnightblue" stroke="midnightblue" points="506.21,-83.4 513.79,-76 503.25,-77.05 506.21,-83.4"/>
</g>
<!-- Node19&#45;&gt;Node20 -->
<g id="edge21" class="edge">
<title>Node19&#45;&gt;Node20</title>
<path fill="none" stroke="midnightblue" d="M521.91,-448.56C525.26,-441.31 530.23,-430.59 534.5,-421.37"/>
<polygon fill="midnightblue" stroke="midnightblue" points="537.54,-423.12 538.57,-412.57 531.19,-420.18 537.54,-423.12"/>
</g>
<!-- Node19&#45;&gt;Node26 -->
<g id="edge30" class="edge">
<title>Node19&#45;&gt;Node26</title>
<path fill="none" stroke="midnightblue" d="M547.53,-448.56C579.48,-439.44 630.62,-424.82 666.35,-414.61"/>
<polygon fill="midnightblue" stroke="midnightblue" points="667.26,-418 675.91,-411.88 665.33,-411.26 667.26,-418"/>
</g>
<!-- Node21 -->
<g id="node21" class="node">
<title>Node21</title>
<g id="a_node21"><a xlink:href="log_8hpp.html" target="_top" xlink:title=" ">
<polygon fill="white" stroke="black" points="506.5,-336.5 506.5,-355.5 613.5,-355.5 613.5,-336.5 506.5,-336.5"/>
<text text-anchor="middle" x="560" y="-343.5" font-family="Helvetica,sans-Serif" font-size="10.00">liger/core/log/log.hpp</text>
</a>
</g>
</g>
<!-- Node20&#45;&gt;Node21 -->
<g id="edge22" class="edge">
<title>Node20&#45;&gt;Node21</title>
<path fill="none" stroke="midnightblue" d="M545.66,-392.56C547.89,-385.47 551.17,-375.06 554.03,-365.98"/>
<polygon fill="midnightblue" stroke="midnightblue" points="557.3,-367.23 556.96,-356.65 550.62,-365.13 557.3,-367.23"/>
</g>
<!-- Node22 -->
<g id="node22" class="node">
<title>Node22</title>
<g id="a_node22"><a xlink:title=" ">
<polygon fill="white" stroke="#bfbfbf" points="702.5,-280.5 702.5,-299.5 763.5,-299.5 763.5,-280.5 702.5,-280.5"/>
<text text-anchor="middle" x="733" y="-287.5" font-family="Helvetica,sans-Serif" font-size="10.00">fmt/core.h</text>
</a>
</g>
</g>
<!-- Node21&#45;&gt;Node22 -->
<g id="edge23" class="edge">
<title>Node21&#45;&gt;Node22</title>
<path fill="none" stroke="midnightblue" d="M587.03,-336.56C616.02,-327.51 662.28,-313.08 694.94,-302.88"/>
<polygon fill="midnightblue" stroke="midnightblue" points="695.93,-306.24 704.43,-299.92 693.84,-299.56 695.93,-306.24"/>
</g>
<!-- Node23 -->
<g id="node23" class="node">
<title>Node23</title>
<g id="a_node23"><a xlink:href="log__message_8hpp.html" target="_top" xlink:title=" ">
<polygon fill="white" stroke="black" points="483,-224.5 483,-243.5 635,-243.5 635,-224.5 483,-224.5"/>
<text text-anchor="middle" x="559" y="-231.5" font-family="Helvetica,sans-Serif" font-size="10.00">liger/core/log/log_message.hpp</text>
</a>
</g>
</g>
<!-- Node21&#45;&gt;Node23 -->
<g id="edge24" class="edge">
<title>Node21&#45;&gt;Node23</title>
<path fill="none" stroke="midnightblue" d="M541.3,-336.55C527.36,-329.12 509.34,-316.86 501,-300 491.06,-279.92 512.06,-261.31 531.51,-249.19"/>
<polygon fill="midnightblue" stroke="midnightblue" points="533.16,-252.28 540.06,-244.23 529.65,-246.22 533.16,-252.28"/>
</g>
<!-- Node25 -->
<g id="node25" class="node">
<title>Node25</title>
<g id="a_node25"><a xlink:href="log__writer_8hpp.html" target="_top" xlink:title=" ">
<polygon fill="white" stroke="black" points="510.5,-280.5 510.5,-299.5 645.5,-299.5 645.5,-280.5 510.5,-280.5"/>
<text text-anchor="middle" x="578" y="-287.5" font-family="Helvetica,sans-Serif" font-size="10.00">liger/core/log/log_writer.hpp</text>
</a>
</g>
</g>
<!-- Node21&#45;&gt;Node25 -->
<g id="edge28" class="edge">
<title>Node21&#45;&gt;Node25</title>
<path fill="none" stroke="midnightblue" d="M562.81,-336.56C565.18,-329.47 568.65,-319.06 571.67,-309.98"/>
<polygon fill="midnightblue" stroke="midnightblue" points="574.95,-311.23 574.79,-300.64 568.3,-309.02 574.95,-311.23"/>
</g>
<!-- Node23&#45;&gt;Node4 -->
<g id="edge27" class="edge">
<title>Node23&#45;&gt;Node4</title>
<path fill="none" stroke="midnightblue" d="M575.37,-224.62C588.26,-217.01 605.29,-204.47 613,-188 618.84,-175.53 626.87,-137.9 612,-112 603.69,-97.52 588.66,-87.13 574.31,-80.02"/>
<polygon fill="midnightblue" stroke="midnightblue" points="576.02,-76.95 565.47,-76.02 573.14,-83.33 576.02,-76.95"/>
</g>
<!-- Node24 -->
<g id="node24" class="node">
<title>Node24</title>
<g id="a_node24"><a xlink:href="log__level_8hpp.html" target="_top" xlink:title=" ">
<polygon fill="white" stroke="black" points="472,-168.5 472,-187.5 604,-187.5 604,-168.5 472,-168.5"/>
<text text-anchor="middle" x="538" y="-175.5" font-family="Helvetica,sans-Serif" font-size="10.00">liger/core/log/log_level.hpp</text>
</a>
</g>
</g>
<!-- Node23&#45;&gt;Node24 -->
<g id="edge25" class="edge">
<title>Node23&#45;&gt;Node24</title>
<path fill="none" stroke="midnightblue" d="M555.72,-224.56C552.93,-217.39 548.82,-206.82 545.26,-197.67"/>
<polygon fill="midnightblue" stroke="midnightblue" points="548.62,-196.66 541.74,-188.61 542.1,-199.2 548.62,-196.66"/>
</g>
<!-- Node24&#45;&gt;Node15 -->
<g id="edge26" class="edge">
<title>Node24&#45;&gt;Node15</title>
<path fill="none" stroke="midnightblue" d="M538,-168.56C538,-161.63 538,-151.52 538,-142.59"/>
<polygon fill="midnightblue" stroke="midnightblue" points="541.5,-142.71 538,-132.71 534.5,-142.72 541.5,-142.71"/>
</g>
<!-- Node25&#45;&gt;Node23 -->
<g id="edge29" class="edge">
<title>Node25&#45;&gt;Node23</title>
<path fill="none" stroke="midnightblue" d="M575.03,-280.56C572.53,-273.47 568.87,-263.06 565.68,-253.98"/>
<polygon fill="midnightblue" stroke="midnightblue" points="569.01,-252.9 562.39,-244.63 562.41,-255.22 569.01,-252.9"/>
</g>
<!-- Node26&#45;&gt;Node4 -->
<g id="edge31" class="edge">
<title>Node26&#45;&gt;Node4</title>
<path fill="none" stroke="midnightblue" d="M702.69,-392.7C693.74,-374.69 674,-330.48 674,-291 674,-291 674,-291 674,-177 674,-126.37 616.32,-95.03 576.09,-79.33"/>
<polygon fill="midnightblue" stroke="midnightblue" points="577.53,-76.14 566.94,-75.93 575.09,-82.7 577.53,-76.14"/>
</g>
<!-- Node27&#45;&gt;Node22 -->
<g id="edge35" class="edge">
<title>Node27&#45;&gt;Node22</title>
<path fill="none" stroke="midnightblue" d="M798.81,-336.56C786.91,-328.32 768.54,-315.6 754.23,-305.7"/>
<polygon fill="midnightblue" stroke="midnightblue" points="756.56,-303.05 746.35,-300.24 752.58,-308.81 756.56,-303.05"/>
</g>
<!-- Node27&#45;&gt;Node25 -->
<g id="edge37" class="edge">
<title>Node27&#45;&gt;Node25</title>
<path fill="none" stroke="midnightblue" d="M774.34,-336.5C734.14,-327.19 669.49,-312.2 625.45,-302"/>
<polygon fill="midnightblue" stroke="midnightblue" points="626.46,-298.64 615.92,-299.79 624.87,-305.46 626.46,-298.64"/>
</g>
<!-- Node28 -->
<g id="node28" class="node">
<title>Node28</title>
<g id="a_node28"><a xlink:title=" ">
<polygon fill="white" stroke="#bfbfbf" points="782,-280.5 782,-299.5 844,-299.5 844,-280.5 782,-280.5"/>
<text text-anchor="middle" x="813" y="-287.5" font-family="Helvetica,sans-Serif" font-size="10.00">fmt/color.h</text>
</a>
</g>
</g>
<!-- Node27&#45;&gt;Node28 -->
<g id="edge34" class="edge">
<title>Node27&#45;&gt;Node28</title>
<path fill="none" stroke="midnightblue" d="M811.31,-336.56C811.57,-329.63 811.94,-319.52 812.27,-310.59"/>
<polygon fill="midnightblue" stroke="midnightblue" points="815.77,-310.84 812.64,-300.71 808.77,-310.58 815.77,-310.84"/>
</g>
<!-- Node29 -->
<g id="node29" class="node">
<title>Node29</title>
<g id="a_node29"><a xlink:title=" ">
<polygon fill="white" stroke="#bfbfbf" points="862.5,-280.5 862.5,-299.5 939.5,-299.5 939.5,-280.5 862.5,-280.5"/>
<text text-anchor="middle" x="901" y="-287.5" font-family="Helvetica,sans-Serif" font-size="10.00">fmt/ostream.h</text>
</a>
</g>
</g>
<!-- Node27&#45;&gt;Node29 -->
<g id="edge36" class="edge">
<title>Node27&#45;&gt;Node29</title>
<path fill="none" stroke="midnightblue" d="M825.06,-336.56C839.06,-328.16 860.81,-315.11 877.45,-305.13"/>
<polygon fill="midnightblue" stroke="midnightblue" points="878.96,-308.3 885.74,-300.16 875.36,-302.3 878.96,-308.3"/>
</g>
<!-- Node30&#45;&gt;Node4 -->
<g id="edge41" class="edge">
<title>Node30&#45;&gt;Node4</title>
<path fill="none" stroke="midnightblue" d="M849.69,-224.71C825.03,-203.18 755.34,-144.83 688,-112 656.8,-96.79 619.4,-85.55 589.76,-78.12"/>
<polygon fill="midnightblue" stroke="midnightblue" points="590.82,-74.77 580.27,-75.81 589.16,-81.57 590.82,-74.77"/>
</g>
<!-- Node31&#45;&gt;Node4 -->
<g id="edge44" class="edge">
<title>Node31&#45;&gt;Node4</title>
<path fill="none" stroke="midnightblue" d="M1041.52,-448.53C1036.37,-430.19 1025,-385.37 1025,-347 1025,-347 1025,-347 1025,-177 1025,-90.86 731.46,-72.17 600.17,-68.12"/>
<polygon fill="midnightblue" stroke="midnightblue" points="600.35,-64.62 590.25,-67.83 600.15,-71.62 600.35,-64.62"/>
</g>
</g>
</svg>
