<?xml version="1.0" encoding="UTF-8" standalone="no"?>
<!DOCTYPE svg PUBLIC "-//W3C//DTD SVG 1.1//EN"
 "http://www.w3.org/Graphics/SVG/1.1/DTD/svg11.dtd">
<!-- Generated by graphviz version 7.1.0 (20230121.1956)
 -->
<!-- Title: core.hpp Pages: 1 -->
<!--zoomable 644 -->
<svg id="main" version="1.1" xmlns="http://www.w3.org/2000/svg" xmlns:xlink="http://www.w3.org/1999/xlink" xml:space="preserve" onload="init(evt)">
<style type="text/css"><![CDATA[
.edge:hover path { stroke: red; }
.edge:hover polygon { stroke: red; fill: red; }
]]></style>
<script type="text/javascript"><![CDATA[
var edges = document.getElementsByTagName('g');
if (edges && edges.length) {
  for (var i=0;i<edges.length;i++) {
    if (edges[i].id.substr(0,4)=='edge') {
      edges[i].setAttribute('class','edge');
    }
  }
}
]]></script>
        <defs>
                <circle id="rim" cx="0" cy="0" r="7"/>
                <circle id="rim2" cx="0" cy="0" r="3.5"/>
                <g id="zoomPlus">
                        <use xlink:href="#rim" fill="#404040">
                                <set attributeName="fill" to="#808080" begin="zoomplus.mouseover" end="zoomplus.mouseout"/>
                        </use>
                        <path d="M-4,0h8M0,-4v8" fill="none" stroke="white" stroke-width="1.5" pointer-events="none"/>
                </g>
                <g id="zoomMin">
                        <use xlink:href="#rim" fill="#404040">
                                <set attributeName="fill" to="#808080" begin="zoomminus.mouseover" end="zoomminus.mouseout"/>
                        </use>
                        <path d="M-4,0h8" fill="none" stroke="white" stroke-width="1.5" pointer-events="none"/>
                </g>
                <g id="dirArrow">
                        <path fill="none" stroke="white" stroke-width="1.5" d="M0,-3.0v7 M-2.5,-0.5L0,-3.0L2.5,-0.5"/>
                </g>
               <g id="resetDef">
                       <use xlink:href="#rim2" fill="#404040">
                               <set attributeName="fill" to="#808080" begin="reset.mouseover" end="reset.mouseout"/>
                       </use>
               </g>
        </defs>

<script type="text/javascript">
var viewWidth = 984;
var viewHeight = 644;
var sectionId = 'dynsection-0';
</script>
<script xlink:href="svgpan.js"/>
<svg id="graph" class="graph">
<g id="viewport">
<title>core.hpp</title>
<polygon fill="white" stroke="none" points="-4,4 -4,-640 979.5,-640 979.5,4 -4,4"/>
<!-- Node1 -->
<g id="node1" class="node">
<title>Node1</title>
<g id="a_node1"><a xlink:title=" ">
<polygon fill="#bfbfbf" stroke="black" points="496,-616.5 496,-635.5 550,-635.5 550,-616.5 496,-616.5"/>
<text text-anchor="middle" x="523" y="-623.5" font-family="Helvetica,sans-Serif" font-size="10.00">core.hpp</text>
</a>
</g>
</g>
<!-- Node2 -->
<g id="node2" class="node">
<title>Node2</title>
<g id="a_node2"><a xlink:href="enum__bitmask_8hpp.html" target="_top" xlink:title=" ">
<polygon fill="white" stroke="black" points="0,-560.5 0,-579.5 142,-579.5 142,-560.5 0,-560.5"/>
<text text-anchor="middle" x="71" y="-567.5" font-family="Helvetica,sans-Serif" font-size="10.00">liger/core/enum_bitmask.hpp</text>
</a>
</g>
</g>
<!-- Node1&#45;&gt;Node2 -->
<g id="edge1" class="edge">
<title>Node1&#45;&gt;Node2</title>
<path fill="none" stroke="midnightblue" d="M496.08,-621.78C429.86,-613.87 256.9,-593.21 153.15,-580.81"/>
<polygon fill="midnightblue" stroke="midnightblue" points="153.63,-577.35 143.29,-579.64 152.8,-584.3 153.63,-577.35"/>
</g>
<!-- Node4 -->
<g id="node4" class="node">
<title>Node4</title>
<g id="a_node4"><a xlink:href="types_8hpp.html" target="_top" xlink:title=" ">
<polygon fill="white" stroke="black" points="440,-56.5 440,-75.5 542,-75.5 542,-56.5 440,-56.5"/>
<text text-anchor="middle" x="491" y="-63.5" font-family="Helvetica,sans-Serif" font-size="10.00">liger/core/types.hpp</text>
</a>
</g>
</g>
<!-- Node1&#45;&gt;Node4 -->
<g id="edge41" class="edge">
<title>Node1&#45;&gt;Node4</title>
<path fill="none" stroke="midnightblue" d="M496.39,-625.87C444.2,-626.51 325.94,-622.68 239,-580 201.18,-561.43 170,-557.13 170,-515 170,-515 170,-515 170,-177 170,-122.85 335.53,-89.75 428.85,-75.39"/>
<polygon fill="midnightblue" stroke="midnightblue" points="429.27,-78.86 438.64,-73.91 428.23,-71.94 429.27,-78.86"/>
</g>
<!-- Node14 -->
<g id="node14" class="node">
<title>Node14</title>
<g id="a_node14"><a xlink:href="enum__class_8hpp.html" target="_top" xlink:title=" ">
<polygon fill="white" stroke="black" points="472.5,-112.5 472.5,-131.5 603.5,-131.5 603.5,-112.5 472.5,-112.5"/>
<text text-anchor="middle" x="538" y="-119.5" font-family="Helvetica,sans-Serif" font-size="10.00">liger/core/enum_class.hpp</text>
</a>
</g>
</g>
<!-- Node1&#45;&gt;Node14 -->
<g id="edge13" class="edge">
<title>Node1&#45;&gt;Node14</title>
<path fill="none" stroke="midnightblue" d="M516.59,-616.62C499.48,-593.89 452.19,-528.7 425,-468 412.69,-440.53 406,-433.1 406,-403 406,-403 406,-403 406,-233 406,-183.1 462.36,-151.45 501.42,-135.5"/>
<polygon fill="midnightblue" stroke="midnightblue" points="502.46,-138.85 510.51,-131.96 499.92,-132.33 502.46,-138.85"/>
</g>
<!-- Node15 -->
<g id="node15" class="node">
<title>Node15</title>
<g id="a_node15"><a xlink:href="event__dispatcher_8hpp.html" target="_top" xlink:title=" ">
<polygon fill="white" stroke="black" points="248.5,-560.5 248.5,-579.5 427.5,-579.5 427.5,-560.5 248.5,-560.5"/>
<text text-anchor="middle" x="338" y="-567.5" font-family="Helvetica,sans-Serif" font-size="10.00">liger/core/event/event_dispatcher.hpp</text>
</a>
</g>
</g>
<!-- Node1&#45;&gt;Node15 -->
<g id="edge15" class="edge">
<title>Node1&#45;&gt;Node15</title>
<path fill="none" stroke="midnightblue" d="M496.1,-617.15C465.08,-608.09 413.79,-593.12 378.07,-582.7"/>
<polygon fill="midnightblue" stroke="midnightblue" points="379.1,-579.35 368.52,-579.91 377.14,-586.07 379.1,-579.35"/>
</g>
<!-- Node19 -->
<g id="node19" class="node">
<title>Node19</title>
<g id="a_node19"><a xlink:href="default__log_8hpp.html" target="_top" xlink:title=" ">
<polygon fill="white" stroke="black" points="472.5,-392.5 472.5,-411.5 613.5,-411.5 613.5,-392.5 472.5,-392.5"/>
<text text-anchor="middle" x="543" y="-399.5" font-family="Helvetica,sans-Serif" font-size="10.00">liger/core/log/default_log.hpp</text>
</a>
</g>
</g>
<!-- Node1&#45;&gt;Node19 -->
<g id="edge37" class="edge">
<title>Node1&#45;&gt;Node19</title>
<path fill="none" stroke="midnightblue" d="M529.57,-616.81C546.94,-594.56 593.85,-530.45 610,-468 612.23,-459.39 614.18,-455.84 610,-448 602.62,-434.14 588.86,-423.8 575.73,-416.54"/>
<polygon fill="midnightblue" stroke="midnightblue" points="577.32,-413.42 566.81,-412.06 574.17,-419.68 577.32,-413.42"/>
</g>
<!-- Node25 -->
<g id="node25" class="node">
<title>Node25</title>
<g id="a_node25"><a xlink:href="log__channels_8hpp_source.html" target="_top" xlink:title=" ">
<polygon fill="white" stroke="black" points="631.5,-392.5 631.5,-411.5 782.5,-411.5 782.5,-392.5 631.5,-392.5"/>
<text text-anchor="middle" x="707" y="-399.5" font-family="Helvetica,sans-Serif" font-size="10.00">liger/core/log/log_channels.hpp</text>
</a>
</g>
</g>
<!-- Node1&#45;&gt;Node25 -->
<g id="edge38" class="edge">
<title>Node1&#45;&gt;Node25</title>
<path fill="none" stroke="midnightblue" d="M534.44,-616.76C545.87,-608.25 563.62,-594.22 577,-580 626.99,-526.85 674.88,-454.26 695.88,-420.99"/>
<polygon fill="midnightblue" stroke="midnightblue" points="698.81,-422.92 701.14,-412.58 692.87,-419.21 698.81,-422.92"/>
</g>
<!-- Node26 -->
<g id="node26" class="node">
<title>Node26</title>
<g id="a_node26"><a xlink:href="console__log__writer_8hpp.html" target="_top" xlink:title=" ">
<polygon fill="white" stroke="black" points="724,-336.5 724,-355.5 898,-355.5 898,-336.5 724,-336.5"/>
<text text-anchor="middle" x="811" y="-343.5" font-family="Helvetica,sans-Serif" font-size="10.00">liger/core/log/console_log_writer.hpp</text>
</a>
</g>
</g>
<!-- Node1&#45;&gt;Node26 -->
<g id="edge32" class="edge">
<title>Node1&#45;&gt;Node26</title>
<path fill="none" stroke="midnightblue" d="M549.84,-620.68C621.33,-608.4 811,-570.6 811,-515 811,-515 811,-515 811,-457 811,-425.38 811,-388.65 811,-366.64"/>
<polygon fill="midnightblue" stroke="midnightblue" points="814.5,-366.79 811,-356.79 807.5,-366.79 814.5,-366.79"/>
</g>
<!-- Node29 -->
<g id="node29" class="node">
<title>Node29</title>
<g id="a_node29"><a xlink:href="time_8hpp.html" target="_top" xlink:title=" ">
<polygon fill="white" stroke="black" points="878.5,-448.5 878.5,-467.5 975.5,-467.5 975.5,-448.5 878.5,-448.5"/>
<text text-anchor="middle" x="927" y="-455.5" font-family="Helvetica,sans-Serif" font-size="10.00">liger/core/time.hpp</text>
</a>
</g>
</g>
<!-- Node1&#45;&gt;Node29 -->
<g id="edge39" class="edge">
<title>Node1&#45;&gt;Node29</title>
<path fill="none" stroke="midnightblue" d="M549.95,-623.42C614.85,-619.22 777.9,-606.29 825,-580 868.86,-555.52 902.09,-504.3 917.51,-477.01"/>
<polygon fill="midnightblue" stroke="midnightblue" points="920.41,-479.01 922.12,-468.56 914.26,-475.66 920.41,-479.01"/>
</g>
<!-- Node3 -->
<g id="node3" class="node">
<title>Node3</title>
<g id="a_node3"><a xlink:title=" ">
<polygon fill="white" stroke="#bfbfbf" points="68.5,-504.5 68.5,-523.5 141.5,-523.5 141.5,-504.5 68.5,-504.5"/>
<text text-anchor="middle" x="105" y="-511.5" font-family="Helvetica,sans-Serif" font-size="10.00">initializer_list</text>
</a>
</g>
</g>
<!-- Node2&#45;&gt;Node3 -->
<g id="edge2" class="edge">
<title>Node2&#45;&gt;Node3</title>
<path fill="none" stroke="midnightblue" d="M76.31,-560.56C80.98,-553.15 87.93,-542.12 93.82,-532.76"/>
<polygon fill="midnightblue" stroke="midnightblue" points="96.66,-534.81 99.03,-524.48 90.74,-531.08 96.66,-534.81"/>
</g>
<!-- Node2&#45;&gt;Node4 -->
<g id="edge3" class="edge">
<title>Node2&#45;&gt;Node4</title>
<path fill="none" stroke="midnightblue" d="M66.95,-560.67C58.54,-542.6 40,-498.29 40,-459 40,-459 40,-459 40,-177 40,-97.87 305.37,-75.41 428.99,-69.24"/>
<polygon fill="midnightblue" stroke="midnightblue" points="428.81,-72.76 438.63,-68.78 428.47,-65.76 428.81,-72.76"/>
</g>
<!-- Node5 -->
<g id="node5" class="node">
<title>Node5</title>
<g id="a_node5"><a xlink:title=" ">
<polygon fill="white" stroke="#bfbfbf" points="213,-0.5 213,-19.5 259,-19.5 259,-0.5 213,-0.5"/>
<text text-anchor="middle" x="236" y="-7.5" font-family="Helvetica,sans-Serif" font-size="10.00">cstdint</text>
</a>
</g>
</g>
<!-- Node4&#45;&gt;Node5 -->
<g id="edge4" class="edge">
<title>Node4&#45;&gt;Node5</title>
<path fill="none" stroke="midnightblue" d="M443.79,-56.54C400.88,-48.61 335.62,-35.96 269.68,-20.25"/>
<polygon fill="midnightblue" stroke="midnightblue" points="270.68,-16.89 260.14,-17.96 269.05,-23.7 270.68,-16.89"/>
</g>
<!-- Node6 -->
<g id="node6" class="node">
<title>Node6</title>
<g id="a_node6"><a xlink:title=" ">
<polygon fill="white" stroke="#bfbfbf" points="277,-0.5 277,-19.5 327,-19.5 327,-0.5 277,-0.5"/>
<text text-anchor="middle" x="302" y="-7.5" font-family="Helvetica,sans-Serif" font-size="10.00">fstream</text>
</a>
</g>
</g>
<!-- Node4&#45;&gt;Node6 -->
<g id="edge5" class="edge">
<title>Node4&#45;&gt;Node6</title>
<path fill="none" stroke="midnightblue" d="M461.47,-56.56C428.02,-47.01 373.54,-31.44 337.73,-21.21"/>
<polygon fill="midnightblue" stroke="midnightblue" points="338.84,-17.89 328.26,-18.5 336.91,-24.62 338.84,-17.89"/>
</g>
<!-- Node7 -->
<g id="node7" class="node">
<title>Node7</title>
<g id="a_node7"><a xlink:title=" ">
<polygon fill="white" stroke="#bfbfbf" points="345,-0.5 345,-19.5 399,-19.5 399,-0.5 345,-0.5"/>
<text text-anchor="middle" x="372" y="-7.5" font-family="Helvetica,sans-Serif" font-size="10.00">iostream</text>
</a>
</g>
</g>
<!-- Node4&#45;&gt;Node7 -->
<g id="edge6" class="edge">
<title>Node4&#45;&gt;Node7</title>
<path fill="none" stroke="midnightblue" d="M472.41,-56.56C453.19,-47.84 422.95,-34.12 400.68,-24.01"/>
<polygon fill="midnightblue" stroke="midnightblue" points="402.39,-20.95 391.84,-20 399.5,-27.32 402.39,-20.95"/>
</g>
<!-- Node8 -->
<g id="node8" class="node">
<title>Node8</title>
<g id="a_node8"><a xlink:title=" ">
<polygon fill="white" stroke="#bfbfbf" points="417.5,-0.5 417.5,-19.5 452.5,-19.5 452.5,-0.5 417.5,-0.5"/>
<text text-anchor="middle" x="435" y="-7.5" font-family="Helvetica,sans-Serif" font-size="10.00">map</text>
</a>
</g>
</g>
<!-- Node4&#45;&gt;Node8 -->
<g id="edge7" class="edge">
<title>Node4&#45;&gt;Node8</title>
<path fill="none" stroke="midnightblue" d="M482.25,-56.56C474.07,-48.67 461.63,-36.68 451.57,-26.98"/>
<polygon fill="midnightblue" stroke="midnightblue" points="454.22,-24.67 444.59,-20.25 449.36,-29.71 454.22,-24.67"/>
</g>
<!-- Node9 -->
<g id="node9" class="node">
<title>Node9</title>
<g id="a_node9"><a xlink:title=" ">
<polygon fill="white" stroke="#bfbfbf" points="470.5,-0.5 470.5,-19.5 511.5,-19.5 511.5,-0.5 470.5,-0.5"/>
<text text-anchor="middle" x="491" y="-7.5" font-family="Helvetica,sans-Serif" font-size="10.00">string</text>
</a>
</g>
</g>
<!-- Node4&#45;&gt;Node9 -->
<g id="edge8" class="edge">
<title>Node4&#45;&gt;Node9</title>
<path fill="none" stroke="midnightblue" d="M491,-56.56C491,-49.63 491,-39.52 491,-30.59"/>
<polygon fill="midnightblue" stroke="midnightblue" points="494.5,-30.71 491,-20.71 487.5,-30.72 494.5,-30.71"/>
</g>
<!-- Node10 -->
<g id="node10" class="node">
<title>Node10</title>
<g id="a_node10"><a xlink:title=" ">
<polygon fill="white" stroke="#bfbfbf" points="530,-0.5 530,-19.5 596,-19.5 596,-0.5 530,-0.5"/>
<text text-anchor="middle" x="563" y="-7.5" font-family="Helvetica,sans-Serif" font-size="10.00">string_view</text>
</a>
</g>
</g>
<!-- Node4&#45;&gt;Node10 -->
<g id="edge9" class="edge">
<title>Node4&#45;&gt;Node10</title>
<path fill="none" stroke="midnightblue" d="M502.25,-56.56C513.09,-48.43 529.74,-35.95 542.87,-26.1"/>
<polygon fill="midnightblue" stroke="midnightblue" points="544.95,-28.91 550.85,-20.11 540.75,-23.31 544.95,-28.91"/>
</g>
<!-- Node11 -->
<g id="node11" class="node">
<title>Node11</title>
<g id="a_node11"><a xlink:title=" ">
<polygon fill="white" stroke="#bfbfbf" points="614,-0.5 614,-19.5 676,-19.5 676,-0.5 614,-0.5"/>
<text text-anchor="middle" x="645" y="-7.5" font-family="Helvetica,sans-Serif" font-size="10.00">type_traits</text>
</a>
</g>
</g>
<!-- Node4&#45;&gt;Node11 -->
<g id="edge10" class="edge">
<title>Node4&#45;&gt;Node11</title>
<path fill="none" stroke="midnightblue" d="M515.06,-56.56C540.64,-47.59 581.33,-33.33 610.35,-23.15"/>
<polygon fill="midnightblue" stroke="midnightblue" points="611.15,-26.58 619.42,-19.97 608.83,-19.97 611.15,-26.58"/>
</g>
<!-- Node12 -->
<g id="node12" class="node">
<title>Node12</title>
<g id="a_node12"><a xlink:title=" ">
<polygon fill="white" stroke="#bfbfbf" points="694.5,-0.5 694.5,-19.5 753.5,-19.5 753.5,-0.5 694.5,-0.5"/>
<text text-anchor="middle" x="724" y="-7.5" font-family="Helvetica,sans-Serif" font-size="10.00">typeindex</text>
</a>
</g>
</g>
<!-- Node4&#45;&gt;Node12 -->
<g id="edge11" class="edge">
<title>Node4&#45;&gt;Node12</title>
<path fill="none" stroke="midnightblue" d="M527.66,-56.5C570.01,-46.69 639.49,-30.59 683.43,-20.4"/>
<polygon fill="midnightblue" stroke="midnightblue" points="684.13,-23.83 693.09,-18.16 682.55,-17.01 684.13,-23.83"/>
</g>
<!-- Node13 -->
<g id="node13" class="node">
<title>Node13</title>
<g id="a_node13"><a xlink:title=" ">
<polygon fill="white" stroke="#bfbfbf" points="772,-0.5 772,-19.5 816,-19.5 816,-0.5 772,-0.5"/>
<text text-anchor="middle" x="794" y="-7.5" font-family="Helvetica,sans-Serif" font-size="10.00">vector</text>
</a>
</g>
</g>
<!-- Node4&#45;&gt;Node13 -->
<g id="edge12" class="edge">
<title>Node4&#45;&gt;Node13</title>
<path fill="none" stroke="midnightblue" d="M541.77,-58.27C594.11,-50.95 678.27,-38.13 760.93,-19.99"/>
<polygon fill="midnightblue" stroke="midnightblue" points="761.57,-23.43 770.57,-17.85 760.05,-16.6 761.57,-23.43"/>
</g>
<!-- Node14&#45;&gt;Node4 -->
<g id="edge14" class="edge">
<title>Node14&#45;&gt;Node4</title>
<path fill="none" stroke="midnightblue" d="M530.66,-112.56C524,-104.91 513.98,-93.4 505.68,-83.86"/>
<polygon fill="midnightblue" stroke="midnightblue" points="508.34,-81.59 499.13,-76.34 503.06,-86.18 508.34,-81.59"/>
</g>
<!-- Node16 -->
<g id="node16" class="node">
<title>Node16</title>
<g id="a_node16"><a xlink:href="event__type_8hpp.html" target="_top" xlink:title=" ">
<polygon fill="white" stroke="black" points="198.5,-224.5 198.5,-243.5 377.5,-243.5 377.5,-224.5 198.5,-224.5"/>
<text text-anchor="middle" x="288" y="-231.5" font-family="Helvetica,sans-Serif" font-size="10.00">liger/core/event/detail/event_type.hpp</text>
</a>
</g>
</g>
<!-- Node15&#45;&gt;Node16 -->
<g id="edge16" class="edge">
<title>Node15&#45;&gt;Node16</title>
<path fill="none" stroke="midnightblue" d="M317.04,-560.64C301.1,-553.27 279.81,-541.02 267,-524 248.9,-499.95 248,-489.1 248,-459 248,-459 248,-459 248,-345 248,-311.07 265.02,-274.6 276.86,-253.34"/>
<polygon fill="midnightblue" stroke="midnightblue" points="279.84,-255.17 281.84,-244.76 273.79,-251.65 279.84,-255.17"/>
</g>
<!-- Node17 -->
<g id="node17" class="node">
<title>Node17</title>
<g id="a_node17"><a xlink:href="event__sink_8hpp.html" target="_top" xlink:title=" ">
<polygon fill="white" stroke="black" points="276,-504.5 276,-523.5 428,-523.5 428,-504.5 276,-504.5"/>
<text text-anchor="middle" x="352" y="-511.5" font-family="Helvetica,sans-Serif" font-size="10.00">liger/core/event/event_sink.hpp</text>
</a>
</g>
</g>
<!-- Node15&#45;&gt;Node17 -->
<g id="edge18" class="edge">
<title>Node15&#45;&gt;Node17</title>
<path fill="none" stroke="midnightblue" d="M340.19,-560.56C342.01,-553.55 344.67,-543.29 347,-534.29"/>
<polygon fill="midnightblue" stroke="midnightblue" points="350.37,-535.22 349.49,-524.67 343.6,-533.47 350.37,-535.22"/>
</g>
<!-- Node16&#45;&gt;Node4 -->
<g id="edge17" class="edge">
<title>Node16&#45;&gt;Node4</title>
<path fill="none" stroke="midnightblue" d="M297.45,-224.55C319.96,-204.49 378.74,-152.66 430,-112 443.05,-101.65 458.1,-90.53 469.99,-81.94"/>
<polygon fill="midnightblue" stroke="midnightblue" points="471.81,-84.94 477.89,-76.27 467.73,-79.26 471.81,-84.94"/>
</g>
<!-- Node18 -->
<g id="node18" class="node">
<title>Node18</title>
<g id="a_node18"><a xlink:href="callback_8hpp.html" target="_top" xlink:title=" ">
<polygon fill="white" stroke="black" points="434.5,-448.5 434.5,-467.5 601.5,-467.5 601.5,-448.5 434.5,-448.5"/>
<text text-anchor="middle" x="518" y="-455.5" font-family="Helvetica,sans-Serif" font-size="10.00">liger/core/event/detail/callback.hpp</text>
</a>
</g>
</g>
<!-- Node17&#45;&gt;Node18 -->
<g id="edge19" class="edge">
<title>Node17&#45;&gt;Node18</title>
<path fill="none" stroke="midnightblue" d="M377.94,-504.56C405.63,-495.55 449.75,-481.2 481.07,-471.01"/>
<polygon fill="midnightblue" stroke="midnightblue" points="482.11,-474.36 490.53,-467.94 479.94,-467.7 482.11,-474.36"/>
</g>
<!-- Node18&#45;&gt;Node4 -->
<g id="edge31" class="edge">
<title>Node18&#45;&gt;Node4</title>
<path fill="none" stroke="midnightblue" d="M503.76,-448.81C491.26,-440.91 473.49,-427.84 463,-412 446.39,-386.9 444,-377.1 444,-347 444,-347 444,-347 444,-177 444,-142 464.37,-105.41 478.29,-84.49"/>
<polygon fill="midnightblue" stroke="midnightblue" points="480.97,-86.77 483.8,-76.56 475.22,-82.78 480.97,-86.77"/>
</g>
<!-- Node18&#45;&gt;Node19 -->
<g id="edge20" class="edge">
<title>Node18&#45;&gt;Node19</title>
<path fill="none" stroke="midnightblue" d="M521.91,-448.56C525.26,-441.31 530.23,-430.59 534.5,-421.37"/>
<polygon fill="midnightblue" stroke="midnightblue" points="537.54,-423.12 538.57,-412.57 531.19,-420.18 537.54,-423.12"/>
</g>
<!-- Node18&#45;&gt;Node25 -->
<g id="edge29" class="edge">
<title>Node18&#45;&gt;Node25</title>
<path fill="none" stroke="midnightblue" d="M547.53,-448.56C579.48,-439.44 630.62,-424.82 666.35,-414.61"/>
<polygon fill="midnightblue" stroke="midnightblue" points="667.26,-418 675.91,-411.88 665.33,-411.26 667.26,-418"/>
</g>
<!-- Node20 -->
<g id="node20" class="node">
<title>Node20</title>
<g id="a_node20"><a xlink:href="log_8hpp.html" target="_top" xlink:title=" ">
<polygon fill="white" stroke="black" points="507.5,-336.5 507.5,-355.5 614.5,-355.5 614.5,-336.5 507.5,-336.5"/>
<text text-anchor="middle" x="561" y="-343.5" font-family="Helvetica,sans-Serif" font-size="10.00">liger/core/log/log.hpp</text>
</a>
</g>
</g>
<!-- Node19&#45;&gt;Node20 -->
<g id="edge21" class="edge">
<title>Node19&#45;&gt;Node20</title>
<path fill="none" stroke="midnightblue" d="M545.81,-392.56C548.18,-385.47 551.65,-375.06 554.67,-365.98"/>
<polygon fill="midnightblue" stroke="midnightblue" points="557.95,-367.23 557.79,-356.64 551.3,-365.02 557.95,-367.23"/>
</g>
<!-- Node21 -->
<g id="node21" class="node">
<title>Node21</title>
<g id="a_node21"><a xlink:title=" ">
<polygon fill="white" stroke="#bfbfbf" points="702.5,-280.5 702.5,-299.5 763.5,-299.5 763.5,-280.5 702.5,-280.5"/>
<text text-anchor="middle" x="733" y="-287.5" font-family="Helvetica,sans-Serif" font-size="10.00">fmt/core.h</text>
</a>
</g>
</g>
<!-- Node20&#45;&gt;Node21 -->
<g id="edge22" class="edge">
<title>Node20&#45;&gt;Node21</title>
<path fill="none" stroke="midnightblue" d="M587.88,-336.56C616.7,-327.51 662.69,-313.08 695.16,-302.88"/>
<polygon fill="midnightblue" stroke="midnightblue" points="696.09,-306.26 704.59,-299.92 694,-299.58 696.09,-306.26"/>
</g>
<!-- Node22 -->
<g id="node22" class="node">
<title>Node22</title>
<g id="a_node22"><a xlink:href="log__message_8hpp.html" target="_top" xlink:title=" ">
<polygon fill="white" stroke="black" points="483,-224.5 483,-243.5 635,-243.5 635,-224.5 483,-224.5"/>
<text text-anchor="middle" x="559" y="-231.5" font-family="Helvetica,sans-Serif" font-size="10.00">liger/core/log/log_message.hpp</text>
</a>
</g>
</g>
<!-- Node20&#45;&gt;Node22 -->
<g id="edge23" class="edge">
<title>Node20&#45;&gt;Node22</title>
<path fill="none" stroke="midnightblue" d="M542,-336.63C527.82,-329.25 509.5,-317 501,-300 490.98,-279.96 511.99,-261.34 531.46,-249.21"/>
<polygon fill="midnightblue" stroke="midnightblue" points="533.13,-252.29 540.03,-244.25 529.62,-246.24 533.13,-252.29"/>
</g>
<!-- Node24 -->
<g id="node24" class="node">
<title>Node24</title>
<g id="a_node24"><a xlink:href="log__writer_8hpp.html" target="_top" xlink:title=" ">
<polygon fill="white" stroke="black" points="510.5,-280.5 510.5,-299.5 645.5,-299.5 645.5,-280.5 510.5,-280.5"/>
<text text-anchor="middle" x="578" y="-287.5" font-family="Helvetica,sans-Serif" font-size="10.00">liger/core/log/log_writer.hpp</text>
</a>
</g>
</g>
<!-- Node20&#45;&gt;Node24 -->
<g id="edge27" class="edge">
<title>Node20&#45;&gt;Node24</title>
<path fill="none" stroke="midnightblue" d="M563.66,-336.56C565.89,-329.47 569.17,-319.06 572.03,-309.98"/>
<polygon fill="midnightblue" stroke="midnightblue" points="575.3,-311.23 574.96,-300.65 568.62,-309.13 575.3,-311.23"/>
</g>
<!-- Node22&#45;&gt;Node4 -->
<g id="edge26" class="edge">
<title>Node22&#45;&gt;Node4</title>
<path fill="none" stroke="midnightblue" d="M575.37,-224.62C588.26,-217.01 605.29,-204.47 613,-188 619.34,-174.47 628.25,-134.95 612,-112 598.25,-92.59 575.1,-81.54 552.72,-75.25"/>
<polygon fill="midnightblue" stroke="midnightblue" points="553.85,-71.93 543.3,-72.9 552.15,-78.72 553.85,-71.93"/>
</g>
<!-- Node23 -->
<g id="node23" class="node">
<title>Node23</title>
<g id="a_node23"><a xlink:href="log__level_8hpp.html" target="_top" xlink:title=" ">
<polygon fill="white" stroke="black" points="472,-168.5 472,-187.5 604,-187.5 604,-168.5 472,-168.5"/>
<text text-anchor="middle" x="538" y="-175.5" font-family="Helvetica,sans-Serif" font-size="10.00">liger/core/log/log_level.hpp</text>
</a>
</g>
</g>
<!-- Node22&#45;&gt;Node23 -->
<g id="edge24" class="edge">
<title>Node22&#45;&gt;Node23</title>
<path fill="none" stroke="midnightblue" d="M555.72,-224.56C552.93,-217.39 548.82,-206.82 545.26,-197.67"/>
<polygon fill="midnightblue" stroke="midnightblue" points="548.62,-196.66 541.74,-188.61 542.1,-199.2 548.62,-196.66"/>
</g>
<!-- Node23&#45;&gt;Node14 -->
<g id="edge25" class="edge">
<title>Node23&#45;&gt;Node14</title>
<path fill="none" stroke="midnightblue" d="M538,-168.56C538,-161.63 538,-151.52 538,-142.59"/>
<polygon fill="midnightblue" stroke="midnightblue" points="541.5,-142.71 538,-132.71 534.5,-142.72 541.5,-142.71"/>
</g>
<!-- Node24&#45;&gt;Node22 -->
<g id="edge28" class="edge">
<title>Node24&#45;&gt;Node22</title>
<path fill="none" stroke="midnightblue" d="M575.03,-280.56C572.53,-273.47 568.87,-263.06 565.68,-253.98"/>
<polygon fill="midnightblue" stroke="midnightblue" points="569.01,-252.9 562.39,-244.63 562.41,-255.22 569.01,-252.9"/>
</g>
<!-- Node25&#45;&gt;Node4 -->
<g id="edge30" class="edge">
<title>Node25&#45;&gt;Node4</title>
<path fill="none" stroke="midnightblue" d="M702.69,-392.7C693.74,-374.69 674,-330.48 674,-291 674,-291 674,-291 674,-177 674,-119.21 606.12,-91.01 553.05,-77.79"/>
<polygon fill="midnightblue" stroke="midnightblue" points="553.98,-74.42 543.45,-75.54 552.39,-81.23 553.98,-74.42"/>
</g>
<!-- Node26&#45;&gt;Node21 -->
<g id="edge34" class="edge">
<title>Node26&#45;&gt;Node21</title>
<path fill="none" stroke="midnightblue" d="M798.81,-336.56C786.91,-328.32 768.54,-315.6 754.23,-305.7"/>
<polygon fill="midnightblue" stroke="midnightblue" points="756.56,-303.05 746.35,-300.24 752.58,-308.81 756.56,-303.05"/>
</g>
<!-- Node26&#45;&gt;Node24 -->
<g id="edge36" class="edge">
<title>Node26&#45;&gt;Node24</title>
<path fill="none" stroke="midnightblue" d="M774.34,-336.5C734.14,-327.19 669.49,-312.2 625.45,-302"/>
<polygon fill="midnightblue" stroke="midnightblue" points="626.46,-298.64 615.92,-299.79 624.87,-305.46 626.46,-298.64"/>
</g>
<!-- Node27 -->
<g id="node27" class="node">
<title>Node27</title>
<g id="a_node27"><a xlink:title=" ">
<polygon fill="white" stroke="#bfbfbf" points="877,-280.5 877,-299.5 939,-299.5 939,-280.5 877,-280.5"/>
<text text-anchor="middle" x="908" y="-287.5" font-family="Helvetica,sans-Serif" font-size="10.00">fmt/color.h</text>
</a>
</g>
</g>
<!-- Node26&#45;&gt;Node27 -->
<g id="edge33" class="edge">
<title>Node26&#45;&gt;Node27</title>
<path fill="none" stroke="midnightblue" d="M826.16,-336.56C841.39,-328.08 865.13,-314.87 883.13,-304.85"/>
<polygon fill="midnightblue" stroke="midnightblue" points="884.59,-308.04 891.63,-300.11 881.19,-301.92 884.59,-308.04"/>
</g>
<!-- Node28 -->
<g id="node28" class="node">
<title>Node28</title>
<g id="a_node28"><a xlink:title=" ">
<polygon fill="white" stroke="#bfbfbf" points="781.5,-280.5 781.5,-299.5 858.5,-299.5 858.5,-280.5 781.5,-280.5"/>
<text text-anchor="middle" x="820" y="-287.5" font-family="Helvetica,sans-Serif" font-size="10.00">fmt/ostream.h</text>
</a>
</g>
</g>
<!-- Node26&#45;&gt;Node28 -->
<g id="edge35" class="edge">
<title>Node26&#45;&gt;Node28</title>
<path fill="none" stroke="midnightblue" d="M812.41,-336.56C813.58,-329.55 815.28,-319.29 816.79,-310.29"/>
<polygon fill="midnightblue" stroke="midnightblue" points="820.19,-311.13 818.38,-300.69 813.29,-309.98 820.19,-311.13"/>
</g>
<!-- Node29&#45;&gt;Node4 -->
<g id="edge40" class="edge">
<title>Node29&#45;&gt;Node4</title>
<path fill="none" stroke="midnightblue" d="M932.39,-448.54C943.31,-430.59 967,-387.03 967,-347 967,-347 967,-347 967,-177 967,-93.02 682.19,-73.14 553.18,-68.45"/>
<polygon fill="midnightblue" stroke="midnightblue" points="553.57,-64.96 543.45,-68.12 553.33,-71.96 553.57,-64.96"/>
</g>
</g>
</svg>
        <g id="navigator" transform="translate(0 0)" fill="#404254">
                <rect fill="#f2f5e9" fill-opacity="0.5" stroke="#606060" stroke-width=".5" x="0" y="0" width="60" height="60"/>
                <use id="zoomplus" xlink:href="#zoomPlus" x="17" y="9" onmousedown="handleZoom(evt,'in')"/>
                <use id="zoomminus" xlink:href="#zoomMin" x="42" y="9" onmousedown="handleZoom(evt,'out')"/>
                <use id="reset" xlink:href="#resetDef" x="30" y="36" onmousedown="handleReset()"/>
                <g id="arrowUp" xlink:href="#dirArrow" transform="translate(30 24)" onmousedown="handlePan(0,-1)">
                  <use xlink:href="#rim" fill="#404040">
                        <set attributeName="fill" to="#808080" begin="arrowUp.mouseover" end="arrowUp.mouseout"/>
                  </use>
                  <path fill="none" stroke="white" stroke-width="1.5" d="M0,-3.0v7 M-2.5,-0.5L0,-3.0L2.5,-0.5"/>
                </g>
                <g id="arrowRight" xlink:href="#dirArrow" transform="rotate(90) translate(36 -43)" onmousedown="handlePan(1,0)">
                  <use xlink:href="#rim" fill="#404040">
                        <set attributeName="fill" to="#808080" begin="arrowRight.mouseover" end="arrowRight.mouseout"/>
                  </use>
                  <path fill="none" stroke="white" stroke-width="1.5" d="M0,-3.0v7 M-2.5,-0.5L0,-3.0L2.5,-0.5"/>
                </g>
                <g id="arrowDown" xlink:href="#dirArrow" transform="rotate(180) translate(-30 -48)" onmousedown="handlePan(0,1)">
                  <use xlink:href="#rim" fill="#404040">
                        <set attributeName="fill" to="#808080" begin="arrowDown.mouseover" end="arrowDown.mouseout"/>
                  </use>
                  <path fill="none" stroke="white" stroke-width="1.5" d="M0,-3.0v7 M-2.5,-0.5L0,-3.0L2.5,-0.5"/>
                </g>
                <g id="arrowLeft" xlink:href="#dirArrow" transform="rotate(270) translate(-36 17)" onmousedown="handlePan(-1,0)">
                  <use xlink:href="#rim" fill="#404040">
                        <set attributeName="fill" to="#808080" begin="arrowLeft.mouseover" end="arrowLeft.mouseout"/>
                  </use>
                  <path fill="none" stroke="white" stroke-width="1.5" d="M0,-3.0v7 M-2.5,-0.5L0,-3.0L2.5,-0.5"/>
                </g>
        </g>
        <svg viewBox="0 0 15 15" width="100%" height="30px" preserveAspectRatio="xMaxYMin meet">
         <g id="arrow_out" transform="scale(0.3 0.3)">
          <a xlink:href="core_8hpp__incl_org.svg" target="_base">
           <rect id="button" ry="5" rx="5" y="6" x="6" height="38" width="38"
                fill="#f2f5e9" fill-opacity="0.5" stroke="#606060" stroke-width="1.0"/>
           <path id="arrow"
             d="M 11.500037,31.436501 C 11.940474,20.09759 22.043105,11.32322 32.158766,21.979434 L 37.068811,17.246167 C 37.068811,17.246167 37.088388,32 37.088388,32 L 22.160133,31.978069 C 22.160133,31.978069 26.997745,27.140456 26.997745,27.140456 C 18.528582,18.264221 13.291696,25.230495 11.500037,31.436501 z"
             style="fill:#404040;"/>
          </a>
         </g>
        </svg>
</svg>
