<?xml version="1.0" encoding="UTF-8" standalone="no"?>
<!DOCTYPE svg PUBLIC "-//W3C//DTD SVG 1.1//EN"
 "http://www.w3.org/Graphics/SVG/1.1/DTD/svg11.dtd">
<!-- Generated by graphviz version 9.0.0 (20230911.1827)
 -->
<!-- Title: default_log.hpp Pages: 1 -->
<svg width="258pt" height="248pt"
 viewBox="0.00 0.00 258.38 248.25" xmlns="http://www.w3.org/2000/svg" xmlns:xlink="http://www.w3.org/1999/xlink">
<g id="graph0" class="graph" transform="scale(1 1) rotate(0) translate(4 244.25)">
<title>default_log.hpp</title>
<!-- Node1 -->
<g id="Node000001" class="node">
<title>Node1</title>
<g id="a_Node000001"><a xlink:title=" ">
<polygon fill="#999999" stroke="#666666" points="129.12,-240.25 47.12,-240.25 47.12,-221 129.12,-221 129.12,-240.25"/>
<text text-anchor="middle" x="88.12" y="-226.75" font-family="Helvetica,sans-Serif" font-size="10.00">default_log.hpp</text>
</a>
</g>
</g>
<!-- Node2 -->
<g id="Node000002" class="node">
<title>Node2</title>
<g id="a_Node000002"><a xlink:href="log_8hpp.html" target="_top" xlink:title=" ">
<polygon fill="white" stroke="#666666" points="141.12,-185 35.12,-185 35.12,-165.75 141.12,-165.75 141.12,-185"/>
<text text-anchor="middle" x="88.12" y="-171.5" font-family="Helvetica,sans-Serif" font-size="10.00">liger/core/log/log.hpp</text>
</a>
</g>
</g>
<!-- Node1&#45;&gt;Node2 -->
<g id="edge1_Node000001_Node000002" class="edge">
<title>Node1&#45;&gt;Node2</title>
<g id="a_edge1_Node000001_Node000002"><a xlink:title=" ">
<path fill="none" stroke="#63b8ff" d="M88.12,-220.83C88.12,-214.32 88.12,-205.17 88.12,-196.87"/>
<polygon fill="#63b8ff" stroke="#63b8ff" points="91.63,-196.87 88.13,-186.87 84.63,-196.87 91.63,-196.87"/>
</a>
</g>
</g>
<!-- Node3 -->
<g id="Node000003" class="node">
<title>Node3</title>
<g id="a_Node000003"><a xlink:title=" ">
<polygon fill="#e0e0e0" stroke="#999999" points="60.25,-129.75 0,-129.75 0,-110.5 60.25,-110.5 60.25,-129.75"/>
<text text-anchor="middle" x="30.12" y="-116.25" font-family="Helvetica,sans-Serif" font-size="10.00">fmt/core.h</text>
</a>
</g>
</g>
<!-- Node2&#45;&gt;Node3 -->
<g id="edge2_Node000002_Node000003" class="edge">
<title>Node2&#45;&gt;Node3</title>
<g id="a_edge2_Node000002_Node000003"><a xlink:title=" ">
<path fill="none" stroke="#63b8ff" d="M78.29,-165.34C70.07,-157.8 58.14,-146.85 48.21,-137.73"/>
<polygon fill="#63b8ff" stroke="#63b8ff" points="50.67,-135.23 40.93,-131.05 45.93,-140.39 50.67,-135.23"/>
</a>
</g>
</g>
<!-- Node4 -->
<g id="Node000004" class="node">
<title>Node4</title>
<g id="a_Node000004"><a xlink:href="log__message_8hpp.html" target="_top" xlink:title=" ">
<polygon fill="white" stroke="#666666" points="210.62,-74.5 59.62,-74.5 59.62,-55.25 210.62,-55.25 210.62,-74.5"/>
<text text-anchor="middle" x="135.12" y="-61" font-family="Helvetica,sans-Serif" font-size="10.00">liger/core/log/log_message.hpp</text>
</a>
</g>
</g>
<!-- Node2&#45;&gt;Node4 -->
<g id="edge3_Node000002_Node000004" class="edge">
<title>Node2&#45;&gt;Node4</title>
<g id="a_edge3_Node000002_Node000004"><a xlink:title=" ">
<path fill="none" stroke="#63b8ff" d="M89.98,-165.42C92.77,-152.82 98.64,-129.26 107.12,-110.5 111.27,-101.34 117.01,-91.83 122.22,-83.95"/>
<polygon fill="#63b8ff" stroke="#63b8ff" points="124.94,-86.17 127.72,-75.95 119.17,-82.2 124.94,-86.17"/>
</a>
</g>
</g>
<!-- Node6 -->
<g id="Node000006" class="node">
<title>Node6</title>
<g id="a_Node000006"><a xlink:href="log__writer_8hpp.html" target="_top" xlink:title=" ">
<polygon fill="white" stroke="#666666" points="250.38,-129.75 115.88,-129.75 115.88,-110.5 250.38,-110.5 250.38,-129.75"/>
<text text-anchor="middle" x="183.12" y="-116.25" font-family="Helvetica,sans-Serif" font-size="10.00">liger/core/log/log_writer.hpp</text>
</a>
</g>
</g>
<!-- Node2&#45;&gt;Node6 -->
<g id="edge5_Node000002_Node000006" class="edge">
<title>Node2&#45;&gt;Node6</title>
<g id="a_edge5_Node000002_Node000006"><a xlink:title=" ">
<path fill="none" stroke="#63b8ff" d="M104.24,-165.34C118.71,-157.23 140.2,-145.18 157.11,-135.71"/>
<polygon fill="#63b8ff" stroke="#63b8ff" points="158.6,-138.89 165.61,-130.94 155.18,-132.78 158.6,-138.89"/>
</a>
</g>
</g>
<!-- Node5 -->
<g id="Node000005" class="node">
<title>Node5</title>
<g id="a_Node000005"><a xlink:title=" ">
<polygon fill="#e0e0e0" stroke="#999999" points="185.88,-19.25 84.38,-19.25 84.38,0 185.88,0 185.88,-19.25"/>
<text text-anchor="middle" x="135.12" y="-5.75" font-family="Helvetica,sans-Serif" font-size="10.00">liger/core/types.hpp</text>
</a>
</g>
</g>
<!-- Node4&#45;&gt;Node5 -->
<g id="edge4_Node000004_Node000005" class="edge">
<title>Node4&#45;&gt;Node5</title>
<g id="a_edge4_Node000004_Node000005"><a xlink:title=" ">
<path fill="none" stroke="#63b8ff" d="M135.12,-55.08C135.12,-48.57 135.12,-39.42 135.12,-31.12"/>
<polygon fill="#63b8ff" stroke="#63b8ff" points="138.63,-31.12 135.13,-21.12 131.63,-31.12 138.63,-31.12"/>
</a>
</g>
</g>
<!-- Node6&#45;&gt;Node4 -->
<g id="edge6_Node000006_Node000004" class="edge">
<title>Node6&#45;&gt;Node4</title>
<g id="a_edge6_Node000006_Node000004"><a xlink:title=" ">
<path fill="none" stroke="#63b8ff" d="M175.2,-110.33C168.57,-102.98 158.91,-92.26 150.74,-83.19"/>
<polygon fill="#63b8ff" stroke="#63b8ff" points="153.53,-81.07 144.24,-75.98 148.33,-85.75 153.53,-81.07"/>
</a>
</g>
</g>
</g>
</svg>
