<?xml version="1.0" encoding="UTF-8" standalone="no"?>
<!DOCTYPE svg PUBLIC "-//W3C//DTD SVG 1.1//EN"
 "http://www.w3.org/Graphics/SVG/1.1/DTD/svg11.dtd">
<!-- Generated by graphviz version 9.0.0 (20230911.1827)
 -->
<!-- Title: default_log.hpp Pages: 1 -->
<!--zoomable 304 -->

<svg id="main" version="1.1" xmlns="http://www.w3.org/2000/svg" xmlns:xlink="http://www.w3.org/1999/xlink" xml:space="preserve" onload="init(evt)">
<style type="text/css"><![CDATA[
.node, .edge {opacity: 0.7;}
.node.selected, .edge.selected {opacity: 1;}
.edge:hover path { stroke: red; }
.edge:hover polygon { stroke: red; fill: red; }
]]></style>

<defs>
  <circle id="rim" cx="0" cy="0" r="7"/>
  <circle id="rim2" cx="0" cy="0" r="3.5"/>
  <g id="zoomPlus">
    <use xlink:href="#rim" fill="#404040"><set attributeName="fill" to="#808080" begin="zoomplus.mouseover" end="zoomplus.mouseout"/></use>
    <path d="M-4,0h8M0,-4v8" fill="none" stroke="white" stroke-width="1.5" pointer-events="none"/>
  </g>
  <g id="zoomMin">
    <use xlink:href="#rim" fill="#404040"><set attributeName="fill" to="#808080" begin="zoomminus.mouseover" end="zoomminus.mouseout"/></use>
    <path d="M-4,0h8" fill="none" stroke="white" stroke-width="1.5" pointer-events="none"/>
  </g>
  <g id="arrowUp" transform="translate(30 24)">
    <use xlink:href="#rim"/>
    <path pointer-events="none" fill="none" stroke="white" stroke-width="1.5" d="M0,-3.0v7 M-2.5,-0.5L0,-3.0L2.5,-0.5"/>
  </g>
  <g id="arrowRight" transform="rotate(90) translate(36 -43)">
    <use xlink:href="#rim"/>
    <path pointer-events="none" fill="none" stroke="white" stroke-width="1.5" d="M0,-3.0v7 M-2.5,-0.5L0,-3.0L2.5,-0.5"/>
  </g>
  <g id="arrowDown" transform="rotate(180) translate(-30 -48)">
    <use xlink:href="#rim"/>
    <path pointer-events="none" fill="none" stroke="white" stroke-width="1.5" d="M0,-3.0v7 M-2.5,-0.5L0,-3.0L2.5,-0.5"/>
  </g>
  <g id="arrowLeft" transform="rotate(270) translate(-36 17)">
    <use xlink:href="#rim"/>
    <path pointer-events="none" fill="none" stroke="white" stroke-width="1.5" d="M0,-3.0v7 M-2.5,-0.5L0,-3.0L2.5,-0.5"/>
  </g>
  <g id="resetDef">
    <use xlink:href="#rim2" fill="#404040"><set attributeName="fill" to="#808080" begin="reset.mouseover" end="reset.mouseout"/></use>
  </g>
</defs>
<script type="application/ecmascript">
var viewWidth = 575;
var viewHeight = 304;
var sectionId = 'dynsection-1';
</script>
<script type="application/ecmascript" xlink:href="svg.min.js"/>
<svg id="graph" class="graph">
<g id="viewport">
<title>default_log.hpp</title>
<!-- Node1 -->
<g id="Node000001" class="node">
<title>Node1</title>
<g id="a_Node000001"><a xlink:title=" ">
<polygon fill="#999999" stroke="#666666" points="345.12,-295.5 263.12,-295.5 263.12,-276.25 345.12,-276.25 345.12,-295.5"/>
<text text-anchor="middle" x="304.12" y="-282" font-family="Helvetica,sans-Serif" font-size="10.00">default_log.hpp</text>
</a>
</g>
</g>
<!-- Node2 -->
<g id="Node000002" class="node">
<title>Node2</title>
<g id="a_Node000002"><a xlink:href="callback_8hpp.html" target="_top" xlink:title=" ">
<polygon fill="white" stroke="#666666" points="89.5,-240.25 18.75,-240.25 18.75,-221 89.5,-221 89.5,-240.25"/>
<text text-anchor="middle" x="54.12" y="-226.75" font-family="Helvetica,sans-Serif" font-size="10.00">callback.hpp</text>
</a>
</g>
</g>
<!-- Node1&#45;&gt;Node2 -->
<g id="edge1_Node000001_Node000002" class="edge">
<title>Node1&#45;&gt;Node2</title>
<g id="a_edge1_Node000001_Node000002"><a xlink:title=" ">
<path fill="none" stroke="#63b8ff" d="M251.61,-273.69C203.03,-263.34 132.11,-248.24 89.79,-239.22"/>
<polygon fill="#63b8ff" stroke="#63b8ff" points="250.85,-277.11 261.36,-275.77 252.31,-270.26 250.85,-277.11"/>
</a>
</g>
</g>
<!-- Node7 -->
<g id="Node000007" class="node">
<title>Node7</title>
<g id="a_Node000007"><a xlink:href="default__log_8cpp.html" target="_top" xlink:title=" ">
<polygon fill="white" stroke="#666666" points="189.12,-240.25 107.12,-240.25 107.12,-221 189.12,-221 189.12,-240.25"/>
<text text-anchor="middle" x="148.12" y="-226.75" font-family="Helvetica,sans-Serif" font-size="10.00">default_log.cpp</text>
</a>
</g>
</g>
<!-- Node1&#45;&gt;Node7 -->
<g id="edge6_Node000001_Node000007" class="edge">
<title>Node1&#45;&gt;Node7</title>
<g id="a_edge6_Node000001_Node000007"><a xlink:title=" ">
<path fill="none" stroke="#63b8ff" d="M266.94,-272.18C238.54,-262.49 200.09,-249.36 174.72,-240.7"/>
<polygon fill="#63b8ff" stroke="#63b8ff" points="265.63,-275.43 276.23,-275.35 267.9,-268.81 265.63,-275.43"/>
</a>
</g>
</g>
<!-- Node8 -->
<g id="Node000008" class="node">
<title>Node8</title>
<g id="a_Node000008"><a xlink:href="first__draft_2shader__module_8hpp.html" target="_top" xlink:title=" ">
<polygon fill="white" stroke="#666666" points="307.5,-240.25 206.75,-240.25 206.75,-221 307.5,-221 307.5,-240.25"/>
<text text-anchor="middle" x="257.12" y="-226.75" font-family="Helvetica,sans-Serif" font-size="10.00">shader_module.hpp</text>
</a>
</g>
</g>
<!-- Node1&#45;&gt;Node8 -->
<g id="edge7_Node000001_Node000008" class="edge">
<title>Node1&#45;&gt;Node8</title>
<g id="a_edge7_Node000001_Node000008"><a xlink:title=" ">
<path fill="none" stroke="#63b8ff" d="M288.8,-267.51C280.87,-258.53 271.53,-247.95 265.05,-240.61"/>
<polygon fill="#63b8ff" stroke="#63b8ff" points="286.12,-269.77 295.36,-274.95 291.37,-265.13 286.12,-269.77"/>
</a>
</g>
</g>
<!-- Node9 -->
<g id="Node000009" class="node">
<title>Node9</title>
<g id="a_Node000009"><a xlink:href="time_8cpp.html" target="_top" xlink:title=" ">
<polygon fill="white" stroke="#666666" points="378.88,-240.25 325.38,-240.25 325.38,-221 378.88,-221 378.88,-240.25"/>
<text text-anchor="middle" x="352.12" y="-226.75" font-family="Helvetica,sans-Serif" font-size="10.00">time.cpp</text>
</a>
</g>
</g>
<!-- Node1&#45;&gt;Node9 -->
<g id="edge8_Node000001_Node000009" class="edge">
<title>Node1&#45;&gt;Node9</title>
<g id="a_edge8_Node000001_Node000009"><a xlink:title=" ">
<path fill="none" stroke="#63b8ff" d="M319.52,-267.79C327.67,-258.75 337.34,-248.02 344.03,-240.61"/>
<polygon fill="#63b8ff" stroke="#63b8ff" points="317.16,-265.19 313.06,-274.96 322.36,-269.87 317.16,-265.19"/>
</a>
</g>
</g>
<!-- Node10 -->
<g id="Node000010" class="node">
<title>Node10</title>
<g id="a_Node000010"><a xlink:href="vulkan__utils_8hpp.html" target="_top" xlink:title=" ">
<polygon fill="white" stroke="#666666" points="483.38,-240.25 396.88,-240.25 396.88,-221 483.38,-221 483.38,-240.25"/>
<text text-anchor="middle" x="440.12" y="-226.75" font-family="Helvetica,sans-Serif" font-size="10.00">vulkan_utils.hpp</text>
</a>
</g>
</g>
<!-- Node1&#45;&gt;Node10 -->
<g id="edge9_Node000001_Node000010" class="edge">
<title>Node1&#45;&gt;Node10</title>
<g id="a_edge9_Node000001_Node000010"><a xlink:title=" ">
<path fill="none" stroke="#63b8ff" d="M337.87,-271.66C362.49,-262.02 395.22,-249.21 416.94,-240.7"/>
<polygon fill="#63b8ff" stroke="#63b8ff" points="336.64,-268.38 328.6,-275.29 339.19,-274.9 336.64,-268.38"/>
</a>
</g>
</g>
<!-- Node12 -->
<g id="Node000012" class="node">
<title>Node12</title>
<g id="a_Node000012"><a xlink:href="window_8cpp.html" target="_top" xlink:title=" ">
<polygon fill="white" stroke="#666666" points="567.25,-240.25 501,-240.25 501,-221 567.25,-221 567.25,-240.25"/>
<text text-anchor="middle" x="534.12" y="-226.75" font-family="Helvetica,sans-Serif" font-size="10.00">window.cpp</text>
</a>
</g>
</g>
<!-- Node1&#45;&gt;Node12 -->
<g id="edge11_Node000001_Node000012" class="edge">
<title>Node1&#45;&gt;Node12</title>
<g id="a_edge11_Node000001_Node000012"><a xlink:title=" ">
<path fill="none" stroke="#63b8ff" d="M354.53,-273.21C398.88,-262.94 462.22,-248.27 500.62,-239.38"/>
<polygon fill="#63b8ff" stroke="#63b8ff" points="353.83,-269.77 344.88,-275.44 355.41,-276.59 353.83,-269.77"/>
</a>
</g>
</g>
<!-- Node3 -->
<g id="Node000003" class="node">
<title>Node3</title>
<g id="a_Node000003"><a xlink:href="event__sink_8hpp.html" target="_top" xlink:title=" ">
<polygon fill="white" stroke="#666666" points="95.12,-185 13.12,-185 13.12,-165.75 95.12,-165.75 95.12,-185"/>
<text text-anchor="middle" x="54.12" y="-171.5" font-family="Helvetica,sans-Serif" font-size="10.00">event_sink.hpp</text>
</a>
</g>
</g>
<!-- Node2&#45;&gt;Node3 -->
<g id="edge2_Node000002_Node000003" class="edge">
<title>Node2&#45;&gt;Node3</title>
<g id="a_edge2_Node000002_Node000003"><a xlink:title=" ">
<path fill="none" stroke="#63b8ff" d="M54.12,-209.38C54.12,-201.09 54.12,-191.92 54.12,-185.36"/>
<polygon fill="#63b8ff" stroke="#63b8ff" points="50.63,-209.32 54.13,-219.32 57.63,-209.32 50.63,-209.32"/>
</a>
</g>
</g>
<!-- Node4 -->
<g id="Node000004" class="node">
<title>Node4</title>
<g id="a_Node000004"><a xlink:href="event__dispatcher_8hpp.html" target="_top" xlink:title=" ">
<polygon fill="white" stroke="#666666" points="108.25,-129.75 0,-129.75 0,-110.5 108.25,-110.5 108.25,-129.75"/>
<text text-anchor="middle" x="54.12" y="-116.25" font-family="Helvetica,sans-Serif" font-size="10.00">event_dispatcher.hpp</text>
</a>
</g>
</g>
<!-- Node3&#45;&gt;Node4 -->
<g id="edge3_Node000003_Node000004" class="edge">
<title>Node3&#45;&gt;Node4</title>
<g id="a_edge3_Node000003_Node000004"><a xlink:title=" ">
<path fill="none" stroke="#63b8ff" d="M54.12,-154.13C54.12,-145.84 54.12,-136.67 54.12,-130.11"/>
<polygon fill="#63b8ff" stroke="#63b8ff" points="50.63,-154.07 54.13,-164.07 57.63,-154.07 50.63,-154.07"/>
</a>
</g>
</g>
<!-- Node5 -->
<g id="Node000005" class="node">
<title>Node5</title>
<g id="a_Node000005"><a xlink:href="platform__layer_8hpp.html" target="_top" xlink:title=" ">
<polygon fill="white" stroke="#666666" points="101.88,-74.5 6.38,-74.5 6.38,-55.25 101.88,-55.25 101.88,-74.5"/>
<text text-anchor="middle" x="54.12" y="-61" font-family="Helvetica,sans-Serif" font-size="10.00">platform_layer.hpp</text>
</a>
</g>
</g>
<!-- Node4&#45;&gt;Node5 -->
<g id="edge4_Node000004_Node000005" class="edge">
<title>Node4&#45;&gt;Node5</title>
<g id="a_edge4_Node000004_Node000005"><a xlink:title=" ">
<path fill="none" stroke="#63b8ff" d="M54.12,-98.88C54.12,-90.59 54.12,-81.42 54.12,-74.86"/>
<polygon fill="#63b8ff" stroke="#63b8ff" points="50.63,-98.82 54.13,-108.82 57.63,-98.82 50.63,-98.82"/>
</a>
</g>
</g>
<!-- Node6 -->
<g id="Node000006" class="node">
<title>Node6</title>
<g id="a_Node000006"><a xlink:href="platform__layer_8cpp.html" target="_top" xlink:title=" ">
<polygon fill="white" stroke="#666666" points="101.88,-19.25 6.38,-19.25 6.38,0 101.88,0 101.88,-19.25"/>
<text text-anchor="middle" x="54.12" y="-5.75" font-family="Helvetica,sans-Serif" font-size="10.00">platform_layer.cpp</text>
</a>
</g>
</g>
<!-- Node5&#45;&gt;Node6 -->
<g id="edge5_Node000005_Node000006" class="edge">
<title>Node5&#45;&gt;Node6</title>
<g id="a_edge5_Node000005_Node000006"><a xlink:title=" ">
<path fill="none" stroke="#63b8ff" d="M54.12,-43.63C54.12,-35.34 54.12,-26.17 54.12,-19.61"/>
<polygon fill="#63b8ff" stroke="#63b8ff" points="50.63,-43.57 54.13,-53.57 57.63,-43.57 50.63,-43.57"/>
</a>
</g>
</g>
<!-- Node11 -->
<g id="Node000011" class="node">
<title>Node11</title>
<g id="a_Node000011"><a xlink:href="vulkan__instance_8cpp.html" target="_top" xlink:title=" ">
<polygon fill="white" stroke="#666666" points="492.75,-185 387.5,-185 387.5,-165.75 492.75,-165.75 492.75,-185"/>
<text text-anchor="middle" x="440.12" y="-171.5" font-family="Helvetica,sans-Serif" font-size="10.00">vulkan_instance.cpp</text>
</a>
</g>
</g>
<!-- Node10&#45;&gt;Node11 -->
<g id="edge10_Node000010_Node000011" class="edge">
<title>Node10&#45;&gt;Node11</title>
<g id="a_edge10_Node000010_Node000011"><a xlink:title=" ">
<path fill="none" stroke="#63b8ff" d="M440.12,-209.38C440.12,-201.09 440.12,-191.92 440.12,-185.36"/>
<polygon fill="#63b8ff" stroke="#63b8ff" points="436.63,-209.32 440.13,-219.32 443.63,-209.32 436.63,-209.32"/>
</a>
</g>
</g>
</g>
</svg>

<g id="navigator" transform="translate(0 0)" fill="#404254">
  <rect fill="#f2f5e9" fill-opacity="0.5" stroke="#606060" stroke-width=".5" x="0" y="0" width="60" height="60"/>
  <use id="zoomplus" xlink:href="#zoomPlus" x="17" y="9" onmousedown="handleZoom(evt,'in')"/>
  <use id="zoomminus" xlink:href="#zoomMin" x="42" y="9" onmousedown="handleZoom(evt,'out')"/>
  <use id="reset" xlink:href="#resetDef" x="30" y="36" onmousedown="handleReset()"/>
   <use id="arrowup" xlink:href="#arrowUp" x="0" y="0" onmousedown="handlePan(0,-1)"/>
  <use id="arrowright" xlink:href="#arrowRight" x="0" y="0" onmousedown="handlePan(1,0)"/>
  <use id="arrowdown" xlink:href="#arrowDown" x="0" y="0" onmousedown="handlePan(0,1)"/>
  <use id="arrowleft" xlink:href="#arrowLeft" x="0" y="0" onmousedown="handlePan(-1,0)"/>
</g>
<svg viewBox="0 0 15 15" width="100%" height="30px" preserveAspectRatio="xMaxYMin meet">
 <g id="arrow_out" transform="scale(0.3 0.3)">
  <a xlink:href="default__log_8hpp__dep__incl_org.svg" target="_base">
   <rect id="button" ry="5" rx="5" y="6" x="6" height="38" width="38"
        fill="#f2f5e9" fill-opacity="0.5" stroke="#606060" stroke-width="1.0"/>
   <path id="arrow"
     d="M 11.500037,31.436501 C 11.940474,20.09759 22.043105,11.32322 32.158766,21.979434 L 37.068811,17.246167 C 37.068811,17.246167 37.088388,32 37.088388,32 L 22.160133,31.978069 C 22.160133,31.978069 26.997745,27.140456 26.997745,27.140456 C 18.528582,18.264221 13.291696,25.230495 11.500037,31.436501 z"
     style="fill:#404040;"/>
  </a>
 </g>
</svg>

<style type='text/css'>
<![CDATA[
[data-mouse-over-selected='false'] { opacity: 0.7; }
[data-mouse-over-selected='true']  { opacity: 1.0; }
]]>
</style>
<script type="application/ecmascript"><![CDATA[
document.addEventListener('DOMContentLoaded', (event) => {
  highlightEdges();
  highlightAdjacentNodes();
});
]]></script>
</svg>
