<?xml version="1.0" encoding="UTF-8" standalone="no"?>
<!DOCTYPE svg PUBLIC "-//W3C//DTD SVG 1.1//EN"
 "http://www.w3.org/Graphics/SVG/1.1/DTD/svg11.dtd">
<!-- Generated by graphviz version 9.0.0 (20230911.1827)
 -->
<!-- Title: default_log.hpp Pages: 1 -->
<svg width="575pt" height="304pt"
 viewBox="0.00 0.00 575.25 303.50" xmlns="http://www.w3.org/2000/svg" xmlns:xlink="http://www.w3.org/1999/xlink">
<g id="graph0" class="graph" transform="scale(1 1) rotate(0) translate(4 299.5)">
<title>default_log.hpp</title>
<!-- Node1 -->
<g id="Node000001" class="node">
<title>Node1</title>
<g id="a_Node000001"><a xlink:title=" ">
<polygon fill="#999999" stroke="#666666" points="345.12,-295.5 263.12,-295.5 263.12,-276.25 345.12,-276.25 345.12,-295.5"/>
<text text-anchor="middle" x="304.12" y="-282" font-family="Helvetica,sans-Serif" font-size="10.00">default_log.hpp</text>
</a>
</g>
</g>
<!-- Node2 -->
<g id="Node000002" class="node">
<title>Node2</title>
<g id="a_Node000002"><a xlink:href="callback_8hpp.html" target="_top" xlink:title=" ">
<polygon fill="white" stroke="#666666" points="89.5,-240.25 18.75,-240.25 18.75,-221 89.5,-221 89.5,-240.25"/>
<text text-anchor="middle" x="54.12" y="-226.75" font-family="Helvetica,sans-Serif" font-size="10.00">callback.hpp</text>
</a>
</g>
</g>
<!-- Node1&#45;&gt;Node2 -->
<g id="edge1_Node000001_Node000002" class="edge">
<title>Node1&#45;&gt;Node2</title>
<g id="a_edge1_Node000001_Node000002"><a xlink:title=" ">
<path fill="none" stroke="#63b8ff" d="M251.61,-273.69C203.03,-263.34 132.11,-248.24 89.79,-239.22"/>
<polygon fill="#63b8ff" stroke="#63b8ff" points="250.85,-277.11 261.36,-275.77 252.31,-270.26 250.85,-277.11"/>
</a>
</g>
</g>
<!-- Node7 -->
<g id="Node000007" class="node">
<title>Node7</title>
<g id="a_Node000007"><a xlink:href="default__log_8cpp.html" target="_top" xlink:title=" ">
<polygon fill="white" stroke="#666666" points="189.12,-240.25 107.12,-240.25 107.12,-221 189.12,-221 189.12,-240.25"/>
<text text-anchor="middle" x="148.12" y="-226.75" font-family="Helvetica,sans-Serif" font-size="10.00">default_log.cpp</text>
</a>
</g>
</g>
<!-- Node1&#45;&gt;Node7 -->
<g id="edge6_Node000001_Node000007" class="edge">
<title>Node1&#45;&gt;Node7</title>
<g id="a_edge6_Node000001_Node000007"><a xlink:title=" ">
<path fill="none" stroke="#63b8ff" d="M266.94,-272.18C238.54,-262.49 200.09,-249.36 174.72,-240.7"/>
<polygon fill="#63b8ff" stroke="#63b8ff" points="265.63,-275.43 276.23,-275.35 267.9,-268.81 265.63,-275.43"/>
</a>
</g>
</g>
<!-- Node8 -->
<g id="Node000008" class="node">
<title>Node8</title>
<g id="a_Node000008"><a xlink:href="first__draft_2shader__module_8hpp.html" target="_top" xlink:title=" ">
<polygon fill="white" stroke="#666666" points="307.5,-240.25 206.75,-240.25 206.75,-221 307.5,-221 307.5,-240.25"/>
<text text-anchor="middle" x="257.12" y="-226.75" font-family="Helvetica,sans-Serif" font-size="10.00">shader_module.hpp</text>
</a>
</g>
</g>
<!-- Node1&#45;&gt;Node8 -->
<g id="edge7_Node000001_Node000008" class="edge">
<title>Node1&#45;&gt;Node8</title>
<g id="a_edge7_Node000001_Node000008"><a xlink:title=" ">
<path fill="none" stroke="#63b8ff" d="M288.8,-267.51C280.87,-258.53 271.53,-247.95 265.05,-240.61"/>
<polygon fill="#63b8ff" stroke="#63b8ff" points="286.12,-269.77 295.36,-274.95 291.37,-265.13 286.12,-269.77"/>
</a>
</g>
</g>
<!-- Node9 -->
<g id="Node000009" class="node">
<title>Node9</title>
<g id="a_Node000009"><a xlink:href="time_8cpp.html" target="_top" xlink:title=" ">
<polygon fill="white" stroke="#666666" points="378.88,-240.25 325.38,-240.25 325.38,-221 378.88,-221 378.88,-240.25"/>
<text text-anchor="middle" x="352.12" y="-226.75" font-family="Helvetica,sans-Serif" font-size="10.00">time.cpp</text>
</a>
</g>
</g>
<!-- Node1&#45;&gt;Node9 -->
<g id="edge8_Node000001_Node000009" class="edge">
<title>Node1&#45;&gt;Node9</title>
<g id="a_edge8_Node000001_Node000009"><a xlink:title=" ">
<path fill="none" stroke="#63b8ff" d="M319.52,-267.79C327.67,-258.75 337.34,-248.02 344.03,-240.61"/>
<polygon fill="#63b8ff" stroke="#63b8ff" points="317.16,-265.19 313.06,-274.96 322.36,-269.87 317.16,-265.19"/>
</a>
</g>
</g>
<!-- Node10 -->
<g id="Node000010" class="node">
<title>Node10</title>
<g id="a_Node000010"><a xlink:href="vulkan__utils_8hpp.html" target="_top" xlink:title=" ">
<polygon fill="white" stroke="#666666" points="483.38,-240.25 396.88,-240.25 396.88,-221 483.38,-221 483.38,-240.25"/>
<text text-anchor="middle" x="440.12" y="-226.75" font-family="Helvetica,sans-Serif" font-size="10.00">vulkan_utils.hpp</text>
</a>
</g>
</g>
<!-- Node1&#45;&gt;Node10 -->
<g id="edge9_Node000001_Node000010" class="edge">
<title>Node1&#45;&gt;Node10</title>
<g id="a_edge9_Node000001_Node000010"><a xlink:title=" ">
<path fill="none" stroke="#63b8ff" d="M337.87,-271.66C362.49,-262.02 395.22,-249.21 416.94,-240.7"/>
<polygon fill="#63b8ff" stroke="#63b8ff" points="336.64,-268.38 328.6,-275.29 339.19,-274.9 336.64,-268.38"/>
</a>
</g>
</g>
<!-- Node12 -->
<g id="Node000012" class="node">
<title>Node12</title>
<g id="a_Node000012"><a xlink:href="window_8cpp.html" target="_top" xlink:title=" ">
<polygon fill="white" stroke="#666666" points="567.25,-240.25 501,-240.25 501,-221 567.25,-221 567.25,-240.25"/>
<text text-anchor="middle" x="534.12" y="-226.75" font-family="Helvetica,sans-Serif" font-size="10.00">window.cpp</text>
</a>
</g>
</g>
<!-- Node1&#45;&gt;Node12 -->
<g id="edge11_Node000001_Node000012" class="edge">
<title>Node1&#45;&gt;Node12</title>
<g id="a_edge11_Node000001_Node000012"><a xlink:title=" ">
<path fill="none" stroke="#63b8ff" d="M354.53,-273.21C398.88,-262.94 462.22,-248.27 500.62,-239.38"/>
<polygon fill="#63b8ff" stroke="#63b8ff" points="353.83,-269.77 344.88,-275.44 355.41,-276.59 353.83,-269.77"/>
</a>
</g>
</g>
<!-- Node3 -->
<g id="Node000003" class="node">
<title>Node3</title>
<g id="a_Node000003"><a xlink:href="event__sink_8hpp.html" target="_top" xlink:title=" ">
<polygon fill="white" stroke="#666666" points="95.12,-185 13.12,-185 13.12,-165.75 95.12,-165.75 95.12,-185"/>
<text text-anchor="middle" x="54.12" y="-171.5" font-family="Helvetica,sans-Serif" font-size="10.00">event_sink.hpp</text>
</a>
</g>
</g>
<!-- Node2&#45;&gt;Node3 -->
<g id="edge2_Node000002_Node000003" class="edge">
<title>Node2&#45;&gt;Node3</title>
<g id="a_edge2_Node000002_Node000003"><a xlink:title=" ">
<path fill="none" stroke="#63b8ff" d="M54.12,-209.38C54.12,-201.09 54.12,-191.92 54.12,-185.36"/>
<polygon fill="#63b8ff" stroke="#63b8ff" points="50.63,-209.32 54.13,-219.32 57.63,-209.32 50.63,-209.32"/>
</a>
</g>
</g>
<!-- Node4 -->
<g id="Node000004" class="node">
<title>Node4</title>
<g id="a_Node000004"><a xlink:href="event__dispatcher_8hpp.html" target="_top" xlink:title=" ">
<polygon fill="white" stroke="#666666" points="108.25,-129.75 0,-129.75 0,-110.5 108.25,-110.5 108.25,-129.75"/>
<text text-anchor="middle" x="54.12" y="-116.25" font-family="Helvetica,sans-Serif" font-size="10.00">event_dispatcher.hpp</text>
</a>
</g>
</g>
<!-- Node3&#45;&gt;Node4 -->
<g id="edge3_Node000003_Node000004" class="edge">
<title>Node3&#45;&gt;Node4</title>
<g id="a_edge3_Node000003_Node000004"><a xlink:title=" ">
<path fill="none" stroke="#63b8ff" d="M54.12,-154.13C54.12,-145.84 54.12,-136.67 54.12,-130.11"/>
<polygon fill="#63b8ff" stroke="#63b8ff" points="50.63,-154.07 54.13,-164.07 57.63,-154.07 50.63,-154.07"/>
</a>
</g>
</g>
<!-- Node5 -->
<g id="Node000005" class="node">
<title>Node5</title>
<g id="a_Node000005"><a xlink:href="platform__layer_8hpp.html" target="_top" xlink:title=" ">
<polygon fill="white" stroke="#666666" points="101.88,-74.5 6.38,-74.5 6.38,-55.25 101.88,-55.25 101.88,-74.5"/>
<text text-anchor="middle" x="54.12" y="-61" font-family="Helvetica,sans-Serif" font-size="10.00">platform_layer.hpp</text>
</a>
</g>
</g>
<!-- Node4&#45;&gt;Node5 -->
<g id="edge4_Node000004_Node000005" class="edge">
<title>Node4&#45;&gt;Node5</title>
<g id="a_edge4_Node000004_Node000005"><a xlink:title=" ">
<path fill="none" stroke="#63b8ff" d="M54.12,-98.88C54.12,-90.59 54.12,-81.42 54.12,-74.86"/>
<polygon fill="#63b8ff" stroke="#63b8ff" points="50.63,-98.82 54.13,-108.82 57.63,-98.82 50.63,-98.82"/>
</a>
</g>
</g>
<!-- Node6 -->
<g id="Node000006" class="node">
<title>Node6</title>
<g id="a_Node000006"><a xlink:href="platform__layer_8cpp.html" target="_top" xlink:title=" ">
<polygon fill="white" stroke="#666666" points="101.88,-19.25 6.38,-19.25 6.38,0 101.88,0 101.88,-19.25"/>
<text text-anchor="middle" x="54.12" y="-5.75" font-family="Helvetica,sans-Serif" font-size="10.00">platform_layer.cpp</text>
</a>
</g>
</g>
<!-- Node5&#45;&gt;Node6 -->
<g id="edge5_Node000005_Node000006" class="edge">
<title>Node5&#45;&gt;Node6</title>
<g id="a_edge5_Node000005_Node000006"><a xlink:title=" ">
<path fill="none" stroke="#63b8ff" d="M54.12,-43.63C54.12,-35.34 54.12,-26.17 54.12,-19.61"/>
<polygon fill="#63b8ff" stroke="#63b8ff" points="50.63,-43.57 54.13,-53.57 57.63,-43.57 50.63,-43.57"/>
</a>
</g>
</g>
<!-- Node11 -->
<g id="Node000011" class="node">
<title>Node11</title>
<g id="a_Node000011"><a xlink:href="vulkan__instance_8cpp.html" target="_top" xlink:title=" ">
<polygon fill="white" stroke="#666666" points="492.75,-185 387.5,-185 387.5,-165.75 492.75,-165.75 492.75,-185"/>
<text text-anchor="middle" x="440.12" y="-171.5" font-family="Helvetica,sans-Serif" font-size="10.00">vulkan_instance.cpp</text>
</a>
</g>
</g>
<!-- Node10&#45;&gt;Node11 -->
<g id="edge10_Node000010_Node000011" class="edge">
<title>Node10&#45;&gt;Node11</title>
<g id="a_edge10_Node000010_Node000011"><a xlink:title=" ">
<path fill="none" stroke="#63b8ff" d="M440.12,-209.38C440.12,-201.09 440.12,-191.92 440.12,-185.36"/>
<polygon fill="#63b8ff" stroke="#63b8ff" points="436.63,-209.32 440.13,-219.32 443.63,-209.32 436.63,-209.32"/>
</a>
</g>
</g>
</g>
</svg>
