<?xml version="1.0" encoding="UTF-8" standalone="no"?>
<!DOCTYPE svg PUBLIC "-//W3C//DTD SVG 1.1//EN"
 "http://www.w3.org/Graphics/SVG/1.1/DTD/svg11.dtd">
<!-- Generated by graphviz version 7.1.0 (20230121.1956)
 -->
<!-- Title: default_log.hpp Pages: 1 -->
<svg width="766pt" height="420pt"
 viewBox="0.00 0.00 766.00 420.00" xmlns="http://www.w3.org/2000/svg" xmlns:xlink="http://www.w3.org/1999/xlink">
<g id="graph0" class="graph" transform="scale(1 1) rotate(0) translate(4 416)">
<title>default_log.hpp</title>
<polygon fill="white" stroke="none" points="-4,4 -4,-416 762,-416 762,4 -4,4"/>
<!-- Node1 -->
<g id="node1" class="node">
<title>Node1</title>
<g id="a_node1"><a xlink:title=" ">
<polygon fill="#bfbfbf" stroke="black" points="280.5,-392.5 280.5,-411.5 363.5,-411.5 363.5,-392.5 280.5,-392.5"/>
<text text-anchor="middle" x="322" y="-399.5" font-family="Helvetica,sans-Serif" font-size="10.00">default_log.hpp</text>
</a>
</g>
</g>
<!-- Node2 -->
<g id="node2" class="node">
<title>Node2</title>
<g id="a_node2"><a xlink:href="log_8hpp.html" target="_top" xlink:title=" ">
<polygon fill="white" stroke="black" points="268.5,-336.5 268.5,-355.5 375.5,-355.5 375.5,-336.5 268.5,-336.5"/>
<text text-anchor="middle" x="322" y="-343.5" font-family="Helvetica,sans-Serif" font-size="10.00">liger/core/log/log.hpp</text>
</a>
</g>
</g>
<!-- Node1&#45;&gt;Node2 -->
<g id="edge1" class="edge">
<title>Node1&#45;&gt;Node2</title>
<path fill="none" stroke="midnightblue" d="M322,-392.56C322,-385.63 322,-375.52 322,-366.59"/>
<polygon fill="midnightblue" stroke="midnightblue" points="325.5,-366.71 322,-356.71 318.5,-366.72 325.5,-366.71"/>
</g>
<!-- Node3 -->
<g id="node3" class="node">
<title>Node3</title>
<g id="a_node3"><a xlink:title=" ">
<polygon fill="white" stroke="#bfbfbf" points="232.5,-280.5 232.5,-299.5 293.5,-299.5 293.5,-280.5 232.5,-280.5"/>
<text text-anchor="middle" x="263" y="-287.5" font-family="Helvetica,sans-Serif" font-size="10.00">fmt/core.h</text>
</a>
</g>
</g>
<!-- Node2&#45;&gt;Node3 -->
<g id="edge2" class="edge">
<title>Node2&#45;&gt;Node3</title>
<path fill="none" stroke="midnightblue" d="M312.78,-336.56C304.07,-328.59 290.79,-316.43 280.13,-306.68"/>
<polygon fill="midnightblue" stroke="midnightblue" points="282.82,-304.39 273.08,-300.22 278.09,-309.56 282.82,-304.39"/>
</g>
<!-- Node4 -->
<g id="node4" class="node">
<title>Node4</title>
<g id="a_node4"><a xlink:href="log__message_8hpp.html" target="_top" xlink:title=" ">
<polygon fill="white" stroke="black" points="294,-224.5 294,-243.5 446,-243.5 446,-224.5 294,-224.5"/>
<text text-anchor="middle" x="370" y="-231.5" font-family="Helvetica,sans-Serif" font-size="10.00">liger/core/log/log_message.hpp</text>
</a>
</g>
</g>
<!-- Node2&#45;&gt;Node4 -->
<g id="edge3" class="edge">
<title>Node2&#45;&gt;Node4</title>
<path fill="none" stroke="midnightblue" d="M323.62,-336.73C326.26,-324.11 332.11,-299.46 341,-280 345.35,-270.48 351.49,-260.62 356.99,-252.57"/>
<polygon fill="midnightblue" stroke="midnightblue" points="359.84,-254.61 362.79,-244.44 354.14,-250.55 359.84,-254.61"/>
</g>
<!-- Node19 -->
<g id="node19" class="node">
<title>Node19</title>
<g id="a_node19"><a xlink:href="log__writer_8hpp.html" target="_top" xlink:title=" ">
<polygon fill="white" stroke="black" points="350.5,-280.5 350.5,-299.5 485.5,-299.5 485.5,-280.5 350.5,-280.5"/>
<text text-anchor="middle" x="418" y="-287.5" font-family="Helvetica,sans-Serif" font-size="10.00">liger/core/log/log_writer.hpp</text>
</a>
</g>
</g>
<!-- Node2&#45;&gt;Node19 -->
<g id="edge19" class="edge">
<title>Node2&#45;&gt;Node19</title>
<path fill="none" stroke="midnightblue" d="M337,-336.56C352.01,-328.12 375.35,-314.99 393.13,-304.99"/>
<polygon fill="midnightblue" stroke="midnightblue" points="394.79,-308.07 401.79,-300.12 391.35,-301.97 394.79,-308.07"/>
</g>
<!-- Node5 -->
<g id="node5" class="node">
<title>Node5</title>
<g id="a_node5"><a xlink:href="log__level_8hpp.html" target="_top" xlink:title=" ">
<polygon fill="white" stroke="black" points="257,-168.5 257,-187.5 389,-187.5 389,-168.5 257,-168.5"/>
<text text-anchor="middle" x="323" y="-175.5" font-family="Helvetica,sans-Serif" font-size="10.00">liger/core/log/log_level.hpp</text>
</a>
</g>
</g>
<!-- Node4&#45;&gt;Node5 -->
<g id="edge4" class="edge">
<title>Node4&#45;&gt;Node5</title>
<path fill="none" stroke="midnightblue" d="M362.66,-224.56C356,-216.91 345.98,-205.4 337.68,-195.86"/>
<polygon fill="midnightblue" stroke="midnightblue" points="340.34,-193.59 331.13,-188.34 335.06,-198.18 340.34,-193.59"/>
</g>
<!-- Node7 -->
<g id="node7" class="node">
<title>Node7</title>
<g id="a_node7"><a xlink:href="types_8hpp.html" target="_top" xlink:title=" ">
<polygon fill="white" stroke="black" points="319,-56.5 319,-75.5 421,-75.5 421,-56.5 319,-56.5"/>
<text text-anchor="middle" x="370" y="-63.5" font-family="Helvetica,sans-Serif" font-size="10.00">liger/core/types.hpp</text>
</a>
</g>
</g>
<!-- Node4&#45;&gt;Node7 -->
<g id="edge18" class="edge">
<title>Node4&#45;&gt;Node7</title>
<path fill="none" stroke="midnightblue" d="M377.15,-224.73C384.03,-216.19 393.96,-202.16 398,-188 401.37,-176.19 404.96,-139.76 397,-112 394.21,-102.26 388.74,-92.48 383.46,-84.55"/>
<polygon fill="midnightblue" stroke="midnightblue" points="386.4,-82.65 377.73,-76.56 380.71,-86.72 386.4,-82.65"/>
</g>
<!-- Node6 -->
<g id="node6" class="node">
<title>Node6</title>
<g id="a_node6"><a xlink:href="enum__class_8hpp.html" target="_top" xlink:title=" ">
<polygon fill="white" stroke="black" points="257.5,-112.5 257.5,-131.5 388.5,-131.5 388.5,-112.5 257.5,-112.5"/>
<text text-anchor="middle" x="323" y="-119.5" font-family="Helvetica,sans-Serif" font-size="10.00">liger/core/enum_class.hpp</text>
</a>
</g>
</g>
<!-- Node5&#45;&gt;Node6 -->
<g id="edge5" class="edge">
<title>Node5&#45;&gt;Node6</title>
<path fill="none" stroke="midnightblue" d="M323,-168.56C323,-161.63 323,-151.52 323,-142.59"/>
<polygon fill="midnightblue" stroke="midnightblue" points="326.5,-142.71 323,-132.71 319.5,-142.72 326.5,-142.71"/>
</g>
<!-- Node6&#45;&gt;Node7 -->
<g id="edge6" class="edge">
<title>Node6&#45;&gt;Node7</title>
<path fill="none" stroke="midnightblue" d="M330.34,-112.56C337,-104.91 347.02,-93.4 355.32,-83.86"/>
<polygon fill="midnightblue" stroke="midnightblue" points="357.94,-86.18 361.87,-76.34 352.66,-81.59 357.94,-86.18"/>
</g>
<!-- Node8 -->
<g id="node8" class="node">
<title>Node8</title>
<g id="a_node8"><a xlink:title=" ">
<polygon fill="white" stroke="#bfbfbf" points="0,-0.5 0,-19.5 46,-19.5 46,-0.5 0,-0.5"/>
<text text-anchor="middle" x="23" y="-7.5" font-family="Helvetica,sans-Serif" font-size="10.00">cstdint</text>
</a>
</g>
</g>
<!-- Node7&#45;&gt;Node8 -->
<g id="edge7" class="edge">
<title>Node7&#45;&gt;Node8</title>
<path fill="none" stroke="midnightblue" d="M319.17,-59.83C258.87,-53.24 155.13,-40.45 56.99,-20.17"/>
<polygon fill="midnightblue" stroke="midnightblue" points="57.97,-16.8 47.46,-18.17 56.53,-23.65 57.97,-16.8"/>
</g>
<!-- Node9 -->
<g id="node9" class="node">
<title>Node9</title>
<g id="a_node9"><a xlink:title=" ">
<polygon fill="white" stroke="#bfbfbf" points="64,-0.5 64,-19.5 114,-19.5 114,-0.5 64,-0.5"/>
<text text-anchor="middle" x="89" y="-7.5" font-family="Helvetica,sans-Serif" font-size="10.00">fstream</text>
</a>
</g>
</g>
<!-- Node7&#45;&gt;Node9 -->
<g id="edge8" class="edge">
<title>Node7&#45;&gt;Node9</title>
<path fill="none" stroke="midnightblue" d="M319.15,-56.94C271.49,-49.11 198.04,-36.36 125.06,-20.31"/>
<polygon fill="midnightblue" stroke="midnightblue" points="125.83,-16.9 115.3,-18.14 124.31,-23.73 125.83,-16.9"/>
</g>
<!-- Node10 -->
<g id="node10" class="node">
<title>Node10</title>
<g id="a_node10"><a xlink:title=" ">
<polygon fill="white" stroke="#bfbfbf" points="132,-0.5 132,-19.5 202,-19.5 202,-0.5 132,-0.5"/>
<text text-anchor="middle" x="167" y="-7.5" font-family="Helvetica,sans-Serif" font-size="10.00">glm/glm.hpp</text>
</a>
</g>
</g>
<!-- Node7&#45;&gt;Node10 -->
<g id="edge9" class="edge">
<title>Node7&#45;&gt;Node10</title>
<path fill="none" stroke="midnightblue" d="M338.28,-56.56C303.67,-47.36 248.08,-32.57 209.67,-22.35"/>
<polygon fill="midnightblue" stroke="midnightblue" points="210.86,-19.04 200.29,-19.86 209.06,-25.81 210.86,-19.04"/>
</g>
<!-- Node11 -->
<g id="node11" class="node">
<title>Node11</title>
<g id="a_node11"><a xlink:title=" ">
<polygon fill="white" stroke="#bfbfbf" points="220,-0.5 220,-19.5 274,-19.5 274,-0.5 220,-0.5"/>
<text text-anchor="middle" x="247" y="-7.5" font-family="Helvetica,sans-Serif" font-size="10.00">iostream</text>
</a>
</g>
</g>
<!-- Node7&#45;&gt;Node11 -->
<g id="edge10" class="edge">
<title>Node7&#45;&gt;Node11</title>
<path fill="none" stroke="midnightblue" d="M350.78,-56.56C330.83,-47.8 299.38,-34 276.33,-23.88"/>
<polygon fill="midnightblue" stroke="midnightblue" points="278.03,-20.8 267.47,-19.99 275.22,-27.21 278.03,-20.8"/>
</g>
<!-- Node12 -->
<g id="node12" class="node">
<title>Node12</title>
<g id="a_node12"><a xlink:title=" ">
<polygon fill="white" stroke="#bfbfbf" points="292.5,-0.5 292.5,-19.5 327.5,-19.5 327.5,-0.5 292.5,-0.5"/>
<text text-anchor="middle" x="310" y="-7.5" font-family="Helvetica,sans-Serif" font-size="10.00">map</text>
</a>
</g>
</g>
<!-- Node7&#45;&gt;Node12 -->
<g id="edge11" class="edge">
<title>Node7&#45;&gt;Node12</title>
<path fill="none" stroke="midnightblue" d="M360.62,-56.56C351.77,-48.59 338.26,-36.43 327.43,-26.68"/>
<polygon fill="midnightblue" stroke="midnightblue" points="330.01,-24.3 320.24,-20.21 325.33,-29.51 330.01,-24.3"/>
</g>
<!-- Node13 -->
<g id="node13" class="node">
<title>Node13</title>
<g id="a_node13"><a xlink:title=" ">
<polygon fill="white" stroke="#bfbfbf" points="345.5,-0.5 345.5,-19.5 394.5,-19.5 394.5,-0.5 345.5,-0.5"/>
<text text-anchor="middle" x="370" y="-7.5" font-family="Helvetica,sans-Serif" font-size="10.00">random</text>
</a>
</g>
</g>
<!-- Node7&#45;&gt;Node13 -->
<g id="edge12" class="edge">
<title>Node7&#45;&gt;Node13</title>
<path fill="none" stroke="midnightblue" d="M370,-56.56C370,-49.63 370,-39.52 370,-30.59"/>
<polygon fill="midnightblue" stroke="midnightblue" points="373.5,-30.71 370,-20.71 366.5,-30.72 373.5,-30.71"/>
</g>
<!-- Node14 -->
<g id="node14" class="node">
<title>Node14</title>
<g id="a_node14"><a xlink:title=" ">
<polygon fill="white" stroke="#bfbfbf" points="412.5,-0.5 412.5,-19.5 453.5,-19.5 453.5,-0.5 412.5,-0.5"/>
<text text-anchor="middle" x="433" y="-7.5" font-family="Helvetica,sans-Serif" font-size="10.00">string</text>
</a>
</g>
</g>
<!-- Node7&#45;&gt;Node14 -->
<g id="edge13" class="edge">
<title>Node7&#45;&gt;Node14</title>
<path fill="none" stroke="midnightblue" d="M379.84,-56.56C389.14,-48.59 403.33,-36.43 414.7,-26.68"/>
<polygon fill="midnightblue" stroke="midnightblue" points="416.97,-29.35 422.28,-20.19 412.41,-24.04 416.97,-29.35"/>
</g>
<!-- Node15 -->
<g id="node15" class="node">
<title>Node15</title>
<g id="a_node15"><a xlink:title=" ">
<polygon fill="white" stroke="#bfbfbf" points="472,-0.5 472,-19.5 538,-19.5 538,-0.5 472,-0.5"/>
<text text-anchor="middle" x="505" y="-7.5" font-family="Helvetica,sans-Serif" font-size="10.00">string_view</text>
</a>
</g>
</g>
<!-- Node7&#45;&gt;Node15 -->
<g id="edge14" class="edge">
<title>Node7&#45;&gt;Node15</title>
<path fill="none" stroke="midnightblue" d="M391.09,-56.56C413.19,-47.73 448.13,-33.75 473.5,-23.6"/>
<polygon fill="midnightblue" stroke="midnightblue" points="474.66,-26.9 482.65,-19.94 472.06,-20.4 474.66,-26.9"/>
</g>
<!-- Node16 -->
<g id="node16" class="node">
<title>Node16</title>
<g id="a_node16"><a xlink:title=" ">
<polygon fill="white" stroke="#bfbfbf" points="556,-0.5 556,-19.5 618,-19.5 618,-0.5 556,-0.5"/>
<text text-anchor="middle" x="587" y="-7.5" font-family="Helvetica,sans-Serif" font-size="10.00">type_traits</text>
</a>
</g>
</g>
<!-- Node7&#45;&gt;Node16 -->
<g id="edge15" class="edge">
<title>Node7&#45;&gt;Node16</title>
<path fill="none" stroke="midnightblue" d="M403.91,-56.56C442.04,-47.07 504.01,-31.65 545.13,-21.42"/>
<polygon fill="midnightblue" stroke="midnightblue" points="545.81,-24.86 554.67,-19.05 544.12,-18.06 545.81,-24.86"/>
</g>
<!-- Node17 -->
<g id="node17" class="node">
<title>Node17</title>
<g id="a_node17"><a xlink:title=" ">
<polygon fill="white" stroke="#bfbfbf" points="636.5,-0.5 636.5,-19.5 695.5,-19.5 695.5,-0.5 636.5,-0.5"/>
<text text-anchor="middle" x="666" y="-7.5" font-family="Helvetica,sans-Serif" font-size="10.00">typeindex</text>
</a>
</g>
</g>
<!-- Node7&#45;&gt;Node17 -->
<g id="edge16" class="edge">
<title>Node7&#45;&gt;Node17</title>
<path fill="none" stroke="midnightblue" d="M420.86,-56.92C470.49,-48.85 548.36,-35.7 625.74,-20.16"/>
<polygon fill="midnightblue" stroke="midnightblue" points="626.06,-23.66 635.17,-18.25 624.67,-16.8 626.06,-23.66"/>
</g>
<!-- Node18 -->
<g id="node18" class="node">
<title>Node18</title>
<g id="a_node18"><a xlink:title=" ">
<polygon fill="white" stroke="#bfbfbf" points="714,-0.5 714,-19.5 758,-19.5 758,-0.5 714,-0.5"/>
<text text-anchor="middle" x="736" y="-7.5" font-family="Helvetica,sans-Serif" font-size="10.00">vector</text>
</a>
</g>
</g>
<!-- Node7&#45;&gt;Node18 -->
<g id="edge17" class="edge">
<title>Node7&#45;&gt;Node18</title>
<path fill="none" stroke="midnightblue" d="M420.91,-60.54C484.66,-54.44 597.35,-41.92 702.91,-20.15"/>
<polygon fill="midnightblue" stroke="midnightblue" points="703.54,-23.59 712.61,-18.11 702.1,-16.74 703.54,-23.59"/>
</g>
<!-- Node19&#45;&gt;Node4 -->
<g id="edge20" class="edge">
<title>Node19&#45;&gt;Node4</title>
<path fill="none" stroke="midnightblue" d="M410.5,-280.56C403.63,-272.83 393.25,-261.16 384.73,-251.57"/>
<polygon fill="midnightblue" stroke="midnightblue" points="387.56,-249.48 378.3,-244.33 382.32,-254.13 387.56,-249.48"/>
</g>
</g>
</svg>
