<?xml version="1.0" encoding="UTF-8" standalone="no"?>
<!DOCTYPE svg PUBLIC "-//W3C//DTD SVG 1.1//EN"
 "http://www.w3.org/Graphics/SVG/1.1/DTD/svg11.dtd">
<!-- Generated by graphviz version 9.0.0 (20230911.1827)
 -->
<!-- Title: dependency_graph.cpp Pages: 1 -->
<svg width="236pt" height="138pt"
 viewBox="0.00 0.00 235.88 137.75" xmlns="http://www.w3.org/2000/svg" xmlns:xlink="http://www.w3.org/1999/xlink">

<svg id="main" version="1.1" xmlns="http://www.w3.org/2000/svg" xmlns:xlink="http://www.w3.org/1999/xlink" xml:space="preserve" onload="init(evt)">
<style type="text/css"><![CDATA[
.node, .edge {opacity: 0.7;}
.node.selected, .edge.selected {opacity: 1;}
.edge:hover path { stroke: red; }
.edge:hover polygon { stroke: red; fill: red; }
]]></style>
<script type="application/ecmascript" xlink:href="svg.min.js"/>
<svg id="graph" class="graph">
<g id="graph0" class="graph" transform="scale(1 1) rotate(0) translate(4 133.75)">
<title>dependency_graph.cpp</title>
<!-- Node1 -->
<g id="Node000001" class="node">
<title>Node1</title>
<g id="a_Node000001"><a xlink:title=" ">
<polygon fill="#999999" stroke="#666666" points="227.88,-129.75 111.38,-129.75 111.38,-110.5 227.88,-110.5 227.88,-129.75"/>
<text text-anchor="middle" x="169.62" y="-116.25" font-family="Helvetica,sans-Serif" font-size="10.00">dependency_graph.cpp</text>
</a>
</g>
</g>
<!-- Node2 -->
<g id="Node000002" class="node">
<title>Node2</title>
<g id="a_Node000002"><a xlink:href="dependency__graph_8hpp.html" target="_top" xlink:title=" ">
<polygon fill="white" stroke="#666666" points="207.25,-74.5 0,-74.5 0,-55.25 207.25,-55.25 207.25,-74.5"/>
<text text-anchor="middle" x="103.62" y="-61" font-family="Helvetica,sans-Serif" font-size="10.00">liger/render/rhi/detail/dependency_graph.hpp</text>
</a>
</g>
</g>
<!-- Node1&#45;&gt;Node2 -->
<g id="edge1_Node000001_Node000002" class="edge">
<title>Node1&#45;&gt;Node2</title>
<g id="a_edge1_Node000001_Node000002"><a xlink:title=" ">
<path fill="none" stroke="#63b8ff" d="M158.43,-110.09C148.89,-102.4 134.95,-91.15 123.52,-81.93"/>
<polygon fill="#63b8ff" stroke="#63b8ff" points="125.81,-79.28 115.83,-75.73 121.42,-84.73 125.81,-79.28"/>
</a>
</g>
</g>
<!-- Node4 -->
<g id="Node000004" class="node">
<title>Node4</title>
<g id="a_Node000004"><a xlink:title=" ">
<polygon fill="#e0e0e0" stroke="#999999" points="224.12,-19.25 181.12,-19.25 181.12,0 224.12,0 224.12,-19.25"/>
<text text-anchor="middle" x="202.62" y="-5.75" font-family="Helvetica,sans-Serif" font-size="10.00">vector</text>
</a>
</g>
</g>
<!-- Node1&#45;&gt;Node4 -->
<g id="edge4_Node000001_Node000004" class="edge">
<title>Node1&#45;&gt;Node4</title>
<g id="a_edge4_Node000001_Node000004"><a xlink:title=" ">
<path fill="none" stroke="#63b8ff" d="M184.15,-110.17C195.37,-102.33 210.05,-89.8 216.62,-74.5 222.79,-60.14 218.28,-42.75 212.79,-29.74"/>
<polygon fill="#63b8ff" stroke="#63b8ff" points="216.07,-28.51 208.61,-21 209.76,-31.53 216.07,-28.51"/>
</a>
</g>
</g>
<!-- Node3 -->
<g id="Node000003" class="node">
<title>Node3</title>
<g id="a_Node000003"><a xlink:title=" ">
<polygon fill="#e0e0e0" stroke="#999999" points="131.5,-19.25 75.75,-19.25 75.75,0 131.5,0 131.5,-19.25"/>
<text text-anchor="middle" x="103.62" y="-5.75" font-family="Helvetica,sans-Serif" font-size="10.00">concepts</text>
</a>
</g>
</g>
<!-- Node2&#45;&gt;Node3 -->
<g id="edge2_Node000002_Node000003" class="edge">
<title>Node2&#45;&gt;Node3</title>
<g id="a_edge2_Node000002_Node000003"><a xlink:title=" ">
<path fill="none" stroke="#63b8ff" d="M103.62,-55.08C103.62,-48.57 103.62,-39.42 103.62,-31.12"/>
<polygon fill="#63b8ff" stroke="#63b8ff" points="107.13,-31.12 103.63,-21.12 100.13,-31.12 107.13,-31.12"/>
</a>
</g>
</g>
<!-- Node2&#45;&gt;Node4 -->
<g id="edge3_Node000002_Node000004" class="edge">
<title>Node2&#45;&gt;Node4</title>
<g id="a_edge3_Node000002_Node000004"><a xlink:title=" ">
<path fill="none" stroke="#63b8ff" d="M120.42,-54.84C135.64,-46.66 158.32,-34.46 176.01,-24.94"/>
<polygon fill="#63b8ff" stroke="#63b8ff" points="177.27,-28.24 184.42,-20.42 173.95,-22.07 177.27,-28.24"/>
</a>
</g>
</g>
</g>
</svg>
</svg>

<style type='text/css'>
<![CDATA[
[data-mouse-over-selected='false'] { opacity: 0.7; }
[data-mouse-over-selected='true']  { opacity: 1.0; }
]]>
</style>
<script type="application/ecmascript"><![CDATA[
document.addEventListener('DOMContentLoaded', (event) => {
  highlightEdges();
  highlightAdjacentNodes();
});
]]></script>
</svg>
