<?xml version="1.0" encoding="UTF-8" standalone="no"?>
<!DOCTYPE svg PUBLIC "-//W3C//DTD SVG 1.1//EN"
 "http://www.w3.org/Graphics/SVG/1.1/DTD/svg11.dtd">
<!-- Generated by graphviz version 9.0.0 (20230911.1827)
 -->
<!-- Title: shader_module.hpp Pages: 1 -->
<svg width="168pt" height="138pt"
 viewBox="0.00 0.00 167.88 137.75" xmlns="http://www.w3.org/2000/svg" xmlns:xlink="http://www.w3.org/1999/xlink">
<g id="graph0" class="graph" transform="scale(1 1) rotate(0) translate(4 133.75)">
<title>shader_module.hpp</title>
<!-- Node1 -->
<g id="Node000001" class="node">
<title>Node1</title>
<g id="a_Node000001"><a xlink:title=" ">
<polygon fill="#999999" stroke="#666666" points="100.75,-129.75 0,-129.75 0,-110.5 100.75,-110.5 100.75,-129.75"/>
<text text-anchor="middle" x="50.38" y="-116.25" font-family="Helvetica,sans-Serif" font-size="10.00">shader_module.hpp</text>
</a>
</g>
</g>
<!-- Node2 -->
<g id="Node000002" class="node">
<title>Node2</title>
<g id="a_Node000002"><a xlink:title=" ">
<polygon fill="#e0e0e0" stroke="#999999" points="98.5,-19.25 2.25,-19.25 2.25,0 98.5,0 98.5,-19.25"/>
<text text-anchor="middle" x="50.38" y="-5.75" font-family="Helvetica,sans-Serif" font-size="10.00">liger/core/core.hpp</text>
</a>
</g>
</g>
<!-- Node1&#45;&gt;Node2 -->
<g id="edge1_Node000001_Node000002" class="edge">
<title>Node1&#45;&gt;Node2</title>
<g id="a_edge1_Node000001_Node000002"><a xlink:title=" ">
<path fill="none" stroke="#63b8ff" d="M42.97,-110.25C36.37,-101.7 27.17,-88.11 23.38,-74.5 18.88,-58.4 27.21,-40.97 35.77,-28.39"/>
<polygon fill="#63b8ff" stroke="#63b8ff" points="38.35,-30.78 41.54,-20.67 32.75,-26.59 38.35,-30.78"/>
</a>
</g>
</g>
<!-- Node3 -->
<g id="Node000003" class="node">
<title>Node3</title>
<g id="a_Node000003"><a xlink:href="format_8hpp.html" target="_top" xlink:title=" ">
<polygon fill="white" stroke="#666666" points="159.88,-74.5 32.87,-74.5 32.87,-55.25 159.88,-55.25 159.88,-74.5"/>
<text text-anchor="middle" x="96.38" y="-61" font-family="Helvetica,sans-Serif" font-size="10.00">liger/render/rhi/format.hpp</text>
</a>
</g>
</g>
<!-- Node1&#45;&gt;Node3 -->
<g id="edge2_Node000001_Node000003" class="edge">
<title>Node1&#45;&gt;Node3</title>
<g id="a_edge2_Node000001_Node000003"><a xlink:title=" ">
<path fill="none" stroke="#63b8ff" d="M57.97,-110.33C64.26,-103.05 73.39,-92.48 81.17,-83.48"/>
<polygon fill="#63b8ff" stroke="#63b8ff" points="83.74,-85.86 87.62,-76 78.44,-81.28 83.74,-85.86"/>
</a>
</g>
</g>
<!-- Node3&#45;&gt;Node2 -->
<g id="edge3_Node000003_Node000002" class="edge">
<title>Node3&#45;&gt;Node2</title>
<g id="a_edge3_Node000003_Node000002"><a xlink:title=" ">
<path fill="none" stroke="#63b8ff" d="M88.78,-55.08C82.49,-47.8 73.36,-37.23 65.58,-28.23"/>
<polygon fill="#63b8ff" stroke="#63b8ff" points="68.31,-26.03 59.13,-20.75 63.01,-30.61 68.31,-26.03"/>
</a>
</g>
</g>
</g>
</svg>
