<?xml version="1.0" encoding="UTF-8" standalone="no"?>
<!DOCTYPE svg PUBLIC "-//W3C//DTD SVG 1.1//EN"
 "http://www.w3.org/Graphics/SVG/1.1/DTD/svg11.dtd">
<!-- Generated by graphviz version 9.0.0 (20230911.1827)
 -->
<!-- Title: graphics_pipeline.hpp Pages: 1 -->
<svg width="464pt" height="138pt"
 viewBox="0.00 0.00 464.12 137.75" xmlns="http://www.w3.org/2000/svg" xmlns:xlink="http://www.w3.org/1999/xlink">

<svg id="main" version="1.1" xmlns="http://www.w3.org/2000/svg" xmlns:xlink="http://www.w3.org/1999/xlink" xml:space="preserve" onload="init(evt)">
<style type="text/css"><![CDATA[
.node, .edge {opacity: 0.7;}
.node.selected, .edge.selected {opacity: 1;}
.edge:hover path { stroke: red; }
.edge:hover polygon { stroke: red; fill: red; }
]]></style>
<script type="application/ecmascript" xlink:href="svg.min.js"/>
<svg id="graph" class="graph">
<g id="graph0" class="graph" transform="scale(1 1) rotate(0) translate(4 133.75)">
<title>graphics_pipeline.hpp</title>
<!-- Node1 -->
<g id="Node000001" class="node">
<title>Node1</title>
<g id="a_Node000001"><a xlink:title=" ">
<polygon fill="#999999" stroke="#666666" points="263.38,-129.75 153.62,-129.75 153.62,-110.5 263.38,-110.5 263.38,-129.75"/>
<text text-anchor="middle" x="208.5" y="-116.25" font-family="Helvetica,sans-Serif" font-size="10.00">graphics_pipeline.hpp</text>
</a>
</g>
</g>
<!-- Node2 -->
<g id="Node000002" class="node">
<title>Node2</title>
<g id="a_Node000002"><a xlink:href="format_8hpp.html" target="_top" xlink:title=" ">
<polygon fill="white" stroke="#666666" points="127,-74.5 0,-74.5 0,-55.25 127,-55.25 127,-74.5"/>
<text text-anchor="middle" x="63.5" y="-61" font-family="Helvetica,sans-Serif" font-size="10.00">liger/render/rhi/format.hpp</text>
</a>
</g>
</g>
<!-- Node1&#45;&gt;Node2 -->
<g id="edge1_Node000001_Node000002" class="edge">
<title>Node1&#45;&gt;Node2</title>
<g id="a_edge1_Node000001_Node000002"><a xlink:title=" ">
<path fill="none" stroke="#63b8ff" d="M183.9,-110.09C160.57,-101.52 125.26,-88.56 98.9,-78.88"/>
<polygon fill="#63b8ff" stroke="#63b8ff" points="100.23,-75.64 89.64,-75.47 97.82,-82.21 100.23,-75.64"/>
</a>
</g>
</g>
<!-- Node4 -->
<g id="Node000004" class="node">
<title>Node4</title>
<g id="a_Node000004"><a xlink:title=" ">
<polygon fill="#e0e0e0" stroke="#999999" points="272.38,-74.5 144.62,-74.5 144.62,-55.25 272.38,-55.25 272.38,-74.5"/>
<text text-anchor="middle" x="208.5" y="-61" font-family="Helvetica,sans-Serif" font-size="10.00">liger/render/rhi/handle.hpp</text>
</a>
</g>
</g>
<!-- Node1&#45;&gt;Node4 -->
<g id="edge3_Node000001_Node000004" class="edge">
<title>Node1&#45;&gt;Node4</title>
<g id="a_edge3_Node000001_Node000004"><a xlink:title=" ">
<path fill="none" stroke="#63b8ff" d="M208.5,-110.33C208.5,-103.82 208.5,-94.67 208.5,-86.37"/>
<polygon fill="#63b8ff" stroke="#63b8ff" points="212,-86.37 208.5,-76.37 205,-86.37 212,-86.37"/>
</a>
</g>
</g>
<!-- Node5 -->
<g id="Node000005" class="node">
<title>Node5</title>
<g id="a_Node000005"><a xlink:href="shader__module_8hpp.html" target="_top" xlink:title=" ">
<polygon fill="white" stroke="#666666" points="456.12,-74.5 290.88,-74.5 290.88,-55.25 456.12,-55.25 456.12,-74.5"/>
<text text-anchor="middle" x="373.5" y="-61" font-family="Helvetica,sans-Serif" font-size="10.00">liger/render/rhi/shader_module.hpp</text>
</a>
</g>
</g>
<!-- Node1&#45;&gt;Node5 -->
<g id="edge4_Node000001_Node000005" class="edge">
<title>Node1&#45;&gt;Node5</title>
<g id="a_edge4_Node000001_Node000005"><a xlink:title=" ">
<path fill="none" stroke="#63b8ff" d="M236.49,-110.09C263.51,-101.37 304.66,-88.09 334.81,-78.36"/>
<polygon fill="#63b8ff" stroke="#63b8ff" points="335.49,-81.82 343.93,-75.42 333.34,-75.16 335.49,-81.82"/>
</a>
</g>
</g>
<!-- Node3 -->
<g id="Node000003" class="node">
<title>Node3</title>
<g id="a_Node000003"><a xlink:title=" ">
<polygon fill="#e0e0e0" stroke="#999999" points="212.12,-19.25 166.88,-19.25 166.88,0 212.12,0 212.12,-19.25"/>
<text text-anchor="middle" x="189.5" y="-5.75" font-family="Helvetica,sans-Serif" font-size="10.00">cstdint</text>
</a>
</g>
</g>
<!-- Node2&#45;&gt;Node3 -->
<g id="edge2_Node000002_Node000003" class="edge">
<title>Node2&#45;&gt;Node3</title>
<g id="a_edge2_Node000002_Node000003"><a xlink:title=" ">
<path fill="none" stroke="#63b8ff" d="M84.87,-54.84C104.79,-46.43 134.74,-33.77 157.5,-24.15"/>
<polygon fill="#63b8ff" stroke="#63b8ff" points="158.78,-27.41 166.63,-20.29 156.05,-20.96 158.78,-27.41"/>
</a>
</g>
</g>
<!-- Node5&#45;&gt;Node3 -->
<g id="edge5_Node000005_Node000003" class="edge">
<title>Node5&#45;&gt;Node3</title>
<g id="a_edge5_Node000005_Node000003"><a xlink:title=" ">
<path fill="none" stroke="#63b8ff" d="M342.29,-54.84C309.22,-45.27 257.18,-30.21 223.2,-20.38"/>
<polygon fill="#63b8ff" stroke="#63b8ff" points="224.45,-17.1 213.87,-17.68 222.5,-23.82 224.45,-17.1"/>
</a>
</g>
</g>
<!-- Node6 -->
<g id="Node000006" class="node">
<title>Node6</title>
<g id="a_Node000006"><a xlink:title=" ">
<polygon fill="#e0e0e0" stroke="#999999" points="392,-19.25 355,-19.25 355,0 392,0 392,-19.25"/>
<text text-anchor="middle" x="373.5" y="-5.75" font-family="Helvetica,sans-Serif" font-size="10.00">span</text>
</a>
</g>
</g>
<!-- Node5&#45;&gt;Node6 -->
<g id="edge6_Node000005_Node000006" class="edge">
<title>Node5&#45;&gt;Node6</title>
<g id="a_edge6_Node000005_Node000006"><a xlink:title=" ">
<path fill="none" stroke="#63b8ff" d="M373.5,-55.08C373.5,-48.57 373.5,-39.42 373.5,-31.12"/>
<polygon fill="#63b8ff" stroke="#63b8ff" points="377,-31.12 373.5,-21.12 370,-31.12 377,-31.12"/>
</a>
</g>
</g>
</g>
</svg>
</svg>

<style type='text/css'>
<![CDATA[
[data-mouse-over-selected='false'] { opacity: 0.7; }
[data-mouse-over-selected='true']  { opacity: 1.0; }
]]>
</style>
<script type="application/ecmascript"><![CDATA[
document.addEventListener('DOMContentLoaded', (event) => {
  highlightEdges();
  highlightAdjacentNodes();
});
]]></script>
</svg>
