<?xml version="1.0" encoding="UTF-8" standalone="no"?>
<!DOCTYPE svg PUBLIC "-//W3C//DTD SVG 1.1//EN"
 "http://www.w3.org/Graphics/SVG/1.1/DTD/svg11.dtd">
<!-- Generated by graphviz version 9.0.0 (20230911.1827)
 -->
<!-- Title: render_pass.hpp Pages: 1 -->
<!--zoomable 248 -->

<svg id="main" version="1.1" xmlns="http://www.w3.org/2000/svg" xmlns:xlink="http://www.w3.org/1999/xlink" xml:space="preserve" onload="init(evt)">
<style type="text/css"><![CDATA[
.node, .edge {opacity: 0.7;}
.node.selected, .edge.selected {opacity: 1;}
.edge:hover path { stroke: red; }
.edge:hover polygon { stroke: red; fill: red; }
]]></style>

<defs>
  <circle id="rim" cx="0" cy="0" r="7"/>
  <circle id="rim2" cx="0" cy="0" r="3.5"/>
  <g id="zoomPlus">
    <use xlink:href="#rim" fill="#404040"><set attributeName="fill" to="#808080" begin="zoomplus.mouseover" end="zoomplus.mouseout"/></use>
    <path d="M-4,0h8M0,-4v8" fill="none" stroke="white" stroke-width="1.5" pointer-events="none"/>
  </g>
  <g id="zoomMin">
    <use xlink:href="#rim" fill="#404040"><set attributeName="fill" to="#808080" begin="zoomminus.mouseover" end="zoomminus.mouseout"/></use>
    <path d="M-4,0h8" fill="none" stroke="white" stroke-width="1.5" pointer-events="none"/>
  </g>
  <g id="arrowUp" transform="translate(30 24)">
    <use xlink:href="#rim"/>
    <path pointer-events="none" fill="none" stroke="white" stroke-width="1.5" d="M0,-3.0v7 M-2.5,-0.5L0,-3.0L2.5,-0.5"/>
  </g>
  <g id="arrowRight" transform="rotate(90) translate(36 -43)">
    <use xlink:href="#rim"/>
    <path pointer-events="none" fill="none" stroke="white" stroke-width="1.5" d="M0,-3.0v7 M-2.5,-0.5L0,-3.0L2.5,-0.5"/>
  </g>
  <g id="arrowDown" transform="rotate(180) translate(-30 -48)">
    <use xlink:href="#rim"/>
    <path pointer-events="none" fill="none" stroke="white" stroke-width="1.5" d="M0,-3.0v7 M-2.5,-0.5L0,-3.0L2.5,-0.5"/>
  </g>
  <g id="arrowLeft" transform="rotate(270) translate(-36 17)">
    <use xlink:href="#rim"/>
    <path pointer-events="none" fill="none" stroke="white" stroke-width="1.5" d="M0,-3.0v7 M-2.5,-0.5L0,-3.0L2.5,-0.5"/>
  </g>
  <g id="resetDef">
    <use xlink:href="#rim2" fill="#404040"><set attributeName="fill" to="#808080" begin="reset.mouseover" end="reset.mouseout"/></use>
  </g>
</defs>
<script type="application/ecmascript">
var viewWidth = 642;
var viewHeight = 248;
var sectionId = 'dynsection-0';
</script>
<script type="application/ecmascript" xlink:href="svg.min.js"/>
<svg id="graph" class="graph">
<g id="viewport">
<title>render_pass.hpp</title>
<!-- Node1 -->
<g id="Node000001" class="node">
<title>Node1</title>
<g id="a_Node000001"><a xlink:title=" ">
<polygon fill="#999999" stroke="#666666" points="178.5,-240.25 90.5,-240.25 90.5,-221 178.5,-221 178.5,-240.25"/>
<text text-anchor="middle" x="134.5" y="-226.75" font-family="Helvetica,sans-Serif" font-size="10.00">render_pass.hpp</text>
</a>
</g>
</g>
<!-- Node2 -->
<g id="Node000002" class="node">
<title>Node2</title>
<g id="a_Node000002"><a xlink:href="format_8hpp.html" target="_top" xlink:title=" ">
<polygon fill="white" stroke="#666666" points="127,-129.75 0,-129.75 0,-110.5 127,-110.5 127,-129.75"/>
<text text-anchor="middle" x="63.5" y="-116.25" font-family="Helvetica,sans-Serif" font-size="10.00">liger/render/rhi/format.hpp</text>
</a>
</g>
</g>
<!-- Node1&#45;&gt;Node2 -->
<g id="edge1_Node000001_Node000002" class="edge">
<title>Node1&#45;&gt;Node2</title>
<g id="a_edge1_Node000001_Node000002"><a xlink:title=" ">
<path fill="none" stroke="#63b8ff" d="M100.63,-220.64C82.67,-213.96 62.16,-202.83 51.5,-185 43.44,-171.52 47.7,-153.81 53.26,-140.46"/>
<polygon fill="#63b8ff" stroke="#63b8ff" points="56.41,-141.96 57.55,-131.43 50.09,-138.96 56.41,-141.96"/>
</a>
</g>
</g>
<!-- Node4 -->
<g id="Node000004" class="node">
<title>Node4</title>
<g id="a_Node000004"><a xlink:title=" ">
<polygon fill="#e0e0e0" stroke="#999999" points="208.5,-185 60.5,-185 60.5,-165.75 208.5,-165.75 208.5,-185"/>
<text text-anchor="middle" x="134.5" y="-171.5" font-family="Helvetica,sans-Serif" font-size="10.00">liger/render/rhi/framebuffer.hpp</text>
</a>
</g>
</g>
<!-- Node1&#45;&gt;Node4 -->
<g id="edge3_Node000001_Node000004" class="edge">
<title>Node1&#45;&gt;Node4</title>
<g id="a_edge3_Node000001_Node000004"><a xlink:title=" ">
<path fill="none" stroke="#63b8ff" d="M134.5,-220.83C134.5,-214.32 134.5,-205.17 134.5,-196.87"/>
<polygon fill="#63b8ff" stroke="#63b8ff" points="138,-196.87 134.5,-186.87 131,-196.87 138,-196.87"/>
</a>
</g>
</g>
<!-- Node5 -->
<g id="Node000005" class="node">
<title>Node5</title>
<g id="a_Node000005"><a xlink:href="texture_8hpp.html" target="_top" xlink:title=" ">
<polygon fill="white" stroke="#666666" points="356.12,-185 226.88,-185 226.88,-165.75 356.12,-165.75 356.12,-185"/>
<text text-anchor="middle" x="291.5" y="-171.5" font-family="Helvetica,sans-Serif" font-size="10.00">liger/render/rhi/texture.hpp</text>
</a>
</g>
</g>
<!-- Node1&#45;&gt;Node5 -->
<g id="edge4_Node000001_Node000005" class="edge">
<title>Node1&#45;&gt;Node5</title>
<g id="a_edge4_Node000001_Node000005"><a xlink:title=" ">
<path fill="none" stroke="#63b8ff" d="M161.13,-220.59C186.62,-211.95 225.31,-198.82 253.93,-189.12"/>
<polygon fill="#63b8ff" stroke="#63b8ff" points="254.96,-192.47 263.3,-185.94 252.71,-185.84 254.96,-192.47"/>
</a>
</g>
</g>
<!-- Node3 -->
<g id="Node000003" class="node">
<title>Node3</title>
<g id="a_Node000003"><a xlink:title=" ">
<polygon fill="#e0e0e0" stroke="#999999" points="177.12,-19.25 131.88,-19.25 131.88,0 177.12,0 177.12,-19.25"/>
<text text-anchor="middle" x="154.5" y="-5.75" font-family="Helvetica,sans-Serif" font-size="10.00">cstdint</text>
</a>
</g>
</g>
<!-- Node2&#45;&gt;Node3 -->
<g id="edge2_Node000002_Node000003" class="edge">
<title>Node2&#45;&gt;Node3</title>
<g id="a_edge2_Node000002_Node000003"><a xlink:title=" ">
<path fill="none" stroke="#63b8ff" d="M64.14,-110.39C65.51,-97.21 69.71,-71.98 82.5,-55.25 92.53,-42.12 107.63,-31.92 121.41,-24.61"/>
<polygon fill="#63b8ff" stroke="#63b8ff" points="122.82,-27.82 130.23,-20.25 119.72,-21.54 122.82,-27.82"/>
</a>
</g>
</g>
<!-- Node5&#45;&gt;Node2 -->
<g id="edge10_Node000005_Node000002" class="edge">
<title>Node5&#45;&gt;Node2</title>
<g id="a_edge10_Node000005_Node000002"><a xlink:title=" ">
<path fill="none" stroke="#63b8ff" d="M252.56,-165.28C214.12,-156.3 155.17,-142.53 113.32,-132.76"/>
<polygon fill="#63b8ff" stroke="#63b8ff" points="114.28,-129.39 103.75,-130.53 112.69,-136.21 114.28,-129.39"/>
</a>
</g>
</g>
<!-- Node6 -->
<g id="Node000006" class="node">
<title>Node6</title>
<g id="a_Node000006"><a xlink:href="device__resource__state_8hpp.html" target="_top" xlink:title=" ">
<polygon fill="white" stroke="#666666" points="634.25,-129.75 436.75,-129.75 436.75,-110.5 634.25,-110.5 634.25,-129.75"/>
<text text-anchor="middle" x="535.5" y="-116.25" font-family="Helvetica,sans-Serif" font-size="10.00">liger/render/rhi/device_resource_state.hpp</text>
</a>
</g>
</g>
<!-- Node5&#45;&gt;Node6 -->
<g id="edge5_Node000005_Node000006" class="edge">
<title>Node5&#45;&gt;Node6</title>
<g id="a_edge5_Node000005_Node000006"><a xlink:title=" ">
<path fill="none" stroke="#63b8ff" d="M333.17,-165.28C374.58,-156.24 438.21,-142.36 483.04,-132.57"/>
<polygon fill="#63b8ff" stroke="#63b8ff" points="483.5,-136.06 492.53,-130.5 482.01,-129.22 483.5,-136.06"/>
</a>
</g>
</g>
<!-- Node9 -->
<g id="Node000009" class="node">
<title>Node9</title>
<g id="a_Node000009"><a xlink:href="extent_8hpp.html" target="_top" xlink:title=" ">
<polygon fill="white" stroke="#666666" points="217.62,-74.5 91.38,-74.5 91.38,-55.25 217.62,-55.25 217.62,-74.5"/>
<text text-anchor="middle" x="154.5" y="-61" font-family="Helvetica,sans-Serif" font-size="10.00">liger/render/rhi/extent.hpp</text>
</a>
</g>
</g>
<!-- Node5&#45;&gt;Node9 -->
<g id="edge8_Node000005_Node000009" class="edge">
<title>Node5&#45;&gt;Node9</title>
<g id="a_edge8_Node000005_Node000009"><a xlink:title=" ">
<path fill="none" stroke="#63b8ff" d="M262.9,-165.35C242.98,-158.05 216.67,-146.25 197.5,-129.75 182.95,-117.23 171.19,-98.65 163.67,-84.76"/>
<polygon fill="#63b8ff" stroke="#63b8ff" points="166.95,-83.47 159.27,-76.17 160.72,-86.66 166.95,-83.47"/>
</a>
</g>
</g>
<!-- Node10 -->
<g id="Node000010" class="node">
<title>Node10</title>
<g id="a_Node000010"><a xlink:href="sampler__info_8hpp.html" target="_top" xlink:title=" ">
<polygon fill="white" stroke="#666666" points="360.88,-129.75 206.12,-129.75 206.12,-110.5 360.88,-110.5 360.88,-129.75"/>
<text text-anchor="middle" x="283.5" y="-116.25" font-family="Helvetica,sans-Serif" font-size="10.00">liger/render/rhi/sampler_info.hpp</text>
</a>
</g>
</g>
<!-- Node5&#45;&gt;Node10 -->
<g id="edge11_Node000005_Node000010" class="edge">
<title>Node5&#45;&gt;Node10</title>
<g id="a_edge11_Node000005_Node000010"><a xlink:title=" ">
<path fill="none" stroke="#63b8ff" d="M290.18,-165.58C289.19,-158.99 287.79,-149.71 286.53,-141.32"/>
<polygon fill="#63b8ff" stroke="#63b8ff" points="290.02,-140.97 285.07,-131.61 283.1,-142.01 290.02,-140.97"/>
</a>
</g>
</g>
<!-- Node12 -->
<g id="Node000012" class="node">
<title>Node12</title>
<g id="a_Node000012"><a xlink:title=" ">
<polygon fill="#e0e0e0" stroke="#999999" points="418.5,-129.75 378.5,-129.75 378.5,-110.5 418.5,-110.5 418.5,-129.75"/>
<text text-anchor="middle" x="398.5" y="-116.25" font-family="Helvetica,sans-Serif" font-size="10.00">string</text>
</a>
</g>
</g>
<!-- Node5&#45;&gt;Node12 -->
<g id="edge14_Node000005_Node000012" class="edge">
<title>Node5&#45;&gt;Node12</title>
<g id="a_edge14_Node000005_Node000012"><a xlink:title=" ">
<path fill="none" stroke="#63b8ff" d="M309.65,-165.34C326.18,-157.12 350.84,-144.84 370,-135.31"/>
<polygon fill="#63b8ff" stroke="#63b8ff" points="371.51,-138.47 378.9,-130.88 368.39,-132.2 371.51,-138.47"/>
</a>
</g>
</g>
<!-- Node7 -->
<g id="Node000007" class="node">
<title>Node7</title>
<g id="a_Node000007"><a xlink:href="enum__bitmask_8hpp.html" target="_top" xlink:title=" ">
<polygon fill="white" stroke="#666666" points="606.12,-74.5 464.88,-74.5 464.88,-55.25 606.12,-55.25 606.12,-74.5"/>
<text text-anchor="middle" x="535.5" y="-61" font-family="Helvetica,sans-Serif" font-size="10.00">liger/core/enum_bitmask.hpp</text>
</a>
</g>
</g>
<!-- Node6&#45;&gt;Node7 -->
<g id="edge6_Node000006_Node000007" class="edge">
<title>Node6&#45;&gt;Node7</title>
<g id="a_edge6_Node000006_Node000007"><a xlink:title=" ">
<path fill="none" stroke="#63b8ff" d="M535.5,-110.33C535.5,-103.82 535.5,-94.67 535.5,-86.37"/>
<polygon fill="#63b8ff" stroke="#63b8ff" points="539,-86.37 535.5,-76.37 532,-86.37 539,-86.37"/>
</a>
</g>
</g>
<!-- Node8 -->
<g id="Node000008" class="node">
<title>Node8</title>
<g id="a_Node000008"><a xlink:title=" ">
<polygon fill="#e0e0e0" stroke="#999999" points="566.38,-19.25 504.62,-19.25 504.62,0 566.38,0 566.38,-19.25"/>
<text text-anchor="middle" x="535.5" y="-5.75" font-family="Helvetica,sans-Serif" font-size="10.00">type_traits</text>
</a>
</g>
</g>
<!-- Node7&#45;&gt;Node8 -->
<g id="edge7_Node000007_Node000008" class="edge">
<title>Node7&#45;&gt;Node8</title>
<g id="a_edge7_Node000007_Node000008"><a xlink:title=" ">
<path fill="none" stroke="#63b8ff" d="M535.5,-55.08C535.5,-48.57 535.5,-39.42 535.5,-31.12"/>
<polygon fill="#63b8ff" stroke="#63b8ff" points="539,-31.12 535.5,-21.12 532,-31.12 539,-31.12"/>
</a>
</g>
</g>
<!-- Node9&#45;&gt;Node3 -->
<g id="edge9_Node000009_Node000003" class="edge">
<title>Node9&#45;&gt;Node3</title>
<g id="a_edge9_Node000009_Node000003"><a xlink:title=" ">
<path fill="none" stroke="#63b8ff" d="M154.5,-55.08C154.5,-48.57 154.5,-39.42 154.5,-31.12"/>
<polygon fill="#63b8ff" stroke="#63b8ff" points="158,-31.12 154.5,-21.12 151,-31.12 158,-31.12"/>
</a>
</g>
</g>
<!-- Node11 -->
<g id="Node000011" class="node">
<title>Node11</title>
<g id="a_Node000011"><a xlink:href="filter_8hpp.html" target="_top" xlink:title=" ">
<polygon fill="white" stroke="#666666" points="353.12,-74.5 235.88,-74.5 235.88,-55.25 353.12,-55.25 353.12,-74.5"/>
<text text-anchor="middle" x="294.5" y="-61" font-family="Helvetica,sans-Serif" font-size="10.00">liger/render/rhi/filter.hpp</text>
</a>
</g>
</g>
<!-- Node10&#45;&gt;Node11 -->
<g id="edge12_Node000010_Node000011" class="edge">
<title>Node10&#45;&gt;Node11</title>
<g id="a_edge12_Node000010_Node000011"><a xlink:title=" ">
<path fill="none" stroke="#63b8ff" d="M285.32,-110.33C286.68,-103.74 288.6,-94.46 290.33,-86.07"/>
<polygon fill="#63b8ff" stroke="#63b8ff" points="293.74,-86.84 292.34,-76.34 286.89,-85.43 293.74,-86.84"/>
</a>
</g>
</g>
<!-- Node11&#45;&gt;Node3 -->
<g id="edge13_Node000011_Node000003" class="edge">
<title>Node11&#45;&gt;Node3</title>
<g id="a_edge13_Node000011_Node000003"><a xlink:title=" ">
<path fill="none" stroke="#63b8ff" d="M270.75,-54.84C248.05,-46.21 213.61,-33.11 188.1,-23.41"/>
<polygon fill="#63b8ff" stroke="#63b8ff" points="189.44,-20.17 178.85,-19.89 186.95,-26.71 189.44,-20.17"/>
</a>
</g>
</g>
</g>
</svg>

<g id="navigator" transform="translate(0 0)" fill="#404254">
  <rect fill="#f2f5e9" fill-opacity="0.5" stroke="#606060" stroke-width=".5" x="0" y="0" width="60" height="60"/>
  <use id="zoomplus" xlink:href="#zoomPlus" x="17" y="9" onmousedown="handleZoom(evt,'in')"/>
  <use id="zoomminus" xlink:href="#zoomMin" x="42" y="9" onmousedown="handleZoom(evt,'out')"/>
  <use id="reset" xlink:href="#resetDef" x="30" y="36" onmousedown="handleReset()"/>
   <use id="arrowup" xlink:href="#arrowUp" x="0" y="0" onmousedown="handlePan(0,-1)"/>
  <use id="arrowright" xlink:href="#arrowRight" x="0" y="0" onmousedown="handlePan(1,0)"/>
  <use id="arrowdown" xlink:href="#arrowDown" x="0" y="0" onmousedown="handlePan(0,1)"/>
  <use id="arrowleft" xlink:href="#arrowLeft" x="0" y="0" onmousedown="handlePan(-1,0)"/>
</g>
<svg viewBox="0 0 15 15" width="100%" height="30px" preserveAspectRatio="xMaxYMin meet">
 <g id="arrow_out" transform="scale(0.3 0.3)">
  <a xlink:href="deprecated_2render__pass_8hpp__incl_org.svg" target="_base">
   <rect id="button" ry="5" rx="5" y="6" x="6" height="38" width="38"
        fill="#f2f5e9" fill-opacity="0.5" stroke="#606060" stroke-width="1.0"/>
   <path id="arrow"
     d="M 11.500037,31.436501 C 11.940474,20.09759 22.043105,11.32322 32.158766,21.979434 L 37.068811,17.246167 C 37.068811,17.246167 37.088388,32 37.088388,32 L 22.160133,31.978069 C 22.160133,31.978069 26.997745,27.140456 26.997745,27.140456 C 18.528582,18.264221 13.291696,25.230495 11.500037,31.436501 z"
     style="fill:#404040;"/>
  </a>
 </g>
</svg>

<style type='text/css'>
<![CDATA[
[data-mouse-over-selected='false'] { opacity: 0.7; }
[data-mouse-over-selected='true']  { opacity: 1.0; }
]]>
</style>
<script type="application/ecmascript"><![CDATA[
document.addEventListener('DOMContentLoaded', (event) => {
  highlightEdges();
  highlightAdjacentNodes();
});
]]></script>
</svg>
