<?xml version="1.0" encoding="UTF-8" standalone="no"?>
<!DOCTYPE svg PUBLIC "-//W3C//DTD SVG 1.1//EN"
 "http://www.w3.org/Graphics/SVG/1.1/DTD/svg11.dtd">
<!-- Generated by graphviz version 9.0.0 (20230911.1827)
 -->
<!-- Title: shader_module.hpp Pages: 1 -->
<svg width="250pt" height="138pt"
 viewBox="0.00 0.00 249.62 137.75" xmlns="http://www.w3.org/2000/svg" xmlns:xlink="http://www.w3.org/1999/xlink">
<g id="graph0" class="graph" transform="scale(1 1) rotate(0) translate(4 133.75)">
<title>shader_module.hpp</title>
<!-- Node1 -->
<g id="Node000001" class="node">
<title>Node1</title>
<g id="a_Node000001"><a xlink:title=" ">
<polygon fill="#999999" stroke="#666666" points="163.5,-129.75 62.75,-129.75 62.75,-110.5 163.5,-110.5 163.5,-129.75"/>
<text text-anchor="middle" x="113.12" y="-116.25" font-family="Helvetica,sans-Serif" font-size="10.00">shader_module.hpp</text>
</a>
</g>
</g>
<!-- Node2 -->
<g id="Node000002" class="node">
<title>Node2</title>
<g id="a_Node000002"><a xlink:title=" ">
<polygon fill="#e0e0e0" stroke="#999999" points="96.25,-74.5 0,-74.5 0,-55.25 96.25,-55.25 96.25,-74.5"/>
<text text-anchor="middle" x="48.12" y="-61" font-family="Helvetica,sans-Serif" font-size="10.00">liger/core/core.hpp</text>
</a>
</g>
</g>
<!-- Node1&#45;&gt;Node2 -->
<g id="edge1_Node000001_Node000002" class="edge">
<title>Node1&#45;&gt;Node2</title>
<g id="a_edge1_Node000001_Node000002"><a xlink:title=" ">
<path fill="none" stroke="#63b8ff" d="M102.1,-110.09C92.7,-102.4 78.98,-91.15 67.72,-81.93"/>
<polygon fill="#63b8ff" stroke="#63b8ff" points="70.11,-79.36 60.16,-75.73 65.68,-84.78 70.11,-79.36"/>
</a>
</g>
</g>
<!-- Node3 -->
<g id="Node000003" class="node">
<title>Node3</title>
<g id="a_Node000003"><a xlink:href="format_8hpp.html" target="_top" xlink:title=" ">
<polygon fill="white" stroke="#666666" points="241.62,-74.5 114.62,-74.5 114.62,-55.25 241.62,-55.25 241.62,-74.5"/>
<text text-anchor="middle" x="178.12" y="-61" font-family="Helvetica,sans-Serif" font-size="10.00">liger/render/rhi/format.hpp</text>
</a>
</g>
</g>
<!-- Node1&#45;&gt;Node3 -->
<g id="edge2_Node000001_Node000003" class="edge">
<title>Node1&#45;&gt;Node3</title>
<g id="a_edge2_Node000001_Node000003"><a xlink:title=" ">
<path fill="none" stroke="#63b8ff" d="M124.15,-110.09C133.55,-102.4 147.27,-91.15 158.53,-81.93"/>
<polygon fill="#63b8ff" stroke="#63b8ff" points="160.57,-84.78 166.09,-75.73 156.14,-79.36 160.57,-84.78"/>
</a>
</g>
</g>
<!-- Node4 -->
<g id="Node000004" class="node">
<title>Node4</title>
<g id="a_Node000004"><a xlink:title=" ">
<polygon fill="#e0e0e0" stroke="#999999" points="200.75,-19.25 155.5,-19.25 155.5,0 200.75,0 200.75,-19.25"/>
<text text-anchor="middle" x="178.12" y="-5.75" font-family="Helvetica,sans-Serif" font-size="10.00">cstdint</text>
</a>
</g>
</g>
<!-- Node3&#45;&gt;Node4 -->
<g id="edge3_Node000003_Node000004" class="edge">
<title>Node3&#45;&gt;Node4</title>
<g id="a_edge3_Node000003_Node000004"><a xlink:title=" ">
<path fill="none" stroke="#63b8ff" d="M178.12,-55.08C178.12,-48.57 178.12,-39.42 178.12,-31.12"/>
<polygon fill="#63b8ff" stroke="#63b8ff" points="181.63,-31.12 178.13,-21.12 174.63,-31.12 181.63,-31.12"/>
</a>
</g>
</g>
</g>
</svg>
