<?xml version="1.0" encoding="UTF-8" standalone="no"?>
<!DOCTYPE svg PUBLIC "-//W3C//DTD SVG 1.1//EN"
 "http://www.w3.org/Graphics/SVG/1.1/DTD/svg11.dtd">
<!-- Generated by graphviz version 9.0.0 (20230911.1827)
 -->
<!-- Title: compute_pipeline.hpp Pages: 1 -->
<svg width="324pt" height="248pt"
 viewBox="0.00 0.00 323.75 248.25" xmlns="http://www.w3.org/2000/svg" xmlns:xlink="http://www.w3.org/1999/xlink">
<g id="graph0" class="graph" transform="scale(1 1) rotate(0) translate(4 244.25)">
<title>compute_pipeline.hpp</title>
<!-- Node1 -->
<g id="Node000001" class="node">
<title>Node1</title>
<g id="a_Node000001"><a xlink:title=" ">
<polygon fill="#999999" stroke="#666666" points="201.75,-240.25 91.25,-240.25 91.25,-221 201.75,-221 201.75,-240.25"/>
<text text-anchor="middle" x="146.5" y="-226.75" font-family="Helvetica,sans-Serif" font-size="10.00">compute_pipeline.hpp</text>
</a>
</g>
</g>
<!-- Node2 -->
<g id="Node000002" class="node">
<title>Node2</title>
<g id="a_Node000002"><a xlink:href="graphics__pipeline_8hpp.html" target="_top" xlink:title=" ">
<polygon fill="white" stroke="#666666" points="233.62,-185 59.38,-185 59.38,-165.75 233.62,-165.75 233.62,-185"/>
<text text-anchor="middle" x="146.5" y="-171.5" font-family="Helvetica,sans-Serif" font-size="10.00">liger/render/rhi/graphics_pipeline.hpp</text>
</a>
</g>
</g>
<!-- Node1&#45;&gt;Node2 -->
<g id="edge1_Node000001_Node000002" class="edge">
<title>Node1&#45;&gt;Node2</title>
<g id="a_edge1_Node000001_Node000002"><a xlink:title=" ">
<path fill="none" stroke="#63b8ff" d="M146.5,-220.83C146.5,-214.32 146.5,-205.17 146.5,-196.87"/>
<polygon fill="#63b8ff" stroke="#63b8ff" points="150,-196.87 146.5,-186.87 143,-196.87 150,-196.87"/>
</a>
</g>
</g>
<!-- Node3 -->
<g id="Node000003" class="node">
<title>Node3</title>
<g id="a_Node000003"><a xlink:href="format_8hpp.html" target="_top" xlink:title=" ">
<polygon fill="white" stroke="#666666" points="127,-74.5 0,-74.5 0,-55.25 127,-55.25 127,-74.5"/>
<text text-anchor="middle" x="63.5" y="-61" font-family="Helvetica,sans-Serif" font-size="10.00">liger/render/rhi/format.hpp</text>
</a>
</g>
</g>
<!-- Node2&#45;&gt;Node3 -->
<g id="edge2_Node000002_Node000003" class="edge">
<title>Node2&#45;&gt;Node3</title>
<g id="a_edge2_Node000002_Node000003"><a xlink:title=" ">
<path fill="none" stroke="#63b8ff" d="M139.71,-165.5C126.09,-147.69 95.21,-107.33 77.22,-83.81"/>
<polygon fill="#63b8ff" stroke="#63b8ff" points="80.16,-81.89 71.31,-76.08 74.6,-86.15 80.16,-81.89"/>
</a>
</g>
</g>
<!-- Node5 -->
<g id="Node000005" class="node">
<title>Node5</title>
<g id="a_Node000005"><a xlink:href="shader__module_8hpp.html" target="_top" xlink:title=" ">
<polygon fill="white" stroke="#666666" points="299.12,-129.75 133.88,-129.75 133.88,-110.5 299.12,-110.5 299.12,-129.75"/>
<text text-anchor="middle" x="216.5" y="-116.25" font-family="Helvetica,sans-Serif" font-size="10.00">liger/render/rhi/shader_module.hpp</text>
</a>
</g>
</g>
<!-- Node2&#45;&gt;Node5 -->
<g id="edge4_Node000002_Node000005" class="edge">
<title>Node2&#45;&gt;Node5</title>
<g id="a_edge4_Node000002_Node000005"><a xlink:title=" ">
<path fill="none" stroke="#63b8ff" d="M158.37,-165.34C168.59,-157.57 183.57,-146.17 195.76,-136.9"/>
<polygon fill="#63b8ff" stroke="#63b8ff" points="197.76,-139.78 203.6,-130.94 193.52,-134.21 197.76,-139.78"/>
</a>
</g>
</g>
<!-- Node4 -->
<g id="Node000004" class="node">
<title>Node4</title>
<g id="a_Node000004"><a xlink:title=" ">
<polygon fill="#e0e0e0" stroke="#999999" points="194.62,-19.25 98.38,-19.25 98.38,0 194.62,0 194.62,-19.25"/>
<text text-anchor="middle" x="146.5" y="-5.75" font-family="Helvetica,sans-Serif" font-size="10.00">liger/core/core.hpp</text>
</a>
</g>
</g>
<!-- Node3&#45;&gt;Node4 -->
<g id="edge3_Node000003_Node000004" class="edge">
<title>Node3&#45;&gt;Node4</title>
<g id="a_edge3_Node000003_Node000004"><a xlink:title=" ">
<path fill="none" stroke="#63b8ff" d="M77.58,-54.84C89.98,-46.89 108.29,-35.14 122.93,-25.75"/>
<polygon fill="#63b8ff" stroke="#63b8ff" points="124.55,-28.87 131.08,-20.52 120.77,-22.97 124.55,-28.87"/>
</a>
</g>
</g>
<!-- Node6 -->
<g id="Node000006" class="node">
<title>Node6</title>
<g id="a_Node000006"><a xlink:href="device__resource_8hpp.html" target="_top" xlink:title=" ">
<polygon fill="white" stroke="#666666" points="315.75,-74.5 145.25,-74.5 145.25,-55.25 315.75,-55.25 315.75,-74.5"/>
<text text-anchor="middle" x="230.5" y="-61" font-family="Helvetica,sans-Serif" font-size="10.00">liger/render/rhi/device_resource.hpp</text>
</a>
</g>
</g>
<!-- Node5&#45;&gt;Node6 -->
<g id="edge5_Node000005_Node000006" class="edge">
<title>Node5&#45;&gt;Node6</title>
<g id="a_edge5_Node000005_Node000006"><a xlink:title=" ">
<path fill="none" stroke="#63b8ff" d="M218.81,-110.33C220.56,-103.67 223.04,-94.24 225.27,-85.78"/>
<polygon fill="#63b8ff" stroke="#63b8ff" points="228.6,-86.88 227.75,-76.32 221.83,-85.1 228.6,-86.88"/>
</a>
</g>
</g>
<!-- Node6&#45;&gt;Node4 -->
<g id="edge6_Node000006_Node000004" class="edge">
<title>Node6&#45;&gt;Node4</title>
<g id="a_edge6_Node000006_Node000004"><a xlink:title=" ">
<path fill="none" stroke="#63b8ff" d="M216.25,-54.84C203.7,-46.89 185.17,-35.14 170.36,-25.75"/>
<polygon fill="#63b8ff" stroke="#63b8ff" points="172.42,-22.91 162.1,-20.51 168.67,-28.82 172.42,-22.91"/>
</a>
</g>
</g>
</g>
</svg>
