<?xml version="1.0" encoding="UTF-8" standalone="no"?>
<!DOCTYPE svg PUBLIC "-//W3C//DTD SVG 1.1//EN"
 "http://www.w3.org/Graphics/SVG/1.1/DTD/svg11.dtd">
<!-- Generated by graphviz version 9.0.0 (20230911.1827)
 -->
<!-- Title: graphics_pipeline.hpp Pages: 1 -->
<svg width="366pt" height="193pt"
 viewBox="0.00 0.00 366.12 193.00" xmlns="http://www.w3.org/2000/svg" xmlns:xlink="http://www.w3.org/1999/xlink">
<g id="graph0" class="graph" transform="scale(1 1) rotate(0) translate(4 189)">
<title>graphics_pipeline.hpp</title>
<!-- Node1 -->
<g id="Node000001" class="node">
<title>Node1</title>
<g id="a_Node000001"><a xlink:title=" ">
<polygon fill="#999999" stroke="#666666" points="165.38,-185 55.62,-185 55.62,-165.75 165.38,-165.75 165.38,-185"/>
<text text-anchor="middle" x="110.5" y="-171.5" font-family="Helvetica,sans-Serif" font-size="10.00">graphics_pipeline.hpp</text>
</a>
</g>
</g>
<!-- Node2 -->
<g id="Node000002" class="node">
<title>Node2</title>
<g id="a_Node000002"><a xlink:href="format_8hpp.html" target="_top" xlink:title=" ">
<polygon fill="white" stroke="#666666" points="127,-74.5 0,-74.5 0,-55.25 127,-55.25 127,-74.5"/>
<text text-anchor="middle" x="63.5" y="-61" font-family="Helvetica,sans-Serif" font-size="10.00">liger/render/rhi/format.hpp</text>
</a>
</g>
</g>
<!-- Node1&#45;&gt;Node2 -->
<g id="edge1_Node000001_Node000002" class="edge">
<title>Node1&#45;&gt;Node2</title>
<g id="a_edge1_Node000001_Node000002"><a xlink:title=" ">
<path fill="none" stroke="#63b8ff" d="M82.83,-165.3C66.49,-158.35 47.16,-146.98 37.5,-129.75 29.19,-114.94 38.07,-96.93 47.65,-83.81"/>
<polygon fill="#63b8ff" stroke="#63b8ff" points="50.35,-86.04 53.88,-76.05 44.89,-81.66 50.35,-86.04"/>
</a>
</g>
</g>
<!-- Node4 -->
<g id="Node000004" class="node">
<title>Node4</title>
<g id="a_Node000004"><a xlink:title=" ">
<polygon fill="#e0e0e0" stroke="#999999" points="174.38,-129.75 46.62,-129.75 46.62,-110.5 174.38,-110.5 174.38,-129.75"/>
<text text-anchor="middle" x="110.5" y="-116.25" font-family="Helvetica,sans-Serif" font-size="10.00">liger/render/rhi/handle.hpp</text>
</a>
</g>
</g>
<!-- Node1&#45;&gt;Node4 -->
<g id="edge3_Node000001_Node000004" class="edge">
<title>Node1&#45;&gt;Node4</title>
<g id="a_edge3_Node000001_Node000004"><a xlink:title=" ">
<path fill="none" stroke="#63b8ff" d="M110.5,-165.58C110.5,-159.07 110.5,-149.92 110.5,-141.62"/>
<polygon fill="#63b8ff" stroke="#63b8ff" points="114,-141.62 110.5,-131.62 107,-141.62 114,-141.62"/>
</a>
</g>
</g>
<!-- Node5 -->
<g id="Node000005" class="node">
<title>Node5</title>
<g id="a_Node000005"><a xlink:href="shader__module_8hpp.html" target="_top" xlink:title=" ">
<polygon fill="white" stroke="#666666" points="358.12,-129.75 192.88,-129.75 192.88,-110.5 358.12,-110.5 358.12,-129.75"/>
<text text-anchor="middle" x="275.5" y="-116.25" font-family="Helvetica,sans-Serif" font-size="10.00">liger/render/rhi/shader_module.hpp</text>
</a>
</g>
</g>
<!-- Node1&#45;&gt;Node5 -->
<g id="edge4_Node000001_Node000005" class="edge">
<title>Node1&#45;&gt;Node5</title>
<g id="a_edge4_Node000001_Node000005"><a xlink:title=" ">
<path fill="none" stroke="#63b8ff" d="M138.49,-165.34C165.51,-156.62 206.66,-143.34 236.81,-133.61"/>
<polygon fill="#63b8ff" stroke="#63b8ff" points="237.49,-137.07 245.93,-130.67 235.34,-130.41 237.49,-137.07"/>
</a>
</g>
</g>
<!-- Node3 -->
<g id="Node000003" class="node">
<title>Node3</title>
<g id="a_Node000003"><a xlink:title=" ">
<polygon fill="#e0e0e0" stroke="#999999" points="194.62,-19.25 98.38,-19.25 98.38,0 194.62,0 194.62,-19.25"/>
<text text-anchor="middle" x="146.5" y="-5.75" font-family="Helvetica,sans-Serif" font-size="10.00">liger/core/core.hpp</text>
</a>
</g>
</g>
<!-- Node2&#45;&gt;Node3 -->
<g id="edge2_Node000002_Node000003" class="edge">
<title>Node2&#45;&gt;Node3</title>
<g id="a_edge2_Node000002_Node000003"><a xlink:title=" ">
<path fill="none" stroke="#63b8ff" d="M77.58,-54.84C89.98,-46.89 108.29,-35.14 122.93,-25.75"/>
<polygon fill="#63b8ff" stroke="#63b8ff" points="124.55,-28.87 131.08,-20.52 120.77,-22.97 124.55,-28.87"/>
</a>
</g>
</g>
<!-- Node6 -->
<g id="Node000006" class="node">
<title>Node6</title>
<g id="a_Node000006"><a xlink:href="device__resource_8hpp.html" target="_top" xlink:title=" ">
<polygon fill="white" stroke="#666666" points="337.75,-74.5 167.25,-74.5 167.25,-55.25 337.75,-55.25 337.75,-74.5"/>
<text text-anchor="middle" x="252.5" y="-61" font-family="Helvetica,sans-Serif" font-size="10.00">liger/render/rhi/device_resource.hpp</text>
</a>
</g>
</g>
<!-- Node5&#45;&gt;Node6 -->
<g id="edge5_Node000005_Node000006" class="edge">
<title>Node5&#45;&gt;Node6</title>
<g id="a_edge5_Node000005_Node000006"><a xlink:title=" ">
<path fill="none" stroke="#63b8ff" d="M271.7,-110.33C268.76,-103.51 264.56,-93.81 260.85,-85.2"/>
<polygon fill="#63b8ff" stroke="#63b8ff" points="264.16,-84.04 256.98,-76.25 257.73,-86.82 264.16,-84.04"/>
</a>
</g>
</g>
<!-- Node6&#45;&gt;Node3 -->
<g id="edge6_Node000006_Node000003" class="edge">
<title>Node6&#45;&gt;Node3</title>
<g id="a_edge6_Node000006_Node000003"><a xlink:title=" ">
<path fill="none" stroke="#63b8ff" d="M234.52,-54.84C218.15,-46.62 193.71,-34.34 174.74,-24.81"/>
<polygon fill="#63b8ff" stroke="#63b8ff" points="176.43,-21.74 165.92,-20.38 173.29,-28 176.43,-21.74"/>
</a>
</g>
</g>
</g>
</svg>
