<?xml version="1.0" encoding="UTF-8" standalone="no"?>
<!DOCTYPE svg PUBLIC "-//W3C//DTD SVG 1.1//EN"
 "http://www.w3.org/Graphics/SVG/1.1/DTD/svg11.dtd">
<!-- Generated by graphviz version 9.0.0 (20230911.1827)
 -->
<!-- Title: descriptor.hpp Pages: 1 -->
<svg width="173pt" height="138pt"
 viewBox="0.00 0.00 173.25 137.75" xmlns="http://www.w3.org/2000/svg" xmlns:xlink="http://www.w3.org/1999/xlink">
<g id="graph0" class="graph" transform="scale(1 1) rotate(0) translate(4 133.75)">
<title>descriptor.hpp</title>
<!-- Node1 -->
<g id="Node000001" class="node">
<title>Node1</title>
<g id="a_Node000001"><a xlink:title=" ">
<polygon fill="#999999" stroke="#666666" points="121,-129.75 44.25,-129.75 44.25,-110.5 121,-110.5 121,-129.75"/>
<text text-anchor="middle" x="82.62" y="-116.25" font-family="Helvetica,sans-Serif" font-size="10.00">descriptor.hpp</text>
</a>
</g>
</g>
<!-- Node2 -->
<g id="Node000002" class="node">
<title>Node2</title>
<g id="a_Node000002"><a xlink:href="shader__module_8hpp.html" target="_top" xlink:title=" ">
<polygon fill="white" stroke="#666666" points="165.25,-74.5 0,-74.5 0,-55.25 165.25,-55.25 165.25,-74.5"/>
<text text-anchor="middle" x="82.62" y="-61" font-family="Helvetica,sans-Serif" font-size="10.00">liger/render/rhi/shader_module.hpp</text>
</a>
</g>
</g>
<!-- Node1&#45;&gt;Node2 -->
<g id="edge1_Node000001_Node000002" class="edge">
<title>Node1&#45;&gt;Node2</title>
<g id="a_edge1_Node000001_Node000002"><a xlink:title=" ">
<path fill="none" stroke="#63b8ff" d="M82.62,-110.33C82.62,-103.82 82.62,-94.67 82.62,-86.37"/>
<polygon fill="#63b8ff" stroke="#63b8ff" points="86.13,-86.37 82.63,-76.37 79.13,-86.37 86.13,-86.37"/>
</a>
</g>
</g>
<!-- Node3 -->
<g id="Node000003" class="node">
<title>Node3</title>
<g id="a_Node000003"><a xlink:title=" ">
<polygon fill="#e0e0e0" stroke="#999999" points="76.25,-19.25 31,-19.25 31,0 76.25,0 76.25,-19.25"/>
<text text-anchor="middle" x="53.62" y="-5.75" font-family="Helvetica,sans-Serif" font-size="10.00">cstdint</text>
</a>
</g>
</g>
<!-- Node2&#45;&gt;Node3 -->
<g id="edge2_Node000002_Node000003" class="edge">
<title>Node2&#45;&gt;Node3</title>
<g id="a_edge2_Node000002_Node000003"><a xlink:title=" ">
<path fill="none" stroke="#63b8ff" d="M77.84,-55.08C74.08,-48.19 68.72,-38.34 63.99,-29.66"/>
<polygon fill="#63b8ff" stroke="#63b8ff" points="67.1,-28.05 59.24,-20.94 60.95,-31.39 67.1,-28.05"/>
</a>
</g>
</g>
<!-- Node4 -->
<g id="Node000004" class="node">
<title>Node4</title>
<g id="a_Node000004"><a xlink:title=" ">
<polygon fill="#e0e0e0" stroke="#999999" points="131.12,-19.25 94.12,-19.25 94.12,0 131.12,0 131.12,-19.25"/>
<text text-anchor="middle" x="112.62" y="-5.75" font-family="Helvetica,sans-Serif" font-size="10.00">span</text>
</a>
</g>
</g>
<!-- Node2&#45;&gt;Node4 -->
<g id="edge3_Node000002_Node000004" class="edge">
<title>Node2&#45;&gt;Node4</title>
<g id="a_edge3_Node000002_Node000004"><a xlink:title=" ">
<path fill="none" stroke="#63b8ff" d="M87.58,-55.08C91.51,-48.11 97.14,-38.12 102.06,-29.37"/>
<polygon fill="#63b8ff" stroke="#63b8ff" points="104.96,-31.36 106.82,-20.93 98.86,-27.92 104.96,-31.36"/>
</a>
</g>
</g>
</g>
</svg>
