<?xml version="1.0" encoding="UTF-8" standalone="no"?>
<!DOCTYPE svg PUBLIC "-//W3C//DTD SVG 1.1//EN"
 "http://www.w3.org/Graphics/SVG/1.1/DTD/svg11.dtd">
<!-- Generated by graphviz version 9.0.0 (20230911.1827)
 -->
<!-- Title: device_resource_state.hpp Pages: 1 -->
<svg width="1064pt" height="359pt"
 viewBox="0.00 0.00 1064.12 358.75" xmlns="http://www.w3.org/2000/svg" xmlns:xlink="http://www.w3.org/1999/xlink">
<g id="graph0" class="graph" transform="scale(1 1) rotate(0) translate(4 354.75)">
<title>device_resource_state.hpp</title>
<!-- Node1 -->
<g id="Node000001" class="node">
<title>Node1</title>
<g id="a_Node000001"><a xlink:title=" ">
<polygon fill="#999999" stroke="#666666" points="472,-350.75 339,-350.75 339,-331.5 472,-331.5 472,-350.75"/>
<text text-anchor="middle" x="405.5" y="-337.25" font-family="Helvetica,sans-Serif" font-size="10.00">device_resource_state.hpp</text>
</a>
</g>
</g>
<!-- Node2 -->
<g id="Node000002" class="node">
<title>Node2</title>
<g id="a_Node000002"><a xlink:href="buffer_8hpp.html" target="_top" xlink:title=" ">
<polygon fill="white" stroke="#666666" points="276.88,-295.5 218.12,-295.5 218.12,-276.25 276.88,-276.25 276.88,-295.5"/>
<text text-anchor="middle" x="247.5" y="-282" font-family="Helvetica,sans-Serif" font-size="10.00">buffer.hpp</text>
</a>
</g>
</g>
<!-- Node1&#45;&gt;Node2 -->
<g id="edge1_Node000001_Node000002" class="edge">
<title>Node1&#45;&gt;Node2</title>
<g id="a_edge1_Node000001_Node000002"><a xlink:title=" ">
<path fill="none" stroke="#63b8ff" d="M367.84,-327.43C339.07,-317.74 300.13,-304.61 274.43,-295.95"/>
<polygon fill="#63b8ff" stroke="#63b8ff" points="366.67,-330.73 377.26,-330.61 368.9,-324.1 366.67,-330.73"/>
</a>
</g>
</g>
<!-- Node14 -->
<g id="Node000014" class="node">
<title>Node14</title>
<g id="a_Node000014"><a xlink:href="texture_8hpp.html" target="_top" xlink:title=" ">
<polygon fill="white" stroke="#666666" points="595.88,-295.5 531.12,-295.5 531.12,-276.25 595.88,-276.25 595.88,-295.5"/>
<text text-anchor="middle" x="563.5" y="-282" font-family="Helvetica,sans-Serif" font-size="10.00">texture.hpp</text>
</a>
</g>
</g>
<!-- Node1&#45;&gt;Node14 -->
<g id="edge15_Node000001_Node000014" class="edge">
<title>Node1&#45;&gt;Node14</title>
<g id="a_edge15_Node000001_Node000014"><a xlink:title=" ">
<path fill="none" stroke="#63b8ff" d="M443.16,-327.43C471.93,-317.74 510.87,-304.61 536.57,-295.95"/>
<polygon fill="#63b8ff" stroke="#63b8ff" points="442.1,-324.1 433.74,-330.61 444.33,-330.73 442.1,-324.1"/>
</a>
</g>
</g>
<!-- Node3 -->
<g id="Node000003" class="node">
<title>Node3</title>
<g id="a_Node000003"><a xlink:href="first__draft_2command__buffer_8hpp.html" target="_top" xlink:title=" ">
<polygon fill="white" stroke="#666666" points="423.88,-240.25 317.12,-240.25 317.12,-221 423.88,-221 423.88,-240.25"/>
<text text-anchor="middle" x="370.5" y="-226.75" font-family="Helvetica,sans-Serif" font-size="10.00">command_buffer.hpp</text>
</a>
</g>
</g>
<!-- Node2&#45;&gt;Node3 -->
<g id="edge2_Node000002_Node000003" class="edge">
<title>Node2&#45;&gt;Node3</title>
<g id="a_edge2_Node000002_Node000003"><a xlink:title=" ">
<path fill="none" stroke="#63b8ff" d="M278.92,-271.27C301.08,-261.68 330.15,-249.09 349.53,-240.7"/>
<polygon fill="#63b8ff" stroke="#63b8ff" points="277.54,-268.06 269.75,-275.24 280.32,-274.48 277.54,-268.06"/>
</a>
</g>
</g>
<!-- Node4 -->
<g id="Node000004" class="node">
<title>Node4</title>
<g id="a_Node000004"><a xlink:href="deprecated_2device_8hpp_source.html" target="_top" xlink:title=" ">
<polygon fill="white" stroke="#666666" points="505.12,-240.25 441.88,-240.25 441.88,-221 505.12,-221 505.12,-240.25"/>
<text text-anchor="middle" x="473.5" y="-226.75" font-family="Helvetica,sans-Serif" font-size="10.00">device.hpp</text>
</a>
</g>
</g>
<!-- Node2&#45;&gt;Node4 -->
<g id="edge3_Node000002_Node000004" class="edge">
<title>Node2&#45;&gt;Node4</title>
<g id="a_edge3_Node000002_Node000004"><a xlink:title=" ">
<path fill="none" stroke="#63b8ff" d="M288.18,-275.29C332.09,-264.94 401.14,-248.68 441.39,-239.19"/>
<polygon fill="#63b8ff" stroke="#63b8ff" points="287.45,-271.87 278.52,-277.57 289.05,-278.68 287.45,-271.87"/>
</a>
</g>
</g>
<!-- Node5 -->
<g id="Node000005" class="node">
<title>Node5</title>
<g id="a_Node000005"><a xlink:href="device_8hpp.html" target="_top" xlink:title=" ">
<polygon fill="white" stroke="#666666" points="172.12,-185 108.88,-185 108.88,-165.75 172.12,-165.75 172.12,-185"/>
<text text-anchor="middle" x="140.5" y="-171.5" font-family="Helvetica,sans-Serif" font-size="10.00">device.hpp</text>
</a>
</g>
</g>
<!-- Node2&#45;&gt;Node5 -->
<g id="edge4_Node000002_Node000005" class="edge">
<title>Node2&#45;&gt;Node5</title>
<g id="a_edge4_Node000002_Node000005"><a xlink:title=" ">
<path fill="none" stroke="#63b8ff" d="M207.19,-274.85C188.19,-268.11 166.81,-257.25 153.5,-240.25 140.8,-224.03 139.59,-198.59 139.95,-185.24"/>
<polygon fill="#63b8ff" stroke="#63b8ff" points="206,-278.14 216.59,-277.89 208.16,-271.48 206,-278.14"/>
</a>
</g>
</g>
<!-- Node10 -->
<g id="Node000010" class="node">
<title>Node10</title>
<g id="a_Node000010"><a xlink:href="first__draft_2device_8hpp_source.html" target="_top" xlink:title=" ">
<polygon fill="white" stroke="#666666" points="595.12,-185 531.88,-185 531.88,-165.75 595.12,-165.75 595.12,-185"/>
<text text-anchor="middle" x="563.5" y="-171.5" font-family="Helvetica,sans-Serif" font-size="10.00">device.hpp</text>
</a>
</g>
</g>
<!-- Node2&#45;&gt;Node10 -->
<g id="edge10_Node000002_Node000010" class="edge">
<title>Node2&#45;&gt;Node10</title>
<g id="a_edge10_Node000002_Node000010"><a xlink:title=" ">
<path fill="none" stroke="#63b8ff" d="M218.51,-270.53C196.37,-257.72 172.08,-238.36 187.5,-221 210.23,-195.41 444.79,-181.92 531.51,-177.78"/>
<polygon fill="#63b8ff" stroke="#63b8ff" points="216.59,-273.48 227.05,-275.2 219.95,-267.33 216.59,-273.48"/>
</a>
</g>
</g>
<!-- Node11 -->
<g id="Node000011" class="node">
<title>Node11</title>
<g id="a_Node000011"><a xlink:href="render__graph_8hpp.html" target="_top" xlink:title=" ">
<polygon fill="white" stroke="#666666" points="101,-240.25 10,-240.25 10,-221 101,-221 101,-240.25"/>
<text text-anchor="middle" x="55.5" y="-226.75" font-family="Helvetica,sans-Serif" font-size="10.00">render_graph.hpp</text>
</a>
</g>
</g>
<!-- Node2&#45;&gt;Node11 -->
<g id="edge11_Node000002_Node000011" class="edge">
<title>Node2&#45;&gt;Node11</title>
<g id="a_edge11_Node000002_Node000011"><a xlink:title=" ">
<path fill="none" stroke="#63b8ff" d="M207.04,-273.65C171.74,-263.86 121.17,-249.84 88.33,-240.73"/>
<polygon fill="#63b8ff" stroke="#63b8ff" points="205.89,-276.97 216.46,-276.27 207.76,-270.22 205.89,-276.97"/>
</a>
</g>
</g>
<!-- Node13 -->
<g id="Node000013" class="node">
<title>Node13</title>
<g id="a_Node000013"><a xlink:href="synchronization_8hpp.html" target="_top" xlink:title=" ">
<polygon fill="white" stroke="#666666" points="299,-240.25 196,-240.25 196,-221 299,-221 299,-240.25"/>
<text text-anchor="middle" x="247.5" y="-226.75" font-family="Helvetica,sans-Serif" font-size="10.00">synchronization.hpp</text>
</a>
</g>
</g>
<!-- Node2&#45;&gt;Node13 -->
<g id="edge14_Node000002_Node000013" class="edge">
<title>Node2&#45;&gt;Node13</title>
<g id="a_edge14_Node000002_Node000013"><a xlink:title=" ">
<path fill="none" stroke="#63b8ff" d="M247.5,-264.63C247.5,-256.34 247.5,-247.17 247.5,-240.61"/>
<polygon fill="#63b8ff" stroke="#63b8ff" points="244,-264.57 247.5,-274.57 251,-264.57 244,-264.57"/>
</a>
</g>
</g>
<!-- Node6 -->
<g id="Node000006" class="node">
<title>Node6</title>
<g id="a_Node000006"><a xlink:href="instance_8hpp.html" target="_top" xlink:title=" ">
<polygon fill="white" stroke="#666666" points="138.25,-129.75 66.75,-129.75 66.75,-110.5 138.25,-110.5 138.25,-129.75"/>
<text text-anchor="middle" x="102.5" y="-116.25" font-family="Helvetica,sans-Serif" font-size="10.00">instance.hpp</text>
</a>
</g>
</g>
<!-- Node5&#45;&gt;Node6 -->
<g id="edge5_Node000005_Node000006" class="edge">
<title>Node5&#45;&gt;Node6</title>
<g id="a_edge5_Node000005_Node000006"><a xlink:title=" ">
<path fill="none" stroke="#63b8ff" d="M127.7,-156.44C121.38,-147.59 114.04,-137.29 108.91,-130.11"/>
<polygon fill="#63b8ff" stroke="#63b8ff" points="124.69,-158.24 133.35,-164.35 130.39,-154.18 124.69,-158.24"/>
</a>
</g>
</g>
<!-- Node9 -->
<g id="Node000009" class="node">
<title>Node9</title>
<g id="a_Node000009"><a xlink:href="vulkan__utils_8hpp.html" target="_top" xlink:title=" ">
<polygon fill="white" stroke="#666666" points="234.75,-74.5 148.25,-74.5 148.25,-55.25 234.75,-55.25 234.75,-74.5"/>
<text text-anchor="middle" x="191.5" y="-61" font-family="Helvetica,sans-Serif" font-size="10.00">vulkan_utils.hpp</text>
</a>
</g>
</g>
<!-- Node5&#45;&gt;Node9 -->
<g id="edge8_Node000005_Node000009" class="edge">
<title>Node5&#45;&gt;Node9</title>
<g id="a_edge8_Node000005_Node000009"><a xlink:title=" ">
<path fill="none" stroke="#63b8ff" d="M149.45,-155.33C160.55,-131.72 179,-92.46 187.27,-74.88"/>
<polygon fill="#63b8ff" stroke="#63b8ff" points="146.4,-153.59 145.32,-164.13 152.74,-156.57 146.4,-153.59"/>
</a>
</g>
</g>
<!-- Node7 -->
<g id="Node000007" class="node">
<title>Node7</title>
<g id="a_Node000007"><a xlink:href="vulkan__instance_8hpp.html" target="_top" xlink:title=" ">
<polygon fill="white" stroke="#666666" points="130.12,-74.5 24.88,-74.5 24.88,-55.25 130.12,-55.25 130.12,-74.5"/>
<text text-anchor="middle" x="77.5" y="-61" font-family="Helvetica,sans-Serif" font-size="10.00">vulkan_instance.hpp</text>
</a>
</g>
</g>
<!-- Node6&#45;&gt;Node7 -->
<g id="edge6_Node000006_Node000007" class="edge">
<title>Node6&#45;&gt;Node7</title>
<g id="a_edge6_Node000006_Node000007"><a xlink:title=" ">
<path fill="none" stroke="#63b8ff" d="M93.54,-100.04C89.51,-91.46 84.94,-81.73 81.72,-74.86"/>
<polygon fill="#63b8ff" stroke="#63b8ff" points="90.31,-101.4 97.73,-108.96 96.65,-98.42 90.31,-101.4"/>
</a>
</g>
</g>
<!-- Node8 -->
<g id="Node000008" class="node">
<title>Node8</title>
<g id="a_Node000008"><a xlink:href="vulkan__instance_8cpp.html" target="_top" xlink:title=" ">
<polygon fill="white" stroke="#666666" points="187.12,-19.25 81.88,-19.25 81.88,0 187.12,0 187.12,-19.25"/>
<text text-anchor="middle" x="134.5" y="-5.75" font-family="Helvetica,sans-Serif" font-size="10.00">vulkan_instance.cpp</text>
</a>
</g>
</g>
<!-- Node7&#45;&gt;Node8 -->
<g id="edge7_Node000007_Node000008" class="edge">
<title>Node7&#45;&gt;Node8</title>
<g id="a_edge7_Node000007_Node000008"><a xlink:title=" ">
<path fill="none" stroke="#63b8ff" d="M95.45,-47.11C105.23,-37.97 116.94,-27.03 124.97,-19.52"/>
<polygon fill="#63b8ff" stroke="#63b8ff" points="93.19,-44.42 88.28,-53.81 97.97,-49.54 93.19,-44.42"/>
</a>
</g>
</g>
<!-- Node9&#45;&gt;Node8 -->
<g id="edge9_Node000009_Node000008" class="edge">
<title>Node9&#45;&gt;Node8</title>
<g id="a_edge9_Node000009_Node000008"><a xlink:title=" ">
<path fill="none" stroke="#63b8ff" d="M173.55,-47.11C163.77,-37.97 152.06,-27.03 144.03,-19.52"/>
<polygon fill="#63b8ff" stroke="#63b8ff" points="171.03,-49.54 180.72,-53.81 175.81,-44.42 171.03,-49.54"/>
</a>
</g>
</g>
<!-- Node11&#45;&gt;Node5 -->
<g id="edge12_Node000011_Node000005" class="edge">
<title>Node11&#45;&gt;Node5</title>
<g id="a_edge12_Node000011_Node000005"><a xlink:title=" ">
<path fill="none" stroke="#63b8ff" d="M79.56,-214.55C94.53,-205.17 113.29,-193.42 126.01,-185.45"/>
<polygon fill="#63b8ff" stroke="#63b8ff" points="77.82,-211.51 71.2,-219.79 81.53,-217.45 77.82,-211.51"/>
</a>
</g>
</g>
<!-- Node12 -->
<g id="Node000012" class="node">
<title>Node12</title>
<g id="a_Node000012"><a xlink:href="render__graph_8cpp.html" target="_top" xlink:title=" ">
<polygon fill="white" stroke="#666666" points="91,-185 0,-185 0,-165.75 91,-165.75 91,-185"/>
<text text-anchor="middle" x="45.5" y="-171.5" font-family="Helvetica,sans-Serif" font-size="10.00">render_graph.cpp</text>
</a>
</g>
</g>
<!-- Node11&#45;&gt;Node12 -->
<g id="edge13_Node000011_Node000012" class="edge">
<title>Node11&#45;&gt;Node12</title>
<g id="a_edge13_Node000011_Node000012"><a xlink:title=" ">
<path fill="none" stroke="#63b8ff" d="M51.75,-209.67C50.18,-201.3 48.43,-192 47.19,-185.36"/>
<polygon fill="#63b8ff" stroke="#63b8ff" points="48.28,-210.16 53.57,-219.34 55.16,-208.87 48.28,-210.16"/>
</a>
</g>
</g>
<!-- Node14&#45;&gt;Node3 -->
<g id="edge16_Node000014_Node000003" class="edge">
<title>Node14&#45;&gt;Node3</title>
<g id="a_edge16_Node000014_Node000003"><a xlink:title=" ">
<path fill="none" stroke="#63b8ff" d="M519.81,-272.82C484.47,-263.07 435.48,-249.55 403.4,-240.7"/>
<polygon fill="#63b8ff" stroke="#63b8ff" points="518.73,-276.15 529.3,-275.44 520.59,-269.41 518.73,-276.15"/>
</a>
</g>
</g>
<!-- Node14&#45;&gt;Node4 -->
<g id="edge17_Node000014_Node000004" class="edge">
<title>Node14&#45;&gt;Node4</title>
<g id="a_edge17_Node000014_Node000004"><a xlink:title=" ">
<path fill="none" stroke="#63b8ff" d="M538.48,-270.07C522.56,-260.65 502.44,-248.75 488.84,-240.7"/>
<polygon fill="#63b8ff" stroke="#63b8ff" points="536.54,-272.99 546.93,-275.07 540.11,-266.97 536.54,-272.99"/>
</a>
</g>
</g>
<!-- Node14&#45;&gt;Node10 -->
<g id="edge18_Node000014_Node000010" class="edge">
<title>Node14&#45;&gt;Node10</title>
<g id="a_edge18_Node000014_Node000010"><a xlink:title=" ">
<path fill="none" stroke="#63b8ff" d="M588.67,-269.47C604.98,-257.35 621.78,-239.48 613.5,-221 606.56,-205.5 591.27,-193.16 579.42,-185.42"/>
<polygon fill="#63b8ff" stroke="#63b8ff" points="586.82,-266.49 580.56,-275.04 590.79,-272.26 586.82,-266.49"/>
</a>
</g>
</g>
<!-- Node14&#45;&gt;Node11 -->
<g id="edge20_Node000014_Node000011" class="edge">
<title>Node14&#45;&gt;Node11</title>
<g id="a_edge20_Node000014_Node000011"><a xlink:title=" ">
<path fill="none" stroke="#63b8ff" d="M519.71,-280.28C424.29,-270.28 198.38,-246.6 101.22,-236.42"/>
<polygon fill="#63b8ff" stroke="#63b8ff" points="519.13,-283.74 529.44,-281.31 519.86,-276.78 519.13,-283.74"/>
</a>
</g>
</g>
<!-- Node14&#45;&gt;Node13 -->
<g id="edge27_Node000014_Node000013" class="edge">
<title>Node14&#45;&gt;Node13</title>
<g id="a_edge27_Node000014_Node000013"><a xlink:title=" ">
<path fill="none" stroke="#63b8ff" d="M519.6,-277.48C461.96,-267.76 360.9,-250.73 299.49,-240.39"/>
<polygon fill="#63b8ff" stroke="#63b8ff" points="518.94,-280.91 529.38,-279.13 520.1,-274.01 518.94,-280.91"/>
</a>
</g>
</g>
<!-- Node15 -->
<g id="Node000015" class="node">
<title>Node15</title>
<g id="a_Node000015"><a xlink:href="first__draft_2framebuffer_8hpp.html" target="_top" xlink:title=" ">
<polygon fill="white" stroke="#666666" points="744.25,-240.25 660.75,-240.25 660.75,-221 744.25,-221 744.25,-240.25"/>
<text text-anchor="middle" x="702.5" y="-226.75" font-family="Helvetica,sans-Serif" font-size="10.00">framebuffer.hpp</text>
</a>
</g>
</g>
<!-- Node14&#45;&gt;Node15 -->
<g id="edge19_Node000014_Node000015" class="edge">
<title>Node14&#45;&gt;Node15</title>
<g id="a_edge19_Node000014_Node000015"><a xlink:title=" ">
<path fill="none" stroke="#63b8ff" d="M597.65,-271.79C622.85,-262.14 656.5,-249.25 678.8,-240.7"/>
<polygon fill="#63b8ff" stroke="#63b8ff" points="596.58,-268.45 588.49,-275.3 599.08,-274.99 596.58,-268.45"/>
</a>
</g>
</g>
<!-- Node16 -->
<g id="Node000016" class="node">
<title>Node16</title>
<g id="a_Node000016"><a xlink:href="first__draft_2render__pass_8hpp.html" target="_top" xlink:title=" ">
<polygon fill="white" stroke="#666666" points="850.5,-240.25 762.5,-240.25 762.5,-221 850.5,-221 850.5,-240.25"/>
<text text-anchor="middle" x="806.5" y="-226.75" font-family="Helvetica,sans-Serif" font-size="10.00">render_pass.hpp</text>
</a>
</g>
</g>
<!-- Node14&#45;&gt;Node16 -->
<g id="edge21_Node000014_Node000016" class="edge">
<title>Node14&#45;&gt;Node16</title>
<g id="a_edge21_Node000014_Node000016"><a xlink:title=" ">
<path fill="none" stroke="#63b8ff" d="M607.37,-275.26C652.11,-265.46 721.01,-250.36 764.91,-240.74"/>
<polygon fill="#63b8ff" stroke="#63b8ff" points="606.77,-271.81 597.75,-277.37 608.27,-278.65 606.77,-271.81"/>
</a>
</g>
</g>
<!-- Node17 -->
<g id="Node000017" class="node">
<title>Node17</title>
<g id="a_Node000017"><a xlink:href="deprecated_2render__pass_8hpp.html" target="_top" xlink:title=" ">
<polygon fill="white" stroke="#666666" points="956.5,-240.25 868.5,-240.25 868.5,-221 956.5,-221 956.5,-240.25"/>
<text text-anchor="middle" x="912.5" y="-226.75" font-family="Helvetica,sans-Serif" font-size="10.00">render_pass.hpp</text>
</a>
</g>
</g>
<!-- Node14&#45;&gt;Node17 -->
<g id="edge22_Node000014_Node000017" class="edge">
<title>Node14&#45;&gt;Node17</title>
<g id="a_edge22_Node000014_Node000017"><a xlink:title=" ">
<path fill="none" stroke="#63b8ff" d="M607.64,-278.38C665.51,-269.84 770.16,-254.25 859.5,-240.25 862.36,-239.8 865.3,-239.34 868.26,-238.86"/>
<polygon fill="#63b8ff" stroke="#63b8ff" points="607.25,-274.9 597.87,-279.83 608.27,-281.83 607.25,-274.9"/>
</a>
</g>
</g>
<!-- Node18 -->
<g id="Node000018" class="node">
<title>Node18</title>
<g id="a_Node000018"><a xlink:href="first__draft_2swapchain_8hpp.html" target="_top" xlink:title=" ">
<polygon fill="white" stroke="#666666" points="1056.12,-240.25 974.88,-240.25 974.88,-221 1056.12,-221 1056.12,-240.25"/>
<text text-anchor="middle" x="1015.5" y="-226.75" font-family="Helvetica,sans-Serif" font-size="10.00">swapchain.hpp</text>
</a>
</g>
</g>
<!-- Node14&#45;&gt;Node18 -->
<g id="edge23_Node000014_Node000018" class="edge">
<title>Node14&#45;&gt;Node18</title>
<g id="a_edge23_Node000014_Node000018"><a xlink:title=" ">
<path fill="none" stroke="#63b8ff" d="M607.32,-280.88C681.31,-273.95 835.65,-258.64 965.5,-240.25 968.47,-239.83 971.53,-239.37 974.6,-238.89"/>
<polygon fill="#63b8ff" stroke="#63b8ff" points="607.29,-277.37 597.66,-281.78 607.94,-284.34 607.29,-277.37"/>
</a>
</g>
</g>
<!-- Node19 -->
<g id="Node000019" class="node">
<title>Node19</title>
<g id="a_Node000019"><a xlink:href="swapchain_8hpp.html" target="_top" xlink:title=" ">
<polygon fill="white" stroke="#666666" points="604.12,-240.25 522.88,-240.25 522.88,-221 604.12,-221 604.12,-240.25"/>
<text text-anchor="middle" x="563.5" y="-226.75" font-family="Helvetica,sans-Serif" font-size="10.00">swapchain.hpp</text>
</a>
</g>
</g>
<!-- Node14&#45;&gt;Node19 -->
<g id="edge24_Node000014_Node000019" class="edge">
<title>Node14&#45;&gt;Node19</title>
<g id="a_edge24_Node000014_Node000019"><a xlink:title=" ">
<path fill="none" stroke="#63b8ff" d="M563.5,-264.63C563.5,-256.34 563.5,-247.17 563.5,-240.61"/>
<polygon fill="#63b8ff" stroke="#63b8ff" points="560,-264.57 563.5,-274.57 567,-264.57 560,-264.57"/>
</a>
</g>
</g>
<!-- Node19&#45;&gt;Node5 -->
<g id="edge25_Node000019_Node000005" class="edge">
<title>Node19&#45;&gt;Node5</title>
<g id="a_edge25_Node000019_Node000005"><a xlink:title=" ">
<path fill="none" stroke="#63b8ff" d="M511.57,-220.63C380.16,-201.51 235.61,-186.06 172.6,-179.6"/>
<polygon fill="#63b8ff" stroke="#63b8ff" points="510.72,-224.05 521.12,-222.03 511.74,-217.12 510.72,-224.05"/>
</a>
</g>
</g>
<!-- Node19&#45;&gt;Node10 -->
<g id="edge26_Node000019_Node000010" class="edge">
<title>Node19&#45;&gt;Node10</title>
<g id="a_edge26_Node000019_Node000010"><a xlink:title=" ">
<path fill="none" stroke="#63b8ff" d="M563.5,-209.38C563.5,-201.09 563.5,-191.92 563.5,-185.36"/>
<polygon fill="#63b8ff" stroke="#63b8ff" points="560,-209.32 563.5,-219.32 567,-209.32 560,-209.32"/>
</a>
</g>
</g>
</g>
</svg>
