<?xml version="1.0" encoding="UTF-8" standalone="no"?>
<!DOCTYPE svg PUBLIC "-//W3C//DTD SVG 1.1//EN"
 "http://www.w3.org/Graphics/SVG/1.1/DTD/svg11.dtd">
<!-- Generated by graphviz version 9.0.0 (20230911.1827)
 -->
<!-- Title: device_resource.hpp Pages: 1 -->
<svg width="1199pt" height="138pt"
 viewBox="0.00 0.00 1198.88 137.75" xmlns="http://www.w3.org/2000/svg" xmlns:xlink="http://www.w3.org/1999/xlink">
<g id="graph0" class="graph" transform="scale(1 1) rotate(0) translate(4 133.75)">
<title>device_resource.hpp</title>
<!-- Node1 -->
<g id="Node000001" class="node">
<title>Node1</title>
<g id="a_Node000001"><a xlink:title=" ">
<polygon fill="#999999" stroke="#666666" points="445.38,-129.75 339.38,-129.75 339.38,-110.5 445.38,-110.5 445.38,-129.75"/>
<text text-anchor="middle" x="392.38" y="-116.25" font-family="Helvetica,sans-Serif" font-size="10.00">device_resource.hpp</text>
</a>
</g>
</g>
<!-- Node2 -->
<g id="Node000002" class="node">
<title>Node2</title>
<g id="a_Node000002"><a xlink:href="first__draft_2buffer_8hpp.html" target="_top" xlink:title=" ">
<polygon fill="white" stroke="#666666" points="58.75,-74.5 0,-74.5 0,-55.25 58.75,-55.25 58.75,-74.5"/>
<text text-anchor="middle" x="29.38" y="-61" font-family="Helvetica,sans-Serif" font-size="10.00">buffer.hpp</text>
</a>
</g>
</g>
<!-- Node1&#45;&gt;Node2 -->
<g id="edge1_Node000001_Node000002" class="edge">
<title>Node1&#45;&gt;Node2</title>
<g id="a_edge1_Node000001_Node000002"><a xlink:title=" ">
<path fill="none" stroke="#63b8ff" d="M327.53,-111.9C261.75,-104.18 157.11,-90.81 67.38,-74.5 64.71,-74.02 61.95,-73.47 59.2,-72.9"/>
<polygon fill="#63b8ff" stroke="#63b8ff" points="327.11,-115.38 337.45,-113.06 327.92,-108.42 327.11,-115.38"/>
</a>
</g>
</g>
<!-- Node3 -->
<g id="Node000003" class="node">
<title>Node3</title>
<g id="a_Node000003"><a xlink:href="first__draft_2command__queue_8hpp.html" target="_top" xlink:title=" ">
<polygon fill="white" stroke="#666666" points="185.88,-74.5 76.88,-74.5 76.88,-55.25 185.88,-55.25 185.88,-74.5"/>
<text text-anchor="middle" x="131.38" y="-61" font-family="Helvetica,sans-Serif" font-size="10.00">command_queue.hpp</text>
</a>
</g>
</g>
<!-- Node1&#45;&gt;Node3 -->
<g id="edge2_Node000001_Node000003" class="edge">
<title>Node1&#45;&gt;Node3</title>
<g id="a_edge2_Node000001_Node000003"><a xlink:title=" ">
<path fill="none" stroke="#63b8ff" d="M336.67,-107.76C288.63,-97.96 220.18,-83.99 175.76,-74.93"/>
<polygon fill="#63b8ff" stroke="#63b8ff" points="335.82,-111.16 346.32,-109.73 337.22,-104.3 335.82,-111.16"/>
</a>
</g>
</g>
<!-- Node4 -->
<g id="Node000004" class="node">
<title>Node4</title>
<g id="a_Node000004"><a xlink:href="sampler_8hpp.html" target="_top" xlink:title=" ">
<polygon fill="white" stroke="#666666" points="272.62,-74.5 204.12,-74.5 204.12,-55.25 272.62,-55.25 272.62,-74.5"/>
<text text-anchor="middle" x="238.38" y="-61" font-family="Helvetica,sans-Serif" font-size="10.00">sampler.hpp</text>
</a>
</g>
</g>
<!-- Node1&#45;&gt;Node4 -->
<g id="edge3_Node000001_Node000004" class="edge">
<title>Node1&#45;&gt;Node4</title>
<g id="a_edge3_Node000001_Node000004"><a xlink:title=" ">
<path fill="none" stroke="#63b8ff" d="M355.66,-106.43C327.63,-96.74 289.67,-83.61 264.63,-74.95"/>
<polygon fill="#63b8ff" stroke="#63b8ff" points="354.23,-109.64 364.82,-109.6 356.51,-103.02 354.23,-109.64"/>
</a>
</g>
</g>
<!-- Node5 -->
<g id="Node000005" class="node">
<title>Node5</title>
<g id="a_Node000005"><a xlink:href="first__draft_2shader__module_8hpp.html" target="_top" xlink:title=" ">
<polygon fill="white" stroke="#666666" points="391.75,-74.5 291,-74.5 291,-55.25 391.75,-55.25 391.75,-74.5"/>
<text text-anchor="middle" x="341.38" y="-61" font-family="Helvetica,sans-Serif" font-size="10.00">shader_module.hpp</text>
</a>
</g>
</g>
<!-- Node1&#45;&gt;Node5 -->
<g id="edge4_Node000001_Node000005" class="edge">
<title>Node1&#45;&gt;Node5</title>
<g id="a_edge4_Node000001_Node000005"><a xlink:title=" ">
<path fill="none" stroke="#63b8ff" d="M376.01,-102.04C367.36,-93 357.08,-82.27 349.98,-74.86"/>
<polygon fill="#63b8ff" stroke="#63b8ff" points="373.46,-104.44 382.91,-109.24 378.52,-99.6 373.46,-104.44"/>
</a>
</g>
</g>
<!-- Node6 -->
<g id="Node000006" class="node">
<title>Node6</title>
<g id="a_Node000006"><a xlink:href="surface_8hpp.html" target="_top" xlink:title=" ">
<polygon fill="white" stroke="#666666" points="476.88,-74.5 409.88,-74.5 409.88,-55.25 476.88,-55.25 476.88,-74.5"/>
<text text-anchor="middle" x="443.38" y="-61" font-family="Helvetica,sans-Serif" font-size="10.00">surface.hpp</text>
</a>
</g>
</g>
<!-- Node1&#45;&gt;Node6 -->
<g id="edge5_Node000001_Node000006" class="edge">
<title>Node1&#45;&gt;Node6</title>
<g id="a_edge5_Node000001_Node000006"><a xlink:title=" ">
<path fill="none" stroke="#63b8ff" d="M408.74,-102.04C417.39,-93 427.67,-82.27 434.77,-74.86"/>
<polygon fill="#63b8ff" stroke="#63b8ff" points="406.23,-99.6 401.84,-109.24 411.29,-104.44 406.23,-99.6"/>
</a>
</g>
</g>
<!-- Node7 -->
<g id="Node000007" class="node">
<title>Node7</title>
<g id="a_Node000007"><a xlink:href="swapchain_8hpp.html" target="_top" xlink:title=" ">
<polygon fill="white" stroke="#666666" points="469,-19.25 387.75,-19.25 387.75,0 469,0 469,-19.25"/>
<text text-anchor="middle" x="428.38" y="-5.75" font-family="Helvetica,sans-Serif" font-size="10.00">swapchain.hpp</text>
</a>
</g>
</g>
<!-- Node1&#45;&gt;Node7 -->
<g id="edge6_Node000001_Node000007" class="edge">
<title>Node1&#45;&gt;Node7</title>
<g id="a_edge6_Node000001_Node000007"><a xlink:title=" ">
<path fill="none" stroke="#63b8ff" d="M444.03,-106.18C460.07,-99.46 475.99,-89.42 485.38,-74.5 499.07,-52.74 468.22,-31.22 446.78,-19.55"/>
<polygon fill="#63b8ff" stroke="#63b8ff" points="443.08,-102.79 434.95,-109.59 445.55,-109.34 443.08,-102.79"/>
</a>
</g>
</g>
<!-- Node8 -->
<g id="Node000008" class="node">
<title>Node8</title>
<g id="a_Node000008"><a xlink:href="first__draft_2texture_8hpp.html" target="_top" xlink:title=" ">
<polygon fill="white" stroke="#666666" points="597.75,-74.5 533,-74.5 533,-55.25 597.75,-55.25 597.75,-74.5"/>
<text text-anchor="middle" x="565.38" y="-61" font-family="Helvetica,sans-Serif" font-size="10.00">texture.hpp</text>
</a>
</g>
</g>
<!-- Node1&#45;&gt;Node8 -->
<g id="edge7_Node000001_Node000008" class="edge">
<title>Node1&#45;&gt;Node8</title>
<g id="a_edge7_Node000001_Node000008"><a xlink:title=" ">
<path fill="none" stroke="#63b8ff" d="M432.37,-106.82C463.98,-97.09 507.38,-83.73 535.88,-74.95"/>
<polygon fill="#63b8ff" stroke="#63b8ff" points="431.7,-103.36 423.17,-109.65 433.76,-110.05 431.7,-103.36"/>
</a>
</g>
</g>
<!-- Node9 -->
<g id="Node000009" class="node">
<title>Node9</title>
<g id="a_Node000009"><a xlink:href="texture_8hpp.html" target="_top" xlink:title=" ">
<polygon fill="white" stroke="#666666" points="756.75,-74.5 692,-74.5 692,-55.25 756.75,-55.25 756.75,-74.5"/>
<text text-anchor="middle" x="724.38" y="-61" font-family="Helvetica,sans-Serif" font-size="10.00">texture.hpp</text>
</a>
</g>
</g>
<!-- Node1&#45;&gt;Node9 -->
<g id="edge8_Node000001_Node000009" class="edge">
<title>Node1&#45;&gt;Node9</title>
<g id="a_edge8_Node000001_Node000009"><a xlink:title=" ">
<path fill="none" stroke="#63b8ff" d="M456.67,-108.81C527.14,-97.51 637.41,-79.82 691.8,-71.1"/>
<polygon fill="#63b8ff" stroke="#63b8ff" points="456.53,-105.29 447.21,-110.33 457.64,-112.2 456.53,-105.29"/>
</a>
</g>
</g>
<!-- Node9&#45;&gt;Node7 -->
<g id="edge15_Node000009_Node000007" class="edge">
<title>Node9&#45;&gt;Node7</title>
<g id="a_edge15_Node000009_Node000007"><a xlink:title=" ">
<path fill="none" stroke="#63b8ff" d="M680.41,-55.97C623.44,-45.72 524.85,-27.98 469.37,-18"/>
<polygon fill="#63b8ff" stroke="#63b8ff" points="679.62,-59.38 690.08,-57.7 680.85,-52.49 679.62,-59.38"/>
</a>
</g>
</g>
<!-- Node10 -->
<g id="Node000010" class="node">
<title>Node10</title>
<g id="a_Node000010"><a xlink:href="command__buffer_8hpp.html" target="_top" xlink:title=" ">
<polygon fill="white" stroke="#666666" points="593.75,-19.25 487,-19.25 487,0 593.75,0 593.75,-19.25"/>
<text text-anchor="middle" x="540.38" y="-5.75" font-family="Helvetica,sans-Serif" font-size="10.00">command_buffer.hpp</text>
</a>
</g>
</g>
<!-- Node9&#45;&gt;Node10 -->
<g id="edge9_Node000009_Node000010" class="edge">
<title>Node9&#45;&gt;Node10</title>
<g id="a_edge9_Node000009_Node000010"><a xlink:title=" ">
<path fill="none" stroke="#63b8ff" d="M682.28,-51.69C648.62,-41.95 602.19,-28.52 571.74,-19.7"/>
<polygon fill="#63b8ff" stroke="#63b8ff" points="681.13,-55 691.71,-54.42 683.08,-48.28 681.13,-55"/>
</a>
</g>
</g>
<!-- Node11 -->
<g id="Node000011" class="node">
<title>Node11</title>
<g id="a_Node000011"><a xlink:href="deprecated_2device_8hpp_source.html" target="_top" xlink:title=" ">
<polygon fill="white" stroke="#666666" points="675,-19.25 611.75,-19.25 611.75,0 675,0 675,-19.25"/>
<text text-anchor="middle" x="643.38" y="-5.75" font-family="Helvetica,sans-Serif" font-size="10.00">device.hpp</text>
</a>
</g>
</g>
<!-- Node9&#45;&gt;Node11 -->
<g id="edge10_Node000009_Node000011" class="edge">
<title>Node9&#45;&gt;Node11</title>
<g id="a_edge10_Node000009_Node000011"><a xlink:title=" ">
<path fill="none" stroke="#63b8ff" d="M701.04,-48.53C686.84,-39.2 669.19,-27.6 657.18,-19.7"/>
<polygon fill="#63b8ff" stroke="#63b8ff" points="699.09,-51.44 709.37,-54.01 702.94,-45.59 699.09,-51.44"/>
</a>
</g>
</g>
<!-- Node12 -->
<g id="Node000012" class="node">
<title>Node12</title>
<g id="a_Node000012"><a xlink:href="first__draft_2device_8hpp_source.html" target="_top" xlink:title=" ">
<polygon fill="white" stroke="#666666" points="756,-19.25 692.75,-19.25 692.75,0 756,0 756,-19.25"/>
<text text-anchor="middle" x="724.38" y="-5.75" font-family="Helvetica,sans-Serif" font-size="10.00">device.hpp</text>
</a>
</g>
</g>
<!-- Node9&#45;&gt;Node12 -->
<g id="edge11_Node000009_Node000012" class="edge">
<title>Node9&#45;&gt;Node12</title>
<g id="a_edge11_Node000009_Node000012"><a xlink:title=" ">
<path fill="none" stroke="#63b8ff" d="M724.38,-43.63C724.38,-35.34 724.38,-26.17 724.38,-19.61"/>
<polygon fill="#63b8ff" stroke="#63b8ff" points="720.88,-43.57 724.38,-53.57 727.88,-43.57 720.88,-43.57"/>
</a>
</g>
</g>
<!-- Node13 -->
<g id="Node000013" class="node">
<title>Node13</title>
<g id="a_Node000013"><a xlink:href="first__draft_2framebuffer_8hpp.html" target="_top" xlink:title=" ">
<polygon fill="white" stroke="#666666" points="857.12,-19.25 773.62,-19.25 773.62,0 857.12,0 857.12,-19.25"/>
<text text-anchor="middle" x="815.38" y="-5.75" font-family="Helvetica,sans-Serif" font-size="10.00">framebuffer.hpp</text>
</a>
</g>
</g>
<!-- Node9&#45;&gt;Node13 -->
<g id="edge12_Node000009_Node000013" class="edge">
<title>Node9&#45;&gt;Node13</title>
<g id="a_edge12_Node000009_Node000013"><a xlink:title=" ">
<path fill="none" stroke="#63b8ff" d="M749.67,-49.07C765.77,-39.65 786.11,-27.75 799.86,-19.7"/>
<polygon fill="#63b8ff" stroke="#63b8ff" points="747.98,-46.01 741.12,-54.08 751.52,-52.05 747.98,-46.01"/>
</a>
</g>
</g>
<!-- Node14 -->
<g id="Node000014" class="node">
<title>Node14</title>
<g id="a_Node000014"><a xlink:href="deprecated_2render__pass_8hpp.html" target="_top" xlink:title=" ">
<polygon fill="white" stroke="#666666" points="963.38,-19.25 875.38,-19.25 875.38,0 963.38,0 963.38,-19.25"/>
<text text-anchor="middle" x="919.38" y="-5.75" font-family="Helvetica,sans-Serif" font-size="10.00">render_pass.hpp</text>
</a>
</g>
</g>
<!-- Node9&#45;&gt;Node14 -->
<g id="edge13_Node000009_Node000014" class="edge">
<title>Node9&#45;&gt;Node14</title>
<g id="a_edge13_Node000009_Node000014"><a xlink:title=" ">
<path fill="none" stroke="#63b8ff" d="M768.07,-51.94C803.75,-42.2 853.42,-28.64 885.98,-19.75"/>
<polygon fill="#63b8ff" stroke="#63b8ff" points="767.2,-48.55 758.47,-54.56 769.04,-55.31 767.2,-48.55"/>
</a>
</g>
</g>
<!-- Node15 -->
<g id="Node000015" class="node">
<title>Node15</title>
<g id="a_Node000015"><a xlink:href="first__draft_2render__pass_8hpp.html" target="_top" xlink:title=" ">
<polygon fill="white" stroke="#666666" points="1069.38,-19.25 981.38,-19.25 981.38,0 1069.38,0 1069.38,-19.25"/>
<text text-anchor="middle" x="1025.38" y="-5.75" font-family="Helvetica,sans-Serif" font-size="10.00">render_pass.hpp</text>
</a>
</g>
</g>
<!-- Node9&#45;&gt;Node15 -->
<g id="edge14_Node000009_Node000015" class="edge">
<title>Node9&#45;&gt;Node15</title>
<g id="a_edge14_Node000009_Node000015"><a xlink:title=" ">
<path fill="none" stroke="#63b8ff" d="M768.3,-56.1C825.19,-46.04 923.82,-28.59 980.96,-18.48"/>
<polygon fill="#63b8ff" stroke="#63b8ff" points="767.89,-52.62 758.65,-57.81 769.11,-59.52 767.89,-52.62"/>
</a>
</g>
</g>
<!-- Node16 -->
<g id="Node000016" class="node">
<title>Node16</title>
<g id="a_Node000016"><a xlink:href="synchronization_8hpp.html" target="_top" xlink:title=" ">
<polygon fill="white" stroke="#666666" points="1190.88,-19.25 1087.88,-19.25 1087.88,0 1190.88,0 1190.88,-19.25"/>
<text text-anchor="middle" x="1139.38" y="-5.75" font-family="Helvetica,sans-Serif" font-size="10.00">synchronization.hpp</text>
</a>
</g>
</g>
<!-- Node9&#45;&gt;Node16 -->
<g id="edge16_Node000009_Node000016" class="edge">
<title>Node9&#45;&gt;Node16</title>
<g id="a_edge16_Node000009_Node000016"><a xlink:title=" ">
<path fill="none" stroke="#63b8ff" d="M768.45,-58.54C835.43,-50.37 966.88,-34.16 1078.38,-19.25 1081.34,-18.85 1084.39,-18.44 1087.47,-18.02"/>
<polygon fill="#63b8ff" stroke="#63b8ff" points="768.1,-55.05 758.6,-59.73 768.95,-62 768.1,-55.05"/>
</a>
</g>
</g>
</g>
</svg>
