<?xml version="1.0" encoding="UTF-8" standalone="no"?>
<!DOCTYPE svg PUBLIC "-//W3C//DTD SVG 1.1//EN"
 "http://www.w3.org/Graphics/SVG/1.1/DTD/svg11.dtd">
<!-- Generated by graphviz version 9.0.0 (20230911.1827)
 -->
<!-- Title: device_resource.hpp Pages: 1 -->
<!--zoomable 248 -->

<svg id="main" version="1.1" xmlns="http://www.w3.org/2000/svg" xmlns:xlink="http://www.w3.org/1999/xlink" xml:space="preserve" onload="init(evt)">
<style type="text/css"><![CDATA[
.node, .edge {opacity: 0.7;}
.node.selected, .edge.selected {opacity: 1;}
.edge:hover path { stroke: red; }
.edge:hover polygon { stroke: red; fill: red; }
]]></style>

<defs>
  <circle id="rim" cx="0" cy="0" r="7"/>
  <circle id="rim2" cx="0" cy="0" r="3.5"/>
  <g id="zoomPlus">
    <use xlink:href="#rim" fill="#404040"><set attributeName="fill" to="#808080" begin="zoomplus.mouseover" end="zoomplus.mouseout"/></use>
    <path d="M-4,0h8M0,-4v8" fill="none" stroke="white" stroke-width="1.5" pointer-events="none"/>
  </g>
  <g id="zoomMin">
    <use xlink:href="#rim" fill="#404040"><set attributeName="fill" to="#808080" begin="zoomminus.mouseover" end="zoomminus.mouseout"/></use>
    <path d="M-4,0h8" fill="none" stroke="white" stroke-width="1.5" pointer-events="none"/>
  </g>
  <g id="arrowUp" transform="translate(30 24)">
    <use xlink:href="#rim"/>
    <path pointer-events="none" fill="none" stroke="white" stroke-width="1.5" d="M0,-3.0v7 M-2.5,-0.5L0,-3.0L2.5,-0.5"/>
  </g>
  <g id="arrowRight" transform="rotate(90) translate(36 -43)">
    <use xlink:href="#rim"/>
    <path pointer-events="none" fill="none" stroke="white" stroke-width="1.5" d="M0,-3.0v7 M-2.5,-0.5L0,-3.0L2.5,-0.5"/>
  </g>
  <g id="arrowDown" transform="rotate(180) translate(-30 -48)">
    <use xlink:href="#rim"/>
    <path pointer-events="none" fill="none" stroke="white" stroke-width="1.5" d="M0,-3.0v7 M-2.5,-0.5L0,-3.0L2.5,-0.5"/>
  </g>
  <g id="arrowLeft" transform="rotate(270) translate(-36 17)">
    <use xlink:href="#rim"/>
    <path pointer-events="none" fill="none" stroke="white" stroke-width="1.5" d="M0,-3.0v7 M-2.5,-0.5L0,-3.0L2.5,-0.5"/>
  </g>
  <g id="resetDef">
    <use xlink:href="#rim2" fill="#404040"><set attributeName="fill" to="#808080" begin="reset.mouseover" end="reset.mouseout"/></use>
  </g>
</defs>
<script type="application/ecmascript">
var viewWidth = 1292;
var viewHeight = 248;
var sectionId = 'dynsection-1';
</script>
<script type="application/ecmascript" xlink:href="svg.min.js"/>
<svg id="graph" class="graph">
<g id="viewport">
<title>device_resource.hpp</title>
<!-- Node1 -->
<g id="Node000001" class="node">
<title>Node1</title>
<g id="a_Node000001"><a xlink:title=" ">
<polygon fill="#999999" stroke="#666666" points="930.88,-240.25 824.88,-240.25 824.88,-221 930.88,-221 930.88,-240.25"/>
<text text-anchor="middle" x="877.88" y="-226.75" font-family="Helvetica,sans-Serif" font-size="10.00">device_resource.hpp</text>
</a>
</g>
</g>
<!-- Node2 -->
<g id="Node000002" class="node">
<title>Node2</title>
<g id="a_Node000002"><a xlink:href="buffer_8hpp.html" target="_top" xlink:title=" ">
<polygon fill="white" stroke="#666666" points="484.25,-129.75 425.5,-129.75 425.5,-110.5 484.25,-110.5 484.25,-129.75"/>
<text text-anchor="middle" x="454.88" y="-116.25" font-family="Helvetica,sans-Serif" font-size="10.00">buffer.hpp</text>
</a>
</g>
</g>
<!-- Node1&#45;&gt;Node2 -->
<g id="edge1_Node000001_Node000002" class="edge">
<title>Node1&#45;&gt;Node2</title>
<g id="a_edge1_Node000001_Node000002"><a xlink:title=" ">
<path fill="none" stroke="#63b8ff" d="M831.65,-217.77C744.32,-195.37 557.35,-147.41 484.65,-128.76"/>
<polygon fill="#63b8ff" stroke="#63b8ff" points="830.52,-221.09 841.07,-220.18 832.25,-214.31 830.52,-221.09"/>
</a>
</g>
</g>
<!-- Node7 -->
<g id="Node000007" class="node">
<title>Node7</title>
<g id="a_Node000007"><a xlink:href="command__queue_8hpp.html" target="_top" xlink:title=" ">
<polygon fill="white" stroke="#666666" points="762.38,-129.75 653.38,-129.75 653.38,-110.5 762.38,-110.5 762.38,-129.75"/>
<text text-anchor="middle" x="707.88" y="-116.25" font-family="Helvetica,sans-Serif" font-size="10.00">command_queue.hpp</text>
</a>
</g>
</g>
<!-- Node1&#45;&gt;Node7 -->
<g id="edge8_Node000001_Node000007" class="edge">
<title>Node1&#45;&gt;Node7</title>
<g id="a_edge8_Node000001_Node000007"><a xlink:title=" ">
<path fill="none" stroke="#63b8ff" d="M853.99,-214.38C817.99,-191.41 750.98,-148.63 721.92,-130.09"/>
<polygon fill="#63b8ff" stroke="#63b8ff" points="852.08,-217.32 862.4,-219.75 855.85,-211.42 852.08,-217.32"/>
</a>
</g>
</g>
<!-- Node8 -->
<g id="Node000008" class="node">
<title>Node8</title>
<g id="a_Node000008"><a xlink:href="swapchain_8hpp.html" target="_top" xlink:title=" ">
<polygon fill="white" stroke="#666666" points="1269.5,-74.5 1188.25,-74.5 1188.25,-55.25 1269.5,-55.25 1269.5,-74.5"/>
<text text-anchor="middle" x="1228.88" y="-61" font-family="Helvetica,sans-Serif" font-size="10.00">swapchain.hpp</text>
</a>
</g>
</g>
<!-- Node1&#45;&gt;Node8 -->
<g id="edge35_Node000001_Node000008" class="edge">
<title>Node1&#45;&gt;Node8</title>
<g id="a_edge35_Node000001_Node000008"><a xlink:title=" ">
<path fill="none" stroke="#63b8ff" d="M912.08,-216.32C933.69,-207.75 962.11,-196.15 986.88,-185 1072.28,-146.55 1171.94,-95.47 1211.46,-74.96"/>
<polygon fill="#63b8ff" stroke="#63b8ff" points="910.89,-213.03 902.87,-219.96 913.46,-219.54 910.89,-213.03"/>
</a>
</g>
</g>
<!-- Node9 -->
<g id="Node000009" class="node">
<title>Node9</title>
<g id="a_Node000009"><a xlink:href="sampler_8hpp.html" target="_top" xlink:title=" ">
<polygon fill="white" stroke="#666666" points="1170.12,-74.5 1101.62,-74.5 1101.62,-55.25 1170.12,-55.25 1170.12,-74.5"/>
<text text-anchor="middle" x="1135.88" y="-61" font-family="Helvetica,sans-Serif" font-size="10.00">sampler.hpp</text>
</a>
</g>
</g>
<!-- Node1&#45;&gt;Node9 -->
<g id="edge15_Node000001_Node000009" class="edge">
<title>Node1&#45;&gt;Node9</title>
<g id="a_edge15_Node000001_Node000009"><a xlink:title=" ">
<path fill="none" stroke="#63b8ff" d="M903.74,-215.11C937.07,-196.22 996.6,-161.81 1045.88,-129.75 1074.46,-111.15 1106.81,-87.54 1123.86,-74.87"/>
<polygon fill="#63b8ff" stroke="#63b8ff" points="902.19,-211.97 895.2,-219.94 905.63,-218.07 902.19,-211.97"/>
</a>
</g>
</g>
<!-- Node10 -->
<g id="Node000010" class="node">
<title>Node10</title>
<g id="a_Node000010"><a xlink:href="shader__module_8hpp.html" target="_top" xlink:title=" ">
<polygon fill="white" stroke="#666666" points="329.25,-185 228.5,-185 228.5,-165.75 329.25,-165.75 329.25,-185"/>
<text text-anchor="middle" x="278.88" y="-171.5" font-family="Helvetica,sans-Serif" font-size="10.00">shader_module.hpp</text>
</a>
</g>
</g>
<!-- Node1&#45;&gt;Node10 -->
<g id="edge18_Node000001_Node000010" class="edge">
<title>Node1&#45;&gt;Node10</title>
<g id="a_edge18_Node000001_Node000010"><a xlink:title=" ">
<path fill="none" stroke="#63b8ff" d="M813.28,-223.88C693.31,-213.22 438.44,-190.56 329.73,-180.9"/>
<polygon fill="#63b8ff" stroke="#63b8ff" points="812.68,-227.34 822.95,-224.74 813.3,-220.37 812.68,-227.34"/>
</a>
</g>
</g>
<!-- Node16 -->
<g id="Node000016" class="node">
<title>Node16</title>
<g id="a_Node000016"><a xlink:href="surface_8hpp.html" target="_top" xlink:title=" ">
<polygon fill="white" stroke="#666666" points="1276.38,-129.75 1209.38,-129.75 1209.38,-110.5 1276.38,-110.5 1276.38,-129.75"/>
<text text-anchor="middle" x="1242.88" y="-116.25" font-family="Helvetica,sans-Serif" font-size="10.00">surface.hpp</text>
</a>
</g>
</g>
<!-- Node1&#45;&gt;Node16 -->
<g id="edge32_Node000001_Node000016" class="edge">
<title>Node1&#45;&gt;Node16</title>
<g id="a_edge32_Node000001_Node000016"><a xlink:title=" ">
<path fill="none" stroke="#63b8ff" d="M942.53,-226.34C1022.55,-221.29 1153.36,-209.5 1194.88,-185 1217.1,-171.89 1232.37,-144.11 1239.06,-129.9"/>
<polygon fill="#63b8ff" stroke="#63b8ff" points="942.38,-222.84 932.62,-226.95 942.81,-229.83 942.38,-222.84"/>
</a>
</g>
</g>
<!-- Node17 -->
<g id="Node000017" class="node">
<title>Node17</title>
<g id="a_Node000017"><a xlink:href="texture_8hpp.html" target="_top" xlink:title=" ">
<polygon fill="white" stroke="#666666" points="910.25,-185 845.5,-185 845.5,-165.75 910.25,-165.75 910.25,-185"/>
<text text-anchor="middle" x="877.88" y="-171.5" font-family="Helvetica,sans-Serif" font-size="10.00">texture.hpp</text>
</a>
</g>
</g>
<!-- Node1&#45;&gt;Node17 -->
<g id="edge36_Node000001_Node000017" class="edge">
<title>Node1&#45;&gt;Node17</title>
<g id="a_edge36_Node000001_Node000017"><a xlink:title=" ">
<path fill="none" stroke="#63b8ff" d="M877.88,-209.38C877.88,-201.09 877.88,-191.92 877.88,-185.36"/>
<polygon fill="#63b8ff" stroke="#63b8ff" points="874.38,-209.32 877.88,-219.32 881.38,-209.32 874.38,-209.32"/>
</a>
</g>
</g>
<!-- Node3 -->
<g id="Node000003" class="node">
<title>Node3</title>
<g id="a_Node000003"><a xlink:href="command__buffer_8hpp.html" target="_top" xlink:title=" ">
<polygon fill="white" stroke="#666666" points="605.25,-19.25 498.5,-19.25 498.5,0 605.25,0 605.25,-19.25"/>
<text text-anchor="middle" x="551.88" y="-5.75" font-family="Helvetica,sans-Serif" font-size="10.00">command_buffer.hpp</text>
</a>
</g>
</g>
<!-- Node2&#45;&gt;Node3 -->
<g id="edge2_Node000002_Node000003" class="edge">
<title>Node2&#45;&gt;Node3</title>
<g id="a_edge2_Node000002_Node000003"><a xlink:title=" ">
<path fill="none" stroke="#63b8ff" d="M465.51,-100.38C473.52,-87.08 485.25,-69.18 497.88,-55.25 510.45,-41.37 527.44,-28.04 538.98,-19.62"/>
<polygon fill="#63b8ff" stroke="#63b8ff" points="462.51,-98.59 460.49,-108.99 468.55,-102.12 462.51,-98.59"/>
</a>
</g>
</g>
<!-- Node4 -->
<g id="Node000004" class="node">
<title>Node4</title>
<g id="a_Node000004"><a xlink:href="deprecated_2device_8hpp_source.html" target="_top" xlink:title=" ">
<polygon fill="white" stroke="#666666" points="244.5,-19.25 181.25,-19.25 181.25,0 244.5,0 244.5,-19.25"/>
<text text-anchor="middle" x="212.88" y="-5.75" font-family="Helvetica,sans-Serif" font-size="10.00">device.hpp</text>
</a>
</g>
</g>
<!-- Node2&#45;&gt;Node4 -->
<g id="edge3_Node000002_Node000004" class="edge">
<title>Node2&#45;&gt;Node4</title>
<g id="a_edge3_Node000002_Node000004"><a xlink:title=" ">
<path fill="none" stroke="#63b8ff" d="M413.72,-110.3C356.68,-102.19 246.01,-105.62 217.88,-74.5 204.15,-59.32 207.57,-32.96 210.58,-19.34"/>
<polygon fill="#63b8ff" stroke="#63b8ff" points="413.09,-113.74 423.54,-111.97 414.27,-106.84 413.09,-113.74"/>
</a>
</g>
</g>
<!-- Node5 -->
<g id="Node000005" class="node">
<title>Node5</title>
<g id="a_Node000005"><a xlink:href="device_8hpp_source.html" target="_top" xlink:title=" ">
<polygon fill="white" stroke="#666666" points="904.5,-19.25 841.25,-19.25 841.25,0 904.5,0 904.5,-19.25"/>
<text text-anchor="middle" x="872.88" y="-5.75" font-family="Helvetica,sans-Serif" font-size="10.00">device.hpp</text>
</a>
</g>
</g>
<!-- Node2&#45;&gt;Node5 -->
<g id="edge4_Node000002_Node000005" class="edge">
<title>Node2&#45;&gt;Node5</title>
<g id="a_edge4_Node000002_Node000005"><a xlink:title=" ">
<path fill="none" stroke="#63b8ff" d="M495.86,-110.57C535.82,-102.06 598.25,-88.31 651.88,-74.5 721.11,-56.67 801.57,-32.55 843.71,-19.65"/>
<polygon fill="#63b8ff" stroke="#63b8ff" points="495.25,-107.13 486.19,-112.62 496.7,-113.97 495.25,-107.13"/>
</a>
</g>
</g>
<!-- Node6 -->
<g id="Node000006" class="node">
<title>Node6</title>
<g id="a_Node000006"><a xlink:href="synchronization_8hpp.html" target="_top" xlink:title=" ">
<polygon fill="white" stroke="#666666" points="643.38,-74.5 540.38,-74.5 540.38,-55.25 643.38,-55.25 643.38,-74.5"/>
<text text-anchor="middle" x="591.88" y="-61" font-family="Helvetica,sans-Serif" font-size="10.00">synchronization.hpp</text>
</a>
</g>
</g>
<!-- Node2&#45;&gt;Node6 -->
<g id="edge5_Node000002_Node000006" class="edge">
<title>Node2&#45;&gt;Node6</title>
<g id="a_edge5_Node000002_Node000006"><a xlink:title=" ">
<path fill="none" stroke="#63b8ff" d="M488.53,-106.04C513.37,-96.39 546.54,-83.5 568.52,-74.95"/>
<polygon fill="#63b8ff" stroke="#63b8ff" points="487.58,-102.66 479.53,-109.54 490.11,-109.18 487.58,-102.66"/>
</a>
</g>
</g>
<!-- Node6&#45;&gt;Node3 -->
<g id="edge6_Node000006_Node000003" class="edge">
<title>Node6&#45;&gt;Node3</title>
<g id="a_edge6_Node000006_Node000003"><a xlink:title=" ">
<path fill="none" stroke="#63b8ff" d="M578.4,-45.94C571.75,-37.09 564.02,-26.79 558.62,-19.61"/>
<polygon fill="#63b8ff" stroke="#63b8ff" points="575.56,-47.98 584.36,-53.87 581.15,-43.77 575.56,-47.98"/>
</a>
</g>
</g>
<!-- Node6&#45;&gt;Node5 -->
<g id="edge7_Node000006_Node000005" class="edge">
<title>Node6&#45;&gt;Node5</title>
<g id="a_edge7_Node000006_Node000005"><a xlink:title=" ">
<path fill="none" stroke="#63b8ff" d="M651.03,-52.66C708.86,-41.71 794.73,-25.43 840.83,-16.7"/>
<polygon fill="#63b8ff" stroke="#63b8ff" points="650.52,-49.2 641.35,-54.5 651.83,-56.08 650.52,-49.2"/>
</a>
</g>
</g>
<!-- Node7&#45;&gt;Node3 -->
<g id="edge9_Node000007_Node000003" class="edge">
<title>Node7&#45;&gt;Node3</title>
<g id="a_edge9_Node000007_Node000003"><a xlink:title=" ">
<path fill="none" stroke="#63b8ff" d="M695.44,-101.09C685.08,-87.13 669.26,-68.07 651.88,-55.25 629.99,-39.12 601.36,-27.08 580.34,-19.6"/>
<polygon fill="#63b8ff" stroke="#63b8ff" points="692.41,-102.87 701.08,-108.96 698.1,-98.79 692.41,-102.87"/>
</a>
</g>
</g>
<!-- Node7&#45;&gt;Node4 -->
<g id="edge10_Node000007_Node000004" class="edge">
<title>Node7&#45;&gt;Node4</title>
<g id="a_edge10_Node000007_Node000004"><a xlink:title=" ">
<path fill="none" stroke="#63b8ff" d="M641.82,-115.96C523.13,-109.8 283.11,-94.97 250.88,-74.5 230.61,-61.63 219.73,-33.75 215.3,-19.45"/>
<polygon fill="#63b8ff" stroke="#63b8ff" points="641.58,-119.45 651.75,-116.47 641.94,-112.46 641.58,-119.45"/>
</a>
</g>
</g>
<!-- Node7&#45;&gt;Node5 -->
<g id="edge11_Node000007_Node000005" class="edge">
<title>Node7&#45;&gt;Node5</title>
<g id="a_edge11_Node000007_Node000005"><a xlink:title=" ">
<path fill="none" stroke="#63b8ff" d="M768.87,-106.97C791.39,-100.23 815.99,-89.96 834.88,-74.5 853.25,-59.46 864.84,-33.04 869.91,-19.37"/>
<polygon fill="#63b8ff" stroke="#63b8ff" points="768.16,-103.54 759.47,-109.6 770.04,-110.28 768.16,-103.54"/>
</a>
</g>
</g>
<!-- Node7&#45;&gt;Node6 -->
<g id="edge14_Node000007_Node000006" class="edge">
<title>Node7&#45;&gt;Node6</title>
<g id="a_edge14_Node000007_Node000006"><a xlink:title=" ">
<path fill="none" stroke="#63b8ff" d="M677.95,-105.39C657.09,-95.81 629.85,-83.31 611.65,-74.95"/>
<polygon fill="#63b8ff" stroke="#63b8ff" points="676.27,-108.47 686.82,-109.46 679.19,-102.11 676.27,-108.47"/>
</a>
</g>
</g>
<!-- Node7&#45;&gt;Node8 -->
<g id="edge12_Node000007_Node000008" class="edge">
<title>Node7&#45;&gt;Node8</title>
<g id="a_edge12_Node000007_Node000008"><a xlink:title=" ">
<path fill="none" stroke="#63b8ff" d="M774.06,-114.46C865.37,-107.65 1035.02,-93.69 1178.88,-74.5 1181.84,-74.1 1184.91,-73.66 1187.98,-73.19"/>
<polygon fill="#63b8ff" stroke="#63b8ff" points="774,-110.95 764.29,-115.18 774.52,-117.93 774,-110.95"/>
</a>
</g>
</g>
<!-- Node8&#45;&gt;Node5 -->
<g id="edge13_Node000008_Node000005" class="edge">
<title>Node8&#45;&gt;Node5</title>
<g id="a_edge13_Node000008_Node000005"><a xlink:title=" ">
<path fill="none" stroke="#63b8ff" d="M1176.75,-54.95C1070.89,-38.22 958.36,-22.41 904.63,-14.98"/>
<polygon fill="#63b8ff" stroke="#63b8ff" points="1176.04,-58.38 1186.46,-56.49 1177.14,-51.47 1176.04,-58.38"/>
</a>
</g>
</g>
<!-- Node9&#45;&gt;Node3 -->
<g id="edge16_Node000009_Node000003" class="edge">
<title>Node9&#45;&gt;Node3</title>
<g id="a_edge16_Node000009_Node000003"><a xlink:title=" ">
<path fill="none" stroke="#63b8ff" d="M1090.05,-58.85C1078.57,-57.63 1066.28,-56.36 1054.88,-55.25 891.27,-39.28 697.49,-22.77 605.5,-15.07"/>
<polygon fill="#63b8ff" stroke="#63b8ff" points="1089.38,-62.3 1099.7,-59.89 1090.13,-55.34 1089.38,-62.3"/>
</a>
</g>
</g>
<!-- Node9&#45;&gt;Node5 -->
<g id="edge17_Node000009_Node000005" class="edge">
<title>Node9&#45;&gt;Node5</title>
<g id="a_edge17_Node000009_Node000005"><a xlink:title=" ">
<path fill="none" stroke="#63b8ff" d="M1090.1,-54.61C1037.05,-43.87 950.99,-26.44 904.72,-17.07"/>
<polygon fill="#63b8ff" stroke="#63b8ff" points="1089.24,-58 1099.74,-56.56 1090.63,-51.14 1089.24,-58"/>
</a>
</g>
</g>
<!-- Node10&#45;&gt;Node5 -->
<g id="edge24_Node000010_Node000005" class="edge">
<title>Node10&#45;&gt;Node5</title>
<g id="a_edge24_Node000010_Node000005"><a xlink:title=" ">
<path fill="none" stroke="#63b8ff" d="M340.87,-172.39C454.78,-168.14 692.87,-156.31 770.88,-129.75 814.24,-114.99 831.34,-111.84 857.88,-74.5 869.88,-57.6 872.4,-32.45 872.85,-19.31"/>
<polygon fill="#63b8ff" stroke="#63b8ff" points="340.96,-168.88 331.09,-172.74 341.21,-175.88 340.96,-168.88"/>
</a>
</g>
</g>
<!-- Node11 -->
<g id="Node000011" class="node">
<title>Node11</title>
<g id="a_Node000011"><a xlink:href="compute__pipeline_8hpp.html" target="_top" xlink:title=" ">
<polygon fill="white" stroke="#666666" points="370.12,-74.5 259.62,-74.5 259.62,-55.25 370.12,-55.25 370.12,-74.5"/>
<text text-anchor="middle" x="314.88" y="-61" font-family="Helvetica,sans-Serif" font-size="10.00">compute_pipeline.hpp</text>
</a>
</g>
</g>
<!-- Node10&#45;&gt;Node11 -->
<g id="edge19_Node000010_Node000011" class="edge">
<title>Node10&#45;&gt;Node11</title>
<g id="a_edge19_Node000010_Node000011"><a xlink:title=" ">
<path fill="none" stroke="#63b8ff" d="M216.91,-164.06C177.02,-154.62 136.17,-137.86 156.88,-110.5 169.43,-93.91 219.06,-81.73 259.38,-74.32"/>
<polygon fill="#63b8ff" stroke="#63b8ff" points="216.09,-167.46 226.61,-166.21 217.6,-160.63 216.09,-167.46"/>
</a>
</g>
</g>
<!-- Node12 -->
<g id="Node000012" class="node">
<title>Node12</title>
<g id="a_Node000012"><a xlink:href="descriptor_8hpp.html" target="_top" xlink:title=" ">
<polygon fill="white" stroke="#666666" points="242.25,-129.75 165.5,-129.75 165.5,-110.5 242.25,-110.5 242.25,-129.75"/>
<text text-anchor="middle" x="203.88" y="-116.25" font-family="Helvetica,sans-Serif" font-size="10.00">descriptor.hpp</text>
</a>
</g>
</g>
<!-- Node10&#45;&gt;Node12 -->
<g id="edge23_Node000010_Node000012" class="edge">
<title>Node10&#45;&gt;Node12</title>
<g id="a_edge23_Node000010_Node000012"><a xlink:title=" ">
<path fill="none" stroke="#63b8ff" d="M256.88,-158.76C243.8,-149.47 227.67,-138.02 216.66,-130.2"/>
<polygon fill="#63b8ff" stroke="#63b8ff" points="254.74,-161.53 264.92,-164.47 258.79,-155.82 254.74,-161.53"/>
</a>
</g>
</g>
<!-- Node13 -->
<g id="Node000013" class="node">
<title>Node13</title>
<g id="a_Node000013"><a xlink:href="deprecated_2graphics__pipeline_8hpp.html" target="_top" xlink:title=" ">
<polygon fill="white" stroke="#666666" points="109.75,-129.75 0,-129.75 0,-110.5 109.75,-110.5 109.75,-129.75"/>
<text text-anchor="middle" x="54.88" y="-116.25" font-family="Helvetica,sans-Serif" font-size="10.00">graphics_pipeline.hpp</text>
</a>
</g>
</g>
<!-- Node10&#45;&gt;Node13 -->
<g id="edge25_Node000010_Node000013" class="edge">
<title>Node10&#45;&gt;Node13</title>
<g id="a_edge25_Node000010_Node000013"><a xlink:title=" ">
<path fill="none" stroke="#63b8ff" d="M229.49,-162.64C188.35,-152.86 130.61,-139.13 92.97,-130.18"/>
<polygon fill="#63b8ff" stroke="#63b8ff" points="228.61,-166.02 239.15,-164.93 230.23,-159.21 228.61,-166.02"/>
</a>
</g>
</g>
<!-- Node14 -->
<g id="Node000014" class="node">
<title>Node14</title>
<g id="a_Node000014"><a xlink:href="graphics__pipeline_8hpp.html" target="_top" xlink:title=" ">
<polygon fill="white" stroke="#666666" points="407.75,-129.75 298,-129.75 298,-110.5 407.75,-110.5 407.75,-129.75"/>
<text text-anchor="middle" x="352.88" y="-116.25" font-family="Helvetica,sans-Serif" font-size="10.00">graphics_pipeline.hpp</text>
</a>
</g>
</g>
<!-- Node10&#45;&gt;Node14 -->
<g id="edge26_Node000010_Node000014" class="edge">
<title>Node10&#45;&gt;Node14</title>
<g id="a_edge26_Node000010_Node000014"><a xlink:title=" ">
<path fill="none" stroke="#63b8ff" d="M300.63,-158.72C313.63,-149.37 329.66,-137.83 340.51,-130.02"/>
<polygon fill="#63b8ff" stroke="#63b8ff" points="298.73,-155.78 292.66,-164.46 302.82,-161.46 298.73,-155.78"/>
</a>
</g>
</g>
<!-- Node11&#45;&gt;Node3 -->
<g id="edge20_Node000011_Node000003" class="edge">
<title>Node11&#45;&gt;Node3</title>
<g id="a_edge20_Node000011_Node000003"><a xlink:title=" ">
<path fill="none" stroke="#63b8ff" d="M366.57,-52.26C410.13,-42.47 471.58,-28.67 511.57,-19.68"/>
<polygon fill="#63b8ff" stroke="#63b8ff" points="365.81,-48.84 356.82,-54.45 367.35,-55.67 365.81,-48.84"/>
</a>
</g>
</g>
<!-- Node11&#45;&gt;Node4 -->
<g id="edge21_Node000011_Node000004" class="edge">
<title>Node11&#45;&gt;Node4</title>
<g id="a_edge21_Node000011_Node000004"><a xlink:title=" ">
<path fill="none" stroke="#63b8ff" d="M287.55,-49.61C269.34,-40.11 245.97,-27.9 230.26,-19.7"/>
<polygon fill="#63b8ff" stroke="#63b8ff" points="285.75,-52.62 296.23,-54.14 288.99,-46.41 285.75,-52.62"/>
</a>
</g>
</g>
<!-- Node11&#45;&gt;Node5 -->
<g id="edge22_Node000011_Node000005" class="edge">
<title>Node11&#45;&gt;Node5</title>
<g id="a_edge22_Node000011_Node000005"><a xlink:title=" ">
<path fill="none" stroke="#63b8ff" d="M381.68,-57.5C502.36,-45.98 752.36,-22.13 840.92,-13.67"/>
<polygon fill="#63b8ff" stroke="#63b8ff" points="381.55,-54 371.92,-58.43 382.21,-60.96 381.55,-54"/>
</a>
</g>
</g>
<!-- Node14&#45;&gt;Node3 -->
<g id="edge27_Node000014_Node000003" class="edge">
<title>Node14&#45;&gt;Node3</title>
<g id="a_edge27_Node000014_Node000003"><a xlink:title=" ">
<path fill="none" stroke="#63b8ff" d="M379.47,-104.63C421.14,-81.91 500.62,-38.57 535.16,-19.74"/>
<polygon fill="#63b8ff" stroke="#63b8ff" points="377.93,-101.48 370.83,-109.34 381.28,-107.62 377.93,-101.48"/>
</a>
</g>
</g>
<!-- Node14&#45;&gt;Node4 -->
<g id="edge29_Node000014_Node000004" class="edge">
<title>Node14&#45;&gt;Node4</title>
<g id="a_edge29_Node000014_Node000004"><a xlink:title=" ">
<path fill="none" stroke="#63b8ff" d="M286.34,-110.52C197.51,-98.87 50.79,-79.02 46.88,-74.5 7.79,-29.3 122.63,-15.94 181.03,-12.11"/>
<polygon fill="#63b8ff" stroke="#63b8ff" points="285.8,-113.98 296.16,-111.8 286.7,-107.03 285.8,-113.98"/>
</a>
</g>
</g>
<!-- Node14&#45;&gt;Node5 -->
<g id="edge30_Node000014_Node000005" class="edge">
<title>Node14&#45;&gt;Node5</title>
<g id="a_edge30_Node000014_Node000005"><a xlink:title=" ">
<path fill="none" stroke="#63b8ff" d="M384.03,-105.63C419.08,-90.99 478.03,-68.02 530.88,-55.25 642.91,-28.17 779.84,-16.58 840.87,-12.5"/>
<polygon fill="#63b8ff" stroke="#63b8ff" points="382.77,-102.36 374.92,-109.47 385.5,-108.81 382.77,-102.36"/>
</a>
</g>
</g>
<!-- Node14&#45;&gt;Node6 -->
<g id="edge31_Node000014_Node000006" class="edge">
<title>Node14&#45;&gt;Node6</title>
<g id="a_edge31_Node000014_Node000006"><a xlink:title=" ">
<path fill="none" stroke="#63b8ff" d="M404.72,-107.57C448.67,-97.78 510.82,-83.94 551.23,-74.93"/>
<polygon fill="#63b8ff" stroke="#63b8ff" points="404.17,-104.11 395.17,-109.7 405.69,-110.94 404.17,-104.11"/>
</a>
</g>
</g>
<!-- Node15 -->
<g id="Node000015" class="node">
<title>Node15</title>
<g id="a_Node000015"><a xlink:href="deprecated_2compute__pipeline_8hpp.html" target="_top" xlink:title=" ">
<polygon fill="white" stroke="#666666" points="166.12,-74.5 55.62,-74.5 55.62,-55.25 166.12,-55.25 166.12,-74.5"/>
<text text-anchor="middle" x="110.88" y="-61" font-family="Helvetica,sans-Serif" font-size="10.00">compute_pipeline.hpp</text>
</a>
</g>
</g>
<!-- Node14&#45;&gt;Node15 -->
<g id="edge28_Node000014_Node000015" class="edge">
<title>Node14&#45;&gt;Node15</title>
<g id="a_edge28_Node000014_Node000015"><a xlink:title=" ">
<path fill="none" stroke="#63b8ff" d="M300.37,-107.57C255.88,-97.78 192.95,-83.94 152.03,-74.93"/>
<polygon fill="#63b8ff" stroke="#63b8ff" points="299.55,-110.98 310.07,-109.71 301.06,-104.14 299.55,-110.98"/>
</a>
</g>
</g>
<!-- Node16&#45;&gt;Node5 -->
<g id="edge33_Node000016_Node000005" class="edge">
<title>Node16&#45;&gt;Node5</title>
<g id="a_edge33_Node000016_Node000005"><a xlink:title=" ">
<path fill="none" stroke="#63b8ff" d="M1263.1,-102.4C1277.25,-88.71 1291.54,-69.38 1278.88,-55.25 1254,-27.49 996.13,-15.23 904.76,-11.73"/>
<polygon fill="#63b8ff" stroke="#63b8ff" points="1260.77,-99.79 1255.68,-109.08 1265.45,-104.99 1260.77,-99.79"/>
</a>
</g>
</g>
<!-- Node16&#45;&gt;Node8 -->
<g id="edge34_Node000016_Node000008" class="edge">
<title>Node16&#45;&gt;Node8</title>
<g id="a_edge34_Node000016_Node000008"><a xlink:title=" ">
<path fill="none" stroke="#63b8ff" d="M1237.7,-99.46C1235.49,-91.02 1233,-81.58 1231.24,-74.86"/>
<polygon fill="#63b8ff" stroke="#63b8ff" points="1234.25,-100.09 1240.18,-108.87 1241.02,-98.31 1234.25,-100.09"/>
</a>
</g>
</g>
<!-- Node17&#45;&gt;Node3 -->
<g id="edge37_Node000017_Node000003" class="edge">
<title>Node17&#45;&gt;Node3</title>
<g id="a_edge37_Node000017_Node000003"><a xlink:title=" ">
<path fill="none" stroke="#63b8ff" d="M833.85,-172.11C780.99,-168.2 690.38,-157.7 617.88,-129.75 575.13,-113.28 552.94,-114.64 530.88,-74.5 520.87,-56.29 534.93,-32.52 544.43,-19.73"/>
<polygon fill="#63b8ff" stroke="#63b8ff" points="833.45,-175.59 843.66,-172.78 833.93,-168.6 833.45,-175.59"/>
</a>
</g>
</g>
<!-- Node17&#45;&gt;Node4 -->
<g id="edge38_Node000017_Node000004" class="edge">
<title>Node17&#45;&gt;Node4</title>
<g id="a_edge38_Node000017_Node000004"><a xlink:title=" ">
<path fill="none" stroke="#63b8ff" d="M833.7,-173.26C715.04,-169.92 391.41,-158.38 288.88,-129.75 270.64,-124.66 268.86,-116.41 250.88,-110.5 158.83,-80.26 98.47,-148.45 35.88,-74.5 -5.39,-25.75 119.6,-14.21 180.98,-11.47"/>
<polygon fill="#63b8ff" stroke="#63b8ff" points="833.58,-176.76 843.67,-173.54 833.77,-169.76 833.58,-176.76"/>
</a>
</g>
</g>
<!-- Node17&#45;&gt;Node5 -->
<g id="edge39_Node000017_Node000005" class="edge">
<title>Node17&#45;&gt;Node5</title>
<g id="a_edge39_Node000017_Node000005"><a xlink:title=" ">
<path fill="none" stroke="#63b8ff" d="M921.13,-164.36C986.13,-147.29 1097.12,-109.11 1054.88,-55.25 1036.55,-31.89 951.86,-19.16 904.74,-13.77"/>
<polygon fill="#63b8ff" stroke="#63b8ff" points="920.64,-160.87 911.81,-166.73 922.37,-167.65 920.64,-160.87"/>
</a>
</g>
</g>
<!-- Node17&#45;&gt;Node6 -->
<g id="edge50_Node000017_Node000006" class="edge">
<title>Node17&#45;&gt;Node6</title>
<g id="a_edge50_Node000017_Node000006"><a xlink:title=" ">
<path fill="none" stroke="#63b8ff" d="M833.88,-174.77C784.34,-173.31 703.06,-165.06 643.88,-129.75 621.28,-116.27 604.3,-89.17 596.54,-74.99"/>
<polygon fill="#63b8ff" stroke="#63b8ff" points="833.57,-178.26 843.64,-174.97 833.71,-171.26 833.57,-178.26"/>
</a>
</g>
</g>
<!-- Node17&#45;&gt;Node8 -->
<g id="edge49_Node000017_Node000008" class="edge">
<title>Node17&#45;&gt;Node8</title>
<g id="a_edge49_Node000017_Node000008"><a xlink:title=" ">
<path fill="none" stroke="#63b8ff" d="M921.83,-167.22C963.39,-159.87 1027.19,-147.06 1080.88,-129.75 1129.35,-114.12 1183.7,-88.43 1211.08,-74.88"/>
<polygon fill="#63b8ff" stroke="#63b8ff" points="921.47,-163.73 912.22,-168.89 922.67,-170.62 921.47,-163.73"/>
</a>
</g>
</g>
<!-- Node18 -->
<g id="Node000018" class="node">
<title>Node18</title>
<g id="a_Node000018"><a xlink:href="framebuffer_8hpp.html" target="_top" xlink:title=" ">
<polygon fill="white" stroke="#666666" points="973.62,-129.75 890.12,-129.75 890.12,-110.5 973.62,-110.5 973.62,-129.75"/>
<text text-anchor="middle" x="931.88" y="-116.25" font-family="Helvetica,sans-Serif" font-size="10.00">framebuffer.hpp</text>
</a>
</g>
</g>
<!-- Node17&#45;&gt;Node18 -->
<g id="edge40_Node000017_Node000018" class="edge">
<title>Node17&#45;&gt;Node18</title>
<g id="a_edge40_Node000017_Node000018"><a xlink:title=" ">
<path fill="none" stroke="#63b8ff" d="M894.91,-157.57C904.14,-148.48 915.17,-137.6 922.76,-130.11"/>
<polygon fill="#63b8ff" stroke="#63b8ff" points="892.53,-155.01 887.87,-164.52 897.45,-159.99 892.53,-155.01"/>
</a>
</g>
</g>
<!-- Node19 -->
<g id="Node000019" class="node">
<title>Node19</title>
<g id="a_Node000019"><a xlink:href="deprecated_2render__pass_8hpp.html" target="_top" xlink:title=" ">
<polygon fill="white" stroke="#666666" points="1045.88,-74.5 957.88,-74.5 957.88,-55.25 1045.88,-55.25 1045.88,-74.5"/>
<text text-anchor="middle" x="1001.88" y="-61" font-family="Helvetica,sans-Serif" font-size="10.00">render_pass.hpp</text>
</a>
</g>
</g>
<!-- Node17&#45;&gt;Node19 -->
<g id="edge47_Node000017_Node000019" class="edge">
<title>Node17&#45;&gt;Node19</title>
<g id="a_edge47_Node000017_Node000019"><a xlink:title=" ">
<path fill="none" stroke="#63b8ff" d="M921.69,-165.04C942.83,-158.46 966.99,-147.53 982.88,-129.75 996.9,-114.05 1000.59,-88.39 1001.55,-74.86"/>
<polygon fill="#63b8ff" stroke="#63b8ff" points="920.76,-161.67 912.11,-167.77 922.68,-168.4 920.76,-161.67"/>
</a>
</g>
</g>
<!-- Node20 -->
<g id="Node000020" class="node">
<title>Node20</title>
<g id="a_Node000020"><a xlink:href="render__pass_8hpp.html" target="_top" xlink:title=" ">
<polygon fill="white" stroke="#666666" points="825.88,-74.5 737.88,-74.5 737.88,-55.25 825.88,-55.25 825.88,-74.5"/>
<text text-anchor="middle" x="781.88" y="-61" font-family="Helvetica,sans-Serif" font-size="10.00">render_pass.hpp</text>
</a>
</g>
</g>
<!-- Node17&#45;&gt;Node20 -->
<g id="edge48_Node000017_Node000020" class="edge">
<title>Node17&#45;&gt;Node20</title>
<g id="a_edge48_Node000017_Node000020"><a xlink:title=" ">
<path fill="none" stroke="#63b8ff" d="M862.42,-156.91C841.72,-133.52 805.75,-92.86 789.84,-74.88"/>
<polygon fill="#63b8ff" stroke="#63b8ff" points="859.77,-159.19 869.02,-164.36 865.01,-154.55 859.77,-159.19"/>
</a>
</g>
</g>
<!-- Node18&#45;&gt;Node5 -->
<g id="edge41_Node000018_Node000005" class="edge">
<title>Node18&#45;&gt;Node5</title>
<g id="a_edge41_Node000018_Node000005"><a xlink:title=" ">
<path fill="none" stroke="#63b8ff" d="M925.38,-99.62C920.72,-86.66 913.86,-69.48 905.88,-55.25 898.52,-42.14 887.87,-28.44 880.68,-19.73"/>
<polygon fill="#63b8ff" stroke="#63b8ff" points="921.94,-100.39 928.52,-108.69 928.55,-98.1 921.94,-100.39"/>
</a>
</g>
</g>
<!-- Node18&#45;&gt;Node19 -->
<g id="edge42_Node000018_Node000019" class="edge">
<title>Node18&#45;&gt;Node19</title>
<g id="a_edge42_Node000018_Node000019"><a xlink:title=" ">
<path fill="none" stroke="#63b8ff" d="M952.82,-103.19C965.05,-93.89 980.01,-82.51 990.18,-74.77"/>
<polygon fill="#63b8ff" stroke="#63b8ff" points="950.79,-100.34 944.95,-109.18 955.03,-105.91 950.79,-100.34"/>
</a>
</g>
</g>
<!-- Node18&#45;&gt;Node20 -->
<g id="edge43_Node000018_Node000020" class="edge">
<title>Node18&#45;&gt;Node20</title>
<g id="a_edge43_Node000018_Node000020"><a xlink:title=" ">
<path fill="none" stroke="#63b8ff" d="M895.75,-106.3C868.48,-96.62 831.73,-83.57 807.45,-74.95"/>
<polygon fill="#63b8ff" stroke="#63b8ff" points="894.41,-109.54 905,-109.59 896.75,-102.94 894.41,-109.54"/>
</a>
</g>
</g>
<!-- Node20&#45;&gt;Node3 -->
<g id="edge44_Node000020_Node000003" class="edge">
<title>Node20&#45;&gt;Node3</title>
<g id="a_edge44_Node000020_Node000003"><a xlink:title=" ">
<path fill="none" stroke="#63b8ff" d="M731.44,-52.2C689.18,-42.41 629.72,-28.65 590.99,-19.68"/>
<polygon fill="#63b8ff" stroke="#63b8ff" points="730.59,-55.59 741.12,-54.44 732.17,-48.77 730.59,-55.59"/>
</a>
</g>
</g>
<!-- Node20&#45;&gt;Node4 -->
<g id="edge45_Node000020_Node000004" class="edge">
<title>Node20&#45;&gt;Node4</title>
<g id="a_edge45_Node000020_Node000004"><a xlink:title=" ">
<path fill="none" stroke="#63b8ff" d="M726.49,-58.69C609,-47.7 337.98,-22.33 244.92,-13.62"/>
<polygon fill="#63b8ff" stroke="#63b8ff" points="725.91,-62.15 736.19,-59.6 726.56,-55.18 725.91,-62.15"/>
</a>
</g>
</g>
<!-- Node20&#45;&gt;Node5 -->
<g id="edge46_Node000020_Node000005" class="edge">
<title>Node20&#45;&gt;Node5</title>
<g id="a_edge46_Node000020_Node000005"><a xlink:title=" ">
<path fill="none" stroke="#63b8ff" d="M807.17,-49.07C823.27,-39.65 843.61,-27.75 857.36,-19.7"/>
<polygon fill="#63b8ff" stroke="#63b8ff" points="805.48,-46.01 798.62,-54.08 809.02,-52.05 805.48,-46.01"/>
</a>
</g>
</g>
</g>
</svg>

<g id="navigator" transform="translate(0 0)" fill="#404254">
  <rect fill="#f2f5e9" fill-opacity="0.5" stroke="#606060" stroke-width=".5" x="0" y="0" width="60" height="60"/>
  <use id="zoomplus" xlink:href="#zoomPlus" x="17" y="9" onmousedown="handleZoom(evt,'in')"/>
  <use id="zoomminus" xlink:href="#zoomMin" x="42" y="9" onmousedown="handleZoom(evt,'out')"/>
  <use id="reset" xlink:href="#resetDef" x="30" y="36" onmousedown="handleReset()"/>
   <use id="arrowup" xlink:href="#arrowUp" x="0" y="0" onmousedown="handlePan(0,-1)"/>
  <use id="arrowright" xlink:href="#arrowRight" x="0" y="0" onmousedown="handlePan(1,0)"/>
  <use id="arrowdown" xlink:href="#arrowDown" x="0" y="0" onmousedown="handlePan(0,1)"/>
  <use id="arrowleft" xlink:href="#arrowLeft" x="0" y="0" onmousedown="handlePan(-1,0)"/>
</g>
<svg viewBox="0 0 15 15" width="100%" height="30px" preserveAspectRatio="xMaxYMin meet">
 <g id="arrow_out" transform="scale(0.3 0.3)">
  <a xlink:href="device__resource_8hpp__dep__incl_org.svg" target="_base">
   <rect id="button" ry="5" rx="5" y="6" x="6" height="38" width="38"
        fill="#f2f5e9" fill-opacity="0.5" stroke="#606060" stroke-width="1.0"/>
   <path id="arrow"
     d="M 11.500037,31.436501 C 11.940474,20.09759 22.043105,11.32322 32.158766,21.979434 L 37.068811,17.246167 C 37.068811,17.246167 37.088388,32 37.088388,32 L 22.160133,31.978069 C 22.160133,31.978069 26.997745,27.140456 26.997745,27.140456 C 18.528582,18.264221 13.291696,25.230495 11.500037,31.436501 z"
     style="fill:#404040;"/>
  </a>
 </g>
</svg>

<style type='text/css'>
<![CDATA[
[data-mouse-over-selected='false'] { opacity: 0.7; }
[data-mouse-over-selected='true']  { opacity: 1.0; }
]]>
</style>
<script type="application/ecmascript"><![CDATA[
document.addEventListener('DOMContentLoaded', (event) => {
  highlightEdges();
  highlightAdjacentNodes();
});
]]></script>
</svg>
