<?xml version="1.0" encoding="UTF-8" standalone="no"?>
<!DOCTYPE svg PUBLIC "-//W3C//DTD SVG 1.1//EN"
 "http://www.w3.org/Graphics/SVG/1.1/DTD/svg11.dtd">
<!-- Generated by graphviz version 9.0.0 (20230911.1827)
 -->
<!-- Title: device.hpp Pages: 1 -->
<!--zoomable 315 -->

<svg id="main" version="1.1" xmlns="http://www.w3.org/2000/svg" xmlns:xlink="http://www.w3.org/1999/xlink" xml:space="preserve" onload="init(evt)">
<style type="text/css"><![CDATA[
.node, .edge {opacity: 0.7;}
.node.selected, .edge.selected {opacity: 1;}
.edge:hover path { stroke: red; }
.edge:hover polygon { stroke: red; fill: red; }
]]></style>

<defs>
  <circle id="rim" cx="0" cy="0" r="7"/>
  <circle id="rim2" cx="0" cy="0" r="3.5"/>
  <g id="zoomPlus">
    <use xlink:href="#rim" fill="#404040"><set attributeName="fill" to="#808080" begin="zoomplus.mouseover" end="zoomplus.mouseout"/></use>
    <path d="M-4,0h8M0,-4v8" fill="none" stroke="white" stroke-width="1.5" pointer-events="none"/>
  </g>
  <g id="zoomMin">
    <use xlink:href="#rim" fill="#404040"><set attributeName="fill" to="#808080" begin="zoomminus.mouseover" end="zoomminus.mouseout"/></use>
    <path d="M-4,0h8" fill="none" stroke="white" stroke-width="1.5" pointer-events="none"/>
  </g>
  <g id="arrowUp" transform="translate(30 24)">
    <use xlink:href="#rim"/>
    <path pointer-events="none" fill="none" stroke="white" stroke-width="1.5" d="M0,-3.0v7 M-2.5,-0.5L0,-3.0L2.5,-0.5"/>
  </g>
  <g id="arrowRight" transform="rotate(90) translate(36 -43)">
    <use xlink:href="#rim"/>
    <path pointer-events="none" fill="none" stroke="white" stroke-width="1.5" d="M0,-3.0v7 M-2.5,-0.5L0,-3.0L2.5,-0.5"/>
  </g>
  <g id="arrowDown" transform="rotate(180) translate(-30 -48)">
    <use xlink:href="#rim"/>
    <path pointer-events="none" fill="none" stroke="white" stroke-width="1.5" d="M0,-3.0v7 M-2.5,-0.5L0,-3.0L2.5,-0.5"/>
  </g>
  <g id="arrowLeft" transform="rotate(270) translate(-36 17)">
    <use xlink:href="#rim"/>
    <path pointer-events="none" fill="none" stroke="white" stroke-width="1.5" d="M0,-3.0v7 M-2.5,-0.5L0,-3.0L2.5,-0.5"/>
  </g>
  <g id="resetDef">
    <use xlink:href="#rim2" fill="#404040"><set attributeName="fill" to="#808080" begin="reset.mouseover" end="reset.mouseout"/></use>
  </g>
</defs>
<script type="application/ecmascript">
var viewWidth = 1536;
var viewHeight = 315;
var sectionId = 'dynsection-0';
</script>
<script type="application/ecmascript" xlink:href="svg.min.js"/>
<svg id="graph" class="graph">
<g id="viewport">
<title>device.hpp</title>
<!-- Node1 -->
<g id="Node000001" class="node">
<title>Node1</title>
<g id="a_Node000001"><a xlink:title=" ">
<polygon fill="#999999" stroke="#666666" points="568.62,-306.75 505.38,-306.75 505.38,-287.5 568.62,-287.5 568.62,-306.75"/>
<text text-anchor="middle" x="537" y="-293.25" font-family="Helvetica,sans-Serif" font-size="10.00">device.hpp</text>
</a>
</g>
</g>
<!-- Node2 -->
<g id="Node000002" class="node">
<title>Node2</title>
<g id="a_Node000002"><a xlink:href="buffer_8hpp.html" target="_top" xlink:title=" ">
<polygon fill="white" stroke="#666666" points="220.62,-190.62 97.38,-190.62 97.38,-171.38 220.62,-171.38 220.62,-190.62"/>
<text text-anchor="middle" x="159" y="-177.12" font-family="Helvetica,sans-Serif" font-size="10.00">liger/render/rhi/buffer.hpp</text>
</a>
</g>
</g>
<!-- Node1&#45;&gt;Node2 -->
<g id="edge1_Node000001_Node000002" class="edge">
<title>Node1&#45;&gt;Node2</title>
<g id="a_edge1_Node000001_Node000002"><a xlink:title=" ">
<path fill="none" stroke="#63b8ff" d="M505.09,-295.71C451.76,-294.02 342,-286.19 257,-251.5 226.08,-238.88 195.51,-214.87 176.94,-198.64"/>
<polygon fill="#63b8ff" stroke="#63b8ff" points="179.29,-196.05 169.51,-191.98 174.62,-201.26 179.29,-196.05"/>
</a>
</g>
</g>
<!-- Node6 -->
<g id="Node000006" class="node">
<title>Node6</title>
<g id="a_Node000006"><a xlink:title=" ">
<polygon fill="#e0e0e0" stroke="#999999" points="40,-129.75 0,-129.75 0,-110.5 40,-110.5 40,-129.75"/>
<text text-anchor="middle" x="20" y="-116.25" font-family="Helvetica,sans-Serif" font-size="10.00">string</text>
</a>
</g>
</g>
<!-- Node1&#45;&gt;Node6 -->
<g id="edge46_Node000001_Node000006" class="edge">
<title>Node1&#45;&gt;Node6</title>
<g id="a_edge46_Node000001_Node000006"><a xlink:title=" ">
<path fill="none" stroke="#63b8ff" d="M505.31,-294.4C447.48,-290.67 321.38,-279.75 219,-251.5 158.09,-234.69 139.53,-232.82 88,-196.25 65.66,-180.4 45.35,-156.04 32.85,-139.39"/>
<polygon fill="#63b8ff" stroke="#63b8ff" points="35.74,-137.41 27.03,-131.38 30.08,-141.53 35.74,-137.41"/>
</a>
</g>
</g>
<!-- Node7 -->
<g id="Node000007" class="node">
<title>Node7</title>
<g id="a_Node000007"><a xlink:href="compute__pipeline_8hpp.html" target="_top" xlink:title=" ">
<polygon fill="white" stroke="#666666" points="441.5,-251.5 266.5,-251.5 266.5,-232.25 441.5,-232.25 441.5,-251.5"/>
<text text-anchor="middle" x="354" y="-238" font-family="Helvetica,sans-Serif" font-size="10.00">liger/render/rhi/compute_pipeline.hpp</text>
</a>
</g>
</g>
<!-- Node1&#45;&gt;Node7 -->
<g id="edge6_Node000001_Node000007" class="edge">
<title>Node1&#45;&gt;Node7</title>
<g id="a_edge6_Node000001_Node000007"><a xlink:title=" ">
<path fill="none" stroke="#63b8ff" d="M505.96,-287.09C475.72,-278.29 429.55,-264.86 396.03,-255.11"/>
<polygon fill="#63b8ff" stroke="#63b8ff" points="397.23,-251.81 386.65,-252.38 395.27,-258.53 397.23,-251.81"/>
</a>
</g>
</g>
<!-- Node8 -->
<g id="Node000008" class="node">
<title>Node8</title>
<g id="a_Node000008"><a xlink:href="graphics__pipeline_8hpp.html" target="_top" xlink:title=" ">
<polygon fill="white" stroke="#666666" points="765.12,-190.62 590.88,-190.62 590.88,-171.38 765.12,-171.38 765.12,-190.62"/>
<text text-anchor="middle" x="678" y="-177.12" font-family="Helvetica,sans-Serif" font-size="10.00">liger/render/rhi/graphics_pipeline.hpp</text>
</a>
</g>
</g>
<!-- Node1&#45;&gt;Node8 -->
<g id="edge7_Node000001_Node000008" class="edge">
<title>Node1&#45;&gt;Node8</title>
<g id="a_edge7_Node000001_Node000008"><a xlink:title=" ">
<path fill="none" stroke="#63b8ff" d="M561.2,-287.09C579.66,-279.44 605.05,-267.21 624,-251.5 641.78,-236.76 657.39,-215.21 667.19,-200.02"/>
<polygon fill="#63b8ff" stroke="#63b8ff" points="669.89,-202.3 672.2,-191.96 663.95,-198.6 669.89,-202.3"/>
</a>
</g>
</g>
<!-- Node12 -->
<g id="Node000012" class="node">
<title>Node12</title>
<g id="a_Node000012"><a xlink:href="render__graph_8hpp.html" target="_top" xlink:title=" ">
<polygon fill="white" stroke="#666666" points="614.75,-251.5 459.25,-251.5 459.25,-232.25 614.75,-232.25 614.75,-251.5"/>
<text text-anchor="middle" x="537" y="-238" font-family="Helvetica,sans-Serif" font-size="10.00">liger/render/rhi/render_graph.hpp</text>
</a>
</g>
</g>
<!-- Node1&#45;&gt;Node12 -->
<g id="edge11_Node000001_Node000012" class="edge">
<title>Node1&#45;&gt;Node12</title>
<g id="a_edge11_Node000001_Node000012"><a xlink:title=" ">
<path fill="none" stroke="#63b8ff" d="M537,-287.33C537,-280.82 537,-271.67 537,-263.37"/>
<polygon fill="#63b8ff" stroke="#63b8ff" points="540.5,-263.37 537,-253.37 533.5,-263.37 540.5,-263.37"/>
</a>
</g>
</g>
<!-- Node27 -->
<g id="Node000027" class="node">
<title>Node27</title>
<g id="a_Node000027"><a xlink:href="shader__module_8hpp.html" target="_top" xlink:title=" ">
<polygon fill="white" stroke="#666666" points="1323.62,-190.62 1158.38,-190.62 1158.38,-171.38 1323.62,-171.38 1323.62,-190.62"/>
<text text-anchor="middle" x="1241" y="-177.12" font-family="Helvetica,sans-Serif" font-size="10.00">liger/render/rhi/shader_module.hpp</text>
</a>
</g>
</g>
<!-- Node1&#45;&gt;Node27 -->
<g id="edge38_Node000001_Node000027" class="edge">
<title>Node1&#45;&gt;Node27</title>
<g id="a_edge38_Node000001_Node000027"><a xlink:title=" ">
<path fill="none" stroke="#63b8ff" d="M568.94,-295.14C644.84,-292.35 841.78,-282.47 1003,-251.5 1076.03,-237.47 1158.88,-210.73 1205.04,-194.82"/>
<polygon fill="#63b8ff" stroke="#63b8ff" points="1205.95,-198.2 1214.25,-191.61 1203.65,-191.59 1205.95,-198.2"/>
</a>
</g>
</g>
<!-- Node28 -->
<g id="Node000028" class="node">
<title>Node28</title>
<g id="a_Node000028"><a xlink:href="swapchain_8hpp.html" target="_top" xlink:title=" ">
<polygon fill="white" stroke="#666666" points="993.88,-251.5 848.12,-251.5 848.12,-232.25 993.88,-232.25 993.88,-251.5"/>
<text text-anchor="middle" x="921" y="-238" font-family="Helvetica,sans-Serif" font-size="10.00">liger/render/rhi/swapchain.hpp</text>
</a>
</g>
</g>
<!-- Node1&#45;&gt;Node28 -->
<g id="edge41_Node000001_Node000028" class="edge">
<title>Node1&#45;&gt;Node28</title>
<g id="a_edge41_Node000001_Node000028"><a xlink:title=" ">
<path fill="none" stroke="#63b8ff" d="M569.08,-291.68C629.14,-283.35 760.06,-265.19 844.18,-253.53"/>
<polygon fill="#63b8ff" stroke="#63b8ff" points="844.55,-257.01 853.98,-252.17 843.59,-250.08 844.55,-257.01"/>
</a>
</g>
</g>
<!-- Node3 -->
<g id="Node000003" class="node">
<title>Node3</title>
<g id="a_Node000003"><a xlink:href="device__resource__state_8hpp.html" target="_top" xlink:title=" ">
<polygon fill="white" stroke="#666666" points="393.75,-129.75 196.25,-129.75 196.25,-110.5 393.75,-110.5 393.75,-129.75"/>
<text text-anchor="middle" x="295" y="-116.25" font-family="Helvetica,sans-Serif" font-size="10.00">liger/render/rhi/device_resource_state.hpp</text>
</a>
</g>
</g>
<!-- Node2&#45;&gt;Node3 -->
<g id="edge2_Node000002_Node000003" class="edge">
<title>Node2&#45;&gt;Node3</title>
<g id="a_edge2_Node000002_Node000003"><a xlink:title=" ">
<path fill="none" stroke="#63b8ff" d="M179.95,-170.93C202.38,-161.22 238.2,-145.71 263.91,-134.58"/>
<polygon fill="#63b8ff" stroke="#63b8ff" points="265.07,-137.89 272.86,-130.71 262.29,-131.47 265.07,-137.89"/>
</a>
</g>
</g>
<!-- Node2&#45;&gt;Node6 -->
<g id="edge5_Node000002_Node000006" class="edge">
<title>Node2&#45;&gt;Node6</title>
<g id="a_edge5_Node000002_Node000006"><a xlink:title=" ">
<path fill="none" stroke="#63b8ff" d="M137.59,-170.93C114.4,-161.11 77.2,-145.35 50.86,-134.2"/>
<polygon fill="#63b8ff" stroke="#63b8ff" points="52.27,-130.99 41.7,-130.32 49.54,-137.44 52.27,-130.99"/>
</a>
</g>
</g>
<!-- Node4 -->
<g id="Node000004" class="node">
<title>Node4</title>
<g id="a_Node000004"><a xlink:href="enum__bitmask_8hpp.html" target="_top" xlink:title=" ">
<polygon fill="white" stroke="#666666" points="481.62,-74.5 340.38,-74.5 340.38,-55.25 481.62,-55.25 481.62,-74.5"/>
<text text-anchor="middle" x="411" y="-61" font-family="Helvetica,sans-Serif" font-size="10.00">liger/core/enum_bitmask.hpp</text>
</a>
</g>
</g>
<!-- Node3&#45;&gt;Node4 -->
<g id="edge3_Node000003_Node000004" class="edge">
<title>Node3&#45;&gt;Node4</title>
<g id="a_edge3_Node000003_Node000004"><a xlink:title=" ">
<path fill="none" stroke="#63b8ff" d="M314.68,-110.09C332.84,-101.75 360.08,-89.25 380.97,-79.66"/>
<polygon fill="#63b8ff" stroke="#63b8ff" points="382.22,-82.94 389.85,-75.58 379.3,-76.58 382.22,-82.94"/>
</a>
</g>
</g>
<!-- Node5 -->
<g id="Node000005" class="node">
<title>Node5</title>
<g id="a_Node000005"><a xlink:title=" ">
<polygon fill="#e0e0e0" stroke="#999999" points="441.88,-19.25 380.12,-19.25 380.12,0 441.88,0 441.88,-19.25"/>
<text text-anchor="middle" x="411" y="-5.75" font-family="Helvetica,sans-Serif" font-size="10.00">type_traits</text>
</a>
</g>
</g>
<!-- Node4&#45;&gt;Node5 -->
<g id="edge4_Node000004_Node000005" class="edge">
<title>Node4&#45;&gt;Node5</title>
<g id="a_edge4_Node000004_Node000005"><a xlink:title=" ">
<path fill="none" stroke="#63b8ff" d="M411,-55.08C411,-48.57 411,-39.42 411,-31.12"/>
<polygon fill="#63b8ff" stroke="#63b8ff" points="414.5,-31.12 411,-21.12 407.5,-31.12 414.5,-31.12"/>
</a>
</g>
</g>
<!-- Node9 -->
<g id="Node000009" class="node">
<title>Node9</title>
<g id="a_Node000009"><a xlink:href="format_8hpp.html" target="_top" xlink:title=" ">
<polygon fill="white" stroke="#666666" points="781.5,-129.75 654.5,-129.75 654.5,-110.5 781.5,-110.5 781.5,-129.75"/>
<text text-anchor="middle" x="718" y="-116.25" font-family="Helvetica,sans-Serif" font-size="10.00">liger/render/rhi/format.hpp</text>
</a>
</g>
</g>
<!-- Node8&#45;&gt;Node9 -->
<g id="edge8_Node000008_Node000009" class="edge">
<title>Node8&#45;&gt;Node9</title>
<g id="a_edge8_Node000008_Node000009"><a xlink:title=" ">
<path fill="none" stroke="#63b8ff" d="M684.08,-171.06C689.71,-162.76 698.28,-150.14 705.4,-139.67"/>
<polygon fill="#63b8ff" stroke="#63b8ff" points="708.29,-141.64 711.02,-131.4 702.5,-137.71 708.29,-141.64"/>
</a>
</g>
</g>
<!-- Node11 -->
<g id="Node000011" class="node">
<title>Node11</title>
<g id="a_Node000011"><a xlink:title=" ">
<polygon fill="#e0e0e0" stroke="#999999" points="531.5,-129.75 488.5,-129.75 488.5,-110.5 531.5,-110.5 531.5,-129.75"/>
<text text-anchor="middle" x="510" y="-116.25" font-family="Helvetica,sans-Serif" font-size="10.00">vector</text>
</a>
</g>
</g>
<!-- Node8&#45;&gt;Node11 -->
<g id="edge10_Node000008_Node000011" class="edge">
<title>Node8&#45;&gt;Node11</title>
<g id="a_edge10_Node000008_Node000011"><a xlink:title=" ">
<path fill="none" stroke="#63b8ff" d="M652.12,-170.93C622.64,-160.6 574.44,-143.71 542.47,-132.5"/>
<polygon fill="#63b8ff" stroke="#63b8ff" points="543.92,-129.3 533.32,-129.3 541.6,-135.91 543.92,-129.3"/>
</a>
</g>
</g>
<!-- Node10 -->
<g id="Node000010" class="node">
<title>Node10</title>
<g id="a_Node000010"><a xlink:title=" ">
<polygon fill="#e0e0e0" stroke="#999999" points="926.62,-19.25 881.38,-19.25 881.38,0 926.62,0 926.62,-19.25"/>
<text text-anchor="middle" x="904" y="-5.75" font-family="Helvetica,sans-Serif" font-size="10.00">cstdint</text>
</a>
</g>
</g>
<!-- Node9&#45;&gt;Node10 -->
<g id="edge9_Node000009_Node000010" class="edge">
<title>Node9&#45;&gt;Node10</title>
<g id="a_edge9_Node000009_Node000010"><a xlink:title=" ">
<path fill="none" stroke="#63b8ff" d="M733.54,-110.06C765.61,-91.35 839.4,-48.31 878.54,-25.48"/>
<polygon fill="#63b8ff" stroke="#63b8ff" points="880.19,-28.56 887.07,-20.5 876.67,-22.52 880.19,-28.56"/>
</a>
</g>
</g>
<!-- Node12&#45;&gt;Node2 -->
<g id="edge18_Node000012_Node000002" class="edge">
<title>Node12&#45;&gt;Node2</title>
<g id="a_edge18_Node000012_Node000002"><a xlink:title=" ">
<path fill="none" stroke="#63b8ff" d="M466.72,-231.75C404.39,-223.4 310.93,-210.24 230,-196.25 224.7,-195.33 219.2,-194.33 213.7,-193.28"/>
<polygon fill="#63b8ff" stroke="#63b8ff" points="214.46,-189.87 203.97,-191.4 213.12,-196.74 214.46,-189.87"/>
</a>
</g>
</g>
<!-- Node13 -->
<g id="Node000013" class="node">
<title>Node13</title>
<g id="a_Node000013"><a xlink:href="dag_8hpp.html" target="_top" xlink:title=" ">
<polygon fill="white" stroke="#666666" points="572.62,-190.62 479.38,-190.62 479.38,-171.38 572.62,-171.38 572.62,-190.62"/>
<text text-anchor="middle" x="526" y="-177.12" font-family="Helvetica,sans-Serif" font-size="10.00">liger/core/dag.hpp</text>
</a>
</g>
</g>
<!-- Node12&#45;&gt;Node13 -->
<g id="edge12_Node000012_Node000013" class="edge">
<title>Node12&#45;&gt;Node13</title>
<g id="a_edge12_Node000012_Node000013"><a xlink:title=" ">
<path fill="none" stroke="#63b8ff" d="M535.33,-231.93C533.86,-224.07 531.67,-212.32 529.77,-202.2"/>
<polygon fill="#63b8ff" stroke="#63b8ff" points="533.24,-201.7 527.96,-192.51 526.36,-202.99 533.24,-201.7"/>
</a>
</g>
</g>
<!-- Node17 -->
<g id="Node000017" class="node">
<title>Node17</title>
<g id="a_Node000017"><a xlink:href="command__buffer_8hpp.html" target="_top" xlink:title=" ">
<polygon fill="white" stroke="#666666" points="1101.62,-190.62 930.38,-190.62 930.38,-171.38 1101.62,-171.38 1101.62,-190.62"/>
<text text-anchor="middle" x="1016" y="-177.12" font-family="Helvetica,sans-Serif" font-size="10.00">liger/render/rhi/command_buffer.hpp</text>
</a>
</g>
</g>
<!-- Node12&#45;&gt;Node17 -->
<g id="edge19_Node000012_Node000017" class="edge">
<title>Node12&#45;&gt;Node17</title>
<g id="a_edge19_Node000012_Node000017"><a xlink:title=" ">
<path fill="none" stroke="#63b8ff" d="M614.89,-232.66C692.74,-224.25 815.79,-210.45 922,-196.25 930.04,-195.17 938.46,-193.99 946.82,-192.77"/>
<polygon fill="#63b8ff" stroke="#63b8ff" points="947.25,-196.24 956.63,-191.32 946.23,-189.32 947.25,-196.24"/>
</a>
</g>
</g>
<!-- Node21 -->
<g id="Node000021" class="node">
<title>Node21</title>
<g id="a_Node000021"><a xlink:href="resource__version__registry_8hpp.html" target="_top" xlink:title=" ">
<polygon fill="white" stroke="#666666" points="461.38,-196.25 306.62,-196.25 306.62,-165.75 461.38,-165.75 461.38,-196.25"/>
<text text-anchor="start" x="314.62" y="-182.75" font-family="Helvetica,sans-Serif" font-size="10.00">liger/render/rhi/resource_version</text>
<text text-anchor="middle" x="384" y="-171.5" font-family="Helvetica,sans-Serif" font-size="10.00">_registry.hpp</text>
</a>
</g>
</g>
<!-- Node12&#45;&gt;Node21 -->
<g id="edge26_Node000012_Node000021" class="edge">
<title>Node12&#45;&gt;Node21</title>
<g id="a_edge26_Node000012_Node000021"><a xlink:title=" ">
<path fill="none" stroke="#63b8ff" d="M513.43,-231.8C491.97,-223.55 459.61,-211.09 432.62,-200.71"/>
<polygon fill="#63b8ff" stroke="#63b8ff" points="434.19,-197.56 423.6,-197.24 431.68,-204.1 434.19,-197.56"/>
</a>
</g>
</g>
<!-- Node23 -->
<g id="Node000023" class="node">
<title>Node23</title>
<g id="a_Node000023"><a xlink:href="texture_8hpp.html" target="_top" xlink:title=" ">
<polygon fill="white" stroke="#666666" points="912.62,-190.62 783.38,-190.62 783.38,-171.38 912.62,-171.38 912.62,-190.62"/>
<text text-anchor="middle" x="848" y="-177.12" font-family="Helvetica,sans-Serif" font-size="10.00">liger/render/rhi/texture.hpp</text>
</a>
</g>
</g>
<!-- Node12&#45;&gt;Node23 -->
<g id="edge29_Node000012_Node000023" class="edge">
<title>Node12&#45;&gt;Node23</title>
<g id="a_edge29_Node000012_Node000023"><a xlink:title=" ">
<path fill="none" stroke="#63b8ff" d="M585.58,-231.79C633.49,-222.81 708.81,-208.66 774,-196.25 779.19,-195.26 784.58,-194.23 789.99,-193.2"/>
<polygon fill="#63b8ff" stroke="#63b8ff" points="790.38,-196.68 799.54,-191.36 789.06,-189.81 790.38,-196.68"/>
</a>
</g>
</g>
<!-- Node25 -->
<g id="Node000025" class="node">
<title>Node25</title>
<g id="a_Node000025"><a xlink:title=" ">
<polygon fill="#e0e0e0" stroke="#999999" points="288.88,-190.62 239.12,-190.62 239.12,-171.38 288.88,-171.38 288.88,-190.62"/>
<text text-anchor="middle" x="264" y="-177.12" font-family="Helvetica,sans-Serif" font-size="10.00">optional</text>
</a>
</g>
</g>
<!-- Node12&#45;&gt;Node25 -->
<g id="edge36_Node000012_Node000025" class="edge">
<title>Node12&#45;&gt;Node25</title>
<g id="a_edge36_Node000012_Node000025"><a xlink:title=" ">
<path fill="none" stroke="#63b8ff" d="M466.78,-231.78C418.66,-224.57 353.7,-212.92 298,-196.25 296.65,-195.85 295.29,-195.41 293.92,-194.94"/>
<polygon fill="#63b8ff" stroke="#63b8ff" points="295.52,-191.81 284.93,-191.55 293.05,-198.36 295.52,-191.81"/>
</a>
</g>
</g>
<!-- Node26 -->
<g id="Node000026" class="node">
<title>Node26</title>
<g id="a_Node000026"><a xlink:title=" ">
<polygon fill="#e0e0e0" stroke="#999999" points="1435.75,-129.75 1370.25,-129.75 1370.25,-110.5 1435.75,-110.5 1435.75,-129.75"/>
<text text-anchor="middle" x="1403" y="-116.25" font-family="Helvetica,sans-Serif" font-size="10.00">string_view</text>
</a>
</g>
</g>
<!-- Node12&#45;&gt;Node26 -->
<g id="edge37_Node000012_Node000026" class="edge">
<title>Node12&#45;&gt;Node26</title>
<g id="a_edge37_Node000012_Node000026"><a xlink:title=" ">
<path fill="none" stroke="#63b8ff" d="M615.01,-238.07C809.17,-230.89 1300.87,-211.31 1333,-196.25 1346.66,-189.85 1372.87,-159.06 1389.05,-138.94"/>
<polygon fill="#63b8ff" stroke="#63b8ff" points="1391.67,-141.26 1395.15,-131.25 1386.19,-136.91 1391.67,-141.26"/>
</a>
</g>
</g>
<!-- Node13&#45;&gt;Node10 -->
<g id="edge15_Node000013_Node000010" class="edge">
<title>Node13&#45;&gt;Node10</title>
<g id="a_edge15_Node000013_Node000010"><a xlink:title=" ">
<path fill="none" stroke="#63b8ff" d="M539.89,-170.9C561.69,-156.84 605.54,-129.48 645,-110.5 723.37,-72.81 819.94,-38.63 870.11,-21.74"/>
<polygon fill="#63b8ff" stroke="#63b8ff" points="871.15,-25.08 879.53,-18.59 868.94,-18.44 871.15,-25.08"/>
</a>
</g>
</g>
<!-- Node13&#45;&gt;Node11 -->
<g id="edge17_Node000013_Node000011" class="edge">
<title>Node13&#45;&gt;Node11</title>
<g id="a_edge17_Node000013_Node000011"><a xlink:title=" ">
<path fill="none" stroke="#63b8ff" d="M523.57,-171.06C521.41,-163.1 518.17,-151.19 515.4,-140.99"/>
<polygon fill="#63b8ff" stroke="#63b8ff" points="518.85,-140.34 512.85,-131.61 512.09,-142.18 518.85,-140.34"/>
</a>
</g>
</g>
<!-- Node14 -->
<g id="Node000014" class="node">
<title>Node14</title>
<g id="a_Node000014"><a xlink:title=" ">
<polygon fill="#e0e0e0" stroke="#999999" points="598.12,-129.75 549.88,-129.75 549.88,-110.5 598.12,-110.5 598.12,-129.75"/>
<text text-anchor="middle" x="574" y="-116.25" font-family="Helvetica,sans-Serif" font-size="10.00">cassert</text>
</a>
</g>
</g>
<!-- Node13&#45;&gt;Node14 -->
<g id="edge13_Node000013_Node000014" class="edge">
<title>Node13&#45;&gt;Node14</title>
<g id="a_edge13_Node000013_Node000014"><a xlink:title=" ">
<path fill="none" stroke="#63b8ff" d="M533.29,-171.06C540.2,-162.59 550.77,-149.62 559.41,-139.02"/>
<polygon fill="#63b8ff" stroke="#63b8ff" points="562.08,-141.29 565.68,-131.32 556.65,-136.86 562.08,-141.29"/>
</a>
</g>
</g>
<!-- Node15 -->
<g id="Node000015" class="node">
<title>Node15</title>
<g id="a_Node000015"><a xlink:title=" ">
<polygon fill="#e0e0e0" stroke="#999999" points="177.88,-129.75 122.12,-129.75 122.12,-110.5 177.88,-110.5 177.88,-129.75"/>
<text text-anchor="middle" x="150" y="-116.25" font-family="Helvetica,sans-Serif" font-size="10.00">concepts</text>
</a>
</g>
</g>
<!-- Node13&#45;&gt;Node15 -->
<g id="edge14_Node000013_Node000015" class="edge">
<title>Node13&#45;&gt;Node15</title>
<g id="a_edge14_Node000013_Node000015"><a xlink:title=" ">
<path fill="none" stroke="#63b8ff" d="M492.99,-170.88C485.47,-169.01 477.49,-167.17 470,-165.75 348.97,-142.74 313.77,-151.63 189.33,-129.99"/>
<polygon fill="#63b8ff" stroke="#63b8ff" points="190.17,-126.58 179.71,-128.28 188.95,-133.47 190.17,-126.58"/>
</a>
</g>
</g>
<!-- Node16 -->
<g id="Node000016" class="node">
<title>Node16</title>
<g id="a_Node000016"><a xlink:title=" ">
<polygon fill="#e0e0e0" stroke="#999999" points="470,-129.75 412,-129.75 412,-110.5 470,-110.5 470,-129.75"/>
<text text-anchor="middle" x="441" y="-116.25" font-family="Helvetica,sans-Serif" font-size="10.00">functional</text>
</a>
</g>
</g>
<!-- Node13&#45;&gt;Node16 -->
<g id="edge16_Node000013_Node000016" class="edge">
<title>Node13&#45;&gt;Node16</title>
<g id="a_edge16_Node000013_Node000016"><a xlink:title=" ">
<path fill="none" stroke="#63b8ff" d="M513.09,-171.06C499.86,-161.89 479.03,-147.47 463.16,-136.48"/>
<polygon fill="#63b8ff" stroke="#63b8ff" points="465.49,-133.83 455.28,-131.01 461.5,-139.58 465.49,-133.83"/>
</a>
</g>
</g>
<!-- Node17&#45;&gt;Node4 -->
<g id="edge20_Node000017_Node000004" class="edge">
<title>Node17&#45;&gt;Node4</title>
<g id="a_edge20_Node000017_Node000004"><a xlink:title=" ">
<path fill="none" stroke="#63b8ff" d="M1012.29,-171.28C1005.24,-155.91 988.3,-124.32 963,-110.5 922.85,-88.57 637.23,-74.58 493.38,-68.85"/>
<polygon fill="#63b8ff" stroke="#63b8ff" points="493.65,-65.36 483.52,-68.46 493.37,-72.35 493.65,-65.36"/>
</a>
</g>
</g>
<!-- Node18 -->
<g id="Node000018" class="node">
<title>Node18</title>
<g id="a_Node000018"><a xlink:href="extent_8hpp.html" target="_top" xlink:title=" ">
<polygon fill="white" stroke="#666666" points="1136.12,-129.75 1009.88,-129.75 1009.88,-110.5 1136.12,-110.5 1136.12,-129.75"/>
<text text-anchor="middle" x="1073" y="-116.25" font-family="Helvetica,sans-Serif" font-size="10.00">liger/render/rhi/extent.hpp</text>
</a>
</g>
</g>
<!-- Node17&#45;&gt;Node18 -->
<g id="edge21_Node000017_Node000018" class="edge">
<title>Node17&#45;&gt;Node18</title>
<g id="a_edge21_Node000017_Node000018"><a xlink:title=" ">
<path fill="none" stroke="#63b8ff" d="M1024.66,-171.06C1033.03,-162.41 1045.93,-149.09 1056.3,-138.37"/>
<polygon fill="#63b8ff" stroke="#63b8ff" points="1058.77,-140.86 1063.21,-131.24 1053.74,-135.99 1058.77,-140.86"/>
</a>
</g>
</g>
<!-- Node19 -->
<g id="Node000019" class="node">
<title>Node19</title>
<g id="a_Node000019"><a xlink:href="filter_8hpp.html" target="_top" xlink:title=" ">
<polygon fill="white" stroke="#666666" points="962.62,-74.5 845.38,-74.5 845.38,-55.25 962.62,-55.25 962.62,-74.5"/>
<text text-anchor="middle" x="904" y="-61" font-family="Helvetica,sans-Serif" font-size="10.00">liger/render/rhi/filter.hpp</text>
</a>
</g>
</g>
<!-- Node17&#45;&gt;Node19 -->
<g id="edge23_Node000017_Node000019" class="edge">
<title>Node17&#45;&gt;Node19</title>
<g id="a_edge23_Node000017_Node000019"><a xlink:title=" ">
<path fill="none" stroke="#63b8ff" d="M1069.1,-170.92C1115.19,-160.75 1170.79,-141.5 1145,-110.5 1123.57,-84.73 1037.24,-73.78 974.01,-69.17"/>
<polygon fill="#63b8ff" stroke="#63b8ff" points="974.62,-65.7 964.4,-68.5 974.14,-72.68 974.62,-65.7"/>
</a>
</g>
</g>
<!-- Node20 -->
<g id="Node000020" class="node">
<title>Node20</title>
<g id="a_Node000020"><a xlink:title=" ">
<polygon fill="#e0e0e0" stroke="#999999" points="1229.5,-129.75 1192.5,-129.75 1192.5,-110.5 1229.5,-110.5 1229.5,-129.75"/>
<text text-anchor="middle" x="1211" y="-116.25" font-family="Helvetica,sans-Serif" font-size="10.00">span</text>
</a>
</g>
</g>
<!-- Node17&#45;&gt;Node20 -->
<g id="edge25_Node000017_Node000020" class="edge">
<title>Node17&#45;&gt;Node20</title>
<g id="a_edge25_Node000017_Node000020"><a xlink:title=" ">
<path fill="none" stroke="#63b8ff" d="M1046.04,-170.93C1082.77,-159.84 1144.55,-141.19 1181.18,-130.13"/>
<polygon fill="#63b8ff" stroke="#63b8ff" points="1182.11,-133.5 1190.67,-127.26 1180.09,-126.8 1182.11,-133.5"/>
</a>
</g>
</g>
<!-- Node18&#45;&gt;Node10 -->
<g id="edge22_Node000018_Node000010" class="edge">
<title>Node18&#45;&gt;Node10</title>
<g id="a_edge22_Node000018_Node000010"><a xlink:title=" ">
<path fill="none" stroke="#63b8ff" d="M1058.88,-110.06C1029.86,-91.43 963.22,-48.65 927.55,-25.75"/>
<polygon fill="#63b8ff" stroke="#63b8ff" points="929.54,-22.86 919.23,-20.4 925.76,-28.75 929.54,-22.86"/>
</a>
</g>
</g>
<!-- Node19&#45;&gt;Node10 -->
<g id="edge24_Node000019_Node000010" class="edge">
<title>Node19&#45;&gt;Node10</title>
<g id="a_edge24_Node000019_Node000010"><a xlink:title=" ">
<path fill="none" stroke="#63b8ff" d="M904,-55.08C904,-48.57 904,-39.42 904,-31.12"/>
<polygon fill="#63b8ff" stroke="#63b8ff" points="907.5,-31.12 904,-21.12 900.5,-31.12 907.5,-31.12"/>
</a>
</g>
</g>
<!-- Node21&#45;&gt;Node11 -->
<g id="edge28_Node000021_Node000011" class="edge">
<title>Node21&#45;&gt;Node11</title>
<g id="a_edge28_Node000021_Node000011"><a xlink:title=" ">
<path fill="none" stroke="#63b8ff" d="M415.47,-165.3C435.3,-156.03 460.76,-144.13 480.25,-135.02"/>
<polygon fill="#63b8ff" stroke="#63b8ff" points="481.73,-138.2 489.31,-130.79 478.76,-131.86 481.73,-138.2"/>
</a>
</g>
</g>
<!-- Node22 -->
<g id="Node000022" class="node">
<title>Node22</title>
<g id="a_Node000022"><a xlink:title=" ">
<polygon fill="#e0e0e0" stroke="#999999" points="103.62,-129.75 58.38,-129.75 58.38,-110.5 103.62,-110.5 103.62,-129.75"/>
<text text-anchor="middle" x="81" y="-116.25" font-family="Helvetica,sans-Serif" font-size="10.00">variant</text>
</a>
</g>
</g>
<!-- Node21&#45;&gt;Node22 -->
<g id="edge27_Node000021_Node000022" class="edge">
<title>Node21&#45;&gt;Node22</title>
<g id="a_edge27_Node000021_Node000022"><a xlink:title=" ">
<path fill="none" stroke="#63b8ff" d="M306.33,-166.31C244.78,-155.34 162.62,-140.4 115.05,-130.03"/>
<polygon fill="#63b8ff" stroke="#63b8ff" points="116.02,-126.66 105.49,-127.9 114.49,-133.49 116.02,-126.66"/>
</a>
</g>
</g>
<!-- Node23&#45;&gt;Node3 -->
<g id="edge30_Node000023_Node000003" class="edge">
<title>Node23&#45;&gt;Node3</title>
<g id="a_edge30_Node000023_Node000003"><a xlink:title=" ">
<path fill="none" stroke="#63b8ff" d="M804.68,-170.93C794.64,-169.03 783.97,-167.17 774,-165.75 705.36,-155.97 524.3,-140.11 405.49,-130.16"/>
<polygon fill="#63b8ff" stroke="#63b8ff" points="405.96,-126.69 395.7,-129.35 405.38,-133.67 405.96,-126.69"/>
</a>
</g>
</g>
<!-- Node23&#45;&gt;Node6 -->
<g id="edge35_Node000023_Node000006" class="edge">
<title>Node23&#45;&gt;Node6</title>
<g id="a_edge35_Node000023_Node000006"><a xlink:title=" ">
<path fill="none" stroke="#63b8ff" d="M806.29,-170.9C795.79,-168.91 784.52,-167.02 774,-165.75 457.3,-127.59 368.98,-182.86 51.36,-129.72"/>
<polygon fill="#63b8ff" stroke="#63b8ff" points="52.39,-126.34 41.94,-128.12 51.22,-133.25 52.39,-126.34"/>
</a>
</g>
</g>
<!-- Node23&#45;&gt;Node9 -->
<g id="edge32_Node000023_Node000009" class="edge">
<title>Node23&#45;&gt;Node9</title>
<g id="a_edge32_Node000023_Node000009"><a xlink:title=" ">
<path fill="none" stroke="#63b8ff" d="M827.97,-170.93C806.63,-161.26 772.6,-145.85 748.04,-134.73"/>
<polygon fill="#63b8ff" stroke="#63b8ff" points="749.77,-131.67 739.22,-130.73 746.88,-138.05 749.77,-131.67"/>
</a>
</g>
</g>
<!-- Node23&#45;&gt;Node18 -->
<g id="edge31_Node000023_Node000018" class="edge">
<title>Node23&#45;&gt;Node18</title>
<g id="a_edge31_Node000023_Node000018"><a xlink:title=" ">
<path fill="none" stroke="#63b8ff" d="M882.66,-170.93C921.48,-160.77 984.53,-144.27 1027.34,-133.07"/>
<polygon fill="#63b8ff" stroke="#63b8ff" points="1028.04,-136.51 1036.83,-130.59 1026.27,-129.73 1028.04,-136.51"/>
</a>
</g>
</g>
<!-- Node24 -->
<g id="Node000024" class="node">
<title>Node24</title>
<g id="a_Node000024"><a xlink:href="sampler__info_8hpp.html" target="_top" xlink:title=" ">
<polygon fill="white" stroke="#666666" points="954.38,-129.75 799.62,-129.75 799.62,-110.5 954.38,-110.5 954.38,-129.75"/>
<text text-anchor="middle" x="877" y="-116.25" font-family="Helvetica,sans-Serif" font-size="10.00">liger/render/rhi/sampler_info.hpp</text>
</a>
</g>
</g>
<!-- Node23&#45;&gt;Node24 -->
<g id="edge33_Node000023_Node000024" class="edge">
<title>Node23&#45;&gt;Node24</title>
<g id="a_edge33_Node000023_Node000024"><a xlink:title=" ">
<path fill="none" stroke="#63b8ff" d="M852.4,-171.06C856.41,-162.93 862.45,-150.67 867.54,-140.33"/>
<polygon fill="#63b8ff" stroke="#63b8ff" points="870.61,-142.03 871.89,-131.51 864.33,-138.93 870.61,-142.03"/>
</a>
</g>
</g>
<!-- Node24&#45;&gt;Node19 -->
<g id="edge34_Node000024_Node000019" class="edge">
<title>Node24&#45;&gt;Node19</title>
<g id="a_edge34_Node000024_Node000019"><a xlink:title=" ">
<path fill="none" stroke="#63b8ff" d="M881.46,-110.33C884.95,-103.44 889.95,-93.59 894.35,-84.91"/>
<polygon fill="#63b8ff" stroke="#63b8ff" points="897.36,-86.71 898.76,-76.21 891.12,-83.55 897.36,-86.71"/>
</a>
</g>
</g>
<!-- Node27&#45;&gt;Node10 -->
<g id="edge39_Node000027_Node000010" class="edge">
<title>Node27&#45;&gt;Node10</title>
<g id="a_edge39_Node000027_Node000010"><a xlink:title=" ">
<path fill="none" stroke="#63b8ff" d="M1243.55,-171.23C1247.13,-156.88 1251.8,-128.22 1238,-110.5 1200.51,-62.36 1014.85,-28.09 937.7,-15.71"/>
<polygon fill="#63b8ff" stroke="#63b8ff" points="938.63,-12.31 928.21,-14.21 937.54,-19.23 938.63,-12.31"/>
</a>
</g>
</g>
<!-- Node27&#45;&gt;Node20 -->
<g id="edge40_Node000027_Node000020" class="edge">
<title>Node27&#45;&gt;Node20</title>
<g id="a_edge40_Node000027_Node000020"><a xlink:title=" ">
<path fill="none" stroke="#63b8ff" d="M1236.44,-171.06C1232.3,-162.93 1226.05,-150.67 1220.79,-140.33"/>
<polygon fill="#63b8ff" stroke="#63b8ff" points="1223.95,-138.82 1216.29,-131.5 1217.71,-142 1223.95,-138.82"/>
</a>
</g>
</g>
<!-- Node28&#45;&gt;Node20 -->
<g id="edge45_Node000028_Node000020" class="edge">
<title>Node28&#45;&gt;Node20</title>
<g id="a_edge45_Node000028_Node000020"><a xlink:title=" ">
<path fill="none" stroke="#63b8ff" d="M992.58,-231.8C1029.32,-225.26 1073.99,-214.29 1111,-196.25 1130.47,-186.76 1131.76,-178.86 1149,-165.75 1162.03,-155.84 1176.91,-145.11 1188.83,-136.66"/>
<polygon fill="#63b8ff" stroke="#63b8ff" points="1190.64,-139.66 1196.8,-131.03 1186.61,-133.94 1190.64,-139.66"/>
</a>
</g>
</g>
<!-- Node28&#45;&gt;Node23 -->
<g id="edge44_Node000028_Node000023" class="edge">
<title>Node28&#45;&gt;Node23</title>
<g id="a_edge44_Node000028_Node000023"><a xlink:title=" ">
<path fill="none" stroke="#63b8ff" d="M909.91,-231.93C898.76,-222.94 881.34,-208.89 867.81,-197.98"/>
<polygon fill="#63b8ff" stroke="#63b8ff" points="870.35,-195.53 860.37,-191.98 865.96,-200.98 870.35,-195.53"/>
</a>
</g>
</g>
<!-- Node29 -->
<g id="Node000029" class="node">
<title>Node29</title>
<g id="a_Node000029"><a xlink:href="window_8hpp.html" target="_top" xlink:title=" ">
<polygon fill="white" stroke="#666666" points="1527.62,-190.62 1380.38,-190.62 1380.38,-171.38 1527.62,-171.38 1527.62,-190.62"/>
<text text-anchor="middle" x="1454" y="-177.12" font-family="Helvetica,sans-Serif" font-size="10.00">liger/core/platform/window.hpp</text>
</a>
</g>
</g>
<!-- Node28&#45;&gt;Node29 -->
<g id="edge42_Node000028_Node000029" class="edge">
<title>Node28&#45;&gt;Node29</title>
<g id="a_edge42_Node000028_Node000029"><a xlink:title=" ">
<path fill="none" stroke="#63b8ff" d="M994,-234.92C1082.28,-227.41 1235.31,-213.37 1366,-196.25 1373.72,-195.24 1381.8,-194.08 1389.81,-192.86"/>
<polygon fill="#63b8ff" stroke="#63b8ff" points="1390.19,-196.34 1399.53,-191.34 1389.11,-189.42 1390.19,-196.34"/>
</a>
</g>
</g>
<!-- Node29&#45;&gt;Node26 -->
<g id="edge43_Node000029_Node000026" class="edge">
<title>Node29&#45;&gt;Node26</title>
<g id="a_edge43_Node000029_Node000026"><a xlink:title=" ">
<path fill="none" stroke="#63b8ff" d="M1446.25,-171.06C1438.84,-162.5 1427.45,-149.35 1418.22,-138.7"/>
<polygon fill="#63b8ff" stroke="#63b8ff" points="1421,-136.56 1411.81,-131.3 1415.71,-141.15 1421,-136.56"/>
</a>
</g>
</g>
</g>
</svg>

<g id="navigator" transform="translate(0 0)" fill="#404254">
  <rect fill="#f2f5e9" fill-opacity="0.5" stroke="#606060" stroke-width=".5" x="0" y="0" width="60" height="60"/>
  <use id="zoomplus" xlink:href="#zoomPlus" x="17" y="9" onmousedown="handleZoom(evt,'in')"/>
  <use id="zoomminus" xlink:href="#zoomMin" x="42" y="9" onmousedown="handleZoom(evt,'out')"/>
  <use id="reset" xlink:href="#resetDef" x="30" y="36" onmousedown="handleReset()"/>
   <use id="arrowup" xlink:href="#arrowUp" x="0" y="0" onmousedown="handlePan(0,-1)"/>
  <use id="arrowright" xlink:href="#arrowRight" x="0" y="0" onmousedown="handlePan(1,0)"/>
  <use id="arrowdown" xlink:href="#arrowDown" x="0" y="0" onmousedown="handlePan(0,1)"/>
  <use id="arrowleft" xlink:href="#arrowLeft" x="0" y="0" onmousedown="handlePan(-1,0)"/>
</g>
<svg viewBox="0 0 15 15" width="100%" height="30px" preserveAspectRatio="xMaxYMin meet">
 <g id="arrow_out" transform="scale(0.3 0.3)">
  <a xlink:href="device_8hpp__incl_org.svg" target="_base">
   <rect id="button" ry="5" rx="5" y="6" x="6" height="38" width="38"
        fill="#f2f5e9" fill-opacity="0.5" stroke="#606060" stroke-width="1.0"/>
   <path id="arrow"
     d="M 11.500037,31.436501 C 11.940474,20.09759 22.043105,11.32322 32.158766,21.979434 L 37.068811,17.246167 C 37.068811,17.246167 37.088388,32 37.088388,32 L 22.160133,31.978069 C 22.160133,31.978069 26.997745,27.140456 26.997745,27.140456 C 18.528582,18.264221 13.291696,25.230495 11.500037,31.436501 z"
     style="fill:#404040;"/>
  </a>
 </g>
</svg>

<style type='text/css'>
<![CDATA[
[data-mouse-over-selected='false'] { opacity: 0.7; }
[data-mouse-over-selected='true']  { opacity: 1.0; }
]]>
</style>
<script type="application/ecmascript"><![CDATA[
document.addEventListener('DOMContentLoaded', (event) => {
  highlightEdges();
  highlightAdjacentNodes();
});
]]></script>
</svg>
