<?xml version="1.0" encoding="UTF-8" standalone="no"?>
<!DOCTYPE svg PUBLIC "-//W3C//DTD SVG 1.1//EN"
 "http://www.w3.org/Graphics/SVG/1.1/DTD/svg11.dtd">
<!-- Generated by graphviz version 9.0.0 (20230911.1827)
 -->
<!-- Title: device_info.hpp Pages: 1 -->
<svg width="278pt" height="83pt"
 viewBox="0.00 0.00 278.25 82.50" xmlns="http://www.w3.org/2000/svg" xmlns:xlink="http://www.w3.org/1999/xlink">

<svg id="main" version="1.1" xmlns="http://www.w3.org/2000/svg" xmlns:xlink="http://www.w3.org/1999/xlink" xml:space="preserve" onload="init(evt)">
<style type="text/css"><![CDATA[
.node, .edge {opacity: 0.7;}
.node.selected, .edge.selected {opacity: 1;}
.edge:hover path { stroke: red; }
.edge:hover polygon { stroke: red; fill: red; }
]]></style>
<script type="application/ecmascript" xlink:href="svg.min.js"/>
<svg id="graph" class="graph">
<g id="graph0" class="graph" transform="scale(1 1) rotate(0) translate(4 78.5)">
<title>device_info.hpp</title>
<!-- Node1 -->
<g id="Node000001" class="node">
<title>Node1</title>
<g id="a_Node000001"><a xlink:title=" ">
<polygon fill="#999999" stroke="#666666" points="190.75,-74.5 106.5,-74.5 106.5,-55.25 190.75,-55.25 190.75,-74.5"/>
<text text-anchor="middle" x="148.62" y="-61" font-family="Helvetica,sans-Serif" font-size="10.00">device_info.hpp</text>
</a>
</g>
</g>
<!-- Node2 -->
<g id="Node000002" class="node">
<title>Node2</title>
<g id="a_Node000002"><a xlink:href="deprecated_2device_8hpp_source.html" target="_top" xlink:title=" ">
<polygon fill="white" stroke="#666666" points="63.25,-19.25 0,-19.25 0,0 63.25,0 63.25,-19.25"/>
<text text-anchor="middle" x="31.62" y="-5.75" font-family="Helvetica,sans-Serif" font-size="10.00">device.hpp</text>
</a>
</g>
</g>
<!-- Node1&#45;&gt;Node2 -->
<g id="edge1_Node000001_Node000002" class="edge">
<title>Node1&#45;&gt;Node2</title>
<g id="a_edge1_Node000001_Node000002"><a xlink:title=" ">
<path fill="none" stroke="#63b8ff" d="M118.44,-50.14C97.4,-40.56 69.92,-28.06 51.57,-19.7"/>
<polygon fill="#63b8ff" stroke="#63b8ff" points="116.85,-53.26 127.4,-54.21 119.75,-46.89 116.85,-53.26"/>
</a>
</g>
</g>
<!-- Node3 -->
<g id="Node000003" class="node">
<title>Node3</title>
<g id="a_Node000003"><a xlink:href="device_8hpp_source.html" target="_top" xlink:title=" ">
<polygon fill="white" stroke="#666666" points="144.25,-19.25 81,-19.25 81,0 144.25,0 144.25,-19.25"/>
<text text-anchor="middle" x="112.62" y="-5.75" font-family="Helvetica,sans-Serif" font-size="10.00">device.hpp</text>
</a>
</g>
</g>
<!-- Node1&#45;&gt;Node3 -->
<g id="edge2_Node000001_Node000003" class="edge">
<title>Node1&#45;&gt;Node3</title>
<g id="a_edge2_Node000001_Node000003"><a xlink:title=" ">
<path fill="none" stroke="#63b8ff" d="M136.31,-45.65C130.36,-36.86 123.5,-26.71 118.7,-19.61"/>
<polygon fill="#63b8ff" stroke="#63b8ff" points="133.33,-47.5 141.83,-53.83 139.13,-43.58 133.33,-47.5"/>
</a>
</g>
</g>
<!-- Node4 -->
<g id="Node000004" class="node">
<title>Node4</title>
<g id="a_Node000004"><a xlink:href="deprecated_2rhi_8hpp.html" target="_top" xlink:title=" ">
<polygon fill="white" stroke="#666666" points="207.25,-19.25 162,-19.25 162,0 207.25,0 207.25,-19.25"/>
<text text-anchor="middle" x="184.62" y="-5.75" font-family="Helvetica,sans-Serif" font-size="10.00">rhi.hpp</text>
</a>
</g>
</g>
<!-- Node1&#45;&gt;Node4 -->
<g id="edge3_Node000001_Node000004" class="edge">
<title>Node1&#45;&gt;Node4</title>
<g id="a_edge3_Node000001_Node000004"><a xlink:title=" ">
<path fill="none" stroke="#63b8ff" d="M160.94,-45.65C166.89,-36.86 173.75,-26.71 178.55,-19.61"/>
<polygon fill="#63b8ff" stroke="#63b8ff" points="158.12,-43.58 155.42,-53.83 163.92,-47.5 158.12,-43.58"/>
</a>
</g>
</g>
<!-- Node5 -->
<g id="Node000005" class="node">
<title>Node5</title>
<g id="a_Node000005"><a xlink:href="rhi_8hpp.html" target="_top" xlink:title=" ">
<polygon fill="white" stroke="#666666" points="270.25,-19.25 225,-19.25 225,0 270.25,0 270.25,-19.25"/>
<text text-anchor="middle" x="247.62" y="-5.75" font-family="Helvetica,sans-Serif" font-size="10.00">rhi.hpp</text>
</a>
</g>
</g>
<!-- Node1&#45;&gt;Node5 -->
<g id="edge4_Node000001_Node000005" class="edge">
<title>Node1&#45;&gt;Node5</title>
<g id="a_edge4_Node000001_Node000005"><a xlink:title=" ">
<path fill="none" stroke="#63b8ff" d="M175.15,-49.61C192.82,-40.11 215.5,-27.9 230.75,-19.7"/>
<polygon fill="#63b8ff" stroke="#63b8ff" points="173.9,-46.31 166.75,-54.12 177.22,-52.47 173.9,-46.31"/>
</a>
</g>
</g>
</g>
</svg>
</svg>

<style type='text/css'>
<![CDATA[
[data-mouse-over-selected='false'] { opacity: 0.7; }
[data-mouse-over-selected='true']  { opacity: 1.0; }
]]>
</style>
<script type="application/ecmascript"><![CDATA[
document.addEventListener('DOMContentLoaded', (event) => {
  highlightEdges();
  highlightAdjacentNodes();
});
]]></script>
</svg>
