<?xml version="1.0" encoding="UTF-8" standalone="no"?>
<!DOCTYPE svg PUBLIC "-//W3C//DTD SVG 1.1//EN"
 "http://www.w3.org/Graphics/SVG/1.1/DTD/svg11.dtd">
<!-- Generated by graphviz version 7.1.0 (20230121.1956)
 -->
<!-- Title: core Pages: 1 -->
<svg width="130pt" height="255pt"
 viewBox="0.00 0.00 130.00 255.00" xmlns="http://www.w3.org/2000/svg" xmlns:xlink="http://www.w3.org/1999/xlink">
<g id="graph0" class="graph" transform="scale(1 1) rotate(0) translate(4 251)">
<title>core</title>
<polygon fill="white" stroke="none" points="-4,4 -4,-251 126,-251 126,4 -4,4"/>
<g id="clust1" class="cluster">
<title>clusterdir_bf657e2376c4e6f050f9c84fca518581</title>
<g id="a_clust1"><a xlink:href="dir_bf657e2376c4e6f050f9c84fca518581.html" target="_top" xlink:title="liger">
<polygon fill="#ddddee" stroke="black" points="8,-8 8,-239 114,-239 114,-8 8,-8"/>
<text text-anchor="middle" x="61" y="-227" font-family="Helvetica,sans-Serif" font-size="10.00">liger</text>
</a>
</g>
</g>
<g id="clust2" class="cluster">
<title>clusterdir_f2fdbd745c0d6e6eb4e34e31c74fc19e</title>
<g id="a_clust2"><a xlink:href="dir_f2fdbd745c0d6e6eb4e34e31c74fc19e.html" target="_top">
<polygon fill="#eeeeff" stroke="black" points="16,-16 16,-212 106,-212 106,-16 16,-16"/>
</a>
</g>
</g>
<!-- dir_f2fdbd745c0d6e6eb4e34e31c74fc19e -->
<g id="node1" class="node">
<title>dir_f2fdbd745c0d6e6eb4e34e31c74fc19e</title>
<text text-anchor="middle" x="61" y="-183.5" font-family="Helvetica,sans-Serif" font-size="10.00">core</text>
</g>
<!-- dir_6dd9f77f40155350fa52c5e6a31bebf7 -->
<g id="node2" class="node">
<title>dir_6dd9f77f40155350fa52c5e6a31bebf7</title>
<g id="a_node2"><a xlink:href="dir_6dd9f77f40155350fa52c5e6a31bebf7.html" target="_top" xlink:title="event">
<polygon fill="white" stroke="red" points="78,-132 24,-132 24,-96 78,-96 78,-132"/>
<text text-anchor="middle" x="51" y="-111.5" font-family="Helvetica,sans-Serif" font-size="10.00">event</text>
</a>
</g>
</g>
<!-- dir_f2fdbd745c0d6e6eb4e34e31c74fc19e&#45;&gt;dir_6dd9f77f40155350fa52c5e6a31bebf7 -->
<g id="edge3" class="edge">
<title>dir_f2fdbd745c0d6e6eb4e34e31c74fc19e&#45;&gt;dir_6dd9f77f40155350fa52c5e6a31bebf7</title>
<path fill="none" stroke="black" d="M58.58,-168.05C57.53,-160.68 56.26,-151.84 55.07,-143.51"/>
<polygon fill="black" stroke="black" points="58.56,-143.18 53.68,-133.77 51.63,-144.17 58.56,-143.18"/>
<g id="a_edge3&#45;headlabel"><a xlink:href="dir_000005_000006.html" target="_top" xlink:title="3">
<text text-anchor="middle" x="61.67" y="-142.34" font-family="Helvetica,sans-Serif" font-size="10.00">3</text>
</a>
</g>
</g>
<!-- dir_61e0d4cc473d0f584c2472a554d1d7b3 -->
<g id="node3" class="node">
<title>dir_61e0d4cc473d0f584c2472a554d1d7b3</title>
<g id="a_node3"><a xlink:href="dir_61e0d4cc473d0f584c2472a554d1d7b3.html" target="_top" xlink:title="log">
<polygon fill="white" stroke="black" points="88,-60 34,-60 34,-24 88,-24 88,-60"/>
<text text-anchor="middle" x="61" y="-39.5" font-family="Helvetica,sans-Serif" font-size="10.00">log</text>
</a>
</g>
</g>
<!-- dir_f2fdbd745c0d6e6eb4e34e31c74fc19e&#45;&gt;dir_61e0d4cc473d0f584c2472a554d1d7b3 -->
<g id="edge2" class="edge">
<title>dir_f2fdbd745c0d6e6eb4e34e31c74fc19e&#45;&gt;dir_61e0d4cc473d0f584c2472a554d1d7b3</title>
<path fill="none" stroke="black" d="M71.78,-168.08C77.53,-158.03 84.03,-144.78 87,-132 90.62,-116.41 90.62,-111.59 87,-96 84.99,-87.35 81.37,-78.49 77.45,-70.54"/>
<polygon fill="black" stroke="black" points="80.54,-68.91 72.76,-61.73 74.36,-72.2 80.54,-68.91"/>
<g id="a_edge2&#45;headlabel"><a xlink:href="dir_000005_000008.html" target="_top" xlink:title="3">
<text text-anchor="middle" x="84.03" y="-66.91" font-family="Helvetica,sans-Serif" font-size="10.00">3</text>
</a>
</g>
</g>
<!-- dir_6dd9f77f40155350fa52c5e6a31bebf7&#45;&gt;dir_61e0d4cc473d0f584c2472a554d1d7b3 -->
<g id="edge1" class="edge">
<title>dir_6dd9f77f40155350fa52c5e6a31bebf7&#45;&gt;dir_61e0d4cc473d0f584c2472a554d1d7b3</title>
<path fill="none" stroke="black" d="M53.47,-95.7C54.53,-88.32 55.78,-79.52 56.96,-71.25"/>
<polygon fill="black" stroke="black" points="60.39,-72 58.34,-61.6 53.46,-71.01 60.39,-72"/>
<g id="a_edge1&#45;headlabel"><a xlink:href="dir_000006_000008.html" target="_top" xlink:title="1">
<text text-anchor="middle" x="62.91" y="-71.96" font-family="Helvetica,sans-Serif" font-size="10.00">1</text>
</a>
</g>
</g>
</g>
</svg>
