<?xml version="1.0" encoding="UTF-8" standalone="no"?>
<!DOCTYPE svg PUBLIC "-//W3C//DTD SVG 1.1//EN"
 "http://www.w3.org/Graphics/SVG/1.1/DTD/svg11.dtd">
<!-- Generated by graphviz version 7.1.0 (20230121.1956)
 -->
<!-- Title: core Pages: 1 -->
<svg width="202pt" height="255pt"
 viewBox="0.00 0.00 202.00 255.00" xmlns="http://www.w3.org/2000/svg" xmlns:xlink="http://www.w3.org/1999/xlink">
<g id="graph0" class="graph" transform="scale(1 1) rotate(0) translate(4 251)">
<title>core</title>
<polygon fill="white" stroke="none" points="-4,4 -4,-251 198,-251 198,4 -4,4"/>
<g id="clust1" class="cluster">
<title>clusterdir_bf657e2376c4e6f050f9c84fca518581</title>
<g id="a_clust1"><a xlink:href="dir_bf657e2376c4e6f050f9c84fca518581.html" target="_top" xlink:title="liger">
<polygon fill="#ddddee" stroke="black" points="8,-8 8,-239 186,-239 186,-8 8,-8"/>
<text text-anchor="middle" x="97" y="-227" font-family="Helvetica,sans-Serif" font-size="10.00">liger</text>
</a>
</g>
</g>
<g id="clust2" class="cluster">
<title>clusterdir_f2fdbd745c0d6e6eb4e34e31c74fc19e</title>
<g id="a_clust2"><a xlink:href="dir_f2fdbd745c0d6e6eb4e34e31c74fc19e.html" target="_top">
<polygon fill="#eeeeff" stroke="black" points="16,-16 16,-212 178,-212 178,-16 16,-16"/>
</a>
</g>
</g>
<!-- dir_f2fdbd745c0d6e6eb4e34e31c74fc19e -->
<g id="node1" class="node">
<title>dir_f2fdbd745c0d6e6eb4e34e31c74fc19e</title>
<text text-anchor="middle" x="97" y="-183.5" font-family="Helvetica,sans-Serif" font-size="10.00">core</text>
</g>
<!-- dir_6dd9f77f40155350fa52c5e6a31bebf7 -->
<g id="node2" class="node">
<title>dir_6dd9f77f40155350fa52c5e6a31bebf7</title>
<g id="a_node2"><a xlink:href="dir_6dd9f77f40155350fa52c5e6a31bebf7.html" target="_top" xlink:title="event">
<polygon fill="white" stroke="red" points="78,-132 24,-132 24,-96 78,-96 78,-132"/>
<text text-anchor="middle" x="51" y="-111.5" font-family="Helvetica,sans-Serif" font-size="10.00">event</text>
</a>
</g>
</g>
<!-- dir_f2fdbd745c0d6e6eb4e34e31c74fc19e&#45;&gt;dir_6dd9f77f40155350fa52c5e6a31bebf7 -->
<g id="edge3" class="edge">
<title>dir_f2fdbd745c0d6e6eb4e34e31c74fc19e&#45;&gt;dir_6dd9f77f40155350fa52c5e6a31bebf7</title>
<path fill="none" stroke="black" d="M85.86,-168.05C80.69,-160.18 74.41,-150.62 68.61,-141.79"/>
<polygon fill="black" stroke="black" points="71.6,-139.98 63.18,-133.54 65.75,-143.82 71.6,-139.98"/>
<g id="a_edge3&#45;headlabel"><a xlink:href="dir_000005_000006.html" target="_top" xlink:title="3">
<text text-anchor="middle" x="75.12" y="-137.66" font-family="Helvetica,sans-Serif" font-size="10.00">3</text>
</a>
</g>
</g>
<!-- dir_61e0d4cc473d0f584c2472a554d1d7b3 -->
<g id="node3" class="node">
<title>dir_61e0d4cc473d0f584c2472a554d1d7b3</title>
<g id="a_node3"><a xlink:href="dir_61e0d4cc473d0f584c2472a554d1d7b3.html" target="_top" xlink:title="log">
<polygon fill="white" stroke="black" points="101,-60 47,-60 47,-24 101,-24 101,-60"/>
<text text-anchor="middle" x="74" y="-39.5" font-family="Helvetica,sans-Serif" font-size="10.00">log</text>
</a>
</g>
</g>
<!-- dir_f2fdbd745c0d6e6eb4e34e31c74fc19e&#45;&gt;dir_61e0d4cc473d0f584c2472a554d1d7b3 -->
<g id="edge2" class="edge">
<title>dir_f2fdbd745c0d6e6eb4e34e31c74fc19e&#45;&gt;dir_61e0d4cc473d0f584c2472a554d1d7b3</title>
<path fill="none" stroke="black" d="M95.76,-168.18C94.28,-150.21 91.44,-120.95 87,-96 85.55,-87.85 83.58,-79.1 81.6,-71.09"/>
<polygon fill="black" stroke="black" points="85.03,-70.35 79.15,-61.53 78.25,-72.09 85.03,-70.35"/>
<g id="a_edge2&#45;headlabel"><a xlink:href="dir_000005_000008.html" target="_top" xlink:title="3">
<text text-anchor="middle" x="88.29" y="-69.16" font-family="Helvetica,sans-Serif" font-size="10.00">3</text>
</a>
</g>
</g>
<!-- dir_f1cd153eb288736c3e95443d3100c620 -->
<g id="node4" class="node">
<title>dir_f1cd153eb288736c3e95443d3100c620</title>
<g id="a_node4"><a xlink:href="dir_f1cd153eb288736c3e95443d3100c620.html" target="_top" xlink:title="math">
<polygon fill="white" stroke="black" points="170,-132 116,-132 116,-96 170,-96 170,-132"/>
<text text-anchor="middle" x="143" y="-111.5" font-family="Helvetica,sans-Serif" font-size="10.00">math</text>
</a>
</g>
</g>
<!-- dir_f2fdbd745c0d6e6eb4e34e31c74fc19e&#45;&gt;dir_f1cd153eb288736c3e95443d3100c620 -->
<g id="edge4" class="edge">
<title>dir_f2fdbd745c0d6e6eb4e34e31c74fc19e&#45;&gt;dir_f1cd153eb288736c3e95443d3100c620</title>
<path fill="none" stroke="black" d="M108.14,-168.05C113.31,-160.18 119.59,-150.62 125.39,-141.79"/>
<polygon fill="black" stroke="black" points="128.25,-143.82 130.82,-133.54 122.4,-139.98 128.25,-143.82"/>
<g id="a_edge4&#45;headlabel"><a xlink:href="dir_000005_000009.html" target="_top" xlink:title="1">
<text text-anchor="middle" x="129.48" y="-144.62" font-family="Helvetica,sans-Serif" font-size="10.00">1</text>
</a>
</g>
</g>
<!-- dir_6dd9f77f40155350fa52c5e6a31bebf7&#45;&gt;dir_61e0d4cc473d0f584c2472a554d1d7b3 -->
<g id="edge1" class="edge">
<title>dir_6dd9f77f40155350fa52c5e6a31bebf7&#45;&gt;dir_61e0d4cc473d0f584c2472a554d1d7b3</title>
<path fill="none" stroke="black" d="M56.69,-95.7C59.14,-88.24 62.07,-79.32 64.81,-70.97"/>
<polygon fill="black" stroke="black" points="68.11,-72.14 67.91,-61.54 61.46,-69.95 68.11,-72.14"/>
<g id="a_edge1&#45;headlabel"><a xlink:href="dir_000006_000008.html" target="_top" xlink:title="1">
<text text-anchor="middle" x="70.16" y="-72.5" font-family="Helvetica,sans-Serif" font-size="10.00">1</text>
</a>
</g>
</g>
</g>
</svg>
