<?xml version="1.0" encoding="UTF-8" standalone="no"?>
<!DOCTYPE svg PUBLIC "-//W3C//DTD SVG 1.1//EN"
 "http://www.w3.org/Graphics/SVG/1.1/DTD/svg11.dtd">
<!-- Generated by graphviz version 9.0.0 (20230911.1827)
 -->
<!-- Title: enum_class.hpp Pages: 1 -->
<!--zoomable 304 -->

<svg id="main" version="1.1" xmlns="http://www.w3.org/2000/svg" xmlns:xlink="http://www.w3.org/1999/xlink" xml:space="preserve" onload="init(evt)">
<style type="text/css"><![CDATA[
.node, .edge {opacity: 0.7;}
.node.selected, .edge.selected {opacity: 1;}
.edge:hover path { stroke: red; }
.edge:hover polygon { stroke: red; fill: red; }
]]></style>

<defs>
  <circle id="rim" cx="0" cy="0" r="7"/>
  <circle id="rim2" cx="0" cy="0" r="3.5"/>
  <g id="zoomPlus">
    <use xlink:href="#rim" fill="#404040"><set attributeName="fill" to="#808080" begin="zoomplus.mouseover" end="zoomplus.mouseout"/></use>
    <path d="M-4,0h8M0,-4v8" fill="none" stroke="white" stroke-width="1.5" pointer-events="none"/>
  </g>
  <g id="zoomMin">
    <use xlink:href="#rim" fill="#404040"><set attributeName="fill" to="#808080" begin="zoomminus.mouseover" end="zoomminus.mouseout"/></use>
    <path d="M-4,0h8" fill="none" stroke="white" stroke-width="1.5" pointer-events="none"/>
  </g>
  <g id="arrowUp" transform="translate(30 24)">
    <use xlink:href="#rim"/>
    <path pointer-events="none" fill="none" stroke="white" stroke-width="1.5" d="M0,-3.0v7 M-2.5,-0.5L0,-3.0L2.5,-0.5"/>
  </g>
  <g id="arrowRight" transform="rotate(90) translate(36 -43)">
    <use xlink:href="#rim"/>
    <path pointer-events="none" fill="none" stroke="white" stroke-width="1.5" d="M0,-3.0v7 M-2.5,-0.5L0,-3.0L2.5,-0.5"/>
  </g>
  <g id="arrowDown" transform="rotate(180) translate(-30 -48)">
    <use xlink:href="#rim"/>
    <path pointer-events="none" fill="none" stroke="white" stroke-width="1.5" d="M0,-3.0v7 M-2.5,-0.5L0,-3.0L2.5,-0.5"/>
  </g>
  <g id="arrowLeft" transform="rotate(270) translate(-36 17)">
    <use xlink:href="#rim"/>
    <path pointer-events="none" fill="none" stroke="white" stroke-width="1.5" d="M0,-3.0v7 M-2.5,-0.5L0,-3.0L2.5,-0.5"/>
  </g>
  <g id="resetDef">
    <use xlink:href="#rim2" fill="#404040"><set attributeName="fill" to="#808080" begin="reset.mouseover" end="reset.mouseout"/></use>
  </g>
</defs>
<script type="application/ecmascript">
var viewWidth = 970;
var viewHeight = 304;
var sectionId = 'dynsection-1';
</script>
<script type="application/ecmascript" xlink:href="svg.min.js"/>
<svg id="graph" class="graph">
<g id="viewport">
<title>enum_class.hpp</title>
<!-- Node1 -->
<g id="Node000001" class="node">
<title>Node1</title>
<g id="a_Node000001"><a xlink:title=" ">
<polygon fill="#999999" stroke="#666666" points="460.37,-295.5 373.12,-295.5 373.12,-276.25 460.37,-276.25 460.37,-295.5"/>
<text text-anchor="middle" x="416.74" y="-282" font-family="Helvetica,sans-Serif" font-size="10.00">enum_class.hpp</text>
</a>
</g>
</g>
<!-- Node2 -->
<g id="Node000002" class="node">
<title>Node2</title>
<g id="a_Node000002"><a xlink:href="core_8hpp.html" target="_top" xlink:title=" ">
<polygon fill="white" stroke="#666666" points="399.49,-240.25 345.99,-240.25 345.99,-221 399.49,-221 399.49,-240.25"/>
<text text-anchor="middle" x="372.74" y="-226.75" font-family="Helvetica,sans-Serif" font-size="10.00">core.hpp</text>
</a>
</g>
</g>
<!-- Node1&#45;&gt;Node2 -->
<g id="edge1_Node000001_Node000002" class="edge">
<title>Node1&#45;&gt;Node2</title>
<g id="a_edge1_Node000001_Node000002"><a xlink:title=" ">
<path fill="none" stroke="#63b8ff" d="M402.16,-267.22C394.79,-258.31 386.16,-247.87 380.16,-240.61"/>
<polygon fill="#63b8ff" stroke="#63b8ff" points="399.44,-269.44 408.51,-274.92 404.84,-264.98 399.44,-269.44"/>
</a>
</g>
</g>
<!-- Node27 -->
<g id="Node000027" class="node">
<title>Node27</title>
<g id="a_Node000027"><a xlink:href="enum__class_8cpp.html" target="_top" xlink:title=" ">
<polygon fill="white" stroke="#666666" points="504.37,-240.25 417.12,-240.25 417.12,-221 504.37,-221 504.37,-240.25"/>
<text text-anchor="middle" x="460.74" y="-226.75" font-family="Helvetica,sans-Serif" font-size="10.00">enum_class.cpp</text>
</a>
</g>
</g>
<!-- Node1&#45;&gt;Node27 -->
<g id="edge44_Node000001_Node000027" class="edge">
<title>Node1&#45;&gt;Node27</title>
<g id="a_edge44_Node000001_Node000027"><a xlink:title=" ">
<path fill="none" stroke="#63b8ff" d="M431.32,-267.22C438.69,-258.31 447.32,-247.87 453.32,-240.61"/>
<polygon fill="#63b8ff" stroke="#63b8ff" points="428.64,-264.98 424.97,-274.92 434.04,-269.44 428.64,-264.98"/>
</a>
</g>
</g>
<!-- Node3 -->
<g id="Node000003" class="node">
<title>Node3</title>
<g id="a_Node000003"><a xlink:href="buffer_8hpp.html" target="_top" xlink:title=" ">
<polygon fill="white" stroke="#666666" points="320.12,-129.75 261.37,-129.75 261.37,-110.5 320.12,-110.5 320.12,-129.75"/>
<text text-anchor="middle" x="290.74" y="-116.25" font-family="Helvetica,sans-Serif" font-size="10.00">buffer.hpp</text>
</a>
</g>
</g>
<!-- Node2&#45;&gt;Node3 -->
<g id="edge2_Node000002_Node000003" class="edge">
<title>Node2&#45;&gt;Node3</title>
<g id="a_edge2_Node000002_Node000003"><a xlink:title=" ">
<path fill="none" stroke="#63b8ff" d="M370.19,-209.23C367.72,-195.87 362.93,-178.58 353.74,-165.75 342.42,-149.95 323.71,-137.73 309.62,-130.11"/>
<polygon fill="#63b8ff" stroke="#63b8ff" points="366.73,-209.7 371.69,-219.06 373.65,-208.65 366.73,-209.7"/>
</a>
</g>
</g>
<!-- Node6 -->
<g id="Node000006" class="node">
<title>Node6</title>
<g id="a_Node000006"><a xlink:href="deprecated_2buffer_8hpp.html" target="_top" xlink:title=" ">
<polygon fill="white" stroke="#666666" points="77.12,-185 18.37,-185 18.37,-165.75 77.12,-165.75 77.12,-185"/>
<text text-anchor="middle" x="47.74" y="-171.5" font-family="Helvetica,sans-Serif" font-size="10.00">buffer.hpp</text>
</a>
</g>
</g>
<!-- Node2&#45;&gt;Node6 -->
<g id="edge5_Node000002_Node000006" class="edge">
<title>Node2&#45;&gt;Node6</title>
<g id="a_edge5_Node000002_Node000006"><a xlink:title=" ">
<path fill="none" stroke="#63b8ff" d="M334.72,-224.11C280.47,-216.14 177.78,-200.61 90.74,-185 86.39,-184.22 81.81,-183.35 77.32,-182.47"/>
<polygon fill="#63b8ff" stroke="#63b8ff" points="333.95,-227.54 344.35,-225.53 334.97,-220.61 333.95,-227.54"/>
</a>
</g>
</g>
<!-- Node7 -->
<g id="Node000007" class="node">
<title>Node7</title>
<g id="a_Node000007"><a xlink:href="command__queue_8hpp.html" target="_top" xlink:title=" ">
<polygon fill="white" stroke="#666666" points="230.24,-74.5 121.24,-74.5 121.24,-55.25 230.24,-55.25 230.24,-74.5"/>
<text text-anchor="middle" x="175.74" y="-61" font-family="Helvetica,sans-Serif" font-size="10.00">command_queue.hpp</text>
</a>
</g>
</g>
<!-- Node2&#45;&gt;Node7 -->
<g id="edge6_Node000002_Node000007" class="edge">
<title>Node2&#45;&gt;Node7</title>
<g id="a_edge6_Node000002_Node000007"><a xlink:title=" ">
<path fill="none" stroke="#63b8ff" d="M334.55,-228.5C271.75,-225.77 151.04,-216.45 124.74,-185 95.59,-150.14 144.2,-96.12 166,-74.89"/>
<polygon fill="#63b8ff" stroke="#63b8ff" points="334.28,-232 344.41,-228.9 334.56,-225 334.28,-232"/>
</a>
</g>
</g>
<!-- Node8 -->
<g id="Node000008" class="node">
<title>Node8</title>
<g id="a_Node000008"><a xlink:href="deprecated_2command__queue_8hpp.html" target="_top" xlink:title=" ">
<polygon fill="white" stroke="#666666" points="242.24,-185 133.24,-185 133.24,-165.75 242.24,-165.75 242.24,-185"/>
<text text-anchor="middle" x="187.74" y="-171.5" font-family="Helvetica,sans-Serif" font-size="10.00">command_queue.hpp</text>
</a>
</g>
</g>
<!-- Node2&#45;&gt;Node8 -->
<g id="edge9_Node000002_Node000008" class="edge">
<title>Node2&#45;&gt;Node8</title>
<g id="a_edge9_Node000002_Node000008"><a xlink:title=" ">
<path fill="none" stroke="#63b8ff" d="M334.92,-218.74C300.85,-208.93 251.33,-194.68 219.32,-185.47"/>
<polygon fill="#63b8ff" stroke="#63b8ff" points="333.81,-222.06 344.39,-221.46 335.74,-215.33 333.81,-222.06"/>
</a>
</g>
</g>
<!-- Node9 -->
<g id="Node000009" class="node">
<title>Node9</title>
<g id="a_Node000009"><a xlink:href="deprecated_2device__info_8hpp.html" target="_top" xlink:title=" ">
<polygon fill="white" stroke="#666666" points="344.87,-185 260.62,-185 260.62,-165.75 344.87,-165.75 344.87,-185"/>
<text text-anchor="middle" x="302.74" y="-171.5" font-family="Helvetica,sans-Serif" font-size="10.00">device_info.hpp</text>
</a>
</g>
</g>
<!-- Node2&#45;&gt;Node9 -->
<g id="edge10_Node000002_Node000009" class="edge">
<title>Node2&#45;&gt;Node9</title>
<g id="a_edge10_Node000002_Node000009"><a xlink:title=" ">
<path fill="none" stroke="#63b8ff" d="M351.79,-213.69C339.57,-204.39 324.6,-193.01 314.44,-185.27"/>
<polygon fill="#63b8ff" stroke="#63b8ff" points="349.58,-216.41 359.66,-219.68 353.82,-210.84 349.58,-216.41"/>
</a>
</g>
</g>
<!-- Node10 -->
<g id="Node000010" class="node">
<title>Node10</title>
<g id="a_Node000010"><a xlink:href="device__info_8hpp.html" target="_top" xlink:title=" ">
<polygon fill="white" stroke="#666666" points="102.87,-74.5 18.62,-74.5 18.62,-55.25 102.87,-55.25 102.87,-74.5"/>
<text text-anchor="middle" x="60.74" y="-61" font-family="Helvetica,sans-Serif" font-size="10.00">device_info.hpp</text>
</a>
</g>
</g>
<!-- Node2&#45;&gt;Node10 -->
<g id="edge11_Node000002_Node000010" class="edge">
<title>Node2&#45;&gt;Node10</title>
<g id="a_edge11_Node000002_Node000010"><a xlink:title=" ">
<path fill="none" stroke="#63b8ff" d="M334.21,-227.73C245.15,-222.94 31.01,-209.04 9.74,-185 -20.37,-150.96 28.79,-96.47 50.87,-75"/>
<polygon fill="#63b8ff" stroke="#63b8ff" points="333.98,-231.22 344.15,-228.25 334.35,-224.23 333.98,-231.22"/>
</a>
</g>
</g>
<!-- Node13 -->
<g id="Node000013" class="node">
<title>Node13</title>
<g id="a_Node000013"><a xlink:href="device__resource_8hpp.html" target="_top" xlink:title=" ">
<polygon fill="white" stroke="#666666" points="506.74,-185 400.74,-185 400.74,-165.75 506.74,-165.75 506.74,-185"/>
<text text-anchor="middle" x="453.74" y="-171.5" font-family="Helvetica,sans-Serif" font-size="10.00">device_resource.hpp</text>
</a>
</g>
</g>
<!-- Node2&#45;&gt;Node13 -->
<g id="edge16_Node000002_Node000013" class="edge">
<title>Node2&#45;&gt;Node13</title>
<g id="a_edge16_Node000002_Node000013"><a xlink:title=" ">
<path fill="none" stroke="#63b8ff" d="M396.08,-214.28C410.28,-204.95 427.93,-193.35 439.93,-185.45"/>
<polygon fill="#63b8ff" stroke="#63b8ff" points="394.18,-211.34 387.75,-219.76 398.02,-217.19 394.18,-211.34"/>
</a>
</g>
</g>
<!-- Node18 -->
<g id="Node000018" class="node">
<title>Node18</title>
<g id="a_Node000018"><a xlink:href="deprecated_2format_8hpp.html" target="_top" xlink:title=" ">
<polygon fill="white" stroke="#666666" points="586.99,-185 524.49,-185 524.49,-165.75 586.99,-165.75 586.99,-185"/>
<text text-anchor="middle" x="555.74" y="-171.5" font-family="Helvetica,sans-Serif" font-size="10.00">format.hpp</text>
</a>
</g>
</g>
<!-- Node2&#45;&gt;Node18 -->
<g id="edge26_Node000002_Node000018" class="edge">
<title>Node2&#45;&gt;Node18</title>
<g id="a_edge26_Node000002_Node000018"><a xlink:title=" ">
<path fill="none" stroke="#63b8ff" d="M410.56,-218.62C444.31,-208.8 493.12,-194.6 524.64,-185.42"/>
<polygon fill="#63b8ff" stroke="#63b8ff" points="409.82,-215.19 401.2,-221.34 411.78,-221.91 409.82,-215.19"/>
</a>
</g>
</g>
<!-- Node19 -->
<g id="Node000019" class="node">
<title>Node19</title>
<g id="a_Node000019"><a xlink:href="format_8hpp.html" target="_top" xlink:title=" ">
<polygon fill="white" stroke="#666666" points="667.99,-185 605.49,-185 605.49,-165.75 667.99,-165.75 667.99,-185"/>
<text text-anchor="middle" x="636.74" y="-171.5" font-family="Helvetica,sans-Serif" font-size="10.00">format.hpp</text>
</a>
</g>
</g>
<!-- Node2&#45;&gt;Node19 -->
<g id="edge27_Node000002_Node000019" class="edge">
<title>Node2&#45;&gt;Node19</title>
<g id="a_edge27_Node000002_Node000019"><a xlink:title=" ">
<path fill="none" stroke="#63b8ff" d="M410.95,-220.38C492.76,-202.7 515.84,-201.05 595.74,-185 598.88,-184.37 602.15,-183.7 605.41,-183.03"/>
<polygon fill="#63b8ff" stroke="#63b8ff" points="410.35,-216.93 401.32,-222.48 411.84,-223.77 410.35,-216.93"/>
</a>
</g>
</g>
<!-- Node23 -->
<g id="Node000023" class="node">
<title>Node23</title>
<g id="a_Node000023"><a xlink:href="deprecated_2shader__module_8hpp.html" target="_top" xlink:title=" ">
<polygon fill="white" stroke="#666666" points="843.12,-129.75 742.37,-129.75 742.37,-110.5 843.12,-110.5 843.12,-129.75"/>
<text text-anchor="middle" x="792.74" y="-116.25" font-family="Helvetica,sans-Serif" font-size="10.00">shader_module.hpp</text>
</a>
</g>
</g>
<!-- Node2&#45;&gt;Node23 -->
<g id="edge42_Node000002_Node000023" class="edge">
<title>Node2&#45;&gt;Node23</title>
<g id="a_edge42_Node000002_Node000023"><a xlink:title=" ">
<path fill="none" stroke="#63b8ff" d="M411.05,-220.59C528.5,-199.94 565.64,-221.59 676.74,-185 717.14,-171.69 759.73,-144.26 780.24,-130.07"/>
<polygon fill="#63b8ff" stroke="#63b8ff" points="410.5,-217.13 401.3,-222.37 411.77,-224.01 410.5,-217.13"/>
</a>
</g>
</g>
<!-- Node24 -->
<g id="Node000024" class="node">
<title>Node24</title>
<g id="a_Node000024"><a xlink:href="shader__module_8hpp.html" target="_top" xlink:title=" ">
<polygon fill="white" stroke="#666666" points="962.12,-129.75 861.37,-129.75 861.37,-110.5 962.12,-110.5 962.12,-129.75"/>
<text text-anchor="middle" x="911.74" y="-116.25" font-family="Helvetica,sans-Serif" font-size="10.00">shader_module.hpp</text>
</a>
</g>
</g>
<!-- Node2&#45;&gt;Node24 -->
<g id="edge43_Node000002_Node000024" class="edge">
<title>Node2&#45;&gt;Node24</title>
<g id="a_edge43_Node000002_Node000024"><a xlink:title=" ">
<path fill="none" stroke="#63b8ff" d="M410.8,-220.64C543.63,-197.55 582.28,-213.07 711.74,-185 777.11,-170.83 851.52,-144.15 888.43,-130.18"/>
<polygon fill="#63b8ff" stroke="#63b8ff" points="410.52,-217.14 401.29,-222.34 411.75,-224.03 410.52,-217.14"/>
</a>
</g>
</g>
<!-- Node4 -->
<g id="Node000004" class="node">
<title>Node4</title>
<g id="a_Node000004"><a xlink:href="deprecated_2device_8hpp_source.html" target="_top" xlink:title=" ">
<polygon fill="white" stroke="#666666" points="405.37,-19.25 342.12,-19.25 342.12,0 405.37,0 405.37,-19.25"/>
<text text-anchor="middle" x="373.74" y="-5.75" font-family="Helvetica,sans-Serif" font-size="10.00">device.hpp</text>
</a>
</g>
</g>
<!-- Node3&#45;&gt;Node4 -->
<g id="edge3_Node000003_Node000004" class="edge">
<title>Node3&#45;&gt;Node4</title>
<g id="a_edge3_Node000003_Node000004"><a xlink:title=" ">
<path fill="none" stroke="#63b8ff" d="M304.34,-101.35C322.27,-77.91 353.16,-37.53 366.85,-19.63"/>
<polygon fill="#63b8ff" stroke="#63b8ff" points="301.75,-98.97 298.45,-109.04 307.31,-103.23 301.75,-98.97"/>
</a>
</g>
</g>
<!-- Node5 -->
<g id="Node000005" class="node">
<title>Node5</title>
<g id="a_Node000005"><a xlink:href="device_8hpp_source.html" target="_top" xlink:title=" ">
<polygon fill="white" stroke="#666666" points="307.37,-19.25 244.12,-19.25 244.12,0 307.37,0 307.37,-19.25"/>
<text text-anchor="middle" x="275.74" y="-5.75" font-family="Helvetica,sans-Serif" font-size="10.00">device.hpp</text>
</a>
</g>
</g>
<!-- Node3&#45;&gt;Node5 -->
<g id="edge4_Node000003_Node000005" class="edge">
<title>Node3&#45;&gt;Node5</title>
<g id="a_edge4_Node000003_Node000005"><a xlink:title=" ">
<path fill="none" stroke="#63b8ff" d="M286.85,-99.12C285.44,-91.44 283.91,-82.58 282.74,-74.5 279.94,-55.07 277.68,-32.16 276.54,-19.75"/>
<polygon fill="#63b8ff" stroke="#63b8ff" points="283.38,-99.6 288.69,-108.78 290.26,-98.3 283.38,-99.6"/>
</a>
</g>
</g>
<!-- Node7&#45;&gt;Node4 -->
<g id="edge7_Node000007_Node000004" class="edge">
<title>Node7&#45;&gt;Node4</title>
<g id="a_edge7_Node000007_Node000004"><a xlink:title=" ">
<path fill="none" stroke="#63b8ff" d="M220.27,-51.9C257.15,-41.98 308.68,-28.12 341.63,-19.26"/>
<polygon fill="#63b8ff" stroke="#63b8ff" points="219.54,-48.47 210.79,-54.45 221.36,-55.23 219.54,-48.47"/>
</a>
</g>
</g>
<!-- Node7&#45;&gt;Node5 -->
<g id="edge8_Node000007_Node000005" class="edge">
<title>Node7&#45;&gt;Node5</title>
<g id="a_edge8_Node000007_Node000005"><a xlink:title=" ">
<path fill="none" stroke="#63b8ff" d="M202.78,-49.48C220.59,-39.99 243.37,-27.86 258.69,-19.7"/>
<polygon fill="#63b8ff" stroke="#63b8ff" points="201.22,-46.34 194.04,-54.13 204.51,-52.52 201.22,-46.34"/>
</a>
</g>
</g>
<!-- Node10&#45;&gt;Node4 -->
<g id="edge12_Node000010_Node000004" class="edge">
<title>Node10&#45;&gt;Node4</title>
<g id="a_edge12_Node000010_Node000004"><a xlink:title=" ">
<path fill="none" stroke="#63b8ff" d="M114.58,-54.72C179.99,-43.59 288.22,-25.17 341.74,-16.07"/>
<polygon fill="#63b8ff" stroke="#63b8ff" points="114.04,-51.26 104.77,-56.38 115.22,-58.16 114.04,-51.26"/>
</a>
</g>
</g>
<!-- Node10&#45;&gt;Node5 -->
<g id="edge13_Node000010_Node000005" class="edge">
<title>Node10&#45;&gt;Node5</title>
<g id="a_edge13_Node000010_Node000005"><a xlink:title=" ">
<path fill="none" stroke="#63b8ff" d="M108.33,-52.09C149.48,-41.9 207.83,-27.44 243.66,-18.57"/>
<polygon fill="#63b8ff" stroke="#63b8ff" points="107.55,-48.68 98.68,-54.48 109.23,-55.47 107.55,-48.68"/>
</a>
</g>
</g>
<!-- Node11 -->
<g id="Node000011" class="node">
<title>Node11</title>
<g id="a_Node000011"><a xlink:href="deprecated_2rhi_8hpp.html" target="_top" xlink:title=" ">
<polygon fill="white" stroke="#666666" points="52.37,-19.25 7.12,-19.25 7.12,0 52.37,0 52.37,-19.25"/>
<text text-anchor="middle" x="29.74" y="-5.75" font-family="Helvetica,sans-Serif" font-size="10.00">rhi.hpp</text>
</a>
</g>
</g>
<!-- Node10&#45;&gt;Node11 -->
<g id="edge14_Node000010_Node000011" class="edge">
<title>Node10&#45;&gt;Node11</title>
<g id="a_edge14_Node000010_Node000011"><a xlink:title=" ">
<path fill="none" stroke="#63b8ff" d="M49.97,-45.37C44.89,-36.64 39.06,-26.64 34.97,-19.61"/>
<polygon fill="#63b8ff" stroke="#63b8ff" points="46.8,-46.89 54.86,-53.77 52.85,-43.37 46.8,-46.89"/>
</a>
</g>
</g>
<!-- Node12 -->
<g id="Node000012" class="node">
<title>Node12</title>
<g id="a_Node000012"><a xlink:href="rhi_8hpp.html" target="_top" xlink:title=" ">
<polygon fill="white" stroke="#666666" points="115.37,-19.25 70.12,-19.25 70.12,0 115.37,0 115.37,-19.25"/>
<text text-anchor="middle" x="92.74" y="-5.75" font-family="Helvetica,sans-Serif" font-size="10.00">rhi.hpp</text>
</a>
</g>
</g>
<!-- Node10&#45;&gt;Node12 -->
<g id="edge15_Node000010_Node000012" class="edge">
<title>Node10&#45;&gt;Node12</title>
<g id="a_edge15_Node000010_Node000012"><a xlink:title=" ">
<path fill="none" stroke="#63b8ff" d="M71.86,-45.37C77.1,-36.64 83.12,-26.64 87.34,-19.61"/>
<polygon fill="#63b8ff" stroke="#63b8ff" points="68.96,-43.41 66.8,-53.78 74.96,-47.02 68.96,-43.41"/>
</a>
</g>
</g>
<!-- Node13&#45;&gt;Node3 -->
<g id="edge17_Node000013_Node000003" class="edge">
<title>Node13&#45;&gt;Node3</title>
<g id="a_edge17_Node000013_Node000003"><a xlink:title=" ">
<path fill="none" stroke="#63b8ff" d="M415.28,-161.81C385.57,-152.1 345.15,-138.9 318.53,-130.2"/>
<polygon fill="#63b8ff" stroke="#63b8ff" points="414.06,-165.09 424.65,-164.87 416.23,-158.44 414.06,-165.09"/>
</a>
</g>
</g>
<!-- Node14 -->
<g id="Node000014" class="node">
<title>Node14</title>
<g id="a_Node000014"><a xlink:href="sampler_8hpp.html" target="_top" xlink:title=" ">
<polygon fill="white" stroke="#666666" points="406.99,-129.75 338.49,-129.75 338.49,-110.5 406.99,-110.5 406.99,-129.75"/>
<text text-anchor="middle" x="372.74" y="-116.25" font-family="Helvetica,sans-Serif" font-size="10.00">sampler.hpp</text>
</a>
</g>
</g>
<!-- Node13&#45;&gt;Node14 -->
<g id="edge18_Node000013_Node000014" class="edge">
<title>Node13&#45;&gt;Node14</title>
<g id="a_edge18_Node000013_Node000014"><a xlink:title=" ">
<path fill="none" stroke="#63b8ff" d="M430.4,-159.03C416.2,-149.7 398.56,-138.1 386.55,-130.2"/>
<polygon fill="#63b8ff" stroke="#63b8ff" points="428.46,-161.94 438.74,-164.51 432.3,-156.09 428.46,-161.94"/>
</a>
</g>
</g>
<!-- Node15 -->
<g id="Node000015" class="node">
<title>Node15</title>
<g id="a_Node000015"><a xlink:href="texture_8hpp.html" target="_top" xlink:title=" ">
<polygon fill="white" stroke="#666666" points="490.12,-129.75 425.37,-129.75 425.37,-110.5 490.12,-110.5 490.12,-129.75"/>
<text text-anchor="middle" x="457.74" y="-116.25" font-family="Helvetica,sans-Serif" font-size="10.00">texture.hpp</text>
</a>
</g>
</g>
<!-- Node13&#45;&gt;Node15 -->
<g id="edge19_Node000013_Node000015" class="edge">
<title>Node13&#45;&gt;Node15</title>
<g id="a_edge19_Node000013_Node000015"><a xlink:title=" ">
<path fill="none" stroke="#63b8ff" d="M455.26,-154.13C455.88,-145.84 456.57,-136.67 457.07,-130.11"/>
<polygon fill="#63b8ff" stroke="#63b8ff" points="451.77,-153.84 454.51,-164.07 458.75,-154.36 451.77,-153.84"/>
</a>
</g>
</g>
<!-- Node15&#45;&gt;Node4 -->
<g id="edge20_Node000015_Node000004" class="edge">
<title>Node15&#45;&gt;Node4</title>
<g id="a_edge20_Node000015_Node000004"><a xlink:title=" ">
<path fill="none" stroke="#63b8ff" d="M463.7,-99.21C466.49,-85.83 467.68,-68.32 459.74,-55.25 448.03,-35.99 425.02,-24.66 405.74,-18.25"/>
<polygon fill="#63b8ff" stroke="#63b8ff" points="460.38,-98.07 461.28,-108.63 467.16,-99.81 460.38,-98.07"/>
</a>
</g>
</g>
<!-- Node15&#45;&gt;Node5 -->
<g id="edge21_Node000015_Node000005" class="edge">
<title>Node15&#45;&gt;Node5</title>
<g id="a_edge21_Node000015_Node000005"><a xlink:title=" ">
<path fill="none" stroke="#63b8ff" d="M420.34,-106.02C399.97,-98.16 374.71,-87.23 353.74,-74.5 326.51,-57.97 298.58,-32.66 284.7,-19.41"/>
<polygon fill="#63b8ff" stroke="#63b8ff" points="419.09,-109.29 429.68,-109.53 421.55,-102.73 419.09,-109.29"/>
</a>
</g>
</g>
<!-- Node16 -->
<g id="Node000016" class="node">
<title>Node16</title>
<g id="a_Node000016"><a xlink:href="deprecated_2render__pass_8hpp.html" target="_top" xlink:title=" ">
<polygon fill="white" stroke="#666666" points="594.74,-74.5 506.74,-74.5 506.74,-55.25 594.74,-55.25 594.74,-74.5"/>
<text text-anchor="middle" x="550.74" y="-61" font-family="Helvetica,sans-Serif" font-size="10.00">render_pass.hpp</text>
</a>
</g>
</g>
<!-- Node15&#45;&gt;Node16 -->
<g id="edge22_Node000015_Node000016" class="edge">
<title>Node15&#45;&gt;Node16</title>
<g id="a_edge22_Node000015_Node000016"><a xlink:title=" ">
<path fill="none" stroke="#63b8ff" d="M483.12,-104.59C499.65,-95.13 520.7,-83.08 534.89,-74.95"/>
<polygon fill="#63b8ff" stroke="#63b8ff" points="481.77,-101.33 474.83,-109.34 485.25,-107.41 481.77,-101.33"/>
</a>
</g>
</g>
<!-- Node17 -->
<g id="Node000017" class="node">
<title>Node17</title>
<g id="a_Node000017"><a xlink:href="render__pass_8hpp.html" target="_top" xlink:title=" ">
<polygon fill="white" stroke="#666666" points="450.74,-74.5 362.74,-74.5 362.74,-55.25 450.74,-55.25 450.74,-74.5"/>
<text text-anchor="middle" x="406.74" y="-61" font-family="Helvetica,sans-Serif" font-size="10.00">render_pass.hpp</text>
</a>
</g>
</g>
<!-- Node15&#45;&gt;Node17 -->
<g id="edge23_Node000015_Node000017" class="edge">
<title>Node15&#45;&gt;Node17</title>
<g id="a_edge23_Node000015_Node000017"><a xlink:title=" ">
<path fill="none" stroke="#63b8ff" d="M441.38,-102.04C432.72,-93 422.45,-82.27 415.35,-74.86"/>
<polygon fill="#63b8ff" stroke="#63b8ff" points="438.83,-104.44 448.27,-109.24 443.88,-99.6 438.83,-104.44"/>
</a>
</g>
</g>
<!-- Node17&#45;&gt;Node4 -->
<g id="edge24_Node000017_Node000004" class="edge">
<title>Node17&#45;&gt;Node4</title>
<g id="a_edge24_Node000017_Node000004"><a xlink:title=" ">
<path fill="none" stroke="#63b8ff" d="M395.27,-45.37C389.86,-36.64 383.66,-26.64 379.31,-19.61"/>
<polygon fill="#63b8ff" stroke="#63b8ff" points="392.25,-47.14 400.49,-53.8 398.2,-43.45 392.25,-47.14"/>
</a>
</g>
</g>
<!-- Node17&#45;&gt;Node5 -->
<g id="edge25_Node000017_Node000005" class="edge">
<title>Node17&#45;&gt;Node5</title>
<g id="a_edge25_Node000017_Node000005"><a xlink:title=" ">
<path fill="none" stroke="#63b8ff" d="M373.92,-50.53C350.24,-40.91 318.9,-28.17 298.07,-19.7"/>
<polygon fill="#63b8ff" stroke="#63b8ff" points="372.53,-53.75 383.12,-54.27 375.17,-47.26 372.53,-53.75"/>
</a>
</g>
</g>
<!-- Node19&#45;&gt;Node15 -->
<g id="edge41_Node000019_Node000015" class="edge">
<title>Node19&#45;&gt;Node15</title>
<g id="a_edge41_Node000019_Node000015"><a xlink:title=" ">
<path fill="none" stroke="#63b8ff" d="M595.36,-162.07C562.66,-152.34 517.75,-138.98 488.25,-130.2"/>
<polygon fill="#63b8ff" stroke="#63b8ff" points="594.34,-165.41 604.92,-164.91 596.34,-158.7 594.34,-165.41"/>
</a>
</g>
</g>
<!-- Node19&#45;&gt;Node16 -->
<g id="edge33_Node000019_Node000016" class="edge">
<title>Node19&#45;&gt;Node16</title>
<g id="a_edge33_Node000019_Node000016"><a xlink:title=" ">
<path fill="none" stroke="#63b8ff" d="M622.65,-156.6C604.07,-133.16 572.07,-92.78 557.88,-74.88"/>
<polygon fill="#63b8ff" stroke="#63b8ff" points="619.81,-158.65 628.76,-164.31 625.29,-154.3 619.81,-158.65"/>
</a>
</g>
</g>
<!-- Node19&#45;&gt;Node17 -->
<g id="edge34_Node000019_Node000017" class="edge">
<title>Node19&#45;&gt;Node17</title>
<g id="a_edge34_Node000019_Node000017"><a xlink:title=" ">
<path fill="none" stroke="#63b8ff" d="M607.22,-160.45C559.41,-137.89 466.32,-93.98 426.06,-74.99"/>
<polygon fill="#63b8ff" stroke="#63b8ff" points="605.62,-163.56 616.16,-164.67 608.61,-157.23 605.62,-163.56"/>
</a>
</g>
</g>
<!-- Node20 -->
<g id="Node000020" class="node">
<title>Node20</title>
<g id="a_Node000020"><a xlink:href="deprecated_2graphics__pipeline_8hpp.html" target="_top" xlink:title=" ">
<polygon fill="white" stroke="#666666" points="855.62,-74.5 745.87,-74.5 745.87,-55.25 855.62,-55.25 855.62,-74.5"/>
<text text-anchor="middle" x="800.74" y="-61" font-family="Helvetica,sans-Serif" font-size="10.00">graphics_pipeline.hpp</text>
</a>
</g>
</g>
<!-- Node19&#45;&gt;Node20 -->
<g id="edge28_Node000019_Node000020" class="edge">
<title>Node19&#45;&gt;Node20</title>
<g id="a_edge28_Node000019_Node000020"><a xlink:title=" ">
<path fill="none" stroke="#63b8ff" d="M636.08,-154.35C636.71,-140.38 639.85,-122.22 650.74,-110.5 664.52,-95.67 713.07,-82.99 751.25,-74.97"/>
<polygon fill="#63b8ff" stroke="#63b8ff" points="632.58,-154.17 636.07,-164.18 639.58,-154.18 632.58,-154.17"/>
</a>
</g>
</g>
<!-- Node21 -->
<g id="Node000021" class="node">
<title>Node21</title>
<g id="a_Node000021"><a xlink:href="graphics__pipeline_8hpp.html" target="_top" xlink:title=" ">
<polygon fill="white" stroke="#666666" points="722.62,-74.5 612.87,-74.5 612.87,-55.25 722.62,-55.25 722.62,-74.5"/>
<text text-anchor="middle" x="667.74" y="-61" font-family="Helvetica,sans-Serif" font-size="10.00">graphics_pipeline.hpp</text>
</a>
</g>
</g>
<!-- Node19&#45;&gt;Node21 -->
<g id="edge29_Node000019_Node000021" class="edge">
<title>Node19&#45;&gt;Node21</title>
<g id="a_edge29_Node000019_Node000021"><a xlink:title=" ">
<path fill="none" stroke="#63b8ff" d="M624.35,-155.76C617.34,-142.76 611.16,-125.18 617.74,-110.5 624.68,-95 639.97,-82.66 651.83,-74.92"/>
<polygon fill="#63b8ff" stroke="#63b8ff" points="621.24,-157.38 629.4,-164.14 627.24,-153.76 621.24,-157.38"/>
</a>
</g>
</g>
<!-- Node19&#45;&gt;Node23 -->
<g id="edge35_Node000019_Node000023" class="edge">
<title>Node19&#45;&gt;Node23</title>
<g id="a_edge35_Node000019_Node000023"><a xlink:title=" ">
<path fill="none" stroke="#63b8ff" d="M673.93,-161.68C702.33,-151.99 740.78,-138.86 766.15,-130.2"/>
<polygon fill="#63b8ff" stroke="#63b8ff" points="672.97,-158.31 664.64,-164.85 675.23,-164.93 672.97,-158.31"/>
</a>
</g>
</g>
<!-- Node19&#45;&gt;Node24 -->
<g id="edge36_Node000019_Node000024" class="edge">
<title>Node19&#45;&gt;Node24</title>
<g id="a_edge36_Node000019_Node000024"><a xlink:title=" ">
<path fill="none" stroke="#63b8ff" d="M679.41,-166.11C729.7,-156.37 813,-140.24 865,-130.18"/>
<polygon fill="#63b8ff" stroke="#63b8ff" points="678.92,-162.64 669.77,-167.98 680.26,-169.51 678.92,-162.64"/>
</a>
</g>
</g>
<!-- Node26 -->
<g id="Node000026" class="node">
<title>Node26</title>
<g id="a_Node000026"><a xlink:href="deprecated_2texture_8hpp.html" target="_top" xlink:title=" ">
<polygon fill="white" stroke="#666666" points="724.12,-129.75 659.37,-129.75 659.37,-110.5 724.12,-110.5 724.12,-129.75"/>
<text text-anchor="middle" x="691.74" y="-116.25" font-family="Helvetica,sans-Serif" font-size="10.00">texture.hpp</text>
</a>
</g>
</g>
<!-- Node19&#45;&gt;Node26 -->
<g id="edge40_Node000019_Node000026" class="edge">
<title>Node19&#45;&gt;Node26</title>
<g id="a_edge40_Node000019_Node000026"><a xlink:title=" ">
<path fill="none" stroke="#63b8ff" d="M654.09,-157.57C663.49,-148.48 674.72,-137.6 682.46,-130.11"/>
<polygon fill="#63b8ff" stroke="#63b8ff" points="651.66,-155.06 646.91,-164.53 656.53,-160.09 651.66,-155.06"/>
</a>
</g>
</g>
<!-- Node21&#45;&gt;Node4 -->
<g id="edge31_Node000021_Node000004" class="edge">
<title>Node21&#45;&gt;Node4</title>
<g id="a_edge31_Node000021_Node000004"><a xlink:title=" ">
<path fill="none" stroke="#63b8ff" d="M606.48,-52.78C545.27,-41.69 453.57,-25.08 405.59,-16.39"/>
<polygon fill="#63b8ff" stroke="#63b8ff" points="605.58,-56.17 616.04,-54.51 606.83,-49.29 605.58,-56.17"/>
</a>
</g>
</g>
<!-- Node21&#45;&gt;Node5 -->
<g id="edge32_Node000021_Node000005" class="edge">
<title>Node21&#45;&gt;Node5</title>
<g id="a_edge32_Node000021_Node000005"><a xlink:title=" ">
<path fill="none" stroke="#63b8ff" d="M601.47,-54.95C481.46,-38.96 449.51,-35.84 332.74,-19.25 324.62,-18.1 315.85,-16.8 307.68,-15.56"/>
<polygon fill="#63b8ff" stroke="#63b8ff" points="600.71,-58.38 611.08,-56.23 601.63,-51.44 600.71,-58.38"/>
</a>
</g>
</g>
<!-- Node22 -->
<g id="Node000022" class="node">
<title>Node22</title>
<g id="a_Node000022"><a xlink:href="deprecated_2compute__pipeline_8hpp.html" target="_top" xlink:title=" ">
<polygon fill="white" stroke="#666666" points="722.99,-19.25 612.49,-19.25 612.49,0 722.99,0 722.99,-19.25"/>
<text text-anchor="middle" x="667.74" y="-5.75" font-family="Helvetica,sans-Serif" font-size="10.00">compute_pipeline.hpp</text>
</a>
</g>
</g>
<!-- Node21&#45;&gt;Node22 -->
<g id="edge30_Node000021_Node000022" class="edge">
<title>Node21&#45;&gt;Node22</title>
<g id="a_edge30_Node000021_Node000022"><a xlink:title=" ">
<path fill="none" stroke="#63b8ff" d="M667.74,-43.63C667.74,-35.34 667.74,-26.17 667.74,-19.61"/>
<polygon fill="#63b8ff" stroke="#63b8ff" points="664.24,-43.57 667.74,-53.57 671.24,-43.57 664.24,-43.57"/>
</a>
</g>
</g>
<!-- Node24&#45;&gt;Node20 -->
<g id="edge38_Node000024_Node000020" class="edge">
<title>Node24&#45;&gt;Node20</title>
<g id="a_edge38_Node000024_Node000020"><a xlink:title=" ">
<path fill="none" stroke="#63b8ff" d="M882.56,-105.12C862.67,-95.58 836.92,-83.23 819.66,-74.95"/>
<polygon fill="#63b8ff" stroke="#63b8ff" points="881.02,-108.27 891.55,-109.44 884.04,-101.96 881.02,-108.27"/>
</a>
</g>
</g>
<!-- Node24&#45;&gt;Node21 -->
<g id="edge39_Node000024_Node000021" class="edge">
<title>Node24&#45;&gt;Node21</title>
<g id="a_edge39_Node000024_Node000021"><a xlink:title=" ">
<path fill="none" stroke="#63b8ff" d="M859.09,-107.63C814.21,-97.84 750.58,-83.95 709.24,-74.93"/>
<polygon fill="#63b8ff" stroke="#63b8ff" points="858.08,-111 868.59,-109.71 859.57,-104.16 858.08,-111"/>
</a>
</g>
</g>
<!-- Node25 -->
<g id="Node000025" class="node">
<title>Node25</title>
<g id="a_Node000025"><a xlink:href="descriptor_8hpp.html" target="_top" xlink:title=" ">
<polygon fill="white" stroke="#666666" points="950.12,-74.5 873.37,-74.5 873.37,-55.25 950.12,-55.25 950.12,-74.5"/>
<text text-anchor="middle" x="911.74" y="-61" font-family="Helvetica,sans-Serif" font-size="10.00">descriptor.hpp</text>
</a>
</g>
</g>
<!-- Node24&#45;&gt;Node25 -->
<g id="edge37_Node000024_Node000025" class="edge">
<title>Node24&#45;&gt;Node25</title>
<g id="a_edge37_Node000024_Node000025"><a xlink:title=" ">
<path fill="none" stroke="#63b8ff" d="M911.74,-98.88C911.74,-90.59 911.74,-81.42 911.74,-74.86"/>
<polygon fill="#63b8ff" stroke="#63b8ff" points="908.24,-98.82 911.74,-108.82 915.24,-98.82 908.24,-98.82"/>
</a>
</g>
</g>
</g>
</svg>

<g id="navigator" transform="translate(0 0)" fill="#404254">
  <rect fill="#f2f5e9" fill-opacity="0.5" stroke="#606060" stroke-width=".5" x="0" y="0" width="60" height="60"/>
  <use id="zoomplus" xlink:href="#zoomPlus" x="17" y="9" onmousedown="handleZoom(evt,'in')"/>
  <use id="zoomminus" xlink:href="#zoomMin" x="42" y="9" onmousedown="handleZoom(evt,'out')"/>
  <use id="reset" xlink:href="#resetDef" x="30" y="36" onmousedown="handleReset()"/>
   <use id="arrowup" xlink:href="#arrowUp" x="0" y="0" onmousedown="handlePan(0,-1)"/>
  <use id="arrowright" xlink:href="#arrowRight" x="0" y="0" onmousedown="handlePan(1,0)"/>
  <use id="arrowdown" xlink:href="#arrowDown" x="0" y="0" onmousedown="handlePan(0,1)"/>
  <use id="arrowleft" xlink:href="#arrowLeft" x="0" y="0" onmousedown="handlePan(-1,0)"/>
</g>
<svg viewBox="0 0 15 15" width="100%" height="30px" preserveAspectRatio="xMaxYMin meet">
 <g id="arrow_out" transform="scale(0.3 0.3)">
  <a xlink:href="enum__class_8hpp__dep__incl_org.svg" target="_base">
   <rect id="button" ry="5" rx="5" y="6" x="6" height="38" width="38"
        fill="#f2f5e9" fill-opacity="0.5" stroke="#606060" stroke-width="1.0"/>
   <path id="arrow"
     d="M 11.500037,31.436501 C 11.940474,20.09759 22.043105,11.32322 32.158766,21.979434 L 37.068811,17.246167 C 37.068811,17.246167 37.088388,32 37.088388,32 L 22.160133,31.978069 C 22.160133,31.978069 26.997745,27.140456 26.997745,27.140456 C 18.528582,18.264221 13.291696,25.230495 11.500037,31.436501 z"
     style="fill:#404040;"/>
  </a>
 </g>
</svg>

<style type='text/css'>
<![CDATA[
[data-mouse-over-selected='false'] { opacity: 0.7; }
[data-mouse-over-selected='true']  { opacity: 1.0; }
]]>
</style>
<script type="application/ecmascript"><![CDATA[
document.addEventListener('DOMContentLoaded', (event) => {
  highlightEdges();
  highlightAdjacentNodes();
});
]]></script>
</svg>
