<?xml version="1.0" encoding="UTF-8" standalone="no"?>
<!DOCTYPE svg PUBLIC "-//W3C//DTD SVG 1.1//EN"
 "http://www.w3.org/Graphics/SVG/1.1/DTD/svg11.dtd">
<!-- Generated by graphviz version 9.0.0 (20230911.1827)
 -->
<!-- Title: enum_bitmask.hpp Pages: 1 -->
<svg width="1094pt" height="414pt"
 viewBox="0.00 0.00 1094.00 414.00" xmlns="http://www.w3.org/2000/svg" xmlns:xlink="http://www.w3.org/1999/xlink">
<g id="graph0" class="graph" transform="scale(1 1) rotate(0) translate(4 410)">
<title>enum_bitmask.hpp</title>
<!-- Node1 -->
<g id="Node000001" class="node">
<title>Node1</title>
<g id="a_Node000001"><a xlink:title=" ">
<polygon fill="#999999" stroke="#666666" points="287.62,-406 189.12,-406 189.12,-386.75 287.62,-386.75 287.62,-406"/>
<text text-anchor="middle" x="238.38" y="-392.5" font-family="Helvetica,sans-Serif" font-size="10.00">enum_bitmask.hpp</text>
</a>
</g>
</g>
<!-- Node2 -->
<g id="Node000002" class="node">
<title>Node2</title>
<g id="a_Node000002"><a xlink:href="first__draft_2buffer_8hpp.html" target="_top" xlink:title=" ">
<polygon fill="white" stroke="#666666" points="58.75,-350.75 0,-350.75 0,-331.5 58.75,-331.5 58.75,-350.75"/>
<text text-anchor="middle" x="29.38" y="-337.25" font-family="Helvetica,sans-Serif" font-size="10.00">buffer.hpp</text>
</a>
</g>
</g>
<!-- Node1&#45;&gt;Node2 -->
<g id="edge1_Node000001_Node000002" class="edge">
<title>Node1&#45;&gt;Node2</title>
<g id="a_edge1_Node000001_Node000002"><a xlink:title=" ">
<path fill="none" stroke="#63b8ff" d="M191.98,-383.56C151.48,-373.24 93.9,-358.57 59.24,-349.73"/>
<polygon fill="#63b8ff" stroke="#63b8ff" points="190.9,-386.89 201.45,-385.97 192.63,-380.11 190.9,-386.89"/>
</a>
</g>
</g>
<!-- Node3 -->
<g id="Node000003" class="node">
<title>Node3</title>
<g id="a_Node000003"><a xlink:href="command__buffer_8hpp.html" target="_top" xlink:title=" ">
<polygon fill="white" stroke="#666666" points="139.75,-295.5 33,-295.5 33,-276.25 139.75,-276.25 139.75,-295.5"/>
<text text-anchor="middle" x="86.38" y="-282" font-family="Helvetica,sans-Serif" font-size="10.00">command_buffer.hpp</text>
</a>
</g>
</g>
<!-- Node1&#45;&gt;Node3 -->
<g id="edge2_Node000001_Node000003" class="edge">
<title>Node1&#45;&gt;Node3</title>
<g id="a_edge2_Node000001_Node000003"><a xlink:title=" ">
<path fill="none" stroke="#63b8ff" d="M177.71,-387.58C152.34,-381.44 124.39,-370.43 105.38,-350.75 90.58,-335.44 87.24,-309.14 86.53,-295.56"/>
<polygon fill="#63b8ff" stroke="#63b8ff" points="176.77,-390.96 187.29,-389.68 178.27,-384.12 176.77,-390.96"/>
</a>
</g>
</g>
<!-- Node11 -->
<g id="Node000011" class="node">
<title>Node11</title>
<g id="a_Node000011"><a xlink:href="first__draft_2command__queue_8hpp.html" target="_top" xlink:title=" ">
<polygon fill="white" stroke="#666666" points="223.88,-350.75 114.88,-350.75 114.88,-331.5 223.88,-331.5 223.88,-350.75"/>
<text text-anchor="middle" x="169.38" y="-337.25" font-family="Helvetica,sans-Serif" font-size="10.00">command_queue.hpp</text>
</a>
</g>
</g>
<!-- Node1&#45;&gt;Node11 -->
<g id="edge11_Node000001_Node000011" class="edge">
<title>Node1&#45;&gt;Node11</title>
<g id="a_edge11_Node000001_Node000011"><a xlink:title=" ">
<path fill="none" stroke="#63b8ff" d="M217.73,-379.44C205.68,-370.14 190.93,-358.76 180.91,-351.02"/>
<polygon fill="#63b8ff" stroke="#63b8ff" points="215.42,-382.08 225.47,-385.42 219.69,-376.54 215.42,-382.08"/>
</a>
</g>
</g>
<!-- Node12 -->
<g id="Node000012" class="node">
<title>Node12</title>
<g id="a_Node000012"><a xlink:href="device__resource__state_8hpp.html" target="_top" xlink:title=" ">
<polygon fill="white" stroke="#666666" points="374.88,-350.75 241.88,-350.75 241.88,-331.5 374.88,-331.5 374.88,-350.75"/>
<text text-anchor="middle" x="308.38" y="-337.25" font-family="Helvetica,sans-Serif" font-size="10.00">device_resource_state.hpp</text>
</a>
</g>
</g>
<!-- Node1&#45;&gt;Node12 -->
<g id="edge12_Node000001_Node000012" class="edge">
<title>Node1&#45;&gt;Node12</title>
<g id="a_edge12_Node000001_Node000012"><a xlink:title=" ">
<path fill="none" stroke="#63b8ff" d="M259.32,-379.44C271.55,-370.14 286.51,-358.76 296.68,-351.02"/>
<polygon fill="#63b8ff" stroke="#63b8ff" points="257.29,-376.59 251.45,-385.43 261.53,-382.16 257.29,-376.59"/>
</a>
</g>
</g>
<!-- Node24 -->
<g id="Node000024" class="node">
<title>Node24</title>
<g id="a_Node000024"><a xlink:href="first__draft_2shader__module_8hpp.html" target="_top" xlink:title=" ">
<polygon fill="white" stroke="#666666" points="493.75,-350.75 393,-350.75 393,-331.5 493.75,-331.5 493.75,-350.75"/>
<text text-anchor="middle" x="443.38" y="-337.25" font-family="Helvetica,sans-Serif" font-size="10.00">shader_module.hpp</text>
</a>
</g>
</g>
<!-- Node1&#45;&gt;Node24 -->
<g id="edge33_Node000001_Node000024" class="edge">
<title>Node1&#45;&gt;Node24</title>
<g id="a_edge33_Node000001_Node000024"><a xlink:title=" ">
<path fill="none" stroke="#63b8ff" d="M283.81,-383.57C321.42,-373.8 374.06,-360.13 408.43,-351.2"/>
<polygon fill="#63b8ff" stroke="#63b8ff" points="283.41,-380.06 274.62,-385.96 285.17,-386.83 283.41,-380.06"/>
</a>
</g>
</g>
<!-- Node25 -->
<g id="Node000025" class="node">
<title>Node25</title>
<g id="a_Node000025"><a xlink:href="first__draft_2texture_8hpp.html" target="_top" xlink:title=" ">
<polygon fill="white" stroke="#666666" points="576.75,-350.75 512,-350.75 512,-331.5 576.75,-331.5 576.75,-350.75"/>
<text text-anchor="middle" x="544.38" y="-337.25" font-family="Helvetica,sans-Serif" font-size="10.00">texture.hpp</text>
</a>
</g>
</g>
<!-- Node1&#45;&gt;Node25 -->
<g id="edge34_Node000001_Node000025" class="edge">
<title>Node1&#45;&gt;Node25</title>
<g id="a_edge34_Node000001_Node000025"><a xlink:title=" ">
<path fill="none" stroke="#63b8ff" d="M299.45,-385.67C353.03,-377.02 432.99,-363.73 502.38,-350.75 505.45,-350.17 508.64,-349.56 511.84,-348.92"/>
<polygon fill="#63b8ff" stroke="#63b8ff" points="298.91,-382.22 289.59,-387.26 300.02,-389.13 298.91,-382.22"/>
</a>
</g>
</g>
<!-- Node4 -->
<g id="Node000004" class="node">
<title>Node4</title>
<g id="a_Node000004"><a xlink:href="render__graph_8hpp.html" target="_top" xlink:title=" ">
<polygon fill="white" stroke="#666666" points="131.88,-240.25 40.88,-240.25 40.88,-221 131.88,-221 131.88,-240.25"/>
<text text-anchor="middle" x="86.38" y="-226.75" font-family="Helvetica,sans-Serif" font-size="10.00">render_graph.hpp</text>
</a>
</g>
</g>
<!-- Node3&#45;&gt;Node4 -->
<g id="edge3_Node000003_Node000004" class="edge">
<title>Node3&#45;&gt;Node4</title>
<g id="a_edge3_Node000003_Node000004"><a xlink:title=" ">
<path fill="none" stroke="#63b8ff" d="M86.38,-264.63C86.38,-256.34 86.38,-247.17 86.38,-240.61"/>
<polygon fill="#63b8ff" stroke="#63b8ff" points="82.88,-264.57 86.38,-274.57 89.88,-264.57 82.88,-264.57"/>
</a>
</g>
</g>
<!-- Node5 -->
<g id="Node000005" class="node">
<title>Node5</title>
<g id="a_Node000005"><a xlink:href="device_8hpp.html" target="_top" xlink:title=" ">
<polygon fill="white" stroke="#666666" points="203,-185 139.75,-185 139.75,-165.75 203,-165.75 203,-185"/>
<text text-anchor="middle" x="171.38" y="-171.5" font-family="Helvetica,sans-Serif" font-size="10.00">device.hpp</text>
</a>
</g>
</g>
<!-- Node4&#45;&gt;Node5 -->
<g id="edge4_Node000004_Node000005" class="edge">
<title>Node4&#45;&gt;Node5</title>
<g id="a_edge4_Node000004_Node000005"><a xlink:title=" ">
<path fill="none" stroke="#63b8ff" d="M110.43,-214.55C125.4,-205.17 144.16,-193.42 156.89,-185.45"/>
<polygon fill="#63b8ff" stroke="#63b8ff" points="108.69,-211.51 102.08,-219.79 112.41,-217.45 108.69,-211.51"/>
</a>
</g>
</g>
<!-- Node10 -->
<g id="Node000010" class="node">
<title>Node10</title>
<g id="a_Node000010"><a xlink:href="render__graph_8cpp.html" target="_top" xlink:title=" ">
<polygon fill="white" stroke="#666666" points="121.88,-185 30.88,-185 30.88,-165.75 121.88,-165.75 121.88,-185"/>
<text text-anchor="middle" x="76.38" y="-171.5" font-family="Helvetica,sans-Serif" font-size="10.00">render_graph.cpp</text>
</a>
</g>
</g>
<!-- Node4&#45;&gt;Node10 -->
<g id="edge10_Node000004_Node000010" class="edge">
<title>Node4&#45;&gt;Node10</title>
<g id="a_edge10_Node000004_Node000010"><a xlink:title=" ">
<path fill="none" stroke="#63b8ff" d="M82.63,-209.67C81.06,-201.3 79.31,-192 78.06,-185.36"/>
<polygon fill="#63b8ff" stroke="#63b8ff" points="79.16,-210.16 84.44,-219.34 86.04,-208.87 79.16,-210.16"/>
</a>
</g>
</g>
<!-- Node6 -->
<g id="Node000006" class="node">
<title>Node6</title>
<g id="a_Node000006"><a xlink:href="instance_8hpp.html" target="_top" xlink:title=" ">
<polygon fill="white" stroke="#666666" points="169.12,-129.75 97.62,-129.75 97.62,-110.5 169.12,-110.5 169.12,-129.75"/>
<text text-anchor="middle" x="133.38" y="-116.25" font-family="Helvetica,sans-Serif" font-size="10.00">instance.hpp</text>
</a>
</g>
</g>
<!-- Node5&#45;&gt;Node6 -->
<g id="edge5_Node000005_Node000006" class="edge">
<title>Node5&#45;&gt;Node6</title>
<g id="a_edge5_Node000005_Node000006"><a xlink:title=" ">
<path fill="none" stroke="#63b8ff" d="M158.58,-156.44C152.26,-147.59 144.91,-137.29 139.79,-130.11"/>
<polygon fill="#63b8ff" stroke="#63b8ff" points="155.56,-158.24 164.22,-164.35 161.26,-154.18 155.56,-158.24"/>
</a>
</g>
</g>
<!-- Node9 -->
<g id="Node000009" class="node">
<title>Node9</title>
<g id="a_Node000009"><a xlink:href="vulkan__utils_8hpp.html" target="_top" xlink:title=" ">
<polygon fill="white" stroke="#666666" points="265.62,-74.5 179.12,-74.5 179.12,-55.25 265.62,-55.25 265.62,-74.5"/>
<text text-anchor="middle" x="222.38" y="-61" font-family="Helvetica,sans-Serif" font-size="10.00">vulkan_utils.hpp</text>
</a>
</g>
</g>
<!-- Node5&#45;&gt;Node9 -->
<g id="edge8_Node000005_Node000009" class="edge">
<title>Node5&#45;&gt;Node9</title>
<g id="a_edge8_Node000005_Node000009"><a xlink:title=" ">
<path fill="none" stroke="#63b8ff" d="M180.33,-155.33C191.42,-131.72 209.88,-92.46 218.14,-74.88"/>
<polygon fill="#63b8ff" stroke="#63b8ff" points="177.28,-153.59 176.19,-164.13 183.61,-156.57 177.28,-153.59"/>
</a>
</g>
</g>
<!-- Node7 -->
<g id="Node000007" class="node">
<title>Node7</title>
<g id="a_Node000007"><a xlink:href="vulkan__instance_8hpp.html" target="_top" xlink:title=" ">
<polygon fill="white" stroke="#666666" points="161,-74.5 55.75,-74.5 55.75,-55.25 161,-55.25 161,-74.5"/>
<text text-anchor="middle" x="108.38" y="-61" font-family="Helvetica,sans-Serif" font-size="10.00">vulkan_instance.hpp</text>
</a>
</g>
</g>
<!-- Node6&#45;&gt;Node7 -->
<g id="edge6_Node000006_Node000007" class="edge">
<title>Node6&#45;&gt;Node7</title>
<g id="a_edge6_Node000006_Node000007"><a xlink:title=" ">
<path fill="none" stroke="#63b8ff" d="M124.41,-100.04C120.38,-91.46 115.82,-81.73 112.59,-74.86"/>
<polygon fill="#63b8ff" stroke="#63b8ff" points="121.19,-101.4 128.6,-108.96 127.52,-98.42 121.19,-101.4"/>
</a>
</g>
</g>
<!-- Node8 -->
<g id="Node000008" class="node">
<title>Node8</title>
<g id="a_Node000008"><a xlink:href="vulkan__instance_8cpp.html" target="_top" xlink:title=" ">
<polygon fill="white" stroke="#666666" points="218,-19.25 112.75,-19.25 112.75,0 218,0 218,-19.25"/>
<text text-anchor="middle" x="165.38" y="-5.75" font-family="Helvetica,sans-Serif" font-size="10.00">vulkan_instance.cpp</text>
</a>
</g>
</g>
<!-- Node7&#45;&gt;Node8 -->
<g id="edge7_Node000007_Node000008" class="edge">
<title>Node7&#45;&gt;Node8</title>
<g id="a_edge7_Node000007_Node000008"><a xlink:title=" ">
<path fill="none" stroke="#63b8ff" d="M126.32,-47.11C136.11,-37.97 147.82,-27.03 155.85,-19.52"/>
<polygon fill="#63b8ff" stroke="#63b8ff" points="124.07,-44.42 119.15,-53.81 128.85,-49.54 124.07,-44.42"/>
</a>
</g>
</g>
<!-- Node9&#45;&gt;Node8 -->
<g id="edge9_Node000009_Node000008" class="edge">
<title>Node9&#45;&gt;Node8</title>
<g id="a_edge9_Node000009_Node000008"><a xlink:title=" ">
<path fill="none" stroke="#63b8ff" d="M204.43,-47.11C194.64,-37.97 182.93,-27.03 174.9,-19.52"/>
<polygon fill="#63b8ff" stroke="#63b8ff" points="201.9,-49.54 211.6,-53.81 206.68,-44.42 201.9,-49.54"/>
</a>
</g>
</g>
<!-- Node13 -->
<g id="Node000013" class="node">
<title>Node13</title>
<g id="a_Node000013"><a xlink:href="buffer_8hpp.html" target="_top" xlink:title=" ">
<polygon fill="white" stroke="#666666" points="308.75,-295.5 250,-295.5 250,-276.25 308.75,-276.25 308.75,-295.5"/>
<text text-anchor="middle" x="279.38" y="-282" font-family="Helvetica,sans-Serif" font-size="10.00">buffer.hpp</text>
</a>
</g>
</g>
<!-- Node12&#45;&gt;Node13 -->
<g id="edge13_Node000012_Node000013" class="edge">
<title>Node12&#45;&gt;Node13</title>
<g id="a_edge13_Node000012_Node000013"><a xlink:title=" ">
<path fill="none" stroke="#63b8ff" d="M298.14,-321.33C293.43,-312.67 288.05,-302.81 284.27,-295.86"/>
<polygon fill="#63b8ff" stroke="#63b8ff" points="295.01,-322.89 302.86,-330 301.15,-319.55 295.01,-322.89"/>
</a>
</g>
</g>
<!-- Node18 -->
<g id="Node000018" class="node">
<title>Node18</title>
<g id="a_Node000018"><a xlink:href="texture_8hpp.html" target="_top" xlink:title=" ">
<polygon fill="white" stroke="#666666" points="625.75,-295.5 561,-295.5 561,-276.25 625.75,-276.25 625.75,-295.5"/>
<text text-anchor="middle" x="593.38" y="-282" font-family="Helvetica,sans-Serif" font-size="10.00">texture.hpp</text>
</a>
</g>
</g>
<!-- Node12&#45;&gt;Node18 -->
<g id="edge20_Node000012_Node000018" class="edge">
<title>Node12&#45;&gt;Node18</title>
<g id="a_edge20_Node000012_Node000018"><a xlink:title=" ">
<path fill="none" stroke="#63b8ff" d="M368.01,-328.98C426.66,-318.02 514.02,-301.7 560.88,-292.95"/>
<polygon fill="#63b8ff" stroke="#63b8ff" points="367.72,-325.48 358.53,-330.75 369,-332.36 367.72,-325.48"/>
</a>
</g>
</g>
<!-- Node13&#45;&gt;Node4 -->
<g id="edge18_Node000013_Node000004" class="edge">
<title>Node13&#45;&gt;Node4</title>
<g id="a_edge18_Node000013_Node000004"><a xlink:title=" ">
<path fill="none" stroke="#63b8ff" d="M238.7,-273.65C203.22,-263.86 152.39,-249.84 119.38,-240.73"/>
<polygon fill="#63b8ff" stroke="#63b8ff" points="237.61,-276.98 248.18,-276.27 239.47,-270.24 237.61,-276.98"/>
</a>
</g>
</g>
<!-- Node13&#45;&gt;Node5 -->
<g id="edge16_Node000013_Node000005" class="edge">
<title>Node13&#45;&gt;Node5</title>
<g id="a_edge16_Node000013_Node000005"><a xlink:title=" ">
<path fill="none" stroke="#63b8ff" d="M238.65,-274.95C219.44,-268.24 197.84,-257.37 184.38,-240.25 171.65,-224.06 170.45,-198.6 170.81,-185.24"/>
<polygon fill="#63b8ff" stroke="#63b8ff" points="237.57,-278.28 248.16,-277.98 239.69,-271.61 237.57,-278.28"/>
</a>
</g>
</g>
<!-- Node14 -->
<g id="Node000014" class="node">
<title>Node14</title>
<g id="a_Node000014"><a xlink:href="first__draft_2command__buffer_8hpp.html" target="_top" xlink:title=" ">
<polygon fill="white" stroke="#666666" points="332.75,-240.25 226,-240.25 226,-221 332.75,-221 332.75,-240.25"/>
<text text-anchor="middle" x="279.38" y="-226.75" font-family="Helvetica,sans-Serif" font-size="10.00">command_buffer.hpp</text>
</a>
</g>
</g>
<!-- Node13&#45;&gt;Node14 -->
<g id="edge14_Node000013_Node000014" class="edge">
<title>Node13&#45;&gt;Node14</title>
<g id="a_edge14_Node000013_Node000014"><a xlink:title=" ">
<path fill="none" stroke="#63b8ff" d="M279.38,-264.63C279.38,-256.34 279.38,-247.17 279.38,-240.61"/>
<polygon fill="#63b8ff" stroke="#63b8ff" points="275.88,-264.57 279.38,-274.57 282.88,-264.57 275.88,-264.57"/>
</a>
</g>
</g>
<!-- Node15 -->
<g id="Node000015" class="node">
<title>Node15</title>
<g id="a_Node000015"><a xlink:href="deprecated_2device_8hpp_source.html" target="_top" xlink:title=" ">
<polygon fill="white" stroke="#666666" points="535,-240.25 471.75,-240.25 471.75,-221 535,-221 535,-240.25"/>
<text text-anchor="middle" x="503.38" y="-226.75" font-family="Helvetica,sans-Serif" font-size="10.00">device.hpp</text>
</a>
</g>
</g>
<!-- Node13&#45;&gt;Node15 -->
<g id="edge15_Node000013_Node000015" class="edge">
<title>Node13&#45;&gt;Node15</title>
<g id="a_edge15_Node000013_Node000015"><a xlink:title=" ">
<path fill="none" stroke="#63b8ff" d="M320.15,-275.18C363.61,-264.85 431.54,-248.7 471.33,-239.24"/>
<polygon fill="#63b8ff" stroke="#63b8ff" points="319.51,-271.74 310.59,-277.45 321.13,-278.55 319.51,-271.74"/>
</a>
</g>
</g>
<!-- Node16 -->
<g id="Node000016" class="node">
<title>Node16</title>
<g id="a_Node000016"><a xlink:href="first__draft_2device_8hpp_source.html" target="_top" xlink:title=" ">
<polygon fill="white" stroke="#666666" points="625,-185 561.75,-185 561.75,-165.75 625,-165.75 625,-185"/>
<text text-anchor="middle" x="593.38" y="-171.5" font-family="Helvetica,sans-Serif" font-size="10.00">device.hpp</text>
</a>
</g>
</g>
<!-- Node13&#45;&gt;Node16 -->
<g id="edge17_Node000013_Node000016" class="edge">
<title>Node13&#45;&gt;Node16</title>
<g id="a_edge17_Node000013_Node000016"><a xlink:title=" ">
<path fill="none" stroke="#63b8ff" d="M249.16,-270.45C226.48,-257.73 201.8,-238.53 217.38,-221 240.1,-195.41 474.67,-181.92 561.38,-177.78"/>
<polygon fill="#63b8ff" stroke="#63b8ff" points="247.47,-273.52 257.95,-275.1 250.75,-267.33 247.47,-273.52"/>
</a>
</g>
</g>
<!-- Node17 -->
<g id="Node000017" class="node">
<title>Node17</title>
<g id="a_Node000017"><a xlink:href="synchronization_8hpp.html" target="_top" xlink:title=" ">
<polygon fill="white" stroke="#666666" points="453.88,-240.25 350.88,-240.25 350.88,-221 453.88,-221 453.88,-240.25"/>
<text text-anchor="middle" x="402.38" y="-226.75" font-family="Helvetica,sans-Serif" font-size="10.00">synchronization.hpp</text>
</a>
</g>
</g>
<!-- Node13&#45;&gt;Node17 -->
<g id="edge19_Node000013_Node000017" class="edge">
<title>Node13&#45;&gt;Node17</title>
<g id="a_edge19_Node000013_Node000017"><a xlink:title=" ">
<path fill="none" stroke="#63b8ff" d="M310.8,-271.27C332.96,-261.68 362.02,-249.09 381.41,-240.7"/>
<polygon fill="#63b8ff" stroke="#63b8ff" points="309.42,-268.06 301.63,-275.24 312.2,-274.48 309.42,-268.06"/>
</a>
</g>
</g>
<!-- Node18&#45;&gt;Node4 -->
<g id="edge25_Node000018_Node000004" class="edge">
<title>Node18&#45;&gt;Node4</title>
<g id="a_edge25_Node000018_Node000004"><a xlink:title=" ">
<path fill="none" stroke="#63b8ff" d="M549.67,-280.28C454.44,-270.28 228.98,-246.6 132.01,-236.42"/>
<polygon fill="#63b8ff" stroke="#63b8ff" points="549.07,-283.74 559.38,-281.3 549.8,-276.78 549.07,-283.74"/>
</a>
</g>
</g>
<!-- Node18&#45;&gt;Node14 -->
<g id="edge21_Node000018_Node000014" class="edge">
<title>Node18&#45;&gt;Node14</title>
<g id="a_edge21_Node000018_Node000014"><a xlink:title=" ">
<path fill="none" stroke="#63b8ff" d="M549.56,-277.44C492.83,-267.82 394.01,-251.07 332.9,-240.7"/>
<polygon fill="#63b8ff" stroke="#63b8ff" points="548.72,-280.85 559.17,-279.07 549.89,-273.95 548.72,-280.85"/>
</a>
</g>
</g>
<!-- Node18&#45;&gt;Node15 -->
<g id="edge22_Node000018_Node000015" class="edge">
<title>Node18&#45;&gt;Node15</title>
<g id="a_edge22_Node000018_Node000015"><a xlink:title=" ">
<path fill="none" stroke="#63b8ff" d="M568.36,-270.07C552.43,-260.65 532.32,-248.75 518.72,-240.7"/>
<polygon fill="#63b8ff" stroke="#63b8ff" points="566.42,-272.99 576.81,-275.07 569.98,-266.97 566.42,-272.99"/>
</a>
</g>
</g>
<!-- Node18&#45;&gt;Node16 -->
<g id="edge23_Node000018_Node000016" class="edge">
<title>Node18&#45;&gt;Node16</title>
<g id="a_edge23_Node000018_Node000016"><a xlink:title=" ">
<path fill="none" stroke="#63b8ff" d="M618.64,-269.18C628.27,-261.72 638.17,-251.88 643.38,-240.25 653.28,-218.14 627.3,-196.91 609.19,-185.35"/>
<polygon fill="#63b8ff" stroke="#63b8ff" points="616.65,-266.3 610.52,-274.95 620.7,-272.01 616.65,-266.3"/>
</a>
</g>
</g>
<!-- Node18&#45;&gt;Node17 -->
<g id="edge32_Node000018_Node000017" class="edge">
<title>Node18&#45;&gt;Node17</title>
<g id="a_edge32_Node000018_Node000017"><a xlink:title=" ">
<path fill="none" stroke="#63b8ff" d="M550.13,-272.82C515.16,-263.07 466.68,-249.55 434.93,-240.7"/>
<polygon fill="#63b8ff" stroke="#63b8ff" points="548.94,-276.12 559.52,-275.44 550.82,-269.38 548.94,-276.12"/>
</a>
</g>
</g>
<!-- Node19 -->
<g id="Node000019" class="node">
<title>Node19</title>
<g id="a_Node000019"><a xlink:href="first__draft_2framebuffer_8hpp.html" target="_top" xlink:title=" ">
<polygon fill="white" stroke="#666666" points="774.12,-240.25 690.62,-240.25 690.62,-221 774.12,-221 774.12,-240.25"/>
<text text-anchor="middle" x="732.38" y="-226.75" font-family="Helvetica,sans-Serif" font-size="10.00">framebuffer.hpp</text>
</a>
</g>
</g>
<!-- Node18&#45;&gt;Node19 -->
<g id="edge24_Node000018_Node000019" class="edge">
<title>Node18&#45;&gt;Node19</title>
<g id="a_edge24_Node000018_Node000019"><a xlink:title=" ">
<path fill="none" stroke="#63b8ff" d="M627.52,-271.79C652.72,-262.14 686.38,-249.25 708.68,-240.7"/>
<polygon fill="#63b8ff" stroke="#63b8ff" points="626.45,-268.45 618.37,-275.3 628.96,-274.99 626.45,-268.45"/>
</a>
</g>
</g>
<!-- Node20 -->
<g id="Node000020" class="node">
<title>Node20</title>
<g id="a_Node000020"><a xlink:href="first__draft_2render__pass_8hpp.html" target="_top" xlink:title=" ">
<polygon fill="white" stroke="#666666" points="880.38,-240.25 792.38,-240.25 792.38,-221 880.38,-221 880.38,-240.25"/>
<text text-anchor="middle" x="836.38" y="-226.75" font-family="Helvetica,sans-Serif" font-size="10.00">render_pass.hpp</text>
</a>
</g>
</g>
<!-- Node18&#45;&gt;Node20 -->
<g id="edge26_Node000018_Node000020" class="edge">
<title>Node18&#45;&gt;Node20</title>
<g id="a_edge26_Node000018_Node000020"><a xlink:title=" ">
<path fill="none" stroke="#63b8ff" d="M637.25,-275.26C681.99,-265.46 750.89,-250.36 794.79,-240.74"/>
<polygon fill="#63b8ff" stroke="#63b8ff" points="636.64,-271.81 627.63,-277.37 638.14,-278.65 636.64,-271.81"/>
</a>
</g>
</g>
<!-- Node21 -->
<g id="Node000021" class="node">
<title>Node21</title>
<g id="a_Node000021"><a xlink:href="deprecated_2render__pass_8hpp.html" target="_top" xlink:title=" ">
<polygon fill="white" stroke="#666666" points="986.38,-240.25 898.38,-240.25 898.38,-221 986.38,-221 986.38,-240.25"/>
<text text-anchor="middle" x="942.38" y="-226.75" font-family="Helvetica,sans-Serif" font-size="10.00">render_pass.hpp</text>
</a>
</g>
</g>
<!-- Node18&#45;&gt;Node21 -->
<g id="edge27_Node000018_Node000021" class="edge">
<title>Node18&#45;&gt;Node21</title>
<g id="a_edge27_Node000018_Node000021"><a xlink:title=" ">
<path fill="none" stroke="#63b8ff" d="M637.52,-278.38C695.39,-269.84 800.03,-254.25 889.38,-240.25 892.23,-239.8 895.17,-239.34 898.13,-238.86"/>
<polygon fill="#63b8ff" stroke="#63b8ff" points="637.12,-274.9 627.74,-279.83 638.15,-281.83 637.12,-274.9"/>
</a>
</g>
</g>
<!-- Node22 -->
<g id="Node000022" class="node">
<title>Node22</title>
<g id="a_Node000022"><a xlink:href="first__draft_2swapchain_8hpp.html" target="_top" xlink:title=" ">
<polygon fill="white" stroke="#666666" points="1086,-240.25 1004.75,-240.25 1004.75,-221 1086,-221 1086,-240.25"/>
<text text-anchor="middle" x="1045.38" y="-226.75" font-family="Helvetica,sans-Serif" font-size="10.00">swapchain.hpp</text>
</a>
</g>
</g>
<!-- Node18&#45;&gt;Node22 -->
<g id="edge28_Node000018_Node000022" class="edge">
<title>Node18&#45;&gt;Node22</title>
<g id="a_edge28_Node000018_Node000022"><a xlink:title=" ">
<path fill="none" stroke="#63b8ff" d="M637.2,-280.88C711.19,-273.95 865.53,-258.64 995.38,-240.25 998.34,-239.83 1001.4,-239.37 1004.48,-238.89"/>
<polygon fill="#63b8ff" stroke="#63b8ff" points="637.17,-277.37 627.53,-281.78 637.81,-284.34 637.17,-277.37"/>
</a>
</g>
</g>
<!-- Node23 -->
<g id="Node000023" class="node">
<title>Node23</title>
<g id="a_Node000023"><a xlink:href="swapchain_8hpp.html" target="_top" xlink:title=" ">
<polygon fill="white" stroke="#666666" points="634,-240.25 552.75,-240.25 552.75,-221 634,-221 634,-240.25"/>
<text text-anchor="middle" x="593.38" y="-226.75" font-family="Helvetica,sans-Serif" font-size="10.00">swapchain.hpp</text>
</a>
</g>
</g>
<!-- Node18&#45;&gt;Node23 -->
<g id="edge29_Node000018_Node000023" class="edge">
<title>Node18&#45;&gt;Node23</title>
<g id="a_edge29_Node000018_Node000023"><a xlink:title=" ">
<path fill="none" stroke="#63b8ff" d="M593.38,-264.63C593.38,-256.34 593.38,-247.17 593.38,-240.61"/>
<polygon fill="#63b8ff" stroke="#63b8ff" points="589.88,-264.57 593.38,-274.57 596.88,-264.57 589.88,-264.57"/>
</a>
</g>
</g>
<!-- Node23&#45;&gt;Node5 -->
<g id="edge30_Node000023_Node000005" class="edge">
<title>Node23&#45;&gt;Node5</title>
<g id="a_edge30_Node000023_Node000005"><a xlink:title=" ">
<path fill="none" stroke="#63b8ff" d="M541.47,-220.64C410.39,-201.54 266.23,-186.07 203.39,-179.6"/>
<polygon fill="#63b8ff" stroke="#63b8ff" points="540.6,-224.04 551,-222.04 541.61,-217.12 540.6,-224.04"/>
</a>
</g>
</g>
<!-- Node23&#45;&gt;Node16 -->
<g id="edge31_Node000023_Node000016" class="edge">
<title>Node23&#45;&gt;Node16</title>
<g id="a_edge31_Node000023_Node000016"><a xlink:title=" ">
<path fill="none" stroke="#63b8ff" d="M593.38,-209.38C593.38,-201.09 593.38,-191.92 593.38,-185.36"/>
<polygon fill="#63b8ff" stroke="#63b8ff" points="589.88,-209.32 593.38,-219.32 596.88,-209.32 589.88,-209.32"/>
</a>
</g>
</g>
</g>
</svg>
