<?xml version="1.0" encoding="UTF-8" standalone="no"?>
<!DOCTYPE svg PUBLIC "-//W3C//DTD SVG 1.1//EN"
 "http://www.w3.org/Graphics/SVG/1.1/DTD/svg11.dtd">
<!-- Generated by graphviz version 7.1.0 (20230121.1956)
 -->
<!-- Title: event_dispatcher.hpp Pages: 1 -->
<svg width="766pt" height="577pt"
 viewBox="0.00 0.00 766.00 577.00" xmlns="http://www.w3.org/2000/svg" xmlns:xlink="http://www.w3.org/1999/xlink">
<g id="graph0" class="graph" transform="scale(1 1) rotate(0) translate(4 573)">
<title>event_dispatcher.hpp</title>
<!-- Node1 -->
<g id="Node000001" class="node">
<title>Node1</title>
<g id="a_Node000001"><a xlink:title=" ">
<polygon fill="#999999" stroke="#666666" points="422.5,-569 313.5,-569 313.5,-550 422.5,-550 422.5,-569"/>
<text text-anchor="middle" x="368" y="-557" font-family="Helvetica,sans-Serif" font-size="10.00">event_dispatcher.hpp</text>
</a>
</g>
</g>
<!-- Node2 -->
<g id="Node000002" class="node">
<title>Node2</title>
<g id="a_Node000002"><a xlink:href="event__type_8hpp.html" target="_top" xlink:title=" ">
<polygon fill="white" stroke="#666666" points="362.5,-459 183.5,-459 183.5,-440 362.5,-440 362.5,-459"/>
<text text-anchor="middle" x="273" y="-447" font-family="Helvetica,sans-Serif" font-size="10.00">liger/core/event/detail/event_type.hpp</text>
</a>
</g>
</g>
<!-- Node1&#45;&gt;Node2 -->
<g id="edge1_Node000001_Node000002" class="edge">
<title>Node1&#45;&gt;Node2</title>
<g id="a_edge1_Node000001_Node000002"><a xlink:title=" ">
<path fill="none" stroke="#63b8ff" d="M360.23,-549.66C344.57,-531.86 308.98,-491.41 288.43,-468.04"/>
<polygon fill="#63b8ff" stroke="#63b8ff" points="291.11,-465.79 281.88,-460.6 285.86,-470.42 291.11,-465.79"/>
</a>
</g>
</g>
<!-- Node15 -->
<g id="Node000015" class="node">
<title>Node15</title>
<g id="a_Node000015"><a xlink:href="event__sink_8hpp.html" target="_top" xlink:title=" ">
<polygon fill="white" stroke="#666666" points="518,-514 366,-514 366,-495 518,-495 518,-514"/>
<text text-anchor="middle" x="442" y="-502" font-family="Helvetica,sans-Serif" font-size="10.00">liger/core/event/event_sink.hpp</text>
</a>
</g>
</g>
<!-- Node1&#45;&gt;Node15 -->
<g id="edge14_Node000001_Node000015" class="edge">
<title>Node1&#45;&gt;Node15</title>
<g id="a_edge14_Node000001_Node000015"><a xlink:title=" ">
<path fill="none" stroke="#63b8ff" d="M380.55,-549.51C391.46,-541.7 407.5,-530.21 420.46,-520.93"/>
<polygon fill="#63b8ff" stroke="#63b8ff" points="422.31,-523.91 428.4,-515.24 418.23,-518.22 422.31,-523.91"/>
</a>
</g>
</g>
<!-- Node3 -->
<g id="Node000003" class="node">
<title>Node3</title>
<g id="a_Node000003"><a xlink:href="types_8hpp.html" target="_top" xlink:title=" ">
<polygon fill="white" stroke="#666666" points="421,-74 319,-74 319,-55 421,-55 421,-74"/>
<text text-anchor="middle" x="370" y="-62" font-family="Helvetica,sans-Serif" font-size="10.00">liger/core/types.hpp</text>
</a>
</g>
</g>
<!-- Node2&#45;&gt;Node3 -->
<g id="edge2_Node000002_Node000003" class="edge">
<title>Node2&#45;&gt;Node3</title>
<g id="a_edge2_Node000002_Node000003"><a xlink:title=" ">
<path fill="none" stroke="#63b8ff" d="M275.36,-439.61C280.03,-421.25 290,-377.7 290,-340.5 290,-340.5 290,-340.5 290,-173.5 290,-134.53 324.04,-100.45 347.71,-81.46"/>
<polygon fill="#63b8ff" stroke="#63b8ff" points="349.78,-84.28 355.59,-75.41 345.52,-78.72 349.78,-84.28"/>
</a>
</g>
</g>
<!-- Node4 -->
<g id="Node000004" class="node">
<title>Node4</title>
<g id="a_Node000004"><a xlink:title=" ">
<polygon fill="#e0e0e0" stroke="#999999" points="46,-19 0,-19 0,0 46,0 46,-19"/>
<text text-anchor="middle" x="23" y="-7" font-family="Helvetica,sans-Serif" font-size="10.00">cstdint</text>
</a>
</g>
</g>
<!-- Node3&#45;&gt;Node4 -->
<g id="edge3_Node000003_Node000004" class="edge">
<title>Node3&#45;&gt;Node4</title>
<g id="a_edge3_Node000003_Node000004"><a xlink:title=" ">
<path fill="none" stroke="#63b8ff" d="M318.67,-58.15C258.38,-51.45 155.17,-38.67 57.6,-19.31"/>
<polygon fill="#63b8ff" stroke="#63b8ff" points="58.32,-15.89 47.83,-17.34 56.94,-22.75 58.32,-15.89"/>
</a>
</g>
</g>
<!-- Node5 -->
<g id="Node000005" class="node">
<title>Node5</title>
<g id="a_Node000005"><a xlink:title=" ">
<polygon fill="#e0e0e0" stroke="#999999" points="114,-19 64,-19 64,0 114,0 114,-19"/>
<text text-anchor="middle" x="89" y="-7" font-family="Helvetica,sans-Serif" font-size="10.00">fstream</text>
</a>
</g>
</g>
<!-- Node3&#45;&gt;Node5 -->
<g id="edge4_Node000003_Node000005" class="edge">
<title>Node3&#45;&gt;Node5</title>
<g id="a_edge4_Node000003_Node000005"><a xlink:title=" ">
<path fill="none" stroke="#63b8ff" d="M318.71,-55.29C271.07,-47.43 197.89,-34.77 125.37,-19.39"/>
<polygon fill="#63b8ff" stroke="#63b8ff" points="126.2,-15.99 115.69,-17.32 124.73,-22.83 126.2,-15.99"/>
</a>
</g>
</g>
<!-- Node6 -->
<g id="Node000006" class="node">
<title>Node6</title>
<g id="a_Node000006"><a xlink:title=" ">
<polygon fill="#e0e0e0" stroke="#999999" points="202,-19 132,-19 132,0 202,0 202,-19"/>
<text text-anchor="middle" x="167" y="-7" font-family="Helvetica,sans-Serif" font-size="10.00">glm/glm.hpp</text>
</a>
</g>
</g>
<!-- Node3&#45;&gt;Node6 -->
<g id="edge5_Node000003_Node000006" class="edge">
<title>Node3&#45;&gt;Node6</title>
<g id="a_edge5_Node000003_Node000006"><a xlink:title=" ">
<path fill="none" stroke="#63b8ff" d="M335.56,-54.51C301.63,-45.65 249.6,-32.07 212.32,-22.33"/>
<polygon fill="#63b8ff" stroke="#63b8ff" points="213.29,-18.97 202.73,-19.83 211.52,-25.74 213.29,-18.97"/>
</a>
</g>
</g>
<!-- Node7 -->
<g id="Node000007" class="node">
<title>Node7</title>
<g id="a_Node000007"><a xlink:title=" ">
<polygon fill="#e0e0e0" stroke="#999999" points="274,-19 220,-19 220,0 274,0 274,-19"/>
<text text-anchor="middle" x="247" y="-7" font-family="Helvetica,sans-Serif" font-size="10.00">iostream</text>
</a>
</g>
</g>
<!-- Node3&#45;&gt;Node7 -->
<g id="edge6_Node000003_Node000007" class="edge">
<title>Node3&#45;&gt;Node7</title>
<g id="a_edge6_Node000003_Node000007"><a xlink:title=" ">
<path fill="none" stroke="#63b8ff" d="M349.13,-54.51C329.58,-46.08 300.1,-33.38 277.83,-23.79"/>
<polygon fill="#63b8ff" stroke="#63b8ff" points="279.52,-20.7 268.95,-19.96 276.75,-27.13 279.52,-20.7"/>
</a>
</g>
</g>
<!-- Node8 -->
<g id="Node000008" class="node">
<title>Node8</title>
<g id="a_Node000008"><a xlink:title=" ">
<polygon fill="#e0e0e0" stroke="#999999" points="327.5,-19 292.5,-19 292.5,0 327.5,0 327.5,-19"/>
<text text-anchor="middle" x="310" y="-7" font-family="Helvetica,sans-Serif" font-size="10.00">map</text>
</a>
</g>
</g>
<!-- Node3&#45;&gt;Node8 -->
<g id="edge7_Node000003_Node000008" class="edge">
<title>Node3&#45;&gt;Node8</title>
<g id="a_edge7_Node000003_Node000008"><a xlink:title=" ">
<path fill="none" stroke="#63b8ff" d="M359.82,-54.51C351.24,-46.93 338.73,-35.88 328.4,-26.75"/>
<polygon fill="#63b8ff" stroke="#63b8ff" points="330.97,-24.36 321.16,-20.36 326.34,-29.6 330.97,-24.36"/>
</a>
</g>
</g>
<!-- Node9 -->
<g id="Node000009" class="node">
<title>Node9</title>
<g id="a_Node000009"><a xlink:title=" ">
<polygon fill="#e0e0e0" stroke="#999999" points="394.5,-19 345.5,-19 345.5,0 394.5,0 394.5,-19"/>
<text text-anchor="middle" x="370" y="-7" font-family="Helvetica,sans-Serif" font-size="10.00">random</text>
</a>
</g>
</g>
<!-- Node3&#45;&gt;Node9 -->
<g id="edge8_Node000003_Node000009" class="edge">
<title>Node3&#45;&gt;Node9</title>
<g id="a_edge8_Node000003_Node000009"><a xlink:title=" ">
<path fill="none" stroke="#63b8ff" d="M370,-54.75C370,-48.27 370,-39.16 370,-30.9"/>
<polygon fill="#63b8ff" stroke="#63b8ff" points="373.5,-30.96 370,-20.96 366.5,-30.96 373.5,-30.96"/>
</a>
</g>
</g>
<!-- Node10 -->
<g id="Node000010" class="node">
<title>Node10</title>
<g id="a_Node000010"><a xlink:title=" ">
<polygon fill="#e0e0e0" stroke="#999999" points="453.5,-19 412.5,-19 412.5,0 453.5,0 453.5,-19"/>
<text text-anchor="middle" x="433" y="-7" font-family="Helvetica,sans-Serif" font-size="10.00">string</text>
</a>
</g>
</g>
<!-- Node3&#45;&gt;Node10 -->
<g id="edge9_Node000003_Node000010" class="edge">
<title>Node3&#45;&gt;Node10</title>
<g id="a_edge9_Node000003_Node000010"><a xlink:title=" ">
<path fill="none" stroke="#63b8ff" d="M380.69,-54.51C389.7,-46.93 402.83,-35.88 413.68,-26.75"/>
<polygon fill="#63b8ff" stroke="#63b8ff" points="415.91,-29.45 421.31,-20.33 411.41,-24.09 415.91,-29.45"/>
</a>
</g>
</g>
<!-- Node11 -->
<g id="Node000011" class="node">
<title>Node11</title>
<g id="a_Node000011"><a xlink:title=" ">
<polygon fill="#e0e0e0" stroke="#999999" points="538,-19 472,-19 472,0 538,0 538,-19"/>
<text text-anchor="middle" x="505" y="-7" font-family="Helvetica,sans-Serif" font-size="10.00">string_view</text>
</a>
</g>
</g>
<!-- Node3&#45;&gt;Node11 -->
<g id="edge10_Node000003_Node000011" class="edge">
<title>Node3&#45;&gt;Node11</title>
<g id="a_edge10_Node000003_Node000011"><a xlink:title=" ">
<path fill="none" stroke="#63b8ff" d="M392.9,-54.51C414.56,-46.01 447.31,-33.15 471.82,-23.53"/>
<polygon fill="#63b8ff" stroke="#63b8ff" points="473,-26.82 481.03,-19.91 470.44,-20.31 473,-26.82"/>
</a>
</g>
</g>
<!-- Node12 -->
<g id="Node000012" class="node">
<title>Node12</title>
<g id="a_Node000012"><a xlink:title=" ">
<polygon fill="#e0e0e0" stroke="#999999" points="618,-19 556,-19 556,0 618,0 618,-19"/>
<text text-anchor="middle" x="587" y="-7" font-family="Helvetica,sans-Serif" font-size="10.00">type_traits</text>
</a>
</g>
</g>
<!-- Node3&#45;&gt;Node12 -->
<g id="edge11_Node000003_Node000012" class="edge">
<title>Node3&#45;&gt;Node12</title>
<g id="a_edge11_Node000003_Node000012"><a xlink:title=" ">
<path fill="none" stroke="#63b8ff" d="M406.81,-54.51C444.97,-45.19 504.55,-30.64 544.64,-20.85"/>
<polygon fill="#63b8ff" stroke="#63b8ff" points="545.3,-24.29 554.18,-18.52 543.64,-17.49 545.3,-24.29"/>
</a>
</g>
</g>
<!-- Node13 -->
<g id="Node000013" class="node">
<title>Node13</title>
<g id="a_Node000013"><a xlink:title=" ">
<polygon fill="#e0e0e0" stroke="#999999" points="695.5,-19 636.5,-19 636.5,0 695.5,0 695.5,-19"/>
<text text-anchor="middle" x="666" y="-7" font-family="Helvetica,sans-Serif" font-size="10.00">typeindex</text>
</a>
</g>
</g>
<!-- Node3&#45;&gt;Node13 -->
<g id="edge12_Node000003_Node000013" class="edge">
<title>Node3&#45;&gt;Node13</title>
<g id="a_edge12_Node000003_Node000013"><a xlink:title=" ">
<path fill="none" stroke="#63b8ff" d="M421.32,-55.28C470.95,-47.19 548.53,-34.14 625.38,-19.24"/>
<polygon fill="#63b8ff" stroke="#63b8ff" points="625.59,-22.77 634.73,-17.42 624.25,-15.9 625.59,-22.77"/>
</a>
</g>
</g>
<!-- Node14 -->
<g id="Node000014" class="node">
<title>Node14</title>
<g id="a_Node000014"><a xlink:title=" ">
<polygon fill="#e0e0e0" stroke="#999999" points="758,-19 714,-19 714,0 758,0 758,-19"/>
<text text-anchor="middle" x="736" y="-7" font-family="Helvetica,sans-Serif" font-size="10.00">vector</text>
</a>
</g>
</g>
<!-- Node3&#45;&gt;Node14 -->
<g id="edge13_Node000003_Node000014" class="edge">
<title>Node3&#45;&gt;Node14</title>
<g id="a_edge13_Node000003_Node000014"><a xlink:title=" ">
<path fill="none" stroke="#63b8ff" d="M421.44,-58.85C485.25,-52.61 597.51,-40.05 702.61,-19.23"/>
<polygon fill="#63b8ff" stroke="#63b8ff" points="703.14,-22.7 712.25,-17.29 701.76,-15.83 703.14,-22.7"/>
</a>
</g>
</g>
<!-- Node16 -->
<g id="Node000016" class="node">
<title>Node16</title>
<g id="a_Node000016"><a xlink:href="callback_8hpp.html" target="_top" xlink:title=" ">
<polygon fill="white" stroke="#666666" points="547.5,-459 380.5,-459 380.5,-440 547.5,-440 547.5,-459"/>
<text text-anchor="middle" x="464" y="-447" font-family="Helvetica,sans-Serif" font-size="10.00">liger/core/event/detail/callback.hpp</text>
</a>
</g>
</g>
<!-- Node15&#45;&gt;Node16 -->
<g id="edge15_Node000015_Node000016" class="edge">
<title>Node15&#45;&gt;Node16</title>
<g id="a_edge15_Node000015_Node000016"><a xlink:title=" ">
<path fill="none" stroke="#63b8ff" d="M445.63,-494.75C448.42,-488.04 452.37,-478.52 455.9,-470.02"/>
<polygon fill="#63b8ff" stroke="#63b8ff" points="459.11,-471.42 459.71,-460.84 452.64,-468.73 459.11,-471.42"/>
</a>
</g>
</g>
<!-- Node16&#45;&gt;Node3 -->
<g id="edge28_Node000016_Node000003" class="edge">
<title>Node16&#45;&gt;Node3</title>
<g id="a_edge28_Node000016_Node000003"><a xlink:title=" ">
<path fill="none" stroke="#63b8ff" d="M435.68,-439.57C396.9,-425.36 332,-393.65 332,-340.5 332,-340.5 332,-340.5 332,-173.5 332,-140.65 347.84,-105.19 359.07,-84.19"/>
<polygon fill="#63b8ff" stroke="#63b8ff" points="362,-86.13 363.82,-75.69 355.88,-82.72 362,-86.13"/>
</a>
</g>
</g>
<!-- Node17 -->
<g id="Node000017" class="node">
<title>Node17</title>
<g id="a_Node000017"><a xlink:href="default__log_8hpp.html" target="_top" xlink:title=" ">
<polygon fill="white" stroke="#666666" points="531.5,-404 390.5,-404 390.5,-385 531.5,-385 531.5,-404"/>
<text text-anchor="middle" x="461" y="-392" font-family="Helvetica,sans-Serif" font-size="10.00">liger/core/log/default_log.hpp</text>
</a>
</g>
</g>
<!-- Node16&#45;&gt;Node17 -->
<g id="edge16_Node000016_Node000017" class="edge">
<title>Node16&#45;&gt;Node17</title>
<g id="a_edge16_Node000016_Node000017"><a xlink:title=" ">
<path fill="none" stroke="#63b8ff" d="M463.5,-439.75C463.14,-433.27 462.62,-424.16 462.15,-415.9"/>
<polygon fill="#63b8ff" stroke="#63b8ff" points="465.65,-415.74 461.59,-405.95 458.66,-416.13 465.65,-415.74"/>
</a>
</g>
</g>
<!-- Node24 -->
<g id="Node000024" class="node">
<title>Node24</title>
<g id="a_Node000024"><a xlink:href="log__channels_8hpp_source.html" target="_top" xlink:title=" ">
<polygon fill="white" stroke="#666666" points="696.5,-349 545.5,-349 545.5,-330 696.5,-330 696.5,-349"/>
<text text-anchor="middle" x="621" y="-337" font-family="Helvetica,sans-Serif" font-size="10.00">liger/core/log/log_channels.hpp</text>
</a>
</g>
</g>
<!-- Node16&#45;&gt;Node24 -->
<g id="edge26_Node000016_Node000024" class="edge">
<title>Node16&#45;&gt;Node24</title>
<g id="a_edge26_Node000016_Node000024"><a xlink:title=" ">
<path fill="none" stroke="#63b8ff" d="M480.95,-439.64C496.85,-431.11 521.09,-417.55 541,-404 563.06,-388.99 586.82,-369.69 602.67,-356.32"/>
<polygon fill="#63b8ff" stroke="#63b8ff" points="604.52,-359.35 609.86,-350.2 599.98,-354.02 604.52,-359.35"/>
</a>
</g>
</g>
<!-- Node18 -->
<g id="Node000018" class="node">
<title>Node18</title>
<g id="a_Node000018"><a xlink:href="log_8hpp.html" target="_top" xlink:title=" ">
<polygon fill="white" stroke="#666666" points="505.5,-349 398.5,-349 398.5,-330 505.5,-330 505.5,-349"/>
<text text-anchor="middle" x="452" y="-337" font-family="Helvetica,sans-Serif" font-size="10.00">liger/core/log/log.hpp</text>
</a>
</g>
</g>
<!-- Node17&#45;&gt;Node18 -->
<g id="edge17_Node000017_Node000018" class="edge">
<title>Node17&#45;&gt;Node18</title>
<g id="a_edge17_Node000017_Node000018"><a xlink:title=" ">
<path fill="none" stroke="#63b8ff" d="M459.51,-384.75C458.4,-378.19 456.83,-368.95 455.41,-360.6"/>
<polygon fill="#63b8ff" stroke="#63b8ff" points="458.9,-360.21 453.77,-350.93 452,-361.38 458.9,-360.21"/>
</a>
</g>
</g>
<!-- Node19 -->
<g id="Node000019" class="node">
<title>Node19</title>
<g id="a_Node000019"><a xlink:title=" ">
<polygon fill="#e0e0e0" stroke="#999999" points="421.5,-294 360.5,-294 360.5,-275 421.5,-275 421.5,-294"/>
<text text-anchor="middle" x="391" y="-282" font-family="Helvetica,sans-Serif" font-size="10.00">fmt/core.h</text>
</a>
</g>
</g>
<!-- Node18&#45;&gt;Node19 -->
<g id="edge18_Node000018_Node000019" class="edge">
<title>Node18&#45;&gt;Node19</title>
<g id="a_edge18_Node000018_Node000019"><a xlink:title=" ">
<path fill="none" stroke="#63b8ff" d="M441.65,-329.51C432.92,-321.93 420.21,-310.88 409.7,-301.75"/>
<polygon fill="#63b8ff" stroke="#63b8ff" points="412.18,-299.27 402.34,-295.35 407.59,-304.55 412.18,-299.27"/>
</a>
</g>
</g>
<!-- Node20 -->
<g id="Node000020" class="node">
<title>Node20</title>
<g id="a_Node000020"><a xlink:href="log__message_8hpp.html" target="_top" xlink:title=" ">
<polygon fill="white" stroke="#666666" points="533,-239 381,-239 381,-220 533,-220 533,-239"/>
<text text-anchor="middle" x="457" y="-227" font-family="Helvetica,sans-Serif" font-size="10.00">liger/core/log/log_message.hpp</text>
</a>
</g>
</g>
<!-- Node18&#45;&gt;Node20 -->
<g id="edge19_Node000018_Node000020" class="edge">
<title>Node18&#45;&gt;Node20</title>
<g id="a_edge19_Node000018_Node000020"><a xlink:title=" ">
<path fill="none" stroke="#63b8ff" d="M452.41,-329.66C453.2,-312.57 454.96,-274.61 456.05,-250.92"/>
<polygon fill="#63b8ff" stroke="#63b8ff" points="459.55,-251.12 456.52,-240.97 452.56,-250.8 459.55,-251.12"/>
</a>
</g>
</g>
<!-- Node23 -->
<g id="Node000023" class="node">
<title>Node23</title>
<g id="a_Node000023"><a xlink:href="log__writer_8hpp.html" target="_top" xlink:title=" ">
<polygon fill="white" stroke="#666666" points="613.5,-294 478.5,-294 478.5,-275 613.5,-275 613.5,-294"/>
<text text-anchor="middle" x="546" y="-282" font-family="Helvetica,sans-Serif" font-size="10.00">liger/core/log/log_writer.hpp</text>
</a>
</g>
</g>
<!-- Node18&#45;&gt;Node23 -->
<g id="edge24_Node000018_Node000023" class="edge">
<title>Node18&#45;&gt;Node23</title>
<g id="a_edge24_Node000018_Node000023"><a xlink:title=" ">
<path fill="none" stroke="#63b8ff" d="M467.95,-329.51C482.35,-321.39 503.79,-309.3 520.56,-299.85"/>
<polygon fill="#63b8ff" stroke="#63b8ff" points="521.98,-303.06 528.97,-295.1 518.54,-296.96 521.98,-303.06"/>
</a>
</g>
</g>
<!-- Node20&#45;&gt;Node3 -->
<g id="edge23_Node000020_Node000003" class="edge">
<title>Node20&#45;&gt;Node3</title>
<g id="a_edge23_Node000020_Node000003"><a xlink:title=" ">
<path fill="none" stroke="#63b8ff" d="M434.39,-219.58C419.07,-212.33 399.74,-200.57 389,-184 369.5,-153.93 367.63,-110.76 368.5,-85.68"/>
<polygon fill="#63b8ff" stroke="#63b8ff" points="371.98,-86.07 369.04,-75.89 364.99,-85.68 371.98,-86.07"/>
</a>
</g>
</g>
<!-- Node21 -->
<g id="Node000021" class="node">
<title>Node21</title>
<g id="a_Node000021"><a xlink:href="log__level_8hpp.html" target="_top" xlink:title=" ">
<polygon fill="white" stroke="#666666" points="530,-184 398,-184 398,-165 530,-165 530,-184"/>
<text text-anchor="middle" x="464" y="-172" font-family="Helvetica,sans-Serif" font-size="10.00">liger/core/log/log_level.hpp</text>
</a>
</g>
</g>
<!-- Node20&#45;&gt;Node21 -->
<g id="edge20_Node000020_Node000021" class="edge">
<title>Node20&#45;&gt;Node21</title>
<g id="a_edge20_Node000020_Node000021"><a xlink:title=" ">
<path fill="none" stroke="#63b8ff" d="M458.16,-219.75C459.02,-213.19 460.24,-203.95 461.34,-195.6"/>
<polygon fill="#63b8ff" stroke="#63b8ff" points="464.78,-196.31 462.62,-185.94 457.84,-195.4 464.78,-196.31"/>
</a>
</g>
</g>
<!-- Node22 -->
<g id="Node000022" class="node">
<title>Node22</title>
<g id="a_Node000022"><a xlink:href="enum__class_8hpp.html" target="_top" xlink:title=" ">
<polygon fill="white" stroke="#666666" points="529.5,-129 398.5,-129 398.5,-110 529.5,-110 529.5,-129"/>
<text text-anchor="middle" x="464" y="-117" font-family="Helvetica,sans-Serif" font-size="10.00">liger/core/enum_class.hpp</text>
</a>
</g>
</g>
<!-- Node21&#45;&gt;Node22 -->
<g id="edge21_Node000021_Node000022" class="edge">
<title>Node21&#45;&gt;Node22</title>
<g id="a_edge21_Node000021_Node000022"><a xlink:title=" ">
<path fill="none" stroke="#63b8ff" d="M464,-164.75C464,-158.27 464,-149.16 464,-140.9"/>
<polygon fill="#63b8ff" stroke="#63b8ff" points="467.5,-140.96 464,-130.96 460.5,-140.96 467.5,-140.96"/>
</a>
</g>
</g>
<!-- Node22&#45;&gt;Node3 -->
<g id="edge22_Node000022_Node000003" class="edge">
<title>Node22&#45;&gt;Node3</title>
<g id="a_edge22_Node000022_Node000003"><a xlink:title=" ">
<path fill="none" stroke="#63b8ff" d="M448.05,-109.51C433.65,-101.39 412.21,-89.3 395.44,-79.85"/>
<polygon fill="#63b8ff" stroke="#63b8ff" points="397.46,-76.96 387.03,-75.1 394.02,-83.06 397.46,-76.96"/>
</a>
</g>
</g>
<!-- Node23&#45;&gt;Node20 -->
<g id="edge25_Node000023_Node000020" class="edge">
<title>Node23&#45;&gt;Node20</title>
<g id="a_edge25_Node000023_Node000020"><a xlink:title=" ">
<path fill="none" stroke="#63b8ff" d="M530.9,-274.51C517.4,-266.47 497.35,-254.53 481.54,-245.11"/>
<polygon fill="#63b8ff" stroke="#63b8ff" points="483.56,-242.24 473.18,-240.13 479.98,-248.26 483.56,-242.24"/>
</a>
</g>
</g>
<!-- Node24&#45;&gt;Node3 -->
<g id="edge27_Node000024_Node000003" class="edge">
<title>Node24&#45;&gt;Node3</title>
<g id="a_edge27_Node000024_Node000003"><a xlink:title=" ">
<path fill="none" stroke="#63b8ff" d="M623.92,-329.65C629.69,-311.36 642,-267.94 642,-230.5 642,-230.5 642,-230.5 642,-173.5 642,-128.13 509.61,-93.5 429.56,-76.71"/>
<polygon fill="#63b8ff" stroke="#63b8ff" points="430.61,-73.35 420.11,-74.76 429.2,-80.2 430.61,-73.35"/>
</a>
</g>
</g>
</g>
</svg>
