<?xml version="1.0" encoding="UTF-8" standalone="no"?>
<!DOCTYPE svg PUBLIC "-//W3C//DTD SVG 1.1//EN"
 "http://www.w3.org/Graphics/SVG/1.1/DTD/svg11.dtd">
<!-- Generated by graphviz version 9.0.0 (20230911.1827)
 -->
<!-- Title: event_sink.hpp Pages: 1 -->
<svg width="464pt" height="359pt"
 viewBox="0.00 0.00 464.25 358.75" xmlns="http://www.w3.org/2000/svg" xmlns:xlink="http://www.w3.org/1999/xlink">

<svg id="main" version="1.1" xmlns="http://www.w3.org/2000/svg" xmlns:xlink="http://www.w3.org/1999/xlink" xml:space="preserve" onload="init(evt)">
<style type="text/css"><![CDATA[
.node, .edge {opacity: 0.7;}
.node.selected, .edge.selected {opacity: 1;}
.edge:hover path { stroke: red; }
.edge:hover polygon { stroke: red; fill: red; }
]]></style>
<script type="application/ecmascript" xlink:href="svg.min.js"/>
<svg id="graph" class="graph">
<g id="graph0" class="graph" transform="scale(1 1) rotate(0) translate(4 354.75)">
<title>event_sink.hpp</title>
<!-- Node1 -->
<g id="Node000001" class="node">
<title>Node1</title>
<g id="a_Node000001"><a xlink:title=" ">
<polygon fill="#999999" stroke="#666666" points="319.12,-350.75 237.12,-350.75 237.12,-331.5 319.12,-331.5 319.12,-350.75"/>
<text text-anchor="middle" x="278.12" y="-337.25" font-family="Helvetica,sans-Serif" font-size="10.00">event_sink.hpp</text>
</a>
</g>
</g>
<!-- Node2 -->
<g id="Node000002" class="node">
<title>Node2</title>
<g id="a_Node000002"><a xlink:href="callback_8hpp.html" target="_top" xlink:title=" ">
<polygon fill="white" stroke="#666666" points="361.5,-295.5 194.75,-295.5 194.75,-276.25 361.5,-276.25 361.5,-295.5"/>
<text text-anchor="middle" x="278.12" y="-282" font-family="Helvetica,sans-Serif" font-size="10.00">liger/core/event/detail/callback.hpp</text>
</a>
</g>
</g>
<!-- Node1&#45;&gt;Node2 -->
<g id="edge1_Node000001_Node000002" class="edge">
<title>Node1&#45;&gt;Node2</title>
<g id="a_edge1_Node000001_Node000002"><a xlink:title=" ">
<path fill="none" stroke="#63b8ff" d="M278.12,-331.33C278.12,-324.82 278.12,-315.67 278.12,-307.37"/>
<polygon fill="#63b8ff" stroke="#63b8ff" points="281.63,-307.37 278.13,-297.37 274.63,-307.37 281.63,-307.37"/>
</a>
</g>
</g>
<!-- Node3 -->
<g id="Node000003" class="node">
<title>Node3</title>
<g id="a_Node000003"><a xlink:href="default__log_8hpp.html" target="_top" xlink:title=" ">
<polygon fill="white" stroke="#666666" points="204.38,-240.25 63.88,-240.25 63.88,-221 204.38,-221 204.38,-240.25"/>
<text text-anchor="middle" x="134.12" y="-226.75" font-family="Helvetica,sans-Serif" font-size="10.00">liger/core/log/default_log.hpp</text>
</a>
</g>
</g>
<!-- Node2&#45;&gt;Node3 -->
<g id="edge2_Node000002_Node000003" class="edge">
<title>Node2&#45;&gt;Node3</title>
<g id="a_edge2_Node000002_Node000003"><a xlink:title=" ">
<path fill="none" stroke="#63b8ff" d="M253.7,-275.84C230.53,-267.27 195.46,-254.31 169.29,-244.63"/>
<polygon fill="#63b8ff" stroke="#63b8ff" points="170.69,-241.41 160.09,-241.23 168.26,-247.98 170.69,-241.41"/>
</a>
</g>
</g>
<!-- Node7 -->
<g id="Node000007" class="node">
<title>Node7</title>
<g id="a_Node000007"><a xlink:title=" ">
<polygon fill="#e0e0e0" stroke="#999999" points="276.88,-19.25 175.38,-19.25 175.38,0 276.88,0 276.88,-19.25"/>
<text text-anchor="middle" x="226.12" y="-5.75" font-family="Helvetica,sans-Serif" font-size="10.00">liger/core/types.hpp</text>
</a>
</g>
</g>
<!-- Node2&#45;&gt;Node7 -->
<g id="edge12_Node000002_Node000007" class="edge">
<title>Node2&#45;&gt;Node7</title>
<g id="a_edge12_Node000002_Node000007"><a xlink:title=" ">
<path fill="none" stroke="#63b8ff" d="M278.12,-275.87C278.12,-257.28 278.12,-213.3 278.12,-176.38 278.12,-176.38 278.12,-176.38 278.12,-119.12 278.12,-84.3 256.07,-48.82 240.69,-28.3"/>
<polygon fill="#63b8ff" stroke="#63b8ff" points="243.65,-26.41 234.73,-20.7 238.14,-30.73 243.65,-26.41"/>
</a>
</g>
</g>
<!-- Node9 -->
<g id="Node000009" class="node">
<title>Node9</title>
<g id="a_Node000009"><a xlink:href="log__channels_8hpp_source.html" target="_top" xlink:title=" ">
<polygon fill="white" stroke="#666666" points="456.25,-240.25 306,-240.25 306,-221 456.25,-221 456.25,-240.25"/>
<text text-anchor="middle" x="381.12" y="-226.75" font-family="Helvetica,sans-Serif" font-size="10.00">liger/core/log/log_channels.hpp</text>
</a>
</g>
</g>
<!-- Node2&#45;&gt;Node9 -->
<g id="edge9_Node000002_Node000009" class="edge">
<title>Node2&#45;&gt;Node9</title>
<g id="a_edge9_Node000002_Node000009"><a xlink:title=" ">
<path fill="none" stroke="#63b8ff" d="M295.6,-275.84C311.43,-267.66 335.03,-255.46 353.43,-245.94"/>
<polygon fill="#63b8ff" stroke="#63b8ff" points="354.95,-249.1 362.22,-241.4 351.73,-242.88 354.95,-249.1"/>
</a>
</g>
</g>
<!-- Node4 -->
<g id="Node000004" class="node">
<title>Node4</title>
<g id="a_Node000004"><a xlink:href="log_8hpp.html" target="_top" xlink:title=" ">
<polygon fill="white" stroke="#666666" points="164.12,-185 58.12,-185 58.12,-165.75 164.12,-165.75 164.12,-185"/>
<text text-anchor="middle" x="111.12" y="-171.5" font-family="Helvetica,sans-Serif" font-size="10.00">liger/core/log/log.hpp</text>
</a>
</g>
</g>
<!-- Node3&#45;&gt;Node4 -->
<g id="edge3_Node000003_Node000004" class="edge">
<title>Node3&#45;&gt;Node4</title>
<g id="a_edge3_Node000003_Node000004"><a xlink:title=" ">
<path fill="none" stroke="#63b8ff" d="M130.33,-220.83C127.38,-214.01 123.19,-204.31 119.47,-195.7"/>
<polygon fill="#63b8ff" stroke="#63b8ff" points="122.78,-194.54 115.61,-186.75 116.36,-197.32 122.78,-194.54"/>
</a>
</g>
</g>
<!-- Node5 -->
<g id="Node000005" class="node">
<title>Node5</title>
<g id="a_Node000005"><a xlink:title=" ">
<polygon fill="#e0e0e0" stroke="#999999" points="60.25,-129.75 0,-129.75 0,-110.5 60.25,-110.5 60.25,-129.75"/>
<text text-anchor="middle" x="30.12" y="-116.25" font-family="Helvetica,sans-Serif" font-size="10.00">fmt/core.h</text>
</a>
</g>
</g>
<!-- Node4&#45;&gt;Node5 -->
<g id="edge4_Node000004_Node000005" class="edge">
<title>Node4&#45;&gt;Node5</title>
<g id="a_edge4_Node000004_Node000005"><a xlink:title=" ">
<path fill="none" stroke="#63b8ff" d="M97.38,-165.34C85.4,-157.46 67.75,-145.86 53.54,-136.52"/>
<polygon fill="#63b8ff" stroke="#63b8ff" points="55.48,-133.6 45.2,-131.03 51.63,-139.45 55.48,-133.6"/>
</a>
</g>
</g>
<!-- Node6 -->
<g id="Node000006" class="node">
<title>Node6</title>
<g id="a_Node000006"><a xlink:href="log__message_8hpp.html" target="_top" xlink:title=" ">
<polygon fill="white" stroke="#666666" points="249.62,-74.5 98.62,-74.5 98.62,-55.25 249.62,-55.25 249.62,-74.5"/>
<text text-anchor="middle" x="174.12" y="-61" font-family="Helvetica,sans-Serif" font-size="10.00">liger/core/log/log_message.hpp</text>
</a>
</g>
</g>
<!-- Node4&#45;&gt;Node6 -->
<g id="edge5_Node000004_Node000006" class="edge">
<title>Node4&#45;&gt;Node6</title>
<g id="a_edge5_Node000004_Node000006"><a xlink:title=" ">
<path fill="none" stroke="#63b8ff" d="M107.78,-165.49C103.5,-152.55 97.68,-128.13 107.12,-110.5 114.26,-97.18 127.31,-87.15 140.02,-80.01"/>
<polygon fill="#63b8ff" stroke="#63b8ff" points="141.36,-83.26 148.66,-75.59 138.17,-77.03 141.36,-83.26"/>
</a>
</g>
</g>
<!-- Node8 -->
<g id="Node000008" class="node">
<title>Node8</title>
<g id="a_Node000008"><a xlink:href="log__writer_8hpp.html" target="_top" xlink:title=" ">
<polygon fill="white" stroke="#666666" points="250.38,-129.75 115.88,-129.75 115.88,-110.5 250.38,-110.5 250.38,-129.75"/>
<text text-anchor="middle" x="183.12" y="-116.25" font-family="Helvetica,sans-Serif" font-size="10.00">liger/core/log/log_writer.hpp</text>
</a>
</g>
</g>
<!-- Node4&#45;&gt;Node8 -->
<g id="edge7_Node000004_Node000008" class="edge">
<title>Node4&#45;&gt;Node8</title>
<g id="a_edge7_Node000004_Node000008"><a xlink:title=" ">
<path fill="none" stroke="#63b8ff" d="M123.34,-165.34C133.95,-157.49 149.56,-145.95 162.17,-136.62"/>
<polygon fill="#63b8ff" stroke="#63b8ff" points="163.92,-139.69 169.87,-130.92 159.75,-134.06 163.92,-139.69"/>
</a>
</g>
</g>
<!-- Node6&#45;&gt;Node7 -->
<g id="edge6_Node000006_Node000007" class="edge">
<title>Node6&#45;&gt;Node7</title>
<g id="a_edge6_Node000006_Node000007"><a xlink:title=" ">
<path fill="none" stroke="#63b8ff" d="M182.71,-55.08C189.97,-47.65 200.58,-36.79 209.49,-27.66"/>
<polygon fill="#63b8ff" stroke="#63b8ff" points="211.81,-30.29 216.29,-20.69 206.8,-25.4 211.81,-30.29"/>
</a>
</g>
</g>
<!-- Node8&#45;&gt;Node6 -->
<g id="edge8_Node000008_Node000006" class="edge">
<title>Node8&#45;&gt;Node6</title>
<g id="a_edge8_Node000008_Node000006"><a xlink:title=" ">
<path fill="none" stroke="#63b8ff" d="M181.64,-110.33C180.53,-103.74 178.96,-94.46 177.54,-86.07"/>
<polygon fill="#63b8ff" stroke="#63b8ff" points="181.01,-85.63 175.9,-76.35 174.11,-86.8 181.01,-85.63"/>
</a>
</g>
</g>
<!-- Node10 -->
<g id="Node000010" class="node">
<title>Node10</title>
<g id="a_Node000010"><a xlink:href="enum__bitmask_8hpp.html" target="_top" xlink:title=" ">
<polygon fill="white" stroke="#666666" points="451.75,-185 310.5,-185 310.5,-165.75 451.75,-165.75 451.75,-185"/>
<text text-anchor="middle" x="381.12" y="-171.5" font-family="Helvetica,sans-Serif" font-size="10.00">liger/core/enum_bitmask.hpp</text>
</a>
</g>
</g>
<!-- Node9&#45;&gt;Node10 -->
<g id="edge10_Node000009_Node000010" class="edge">
<title>Node9&#45;&gt;Node10</title>
<g id="a_edge10_Node000009_Node000010"><a xlink:title=" ">
<path fill="none" stroke="#63b8ff" d="M381.12,-220.83C381.12,-214.32 381.12,-205.17 381.12,-196.87"/>
<polygon fill="#63b8ff" stroke="#63b8ff" points="384.63,-196.87 381.13,-186.87 377.63,-196.87 384.63,-196.87"/>
</a>
</g>
</g>
<!-- Node11 -->
<g id="Node000011" class="node">
<title>Node11</title>
<g id="a_Node000011"><a xlink:title=" ">
<polygon fill="#e0e0e0" stroke="#999999" points="412,-129.75 350.25,-129.75 350.25,-110.5 412,-110.5 412,-129.75"/>
<text text-anchor="middle" x="381.12" y="-116.25" font-family="Helvetica,sans-Serif" font-size="10.00">type_traits</text>
</a>
</g>
</g>
<!-- Node10&#45;&gt;Node11 -->
<g id="edge11_Node000010_Node000011" class="edge">
<title>Node10&#45;&gt;Node11</title>
<g id="a_edge11_Node000010_Node000011"><a xlink:title=" ">
<path fill="none" stroke="#63b8ff" d="M381.12,-165.58C381.12,-159.07 381.12,-149.92 381.12,-141.62"/>
<polygon fill="#63b8ff" stroke="#63b8ff" points="384.63,-141.62 381.13,-131.62 377.63,-141.62 384.63,-141.62"/>
</a>
</g>
</g>
</g>
</svg>
</svg>

<style type='text/css'>
<![CDATA[
[data-mouse-over-selected='false'] { opacity: 0.7; }
[data-mouse-over-selected='true']  { opacity: 1.0; }
]]>
</style>
<script type="application/ecmascript"><![CDATA[
document.addEventListener('DOMContentLoaded', (event) => {
  highlightEdges();
  highlightAdjacentNodes();
});
]]></script>
</svg>
