<?xml version="1.0" encoding="UTF-8" standalone="no"?>
<!DOCTYPE svg PUBLIC "-//W3C//DTD SVG 1.1//EN"
 "http://www.w3.org/Graphics/SVG/1.1/DTD/svg11.dtd">
<!-- Generated by graphviz version 9.0.0 (20230911.1827)
 -->
<!-- Title: event_dispatcher.hpp Pages: 1 -->
<svg width="422pt" height="414pt"
 viewBox="0.00 0.00 421.62 414.00" xmlns="http://www.w3.org/2000/svg" xmlns:xlink="http://www.w3.org/1999/xlink">

<svg id="main" version="1.1" xmlns="http://www.w3.org/2000/svg" xmlns:xlink="http://www.w3.org/1999/xlink" xml:space="preserve" onload="init(evt)">
<style type="text/css"><![CDATA[
.node, .edge {opacity: 0.7;}
.node.selected, .edge.selected {opacity: 1;}
.edge:hover path { stroke: red; }
.edge:hover polygon { stroke: red; fill: red; }
]]></style>
<script type="application/ecmascript" xlink:href="svg.min.js"/>
<svg id="graph" class="graph">
<g id="graph0" class="graph" transform="scale(1 1) rotate(0) translate(4 410)">
<title>event_dispatcher.hpp</title>
<!-- Node1 -->
<g id="Node000001" class="node">
<title>Node1</title>
<g id="a_Node000001"><a xlink:title=" ">
<polygon fill="#999999" stroke="#666666" points="238.5,-406 130.25,-406 130.25,-386.75 238.5,-386.75 238.5,-406"/>
<text text-anchor="middle" x="184.38" y="-392.5" font-family="Helvetica,sans-Serif" font-size="10.00">event_dispatcher.hpp</text>
</a>
</g>
</g>
<!-- Node2 -->
<g id="Node000002" class="node">
<title>Node2</title>
<g id="a_Node000002"><a xlink:href="event__type_8hpp.html" target="_top" xlink:title=" ">
<polygon fill="white" stroke="#666666" points="178.75,-295.5 0,-295.5 0,-276.25 178.75,-276.25 178.75,-295.5"/>
<text text-anchor="middle" x="89.38" y="-282" font-family="Helvetica,sans-Serif" font-size="10.00">liger/core/event/detail/event_type.hpp</text>
</a>
</g>
</g>
<!-- Node1&#45;&gt;Node2 -->
<g id="edge1_Node000001_Node000002" class="edge">
<title>Node1&#45;&gt;Node2</title>
<g id="a_edge1_Node000001_Node000002"><a xlink:title=" ">
<path fill="none" stroke="#63b8ff" d="M176.6,-386.5C160.94,-368.61 125.36,-327.97 104.8,-304.5"/>
<polygon fill="#63b8ff" stroke="#63b8ff" points="107.47,-302.23 98.25,-297.02 102.21,-306.84 107.47,-302.23"/>
</a>
</g>
</g>
<!-- Node4 -->
<g id="Node000004" class="node">
<title>Node4</title>
<g id="a_Node000004"><a xlink:href="event__sink_8hpp.html" target="_top" xlink:title=" ">
<polygon fill="white" stroke="#666666" points="334.25,-350.75 182.5,-350.75 182.5,-331.5 334.25,-331.5 334.25,-350.75"/>
<text text-anchor="middle" x="258.38" y="-337.25" font-family="Helvetica,sans-Serif" font-size="10.00">liger/core/event/event_sink.hpp</text>
</a>
</g>
</g>
<!-- Node1&#45;&gt;Node4 -->
<g id="edge3_Node000001_Node000004" class="edge">
<title>Node1&#45;&gt;Node4</title>
<g id="a_edge3_Node000001_Node000004"><a xlink:title=" ">
<path fill="none" stroke="#63b8ff" d="M196.93,-386.34C207.84,-378.49 223.88,-366.95 236.84,-357.62"/>
<polygon fill="#63b8ff" stroke="#63b8ff" points="238.71,-360.59 244.78,-351.91 234.62,-354.91 238.71,-360.59"/>
</a>
</g>
</g>
<!-- Node3 -->
<g id="Node000003" class="node">
<title>Node3</title>
<g id="a_Node000003"><a xlink:title=" ">
<polygon fill="#e0e0e0" stroke="#999999" points="176,-19.25 130.75,-19.25 130.75,0 176,0 176,-19.25"/>
<text text-anchor="middle" x="153.38" y="-5.75" font-family="Helvetica,sans-Serif" font-size="10.00">cstdint</text>
</a>
</g>
</g>
<!-- Node2&#45;&gt;Node3 -->
<g id="edge2_Node000002_Node000003" class="edge">
<title>Node2&#45;&gt;Node3</title>
<g id="a_edge2_Node000002_Node000003"><a xlink:title=" ">
<path fill="none" stroke="#63b8ff" d="M94.68,-275.94C104.91,-257.82 126.38,-215.18 126.38,-176.38 126.38,-176.38 126.38,-176.38 126.38,-119.12 126.38,-87.34 137.42,-51.82 145.39,-30.35"/>
<polygon fill="#63b8ff" stroke="#63b8ff" points="148.61,-31.72 148.96,-21.13 142.08,-29.19 148.61,-31.72"/>
</a>
</g>
</g>
<!-- Node5 -->
<g id="Node000005" class="node">
<title>Node5</title>
<g id="a_Node000005"><a xlink:href="callback_8hpp.html" target="_top" xlink:title=" ">
<polygon fill="white" stroke="#666666" points="363.75,-295.5 197,-295.5 197,-276.25 363.75,-276.25 363.75,-295.5"/>
<text text-anchor="middle" x="280.38" y="-282" font-family="Helvetica,sans-Serif" font-size="10.00">liger/core/event/detail/callback.hpp</text>
</a>
</g>
</g>
<!-- Node4&#45;&gt;Node5 -->
<g id="edge4_Node000004_Node000005" class="edge">
<title>Node4&#45;&gt;Node5</title>
<g id="a_edge4_Node000004_Node000005"><a xlink:title=" ">
<path fill="none" stroke="#63b8ff" d="M262.01,-331.33C264.79,-324.59 268.75,-315.02 272.27,-306.49"/>
<polygon fill="#63b8ff" stroke="#63b8ff" points="275.5,-307.84 276.09,-297.26 269.03,-305.16 275.5,-307.84"/>
</a>
</g>
</g>
<!-- Node6 -->
<g id="Node000006" class="node">
<title>Node6</title>
<g id="a_Node000006"><a xlink:href="default__log_8hpp.html" target="_top" xlink:title=" ">
<polygon fill="white" stroke="#666666" points="345.62,-240.25 205.12,-240.25 205.12,-221 345.62,-221 345.62,-240.25"/>
<text text-anchor="middle" x="275.38" y="-226.75" font-family="Helvetica,sans-Serif" font-size="10.00">liger/core/log/default_log.hpp</text>
</a>
</g>
</g>
<!-- Node5&#45;&gt;Node6 -->
<g id="edge5_Node000005_Node000006" class="edge">
<title>Node5&#45;&gt;Node6</title>
<g id="a_edge5_Node000005_Node000006"><a xlink:title=" ">
<path fill="none" stroke="#63b8ff" d="M279.55,-276.08C278.93,-269.49 278.06,-260.21 277.27,-251.82"/>
<polygon fill="#63b8ff" stroke="#63b8ff" points="280.78,-251.75 276.36,-242.12 273.81,-252.4 280.78,-251.75"/>
</a>
</g>
</g>
<!-- Node7 -->
<g id="Node000007" class="node">
<title>Node7</title>
<g id="a_Node000007"><a xlink:href="log_8hpp.html" target="_top" xlink:title=" ">
<polygon fill="white" stroke="#666666" points="309.38,-185 203.38,-185 203.38,-165.75 309.38,-165.75 309.38,-185"/>
<text text-anchor="middle" x="256.38" y="-171.5" font-family="Helvetica,sans-Serif" font-size="10.00">liger/core/log/log.hpp</text>
</a>
</g>
</g>
<!-- Node6&#45;&gt;Node7 -->
<g id="edge6_Node000006_Node000007" class="edge">
<title>Node6&#45;&gt;Node7</title>
<g id="a_edge6_Node000006_Node000007"><a xlink:title=" ">
<path fill="none" stroke="#63b8ff" d="M272.24,-220.83C269.83,-214.09 266.42,-204.52 263.37,-195.99"/>
<polygon fill="#63b8ff" stroke="#63b8ff" points="266.75,-195.03 260.09,-186.78 260.15,-197.38 266.75,-195.03"/>
</a>
</g>
</g>
<!-- Node8 -->
<g id="Node000008" class="node">
<title>Node8</title>
<g id="a_Node000008"><a xlink:title=" ">
<polygon fill="#e0e0e0" stroke="#999999" points="223.5,-129.75 163.25,-129.75 163.25,-110.5 223.5,-110.5 223.5,-129.75"/>
<text text-anchor="middle" x="193.38" y="-116.25" font-family="Helvetica,sans-Serif" font-size="10.00">fmt/core.h</text>
</a>
</g>
</g>
<!-- Node7&#45;&gt;Node8 -->
<g id="edge7_Node000007_Node000008" class="edge">
<title>Node7&#45;&gt;Node8</title>
<g id="a_edge7_Node000007_Node000008"><a xlink:title=" ">
<path fill="none" stroke="#63b8ff" d="M245.69,-165.34C236.67,-157.72 223.54,-146.62 212.69,-137.45"/>
<polygon fill="#63b8ff" stroke="#63b8ff" points="214.96,-134.78 205.06,-131 210.44,-140.13 214.96,-134.78"/>
</a>
</g>
</g>
<!-- Node9 -->
<g id="Node000009" class="node">
<title>Node9</title>
<g id="a_Node000009"><a xlink:href="log__message_8hpp.html" target="_top" xlink:title=" ">
<polygon fill="white" stroke="#666666" points="326.88,-74.5 175.88,-74.5 175.88,-55.25 326.88,-55.25 326.88,-74.5"/>
<text text-anchor="middle" x="251.38" y="-61" font-family="Helvetica,sans-Serif" font-size="10.00">liger/core/log/log_message.hpp</text>
</a>
</g>
</g>
<!-- Node7&#45;&gt;Node9 -->
<g id="edge8_Node000007_Node000009" class="edge">
<title>Node7&#45;&gt;Node9</title>
<g id="a_edge8_Node000007_Node000009"><a xlink:title=" ">
<path fill="none" stroke="#63b8ff" d="M255.97,-165.5C255.17,-148.25 253.4,-109.83 252.31,-86.06"/>
<polygon fill="#63b8ff" stroke="#63b8ff" points="255.82,-86.22 251.86,-76.39 248.82,-86.54 255.82,-86.22"/>
</a>
</g>
</g>
<!-- Node12 -->
<g id="Node000012" class="node">
<title>Node12</title>
<g id="a_Node000012"><a xlink:href="log__writer_8hpp.html" target="_top" xlink:title=" ">
<polygon fill="white" stroke="#666666" points="413.62,-129.75 279.12,-129.75 279.12,-110.5 413.62,-110.5 413.62,-129.75"/>
<text text-anchor="middle" x="346.38" y="-116.25" font-family="Helvetica,sans-Serif" font-size="10.00">liger/core/log/log_writer.hpp</text>
</a>
</g>
</g>
<!-- Node7&#45;&gt;Node12 -->
<g id="edge12_Node000007_Node000012" class="edge">
<title>Node7&#45;&gt;Node12</title>
<g id="a_edge12_Node000007_Node000012"><a xlink:title=" ">
<path fill="none" stroke="#63b8ff" d="M271.64,-165.34C285.22,-157.31 305.33,-145.41 321.27,-135.98"/>
<polygon fill="#63b8ff" stroke="#63b8ff" points="322.91,-139.08 329.73,-130.97 319.34,-133.05 322.91,-139.08"/>
</a>
</g>
</g>
<!-- Node9&#45;&gt;Node3 -->
<g id="edge9_Node000009_Node000003" class="edge">
<title>Node9&#45;&gt;Node3</title>
<g id="a_edge9_Node000009_Node000003"><a xlink:title=" ">
<path fill="none" stroke="#63b8ff" d="M234.75,-54.84C219.69,-46.66 197.23,-34.46 179.72,-24.94"/>
<polygon fill="#63b8ff" stroke="#63b8ff" points="181.87,-22.12 171.41,-20.43 178.53,-28.27 181.87,-22.12"/>
</a>
</g>
</g>
<!-- Node10 -->
<g id="Node000010" class="node">
<title>Node10</title>
<g id="a_Node000010"><a xlink:title=" ">
<polygon fill="#e0e0e0" stroke="#999999" points="252.38,-19.25 212.38,-19.25 212.38,0 252.38,0 252.38,-19.25"/>
<text text-anchor="middle" x="232.38" y="-5.75" font-family="Helvetica,sans-Serif" font-size="10.00">string</text>
</a>
</g>
</g>
<!-- Node9&#45;&gt;Node10 -->
<g id="edge10_Node000009_Node000010" class="edge">
<title>Node9&#45;&gt;Node10</title>
<g id="a_edge10_Node000009_Node000010"><a xlink:title=" ">
<path fill="none" stroke="#63b8ff" d="M248.24,-55.08C245.83,-48.34 242.42,-38.77 239.37,-30.24"/>
<polygon fill="#63b8ff" stroke="#63b8ff" points="242.75,-29.28 236.09,-21.03 236.15,-31.63 242.75,-29.28"/>
</a>
</g>
</g>
<!-- Node11 -->
<g id="Node000011" class="node">
<title>Node11</title>
<g id="a_Node000011"><a xlink:title=" ">
<polygon fill="#e0e0e0" stroke="#999999" points="336.12,-19.25 270.62,-19.25 270.62,0 336.12,0 336.12,-19.25"/>
<text text-anchor="middle" x="303.38" y="-5.75" font-family="Helvetica,sans-Serif" font-size="10.00">string_view</text>
</a>
</g>
</g>
<!-- Node9&#45;&gt;Node11 -->
<g id="edge11_Node000009_Node000011" class="edge">
<title>Node9&#45;&gt;Node11</title>
<g id="a_edge11_Node000009_Node000011"><a xlink:title=" ">
<path fill="none" stroke="#63b8ff" d="M259.96,-55.08C267.22,-47.65 277.83,-36.79 286.74,-27.66"/>
<polygon fill="#63b8ff" stroke="#63b8ff" points="289.06,-30.29 293.54,-20.69 284.05,-25.4 289.06,-30.29"/>
</a>
</g>
</g>
<!-- Node12&#45;&gt;Node9 -->
<g id="edge13_Node000012_Node000009" class="edge">
<title>Node12&#45;&gt;Node9</title>
<g id="a_edge13_Node000012_Node000009"><a xlink:title=" ">
<path fill="none" stroke="#63b8ff" d="M330.26,-110.09C315.79,-101.98 294.3,-89.93 277.39,-80.46"/>
<polygon fill="#63b8ff" stroke="#63b8ff" points="279.32,-77.53 268.89,-75.69 275.9,-83.64 279.32,-77.53"/>
</a>
</g>
</g>
</g>
</svg>
</svg>

<style type='text/css'>
<![CDATA[
[data-mouse-over-selected='false'] { opacity: 0.7; }
[data-mouse-over-selected='true']  { opacity: 1.0; }
]]>
</style>
<script type="application/ecmascript"><![CDATA[
document.addEventListener('DOMContentLoaded', (event) => {
  highlightEdges();
  highlightAdjacentNodes();
});
]]></script>
</svg>
