<?xml version="1.0" encoding="UTF-8" standalone="no"?>
<!DOCTYPE svg PUBLIC "-//W3C//DTD SVG 1.1//EN"
 "http://www.w3.org/Graphics/SVG/1.1/DTD/svg11.dtd">
<!-- Generated by graphviz version 9.0.0 (20230911.1827)
 -->
<!-- Title: event_dispatcher.hpp Pages: 1 -->
<svg width="549pt" height="414pt"
 viewBox="0.00 0.00 549.00 414.00" xmlns="http://www.w3.org/2000/svg" xmlns:xlink="http://www.w3.org/1999/xlink">
<g id="graph0" class="graph" transform="scale(1 1) rotate(0) translate(4 410)">
<title>event_dispatcher.hpp</title>
<!-- Node1 -->
<g id="Node000001" class="node">
<title>Node1</title>
<g id="a_Node000001"><a xlink:title=" ">
<polygon fill="#999999" stroke="#666666" points="238.5,-406 130.25,-406 130.25,-386.75 238.5,-386.75 238.5,-406"/>
<text text-anchor="middle" x="184.38" y="-392.5" font-family="Helvetica,sans-Serif" font-size="10.00">event_dispatcher.hpp</text>
</a>
</g>
</g>
<!-- Node2 -->
<g id="Node000002" class="node">
<title>Node2</title>
<g id="a_Node000002"><a xlink:href="event__type_8hpp.html" target="_top" xlink:title=" ">
<polygon fill="white" stroke="#666666" points="178.75,-295.5 0,-295.5 0,-276.25 178.75,-276.25 178.75,-295.5"/>
<text text-anchor="middle" x="89.38" y="-282" font-family="Helvetica,sans-Serif" font-size="10.00">liger/core/event/detail/event_type.hpp</text>
</a>
</g>
</g>
<!-- Node1&#45;&gt;Node2 -->
<g id="edge1_Node000001_Node000002" class="edge">
<title>Node1&#45;&gt;Node2</title>
<g id="a_edge1_Node000001_Node000002"><a xlink:title=" ">
<path fill="none" stroke="#63b8ff" d="M176.6,-386.5C160.94,-368.61 125.36,-327.97 104.8,-304.5"/>
<polygon fill="#63b8ff" stroke="#63b8ff" points="107.47,-302.23 98.25,-297.02 102.21,-306.84 107.47,-302.23"/>
</a>
</g>
</g>
<!-- Node4 -->
<g id="Node000004" class="node">
<title>Node4</title>
<g id="a_Node000004"><a xlink:href="event__sink_8hpp.html" target="_top" xlink:title=" ">
<polygon fill="white" stroke="#666666" points="334.25,-350.75 182.5,-350.75 182.5,-331.5 334.25,-331.5 334.25,-350.75"/>
<text text-anchor="middle" x="258.38" y="-337.25" font-family="Helvetica,sans-Serif" font-size="10.00">liger/core/event/event_sink.hpp</text>
</a>
</g>
</g>
<!-- Node1&#45;&gt;Node4 -->
<g id="edge3_Node000001_Node000004" class="edge">
<title>Node1&#45;&gt;Node4</title>
<g id="a_edge3_Node000001_Node000004"><a xlink:title=" ">
<path fill="none" stroke="#63b8ff" d="M196.93,-386.34C207.84,-378.49 223.88,-366.95 236.84,-357.62"/>
<polygon fill="#63b8ff" stroke="#63b8ff" points="238.71,-360.59 244.78,-351.91 234.62,-354.91 238.71,-360.59"/>
</a>
</g>
</g>
<!-- Node3 -->
<g id="Node000003" class="node">
<title>Node3</title>
<g id="a_Node000003"><a xlink:title=" ">
<polygon fill="#e0e0e0" stroke="#999999" points="201.12,-19.25 99.62,-19.25 99.62,0 201.12,0 201.12,-19.25"/>
<text text-anchor="middle" x="150.38" y="-5.75" font-family="Helvetica,sans-Serif" font-size="10.00">liger/core/types.hpp</text>
</a>
</g>
</g>
<!-- Node2&#45;&gt;Node3 -->
<g id="edge2_Node000002_Node000003" class="edge">
<title>Node2&#45;&gt;Node3</title>
<g id="a_edge2_Node000002_Node000003"><a xlink:title=" ">
<path fill="none" stroke="#63b8ff" d="M91.88,-275.96C96.82,-257.52 107.38,-213.8 107.38,-176.38 107.38,-176.38 107.38,-176.38 107.38,-119.12 107.38,-85.65 125.28,-50.2 137.98,-29.26"/>
<polygon fill="#63b8ff" stroke="#63b8ff" points="140.82,-31.32 143.22,-21 134.91,-27.57 140.82,-31.32"/>
</a>
</g>
</g>
<!-- Node5 -->
<g id="Node000005" class="node">
<title>Node5</title>
<g id="a_Node000005"><a xlink:href="callback_8hpp.html" target="_top" xlink:title=" ">
<polygon fill="white" stroke="#666666" points="363.75,-295.5 197,-295.5 197,-276.25 363.75,-276.25 363.75,-295.5"/>
<text text-anchor="middle" x="280.38" y="-282" font-family="Helvetica,sans-Serif" font-size="10.00">liger/core/event/detail/callback.hpp</text>
</a>
</g>
</g>
<!-- Node4&#45;&gt;Node5 -->
<g id="edge4_Node000004_Node000005" class="edge">
<title>Node4&#45;&gt;Node5</title>
<g id="a_edge4_Node000004_Node000005"><a xlink:title=" ">
<path fill="none" stroke="#63b8ff" d="M262.01,-331.33C264.79,-324.59 268.75,-315.02 272.27,-306.49"/>
<polygon fill="#63b8ff" stroke="#63b8ff" points="275.5,-307.84 276.09,-297.26 269.03,-305.16 275.5,-307.84"/>
</a>
</g>
</g>
<!-- Node5&#45;&gt;Node3 -->
<g id="edge15_Node000005_Node000003" class="edge">
<title>Node5&#45;&gt;Node3</title>
<g id="a_edge15_Node000005_Node000003"><a xlink:title=" ">
<path fill="none" stroke="#63b8ff" d="M252.81,-275.86C214.65,-261.43 150.38,-229.29 150.38,-176.38 150.38,-176.38 150.38,-176.38 150.38,-119.12 150.38,-88.41 150.38,-52.8 150.38,-30.99"/>
<polygon fill="#63b8ff" stroke="#63b8ff" points="153.88,-31.14 150.38,-21.14 146.88,-31.14 153.88,-31.14"/>
</a>
</g>
</g>
<!-- Node6 -->
<g id="Node000006" class="node">
<title>Node6</title>
<g id="a_Node000006"><a xlink:href="default__log_8hpp.html" target="_top" xlink:title=" ">
<polygon fill="white" stroke="#666666" points="347.62,-240.25 207.12,-240.25 207.12,-221 347.62,-221 347.62,-240.25"/>
<text text-anchor="middle" x="277.38" y="-226.75" font-family="Helvetica,sans-Serif" font-size="10.00">liger/core/log/default_log.hpp</text>
</a>
</g>
</g>
<!-- Node5&#45;&gt;Node6 -->
<g id="edge5_Node000005_Node000006" class="edge">
<title>Node5&#45;&gt;Node6</title>
<g id="a_edge5_Node000005_Node000006"><a xlink:title=" ">
<path fill="none" stroke="#63b8ff" d="M279.88,-276.08C279.51,-269.49 278.99,-260.21 278.51,-251.82"/>
<polygon fill="#63b8ff" stroke="#63b8ff" points="282.02,-251.91 277.97,-242.12 275.03,-252.3 282.02,-251.91"/>
</a>
</g>
</g>
<!-- Node11 -->
<g id="Node000011" class="node">
<title>Node11</title>
<g id="a_Node000011"><a xlink:href="log__channels_8hpp_source.html" target="_top" xlink:title=" ">
<polygon fill="white" stroke="#666666" points="539.5,-240.25 389.25,-240.25 389.25,-221 539.5,-221 539.5,-240.25"/>
<text text-anchor="middle" x="464.38" y="-226.75" font-family="Helvetica,sans-Serif" font-size="10.00">liger/core/log/log_channels.hpp</text>
</a>
</g>
</g>
<!-- Node5&#45;&gt;Node11 -->
<g id="edge12_Node000005_Node000011" class="edge">
<title>Node5&#45;&gt;Node11</title>
<g id="a_edge12_Node000005_Node000011"><a xlink:title=" ">
<path fill="none" stroke="#63b8ff" d="M311.59,-275.84C341.99,-267.04 388.41,-253.61 422.11,-243.86"/>
<polygon fill="#63b8ff" stroke="#63b8ff" points="422.92,-247.27 431.55,-241.12 420.98,-240.54 422.92,-247.27"/>
</a>
</g>
</g>
<!-- Node7 -->
<g id="Node000007" class="node">
<title>Node7</title>
<g id="a_Node000007"><a xlink:href="log_8hpp.html" target="_top" xlink:title=" ">
<polygon fill="white" stroke="#666666" points="321.38,-185 215.38,-185 215.38,-165.75 321.38,-165.75 321.38,-185"/>
<text text-anchor="middle" x="268.38" y="-171.5" font-family="Helvetica,sans-Serif" font-size="10.00">liger/core/log/log.hpp</text>
</a>
</g>
</g>
<!-- Node6&#45;&gt;Node7 -->
<g id="edge6_Node000006_Node000007" class="edge">
<title>Node6&#45;&gt;Node7</title>
<g id="a_edge6_Node000006_Node000007"><a xlink:title=" ">
<path fill="none" stroke="#63b8ff" d="M275.89,-220.83C274.78,-214.24 273.21,-204.96 271.79,-196.57"/>
<polygon fill="#63b8ff" stroke="#63b8ff" points="275.26,-196.13 270.15,-186.85 268.36,-197.3 275.26,-196.13"/>
</a>
</g>
</g>
<!-- Node8 -->
<g id="Node000008" class="node">
<title>Node8</title>
<g id="a_Node000008"><a xlink:title=" ">
<polygon fill="#e0e0e0" stroke="#999999" points="238.5,-129.75 178.25,-129.75 178.25,-110.5 238.5,-110.5 238.5,-129.75"/>
<text text-anchor="middle" x="208.38" y="-116.25" font-family="Helvetica,sans-Serif" font-size="10.00">fmt/core.h</text>
</a>
</g>
</g>
<!-- Node7&#45;&gt;Node8 -->
<g id="edge7_Node000007_Node000008" class="edge">
<title>Node7&#45;&gt;Node8</title>
<g id="a_edge7_Node000007_Node000008"><a xlink:title=" ">
<path fill="none" stroke="#63b8ff" d="M258.2,-165.34C249.61,-157.72 237.11,-146.62 226.77,-137.45"/>
<polygon fill="#63b8ff" stroke="#63b8ff" points="229.34,-135.05 219.53,-131.03 224.69,-140.29 229.34,-135.05"/>
</a>
</g>
</g>
<!-- Node9 -->
<g id="Node000009" class="node">
<title>Node9</title>
<g id="a_Node000009"><a xlink:href="log__message_8hpp.html" target="_top" xlink:title=" ">
<polygon fill="white" stroke="#666666" points="341.88,-74.5 190.88,-74.5 190.88,-55.25 341.88,-55.25 341.88,-74.5"/>
<text text-anchor="middle" x="266.38" y="-61" font-family="Helvetica,sans-Serif" font-size="10.00">liger/core/log/log_message.hpp</text>
</a>
</g>
</g>
<!-- Node7&#45;&gt;Node9 -->
<g id="edge8_Node000007_Node000009" class="edge">
<title>Node7&#45;&gt;Node9</title>
<g id="a_edge8_Node000007_Node000009"><a xlink:title=" ">
<path fill="none" stroke="#63b8ff" d="M268.21,-165.5C267.89,-148.25 267.19,-109.83 266.75,-86.06"/>
<polygon fill="#63b8ff" stroke="#63b8ff" points="270.25,-86.32 266.57,-76.39 263.25,-86.45 270.25,-86.32"/>
</a>
</g>
</g>
<!-- Node10 -->
<g id="Node000010" class="node">
<title>Node10</title>
<g id="a_Node000010"><a xlink:href="log__writer_8hpp.html" target="_top" xlink:title=" ">
<polygon fill="white" stroke="#666666" points="428.62,-129.75 294.12,-129.75 294.12,-110.5 428.62,-110.5 428.62,-129.75"/>
<text text-anchor="middle" x="361.38" y="-116.25" font-family="Helvetica,sans-Serif" font-size="10.00">liger/core/log/log_writer.hpp</text>
</a>
</g>
</g>
<!-- Node7&#45;&gt;Node10 -->
<g id="edge10_Node000007_Node000010" class="edge">
<title>Node7&#45;&gt;Node10</title>
<g id="a_edge10_Node000007_Node000010"><a xlink:title=" ">
<path fill="none" stroke="#63b8ff" d="M284.15,-165.34C298.31,-157.23 319.36,-145.18 335.9,-135.71"/>
<polygon fill="#63b8ff" stroke="#63b8ff" points="337.27,-138.96 344.21,-130.95 333.79,-132.89 337.27,-138.96"/>
</a>
</g>
</g>
<!-- Node9&#45;&gt;Node3 -->
<g id="edge9_Node000009_Node000003" class="edge">
<title>Node9&#45;&gt;Node3</title>
<g id="a_edge9_Node000009_Node000003"><a xlink:title=" ">
<path fill="none" stroke="#63b8ff" d="M246.7,-54.84C228.53,-46.5 201.29,-34 180.41,-24.41"/>
<polygon fill="#63b8ff" stroke="#63b8ff" points="182.07,-21.33 171.52,-20.33 179.15,-27.69 182.07,-21.33"/>
</a>
</g>
</g>
<!-- Node10&#45;&gt;Node9 -->
<g id="edge11_Node000010_Node000009" class="edge">
<title>Node10&#45;&gt;Node9</title>
<g id="a_edge11_Node000010_Node000009"><a xlink:title=" ">
<path fill="none" stroke="#63b8ff" d="M345.26,-110.09C330.79,-101.98 309.3,-89.93 292.39,-80.46"/>
<polygon fill="#63b8ff" stroke="#63b8ff" points="294.32,-77.53 283.89,-75.69 290.9,-83.64 294.32,-77.53"/>
</a>
</g>
</g>
<!-- Node12 -->
<g id="Node000012" class="node">
<title>Node12</title>
<g id="a_Node000012"><a xlink:href="enum__bitmask_8hpp.html" target="_top" xlink:title=" ">
<polygon fill="white" stroke="#666666" points="541,-185 399.75,-185 399.75,-165.75 541,-165.75 541,-185"/>
<text text-anchor="middle" x="470.38" y="-171.5" font-family="Helvetica,sans-Serif" font-size="10.00">liger/core/enum_bitmask.hpp</text>
</a>
</g>
</g>
<!-- Node11&#45;&gt;Node12 -->
<g id="edge13_Node000011_Node000012" class="edge">
<title>Node11&#45;&gt;Node12</title>
<g id="a_edge13_Node000011_Node000012"><a xlink:title=" ">
<path fill="none" stroke="#63b8ff" d="M465.37,-220.83C466.11,-214.24 467.15,-204.96 468.1,-196.57"/>
<polygon fill="#63b8ff" stroke="#63b8ff" points="471.55,-197.19 469.19,-186.86 464.6,-196.41 471.55,-197.19"/>
</a>
</g>
</g>
<!-- Node13 -->
<g id="Node000013" class="node">
<title>Node13</title>
<g id="a_Node000013"><a xlink:title=" ">
<polygon fill="#e0e0e0" stroke="#999999" points="508.25,-129.75 446.5,-129.75 446.5,-110.5 508.25,-110.5 508.25,-129.75"/>
<text text-anchor="middle" x="477.38" y="-116.25" font-family="Helvetica,sans-Serif" font-size="10.00">type_traits</text>
</a>
</g>
</g>
<!-- Node12&#45;&gt;Node13 -->
<g id="edge14_Node000012_Node000013" class="edge">
<title>Node12&#45;&gt;Node13</title>
<g id="a_edge14_Node000012_Node000013"><a xlink:title=" ">
<path fill="none" stroke="#63b8ff" d="M471.53,-165.58C472.4,-158.99 473.62,-149.71 474.72,-141.32"/>
<polygon fill="#63b8ff" stroke="#63b8ff" points="478.16,-141.98 476,-131.61 471.22,-141.07 478.16,-141.98"/>
</a>
</g>
</g>
</g>
</svg>
