<?xml version="1.0" encoding="UTF-8" standalone="no"?>
<!DOCTYPE svg PUBLIC "-//W3C//DTD SVG 1.1//EN"
 "http://www.w3.org/Graphics/SVG/1.1/DTD/svg11.dtd">
<!-- Generated by graphviz version 9.0.0 (20230911.1827)
 -->
<!-- Title: extent.hpp Pages: 1 -->
<svg width="977pt" height="359pt"
 viewBox="0.00 0.00 976.50 358.75" xmlns="http://www.w3.org/2000/svg" xmlns:xlink="http://www.w3.org/1999/xlink">
<g id="graph0" class="graph" transform="scale(1 1) rotate(0) translate(4 354.75)">
<title>extent.hpp</title>
<!-- Node1 -->
<g id="Node000001" class="node">
<title>Node1</title>
<g id="a_Node000001"><a xlink:title=" ">
<polygon fill="#999999" stroke="#666666" points="359.38,-350.75 297.62,-350.75 297.62,-331.5 359.38,-331.5 359.38,-350.75"/>
<text text-anchor="middle" x="328.5" y="-337.25" font-family="Helvetica,sans-Serif" font-size="10.00">extent.hpp</text>
</a>
</g>
</g>
<!-- Node2 -->
<g id="Node000002" class="node">
<title>Node2</title>
<g id="a_Node000002"><a xlink:href="command__buffer_8hpp.html" target="_top" xlink:title=" ">
<polygon fill="white" stroke="#666666" points="171.88,-295.5 65.12,-295.5 65.12,-276.25 171.88,-276.25 171.88,-295.5"/>
<text text-anchor="middle" x="118.5" y="-282" font-family="Helvetica,sans-Serif" font-size="10.00">command_buffer.hpp</text>
</a>
</g>
</g>
<!-- Node1&#45;&gt;Node2 -->
<g id="edge1_Node000001_Node000002" class="edge">
<title>Node1&#45;&gt;Node2</title>
<g id="a_edge1_Node000001_Node000002"><a xlink:title=" ">
<path fill="none" stroke="#63b8ff" d="M286.6,-329.5C247.84,-319.67 190.83,-305.22 154.19,-295.92"/>
<polygon fill="#63b8ff" stroke="#63b8ff" points="285.49,-332.83 296.05,-331.9 287.21,-326.05 285.49,-332.83"/>
</a>
</g>
</g>
<!-- Node10 -->
<g id="Node000010" class="node">
<title>Node10</title>
<g id="a_Node000010"><a xlink:href="first__draft_2command__buffer_8hpp.html" target="_top" xlink:title=" ">
<polygon fill="white" stroke="#666666" points="215.88,-240.25 109.12,-240.25 109.12,-221 215.88,-221 215.88,-240.25"/>
<text text-anchor="middle" x="162.5" y="-226.75" font-family="Helvetica,sans-Serif" font-size="10.00">command_buffer.hpp</text>
</a>
</g>
</g>
<!-- Node1&#45;&gt;Node10 -->
<g id="edge10_Node000001_Node000010" class="edge">
<title>Node1&#45;&gt;Node10</title>
<g id="a_edge10_Node000001_Node000010"><a xlink:title=" ">
<path fill="none" stroke="#63b8ff" d="M305.17,-324.88C270.03,-301.91 204.59,-259.13 176.21,-240.59"/>
<polygon fill="#63b8ff" stroke="#63b8ff" points="303.08,-327.69 313.37,-330.23 306.91,-321.83 303.08,-327.69"/>
</a>
</g>
</g>
<!-- Node11 -->
<g id="Node000011" class="node">
<title>Node11</title>
<g id="a_Node000011"><a xlink:href="first__draft_2texture_8hpp.html" target="_top" xlink:title=" ">
<polygon fill="white" stroke="#666666" points="554.88,-295.5 490.12,-295.5 490.12,-276.25 554.88,-276.25 554.88,-295.5"/>
<text text-anchor="middle" x="522.5" y="-282" font-family="Helvetica,sans-Serif" font-size="10.00">texture.hpp</text>
</a>
</g>
</g>
<!-- Node1&#45;&gt;Node11 -->
<g id="edge11_Node000001_Node000011" class="edge">
<title>Node1&#45;&gt;Node11</title>
<g id="a_edge11_Node000001_Node000011"><a xlink:title=" ">
<path fill="none" stroke="#63b8ff" d="M370.72,-328.54C406.49,-318.72 457.03,-304.84 489.79,-295.85"/>
<polygon fill="#63b8ff" stroke="#63b8ff" points="369.85,-325.15 361.13,-331.17 371.7,-331.9 369.85,-325.15"/>
</a>
</g>
</g>
<!-- Node12 -->
<g id="Node000012" class="node">
<title>Node12</title>
<g id="a_Node000012"><a xlink:href="texture_8hpp.html" target="_top" xlink:title=" ">
<polygon fill="white" stroke="#666666" points="471.88,-295.5 407.12,-295.5 407.12,-276.25 471.88,-276.25 471.88,-295.5"/>
<text text-anchor="middle" x="439.5" y="-282" font-family="Helvetica,sans-Serif" font-size="10.00">texture.hpp</text>
</a>
</g>
</g>
<!-- Node1&#45;&gt;Node12 -->
<g id="edge12_Node000001_Node000012" class="edge">
<title>Node1&#45;&gt;Node12</title>
<g id="a_edge12_Node000001_Node000012"><a xlink:title=" ">
<path fill="none" stroke="#63b8ff" d="M357.68,-326.12C377.57,-316.58 403.33,-304.23 420.58,-295.95"/>
<polygon fill="#63b8ff" stroke="#63b8ff" points="356.2,-322.96 348.69,-330.44 359.22,-329.27 356.2,-322.96"/>
</a>
</g>
</g>
<!-- Node3 -->
<g id="Node000003" class="node">
<title>Node3</title>
<g id="a_Node000003"><a xlink:href="render__graph_8hpp.html" target="_top" xlink:title=" ">
<polygon fill="white" stroke="#666666" points="91,-240.25 0,-240.25 0,-221 91,-221 91,-240.25"/>
<text text-anchor="middle" x="45.5" y="-226.75" font-family="Helvetica,sans-Serif" font-size="10.00">render_graph.hpp</text>
</a>
</g>
</g>
<!-- Node2&#45;&gt;Node3 -->
<g id="edge2_Node000002_Node000003" class="edge">
<title>Node2&#45;&gt;Node3</title>
<g id="a_edge2_Node000002_Node000003"><a xlink:title=" ">
<path fill="none" stroke="#63b8ff" d="M97.03,-269.22C84.22,-259.87 68.4,-248.33 57.7,-240.52"/>
<polygon fill="#63b8ff" stroke="#63b8ff" points="94.75,-271.88 104.89,-274.95 98.88,-266.23 94.75,-271.88"/>
</a>
</g>
</g>
<!-- Node4 -->
<g id="Node000004" class="node">
<title>Node4</title>
<g id="a_Node000004"><a xlink:href="device_8hpp.html" target="_top" xlink:title=" ">
<polygon fill="white" stroke="#666666" points="343.12,-185 279.88,-185 279.88,-165.75 343.12,-165.75 343.12,-185"/>
<text text-anchor="middle" x="311.5" y="-171.5" font-family="Helvetica,sans-Serif" font-size="10.00">device.hpp</text>
</a>
</g>
</g>
<!-- Node3&#45;&gt;Node4 -->
<g id="edge3_Node000003_Node000004" class="edge">
<title>Node3&#45;&gt;Node4</title>
<g id="a_edge3_Node000003_Node000004"><a xlink:title=" ">
<path fill="none" stroke="#63b8ff" d="M102.06,-218.3C156.15,-207.47 235.78,-191.53 279.63,-182.76"/>
<polygon fill="#63b8ff" stroke="#63b8ff" points="101.53,-214.84 92.41,-220.23 102.9,-221.7 101.53,-214.84"/>
</a>
</g>
</g>
<!-- Node9 -->
<g id="Node000009" class="node">
<title>Node9</title>
<g id="a_Node000009"><a xlink:href="render__graph_8cpp.html" target="_top" xlink:title=" ">
<polygon fill="white" stroke="#666666" points="91,-185 0,-185 0,-165.75 91,-165.75 91,-185"/>
<text text-anchor="middle" x="45.5" y="-171.5" font-family="Helvetica,sans-Serif" font-size="10.00">render_graph.cpp</text>
</a>
</g>
</g>
<!-- Node3&#45;&gt;Node9 -->
<g id="edge9_Node000003_Node000009" class="edge">
<title>Node3&#45;&gt;Node9</title>
<g id="a_edge9_Node000003_Node000009"><a xlink:title=" ">
<path fill="none" stroke="#63b8ff" d="M45.5,-209.38C45.5,-201.09 45.5,-191.92 45.5,-185.36"/>
<polygon fill="#63b8ff" stroke="#63b8ff" points="42,-209.32 45.5,-219.32 49,-209.32 42,-209.32"/>
</a>
</g>
</g>
<!-- Node5 -->
<g id="Node000005" class="node">
<title>Node5</title>
<g id="a_Node000005"><a xlink:href="instance_8hpp.html" target="_top" xlink:title=" ">
<polygon fill="white" stroke="#666666" points="309.25,-129.75 237.75,-129.75 237.75,-110.5 309.25,-110.5 309.25,-129.75"/>
<text text-anchor="middle" x="273.5" y="-116.25" font-family="Helvetica,sans-Serif" font-size="10.00">instance.hpp</text>
</a>
</g>
</g>
<!-- Node4&#45;&gt;Node5 -->
<g id="edge4_Node000004_Node000005" class="edge">
<title>Node4&#45;&gt;Node5</title>
<g id="a_edge4_Node000004_Node000005"><a xlink:title=" ">
<path fill="none" stroke="#63b8ff" d="M298.7,-156.44C292.38,-147.59 285.04,-137.29 279.91,-130.11"/>
<polygon fill="#63b8ff" stroke="#63b8ff" points="295.69,-158.24 304.35,-164.35 301.39,-154.18 295.69,-158.24"/>
</a>
</g>
</g>
<!-- Node8 -->
<g id="Node000008" class="node">
<title>Node8</title>
<g id="a_Node000008"><a xlink:href="vulkan__utils_8hpp.html" target="_top" xlink:title=" ">
<polygon fill="white" stroke="#666666" points="405.75,-74.5 319.25,-74.5 319.25,-55.25 405.75,-55.25 405.75,-74.5"/>
<text text-anchor="middle" x="362.5" y="-61" font-family="Helvetica,sans-Serif" font-size="10.00">vulkan_utils.hpp</text>
</a>
</g>
</g>
<!-- Node4&#45;&gt;Node8 -->
<g id="edge7_Node000004_Node000008" class="edge">
<title>Node4&#45;&gt;Node8</title>
<g id="a_edge7_Node000004_Node000008"><a xlink:title=" ">
<path fill="none" stroke="#63b8ff" d="M320.45,-155.33C331.55,-131.72 350,-92.46 358.27,-74.88"/>
<polygon fill="#63b8ff" stroke="#63b8ff" points="317.4,-153.59 316.32,-164.13 323.74,-156.57 317.4,-153.59"/>
</a>
</g>
</g>
<!-- Node6 -->
<g id="Node000006" class="node">
<title>Node6</title>
<g id="a_Node000006"><a xlink:href="vulkan__instance_8hpp.html" target="_top" xlink:title=" ">
<polygon fill="white" stroke="#666666" points="301.12,-74.5 195.88,-74.5 195.88,-55.25 301.12,-55.25 301.12,-74.5"/>
<text text-anchor="middle" x="248.5" y="-61" font-family="Helvetica,sans-Serif" font-size="10.00">vulkan_instance.hpp</text>
</a>
</g>
</g>
<!-- Node5&#45;&gt;Node6 -->
<g id="edge5_Node000005_Node000006" class="edge">
<title>Node5&#45;&gt;Node6</title>
<g id="a_edge5_Node000005_Node000006"><a xlink:title=" ">
<path fill="none" stroke="#63b8ff" d="M264.54,-100.04C260.51,-91.46 255.94,-81.73 252.72,-74.86"/>
<polygon fill="#63b8ff" stroke="#63b8ff" points="261.31,-101.4 268.73,-108.96 267.65,-98.42 261.31,-101.4"/>
</a>
</g>
</g>
<!-- Node7 -->
<g id="Node000007" class="node">
<title>Node7</title>
<g id="a_Node000007"><a xlink:href="vulkan__instance_8cpp.html" target="_top" xlink:title=" ">
<polygon fill="white" stroke="#666666" points="358.12,-19.25 252.88,-19.25 252.88,0 358.12,0 358.12,-19.25"/>
<text text-anchor="middle" x="305.5" y="-5.75" font-family="Helvetica,sans-Serif" font-size="10.00">vulkan_instance.cpp</text>
</a>
</g>
</g>
<!-- Node6&#45;&gt;Node7 -->
<g id="edge6_Node000006_Node000007" class="edge">
<title>Node6&#45;&gt;Node7</title>
<g id="a_edge6_Node000006_Node000007"><a xlink:title=" ">
<path fill="none" stroke="#63b8ff" d="M266.45,-47.11C276.23,-37.97 287.94,-27.03 295.97,-19.52"/>
<polygon fill="#63b8ff" stroke="#63b8ff" points="264.19,-44.42 259.28,-53.81 268.97,-49.54 264.19,-44.42"/>
</a>
</g>
</g>
<!-- Node8&#45;&gt;Node7 -->
<g id="edge8_Node000008_Node000007" class="edge">
<title>Node8&#45;&gt;Node7</title>
<g id="a_edge8_Node000008_Node000007"><a xlink:title=" ">
<path fill="none" stroke="#63b8ff" d="M344.55,-47.11C334.77,-37.97 323.06,-27.03 315.03,-19.52"/>
<polygon fill="#63b8ff" stroke="#63b8ff" points="342.03,-49.54 351.72,-53.81 346.81,-44.42 342.03,-49.54"/>
</a>
</g>
</g>
<!-- Node12&#45;&gt;Node3 -->
<g id="edge17_Node000012_Node000003" class="edge">
<title>Node12&#45;&gt;Node3</title>
<g id="a_edge17_Node000012_Node000003"><a xlink:title=" ">
<path fill="none" stroke="#63b8ff" d="M395.36,-279.42C330.62,-271.33 206.14,-255.48 100.5,-240.25 97.53,-239.82 94.48,-239.37 91.4,-238.91"/>
<polygon fill="#63b8ff" stroke="#63b8ff" points="394.88,-282.88 405.24,-280.65 395.75,-275.94 394.88,-282.88"/>
</a>
</g>
</g>
<!-- Node12&#45;&gt;Node10 -->
<g id="edge13_Node000012_Node000010" class="edge">
<title>Node12&#45;&gt;Node10</title>
<g id="a_edge13_Node000012_Node000010"><a xlink:title=" ">
<path fill="none" stroke="#63b8ff" d="M395.4,-276.4C344.65,-266.64 261.65,-250.69 209.65,-240.69"/>
<polygon fill="#63b8ff" stroke="#63b8ff" points="394.67,-279.82 405.15,-278.27 395.99,-272.95 394.67,-279.82"/>
</a>
</g>
</g>
<!-- Node13 -->
<g id="Node000013" class="node">
<title>Node13</title>
<g id="a_Node000013"><a xlink:href="deprecated_2device_8hpp_source.html" target="_top" xlink:title=" ">
<polygon fill="white" stroke="#666666" points="655.12,-240.25 591.88,-240.25 591.88,-221 655.12,-221 655.12,-240.25"/>
<text text-anchor="middle" x="623.5" y="-226.75" font-family="Helvetica,sans-Serif" font-size="10.00">device.hpp</text>
</a>
</g>
</g>
<!-- Node12&#45;&gt;Node13 -->
<g id="edge14_Node000012_Node000013" class="edge">
<title>Node12&#45;&gt;Node13</title>
<g id="a_edge14_Node000012_Node000013"><a xlink:title=" ">
<path fill="none" stroke="#63b8ff" d="M481.6,-272.69C515.25,-262.95 561.68,-249.52 592.13,-240.7"/>
<polygon fill="#63b8ff" stroke="#63b8ff" points="480.8,-269.28 472.17,-275.42 482.75,-276 480.8,-269.28"/>
</a>
</g>
</g>
<!-- Node14 -->
<g id="Node000014" class="node">
<title>Node14</title>
<g id="a_Node000014"><a xlink:href="first__draft_2device_8hpp_source.html" target="_top" xlink:title=" ">
<polygon fill="white" stroke="#666666" points="560.12,-185 496.88,-185 496.88,-165.75 560.12,-165.75 560.12,-185"/>
<text text-anchor="middle" x="528.5" y="-171.5" font-family="Helvetica,sans-Serif" font-size="10.00">device.hpp</text>
</a>
</g>
</g>
<!-- Node12&#45;&gt;Node14 -->
<g id="edge15_Node000012_Node000014" class="edge">
<title>Node12&#45;&gt;Node14</title>
<g id="a_edge15_Node000012_Node000014"><a xlink:title=" ">
<path fill="none" stroke="#63b8ff" d="M481.41,-272.32C507.31,-263.62 536.99,-251.6 544.5,-240.25 555.85,-223.09 543.33,-198.48 534.9,-185.38"/>
<polygon fill="#63b8ff" stroke="#63b8ff" points="480.48,-268.94 472.05,-275.36 482.65,-275.6 480.48,-268.94"/>
</a>
</g>
</g>
<!-- Node15 -->
<g id="Node000015" class="node">
<title>Node15</title>
<g id="a_Node000015"><a xlink:href="first__draft_2framebuffer_8hpp.html" target="_top" xlink:title=" ">
<polygon fill="white" stroke="#666666" points="756.25,-240.25 672.75,-240.25 672.75,-221 756.25,-221 756.25,-240.25"/>
<text text-anchor="middle" x="714.5" y="-226.75" font-family="Helvetica,sans-Serif" font-size="10.00">framebuffer.hpp</text>
</a>
</g>
</g>
<!-- Node12&#45;&gt;Node15 -->
<g id="edge16_Node000012_Node000015" class="edge">
<title>Node12&#45;&gt;Node15</title>
<g id="a_edge16_Node000012_Node000015"><a xlink:title=" ">
<path fill="none" stroke="#63b8ff" d="M483.21,-275.93C555.66,-261.6 627.96,-247.88 672.38,-239.52"/>
<polygon fill="#63b8ff" stroke="#63b8ff" points="482.66,-272.47 473.54,-277.85 484.03,-279.34 482.66,-272.47"/>
</a>
</g>
</g>
<!-- Node16 -->
<g id="Node000016" class="node">
<title>Node16</title>
<g id="a_Node000016"><a xlink:href="first__draft_2render__pass_8hpp.html" target="_top" xlink:title=" ">
<polygon fill="white" stroke="#666666" points="862.5,-240.25 774.5,-240.25 774.5,-221 862.5,-221 862.5,-240.25"/>
<text text-anchor="middle" x="818.5" y="-226.75" font-family="Helvetica,sans-Serif" font-size="10.00">render_pass.hpp</text>
</a>
</g>
</g>
<!-- Node12&#45;&gt;Node16 -->
<g id="edge18_Node000012_Node000016" class="edge">
<title>Node12&#45;&gt;Node16</title>
<g id="a_edge18_Node000012_Node000016"><a xlink:title=" ">
<path fill="none" stroke="#63b8ff" d="M483.24,-276.09C608.94,-255.59 643.15,-257.96 765.5,-240.25 768.36,-239.84 771.3,-239.4 774.27,-238.94"/>
<polygon fill="#63b8ff" stroke="#63b8ff" points="482.8,-272.62 473.51,-277.7 483.94,-279.52 482.8,-272.62"/>
</a>
</g>
</g>
<!-- Node17 -->
<g id="Node000017" class="node">
<title>Node17</title>
<g id="a_Node000017"><a xlink:href="deprecated_2render__pass_8hpp.html" target="_top" xlink:title=" ">
<polygon fill="white" stroke="#666666" points="968.5,-240.25 880.5,-240.25 880.5,-221 968.5,-221 968.5,-240.25"/>
<text text-anchor="middle" x="924.5" y="-226.75" font-family="Helvetica,sans-Serif" font-size="10.00">render_pass.hpp</text>
</a>
</g>
</g>
<!-- Node12&#45;&gt;Node17 -->
<g id="edge19_Node000012_Node000017" class="edge">
<title>Node12&#45;&gt;Node17</title>
<g id="a_edge19_Node000012_Node000017"><a xlink:title=" ">
<path fill="none" stroke="#63b8ff" d="M483.26,-276.17C655.64,-251.17 702.45,-261.78 871.5,-240.25 874.37,-239.88 877.32,-239.48 880.29,-239.06"/>
<polygon fill="#63b8ff" stroke="#63b8ff" points="482.88,-272.69 473.49,-277.61 483.9,-279.62 482.88,-272.69"/>
</a>
</g>
</g>
<!-- Node18 -->
<g id="Node000018" class="node">
<title>Node18</title>
<g id="a_Node000018"><a xlink:href="first__draft_2swapchain_8hpp.html" target="_top" xlink:title=" ">
<polygon fill="white" stroke="#666666" points="315.12,-240.25 233.88,-240.25 233.88,-221 315.12,-221 315.12,-240.25"/>
<text text-anchor="middle" x="274.5" y="-226.75" font-family="Helvetica,sans-Serif" font-size="10.00">swapchain.hpp</text>
</a>
</g>
</g>
<!-- Node12&#45;&gt;Node18 -->
<g id="edge20_Node000012_Node000018" class="edge">
<title>Node12&#45;&gt;Node18</title>
<g id="a_edge20_Node000012_Node000018"><a xlink:title=" ">
<path fill="none" stroke="#63b8ff" d="M400.56,-272.31C370.49,-262.6 329.58,-249.4 302.63,-240.7"/>
<polygon fill="#63b8ff" stroke="#63b8ff" points="399.48,-275.64 410.07,-275.38 401.63,-268.97 399.48,-275.64"/>
</a>
</g>
</g>
<!-- Node19 -->
<g id="Node000019" class="node">
<title>Node19</title>
<g id="a_Node000019"><a xlink:href="swapchain_8hpp.html" target="_top" xlink:title=" ">
<polygon fill="white" stroke="#666666" points="535.12,-240.25 453.88,-240.25 453.88,-221 535.12,-221 535.12,-240.25"/>
<text text-anchor="middle" x="494.5" y="-226.75" font-family="Helvetica,sans-Serif" font-size="10.00">swapchain.hpp</text>
</a>
</g>
</g>
<!-- Node12&#45;&gt;Node19 -->
<g id="edge21_Node000012_Node000019" class="edge">
<title>Node12&#45;&gt;Node19</title>
<g id="a_edge21_Node000012_Node000019"><a xlink:title=" ">
<path fill="none" stroke="#63b8ff" d="M456.85,-268.07C466.25,-258.98 477.48,-248.1 485.22,-240.61"/>
<polygon fill="#63b8ff" stroke="#63b8ff" points="454.42,-265.56 449.67,-275.03 459.29,-270.59 454.42,-265.56"/>
</a>
</g>
</g>
<!-- Node20 -->
<g id="Node000020" class="node">
<title>Node20</title>
<g id="a_Node000020"><a xlink:href="synchronization_8hpp.html" target="_top" xlink:title=" ">
<polygon fill="white" stroke="#666666" points="436,-240.25 333,-240.25 333,-221 436,-221 436,-240.25"/>
<text text-anchor="middle" x="384.5" y="-226.75" font-family="Helvetica,sans-Serif" font-size="10.00">synchronization.hpp</text>
</a>
</g>
</g>
<!-- Node12&#45;&gt;Node20 -->
<g id="edge24_Node000012_Node000020" class="edge">
<title>Node12&#45;&gt;Node20</title>
<g id="a_edge24_Node000012_Node000020"><a xlink:title=" ">
<path fill="none" stroke="#63b8ff" d="M422.15,-268.07C412.75,-258.98 401.52,-248.1 393.78,-240.61"/>
<polygon fill="#63b8ff" stroke="#63b8ff" points="419.71,-270.59 429.33,-275.03 424.58,-265.56 419.71,-270.59"/>
</a>
</g>
</g>
<!-- Node19&#45;&gt;Node4 -->
<g id="edge22_Node000019_Node000004" class="edge">
<title>Node19&#45;&gt;Node4</title>
<g id="a_edge22_Node000019_Node000004"><a xlink:title=" ">
<path fill="none" stroke="#63b8ff" d="M452.63,-217.44C419.16,-207.7 372.98,-194.27 342.7,-185.45"/>
<polygon fill="#63b8ff" stroke="#63b8ff" points="451.42,-220.74 462,-220.17 453.38,-214.01 451.42,-220.74"/>
</a>
</g>
</g>
<!-- Node19&#45;&gt;Node14 -->
<g id="edge23_Node000019_Node000014" class="edge">
<title>Node19&#45;&gt;Node14</title>
<g id="a_edge23_Node000019_Node000014"><a xlink:title=" ">
<path fill="none" stroke="#63b8ff" d="M506.13,-211.4C511.75,-202.61 518.23,-192.46 522.76,-185.36"/>
<polygon fill="#63b8ff" stroke="#63b8ff" points="503.36,-209.24 500.93,-219.56 509.26,-213.01 503.36,-209.24"/>
</a>
</g>
</g>
</g>
</svg>
