<?xml version="1.0" encoding="UTF-8" standalone="no"?>
<!DOCTYPE svg PUBLIC "-//W3C//DTD SVG 1.1//EN"
 "http://www.w3.org/Graphics/SVG/1.1/DTD/svg11.dtd">
<!-- Generated by graphviz version 9.0.0 (20230911.1827)
 -->
<!-- Title: filter.hpp Pages: 1 -->
<!--zoomable 414 -->

<svg id="main" version="1.1" xmlns="http://www.w3.org/2000/svg" xmlns:xlink="http://www.w3.org/1999/xlink" xml:space="preserve" onload="init(evt)">
<style type="text/css"><![CDATA[
.node, .edge {opacity: 0.7;}
.node.selected, .edge.selected {opacity: 1;}
.edge:hover path { stroke: red; }
.edge:hover polygon { stroke: red; fill: red; }
]]></style>

<defs>
  <circle id="rim" cx="0" cy="0" r="7"/>
  <circle id="rim2" cx="0" cy="0" r="3.5"/>
  <g id="zoomPlus">
    <use xlink:href="#rim" fill="#404040"><set attributeName="fill" to="#808080" begin="zoomplus.mouseover" end="zoomplus.mouseout"/></use>
    <path d="M-4,0h8M0,-4v8" fill="none" stroke="white" stroke-width="1.5" pointer-events="none"/>
  </g>
  <g id="zoomMin">
    <use xlink:href="#rim" fill="#404040"><set attributeName="fill" to="#808080" begin="zoomminus.mouseover" end="zoomminus.mouseout"/></use>
    <path d="M-4,0h8" fill="none" stroke="white" stroke-width="1.5" pointer-events="none"/>
  </g>
  <g id="arrowUp" transform="translate(30 24)">
    <use xlink:href="#rim"/>
    <path pointer-events="none" fill="none" stroke="white" stroke-width="1.5" d="M0,-3.0v7 M-2.5,-0.5L0,-3.0L2.5,-0.5"/>
  </g>
  <g id="arrowRight" transform="rotate(90) translate(36 -43)">
    <use xlink:href="#rim"/>
    <path pointer-events="none" fill="none" stroke="white" stroke-width="1.5" d="M0,-3.0v7 M-2.5,-0.5L0,-3.0L2.5,-0.5"/>
  </g>
  <g id="arrowDown" transform="rotate(180) translate(-30 -48)">
    <use xlink:href="#rim"/>
    <path pointer-events="none" fill="none" stroke="white" stroke-width="1.5" d="M0,-3.0v7 M-2.5,-0.5L0,-3.0L2.5,-0.5"/>
  </g>
  <g id="arrowLeft" transform="rotate(270) translate(-36 17)">
    <use xlink:href="#rim"/>
    <path pointer-events="none" fill="none" stroke="white" stroke-width="1.5" d="M0,-3.0v7 M-2.5,-0.5L0,-3.0L2.5,-0.5"/>
  </g>
  <g id="resetDef">
    <use xlink:href="#rim2" fill="#404040"><set attributeName="fill" to="#808080" begin="reset.mouseover" end="reset.mouseout"/></use>
  </g>
</defs>
<script type="application/ecmascript">
var viewWidth = 977;
var viewHeight = 414;
var sectionId = 'dynsection-1';
</script>
<script type="application/ecmascript" xlink:href="svg.min.js"/>
<svg id="graph" class="graph">
<g id="viewport">
<title>filter.hpp</title>
<!-- Node1 -->
<g id="Node000001" class="node">
<title>Node1</title>
<g id="a_Node000001"><a xlink:title=" ">
<polygon fill="#999999" stroke="#666666" points="265.88,-406 213.12,-406 213.12,-386.75 265.88,-386.75 265.88,-406"/>
<text text-anchor="middle" x="239.5" y="-392.5" font-family="Helvetica,sans-Serif" font-size="10.00">filter.hpp</text>
</a>
</g>
</g>
<!-- Node2 -->
<g id="Node000002" class="node">
<title>Node2</title>
<g id="a_Node000002"><a xlink:href="command__buffer_8hpp.html" target="_top" xlink:title=" ">
<polygon fill="white" stroke="#666666" points="241.88,-295.5 135.12,-295.5 135.12,-276.25 241.88,-276.25 241.88,-295.5"/>
<text text-anchor="middle" x="188.5" y="-282" font-family="Helvetica,sans-Serif" font-size="10.00">command_buffer.hpp</text>
</a>
</g>
</g>
<!-- Node1&#45;&gt;Node2 -->
<g id="edge1_Node000001_Node000002" class="edge">
<title>Node1&#45;&gt;Node2</title>
<g id="a_edge1_Node000001_Node000002"><a xlink:title=" ">
<path fill="none" stroke="#63b8ff" d="M230.55,-376.33C219.45,-352.72 201,-313.46 192.73,-295.88"/>
<polygon fill="#63b8ff" stroke="#63b8ff" points="227.26,-377.57 234.68,-385.13 233.6,-374.59 227.26,-377.57"/>
</a>
</g>
</g>
<!-- Node10 -->
<g id="Node000010" class="node">
<title>Node10</title>
<g id="a_Node000010"><a xlink:href="sampler__info_8hpp.html" target="_top" xlink:title=" ">
<polygon fill="white" stroke="#666666" points="329.62,-350.75 239.38,-350.75 239.38,-331.5 329.62,-331.5 329.62,-350.75"/>
<text text-anchor="middle" x="284.5" y="-337.25" font-family="Helvetica,sans-Serif" font-size="10.00">sampler_info.hpp</text>
</a>
</g>
</g>
<!-- Node1&#45;&gt;Node10 -->
<g id="edge10_Node000001_Node000010" class="edge">
<title>Node1&#45;&gt;Node10</title>
<g id="a_edge10_Node000001_Node000010"><a xlink:title=" ">
<path fill="none" stroke="#63b8ff" d="M254.18,-378.01C261.76,-369.03 270.71,-358.45 276.91,-351.11"/>
<polygon fill="#63b8ff" stroke="#63b8ff" points="251.69,-375.53 247.91,-385.43 257.04,-380.05 251.69,-375.53"/>
</a>
</g>
</g>
<!-- Node3 -->
<g id="Node000003" class="node">
<title>Node3</title>
<g id="a_Node000003"><a xlink:href="render__graph_8hpp.html" target="_top" xlink:title=" ">
<polygon fill="white" stroke="#666666" points="91,-240.25 0,-240.25 0,-221 91,-221 91,-240.25"/>
<text text-anchor="middle" x="45.5" y="-226.75" font-family="Helvetica,sans-Serif" font-size="10.00">render_graph.hpp</text>
</a>
</g>
</g>
<!-- Node2&#45;&gt;Node3 -->
<g id="edge2_Node000002_Node000003" class="edge">
<title>Node2&#45;&gt;Node3</title>
<g id="a_edge2_Node000002_Node000003"><a xlink:title=" ">
<path fill="none" stroke="#63b8ff" d="M153.72,-271.92C127.75,-262.25 92.93,-249.29 69.88,-240.7"/>
<polygon fill="#63b8ff" stroke="#63b8ff" points="152.23,-275.1 162.82,-275.31 154.67,-268.54 152.23,-275.1"/>
</a>
</g>
</g>
<!-- Node4 -->
<g id="Node000004" class="node">
<title>Node4</title>
<g id="a_Node000004"><a xlink:href="device_8hpp.html" target="_top" xlink:title=" ">
<polygon fill="white" stroke="#666666" points="219.12,-185 155.88,-185 155.88,-165.75 219.12,-165.75 219.12,-185"/>
<text text-anchor="middle" x="187.5" y="-171.5" font-family="Helvetica,sans-Serif" font-size="10.00">device.hpp</text>
</a>
</g>
</g>
<!-- Node3&#45;&gt;Node4 -->
<g id="edge3_Node000003_Node000004" class="edge">
<title>Node3&#45;&gt;Node4</title>
<g id="a_edge3_Node000003_Node000004"><a xlink:title=" ">
<path fill="none" stroke="#63b8ff" d="M80.04,-216.67C105.82,-207 140.41,-194.04 163.29,-185.45"/>
<polygon fill="#63b8ff" stroke="#63b8ff" points="79.14,-213.27 71.01,-220.06 81.6,-219.83 79.14,-213.27"/>
</a>
</g>
</g>
<!-- Node9 -->
<g id="Node000009" class="node">
<title>Node9</title>
<g id="a_Node000009"><a xlink:href="render__graph_8cpp.html" target="_top" xlink:title=" ">
<polygon fill="white" stroke="#666666" points="91,-185 0,-185 0,-165.75 91,-165.75 91,-185"/>
<text text-anchor="middle" x="45.5" y="-171.5" font-family="Helvetica,sans-Serif" font-size="10.00">render_graph.cpp</text>
</a>
</g>
</g>
<!-- Node3&#45;&gt;Node9 -->
<g id="edge9_Node000003_Node000009" class="edge">
<title>Node3&#45;&gt;Node9</title>
<g id="a_edge9_Node000003_Node000009"><a xlink:title=" ">
<path fill="none" stroke="#63b8ff" d="M45.5,-209.38C45.5,-201.09 45.5,-191.92 45.5,-185.36"/>
<polygon fill="#63b8ff" stroke="#63b8ff" points="42,-209.32 45.5,-219.32 49,-209.32 42,-209.32"/>
</a>
</g>
</g>
<!-- Node5 -->
<g id="Node000005" class="node">
<title>Node5</title>
<g id="a_Node000005"><a xlink:href="instance_8hpp.html" target="_top" xlink:title=" ">
<polygon fill="white" stroke="#666666" points="185.25,-129.75 113.75,-129.75 113.75,-110.5 185.25,-110.5 185.25,-129.75"/>
<text text-anchor="middle" x="149.5" y="-116.25" font-family="Helvetica,sans-Serif" font-size="10.00">instance.hpp</text>
</a>
</g>
</g>
<!-- Node4&#45;&gt;Node5 -->
<g id="edge4_Node000004_Node000005" class="edge">
<title>Node4&#45;&gt;Node5</title>
<g id="a_edge4_Node000004_Node000005"><a xlink:title=" ">
<path fill="none" stroke="#63b8ff" d="M174.7,-156.44C168.38,-147.59 161.04,-137.29 155.91,-130.11"/>
<polygon fill="#63b8ff" stroke="#63b8ff" points="171.69,-158.24 180.35,-164.35 177.39,-154.18 171.69,-158.24"/>
</a>
</g>
</g>
<!-- Node8 -->
<g id="Node000008" class="node">
<title>Node8</title>
<g id="a_Node000008"><a xlink:href="vulkan__utils_8hpp.html" target="_top" xlink:title=" ">
<polygon fill="white" stroke="#666666" points="281.75,-74.5 195.25,-74.5 195.25,-55.25 281.75,-55.25 281.75,-74.5"/>
<text text-anchor="middle" x="238.5" y="-61" font-family="Helvetica,sans-Serif" font-size="10.00">vulkan_utils.hpp</text>
</a>
</g>
</g>
<!-- Node4&#45;&gt;Node8 -->
<g id="edge7_Node000004_Node000008" class="edge">
<title>Node4&#45;&gt;Node8</title>
<g id="a_edge7_Node000004_Node000008"><a xlink:title=" ">
<path fill="none" stroke="#63b8ff" d="M196.45,-155.33C207.55,-131.72 226,-92.46 234.27,-74.88"/>
<polygon fill="#63b8ff" stroke="#63b8ff" points="193.4,-153.59 192.32,-164.13 199.74,-156.57 193.4,-153.59"/>
</a>
</g>
</g>
<!-- Node6 -->
<g id="Node000006" class="node">
<title>Node6</title>
<g id="a_Node000006"><a xlink:href="vulkan__instance_8hpp.html" target="_top" xlink:title=" ">
<polygon fill="white" stroke="#666666" points="177.12,-74.5 71.88,-74.5 71.88,-55.25 177.12,-55.25 177.12,-74.5"/>
<text text-anchor="middle" x="124.5" y="-61" font-family="Helvetica,sans-Serif" font-size="10.00">vulkan_instance.hpp</text>
</a>
</g>
</g>
<!-- Node5&#45;&gt;Node6 -->
<g id="edge5_Node000005_Node000006" class="edge">
<title>Node5&#45;&gt;Node6</title>
<g id="a_edge5_Node000005_Node000006"><a xlink:title=" ">
<path fill="none" stroke="#63b8ff" d="M140.54,-100.04C136.51,-91.46 131.94,-81.73 128.72,-74.86"/>
<polygon fill="#63b8ff" stroke="#63b8ff" points="137.31,-101.4 144.73,-108.96 143.65,-98.42 137.31,-101.4"/>
</a>
</g>
</g>
<!-- Node7 -->
<g id="Node000007" class="node">
<title>Node7</title>
<g id="a_Node000007"><a xlink:href="vulkan__instance_8cpp.html" target="_top" xlink:title=" ">
<polygon fill="white" stroke="#666666" points="234.12,-19.25 128.88,-19.25 128.88,0 234.12,0 234.12,-19.25"/>
<text text-anchor="middle" x="181.5" y="-5.75" font-family="Helvetica,sans-Serif" font-size="10.00">vulkan_instance.cpp</text>
</a>
</g>
</g>
<!-- Node6&#45;&gt;Node7 -->
<g id="edge6_Node000006_Node000007" class="edge">
<title>Node6&#45;&gt;Node7</title>
<g id="a_edge6_Node000006_Node000007"><a xlink:title=" ">
<path fill="none" stroke="#63b8ff" d="M142.45,-47.11C152.23,-37.97 163.94,-27.03 171.97,-19.52"/>
<polygon fill="#63b8ff" stroke="#63b8ff" points="140.19,-44.42 135.28,-53.81 144.97,-49.54 140.19,-44.42"/>
</a>
</g>
</g>
<!-- Node8&#45;&gt;Node7 -->
<g id="edge8_Node000008_Node000007" class="edge">
<title>Node8&#45;&gt;Node7</title>
<g id="a_edge8_Node000008_Node000007"><a xlink:title=" ">
<path fill="none" stroke="#63b8ff" d="M220.55,-47.11C210.77,-37.97 199.06,-27.03 191.03,-19.52"/>
<polygon fill="#63b8ff" stroke="#63b8ff" points="218.03,-49.54 227.72,-53.81 222.81,-44.42 218.03,-49.54"/>
</a>
</g>
</g>
<!-- Node11 -->
<g id="Node000011" class="node">
<title>Node11</title>
<g id="a_Node000011"><a xlink:href="texture_8hpp.html" target="_top" xlink:title=" ">
<polygon fill="white" stroke="#666666" points="466.88,-295.5 402.12,-295.5 402.12,-276.25 466.88,-276.25 466.88,-295.5"/>
<text text-anchor="middle" x="434.5" y="-282" font-family="Helvetica,sans-Serif" font-size="10.00">texture.hpp</text>
</a>
</g>
</g>
<!-- Node10&#45;&gt;Node11 -->
<g id="edge11_Node000010_Node000011" class="edge">
<title>Node10&#45;&gt;Node11</title>
<g id="a_edge11_Node000010_Node000011"><a xlink:title=" ">
<path fill="none" stroke="#63b8ff" d="M320.62,-327.3C347.89,-317.62 384.64,-304.57 408.93,-295.95"/>
<polygon fill="#63b8ff" stroke="#63b8ff" points="319.62,-323.94 311.37,-330.59 321.97,-330.54 319.62,-323.94"/>
</a>
</g>
</g>
<!-- Node11&#45;&gt;Node3 -->
<g id="edge16_Node000011_Node000003" class="edge">
<title>Node11&#45;&gt;Node3</title>
<g id="a_edge16_Node000011_Node000003"><a xlink:title=" ">
<path fill="none" stroke="#63b8ff" d="M390.38,-279.37C326.26,-271.28 203.61,-255.5 99.5,-240.25 96.87,-239.86 94.17,-239.46 91.44,-239.05"/>
<polygon fill="#63b8ff" stroke="#63b8ff" points="389.79,-282.82 400.15,-280.6 390.66,-275.88 389.79,-282.82"/>
</a>
</g>
</g>
<!-- Node12 -->
<g id="Node000012" class="node">
<title>Node12</title>
<g id="a_Node000012"><a xlink:href="first__draft_2command__buffer_8hpp.html" target="_top" xlink:title=" ">
<polygon fill="white" stroke="#666666" points="968.88,-240.25 862.12,-240.25 862.12,-221 968.88,-221 968.88,-240.25"/>
<text text-anchor="middle" x="915.5" y="-226.75" font-family="Helvetica,sans-Serif" font-size="10.00">command_buffer.hpp</text>
</a>
</g>
</g>
<!-- Node11&#45;&gt;Node12 -->
<g id="edge12_Node000011_Node000012" class="edge">
<title>Node11&#45;&gt;Node12</title>
<g id="a_edge12_Node000011_Node000012"><a xlink:title=" ">
<path fill="none" stroke="#63b8ff" d="M478.19,-280.69C554.44,-273.28 716.75,-257.04 853.5,-240.25 856.2,-239.92 858.96,-239.57 861.75,-239.21"/>
<polygon fill="#63b8ff" stroke="#63b8ff" points="478.26,-277.17 468.64,-281.61 478.94,-284.13 478.26,-277.17"/>
</a>
</g>
</g>
<!-- Node13 -->
<g id="Node000013" class="node">
<title>Node13</title>
<g id="a_Node000013"><a xlink:href="deprecated_2device_8hpp_source.html" target="_top" xlink:title=" ">
<polygon fill="white" stroke="#666666" points="172.12,-240.25 108.88,-240.25 108.88,-221 172.12,-221 172.12,-240.25"/>
<text text-anchor="middle" x="140.5" y="-226.75" font-family="Helvetica,sans-Serif" font-size="10.00">device.hpp</text>
</a>
</g>
</g>
<!-- Node11&#45;&gt;Node13 -->
<g id="edge13_Node000011_Node000013" class="edge">
<title>Node11&#45;&gt;Node13</title>
<g id="a_edge13_Node000011_Node000013"><a xlink:title=" ">
<path fill="none" stroke="#63b8ff" d="M390.77,-277.72C340.08,-269.3 254.08,-254.64 180.5,-240.25 177.85,-239.73 175.11,-239.18 172.35,-238.61"/>
<polygon fill="#63b8ff" stroke="#63b8ff" points="390.02,-281.14 400.46,-279.32 391.16,-274.23 390.02,-281.14"/>
</a>
</g>
</g>
<!-- Node14 -->
<g id="Node000014" class="node">
<title>Node14</title>
<g id="a_Node000014"><a xlink:href="first__draft_2device_8hpp_source.html" target="_top" xlink:title=" ">
<polygon fill="white" stroke="#666666" points="304.12,-185 240.88,-185 240.88,-165.75 304.12,-165.75 304.12,-185"/>
<text text-anchor="middle" x="272.5" y="-171.5" font-family="Helvetica,sans-Serif" font-size="10.00">device.hpp</text>
</a>
</g>
</g>
<!-- Node11&#45;&gt;Node14 -->
<g id="edge14_Node000011_Node000014" class="edge">
<title>Node11&#45;&gt;Node14</title>
<g id="a_edge14_Node000011_Node000014"><a xlink:title=" ">
<path fill="none" stroke="#63b8ff" d="M478.58,-283.87C545.17,-281.31 666.53,-272.26 693.5,-240.25 699.01,-233.71 699.22,-227.36 693.5,-221 667.57,-192.18 398.38,-180.55 304.55,-177.35"/>
<polygon fill="#63b8ff" stroke="#63b8ff" points="478.6,-280.37 468.72,-284.21 478.84,-287.36 478.6,-280.37"/>
</a>
</g>
</g>
<!-- Node15 -->
<g id="Node000015" class="node">
<title>Node15</title>
<g id="a_Node000015"><a xlink:href="first__draft_2framebuffer_8hpp.html" target="_top" xlink:title=" ">
<polygon fill="white" stroke="#666666" points="372.25,-240.25 288.75,-240.25 288.75,-221 372.25,-221 372.25,-240.25"/>
<text text-anchor="middle" x="330.5" y="-226.75" font-family="Helvetica,sans-Serif" font-size="10.00">framebuffer.hpp</text>
</a>
</g>
</g>
<!-- Node11&#45;&gt;Node15 -->
<g id="edge15_Node000011_Node000015" class="edge">
<title>Node11&#45;&gt;Node15</title>
<g id="a_edge15_Node000011_Node000015"><a xlink:title=" ">
<path fill="none" stroke="#63b8ff" d="M406.64,-270.61C388.08,-261.11 364.24,-248.9 348.23,-240.7"/>
<polygon fill="#63b8ff" stroke="#63b8ff" points="405.01,-273.71 415.51,-275.15 408.2,-267.48 405.01,-273.71"/>
</a>
</g>
</g>
<!-- Node16 -->
<g id="Node000016" class="node">
<title>Node16</title>
<g id="a_Node000016"><a xlink:href="first__draft_2render__pass_8hpp.html" target="_top" xlink:title=" ">
<polygon fill="white" stroke="#666666" points="478.5,-240.25 390.5,-240.25 390.5,-221 478.5,-221 478.5,-240.25"/>
<text text-anchor="middle" x="434.5" y="-226.75" font-family="Helvetica,sans-Serif" font-size="10.00">render_pass.hpp</text>
</a>
</g>
</g>
<!-- Node11&#45;&gt;Node16 -->
<g id="edge17_Node000011_Node000016" class="edge">
<title>Node11&#45;&gt;Node16</title>
<g id="a_edge17_Node000011_Node000016"><a xlink:title=" ">
<path fill="none" stroke="#63b8ff" d="M434.5,-264.63C434.5,-256.34 434.5,-247.17 434.5,-240.61"/>
<polygon fill="#63b8ff" stroke="#63b8ff" points="431,-264.57 434.5,-274.57 438,-264.57 431,-264.57"/>
</a>
</g>
</g>
<!-- Node17 -->
<g id="Node000017" class="node">
<title>Node17</title>
<g id="a_Node000017"><a xlink:href="deprecated_2render__pass_8hpp.html" target="_top" xlink:title=" ">
<polygon fill="white" stroke="#666666" points="584.5,-240.25 496.5,-240.25 496.5,-221 584.5,-221 584.5,-240.25"/>
<text text-anchor="middle" x="540.5" y="-226.75" font-family="Helvetica,sans-Serif" font-size="10.00">render_pass.hpp</text>
</a>
</g>
</g>
<!-- Node11&#45;&gt;Node17 -->
<g id="edge18_Node000011_Node000017" class="edge">
<title>Node11&#45;&gt;Node17</title>
<g id="a_edge18_Node000011_Node000017"><a xlink:title=" ">
<path fill="none" stroke="#63b8ff" d="M462.63,-270.74C481.59,-261.22 506.03,-248.94 522.43,-240.7"/>
<polygon fill="#63b8ff" stroke="#63b8ff" points="461.2,-267.55 453.83,-275.16 464.34,-273.8 461.2,-267.55"/>
</a>
</g>
</g>
<!-- Node18 -->
<g id="Node000018" class="node">
<title>Node18</title>
<g id="a_Node000018"><a xlink:href="first__draft_2swapchain_8hpp.html" target="_top" xlink:title=" ">
<polygon fill="white" stroke="#666666" points="684.12,-240.25 602.88,-240.25 602.88,-221 684.12,-221 684.12,-240.25"/>
<text text-anchor="middle" x="643.5" y="-226.75" font-family="Helvetica,sans-Serif" font-size="10.00">swapchain.hpp</text>
</a>
</g>
</g>
<!-- Node11&#45;&gt;Node18 -->
<g id="edge19_Node000011_Node000018" class="edge">
<title>Node11&#45;&gt;Node18</title>
<g id="a_edge19_Node000011_Node000018"><a xlink:title=" ">
<path fill="none" stroke="#63b8ff" d="M478.03,-273.78C516.53,-263.97 572.03,-249.84 607.93,-240.69"/>
<polygon fill="#63b8ff" stroke="#63b8ff" points="477.45,-270.32 468.62,-276.18 479.18,-277.1 477.45,-270.32"/>
</a>
</g>
</g>
<!-- Node19 -->
<g id="Node000019" class="node">
<title>Node19</title>
<g id="a_Node000019"><a xlink:href="swapchain_8hpp.html" target="_top" xlink:title=" ">
<polygon fill="white" stroke="#666666" points="271.12,-240.25 189.88,-240.25 189.88,-221 271.12,-221 271.12,-240.25"/>
<text text-anchor="middle" x="230.5" y="-226.75" font-family="Helvetica,sans-Serif" font-size="10.00">swapchain.hpp</text>
</a>
</g>
</g>
<!-- Node11&#45;&gt;Node19 -->
<g id="edge20_Node000011_Node000019" class="edge">
<title>Node11&#45;&gt;Node19</title>
<g id="a_edge20_Node000011_Node000019"><a xlink:title=" ">
<path fill="none" stroke="#63b8ff" d="M390.63,-273.42C353.11,-263.63 299.86,-249.73 265.24,-240.69"/>
<polygon fill="#63b8ff" stroke="#63b8ff" points="389.7,-276.8 400.26,-275.94 391.47,-270.02 389.7,-276.8"/>
</a>
</g>
</g>
<!-- Node20 -->
<g id="Node000020" class="node">
<title>Node20</title>
<g id="a_Node000020"><a xlink:href="synchronization_8hpp.html" target="_top" xlink:title=" ">
<polygon fill="white" stroke="#666666" points="844,-240.25 741,-240.25 741,-221 844,-221 844,-240.25"/>
<text text-anchor="middle" x="792.5" y="-226.75" font-family="Helvetica,sans-Serif" font-size="10.00">synchronization.hpp</text>
</a>
</g>
</g>
<!-- Node11&#45;&gt;Node20 -->
<g id="edge23_Node000011_Node000020" class="edge">
<title>Node11&#45;&gt;Node20</title>
<g id="a_edge23_Node000011_Node000020"><a xlink:title=" ">
<path fill="none" stroke="#63b8ff" d="M478.49,-278.33C544.76,-268.47 669.92,-249.86 740.57,-239.35"/>
<polygon fill="#63b8ff" stroke="#63b8ff" points="478.09,-274.85 468.72,-279.79 479.12,-281.78 478.09,-274.85"/>
</a>
</g>
</g>
<!-- Node19&#45;&gt;Node4 -->
<g id="edge21_Node000019_Node000004" class="edge">
<title>Node19&#45;&gt;Node4</title>
<g id="a_edge21_Node000019_Node000004"><a xlink:title=" ">
<path fill="none" stroke="#63b8ff" d="M216.25,-211.97C209.05,-203.06 200.62,-192.62 194.75,-185.36"/>
<polygon fill="#63b8ff" stroke="#63b8ff" points="213.44,-214.07 222.45,-219.65 218.89,-209.68 213.44,-214.07"/>
</a>
</g>
</g>
<!-- Node19&#45;&gt;Node14 -->
<g id="edge22_Node000019_Node000014" class="edge">
<title>Node19&#45;&gt;Node14</title>
<g id="a_edge22_Node000019_Node000014"><a xlink:title=" ">
<path fill="none" stroke="#63b8ff" d="M244.42,-211.97C251.46,-203.06 259.69,-192.62 265.41,-185.36"/>
<polygon fill="#63b8ff" stroke="#63b8ff" points="241.82,-209.62 238.37,-219.64 247.31,-213.96 241.82,-209.62"/>
</a>
</g>
</g>
</g>
</svg>

<g id="navigator" transform="translate(0 0)" fill="#404254">
  <rect fill="#f2f5e9" fill-opacity="0.5" stroke="#606060" stroke-width=".5" x="0" y="0" width="60" height="60"/>
  <use id="zoomplus" xlink:href="#zoomPlus" x="17" y="9" onmousedown="handleZoom(evt,'in')"/>
  <use id="zoomminus" xlink:href="#zoomMin" x="42" y="9" onmousedown="handleZoom(evt,'out')"/>
  <use id="reset" xlink:href="#resetDef" x="30" y="36" onmousedown="handleReset()"/>
   <use id="arrowup" xlink:href="#arrowUp" x="0" y="0" onmousedown="handlePan(0,-1)"/>
  <use id="arrowright" xlink:href="#arrowRight" x="0" y="0" onmousedown="handlePan(1,0)"/>
  <use id="arrowdown" xlink:href="#arrowDown" x="0" y="0" onmousedown="handlePan(0,1)"/>
  <use id="arrowleft" xlink:href="#arrowLeft" x="0" y="0" onmousedown="handlePan(-1,0)"/>
</g>
<svg viewBox="0 0 15 15" width="100%" height="30px" preserveAspectRatio="xMaxYMin meet">
 <g id="arrow_out" transform="scale(0.3 0.3)">
  <a xlink:href="filter_8hpp__dep__incl_org.svg" target="_base">
   <rect id="button" ry="5" rx="5" y="6" x="6" height="38" width="38"
        fill="#f2f5e9" fill-opacity="0.5" stroke="#606060" stroke-width="1.0"/>
   <path id="arrow"
     d="M 11.500037,31.436501 C 11.940474,20.09759 22.043105,11.32322 32.158766,21.979434 L 37.068811,17.246167 C 37.068811,17.246167 37.088388,32 37.088388,32 L 22.160133,31.978069 C 22.160133,31.978069 26.997745,27.140456 26.997745,27.140456 C 18.528582,18.264221 13.291696,25.230495 11.500037,31.436501 z"
     style="fill:#404040;"/>
  </a>
 </g>
</svg>

<style type='text/css'>
<![CDATA[
[data-mouse-over-selected='false'] { opacity: 0.7; }
[data-mouse-over-selected='true']  { opacity: 1.0; }
]]>
</style>
<script type="application/ecmascript"><![CDATA[
document.addEventListener('DOMContentLoaded', (event) => {
  highlightEdges();
  highlightAdjacentNodes();
});
]]></script>
</svg>
