<?xml version="1.0" encoding="UTF-8" standalone="no"?>
<!DOCTYPE svg PUBLIC "-//W3C//DTD SVG 1.1//EN"
 "http://www.w3.org/Graphics/SVG/1.1/DTD/svg11.dtd">
<!-- Generated by graphviz version 9.0.0 (20230911.1827)
 -->
<!-- Title: render_pass.hpp Pages: 1 -->
<svg width="963pt" height="248pt"
 viewBox="0.00 0.00 962.75 248.25" xmlns="http://www.w3.org/2000/svg" xmlns:xlink="http://www.w3.org/1999/xlink">
<g id="graph0" class="graph" transform="scale(1 1) rotate(0) translate(4 244.25)">
<title>render_pass.hpp</title>
<!-- Node1 -->
<g id="Node000001" class="node">
<title>Node1</title>
<g id="a_Node000001"><a xlink:title=" ">
<polygon fill="#999999" stroke="#666666" points="749.25,-240.25 661.25,-240.25 661.25,-221 749.25,-221 749.25,-240.25"/>
<text text-anchor="middle" x="705.25" y="-226.75" font-family="Helvetica,sans-Serif" font-size="10.00">render_pass.hpp</text>
</a>
</g>
</g>
<!-- Node2 -->
<g id="Node000002" class="node">
<title>Node2</title>
<g id="a_Node000002"><a xlink:href="math_8hpp.html" target="_top" xlink:title=" ">
<polygon fill="white" stroke="#666666" points="301.25,-185 177.25,-185 177.25,-165.75 301.25,-165.75 301.25,-185"/>
<text text-anchor="middle" x="239.25" y="-171.5" font-family="Helvetica,sans-Serif" font-size="10.00">liger/core/math/math.hpp</text>
</a>
</g>
</g>
<!-- Node1&#45;&gt;Node2 -->
<g id="edge1_Node000001_Node000002" class="edge">
<title>Node1&#45;&gt;Node2</title>
<g id="a_edge1_Node000001_Node000002"><a xlink:title=" ">
<path fill="none" stroke="#63b8ff" d="M660.99,-224.57C580.79,-215.4 410.69,-195.96 312.78,-184.78"/>
<polygon fill="#63b8ff" stroke="#63b8ff" points="313.34,-181.32 303.01,-183.66 312.55,-188.27 313.34,-181.32"/>
</a>
</g>
</g>
<!-- Node8 -->
<g id="Node000008" class="node">
<title>Node8</title>
<g id="a_Node000008"><a xlink:href="format_8hpp.html" target="_top" xlink:title=" ">
<polygon fill="white" stroke="#666666" points="954.75,-129.75 827.75,-129.75 827.75,-110.5 954.75,-110.5 954.75,-129.75"/>
<text text-anchor="middle" x="891.25" y="-116.25" font-family="Helvetica,sans-Serif" font-size="10.00">liger/render/rhi/format.hpp</text>
</a>
</g>
</g>
<!-- Node1&#45;&gt;Node8 -->
<g id="edge8_Node000001_Node000008" class="edge">
<title>Node1&#45;&gt;Node8</title>
<g id="a_edge8_Node000001_Node000008"><a xlink:title=" ">
<path fill="none" stroke="#63b8ff" d="M749.67,-228.12C785.54,-224.62 835.15,-214.31 867.25,-185 879.7,-173.63 885.72,-155.16 888.62,-141"/>
<polygon fill="#63b8ff" stroke="#63b8ff" points="892.02,-141.88 890.2,-131.45 885.11,-140.74 892.02,-141.88"/>
</a>
</g>
</g>
<!-- Node10 -->
<g id="Node000010" class="node">
<title>Node10</title>
<g id="a_Node000010"><a xlink:title=" ">
<polygon fill="#e0e0e0" stroke="#999999" points="858.25,-185 710.25,-185 710.25,-165.75 858.25,-165.75 858.25,-185"/>
<text text-anchor="middle" x="784.25" y="-171.5" font-family="Helvetica,sans-Serif" font-size="10.00">liger/render/rhi/framebuffer.hpp</text>
</a>
</g>
</g>
<!-- Node1&#45;&gt;Node10 -->
<g id="edge10_Node000001_Node000010" class="edge">
<title>Node1&#45;&gt;Node10</title>
<g id="a_edge10_Node000001_Node000010"><a xlink:title=" ">
<path fill="none" stroke="#63b8ff" d="M718.65,-220.59C730.34,-212.71 747.55,-201.11 761.41,-191.77"/>
<polygon fill="#63b8ff" stroke="#63b8ff" points="763.19,-194.79 769.53,-186.3 759.28,-188.99 763.19,-194.79"/>
</a>
</g>
</g>
<!-- Node11 -->
<g id="Node000011" class="node">
<title>Node11</title>
<g id="a_Node000011"><a xlink:href="texture_8hpp.html" target="_top" xlink:title=" ">
<polygon fill="white" stroke="#666666" points="691.88,-185 562.62,-185 562.62,-165.75 691.88,-165.75 691.88,-185"/>
<text text-anchor="middle" x="627.25" y="-171.5" font-family="Helvetica,sans-Serif" font-size="10.00">liger/render/rhi/texture.hpp</text>
</a>
</g>
</g>
<!-- Node1&#45;&gt;Node11 -->
<g id="edge11_Node000001_Node000011" class="edge">
<title>Node1&#45;&gt;Node11</title>
<g id="a_edge11_Node000001_Node000011"><a xlink:title=" ">
<path fill="none" stroke="#63b8ff" d="M692.02,-220.59C680.48,-212.71 663.48,-201.11 649.8,-191.77"/>
<polygon fill="#63b8ff" stroke="#63b8ff" points="652.03,-189.05 641.8,-186.31 648.08,-194.83 652.03,-189.05"/>
</a>
</g>
</g>
<!-- Node3 -->
<g id="Node000003" class="node">
<title>Node3</title>
<g id="a_Node000003"><a xlink:href="math__formatting_8hpp.html" target="_top" xlink:title=" ">
<polygon fill="white" stroke="#666666" points="325.62,-129.75 152.88,-129.75 152.88,-110.5 325.62,-110.5 325.62,-129.75"/>
<text text-anchor="middle" x="239.25" y="-116.25" font-family="Helvetica,sans-Serif" font-size="10.00">liger/core/math/math_formatting.hpp</text>
</a>
</g>
</g>
<!-- Node2&#45;&gt;Node3 -->
<g id="edge2_Node000002_Node000003" class="edge">
<title>Node2&#45;&gt;Node3</title>
<g id="a_edge2_Node000002_Node000003"><a xlink:title=" ">
<path fill="none" stroke="#63b8ff" d="M239.25,-165.58C239.25,-159.07 239.25,-149.92 239.25,-141.62"/>
<polygon fill="#63b8ff" stroke="#63b8ff" points="242.75,-141.62 239.25,-131.62 235.75,-141.62 242.75,-141.62"/>
</a>
</g>
</g>
<!-- Node6 -->
<g id="Node000006" class="node">
<title>Node6</title>
<g id="a_Node000006"><a xlink:href="random_8hpp.html" target="_top" xlink:title=" ">
<polygon fill="white" stroke="#666666" points="134.5,-129.75 0,-129.75 0,-110.5 134.5,-110.5 134.5,-129.75"/>
<text text-anchor="middle" x="67.25" y="-116.25" font-family="Helvetica,sans-Serif" font-size="10.00">liger/core/math/random.hpp</text>
</a>
</g>
</g>
<!-- Node2&#45;&gt;Node6 -->
<g id="edge5_Node000002_Node000006" class="edge">
<title>Node2&#45;&gt;Node6</title>
<g id="a_edge5_Node000002_Node000006"><a xlink:title=" ">
<path fill="none" stroke="#63b8ff" d="M210.07,-165.34C181.78,-156.58 138.64,-143.23 107.17,-133.48"/>
<polygon fill="#63b8ff" stroke="#63b8ff" points="108.6,-130.26 98.02,-130.65 106.53,-136.95 108.6,-130.26"/>
</a>
</g>
</g>
<!-- Node4 -->
<g id="Node000004" class="node">
<title>Node4</title>
<g id="a_Node000004"><a xlink:title=" ">
<polygon fill="#e0e0e0" stroke="#999999" points="269.38,-74.5 209.12,-74.5 209.12,-55.25 269.38,-55.25 269.38,-74.5"/>
<text text-anchor="middle" x="239.25" y="-61" font-family="Helvetica,sans-Serif" font-size="10.00">fmt/core.h</text>
</a>
</g>
</g>
<!-- Node3&#45;&gt;Node4 -->
<g id="edge3_Node000003_Node000004" class="edge">
<title>Node3&#45;&gt;Node4</title>
<g id="a_edge3_Node000003_Node000004"><a xlink:title=" ">
<path fill="none" stroke="#63b8ff" d="M239.25,-110.33C239.25,-103.82 239.25,-94.67 239.25,-86.37"/>
<polygon fill="#63b8ff" stroke="#63b8ff" points="242.75,-86.37 239.25,-76.37 235.75,-86.37 242.75,-86.37"/>
</a>
</g>
</g>
<!-- Node5 -->
<g id="Node000005" class="node">
<title>Node5</title>
<g id="a_Node000005"><a xlink:title=" ">
<polygon fill="#e0e0e0" stroke="#999999" points="184.88,-74.5 115.62,-74.5 115.62,-55.25 184.88,-55.25 184.88,-74.5"/>
<text text-anchor="middle" x="150.25" y="-61" font-family="Helvetica,sans-Serif" font-size="10.00">glm/glm.hpp</text>
</a>
</g>
</g>
<!-- Node3&#45;&gt;Node5 -->
<g id="edge4_Node000003_Node000005" class="edge">
<title>Node3&#45;&gt;Node5</title>
<g id="a_edge4_Node000003_Node000005"><a xlink:title=" ">
<path fill="none" stroke="#63b8ff" d="M224.15,-110.09C210.73,-102.06 190.84,-90.16 175.08,-80.73"/>
<polygon fill="#63b8ff" stroke="#63b8ff" points="177.1,-77.86 166.72,-75.73 173.5,-83.87 177.1,-77.86"/>
</a>
</g>
</g>
<!-- Node6&#45;&gt;Node5 -->
<g id="edge6_Node000006_Node000005" class="edge">
<title>Node6&#45;&gt;Node5</title>
<g id="a_edge6_Node000006_Node000005"><a xlink:title=" ">
<path fill="none" stroke="#63b8ff" d="M81.33,-110.09C93.73,-102.14 112.04,-90.39 126.68,-81"/>
<polygon fill="#63b8ff" stroke="#63b8ff" points="128.3,-84.12 134.83,-75.77 124.52,-78.22 128.3,-84.12"/>
</a>
</g>
</g>
<!-- Node7 -->
<g id="Node000007" class="node">
<title>Node7</title>
<g id="a_Node000007"><a xlink:title=" ">
<polygon fill="#e0e0e0" stroke="#999999" points="91.38,-74.5 43.12,-74.5 43.12,-55.25 91.38,-55.25 91.38,-74.5"/>
<text text-anchor="middle" x="67.25" y="-61" font-family="Helvetica,sans-Serif" font-size="10.00">random</text>
</a>
</g>
</g>
<!-- Node6&#45;&gt;Node7 -->
<g id="edge7_Node000006_Node000007" class="edge">
<title>Node6&#45;&gt;Node7</title>
<g id="a_edge7_Node000006_Node000007"><a xlink:title=" ">
<path fill="none" stroke="#63b8ff" d="M67.25,-110.33C67.25,-103.82 67.25,-94.67 67.25,-86.37"/>
<polygon fill="#63b8ff" stroke="#63b8ff" points="70.75,-86.37 67.25,-76.37 63.75,-86.37 70.75,-86.37"/>
</a>
</g>
</g>
<!-- Node9 -->
<g id="Node000009" class="node">
<title>Node9</title>
<g id="a_Node000009"><a xlink:title=" ">
<polygon fill="#e0e0e0" stroke="#999999" points="789.88,-19.25 744.62,-19.25 744.62,0 789.88,0 789.88,-19.25"/>
<text text-anchor="middle" x="767.25" y="-5.75" font-family="Helvetica,sans-Serif" font-size="10.00">cstdint</text>
</a>
</g>
</g>
<!-- Node8&#45;&gt;Node9 -->
<g id="edge9_Node000008_Node000009" class="edge">
<title>Node8&#45;&gt;Node9</title>
<g id="a_edge9_Node000008_Node000009"><a xlink:title=" ">
<path fill="none" stroke="#63b8ff" d="M884.67,-110.19C874.83,-97.17 855.28,-72.67 835.25,-55.25 822.39,-44.06 806.53,-33.5 793.37,-25.47"/>
<polygon fill="#63b8ff" stroke="#63b8ff" points="795.18,-22.47 784.8,-20.37 791.61,-28.49 795.18,-22.47"/>
</a>
</g>
</g>
<!-- Node11&#45;&gt;Node8 -->
<g id="edge17_Node000011_Node000008" class="edge">
<title>Node11&#45;&gt;Node8</title>
<g id="a_edge17_Node000011_Node000008"><a xlink:title=" ">
<path fill="none" stroke="#63b8ff" d="M672.33,-165.28C717.32,-156.21 786.57,-142.24 835.1,-132.45"/>
<polygon fill="#63b8ff" stroke="#63b8ff" points="835.76,-135.89 844.87,-130.48 834.37,-129.03 835.76,-135.89"/>
</a>
</g>
</g>
<!-- Node12 -->
<g id="Node000012" class="node">
<title>Node12</title>
<g id="a_Node000012"><a xlink:href="device__resource__state_8hpp.html" target="_top" xlink:title=" ">
<polygon fill="white" stroke="#666666" points="541,-129.75 343.5,-129.75 343.5,-110.5 541,-110.5 541,-129.75"/>
<text text-anchor="middle" x="442.25" y="-116.25" font-family="Helvetica,sans-Serif" font-size="10.00">liger/render/rhi/device_resource_state.hpp</text>
</a>
</g>
</g>
<!-- Node11&#45;&gt;Node12 -->
<g id="edge12_Node000011_Node000012" class="edge">
<title>Node11&#45;&gt;Node12</title>
<g id="a_edge12_Node000011_Node000012"><a xlink:title=" ">
<path fill="none" stroke="#63b8ff" d="M595.87,-165.34C565.3,-156.54 518.63,-143.11 484.74,-133.36"/>
<polygon fill="#63b8ff" stroke="#63b8ff" points="485.82,-130.02 475.24,-130.62 483.88,-136.75 485.82,-130.02"/>
</a>
</g>
</g>
<!-- Node15 -->
<g id="Node000015" class="node">
<title>Node15</title>
<g id="a_Node000015"><a xlink:href="extent_8hpp.html" target="_top" xlink:title=" ">
<polygon fill="white" stroke="#666666" points="690.38,-74.5 564.12,-74.5 564.12,-55.25 690.38,-55.25 690.38,-74.5"/>
<text text-anchor="middle" x="627.25" y="-61" font-family="Helvetica,sans-Serif" font-size="10.00">liger/render/rhi/extent.hpp</text>
</a>
</g>
</g>
<!-- Node11&#45;&gt;Node15 -->
<g id="edge15_Node000011_Node000015" class="edge">
<title>Node11&#45;&gt;Node15</title>
<g id="a_edge15_Node000011_Node000015"><a xlink:title=" ">
<path fill="none" stroke="#63b8ff" d="M627.25,-165.5C627.25,-148.25 627.25,-109.83 627.25,-86.06"/>
<polygon fill="#63b8ff" stroke="#63b8ff" points="630.75,-86.39 627.25,-76.39 623.75,-86.39 630.75,-86.39"/>
</a>
</g>
</g>
<!-- Node16 -->
<g id="Node000016" class="node">
<title>Node16</title>
<g id="a_Node000016"><a xlink:href="sampler__info_8hpp.html" target="_top" xlink:title=" ">
<polygon fill="white" stroke="#666666" points="809.62,-129.75 654.88,-129.75 654.88,-110.5 809.62,-110.5 809.62,-129.75"/>
<text text-anchor="middle" x="732.25" y="-116.25" font-family="Helvetica,sans-Serif" font-size="10.00">liger/render/rhi/sampler_info.hpp</text>
</a>
</g>
</g>
<!-- Node11&#45;&gt;Node16 -->
<g id="edge18_Node000011_Node000016" class="edge">
<title>Node11&#45;&gt;Node16</title>
<g id="a_edge18_Node000011_Node000016"><a xlink:title=" ">
<path fill="none" stroke="#63b8ff" d="M645.06,-165.34C661.28,-157.12 685.49,-144.84 704.28,-135.31"/>
<polygon fill="#63b8ff" stroke="#63b8ff" points="705.67,-138.53 713,-130.89 702.5,-132.29 705.67,-138.53"/>
</a>
</g>
</g>
<!-- Node18 -->
<g id="Node000018" class="node">
<title>Node18</title>
<g id="a_Node000018"><a xlink:title=" ">
<polygon fill="#e0e0e0" stroke="#999999" points="599.25,-129.75 559.25,-129.75 559.25,-110.5 599.25,-110.5 599.25,-129.75"/>
<text text-anchor="middle" x="579.25" y="-116.25" font-family="Helvetica,sans-Serif" font-size="10.00">string</text>
</a>
</g>
</g>
<!-- Node11&#45;&gt;Node18 -->
<g id="edge21_Node000011_Node000018" class="edge">
<title>Node11&#45;&gt;Node18</title>
<g id="a_edge21_Node000011_Node000018"><a xlink:title=" ">
<path fill="none" stroke="#63b8ff" d="M619.32,-165.58C612.69,-158.23 603.03,-147.51 594.86,-138.44"/>
<polygon fill="#63b8ff" stroke="#63b8ff" points="597.66,-136.32 588.36,-131.23 592.46,-141 597.66,-136.32"/>
</a>
</g>
</g>
<!-- Node13 -->
<g id="Node000013" class="node">
<title>Node13</title>
<g id="a_Node000013"><a xlink:href="enum__bitmask_8hpp.html" target="_top" xlink:title=" ">
<polygon fill="white" stroke="#666666" points="512.88,-74.5 371.62,-74.5 371.62,-55.25 512.88,-55.25 512.88,-74.5"/>
<text text-anchor="middle" x="442.25" y="-61" font-family="Helvetica,sans-Serif" font-size="10.00">liger/core/enum_bitmask.hpp</text>
</a>
</g>
</g>
<!-- Node12&#45;&gt;Node13 -->
<g id="edge13_Node000012_Node000013" class="edge">
<title>Node12&#45;&gt;Node13</title>
<g id="a_edge13_Node000012_Node000013"><a xlink:title=" ">
<path fill="none" stroke="#63b8ff" d="M442.25,-110.33C442.25,-103.82 442.25,-94.67 442.25,-86.37"/>
<polygon fill="#63b8ff" stroke="#63b8ff" points="445.75,-86.37 442.25,-76.37 438.75,-86.37 445.75,-86.37"/>
</a>
</g>
</g>
<!-- Node14 -->
<g id="Node000014" class="node">
<title>Node14</title>
<g id="a_Node000014"><a xlink:title=" ">
<polygon fill="#e0e0e0" stroke="#999999" points="473.12,-19.25 411.38,-19.25 411.38,0 473.12,0 473.12,-19.25"/>
<text text-anchor="middle" x="442.25" y="-5.75" font-family="Helvetica,sans-Serif" font-size="10.00">type_traits</text>
</a>
</g>
</g>
<!-- Node13&#45;&gt;Node14 -->
<g id="edge14_Node000013_Node000014" class="edge">
<title>Node13&#45;&gt;Node14</title>
<g id="a_edge14_Node000013_Node000014"><a xlink:title=" ">
<path fill="none" stroke="#63b8ff" d="M442.25,-55.08C442.25,-48.57 442.25,-39.42 442.25,-31.12"/>
<polygon fill="#63b8ff" stroke="#63b8ff" points="445.75,-31.12 442.25,-21.12 438.75,-31.12 445.75,-31.12"/>
</a>
</g>
</g>
<!-- Node15&#45;&gt;Node9 -->
<g id="edge16_Node000015_Node000009" class="edge">
<title>Node15&#45;&gt;Node9</title>
<g id="a_edge16_Node000015_Node000009"><a xlink:title=" ">
<path fill="none" stroke="#63b8ff" d="M651,-54.84C673.7,-46.21 708.14,-33.11 733.65,-23.41"/>
<polygon fill="#63b8ff" stroke="#63b8ff" points="734.8,-26.71 742.9,-19.89 732.31,-20.17 734.8,-26.71"/>
</a>
</g>
</g>
<!-- Node17 -->
<g id="Node000017" class="node">
<title>Node17</title>
<g id="a_Node000017"><a xlink:href="filter_8hpp.html" target="_top" xlink:title=" ">
<polygon fill="white" stroke="#666666" points="825.88,-74.5 708.62,-74.5 708.62,-55.25 825.88,-55.25 825.88,-74.5"/>
<text text-anchor="middle" x="767.25" y="-61" font-family="Helvetica,sans-Serif" font-size="10.00">liger/render/rhi/filter.hpp</text>
</a>
</g>
</g>
<!-- Node16&#45;&gt;Node17 -->
<g id="edge19_Node000016_Node000017" class="edge">
<title>Node16&#45;&gt;Node17</title>
<g id="a_edge19_Node000016_Node000017"><a xlink:title=" ">
<path fill="none" stroke="#63b8ff" d="M738.03,-110.33C742.66,-103.28 749.32,-93.15 755.12,-84.33"/>
<polygon fill="#63b8ff" stroke="#63b8ff" points="757.95,-86.4 760.51,-76.12 752.1,-82.56 757.95,-86.4"/>
</a>
</g>
</g>
<!-- Node17&#45;&gt;Node9 -->
<g id="edge20_Node000017_Node000009" class="edge">
<title>Node17&#45;&gt;Node9</title>
<g id="a_edge20_Node000017_Node000009"><a xlink:title=" ">
<path fill="none" stroke="#63b8ff" d="M767.25,-55.08C767.25,-48.57 767.25,-39.42 767.25,-31.12"/>
<polygon fill="#63b8ff" stroke="#63b8ff" points="770.75,-31.12 767.25,-21.12 763.75,-31.12 770.75,-31.12"/>
</a>
</g>
</g>
</g>
</svg>
