<?xml version="1.0" encoding="UTF-8" standalone="no"?>
<!DOCTYPE svg PUBLIC "-//W3C//DTD SVG 1.1//EN"
 "http://www.w3.org/Graphics/SVG/1.1/DTD/svg11.dtd">
<!-- Generated by graphviz version 9.0.0 (20230911.1827)
 -->
<!-- Title: command_buffer.hpp Pages: 1 -->
<svg width="1666pt" height="248pt"
 viewBox="0.00 0.00 1666.25 248.25" xmlns="http://www.w3.org/2000/svg" xmlns:xlink="http://www.w3.org/1999/xlink">
<g id="graph0" class="graph" transform="scale(1 1) rotate(0) translate(4 244.25)">
<title>command_buffer.hpp</title>
<!-- Node1 -->
<g id="Node000001" class="node">
<title>Node1</title>
<g id="a_Node000001"><a xlink:title=" ">
<polygon fill="#999999" stroke="#666666" points="966.12,-240.25 859.38,-240.25 859.38,-221 966.12,-221 966.12,-240.25"/>
<text text-anchor="middle" x="912.75" y="-226.75" font-family="Helvetica,sans-Serif" font-size="10.00">command_buffer.hpp</text>
</a>
</g>
</g>
<!-- Node2 -->
<g id="Node000002" class="node">
<title>Node2</title>
<g id="a_Node000002"><a xlink:href="buffer_8hpp.html" target="_top" xlink:title=" ">
<polygon fill="white" stroke="#666666" points="297.38,-185 174.12,-185 174.12,-165.75 297.38,-165.75 297.38,-185"/>
<text text-anchor="middle" x="235.75" y="-171.5" font-family="Helvetica,sans-Serif" font-size="10.00">liger/render/rhi/buffer.hpp</text>
</a>
</g>
</g>
<!-- Node1&#45;&gt;Node2 -->
<g id="edge1_Node000001_Node000002" class="edge">
<title>Node1&#45;&gt;Node2</title>
<g id="a_edge1_Node000001_Node000002"><a xlink:title=" ">
<path fill="none" stroke="#63b8ff" d="M859.21,-225.94C755.84,-218.73 521.6,-202.01 324.75,-185 319.52,-184.55 314.11,-184.06 308.67,-183.57"/>
<polygon fill="#63b8ff" stroke="#63b8ff" points="309.29,-180.11 299,-182.67 308.64,-187.08 309.29,-180.11"/>
</a>
</g>
</g>
<!-- Node7 -->
<g id="Node000007" class="node">
<title>Node7</title>
<g id="a_Node000007"><a xlink:title=" ">
<polygon fill="#e0e0e0" stroke="#999999" points="903.5,-185 730,-185 730,-165.75 903.5,-165.75 903.5,-185"/>
<text text-anchor="middle" x="816.75" y="-171.5" font-family="Helvetica,sans-Serif" font-size="10.00">liger/render/rhi/command_queue.hpp</text>
</a>
</g>
</g>
<!-- Node1&#45;&gt;Node7 -->
<g id="edge6_Node000001_Node000007" class="edge">
<title>Node1&#45;&gt;Node7</title>
<g id="a_edge6_Node000001_Node000007"><a xlink:title=" ">
<path fill="none" stroke="#63b8ff" d="M896.46,-220.59C881.85,-212.48 860.12,-200.43 843.04,-190.96"/>
<polygon fill="#63b8ff" stroke="#63b8ff" points="844.88,-187.98 834.44,-186.19 841.49,-194.1 844.88,-187.98"/>
</a>
</g>
</g>
<!-- Node8 -->
<g id="Node000008" class="node">
<title>Node8</title>
<g id="a_Node000008"><a xlink:href="compute__pipeline_8hpp.html" target="_top" xlink:title=" ">
<polygon fill="white" stroke="#666666" points="1096.25,-185 921.25,-185 921.25,-165.75 1096.25,-165.75 1096.25,-185"/>
<text text-anchor="middle" x="1008.75" y="-171.5" font-family="Helvetica,sans-Serif" font-size="10.00">liger/render/rhi/compute_pipeline.hpp</text>
</a>
</g>
</g>
<!-- Node1&#45;&gt;Node8 -->
<g id="edge7_Node000001_Node000008" class="edge">
<title>Node1&#45;&gt;Node8</title>
<g id="a_edge7_Node000001_Node000008"><a xlink:title=" ">
<path fill="none" stroke="#63b8ff" d="M929.04,-220.59C943.65,-212.48 965.38,-200.43 982.46,-190.96"/>
<polygon fill="#63b8ff" stroke="#63b8ff" points="984.01,-194.1 991.06,-186.19 980.62,-187.98 984.01,-194.1"/>
</a>
</g>
</g>
<!-- Node9 -->
<g id="Node000009" class="node">
<title>Node9</title>
<g id="a_Node000009"><a xlink:href="graphics__pipeline_8hpp.html" target="_top" xlink:title=" ">
<polygon fill="white" stroke="#666666" points="711.88,-185 537.62,-185 537.62,-165.75 711.88,-165.75 711.88,-185"/>
<text text-anchor="middle" x="624.75" y="-171.5" font-family="Helvetica,sans-Serif" font-size="10.00">liger/render/rhi/graphics_pipeline.hpp</text>
</a>
</g>
</g>
<!-- Node1&#45;&gt;Node9 -->
<g id="edge8_Node000001_Node000009" class="edge">
<title>Node1&#45;&gt;Node9</title>
<g id="a_edge8_Node000001_Node000009"><a xlink:title=" ">
<path fill="none" stroke="#63b8ff" d="M863.57,-220.53C814.18,-211.4 737.99,-197.31 685,-187.51"/>
<polygon fill="#63b8ff" stroke="#63b8ff" points="685.69,-184.08 675.22,-185.71 684.41,-190.97 685.69,-184.08"/>
</a>
</g>
</g>
<!-- Node13 -->
<g id="Node000013" class="node">
<title>Node13</title>
<g id="a_Node000013"><a xlink:title=" ">
<polygon fill="#e0e0e0" stroke="#999999" points="1267,-185 1114.5,-185 1114.5,-165.75 1267,-165.75 1267,-185"/>
<text text-anchor="middle" x="1190.75" y="-171.5" font-family="Helvetica,sans-Serif" font-size="10.00">liger/render/rhi/render_pass.hpp</text>
</a>
</g>
</g>
<!-- Node1&#45;&gt;Node13 -->
<g id="edge12_Node000001_Node000013" class="edge">
<title>Node1&#45;&gt;Node13</title>
<g id="a_edge12_Node000001_Node000013"><a xlink:title=" ">
<path fill="none" stroke="#63b8ff" d="M960.22,-220.53C1007.8,-211.42 1081.13,-197.37 1132.27,-187.58"/>
<polygon fill="#63b8ff" stroke="#63b8ff" points="1132.82,-191.03 1141.99,-185.72 1131.51,-184.16 1132.82,-191.03"/>
</a>
</g>
</g>
<!-- Node14 -->
<g id="Node000014" class="node">
<title>Node14</title>
<g id="a_Node000014"><a xlink:title=" ">
<polygon fill="#e0e0e0" stroke="#999999" points="1418.25,-185 1285.25,-185 1285.25,-165.75 1418.25,-165.75 1418.25,-185"/>
<text text-anchor="middle" x="1351.75" y="-171.5" font-family="Helvetica,sans-Serif" font-size="10.00">liger/render/rhi/sampler.hpp</text>
</a>
</g>
</g>
<!-- Node1&#45;&gt;Node14 -->
<g id="edge13_Node000001_Node000014" class="edge">
<title>Node1&#45;&gt;Node14</title>
<g id="a_edge13_Node000001_Node000014"><a xlink:title=" ">
<path fill="none" stroke="#63b8ff" d="M966.58,-223.1C1043.46,-213.77 1185.16,-196.58 1273.6,-185.85"/>
<polygon fill="#63b8ff" stroke="#63b8ff" points="1273.9,-189.34 1283.41,-184.66 1273.06,-182.39 1273.9,-189.34"/>
</a>
</g>
</g>
<!-- Node15 -->
<g id="Node000015" class="node">
<title>Node15</title>
<g id="a_Node000015"><a xlink:title=" ">
<polygon fill="#e0e0e0" stroke="#999999" points="1603.5,-185 1436,-185 1436,-165.75 1603.5,-165.75 1603.5,-185"/>
<text text-anchor="middle" x="1519.75" y="-171.5" font-family="Helvetica,sans-Serif" font-size="10.00">liger/render/rhi/synchronization.hpp</text>
</a>
</g>
</g>
<!-- Node1&#45;&gt;Node15 -->
<g id="edge14_Node000001_Node000015" class="edge">
<title>Node1&#45;&gt;Node15</title>
<g id="a_edge14_Node000001_Node000015"><a xlink:title=" ">
<path fill="none" stroke="#63b8ff" d="M966.51,-225.09C1058.19,-217.33 1250.97,-200.9 1424.15,-185.32"/>
<polygon fill="#63b8ff" stroke="#63b8ff" points="1424.37,-188.81 1434.02,-184.43 1423.74,-181.84 1424.37,-188.81"/>
</a>
</g>
</g>
<!-- Node16 -->
<g id="Node000016" class="node">
<title>Node16</title>
<g id="a_Node000016"><a xlink:href="texture_8hpp.html" target="_top" xlink:title=" ">
<polygon fill="white" stroke="#666666" points="463.38,-185 334.12,-185 334.12,-165.75 463.38,-165.75 463.38,-185"/>
<text text-anchor="middle" x="398.75" y="-171.5" font-family="Helvetica,sans-Serif" font-size="10.00">liger/render/rhi/texture.hpp</text>
</a>
</g>
</g>
<!-- Node1&#45;&gt;Node16 -->
<g id="edge15_Node000001_Node000016" class="edge">
<title>Node1&#45;&gt;Node16</title>
<g id="a_edge15_Node000001_Node000016"><a xlink:title=" ">
<path fill="none" stroke="#63b8ff" d="M859.2,-224.08C767.53,-214.58 580.27,-195.18 474.99,-184.27"/>
<polygon fill="#63b8ff" stroke="#63b8ff" points="475.63,-180.82 465.32,-183.27 474.91,-187.78 475.63,-180.82"/>
</a>
</g>
</g>
<!-- Node17 -->
<g id="Node000017" class="node">
<title>Node17</title>
<g id="a_Node000017"><a xlink:href="extent_8hpp.html" target="_top" xlink:title=" ">
<polygon fill="white" stroke="#666666" points="572.88,-129.75 446.62,-129.75 446.62,-110.5 572.88,-110.5 572.88,-129.75"/>
<text text-anchor="middle" x="509.75" y="-116.25" font-family="Helvetica,sans-Serif" font-size="10.00">liger/render/rhi/extent.hpp</text>
</a>
</g>
</g>
<!-- Node1&#45;&gt;Node17 -->
<g id="edge25_Node000001_Node000017" class="edge">
<title>Node1&#45;&gt;Node17</title>
<g id="a_edge25_Node000001_Node000017"><a xlink:title=" ">
<path fill="none" stroke="#63b8ff" d="M859.08,-230.43C765.45,-230.73 577.57,-226.01 528.75,-185 516.14,-174.41 511.68,-155.85 510.2,-141.46"/>
<polygon fill="#63b8ff" stroke="#63b8ff" points="513.71,-141.48 509.63,-131.7 506.72,-141.89 513.71,-141.48"/>
</a>
</g>
</g>
<!-- Node20 -->
<g id="Node000020" class="node">
<title>Node20</title>
<g id="a_Node000020"><a xlink:title=" ">
<polygon fill="#e0e0e0" stroke="#999999" points="1658.25,-185 1621.25,-185 1621.25,-165.75 1658.25,-165.75 1658.25,-185"/>
<text text-anchor="middle" x="1639.75" y="-171.5" font-family="Helvetica,sans-Serif" font-size="10.00">span</text>
</a>
</g>
</g>
<!-- Node1&#45;&gt;Node20 -->
<g id="edge24_Node000001_Node000020" class="edge">
<title>Node1&#45;&gt;Node20</title>
<g id="a_edge24_Node000001_Node000020"><a xlink:title=" ">
<path fill="none" stroke="#63b8ff" d="M966.51,-227.91C1104.39,-223.23 1469.05,-209.12 1610.06,-184.99"/>
<polygon fill="#63b8ff" stroke="#63b8ff" points="1610.31,-188.5 1619.53,-183.28 1609.07,-181.61 1610.31,-188.5"/>
</a>
</g>
</g>
<!-- Node3 -->
<g id="Node000003" class="node">
<title>Node3</title>
<g id="a_Node000003"><a xlink:href="device__resource__state_8hpp.html" target="_top" xlink:title=" ">
<polygon fill="white" stroke="#666666" points="197.5,-129.75 0,-129.75 0,-110.5 197.5,-110.5 197.5,-129.75"/>
<text text-anchor="middle" x="98.75" y="-116.25" font-family="Helvetica,sans-Serif" font-size="10.00">liger/render/rhi/device_resource_state.hpp</text>
</a>
</g>
</g>
<!-- Node2&#45;&gt;Node3 -->
<g id="edge2_Node000002_Node000003" class="edge">
<title>Node2&#45;&gt;Node3</title>
<g id="a_edge2_Node000002_Node000003"><a xlink:title=" ">
<path fill="none" stroke="#63b8ff" d="M212.51,-165.34C190.56,-156.81 157.4,-143.92 132.54,-134.26"/>
<polygon fill="#63b8ff" stroke="#63b8ff" points="134.1,-131.11 123.51,-130.75 131.57,-137.64 134.1,-131.11"/>
</a>
</g>
</g>
<!-- Node6 -->
<g id="Node000006" class="node">
<title>Node6</title>
<g id="a_Node000006"><a xlink:title=" ">
<polygon fill="#e0e0e0" stroke="#999999" points="255.75,-129.75 215.75,-129.75 215.75,-110.5 255.75,-110.5 255.75,-129.75"/>
<text text-anchor="middle" x="235.75" y="-116.25" font-family="Helvetica,sans-Serif" font-size="10.00">string</text>
</a>
</g>
</g>
<!-- Node2&#45;&gt;Node6 -->
<g id="edge5_Node000002_Node000006" class="edge">
<title>Node2&#45;&gt;Node6</title>
<g id="a_edge5_Node000002_Node000006"><a xlink:title=" ">
<path fill="none" stroke="#63b8ff" d="M235.75,-165.58C235.75,-159.07 235.75,-149.92 235.75,-141.62"/>
<polygon fill="#63b8ff" stroke="#63b8ff" points="239.25,-141.62 235.75,-131.62 232.25,-141.62 239.25,-141.62"/>
</a>
</g>
</g>
<!-- Node4 -->
<g id="Node000004" class="node">
<title>Node4</title>
<g id="a_Node000004"><a xlink:href="enum__bitmask_8hpp.html" target="_top" xlink:title=" ">
<polygon fill="white" stroke="#666666" points="169.38,-74.5 28.12,-74.5 28.12,-55.25 169.38,-55.25 169.38,-74.5"/>
<text text-anchor="middle" x="98.75" y="-61" font-family="Helvetica,sans-Serif" font-size="10.00">liger/core/enum_bitmask.hpp</text>
</a>
</g>
</g>
<!-- Node3&#45;&gt;Node4 -->
<g id="edge3_Node000003_Node000004" class="edge">
<title>Node3&#45;&gt;Node4</title>
<g id="a_edge3_Node000003_Node000004"><a xlink:title=" ">
<path fill="none" stroke="#63b8ff" d="M98.75,-110.33C98.75,-103.82 98.75,-94.67 98.75,-86.37"/>
<polygon fill="#63b8ff" stroke="#63b8ff" points="102.25,-86.37 98.75,-76.37 95.25,-86.37 102.25,-86.37"/>
</a>
</g>
</g>
<!-- Node5 -->
<g id="Node000005" class="node">
<title>Node5</title>
<g id="a_Node000005"><a xlink:title=" ">
<polygon fill="#e0e0e0" stroke="#999999" points="129.62,-19.25 67.88,-19.25 67.88,0 129.62,0 129.62,-19.25"/>
<text text-anchor="middle" x="98.75" y="-5.75" font-family="Helvetica,sans-Serif" font-size="10.00">type_traits</text>
</a>
</g>
</g>
<!-- Node4&#45;&gt;Node5 -->
<g id="edge4_Node000004_Node000005" class="edge">
<title>Node4&#45;&gt;Node5</title>
<g id="a_edge4_Node000004_Node000005"><a xlink:title=" ">
<path fill="none" stroke="#63b8ff" d="M98.75,-55.08C98.75,-48.57 98.75,-39.42 98.75,-31.12"/>
<polygon fill="#63b8ff" stroke="#63b8ff" points="102.25,-31.12 98.75,-21.12 95.25,-31.12 102.25,-31.12"/>
</a>
</g>
</g>
<!-- Node10 -->
<g id="Node000010" class="node">
<title>Node10</title>
<g id="a_Node000010"><a xlink:href="format_8hpp.html" target="_top" xlink:title=" ">
<polygon fill="white" stroke="#666666" points="718.25,-129.75 591.25,-129.75 591.25,-110.5 718.25,-110.5 718.25,-129.75"/>
<text text-anchor="middle" x="654.75" y="-116.25" font-family="Helvetica,sans-Serif" font-size="10.00">liger/render/rhi/format.hpp</text>
</a>
</g>
</g>
<!-- Node9&#45;&gt;Node10 -->
<g id="edge9_Node000009_Node000010" class="edge">
<title>Node9&#45;&gt;Node10</title>
<g id="a_edge9_Node000009_Node000010"><a xlink:title=" ">
<path fill="none" stroke="#63b8ff" d="M629.7,-165.58C633.63,-158.61 639.26,-148.62 644.19,-139.87"/>
<polygon fill="#63b8ff" stroke="#63b8ff" points="647.09,-141.86 648.95,-131.43 640.99,-138.42 647.09,-141.86"/>
</a>
</g>
</g>
<!-- Node12 -->
<g id="Node000012" class="node">
<title>Node12</title>
<g id="a_Node000012"><a xlink:title=" ">
<polygon fill="#e0e0e0" stroke="#999999" points="779.25,-129.75 736.25,-129.75 736.25,-110.5 779.25,-110.5 779.25,-129.75"/>
<text text-anchor="middle" x="757.75" y="-116.25" font-family="Helvetica,sans-Serif" font-size="10.00">vector</text>
</a>
</g>
</g>
<!-- Node9&#45;&gt;Node12 -->
<g id="edge11_Node000009_Node000012" class="edge">
<title>Node9&#45;&gt;Node12</title>
<g id="a_edge11_Node000009_Node000012"><a xlink:title=" ">
<path fill="none" stroke="#63b8ff" d="M647.31,-165.34C668.78,-156.75 701.3,-143.73 725.5,-134.04"/>
<polygon fill="#63b8ff" stroke="#63b8ff" points="726.57,-137.38 734.56,-130.41 723.97,-130.88 726.57,-137.38"/>
</a>
</g>
</g>
<!-- Node11 -->
<g id="Node000011" class="node">
<title>Node11</title>
<g id="a_Node000011"><a xlink:title=" ">
<polygon fill="#e0e0e0" stroke="#999999" points="532.38,-19.25 487.12,-19.25 487.12,0 532.38,0 532.38,-19.25"/>
<text text-anchor="middle" x="509.75" y="-5.75" font-family="Helvetica,sans-Serif" font-size="10.00">cstdint</text>
</a>
</g>
</g>
<!-- Node10&#45;&gt;Node11 -->
<g id="edge10_Node000010_Node000011" class="edge">
<title>Node10&#45;&gt;Node11</title>
<g id="a_edge10_Node000010_Node000011"><a xlink:title=" ">
<path fill="none" stroke="#63b8ff" d="M642.88,-110.25C618.35,-91.89 561.75,-49.54 530.84,-26.41"/>
<polygon fill="#63b8ff" stroke="#63b8ff" points="533.1,-23.72 522.99,-20.53 528.9,-29.33 533.1,-23.72"/>
</a>
</g>
</g>
<!-- Node16&#45;&gt;Node3 -->
<g id="edge16_Node000016_Node000003" class="edge">
<title>Node16&#45;&gt;Node3</title>
<g id="a_edge16_Node000016_Node000003"><a xlink:title=" ">
<path fill="none" stroke="#63b8ff" d="M347.52,-165.28C295.93,-156.12 216.29,-141.99 161.07,-132.19"/>
<polygon fill="#63b8ff" stroke="#63b8ff" points="161.97,-128.79 151.51,-130.49 160.75,-135.68 161.97,-128.79"/>
</a>
</g>
</g>
<!-- Node16&#45;&gt;Node6 -->
<g id="edge23_Node000016_Node000006" class="edge">
<title>Node16&#45;&gt;Node6</title>
<g id="a_edge23_Node000016_Node000006"><a xlink:title=" ">
<path fill="none" stroke="#63b8ff" d="M371.1,-165.34C342.1,-155.87 296.65,-141.02 266.53,-131.18"/>
<polygon fill="#63b8ff" stroke="#63b8ff" points="267.84,-127.93 257.25,-128.15 265.67,-134.58 267.84,-127.93"/>
</a>
</g>
</g>
<!-- Node16&#45;&gt;Node10 -->
<g id="edge19_Node000016_Node000010" class="edge">
<title>Node16&#45;&gt;Node10</title>
<g id="a_edge19_Node000016_Node000010"><a xlink:title=" ">
<path fill="none" stroke="#63b8ff" d="M442.47,-165.28C486,-156.23 552.96,-142.3 600.01,-132.51"/>
<polygon fill="#63b8ff" stroke="#63b8ff" points="600.65,-135.95 609.73,-130.49 599.23,-129.1 600.65,-135.95"/>
</a>
</g>
</g>
<!-- Node16&#45;&gt;Node17 -->
<g id="edge17_Node000016_Node000017" class="edge">
<title>Node16&#45;&gt;Node17</title>
<g id="a_edge17_Node000016_Node000017"><a xlink:title=" ">
<path fill="none" stroke="#63b8ff" d="M417.58,-165.34C434.8,-157.08 460.55,-144.73 480.46,-135.18"/>
<polygon fill="#63b8ff" stroke="#63b8ff" points="481.96,-138.34 489.46,-130.86 478.93,-132.03 481.96,-138.34"/>
</a>
</g>
</g>
<!-- Node18 -->
<g id="Node000018" class="node">
<title>Node18</title>
<g id="a_Node000018"><a xlink:href="sampler__info_8hpp.html" target="_top" xlink:title=" ">
<polygon fill="white" stroke="#666666" points="428.12,-129.75 273.38,-129.75 273.38,-110.5 428.12,-110.5 428.12,-129.75"/>
<text text-anchor="middle" x="350.75" y="-116.25" font-family="Helvetica,sans-Serif" font-size="10.00">liger/render/rhi/sampler_info.hpp</text>
</a>
</g>
</g>
<!-- Node16&#45;&gt;Node18 -->
<g id="edge20_Node000016_Node000018" class="edge">
<title>Node16&#45;&gt;Node18</title>
<g id="a_edge20_Node000016_Node000018"><a xlink:title=" ">
<path fill="none" stroke="#63b8ff" d="M390.82,-165.58C384.19,-158.23 374.53,-147.51 366.36,-138.44"/>
<polygon fill="#63b8ff" stroke="#63b8ff" points="369.16,-136.32 359.86,-131.23 363.96,-141 369.16,-136.32"/>
</a>
</g>
</g>
<!-- Node17&#45;&gt;Node11 -->
<g id="edge18_Node000017_Node000011" class="edge">
<title>Node17&#45;&gt;Node11</title>
<g id="a_edge18_Node000017_Node000011"><a xlink:title=" ">
<path fill="none" stroke="#63b8ff" d="M509.75,-110.25C509.75,-93 509.75,-54.58 509.75,-30.81"/>
<polygon fill="#63b8ff" stroke="#63b8ff" points="513.25,-31.14 509.75,-21.14 506.25,-31.14 513.25,-31.14"/>
</a>
</g>
</g>
<!-- Node19 -->
<g id="Node000019" class="node">
<title>Node19</title>
<g id="a_Node000019"><a xlink:href="filter_8hpp.html" target="_top" xlink:title=" ">
<polygon fill="white" stroke="#666666" points="445.38,-74.5 328.12,-74.5 328.12,-55.25 445.38,-55.25 445.38,-74.5"/>
<text text-anchor="middle" x="386.75" y="-61" font-family="Helvetica,sans-Serif" font-size="10.00">liger/render/rhi/filter.hpp</text>
</a>
</g>
</g>
<!-- Node18&#45;&gt;Node19 -->
<g id="edge21_Node000018_Node000019" class="edge">
<title>Node18&#45;&gt;Node19</title>
<g id="a_edge21_Node000018_Node000019"><a xlink:title=" ">
<path fill="none" stroke="#63b8ff" d="M356.69,-110.33C361.46,-103.28 368.31,-93.15 374.27,-84.33"/>
<polygon fill="#63b8ff" stroke="#63b8ff" points="377.13,-86.36 379.83,-76.11 371.33,-82.44 377.13,-86.36"/>
</a>
</g>
</g>
<!-- Node19&#45;&gt;Node11 -->
<g id="edge22_Node000019_Node000011" class="edge">
<title>Node19&#45;&gt;Node11</title>
<g id="a_edge22_Node000019_Node000011"><a xlink:title=" ">
<path fill="none" stroke="#63b8ff" d="M407.62,-54.84C427.05,-46.43 456.29,-33.77 478.51,-24.15"/>
<polygon fill="#63b8ff" stroke="#63b8ff" points="479.61,-27.49 487.39,-20.3 476.83,-21.06 479.61,-27.49"/>
</a>
</g>
</g>
</g>
</svg>
