<?xml version="1.0" encoding="UTF-8" standalone="no"?>
<!DOCTYPE svg PUBLIC "-//W3C//DTD SVG 1.1//EN"
 "http://www.w3.org/Graphics/SVG/1.1/DTD/svg11.dtd">
<!-- Generated by graphviz version 9.0.0 (20230911.1827)
 -->
<!-- Title: swapchain.hpp Pages: 1 -->
<svg width="842pt" height="248pt"
 viewBox="0.00 0.00 841.75 248.25" xmlns="http://www.w3.org/2000/svg" xmlns:xlink="http://www.w3.org/1999/xlink">
<g id="graph0" class="graph" transform="scale(1 1) rotate(0) translate(4 244.25)">
<title>swapchain.hpp</title>
<!-- Node1 -->
<g id="Node000001" class="node">
<title>Node1</title>
<g id="a_Node000001"><a xlink:title=" ">
<polygon fill="#999999" stroke="#666666" points="401.38,-240.25 320.12,-240.25 320.12,-221 401.38,-221 401.38,-240.25"/>
<text text-anchor="middle" x="360.75" y="-226.75" font-family="Helvetica,sans-Serif" font-size="10.00">swapchain.hpp</text>
</a>
</g>
</g>
<!-- Node2 -->
<g id="Node000002" class="node">
<title>Node2</title>
<g id="a_Node000002"><a xlink:title=" ">
<polygon fill="#e0e0e0" stroke="#999999" points="173.5,-185 0,-185 0,-165.75 173.5,-165.75 173.5,-185"/>
<text text-anchor="middle" x="86.75" y="-171.5" font-family="Helvetica,sans-Serif" font-size="10.00">liger/render/rhi/command_queue.hpp</text>
</a>
</g>
</g>
<!-- Node1&#45;&gt;Node2 -->
<g id="edge1_Node000001_Node000002" class="edge">
<title>Node1&#45;&gt;Node2</title>
<g id="a_edge1_Node000001_Node000002"><a xlink:title=" ">
<path fill="none" stroke="#63b8ff" d="M319.73,-221.65C273.27,-212.62 197.23,-197.85 144.72,-187.64"/>
<polygon fill="#63b8ff" stroke="#63b8ff" points="145.54,-184.23 135.05,-185.76 144.2,-191.11 145.54,-184.23"/>
</a>
</g>
</g>
<!-- Node3 -->
<g id="Node000003" class="node">
<title>Node3</title>
<g id="a_Node000003"><a xlink:title=" ">
<polygon fill="#e0e0e0" stroke="#999999" points="362,-185 191.5,-185 191.5,-165.75 362,-165.75 362,-185"/>
<text text-anchor="middle" x="276.75" y="-171.5" font-family="Helvetica,sans-Serif" font-size="10.00">liger/render/rhi/device_resource.hpp</text>
</a>
</g>
</g>
<!-- Node1&#45;&gt;Node3 -->
<g id="edge2_Node000001_Node000003" class="edge">
<title>Node1&#45;&gt;Node3</title>
<g id="a_edge2_Node000001_Node000003"><a xlink:title=" ">
<path fill="none" stroke="#63b8ff" d="M346.5,-220.59C333.95,-212.64 315.42,-200.89 300.61,-191.5"/>
<polygon fill="#63b8ff" stroke="#63b8ff" points="302.67,-188.66 292.35,-186.26 298.92,-194.57 302.67,-188.66"/>
</a>
</g>
</g>
<!-- Node4 -->
<g id="Node000004" class="node">
<title>Node4</title>
<g id="a_Node000004"><a xlink:title=" ">
<polygon fill="#e0e0e0" stroke="#999999" points="511.5,-185 380,-185 380,-165.75 511.5,-165.75 511.5,-185"/>
<text text-anchor="middle" x="445.75" y="-171.5" font-family="Helvetica,sans-Serif" font-size="10.00">liger/render/rhi/surface.hpp</text>
</a>
</g>
</g>
<!-- Node1&#45;&gt;Node4 -->
<g id="edge3_Node000001_Node000004" class="edge">
<title>Node1&#45;&gt;Node4</title>
<g id="a_edge3_Node000001_Node000004"><a xlink:title=" ">
<path fill="none" stroke="#63b8ff" d="M375.17,-220.59C387.87,-212.64 406.62,-200.89 421.61,-191.5"/>
<polygon fill="#63b8ff" stroke="#63b8ff" points="423.36,-194.53 429.98,-186.26 419.65,-188.6 423.36,-194.53"/>
</a>
</g>
</g>
<!-- Node5 -->
<g id="Node000005" class="node">
<title>Node5</title>
<g id="a_Node000005"><a xlink:href="texture_8hpp.html" target="_top" xlink:title=" ">
<polygon fill="white" stroke="#666666" points="658.38,-185 529.12,-185 529.12,-165.75 658.38,-165.75 658.38,-185"/>
<text text-anchor="middle" x="593.75" y="-171.5" font-family="Helvetica,sans-Serif" font-size="10.00">liger/render/rhi/texture.hpp</text>
</a>
</g>
</g>
<!-- Node1&#45;&gt;Node5 -->
<g id="edge4_Node000001_Node000005" class="edge">
<title>Node1&#45;&gt;Node5</title>
<g id="a_edge4_Node000001_Node000005"><a xlink:title=" ">
<path fill="none" stroke="#63b8ff" d="M400.54,-220.53C439.91,-211.53 500.33,-197.73 543.11,-187.95"/>
<polygon fill="#63b8ff" stroke="#63b8ff" points="543.68,-191.41 552.65,-185.77 542.12,-184.58 543.68,-191.41"/>
</a>
</g>
</g>
<!-- Node6 -->
<g id="Node000006" class="node">
<title>Node6</title>
<g id="a_Node000006"><a xlink:href="device__resource__state_8hpp.html" target="_top" xlink:title=" ">
<polygon fill="white" stroke="#666666" points="462.5,-129.75 265,-129.75 265,-110.5 462.5,-110.5 462.5,-129.75"/>
<text text-anchor="middle" x="363.75" y="-116.25" font-family="Helvetica,sans-Serif" font-size="10.00">liger/render/rhi/device_resource_state.hpp</text>
</a>
</g>
</g>
<!-- Node5&#45;&gt;Node6 -->
<g id="edge5_Node000005_Node000006" class="edge">
<title>Node5&#45;&gt;Node6</title>
<g id="a_edge5_Node000005_Node000006"><a xlink:title=" ">
<path fill="none" stroke="#63b8ff" d="M554.47,-165.28C515.69,-156.3 456.22,-142.53 414.01,-132.76"/>
<polygon fill="#63b8ff" stroke="#63b8ff" points="414.87,-129.37 404.34,-130.52 413.29,-136.19 414.87,-129.37"/>
</a>
</g>
</g>
<!-- Node9 -->
<g id="Node000009" class="node">
<title>Node9</title>
<g id="a_Node000009"><a xlink:href="extent_8hpp.html" target="_top" xlink:title=" ">
<polygon fill="white" stroke="#666666" points="538.88,-74.5 412.62,-74.5 412.62,-55.25 538.88,-55.25 538.88,-74.5"/>
<text text-anchor="middle" x="475.75" y="-61" font-family="Helvetica,sans-Serif" font-size="10.00">liger/render/rhi/extent.hpp</text>
</a>
</g>
</g>
<!-- Node5&#45;&gt;Node9 -->
<g id="edge8_Node000005_Node000009" class="edge">
<title>Node5&#45;&gt;Node9</title>
<g id="a_edge8_Node000005_Node000009"><a xlink:title=" ">
<path fill="none" stroke="#63b8ff" d="M584.09,-165.5C564.39,-147.38 519.26,-105.88 493.9,-82.57"/>
<polygon fill="#63b8ff" stroke="#63b8ff" points="496.38,-80.09 486.65,-75.9 491.65,-85.25 496.38,-80.09"/>
</a>
</g>
</g>
<!-- Node11 -->
<g id="Node000011" class="node">
<title>Node11</title>
<g id="a_Node000011"><a xlink:href="format_8hpp.html" target="_top" xlink:title=" ">
<polygon fill="white" stroke="#666666" points="684.25,-74.5 557.25,-74.5 557.25,-55.25 684.25,-55.25 684.25,-74.5"/>
<text text-anchor="middle" x="620.75" y="-61" font-family="Helvetica,sans-Serif" font-size="10.00">liger/render/rhi/format.hpp</text>
</a>
</g>
</g>
<!-- Node5&#45;&gt;Node11 -->
<g id="edge10_Node000005_Node000011" class="edge">
<title>Node5&#45;&gt;Node11</title>
<g id="a_edge10_Node000005_Node000011"><a xlink:title=" ">
<path fill="none" stroke="#63b8ff" d="M595.96,-165.5C600.27,-148.17 609.9,-109.48 615.81,-85.74"/>
<polygon fill="#63b8ff" stroke="#63b8ff" points="619.13,-86.89 618.14,-76.35 612.33,-85.2 619.13,-86.89"/>
</a>
</g>
</g>
<!-- Node12 -->
<g id="Node000012" class="node">
<title>Node12</title>
<g id="a_Node000012"><a xlink:href="sampler__info_8hpp.html" target="_top" xlink:title=" ">
<polygon fill="white" stroke="#666666" points="776.12,-129.75 621.38,-129.75 621.38,-110.5 776.12,-110.5 776.12,-129.75"/>
<text text-anchor="middle" x="698.75" y="-116.25" font-family="Helvetica,sans-Serif" font-size="10.00">liger/render/rhi/sampler_info.hpp</text>
</a>
</g>
</g>
<!-- Node5&#45;&gt;Node12 -->
<g id="edge12_Node000005_Node000012" class="edge">
<title>Node5&#45;&gt;Node12</title>
<g id="a_edge12_Node000005_Node000012"><a xlink:title=" ">
<path fill="none" stroke="#63b8ff" d="M611.56,-165.34C627.78,-157.12 651.99,-144.84 670.78,-135.31"/>
<polygon fill="#63b8ff" stroke="#63b8ff" points="672.17,-138.53 679.5,-130.89 669,-132.29 672.17,-138.53"/>
</a>
</g>
</g>
<!-- Node14 -->
<g id="Node000014" class="node">
<title>Node14</title>
<g id="a_Node000014"><a xlink:title=" ">
<polygon fill="#e0e0e0" stroke="#999999" points="833.75,-129.75 793.75,-129.75 793.75,-110.5 833.75,-110.5 833.75,-129.75"/>
<text text-anchor="middle" x="813.75" y="-116.25" font-family="Helvetica,sans-Serif" font-size="10.00">string</text>
</a>
</g>
</g>
<!-- Node5&#45;&gt;Node14 -->
<g id="edge15_Node000005_Node000014" class="edge">
<title>Node5&#45;&gt;Node14</title>
<g id="a_edge15_Node000005_Node000014"><a xlink:title=" ">
<path fill="none" stroke="#63b8ff" d="M636.03,-165.25C672.51,-157.22 726.82,-144.85 782.69,-130.18"/>
<polygon fill="#63b8ff" stroke="#63b8ff" points="783.28,-133.64 792.05,-127.7 781.49,-126.88 783.28,-133.64"/>
</a>
</g>
</g>
<!-- Node7 -->
<g id="Node000007" class="node">
<title>Node7</title>
<g id="a_Node000007"><a xlink:href="enum__bitmask_8hpp.html" target="_top" xlink:title=" ">
<polygon fill="white" stroke="#666666" points="394.38,-74.5 253.12,-74.5 253.12,-55.25 394.38,-55.25 394.38,-74.5"/>
<text text-anchor="middle" x="323.75" y="-61" font-family="Helvetica,sans-Serif" font-size="10.00">liger/core/enum_bitmask.hpp</text>
</a>
</g>
</g>
<!-- Node6&#45;&gt;Node7 -->
<g id="edge6_Node000006_Node000007" class="edge">
<title>Node6&#45;&gt;Node7</title>
<g id="a_edge6_Node000006_Node000007"><a xlink:title=" ">
<path fill="none" stroke="#63b8ff" d="M357.14,-110.33C351.79,-103.21 344.07,-92.93 337.4,-84.05"/>
<polygon fill="#63b8ff" stroke="#63b8ff" points="340.21,-81.96 331.41,-76.07 334.62,-86.17 340.21,-81.96"/>
</a>
</g>
</g>
<!-- Node8 -->
<g id="Node000008" class="node">
<title>Node8</title>
<g id="a_Node000008"><a xlink:title=" ">
<polygon fill="#e0e0e0" stroke="#999999" points="354.62,-19.25 292.88,-19.25 292.88,0 354.62,0 354.62,-19.25"/>
<text text-anchor="middle" x="323.75" y="-5.75" font-family="Helvetica,sans-Serif" font-size="10.00">type_traits</text>
</a>
</g>
</g>
<!-- Node7&#45;&gt;Node8 -->
<g id="edge7_Node000007_Node000008" class="edge">
<title>Node7&#45;&gt;Node8</title>
<g id="a_edge7_Node000007_Node000008"><a xlink:title=" ">
<path fill="none" stroke="#63b8ff" d="M323.75,-55.08C323.75,-48.57 323.75,-39.42 323.75,-31.12"/>
<polygon fill="#63b8ff" stroke="#63b8ff" points="327.25,-31.12 323.75,-21.12 320.25,-31.12 327.25,-31.12"/>
</a>
</g>
</g>
<!-- Node10 -->
<g id="Node000010" class="node">
<title>Node10</title>
<g id="a_Node000010"><a xlink:title=" ">
<polygon fill="#e0e0e0" stroke="#999999" points="643.38,-19.25 598.12,-19.25 598.12,0 643.38,0 643.38,-19.25"/>
<text text-anchor="middle" x="620.75" y="-5.75" font-family="Helvetica,sans-Serif" font-size="10.00">cstdint</text>
</a>
</g>
</g>
<!-- Node9&#45;&gt;Node10 -->
<g id="edge9_Node000009_Node000010" class="edge">
<title>Node9&#45;&gt;Node10</title>
<g id="a_edge9_Node000009_Node000010"><a xlink:title=" ">
<path fill="none" stroke="#63b8ff" d="M500.35,-54.84C524.24,-46.07 560.71,-32.68 587.25,-22.93"/>
<polygon fill="#63b8ff" stroke="#63b8ff" points="588.35,-26.25 596.53,-19.52 585.93,-19.68 588.35,-26.25"/>
</a>
</g>
</g>
<!-- Node11&#45;&gt;Node10 -->
<g id="edge11_Node000011_Node000010" class="edge">
<title>Node11&#45;&gt;Node10</title>
<g id="a_edge11_Node000011_Node000010"><a xlink:title=" ">
<path fill="none" stroke="#63b8ff" d="M620.75,-55.08C620.75,-48.57 620.75,-39.42 620.75,-31.12"/>
<polygon fill="#63b8ff" stroke="#63b8ff" points="624.25,-31.12 620.75,-21.12 617.25,-31.12 624.25,-31.12"/>
</a>
</g>
</g>
<!-- Node13 -->
<g id="Node000013" class="node">
<title>Node13</title>
<g id="a_Node000013"><a xlink:href="filter_8hpp.html" target="_top" xlink:title=" ">
<polygon fill="white" stroke="#666666" points="819.38,-74.5 702.12,-74.5 702.12,-55.25 819.38,-55.25 819.38,-74.5"/>
<text text-anchor="middle" x="760.75" y="-61" font-family="Helvetica,sans-Serif" font-size="10.00">liger/render/rhi/filter.hpp</text>
</a>
</g>
</g>
<!-- Node12&#45;&gt;Node13 -->
<g id="edge13_Node000012_Node000013" class="edge">
<title>Node12&#45;&gt;Node13</title>
<g id="a_edge13_Node000012_Node000013"><a xlink:title=" ">
<path fill="none" stroke="#63b8ff" d="M709.27,-110.09C718.14,-102.47 731.06,-91.37 741.74,-82.2"/>
<polygon fill="#63b8ff" stroke="#63b8ff" points="743.93,-84.93 749.24,-75.76 739.37,-79.62 743.93,-84.93"/>
</a>
</g>
</g>
<!-- Node13&#45;&gt;Node10 -->
<g id="edge14_Node000013_Node000010" class="edge">
<title>Node13&#45;&gt;Node10</title>
<g id="a_edge14_Node000013_Node000010"><a xlink:title=" ">
<path fill="none" stroke="#63b8ff" d="M737,-54.84C714.3,-46.21 679.86,-33.11 654.35,-23.41"/>
<polygon fill="#63b8ff" stroke="#63b8ff" points="655.69,-20.17 645.1,-19.89 653.2,-26.71 655.69,-20.17"/>
</a>
</g>
</g>
</g>
</svg>
