<?xml version="1.0" encoding="UTF-8" standalone="no"?>
<!DOCTYPE svg PUBLIC "-//W3C//DTD SVG 1.1//EN"
 "http://www.w3.org/Graphics/SVG/1.1/DTD/svg11.dtd">
<!-- Generated by graphviz version 9.0.0 (20230911.1827)
 -->
<!-- Title: texture.hpp Pages: 1 -->
<svg width="686pt" height="138pt"
 viewBox="0.00 0.00 685.62 137.75" xmlns="http://www.w3.org/2000/svg" xmlns:xlink="http://www.w3.org/1999/xlink">
<g id="graph0" class="graph" transform="scale(1 1) rotate(0) translate(4 133.75)">
<title>texture.hpp</title>
<!-- Node1 -->
<g id="Node000001" class="node">
<title>Node1</title>
<g id="a_Node000001"><a xlink:title=" ">
<polygon fill="#999999" stroke="#666666" points="443,-129.75 378.25,-129.75 378.25,-110.5 443,-110.5 443,-129.75"/>
<text text-anchor="middle" x="410.62" y="-116.25" font-family="Helvetica,sans-Serif" font-size="10.00">texture.hpp</text>
</a>
</g>
</g>
<!-- Node2 -->
<g id="Node000002" class="node">
<title>Node2</title>
<g id="a_Node000002"><a xlink:href="enum__bitmask_8hpp.html" target="_top" xlink:title=" ">
<polygon fill="white" stroke="#666666" points="141.25,-74.5 0,-74.5 0,-55.25 141.25,-55.25 141.25,-74.5"/>
<text text-anchor="middle" x="70.62" y="-61" font-family="Helvetica,sans-Serif" font-size="10.00">liger/core/enum_bitmask.hpp</text>
</a>
</g>
</g>
<!-- Node1&#45;&gt;Node2 -->
<g id="edge1_Node000001_Node000002" class="edge">
<title>Node1&#45;&gt;Node2</title>
<g id="a_edge1_Node000001_Node000002"><a xlink:title=" ">
<path fill="none" stroke="#63b8ff" d="M378.02,-114.02C323.52,-105.48 212.71,-88.13 140.1,-76.76"/>
<polygon fill="#63b8ff" stroke="#63b8ff" points="140.7,-73.31 130.28,-75.22 139.62,-80.22 140.7,-73.31"/>
</a>
</g>
</g>
<!-- Node4 -->
<g id="Node000004" class="node">
<title>Node4</title>
<g id="a_Node000004"><a xlink:title=" ">
<polygon fill="#e0e0e0" stroke="#999999" points="329.88,-74.5 159.38,-74.5 159.38,-55.25 329.88,-55.25 329.88,-74.5"/>
<text text-anchor="middle" x="244.62" y="-61" font-family="Helvetica,sans-Serif" font-size="10.00">liger/render/rhi/device_resource.hpp</text>
</a>
</g>
</g>
<!-- Node1&#45;&gt;Node4 -->
<g id="edge3_Node000001_Node000004" class="edge">
<title>Node1&#45;&gt;Node4</title>
<g id="a_edge3_Node000001_Node000004"><a xlink:title=" ">
<path fill="none" stroke="#63b8ff" d="M382.47,-110.09C355.28,-101.37 313.88,-88.09 283.55,-78.36"/>
<polygon fill="#63b8ff" stroke="#63b8ff" points="284.96,-75.14 274.36,-75.41 282.82,-81.8 284.96,-75.14"/>
</a>
</g>
</g>
<!-- Node5 -->
<g id="Node000005" class="node">
<title>Node5</title>
<g id="a_Node000005"><a xlink:href="extent_8hpp.html" target="_top" xlink:title=" ">
<polygon fill="white" stroke="#666666" points="473.75,-74.5 347.5,-74.5 347.5,-55.25 473.75,-55.25 473.75,-74.5"/>
<text text-anchor="middle" x="410.62" y="-61" font-family="Helvetica,sans-Serif" font-size="10.00">liger/render/rhi/extent.hpp</text>
</a>
</g>
</g>
<!-- Node1&#45;&gt;Node5 -->
<g id="edge4_Node000001_Node000005" class="edge">
<title>Node1&#45;&gt;Node5</title>
<g id="a_edge4_Node000001_Node000005"><a xlink:title=" ">
<path fill="none" stroke="#63b8ff" d="M410.62,-110.33C410.62,-103.82 410.62,-94.67 410.62,-86.37"/>
<polygon fill="#63b8ff" stroke="#63b8ff" points="414.13,-86.37 410.63,-76.37 407.13,-86.37 414.13,-86.37"/>
</a>
</g>
</g>
<!-- Node7 -->
<g id="Node000007" class="node">
<title>Node7</title>
<g id="a_Node000007"><a xlink:href="format_8hpp.html" target="_top" xlink:title=" ">
<polygon fill="white" stroke="#666666" points="619.12,-74.5 492.12,-74.5 492.12,-55.25 619.12,-55.25 619.12,-74.5"/>
<text text-anchor="middle" x="555.62" y="-61" font-family="Helvetica,sans-Serif" font-size="10.00">liger/render/rhi/format.hpp</text>
</a>
</g>
</g>
<!-- Node1&#45;&gt;Node7 -->
<g id="edge6_Node000001_Node000007" class="edge">
<title>Node1&#45;&gt;Node7</title>
<g id="a_edge6_Node000001_Node000007"><a xlink:title=" ">
<path fill="none" stroke="#63b8ff" d="M435.22,-110.09C458.55,-101.52 493.86,-88.56 520.22,-78.88"/>
<polygon fill="#63b8ff" stroke="#63b8ff" points="521.31,-82.21 529.49,-75.47 518.89,-75.64 521.31,-82.21"/>
</a>
</g>
</g>
<!-- Node8 -->
<g id="Node000008" class="node">
<title>Node8</title>
<g id="a_Node000008"><a xlink:title=" ">
<polygon fill="#e0e0e0" stroke="#999999" points="677.62,-74.5 637.62,-74.5 637.62,-55.25 677.62,-55.25 677.62,-74.5"/>
<text text-anchor="middle" x="657.62" y="-61" font-family="Helvetica,sans-Serif" font-size="10.00">string</text>
</a>
</g>
</g>
<!-- Node1&#45;&gt;Node8 -->
<g id="edge8_Node000001_Node000008" class="edge">
<title>Node1&#45;&gt;Node8</title>
<g id="a_edge8_Node000001_Node000008"><a xlink:title=" ">
<path fill="none" stroke="#63b8ff" d="M443.33,-113.35C484.05,-105.96 555.96,-92.26 626.55,-74.84"/>
<polygon fill="#63b8ff" stroke="#63b8ff" points="627.08,-78.32 635.94,-72.5 625.39,-71.53 627.08,-78.32"/>
</a>
</g>
</g>
<!-- Node3 -->
<g id="Node000003" class="node">
<title>Node3</title>
<g id="a_Node000003"><a xlink:title=" ">
<polygon fill="#e0e0e0" stroke="#999999" points="101.5,-19.25 39.75,-19.25 39.75,0 101.5,0 101.5,-19.25"/>
<text text-anchor="middle" x="70.62" y="-5.75" font-family="Helvetica,sans-Serif" font-size="10.00">type_traits</text>
</a>
</g>
</g>
<!-- Node2&#45;&gt;Node3 -->
<g id="edge2_Node000002_Node000003" class="edge">
<title>Node2&#45;&gt;Node3</title>
<g id="a_edge2_Node000002_Node000003"><a xlink:title=" ">
<path fill="none" stroke="#63b8ff" d="M70.62,-55.08C70.62,-48.57 70.62,-39.42 70.62,-31.12"/>
<polygon fill="#63b8ff" stroke="#63b8ff" points="74.13,-31.12 70.63,-21.12 67.13,-31.12 74.13,-31.12"/>
</a>
</g>
</g>
<!-- Node6 -->
<g id="Node000006" class="node">
<title>Node6</title>
<g id="a_Node000006"><a xlink:title=" ">
<polygon fill="#e0e0e0" stroke="#999999" points="505.25,-19.25 460,-19.25 460,0 505.25,0 505.25,-19.25"/>
<text text-anchor="middle" x="482.62" y="-5.75" font-family="Helvetica,sans-Serif" font-size="10.00">cstdint</text>
</a>
</g>
</g>
<!-- Node5&#45;&gt;Node6 -->
<g id="edge5_Node000005_Node000006" class="edge">
<title>Node5&#45;&gt;Node6</title>
<g id="a_edge5_Node000005_Node000006"><a xlink:title=" ">
<path fill="none" stroke="#63b8ff" d="M422.84,-54.84C433.45,-46.99 449.06,-35.45 461.67,-26.12"/>
<polygon fill="#63b8ff" stroke="#63b8ff" points="463.42,-29.19 469.37,-20.42 459.25,-23.56 463.42,-29.19"/>
</a>
</g>
</g>
<!-- Node7&#45;&gt;Node6 -->
<g id="edge7_Node000007_Node000006" class="edge">
<title>Node7&#45;&gt;Node6</title>
<g id="a_edge7_Node000007_Node000006"><a xlink:title=" ">
<path fill="none" stroke="#63b8ff" d="M543.24,-54.84C532.48,-46.99 516.65,-35.45 503.87,-26.12"/>
<polygon fill="#63b8ff" stroke="#63b8ff" points="506.19,-23.48 496.05,-20.42 502.06,-29.14 506.19,-23.48"/>
</a>
</g>
</g>
</g>
</svg>
