<?xml version="1.0" encoding="UTF-8" standalone="no"?>
<!DOCTYPE svg PUBLIC "-//W3C//DTD SVG 1.1//EN"
 "http://www.w3.org/Graphics/SVG/1.1/DTD/svg11.dtd">
<!-- Generated by graphviz version 9.0.0 (20230911.1827)
 -->
<!-- Title: shader_module.hpp Pages: 1 -->
<svg width="497pt" height="304pt"
 viewBox="0.00 0.00 496.88 303.50" xmlns="http://www.w3.org/2000/svg" xmlns:xlink="http://www.w3.org/1999/xlink">

<svg id="main" version="1.1" xmlns="http://www.w3.org/2000/svg" xmlns:xlink="http://www.w3.org/1999/xlink" xml:space="preserve" onload="init(evt)">
<style type="text/css"><![CDATA[
.node, .edge {opacity: 0.7;}
.node.selected, .edge.selected {opacity: 1;}
.edge:hover path { stroke: red; }
.edge:hover polygon { stroke: red; fill: red; }
]]></style>
<script type="application/ecmascript" xlink:href="svg.min.js"/>
<svg id="graph" class="graph">
<g id="graph0" class="graph" transform="scale(1 1) rotate(0) translate(4 299.5)">
<title>shader_module.hpp</title>
<!-- Node1 -->
<g id="Node000001" class="node">
<title>Node1</title>
<g id="a_Node000001"><a xlink:title=" ">
<polygon fill="#999999" stroke="#666666" points="280,-295.5 179.25,-295.5 179.25,-276.25 280,-276.25 280,-295.5"/>
<text text-anchor="middle" x="229.62" y="-282" font-family="Helvetica,sans-Serif" font-size="10.00">shader_module.hpp</text>
</a>
</g>
</g>
<!-- Node2 -->
<g id="Node000002" class="node">
<title>Node2</title>
<g id="a_Node000002"><a xlink:href="enum__bitmask_8hpp.html" target="_top" xlink:title=" ">
<polygon fill="white" stroke="#666666" points="141.25,-240.25 0,-240.25 0,-221 141.25,-221 141.25,-240.25"/>
<text text-anchor="middle" x="70.62" y="-226.75" font-family="Helvetica,sans-Serif" font-size="10.00">liger/core/enum_bitmask.hpp</text>
</a>
</g>
</g>
<!-- Node1&#45;&gt;Node2 -->
<g id="edge1_Node000001_Node000002" class="edge">
<title>Node1&#45;&gt;Node2</title>
<g id="a_edge1_Node000001_Node000002"><a xlink:title=" ">
<path fill="none" stroke="#63b8ff" d="M202.65,-275.84C176.73,-267.16 137.31,-253.96 108.29,-244.24"/>
<polygon fill="#63b8ff" stroke="#63b8ff" points="109.76,-241.04 99.16,-241.18 107.54,-247.68 109.76,-241.04"/>
</a>
</g>
</g>
<!-- Node4 -->
<g id="Node000004" class="node">
<title>Node4</title>
<g id="a_Node000004"><a xlink:href="default__log_8hpp.html" target="_top" xlink:title=" ">
<polygon fill="white" stroke="#666666" points="299.88,-240.25 159.38,-240.25 159.38,-221 299.88,-221 299.88,-240.25"/>
<text text-anchor="middle" x="229.62" y="-226.75" font-family="Helvetica,sans-Serif" font-size="10.00">liger/core/log/default_log.hpp</text>
</a>
</g>
</g>
<!-- Node1&#45;&gt;Node4 -->
<g id="edge3_Node000001_Node000004" class="edge">
<title>Node1&#45;&gt;Node4</title>
<g id="a_edge3_Node000001_Node000004"><a xlink:title=" ">
<path fill="none" stroke="#63b8ff" d="M229.62,-276.08C229.62,-269.57 229.62,-260.42 229.62,-252.12"/>
<polygon fill="#63b8ff" stroke="#63b8ff" points="233.13,-252.12 229.63,-242.12 226.13,-252.12 233.13,-252.12"/>
</a>
</g>
</g>
<!-- Node12 -->
<g id="Node000012" class="node">
<title>Node12</title>
<g id="a_Node000012"><a xlink:title=" ">
<polygon fill="#e0e0e0" stroke="#999999" points="488.88,-240.25 318.38,-240.25 318.38,-221 488.88,-221 488.88,-240.25"/>
<text text-anchor="middle" x="403.62" y="-226.75" font-family="Helvetica,sans-Serif" font-size="10.00">liger/render/rhi/device_resource.hpp</text>
</a>
</g>
</g>
<!-- Node1&#45;&gt;Node12 -->
<g id="edge12_Node000001_Node000012" class="edge">
<title>Node1&#45;&gt;Node12</title>
<g id="a_edge12_Node000001_Node000012"><a xlink:title=" ">
<path fill="none" stroke="#63b8ff" d="M259.14,-275.84C287.76,-267.08 331.41,-253.73 363.24,-243.98"/>
<polygon fill="#63b8ff" stroke="#63b8ff" points="363.98,-247.42 372.52,-241.15 361.93,-240.73 363.98,-247.42"/>
</a>
</g>
</g>
<!-- Node3 -->
<g id="Node000003" class="node">
<title>Node3</title>
<g id="a_Node000003"><a xlink:title=" ">
<polygon fill="#e0e0e0" stroke="#999999" points="101.5,-185 39.75,-185 39.75,-165.75 101.5,-165.75 101.5,-185"/>
<text text-anchor="middle" x="70.62" y="-171.5" font-family="Helvetica,sans-Serif" font-size="10.00">type_traits</text>
</a>
</g>
</g>
<!-- Node2&#45;&gt;Node3 -->
<g id="edge2_Node000002_Node000003" class="edge">
<title>Node2&#45;&gt;Node3</title>
<g id="a_edge2_Node000002_Node000003"><a xlink:title=" ">
<path fill="none" stroke="#63b8ff" d="M70.62,-220.83C70.62,-214.32 70.62,-205.17 70.62,-196.87"/>
<polygon fill="#63b8ff" stroke="#63b8ff" points="74.13,-196.87 70.63,-186.87 67.13,-196.87 74.13,-196.87"/>
</a>
</g>
</g>
<!-- Node5 -->
<g id="Node000005" class="node">
<title>Node5</title>
<g id="a_Node000005"><a xlink:href="log_8hpp.html" target="_top" xlink:title=" ">
<polygon fill="white" stroke="#666666" points="282.62,-185 176.62,-185 176.62,-165.75 282.62,-165.75 282.62,-185"/>
<text text-anchor="middle" x="229.62" y="-171.5" font-family="Helvetica,sans-Serif" font-size="10.00">liger/core/log/log.hpp</text>
</a>
</g>
</g>
<!-- Node4&#45;&gt;Node5 -->
<g id="edge4_Node000004_Node000005" class="edge">
<title>Node4&#45;&gt;Node5</title>
<g id="a_edge4_Node000004_Node000005"><a xlink:title=" ">
<path fill="none" stroke="#63b8ff" d="M229.62,-220.83C229.62,-214.32 229.62,-205.17 229.62,-196.87"/>
<polygon fill="#63b8ff" stroke="#63b8ff" points="233.13,-196.87 229.63,-186.87 226.13,-196.87 233.13,-196.87"/>
</a>
</g>
</g>
<!-- Node6 -->
<g id="Node000006" class="node">
<title>Node6</title>
<g id="a_Node000006"><a xlink:title=" ">
<polygon fill="#e0e0e0" stroke="#999999" points="201.75,-129.75 141.5,-129.75 141.5,-110.5 201.75,-110.5 201.75,-129.75"/>
<text text-anchor="middle" x="171.62" y="-116.25" font-family="Helvetica,sans-Serif" font-size="10.00">fmt/core.h</text>
</a>
</g>
</g>
<!-- Node5&#45;&gt;Node6 -->
<g id="edge5_Node000005_Node000006" class="edge">
<title>Node5&#45;&gt;Node6</title>
<g id="a_edge5_Node000005_Node000006"><a xlink:title=" ">
<path fill="none" stroke="#63b8ff" d="M219.79,-165.34C211.57,-157.8 199.64,-146.85 189.71,-137.73"/>
<polygon fill="#63b8ff" stroke="#63b8ff" points="192.17,-135.23 182.43,-131.05 187.43,-140.39 192.17,-135.23"/>
</a>
</g>
</g>
<!-- Node7 -->
<g id="Node000007" class="node">
<title>Node7</title>
<g id="a_Node000007"><a xlink:href="log__message_8hpp.html" target="_top" xlink:title=" ">
<polygon fill="white" stroke="#666666" points="352.12,-74.5 201.12,-74.5 201.12,-55.25 352.12,-55.25 352.12,-74.5"/>
<text text-anchor="middle" x="276.62" y="-61" font-family="Helvetica,sans-Serif" font-size="10.00">liger/core/log/log_message.hpp</text>
</a>
</g>
</g>
<!-- Node5&#45;&gt;Node7 -->
<g id="edge6_Node000005_Node000007" class="edge">
<title>Node5&#45;&gt;Node7</title>
<g id="a_edge6_Node000005_Node000007"><a xlink:title=" ">
<path fill="none" stroke="#63b8ff" d="M231.48,-165.42C234.27,-152.82 240.14,-129.26 248.62,-110.5 252.77,-101.34 258.51,-91.83 263.72,-83.95"/>
<polygon fill="#63b8ff" stroke="#63b8ff" points="266.44,-86.17 269.22,-75.95 260.67,-82.2 266.44,-86.17"/>
</a>
</g>
</g>
<!-- Node11 -->
<g id="Node000011" class="node">
<title>Node11</title>
<g id="a_Node000011"><a xlink:href="log__writer_8hpp.html" target="_top" xlink:title=" ">
<polygon fill="white" stroke="#666666" points="391.88,-129.75 257.38,-129.75 257.38,-110.5 391.88,-110.5 391.88,-129.75"/>
<text text-anchor="middle" x="324.62" y="-116.25" font-family="Helvetica,sans-Serif" font-size="10.00">liger/core/log/log_writer.hpp</text>
</a>
</g>
</g>
<!-- Node5&#45;&gt;Node11 -->
<g id="edge10_Node000005_Node000011" class="edge">
<title>Node5&#45;&gt;Node11</title>
<g id="a_edge10_Node000005_Node000011"><a xlink:title=" ">
<path fill="none" stroke="#63b8ff" d="M245.74,-165.34C260.21,-157.23 281.7,-145.18 298.61,-135.71"/>
<polygon fill="#63b8ff" stroke="#63b8ff" points="300.1,-138.89 307.11,-130.94 296.68,-132.78 300.1,-138.89"/>
</a>
</g>
</g>
<!-- Node8 -->
<g id="Node000008" class="node">
<title>Node8</title>
<g id="a_Node000008"><a xlink:title=" ">
<polygon fill="#e0e0e0" stroke="#999999" points="238.25,-19.25 193,-19.25 193,0 238.25,0 238.25,-19.25"/>
<text text-anchor="middle" x="215.62" y="-5.75" font-family="Helvetica,sans-Serif" font-size="10.00">cstdint</text>
</a>
</g>
</g>
<!-- Node7&#45;&gt;Node8 -->
<g id="edge7_Node000007_Node000008" class="edge">
<title>Node7&#45;&gt;Node8</title>
<g id="a_edge7_Node000007_Node000008"><a xlink:title=" ">
<path fill="none" stroke="#63b8ff" d="M266.28,-54.84C257.55,-47.22 244.84,-36.12 234.33,-26.95"/>
<polygon fill="#63b8ff" stroke="#63b8ff" points="236.8,-24.46 226.96,-20.52 232.19,-29.73 236.8,-24.46"/>
</a>
</g>
</g>
<!-- Node9 -->
<g id="Node000009" class="node">
<title>Node9</title>
<g id="a_Node000009"><a xlink:title=" ">
<polygon fill="#e0e0e0" stroke="#999999" points="296.62,-19.25 256.62,-19.25 256.62,0 296.62,0 296.62,-19.25"/>
<text text-anchor="middle" x="276.62" y="-5.75" font-family="Helvetica,sans-Serif" font-size="10.00">string</text>
</a>
</g>
</g>
<!-- Node7&#45;&gt;Node9 -->
<g id="edge8_Node000007_Node000009" class="edge">
<title>Node7&#45;&gt;Node9</title>
<g id="a_edge8_Node000007_Node000009"><a xlink:title=" ">
<path fill="none" stroke="#63b8ff" d="M276.62,-55.08C276.62,-48.57 276.62,-39.42 276.62,-31.12"/>
<polygon fill="#63b8ff" stroke="#63b8ff" points="280.13,-31.12 276.63,-21.12 273.13,-31.12 280.13,-31.12"/>
</a>
</g>
</g>
<!-- Node10 -->
<g id="Node000010" class="node">
<title>Node10</title>
<g id="a_Node000010"><a xlink:title=" ">
<polygon fill="#e0e0e0" stroke="#999999" points="380.38,-19.25 314.88,-19.25 314.88,0 380.38,0 380.38,-19.25"/>
<text text-anchor="middle" x="347.62" y="-5.75" font-family="Helvetica,sans-Serif" font-size="10.00">string_view</text>
</a>
</g>
</g>
<!-- Node7&#45;&gt;Node10 -->
<g id="edge9_Node000007_Node000010" class="edge">
<title>Node7&#45;&gt;Node10</title>
<g id="a_edge9_Node000007_Node000010"><a xlink:title=" ">
<path fill="none" stroke="#63b8ff" d="M288.67,-54.84C299.03,-47.07 314.23,-35.67 326.59,-26.4"/>
<polygon fill="#63b8ff" stroke="#63b8ff" points="328.65,-29.23 334.55,-20.43 324.45,-23.63 328.65,-29.23"/>
</a>
</g>
</g>
<!-- Node11&#45;&gt;Node7 -->
<g id="edge11_Node000011_Node000007" class="edge">
<title>Node11&#45;&gt;Node7</title>
<g id="a_edge11_Node000011_Node000007"><a xlink:title=" ">
<path fill="none" stroke="#63b8ff" d="M316.7,-110.33C310.07,-102.98 300.41,-92.26 292.24,-83.19"/>
<polygon fill="#63b8ff" stroke="#63b8ff" points="295.03,-81.07 285.74,-75.98 289.83,-85.75 295.03,-81.07"/>
</a>
</g>
</g>
</g>
</svg>
</svg>

<style type='text/css'>
<![CDATA[
[data-mouse-over-selected='false'] { opacity: 0.7; }
[data-mouse-over-selected='true']  { opacity: 1.0; }
]]>
</style>
<script type="application/ecmascript"><![CDATA[
document.addEventListener('DOMContentLoaded', (event) => {
  highlightEdges();
  highlightAdjacentNodes();
});
]]></script>
</svg>
