<?xml version="1.0" encoding="UTF-8" standalone="no"?>
<!DOCTYPE svg PUBLIC "-//W3C//DTD SVG 1.1//EN"
 "http://www.w3.org/Graphics/SVG/1.1/DTD/svg11.dtd">
<!-- Generated by graphviz version 9.0.0 (20230911.1827)
 -->
<!-- Title: framebuffer.hpp Pages: 1 -->
<svg width="589pt" height="248pt"
 viewBox="0.00 0.00 588.62 248.25" xmlns="http://www.w3.org/2000/svg" xmlns:xlink="http://www.w3.org/1999/xlink">
<g id="graph0" class="graph" transform="scale(1 1) rotate(0) translate(4 244.25)">
<title>framebuffer.hpp</title>
<!-- Node1 -->
<g id="Node000001" class="node">
<title>Node1</title>
<g id="a_Node000001"><a xlink:title=" ">
<polygon fill="#999999" stroke="#666666" points="382.38,-240.25 298.88,-240.25 298.88,-221 382.38,-221 382.38,-240.25"/>
<text text-anchor="middle" x="340.62" y="-226.75" font-family="Helvetica,sans-Serif" font-size="10.00">framebuffer.hpp</text>
</a>
</g>
</g>
<!-- Node2 -->
<g id="Node000002" class="node">
<title>Node2</title>
<g id="a_Node000002"><a xlink:href="texture_8hpp.html" target="_top" xlink:title=" ">
<polygon fill="white" stroke="#666666" points="405.25,-185 276,-185 276,-165.75 405.25,-165.75 405.25,-185"/>
<text text-anchor="middle" x="340.62" y="-171.5" font-family="Helvetica,sans-Serif" font-size="10.00">liger/render/rhi/texture.hpp</text>
</a>
</g>
</g>
<!-- Node1&#45;&gt;Node2 -->
<g id="edge1_Node000001_Node000002" class="edge">
<title>Node1&#45;&gt;Node2</title>
<g id="a_edge1_Node000001_Node000002"><a xlink:title=" ">
<path fill="none" stroke="#63b8ff" d="M340.62,-220.83C340.62,-214.32 340.62,-205.17 340.62,-196.87"/>
<polygon fill="#63b8ff" stroke="#63b8ff" points="344.13,-196.87 340.63,-186.87 337.13,-196.87 344.13,-196.87"/>
</a>
</g>
</g>
<!-- Node3 -->
<g id="Node000003" class="node">
<title>Node3</title>
<g id="a_Node000003"><a xlink:href="device__resource__state_8hpp.html" target="_top" xlink:title=" ">
<polygon fill="white" stroke="#666666" points="209.38,-129.75 11.88,-129.75 11.88,-110.5 209.38,-110.5 209.38,-129.75"/>
<text text-anchor="middle" x="110.62" y="-116.25" font-family="Helvetica,sans-Serif" font-size="10.00">liger/render/rhi/device_resource_state.hpp</text>
</a>
</g>
</g>
<!-- Node2&#45;&gt;Node3 -->
<g id="edge2_Node000002_Node000003" class="edge">
<title>Node2&#45;&gt;Node3</title>
<g id="a_edge2_Node000002_Node000003"><a xlink:title=" ">
<path fill="none" stroke="#63b8ff" d="M301.35,-165.28C262.56,-156.3 203.1,-142.53 160.89,-132.76"/>
<polygon fill="#63b8ff" stroke="#63b8ff" points="161.75,-129.37 151.21,-130.52 160.17,-136.19 161.75,-129.37"/>
</a>
</g>
</g>
<!-- Node6 -->
<g id="Node000006" class="node">
<title>Node6</title>
<g id="a_Node000006"><a xlink:href="extent_8hpp.html" target="_top" xlink:title=" ">
<polygon fill="white" stroke="#666666" points="285.75,-74.5 159.5,-74.5 159.5,-55.25 285.75,-55.25 285.75,-74.5"/>
<text text-anchor="middle" x="222.62" y="-61" font-family="Helvetica,sans-Serif" font-size="10.00">liger/render/rhi/extent.hpp</text>
</a>
</g>
</g>
<!-- Node2&#45;&gt;Node6 -->
<g id="edge5_Node000002_Node000006" class="edge">
<title>Node2&#45;&gt;Node6</title>
<g id="a_edge5_Node000002_Node000006"><a xlink:title=" ">
<path fill="none" stroke="#63b8ff" d="M330.97,-165.5C311.26,-147.38 266.14,-105.88 240.78,-82.57"/>
<polygon fill="#63b8ff" stroke="#63b8ff" points="243.26,-80.09 233.53,-75.9 238.52,-85.25 243.26,-80.09"/>
</a>
</g>
</g>
<!-- Node8 -->
<g id="Node000008" class="node">
<title>Node8</title>
<g id="a_Node000008"><a xlink:href="format_8hpp.html" target="_top" xlink:title=" ">
<polygon fill="white" stroke="#666666" points="431.12,-74.5 304.12,-74.5 304.12,-55.25 431.12,-55.25 431.12,-74.5"/>
<text text-anchor="middle" x="367.62" y="-61" font-family="Helvetica,sans-Serif" font-size="10.00">liger/render/rhi/format.hpp</text>
</a>
</g>
</g>
<!-- Node2&#45;&gt;Node8 -->
<g id="edge7_Node000002_Node000008" class="edge">
<title>Node2&#45;&gt;Node8</title>
<g id="a_edge7_Node000002_Node000008"><a xlink:title=" ">
<path fill="none" stroke="#63b8ff" d="M342.83,-165.5C347.15,-148.17 356.77,-109.48 362.68,-85.74"/>
<polygon fill="#63b8ff" stroke="#63b8ff" points="366,-86.89 365.02,-76.35 359.21,-85.2 366,-86.89"/>
</a>
</g>
</g>
<!-- Node9 -->
<g id="Node000009" class="node">
<title>Node9</title>
<g id="a_Node000009"><a xlink:href="sampler__info_8hpp.html" target="_top" xlink:title=" ">
<polygon fill="white" stroke="#666666" points="523,-129.75 368.25,-129.75 368.25,-110.5 523,-110.5 523,-129.75"/>
<text text-anchor="middle" x="445.62" y="-116.25" font-family="Helvetica,sans-Serif" font-size="10.00">liger/render/rhi/sampler_info.hpp</text>
</a>
</g>
</g>
<!-- Node2&#45;&gt;Node9 -->
<g id="edge9_Node000002_Node000009" class="edge">
<title>Node2&#45;&gt;Node9</title>
<g id="a_edge9_Node000002_Node000009"><a xlink:title=" ">
<path fill="none" stroke="#63b8ff" d="M358.44,-165.34C374.65,-157.12 398.86,-144.84 417.66,-135.31"/>
<polygon fill="#63b8ff" stroke="#63b8ff" points="419.04,-138.53 426.38,-130.89 415.87,-132.29 419.04,-138.53"/>
</a>
</g>
</g>
<!-- Node11 -->
<g id="Node000011" class="node">
<title>Node11</title>
<g id="a_Node000011"><a xlink:title=" ">
<polygon fill="#e0e0e0" stroke="#999999" points="580.62,-129.75 540.62,-129.75 540.62,-110.5 580.62,-110.5 580.62,-129.75"/>
<text text-anchor="middle" x="560.62" y="-116.25" font-family="Helvetica,sans-Serif" font-size="10.00">string</text>
</a>
</g>
</g>
<!-- Node2&#45;&gt;Node11 -->
<g id="edge12_Node000002_Node000011" class="edge">
<title>Node2&#45;&gt;Node11</title>
<g id="a_edge12_Node000002_Node000011"><a xlink:title=" ">
<path fill="none" stroke="#63b8ff" d="M382.91,-165.25C419.38,-157.22 473.7,-144.85 529.57,-130.18"/>
<polygon fill="#63b8ff" stroke="#63b8ff" points="530.15,-133.64 538.92,-127.7 528.36,-126.88 530.15,-133.64"/>
</a>
</g>
</g>
<!-- Node4 -->
<g id="Node000004" class="node">
<title>Node4</title>
<g id="a_Node000004"><a xlink:href="enum__bitmask_8hpp.html" target="_top" xlink:title=" ">
<polygon fill="white" stroke="#666666" points="141.25,-74.5 0,-74.5 0,-55.25 141.25,-55.25 141.25,-74.5"/>
<text text-anchor="middle" x="70.62" y="-61" font-family="Helvetica,sans-Serif" font-size="10.00">liger/core/enum_bitmask.hpp</text>
</a>
</g>
</g>
<!-- Node3&#45;&gt;Node4 -->
<g id="edge3_Node000003_Node000004" class="edge">
<title>Node3&#45;&gt;Node4</title>
<g id="a_edge3_Node000003_Node000004"><a xlink:title=" ">
<path fill="none" stroke="#63b8ff" d="M104.02,-110.33C98.67,-103.21 90.95,-92.93 84.28,-84.05"/>
<polygon fill="#63b8ff" stroke="#63b8ff" points="87.09,-81.96 78.28,-76.07 81.49,-86.17 87.09,-81.96"/>
</a>
</g>
</g>
<!-- Node5 -->
<g id="Node000005" class="node">
<title>Node5</title>
<g id="a_Node000005"><a xlink:title=" ">
<polygon fill="#e0e0e0" stroke="#999999" points="101.5,-19.25 39.75,-19.25 39.75,0 101.5,0 101.5,-19.25"/>
<text text-anchor="middle" x="70.62" y="-5.75" font-family="Helvetica,sans-Serif" font-size="10.00">type_traits</text>
</a>
</g>
</g>
<!-- Node4&#45;&gt;Node5 -->
<g id="edge4_Node000004_Node000005" class="edge">
<title>Node4&#45;&gt;Node5</title>
<g id="a_edge4_Node000004_Node000005"><a xlink:title=" ">
<path fill="none" stroke="#63b8ff" d="M70.62,-55.08C70.62,-48.57 70.62,-39.42 70.62,-31.12"/>
<polygon fill="#63b8ff" stroke="#63b8ff" points="74.13,-31.12 70.63,-21.12 67.13,-31.12 74.13,-31.12"/>
</a>
</g>
</g>
<!-- Node7 -->
<g id="Node000007" class="node">
<title>Node7</title>
<g id="a_Node000007"><a xlink:title=" ">
<polygon fill="#e0e0e0" stroke="#999999" points="390.25,-19.25 345,-19.25 345,0 390.25,0 390.25,-19.25"/>
<text text-anchor="middle" x="367.62" y="-5.75" font-family="Helvetica,sans-Serif" font-size="10.00">cstdint</text>
</a>
</g>
</g>
<!-- Node6&#45;&gt;Node7 -->
<g id="edge6_Node000006_Node000007" class="edge">
<title>Node6&#45;&gt;Node7</title>
<g id="a_edge6_Node000006_Node000007"><a xlink:title=" ">
<path fill="none" stroke="#63b8ff" d="M247.22,-54.84C271.12,-46.07 307.58,-32.68 334.12,-22.93"/>
<polygon fill="#63b8ff" stroke="#63b8ff" points="335.22,-26.25 343.4,-19.52 332.81,-19.68 335.22,-26.25"/>
</a>
</g>
</g>
<!-- Node8&#45;&gt;Node7 -->
<g id="edge8_Node000008_Node000007" class="edge">
<title>Node8&#45;&gt;Node7</title>
<g id="a_edge8_Node000008_Node000007"><a xlink:title=" ">
<path fill="none" stroke="#63b8ff" d="M367.62,-55.08C367.62,-48.57 367.62,-39.42 367.62,-31.12"/>
<polygon fill="#63b8ff" stroke="#63b8ff" points="371.13,-31.12 367.63,-21.12 364.13,-31.12 371.13,-31.12"/>
</a>
</g>
</g>
<!-- Node10 -->
<g id="Node000010" class="node">
<title>Node10</title>
<g id="a_Node000010"><a xlink:href="filter_8hpp.html" target="_top" xlink:title=" ">
<polygon fill="white" stroke="#666666" points="566.25,-74.5 449,-74.5 449,-55.25 566.25,-55.25 566.25,-74.5"/>
<text text-anchor="middle" x="507.62" y="-61" font-family="Helvetica,sans-Serif" font-size="10.00">liger/render/rhi/filter.hpp</text>
</a>
</g>
</g>
<!-- Node9&#45;&gt;Node10 -->
<g id="edge10_Node000009_Node000010" class="edge">
<title>Node9&#45;&gt;Node10</title>
<g id="a_edge10_Node000009_Node000010"><a xlink:title=" ">
<path fill="none" stroke="#63b8ff" d="M456.14,-110.09C465.01,-102.47 477.94,-91.37 488.61,-82.2"/>
<polygon fill="#63b8ff" stroke="#63b8ff" points="490.81,-84.93 496.11,-75.76 486.25,-79.62 490.81,-84.93"/>
</a>
</g>
</g>
<!-- Node10&#45;&gt;Node7 -->
<g id="edge11_Node000010_Node000007" class="edge">
<title>Node10&#45;&gt;Node7</title>
<g id="a_edge11_Node000010_Node000007"><a xlink:title=" ">
<path fill="none" stroke="#63b8ff" d="M483.88,-54.84C461.18,-46.21 426.74,-33.11 401.23,-23.41"/>
<polygon fill="#63b8ff" stroke="#63b8ff" points="402.57,-20.17 391.97,-19.89 400.08,-26.71 402.57,-20.17"/>
</a>
</g>
</g>
</g>
</svg>
