<?xml version="1.0" encoding="UTF-8" standalone="no"?>
<!DOCTYPE svg PUBLIC "-//W3C//DTD SVG 1.1//EN"
 "http://www.w3.org/Graphics/SVG/1.1/DTD/svg11.dtd">
<!-- Generated by graphviz version 9.0.0 (20230911.1827)
 -->
<!-- Title: format.hpp Pages: 1 -->
<svg width="1165pt" height="359pt"
 viewBox="0.00 0.00 1164.65 358.75" xmlns="http://www.w3.org/2000/svg" xmlns:xlink="http://www.w3.org/1999/xlink">
<g id="graph0" class="graph" transform="scale(1 1) rotate(0) translate(4 354.75)">
<title>format.hpp</title>
<!-- Node1 -->
<g id="Node000001" class="node">
<title>Node1</title>
<g id="a_Node000001"><a xlink:title=" ">
<polygon fill="#999999" stroke="#666666" points="765.53,-350.75 703.03,-350.75 703.03,-331.5 765.53,-331.5 765.53,-350.75"/>
<text text-anchor="middle" x="734.28" y="-337.25" font-family="Helvetica,sans-Serif" font-size="10.00">format.hpp</text>
</a>
</g>
</g>
<!-- Node2 -->
<g id="Node000002" class="node">
<title>Node2</title>
<g id="a_Node000002"><a xlink:href="deprecated_2graphics__pipeline_8hpp.html" target="_top" xlink:title=" ">
<polygon fill="white" stroke="#666666" points="211.15,-295.5 101.4,-295.5 101.4,-276.25 211.15,-276.25 211.15,-295.5"/>
<text text-anchor="middle" x="156.28" y="-282" font-family="Helvetica,sans-Serif" font-size="10.00">graphics_pipeline.hpp</text>
</a>
</g>
</g>
<!-- Node1&#45;&gt;Node2 -->
<g id="edge1_Node000001_Node000002" class="edge">
<title>Node1&#45;&gt;Node2</title>
<g id="a_edge1_Node000001_Node000002"><a xlink:title=" ">
<path fill="none" stroke="#63b8ff" d="M691.23,-337.08C602.84,-330.68 394.55,-314.8 220.28,-295.5 217.38,-295.18 214.41,-294.83 211.42,-294.47"/>
<polygon fill="#63b8ff" stroke="#63b8ff" points="690.91,-340.57 701.13,-337.79 691.41,-333.58 690.91,-340.57"/>
</a>
</g>
</g>
<!-- Node3 -->
<g id="Node000003" class="node">
<title>Node3</title>
<g id="a_Node000003"><a xlink:href="graphics__pipeline_8hpp.html" target="_top" xlink:title=" ">
<polygon fill="white" stroke="#666666" points="339.15,-295.5 229.4,-295.5 229.4,-276.25 339.15,-276.25 339.15,-295.5"/>
<text text-anchor="middle" x="284.28" y="-282" font-family="Helvetica,sans-Serif" font-size="10.00">graphics_pipeline.hpp</text>
</a>
</g>
</g>
<!-- Node1&#45;&gt;Node3 -->
<g id="edge2_Node000001_Node000003" class="edge">
<title>Node1&#45;&gt;Node3</title>
<g id="a_edge2_Node000001_Node000003"><a xlink:title=" ">
<path fill="none" stroke="#63b8ff" d="M691.24,-335.03C609.09,-325.31 430.05,-304.12 339.33,-293.39"/>
<polygon fill="#63b8ff" stroke="#63b8ff" points="690.79,-338.5 701.13,-336.2 691.61,-331.55 690.79,-338.5"/>
</a>
</g>
</g>
<!-- Node14 -->
<g id="Node000014" class="node">
<title>Node14</title>
<g id="a_Node000014"><a xlink:href="first__draft_2graphics__pipeline_8hpp.html" target="_top" xlink:title=" ">
<polygon fill="white" stroke="#666666" points="872.15,-295.5 762.4,-295.5 762.4,-276.25 872.15,-276.25 872.15,-295.5"/>
<text text-anchor="middle" x="817.28" y="-282" font-family="Helvetica,sans-Serif" font-size="10.00">graphics_pipeline.hpp</text>
</a>
</g>
</g>
<!-- Node1&#45;&gt;Node14 -->
<g id="edge14_Node000001_Node000014" class="edge">
<title>Node1&#45;&gt;Node14</title>
<g id="a_edge14_Node000001_Node000014"><a xlink:title=" ">
<path fill="none" stroke="#63b8ff" d="M757.77,-325.05C772.39,-315.67 790.71,-303.92 803.13,-295.95"/>
<polygon fill="#63b8ff" stroke="#63b8ff" points="756.16,-321.93 749.63,-330.27 759.94,-327.82 756.16,-321.93"/>
</a>
</g>
</g>
<!-- Node15 -->
<g id="Node000015" class="node">
<title>Node15</title>
<g id="a_Node000015"><a xlink:href="first__draft_2render__pass_8hpp.html" target="_top" xlink:title=" ">
<polygon fill="white" stroke="#666666" points="1041.28,-240.25 953.28,-240.25 953.28,-221 1041.28,-221 1041.28,-240.25"/>
<text text-anchor="middle" x="997.28" y="-226.75" font-family="Helvetica,sans-Serif" font-size="10.00">render_pass.hpp</text>
</a>
</g>
</g>
<!-- Node1&#45;&gt;Node15 -->
<g id="edge15_Node000001_Node000015" class="edge">
<title>Node1&#45;&gt;Node15</title>
<g id="a_edge15_Node000001_Node000015"><a xlink:title=" ">
<path fill="none" stroke="#63b8ff" d="M722.44,-321.18C715.4,-307.25 709.7,-288.66 720.28,-276.25 752.98,-237.88 894.51,-248.3 944.28,-240.25 947.13,-239.79 950.07,-239.31 953.03,-238.83"/>
<polygon fill="#63b8ff" stroke="#63b8ff" points="719.36,-322.85 727.34,-329.82 725.45,-319.4 719.36,-322.85"/>
</a>
</g>
</g>
<!-- Node16 -->
<g id="Node000016" class="node">
<title>Node16</title>
<g id="a_Node000016"><a xlink:href="deprecated_2render__pass_8hpp.html" target="_top" xlink:title=" ">
<polygon fill="white" stroke="#666666" points="1147.28,-240.25 1059.28,-240.25 1059.28,-221 1147.28,-221 1147.28,-240.25"/>
<text text-anchor="middle" x="1103.28" y="-226.75" font-family="Helvetica,sans-Serif" font-size="10.00">render_pass.hpp</text>
</a>
</g>
</g>
<!-- Node1&#45;&gt;Node16 -->
<g id="edge16_Node000001_Node000016" class="edge">
<title>Node1&#45;&gt;Node16</title>
<g id="a_edge16_Node000001_Node000016"><a xlink:title=" ">
<path fill="none" stroke="#63b8ff" d="M734.75,-319.81C736.23,-305.42 740.7,-286.87 753.28,-276.25 804.08,-233.36 984.46,-249.59 1050.28,-240.25 1053.14,-239.84 1056.09,-239.41 1059.05,-238.96"/>
<polygon fill="#63b8ff" stroke="#63b8ff" points="731.27,-319.37 734.17,-329.56 738.26,-319.78 731.27,-319.37"/>
</a>
</g>
</g>
<!-- Node17 -->
<g id="Node000017" class="node">
<title>Node17</title>
<g id="a_Node000017"><a xlink:href="deprecated_2shader__module_8hpp.html" target="_top" xlink:title=" ">
<polygon fill="white" stroke="#666666" points="990.65,-295.5 889.9,-295.5 889.9,-276.25 990.65,-276.25 990.65,-295.5"/>
<text text-anchor="middle" x="940.28" y="-282" font-family="Helvetica,sans-Serif" font-size="10.00">shader_module.hpp</text>
</a>
</g>
</g>
<!-- Node1&#45;&gt;Node17 -->
<g id="edge17_Node000001_Node000017" class="edge">
<title>Node1&#45;&gt;Node17</title>
<g id="a_edge17_Node000001_Node000017"><a xlink:title=" ">
<path fill="none" stroke="#63b8ff" d="M776.71,-329.16C814.62,-319.36 869.52,-305.17 905.05,-295.98"/>
<polygon fill="#63b8ff" stroke="#63b8ff" points="776.29,-325.65 767.48,-331.54 778.04,-332.43 776.29,-325.65"/>
</a>
</g>
</g>
<!-- Node18 -->
<g id="Node000018" class="node">
<title>Node18</title>
<g id="a_Node000018"><a xlink:href="deprecated_2texture_8hpp.html" target="_top" xlink:title=" ">
<polygon fill="white" stroke="#666666" points="1073.65,-295.5 1008.9,-295.5 1008.9,-276.25 1073.65,-276.25 1073.65,-295.5"/>
<text text-anchor="middle" x="1041.28" y="-282" font-family="Helvetica,sans-Serif" font-size="10.00">texture.hpp</text>
</a>
</g>
</g>
<!-- Node1&#45;&gt;Node18 -->
<g id="edge18_Node000001_Node000018" class="edge">
<title>Node1&#45;&gt;Node18</title>
<g id="a_edge18_Node000001_Node000018"><a xlink:title=" ">
<path fill="none" stroke="#63b8ff" d="M776.96,-333.42C829.4,-325.07 921.04,-310.12 999.28,-295.5 1002.35,-294.93 1005.55,-294.31 1008.74,-293.68"/>
<polygon fill="#63b8ff" stroke="#63b8ff" points="776.58,-329.94 767.25,-334.96 777.67,-336.85 776.58,-329.94"/>
</a>
</g>
</g>
<!-- Node19 -->
<g id="Node000019" class="node">
<title>Node19</title>
<g id="a_Node000019"><a xlink:href="first__draft_2texture_8hpp.html" target="_top" xlink:title=" ">
<polygon fill="white" stroke="#666666" points="1156.65,-295.5 1091.9,-295.5 1091.9,-276.25 1156.65,-276.25 1156.65,-295.5"/>
<text text-anchor="middle" x="1124.28" y="-282" font-family="Helvetica,sans-Serif" font-size="10.00">texture.hpp</text>
</a>
</g>
</g>
<!-- Node1&#45;&gt;Node19 -->
<g id="edge19_Node000001_Node000019" class="edge">
<title>Node1&#45;&gt;Node19</title>
<g id="a_edge19_Node000001_Node000019"><a xlink:title=" ">
<path fill="none" stroke="#63b8ff" d="M776.71,-335.72C842.4,-328.67 972.6,-313.77 1082.28,-295.5 1085.36,-294.99 1088.57,-294.41 1091.76,-293.8"/>
<polygon fill="#63b8ff" stroke="#63b8ff" points="776.67,-332.21 767.09,-336.75 777.41,-339.17 776.67,-332.21"/>
</a>
</g>
</g>
<!-- Node20 -->
<g id="Node000020" class="node">
<title>Node20</title>
<g id="a_Node000020"><a xlink:href="texture_8hpp.html" target="_top" xlink:title=" ">
<polygon fill="white" stroke="#666666" points="668.65,-295.5 603.9,-295.5 603.9,-276.25 668.65,-276.25 668.65,-295.5"/>
<text text-anchor="middle" x="636.28" y="-282" font-family="Helvetica,sans-Serif" font-size="10.00">texture.hpp</text>
</a>
</g>
</g>
<!-- Node1&#45;&gt;Node20 -->
<g id="edge20_Node000001_Node000020" class="edge">
<title>Node1&#45;&gt;Node20</title>
<g id="a_edge20_Node000001_Node000020"><a xlink:title=" ">
<path fill="none" stroke="#63b8ff" d="M708.02,-325.86C690.53,-316.36 668.08,-304.15 652.98,-295.95"/>
<polygon fill="#63b8ff" stroke="#63b8ff" points="705.87,-328.67 716.32,-330.37 709.21,-322.52 705.87,-328.67"/>
</a>
</g>
</g>
<!-- Node4 -->
<g id="Node000004" class="node">
<title>Node4</title>
<g id="a_Node000004"><a xlink:href="first__draft_2command__buffer_8hpp.html" target="_top" xlink:title=" ">
<polygon fill="white" stroke="#666666" points="285.65,-240.25 178.9,-240.25 178.9,-221 285.65,-221 285.65,-240.25"/>
<text text-anchor="middle" x="232.28" y="-226.75" font-family="Helvetica,sans-Serif" font-size="10.00">command_buffer.hpp</text>
</a>
</g>
</g>
<!-- Node3&#45;&gt;Node4 -->
<g id="edge3_Node000003_Node000004" class="edge">
<title>Node3&#45;&gt;Node4</title>
<g id="a_edge3_Node000003_Node000004"><a xlink:title=" ">
<path fill="none" stroke="#63b8ff" d="M267.87,-268.07C258.99,-258.98 248.37,-248.1 241.05,-240.61"/>
<polygon fill="#63b8ff" stroke="#63b8ff" points="265.14,-270.29 274.63,-275 270.15,-265.4 265.14,-270.29"/>
</a>
</g>
</g>
<!-- Node5 -->
<g id="Node000005" class="node">
<title>Node5</title>
<g id="a_Node000005"><a xlink:href="deprecated_2compute__pipeline_8hpp.html" target="_top" xlink:title=" ">
<polygon fill="white" stroke="#666666" points="123.53,-240.25 13.03,-240.25 13.03,-221 123.53,-221 123.53,-240.25"/>
<text text-anchor="middle" x="68.28" y="-226.75" font-family="Helvetica,sans-Serif" font-size="10.00">compute_pipeline.hpp</text>
</a>
</g>
</g>
<!-- Node3&#45;&gt;Node5 -->
<g id="edge4_Node000003_Node000005" class="edge">
<title>Node3&#45;&gt;Node5</title>
<g id="a_edge4_Node000003_Node000005"><a xlink:title=" ">
<path fill="none" stroke="#63b8ff" d="M236.66,-273.13C197.02,-263.36 141.39,-249.65 105.1,-240.7"/>
<polygon fill="#63b8ff" stroke="#63b8ff" points="235.62,-276.48 246.17,-275.48 237.3,-269.69 235.62,-276.48"/>
</a>
</g>
</g>
<!-- Node6 -->
<g id="Node000006" class="node">
<title>Node6</title>
<g id="a_Node000006"><a xlink:href="deprecated_2device_8hpp_source.html" target="_top" xlink:title=" ">
<polygon fill="white" stroke="#666666" points="366.9,-240.25 303.65,-240.25 303.65,-221 366.9,-221 366.9,-240.25"/>
<text text-anchor="middle" x="335.28" y="-226.75" font-family="Helvetica,sans-Serif" font-size="10.00">device.hpp</text>
</a>
</g>
</g>
<!-- Node3&#45;&gt;Node6 -->
<g id="edge5_Node000003_Node000006" class="edge">
<title>Node3&#45;&gt;Node6</title>
<g id="a_edge5_Node000003_Node000006"><a xlink:title=" ">
<path fill="none" stroke="#63b8ff" d="M300.64,-267.79C309.3,-258.75 319.57,-248.02 326.67,-240.61"/>
<polygon fill="#63b8ff" stroke="#63b8ff" points="298.14,-265.35 293.75,-274.99 303.19,-270.19 298.14,-265.35"/>
</a>
</g>
</g>
<!-- Node7 -->
<g id="Node000007" class="node">
<title>Node7</title>
<g id="a_Node000007"><a xlink:href="device_8hpp.html" target="_top" xlink:title=" ">
<polygon fill="white" stroke="#666666" points="816.9,-185 753.65,-185 753.65,-165.75 816.9,-165.75 816.9,-185"/>
<text text-anchor="middle" x="785.28" y="-171.5" font-family="Helvetica,sans-Serif" font-size="10.00">device.hpp</text>
</a>
</g>
</g>
<!-- Node3&#45;&gt;Node7 -->
<g id="edge6_Node000003_Node000007" class="edge">
<title>Node3&#45;&gt;Node7</title>
<g id="a_edge6_Node000003_Node000007"><a xlink:title=" ">
<path fill="none" stroke="#63b8ff" d="M226.56,-273.02C187.86,-262.57 147.75,-245.22 170.28,-221 190.33,-199.44 630.11,-181.98 753.4,-177.5"/>
<polygon fill="#63b8ff" stroke="#63b8ff" points="225.37,-276.33 235.92,-275.41 227.1,-269.54 225.37,-276.33"/>
</a>
</g>
</g>
<!-- Node12 -->
<g id="Node000012" class="node">
<title>Node12</title>
<g id="a_Node000012"><a xlink:href="first__draft_2device_8hpp_source.html" target="_top" xlink:title=" ">
<polygon fill="white" stroke="#666666" points="547.9,-185 484.65,-185 484.65,-165.75 547.9,-165.75 547.9,-185"/>
<text text-anchor="middle" x="516.28" y="-171.5" font-family="Helvetica,sans-Serif" font-size="10.00">device.hpp</text>
</a>
</g>
</g>
<!-- Node3&#45;&gt;Node12 -->
<g id="edge12_Node000003_Node000012" class="edge">
<title>Node3&#45;&gt;Node12</title>
<g id="a_edge12_Node000003_Node000012"><a xlink:title=" ">
<path fill="none" stroke="#63b8ff" d="M217.99,-275.39C136.3,-263.54 7.76,-244.33 4.28,-240.25 -1.27,-233.74 -1.5,-227.31 4.28,-221 36.76,-185.56 377.37,-178.17 484.33,-176.71"/>
<polygon fill="#63b8ff" stroke="#63b8ff" points="217.29,-278.82 227.69,-276.79 218.3,-271.9 217.29,-278.82"/>
</a>
</g>
</g>
<!-- Node13 -->
<g id="Node000013" class="node">
<title>Node13</title>
<g id="a_Node000013"><a xlink:href="synchronization_8hpp.html" target="_top" xlink:title=" ">
<polygon fill="white" stroke="#666666" points="487.78,-240.25 384.78,-240.25 384.78,-221 487.78,-221 487.78,-240.25"/>
<text text-anchor="middle" x="436.28" y="-226.75" font-family="Helvetica,sans-Serif" font-size="10.00">synchronization.hpp</text>
</a>
</g>
</g>
<!-- Node3&#45;&gt;Node13 -->
<g id="edge13_Node000003_Node000013" class="edge">
<title>Node3&#45;&gt;Node13</title>
<g id="a_edge13_Node000003_Node000013"><a xlink:title=" ">
<path fill="none" stroke="#63b8ff" d="M320.88,-272.05C348.52,-262.37 385.76,-249.32 410.37,-240.7"/>
<polygon fill="#63b8ff" stroke="#63b8ff" points="319.77,-268.73 311.49,-275.34 322.09,-275.34 319.77,-268.73"/>
</a>
</g>
</g>
<!-- Node8 -->
<g id="Node000008" class="node">
<title>Node8</title>
<g id="a_Node000008"><a xlink:href="instance_8hpp.html" target="_top" xlink:title=" ">
<polygon fill="white" stroke="#666666" points="783.03,-129.75 711.53,-129.75 711.53,-110.5 783.03,-110.5 783.03,-129.75"/>
<text text-anchor="middle" x="747.28" y="-116.25" font-family="Helvetica,sans-Serif" font-size="10.00">instance.hpp</text>
</a>
</g>
</g>
<!-- Node7&#45;&gt;Node8 -->
<g id="edge7_Node000007_Node000008" class="edge">
<title>Node7&#45;&gt;Node8</title>
<g id="a_edge7_Node000007_Node000008"><a xlink:title=" ">
<path fill="none" stroke="#63b8ff" d="M772.48,-156.44C766.16,-147.59 758.81,-137.29 753.69,-130.11"/>
<polygon fill="#63b8ff" stroke="#63b8ff" points="769.47,-158.24 778.12,-164.35 775.16,-154.18 769.47,-158.24"/>
</a>
</g>
</g>
<!-- Node11 -->
<g id="Node000011" class="node">
<title>Node11</title>
<g id="a_Node000011"><a xlink:href="vulkan__utils_8hpp.html" target="_top" xlink:title=" ">
<polygon fill="white" stroke="#666666" points="879.53,-74.5 793.03,-74.5 793.03,-55.25 879.53,-55.25 879.53,-74.5"/>
<text text-anchor="middle" x="836.28" y="-61" font-family="Helvetica,sans-Serif" font-size="10.00">vulkan_utils.hpp</text>
</a>
</g>
</g>
<!-- Node7&#45;&gt;Node11 -->
<g id="edge10_Node000007_Node000011" class="edge">
<title>Node7&#45;&gt;Node11</title>
<g id="a_edge10_Node000007_Node000011"><a xlink:title=" ">
<path fill="none" stroke="#63b8ff" d="M794.23,-155.33C805.33,-131.72 823.78,-92.46 832.05,-74.88"/>
<polygon fill="#63b8ff" stroke="#63b8ff" points="791.18,-153.59 790.1,-164.13 797.52,-156.57 791.18,-153.59"/>
</a>
</g>
</g>
<!-- Node9 -->
<g id="Node000009" class="node">
<title>Node9</title>
<g id="a_Node000009"><a xlink:href="vulkan__instance_8hpp.html" target="_top" xlink:title=" ">
<polygon fill="white" stroke="#666666" points="774.9,-74.5 669.65,-74.5 669.65,-55.25 774.9,-55.25 774.9,-74.5"/>
<text text-anchor="middle" x="722.28" y="-61" font-family="Helvetica,sans-Serif" font-size="10.00">vulkan_instance.hpp</text>
</a>
</g>
</g>
<!-- Node8&#45;&gt;Node9 -->
<g id="edge8_Node000008_Node000009" class="edge">
<title>Node8&#45;&gt;Node9</title>
<g id="a_edge8_Node000008_Node000009"><a xlink:title=" ">
<path fill="none" stroke="#63b8ff" d="M738.32,-100.04C734.29,-91.46 729.72,-81.73 726.5,-74.86"/>
<polygon fill="#63b8ff" stroke="#63b8ff" points="735.09,-101.4 742.51,-108.96 741.43,-98.42 735.09,-101.4"/>
</a>
</g>
</g>
<!-- Node10 -->
<g id="Node000010" class="node">
<title>Node10</title>
<g id="a_Node000010"><a xlink:href="vulkan__instance_8cpp.html" target="_top" xlink:title=" ">
<polygon fill="white" stroke="#666666" points="831.9,-19.25 726.65,-19.25 726.65,0 831.9,0 831.9,-19.25"/>
<text text-anchor="middle" x="779.28" y="-5.75" font-family="Helvetica,sans-Serif" font-size="10.00">vulkan_instance.cpp</text>
</a>
</g>
</g>
<!-- Node9&#45;&gt;Node10 -->
<g id="edge9_Node000009_Node000010" class="edge">
<title>Node9&#45;&gt;Node10</title>
<g id="a_edge9_Node000009_Node000010"><a xlink:title=" ">
<path fill="none" stroke="#63b8ff" d="M740.23,-47.11C750.01,-37.97 761.72,-27.03 769.75,-19.52"/>
<polygon fill="#63b8ff" stroke="#63b8ff" points="737.97,-44.42 733.05,-53.81 742.75,-49.54 737.97,-44.42"/>
</a>
</g>
</g>
<!-- Node11&#45;&gt;Node10 -->
<g id="edge11_Node000011_Node000010" class="edge">
<title>Node11&#45;&gt;Node10</title>
<g id="a_edge11_Node000011_Node000010"><a xlink:title=" ">
<path fill="none" stroke="#63b8ff" d="M818.33,-47.11C808.55,-37.97 796.84,-27.03 788.81,-19.52"/>
<polygon fill="#63b8ff" stroke="#63b8ff" points="815.81,-49.54 825.5,-53.81 820.59,-44.42 815.81,-49.54"/>
</a>
</g>
</g>
<!-- Node20&#45;&gt;Node4 -->
<g id="edge21_Node000020_Node000004" class="edge">
<title>Node20&#45;&gt;Node4</title>
<g id="a_edge21_Node000020_Node000004"><a xlink:title=" ">
<path fill="none" stroke="#63b8ff" d="M592.7,-279.31C527.69,-270.98 401.48,-254.7 294.28,-240.25 291.59,-239.89 288.83,-239.51 286.04,-239.13"/>
<polygon fill="#63b8ff" stroke="#63b8ff" points="591.86,-282.73 602.23,-280.53 592.75,-275.79 591.86,-282.73"/>
</a>
</g>
</g>
<!-- Node20&#45;&gt;Node6 -->
<g id="edge22_Node000020_Node000006" class="edge">
<title>Node20&#45;&gt;Node6</title>
<g id="a_edge22_Node000020_Node000006"><a xlink:title=" ">
<path fill="none" stroke="#63b8ff" d="M592.52,-277.98C540.59,-269.67 451.44,-254.96 375.28,-240.25 372.63,-239.74 369.88,-239.19 367.13,-238.62"/>
<polygon fill="#63b8ff" stroke="#63b8ff" points="591.72,-281.4 602.15,-279.52 592.83,-274.49 591.72,-281.4"/>
</a>
</g>
</g>
<!-- Node20&#45;&gt;Node12 -->
<g id="edge23_Node000020_Node000012" class="edge">
<title>Node20&#45;&gt;Node12</title>
<g id="a_edge23_Node000020_Node000012"><a xlink:title=" ">
<path fill="none" stroke="#63b8ff" d="M592.97,-274.77C572.9,-268.06 550.24,-257.25 535.28,-240.25 521.36,-224.45 517.63,-198.83 516.64,-185.34"/>
<polygon fill="#63b8ff" stroke="#63b8ff" points="591.75,-278.06 602.34,-277.65 593.81,-271.37 591.75,-278.06"/>
</a>
</g>
</g>
<!-- Node20&#45;&gt;Node13 -->
<g id="edge34_Node000020_Node000013" class="edge">
<title>Node20&#45;&gt;Node13</title>
<g id="a_edge34_Node000020_Node000013"><a xlink:title=" ">
<path fill="none" stroke="#63b8ff" d="M592.84,-273.31C556.15,-263.54 504.33,-249.74 470.52,-240.74"/>
<polygon fill="#63b8ff" stroke="#63b8ff" points="591.67,-276.62 602.24,-275.81 593.47,-269.86 591.67,-276.62"/>
</a>
</g>
</g>
<!-- Node20&#45;&gt;Node15 -->
<g id="edge28_Node000020_Node000015" class="edge">
<title>Node20&#45;&gt;Node15</title>
<g id="a_edge28_Node000020_Node000015"><a xlink:title=" ">
<path fill="none" stroke="#63b8ff" d="M680.23,-276.59C680.92,-276.47 681.6,-276.36 682.28,-276.25 798.3,-257.41 828.04,-257.69 944.28,-240.25 947.14,-239.82 950.08,-239.37 953.05,-238.91"/>
<polygon fill="#63b8ff" stroke="#63b8ff" points="679.66,-273.13 670.4,-278.29 680.86,-280.03 679.66,-273.13"/>
</a>
</g>
</g>
<!-- Node20&#45;&gt;Node16 -->
<g id="edge29_Node000020_Node000016" class="edge">
<title>Node20&#45;&gt;Node16</title>
<g id="a_edge29_Node000020_Node000016"><a xlink:title=" ">
<path fill="none" stroke="#63b8ff" d="M680.3,-280.27C779.41,-269.87 1014.27,-245.12 1050.28,-240.25 1053.14,-239.86 1056.09,-239.44 1059.06,-239"/>
<polygon fill="#63b8ff" stroke="#63b8ff" points="679.99,-276.78 670.41,-281.3 680.72,-283.74 679.99,-276.78"/>
</a>
</g>
</g>
<!-- Node21 -->
<g id="Node000021" class="node">
<title>Node21</title>
<g id="a_Node000021"><a xlink:href="first__draft_2framebuffer_8hpp.html" target="_top" xlink:title=" ">
<polygon fill="white" stroke="#666666" points="628.03,-240.25 544.53,-240.25 544.53,-221 628.03,-221 628.03,-240.25"/>
<text text-anchor="middle" x="586.28" y="-226.75" font-family="Helvetica,sans-Serif" font-size="10.00">framebuffer.hpp</text>
</a>
</g>
</g>
<!-- Node20&#45;&gt;Node21 -->
<g id="edge24_Node000020_Node000021" class="edge">
<title>Node20&#45;&gt;Node21</title>
<g id="a_edge24_Node000020_Node000021"><a xlink:title=" ">
<path fill="none" stroke="#63b8ff" d="M620.24,-267.79C611.75,-258.75 601.68,-248.02 594.71,-240.61"/>
<polygon fill="#63b8ff" stroke="#63b8ff" points="617.59,-270.08 626.99,-274.98 622.69,-265.29 617.59,-270.08"/>
</a>
</g>
</g>
<!-- Node22 -->
<g id="Node000022" class="node">
<title>Node22</title>
<g id="a_Node000022"><a xlink:href="render__graph_8hpp.html" target="_top" xlink:title=" ">
<polygon fill="white" stroke="#666666" points="934.78,-240.25 843.78,-240.25 843.78,-221 934.78,-221 934.78,-240.25"/>
<text text-anchor="middle" x="889.28" y="-226.75" font-family="Helvetica,sans-Serif" font-size="10.00">render_graph.hpp</text>
</a>
</g>
</g>
<!-- Node20&#45;&gt;Node22 -->
<g id="edge25_Node000020_Node000022" class="edge">
<title>Node20&#45;&gt;Node22</title>
<g id="a_edge25_Node000020_Node000022"><a xlink:title=" ">
<path fill="none" stroke="#63b8ff" d="M680.32,-275.61C726.83,-265.82 799.69,-250.48 845.93,-240.75"/>
<polygon fill="#63b8ff" stroke="#63b8ff" points="679.64,-272.17 670.58,-277.66 681.08,-279.02 679.64,-272.17"/>
</a>
</g>
</g>
<!-- Node24 -->
<g id="Node000024" class="node">
<title>Node24</title>
<g id="a_Node000024"><a xlink:href="first__draft_2swapchain_8hpp.html" target="_top" xlink:title=" ">
<polygon fill="white" stroke="#666666" points="726.9,-240.25 645.65,-240.25 645.65,-221 726.9,-221 726.9,-240.25"/>
<text text-anchor="middle" x="686.28" y="-226.75" font-family="Helvetica,sans-Serif" font-size="10.00">swapchain.hpp</text>
</a>
</g>
</g>
<!-- Node20&#45;&gt;Node24 -->
<g id="edge30_Node000020_Node000024" class="edge">
<title>Node20&#45;&gt;Node24</title>
<g id="a_edge30_Node000020_Node000024"><a xlink:title=" ">
<path fill="none" stroke="#63b8ff" d="M652.32,-267.79C660.81,-258.75 670.88,-248.02 677.84,-240.61"/>
<polygon fill="#63b8ff" stroke="#63b8ff" points="649.86,-265.29 645.57,-274.98 654.97,-270.08 649.86,-265.29"/>
</a>
</g>
</g>
<!-- Node25 -->
<g id="Node000025" class="node">
<title>Node25</title>
<g id="a_Node000025"><a xlink:href="swapchain_8hpp.html" target="_top" xlink:title=" ">
<polygon fill="white" stroke="#666666" points="825.9,-240.25 744.65,-240.25 744.65,-221 825.9,-221 825.9,-240.25"/>
<text text-anchor="middle" x="785.28" y="-226.75" font-family="Helvetica,sans-Serif" font-size="10.00">swapchain.hpp</text>
</a>
</g>
</g>
<!-- Node20&#45;&gt;Node25 -->
<g id="edge31_Node000020_Node000025" class="edge">
<title>Node20&#45;&gt;Node25</title>
<g id="a_edge31_Node000020_Node000025"><a xlink:title=" ">
<path fill="none" stroke="#63b8ff" d="M672.16,-272.05C699.25,-262.37 735.76,-249.32 759.88,-240.7"/>
<polygon fill="#63b8ff" stroke="#63b8ff" points="671.22,-268.67 662.98,-275.33 673.57,-275.26 671.22,-268.67"/>
</a>
</g>
</g>
<!-- Node22&#45;&gt;Node7 -->
<g id="edge26_Node000022_Node000007" class="edge">
<title>Node22&#45;&gt;Node7</title>
<g id="a_edge26_Node000022_Node000007"><a xlink:title=" ">
<path fill="none" stroke="#63b8ff" d="M861.42,-215.36C842.86,-205.86 819.02,-193.65 803.01,-185.45"/>
<polygon fill="#63b8ff" stroke="#63b8ff" points="859.79,-218.46 870.29,-219.9 862.98,-212.23 859.79,-218.46"/>
</a>
</g>
</g>
<!-- Node23 -->
<g id="Node000023" class="node">
<title>Node23</title>
<g id="a_Node000023"><a xlink:href="render__graph_8cpp.html" target="_top" xlink:title=" ">
<polygon fill="white" stroke="#666666" points="934.78,-185 843.78,-185 843.78,-165.75 934.78,-165.75 934.78,-185"/>
<text text-anchor="middle" x="889.28" y="-171.5" font-family="Helvetica,sans-Serif" font-size="10.00">render_graph.cpp</text>
</a>
</g>
</g>
<!-- Node22&#45;&gt;Node23 -->
<g id="edge27_Node000022_Node000023" class="edge">
<title>Node22&#45;&gt;Node23</title>
<g id="a_edge27_Node000022_Node000023"><a xlink:title=" ">
<path fill="none" stroke="#63b8ff" d="M889.28,-209.38C889.28,-201.09 889.28,-191.92 889.28,-185.36"/>
<polygon fill="#63b8ff" stroke="#63b8ff" points="885.78,-209.32 889.28,-219.32 892.78,-209.32 885.78,-209.32"/>
</a>
</g>
</g>
<!-- Node25&#45;&gt;Node7 -->
<g id="edge32_Node000025_Node000007" class="edge">
<title>Node25&#45;&gt;Node7</title>
<g id="a_edge32_Node000025_Node000007"><a xlink:title=" ">
<path fill="none" stroke="#63b8ff" d="M785.28,-209.38C785.28,-201.09 785.28,-191.92 785.28,-185.36"/>
<polygon fill="#63b8ff" stroke="#63b8ff" points="781.78,-209.32 785.28,-219.32 788.78,-209.32 781.78,-209.32"/>
</a>
</g>
</g>
<!-- Node25&#45;&gt;Node12 -->
<g id="edge33_Node000025_Node000012" class="edge">
<title>Node25&#45;&gt;Node12</title>
<g id="a_edge33_Node000025_Node000012"><a xlink:title=" ">
<path fill="none" stroke="#63b8ff" d="M733.21,-219.32C678.41,-208.47 593.91,-191.74 548.23,-182.7"/>
<polygon fill="#63b8ff" stroke="#63b8ff" points="732.45,-222.73 742.94,-221.24 733.81,-215.87 732.45,-222.73"/>
</a>
</g>
</g>
</g>
</svg>
