<?xml version="1.0" encoding="UTF-8" standalone="no"?>
<!DOCTYPE svg PUBLIC "-//W3C//DTD SVG 1.1//EN"
 "http://www.w3.org/Graphics/SVG/1.1/DTD/svg11.dtd">
<!-- Generated by graphviz version 9.0.0 (20230911.1827)
 -->
<!-- Title: format.hpp Pages: 1 -->
<!--zoomable 248 -->

<svg id="main" version="1.1" xmlns="http://www.w3.org/2000/svg" xmlns:xlink="http://www.w3.org/1999/xlink" xml:space="preserve" onload="init(evt)">
<style type="text/css"><![CDATA[
.node, .edge {opacity: 0.7;}
.node.selected, .edge.selected {opacity: 1;}
.edge:hover path { stroke: red; }
.edge:hover polygon { stroke: red; fill: red; }
]]></style>

<defs>
  <circle id="rim" cx="0" cy="0" r="7"/>
  <circle id="rim2" cx="0" cy="0" r="3.5"/>
  <g id="zoomPlus">
    <use xlink:href="#rim" fill="#404040"><set attributeName="fill" to="#808080" begin="zoomplus.mouseover" end="zoomplus.mouseout"/></use>
    <path d="M-4,0h8M0,-4v8" fill="none" stroke="white" stroke-width="1.5" pointer-events="none"/>
  </g>
  <g id="zoomMin">
    <use xlink:href="#rim" fill="#404040"><set attributeName="fill" to="#808080" begin="zoomminus.mouseover" end="zoomminus.mouseout"/></use>
    <path d="M-4,0h8" fill="none" stroke="white" stroke-width="1.5" pointer-events="none"/>
  </g>
  <g id="arrowUp" transform="translate(30 24)">
    <use xlink:href="#rim"/>
    <path pointer-events="none" fill="none" stroke="white" stroke-width="1.5" d="M0,-3.0v7 M-2.5,-0.5L0,-3.0L2.5,-0.5"/>
  </g>
  <g id="arrowRight" transform="rotate(90) translate(36 -43)">
    <use xlink:href="#rim"/>
    <path pointer-events="none" fill="none" stroke="white" stroke-width="1.5" d="M0,-3.0v7 M-2.5,-0.5L0,-3.0L2.5,-0.5"/>
  </g>
  <g id="arrowDown" transform="rotate(180) translate(-30 -48)">
    <use xlink:href="#rim"/>
    <path pointer-events="none" fill="none" stroke="white" stroke-width="1.5" d="M0,-3.0v7 M-2.5,-0.5L0,-3.0L2.5,-0.5"/>
  </g>
  <g id="arrowLeft" transform="rotate(270) translate(-36 17)">
    <use xlink:href="#rim"/>
    <path pointer-events="none" fill="none" stroke="white" stroke-width="1.5" d="M0,-3.0v7 M-2.5,-0.5L0,-3.0L2.5,-0.5"/>
  </g>
  <g id="resetDef">
    <use xlink:href="#rim2" fill="#404040"><set attributeName="fill" to="#808080" begin="reset.mouseover" end="reset.mouseout"/></use>
  </g>
</defs>
<script type="application/ecmascript">
var viewWidth = 751;
var viewHeight = 248;
var sectionId = 'dynsection-1';
</script>
<script type="application/ecmascript" xlink:href="svg.min.js"/>
<svg id="graph" class="graph">
<g id="viewport">
<title>format.hpp</title>
<!-- Node1 -->
<g id="Node000001" class="node">
<title>Node1</title>
<g id="a_Node000001"><a xlink:title=" ">
<polygon fill="#999999" stroke="#666666" points="423.12,-240.25 360.62,-240.25 360.62,-221 423.12,-221 423.12,-240.25"/>
<text text-anchor="middle" x="391.88" y="-226.75" font-family="Helvetica,sans-Serif" font-size="10.00">format.hpp</text>
</a>
</g>
</g>
<!-- Node2 -->
<g id="Node000002" class="node">
<title>Node2</title>
<g id="a_Node000002"><a xlink:href="deprecated_2graphics__pipeline_8hpp.html" target="_top" xlink:title=" ">
<polygon fill="white" stroke="#666666" points="109.75,-185 0,-185 0,-165.75 109.75,-165.75 109.75,-185"/>
<text text-anchor="middle" x="54.88" y="-171.5" font-family="Helvetica,sans-Serif" font-size="10.00">graphics_pipeline.hpp</text>
</a>
</g>
</g>
<!-- Node1&#45;&gt;Node2 -->
<g id="edge1_Node000001_Node000002" class="edge">
<title>Node1&#45;&gt;Node2</title>
<g id="a_edge1_Node000001_Node000002"><a xlink:title=" ">
<path fill="none" stroke="#63b8ff" d="M349.07,-222.86C288.28,-213.26 176.9,-195.66 110,-185.09"/>
<polygon fill="#63b8ff" stroke="#63b8ff" points="348.25,-226.28 358.68,-224.38 349.34,-219.36 348.25,-226.28"/>
</a>
</g>
</g>
<!-- Node3 -->
<g id="Node000003" class="node">
<title>Node3</title>
<g id="a_Node000003"><a xlink:href="graphics__pipeline_8hpp.html" target="_top" xlink:title=" ">
<polygon fill="white" stroke="#666666" points="608.75,-129.75 499,-129.75 499,-110.5 608.75,-110.5 608.75,-129.75"/>
<text text-anchor="middle" x="553.88" y="-116.25" font-family="Helvetica,sans-Serif" font-size="10.00">graphics_pipeline.hpp</text>
</a>
</g>
</g>
<!-- Node1&#45;&gt;Node3 -->
<g id="edge2_Node000001_Node000003" class="edge">
<title>Node1&#45;&gt;Node3</title>
<g id="a_edge2_Node000001_Node000003"><a xlink:title=" ">
<path fill="none" stroke="#63b8ff" d="M404.54,-211.51C415.08,-197.51 431.19,-178.43 448.88,-165.75 471.57,-149.48 501.12,-137.59 523.09,-130.2"/>
<polygon fill="#63b8ff" stroke="#63b8ff" points="401.83,-209.28 398.79,-219.43 407.5,-213.39 401.83,-209.28"/>
</a>
</g>
</g>
<!-- Node9 -->
<g id="Node000009" class="node">
<title>Node9</title>
<g id="a_Node000009"><a xlink:href="deprecated_2render__pass_8hpp.html" target="_top" xlink:title=" ">
<polygon fill="white" stroke="#666666" points="204.88,-74.5 116.88,-74.5 116.88,-55.25 204.88,-55.25 204.88,-74.5"/>
<text text-anchor="middle" x="160.88" y="-61" font-family="Helvetica,sans-Serif" font-size="10.00">render_pass.hpp</text>
</a>
</g>
</g>
<!-- Node1&#45;&gt;Node9 -->
<g id="edge10_Node000001_Node000009" class="edge">
<title>Node1&#45;&gt;Node9</title>
<g id="a_edge10_Node000001_Node000009"><a xlink:title=" ">
<path fill="none" stroke="#63b8ff" d="M349.24,-222.33C299.33,-211.4 218.11,-185.75 175.88,-129.75 163.39,-113.2 161.08,-87.9 160.78,-74.65"/>
<polygon fill="#63b8ff" stroke="#63b8ff" points="348.32,-225.71 358.82,-224.31 349.74,-218.85 348.32,-225.71"/>
</a>
</g>
</g>
<!-- Node10 -->
<g id="Node000010" class="node">
<title>Node10</title>
<g id="a_Node000010"><a xlink:href="render__pass_8hpp.html" target="_top" xlink:title=" ">
<polygon fill="white" stroke="#666666" points="424.88,-74.5 336.88,-74.5 336.88,-55.25 424.88,-55.25 424.88,-74.5"/>
<text text-anchor="middle" x="380.88" y="-61" font-family="Helvetica,sans-Serif" font-size="10.00">render_pass.hpp</text>
</a>
</g>
</g>
<!-- Node1&#45;&gt;Node10 -->
<g id="edge11_Node000001_Node000010" class="edge">
<title>Node1&#45;&gt;Node10</title>
<g id="a_edge11_Node000001_Node000010"><a xlink:title=" ">
<path fill="none" stroke="#63b8ff" d="M390.52,-209.47C388.11,-173.61 383.17,-100.1 381.47,-74.72"/>
<polygon fill="#63b8ff" stroke="#63b8ff" points="387.02,-209.57 391.18,-219.31 394,-209.1 387.02,-209.57"/>
</a>
</g>
</g>
<!-- Node11 -->
<g id="Node000011" class="node">
<title>Node11</title>
<g id="a_Node000011"><a xlink:href="deprecated_2shader__module_8hpp.html" target="_top" xlink:title=" ">
<polygon fill="white" stroke="#666666" points="558.25,-185 457.5,-185 457.5,-165.75 558.25,-165.75 558.25,-185"/>
<text text-anchor="middle" x="507.88" y="-171.5" font-family="Helvetica,sans-Serif" font-size="10.00">shader_module.hpp</text>
</a>
</g>
</g>
<!-- Node1&#45;&gt;Node11 -->
<g id="edge15_Node000001_Node000011" class="edge">
<title>Node1&#45;&gt;Node11</title>
<g id="a_edge15_Node000001_Node000011"><a xlink:title=" ">
<path fill="none" stroke="#63b8ff" d="M421.8,-215.89C442.66,-206.31 469.9,-193.81 488.1,-185.45"/>
<polygon fill="#63b8ff" stroke="#63b8ff" points="420.56,-212.61 412.93,-219.96 423.48,-218.97 420.56,-212.61"/>
</a>
</g>
</g>
<!-- Node12 -->
<g id="Node000012" class="node">
<title>Node12</title>
<g id="a_Node000012"><a xlink:href="deprecated_2texture_8hpp.html" target="_top" xlink:title=" ">
<polygon fill="white" stroke="#666666" points="641.25,-185 576.5,-185 576.5,-165.75 641.25,-165.75 641.25,-185"/>
<text text-anchor="middle" x="608.88" y="-171.5" font-family="Helvetica,sans-Serif" font-size="10.00">texture.hpp</text>
</a>
</g>
</g>
<!-- Node1&#45;&gt;Node12 -->
<g id="edge16_Node000001_Node000012" class="edge">
<title>Node1&#45;&gt;Node12</title>
<g id="a_edge16_Node000001_Node000012"><a xlink:title=" ">
<path fill="none" stroke="#63b8ff" d="M434.57,-219.15C476.15,-208.94 538.45,-193.66 576.22,-184.39"/>
<polygon fill="#63b8ff" stroke="#63b8ff" points="433.78,-215.74 424.9,-221.52 435.44,-222.54 433.78,-215.74"/>
</a>
</g>
</g>
<!-- Node13 -->
<g id="Node000013" class="node">
<title>Node13</title>
<g id="a_Node000013"><a xlink:href="texture_8hpp.html" target="_top" xlink:title=" ">
<polygon fill="white" stroke="#666666" points="348.25,-185 283.5,-185 283.5,-165.75 348.25,-165.75 348.25,-185"/>
<text text-anchor="middle" x="315.88" y="-171.5" font-family="Helvetica,sans-Serif" font-size="10.00">texture.hpp</text>
</a>
</g>
</g>
<!-- Node1&#45;&gt;Node13 -->
<g id="edge17_Node000001_Node000013" class="edge">
<title>Node1&#45;&gt;Node13</title>
<g id="a_edge17_Node000001_Node000013"><a xlink:title=" ">
<path fill="none" stroke="#63b8ff" d="M369.59,-214.01C356.34,-204.72 339.99,-193.27 328.83,-185.45"/>
<polygon fill="#63b8ff" stroke="#63b8ff" points="367.54,-216.85 377.74,-219.72 371.56,-211.12 367.54,-216.85"/>
</a>
</g>
</g>
<!-- Node4 -->
<g id="Node000004" class="node">
<title>Node4</title>
<g id="a_Node000004"><a xlink:href="command__buffer_8hpp.html" target="_top" xlink:title=" ">
<polygon fill="white" stroke="#666666" points="671.25,-19.25 564.5,-19.25 564.5,0 671.25,0 671.25,-19.25"/>
<text text-anchor="middle" x="617.88" y="-5.75" font-family="Helvetica,sans-Serif" font-size="10.00">command_buffer.hpp</text>
</a>
</g>
</g>
<!-- Node3&#45;&gt;Node4 -->
<g id="edge3_Node000003_Node000004" class="edge">
<title>Node3&#45;&gt;Node4</title>
<g id="a_edge3_Node000003_Node000004"><a xlink:title=" ">
<path fill="none" stroke="#63b8ff" d="M620.09,-109.92C661.45,-102.66 709.19,-90.99 721.88,-74.5 742.41,-47.79 697.32,-29.62 660.2,-19.68"/>
<polygon fill="#63b8ff" stroke="#63b8ff" points="619.67,-106.44 610.39,-111.56 620.84,-113.34 619.67,-106.44"/>
</a>
</g>
</g>
<!-- Node5 -->
<g id="Node000005" class="node">
<title>Node5</title>
<g id="a_Node000005"><a xlink:href="deprecated_2compute__pipeline_8hpp.html" target="_top" xlink:title=" ">
<polygon fill="white" stroke="#666666" points="713.12,-74.5 602.62,-74.5 602.62,-55.25 713.12,-55.25 713.12,-74.5"/>
<text text-anchor="middle" x="657.88" y="-61" font-family="Helvetica,sans-Serif" font-size="10.00">compute_pipeline.hpp</text>
</a>
</g>
</g>
<!-- Node3&#45;&gt;Node5 -->
<g id="edge4_Node000003_Node000005" class="edge">
<title>Node3&#45;&gt;Node5</title>
<g id="a_edge4_Node000003_Node000005"><a xlink:title=" ">
<path fill="none" stroke="#63b8ff" d="M581.74,-104.86C600.3,-95.36 624.13,-83.15 640.15,-74.95"/>
<polygon fill="#63b8ff" stroke="#63b8ff" points="580.17,-101.73 572.86,-109.4 583.36,-107.96 580.17,-101.73"/>
</a>
</g>
</g>
<!-- Node6 -->
<g id="Node000006" class="node">
<title>Node6</title>
<g id="a_Node000006"><a xlink:href="deprecated_2device_8hpp_source.html" target="_top" xlink:title=" ">
<polygon fill="white" stroke="#666666" points="412.5,-19.25 349.25,-19.25 349.25,0 412.5,0 412.5,-19.25"/>
<text text-anchor="middle" x="380.88" y="-5.75" font-family="Helvetica,sans-Serif" font-size="10.00">device.hpp</text>
</a>
</g>
</g>
<!-- Node3&#45;&gt;Node6 -->
<g id="edge5_Node000003_Node000006" class="edge">
<title>Node3&#45;&gt;Node6</title>
<g id="a_edge5_Node000003_Node000006"><a xlink:title=" ">
<path fill="none" stroke="#63b8ff" d="M560.12,-99.45C563.19,-85.67 564.45,-67.58 554.88,-55.25 537.62,-33.01 458.2,-19.95 412.85,-14.18"/>
<polygon fill="#63b8ff" stroke="#63b8ff" points="556.84,-98.17 557.58,-108.74 563.59,-100.01 556.84,-98.17"/>
</a>
</g>
</g>
<!-- Node7 -->
<g id="Node000007" class="node">
<title>Node7</title>
<g id="a_Node000007"><a xlink:href="device_8hpp_source.html" target="_top" xlink:title=" ">
<polygon fill="white" stroke="#666666" points="283.5,-19.25 220.25,-19.25 220.25,0 283.5,0 283.5,-19.25"/>
<text text-anchor="middle" x="251.88" y="-5.75" font-family="Helvetica,sans-Serif" font-size="10.00">device.hpp</text>
</a>
</g>
</g>
<!-- Node3&#45;&gt;Node7 -->
<g id="edge6_Node000003_Node000007" class="edge">
<title>Node3&#45;&gt;Node7</title>
<g id="a_edge6_Node000003_Node000007"><a xlink:title=" ">
<path fill="none" stroke="#63b8ff" d="M487.78,-114.84C441.19,-109.77 378.35,-98.69 327.88,-74.5 299.28,-60.79 272.53,-33.79 259.74,-19.69"/>
<polygon fill="#63b8ff" stroke="#63b8ff" points="487.15,-118.3 497.45,-115.83 487.86,-111.33 487.15,-118.3"/>
</a>
</g>
</g>
<!-- Node8 -->
<g id="Node000008" class="node">
<title>Node8</title>
<g id="a_Node000008"><a xlink:href="synchronization_8hpp.html" target="_top" xlink:title=" ">
<polygon fill="white" stroke="#666666" points="546.38,-74.5 443.38,-74.5 443.38,-55.25 546.38,-55.25 546.38,-74.5"/>
<text text-anchor="middle" x="494.88" y="-61" font-family="Helvetica,sans-Serif" font-size="10.00">synchronization.hpp</text>
</a>
</g>
</g>
<!-- Node3&#45;&gt;Node8 -->
<g id="edge7_Node000003_Node000008" class="edge">
<title>Node3&#45;&gt;Node8</title>
<g id="a_edge7_Node000003_Node000008"><a xlink:title=" ">
<path fill="none" stroke="#63b8ff" d="M535.61,-102.64C525.42,-93.44 513.13,-82.35 504.74,-74.77"/>
<polygon fill="#63b8ff" stroke="#63b8ff" points="532.97,-104.98 542.74,-109.08 537.66,-99.78 532.97,-104.98"/>
</a>
</g>
</g>
<!-- Node8&#45;&gt;Node4 -->
<g id="edge8_Node000008_Node000004" class="edge">
<title>Node8&#45;&gt;Node4</title>
<g id="a_edge8_Node000008_Node000004"><a xlink:title=" ">
<path fill="none" stroke="#63b8ff" d="M526.3,-50.27C548.46,-40.68 577.52,-28.09 596.91,-19.7"/>
<polygon fill="#63b8ff" stroke="#63b8ff" points="524.92,-47.06 517.13,-54.24 527.7,-53.48 524.92,-47.06"/>
</a>
</g>
</g>
<!-- Node8&#45;&gt;Node7 -->
<g id="edge9_Node000008_Node000007" class="edge">
<title>Node8&#45;&gt;Node7</title>
<g id="a_edge9_Node000008_Node000007"><a xlink:title=" ">
<path fill="none" stroke="#63b8ff" d="M442.22,-52.34C394.01,-41.77 324.2,-26.47 283.89,-17.64"/>
<polygon fill="#63b8ff" stroke="#63b8ff" points="441.38,-55.74 451.9,-54.46 442.88,-48.9 441.38,-55.74"/>
</a>
</g>
</g>
<!-- Node10&#45;&gt;Node4 -->
<g id="edge12_Node000010_Node000004" class="edge">
<title>Node10&#45;&gt;Node4</title>
<g id="a_edge12_Node000010_Node000004"><a xlink:title=" ">
<path fill="none" stroke="#63b8ff" d="M432.57,-52.26C476.13,-42.47 537.58,-28.67 577.57,-19.68"/>
<polygon fill="#63b8ff" stroke="#63b8ff" points="431.81,-48.84 422.82,-54.45 433.35,-55.67 431.81,-48.84"/>
</a>
</g>
</g>
<!-- Node10&#45;&gt;Node6 -->
<g id="edge13_Node000010_Node000006" class="edge">
<title>Node10&#45;&gt;Node6</title>
<g id="a_edge13_Node000010_Node000006"><a xlink:title=" ">
<path fill="none" stroke="#63b8ff" d="M380.88,-43.63C380.88,-35.34 380.88,-26.17 380.88,-19.61"/>
<polygon fill="#63b8ff" stroke="#63b8ff" points="377.38,-43.57 380.88,-53.57 384.38,-43.57 377.38,-43.57"/>
</a>
</g>
</g>
<!-- Node10&#45;&gt;Node7 -->
<g id="edge14_Node000010_Node000007" class="edge">
<title>Node10&#45;&gt;Node7</title>
<g id="a_edge14_Node000010_Node000007"><a xlink:title=" ">
<path fill="none" stroke="#63b8ff" d="M348.55,-50.53C325.24,-40.91 294.38,-28.17 273.87,-19.7"/>
<polygon fill="#63b8ff" stroke="#63b8ff" points="347.01,-53.68 357.59,-54.26 349.68,-47.21 347.01,-53.68"/>
</a>
</g>
</g>
<!-- Node13&#45;&gt;Node4 -->
<g id="edge18_Node000013_Node000004" class="edge">
<title>Node13&#45;&gt;Node4</title>
<g id="a_edge18_Node000013_Node000004"><a xlink:title=" ">
<path fill="none" stroke="#63b8ff" d="M360.18,-171.36C460.01,-163.47 697.05,-138.24 737.88,-74.5 757.1,-44.49 711.89,-27.66 671.58,-18.9"/>
<polygon fill="#63b8ff" stroke="#63b8ff" points="359.92,-167.87 350.21,-172.12 360.45,-174.85 359.92,-167.87"/>
</a>
</g>
</g>
<!-- Node13&#45;&gt;Node6 -->
<g id="edge19_Node000013_Node000006" class="edge">
<title>Node13&#45;&gt;Node6</title>
<g id="a_edge19_Node000013_Node000006"><a xlink:title=" ">
<path fill="none" stroke="#63b8ff" d="M313.48,-154.16C311.5,-129.36 311.27,-86.71 327.88,-55.25 336.07,-39.72 352.16,-27.39 364.47,-19.66"/>
<polygon fill="#63b8ff" stroke="#63b8ff" points="309.97,-154.25 314.45,-163.85 316.94,-153.55 309.97,-154.25"/>
</a>
</g>
</g>
<!-- Node13&#45;&gt;Node7 -->
<g id="edge20_Node000013_Node000007" class="edge">
<title>Node13&#45;&gt;Node7</title>
<g id="a_edge20_Node000013_Node000007"><a xlink:title=" ">
<path fill="none" stroke="#63b8ff" d="M271.69,-174.47C197.05,-173.59 50.97,-167.02 18.88,-129.75 -41.74,-59.34 143.17,-25.41 220.02,-14.6"/>
<polygon fill="#63b8ff" stroke="#63b8ff" points="271.49,-177.97 281.52,-174.56 271.55,-170.97 271.49,-177.97"/>
</a>
</g>
</g>
<!-- Node13&#45;&gt;Node8 -->
<g id="edge29_Node000013_Node000008" class="edge">
<title>Node13&#45;&gt;Node8</title>
<g id="a_edge29_Node000013_Node000008"><a xlink:title=" ">
<path fill="none" stroke="#63b8ff" d="M340.54,-159.42C378.32,-136.52 449.36,-93.46 480.09,-74.84"/>
<polygon fill="#63b8ff" stroke="#63b8ff" points="338.86,-156.35 332.12,-164.53 342.49,-162.34 338.86,-156.35"/>
</a>
</g>
</g>
<!-- Node13&#45;&gt;Node9 -->
<g id="edge25_Node000013_Node000009" class="edge">
<title>Node13&#45;&gt;Node9</title>
<g id="a_edge25_Node000013_Node000009"><a xlink:title=" ">
<path fill="none" stroke="#63b8ff" d="M272.02,-166.31C247.09,-159.88 216.6,-148.71 194.88,-129.75 177.46,-114.55 167.51,-88.2 163.3,-74.58"/>
<polygon fill="#63b8ff" stroke="#63b8ff" points="271.03,-169.67 281.57,-168.59 272.65,-162.86 271.03,-169.67"/>
</a>
</g>
</g>
<!-- Node13&#45;&gt;Node10 -->
<g id="edge26_Node000013_Node000010" class="edge">
<title>Node13&#45;&gt;Node10</title>
<g id="a_edge26_Node000013_Node000010"><a xlink:title=" ">
<path fill="none" stroke="#63b8ff" d="M327.09,-155.65C341.21,-132.08 364.9,-92.54 375.48,-74.88"/>
<polygon fill="#63b8ff" stroke="#63b8ff" points="324.11,-153.82 321.97,-164.2 330.11,-157.42 324.11,-153.82"/>
</a>
</g>
</g>
<!-- Node14 -->
<g id="Node000014" class="node">
<title>Node14</title>
<g id="a_Node000014"><a xlink:href="framebuffer_8hpp.html" target="_top" xlink:title=" ">
<polygon fill="white" stroke="#666666" points="287.62,-129.75 204.12,-129.75 204.12,-110.5 287.62,-110.5 287.62,-129.75"/>
<text text-anchor="middle" x="245.88" y="-116.25" font-family="Helvetica,sans-Serif" font-size="10.00">framebuffer.hpp</text>
</a>
</g>
</g>
<!-- Node13&#45;&gt;Node14 -->
<g id="edge21_Node000013_Node000014" class="edge">
<title>Node13&#45;&gt;Node14</title>
<g id="a_edge21_Node000013_Node000014"><a xlink:title=" ">
<path fill="none" stroke="#63b8ff" d="M294.93,-158.44C282.7,-149.14 267.74,-137.76 257.57,-130.02"/>
<polygon fill="#63b8ff" stroke="#63b8ff" points="292.72,-161.16 302.8,-164.43 296.96,-155.59 292.72,-161.16"/>
</a>
</g>
</g>
<!-- Node15 -->
<g id="Node000015" class="node">
<title>Node15</title>
<g id="a_Node000015"><a xlink:href="swapchain_8hpp.html" target="_top" xlink:title=" ">
<polygon fill="white" stroke="#666666" points="109.5,-129.75 28.25,-129.75 28.25,-110.5 109.5,-110.5 109.5,-129.75"/>
<text text-anchor="middle" x="68.88" y="-116.25" font-family="Helvetica,sans-Serif" font-size="10.00">swapchain.hpp</text>
</a>
</g>
</g>
<!-- Node13&#45;&gt;Node15 -->
<g id="edge27_Node000013_Node000015" class="edge">
<title>Node13&#45;&gt;Node15</title>
<g id="a_edge27_Node000013_Node000015"><a xlink:title=" ">
<path fill="none" stroke="#63b8ff" d="M271.97,-164.91C225.99,-155 154.38,-139.56 109.62,-129.91"/>
<polygon fill="#63b8ff" stroke="#63b8ff" points="271.08,-168.3 281.6,-166.98 272.56,-161.46 271.08,-168.3"/>
</a>
</g>
</g>
<!-- Node14&#45;&gt;Node7 -->
<g id="edge22_Node000014_Node000007" class="edge">
<title>Node14&#45;&gt;Node7</title>
<g id="a_edge22_Node000014_Node000007"><a xlink:title=" ">
<path fill="none" stroke="#63b8ff" d="M247,-98.78C248.31,-75.05 250.42,-36.89 251.38,-19.63"/>
<polygon fill="#63b8ff" stroke="#63b8ff" points="243.51,-98.56 246.45,-108.73 250.5,-98.94 243.51,-98.56"/>
</a>
</g>
</g>
<!-- Node14&#45;&gt;Node9 -->
<g id="edge23_Node000014_Node000009" class="edge">
<title>Node14&#45;&gt;Node9</title>
<g id="a_edge23_Node000014_Node000009"><a xlink:title=" ">
<path fill="none" stroke="#63b8ff" d="M221.82,-104.05C206.85,-94.67 188.09,-82.92 175.36,-74.95"/>
<polygon fill="#63b8ff" stroke="#63b8ff" points="219.84,-106.95 230.17,-109.29 223.56,-101.01 219.84,-106.95"/>
</a>
</g>
</g>
<!-- Node14&#45;&gt;Node10 -->
<g id="edge24_Node000014_Node000010" class="edge">
<title>Node14&#45;&gt;Node10</title>
<g id="a_edge24_Node000014_Node000010"><a xlink:title=" ">
<path fill="none" stroke="#63b8ff" d="M279.37,-105.91C303.81,-96.27 336.3,-83.46 357.86,-74.95"/>
<polygon fill="#63b8ff" stroke="#63b8ff" points="278.2,-102.61 270.18,-109.54 280.77,-109.12 278.2,-102.61"/>
</a>
</g>
</g>
<!-- Node15&#45;&gt;Node7 -->
<g id="edge28_Node000015_Node000007" class="edge">
<title>Node15&#45;&gt;Node7</title>
<g id="a_edge28_Node000015_Node000007"><a xlink:title=" ">
<path fill="none" stroke="#63b8ff" d="M76.29,-99.67C82.65,-85.45 93.14,-66.72 107.88,-55.25 140.81,-29.6 188.61,-18.59 219.96,-13.93"/>
<polygon fill="#63b8ff" stroke="#63b8ff" points="73.07,-98.32 72.49,-108.9 79.54,-100.98 73.07,-98.32"/>
</a>
</g>
</g>
</g>
</svg>

<g id="navigator" transform="translate(0 0)" fill="#404254">
  <rect fill="#f2f5e9" fill-opacity="0.5" stroke="#606060" stroke-width=".5" x="0" y="0" width="60" height="60"/>
  <use id="zoomplus" xlink:href="#zoomPlus" x="17" y="9" onmousedown="handleZoom(evt,'in')"/>
  <use id="zoomminus" xlink:href="#zoomMin" x="42" y="9" onmousedown="handleZoom(evt,'out')"/>
  <use id="reset" xlink:href="#resetDef" x="30" y="36" onmousedown="handleReset()"/>
   <use id="arrowup" xlink:href="#arrowUp" x="0" y="0" onmousedown="handlePan(0,-1)"/>
  <use id="arrowright" xlink:href="#arrowRight" x="0" y="0" onmousedown="handlePan(1,0)"/>
  <use id="arrowdown" xlink:href="#arrowDown" x="0" y="0" onmousedown="handlePan(0,1)"/>
  <use id="arrowleft" xlink:href="#arrowLeft" x="0" y="0" onmousedown="handlePan(-1,0)"/>
</g>
<svg viewBox="0 0 15 15" width="100%" height="30px" preserveAspectRatio="xMaxYMin meet">
 <g id="arrow_out" transform="scale(0.3 0.3)">
  <a xlink:href="format_8hpp__dep__incl_org.svg" target="_base">
   <rect id="button" ry="5" rx="5" y="6" x="6" height="38" width="38"
        fill="#f2f5e9" fill-opacity="0.5" stroke="#606060" stroke-width="1.0"/>
   <path id="arrow"
     d="M 11.500037,31.436501 C 11.940474,20.09759 22.043105,11.32322 32.158766,21.979434 L 37.068811,17.246167 C 37.068811,17.246167 37.088388,32 37.088388,32 L 22.160133,31.978069 C 22.160133,31.978069 26.997745,27.140456 26.997745,27.140456 C 18.528582,18.264221 13.291696,25.230495 11.500037,31.436501 z"
     style="fill:#404040;"/>
  </a>
 </g>
</svg>

<style type='text/css'>
<![CDATA[
[data-mouse-over-selected='false'] { opacity: 0.7; }
[data-mouse-over-selected='true']  { opacity: 1.0; }
]]>
</style>
<script type="application/ecmascript"><![CDATA[
document.addEventListener('DOMContentLoaded', (event) => {
  highlightEdges();
  highlightAdjacentNodes();
});
]]></script>
</svg>
