<?xml version="1.0" encoding="UTF-8" standalone="no"?>
<!DOCTYPE svg PUBLIC "-//W3C//DTD SVG 1.1//EN"
 "http://www.w3.org/Graphics/SVG/1.1/DTD/svg11.dtd">
<!-- Generated by graphviz version 9.0.0 (20230911.1827)
 -->
<!-- Title: framebuffer.hpp Pages: 1 -->
<svg width="324pt" height="193pt"
 viewBox="0.00 0.00 323.75 193.00" xmlns="http://www.w3.org/2000/svg" xmlns:xlink="http://www.w3.org/1999/xlink">
<g id="graph0" class="graph" transform="scale(1 1) rotate(0) translate(4 189)">
<title>framebuffer.hpp</title>
<!-- Node1 -->
<g id="Node000001" class="node">
<title>Node1</title>
<g id="a_Node000001"><a xlink:title=" ">
<polygon fill="#999999" stroke="#666666" points="210,-185 126.5,-185 126.5,-165.75 210,-165.75 210,-185"/>
<text text-anchor="middle" x="168.25" y="-171.5" font-family="Helvetica,sans-Serif" font-size="10.00">framebuffer.hpp</text>
</a>
</g>
</g>
<!-- Node2 -->
<g id="Node000002" class="node">
<title>Node2</title>
<g id="a_Node000002"><a xlink:href="texture_8hpp.html" target="_top" xlink:title=" ">
<polygon fill="white" stroke="#666666" points="232.88,-129.75 103.62,-129.75 103.62,-110.5 232.88,-110.5 232.88,-129.75"/>
<text text-anchor="middle" x="168.25" y="-116.25" font-family="Helvetica,sans-Serif" font-size="10.00">liger/render/rhi/texture.hpp</text>
</a>
</g>
</g>
<!-- Node1&#45;&gt;Node2 -->
<g id="edge1_Node000001_Node000002" class="edge">
<title>Node1&#45;&gt;Node2</title>
<g id="a_edge1_Node000001_Node000002"><a xlink:title=" ">
<path fill="none" stroke="#63b8ff" d="M168.25,-165.58C168.25,-159.07 168.25,-149.92 168.25,-141.62"/>
<polygon fill="#63b8ff" stroke="#63b8ff" points="171.75,-141.62 168.25,-131.62 164.75,-141.62 171.75,-141.62"/>
</a>
</g>
</g>
<!-- Node3 -->
<g id="Node000003" class="node">
<title>Node3</title>
<g id="a_Node000003"><a xlink:href="device__resource_8hpp.html" target="_top" xlink:title=" ">
<polygon fill="white" stroke="#666666" points="170.5,-74.5 0,-74.5 0,-55.25 170.5,-55.25 170.5,-74.5"/>
<text text-anchor="middle" x="85.25" y="-61" font-family="Helvetica,sans-Serif" font-size="10.00">liger/render/rhi/device_resource.hpp</text>
</a>
</g>
</g>
<!-- Node2&#45;&gt;Node3 -->
<g id="edge2_Node000002_Node000003" class="edge">
<title>Node2&#45;&gt;Node3</title>
<g id="a_edge2_Node000002_Node000003"><a xlink:title=" ">
<path fill="none" stroke="#63b8ff" d="M154.17,-110.09C141.77,-102.14 123.46,-90.39 108.82,-81"/>
<polygon fill="#63b8ff" stroke="#63b8ff" points="110.98,-78.22 100.67,-75.77 107.2,-84.12 110.98,-78.22"/>
</a>
</g>
</g>
<!-- Node5 -->
<g id="Node000005" class="node">
<title>Node5</title>
<g id="a_Node000005"><a xlink:href="format_8hpp.html" target="_top" xlink:title=" ">
<polygon fill="white" stroke="#666666" points="315.75,-74.5 188.75,-74.5 188.75,-55.25 315.75,-55.25 315.75,-74.5"/>
<text text-anchor="middle" x="252.25" y="-61" font-family="Helvetica,sans-Serif" font-size="10.00">liger/render/rhi/format.hpp</text>
</a>
</g>
</g>
<!-- Node2&#45;&gt;Node5 -->
<g id="edge4_Node000002_Node000005" class="edge">
<title>Node2&#45;&gt;Node5</title>
<g id="a_edge4_Node000002_Node000005"><a xlink:title=" ">
<path fill="none" stroke="#63b8ff" d="M182.5,-110.09C195.05,-102.14 213.58,-90.39 228.39,-81"/>
<polygon fill="#63b8ff" stroke="#63b8ff" points="230.08,-84.07 236.65,-75.76 226.33,-78.16 230.08,-84.07"/>
</a>
</g>
</g>
<!-- Node4 -->
<g id="Node000004" class="node">
<title>Node4</title>
<g id="a_Node000004"><a xlink:title=" ">
<polygon fill="#e0e0e0" stroke="#999999" points="216.38,-19.25 120.12,-19.25 120.12,0 216.38,0 216.38,-19.25"/>
<text text-anchor="middle" x="168.25" y="-5.75" font-family="Helvetica,sans-Serif" font-size="10.00">liger/core/core.hpp</text>
</a>
</g>
</g>
<!-- Node3&#45;&gt;Node4 -->
<g id="edge3_Node000003_Node000004" class="edge">
<title>Node3&#45;&gt;Node4</title>
<g id="a_edge3_Node000003_Node000004"><a xlink:title=" ">
<path fill="none" stroke="#63b8ff" d="M99.33,-54.84C111.73,-46.89 130.04,-35.14 144.68,-25.75"/>
<polygon fill="#63b8ff" stroke="#63b8ff" points="146.3,-28.87 152.83,-20.52 142.52,-22.97 146.3,-28.87"/>
</a>
</g>
</g>
<!-- Node5&#45;&gt;Node4 -->
<g id="edge5_Node000005_Node000004" class="edge">
<title>Node5&#45;&gt;Node4</title>
<g id="a_edge5_Node000005_Node000004"><a xlink:title=" ">
<path fill="none" stroke="#63b8ff" d="M238,-54.84C225.45,-46.89 206.92,-35.14 192.11,-25.75"/>
<polygon fill="#63b8ff" stroke="#63b8ff" points="194.17,-22.91 183.85,-20.51 190.42,-28.82 194.17,-22.91"/>
</a>
</g>
</g>
</g>
</svg>
