<?xml version="1.0" encoding="UTF-8" standalone="no"?>
<!DOCTYPE svg PUBLIC "-//W3C//DTD SVG 1.1//EN"
 "http://www.w3.org/Graphics/SVG/1.1/DTD/svg11.dtd">
<!-- Generated by graphviz version 9.0.0 (20230911.1827)
 -->
<!-- Title: graphics_pipeline.hpp Pages: 1 -->
<svg width="608pt" height="248pt"
 viewBox="0.00 0.00 607.88 248.25" xmlns="http://www.w3.org/2000/svg" xmlns:xlink="http://www.w3.org/1999/xlink">
<g id="graph0" class="graph" transform="scale(1 1) rotate(0) translate(4 244.25)">
<title>graphics_pipeline.hpp</title>
<!-- Node1 -->
<g id="Node000001" class="node">
<title>Node1</title>
<g id="a_Node000001"><a xlink:title=" ">
<polygon fill="#999999" stroke="#666666" points="380.25,-240.25 270.5,-240.25 270.5,-221 380.25,-221 380.25,-240.25"/>
<text text-anchor="middle" x="325.38" y="-226.75" font-family="Helvetica,sans-Serif" font-size="10.00">graphics_pipeline.hpp</text>
</a>
</g>
</g>
<!-- Node2 -->
<g id="Node000002" class="node">
<title>Node2</title>
<g id="a_Node000002"><a xlink:href="first__draft_2command__buffer_8hpp.html" target="_top" xlink:title=" ">
<polygon fill="white" stroke="#666666" points="106.75,-185 0,-185 0,-165.75 106.75,-165.75 106.75,-185"/>
<text text-anchor="middle" x="53.38" y="-171.5" font-family="Helvetica,sans-Serif" font-size="10.00">command_buffer.hpp</text>
</a>
</g>
</g>
<!-- Node1&#45;&gt;Node2 -->
<g id="edge1_Node000001_Node000002" class="edge">
<title>Node1&#45;&gt;Node2</title>
<g id="a_edge1_Node000001_Node000002"><a xlink:title=" ">
<path fill="none" stroke="#63b8ff" d="M267.64,-218.32C217.56,-208.52 146.02,-194.51 99.63,-185.43"/>
<polygon fill="#63b8ff" stroke="#63b8ff" points="266.95,-221.75 277.44,-220.24 268.3,-214.88 266.95,-221.75"/>
</a>
</g>
</g>
<!-- Node3 -->
<g id="Node000003" class="node">
<title>Node3</title>
<g id="a_Node000003"><a xlink:href="deprecated_2compute__pipeline_8hpp.html" target="_top" xlink:title=" ">
<polygon fill="white" stroke="#666666" points="235.62,-185 125.12,-185 125.12,-165.75 235.62,-165.75 235.62,-185"/>
<text text-anchor="middle" x="180.38" y="-171.5" font-family="Helvetica,sans-Serif" font-size="10.00">compute_pipeline.hpp</text>
</a>
</g>
</g>
<!-- Node1&#45;&gt;Node3 -->
<g id="edge2_Node000001_Node000003" class="edge">
<title>Node1&#45;&gt;Node3</title>
<g id="a_edge2_Node000001_Node000003"><a xlink:title=" ">
<path fill="none" stroke="#63b8ff" d="M290.11,-216.67C263.78,-207 228.46,-194.04 205.09,-185.45"/>
<polygon fill="#63b8ff" stroke="#63b8ff" points="288.76,-219.91 299.36,-220.07 291.18,-213.34 288.76,-219.91"/>
</a>
</g>
</g>
<!-- Node4 -->
<g id="Node000004" class="node">
<title>Node4</title>
<g id="a_Node000004"><a xlink:href="deprecated_2device_8hpp_source.html" target="_top" xlink:title=" ">
<polygon fill="white" stroke="#666666" points="317,-185 253.75,-185 253.75,-165.75 317,-165.75 317,-185"/>
<text text-anchor="middle" x="285.38" y="-171.5" font-family="Helvetica,sans-Serif" font-size="10.00">device.hpp</text>
</a>
</g>
</g>
<!-- Node1&#45;&gt;Node4 -->
<g id="edge3_Node000001_Node000004" class="edge">
<title>Node1&#45;&gt;Node4</title>
<g id="a_edge3_Node000001_Node000004"><a xlink:title=" ">
<path fill="none" stroke="#63b8ff" d="M311.9,-211.69C305.25,-202.84 297.52,-192.54 292.12,-185.36"/>
<polygon fill="#63b8ff" stroke="#63b8ff" points="309.06,-213.73 317.86,-219.62 314.65,-209.52 309.06,-213.73"/>
</a>
</g>
</g>
<!-- Node5 -->
<g id="Node000005" class="node">
<title>Node5</title>
<g id="a_Node000005"><a xlink:href="device_8hpp.html" target="_top" xlink:title=" ">
<polygon fill="white" stroke="#666666" points="398,-185 334.75,-185 334.75,-165.75 398,-165.75 398,-185"/>
<text text-anchor="middle" x="366.38" y="-171.5" font-family="Helvetica,sans-Serif" font-size="10.00">device.hpp</text>
</a>
</g>
</g>
<!-- Node1&#45;&gt;Node5 -->
<g id="edge4_Node000001_Node000005" class="edge">
<title>Node1&#45;&gt;Node5</title>
<g id="a_edge4_Node000001_Node000005"><a xlink:title=" ">
<path fill="none" stroke="#63b8ff" d="M338.96,-211.97C345.83,-203.06 353.87,-192.62 359.46,-185.36"/>
<polygon fill="#63b8ff" stroke="#63b8ff" points="336.4,-209.57 333.07,-219.63 341.94,-213.84 336.4,-209.57"/>
</a>
</g>
</g>
<!-- Node10 -->
<g id="Node000010" class="node">
<title>Node10</title>
<g id="a_Node000010"><a xlink:href="first__draft_2device_8hpp_source.html" target="_top" xlink:title=" ">
<polygon fill="white" stroke="#666666" points="479,-185 415.75,-185 415.75,-165.75 479,-165.75 479,-185"/>
<text text-anchor="middle" x="447.38" y="-171.5" font-family="Helvetica,sans-Serif" font-size="10.00">device.hpp</text>
</a>
</g>
</g>
<!-- Node1&#45;&gt;Node10 -->
<g id="edge10_Node000001_Node000010" class="edge">
<title>Node1&#45;&gt;Node10</title>
<g id="a_edge10_Node000001_Node000010"><a xlink:title=" ">
<path fill="none" stroke="#63b8ff" d="M356.54,-216.02C378.52,-206.43 407.35,-193.84 426.58,-185.45"/>
<polygon fill="#63b8ff" stroke="#63b8ff" points="355.22,-212.78 347.46,-219.99 358.02,-219.19 355.22,-212.78"/>
</a>
</g>
</g>
<!-- Node11 -->
<g id="Node000011" class="node">
<title>Node11</title>
<g id="a_Node000011"><a xlink:href="synchronization_8hpp.html" target="_top" xlink:title=" ">
<polygon fill="white" stroke="#666666" points="599.88,-185 496.88,-185 496.88,-165.75 599.88,-165.75 599.88,-185"/>
<text text-anchor="middle" x="548.38" y="-171.5" font-family="Helvetica,sans-Serif" font-size="10.00">synchronization.hpp</text>
</a>
</g>
</g>
<!-- Node1&#45;&gt;Node11 -->
<g id="edge11_Node000001_Node000011" class="edge">
<title>Node1&#45;&gt;Node11</title>
<g id="a_edge11_Node000001_Node000011"><a xlink:title=" ">
<path fill="none" stroke="#63b8ff" d="M374.54,-217.89C415.49,-208.11 472.98,-194.38 510.45,-185.43"/>
<polygon fill="#63b8ff" stroke="#63b8ff" points="373.84,-214.45 364.93,-220.18 375.47,-221.26 373.84,-214.45"/>
</a>
</g>
</g>
<!-- Node6 -->
<g id="Node000006" class="node">
<title>Node6</title>
<g id="a_Node000006"><a xlink:href="instance_8hpp.html" target="_top" xlink:title=" ">
<polygon fill="white" stroke="#666666" points="364.12,-129.75 292.62,-129.75 292.62,-110.5 364.12,-110.5 364.12,-129.75"/>
<text text-anchor="middle" x="328.38" y="-116.25" font-family="Helvetica,sans-Serif" font-size="10.00">instance.hpp</text>
</a>
</g>
</g>
<!-- Node5&#45;&gt;Node6 -->
<g id="edge5_Node000005_Node000006" class="edge">
<title>Node5&#45;&gt;Node6</title>
<g id="a_edge5_Node000005_Node000006"><a xlink:title=" ">
<path fill="none" stroke="#63b8ff" d="M353.58,-156.44C347.26,-147.59 339.91,-137.29 334.79,-130.11"/>
<polygon fill="#63b8ff" stroke="#63b8ff" points="350.56,-158.24 359.22,-164.35 356.26,-154.18 350.56,-158.24"/>
</a>
</g>
</g>
<!-- Node9 -->
<g id="Node000009" class="node">
<title>Node9</title>
<g id="a_Node000009"><a xlink:href="vulkan__utils_8hpp.html" target="_top" xlink:title=" ">
<polygon fill="white" stroke="#666666" points="460.62,-74.5 374.12,-74.5 374.12,-55.25 460.62,-55.25 460.62,-74.5"/>
<text text-anchor="middle" x="417.38" y="-61" font-family="Helvetica,sans-Serif" font-size="10.00">vulkan_utils.hpp</text>
</a>
</g>
</g>
<!-- Node5&#45;&gt;Node9 -->
<g id="edge8_Node000005_Node000009" class="edge">
<title>Node5&#45;&gt;Node9</title>
<g id="a_edge8_Node000005_Node000009"><a xlink:title=" ">
<path fill="none" stroke="#63b8ff" d="M375.33,-155.33C386.42,-131.72 404.88,-92.46 413.14,-74.88"/>
<polygon fill="#63b8ff" stroke="#63b8ff" points="372.28,-153.59 371.19,-164.13 378.61,-156.57 372.28,-153.59"/>
</a>
</g>
</g>
<!-- Node7 -->
<g id="Node000007" class="node">
<title>Node7</title>
<g id="a_Node000007"><a xlink:href="vulkan__instance_8hpp.html" target="_top" xlink:title=" ">
<polygon fill="white" stroke="#666666" points="356,-74.5 250.75,-74.5 250.75,-55.25 356,-55.25 356,-74.5"/>
<text text-anchor="middle" x="303.38" y="-61" font-family="Helvetica,sans-Serif" font-size="10.00">vulkan_instance.hpp</text>
</a>
</g>
</g>
<!-- Node6&#45;&gt;Node7 -->
<g id="edge6_Node000006_Node000007" class="edge">
<title>Node6&#45;&gt;Node7</title>
<g id="a_edge6_Node000006_Node000007"><a xlink:title=" ">
<path fill="none" stroke="#63b8ff" d="M319.41,-100.04C315.38,-91.46 310.82,-81.73 307.59,-74.86"/>
<polygon fill="#63b8ff" stroke="#63b8ff" points="316.19,-101.4 323.6,-108.96 322.52,-98.42 316.19,-101.4"/>
</a>
</g>
</g>
<!-- Node8 -->
<g id="Node000008" class="node">
<title>Node8</title>
<g id="a_Node000008"><a xlink:href="vulkan__instance_8cpp.html" target="_top" xlink:title=" ">
<polygon fill="white" stroke="#666666" points="413,-19.25 307.75,-19.25 307.75,0 413,0 413,-19.25"/>
<text text-anchor="middle" x="360.38" y="-5.75" font-family="Helvetica,sans-Serif" font-size="10.00">vulkan_instance.cpp</text>
</a>
</g>
</g>
<!-- Node7&#45;&gt;Node8 -->
<g id="edge7_Node000007_Node000008" class="edge">
<title>Node7&#45;&gt;Node8</title>
<g id="a_edge7_Node000007_Node000008"><a xlink:title=" ">
<path fill="none" stroke="#63b8ff" d="M321.32,-47.11C331.11,-37.97 342.82,-27.03 350.85,-19.52"/>
<polygon fill="#63b8ff" stroke="#63b8ff" points="319.07,-44.42 314.15,-53.81 323.85,-49.54 319.07,-44.42"/>
</a>
</g>
</g>
<!-- Node9&#45;&gt;Node8 -->
<g id="edge9_Node000009_Node000008" class="edge">
<title>Node9&#45;&gt;Node8</title>
<g id="a_edge9_Node000009_Node000008"><a xlink:title=" ">
<path fill="none" stroke="#63b8ff" d="M399.43,-47.11C389.64,-37.97 377.93,-27.03 369.9,-19.52"/>
<polygon fill="#63b8ff" stroke="#63b8ff" points="396.9,-49.54 406.6,-53.81 401.68,-44.42 396.9,-49.54"/>
</a>
</g>
</g>
</g>
</svg>
