<?xml version="1.0" encoding="UTF-8" standalone="no"?>
<!DOCTYPE svg PUBLIC "-//W3C//DTD SVG 1.1//EN"
 "http://www.w3.org/Graphics/SVG/1.1/DTD/svg11.dtd">
<!-- Generated by graphviz version 9.0.0 (20230911.1827)
 -->
<!-- Title: graphics_pipeline.hpp Pages: 1 -->
<svg width="355pt" height="138pt"
 viewBox="0.00 0.00 355.35 137.75" xmlns="http://www.w3.org/2000/svg" xmlns:xlink="http://www.w3.org/1999/xlink">
<g id="graph0" class="graph" transform="scale(1 1) rotate(0) translate(4 133.75)">
<title>graphics_pipeline.hpp</title>
<!-- Node1 -->
<g id="Node000001" class="node">
<title>Node1</title>
<g id="a_Node000001"><a xlink:title=" ">
<polygon fill="#999999" stroke="#666666" points="229.6,-129.75 119.85,-129.75 119.85,-110.5 229.6,-110.5 229.6,-129.75"/>
<text text-anchor="middle" x="174.72" y="-116.25" font-family="Helvetica,sans-Serif" font-size="10.00">graphics_pipeline.hpp</text>
</a>
</g>
</g>
<!-- Node2 -->
<g id="Node000002" class="node">
<title>Node2</title>
<g id="a_Node000002"><a xlink:href="command__buffer_8hpp.html" target="_top" xlink:title=" ">
<polygon fill="white" stroke="#666666" points="173.1,-19.25 66.35,-19.25 66.35,0 173.1,0 173.1,-19.25"/>
<text text-anchor="middle" x="119.72" y="-5.75" font-family="Helvetica,sans-Serif" font-size="10.00">command_buffer.hpp</text>
</a>
</g>
</g>
<!-- Node1&#45;&gt;Node2 -->
<g id="edge1_Node000001_Node000002" class="edge">
<title>Node1&#45;&gt;Node2</title>
<g id="a_edge1_Node000001_Node000002"><a xlink:title=" ">
<path fill="none" stroke="#63b8ff" d="M108.12,-109.97C66.51,-102.74 18.48,-91.07 5.72,-74.5 -15.67,-46.73 30.28,-29.21 70.08,-19.69"/>
<polygon fill="#63b8ff" stroke="#63b8ff" points="107.44,-113.41 117.88,-111.6 108.59,-106.5 107.44,-113.41"/>
</a>
</g>
</g>
<!-- Node3 -->
<g id="Node000003" class="node">
<title>Node3</title>
<g id="a_Node000003"><a xlink:href="deprecated_2compute__pipeline_8hpp.html" target="_top" xlink:title=" ">
<polygon fill="white" stroke="#666666" points="124.97,-74.5 14.47,-74.5 14.47,-55.25 124.97,-55.25 124.97,-74.5"/>
<text text-anchor="middle" x="69.72" y="-61" font-family="Helvetica,sans-Serif" font-size="10.00">compute_pipeline.hpp</text>
</a>
</g>
</g>
<!-- Node1&#45;&gt;Node3 -->
<g id="edge2_Node000001_Node000003" class="edge">
<title>Node1&#45;&gt;Node3</title>
<g id="a_edge2_Node000001_Node000003"><a xlink:title=" ">
<path fill="none" stroke="#63b8ff" d="M146.85,-104.99C128.08,-95.47 103.86,-83.19 87.62,-74.95"/>
<polygon fill="#63b8ff" stroke="#63b8ff" points="145.06,-108.01 155.56,-109.41 148.22,-101.76 145.06,-108.01"/>
</a>
</g>
</g>
<!-- Node4 -->
<g id="Node000004" class="node">
<title>Node4</title>
<g id="a_Node000004"><a xlink:href="deprecated_2device_8hpp_source.html" target="_top" xlink:title=" ">
<polygon fill="white" stroke="#666666" points="206.35,-74.5 143.1,-74.5 143.1,-55.25 206.35,-55.25 206.35,-74.5"/>
<text text-anchor="middle" x="174.72" y="-61" font-family="Helvetica,sans-Serif" font-size="10.00">device.hpp</text>
</a>
</g>
</g>
<!-- Node1&#45;&gt;Node4 -->
<g id="edge3_Node000001_Node000004" class="edge">
<title>Node1&#45;&gt;Node4</title>
<g id="a_edge3_Node000001_Node000004"><a xlink:title=" ">
<path fill="none" stroke="#63b8ff" d="M174.72,-98.88C174.72,-90.59 174.72,-81.42 174.72,-74.86"/>
<polygon fill="#63b8ff" stroke="#63b8ff" points="171.22,-98.82 174.72,-108.82 178.22,-98.82 171.22,-98.82"/>
</a>
</g>
</g>
<!-- Node5 -->
<g id="Node000005" class="node">
<title>Node5</title>
<g id="a_Node000005"><a xlink:href="device_8hpp_source.html" target="_top" xlink:title=" ">
<polygon fill="white" stroke="#666666" points="347.35,-19.25 284.1,-19.25 284.1,0 347.35,0 347.35,-19.25"/>
<text text-anchor="middle" x="315.72" y="-5.75" font-family="Helvetica,sans-Serif" font-size="10.00">device.hpp</text>
</a>
</g>
</g>
<!-- Node1&#45;&gt;Node5 -->
<g id="edge4_Node000001_Node000005" class="edge">
<title>Node1&#45;&gt;Node5</title>
<g id="a_edge4_Node000001_Node000005"><a xlink:title=" ">
<path fill="none" stroke="#63b8ff" d="M241.09,-109.14C280.39,-101.72 324.79,-90.16 336.72,-74.5 349.59,-57.6 333.55,-32.45 323.2,-19.31"/>
<polygon fill="#63b8ff" stroke="#63b8ff" points="240.61,-105.67 231.39,-110.9 241.86,-112.56 240.61,-105.67"/>
</a>
</g>
</g>
<!-- Node6 -->
<g id="Node000006" class="node">
<title>Node6</title>
<g id="a_Node000006"><a xlink:href="synchronization_8hpp.html" target="_top" xlink:title=" ">
<polygon fill="white" stroke="#666666" points="327.22,-74.5 224.22,-74.5 224.22,-55.25 327.22,-55.25 327.22,-74.5"/>
<text text-anchor="middle" x="275.72" y="-61" font-family="Helvetica,sans-Serif" font-size="10.00">synchronization.hpp</text>
</a>
</g>
</g>
<!-- Node1&#45;&gt;Node6 -->
<g id="edge5_Node000001_Node000006" class="edge">
<title>Node1&#45;&gt;Node6</title>
<g id="a_edge5_Node000001_Node000006"><a xlink:title=" ">
<path fill="none" stroke="#63b8ff" d="M202.03,-104.73C220.02,-95.24 243.02,-83.11 258.5,-74.95"/>
<polygon fill="#63b8ff" stroke="#63b8ff" points="200.41,-101.63 193.19,-109.39 203.67,-107.82 200.41,-101.63"/>
</a>
</g>
</g>
<!-- Node6&#45;&gt;Node2 -->
<g id="edge6_Node000006_Node000002" class="edge">
<title>Node6&#45;&gt;Node2</title>
<g id="a_edge6_Node000006_Node000002"><a xlink:title=" ">
<path fill="none" stroke="#63b8ff" d="M238.53,-51.18C210.13,-41.49 171.68,-28.36 146.31,-19.7"/>
<polygon fill="#63b8ff" stroke="#63b8ff" points="237.23,-54.43 247.82,-54.35 239.49,-47.81 237.23,-54.43"/>
</a>
</g>
</g>
<!-- Node6&#45;&gt;Node5 -->
<g id="edge7_Node000006_Node000005" class="edge">
<title>Node6&#45;&gt;Node5</title>
<g id="a_edge7_Node000006_Node000005"><a xlink:title=" ">
<path fill="none" stroke="#63b8ff" d="M289.19,-45.94C295.84,-37.09 303.58,-26.79 308.97,-19.61"/>
<polygon fill="#63b8ff" stroke="#63b8ff" points="286.44,-43.77 283.23,-53.87 292.04,-47.98 286.44,-43.77"/>
</a>
</g>
</g>
</g>
</svg>
