<?xml version="1.0" encoding="UTF-8" standalone="no"?>
<!DOCTYPE svg PUBLIC "-//W3C//DTD SVG 1.1//EN"
 "http://www.w3.org/Graphics/SVG/1.1/DTD/svg11.dtd">
<!-- Generated by graphviz version 9.0.0 (20230911.1827)
 -->
<!-- Title: handles.hpp Pages: 1 -->
<svg width="330pt" height="193pt"
 viewBox="0.00 0.00 330.25 193.00" xmlns="http://www.w3.org/2000/svg" xmlns:xlink="http://www.w3.org/1999/xlink">
<g id="graph0" class="graph" transform="scale(1 1) rotate(0) translate(4 189)">
<title>handles.hpp</title>
<!-- Node1 -->
<g id="Node000001" class="node">
<title>Node1</title>
<g id="a_Node000001"><a xlink:title=" ">
<polygon fill="#999999" stroke="#666666" points="219.25,-185 150.75,-185 150.75,-165.75 219.25,-165.75 219.25,-185"/>
<text text-anchor="middle" x="185" y="-171.5" font-family="Helvetica,sans-Serif" font-size="10.00">handles.hpp</text>
</a>
</g>
</g>
<!-- Node2 -->
<g id="Node000002" class="node">
<title>Node2</title>
<g id="a_Node000002"><a xlink:href="framebuffer_8hpp.html" target="_top" xlink:title=" ">
<polygon fill="white" stroke="#666666" points="191.75,-129.75 108.25,-129.75 108.25,-110.5 191.75,-110.5 191.75,-129.75"/>
<text text-anchor="middle" x="150" y="-116.25" font-family="Helvetica,sans-Serif" font-size="10.00">framebuffer.hpp</text>
</a>
</g>
</g>
<!-- Node1&#45;&gt;Node2 -->
<g id="edge1_Node000001_Node000002" class="edge">
<title>Node1&#45;&gt;Node2</title>
<g id="a_edge1_Node000001_Node000002"><a xlink:title=" ">
<path fill="none" stroke="#63b8ff" d="M173.02,-156.15C167.25,-147.36 160.57,-137.21 155.91,-130.11"/>
<polygon fill="#63b8ff" stroke="#63b8ff" points="169.97,-157.88 178.39,-164.32 175.82,-154.04 169.97,-157.88"/>
</a>
</g>
</g>
<!-- Node7 -->
<g id="Node000007" class="node">
<title>Node7</title>
<g id="a_Node000007"><a xlink:href="graphics__pipeline_8hpp.html" target="_top" xlink:title=" ">
<polygon fill="white" stroke="#666666" points="321.88,-74.5 212.12,-74.5 212.12,-55.25 321.88,-55.25 321.88,-74.5"/>
<text text-anchor="middle" x="267" y="-61" font-family="Helvetica,sans-Serif" font-size="10.00">graphics_pipeline.hpp</text>
</a>
</g>
</g>
<!-- Node1&#45;&gt;Node7 -->
<g id="edge6_Node000001_Node000007" class="edge">
<title>Node1&#45;&gt;Node7</title>
<g id="a_edge6_Node000001_Node000007"><a xlink:title=" ">
<path fill="none" stroke="#63b8ff" d="M198.43,-156.6C216.15,-133.16 246.66,-92.78 260.2,-74.88"/>
<polygon fill="#63b8ff" stroke="#63b8ff" points="195.86,-154.2 192.62,-164.29 201.44,-158.42 195.86,-154.2"/>
</a>
</g>
</g>
<!-- Node3 -->
<g id="Node000003" class="node">
<title>Node3</title>
<g id="a_Node000003"><a xlink:href="deprecated_2render__pass_8hpp.html" target="_top" xlink:title=" ">
<polygon fill="white" stroke="#666666" points="194,-74.5 106,-74.5 106,-55.25 194,-55.25 194,-74.5"/>
<text text-anchor="middle" x="150" y="-61" font-family="Helvetica,sans-Serif" font-size="10.00">render_pass.hpp</text>
</a>
</g>
</g>
<!-- Node2&#45;&gt;Node3 -->
<g id="edge2_Node000002_Node000003" class="edge">
<title>Node2&#45;&gt;Node3</title>
<g id="a_edge2_Node000002_Node000003"><a xlink:title=" ">
<path fill="none" stroke="#63b8ff" d="M150,-98.88C150,-90.59 150,-81.42 150,-74.86"/>
<polygon fill="#63b8ff" stroke="#63b8ff" points="146.5,-98.82 150,-108.82 153.5,-98.82 146.5,-98.82"/>
</a>
</g>
</g>
<!-- Node4 -->
<g id="Node000004" class="node">
<title>Node4</title>
<g id="a_Node000004"><a xlink:href="render__pass_8hpp.html" target="_top" xlink:title=" ">
<polygon fill="white" stroke="#666666" points="88,-74.5 0,-74.5 0,-55.25 88,-55.25 88,-74.5"/>
<text text-anchor="middle" x="44" y="-61" font-family="Helvetica,sans-Serif" font-size="10.00">render_pass.hpp</text>
</a>
</g>
</g>
<!-- Node2&#45;&gt;Node4 -->
<g id="edge3_Node000002_Node000004" class="edge">
<title>Node2&#45;&gt;Node4</title>
<g id="a_edge3_Node000002_Node000004"><a xlink:title=" ">
<path fill="none" stroke="#63b8ff" d="M121.87,-104.99C102.91,-95.47 78.47,-83.19 62.07,-74.95"/>
<polygon fill="#63b8ff" stroke="#63b8ff" points="120.16,-108.05 130.67,-109.41 123.3,-101.8 120.16,-108.05"/>
</a>
</g>
</g>
<!-- Node5 -->
<g id="Node000005" class="node">
<title>Node5</title>
<g id="a_Node000005"><a xlink:href="deprecated_2device_8hpp_source.html" target="_top" xlink:title=" ">
<polygon fill="white" stroke="#666666" points="184.62,-19.25 121.38,-19.25 121.38,0 184.62,0 184.62,-19.25"/>
<text text-anchor="middle" x="153" y="-5.75" font-family="Helvetica,sans-Serif" font-size="10.00">device.hpp</text>
</a>
</g>
</g>
<!-- Node4&#45;&gt;Node5 -->
<g id="edge4_Node000004_Node000005" class="edge">
<title>Node4&#45;&gt;Node5</title>
<g id="a_edge4_Node000004_Node000005"><a xlink:title=" ">
<path fill="none" stroke="#63b8ff" d="M72.66,-49.87C92.19,-40.33 117.48,-27.98 134.42,-19.7"/>
<polygon fill="#63b8ff" stroke="#63b8ff" points="71.3,-46.64 63.85,-54.18 74.37,-52.93 71.3,-46.64"/>
</a>
</g>
</g>
<!-- Node6 -->
<g id="Node000006" class="node">
<title>Node6</title>
<g id="a_Node000006"><a xlink:href="device_8hpp_source.html" target="_top" xlink:title=" ">
<polygon fill="white" stroke="#666666" points="85.62,-19.25 22.38,-19.25 22.38,0 85.62,0 85.62,-19.25"/>
<text text-anchor="middle" x="54" y="-5.75" font-family="Helvetica,sans-Serif" font-size="10.00">device.hpp</text>
</a>
</g>
</g>
<!-- Node4&#45;&gt;Node6 -->
<g id="edge5_Node000004_Node000006" class="edge">
<title>Node4&#45;&gt;Node6</title>
<g id="a_edge5_Node000004_Node000006"><a xlink:title=" ">
<path fill="none" stroke="#63b8ff" d="M47.75,-43.92C49.32,-35.55 51.07,-26.25 52.31,-19.61"/>
<polygon fill="#63b8ff" stroke="#63b8ff" points="44.34,-43.12 45.93,-53.59 51.22,-44.41 44.34,-43.12"/>
</a>
</g>
</g>
<!-- Node7&#45;&gt;Node5 -->
<g id="edge8_Node000007_Node000005" class="edge">
<title>Node7&#45;&gt;Node5</title>
<g id="a_edge8_Node000007_Node000005"><a xlink:title=" ">
<path fill="none" stroke="#63b8ff" d="M237.31,-50.01C216.85,-40.45 190.23,-28.02 172.43,-19.7"/>
<polygon fill="#63b8ff" stroke="#63b8ff" points="235.75,-53.14 246.29,-54.2 238.71,-46.8 235.75,-53.14"/>
</a>
</g>
</g>
<!-- Node7&#45;&gt;Node6 -->
<g id="edge9_Node000007_Node000006" class="edge">
<title>Node7&#45;&gt;Node6</title>
<g id="a_edge9_Node000007_Node000006"><a xlink:title=" ">
<path fill="none" stroke="#63b8ff" d="M219.89,-52.1C179.25,-41.94 121.66,-27.54 86.12,-18.66"/>
<polygon fill="#63b8ff" stroke="#63b8ff" points="218.85,-55.44 229.4,-54.47 220.55,-48.65 218.85,-55.44"/>
</a>
</g>
</g>
<!-- Node8 -->
<g id="Node000008" class="node">
<title>Node8</title>
<g id="a_Node000008"><a xlink:href="deprecated_2compute__pipeline_8hpp.html" target="_top" xlink:title=" ">
<polygon fill="white" stroke="#666666" points="322.25,-19.25 211.75,-19.25 211.75,0 322.25,0 322.25,-19.25"/>
<text text-anchor="middle" x="267" y="-5.75" font-family="Helvetica,sans-Serif" font-size="10.00">compute_pipeline.hpp</text>
</a>
</g>
</g>
<!-- Node7&#45;&gt;Node8 -->
<g id="edge7_Node000007_Node000008" class="edge">
<title>Node7&#45;&gt;Node8</title>
<g id="a_edge7_Node000007_Node000008"><a xlink:title=" ">
<path fill="none" stroke="#63b8ff" d="M267,-43.63C267,-35.34 267,-26.17 267,-19.61"/>
<polygon fill="#63b8ff" stroke="#63b8ff" points="263.5,-43.57 267,-53.57 270.5,-43.57 263.5,-43.57"/>
</a>
</g>
</g>
</g>
</svg>
