<?xml version="1.0" encoding="UTF-8" standalone="no"?>
<!DOCTYPE svg PUBLIC "-//W3C//DTD SVG 1.1//EN"
 "http://www.w3.org/Graphics/SVG/1.1/DTD/svg11.dtd">
<!-- Generated by graphviz version 9.0.0 (20230911.1827)
 -->
<!-- Title: Graphical Class Hierarchy Pages: 1 -->
<svg width="304pt" height="471pt"
 viewBox="0.00 0.00 304.00 471.25" xmlns="http://www.w3.org/2000/svg" xmlns:xlink="http://www.w3.org/1999/xlink">
<g id="graph0" class="graph" transform="scale(1 1) rotate(0) translate(4 467.25)">
<title>Graphical Class Hierarchy</title>
<!-- Node0 -->
<g id="Node000000" class="node">
<title>Node0</title>
<g id="a_Node000000"><a xlink:href="classliger_1_1rhi_1_1_device_resource.html" target="_top" xlink:title=" ">
<polygon fill="white" stroke="#666666" points="129.25,-241.25 0,-241.25 0,-222 129.25,-222 129.25,-241.25"/>
<text text-anchor="middle" x="64.62" y="-227.75" font-family="Helvetica,sans-Serif" font-size="10.00">liger::rhi::DeviceResource</text>
</a>
</g>
</g>
<!-- Node1 -->
<g id="Node000001" class="node">
<title>Node1</title>
<g id="a_Node000001"><a xlink:href="classliger_1_1rhi_1_1_buffer.html" target="_top" xlink:title=" ">
<polygon fill="white" stroke="#666666" points="272,-463.25 189.25,-463.25 189.25,-444 272,-444 272,-463.25"/>
<text text-anchor="middle" x="230.62" y="-449.75" font-family="Helvetica,sans-Serif" font-size="10.00">liger::rhi::Buffer</text>
</a>
</g>
</g>
<!-- Node0&#45;&gt;Node1 -->
<g id="edge3_Node000000_Node000001" class="edge">
<title>Node0&#45;&gt;Node1</title>
<g id="a_edge3_Node000000_Node000001"><a xlink:title=" ">
<path fill="none" stroke="#63b8ff" d="M69.86,-252.57C79.35,-293.97 106.25,-386.47 165.25,-435.62 172.03,-441.27 180.45,-445.15 188.95,-447.81"/>
<polygon fill="#63b8ff" stroke="#63b8ff" points="73.32,-251.99 67.78,-242.95 66.48,-253.47 73.32,-251.99"/>
</a>
</g>
</g>
<!-- Node2 -->
<g id="Node000002" class="node">
<title>Node2</title>
<g id="a_Node000002"><a xlink:href="classliger_1_1rhi_1_1_command_queue.html" target="_top" xlink:title=" ">
<polygon fill="white" stroke="#666666" points="295.62,-426.25 165.62,-426.25 165.62,-407 295.62,-407 295.62,-426.25"/>
<text text-anchor="middle" x="230.62" y="-412.75" font-family="Helvetica,sans-Serif" font-size="10.00">liger::rhi::CommandQueue</text>
</a>
</g>
</g>
<!-- Node0&#45;&gt;Node2 -->
<g id="edge4_Node000000_Node000002" class="edge">
<title>Node0&#45;&gt;Node2</title>
<g id="a_edge4_Node000000_Node000002"><a xlink:title=" ">
<path fill="none" stroke="#8b1a1a" d="M72.17,-252.17C84.52,-287.57 114.65,-359.94 165.25,-398.62 169.4,-401.8 174.08,-404.41 178.97,-406.56"/>
<polygon fill="#8b1a1a" stroke="#8b1a1a" points="75.64,-251.5 69.14,-243.13 69,-253.72 75.64,-251.5"/>
</a>
</g>
</g>
<!-- Node3 -->
<g id="Node000003" class="node">
<title>Node3</title>
<g id="a_Node000003"><a xlink:href="classliger_1_1rhi_1_1_compute_pipeline.html" target="_top" xlink:title=" ">
<polygon fill="white" stroke="#666666" points="296,-389.25 165.25,-389.25 165.25,-370 296,-370 296,-389.25"/>
<text text-anchor="middle" x="230.62" y="-375.75" font-family="Helvetica,sans-Serif" font-size="10.00">liger::rhi::ComputePipeline</text>
</a>
</g>
</g>
<!-- Node0&#45;&gt;Node3 -->
<g id="edge5_Node000000_Node000003" class="edge">
<title>Node0&#45;&gt;Node3</title>
<g id="a_edge5_Node000000_Node000003"><a xlink:title=" ">
<path fill="none" stroke="#8b1a1a" d="M75.52,-251.57C90.79,-280.27 122.84,-332.93 165.25,-361.62 169.96,-364.81 175.23,-367.44 180.66,-369.6"/>
<polygon fill="#8b1a1a" stroke="#8b1a1a" points="78.73,-250.15 71.03,-242.86 72.5,-253.35 78.73,-250.15"/>
</a>
</g>
</g>
<!-- Node4 -->
<g id="Node000004" class="node">
<title>Node4</title>
<g id="a_Node000004"><a xlink:href="classliger_1_1rhi_1_1_fence.html" target="_top" xlink:title=" ">
<polygon fill="white" stroke="#666666" points="272.38,-352.25 188.88,-352.25 188.88,-333 272.38,-333 272.38,-352.25"/>
<text text-anchor="middle" x="230.62" y="-338.75" font-family="Helvetica,sans-Serif" font-size="10.00">liger::rhi::Fence</text>
</a>
</g>
</g>
<!-- Node0&#45;&gt;Node4 -->
<g id="edge6_Node000000_Node000004" class="edge">
<title>Node0&#45;&gt;Node4</title>
<g id="a_edge6_Node000000_Node000004"><a xlink:title=" ">
<path fill="none" stroke="#8b1a1a" d="M80.77,-250.37C98.76,-271.44 130.72,-305.23 165.25,-324.62 172.43,-328.66 180.58,-331.84 188.61,-334.33"/>
<polygon fill="#8b1a1a" stroke="#8b1a1a" points="83.58,-248.29 74.49,-242.85 78.21,-252.77 83.58,-248.29"/>
</a>
</g>
</g>
<!-- Node5 -->
<g id="Node000005" class="node">
<title>Node5</title>
<g id="a_Node000005"><a xlink:href="classliger_1_1rhi_1_1_framebuffer.html" target="_top" xlink:title=" ">
<polygon fill="white" stroke="#666666" points="285.12,-315.25 176.12,-315.25 176.12,-296 285.12,-296 285.12,-315.25"/>
<text text-anchor="middle" x="230.62" y="-301.75" font-family="Helvetica,sans-Serif" font-size="10.00">liger::rhi::Framebuffer</text>
</a>
</g>
</g>
<!-- Node0&#45;&gt;Node5 -->
<g id="edge7_Node000000_Node000005" class="edge">
<title>Node0&#45;&gt;Node5</title>
<g id="a_edge7_Node000000_Node000005"><a xlink:title=" ">
<path fill="none" stroke="#8b1a1a" d="M90.26,-247.67C109.92,-259.94 138.52,-276.56 165.25,-287.62 172.43,-290.6 180.27,-293.25 187.92,-295.54"/>
<polygon fill="#8b1a1a" stroke="#8b1a1a" points="92.18,-244.75 81.86,-242.35 88.43,-250.66 92.18,-244.75"/>
</a>
</g>
</g>
<!-- Node6 -->
<g id="Node000006" class="node">
<title>Node6</title>
<g id="a_Node000006"><a xlink:href="classliger_1_1rhi_1_1_graphics_pipeline.html" target="_top" xlink:title=" ">
<polygon fill="white" stroke="#666666" points="295.62,-278.25 165.62,-278.25 165.62,-259 295.62,-259 295.62,-278.25"/>
<text text-anchor="middle" x="230.62" y="-264.75" font-family="Helvetica,sans-Serif" font-size="10.00">liger::rhi::GraphicsPipeline</text>
</a>
</g>
</g>
<!-- Node0&#45;&gt;Node6 -->
<g id="edge8_Node000000_Node000006" class="edge">
<title>Node0&#45;&gt;Node6</title>
<g id="a_edge8_Node000000_Node000006"><a xlink:title=" ">
<path fill="none" stroke="#8b1a1a" d="M121.61,-244.26C142.25,-248.91 165.35,-254.12 184.87,-258.53"/>
<polygon fill="#8b1a1a" stroke="#8b1a1a" points="122.44,-240.86 111.92,-242.07 120.9,-247.68 122.44,-240.86"/>
</a>
</g>
</g>
<!-- Node7 -->
<g id="Node000007" class="node">
<title>Node7</title>
<g id="a_Node000007"><a xlink:href="classliger_1_1rhi_1_1_render_pass.html" target="_top" xlink:title=" ">
<polygon fill="white" stroke="#666666" points="285.88,-241.25 175.38,-241.25 175.38,-222 285.88,-222 285.88,-241.25"/>
<text text-anchor="middle" x="230.62" y="-227.75" font-family="Helvetica,sans-Serif" font-size="10.00">liger::rhi::RenderPass</text>
</a>
</g>
</g>
<!-- Node0&#45;&gt;Node7 -->
<g id="edge9_Node000000_Node000007" class="edge">
<title>Node0&#45;&gt;Node7</title>
<g id="a_edge9_Node000000_Node000007"><a xlink:title=" ">
<path fill="none" stroke="#8b1a1a" d="M140.89,-231.62C152.38,-231.62 164.04,-231.62 174.97,-231.62"/>
<polygon fill="#8b1a1a" stroke="#8b1a1a" points="141.01,-228.13 131.01,-231.63 141.01,-235.13 141.01,-228.13"/>
</a>
</g>
</g>
<!-- Node8 -->
<g id="Node000008" class="node">
<title>Node8</title>
<g id="a_Node000008"><a xlink:href="classliger_1_1rhi_1_1_sampler.html" target="_top" xlink:title=" ">
<polygon fill="white" stroke="#666666" points="276.88,-204.25 184.38,-204.25 184.38,-185 276.88,-185 276.88,-204.25"/>
<text text-anchor="middle" x="230.62" y="-190.75" font-family="Helvetica,sans-Serif" font-size="10.00">liger::rhi::Sampler</text>
</a>
</g>
</g>
<!-- Node0&#45;&gt;Node8 -->
<g id="edge10_Node000000_Node000008" class="edge">
<title>Node0&#45;&gt;Node8</title>
<g id="a_edge10_Node000000_Node000008"><a xlink:title=" ">
<path fill="none" stroke="#8b1a1a" d="M121.61,-218.99C142.25,-214.34 165.35,-209.13 184.87,-204.72"/>
<polygon fill="#8b1a1a" stroke="#8b1a1a" points="120.9,-215.57 111.92,-221.18 122.44,-222.39 120.9,-215.57"/>
</a>
</g>
</g>
<!-- Node9 -->
<g id="Node000009" class="node">
<title>Node9</title>
<g id="a_Node000009"><a xlink:href="classliger_1_1rhi_1_1_semaphore.html" target="_top" xlink:title=" ">
<polygon fill="white" stroke="#666666" points="283.62,-167.25 177.62,-167.25 177.62,-148 283.62,-148 283.62,-167.25"/>
<text text-anchor="middle" x="230.62" y="-153.75" font-family="Helvetica,sans-Serif" font-size="10.00">liger::rhi::Semaphore</text>
</a>
</g>
</g>
<!-- Node0&#45;&gt;Node9 -->
<g id="edge11_Node000000_Node000009" class="edge">
<title>Node0&#45;&gt;Node9</title>
<g id="a_edge11_Node000000_Node000009"><a xlink:title=" ">
<path fill="none" stroke="#8b1a1a" d="M90.26,-215.58C109.92,-203.31 138.52,-186.69 165.25,-175.62 172.43,-172.65 180.27,-170 187.92,-167.71"/>
<polygon fill="#8b1a1a" stroke="#8b1a1a" points="88.43,-212.59 81.86,-220.9 92.18,-218.5 88.43,-212.59"/>
</a>
</g>
</g>
<!-- Node10 -->
<g id="Node000010" class="node">
<title>Node10</title>
<g id="a_Node000010"><a xlink:href="classliger_1_1rhi_1_1_shader_module.html" target="_top" xlink:title=" ">
<polygon fill="white" stroke="#666666" points="290,-130.25 171.25,-130.25 171.25,-111 290,-111 290,-130.25"/>
<text text-anchor="middle" x="230.62" y="-116.75" font-family="Helvetica,sans-Serif" font-size="10.00">liger::rhi::ShaderModule</text>
</a>
</g>
</g>
<!-- Node0&#45;&gt;Node10 -->
<g id="edge12_Node000000_Node000010" class="edge">
<title>Node0&#45;&gt;Node10</title>
<g id="a_edge12_Node000000_Node000010"><a xlink:title=" ">
<path fill="none" stroke="#8b1a1a" d="M80.77,-212.88C98.76,-191.81 130.72,-158.02 165.25,-138.62 170.81,-135.5 176.96,-132.89 183.18,-130.71"/>
<polygon fill="#8b1a1a" stroke="#8b1a1a" points="78.21,-210.48 74.49,-220.4 83.58,-214.96 78.21,-210.48"/>
</a>
</g>
</g>
<!-- Node11 -->
<g id="Node000011" class="node">
<title>Node11</title>
<g id="a_Node000011"><a xlink:href="classliger_1_1rhi_1_1_surface.html" target="_top" xlink:title=" ">
<polygon fill="white" stroke="#666666" points="275.75,-93.25 185.5,-93.25 185.5,-74 275.75,-74 275.75,-93.25"/>
<text text-anchor="middle" x="230.62" y="-79.75" font-family="Helvetica,sans-Serif" font-size="10.00">liger::rhi::Surface</text>
</a>
</g>
</g>
<!-- Node0&#45;&gt;Node11 -->
<g id="edge13_Node000000_Node000011" class="edge">
<title>Node0&#45;&gt;Node11</title>
<g id="a_edge13_Node000000_Node000011"><a xlink:title=" ">
<path fill="none" stroke="#8b1a1a" d="M75.52,-211.68C90.79,-182.98 122.84,-130.32 165.25,-101.62 171.21,-97.59 178.06,-94.46 185.02,-92.02"/>
<polygon fill="#8b1a1a" stroke="#8b1a1a" points="72.5,-209.9 71.03,-220.39 78.73,-213.1 72.5,-209.9"/>
</a>
</g>
</g>
<!-- Node12 -->
<g id="Node000012" class="node">
<title>Node12</title>
<g id="a_Node000012"><a xlink:href="classliger_1_1rhi_1_1_swapchain.html" target="_top" xlink:title=" ">
<polygon fill="white" stroke="#666666" points="282.88,-56.25 178.38,-56.25 178.38,-37 282.88,-37 282.88,-56.25"/>
<text text-anchor="middle" x="230.62" y="-42.75" font-family="Helvetica,sans-Serif" font-size="10.00">liger::rhi::Swapchain</text>
</a>
</g>
</g>
<!-- Node0&#45;&gt;Node12 -->
<g id="edge14_Node000000_Node000012" class="edge">
<title>Node0&#45;&gt;Node12</title>
<g id="a_edge14_Node000000_Node000012"><a xlink:title=" ">
<path fill="none" stroke="#8b1a1a" d="M72.17,-211.08C84.52,-175.68 114.65,-103.31 165.25,-64.62 169.4,-61.45 174.08,-58.84 178.97,-56.69"/>
<polygon fill="#8b1a1a" stroke="#8b1a1a" points="69,-209.53 69.14,-220.12 75.64,-211.75 69,-209.53"/>
</a>
</g>
</g>
<!-- Node13 -->
<g id="Node000013" class="node">
<title>Node13</title>
<g id="a_Node000013"><a xlink:href="classliger_1_1rhi_1_1_texture.html" target="_top" xlink:title=" ">
<polygon fill="white" stroke="#666666" points="275,-19.25 186.25,-19.25 186.25,0 275,0 275,-19.25"/>
<text text-anchor="middle" x="230.62" y="-5.75" font-family="Helvetica,sans-Serif" font-size="10.00">liger::rhi::Texture</text>
</a>
</g>
</g>
<!-- Node0&#45;&gt;Node13 -->
<g id="edge15_Node000000_Node000013" class="edge">
<title>Node0&#45;&gt;Node13</title>
<g id="a_edge15_Node000000_Node000013"><a xlink:title=" ">
<path fill="none" stroke="#8b1a1a" d="M69.86,-210.68C79.35,-169.28 106.25,-76.78 165.25,-27.62 171.22,-22.65 178.48,-19.04 185.94,-16.43"/>
<polygon fill="#8b1a1a" stroke="#8b1a1a" points="66.48,-209.78 67.78,-220.3 73.32,-211.26 66.48,-209.78"/>
</a>
</g>
</g>
</g>
</svg>
