<?xml version="1.0" encoding="UTF-8" standalone="no"?>
<!DOCTYPE svg PUBLIC "-//W3C//DTD SVG 1.1//EN"
 "http://www.w3.org/Graphics/SVG/1.1/DTD/svg11.dtd">
<!-- Generated by graphviz version 9.0.0 (20230911.1827)
 -->
<!-- Title: Graphical Class Hierarchy Pages: 1 -->
<svg width="304pt" height="434pt"
 viewBox="0.00 0.00 304.00 434.25" xmlns="http://www.w3.org/2000/svg" xmlns:xlink="http://www.w3.org/1999/xlink">
<g id="graph0" class="graph" transform="scale(1 1) rotate(0) translate(4 430.25)">
<title>Graphical Class Hierarchy</title>
<!-- Node0 -->
<g id="Node000000" class="node">
<title>Node0</title>
<g id="a_Node000000"><a xlink:href="classliger_1_1rhi_1_1_device_resource.html" target="_top" xlink:title=" ">
<polygon fill="white" stroke="#666666" points="129.25,-222.25 0,-222.25 0,-203 129.25,-203 129.25,-222.25"/>
<text text-anchor="middle" x="64.62" y="-208.75" font-family="Helvetica,sans-Serif" font-size="10.00">liger::rhi::DeviceResource</text>
</a>
</g>
</g>
<!-- Node1 -->
<g id="Node000001" class="node">
<title>Node1</title>
<g id="a_Node000001"><a xlink:href="classliger_1_1rhi_1_1_buffer.html" target="_top" xlink:title=" ">
<polygon fill="white" stroke="#666666" points="272,-426.25 189.25,-426.25 189.25,-407 272,-407 272,-426.25"/>
<text text-anchor="middle" x="230.62" y="-412.75" font-family="Helvetica,sans-Serif" font-size="10.00">liger::rhi::Buffer</text>
</a>
</g>
</g>
<!-- Node0&#45;&gt;Node1 -->
<g id="edge3_Node000000_Node000001" class="edge">
<title>Node0&#45;&gt;Node1</title>
<g id="a_edge3_Node000000_Node000001"><a xlink:title=" ">
<path fill="none" stroke="#63b8ff" d="M70.94,-233.57C81.84,-272.19 110.44,-354.68 165.25,-398.62 172.04,-404.07 180.38,-407.87 188.77,-410.52"/>
<polygon fill="#63b8ff" stroke="#63b8ff" points="74.33,-232.69 68.35,-223.94 67.57,-234.5 74.33,-232.69"/>
</a>
</g>
</g>
<!-- Node2 -->
<g id="Node000002" class="node">
<title>Node2</title>
<g id="a_Node000002"><a xlink:href="classliger_1_1rhi_1_1_command_queue.html" target="_top" xlink:title=" ">
<polygon fill="white" stroke="#666666" points="295.62,-389.25 165.62,-389.25 165.62,-370 295.62,-370 295.62,-389.25"/>
<text text-anchor="middle" x="230.62" y="-375.75" font-family="Helvetica,sans-Serif" font-size="10.00">liger::rhi::CommandQueue</text>
</a>
</g>
</g>
<!-- Node0&#45;&gt;Node2 -->
<g id="edge4_Node000000_Node000002" class="edge">
<title>Node0&#45;&gt;Node2</title>
<g id="a_edge4_Node000000_Node000002"><a xlink:title=" ">
<path fill="none" stroke="#8b1a1a" d="M73.55,-232.73C87.28,-264.91 118.57,-327.8 165.25,-361.62 169.67,-364.83 174.63,-367.46 179.79,-369.62"/>
<polygon fill="#8b1a1a" stroke="#8b1a1a" points="76.91,-231.69 69.87,-223.77 70.43,-234.35 76.91,-231.69"/>
</a>
</g>
</g>
<!-- Node3 -->
<g id="Node000003" class="node">
<title>Node3</title>
<g id="a_Node000003"><a xlink:href="classliger_1_1rhi_1_1_compute_pipeline.html" target="_top" xlink:title=" ">
<polygon fill="white" stroke="#666666" points="296,-352.25 165.25,-352.25 165.25,-333 296,-333 296,-352.25"/>
<text text-anchor="middle" x="230.62" y="-338.75" font-family="Helvetica,sans-Serif" font-size="10.00">liger::rhi::ComputePipeline</text>
</a>
</g>
</g>
<!-- Node0&#45;&gt;Node3 -->
<g id="edge5_Node000000_Node000003" class="edge">
<title>Node0&#45;&gt;Node3</title>
<g id="a_edge5_Node000000_Node000003"><a xlink:title=" ">
<path fill="none" stroke="#8b1a1a" d="M77.88,-232.3C94.57,-257.46 126.81,-300.62 165.25,-324.62 170.27,-327.76 175.84,-330.36 181.55,-332.51"/>
<polygon fill="#8b1a1a" stroke="#8b1a1a" points="80.89,-230.51 72.53,-224 75.01,-234.3 80.89,-230.51"/>
</a>
</g>
</g>
<!-- Node4 -->
<g id="Node000004" class="node">
<title>Node4</title>
<g id="a_Node000004"><a xlink:href="classliger_1_1rhi_1_1_fence.html" target="_top" xlink:title="Synchronization primitive which can be used for sync between command queues and/or the CPU.">
<polygon fill="white" stroke="#666666" points="272.38,-315.25 188.88,-315.25 188.88,-296 272.38,-296 272.38,-315.25"/>
<text text-anchor="middle" x="230.62" y="-301.75" font-family="Helvetica,sans-Serif" font-size="10.00">liger::rhi::Fence</text>
</a>
</g>
</g>
<!-- Node0&#45;&gt;Node4 -->
<g id="edge6_Node000000_Node000004" class="edge">
<title>Node0&#45;&gt;Node4</title>
<g id="a_edge6_Node000000_Node000004"><a xlink:title=" ">
<path fill="none" stroke="#8b1a1a" d="M84.41,-230.2C103.44,-247.14 134.39,-272.38 165.25,-287.62 172.53,-291.22 180.65,-294.2 188.59,-296.63"/>
<polygon fill="#8b1a1a" stroke="#8b1a1a" points="86.95,-227.79 77.2,-223.66 82.25,-232.97 86.95,-227.79"/>
</a>
</g>
</g>
<!-- Node5 -->
<g id="Node000005" class="node">
<title>Node5</title>
<g id="a_Node000005"><a xlink:href="classliger_1_1rhi_1_1_framebuffer.html" target="_top" xlink:title=" ">
<polygon fill="white" stroke="#666666" points="285.12,-278.25 176.12,-278.25 176.12,-259 285.12,-259 285.12,-278.25"/>
<text text-anchor="middle" x="230.62" y="-264.75" font-family="Helvetica,sans-Serif" font-size="10.00">liger::rhi::Framebuffer</text>
</a>
</g>
</g>
<!-- Node0&#45;&gt;Node5 -->
<g id="edge7_Node000000_Node000005" class="edge">
<title>Node0&#45;&gt;Node5</title>
<g id="a_edge7_Node000000_Node000005"><a xlink:title=" ">
<path fill="none" stroke="#8b1a1a" d="M100.51,-226.83C119.5,-234.34 143.5,-243.45 165.25,-250.62 173.63,-253.39 182.7,-256.1 191.33,-258.54"/>
<polygon fill="#8b1a1a" stroke="#8b1a1a" points="101.96,-223.64 91.37,-223.19 99.36,-230.14 101.96,-223.64"/>
</a>
</g>
</g>
<!-- Node6 -->
<g id="Node000006" class="node">
<title>Node6</title>
<g id="a_Node000006"><a xlink:href="classliger_1_1rhi_1_1_graphics_pipeline.html" target="_top" xlink:title=" ">
<polygon fill="white" stroke="#666666" points="295.62,-241.25 165.62,-241.25 165.62,-222 295.62,-222 295.62,-241.25"/>
<text text-anchor="middle" x="230.62" y="-227.75" font-family="Helvetica,sans-Serif" font-size="10.00">liger::rhi::GraphicsPipeline</text>
</a>
</g>
</g>
<!-- Node0&#45;&gt;Node6 -->
<g id="edge8_Node000000_Node000006" class="edge">
<title>Node0&#45;&gt;Node6</title>
<g id="a_edge8_Node000000_Node000006"><a xlink:title=" ">
<path fill="none" stroke="#8b1a1a" d="M140.67,-221.32C148.93,-222.28 157.28,-223.24 165.38,-224.18"/>
<polygon fill="#8b1a1a" stroke="#8b1a1a" points="141.34,-217.87 131,-220.2 140.54,-224.83 141.34,-217.87"/>
</a>
</g>
</g>
<!-- Node7 -->
<g id="Node000007" class="node">
<title>Node7</title>
<g id="a_Node000007"><a xlink:href="classliger_1_1rhi_1_1_render_pass.html" target="_top" xlink:title=" ">
<polygon fill="white" stroke="#666666" points="285.88,-204.25 175.38,-204.25 175.38,-185 285.88,-185 285.88,-204.25"/>
<text text-anchor="middle" x="230.62" y="-190.75" font-family="Helvetica,sans-Serif" font-size="10.00">liger::rhi::RenderPass</text>
</a>
</g>
</g>
<!-- Node0&#45;&gt;Node7 -->
<g id="edge9_Node000000_Node000007" class="edge">
<title>Node0&#45;&gt;Node7</title>
<g id="a_edge9_Node000000_Node000007"><a xlink:title=" ">
<path fill="none" stroke="#8b1a1a" d="M140.89,-204.36C152.38,-203.1 164.04,-201.82 174.97,-200.62"/>
<polygon fill="#8b1a1a" stroke="#8b1a1a" points="140.56,-200.88 131.01,-205.45 141.33,-207.84 140.56,-200.88"/>
</a>
</g>
</g>
<!-- Node8 -->
<g id="Node000008" class="node">
<title>Node8</title>
<g id="a_Node000008"><a xlink:href="classliger_1_1rhi_1_1_sampler.html" target="_top" xlink:title=" ">
<polygon fill="white" stroke="#666666" points="276.88,-167.25 184.38,-167.25 184.38,-148 276.88,-148 276.88,-167.25"/>
<text text-anchor="middle" x="230.62" y="-153.75" font-family="Helvetica,sans-Serif" font-size="10.00">liger::rhi::Sampler</text>
</a>
</g>
</g>
<!-- Node0&#45;&gt;Node8 -->
<g id="edge10_Node000000_Node000008" class="edge">
<title>Node0&#45;&gt;Node8</title>
<g id="a_edge10_Node000000_Node000008"><a xlink:title=" ">
<path fill="none" stroke="#8b1a1a" d="M101.32,-198.55C120.19,-191.32 143.83,-182.58 165.25,-175.62 173.75,-172.86 182.96,-170.14 191.68,-167.67"/>
<polygon fill="#8b1a1a" stroke="#8b1a1a" points="100.29,-195.2 92.22,-202.07 102.81,-201.73 100.29,-195.2"/>
</a>
</g>
</g>
<!-- Node9 -->
<g id="Node000009" class="node">
<title>Node9</title>
<g id="a_Node000009"><a xlink:href="classliger_1_1rhi_1_1_shader_module.html" target="_top" xlink:title=" ">
<polygon fill="white" stroke="#666666" points="290,-130.25 171.25,-130.25 171.25,-111 290,-111 290,-130.25"/>
<text text-anchor="middle" x="230.62" y="-116.75" font-family="Helvetica,sans-Serif" font-size="10.00">liger::rhi::ShaderModule</text>
</a>
</g>
</g>
<!-- Node0&#45;&gt;Node9 -->
<g id="edge11_Node000000_Node000009" class="edge">
<title>Node0&#45;&gt;Node9</title>
<g id="a_edge11_Node000000_Node000009"><a xlink:title=" ">
<path fill="none" stroke="#8b1a1a" d="M84.45,-195.29C103.51,-178.59 134.49,-153.7 165.25,-138.62 171.5,-135.56 178.36,-132.94 185.2,-130.73"/>
<polygon fill="#8b1a1a" stroke="#8b1a1a" points="82.36,-192.47 77.23,-201.75 87.02,-197.69 82.36,-192.47"/>
</a>
</g>
</g>
<!-- Node10 -->
<g id="Node000010" class="node">
<title>Node10</title>
<g id="a_Node000010"><a xlink:href="classliger_1_1rhi_1_1_surface.html" target="_top" xlink:title=" ">
<polygon fill="white" stroke="#666666" points="275.75,-93.25 185.5,-93.25 185.5,-74 275.75,-74 275.75,-93.25"/>
<text text-anchor="middle" x="230.62" y="-79.75" font-family="Helvetica,sans-Serif" font-size="10.00">liger::rhi::Surface</text>
</a>
</g>
</g>
<!-- Node0&#45;&gt;Node10 -->
<g id="edge12_Node000000_Node000010" class="edge">
<title>Node0&#45;&gt;Node10</title>
<g id="a_edge12_Node000000_Node000010"><a xlink:title=" ">
<path fill="none" stroke="#8b1a1a" d="M77.93,-193.13C94.66,-168.2 126.95,-125.42 165.25,-101.62 171.36,-97.83 178.29,-94.81 185.28,-92.43"/>
<polygon fill="#8b1a1a" stroke="#8b1a1a" points="75.1,-191.06 72.56,-201.34 80.96,-194.89 75.1,-191.06"/>
</a>
</g>
</g>
<!-- Node11 -->
<g id="Node000011" class="node">
<title>Node11</title>
<g id="a_Node000011"><a xlink:href="classliger_1_1rhi_1_1_swapchain.html" target="_top" xlink:title=" ">
<polygon fill="white" stroke="#666666" points="282.88,-56.25 178.38,-56.25 178.38,-37 282.88,-37 282.88,-56.25"/>
<text text-anchor="middle" x="230.62" y="-42.75" font-family="Helvetica,sans-Serif" font-size="10.00">liger::rhi::Swapchain</text>
</a>
</g>
</g>
<!-- Node0&#45;&gt;Node11 -->
<g id="edge13_Node000000_Node000011" class="edge">
<title>Node0&#45;&gt;Node11</title>
<g id="a_edge13_Node000000_Node000011"><a xlink:title=" ">
<path fill="none" stroke="#8b1a1a" d="M73.79,-192.2C87.67,-160.09 118.96,-98.06 165.25,-64.62 169.67,-61.43 174.64,-58.8 179.8,-56.64"/>
<polygon fill="#8b1a1a" stroke="#8b1a1a" points="70.67,-190.59 70.05,-201.16 77.13,-193.28 70.67,-190.59"/>
</a>
</g>
</g>
<!-- Node12 -->
<g id="Node000012" class="node">
<title>Node12</title>
<g id="a_Node000012"><a xlink:href="classliger_1_1rhi_1_1_texture.html" target="_top" xlink:title=" ">
<polygon fill="white" stroke="#666666" points="275,-19.25 186.25,-19.25 186.25,0 275,0 275,-19.25"/>
<text text-anchor="middle" x="230.62" y="-5.75" font-family="Helvetica,sans-Serif" font-size="10.00">liger::rhi::Texture</text>
</a>
</g>
</g>
<!-- Node0&#45;&gt;Node12 -->
<g id="edge14_Node000000_Node000012" class="edge">
<title>Node0&#45;&gt;Node12</title>
<g id="a_edge14_Node000000_Node000012"><a xlink:title=" ">
<path fill="none" stroke="#8b1a1a" d="M70.9,-192.04C81.81,-153.73 110.5,-71.42 165.25,-27.62 171.23,-22.84 178.41,-19.33 185.76,-16.75"/>
<polygon fill="#8b1a1a" stroke="#8b1a1a" points="67.61,-190.8 68.37,-201.37 74.37,-192.63 67.61,-190.8"/>
</a>
</g>
</g>
</g>
</svg>
