<?xml version="1.0" encoding="UTF-8" standalone="no"?>
<!DOCTYPE svg PUBLIC "-//W3C//DTD SVG 1.1//EN"
 "http://www.w3.org/Graphics/SVG/1.1/DTD/svg11.dtd">
<!-- Generated by graphviz version 7.1.0 (20230121.1956)
 -->
<!-- Title: input_manager.cpp Pages: 1 -->
<svg width="766pt" height="252pt"
 viewBox="0.00 0.00 766.00 252.00" xmlns="http://www.w3.org/2000/svg" xmlns:xlink="http://www.w3.org/1999/xlink">
<g id="graph0" class="graph" transform="scale(1 1) rotate(0) translate(4 248)">
<title>input_manager.cpp</title>
<polygon fill="white" stroke="none" points="-4,4 -4,-248 762,-248 762,4 -4,4"/>
<!-- Node1 -->
<g id="node1" class="node">
<title>Node1</title>
<g id="a_node1"><a xlink:title=" ">
<polygon fill="#bfbfbf" stroke="black" points="267,-224.5 267,-243.5 365,-243.5 365,-224.5 267,-224.5"/>
<text text-anchor="middle" x="316" y="-231.5" font-family="Helvetica,sans-Serif" font-size="10.00">input_manager.cpp</text>
</a>
</g>
</g>
<!-- Node2 -->
<g id="node2" class="node">
<title>Node2</title>
<g id="a_node2"><a xlink:href="input__manager_8hpp.html" target="_top" xlink:title=" ">
<polygon fill="white" stroke="black" points="233.5,-168.5 233.5,-187.5 398.5,-187.5 398.5,-168.5 233.5,-168.5"/>
<text text-anchor="middle" x="316" y="-175.5" font-family="Helvetica,sans-Serif" font-size="10.00">liger/core/input/input_manager.hpp</text>
</a>
</g>
</g>
<!-- Node1&#45;&gt;Node2 -->
<g id="edge1" class="edge">
<title>Node1&#45;&gt;Node2</title>
<path fill="none" stroke="midnightblue" d="M316,-224.56C316,-217.63 316,-207.52 316,-198.59"/>
<polygon fill="midnightblue" stroke="midnightblue" points="319.5,-198.71 316,-188.71 312.5,-198.72 319.5,-198.71"/>
</g>
<!-- Node3 -->
<g id="node3" class="node">
<title>Node3</title>
<g id="a_node3"><a xlink:href="keyboard_8hpp.html" target="_top" xlink:title=" ">
<polygon fill="white" stroke="black" points="164,-112.5 164,-131.5 306,-131.5 306,-112.5 164,-112.5"/>
<text text-anchor="middle" x="235" y="-119.5" font-family="Helvetica,sans-Serif" font-size="10.00">liger/core/input/keyboard.hpp</text>
</a>
</g>
</g>
<!-- Node2&#45;&gt;Node3 -->
<g id="edge2" class="edge">
<title>Node2&#45;&gt;Node3</title>
<path fill="none" stroke="midnightblue" d="M303.34,-168.56C290.98,-160.32 271.91,-147.6 257.05,-137.7"/>
<polygon fill="midnightblue" stroke="midnightblue" points="259.09,-134.85 248.83,-132.22 255.21,-140.68 259.09,-134.85"/>
</g>
<!-- Node17 -->
<g id="node17" class="node">
<title>Node17</title>
<g id="a_node17"><a xlink:href="window_8hpp.html" target="_top" xlink:title=" ">
<polygon fill="white" stroke="black" points="324,-112.5 324,-131.5 470,-131.5 470,-112.5 324,-112.5"/>
<text text-anchor="middle" x="397" y="-119.5" font-family="Helvetica,sans-Serif" font-size="10.00">liger/core/window/window.hpp</text>
</a>
</g>
</g>
<!-- Node2&#45;&gt;Node17 -->
<g id="edge16" class="edge">
<title>Node2&#45;&gt;Node17</title>
<path fill="none" stroke="midnightblue" d="M328.66,-168.56C341.02,-160.32 360.09,-147.6 374.95,-137.7"/>
<polygon fill="midnightblue" stroke="midnightblue" points="376.79,-140.68 383.17,-132.22 372.91,-134.85 376.79,-140.68"/>
</g>
<!-- Node4 -->
<g id="node4" class="node">
<title>Node4</title>
<g id="a_node4"><a xlink:title=" ">
<polygon fill="white" stroke="#bfbfbf" points="195,-56.5 195,-75.5 275,-75.5 275,-56.5 195,-56.5"/>
<text text-anchor="middle" x="235" y="-63.5" font-family="Helvetica,sans-Serif" font-size="10.00">GLFW/glfw3.h</text>
</a>
</g>
</g>
<!-- Node3&#45;&gt;Node4 -->
<g id="edge3" class="edge">
<title>Node3&#45;&gt;Node4</title>
<path fill="none" stroke="midnightblue" d="M235,-112.56C235,-105.63 235,-95.52 235,-86.59"/>
<polygon fill="midnightblue" stroke="midnightblue" points="238.5,-86.71 235,-76.71 231.5,-86.72 238.5,-86.71"/>
</g>
<!-- Node5 -->
<g id="node5" class="node">
<title>Node5</title>
<g id="a_node5"><a xlink:href="types_8hpp.html" target="_top" xlink:title=" ">
<polygon fill="white" stroke="black" points="319,-56.5 319,-75.5 421,-75.5 421,-56.5 319,-56.5"/>
<text text-anchor="middle" x="370" y="-63.5" font-family="Helvetica,sans-Serif" font-size="10.00">liger/core/types.hpp</text>
</a>
</g>
</g>
<!-- Node3&#45;&gt;Node5 -->
<g id="edge4" class="edge">
<title>Node3&#45;&gt;Node5</title>
<path fill="none" stroke="midnightblue" d="M256.09,-112.56C278.19,-103.73 313.13,-89.75 338.5,-79.6"/>
<polygon fill="midnightblue" stroke="midnightblue" points="339.66,-82.9 347.65,-75.94 337.06,-76.4 339.66,-82.9"/>
</g>
<!-- Node6 -->
<g id="node6" class="node">
<title>Node6</title>
<g id="a_node6"><a xlink:title=" ">
<polygon fill="white" stroke="#bfbfbf" points="0,-0.5 0,-19.5 46,-19.5 46,-0.5 0,-0.5"/>
<text text-anchor="middle" x="23" y="-7.5" font-family="Helvetica,sans-Serif" font-size="10.00">cstdint</text>
</a>
</g>
</g>
<!-- Node5&#45;&gt;Node6 -->
<g id="edge5" class="edge">
<title>Node5&#45;&gt;Node6</title>
<path fill="none" stroke="midnightblue" d="M319.17,-59.83C258.87,-53.24 155.13,-40.45 56.99,-20.17"/>
<polygon fill="midnightblue" stroke="midnightblue" points="57.97,-16.8 47.46,-18.17 56.53,-23.65 57.97,-16.8"/>
</g>
<!-- Node7 -->
<g id="node7" class="node">
<title>Node7</title>
<g id="a_node7"><a xlink:title=" ">
<polygon fill="white" stroke="#bfbfbf" points="64,-0.5 64,-19.5 114,-19.5 114,-0.5 64,-0.5"/>
<text text-anchor="middle" x="89" y="-7.5" font-family="Helvetica,sans-Serif" font-size="10.00">fstream</text>
</a>
</g>
</g>
<!-- Node5&#45;&gt;Node7 -->
<g id="edge6" class="edge">
<title>Node5&#45;&gt;Node7</title>
<path fill="none" stroke="midnightblue" d="M319.15,-56.94C271.49,-49.11 198.04,-36.36 125.06,-20.31"/>
<polygon fill="midnightblue" stroke="midnightblue" points="125.83,-16.9 115.3,-18.14 124.31,-23.73 125.83,-16.9"/>
</g>
<!-- Node8 -->
<g id="node8" class="node">
<title>Node8</title>
<g id="a_node8"><a xlink:title=" ">
<polygon fill="white" stroke="#bfbfbf" points="132,-0.5 132,-19.5 202,-19.5 202,-0.5 132,-0.5"/>
<text text-anchor="middle" x="167" y="-7.5" font-family="Helvetica,sans-Serif" font-size="10.00">glm/glm.hpp</text>
</a>
</g>
</g>
<!-- Node5&#45;&gt;Node8 -->
<g id="edge7" class="edge">
<title>Node5&#45;&gt;Node8</title>
<path fill="none" stroke="midnightblue" d="M338.28,-56.56C303.67,-47.36 248.08,-32.57 209.67,-22.35"/>
<polygon fill="midnightblue" stroke="midnightblue" points="210.86,-19.04 200.29,-19.86 209.06,-25.81 210.86,-19.04"/>
</g>
<!-- Node9 -->
<g id="node9" class="node">
<title>Node9</title>
<g id="a_node9"><a xlink:title=" ">
<polygon fill="white" stroke="#bfbfbf" points="220,-0.5 220,-19.5 274,-19.5 274,-0.5 220,-0.5"/>
<text text-anchor="middle" x="247" y="-7.5" font-family="Helvetica,sans-Serif" font-size="10.00">iostream</text>
</a>
</g>
</g>
<!-- Node5&#45;&gt;Node9 -->
<g id="edge8" class="edge">
<title>Node5&#45;&gt;Node9</title>
<path fill="none" stroke="midnightblue" d="M350.78,-56.56C330.83,-47.8 299.38,-34 276.33,-23.88"/>
<polygon fill="midnightblue" stroke="midnightblue" points="278.03,-20.8 267.47,-19.99 275.22,-27.21 278.03,-20.8"/>
</g>
<!-- Node10 -->
<g id="node10" class="node">
<title>Node10</title>
<g id="a_node10"><a xlink:title=" ">
<polygon fill="white" stroke="#bfbfbf" points="292.5,-0.5 292.5,-19.5 327.5,-19.5 327.5,-0.5 292.5,-0.5"/>
<text text-anchor="middle" x="310" y="-7.5" font-family="Helvetica,sans-Serif" font-size="10.00">map</text>
</a>
</g>
</g>
<!-- Node5&#45;&gt;Node10 -->
<g id="edge9" class="edge">
<title>Node5&#45;&gt;Node10</title>
<path fill="none" stroke="midnightblue" d="M360.62,-56.56C351.77,-48.59 338.26,-36.43 327.43,-26.68"/>
<polygon fill="midnightblue" stroke="midnightblue" points="330.01,-24.3 320.24,-20.21 325.33,-29.51 330.01,-24.3"/>
</g>
<!-- Node11 -->
<g id="node11" class="node">
<title>Node11</title>
<g id="a_node11"><a xlink:title=" ">
<polygon fill="white" stroke="#bfbfbf" points="345.5,-0.5 345.5,-19.5 394.5,-19.5 394.5,-0.5 345.5,-0.5"/>
<text text-anchor="middle" x="370" y="-7.5" font-family="Helvetica,sans-Serif" font-size="10.00">random</text>
</a>
</g>
</g>
<!-- Node5&#45;&gt;Node11 -->
<g id="edge10" class="edge">
<title>Node5&#45;&gt;Node11</title>
<path fill="none" stroke="midnightblue" d="M370,-56.56C370,-49.63 370,-39.52 370,-30.59"/>
<polygon fill="midnightblue" stroke="midnightblue" points="373.5,-30.71 370,-20.71 366.5,-30.72 373.5,-30.71"/>
</g>
<!-- Node12 -->
<g id="node12" class="node">
<title>Node12</title>
<g id="a_node12"><a xlink:title=" ">
<polygon fill="white" stroke="#bfbfbf" points="412.5,-0.5 412.5,-19.5 453.5,-19.5 453.5,-0.5 412.5,-0.5"/>
<text text-anchor="middle" x="433" y="-7.5" font-family="Helvetica,sans-Serif" font-size="10.00">string</text>
</a>
</g>
</g>
<!-- Node5&#45;&gt;Node12 -->
<g id="edge11" class="edge">
<title>Node5&#45;&gt;Node12</title>
<path fill="none" stroke="midnightblue" d="M379.84,-56.56C389.14,-48.59 403.33,-36.43 414.7,-26.68"/>
<polygon fill="midnightblue" stroke="midnightblue" points="416.97,-29.35 422.28,-20.19 412.41,-24.04 416.97,-29.35"/>
</g>
<!-- Node13 -->
<g id="node13" class="node">
<title>Node13</title>
<g id="a_node13"><a xlink:title=" ">
<polygon fill="white" stroke="#bfbfbf" points="472,-0.5 472,-19.5 538,-19.5 538,-0.5 472,-0.5"/>
<text text-anchor="middle" x="505" y="-7.5" font-family="Helvetica,sans-Serif" font-size="10.00">string_view</text>
</a>
</g>
</g>
<!-- Node5&#45;&gt;Node13 -->
<g id="edge12" class="edge">
<title>Node5&#45;&gt;Node13</title>
<path fill="none" stroke="midnightblue" d="M391.09,-56.56C413.19,-47.73 448.13,-33.75 473.5,-23.6"/>
<polygon fill="midnightblue" stroke="midnightblue" points="474.66,-26.9 482.65,-19.94 472.06,-20.4 474.66,-26.9"/>
</g>
<!-- Node14 -->
<g id="node14" class="node">
<title>Node14</title>
<g id="a_node14"><a xlink:title=" ">
<polygon fill="white" stroke="#bfbfbf" points="556,-0.5 556,-19.5 618,-19.5 618,-0.5 556,-0.5"/>
<text text-anchor="middle" x="587" y="-7.5" font-family="Helvetica,sans-Serif" font-size="10.00">type_traits</text>
</a>
</g>
</g>
<!-- Node5&#45;&gt;Node14 -->
<g id="edge13" class="edge">
<title>Node5&#45;&gt;Node14</title>
<path fill="none" stroke="midnightblue" d="M403.91,-56.56C442.04,-47.07 504.01,-31.65 545.13,-21.42"/>
<polygon fill="midnightblue" stroke="midnightblue" points="545.81,-24.86 554.67,-19.05 544.12,-18.06 545.81,-24.86"/>
</g>
<!-- Node15 -->
<g id="node15" class="node">
<title>Node15</title>
<g id="a_node15"><a xlink:title=" ">
<polygon fill="white" stroke="#bfbfbf" points="636.5,-0.5 636.5,-19.5 695.5,-19.5 695.5,-0.5 636.5,-0.5"/>
<text text-anchor="middle" x="666" y="-7.5" font-family="Helvetica,sans-Serif" font-size="10.00">typeindex</text>
</a>
</g>
</g>
<!-- Node5&#45;&gt;Node15 -->
<g id="edge14" class="edge">
<title>Node5&#45;&gt;Node15</title>
<path fill="none" stroke="midnightblue" d="M420.86,-56.92C470.49,-48.85 548.36,-35.7 625.74,-20.16"/>
<polygon fill="midnightblue" stroke="midnightblue" points="626.06,-23.66 635.17,-18.25 624.67,-16.8 626.06,-23.66"/>
</g>
<!-- Node16 -->
<g id="node16" class="node">
<title>Node16</title>
<g id="a_node16"><a xlink:title=" ">
<polygon fill="white" stroke="#bfbfbf" points="714,-0.5 714,-19.5 758,-19.5 758,-0.5 714,-0.5"/>
<text text-anchor="middle" x="736" y="-7.5" font-family="Helvetica,sans-Serif" font-size="10.00">vector</text>
</a>
</g>
</g>
<!-- Node5&#45;&gt;Node16 -->
<g id="edge15" class="edge">
<title>Node5&#45;&gt;Node16</title>
<path fill="none" stroke="midnightblue" d="M420.91,-60.54C484.66,-54.44 597.35,-41.92 702.91,-20.15"/>
<polygon fill="midnightblue" stroke="midnightblue" points="703.54,-23.59 712.61,-18.11 702.1,-16.74 703.54,-23.59"/>
</g>
<!-- Node17&#45;&gt;Node5 -->
<g id="edge17" class="edge">
<title>Node17&#45;&gt;Node5</title>
<path fill="none" stroke="midnightblue" d="M392.78,-112.56C389.15,-105.31 383.79,-94.59 379.18,-85.37"/>
<polygon fill="midnightblue" stroke="midnightblue" points="382.38,-83.93 374.78,-76.56 376.12,-87.06 382.38,-83.93"/>
</g>
</g>
</svg>
