<?xml version="1.0" encoding="UTF-8" standalone="no"?>
<!DOCTYPE svg PUBLIC "-//W3C//DTD SVG 1.1//EN"
 "http://www.w3.org/Graphics/SVG/1.1/DTD/svg11.dtd">
<!-- Generated by graphviz version 9.0.0 (20230911.1827)
 -->
<!-- Title: instance.hpp Pages: 1 -->
<!--zoomable 370 -->

<svg id="main" version="1.1" xmlns="http://www.w3.org/2000/svg" xmlns:xlink="http://www.w3.org/1999/xlink" xml:space="preserve" onload="init(evt)">
<style type="text/css"><![CDATA[
.node, .edge {opacity: 0.7;}
.node.selected, .edge.selected {opacity: 1;}
.edge:hover path { stroke: red; }
.edge:hover polygon { stroke: red; fill: red; }
]]></style>

<defs>
  <circle id="rim" cx="0" cy="0" r="7"/>
  <circle id="rim2" cx="0" cy="0" r="3.5"/>
  <g id="zoomPlus">
    <use xlink:href="#rim" fill="#404040"><set attributeName="fill" to="#808080" begin="zoomplus.mouseover" end="zoomplus.mouseout"/></use>
    <path d="M-4,0h8M0,-4v8" fill="none" stroke="white" stroke-width="1.5" pointer-events="none"/>
  </g>
  <g id="zoomMin">
    <use xlink:href="#rim" fill="#404040"><set attributeName="fill" to="#808080" begin="zoomminus.mouseover" end="zoomminus.mouseout"/></use>
    <path d="M-4,0h8" fill="none" stroke="white" stroke-width="1.5" pointer-events="none"/>
  </g>
  <g id="arrowUp" transform="translate(30 24)">
    <use xlink:href="#rim"/>
    <path pointer-events="none" fill="none" stroke="white" stroke-width="1.5" d="M0,-3.0v7 M-2.5,-0.5L0,-3.0L2.5,-0.5"/>
  </g>
  <g id="arrowRight" transform="rotate(90) translate(36 -43)">
    <use xlink:href="#rim"/>
    <path pointer-events="none" fill="none" stroke="white" stroke-width="1.5" d="M0,-3.0v7 M-2.5,-0.5L0,-3.0L2.5,-0.5"/>
  </g>
  <g id="arrowDown" transform="rotate(180) translate(-30 -48)">
    <use xlink:href="#rim"/>
    <path pointer-events="none" fill="none" stroke="white" stroke-width="1.5" d="M0,-3.0v7 M-2.5,-0.5L0,-3.0L2.5,-0.5"/>
  </g>
  <g id="arrowLeft" transform="rotate(270) translate(-36 17)">
    <use xlink:href="#rim"/>
    <path pointer-events="none" fill="none" stroke="white" stroke-width="1.5" d="M0,-3.0v7 M-2.5,-0.5L0,-3.0L2.5,-0.5"/>
  </g>
  <g id="resetDef">
    <use xlink:href="#rim2" fill="#404040"><set attributeName="fill" to="#808080" begin="reset.mouseover" end="reset.mouseout"/></use>
  </g>
</defs>
<script type="application/ecmascript">
var viewWidth = 1553;
var viewHeight = 370;
var sectionId = 'dynsection-0';
</script>
<script type="application/ecmascript" xlink:href="svg.min.js"/>
<svg id="graph" class="graph">
<g id="viewport">
<title>instance.hpp</title>
<!-- Node1 -->
<g id="Node000001" class="node">
<title>Node1</title>
<g id="a_Node000001"><a xlink:title=" ">
<polygon fill="#999999" stroke="#666666" points="1381.89,-362 1310.39,-362 1310.39,-342.75 1381.89,-342.75 1381.89,-362"/>
<text text-anchor="middle" x="1346.14" y="-348.5" font-family="Helvetica,sans-Serif" font-size="10.00">instance.hpp</text>
</a>
</g>
</g>
<!-- Node2 -->
<g id="Node000002" class="node">
<title>Node2</title>
<g id="a_Node000002"><a xlink:href="device_8hpp.html" target="_top" xlink:title=" ">
<polygon fill="white" stroke="#666666" points="1244.02,-306.75 1116.27,-306.75 1116.27,-287.5 1244.02,-287.5 1244.02,-306.75"/>
<text text-anchor="middle" x="1180.14" y="-293.25" font-family="Helvetica,sans-Serif" font-size="10.00">liger/render/rhi/device.hpp</text>
</a>
</g>
</g>
<!-- Node1&#45;&gt;Node2 -->
<g id="edge1_Node000001_Node000002" class="edge">
<title>Node1&#45;&gt;Node2</title>
<g id="a_edge1_Node000001_Node000002"><a xlink:title=" ">
<path fill="none" stroke="#63b8ff" d="M1317.98,-342.34C1290.79,-333.62 1249.4,-320.34 1219.07,-310.61"/>
<polygon fill="#63b8ff" stroke="#63b8ff" points="1220.47,-307.39 1209.88,-307.66 1218.33,-314.05 1220.47,-307.39"/>
</a>
</g>
</g>
<!-- Node21 -->
<g id="Node000021" class="node">
<title>Node21</title>
<g id="a_Node000021"><a xlink:title=" ">
<polygon fill="#e0e0e0" stroke="#999999" points="1387.64,-129.75 1350.64,-129.75 1350.64,-110.5 1387.64,-110.5 1387.64,-129.75"/>
<text text-anchor="middle" x="1369.14" y="-116.25" font-family="Helvetica,sans-Serif" font-size="10.00">span</text>
</a>
</g>
</g>
<!-- Node1&#45;&gt;Node21 -->
<g id="edge48_Node000001_Node000021" class="edge">
<title>Node1&#45;&gt;Node21</title>
<g id="a_edge48_Node000001_Node000021"><a xlink:title=" ">
<path fill="none" stroke="#63b8ff" d="M1374.57,-342.34C1413.11,-328.68 1481.65,-299.19 1521.14,-251.5 1537.7,-231.5 1535.86,-221.86 1540.14,-196.25 1542.38,-182.88 1548.43,-176.48 1540.14,-165.75 1523.04,-143.62 1443.59,-130.38 1399.26,-124.59"/>
<polygon fill="#63b8ff" stroke="#63b8ff" points="1399.88,-121.14 1389.52,-123.37 1399.01,-128.09 1399.88,-121.14"/>
</a>
</g>
</g>
<!-- Node3 -->
<g id="Node000003" class="node">
<title>Node3</title>
<g id="a_Node000003"><a xlink:href="buffer_8hpp.html" target="_top" xlink:title=" ">
<polygon fill="white" stroke="#666666" points="1066.77,-190.62 943.52,-190.62 943.52,-171.38 1066.77,-171.38 1066.77,-190.62"/>
<text text-anchor="middle" x="1005.14" y="-177.12" font-family="Helvetica,sans-Serif" font-size="10.00">liger/render/rhi/buffer.hpp</text>
</a>
</g>
</g>
<!-- Node2&#45;&gt;Node3 -->
<g id="edge2_Node000002_Node000003" class="edge">
<title>Node2&#45;&gt;Node3</title>
<g id="a_edge2_Node000002_Node000003"><a xlink:title=" ">
<path fill="none" stroke="#63b8ff" d="M1166.41,-287.17C1136.51,-267.67 1065.23,-221.18 1028.26,-197.08"/>
<polygon fill="#63b8ff" stroke="#63b8ff" points="1030.36,-194.27 1020.08,-191.74 1026.54,-200.13 1030.36,-194.27"/>
</a>
</g>
</g>
<!-- Node7 -->
<g id="Node000007" class="node">
<title>Node7</title>
<g id="a_Node000007"><a xlink:title=" ">
<polygon fill="#e0e0e0" stroke="#999999" points="1158.14,-129.75 1118.14,-129.75 1118.14,-110.5 1158.14,-110.5 1158.14,-129.75"/>
<text text-anchor="middle" x="1138.14" y="-116.25" font-family="Helvetica,sans-Serif" font-size="10.00">string</text>
</a>
</g>
</g>
<!-- Node2&#45;&gt;Node7 -->
<g id="edge47_Node000002_Node000007" class="edge">
<title>Node2&#45;&gt;Node7</title>
<g id="a_edge47_Node000002_Node000007"><a xlink:title=" ">
<path fill="none" stroke="#63b8ff" d="M1171.34,-287.09C1163.72,-278.64 1153.17,-265.29 1148.14,-251.5 1134.65,-214.46 1134.86,-167.68 1136.39,-141.42"/>
<polygon fill="#63b8ff" stroke="#63b8ff" points="1139.88,-141.74 1137.11,-131.52 1132.89,-141.24 1139.88,-141.74"/>
</a>
</g>
</g>
<!-- Node8 -->
<g id="Node000008" class="node">
<title>Node8</title>
<g id="a_Node000008"><a xlink:href="compute__pipeline_8hpp.html" target="_top" xlink:title=" ">
<polygon fill="white" stroke="#666666" points="1495.64,-251.5 1320.64,-251.5 1320.64,-232.25 1495.64,-232.25 1495.64,-251.5"/>
<text text-anchor="middle" x="1408.14" y="-238" font-family="Helvetica,sans-Serif" font-size="10.00">liger/render/rhi/compute_pipeline.hpp</text>
</a>
</g>
</g>
<!-- Node2&#45;&gt;Node8 -->
<g id="edge7_Node000002_Node000008" class="edge">
<title>Node2&#45;&gt;Node8</title>
<g id="a_edge7_Node000002_Node000008"><a xlink:title=" ">
<path fill="none" stroke="#63b8ff" d="M1219.08,-287.03C1257.52,-278.05 1316.47,-264.28 1358.32,-254.51"/>
<polygon fill="#63b8ff" stroke="#63b8ff" points="1358.95,-257.96 1367.89,-252.28 1357.36,-251.14 1358.95,-257.96"/>
</a>
</g>
</g>
<!-- Node9 -->
<g id="Node000009" class="node">
<title>Node9</title>
<g id="a_Node000009"><a xlink:href="graphics__pipeline_8hpp.html" target="_top" xlink:title=" ">
<polygon fill="white" stroke="#666666" points="521.27,-190.62 347.02,-190.62 347.02,-171.38 521.27,-171.38 521.27,-190.62"/>
<text text-anchor="middle" x="434.14" y="-177.12" font-family="Helvetica,sans-Serif" font-size="10.00">liger/render/rhi/graphics_pipeline.hpp</text>
</a>
</g>
</g>
<!-- Node2&#45;&gt;Node9 -->
<g id="edge8_Node000002_Node000009" class="edge">
<title>Node2&#45;&gt;Node9</title>
<g id="a_edge8_Node000002_Node000009"><a xlink:title=" ">
<path fill="none" stroke="#63b8ff" d="M1115.83,-294.29C1019.82,-290.67 833.65,-280.29 678.14,-251.5 603.12,-237.61 517.91,-210.7 470.65,-194.74"/>
<polygon fill="#63b8ff" stroke="#63b8ff" points="471.79,-191.43 461.19,-191.52 469.53,-198.06 471.79,-191.43"/>
</a>
</g>
</g>
<!-- Node13 -->
<g id="Node000013" class="node">
<title>Node13</title>
<g id="a_Node000013"><a xlink:href="render__graph_8hpp.html" target="_top" xlink:title=" ">
<polygon fill="white" stroke="#666666" points="842.89,-251.5 687.39,-251.5 687.39,-232.25 842.89,-232.25 842.89,-251.5"/>
<text text-anchor="middle" x="765.14" y="-238" font-family="Helvetica,sans-Serif" font-size="10.00">liger/render/rhi/render_graph.hpp</text>
</a>
</g>
</g>
<!-- Node2&#45;&gt;Node13 -->
<g id="edge12_Node000002_Node000013" class="edge">
<title>Node2&#45;&gt;Node13</title>
<g id="a_edge12_Node000002_Node000013"><a xlink:title=" ">
<path fill="none" stroke="#63b8ff" d="M1116.21,-287.92C1044.04,-278.66 926.44,-263.57 847.47,-253.44"/>
<polygon fill="#63b8ff" stroke="#63b8ff" points="847.97,-249.97 837.61,-252.17 847.08,-256.92 847.97,-249.97"/>
</a>
</g>
</g>
<!-- Node28 -->
<g id="Node000028" class="node">
<title>Node28</title>
<g id="a_Node000028"><a xlink:href="shader__module_8hpp.html" target="_top" xlink:title=" ">
<polygon fill="white" stroke="#666666" points="1530.77,-190.62 1365.52,-190.62 1365.52,-171.38 1530.77,-171.38 1530.77,-190.62"/>
<text text-anchor="middle" x="1448.14" y="-177.12" font-family="Helvetica,sans-Serif" font-size="10.00">liger/render/rhi/shader_module.hpp</text>
</a>
</g>
</g>
<!-- Node2&#45;&gt;Node28 -->
<g id="edge39_Node000002_Node000028" class="edge">
<title>Node2&#45;&gt;Node28</title>
<g id="a_edge39_Node000002_Node000028"><a xlink:title=" ">
<path fill="none" stroke="#63b8ff" d="M1244.23,-296.82C1328.88,-296.21 1471.12,-289.38 1504.14,-251.5 1520.12,-233.17 1495.45,-211.19 1473.98,-196.93"/>
<polygon fill="#63b8ff" stroke="#63b8ff" points="1476.1,-194.13 1465.77,-191.76 1472.37,-200.05 1476.1,-194.13"/>
</a>
</g>
</g>
<!-- Node29 -->
<g id="Node000029" class="node">
<title>Node29</title>
<g id="a_Node000029"><a xlink:href="swapchain_8hpp.html" target="_top" xlink:title=" ">
<polygon fill="white" stroke="#666666" points="1303.02,-251.5 1157.27,-251.5 1157.27,-232.25 1303.02,-232.25 1303.02,-251.5"/>
<text text-anchor="middle" x="1230.14" y="-238" font-family="Helvetica,sans-Serif" font-size="10.00">liger/render/rhi/swapchain.hpp</text>
</a>
</g>
</g>
<!-- Node2&#45;&gt;Node29 -->
<g id="edge42_Node000002_Node000029" class="edge">
<title>Node2&#45;&gt;Node29</title>
<g id="a_edge42_Node000002_Node000029"><a xlink:title=" ">
<path fill="none" stroke="#63b8ff" d="M1188.4,-287.33C1195.3,-279.98 1205.37,-269.26 1213.88,-260.19"/>
<polygon fill="#63b8ff" stroke="#63b8ff" points="1216.38,-262.65 1220.67,-252.96 1211.27,-257.86 1216.38,-262.65"/>
</a>
</g>
</g>
<!-- Node4 -->
<g id="Node000004" class="node">
<title>Node4</title>
<g id="a_Node000004"><a xlink:href="device__resource__state_8hpp.html" target="_top" xlink:title=" ">
<polygon fill="white" stroke="#666666" points="1099.89,-129.75 902.39,-129.75 902.39,-110.5 1099.89,-110.5 1099.89,-129.75"/>
<text text-anchor="middle" x="1001.14" y="-116.25" font-family="Helvetica,sans-Serif" font-size="10.00">liger/render/rhi/device_resource_state.hpp</text>
</a>
</g>
</g>
<!-- Node3&#45;&gt;Node4 -->
<g id="edge3_Node000003_Node000004" class="edge">
<title>Node3&#45;&gt;Node4</title>
<g id="a_edge3_Node000003_Node000004"><a xlink:title=" ">
<path fill="none" stroke="#63b8ff" d="M1004.53,-171.06C1004,-163.19 1003.2,-151.45 1002.51,-141.32"/>
<polygon fill="#63b8ff" stroke="#63b8ff" points="1006.03,-141.4 1001.86,-131.66 999.04,-141.88 1006.03,-141.4"/>
</a>
</g>
</g>
<!-- Node3&#45;&gt;Node7 -->
<g id="edge6_Node000003_Node000007" class="edge">
<title>Node3&#45;&gt;Node7</title>
<g id="a_edge6_Node000003_Node000007"><a xlink:title=" ">
<path fill="none" stroke="#63b8ff" d="M1025.63,-170.93C1047.47,-161.26 1082.28,-145.85 1107.4,-134.73"/>
<polygon fill="#63b8ff" stroke="#63b8ff" points="1108.73,-137.97 1116.46,-130.72 1105.9,-131.57 1108.73,-137.97"/>
</a>
</g>
</g>
<!-- Node5 -->
<g id="Node000005" class="node">
<title>Node5</title>
<g id="a_Node000005"><a xlink:href="enum__bitmask_8hpp.html" target="_top" xlink:title=" ">
<polygon fill="white" stroke="#666666" points="1009.77,-74.5 868.52,-74.5 868.52,-55.25 1009.77,-55.25 1009.77,-74.5"/>
<text text-anchor="middle" x="939.14" y="-61" font-family="Helvetica,sans-Serif" font-size="10.00">liger/core/enum_bitmask.hpp</text>
</a>
</g>
</g>
<!-- Node4&#45;&gt;Node5 -->
<g id="edge4_Node000004_Node000005" class="edge">
<title>Node4&#45;&gt;Node5</title>
<g id="a_edge4_Node000004_Node000005"><a xlink:title=" ">
<path fill="none" stroke="#63b8ff" d="M990.62,-110.09C981.75,-102.47 968.83,-91.37 958.15,-82.2"/>
<polygon fill="#63b8ff" stroke="#63b8ff" points="960.52,-79.62 950.65,-75.76 955.96,-84.93 960.52,-79.62"/>
</a>
</g>
</g>
<!-- Node6 -->
<g id="Node000006" class="node">
<title>Node6</title>
<g id="a_Node000006"><a xlink:title=" ">
<polygon fill="#e0e0e0" stroke="#999999" points="970.02,-19.25 908.27,-19.25 908.27,0 970.02,0 970.02,-19.25"/>
<text text-anchor="middle" x="939.14" y="-5.75" font-family="Helvetica,sans-Serif" font-size="10.00">type_traits</text>
</a>
</g>
</g>
<!-- Node5&#45;&gt;Node6 -->
<g id="edge5_Node000005_Node000006" class="edge">
<title>Node5&#45;&gt;Node6</title>
<g id="a_edge5_Node000005_Node000006"><a xlink:title=" ">
<path fill="none" stroke="#63b8ff" d="M939.14,-55.08C939.14,-48.57 939.14,-39.42 939.14,-31.12"/>
<polygon fill="#63b8ff" stroke="#63b8ff" points="942.64,-31.12 939.14,-21.12 935.64,-31.12 942.64,-31.12"/>
</a>
</g>
</g>
<!-- Node10 -->
<g id="Node000010" class="node">
<title>Node10</title>
<g id="a_Node000010"><a xlink:href="format_8hpp.html" target="_top" xlink:title=" ">
<polygon fill="white" stroke="#666666" points="490.64,-129.75 363.64,-129.75 363.64,-110.5 490.64,-110.5 490.64,-129.75"/>
<text text-anchor="middle" x="427.14" y="-116.25" font-family="Helvetica,sans-Serif" font-size="10.00">liger/render/rhi/format.hpp</text>
</a>
</g>
</g>
<!-- Node9&#45;&gt;Node10 -->
<g id="edge9_Node000009_Node000010" class="edge">
<title>Node9&#45;&gt;Node10</title>
<g id="a_edge9_Node000009_Node000010"><a xlink:title=" ">
<path fill="none" stroke="#63b8ff" d="M433.08,-171.06C432.14,-163.19 430.75,-151.45 429.54,-141.32"/>
<polygon fill="#63b8ff" stroke="#63b8ff" points="433.05,-141.17 428.39,-131.65 426.1,-142 433.05,-141.17"/>
</a>
</g>
</g>
<!-- Node12 -->
<g id="Node000012" class="node">
<title>Node12</title>
<g id="a_Node000012"><a xlink:title=" ">
<polygon fill="#e0e0e0" stroke="#999999" points="274.64,-129.75 231.64,-129.75 231.64,-110.5 274.64,-110.5 274.64,-129.75"/>
<text text-anchor="middle" x="253.14" y="-116.25" font-family="Helvetica,sans-Serif" font-size="10.00">vector</text>
</a>
</g>
</g>
<!-- Node9&#45;&gt;Node12 -->
<g id="edge11_Node000009_Node000012" class="edge">
<title>Node9&#45;&gt;Node12</title>
<g id="a_edge11_Node000009_Node000012"><a xlink:title=" ">
<path fill="none" stroke="#63b8ff" d="M406.26,-170.93C373.83,-160.38 320.36,-142.99 285.96,-131.8"/>
<polygon fill="#63b8ff" stroke="#63b8ff" points="287.11,-128.49 276.52,-128.73 284.94,-135.15 287.11,-128.49"/>
</a>
</g>
</g>
<!-- Node11 -->
<g id="Node000011" class="node">
<title>Node11</title>
<g id="a_Node000011"><a xlink:title=" ">
<polygon fill="#e0e0e0" stroke="#999999" points="594.77,-19.25 549.52,-19.25 549.52,0 594.77,0 594.77,-19.25"/>
<text text-anchor="middle" x="572.14" y="-5.75" font-family="Helvetica,sans-Serif" font-size="10.00">cstdint</text>
</a>
</g>
</g>
<!-- Node10&#45;&gt;Node11 -->
<g id="edge10_Node000010_Node000011" class="edge">
<title>Node10&#45;&gt;Node11</title>
<g id="a_edge10_Node000010_Node000011"><a xlink:title=" ">
<path fill="none" stroke="#63b8ff" d="M439.01,-110.25C463.54,-91.89 520.14,-49.54 551.05,-26.41"/>
<polygon fill="#63b8ff" stroke="#63b8ff" points="552.99,-29.33 558.9,-20.53 548.8,-23.72 552.99,-29.33"/>
</a>
</g>
</g>
<!-- Node13&#45;&gt;Node3 -->
<g id="edge19_Node000013_Node000003" class="edge">
<title>Node13&#45;&gt;Node3</title>
<g id="a_edge19_Node000013_Node000003"><a xlink:title=" ">
<path fill="none" stroke="#63b8ff" d="M802.11,-231.8C843.69,-221.61 911.35,-205.01 957.02,-193.81"/>
<polygon fill="#63b8ff" stroke="#63b8ff" points="957.78,-197.22 966.65,-191.44 956.11,-190.42 957.78,-197.22"/>
</a>
</g>
</g>
<!-- Node14 -->
<g id="Node000014" class="node">
<title>Node14</title>
<g id="a_Node000014"><a xlink:href="dag_8hpp.html" target="_top" xlink:title=" ">
<polygon fill="white" stroke="#666666" points="155.77,-190.62 62.52,-190.62 62.52,-171.38 155.77,-171.38 155.77,-190.62"/>
<text text-anchor="middle" x="109.14" y="-177.12" font-family="Helvetica,sans-Serif" font-size="10.00">liger/core/dag.hpp</text>
</a>
</g>
</g>
<!-- Node13&#45;&gt;Node14 -->
<g id="edge13_Node000013_Node000014" class="edge">
<title>Node13&#45;&gt;Node14</title>
<g id="a_edge13_Node000013_Node000014"><a xlink:title=" ">
<path fill="none" stroke="#63b8ff" d="M686.96,-239.42C571.95,-236.29 350.71,-226.52 165.14,-196.25 160.81,-195.54 156.32,-194.66 151.86,-193.69"/>
<polygon fill="#63b8ff" stroke="#63b8ff" points="152.93,-190.34 142.39,-191.46 151.33,-197.16 152.93,-190.34"/>
</a>
</g>
</g>
<!-- Node18 -->
<g id="Node000018" class="node">
<title>Node18</title>
<g id="a_Node000018"><a xlink:href="command__buffer_8hpp.html" target="_top" xlink:title=" ">
<polygon fill="white" stroke="#666666" points="925.77,-190.62 754.52,-190.62 754.52,-171.38 925.77,-171.38 925.77,-190.62"/>
<text text-anchor="middle" x="840.14" y="-177.12" font-family="Helvetica,sans-Serif" font-size="10.00">liger/render/rhi/command_buffer.hpp</text>
</a>
</g>
</g>
<!-- Node13&#45;&gt;Node18 -->
<g id="edge20_Node000013_Node000018" class="edge">
<title>Node13&#45;&gt;Node18</title>
<g id="a_edge20_Node000013_Node000018"><a xlink:title=" ">
<path fill="none" stroke="#63b8ff" d="M776.53,-231.93C787.98,-222.94 805.89,-208.89 819.79,-197.98"/>
<polygon fill="#63b8ff" stroke="#63b8ff" points="821.75,-200.89 827.45,-191.96 817.42,-195.38 821.75,-200.89"/>
</a>
</g>
</g>
<!-- Node22 -->
<g id="Node000022" class="node">
<title>Node22</title>
<g id="a_Node000022"><a xlink:href="resource__version__registry_8hpp.html" target="_top" xlink:title=" ">
<polygon fill="white" stroke="#666666" points="328.52,-196.25 173.77,-196.25 173.77,-165.75 328.52,-165.75 328.52,-196.25"/>
<text text-anchor="start" x="181.77" y="-182.75" font-family="Helvetica,sans-Serif" font-size="10.00">liger/render/rhi/resource_version</text>
<text text-anchor="middle" x="251.14" y="-171.5" font-family="Helvetica,sans-Serif" font-size="10.00">_registry.hpp</text>
</a>
</g>
</g>
<!-- Node13&#45;&gt;Node22 -->
<g id="edge27_Node000013_Node000022" class="edge">
<title>Node13&#45;&gt;Node22</title>
<g id="a_edge27_Node000013_Node000022"><a xlink:title=" ">
<path fill="none" stroke="#63b8ff" d="M687.06,-234.09C603.75,-226.54 467.64,-213.31 340.03,-196.45"/>
<polygon fill="#63b8ff" stroke="#63b8ff" points="340.77,-193.02 330.4,-195.17 339.85,-199.96 340.77,-193.02"/>
</a>
</g>
</g>
<!-- Node24 -->
<g id="Node000024" class="node">
<title>Node24</title>
<g id="a_Node000024"><a xlink:href="texture_8hpp.html" target="_top" xlink:title=" ">
<polygon fill="white" stroke="#666666" points="736.77,-190.62 607.52,-190.62 607.52,-171.38 736.77,-171.38 736.77,-190.62"/>
<text text-anchor="middle" x="672.14" y="-177.12" font-family="Helvetica,sans-Serif" font-size="10.00">liger/render/rhi/texture.hpp</text>
</a>
</g>
</g>
<!-- Node13&#45;&gt;Node24 -->
<g id="edge30_Node000013_Node000024" class="edge">
<title>Node13&#45;&gt;Node24</title>
<g id="a_edge30_Node000013_Node000024"><a xlink:title=" ">
<path fill="none" stroke="#63b8ff" d="M751.02,-231.93C736.4,-222.68 713.32,-208.07 695.9,-197.04"/>
<polygon fill="#63b8ff" stroke="#63b8ff" points="698,-194.23 687.68,-191.84 694.25,-200.14 698,-194.23"/>
</a>
</g>
</g>
<!-- Node26 -->
<g id="Node000026" class="node">
<title>Node26</title>
<g id="a_Node000026"><a xlink:title=" ">
<polygon fill="#e0e0e0" stroke="#999999" points="589.02,-190.62 539.27,-190.62 539.27,-171.38 589.02,-171.38 589.02,-190.62"/>
<text text-anchor="middle" x="564.14" y="-177.12" font-family="Helvetica,sans-Serif" font-size="10.00">optional</text>
</a>
</g>
</g>
<!-- Node13&#45;&gt;Node26 -->
<g id="edge37_Node000013_Node000026" class="edge">
<title>Node13&#45;&gt;Node26</title>
<g id="a_edge37_Node000013_Node000026"><a xlink:title=" ">
<path fill="none" stroke="#63b8ff" d="M725.21,-231.82C691.09,-223.7 640.88,-210.84 598.14,-196.25 597.16,-195.92 596.17,-195.57 595.17,-195.21"/>
<polygon fill="#63b8ff" stroke="#63b8ff" points="596.46,-191.95 585.87,-191.59 593.93,-198.48 596.46,-191.95"/>
</a>
</g>
</g>
<!-- Node27 -->
<g id="Node000027" class="node">
<title>Node27</title>
<g id="a_Node000027"><a xlink:title=" ">
<polygon fill="#e0e0e0" stroke="#999999" points="1256.89,-129.75 1191.39,-129.75 1191.39,-110.5 1256.89,-110.5 1256.89,-129.75"/>
<text text-anchor="middle" x="1224.14" y="-116.25" font-family="Helvetica,sans-Serif" font-size="10.00">string_view</text>
</a>
</g>
</g>
<!-- Node13&#45;&gt;Node27 -->
<g id="edge38_Node000013_Node000027" class="edge">
<title>Node13&#45;&gt;Node27</title>
<g id="a_edge38_Node000013_Node000027"><a xlink:title=" ">
<path fill="none" stroke="#63b8ff" d="M843.07,-236.76C906.94,-231.73 999.04,-220.62 1076.14,-196.25 1122.63,-181.56 1172.33,-153.46 1200.68,-136.11"/>
<polygon fill="#63b8ff" stroke="#63b8ff" points="1202.18,-139.29 1208.83,-131.04 1198.48,-133.35 1202.18,-139.29"/>
</a>
</g>
</g>
<!-- Node14&#45;&gt;Node11 -->
<g id="edge16_Node000014_Node000011" class="edge">
<title>Node14&#45;&gt;Node11</title>
<g id="a_edge16_Node000014_Node000011"><a xlink:title=" ">
<path fill="none" stroke="#63b8ff" d="M73.08,-170.95C34.79,-159.65 -17.22,-138.35 6.14,-110.5 74.98,-28.45 426.39,-13.78 538.04,-11.18"/>
<polygon fill="#63b8ff" stroke="#63b8ff" points="537.83,-14.68 547.75,-10.97 537.68,-7.69 537.83,-14.68"/>
</a>
</g>
</g>
<!-- Node14&#45;&gt;Node12 -->
<g id="edge18_Node000014_Node000012" class="edge">
<title>Node14&#45;&gt;Node12</title>
<g id="a_edge18_Node000014_Node000012"><a xlink:title=" ">
<path fill="none" stroke="#63b8ff" d="M131.33,-170.93C155.18,-161.18 193.34,-145.58 220.59,-134.43"/>
<polygon fill="#63b8ff" stroke="#63b8ff" points="221.83,-137.71 229.77,-130.68 219.19,-131.23 221.83,-137.71"/>
</a>
</g>
</g>
<!-- Node15 -->
<g id="Node000015" class="node">
<title>Node15</title>
<g id="a_Node000015"><a xlink:title=" ">
<polygon fill="#e0e0e0" stroke="#999999" points="63.27,-129.75 15.02,-129.75 15.02,-110.5 63.27,-110.5 63.27,-129.75"/>
<text text-anchor="middle" x="39.14" y="-116.25" font-family="Helvetica,sans-Serif" font-size="10.00">cassert</text>
</a>
</g>
</g>
<!-- Node14&#45;&gt;Node15 -->
<g id="edge14_Node000014_Node000015" class="edge">
<title>Node14&#45;&gt;Node15</title>
<g id="a_edge14_Node000014_Node000015"><a xlink:title=" ">
<path fill="none" stroke="#63b8ff" d="M98.51,-171.06C87.92,-162.15 71.43,-148.28 58.51,-137.42"/>
<polygon fill="#63b8ff" stroke="#63b8ff" points="60.94,-134.88 51.03,-131.13 56.43,-140.24 60.94,-134.88"/>
</a>
</g>
</g>
<!-- Node16 -->
<g id="Node000016" class="node">
<title>Node16</title>
<g id="a_Node000016"><a xlink:title=" ">
<polygon fill="#e0e0e0" stroke="#999999" points="137.02,-129.75 81.27,-129.75 81.27,-110.5 137.02,-110.5 137.02,-129.75"/>
<text text-anchor="middle" x="109.14" y="-116.25" font-family="Helvetica,sans-Serif" font-size="10.00">concepts</text>
</a>
</g>
</g>
<!-- Node14&#45;&gt;Node16 -->
<g id="edge15_Node000014_Node000016" class="edge">
<title>Node14&#45;&gt;Node16</title>
<g id="a_edge15_Node000014_Node000016"><a xlink:title=" ">
<path fill="none" stroke="#63b8ff" d="M109.14,-171.06C109.14,-163.28 109.14,-151.7 109.14,-141.66"/>
<polygon fill="#63b8ff" stroke="#63b8ff" points="112.64,-141.66 109.14,-131.66 105.64,-141.66 112.64,-141.66"/>
</a>
</g>
</g>
<!-- Node17 -->
<g id="Node000017" class="node">
<title>Node17</title>
<g id="a_Node000017"><a xlink:title=" ">
<polygon fill="#e0e0e0" stroke="#999999" points="213.14,-129.75 155.14,-129.75 155.14,-110.5 213.14,-110.5 213.14,-129.75"/>
<text text-anchor="middle" x="184.14" y="-116.25" font-family="Helvetica,sans-Serif" font-size="10.00">functional</text>
</a>
</g>
</g>
<!-- Node14&#45;&gt;Node17 -->
<g id="edge17_Node000014_Node000017" class="edge">
<title>Node14&#45;&gt;Node17</title>
<g id="a_edge17_Node000014_Node000017"><a xlink:title=" ">
<path fill="none" stroke="#63b8ff" d="M120.53,-171.06C131.98,-162.07 149.89,-148.01 163.79,-137.1"/>
<polygon fill="#63b8ff" stroke="#63b8ff" points="165.75,-140.01 171.45,-131.09 161.42,-134.51 165.75,-140.01"/>
</a>
</g>
</g>
<!-- Node18&#45;&gt;Node5 -->
<g id="edge21_Node000018_Node000005" class="edge">
<title>Node18&#45;&gt;Node5</title>
<g id="a_edge21_Node000018_Node000005"><a xlink:title=" ">
<path fill="none" stroke="#63b8ff" d="M846.27,-171.11C855.75,-157.57 874.81,-131.15 893.14,-110.5 901.8,-100.74 912.18,-90.56 920.89,-82.39"/>
<polygon fill="#63b8ff" stroke="#63b8ff" points="923.12,-85.09 928.1,-75.73 918.38,-79.95 923.12,-85.09"/>
</a>
</g>
</g>
<!-- Node19 -->
<g id="Node000019" class="node">
<title>Node19</title>
<g id="a_Node000019"><a xlink:href="extent_8hpp.html" target="_top" xlink:title=" ">
<polygon fill="white" stroke="#666666" points="635.27,-129.75 509.02,-129.75 509.02,-110.5 635.27,-110.5 635.27,-129.75"/>
<text text-anchor="middle" x="572.14" y="-116.25" font-family="Helvetica,sans-Serif" font-size="10.00">liger/render/rhi/extent.hpp</text>
</a>
</g>
</g>
<!-- Node18&#45;&gt;Node19 -->
<g id="edge22_Node000018_Node000019" class="edge">
<title>Node18&#45;&gt;Node19</title>
<g id="a_edge22_Node000018_Node000019"><a xlink:title=" ">
<path fill="none" stroke="#63b8ff" d="M798.85,-170.93C752.03,-160.64 675.59,-143.85 624.59,-132.65"/>
<polygon fill="#63b8ff" stroke="#63b8ff" points="625.47,-129.26 614.95,-130.53 623.97,-136.09 625.47,-129.26"/>
</a>
</g>
</g>
<!-- Node20 -->
<g id="Node000020" class="node">
<title>Node20</title>
<g id="a_Node000020"><a xlink:href="filter_8hpp.html" target="_top" xlink:title=" ">
<polygon fill="white" stroke="#666666" points="789.77,-74.5 672.52,-74.5 672.52,-55.25 789.77,-55.25 789.77,-74.5"/>
<text text-anchor="middle" x="731.14" y="-61" font-family="Helvetica,sans-Serif" font-size="10.00">liger/render/rhi/filter.hpp</text>
</a>
</g>
</g>
<!-- Node18&#45;&gt;Node20 -->
<g id="edge24_Node000018_Node000020" class="edge">
<title>Node18&#45;&gt;Node20</title>
<g id="a_edge24_Node000018_Node000020"><a xlink:title=" ">
<path fill="none" stroke="#63b8ff" d="M839.36,-171.29C837.67,-157.03 832.48,-128.49 817.14,-110.5 805.15,-96.43 787.6,-86.21 771.47,-79.14"/>
<polygon fill="#63b8ff" stroke="#63b8ff" points="773.14,-76.04 762.56,-75.5 770.5,-82.52 773.14,-76.04"/>
</a>
</g>
</g>
<!-- Node18&#45;&gt;Node21 -->
<g id="edge26_Node000018_Node000021" class="edge">
<title>Node18&#45;&gt;Node21</title>
<g id="a_edge26_Node000018_Node000021"><a xlink:title=" ">
<path fill="none" stroke="#63b8ff" d="M897.24,-170.89C909.41,-169.08 922.19,-167.27 934.14,-165.75 1086.14,-146.44 1268.84,-129.84 1339.36,-123.68"/>
<polygon fill="#63b8ff" stroke="#63b8ff" points="1339.28,-127.2 1348.94,-122.85 1338.68,-120.23 1339.28,-127.2"/>
</a>
</g>
</g>
<!-- Node19&#45;&gt;Node11 -->
<g id="edge23_Node000019_Node000011" class="edge">
<title>Node19&#45;&gt;Node11</title>
<g id="a_edge23_Node000019_Node000011"><a xlink:title=" ">
<path fill="none" stroke="#63b8ff" d="M572.14,-110.25C572.14,-93 572.14,-54.58 572.14,-30.81"/>
<polygon fill="#63b8ff" stroke="#63b8ff" points="575.64,-31.14 572.14,-21.14 568.64,-31.14 575.64,-31.14"/>
</a>
</g>
</g>
<!-- Node20&#45;&gt;Node11 -->
<g id="edge25_Node000020_Node000011" class="edge">
<title>Node20&#45;&gt;Node11</title>
<g id="a_edge25_Node000020_Node000011"><a xlink:title=" ">
<path fill="none" stroke="#63b8ff" d="M704.17,-54.84C676.99,-45.74 634.97,-31.67 605.66,-21.85"/>
<polygon fill="#63b8ff" stroke="#63b8ff" points="607.14,-18.65 596.54,-18.8 604.92,-25.29 607.14,-18.65"/>
</a>
</g>
</g>
<!-- Node22&#45;&gt;Node12 -->
<g id="edge29_Node000022_Node000012" class="edge">
<title>Node22&#45;&gt;Node12</title>
<g id="a_edge29_Node000022_Node000012"><a xlink:title=" ">
<path fill="none" stroke="#63b8ff" d="M251.63,-165.45C251.88,-158.21 252.18,-149.34 252.45,-141.44"/>
<polygon fill="#63b8ff" stroke="#63b8ff" points="255.94,-141.83 252.78,-131.71 248.94,-141.59 255.94,-141.83"/>
</a>
</g>
</g>
<!-- Node23 -->
<g id="Node000023" class="node">
<title>Node23</title>
<g id="a_Node000023"><a xlink:title=" ">
<polygon fill="#e0e0e0" stroke="#999999" points="337.77,-129.75 292.52,-129.75 292.52,-110.5 337.77,-110.5 337.77,-129.75"/>
<text text-anchor="middle" x="315.14" y="-116.25" font-family="Helvetica,sans-Serif" font-size="10.00">variant</text>
</a>
</g>
</g>
<!-- Node22&#45;&gt;Node23 -->
<g id="edge28_Node000022_Node000023" class="edge">
<title>Node22&#45;&gt;Node23</title>
<g id="a_edge28_Node000022_Node000023"><a xlink:title=" ">
<path fill="none" stroke="#63b8ff" d="M266.96,-165.45C276.05,-157.09 287.5,-146.55 296.96,-137.85"/>
<polygon fill="#63b8ff" stroke="#63b8ff" points="299.17,-140.57 304.16,-131.23 294.43,-135.42 299.17,-140.57"/>
</a>
</g>
</g>
<!-- Node24&#45;&gt;Node4 -->
<g id="edge31_Node000024_Node000004" class="edge">
<title>Node24&#45;&gt;Node4</title>
<g id="a_edge31_Node000024_Node000004"><a xlink:title=" ">
<path fill="none" stroke="#63b8ff" d="M718.06,-170.89C727.04,-169.15 736.38,-167.37 745.14,-165.75 809.89,-153.79 884.03,-140.96 935.8,-132.14"/>
<polygon fill="#63b8ff" stroke="#63b8ff" points="936.38,-135.59 945.65,-130.47 935.21,-128.69 936.38,-135.59"/>
</a>
</g>
</g>
<!-- Node24&#45;&gt;Node7 -->
<g id="edge36_Node000024_Node000007" class="edge">
<title>Node24&#45;&gt;Node7</title>
<g id="a_edge36_Node000024_Node000007"><a xlink:title=" ">
<path fill="none" stroke="#63b8ff" d="M715.26,-170.88C725.05,-169.01 735.43,-167.17 745.14,-165.75 902.37,-142.68 947.6,-160.24 1106.53,-129.91"/>
<polygon fill="#63b8ff" stroke="#63b8ff" points="1107.03,-133.37 1116.18,-128.03 1105.7,-126.5 1107.03,-133.37"/>
</a>
</g>
</g>
<!-- Node24&#45;&gt;Node10 -->
<g id="edge33_Node000024_Node000010" class="edge">
<title>Node24&#45;&gt;Node10</title>
<g id="a_edge33_Node000024_Node000010"><a xlink:title=" ">
<path fill="none" stroke="#63b8ff" d="M634.4,-170.93C591.86,-160.71 522.59,-144.06 475.97,-132.86"/>
<polygon fill="#63b8ff" stroke="#63b8ff" points="476.94,-129.49 466.4,-130.56 475.3,-136.3 476.94,-129.49"/>
</a>
</g>
</g>
<!-- Node24&#45;&gt;Node19 -->
<g id="edge32_Node000024_Node000019" class="edge">
<title>Node24&#45;&gt;Node19</title>
<g id="a_edge32_Node000024_Node000019"><a xlink:title=" ">
<path fill="none" stroke="#63b8ff" d="M656.95,-171.06C641.09,-161.72 615.96,-146.92 597.16,-135.86"/>
<polygon fill="#63b8ff" stroke="#63b8ff" points="599.17,-132.98 588.78,-130.92 595.62,-139.01 599.17,-132.98"/>
</a>
</g>
</g>
<!-- Node25 -->
<g id="Node000025" class="node">
<title>Node25</title>
<g id="a_Node000025"><a xlink:href="sampler__info_8hpp.html" target="_top" xlink:title=" ">
<polygon fill="white" stroke="#666666" points="808.52,-129.75 653.77,-129.75 653.77,-110.5 808.52,-110.5 808.52,-129.75"/>
<text text-anchor="middle" x="731.14" y="-116.25" font-family="Helvetica,sans-Serif" font-size="10.00">liger/render/rhi/sampler_info.hpp</text>
</a>
</g>
</g>
<!-- Node24&#45;&gt;Node25 -->
<g id="edge34_Node000024_Node000025" class="edge">
<title>Node24&#45;&gt;Node25</title>
<g id="a_edge34_Node000024_Node000025"><a xlink:title=" ">
<path fill="none" stroke="#63b8ff" d="M681.1,-171.06C689.85,-162.33 703.39,-148.82 714.18,-138.05"/>
<polygon fill="#63b8ff" stroke="#63b8ff" points="716.42,-140.76 721.02,-131.22 711.47,-135.81 716.42,-140.76"/>
</a>
</g>
</g>
<!-- Node25&#45;&gt;Node20 -->
<g id="edge35_Node000025_Node000020" class="edge">
<title>Node25&#45;&gt;Node20</title>
<g id="a_edge35_Node000025_Node000020"><a xlink:title=" ">
<path fill="none" stroke="#63b8ff" d="M731.14,-110.33C731.14,-103.82 731.14,-94.67 731.14,-86.37"/>
<polygon fill="#63b8ff" stroke="#63b8ff" points="734.64,-86.37 731.14,-76.37 727.64,-86.37 734.64,-86.37"/>
</a>
</g>
</g>
<!-- Node28&#45;&gt;Node11 -->
<g id="edge40_Node000028_Node000011" class="edge">
<title>Node28&#45;&gt;Node11</title>
<g id="a_edge40_Node000028_Node000011"><a xlink:title=" ">
<path fill="none" stroke="#63b8ff" d="M1444.24,-170.96C1437.12,-155.68 1420.48,-124.99 1396.14,-110.5 1259.27,-29.02 744.28,-13.78 606.32,-11.14"/>
<polygon fill="#63b8ff" stroke="#63b8ff" points="606.45,-7.65 596.39,-10.97 606.33,-14.65 606.45,-7.65"/>
</a>
</g>
</g>
<!-- Node28&#45;&gt;Node21 -->
<g id="edge41_Node000028_Node000021" class="edge">
<title>Node28&#45;&gt;Node21</title>
<g id="a_edge41_Node000028_Node000021"><a xlink:title=" ">
<path fill="none" stroke="#63b8ff" d="M1436.14,-171.06C1423.96,-161.98 1404.86,-147.74 1390.16,-136.79"/>
<polygon fill="#63b8ff" stroke="#63b8ff" points="1392.58,-134.22 1382.47,-131.06 1388.39,-139.84 1392.58,-134.22"/>
</a>
</g>
</g>
<!-- Node29&#45;&gt;Node21 -->
<g id="edge46_Node000029_Node000021" class="edge">
<title>Node29&#45;&gt;Node21</title>
<g id="a_edge46_Node000029_Node000021"><a xlink:title=" ">
<path fill="none" stroke="#63b8ff" d="M1256.09,-231.77C1274.8,-224.3 1299.88,-212.32 1318.14,-196.25 1336.21,-180.34 1350.88,-156.67 1359.76,-140.16"/>
<polygon fill="#63b8ff" stroke="#63b8ff" points="1362.81,-141.9 1364.27,-131.41 1356.58,-138.7 1362.81,-141.9"/>
</a>
</g>
</g>
<!-- Node29&#45;&gt;Node24 -->
<g id="edge45_Node000029_Node000024" class="edge">
<title>Node29&#45;&gt;Node24</title>
<g id="a_edge45_Node000029_Node000024"><a xlink:title=" ">
<path fill="none" stroke="#63b8ff" d="M1157.15,-236.47C1062.01,-230.19 890.57,-217.08 745.14,-196.25 738.84,-195.35 732.25,-194.26 725.73,-193.1"/>
<polygon fill="#63b8ff" stroke="#63b8ff" points="726.82,-189.74 716.35,-191.37 725.55,-196.63 726.82,-189.74"/>
</a>
</g>
</g>
<!-- Node30 -->
<g id="Node000030" class="node">
<title>Node30</title>
<g id="a_Node000030"><a xlink:href="window_8hpp.html" target="_top" xlink:title=" ">
<polygon fill="white" stroke="#666666" points="1308.77,-190.62 1161.52,-190.62 1161.52,-171.38 1308.77,-171.38 1308.77,-190.62"/>
<text text-anchor="middle" x="1235.14" y="-177.12" font-family="Helvetica,sans-Serif" font-size="10.00">liger/core/platform/window.hpp</text>
</a>
</g>
</g>
<!-- Node29&#45;&gt;Node30 -->
<g id="edge43_Node000029_Node000030" class="edge">
<title>Node29&#45;&gt;Node30</title>
<g id="a_edge43_Node000029_Node000030"><a xlink:title=" ">
<path fill="none" stroke="#63b8ff" d="M1230.9,-231.93C1231.57,-224.07 1232.57,-212.32 1233.43,-202.2"/>
<polygon fill="#63b8ff" stroke="#63b8ff" points="1236.89,-202.79 1234.25,-192.53 1229.91,-202.2 1236.89,-202.79"/>
</a>
</g>
</g>
<!-- Node30&#45;&gt;Node27 -->
<g id="edge44_Node000030_Node000027" class="edge">
<title>Node30&#45;&gt;Node27</title>
<g id="a_edge44_Node000030_Node000027"><a xlink:title=" ">
<path fill="none" stroke="#63b8ff" d="M1233.47,-171.06C1232,-163.19 1229.81,-151.45 1227.91,-141.32"/>
<polygon fill="#63b8ff" stroke="#63b8ff" points="1231.38,-140.83 1226.1,-131.64 1224.5,-142.11 1231.38,-140.83"/>
</a>
</g>
</g>
</g>
</svg>

<g id="navigator" transform="translate(0 0)" fill="#404254">
  <rect fill="#f2f5e9" fill-opacity="0.5" stroke="#606060" stroke-width=".5" x="0" y="0" width="60" height="60"/>
  <use id="zoomplus" xlink:href="#zoomPlus" x="17" y="9" onmousedown="handleZoom(evt,'in')"/>
  <use id="zoomminus" xlink:href="#zoomMin" x="42" y="9" onmousedown="handleZoom(evt,'out')"/>
  <use id="reset" xlink:href="#resetDef" x="30" y="36" onmousedown="handleReset()"/>
   <use id="arrowup" xlink:href="#arrowUp" x="0" y="0" onmousedown="handlePan(0,-1)"/>
  <use id="arrowright" xlink:href="#arrowRight" x="0" y="0" onmousedown="handlePan(1,0)"/>
  <use id="arrowdown" xlink:href="#arrowDown" x="0" y="0" onmousedown="handlePan(0,1)"/>
  <use id="arrowleft" xlink:href="#arrowLeft" x="0" y="0" onmousedown="handlePan(-1,0)"/>
</g>
<svg viewBox="0 0 15 15" width="100%" height="30px" preserveAspectRatio="xMaxYMin meet">
 <g id="arrow_out" transform="scale(0.3 0.3)">
  <a xlink:href="instance_8hpp__incl_org.svg" target="_base">
   <rect id="button" ry="5" rx="5" y="6" x="6" height="38" width="38"
        fill="#f2f5e9" fill-opacity="0.5" stroke="#606060" stroke-width="1.0"/>
   <path id="arrow"
     d="M 11.500037,31.436501 C 11.940474,20.09759 22.043105,11.32322 32.158766,21.979434 L 37.068811,17.246167 C 37.068811,17.246167 37.088388,32 37.088388,32 L 22.160133,31.978069 C 22.160133,31.978069 26.997745,27.140456 26.997745,27.140456 C 18.528582,18.264221 13.291696,25.230495 11.500037,31.436501 z"
     style="fill:#404040;"/>
  </a>
 </g>
</svg>

<style type='text/css'>
<![CDATA[
[data-mouse-over-selected='false'] { opacity: 0.7; }
[data-mouse-over-selected='true']  { opacity: 1.0; }
]]>
</style>
<script type="application/ecmascript"><![CDATA[
document.addEventListener('DOMContentLoaded', (event) => {
  highlightEdges();
  highlightAdjacentNodes();
});
]]></script>
</svg>
