<?xml version="1.0" encoding="UTF-8" standalone="no"?>
<!DOCTYPE svg PUBLIC "-//W3C//DTD SVG 1.1//EN"
 "http://www.w3.org/Graphics/SVG/1.1/DTD/svg11.dtd">
<!-- Generated by graphviz version 7.1.0 (20230121.1956)
 -->
<!-- Title: log_level.hpp Pages: 1 -->
<svg width="294pt" height="252pt"
 viewBox="0.00 0.00 294.00 252.00" xmlns="http://www.w3.org/2000/svg" xmlns:xlink="http://www.w3.org/1999/xlink">
<g id="graph0" class="graph" transform="scale(1 1) rotate(0) translate(4 248)">
<title>log_level.hpp</title>
<polygon fill="white" stroke="none" points="-4,4 -4,-248 290,-248 290,4 -4,4"/>
<!-- Node1 -->
<g id="node1" class="node">
<title>Node1</title>
<g id="a_node1"><a xlink:title=" ">
<polygon fill="#bfbfbf" stroke="black" points="47,-224.5 47,-243.5 121,-243.5 121,-224.5 47,-224.5"/>
<text text-anchor="middle" x="84" y="-231.5" font-family="Helvetica,sans-Serif" font-size="10.00">log_level.hpp</text>
</a>
</g>
</g>
<!-- Node2 -->
<g id="node2" class="node">
<title>Node2</title>
<g id="a_node2"><a xlink:href="console__log__writer_8cpp.html" target="_top" xlink:title=" ">
<polygon fill="white" stroke="black" points="0,-0.5 0,-19.5 116,-19.5 116,-0.5 0,-0.5"/>
<text text-anchor="middle" x="58" y="-7.5" font-family="Helvetica,sans-Serif" font-size="10.00">console_log_writer.cpp</text>
</a>
</g>
</g>
<!-- Node1&#45;&gt;Node2 -->
<g id="edge1" class="edge">
<title>Node1&#45;&gt;Node2</title>
<path fill="none" stroke="midnightblue" d="M79.88,-213.56C75.73,-193.3 69.48,-160.56 66,-132 60.86,-89.79 58.85,-38.85 58.23,-19.25"/>
<polygon fill="midnightblue" stroke="midnightblue" points="76.42,-214.11 81.88,-223.19 83.27,-212.68 76.42,-214.11"/>
</g>
<!-- Node3 -->
<g id="node3" class="node">
<title>Node3</title>
<g id="a_node3"><a xlink:href="log__message_8hpp.html" target="_top" xlink:title=" ">
<polygon fill="white" stroke="black" points="126.5,-168.5 126.5,-187.5 219.5,-187.5 219.5,-168.5 126.5,-168.5"/>
<text text-anchor="middle" x="173" y="-175.5" font-family="Helvetica,sans-Serif" font-size="10.00">log_message.hpp</text>
</a>
</g>
</g>
<!-- Node1&#45;&gt;Node3 -->
<g id="edge2" class="edge">
<title>Node1&#45;&gt;Node3</title>
<path fill="none" stroke="midnightblue" d="M107.4,-218.8C123.88,-208.8 145.38,-195.76 159.19,-187.38"/>
<polygon fill="midnightblue" stroke="midnightblue" points="105.93,-215.6 99.2,-223.78 109.57,-221.58 105.93,-215.6"/>
</g>
<!-- Node4 -->
<g id="node4" class="node">
<title>Node4</title>
<g id="a_node4"><a xlink:href="log_8hpp.html" target="_top" xlink:title=" ">
<polygon fill="white" stroke="black" points="238,-56.5 238,-75.5 286,-75.5 286,-56.5 238,-56.5"/>
<text text-anchor="middle" x="262" y="-63.5" font-family="Helvetica,sans-Serif" font-size="10.00">log.hpp</text>
</a>
</g>
</g>
<!-- Node3&#45;&gt;Node4 -->
<g id="edge3" class="edge">
<title>Node3&#45;&gt;Node4</title>
<path fill="none" stroke="midnightblue" d="M228.17,-164.83C245.51,-158.13 262.77,-147.82 273,-132 284.43,-114.32 273.75,-88.47 266.83,-75.34"/>
<polygon fill="midnightblue" stroke="midnightblue" points="227.17,-161.48 218.87,-168.06 229.46,-168.09 227.17,-161.48"/>
</g>
<!-- Node7 -->
<g id="node7" class="node">
<title>Node7</title>
<g id="a_node7"><a xlink:href="log__message_8cpp.html" target="_top" xlink:title=" ">
<polygon fill="white" stroke="black" points="75.5,-112.5 75.5,-131.5 168.5,-131.5 168.5,-112.5 75.5,-112.5"/>
<text text-anchor="middle" x="122" y="-119.5" font-family="Helvetica,sans-Serif" font-size="10.00">log_message.cpp</text>
</a>
</g>
</g>
<!-- Node3&#45;&gt;Node7 -->
<g id="edge6" class="edge">
<title>Node3&#45;&gt;Node7</title>
<path fill="none" stroke="midnightblue" d="M157.36,-160.44C148.2,-150.74 137.05,-138.93 129.75,-131.2"/>
<polygon fill="midnightblue" stroke="midnightblue" points="154.58,-162.6 163.99,-167.46 159.67,-157.79 154.58,-162.6"/>
</g>
<!-- Node8 -->
<g id="node8" class="node">
<title>Node8</title>
<g id="a_node8"><a xlink:href="log__writer_8hpp.html" target="_top" xlink:title=" ">
<polygon fill="white" stroke="black" points="186.5,-112.5 186.5,-131.5 263.5,-131.5 263.5,-112.5 186.5,-112.5"/>
<text text-anchor="middle" x="225" y="-119.5" font-family="Helvetica,sans-Serif" font-size="10.00">log_writer.hpp</text>
</a>
</g>
</g>
<!-- Node3&#45;&gt;Node8 -->
<g id="edge7" class="edge">
<title>Node3&#45;&gt;Node8</title>
<path fill="none" stroke="midnightblue" d="M188.95,-160.44C198.28,-150.74 209.66,-138.93 217.1,-131.2"/>
<polygon fill="midnightblue" stroke="midnightblue" points="186.59,-157.84 182.17,-167.47 191.63,-162.7 186.59,-157.84"/>
</g>
<!-- Node5 -->
<g id="node5" class="node">
<title>Node5</title>
<g id="a_node5"><a xlink:href="core_8hpp.html" target="_top" xlink:title=" ">
<polygon fill="white" stroke="black" points="155,-0.5 155,-19.5 209,-19.5 209,-0.5 155,-0.5"/>
<text text-anchor="middle" x="182" y="-7.5" font-family="Helvetica,sans-Serif" font-size="10.00">core.hpp</text>
</a>
</g>
</g>
<!-- Node4&#45;&gt;Node5 -->
<g id="edge4" class="edge">
<title>Node4&#45;&gt;Node5</title>
<path fill="none" stroke="midnightblue" d="M240.12,-50.23C225.42,-40.31 206.59,-27.6 194.41,-19.38"/>
<polygon fill="midnightblue" stroke="midnightblue" points="238,-53.02 248.25,-55.72 241.92,-47.22 238,-53.02"/>
</g>
<!-- Node6 -->
<g id="node6" class="node">
<title>Node6</title>
<g id="a_node6"><a xlink:href="log_8cpp.html" target="_top" xlink:title=" ">
<polygon fill="white" stroke="black" points="238,-0.5 238,-19.5 286,-19.5 286,-0.5 238,-0.5"/>
<text text-anchor="middle" x="262" y="-7.5" font-family="Helvetica,sans-Serif" font-size="10.00">log.cpp</text>
</a>
</g>
</g>
<!-- Node4&#45;&gt;Node6 -->
<g id="edge5" class="edge">
<title>Node4&#45;&gt;Node6</title>
<path fill="none" stroke="midnightblue" d="M262,-45.1C262,-36.14 262,-26.06 262,-19.2"/>
<polygon fill="midnightblue" stroke="midnightblue" points="258.5,-45.05 262,-55.05 265.5,-45.05 258.5,-45.05"/>
</g>
<!-- Node8&#45;&gt;Node4 -->
<g id="edge11" class="edge">
<title>Node8&#45;&gt;Node4</title>
<path fill="none" stroke="midnightblue" d="M237.17,-103.24C243.65,-93.79 251.3,-82.62 256.38,-75.2"/>
<polygon fill="midnightblue" stroke="midnightblue" points="234.4,-101.09 231.64,-111.31 240.18,-105.04 234.4,-101.09"/>
</g>
<!-- Node9 -->
<g id="node9" class="node">
<title>Node9</title>
<g id="a_node9"><a xlink:href="console__log__writer_8hpp.html" target="_top" xlink:title=" ">
<polygon fill="white" stroke="black" points="104,-56.5 104,-75.5 220,-75.5 220,-56.5 104,-56.5"/>
<text text-anchor="middle" x="162" y="-63.5" font-family="Helvetica,sans-Serif" font-size="10.00">console_log_writer.hpp</text>
</a>
</g>
</g>
<!-- Node8&#45;&gt;Node9 -->
<g id="edge8" class="edge">
<title>Node8&#45;&gt;Node9</title>
<path fill="none" stroke="midnightblue" d="M206.71,-105.32C195.22,-95.47 180.86,-83.17 171.57,-75.2"/>
<polygon fill="midnightblue" stroke="midnightblue" points="204.14,-107.73 214.01,-111.58 208.69,-102.41 204.14,-107.73"/>
</g>
<!-- Node9&#45;&gt;Node2 -->
<g id="edge9" class="edge">
<title>Node9&#45;&gt;Node2</title>
<path fill="none" stroke="midnightblue" d="M135.74,-51.36C116.35,-41.3 90.58,-27.92 74.14,-19.38"/>
<polygon fill="midnightblue" stroke="midnightblue" points="133.92,-54.36 144.41,-55.87 137.14,-48.15 133.92,-54.36"/>
</g>
<!-- Node9&#45;&gt;Node5 -->
<g id="edge10" class="edge">
<title>Node9&#45;&gt;Node5</title>
<path fill="none" stroke="midnightblue" d="M169.03,-46.02C172.43,-36.84 176.33,-26.3 178.96,-19.2"/>
<polygon fill="midnightblue" stroke="midnightblue" points="165.84,-44.55 165.65,-55.14 172.41,-46.98 165.84,-44.55"/>
</g>
</g>
</svg>
