<?xml version="1.0" encoding="UTF-8" standalone="no"?>
<!DOCTYPE svg PUBLIC "-//W3C//DTD SVG 1.1//EN"
 "http://www.w3.org/Graphics/SVG/1.1/DTD/svg11.dtd">
<!-- Generated by graphviz version 9.0.0 (20230911.1827)
 -->
<!-- Title: log.hpp Pages: 1 -->
<svg width="258pt" height="193pt"
 viewBox="0.00 0.00 258.38 193.00" xmlns="http://www.w3.org/2000/svg" xmlns:xlink="http://www.w3.org/1999/xlink">
<g id="graph0" class="graph" transform="scale(1 1) rotate(0) translate(4 189)">
<title>log.hpp</title>
<!-- Node1 -->
<g id="Node000001" class="node">
<title>Node1</title>
<g id="a_Node000001"><a xlink:title=" ">
<polygon fill="#999999" stroke="#666666" points="111.88,-185 64.38,-185 64.38,-165.75 111.88,-165.75 111.88,-185"/>
<text text-anchor="middle" x="88.12" y="-171.5" font-family="Helvetica,sans-Serif" font-size="10.00">log.hpp</text>
</a>
</g>
</g>
<!-- Node2 -->
<g id="Node000002" class="node">
<title>Node2</title>
<g id="a_Node000002"><a xlink:title=" ">
<polygon fill="#e0e0e0" stroke="#999999" points="60.25,-129.75 0,-129.75 0,-110.5 60.25,-110.5 60.25,-129.75"/>
<text text-anchor="middle" x="30.12" y="-116.25" font-family="Helvetica,sans-Serif" font-size="10.00">fmt/core.h</text>
</a>
</g>
</g>
<!-- Node1&#45;&gt;Node2 -->
<g id="edge1_Node000001_Node000002" class="edge">
<title>Node1&#45;&gt;Node2</title>
<g id="a_edge1_Node000001_Node000002"><a xlink:title=" ">
<path fill="none" stroke="#63b8ff" d="M78.29,-165.34C70.07,-157.8 58.14,-146.85 48.21,-137.73"/>
<polygon fill="#63b8ff" stroke="#63b8ff" points="50.67,-135.23 40.93,-131.05 45.93,-140.39 50.67,-135.23"/>
</a>
</g>
</g>
<!-- Node3 -->
<g id="Node000003" class="node">
<title>Node3</title>
<g id="a_Node000003"><a xlink:href="log__message_8hpp.html" target="_top" xlink:title=" ">
<polygon fill="white" stroke="#666666" points="210.62,-74.5 59.62,-74.5 59.62,-55.25 210.62,-55.25 210.62,-74.5"/>
<text text-anchor="middle" x="135.12" y="-61" font-family="Helvetica,sans-Serif" font-size="10.00">liger/core/log/log_message.hpp</text>
</a>
</g>
</g>
<!-- Node1&#45;&gt;Node3 -->
<g id="edge2_Node000001_Node000003" class="edge">
<title>Node1&#45;&gt;Node3</title>
<g id="a_edge2_Node000001_Node000003"><a xlink:title=" ">
<path fill="none" stroke="#63b8ff" d="M89.98,-165.42C92.77,-152.82 98.64,-129.26 107.12,-110.5 111.27,-101.34 117.01,-91.83 122.22,-83.95"/>
<polygon fill="#63b8ff" stroke="#63b8ff" points="124.94,-86.17 127.72,-75.95 119.17,-82.2 124.94,-86.17"/>
</a>
</g>
</g>
<!-- Node7 -->
<g id="Node000007" class="node">
<title>Node7</title>
<g id="a_Node000007"><a xlink:href="log__writer_8hpp.html" target="_top" xlink:title=" ">
<polygon fill="white" stroke="#666666" points="250.38,-129.75 115.88,-129.75 115.88,-110.5 250.38,-110.5 250.38,-129.75"/>
<text text-anchor="middle" x="183.12" y="-116.25" font-family="Helvetica,sans-Serif" font-size="10.00">liger/core/log/log_writer.hpp</text>
</a>
</g>
</g>
<!-- Node1&#45;&gt;Node7 -->
<g id="edge6_Node000001_Node000007" class="edge">
<title>Node1&#45;&gt;Node7</title>
<g id="a_edge6_Node000001_Node000007"><a xlink:title=" ">
<path fill="none" stroke="#63b8ff" d="M104.24,-165.34C118.71,-157.23 140.2,-145.18 157.11,-135.71"/>
<polygon fill="#63b8ff" stroke="#63b8ff" points="158.6,-138.89 165.61,-130.94 155.18,-132.78 158.6,-138.89"/>
</a>
</g>
</g>
<!-- Node4 -->
<g id="Node000004" class="node">
<title>Node4</title>
<g id="a_Node000004"><a xlink:title=" ">
<polygon fill="#e0e0e0" stroke="#999999" points="96.75,-19.25 51.5,-19.25 51.5,0 96.75,0 96.75,-19.25"/>
<text text-anchor="middle" x="74.12" y="-5.75" font-family="Helvetica,sans-Serif" font-size="10.00">cstdint</text>
</a>
</g>
</g>
<!-- Node3&#45;&gt;Node4 -->
<g id="edge3_Node000003_Node000004" class="edge">
<title>Node3&#45;&gt;Node4</title>
<g id="a_edge3_Node000003_Node000004"><a xlink:title=" ">
<path fill="none" stroke="#63b8ff" d="M124.78,-54.84C116.05,-47.22 103.34,-36.12 92.83,-26.95"/>
<polygon fill="#63b8ff" stroke="#63b8ff" points="95.3,-24.46 85.46,-20.52 90.69,-29.73 95.3,-24.46"/>
</a>
</g>
</g>
<!-- Node5 -->
<g id="Node000005" class="node">
<title>Node5</title>
<g id="a_Node000005"><a xlink:title=" ">
<polygon fill="#e0e0e0" stroke="#999999" points="155.12,-19.25 115.12,-19.25 115.12,0 155.12,0 155.12,-19.25"/>
<text text-anchor="middle" x="135.12" y="-5.75" font-family="Helvetica,sans-Serif" font-size="10.00">string</text>
</a>
</g>
</g>
<!-- Node3&#45;&gt;Node5 -->
<g id="edge4_Node000003_Node000005" class="edge">
<title>Node3&#45;&gt;Node5</title>
<g id="a_edge4_Node000003_Node000005"><a xlink:title=" ">
<path fill="none" stroke="#63b8ff" d="M135.12,-55.08C135.12,-48.57 135.12,-39.42 135.12,-31.12"/>
<polygon fill="#63b8ff" stroke="#63b8ff" points="138.63,-31.12 135.13,-21.12 131.63,-31.12 138.63,-31.12"/>
</a>
</g>
</g>
<!-- Node6 -->
<g id="Node000006" class="node">
<title>Node6</title>
<g id="a_Node000006"><a xlink:title=" ">
<polygon fill="#e0e0e0" stroke="#999999" points="238.88,-19.25 173.38,-19.25 173.38,0 238.88,0 238.88,-19.25"/>
<text text-anchor="middle" x="206.12" y="-5.75" font-family="Helvetica,sans-Serif" font-size="10.00">string_view</text>
</a>
</g>
</g>
<!-- Node3&#45;&gt;Node6 -->
<g id="edge5_Node000003_Node000006" class="edge">
<title>Node3&#45;&gt;Node6</title>
<g id="a_edge5_Node000003_Node000006"><a xlink:title=" ">
<path fill="none" stroke="#63b8ff" d="M147.17,-54.84C157.53,-47.07 172.73,-35.67 185.09,-26.4"/>
<polygon fill="#63b8ff" stroke="#63b8ff" points="187.15,-29.23 193.05,-20.43 182.95,-23.63 187.15,-29.23"/>
</a>
</g>
</g>
<!-- Node7&#45;&gt;Node3 -->
<g id="edge7_Node000007_Node000003" class="edge">
<title>Node7&#45;&gt;Node3</title>
<g id="a_edge7_Node000007_Node000003"><a xlink:title=" ">
<path fill="none" stroke="#63b8ff" d="M175.2,-110.33C168.57,-102.98 158.91,-92.26 150.74,-83.19"/>
<polygon fill="#63b8ff" stroke="#63b8ff" points="153.53,-81.07 144.24,-75.98 148.33,-85.75 153.53,-81.07"/>
</a>
</g>
</g>
</g>
</svg>
