<?xml version="1.0" encoding="UTF-8" standalone="no"?>
<!DOCTYPE svg PUBLIC "-//W3C//DTD SVG 1.1//EN"
 "http://www.w3.org/Graphics/SVG/1.1/DTD/svg11.dtd">
<!-- Generated by graphviz version 7.1.0 (20230121.1956)
 -->
<!-- Title: log_level.hpp Pages: 1 -->
<svg width="404pt" height="476pt"
 viewBox="0.00 0.00 403.50 476.00" xmlns="http://www.w3.org/2000/svg" xmlns:xlink="http://www.w3.org/1999/xlink">
<g id="graph0" class="graph" transform="scale(1 1) rotate(0) translate(4 472)">
<title>log_level.hpp</title>
<polygon fill="white" stroke="none" points="-4,4 -4,-472 399.5,-472 399.5,4 -4,4"/>
<!-- Node1 -->
<g id="node1" class="node">
<title>Node1</title>
<g id="a_node1"><a xlink:title=" ">
<polygon fill="#bfbfbf" stroke="black" points="33,-448.5 33,-467.5 107,-467.5 107,-448.5 33,-448.5"/>
<text text-anchor="middle" x="70" y="-455.5" font-family="Helvetica,sans-Serif" font-size="10.00">log_level.hpp</text>
</a>
</g>
</g>
<!-- Node2 -->
<g id="node2" class="node">
<title>Node2</title>
<g id="a_node2"><a xlink:href="console__log__writer_8cpp.html" target="_top" xlink:title=" ">
<polygon fill="white" stroke="black" points="0,-224.5 0,-243.5 116,-243.5 116,-224.5 0,-224.5"/>
<text text-anchor="middle" x="58" y="-231.5" font-family="Helvetica,sans-Serif" font-size="10.00">console_log_writer.cpp</text>
</a>
</g>
</g>
<!-- Node1&#45;&gt;Node2 -->
<g id="edge1" class="edge">
<title>Node1&#45;&gt;Node2</title>
<path fill="none" stroke="midnightblue" d="M65.49,-437.6C61.04,-417.37 54.53,-384.66 52,-356 48.26,-313.68 54.16,-262.81 56.81,-243.23"/>
<polygon fill="midnightblue" stroke="midnightblue" points="62.05,-438.23 67.67,-447.21 68.87,-436.68 62.05,-438.23"/>
</g>
<!-- Node3 -->
<g id="node3" class="node">
<title>Node3</title>
<g id="a_node3"><a xlink:href="log__message_8hpp.html" target="_top" xlink:title=" ">
<polygon fill="white" stroke="black" points="112.5,-392.5 112.5,-411.5 205.5,-411.5 205.5,-392.5 112.5,-392.5"/>
<text text-anchor="middle" x="159" y="-399.5" font-family="Helvetica,sans-Serif" font-size="10.00">log_message.hpp</text>
</a>
</g>
</g>
<!-- Node1&#45;&gt;Node3 -->
<g id="edge2" class="edge">
<title>Node1&#45;&gt;Node3</title>
<path fill="none" stroke="midnightblue" d="M93.4,-442.8C109.88,-432.8 131.38,-419.76 145.19,-411.38"/>
<polygon fill="midnightblue" stroke="midnightblue" points="91.93,-439.6 85.2,-447.78 95.57,-445.58 91.93,-439.6"/>
</g>
<!-- Node4 -->
<g id="node4" class="node">
<title>Node4</title>
<g id="a_node4"><a xlink:href="log_8hpp.html" target="_top" xlink:title=" ">
<polygon fill="white" stroke="black" points="247,-280.5 247,-299.5 295,-299.5 295,-280.5 247,-280.5"/>
<text text-anchor="middle" x="271" y="-287.5" font-family="Helvetica,sans-Serif" font-size="10.00">log.hpp</text>
</a>
</g>
</g>
<!-- Node3&#45;&gt;Node4 -->
<g id="edge3" class="edge">
<title>Node3&#45;&gt;Node4</title>
<path fill="none" stroke="midnightblue" d="M209.54,-388.88C227.68,-382.09 246.68,-371.7 259,-356 272.17,-339.21 272.54,-312.5 271.75,-299.16"/>
<polygon fill="midnightblue" stroke="midnightblue" points="208.49,-385.55 200.15,-392.08 210.74,-392.17 208.49,-385.55"/>
</g>
<!-- Node12 -->
<g id="node12" class="node">
<title>Node12</title>
<g id="a_node12"><a xlink:href="log__message_8cpp.html" target="_top" xlink:title=" ">
<polygon fill="white" stroke="black" points="61.5,-336.5 61.5,-355.5 154.5,-355.5 154.5,-336.5 61.5,-336.5"/>
<text text-anchor="middle" x="108" y="-343.5" font-family="Helvetica,sans-Serif" font-size="10.00">log_message.cpp</text>
</a>
</g>
</g>
<!-- Node3&#45;&gt;Node12 -->
<g id="edge12" class="edge">
<title>Node3&#45;&gt;Node12</title>
<path fill="none" stroke="midnightblue" d="M143.36,-384.44C134.2,-374.74 123.05,-362.93 115.75,-355.2"/>
<polygon fill="midnightblue" stroke="midnightblue" points="140.58,-386.6 149.99,-391.46 145.67,-381.79 140.58,-386.6"/>
</g>
<!-- Node13 -->
<g id="node13" class="node">
<title>Node13</title>
<g id="a_node13"><a xlink:href="log__writer_8hpp.html" target="_top" xlink:title=" ">
<polygon fill="white" stroke="black" points="172.5,-336.5 172.5,-355.5 249.5,-355.5 249.5,-336.5 172.5,-336.5"/>
<text text-anchor="middle" x="211" y="-343.5" font-family="Helvetica,sans-Serif" font-size="10.00">log_writer.hpp</text>
</a>
</g>
</g>
<!-- Node3&#45;&gt;Node13 -->
<g id="edge13" class="edge">
<title>Node3&#45;&gt;Node13</title>
<path fill="none" stroke="midnightblue" d="M174.95,-384.44C184.28,-374.74 195.66,-362.93 203.1,-355.2"/>
<polygon fill="midnightblue" stroke="midnightblue" points="172.59,-381.84 168.17,-391.47 177.63,-386.7 172.59,-381.84"/>
</g>
<!-- Node5 -->
<g id="node5" class="node">
<title>Node5</title>
<g id="a_node5"><a xlink:href="default__log_8hpp.html" target="_top" xlink:title=" ">
<polygon fill="white" stroke="black" points="223.5,-224.5 223.5,-243.5 306.5,-243.5 306.5,-224.5 223.5,-224.5"/>
<text text-anchor="middle" x="265" y="-231.5" font-family="Helvetica,sans-Serif" font-size="10.00">default_log.hpp</text>
</a>
</g>
</g>
<!-- Node4&#45;&gt;Node5 -->
<g id="edge4" class="edge">
<title>Node4&#45;&gt;Node5</title>
<path fill="none" stroke="midnightblue" d="M268.82,-269.41C267.82,-260.38 266.68,-250.14 265.91,-243.2"/>
<polygon fill="midnightblue" stroke="midnightblue" points="265.31,-269.51 269.9,-279.06 272.27,-268.73 265.31,-269.51"/>
</g>
<!-- Node11 -->
<g id="node11" class="node">
<title>Node11</title>
<g id="a_node11"><a xlink:href="log_8cpp.html" target="_top" xlink:title=" ">
<polygon fill="white" stroke="black" points="325,-224.5 325,-243.5 373,-243.5 373,-224.5 325,-224.5"/>
<text text-anchor="middle" x="349" y="-231.5" font-family="Helvetica,sans-Serif" font-size="10.00">log.cpp</text>
</a>
</g>
</g>
<!-- Node4&#45;&gt;Node11 -->
<g id="edge11" class="edge">
<title>Node4&#45;&gt;Node11</title>
<path fill="none" stroke="midnightblue" d="M292.33,-274.23C306.66,-264.31 325.02,-251.6 336.9,-243.38"/>
<polygon fill="midnightblue" stroke="midnightblue" points="290.66,-271.13 284.43,-279.7 294.65,-276.89 290.66,-271.13"/>
</g>
<!-- Node6 -->
<g id="node6" class="node">
<title>Node6</title>
<g id="a_node6"><a xlink:href="callback_8hpp.html" target="_top" xlink:title=" ">
<polygon fill="white" stroke="black" points="324.5,-168.5 324.5,-187.5 395.5,-187.5 395.5,-168.5 324.5,-168.5"/>
<text text-anchor="middle" x="360" y="-175.5" font-family="Helvetica,sans-Serif" font-size="10.00">callback.hpp</text>
</a>
</g>
</g>
<!-- Node5&#45;&gt;Node6 -->
<g id="edge5" class="edge">
<title>Node5&#45;&gt;Node6</title>
<path fill="none" stroke="midnightblue" d="M289.49,-219.08C307.14,-209.05 330.38,-195.84 345.26,-187.38"/>
<polygon fill="midnightblue" stroke="midnightblue" points="288.12,-215.83 281.16,-223.81 291.58,-221.92 288.12,-215.83"/>
</g>
<!-- Node9 -->
<g id="node9" class="node">
<title>Node9</title>
<g id="a_node9"><a xlink:href="core_8hpp.html" target="_top" xlink:title=" ">
<polygon fill="white" stroke="black" points="168,-0.5 168,-19.5 222,-19.5 222,-0.5 168,-0.5"/>
<text text-anchor="middle" x="195" y="-7.5" font-family="Helvetica,sans-Serif" font-size="10.00">core.hpp</text>
</a>
</g>
</g>
<!-- Node5&#45;&gt;Node9 -->
<g id="edge9" class="edge">
<title>Node5&#45;&gt;Node9</title>
<path fill="none" stroke="midnightblue" d="M241.36,-218.1C231.2,-210.4 220.25,-200.08 214,-188 183.75,-129.53 190.69,-45.82 193.87,-19.35"/>
<polygon fill="midnightblue" stroke="midnightblue" points="239.24,-220.89 249.43,-223.78 243.27,-215.16 239.24,-220.89"/>
</g>
<!-- Node10 -->
<g id="node10" class="node">
<title>Node10</title>
<g id="a_node10"><a xlink:href="default__log_8cpp.html" target="_top" xlink:title=" ">
<polygon fill="white" stroke="black" points="223.5,-168.5 223.5,-187.5 306.5,-187.5 306.5,-168.5 223.5,-168.5"/>
<text text-anchor="middle" x="265" y="-175.5" font-family="Helvetica,sans-Serif" font-size="10.00">default_log.cpp</text>
</a>
</g>
</g>
<!-- Node5&#45;&gt;Node10 -->
<g id="edge10" class="edge">
<title>Node5&#45;&gt;Node10</title>
<path fill="none" stroke="midnightblue" d="M265,-213.1C265,-204.14 265,-194.06 265,-187.2"/>
<polygon fill="midnightblue" stroke="midnightblue" points="261.5,-213.05 265,-223.05 268.5,-213.05 261.5,-213.05"/>
</g>
<!-- Node7 -->
<g id="node7" class="node">
<title>Node7</title>
<g id="a_node7"><a xlink:href="event__sink_8hpp.html" target="_top" xlink:title=" ">
<polygon fill="white" stroke="black" points="297.5,-112.5 297.5,-131.5 380.5,-131.5 380.5,-112.5 297.5,-112.5"/>
<text text-anchor="middle" x="339" y="-119.5" font-family="Helvetica,sans-Serif" font-size="10.00">event_sink.hpp</text>
</a>
</g>
</g>
<!-- Node6&#45;&gt;Node7 -->
<g id="edge6" class="edge">
<title>Node6&#45;&gt;Node7</title>
<path fill="none" stroke="midnightblue" d="M352.62,-158.02C349.05,-148.84 344.95,-138.3 342.19,-131.2"/>
<polygon fill="midnightblue" stroke="midnightblue" points="349.28,-159.1 356.17,-167.15 355.81,-156.56 349.28,-159.1"/>
</g>
<!-- Node8 -->
<g id="node8" class="node">
<title>Node8</title>
<g id="a_node8"><a xlink:href="event__dispatcher_8hpp.html" target="_top" xlink:title=" ">
<polygon fill="white" stroke="black" points="264.5,-56.5 264.5,-75.5 373.5,-75.5 373.5,-56.5 264.5,-56.5"/>
<text text-anchor="middle" x="319" y="-63.5" font-family="Helvetica,sans-Serif" font-size="10.00">event_dispatcher.hpp</text>
</a>
</g>
</g>
<!-- Node7&#45;&gt;Node8 -->
<g id="edge7" class="edge">
<title>Node7&#45;&gt;Node8</title>
<path fill="none" stroke="midnightblue" d="M331.97,-102.02C328.57,-92.84 324.67,-82.3 322.04,-75.2"/>
<polygon fill="midnightblue" stroke="midnightblue" points="328.59,-102.98 335.35,-111.14 335.16,-100.55 328.59,-102.98"/>
</g>
<!-- Node8&#45;&gt;Node9 -->
<g id="edge8" class="edge">
<title>Node8&#45;&gt;Node9</title>
<path fill="none" stroke="midnightblue" d="M289.28,-52.06C266,-41.92 234.3,-28.11 214.24,-19.38"/>
<polygon fill="midnightblue" stroke="midnightblue" points="287.67,-55.17 298.24,-55.96 290.47,-48.76 287.67,-55.17"/>
</g>
<!-- Node13&#45;&gt;Node4 -->
<g id="edge17" class="edge">
<title>Node13&#45;&gt;Node4</title>
<path fill="none" stroke="midnightblue" d="M228.75,-329.03C239.64,-319.23 253.12,-307.09 261.89,-299.2"/>
<polygon fill="midnightblue" stroke="midnightblue" points="226.59,-326.26 221.5,-335.55 231.27,-331.46 226.59,-326.26"/>
</g>
<!-- Node14 -->
<g id="node14" class="node">
<title>Node14</title>
<g id="a_node14"><a xlink:href="console__log__writer_8hpp.html" target="_top" xlink:title=" ">
<polygon fill="white" stroke="black" points="99,-280.5 99,-299.5 215,-299.5 215,-280.5 99,-280.5"/>
<text text-anchor="middle" x="157" y="-287.5" font-family="Helvetica,sans-Serif" font-size="10.00">console_log_writer.hpp</text>
</a>
</g>
</g>
<!-- Node13&#45;&gt;Node14 -->
<g id="edge14" class="edge">
<title>Node13&#45;&gt;Node14</title>
<path fill="none" stroke="midnightblue" d="M194.44,-328.44C184.74,-318.74 172.93,-306.93 165.2,-299.2"/>
<polygon fill="midnightblue" stroke="midnightblue" points="191.95,-330.9 201.49,-335.49 196.9,-325.95 191.95,-330.9"/>
</g>
<!-- Node14&#45;&gt;Node2 -->
<g id="edge15" class="edge">
<title>Node14&#45;&gt;Node2</title>
<path fill="none" stroke="midnightblue" d="M131.48,-275.08C113.09,-265.05 88.87,-251.84 73.36,-243.38"/>
<polygon fill="midnightblue" stroke="midnightblue" points="129.75,-278.12 140.2,-279.84 133.1,-271.98 129.75,-278.12"/>
</g>
<!-- Node14&#45;&gt;Node9 -->
<g id="edge16" class="edge">
<title>Node14&#45;&gt;Node9</title>
<path fill="none" stroke="midnightblue" d="M157,-269.36C157,-247.35 157,-210.62 157,-179 157,-179 157,-179 157,-121 157,-81.2 179.5,-37.51 189.88,-19.49"/>
<polygon fill="midnightblue" stroke="midnightblue" points="153.5,-269.21 157,-279.21 160.5,-269.21 153.5,-269.21"/>
</g>
</g>
</svg>
