<?xml version="1.0" encoding="UTF-8" standalone="no"?>
<!DOCTYPE svg PUBLIC "-//W3C//DTD SVG 1.1//EN"
 "http://www.w3.org/Graphics/SVG/1.1/DTD/svg11.dtd">
<!-- Generated by graphviz version 9.0.0 (20230911.1827)
 -->
<!-- Title: log_writer.hpp Pages: 1 -->
<svg width="610pt" height="414pt"
 viewBox="0.00 0.00 609.62 414.00" xmlns="http://www.w3.org/2000/svg" xmlns:xlink="http://www.w3.org/1999/xlink">
<g id="graph0" class="graph" transform="scale(1 1) rotate(0) translate(4 410)">
<title>log_writer.hpp</title>
<!-- Node1 -->
<g id="Node000001" class="node">
<title>Node1</title>
<g id="a_Node000001"><a xlink:title=" ">
<polygon fill="#999999" stroke="#666666" points="230.5,-406 154.5,-406 154.5,-386.75 230.5,-386.75 230.5,-406"/>
<text text-anchor="middle" x="192.5" y="-392.5" font-family="Helvetica,sans-Serif" font-size="10.00">log_writer.hpp</text>
</a>
</g>
</g>
<!-- Node2 -->
<g id="Node000002" class="node">
<title>Node2</title>
<g id="a_Node000002"><a xlink:href="console__log__writer_8hpp.html" target="_top" xlink:title=" ">
<polygon fill="white" stroke="#666666" points="201,-350.75 86,-350.75 86,-331.5 201,-331.5 201,-350.75"/>
<text text-anchor="middle" x="143.5" y="-337.25" font-family="Helvetica,sans-Serif" font-size="10.00">console_log_writer.hpp</text>
</a>
</g>
</g>
<!-- Node1&#45;&gt;Node2 -->
<g id="edge1_Node000001_Node000002" class="edge">
<title>Node1&#45;&gt;Node2</title>
<g id="a_edge1_Node000001_Node000002"><a xlink:title=" ">
<path fill="none" stroke="#63b8ff" d="M176.78,-378.29C168.46,-369.25 158.59,-358.52 151.77,-351.11"/>
<polygon fill="#63b8ff" stroke="#63b8ff" points="174.04,-380.48 183.38,-385.47 179.19,-375.74 174.04,-380.48"/>
</a>
</g>
</g>
<!-- Node5 -->
<g id="Node000005" class="node">
<title>Node5</title>
<g id="a_Node000005"><a xlink:href="log_8hpp.html" target="_top" xlink:title=" ">
<polygon fill="white" stroke="#666666" points="315.25,-350.75 267.75,-350.75 267.75,-331.5 315.25,-331.5 315.25,-350.75"/>
<text text-anchor="middle" x="291.5" y="-337.25" font-family="Helvetica,sans-Serif" font-size="10.00">log.hpp</text>
</a>
</g>
</g>
<!-- Node1&#45;&gt;Node5 -->
<g id="edge4_Node000001_Node000005" class="edge">
<title>Node1&#45;&gt;Node5</title>
<g id="a_edge4_Node000001_Node000005"><a xlink:title=" ">
<path fill="none" stroke="#63b8ff" d="M219.02,-381.11C236.69,-371.61 259.38,-359.4 274.62,-351.2"/>
<polygon fill="#63b8ff" stroke="#63b8ff" points="217.78,-377.81 210.63,-385.62 221.09,-383.97 217.78,-377.81"/>
</a>
</g>
</g>
<!-- Node3 -->
<g id="Node000003" class="node">
<title>Node3</title>
<g id="a_Node000003"><a xlink:href="console__log__writer_8cpp.html" target="_top" xlink:title=" ">
<polygon fill="white" stroke="#666666" points="115,-295.5 0,-295.5 0,-276.25 115,-276.25 115,-295.5"/>
<text text-anchor="middle" x="57.5" y="-282" font-family="Helvetica,sans-Serif" font-size="10.00">console_log_writer.cpp</text>
</a>
</g>
</g>
<!-- Node2&#45;&gt;Node3 -->
<g id="edge2_Node000002_Node000003" class="edge">
<title>Node2&#45;&gt;Node3</title>
<g id="a_edge2_Node000002_Node000003"><a xlink:title=" ">
<path fill="none" stroke="#63b8ff" d="M119.16,-325.05C104.01,-315.67 85.03,-303.92 72.16,-295.95"/>
<polygon fill="#63b8ff" stroke="#63b8ff" points="117.28,-328.01 127.62,-330.3 120.96,-322.05 117.28,-328.01"/>
</a>
</g>
</g>
<!-- Node4 -->
<g id="Node000004" class="node">
<title>Node4</title>
<g id="a_Node000004"><a xlink:href="default__log_8cpp.html" target="_top" xlink:title=" ">
<polygon fill="white" stroke="#666666" points="134.5,-240.25 52.5,-240.25 52.5,-221 134.5,-221 134.5,-240.25"/>
<text text-anchor="middle" x="93.5" y="-226.75" font-family="Helvetica,sans-Serif" font-size="10.00">default_log.cpp</text>
</a>
</g>
</g>
<!-- Node2&#45;&gt;Node4 -->
<g id="edge3_Node000002_Node000004" class="edge">
<title>Node2&#45;&gt;Node4</title>
<g id="a_edge3_Node000002_Node000004"><a xlink:title=" ">
<path fill="none" stroke="#63b8ff" d="M138.86,-320.25C135.47,-307.35 130.28,-290.38 123.5,-276.25 117.2,-263.12 107.44,-249.42 100.77,-240.72"/>
<polygon fill="#63b8ff" stroke="#63b8ff" points="135.39,-320.81 141.19,-329.67 142.19,-319.12 135.39,-320.81"/>
</a>
</g>
</g>
<!-- Node6 -->
<g id="Node000006" class="node">
<title>Node6</title>
<g id="a_Node000006"><a xlink:href="default__log_8hpp.html" target="_top" xlink:title=" ">
<polygon fill="white" stroke="#666666" points="332.5,-295.5 250.5,-295.5 250.5,-276.25 332.5,-276.25 332.5,-295.5"/>
<text text-anchor="middle" x="291.5" y="-282" font-family="Helvetica,sans-Serif" font-size="10.00">default_log.hpp</text>
</a>
</g>
</g>
<!-- Node5&#45;&gt;Node6 -->
<g id="edge5_Node000005_Node000006" class="edge">
<title>Node5&#45;&gt;Node6</title>
<g id="a_edge5_Node000005_Node000006"><a xlink:title=" ">
<path fill="none" stroke="#63b8ff" d="M291.5,-319.88C291.5,-311.59 291.5,-302.42 291.5,-295.86"/>
<polygon fill="#63b8ff" stroke="#63b8ff" points="288,-319.82 291.5,-329.82 295,-319.82 288,-319.82"/>
</a>
</g>
</g>
<!-- Node17 -->
<g id="Node000017" class="node">
<title>Node17</title>
<g id="a_Node000017"><a xlink:href="log_8cpp.html" target="_top" xlink:title=" ">
<polygon fill="white" stroke="#666666" points="398.25,-295.5 350.75,-295.5 350.75,-276.25 398.25,-276.25 398.25,-295.5"/>
<text text-anchor="middle" x="374.5" y="-282" font-family="Helvetica,sans-Serif" font-size="10.00">log.cpp</text>
</a>
</g>
</g>
<!-- Node5&#45;&gt;Node17 -->
<g id="edge17_Node000005_Node000017" class="edge">
<title>Node5&#45;&gt;Node17</title>
<g id="a_edge17_Node000005_Node000017"><a xlink:title=" ">
<path fill="none" stroke="#63b8ff" d="M314.99,-325.05C329.61,-315.67 347.93,-303.92 360.35,-295.95"/>
<polygon fill="#63b8ff" stroke="#63b8ff" points="313.38,-321.93 306.85,-330.27 317.16,-327.82 313.38,-321.93"/>
</a>
</g>
</g>
<!-- Node6&#45;&gt;Node4 -->
<g id="edge11_Node000006_Node000004" class="edge">
<title>Node6&#45;&gt;Node4</title>
<g id="a_edge11_Node000006_Node000004"><a xlink:title=" ">
<path fill="none" stroke="#63b8ff" d="M247.14,-272.95C210.86,-263.19 160.31,-249.59 127.25,-240.7"/>
<polygon fill="#63b8ff" stroke="#63b8ff" points="245.88,-276.23 256.45,-275.45 247.7,-269.47 245.88,-276.23"/>
</a>
</g>
</g>
<!-- Node7 -->
<g id="Node000007" class="node">
<title>Node7</title>
<g id="a_Node000007"><a xlink:href="callback_8hpp.html" target="_top" xlink:title=" ">
<polygon fill="white" stroke="#666666" points="222.88,-240.25 152.12,-240.25 152.12,-221 222.88,-221 222.88,-240.25"/>
<text text-anchor="middle" x="187.5" y="-226.75" font-family="Helvetica,sans-Serif" font-size="10.00">callback.hpp</text>
</a>
</g>
</g>
<!-- Node6&#45;&gt;Node7 -->
<g id="edge6_Node000006_Node000007" class="edge">
<title>Node6&#45;&gt;Node7</title>
<g id="a_edge6_Node000006_Node000007"><a xlink:title=" ">
<path fill="none" stroke="#63b8ff" d="M263.64,-270.61C245.08,-261.11 221.24,-248.9 205.23,-240.7"/>
<polygon fill="#63b8ff" stroke="#63b8ff" points="262.01,-273.71 272.51,-275.15 265.2,-267.48 262.01,-273.71"/>
</a>
</g>
</g>
<!-- Node12 -->
<g id="Node000012" class="node">
<title>Node12</title>
<g id="a_Node000012"><a xlink:href="first__draft_2shader__module_8hpp.html" target="_top" xlink:title=" ">
<polygon fill="white" stroke="#666666" points="341.88,-240.25 241.12,-240.25 241.12,-221 341.88,-221 341.88,-240.25"/>
<text text-anchor="middle" x="291.5" y="-226.75" font-family="Helvetica,sans-Serif" font-size="10.00">shader_module.hpp</text>
</a>
</g>
</g>
<!-- Node6&#45;&gt;Node12 -->
<g id="edge12_Node000006_Node000012" class="edge">
<title>Node6&#45;&gt;Node12</title>
<g id="a_edge12_Node000006_Node000012"><a xlink:title=" ">
<path fill="none" stroke="#63b8ff" d="M291.5,-264.63C291.5,-256.34 291.5,-247.17 291.5,-240.61"/>
<polygon fill="#63b8ff" stroke="#63b8ff" points="288,-264.57 291.5,-274.57 295,-264.57 288,-264.57"/>
</a>
</g>
</g>
<!-- Node13 -->
<g id="Node000013" class="node">
<title>Node13</title>
<g id="a_Node000013"><a xlink:href="time_8cpp.html" target="_top" xlink:title=" ">
<polygon fill="white" stroke="#666666" points="413.25,-240.25 359.75,-240.25 359.75,-221 413.25,-221 413.25,-240.25"/>
<text text-anchor="middle" x="386.5" y="-226.75" font-family="Helvetica,sans-Serif" font-size="10.00">time.cpp</text>
</a>
</g>
</g>
<!-- Node6&#45;&gt;Node13 -->
<g id="edge13_Node000006_Node000013" class="edge">
<title>Node6&#45;&gt;Node13</title>
<g id="a_edge13_Node000006_Node000013"><a xlink:title=" ">
<path fill="none" stroke="#63b8ff" d="M317.43,-270.34C334.31,-260.88 355.81,-248.83 370.31,-240.7"/>
<polygon fill="#63b8ff" stroke="#63b8ff" points="315.95,-267.16 308.94,-275.1 319.37,-273.27 315.95,-267.16"/>
</a>
</g>
</g>
<!-- Node14 -->
<g id="Node000014" class="node">
<title>Node14</title>
<g id="a_Node000014"><a xlink:href="vulkan__utils_8hpp.html" target="_top" xlink:title=" ">
<polygon fill="white" stroke="#666666" points="517.75,-240.25 431.25,-240.25 431.25,-221 517.75,-221 517.75,-240.25"/>
<text text-anchor="middle" x="474.5" y="-226.75" font-family="Helvetica,sans-Serif" font-size="10.00">vulkan_utils.hpp</text>
</a>
</g>
</g>
<!-- Node6&#45;&gt;Node14 -->
<g id="edge14_Node000006_Node000014" class="edge">
<title>Node6&#45;&gt;Node14</title>
<g id="a_edge14_Node000006_Node000014"><a xlink:title=" ">
<path fill="none" stroke="#63b8ff" d="M333.37,-272.69C366.84,-262.95 413.02,-249.52 443.3,-240.7"/>
<polygon fill="#63b8ff" stroke="#63b8ff" points="332.62,-269.26 324,-275.42 334.58,-275.99 332.62,-269.26"/>
</a>
</g>
</g>
<!-- Node16 -->
<g id="Node000016" class="node">
<title>Node16</title>
<g id="a_Node000016"><a xlink:href="window_8cpp.html" target="_top" xlink:title=" ">
<polygon fill="white" stroke="#666666" points="601.62,-240.25 535.38,-240.25 535.38,-221 601.62,-221 601.62,-240.25"/>
<text text-anchor="middle" x="568.5" y="-226.75" font-family="Helvetica,sans-Serif" font-size="10.00">window.cpp</text>
</a>
</g>
</g>
<!-- Node6&#45;&gt;Node16 -->
<g id="edge16_Node000006_Node000016" class="edge">
<title>Node6&#45;&gt;Node16</title>
<g id="a_edge16_Node000006_Node000016"><a xlink:title=" ">
<path fill="none" stroke="#63b8ff" d="M343.98,-275.14C391.63,-266.25 463.84,-252.63 526.5,-240.25 529.27,-239.7 532.15,-239.13 535.04,-238.54"/>
<polygon fill="#63b8ff" stroke="#63b8ff" points="343.39,-271.69 334.2,-276.96 344.67,-278.57 343.39,-271.69"/>
</a>
</g>
</g>
<!-- Node8 -->
<g id="Node000008" class="node">
<title>Node8</title>
<g id="a_Node000008"><a xlink:href="event__sink_8hpp.html" target="_top" xlink:title=" ">
<polygon fill="white" stroke="#666666" points="228.5,-185 146.5,-185 146.5,-165.75 228.5,-165.75 228.5,-185"/>
<text text-anchor="middle" x="187.5" y="-171.5" font-family="Helvetica,sans-Serif" font-size="10.00">event_sink.hpp</text>
</a>
</g>
</g>
<!-- Node7&#45;&gt;Node8 -->
<g id="edge7_Node000007_Node000008" class="edge">
<title>Node7&#45;&gt;Node8</title>
<g id="a_edge7_Node000007_Node000008"><a xlink:title=" ">
<path fill="none" stroke="#63b8ff" d="M187.5,-209.38C187.5,-201.09 187.5,-191.92 187.5,-185.36"/>
<polygon fill="#63b8ff" stroke="#63b8ff" points="184,-209.32 187.5,-219.32 191,-209.32 184,-209.32"/>
</a>
</g>
</g>
<!-- Node9 -->
<g id="Node000009" class="node">
<title>Node9</title>
<g id="a_Node000009"><a xlink:href="event__dispatcher_8hpp.html" target="_top" xlink:title=" ">
<polygon fill="white" stroke="#666666" points="241.62,-129.75 133.38,-129.75 133.38,-110.5 241.62,-110.5 241.62,-129.75"/>
<text text-anchor="middle" x="187.5" y="-116.25" font-family="Helvetica,sans-Serif" font-size="10.00">event_dispatcher.hpp</text>
</a>
</g>
</g>
<!-- Node8&#45;&gt;Node9 -->
<g id="edge8_Node000008_Node000009" class="edge">
<title>Node8&#45;&gt;Node9</title>
<g id="a_edge8_Node000008_Node000009"><a xlink:title=" ">
<path fill="none" stroke="#63b8ff" d="M187.5,-154.13C187.5,-145.84 187.5,-136.67 187.5,-130.11"/>
<polygon fill="#63b8ff" stroke="#63b8ff" points="184,-154.07 187.5,-164.07 191,-154.07 184,-154.07"/>
</a>
</g>
</g>
<!-- Node10 -->
<g id="Node000010" class="node">
<title>Node10</title>
<g id="a_Node000010"><a xlink:href="platform__layer_8hpp.html" target="_top" xlink:title=" ">
<polygon fill="white" stroke="#666666" points="235.25,-74.5 139.75,-74.5 139.75,-55.25 235.25,-55.25 235.25,-74.5"/>
<text text-anchor="middle" x="187.5" y="-61" font-family="Helvetica,sans-Serif" font-size="10.00">platform_layer.hpp</text>
</a>
</g>
</g>
<!-- Node9&#45;&gt;Node10 -->
<g id="edge9_Node000009_Node000010" class="edge">
<title>Node9&#45;&gt;Node10</title>
<g id="a_edge9_Node000009_Node000010"><a xlink:title=" ">
<path fill="none" stroke="#63b8ff" d="M187.5,-98.88C187.5,-90.59 187.5,-81.42 187.5,-74.86"/>
<polygon fill="#63b8ff" stroke="#63b8ff" points="184,-98.82 187.5,-108.82 191,-98.82 184,-98.82"/>
</a>
</g>
</g>
<!-- Node11 -->
<g id="Node000011" class="node">
<title>Node11</title>
<g id="a_Node000011"><a xlink:href="platform__layer_8cpp.html" target="_top" xlink:title=" ">
<polygon fill="white" stroke="#666666" points="235.25,-19.25 139.75,-19.25 139.75,0 235.25,0 235.25,-19.25"/>
<text text-anchor="middle" x="187.5" y="-5.75" font-family="Helvetica,sans-Serif" font-size="10.00">platform_layer.cpp</text>
</a>
</g>
</g>
<!-- Node10&#45;&gt;Node11 -->
<g id="edge10_Node000010_Node000011" class="edge">
<title>Node10&#45;&gt;Node11</title>
<g id="a_edge10_Node000010_Node000011"><a xlink:title=" ">
<path fill="none" stroke="#63b8ff" d="M187.5,-43.63C187.5,-35.34 187.5,-26.17 187.5,-19.61"/>
<polygon fill="#63b8ff" stroke="#63b8ff" points="184,-43.57 187.5,-53.57 191,-43.57 184,-43.57"/>
</a>
</g>
</g>
<!-- Node15 -->
<g id="Node000015" class="node">
<title>Node15</title>
<g id="a_Node000015"><a xlink:href="vulkan__instance_8cpp.html" target="_top" xlink:title=" ">
<polygon fill="white" stroke="#666666" points="527.12,-185 421.88,-185 421.88,-165.75 527.12,-165.75 527.12,-185"/>
<text text-anchor="middle" x="474.5" y="-171.5" font-family="Helvetica,sans-Serif" font-size="10.00">vulkan_instance.cpp</text>
</a>
</g>
</g>
<!-- Node14&#45;&gt;Node15 -->
<g id="edge15_Node000014_Node000015" class="edge">
<title>Node14&#45;&gt;Node15</title>
<g id="a_edge15_Node000014_Node000015"><a xlink:title=" ">
<path fill="none" stroke="#63b8ff" d="M474.5,-209.38C474.5,-201.09 474.5,-191.92 474.5,-185.36"/>
<polygon fill="#63b8ff" stroke="#63b8ff" points="471,-209.32 474.5,-219.32 478,-209.32 471,-209.32"/>
</a>
</g>
</g>
</g>
</svg>
