<?xml version="1.0" encoding="UTF-8" standalone="no"?>
<!DOCTYPE svg PUBLIC "-//W3C//DTD SVG 1.1//EN"
 "http://www.w3.org/Graphics/SVG/1.1/DTD/svg11.dtd">
<!-- Generated by graphviz version 7.1.0 (20230121.1956)
 -->
<!-- Title: log.hpp Pages: 1 -->
<svg width="257pt" height="308pt"
 viewBox="0.00 0.00 257.00 308.00" xmlns="http://www.w3.org/2000/svg" xmlns:xlink="http://www.w3.org/1999/xlink">
<g id="graph0" class="graph" transform="scale(1 1) rotate(0) translate(4 304)">
<title>log.hpp</title>
<polygon fill="white" stroke="none" points="-4,4 -4,-304 253,-304 253,4 -4,4"/>
<!-- Node1 -->
<g id="node1" class="node">
<title>Node1</title>
<g id="a_node1"><a xlink:title=" ">
<polygon fill="#bfbfbf" stroke="black" points="155.5,-280.5 155.5,-299.5 203.5,-299.5 203.5,-280.5 155.5,-280.5"/>
<text text-anchor="middle" x="179.5" y="-287.5" font-family="Helvetica,sans-Serif" font-size="10.00">log.hpp</text>
</a>
</g>
</g>
<!-- Node2 -->
<g id="node2" class="node">
<title>Node2</title>
<g id="a_node2"><a xlink:href="default__log_8hpp.html" target="_top" xlink:title=" ">
<polygon fill="white" stroke="black" points="96,-224.5 96,-243.5 179,-243.5 179,-224.5 96,-224.5"/>
<text text-anchor="middle" x="137.5" y="-231.5" font-family="Helvetica,sans-Serif" font-size="10.00">default_log.hpp</text>
</a>
</g>
</g>
<!-- Node1&#45;&gt;Node2 -->
<g id="edge1" class="edge">
<title>Node1&#45;&gt;Node2</title>
<path fill="none" stroke="midnightblue" d="M165.92,-271.54C158.52,-262.02 149.71,-250.7 143.88,-243.2"/>
<polygon fill="midnightblue" stroke="midnightblue" points="163.11,-273.62 172.01,-279.37 168.63,-269.33 163.11,-273.62"/>
</g>
<!-- Node8 -->
<g id="node8" class="node">
<title>Node8</title>
<g id="a_node8"><a xlink:href="log_8cpp.html" target="_top" xlink:title=" ">
<polygon fill="white" stroke="black" points="197.5,-224.5 197.5,-243.5 245.5,-243.5 245.5,-224.5 197.5,-224.5"/>
<text text-anchor="middle" x="221.5" y="-231.5" font-family="Helvetica,sans-Serif" font-size="10.00">log.cpp</text>
</a>
</g>
</g>
<!-- Node1&#45;&gt;Node8 -->
<g id="edge8" class="edge">
<title>Node1&#45;&gt;Node8</title>
<path fill="none" stroke="midnightblue" d="M193.08,-271.54C200.48,-262.02 209.29,-250.7 215.12,-243.2"/>
<polygon fill="midnightblue" stroke="midnightblue" points="190.37,-269.33 186.99,-279.37 195.89,-273.62 190.37,-269.33"/>
</g>
<!-- Node3 -->
<g id="node3" class="node">
<title>Node3</title>
<g id="a_node3"><a xlink:href="callback_8hpp.html" target="_top" xlink:title=" ">
<polygon fill="white" stroke="black" points="35,-168.5 35,-187.5 106,-187.5 106,-168.5 35,-168.5"/>
<text text-anchor="middle" x="70.5" y="-175.5" font-family="Helvetica,sans-Serif" font-size="10.00">callback.hpp</text>
</a>
</g>
</g>
<!-- Node2&#45;&gt;Node3 -->
<g id="edge2" class="edge">
<title>Node2&#45;&gt;Node3</title>
<path fill="none" stroke="midnightblue" d="M118.41,-217.61C106.13,-207.72 90.66,-195.25 80.68,-187.2"/>
<polygon fill="midnightblue" stroke="midnightblue" points="115.87,-220.06 125.85,-223.61 120.26,-214.61 115.87,-220.06"/>
</g>
<!-- Node6 -->
<g id="node6" class="node">
<title>Node6</title>
<g id="a_node6"><a xlink:href="core_8hpp.html" target="_top" xlink:title=" ">
<polygon fill="white" stroke="black" points="68.5,-0.5 68.5,-19.5 122.5,-19.5 122.5,-0.5 68.5,-0.5"/>
<text text-anchor="middle" x="95.5" y="-7.5" font-family="Helvetica,sans-Serif" font-size="10.00">core.hpp</text>
</a>
</g>
</g>
<!-- Node2&#45;&gt;Node6 -->
<g id="edge6" class="edge">
<title>Node2&#45;&gt;Node6</title>
<path fill="none" stroke="midnightblue" d="M137.45,-213.54C136.9,-180.49 133.7,-111.57 117.5,-56 113.56,-42.48 105.8,-28.05 100.63,-19.28"/>
<polygon fill="midnightblue" stroke="midnightblue" points="133.95,-213.21 137.54,-223.18 140.95,-213.14 133.95,-213.21"/>
</g>
<!-- Node7 -->
<g id="node7" class="node">
<title>Node7</title>
<g id="a_node7"><a xlink:href="default__log_8cpp.html" target="_top" xlink:title=" ">
<polygon fill="white" stroke="black" points="166,-168.5 166,-187.5 249,-187.5 249,-168.5 166,-168.5"/>
<text text-anchor="middle" x="207.5" y="-175.5" font-family="Helvetica,sans-Serif" font-size="10.00">default_log.cpp</text>
</a>
</g>
</g>
<!-- Node2&#45;&gt;Node7 -->
<g id="edge7" class="edge">
<title>Node2&#45;&gt;Node7</title>
<path fill="none" stroke="midnightblue" d="M157.45,-217.61C170.28,-207.72 186.44,-195.25 196.87,-187.2"/>
<polygon fill="midnightblue" stroke="midnightblue" points="155.42,-214.76 149.64,-223.64 159.69,-220.3 155.42,-214.76"/>
</g>
<!-- Node4 -->
<g id="node4" class="node">
<title>Node4</title>
<g id="a_node4"><a xlink:href="event__sink_8hpp.html" target="_top" xlink:title=" ">
<polygon fill="white" stroke="black" points="20,-112.5 20,-131.5 103,-131.5 103,-112.5 20,-112.5"/>
<text text-anchor="middle" x="61.5" y="-119.5" font-family="Helvetica,sans-Serif" font-size="10.00">event_sink.hpp</text>
</a>
</g>
</g>
<!-- Node3&#45;&gt;Node4 -->
<g id="edge3" class="edge">
<title>Node3&#45;&gt;Node4</title>
<path fill="none" stroke="midnightblue" d="M67.23,-157.41C65.73,-148.38 64.02,-138.14 62.87,-131.2"/>
<polygon fill="midnightblue" stroke="midnightblue" points="63.75,-157.78 68.84,-167.07 70.65,-156.63 63.75,-157.78"/>
</g>
<!-- Node5 -->
<g id="node5" class="node">
<title>Node5</title>
<g id="a_node5"><a xlink:href="event__dispatcher_8hpp.html" target="_top" xlink:title=" ">
<polygon fill="white" stroke="black" points="0,-56.5 0,-75.5 109,-75.5 109,-56.5 0,-56.5"/>
<text text-anchor="middle" x="54.5" y="-63.5" font-family="Helvetica,sans-Serif" font-size="10.00">event_dispatcher.hpp</text>
</a>
</g>
</g>
<!-- Node4&#45;&gt;Node5 -->
<g id="edge4" class="edge">
<title>Node4&#45;&gt;Node5</title>
<path fill="none" stroke="midnightblue" d="M58.96,-101.41C57.79,-92.38 56.46,-82.14 55.56,-75.2"/>
<polygon fill="midnightblue" stroke="midnightblue" points="55.46,-101.59 60.21,-111.06 62.4,-100.69 55.46,-101.59"/>
</g>
<!-- Node5&#45;&gt;Node6 -->
<g id="edge5" class="edge">
<title>Node5&#45;&gt;Node6</title>
<path fill="none" stroke="midnightblue" d="M67.76,-47.54C74.98,-38.02 83.58,-26.7 89.27,-19.2"/>
<polygon fill="midnightblue" stroke="midnightblue" points="65.08,-45.28 61.82,-55.36 70.66,-49.51 65.08,-45.28"/>
</g>
</g>
</svg>
