<?xml version="1.0" encoding="UTF-8" standalone="no"?>
<!DOCTYPE svg PUBLIC "-//W3C//DTD SVG 1.1//EN"
 "http://www.w3.org/Graphics/SVG/1.1/DTD/svg11.dtd">
<!-- Generated by graphviz version 7.1.0 (20230121.1956)
 -->
<!-- Title: log_writer.hpp Pages: 1 -->
<svg width="391pt" height="357pt"
 viewBox="0.00 0.00 390.50 357.00" xmlns="http://www.w3.org/2000/svg" xmlns:xlink="http://www.w3.org/1999/xlink">
<g id="graph0" class="graph" transform="scale(1 1) rotate(0) translate(4 353)">
<title>log_writer.hpp</title>
<!-- Node1 -->
<g id="Node000001" class="node">
<title>Node1</title>
<g id="a_Node000001"><a xlink:title=" ">
<polygon fill="#999999" stroke="#666666" points="232.5,-349 155.5,-349 155.5,-330 232.5,-330 232.5,-349"/>
<text text-anchor="middle" x="194" y="-337" font-family="Helvetica,sans-Serif" font-size="10.00">log_writer.hpp</text>
</a>
</g>
</g>
<!-- Node2 -->
<g id="Node000002" class="node">
<title>Node2</title>
<g id="a_Node000002"><a xlink:href="console__log__writer_8hpp.html" target="_top" xlink:title=" ">
<polygon fill="white" stroke="#666666" points="202,-294 86,-294 86,-275 202,-275 202,-294"/>
<text text-anchor="middle" x="144" y="-282" font-family="Helvetica,sans-Serif" font-size="10.00">console_log_writer.hpp</text>
</a>
</g>
</g>
<!-- Node1&#45;&gt;Node2 -->
<g id="edge1_Node000001_Node000002" class="edge">
<title>Node1&#45;&gt;Node2</title>
<g id="a_edge1_Node000001_Node000002"><a xlink:title=" ">
<path fill="none" stroke="#63b8ff" d="M177.96,-321.5C169.47,-312.5 159.4,-301.82 152.44,-294.44"/>
<polygon fill="#63b8ff" stroke="#63b8ff" points="175.3,-323.78 184.7,-328.65 180.39,-318.97 175.3,-323.78"/>
</a>
</g>
</g>
<!-- Node5 -->
<g id="Node000005" class="node">
<title>Node5</title>
<g id="a_Node000005"><a xlink:href="log_8hpp.html" target="_top" xlink:title=" ">
<polygon fill="white" stroke="#666666" points="269,-294 221,-294 221,-275 269,-275 269,-294"/>
<text text-anchor="middle" x="245" y="-282" font-family="Helvetica,sans-Serif" font-size="10.00">log.hpp</text>
</a>
</g>
</g>
<!-- Node1&#45;&gt;Node5 -->
<g id="edge4_Node000001_Node000005" class="edge">
<title>Node1&#45;&gt;Node5</title>
<g id="a_edge4_Node000001_Node000005"><a xlink:title=" ">
<path fill="none" stroke="#63b8ff" d="M210.36,-321.5C219.02,-312.5 229.3,-301.82 236.4,-294.44"/>
<polygon fill="#63b8ff" stroke="#63b8ff" points="207.88,-319.02 203.47,-328.66 212.93,-323.88 207.88,-319.02"/>
</a>
</g>
</g>
<!-- Node3 -->
<g id="Node000003" class="node">
<title>Node3</title>
<g id="a_Node000003"><a xlink:href="console__log__writer_8cpp.html" target="_top" xlink:title=" ">
<polygon fill="white" stroke="#666666" points="116,-239 0,-239 0,-220 116,-220 116,-239"/>
<text text-anchor="middle" x="58" y="-227" font-family="Helvetica,sans-Serif" font-size="10.00">console_log_writer.cpp</text>
</a>
</g>
</g>
<!-- Node2&#45;&gt;Node3 -->
<g id="edge2_Node000002_Node000003" class="edge">
<title>Node2&#45;&gt;Node3</title>
<g id="a_edge2_Node000002_Node000003"><a xlink:title=" ">
<path fill="none" stroke="#63b8ff" d="M120.03,-268.73C104.71,-259.29 85.35,-247.36 72.37,-239.36"/>
<polygon fill="#63b8ff" stroke="#63b8ff" points="117.77,-271.45 128.12,-273.72 121.45,-265.49 117.77,-271.45"/>
</a>
</g>
</g>
<!-- Node4 -->
<g id="Node000004" class="node">
<title>Node4</title>
<g id="a_Node000004"><a xlink:href="core_8hpp.html" target="_top" xlink:title=" ">
<polygon fill="white" stroke="#666666" points="209,-19 155,-19 155,0 209,0 209,-19"/>
<text text-anchor="middle" x="182" y="-7" font-family="Helvetica,sans-Serif" font-size="10.00">core.hpp</text>
</a>
</g>
</g>
<!-- Node2&#45;&gt;Node4 -->
<g id="edge3_Node000002_Node000004" class="edge">
<title>Node2&#45;&gt;Node4</title>
<g id="a_edge3_Node000002_Node000004"><a xlink:title=" ">
<path fill="none" stroke="#63b8ff" d="M144,-263.23C144,-241.52 144,-206.08 144,-175.5 144,-175.5 144,-175.5 144,-118.5 144,-79.74 166.05,-37.37 176.56,-19.37"/>
<polygon fill="#63b8ff" stroke="#63b8ff" points="140.5,-263.03 144,-273.03 147.5,-263.03 140.5,-263.03"/>
</a>
</g>
</g>
<!-- Node6 -->
<g id="Node000006" class="node">
<title>Node6</title>
<g id="a_Node000006"><a xlink:href="default__log_8hpp.html" target="_top" xlink:title=" ">
<polygon fill="white" stroke="#666666" points="286.5,-239 203.5,-239 203.5,-220 286.5,-220 286.5,-239"/>
<text text-anchor="middle" x="245" y="-227" font-family="Helvetica,sans-Serif" font-size="10.00">default_log.hpp</text>
</a>
</g>
</g>
<!-- Node5&#45;&gt;Node6 -->
<g id="edge5_Node000005_Node000006" class="edge">
<title>Node5&#45;&gt;Node6</title>
<g id="a_edge5_Node000005_Node000006"><a xlink:title=" ">
<path fill="none" stroke="#63b8ff" d="M245,-263.35C245,-255.1 245,-245.97 245,-239.44"/>
<polygon fill="#63b8ff" stroke="#63b8ff" points="241.5,-263.23 245,-273.23 248.5,-263.23 241.5,-263.23"/>
</a>
</g>
</g>
<!-- Node11 -->
<g id="Node000011" class="node">
<title>Node11</title>
<g id="a_Node000011"><a xlink:href="log_8cpp.html" target="_top" xlink:title=" ">
<polygon fill="white" stroke="#666666" points="353,-239 305,-239 305,-220 353,-220 353,-239"/>
<text text-anchor="middle" x="329" y="-227" font-family="Helvetica,sans-Serif" font-size="10.00">log.cpp</text>
</a>
</g>
</g>
<!-- Node5&#45;&gt;Node11 -->
<g id="edge12_Node000005_Node000011" class="edge">
<title>Node5&#45;&gt;Node11</title>
<g id="a_edge12_Node000005_Node000011"><a xlink:title=" ">
<path fill="none" stroke="#63b8ff" d="M268.84,-268.46C283.73,-259.06 302.4,-247.28 314.96,-239.36"/>
<polygon fill="#63b8ff" stroke="#63b8ff" points="267.12,-265.41 260.53,-273.7 270.85,-271.33 267.12,-265.41"/>
</a>
</g>
</g>
<!-- Node6&#45;&gt;Node4 -->
<g id="edge10_Node000006_Node000004" class="edge">
<title>Node6&#45;&gt;Node4</title>
<g id="a_edge10_Node000006_Node000004"><a xlink:title=" ">
<path fill="none" stroke="#63b8ff" d="M224.05,-212.69C215.44,-205.02 206.27,-195.07 201,-184 173.51,-126.27 178.43,-45.84 181.01,-19.35"/>
<polygon fill="#63b8ff" stroke="#63b8ff" points="221.54,-215.16 231.47,-218.85 226.01,-209.77 221.54,-215.16"/>
</a>
</g>
</g>
<!-- Node7 -->
<g id="Node000007" class="node">
<title>Node7</title>
<g id="a_Node000007"><a xlink:href="callback_8hpp.html" target="_top" xlink:title=" ">
<polygon fill="white" stroke="#666666" points="281.5,-184 210.5,-184 210.5,-165 281.5,-165 281.5,-184"/>
<text text-anchor="middle" x="246" y="-172" font-family="Helvetica,sans-Serif" font-size="10.00">callback.hpp</text>
</a>
</g>
</g>
<!-- Node6&#45;&gt;Node7 -->
<g id="edge6_Node000006_Node000007" class="edge">
<title>Node6&#45;&gt;Node7</title>
<g id="a_edge6_Node000006_Node000007"><a xlink:title=" ">
<path fill="none" stroke="#63b8ff" d="M245.38,-208.35C245.54,-200.1 245.71,-190.97 245.83,-184.44"/>
<polygon fill="#63b8ff" stroke="#63b8ff" points="241.88,-208.17 245.19,-218.23 248.88,-208.3 241.88,-208.17"/>
</a>
</g>
</g>
<!-- Node10 -->
<g id="Node000010" class="node">
<title>Node10</title>
<g id="a_Node000010"><a xlink:href="default__log_8cpp.html" target="_top" xlink:title=" ">
<polygon fill="white" stroke="#666666" points="382.5,-184 299.5,-184 299.5,-165 382.5,-165 382.5,-184"/>
<text text-anchor="middle" x="341" y="-172" font-family="Helvetica,sans-Serif" font-size="10.00">default_log.cpp</text>
</a>
</g>
</g>
<!-- Node6&#45;&gt;Node10 -->
<g id="edge11_Node000006_Node000010" class="edge">
<title>Node6&#45;&gt;Node10</title>
<g id="a_edge11_Node000006_Node000010"><a xlink:title=" ">
<path fill="none" stroke="#63b8ff" d="M271.26,-214C288.44,-204.52 310.33,-192.43 324.96,-184.36"/>
<polygon fill="#63b8ff" stroke="#63b8ff" points="269.67,-210.88 262.61,-218.78 273.06,-217.01 269.67,-210.88"/>
</a>
</g>
</g>
<!-- Node8 -->
<g id="Node000008" class="node">
<title>Node8</title>
<g id="a_Node000008"><a xlink:href="event__sink_8hpp.html" target="_top" xlink:title=" ">
<polygon fill="white" stroke="#666666" points="299.5,-129 216.5,-129 216.5,-110 299.5,-110 299.5,-129"/>
<text text-anchor="middle" x="258" y="-117" font-family="Helvetica,sans-Serif" font-size="10.00">event_sink.hpp</text>
</a>
</g>
</g>
<!-- Node7&#45;&gt;Node8 -->
<g id="edge7_Node000007_Node000008" class="edge">
<title>Node7&#45;&gt;Node8</title>
<g id="a_edge7_Node000007_Node000008"><a xlink:title=" ">
<path fill="none" stroke="#63b8ff" d="M250.5,-153.64C252.38,-145.31 254.48,-136.05 255.98,-129.44"/>
<polygon fill="#63b8ff" stroke="#63b8ff" points="247.11,-152.75 248.32,-163.27 253.94,-154.29 247.11,-152.75"/>
</a>
</g>
</g>
<!-- Node9 -->
<g id="Node000009" class="node">
<title>Node9</title>
<g id="a_Node000009"><a xlink:href="event__dispatcher_8hpp.html" target="_top" xlink:title=" ">
<polygon fill="white" stroke="#666666" points="319.5,-74 210.5,-74 210.5,-55 319.5,-55 319.5,-74"/>
<text text-anchor="middle" x="265" y="-62" font-family="Helvetica,sans-Serif" font-size="10.00">event_dispatcher.hpp</text>
</a>
</g>
</g>
<!-- Node8&#45;&gt;Node9 -->
<g id="edge8_Node000008_Node000009" class="edge">
<title>Node8&#45;&gt;Node9</title>
<g id="a_edge8_Node000008_Node000009"><a xlink:title=" ">
<path fill="none" stroke="#63b8ff" d="M260.66,-98.35C261.75,-90.1 262.96,-80.97 263.82,-74.44"/>
<polygon fill="#63b8ff" stroke="#63b8ff" points="257.19,-97.88 259.35,-108.25 264.13,-98.79 257.19,-97.88"/>
</a>
</g>
</g>
<!-- Node9&#45;&gt;Node4 -->
<g id="edge9_Node000009_Node000004" class="edge">
<title>Node9&#45;&gt;Node4</title>
<g id="a_edge9_Node000009_Node000004"><a xlink:title=" ">
<path fill="none" stroke="#63b8ff" d="M241.45,-48.46C226.73,-39.06 208.28,-27.28 195.87,-19.36"/>
<polygon fill="#63b8ff" stroke="#63b8ff" points="239.33,-51.26 249.64,-53.69 243.1,-45.36 239.33,-51.26"/>
</a>
</g>
</g>
</g>
</svg>
