<?xml version="1.0" encoding="UTF-8" standalone="no"?>
<!DOCTYPE svg PUBLIC "-//W3C//DTD SVG 1.1//EN"
 "http://www.w3.org/Graphics/SVG/1.1/DTD/svg11.dtd">
<!-- Generated by graphviz version 7.1.0 (20230121.1956)
 -->
<!-- Title: log.hpp Pages: 1 -->
<svg width="257pt" height="302pt"
 viewBox="0.00 0.00 257.00 302.00" xmlns="http://www.w3.org/2000/svg" xmlns:xlink="http://www.w3.org/1999/xlink">
<g id="graph0" class="graph" transform="scale(1 1) rotate(0) translate(4 298)">
<title>log.hpp</title>
<!-- Node1 -->
<g id="Node000001" class="node">
<title>Node1</title>
<g id="a_Node000001"><a xlink:title=" ">
<polygon fill="#999999" stroke="#666666" points="203.5,-294 155.5,-294 155.5,-275 203.5,-275 203.5,-294"/>
<text text-anchor="middle" x="179.5" y="-282" font-family="Helvetica,sans-Serif" font-size="10.00">log.hpp</text>
</a>
</g>
</g>
<!-- Node2 -->
<g id="Node000002" class="node">
<title>Node2</title>
<g id="a_Node000002"><a xlink:href="default__log_8hpp.html" target="_top" xlink:title=" ">
<polygon fill="white" stroke="#666666" points="179,-239 96,-239 96,-220 179,-220 179,-239"/>
<text text-anchor="middle" x="137.5" y="-227" font-family="Helvetica,sans-Serif" font-size="10.00">default_log.hpp</text>
</a>
</g>
</g>
<!-- Node1&#45;&gt;Node2 -->
<g id="edge1_Node000001_Node000002" class="edge">
<title>Node1&#45;&gt;Node2</title>
<g id="a_edge1_Node000001_Node000002"><a xlink:title=" ">
<path fill="none" stroke="#63b8ff" d="M165.58,-265.93C158.54,-257.06 150.31,-246.67 144.59,-239.44"/>
<polygon fill="#63b8ff" stroke="#63b8ff" points="162.67,-267.9 171.62,-273.56 168.16,-263.55 162.67,-267.9"/>
</a>
</g>
</g>
<!-- Node8 -->
<g id="Node000008" class="node">
<title>Node8</title>
<g id="a_Node000008"><a xlink:href="log_8cpp.html" target="_top" xlink:title=" ">
<polygon fill="white" stroke="#666666" points="245.5,-239 197.5,-239 197.5,-220 245.5,-220 245.5,-239"/>
<text text-anchor="middle" x="221.5" y="-227" font-family="Helvetica,sans-Serif" font-size="10.00">log.cpp</text>
</a>
</g>
</g>
<!-- Node1&#45;&gt;Node8 -->
<g id="edge8_Node000001_Node000008" class="edge">
<title>Node1&#45;&gt;Node8</title>
<g id="a_edge8_Node000001_Node000008"><a xlink:title=" ">
<path fill="none" stroke="#63b8ff" d="M193.42,-265.93C200.46,-257.06 208.69,-246.67 214.41,-239.44"/>
<polygon fill="#63b8ff" stroke="#63b8ff" points="190.84,-263.55 187.38,-273.56 196.33,-267.9 190.84,-263.55"/>
</a>
</g>
</g>
<!-- Node3 -->
<g id="Node000003" class="node">
<title>Node3</title>
<g id="a_Node000003"><a xlink:href="callback_8hpp.html" target="_top" xlink:title=" ">
<polygon fill="white" stroke="#666666" points="106,-184 35,-184 35,-165 106,-165 106,-184"/>
<text text-anchor="middle" x="70.5" y="-172" font-family="Helvetica,sans-Serif" font-size="10.00">callback.hpp</text>
</a>
</g>
</g>
<!-- Node2&#45;&gt;Node3 -->
<g id="edge2_Node000002_Node000003" class="edge">
<title>Node2&#45;&gt;Node3</title>
<g id="a_edge2_Node000002_Node000003"><a xlink:title=" ">
<path fill="none" stroke="#63b8ff" d="M117.45,-212.64C105.75,-203.39 91.43,-192.05 81.7,-184.36"/>
<polygon fill="#63b8ff" stroke="#63b8ff" points="114.93,-215.11 124.95,-218.57 119.28,-209.62 114.93,-215.11"/>
</a>
</g>
</g>
<!-- Node6 -->
<g id="Node000006" class="node">
<title>Node6</title>
<g id="a_Node000006"><a xlink:href="core_8hpp.html" target="_top" xlink:title=" ">
<polygon fill="white" stroke="#666666" points="122.5,-19 68.5,-19 68.5,0 122.5,0 122.5,-19"/>
<text text-anchor="middle" x="95.5" y="-7" font-family="Helvetica,sans-Serif" font-size="10.00">core.hpp</text>
</a>
</g>
</g>
<!-- Node2&#45;&gt;Node6 -->
<g id="edge6_Node000002_Node000006" class="edge">
<title>Node2&#45;&gt;Node6</title>
<g id="a_edge6_Node000002_Node000006"><a xlink:title=" ">
<path fill="none" stroke="#63b8ff" d="M137.41,-208.49C136.77,-175.73 133.41,-108.91 117.5,-55 113.65,-41.94 106.17,-28.05 101.01,-19.33"/>
<polygon fill="#63b8ff" stroke="#63b8ff" points="133.9,-208.15 137.52,-218.11 140.9,-208.07 133.9,-208.15"/>
</a>
</g>
</g>
<!-- Node7 -->
<g id="Node000007" class="node">
<title>Node7</title>
<g id="a_Node000007"><a xlink:href="default__log_8cpp.html" target="_top" xlink:title=" ">
<polygon fill="white" stroke="#666666" points="249,-184 166,-184 166,-165 249,-165 249,-184"/>
<text text-anchor="middle" x="207.5" y="-172" font-family="Helvetica,sans-Serif" font-size="10.00">default_log.cpp</text>
</a>
</g>
</g>
<!-- Node2&#45;&gt;Node7 -->
<g id="edge7_Node000002_Node000007" class="edge">
<title>Node2&#45;&gt;Node7</title>
<g id="a_edge7_Node000002_Node000007"><a xlink:title=" ">
<path fill="none" stroke="#63b8ff" d="M158.45,-212.64C170.67,-203.39 185.64,-192.05 195.8,-184.36"/>
<polygon fill="#63b8ff" stroke="#63b8ff" points="156.44,-209.77 150.58,-218.6 160.67,-215.35 156.44,-209.77"/>
</a>
</g>
</g>
<!-- Node4 -->
<g id="Node000004" class="node">
<title>Node4</title>
<g id="a_Node000004"><a xlink:href="event__sink_8hpp.html" target="_top" xlink:title=" ">
<polygon fill="white" stroke="#666666" points="103,-129 20,-129 20,-110 103,-110 103,-129"/>
<text text-anchor="middle" x="61.5" y="-117" font-family="Helvetica,sans-Serif" font-size="10.00">event_sink.hpp</text>
</a>
</g>
</g>
<!-- Node3&#45;&gt;Node4 -->
<g id="edge3_Node000003_Node000004" class="edge">
<title>Node3&#45;&gt;Node4</title>
<g id="a_edge3_Node000003_Node000004"><a xlink:title=" ">
<path fill="none" stroke="#63b8ff" d="M67.13,-153.64C65.71,-145.31 64.14,-136.05 63.02,-129.44"/>
<polygon fill="#63b8ff" stroke="#63b8ff" points="63.64,-153.98 68.76,-163.26 70.54,-152.81 63.64,-153.98"/>
</a>
</g>
</g>
<!-- Node5 -->
<g id="Node000005" class="node">
<title>Node5</title>
<g id="a_Node000005"><a xlink:href="event__dispatcher_8hpp.html" target="_top" xlink:title=" ">
<polygon fill="white" stroke="#666666" points="109,-74 0,-74 0,-55 109,-55 109,-74"/>
<text text-anchor="middle" x="54.5" y="-62" font-family="Helvetica,sans-Serif" font-size="10.00">event_dispatcher.hpp</text>
</a>
</g>
</g>
<!-- Node4&#45;&gt;Node5 -->
<g id="edge4_Node000004_Node000005" class="edge">
<title>Node4&#45;&gt;Node5</title>
<g id="a_edge4_Node000004_Node000005"><a xlink:title=" ">
<path fill="none" stroke="#63b8ff" d="M58.84,-98.35C57.75,-90.1 56.54,-80.97 55.68,-74.44"/>
<polygon fill="#63b8ff" stroke="#63b8ff" points="55.37,-98.79 60.15,-108.25 62.31,-97.88 55.37,-98.79"/>
</a>
</g>
</g>
<!-- Node5&#45;&gt;Node6 -->
<g id="edge5_Node000005_Node000006" class="edge">
<title>Node5&#45;&gt;Node6</title>
<g id="a_edge5_Node000005_Node000006"><a xlink:title=" ">
<path fill="none" stroke="#63b8ff" d="M68.31,-45.65C75.13,-36.84 83.05,-26.59 88.58,-19.44"/>
<polygon fill="#63b8ff" stroke="#63b8ff" points="65.55,-43.5 62.2,-53.55 71.08,-47.78 65.55,-43.5"/>
</a>
</g>
</g>
</g>
</svg>
