<?xml version="1.0" encoding="UTF-8" standalone="no"?>
<!DOCTYPE svg PUBLIC "-//W3C//DTD SVG 1.1//EN"
 "http://www.w3.org/Graphics/SVG/1.1/DTD/svg11.dtd">
<!-- Generated by graphviz version 7.1.0 (20230121.1956)
 -->
<!-- Title: log.ipp Pages: 1 -->
<svg width="231pt" height="308pt"
 viewBox="0.00 0.00 230.50 308.00" xmlns="http://www.w3.org/2000/svg" xmlns:xlink="http://www.w3.org/1999/xlink">
<g id="graph0" class="graph" transform="scale(1 1) rotate(0) translate(4 304)">
<title>log.ipp</title>
<polygon fill="white" stroke="none" points="-4,4 -4,-304 226.5,-304 226.5,4 -4,4"/>
<!-- Node1 -->
<g id="node1" class="node">
<title>Node1</title>
<g id="a_node1"><a xlink:title=" ">
<polygon fill="#bfbfbf" stroke="black" points="81.5,-280.5 81.5,-299.5 126.5,-299.5 126.5,-280.5 81.5,-280.5"/>
<text text-anchor="middle" x="104" y="-287.5" font-family="Helvetica,sans-Serif" font-size="10.00">log.ipp</text>
</a>
</g>
</g>
<!-- Node2 -->
<g id="node2" class="node">
<title>Node2</title>
<g id="a_node2"><a xlink:href="log_8hpp.html" target="_top" xlink:title=" ">
<polygon fill="white" stroke="black" points="80,-224.5 80,-243.5 128,-243.5 128,-224.5 80,-224.5"/>
<text text-anchor="middle" x="104" y="-231.5" font-family="Helvetica,sans-Serif" font-size="10.00">log.hpp</text>
</a>
</g>
</g>
<!-- Node1&#45;&gt;Node2 -->
<g id="edge1" class="edge">
<title>Node1&#45;&gt;Node2</title>
<path fill="none" stroke="midnightblue" d="M104,-269.1C104,-260.14 104,-250.06 104,-243.2"/>
<polygon fill="midnightblue" stroke="midnightblue" points="100.5,-269.05 104,-279.05 107.5,-269.05 100.5,-269.05"/>
</g>
<!-- Node3 -->
<g id="node3" class="node">
<title>Node3</title>
<g id="a_node3"><a xlink:href="default__log_8hpp.html" target="_top" xlink:title=" ">
<polygon fill="white" stroke="black" points="20.5,-168.5 20.5,-187.5 103.5,-187.5 103.5,-168.5 20.5,-168.5"/>
<text text-anchor="middle" x="62" y="-175.5" font-family="Helvetica,sans-Serif" font-size="10.00">default_log.hpp</text>
</a>
</g>
</g>
<!-- Node2&#45;&gt;Node3 -->
<g id="edge2" class="edge">
<title>Node2&#45;&gt;Node3</title>
<path fill="none" stroke="midnightblue" d="M90.42,-215.54C83.02,-206.02 74.21,-194.7 68.38,-187.2"/>
<polygon fill="midnightblue" stroke="midnightblue" points="87.61,-217.62 96.51,-223.37 93.13,-213.33 87.61,-217.62"/>
</g>
<!-- Node8 -->
<g id="node8" class="node">
<title>Node8</title>
<g id="a_node8"><a xlink:href="log_8cpp.html" target="_top" xlink:title=" ">
<polygon fill="white" stroke="black" points="122,-168.5 122,-187.5 170,-187.5 170,-168.5 122,-168.5"/>
<text text-anchor="middle" x="146" y="-175.5" font-family="Helvetica,sans-Serif" font-size="10.00">log.cpp</text>
</a>
</g>
</g>
<!-- Node2&#45;&gt;Node8 -->
<g id="edge8" class="edge">
<title>Node2&#45;&gt;Node8</title>
<path fill="none" stroke="midnightblue" d="M117.58,-215.54C124.98,-206.02 133.79,-194.7 139.62,-187.2"/>
<polygon fill="midnightblue" stroke="midnightblue" points="114.87,-213.33 111.49,-223.37 120.39,-217.62 114.87,-213.33"/>
</g>
<!-- Node4 -->
<g id="node4" class="node">
<title>Node4</title>
<g id="a_node4"><a xlink:href="core_8hpp.html" target="_top" xlink:title=" ">
<polygon fill="white" stroke="black" points="0,-0.5 0,-19.5 54,-19.5 54,-0.5 0,-0.5"/>
<text text-anchor="middle" x="27" y="-7.5" font-family="Helvetica,sans-Serif" font-size="10.00">core.hpp</text>
</a>
</g>
</g>
<!-- Node3&#45;&gt;Node4 -->
<g id="edge3" class="edge">
<title>Node3&#45;&gt;Node4</title>
<path fill="none" stroke="midnightblue" d="M37.36,-162.08C27.19,-154.48 16.52,-144.23 11,-132 -6.69,-92.79 13.73,-39.68 22.95,-19.37"/>
<polygon fill="midnightblue" stroke="midnightblue" points="35.29,-164.91 45.51,-167.69 39.25,-159.14 35.29,-164.91"/>
</g>
<!-- Node5 -->
<g id="node5" class="node">
<title>Node5</title>
<g id="a_node5"><a xlink:href="default__log_8cpp.html" target="_top" xlink:title=" ">
<polygon fill="white" stroke="black" points="20.5,-112.5 20.5,-131.5 103.5,-131.5 103.5,-112.5 20.5,-112.5"/>
<text text-anchor="middle" x="62" y="-119.5" font-family="Helvetica,sans-Serif" font-size="10.00">default_log.cpp</text>
</a>
</g>
</g>
<!-- Node3&#45;&gt;Node5 -->
<g id="edge4" class="edge">
<title>Node3&#45;&gt;Node5</title>
<path fill="none" stroke="midnightblue" d="M62,-157.1C62,-148.14 62,-138.06 62,-131.2"/>
<polygon fill="midnightblue" stroke="midnightblue" points="58.5,-157.05 62,-167.05 65.5,-157.05 58.5,-157.05"/>
</g>
<!-- Node6 -->
<g id="node6" class="node">
<title>Node6</title>
<g id="a_node6"><a xlink:href="event__callback_8hpp.html" target="_top" xlink:title=" ">
<polygon fill="white" stroke="black" points="121.5,-112.5 121.5,-131.5 222.5,-131.5 222.5,-112.5 121.5,-112.5"/>
<text text-anchor="middle" x="172" y="-119.5" font-family="Helvetica,sans-Serif" font-size="10.00">event_callback.hpp</text>
</a>
</g>
</g>
<!-- Node3&#45;&gt;Node6 -->
<g id="edge5" class="edge">
<title>Node3&#45;&gt;Node6</title>
<path fill="none" stroke="midnightblue" d="M89.5,-163.5C110.03,-153.42 137.46,-139.96 154.93,-131.38"/>
<polygon fill="midnightblue" stroke="midnightblue" points="87.98,-160.35 80.55,-167.9 91.07,-166.63 87.98,-160.35"/>
</g>
<!-- Node7 -->
<g id="node7" class="node">
<title>Node7</title>
<g id="a_node7"><a xlink:href="event__sink_8hpp.html" target="_top" xlink:title=" ">
<polygon fill="white" stroke="black" points="75.5,-56.5 75.5,-75.5 158.5,-75.5 158.5,-56.5 75.5,-56.5"/>
<text text-anchor="middle" x="117" y="-63.5" font-family="Helvetica,sans-Serif" font-size="10.00">event_sink.hpp</text>
</a>
</g>
</g>
<!-- Node6&#45;&gt;Node7 -->
<g id="edge6" class="edge">
<title>Node6&#45;&gt;Node7</title>
<path fill="none" stroke="midnightblue" d="M155.43,-104.73C145.5,-94.99 133.31,-83.01 125.35,-75.2"/>
<polygon fill="midnightblue" stroke="midnightblue" points="152.74,-106.99 162.33,-111.5 157.64,-102 152.74,-106.99"/>
</g>
<!-- Node7&#45;&gt;Node4 -->
<g id="edge7" class="edge">
<title>Node7&#45;&gt;Node4</title>
<path fill="none" stroke="midnightblue" d="M93.33,-50.8C76.67,-40.8 54.93,-27.76 40.96,-19.38"/>
<polygon fill="midnightblue" stroke="midnightblue" points="91.26,-53.64 101.64,-55.78 94.87,-47.64 91.26,-53.64"/>
</g>
</g>
</svg>
