<?xml version="1.0" encoding="UTF-8" standalone="no"?>
<!DOCTYPE svg PUBLIC "-//W3C//DTD SVG 1.1//EN"
 "http://www.w3.org/Graphics/SVG/1.1/DTD/svg11.dtd">
<!-- Generated by graphviz version 7.1.0 (20230121.1956)
 -->
<!-- Title: log_level.hpp Pages: 1 -->
<!--zoomable 467 -->

<svg id="main" version="1.1" xmlns="http://www.w3.org/2000/svg" xmlns:xlink="http://www.w3.org/1999/xlink" xml:space="preserve" onload="init(evt)">
<style type="text/css"><![CDATA[
.node, .edge {opacity: 0.7;}
.node.selected, .edge.selected {opacity: 1;}
.edge:hover path { stroke: red; }
.edge:hover polygon { stroke: red; fill: red; }
]]></style>

<defs>
  <circle id="rim" cx="0" cy="0" r="7"/>
  <circle id="rim2" cx="0" cy="0" r="3.5"/>
  <g id="zoomPlus">
    <use xlink:href="#rim" fill="#404040"><set attributeName="fill" to="#808080" begin="zoomplus.mouseover" end="zoomplus.mouseout"/></use>
    <path d="M-4,0h8M0,-4v8" fill="none" stroke="white" stroke-width="1.5" pointer-events="none"/>
  </g>
  <g id="zoomMin">
    <use xlink:href="#rim" fill="#404040"><set attributeName="fill" to="#808080" begin="zoomminus.mouseover" end="zoomminus.mouseout"/></use>
    <path d="M-4,0h8" fill="none" stroke="white" stroke-width="1.5" pointer-events="none"/>
  </g>
  <g id="arrowUp" transform="translate(30 24)">
    <use xlink:href="#rim"/>
    <path pointer-events="none" fill="none" stroke="white" stroke-width="1.5" d="M0,-3.0v7 M-2.5,-0.5L0,-3.0L2.5,-0.5"/>
  </g>
  <g id="arrowRight" transform="rotate(90) translate(36 -43)">
    <use xlink:href="#rim"/>
    <path pointer-events="none" fill="none" stroke="white" stroke-width="1.5" d="M0,-3.0v7 M-2.5,-0.5L0,-3.0L2.5,-0.5"/>
  </g>
  <g id="arrowDown" transform="rotate(180) translate(-30 -48)">
    <use xlink:href="#rim"/>
    <path pointer-events="none" fill="none" stroke="white" stroke-width="1.5" d="M0,-3.0v7 M-2.5,-0.5L0,-3.0L2.5,-0.5"/>
  </g>
  <g id="arrowLeft" transform="rotate(270) translate(-36 17)">
    <use xlink:href="#rim"/>
    <path pointer-events="none" fill="none" stroke="white" stroke-width="1.5" d="M0,-3.0v7 M-2.5,-0.5L0,-3.0L2.5,-0.5"/>
  </g>
  <g id="resetDef">
    <use xlink:href="#rim2" fill="#404040"><set attributeName="fill" to="#808080" begin="reset.mouseover" end="reset.mouseout"/></use>
  </g>
</defs>
<script type="application/ecmascript">
var viewWidth = 404;
var viewHeight = 467;
var sectionId = 'dynsection-1';
</script>
<script type="application/ecmascript" xlink:href="svg.min.js"/>
<svg id="graph" class="graph">
<g id="viewport">
<title>log_level.hpp</title>
<!-- Node1 -->
<g id="Node000001" class="node">
<title>Node1</title>
<g id="a_Node000001"><a xlink:title=" ">
<polygon fill="#999999" stroke="#666666" points="107,-459 33,-459 33,-440 107,-440 107,-459"/>
<text text-anchor="middle" x="70" y="-447" font-family="Helvetica,sans-Serif" font-size="10.00">log_level.hpp</text>
</a>
</g>
</g>
<!-- Node2 -->
<g id="Node000002" class="node">
<title>Node2</title>
<g id="a_Node000002"><a xlink:href="console__log__writer_8cpp.html" target="_top" xlink:title=" ">
<polygon fill="white" stroke="#666666" points="116,-239 0,-239 0,-220 116,-220 116,-239"/>
<text text-anchor="middle" x="58" y="-227" font-family="Helvetica,sans-Serif" font-size="10.00">console_log_writer.cpp</text>
</a>
</g>
</g>
<!-- Node1&#45;&gt;Node2 -->
<g id="edge1_Node000001_Node000002" class="edge">
<title>Node1&#45;&gt;Node2</title>
<g id="a_edge1_Node000001_Node000002"><a xlink:title=" ">
<path fill="none" stroke="#63b8ff" d="M65.29,-428.47C60.84,-408.48 54.5,-376.81 52,-349 48.34,-308.17 53.99,-259.21 56.7,-239.44"/>
<polygon fill="#63b8ff" stroke="#63b8ff" points="61.83,-429.08 67.48,-438.04 68.66,-427.51 61.83,-429.08"/>
</a>
</g>
</g>
<!-- Node3 -->
<g id="Node000003" class="node">
<title>Node3</title>
<g id="a_Node000003"><a xlink:href="log__message_8hpp.html" target="_top" xlink:title=" ">
<polygon fill="white" stroke="#666666" points="205.5,-404 112.5,-404 112.5,-385 205.5,-385 205.5,-404"/>
<text text-anchor="middle" x="159" y="-392" font-family="Helvetica,sans-Serif" font-size="10.00">log_message.hpp</text>
</a>
</g>
</g>
<!-- Node1&#45;&gt;Node3 -->
<g id="edge2_Node000001_Node000003" class="edge">
<title>Node1&#45;&gt;Node3</title>
<g id="a_edge2_Node000001_Node000003"><a xlink:title=" ">
<path fill="none" stroke="#63b8ff" d="M94.8,-433.73C110.66,-424.29 130.69,-412.36 144.13,-404.36"/>
<polygon fill="#63b8ff" stroke="#63b8ff" points="93.2,-430.61 86.4,-438.73 96.78,-436.63 93.2,-430.61"/>
</a>
</g>
</g>
<!-- Node4 -->
<g id="Node000004" class="node">
<title>Node4</title>
<g id="a_Node000004"><a xlink:href="log_8hpp.html" target="_top" xlink:title=" ">
<polygon fill="white" stroke="#666666" points="295,-294 247,-294 247,-275 295,-275 295,-294"/>
<text text-anchor="middle" x="271" y="-282" font-family="Helvetica,sans-Serif" font-size="10.00">log.hpp</text>
</a>
</g>
</g>
<!-- Node3&#45;&gt;Node4 -->
<g id="edge3_Node000003_Node000004" class="edge">
<title>Node3&#45;&gt;Node4</title>
<g id="a_edge3_Node000003_Node000004"><a xlink:title=" ">
<path fill="none" stroke="#63b8ff" d="M211.69,-380.79C229.15,-374.07 247.14,-363.99 259,-349 271.67,-332.99 272.39,-307.65 271.75,-294.34"/>
<polygon fill="#63b8ff" stroke="#63b8ff" points="210.65,-377.44 202.37,-384.05 212.96,-384.05 210.65,-377.44"/>
</a>
</g>
</g>
<!-- Node12 -->
<g id="Node000012" class="node">
<title>Node12</title>
<g id="a_Node000012"><a xlink:href="log__message_8cpp.html" target="_top" xlink:title=" ">
<polygon fill="white" stroke="#666666" points="154.5,-349 61.5,-349 61.5,-330 154.5,-330 154.5,-349"/>
<text text-anchor="middle" x="108" y="-337" font-family="Helvetica,sans-Serif" font-size="10.00">log_message.cpp</text>
</a>
</g>
</g>
<!-- Node3&#45;&gt;Node12 -->
<g id="edge12_Node000003_Node000012" class="edge">
<title>Node3&#45;&gt;Node12</title>
<g id="a_edge12_Node000003_Node000012"><a xlink:title=" ">
<path fill="none" stroke="#63b8ff" d="M142.64,-376.5C133.98,-367.5 123.7,-356.82 116.6,-349.44"/>
<polygon fill="#63b8ff" stroke="#63b8ff" points="140.07,-378.88 149.53,-383.66 145.12,-374.02 140.07,-378.88"/>
</a>
</g>
</g>
<!-- Node13 -->
<g id="Node000013" class="node">
<title>Node13</title>
<g id="a_Node000013"><a xlink:href="log__writer_8hpp.html" target="_top" xlink:title=" ">
<polygon fill="white" stroke="#666666" points="249.5,-349 172.5,-349 172.5,-330 249.5,-330 249.5,-349"/>
<text text-anchor="middle" x="211" y="-337" font-family="Helvetica,sans-Serif" font-size="10.00">log_writer.hpp</text>
</a>
</g>
</g>
<!-- Node3&#45;&gt;Node13 -->
<g id="edge13_Node000003_Node000013" class="edge">
<title>Node3&#45;&gt;Node13</title>
<g id="a_edge13_Node000003_Node000013"><a xlink:title=" ">
<path fill="none" stroke="#63b8ff" d="M175.41,-376.78C184.29,-367.72 194.91,-356.9 202.23,-349.44"/>
<polygon fill="#63b8ff" stroke="#63b8ff" points="173.15,-374.08 168.65,-383.67 178.15,-378.98 173.15,-374.08"/>
</a>
</g>
</g>
<!-- Node5 -->
<g id="Node000005" class="node">
<title>Node5</title>
<g id="a_Node000005"><a xlink:href="default__log_8hpp.html" target="_top" xlink:title=" ">
<polygon fill="white" stroke="#666666" points="306.5,-239 223.5,-239 223.5,-220 306.5,-220 306.5,-239"/>
<text text-anchor="middle" x="265" y="-227" font-family="Helvetica,sans-Serif" font-size="10.00">default_log.hpp</text>
</a>
</g>
</g>
<!-- Node4&#45;&gt;Node5 -->
<g id="edge4_Node000004_Node000005" class="edge">
<title>Node4&#45;&gt;Node5</title>
<g id="a_edge4_Node000004_Node000005"><a xlink:title=" ">
<path fill="none" stroke="#63b8ff" d="M268.72,-263.35C267.78,-255.1 266.75,-245.97 266.01,-239.44"/>
<polygon fill="#63b8ff" stroke="#63b8ff" points="265.24,-263.7 269.84,-273.24 272.19,-262.91 265.24,-263.7"/>
</a>
</g>
</g>
<!-- Node11 -->
<g id="Node000011" class="node">
<title>Node11</title>
<g id="a_Node000011"><a xlink:href="log_8cpp.html" target="_top" xlink:title=" ">
<polygon fill="white" stroke="#666666" points="373,-239 325,-239 325,-220 373,-220 373,-239"/>
<text text-anchor="middle" x="349" y="-227" font-family="Helvetica,sans-Serif" font-size="10.00">log.cpp</text>
</a>
</g>
</g>
<!-- Node4&#45;&gt;Node11 -->
<g id="edge11_Node000004_Node000011" class="edge">
<title>Node4&#45;&gt;Node11</title>
<g id="a_edge11_Node000004_Node000011"><a xlink:title=" ">
<path fill="none" stroke="#63b8ff" d="M293.53,-268.19C307.3,-258.84 324.41,-247.21 335.96,-239.36"/>
<polygon fill="#63b8ff" stroke="#63b8ff" points="291.79,-265.14 285.48,-273.66 295.72,-270.93 291.79,-265.14"/>
</a>
</g>
</g>
<!-- Node6 -->
<g id="Node000006" class="node">
<title>Node6</title>
<g id="a_Node000006"><a xlink:href="callback_8hpp.html" target="_top" xlink:title=" ">
<polygon fill="white" stroke="#666666" points="395.5,-184 324.5,-184 324.5,-165 395.5,-165 395.5,-184"/>
<text text-anchor="middle" x="360" y="-172" font-family="Helvetica,sans-Serif" font-size="10.00">callback.hpp</text>
</a>
</g>
</g>
<!-- Node5&#45;&gt;Node6 -->
<g id="edge5_Node000005_Node000006" class="edge">
<title>Node5&#45;&gt;Node6</title>
<g id="a_edge5_Node000005_Node000006"><a xlink:title=" ">
<path fill="none" stroke="#63b8ff" d="M290.99,-214C307.99,-204.52 329.65,-192.43 344.12,-184.36"/>
<polygon fill="#63b8ff" stroke="#63b8ff" points="289.46,-210.84 282.44,-218.77 292.88,-216.96 289.46,-210.84"/>
</a>
</g>
</g>
<!-- Node9 -->
<g id="Node000009" class="node">
<title>Node9</title>
<g id="a_Node000009"><a xlink:href="core_8hpp.html" target="_top" xlink:title=" ">
<polygon fill="white" stroke="#666666" points="222,-19 168,-19 168,0 222,0 222,-19"/>
<text text-anchor="middle" x="195" y="-7" font-family="Helvetica,sans-Serif" font-size="10.00">core.hpp</text>
</a>
</g>
</g>
<!-- Node5&#45;&gt;Node9 -->
<g id="edge9_Node000005_Node000009" class="edge">
<title>Node5&#45;&gt;Node9</title>
<g id="a_edge9_Node000005_Node000009"><a xlink:title=" ">
<path fill="none" stroke="#63b8ff" d="M240.57,-213.21C230.64,-205.67 220.1,-195.68 214,-184 184.41,-127.32 190.69,-46.21 193.81,-19.44"/>
<polygon fill="#63b8ff" stroke="#63b8ff" points="238.3,-215.89 248.49,-218.78 242.33,-210.16 238.3,-215.89"/>
</a>
</g>
</g>
<!-- Node10 -->
<g id="Node000010" class="node">
<title>Node10</title>
<g id="a_Node000010"><a xlink:href="default__log_8cpp.html" target="_top" xlink:title=" ">
<polygon fill="white" stroke="#666666" points="306.5,-184 223.5,-184 223.5,-165 306.5,-165 306.5,-184"/>
<text text-anchor="middle" x="265" y="-172" font-family="Helvetica,sans-Serif" font-size="10.00">default_log.cpp</text>
</a>
</g>
</g>
<!-- Node5&#45;&gt;Node10 -->
<g id="edge10_Node000005_Node000010" class="edge">
<title>Node5&#45;&gt;Node10</title>
<g id="a_edge10_Node000005_Node000010"><a xlink:title=" ">
<path fill="none" stroke="#63b8ff" d="M265,-208.35C265,-200.1 265,-190.97 265,-184.44"/>
<polygon fill="#63b8ff" stroke="#63b8ff" points="261.5,-208.23 265,-218.23 268.5,-208.23 261.5,-208.23"/>
</a>
</g>
</g>
<!-- Node7 -->
<g id="Node000007" class="node">
<title>Node7</title>
<g id="a_Node000007"><a xlink:href="event__sink_8hpp.html" target="_top" xlink:title=" ">
<polygon fill="white" stroke="#666666" points="380.5,-129 297.5,-129 297.5,-110 380.5,-110 380.5,-129"/>
<text text-anchor="middle" x="339" y="-117" font-family="Helvetica,sans-Serif" font-size="10.00">event_sink.hpp</text>
</a>
</g>
</g>
<!-- Node6&#45;&gt;Node7 -->
<g id="edge6_Node000006_Node000007" class="edge">
<title>Node6&#45;&gt;Node7</title>
<g id="a_edge6_Node000006_Node000007"><a xlink:title=" ">
<path fill="none" stroke="#63b8ff" d="M352.36,-154.22C349,-145.74 345.22,-136.21 342.54,-129.44"/>
<polygon fill="#63b8ff" stroke="#63b8ff" points="349.04,-155.33 355.97,-163.34 355.54,-152.75 349.04,-155.33"/>
</a>
</g>
</g>
<!-- Node8 -->
<g id="Node000008" class="node">
<title>Node8</title>
<g id="a_Node000008"><a xlink:href="event__dispatcher_8hpp.html" target="_top" xlink:title=" ">
<polygon fill="white" stroke="#666666" points="373.5,-74 264.5,-74 264.5,-55 373.5,-55 373.5,-74"/>
<text text-anchor="middle" x="319" y="-62" font-family="Helvetica,sans-Serif" font-size="10.00">event_dispatcher.hpp</text>
</a>
</g>
</g>
<!-- Node7&#45;&gt;Node8 -->
<g id="edge7_Node000007_Node000008" class="edge">
<title>Node7&#45;&gt;Node8</title>
<g id="a_edge7_Node000007_Node000008"><a xlink:title=" ">
<path fill="none" stroke="#63b8ff" d="M331.72,-99.22C328.53,-90.74 324.93,-81.21 322.37,-74.44"/>
<polygon fill="#63b8ff" stroke="#63b8ff" points="328.36,-100.21 335.16,-108.33 334.91,-97.74 328.36,-100.21"/>
</a>
</g>
</g>
<!-- Node8&#45;&gt;Node9 -->
<g id="edge8_Node000008_Node000009" class="edge">
<title>Node8&#45;&gt;Node9</title>
<g id="a_edge8_Node000008_Node000009"><a xlink:title=" ">
<path fill="none" stroke="#63b8ff" d="M287.56,-50.06C265.03,-40.43 235.33,-27.74 215.72,-19.36"/>
<polygon fill="#63b8ff" stroke="#63b8ff" points="286,-53.2 296.57,-53.91 288.75,-46.77 286,-53.2"/>
</a>
</g>
</g>
<!-- Node13&#45;&gt;Node4 -->
<g id="edge17_Node000013_Node000004" class="edge">
<title>Node13&#45;&gt;Node4</title>
<g id="a_edge17_Node000013_Node000004"><a xlink:title=" ">
<path fill="none" stroke="#63b8ff" d="M229.58,-322.09C239.94,-312.94 252.43,-301.9 260.97,-294.36"/>
<polygon fill="#63b8ff" stroke="#63b8ff" points="227.49,-319.26 222.31,-328.51 232.12,-324.51 227.49,-319.26"/>
</a>
</g>
</g>
<!-- Node14 -->
<g id="Node000014" class="node">
<title>Node14</title>
<g id="a_Node000014"><a xlink:href="console__log__writer_8hpp.html" target="_top" xlink:title=" ">
<polygon fill="white" stroke="#666666" points="215,-294 99,-294 99,-275 215,-275 215,-294"/>
<text text-anchor="middle" x="157" y="-282" font-family="Helvetica,sans-Serif" font-size="10.00">console_log_writer.hpp</text>
</a>
</g>
</g>
<!-- Node13&#45;&gt;Node14 -->
<g id="edge14_Node000013_Node000014" class="edge">
<title>Node13&#45;&gt;Node14</title>
<g id="a_edge14_Node000013_Node000014"><a xlink:title=" ">
<path fill="none" stroke="#63b8ff" d="M193.96,-321.78C184.74,-312.72 173.71,-301.9 166.11,-294.44"/>
<polygon fill="#63b8ff" stroke="#63b8ff" points="191.41,-324.18 201,-328.69 196.32,-319.19 191.41,-324.18"/>
</a>
</g>
</g>
<!-- Node14&#45;&gt;Node2 -->
<g id="edge15_Node000014_Node000002" class="edge">
<title>Node14&#45;&gt;Node2</title>
<g id="a_edge15_Node000014_Node000002"><a xlink:title=" ">
<path fill="none" stroke="#63b8ff" d="M130.16,-269.13C112.41,-259.63 89.7,-247.47 74.55,-239.36"/>
<polygon fill="#63b8ff" stroke="#63b8ff" points="128.4,-272.16 138.87,-273.79 131.71,-265.99 128.4,-272.16"/>
</a>
</g>
</g>
<!-- Node14&#45;&gt;Node9 -->
<g id="edge16_Node000014_Node000009" class="edge">
<title>Node14&#45;&gt;Node9</title>
<g id="a_edge16_Node000014_Node000009"><a xlink:title=" ">
<path fill="none" stroke="#63b8ff" d="M157,-263.23C157,-241.52 157,-206.08 157,-175.5 157,-175.5 157,-175.5 157,-118.5 157,-79.74 179.05,-37.37 189.56,-19.37"/>
<polygon fill="#63b8ff" stroke="#63b8ff" points="153.5,-263.03 157,-273.03 160.5,-263.03 153.5,-263.03"/>
</a>
</g>
</g>
</g>
</svg>

<g id="navigator" transform="translate(0 0)" fill="#404254">
  <rect fill="#f2f5e9" fill-opacity="0.5" stroke="#606060" stroke-width=".5" x="0" y="0" width="60" height="60"/>
  <use id="zoomplus" xlink:href="#zoomPlus" x="17" y="9" onmousedown="handleZoom(evt,'in')"/>
  <use id="zoomminus" xlink:href="#zoomMin" x="42" y="9" onmousedown="handleZoom(evt,'out')"/>
  <use id="reset" xlink:href="#resetDef" x="30" y="36" onmousedown="handleReset()"/>
   <use id="arrowup" xlink:href="#arrowUp" x="0" y="0" onmousedown="handlePan(0,-1)"/>
  <use id="arrowright" xlink:href="#arrowRight" x="0" y="0" onmousedown="handlePan(1,0)"/>
  <use id="arrowdown" xlink:href="#arrowDown" x="0" y="0" onmousedown="handlePan(0,1)"/>
  <use id="arrowleft" xlink:href="#arrowLeft" x="0" y="0" onmousedown="handlePan(-1,0)"/>
</g>
<svg viewBox="0 0 15 15" width="100%" height="30px" preserveAspectRatio="xMaxYMin meet">
 <g id="arrow_out" transform="scale(0.3 0.3)">
  <a xlink:href="log__level_8hpp__dep__incl_org.svg" target="_base">
   <rect id="button" ry="5" rx="5" y="6" x="6" height="38" width="38"
        fill="#f2f5e9" fill-opacity="0.5" stroke="#606060" stroke-width="1.0"/>
   <path id="arrow"
     d="M 11.500037,31.436501 C 11.940474,20.09759 22.043105,11.32322 32.158766,21.979434 L 37.068811,17.246167 C 37.068811,17.246167 37.088388,32 37.088388,32 L 22.160133,31.978069 C 22.160133,31.978069 26.997745,27.140456 26.997745,27.140456 C 18.528582,18.264221 13.291696,25.230495 11.500037,31.436501 z"
     style="fill:#404040;"/>
  </a>
 </g>
</svg>

<style type='text/css'>
<![CDATA[
[data-mouse-over-selected='false'] { opacity: 0.7; }
[data-mouse-over-selected='true']  { opacity: 1.0; }
]]>
</style>
<script type="application/ecmascript"><![CDATA[
document.addEventListener('DOMContentLoaded', (event) => {
  highlightEdges();
  highlightAdjacentNodes();
});
]]></script>
</svg>
