<?xml version="1.0" encoding="UTF-8" standalone="no"?>
<!DOCTYPE svg PUBLIC "-//W3C//DTD SVG 1.1//EN"
 "http://www.w3.org/Graphics/SVG/1.1/DTD/svg11.dtd">
<!-- Generated by graphviz version 9.0.0 (20230911.1827)
 -->
<!-- Title: log_message.hpp Pages: 1 -->
<svg width="679pt" height="469pt"
 viewBox="0.00 0.00 678.62 469.25" xmlns="http://www.w3.org/2000/svg" xmlns:xlink="http://www.w3.org/1999/xlink">
<g id="graph0" class="graph" transform="scale(1 1) rotate(0) translate(4 465.25)">
<title>log_message.hpp</title>
<!-- Node1 -->
<g id="Node000001" class="node">
<title>Node1</title>
<g id="a_Node000001"><a xlink:title=" ">
<polygon fill="#999999" stroke="#666666" points="480.38,-461.25 387.88,-461.25 387.88,-442 480.38,-442 480.38,-461.25"/>
<text text-anchor="middle" x="434.12" y="-447.75" font-family="Helvetica,sans-Serif" font-size="10.00">log_message.hpp</text>
</a>
</g>
</g>
<!-- Node2 -->
<g id="Node000002" class="node">
<title>Node2</title>
<g id="a_Node000002"><a xlink:href="log_8hpp.html" target="_top" xlink:title=" ">
<polygon fill="white" stroke="#666666" points="419.88,-350.75 372.38,-350.75 372.38,-331.5 419.88,-331.5 419.88,-350.75"/>
<text text-anchor="middle" x="396.12" y="-337.25" font-family="Helvetica,sans-Serif" font-size="10.00">log.hpp</text>
</a>
</g>
</g>
<!-- Node1&#45;&gt;Node2 -->
<g id="edge1_Node000001_Node000002" class="edge">
<title>Node1&#45;&gt;Node2</title>
<g id="a_edge1_Node000001_Node000002"><a xlink:title=" ">
<path fill="none" stroke="#63b8ff" d="M406.61,-435.6C395.96,-428.21 384.96,-418.24 379.12,-406 370.34,-387.56 381.99,-363.88 389.91,-351.17"/>
<polygon fill="#63b8ff" stroke="#63b8ff" points="404.53,-438.43 414.85,-440.84 408.29,-432.52 404.53,-438.43"/>
</a>
</g>
</g>
<!-- Node16 -->
<g id="Node000016" class="node">
<title>Node16</title>
<g id="a_Node000016"><a xlink:href="log__message_8cpp.html" target="_top" xlink:title=" ">
<polygon fill="white" stroke="#666666" points="480.38,-406 387.88,-406 387.88,-386.75 480.38,-386.75 480.38,-406"/>
<text text-anchor="middle" x="434.12" y="-392.5" font-family="Helvetica,sans-Serif" font-size="10.00">log_message.cpp</text>
</a>
</g>
</g>
<!-- Node1&#45;&gt;Node16 -->
<g id="edge15_Node000001_Node000016" class="edge">
<title>Node1&#45;&gt;Node16</title>
<g id="a_edge15_Node000001_Node000016"><a xlink:title=" ">
<path fill="none" stroke="#63b8ff" d="M434.12,-430.38C434.12,-422.09 434.12,-412.92 434.12,-406.36"/>
<polygon fill="#63b8ff" stroke="#63b8ff" points="430.63,-430.32 434.13,-440.32 437.63,-430.32 430.63,-430.32"/>
</a>
</g>
</g>
<!-- Node17 -->
<g id="Node000017" class="node">
<title>Node17</title>
<g id="a_Node000017"><a xlink:href="log__writer_8hpp.html" target="_top" xlink:title=" ">
<polygon fill="white" stroke="#666666" points="574.12,-406 498.12,-406 498.12,-386.75 574.12,-386.75 574.12,-406"/>
<text text-anchor="middle" x="536.12" y="-392.5" font-family="Helvetica,sans-Serif" font-size="10.00">log_writer.hpp</text>
</a>
</g>
</g>
<!-- Node1&#45;&gt;Node17 -->
<g id="edge16_Node000001_Node000017" class="edge">
<title>Node1&#45;&gt;Node17</title>
<g id="a_edge16_Node000001_Node000017"><a xlink:title=" ">
<path fill="none" stroke="#63b8ff" d="M461.45,-436.36C479.66,-426.86 503.03,-414.65 518.74,-406.45"/>
<polygon fill="#63b8ff" stroke="#63b8ff" points="460.01,-433.16 452.77,-440.89 463.25,-439.37 460.01,-433.16"/>
</a>
</g>
</g>
<!-- Node3 -->
<g id="Node000003" class="node">
<title>Node3</title>
<g id="a_Node000003"><a xlink:href="default__log_8hpp.html" target="_top" xlink:title=" ">
<polygon fill="white" stroke="#666666" points="372.12,-295.5 290.12,-295.5 290.12,-276.25 372.12,-276.25 372.12,-295.5"/>
<text text-anchor="middle" x="331.12" y="-282" font-family="Helvetica,sans-Serif" font-size="10.00">default_log.hpp</text>
</a>
</g>
</g>
<!-- Node2&#45;&gt;Node3 -->
<g id="edge2_Node000002_Node000003" class="edge">
<title>Node2&#45;&gt;Node3</title>
<g id="a_edge2_Node000002_Node000003"><a xlink:title=" ">
<path fill="none" stroke="#63b8ff" d="M376.34,-323.91C365.05,-314.67 351.33,-303.43 341.99,-295.77"/>
<polygon fill="#63b8ff" stroke="#63b8ff" points="373.97,-326.5 383.93,-330.13 378.41,-321.09 373.97,-326.5"/>
</a>
</g>
</g>
<!-- Node15 -->
<g id="Node000015" class="node">
<title>Node15</title>
<g id="a_Node000015"><a xlink:href="log_8cpp.html" target="_top" xlink:title=" ">
<polygon fill="white" stroke="#666666" points="437.88,-295.5 390.38,-295.5 390.38,-276.25 437.88,-276.25 437.88,-295.5"/>
<text text-anchor="middle" x="414.12" y="-282" font-family="Helvetica,sans-Serif" font-size="10.00">log.cpp</text>
</a>
</g>
</g>
<!-- Node2&#45;&gt;Node15 -->
<g id="edge14_Node000002_Node000015" class="edge">
<title>Node2&#45;&gt;Node15</title>
<g id="a_edge14_Node000002_Node000015"><a xlink:title=" ">
<path fill="none" stroke="#63b8ff" d="M402.77,-320.46C405.63,-312.02 408.82,-302.58 411.09,-295.86"/>
<polygon fill="#63b8ff" stroke="#63b8ff" points="399.47,-319.3 399.58,-329.9 406.1,-321.55 399.47,-319.3"/>
</a>
</g>
</g>
<!-- Node4 -->
<g id="Node000004" class="node">
<title>Node4</title>
<g id="a_Node000004"><a xlink:href="callback_8hpp.html" target="_top" xlink:title=" ">
<polygon fill="white" stroke="#666666" points="89.5,-240.25 18.75,-240.25 18.75,-221 89.5,-221 89.5,-240.25"/>
<text text-anchor="middle" x="54.12" y="-226.75" font-family="Helvetica,sans-Serif" font-size="10.00">callback.hpp</text>
</a>
</g>
</g>
<!-- Node3&#45;&gt;Node4 -->
<g id="edge3_Node000003_Node000004" class="edge">
<title>Node3&#45;&gt;Node4</title>
<g id="a_edge3_Node000003_Node000004"><a xlink:title=" ">
<path fill="none" stroke="#63b8ff" d="M278.67,-274.79C223.34,-264.15 137.65,-247.68 89.71,-238.47"/>
<polygon fill="#63b8ff" stroke="#63b8ff" points="277.69,-278.17 288.17,-276.62 279.01,-271.29 277.69,-278.17"/>
</a>
</g>
</g>
<!-- Node9 -->
<g id="Node000009" class="node">
<title>Node9</title>
<g id="a_Node000009"><a xlink:href="default__log_8cpp.html" target="_top" xlink:title=" ">
<polygon fill="white" stroke="#666666" points="568.12,-240.25 486.12,-240.25 486.12,-221 568.12,-221 568.12,-240.25"/>
<text text-anchor="middle" x="527.12" y="-226.75" font-family="Helvetica,sans-Serif" font-size="10.00">default_log.cpp</text>
</a>
</g>
</g>
<!-- Node3&#45;&gt;Node9 -->
<g id="edge8_Node000003_Node000009" class="edge">
<title>Node3&#45;&gt;Node9</title>
<g id="a_edge8_Node000003_Node000009"><a xlink:title=" ">
<path fill="none" stroke="#63b8ff" d="M375.03,-272.95C410.95,-263.19 460.99,-249.59 493.71,-240.7"/>
<polygon fill="#63b8ff" stroke="#63b8ff" points="374.57,-269.45 365.83,-275.45 376.4,-276.2 374.57,-269.45"/>
</a>
</g>
</g>
<!-- Node10 -->
<g id="Node000010" class="node">
<title>Node10</title>
<g id="a_Node000010"><a xlink:href="first__draft_2shader__module_8hpp.html" target="_top" xlink:title=" ">
<polygon fill="white" stroke="#666666" points="208.5,-240.25 107.75,-240.25 107.75,-221 208.5,-221 208.5,-240.25"/>
<text text-anchor="middle" x="158.12" y="-226.75" font-family="Helvetica,sans-Serif" font-size="10.00">shader_module.hpp</text>
</a>
</g>
</g>
<!-- Node3&#45;&gt;Node10 -->
<g id="edge9_Node000003_Node000010" class="edge">
<title>Node3&#45;&gt;Node10</title>
<g id="a_edge9_Node000003_Node000010"><a xlink:title=" ">
<path fill="none" stroke="#63b8ff" d="M291.13,-272.57C259.52,-262.84 216.12,-249.48 187.62,-240.7"/>
<polygon fill="#63b8ff" stroke="#63b8ff" points="289.74,-275.8 300.33,-275.4 291.8,-269.11 289.74,-275.8"/>
</a>
</g>
</g>
<!-- Node11 -->
<g id="Node000011" class="node">
<title>Node11</title>
<g id="a_Node000011"><a xlink:href="time_8cpp.html" target="_top" xlink:title=" ">
<polygon fill="white" stroke="#666666" points="279.88,-240.25 226.38,-240.25 226.38,-221 279.88,-221 279.88,-240.25"/>
<text text-anchor="middle" x="253.12" y="-226.75" font-family="Helvetica,sans-Serif" font-size="10.00">time.cpp</text>
</a>
</g>
</g>
<!-- Node3&#45;&gt;Node11 -->
<g id="edge10_Node000003_Node000011" class="edge">
<title>Node3&#45;&gt;Node11</title>
<g id="a_edge10_Node000003_Node000011"><a xlink:title=" ">
<path fill="none" stroke="#63b8ff" d="M308.65,-269.53C294.98,-260.2 277.98,-248.6 266.42,-240.7"/>
<polygon fill="#63b8ff" stroke="#63b8ff" points="306.41,-272.24 316.64,-274.99 310.36,-266.46 306.41,-272.24"/>
</a>
</g>
</g>
<!-- Node12 -->
<g id="Node000012" class="node">
<title>Node12</title>
<g id="a_Node000012"><a xlink:href="vulkan__utils_8hpp.html" target="_top" xlink:title=" ">
<polygon fill="white" stroke="#666666" points="384.38,-240.25 297.88,-240.25 297.88,-221 384.38,-221 384.38,-240.25"/>
<text text-anchor="middle" x="341.12" y="-226.75" font-family="Helvetica,sans-Serif" font-size="10.00">vulkan_utils.hpp</text>
</a>
</g>
</g>
<!-- Node3&#45;&gt;Node12 -->
<g id="edge11_Node000003_Node000012" class="edge">
<title>Node3&#45;&gt;Node12</title>
<g id="a_edge11_Node000003_Node000012"><a xlink:title=" ">
<path fill="none" stroke="#63b8ff" d="M334.87,-264.92C336.44,-256.55 338.19,-247.25 339.44,-240.61"/>
<polygon fill="#63b8ff" stroke="#63b8ff" points="331.46,-264.12 333.06,-274.59 338.34,-265.41 331.46,-264.12"/>
</a>
</g>
</g>
<!-- Node14 -->
<g id="Node000014" class="node">
<title>Node14</title>
<g id="a_Node000014"><a xlink:href="window_8cpp.html" target="_top" xlink:title=" ">
<polygon fill="white" stroke="#666666" points="468.25,-240.25 402,-240.25 402,-221 468.25,-221 468.25,-240.25"/>
<text text-anchor="middle" x="435.12" y="-226.75" font-family="Helvetica,sans-Serif" font-size="10.00">window.cpp</text>
</a>
</g>
</g>
<!-- Node3&#45;&gt;Node14 -->
<g id="edge13_Node000003_Node000014" class="edge">
<title>Node3&#45;&gt;Node14</title>
<g id="a_edge13_Node000003_Node000014"><a xlink:title=" ">
<path fill="none" stroke="#63b8ff" d="M358.99,-270.61C377.55,-261.11 401.38,-248.9 417.4,-240.7"/>
<polygon fill="#63b8ff" stroke="#63b8ff" points="357.42,-267.48 350.11,-275.15 360.61,-273.71 357.42,-267.48"/>
</a>
</g>
</g>
<!-- Node5 -->
<g id="Node000005" class="node">
<title>Node5</title>
<g id="a_Node000005"><a xlink:href="event__sink_8hpp.html" target="_top" xlink:title=" ">
<polygon fill="white" stroke="#666666" points="95.12,-185 13.12,-185 13.12,-165.75 95.12,-165.75 95.12,-185"/>
<text text-anchor="middle" x="54.12" y="-171.5" font-family="Helvetica,sans-Serif" font-size="10.00">event_sink.hpp</text>
</a>
</g>
</g>
<!-- Node4&#45;&gt;Node5 -->
<g id="edge4_Node000004_Node000005" class="edge">
<title>Node4&#45;&gt;Node5</title>
<g id="a_edge4_Node000004_Node000005"><a xlink:title=" ">
<path fill="none" stroke="#63b8ff" d="M54.12,-209.38C54.12,-201.09 54.12,-191.92 54.12,-185.36"/>
<polygon fill="#63b8ff" stroke="#63b8ff" points="50.63,-209.32 54.13,-219.32 57.63,-209.32 50.63,-209.32"/>
</a>
</g>
</g>
<!-- Node6 -->
<g id="Node000006" class="node">
<title>Node6</title>
<g id="a_Node000006"><a xlink:href="event__dispatcher_8hpp.html" target="_top" xlink:title=" ">
<polygon fill="white" stroke="#666666" points="108.25,-129.75 0,-129.75 0,-110.5 108.25,-110.5 108.25,-129.75"/>
<text text-anchor="middle" x="54.12" y="-116.25" font-family="Helvetica,sans-Serif" font-size="10.00">event_dispatcher.hpp</text>
</a>
</g>
</g>
<!-- Node5&#45;&gt;Node6 -->
<g id="edge5_Node000005_Node000006" class="edge">
<title>Node5&#45;&gt;Node6</title>
<g id="a_edge5_Node000005_Node000006"><a xlink:title=" ">
<path fill="none" stroke="#63b8ff" d="M54.12,-154.13C54.12,-145.84 54.12,-136.67 54.12,-130.11"/>
<polygon fill="#63b8ff" stroke="#63b8ff" points="50.63,-154.07 54.13,-164.07 57.63,-154.07 50.63,-154.07"/>
</a>
</g>
</g>
<!-- Node7 -->
<g id="Node000007" class="node">
<title>Node7</title>
<g id="a_Node000007"><a xlink:href="platform__layer_8hpp.html" target="_top" xlink:title=" ">
<polygon fill="white" stroke="#666666" points="101.88,-74.5 6.38,-74.5 6.38,-55.25 101.88,-55.25 101.88,-74.5"/>
<text text-anchor="middle" x="54.12" y="-61" font-family="Helvetica,sans-Serif" font-size="10.00">platform_layer.hpp</text>
</a>
</g>
</g>
<!-- Node6&#45;&gt;Node7 -->
<g id="edge6_Node000006_Node000007" class="edge">
<title>Node6&#45;&gt;Node7</title>
<g id="a_edge6_Node000006_Node000007"><a xlink:title=" ">
<path fill="none" stroke="#63b8ff" d="M54.12,-98.88C54.12,-90.59 54.12,-81.42 54.12,-74.86"/>
<polygon fill="#63b8ff" stroke="#63b8ff" points="50.63,-98.82 54.13,-108.82 57.63,-98.82 50.63,-98.82"/>
</a>
</g>
</g>
<!-- Node8 -->
<g id="Node000008" class="node">
<title>Node8</title>
<g id="a_Node000008"><a xlink:href="platform__layer_8cpp.html" target="_top" xlink:title=" ">
<polygon fill="white" stroke="#666666" points="101.88,-19.25 6.38,-19.25 6.38,0 101.88,0 101.88,-19.25"/>
<text text-anchor="middle" x="54.12" y="-5.75" font-family="Helvetica,sans-Serif" font-size="10.00">platform_layer.cpp</text>
</a>
</g>
</g>
<!-- Node7&#45;&gt;Node8 -->
<g id="edge7_Node000007_Node000008" class="edge">
<title>Node7&#45;&gt;Node8</title>
<g id="a_edge7_Node000007_Node000008"><a xlink:title=" ">
<path fill="none" stroke="#63b8ff" d="M54.12,-43.63C54.12,-35.34 54.12,-26.17 54.12,-19.61"/>
<polygon fill="#63b8ff" stroke="#63b8ff" points="50.63,-43.57 54.13,-53.57 57.63,-43.57 50.63,-43.57"/>
</a>
</g>
</g>
<!-- Node13 -->
<g id="Node000013" class="node">
<title>Node13</title>
<g id="a_Node000013"><a xlink:href="vulkan__instance_8cpp.html" target="_top" xlink:title=" ">
<polygon fill="white" stroke="#666666" points="393.75,-185 288.5,-185 288.5,-165.75 393.75,-165.75 393.75,-185"/>
<text text-anchor="middle" x="341.12" y="-171.5" font-family="Helvetica,sans-Serif" font-size="10.00">vulkan_instance.cpp</text>
</a>
</g>
</g>
<!-- Node12&#45;&gt;Node13 -->
<g id="edge12_Node000012_Node000013" class="edge">
<title>Node12&#45;&gt;Node13</title>
<g id="a_edge12_Node000012_Node000013"><a xlink:title=" ">
<path fill="none" stroke="#63b8ff" d="M341.12,-209.38C341.12,-201.09 341.12,-191.92 341.12,-185.36"/>
<polygon fill="#63b8ff" stroke="#63b8ff" points="337.63,-209.32 341.13,-219.32 344.63,-209.32 337.63,-209.32"/>
</a>
</g>
</g>
<!-- Node17&#45;&gt;Node2 -->
<g id="edge20_Node000017_Node000002" class="edge">
<title>Node17&#45;&gt;Node2</title>
<g id="a_edge20_Node000017_Node000002"><a xlink:title=" ">
<path fill="none" stroke="#63b8ff" d="M501.73,-382.29C476.35,-372.64 442.46,-359.75 419.99,-351.2"/>
<polygon fill="#63b8ff" stroke="#63b8ff" points="500.37,-385.52 510.96,-385.8 502.86,-378.98 500.37,-385.52"/>
</a>
</g>
</g>
<!-- Node18 -->
<g id="Node000018" class="node">
<title>Node18</title>
<g id="a_Node000018"><a xlink:href="console__log__writer_8hpp.html" target="_top" xlink:title=" ">
<polygon fill="white" stroke="#666666" points="593.62,-350.75 478.62,-350.75 478.62,-331.5 593.62,-331.5 593.62,-350.75"/>
<text text-anchor="middle" x="536.12" y="-337.25" font-family="Helvetica,sans-Serif" font-size="10.00">console_log_writer.hpp</text>
</a>
</g>
</g>
<!-- Node17&#45;&gt;Node18 -->
<g id="edge17_Node000017_Node000018" class="edge">
<title>Node17&#45;&gt;Node18</title>
<g id="a_edge17_Node000017_Node000018"><a xlink:title=" ">
<path fill="none" stroke="#63b8ff" d="M536.12,-375.13C536.12,-366.84 536.12,-357.67 536.12,-351.11"/>
<polygon fill="#63b8ff" stroke="#63b8ff" points="532.63,-375.07 536.13,-385.07 539.63,-375.07 532.63,-375.07"/>
</a>
</g>
</g>
<!-- Node18&#45;&gt;Node9 -->
<g id="edge19_Node000018_Node000009" class="edge">
<title>Node18&#45;&gt;Node9</title>
<g id="a_edge19_Node000018_Node000009"><a xlink:title=" ">
<path fill="none" stroke="#63b8ff" d="M534.44,-319.78C532.47,-296.05 529.3,-257.89 527.87,-240.63"/>
<polygon fill="#63b8ff" stroke="#63b8ff" points="530.95,-320.06 535.26,-329.74 537.92,-319.48 530.95,-320.06"/>
</a>
</g>
</g>
<!-- Node19 -->
<g id="Node000019" class="node">
<title>Node19</title>
<g id="a_Node000019"><a xlink:href="console__log__writer_8cpp.html" target="_top" xlink:title=" ">
<polygon fill="white" stroke="#666666" points="670.62,-295.5 555.62,-295.5 555.62,-276.25 670.62,-276.25 670.62,-295.5"/>
<text text-anchor="middle" x="613.12" y="-282" font-family="Helvetica,sans-Serif" font-size="10.00">console_log_writer.cpp</text>
</a>
</g>
</g>
<!-- Node18&#45;&gt;Node19 -->
<g id="edge18_Node000018_Node000019" class="edge">
<title>Node18&#45;&gt;Node19</title>
<g id="a_edge18_Node000018_Node000019"><a xlink:title=" ">
<path fill="none" stroke="#63b8ff" d="M558.31,-324.78C571.81,-315.45 588.58,-303.85 600,-295.95"/>
<polygon fill="#63b8ff" stroke="#63b8ff" points="556.67,-321.66 550.43,-330.23 560.65,-327.42 556.67,-321.66"/>
</a>
</g>
</g>
</g>
</svg>
