<?xml version="1.0" encoding="UTF-8" standalone="no"?>
<!DOCTYPE svg PUBLIC "-//W3C//DTD SVG 1.1//EN"
 "http://www.w3.org/Graphics/SVG/1.1/DTD/svg11.dtd">
<!-- Generated by graphviz version 9.0.0 (20230911.1827)
 -->
<!-- Title: log_level.hpp Pages: 1 -->
<svg width="970pt" height="690pt"
 viewBox="0.00 0.00 970.12 690.25" xmlns="http://www.w3.org/2000/svg" xmlns:xlink="http://www.w3.org/1999/xlink">
<g id="graph0" class="graph" transform="scale(1 1) rotate(0) translate(4 686.25)">
<title>log_level.hpp</title>
<!-- Node1 -->
<g id="Node000001" class="node">
<title>Node1</title>
<g id="a_Node000001"><a xlink:title=" ">
<polygon fill="#999999" stroke="#666666" points="216.24,-682.25 143.24,-682.25 143.24,-663 216.24,-663 216.24,-682.25"/>
<text text-anchor="middle" x="179.74" y="-668.75" font-family="Helvetica,sans-Serif" font-size="10.00">log_level.hpp</text>
</a>
</g>
</g>
<!-- Node2 -->
<g id="Node000002" class="node">
<title>Node2</title>
<g id="a_Node000002"><a xlink:href="console__log__writer_8cpp.html" target="_top" xlink:title=" ">
<polygon fill="white" stroke="#666666" points="200.24,-461.25 85.24,-461.25 85.24,-442 200.24,-442 200.24,-461.25"/>
<text text-anchor="middle" x="142.74" y="-447.75" font-family="Helvetica,sans-Serif" font-size="10.00">console_log_writer.cpp</text>
</a>
</g>
</g>
<!-- Node1&#45;&gt;Node2 -->
<g id="edge1_Node000001_Node000002" class="edge">
<title>Node1&#45;&gt;Node2</title>
<g id="a_edge1_Node000001_Node000002"><a xlink:title=" ">
<path fill="none" stroke="#63b8ff" d="M176.37,-651.65C168.59,-605.61 149.64,-493.47 144.21,-461.35"/>
<polygon fill="#63b8ff" stroke="#63b8ff" points="172.88,-652 177.99,-661.28 179.78,-650.83 172.88,-652"/>
</a>
</g>
</g>
<!-- Node3 -->
<g id="Node000003" class="node">
<title>Node3</title>
<g id="a_Node000003"><a xlink:href="log__message_8hpp.html" target="_top" xlink:title=" ">
<polygon fill="white" stroke="#666666" points="312.99,-627 220.49,-627 220.49,-607.75 312.99,-607.75 312.99,-627"/>
<text text-anchor="middle" x="266.74" y="-613.5" font-family="Helvetica,sans-Serif" font-size="10.00">log_message.hpp</text>
</a>
</g>
</g>
<!-- Node1&#45;&gt;Node3 -->
<g id="edge2_Node000001_Node000003" class="edge">
<title>Node1&#45;&gt;Node3</title>
<g id="a_edge2_Node000001_Node000003"><a xlink:title=" ">
<path fill="none" stroke="#63b8ff" d="M203.92,-656.82C219.32,-647.4 238.76,-635.5 251.91,-627.45"/>
<polygon fill="#63b8ff" stroke="#63b8ff" points="202.49,-653.6 195.79,-661.8 206.15,-659.57 202.49,-653.6"/>
</a>
</g>
</g>
<!-- Node4 -->
<g id="Node000004" class="node">
<title>Node4</title>
<g id="a_Node000004"><a xlink:href="log_8hpp.html" target="_top" xlink:title=" ">
<polygon fill="white" stroke="#666666" points="418.49,-516.5 370.99,-516.5 370.99,-497.25 418.49,-497.25 418.49,-516.5"/>
<text text-anchor="middle" x="394.74" y="-503" font-family="Helvetica,sans-Serif" font-size="10.00">log.hpp</text>
</a>
</g>
</g>
<!-- Node3&#45;&gt;Node4 -->
<g id="edge3_Node000003_Node000004" class="edge">
<title>Node3&#45;&gt;Node4</title>
<g id="a_edge3_Node000003_Node000004"><a xlink:title=" ">
<path fill="none" stroke="#63b8ff" d="M324.09,-606.16C345.04,-599.65 367.16,-589.04 381.74,-571.75 395.02,-556.01 395.99,-530.36 395.44,-516.85"/>
<polygon fill="#63b8ff" stroke="#63b8ff" points="323.41,-602.72 314.74,-608.8 325.31,-609.46 323.41,-602.72"/>
</a>
</g>
</g>
<!-- Node36 -->
<g id="Node000036" class="node">
<title>Node36</title>
<g id="a_Node000036"><a xlink:href="log__message_8cpp.html" target="_top" xlink:title=" ">
<polygon fill="white" stroke="#666666" points="372.99,-571.75 280.49,-571.75 280.49,-552.5 372.99,-552.5 372.99,-571.75"/>
<text text-anchor="middle" x="326.74" y="-558.25" font-family="Helvetica,sans-Serif" font-size="10.00">log_message.cpp</text>
</a>
</g>
</g>
<!-- Node3&#45;&gt;Node36 -->
<g id="edge54_Node000003_Node000036" class="edge">
<title>Node3&#45;&gt;Node36</title>
<g id="a_edge54_Node000003_Node000036"><a xlink:title=" ">
<path fill="none" stroke="#63b8ff" d="M285.32,-599.89C295.68,-590.69 308.17,-579.6 316.71,-572.02"/>
<polygon fill="#63b8ff" stroke="#63b8ff" points="283.21,-597.08 278.05,-606.34 287.85,-602.32 283.21,-597.08"/>
</a>
</g>
</g>
<!-- Node37 -->
<g id="Node000037" class="node">
<title>Node37</title>
<g id="a_Node000037"><a xlink:href="log__writer_8hpp.html" target="_top" xlink:title=" ">
<polygon fill="white" stroke="#666666" points="262.74,-571.75 186.74,-571.75 186.74,-552.5 262.74,-552.5 262.74,-571.75"/>
<text text-anchor="middle" x="224.74" y="-558.25" font-family="Helvetica,sans-Serif" font-size="10.00">log_writer.hpp</text>
</a>
</g>
</g>
<!-- Node3&#45;&gt;Node37 -->
<g id="edge55_Node000003_Node000037" class="edge">
<title>Node3&#45;&gt;Node37</title>
<g id="a_edge55_Node000003_Node000037"><a xlink:title=" ">
<path fill="none" stroke="#63b8ff" d="M252.82,-598.72C245.79,-589.81 237.55,-579.37 231.83,-572.11"/>
<polygon fill="#63b8ff" stroke="#63b8ff" points="249.93,-600.71 258.87,-606.39 255.42,-596.37 249.93,-600.71"/>
</a>
</g>
</g>
<!-- Node5 -->
<g id="Node000005" class="node">
<title>Node5</title>
<g id="a_Node000005"><a xlink:href="default__log_8hpp.html" target="_top" xlink:title=" ">
<polygon fill="white" stroke="#666666" points="432.74,-461.25 350.74,-461.25 350.74,-442 432.74,-442 432.74,-461.25"/>
<text text-anchor="middle" x="391.74" y="-447.75" font-family="Helvetica,sans-Serif" font-size="10.00">default_log.hpp</text>
</a>
</g>
</g>
<!-- Node4&#45;&gt;Node5 -->
<g id="edge4_Node000004_Node000005" class="edge">
<title>Node4&#45;&gt;Node5</title>
<g id="a_edge4_Node000004_Node000005"><a xlink:title=" ">
<path fill="none" stroke="#63b8ff" d="M393.6,-485.63C393.13,-477.34 392.62,-468.17 392.25,-461.61"/>
<polygon fill="#63b8ff" stroke="#63b8ff" points="390.1,-485.78 394.16,-495.57 397.09,-485.39 390.1,-485.78"/>
</a>
</g>
</g>
<!-- Node35 -->
<g id="Node000035" class="node">
<title>Node35</title>
<g id="a_Node000035"><a xlink:href="log_8cpp.html" target="_top" xlink:title=" ">
<polygon fill="white" stroke="#666666" points="498.49,-461.25 450.99,-461.25 450.99,-442 498.49,-442 498.49,-461.25"/>
<text text-anchor="middle" x="474.74" y="-447.75" font-family="Helvetica,sans-Serif" font-size="10.00">log.cpp</text>
</a>
</g>
</g>
<!-- Node4&#45;&gt;Node35 -->
<g id="edge53_Node000004_Node000035" class="edge">
<title>Node4&#45;&gt;Node35</title>
<g id="a_edge53_Node000004_Node000035"><a xlink:title=" ">
<path fill="none" stroke="#63b8ff" d="M417.79,-490.53C431.81,-481.2 449.24,-469.6 461.1,-461.7"/>
<polygon fill="#63b8ff" stroke="#63b8ff" points="415.96,-487.55 409.57,-496 419.84,-493.38 415.96,-487.55"/>
</a>
</g>
</g>
<!-- Node6 -->
<g id="Node000006" class="node">
<title>Node6</title>
<g id="a_Node000006"><a xlink:href="callback_8hpp.html" target="_top" xlink:title=" ">
<polygon fill="white" stroke="#666666" points="427.12,-406 356.37,-406 356.37,-386.75 427.12,-386.75 427.12,-406"/>
<text text-anchor="middle" x="391.74" y="-392.5" font-family="Helvetica,sans-Serif" font-size="10.00">callback.hpp</text>
</a>
</g>
</g>
<!-- Node5&#45;&gt;Node6 -->
<g id="edge5_Node000005_Node000006" class="edge">
<title>Node5&#45;&gt;Node6</title>
<g id="a_edge5_Node000005_Node000006"><a xlink:title=" ">
<path fill="none" stroke="#63b8ff" d="M391.74,-430.38C391.74,-422.09 391.74,-412.92 391.74,-406.36"/>
<polygon fill="#63b8ff" stroke="#63b8ff" points="388.24,-430.32 391.74,-440.32 395.24,-430.32 388.24,-430.32"/>
</a>
</g>
</g>
<!-- Node9 -->
<g id="Node000009" class="node">
<title>Node9</title>
<g id="a_Node000009"><a xlink:href="core_8hpp.html" target="_top" xlink:title=" ">
<polygon fill="white" stroke="#666666" points="399.49,-240.25 345.99,-240.25 345.99,-221 399.49,-221 399.49,-240.25"/>
<text text-anchor="middle" x="372.74" y="-226.75" font-family="Helvetica,sans-Serif" font-size="10.00">core.hpp</text>
</a>
</g>
</g>
<!-- Node5&#45;&gt;Node9 -->
<g id="edge51_Node000005_Node000009" class="edge">
<title>Node5&#45;&gt;Node9</title>
<g id="a_edge51_Node000005_Node000009"><a xlink:title=" ">
<path fill="none" stroke="#63b8ff" d="M413.61,-434.72C422.23,-427.11 431.14,-417.21 435.74,-406 457.62,-352.65 462.23,-327.47 435.74,-276.25 427.18,-259.7 409.34,-247.97 394.83,-240.7"/>
<polygon fill="#63b8ff" stroke="#63b8ff" points="411.66,-431.79 406.11,-440.82 416.08,-437.22 411.66,-431.79"/>
</a>
</g>
</g>
<!-- Node34 -->
<g id="Node000034" class="node">
<title>Node34</title>
<g id="a_Node000034"><a xlink:href="default__log_8cpp.html" target="_top" xlink:title=" ">
<polygon fill="white" stroke="#666666" points="338.74,-406 256.74,-406 256.74,-386.75 338.74,-386.75 338.74,-406"/>
<text text-anchor="middle" x="297.74" y="-392.5" font-family="Helvetica,sans-Serif" font-size="10.00">default_log.cpp</text>
</a>
</g>
</g>
<!-- Node5&#45;&gt;Node34 -->
<g id="edge52_Node000005_Node000034" class="edge">
<title>Node5&#45;&gt;Node34</title>
<g id="a_edge52_Node000005_Node000034"><a xlink:title=" ">
<path fill="none" stroke="#63b8ff" d="M366.09,-436.09C349.38,-426.63 328.1,-414.58 313.76,-406.45"/>
<polygon fill="#63b8ff" stroke="#63b8ff" points="364.05,-438.96 374.48,-440.85 367.5,-432.87 364.05,-438.96"/>
</a>
</g>
</g>
<!-- Node7 -->
<g id="Node000007" class="node">
<title>Node7</title>
<g id="a_Node000007"><a xlink:href="event__sink_8hpp.html" target="_top" xlink:title=" ">
<polygon fill="white" stroke="#666666" points="419.74,-350.75 337.74,-350.75 337.74,-331.5 419.74,-331.5 419.74,-350.75"/>
<text text-anchor="middle" x="378.74" y="-337.25" font-family="Helvetica,sans-Serif" font-size="10.00">event_sink.hpp</text>
</a>
</g>
</g>
<!-- Node6&#45;&gt;Node7 -->
<g id="edge6_Node000006_Node000007" class="edge">
<title>Node6&#45;&gt;Node7</title>
<g id="a_edge6_Node000006_Node000007"><a xlink:title=" ">
<path fill="none" stroke="#63b8ff" d="M386.87,-375.42C384.83,-367.05 382.56,-357.75 380.93,-351.11"/>
<polygon fill="#63b8ff" stroke="#63b8ff" points="383.46,-376.23 389.23,-385.11 390.26,-374.57 383.46,-376.23"/>
</a>
</g>
</g>
<!-- Node8 -->
<g id="Node000008" class="node">
<title>Node8</title>
<g id="a_Node000008"><a xlink:href="event__dispatcher_8hpp.html" target="_top" xlink:title=" ">
<polygon fill="white" stroke="#666666" points="426.87,-295.5 318.62,-295.5 318.62,-276.25 426.87,-276.25 426.87,-295.5"/>
<text text-anchor="middle" x="372.74" y="-282" font-family="Helvetica,sans-Serif" font-size="10.00">event_dispatcher.hpp</text>
</a>
</g>
</g>
<!-- Node7&#45;&gt;Node8 -->
<g id="edge7_Node000007_Node000008" class="edge">
<title>Node7&#45;&gt;Node8</title>
<g id="a_edge7_Node000007_Node000008"><a xlink:title=" ">
<path fill="none" stroke="#63b8ff" d="M376.49,-320.17C375.55,-311.8 374.5,-302.5 373.75,-295.86"/>
<polygon fill="#63b8ff" stroke="#63b8ff" points="372.98,-320.28 377.58,-329.83 379.94,-319.5 372.98,-320.28"/>
</a>
</g>
</g>
<!-- Node8&#45;&gt;Node9 -->
<g id="edge8_Node000008_Node000009" class="edge">
<title>Node8&#45;&gt;Node9</title>
<g id="a_edge8_Node000008_Node000009"><a xlink:title=" ">
<path fill="none" stroke="#63b8ff" d="M372.74,-264.63C372.74,-256.34 372.74,-247.17 372.74,-240.61"/>
<polygon fill="#63b8ff" stroke="#63b8ff" points="369.24,-264.57 372.74,-274.57 376.24,-264.57 369.24,-264.57"/>
</a>
</g>
</g>
<!-- Node10 -->
<g id="Node000010" class="node">
<title>Node10</title>
<g id="a_Node000010"><a xlink:href="buffer_8hpp.html" target="_top" xlink:title=" ">
<polygon fill="white" stroke="#666666" points="320.12,-129.75 261.37,-129.75 261.37,-110.5 320.12,-110.5 320.12,-129.75"/>
<text text-anchor="middle" x="290.74" y="-116.25" font-family="Helvetica,sans-Serif" font-size="10.00">buffer.hpp</text>
</a>
</g>
</g>
<!-- Node9&#45;&gt;Node10 -->
<g id="edge9_Node000009_Node000010" class="edge">
<title>Node9&#45;&gt;Node10</title>
<g id="a_edge9_Node000009_Node000010"><a xlink:title=" ">
<path fill="none" stroke="#63b8ff" d="M370.19,-209.23C367.72,-195.87 362.93,-178.58 353.74,-165.75 342.42,-149.95 323.71,-137.73 309.62,-130.11"/>
<polygon fill="#63b8ff" stroke="#63b8ff" points="366.73,-209.7 371.69,-219.06 373.65,-208.65 366.73,-209.7"/>
</a>
</g>
</g>
<!-- Node13 -->
<g id="Node000013" class="node">
<title>Node13</title>
<g id="a_Node000013"><a xlink:href="deprecated_2buffer_8hpp.html" target="_top" xlink:title=" ">
<polygon fill="white" stroke="#666666" points="77.12,-185 18.37,-185 18.37,-165.75 77.12,-165.75 77.12,-185"/>
<text text-anchor="middle" x="47.74" y="-171.5" font-family="Helvetica,sans-Serif" font-size="10.00">buffer.hpp</text>
</a>
</g>
</g>
<!-- Node9&#45;&gt;Node13 -->
<g id="edge12_Node000009_Node000013" class="edge">
<title>Node9&#45;&gt;Node13</title>
<g id="a_edge12_Node000009_Node000013"><a xlink:title=" ">
<path fill="none" stroke="#63b8ff" d="M334.72,-224.11C280.47,-216.14 177.78,-200.61 90.74,-185 86.39,-184.22 81.81,-183.35 77.32,-182.47"/>
<polygon fill="#63b8ff" stroke="#63b8ff" points="333.95,-227.54 344.35,-225.53 334.97,-220.61 333.95,-227.54"/>
</a>
</g>
</g>
<!-- Node14 -->
<g id="Node000014" class="node">
<title>Node14</title>
<g id="a_Node000014"><a xlink:href="command__queue_8hpp.html" target="_top" xlink:title=" ">
<polygon fill="white" stroke="#666666" points="230.24,-74.5 121.24,-74.5 121.24,-55.25 230.24,-55.25 230.24,-74.5"/>
<text text-anchor="middle" x="175.74" y="-61" font-family="Helvetica,sans-Serif" font-size="10.00">command_queue.hpp</text>
</a>
</g>
</g>
<!-- Node9&#45;&gt;Node14 -->
<g id="edge13_Node000009_Node000014" class="edge">
<title>Node9&#45;&gt;Node14</title>
<g id="a_edge13_Node000009_Node000014"><a xlink:title=" ">
<path fill="none" stroke="#63b8ff" d="M334.39,-228.53C271.35,-225.83 150.15,-216.56 123.74,-185 94.49,-150.04 143.78,-96.08 165.87,-74.87"/>
<polygon fill="#63b8ff" stroke="#63b8ff" points="334.18,-232.02 344.3,-228.91 334.45,-225.03 334.18,-232.02"/>
</a>
</g>
</g>
<!-- Node15 -->
<g id="Node000015" class="node">
<title>Node15</title>
<g id="a_Node000015"><a xlink:href="deprecated_2command__queue_8hpp.html" target="_top" xlink:title=" ">
<polygon fill="white" stroke="#666666" points="242.24,-185 133.24,-185 133.24,-165.75 242.24,-165.75 242.24,-185"/>
<text text-anchor="middle" x="187.74" y="-171.5" font-family="Helvetica,sans-Serif" font-size="10.00">command_queue.hpp</text>
</a>
</g>
</g>
<!-- Node9&#45;&gt;Node15 -->
<g id="edge16_Node000009_Node000015" class="edge">
<title>Node9&#45;&gt;Node15</title>
<g id="a_edge16_Node000009_Node000015"><a xlink:title=" ">
<path fill="none" stroke="#63b8ff" d="M334.92,-218.74C300.85,-208.93 251.33,-194.68 219.32,-185.47"/>
<polygon fill="#63b8ff" stroke="#63b8ff" points="333.81,-222.06 344.39,-221.46 335.74,-215.33 333.81,-222.06"/>
</a>
</g>
</g>
<!-- Node16 -->
<g id="Node000016" class="node">
<title>Node16</title>
<g id="a_Node000016"><a xlink:href="deprecated_2device__info_8hpp.html" target="_top" xlink:title=" ">
<polygon fill="white" stroke="#666666" points="344.87,-185 260.62,-185 260.62,-165.75 344.87,-165.75 344.87,-185"/>
<text text-anchor="middle" x="302.74" y="-171.5" font-family="Helvetica,sans-Serif" font-size="10.00">device_info.hpp</text>
</a>
</g>
</g>
<!-- Node9&#45;&gt;Node16 -->
<g id="edge17_Node000009_Node000016" class="edge">
<title>Node9&#45;&gt;Node16</title>
<g id="a_edge17_Node000009_Node000016"><a xlink:title=" ">
<path fill="none" stroke="#63b8ff" d="M351.79,-213.69C339.57,-204.39 324.6,-193.01 314.44,-185.27"/>
<polygon fill="#63b8ff" stroke="#63b8ff" points="349.58,-216.41 359.66,-219.68 353.82,-210.84 349.58,-216.41"/>
</a>
</g>
</g>
<!-- Node17 -->
<g id="Node000017" class="node">
<title>Node17</title>
<g id="a_Node000017"><a xlink:href="device__info_8hpp.html" target="_top" xlink:title=" ">
<polygon fill="white" stroke="#666666" points="102.87,-74.5 18.62,-74.5 18.62,-55.25 102.87,-55.25 102.87,-74.5"/>
<text text-anchor="middle" x="60.74" y="-61" font-family="Helvetica,sans-Serif" font-size="10.00">device_info.hpp</text>
</a>
</g>
</g>
<!-- Node9&#45;&gt;Node17 -->
<g id="edge18_Node000009_Node000017" class="edge">
<title>Node9&#45;&gt;Node17</title>
<g id="a_edge18_Node000009_Node000017"><a xlink:title=" ">
<path fill="none" stroke="#63b8ff" d="M334.21,-227.73C245.15,-222.94 31.01,-209.04 9.74,-185 -20.37,-150.96 28.79,-96.47 50.87,-75"/>
<polygon fill="#63b8ff" stroke="#63b8ff" points="333.98,-231.22 344.15,-228.25 334.35,-224.23 333.98,-231.22"/>
</a>
</g>
</g>
<!-- Node20 -->
<g id="Node000020" class="node">
<title>Node20</title>
<g id="a_Node000020"><a xlink:href="device__resource_8hpp.html" target="_top" xlink:title=" ">
<polygon fill="white" stroke="#666666" points="506.74,-185 400.74,-185 400.74,-165.75 506.74,-165.75 506.74,-185"/>
<text text-anchor="middle" x="453.74" y="-171.5" font-family="Helvetica,sans-Serif" font-size="10.00">device_resource.hpp</text>
</a>
</g>
</g>
<!-- Node9&#45;&gt;Node20 -->
<g id="edge23_Node000009_Node000020" class="edge">
<title>Node9&#45;&gt;Node20</title>
<g id="a_edge23_Node000009_Node000020"><a xlink:title=" ">
<path fill="none" stroke="#63b8ff" d="M396.08,-214.28C410.28,-204.95 427.93,-193.35 439.93,-185.45"/>
<polygon fill="#63b8ff" stroke="#63b8ff" points="394.18,-211.34 387.75,-219.76 398.02,-217.19 394.18,-211.34"/>
</a>
</g>
</g>
<!-- Node25 -->
<g id="Node000025" class="node">
<title>Node25</title>
<g id="a_Node000025"><a xlink:href="deprecated_2format_8hpp.html" target="_top" xlink:title=" ">
<polygon fill="white" stroke="#666666" points="586.99,-185 524.49,-185 524.49,-165.75 586.99,-165.75 586.99,-185"/>
<text text-anchor="middle" x="555.74" y="-171.5" font-family="Helvetica,sans-Serif" font-size="10.00">format.hpp</text>
</a>
</g>
</g>
<!-- Node9&#45;&gt;Node25 -->
<g id="edge33_Node000009_Node000025" class="edge">
<title>Node9&#45;&gt;Node25</title>
<g id="a_edge33_Node000009_Node000025"><a xlink:title=" ">
<path fill="none" stroke="#63b8ff" d="M410.56,-218.62C444.31,-208.8 493.12,-194.6 524.64,-185.42"/>
<polygon fill="#63b8ff" stroke="#63b8ff" points="409.82,-215.19 401.2,-221.34 411.78,-221.91 409.82,-215.19"/>
</a>
</g>
</g>
<!-- Node26 -->
<g id="Node000026" class="node">
<title>Node26</title>
<g id="a_Node000026"><a xlink:href="format_8hpp.html" target="_top" xlink:title=" ">
<polygon fill="white" stroke="#666666" points="667.99,-185 605.49,-185 605.49,-165.75 667.99,-165.75 667.99,-185"/>
<text text-anchor="middle" x="636.74" y="-171.5" font-family="Helvetica,sans-Serif" font-size="10.00">format.hpp</text>
</a>
</g>
</g>
<!-- Node9&#45;&gt;Node26 -->
<g id="edge34_Node000009_Node000026" class="edge">
<title>Node9&#45;&gt;Node26</title>
<g id="a_edge34_Node000009_Node000026"><a xlink:title=" ">
<path fill="none" stroke="#63b8ff" d="M411.02,-222.08C455.46,-213.3 530.95,-198.3 595.74,-185 598.88,-184.36 602.14,-183.68 605.41,-183"/>
<polygon fill="#63b8ff" stroke="#63b8ff" points="410.49,-218.62 401.36,-223.99 411.85,-225.49 410.49,-218.62"/>
</a>
</g>
</g>
<!-- Node30 -->
<g id="Node000030" class="node">
<title>Node30</title>
<g id="a_Node000030"><a xlink:href="deprecated_2shader__module_8hpp.html" target="_top" xlink:title=" ">
<polygon fill="white" stroke="#666666" points="843.12,-129.75 742.37,-129.75 742.37,-110.5 843.12,-110.5 843.12,-129.75"/>
<text text-anchor="middle" x="792.74" y="-116.25" font-family="Helvetica,sans-Serif" font-size="10.00">shader_module.hpp</text>
</a>
</g>
</g>
<!-- Node9&#45;&gt;Node30 -->
<g id="edge49_Node000009_Node000030" class="edge">
<title>Node9&#45;&gt;Node30</title>
<g id="a_edge49_Node000009_Node000030"><a xlink:title=" ">
<path fill="none" stroke="#63b8ff" d="M411.23,-228.35C469.94,-225.45 584.74,-215.95 676.74,-185 716.83,-171.51 759.22,-144.41 779.89,-130.24"/>
<polygon fill="#63b8ff" stroke="#63b8ff" points="411.26,-224.85 401.43,-228.8 411.58,-231.84 411.26,-224.85"/>
</a>
</g>
</g>
<!-- Node31 -->
<g id="Node000031" class="node">
<title>Node31</title>
<g id="a_Node000031"><a xlink:href="shader__module_8hpp.html" target="_top" xlink:title=" ">
<polygon fill="white" stroke="#666666" points="962.12,-129.75 861.37,-129.75 861.37,-110.5 962.12,-110.5 962.12,-129.75"/>
<text text-anchor="middle" x="911.74" y="-116.25" font-family="Helvetica,sans-Serif" font-size="10.00">shader_module.hpp</text>
</a>
</g>
</g>
<!-- Node9&#45;&gt;Node31 -->
<g id="edge50_Node000009_Node000031" class="edge">
<title>Node9&#45;&gt;Node31</title>
<g id="a_edge50_Node000009_Node000031"><a xlink:title=" ">
<path fill="none" stroke="#63b8ff" d="M411.22,-226.81C474.5,-221.67 604.25,-209.04 711.74,-185 776.84,-170.44 851.07,-144.06 888.11,-130.19"/>
<polygon fill="#63b8ff" stroke="#63b8ff" points="411.04,-223.31 401.34,-227.59 411.59,-230.29 411.04,-223.31"/>
</a>
</g>
</g>
<!-- Node11 -->
<g id="Node000011" class="node">
<title>Node11</title>
<g id="a_Node000011"><a xlink:href="deprecated_2device_8hpp_source.html" target="_top" xlink:title=" ">
<polygon fill="white" stroke="#666666" points="405.37,-19.25 342.12,-19.25 342.12,0 405.37,0 405.37,-19.25"/>
<text text-anchor="middle" x="373.74" y="-5.75" font-family="Helvetica,sans-Serif" font-size="10.00">device.hpp</text>
</a>
</g>
</g>
<!-- Node10&#45;&gt;Node11 -->
<g id="edge10_Node000010_Node000011" class="edge">
<title>Node10&#45;&gt;Node11</title>
<g id="a_edge10_Node000010_Node000011"><a xlink:title=" ">
<path fill="none" stroke="#63b8ff" d="M304.34,-101.35C322.27,-77.91 353.16,-37.53 366.85,-19.63"/>
<polygon fill="#63b8ff" stroke="#63b8ff" points="301.75,-98.97 298.45,-109.04 307.31,-103.23 301.75,-98.97"/>
</a>
</g>
</g>
<!-- Node12 -->
<g id="Node000012" class="node">
<title>Node12</title>
<g id="a_Node000012"><a xlink:href="device_8hpp_source.html" target="_top" xlink:title=" ">
<polygon fill="white" stroke="#666666" points="307.37,-19.25 244.12,-19.25 244.12,0 307.37,0 307.37,-19.25"/>
<text text-anchor="middle" x="275.74" y="-5.75" font-family="Helvetica,sans-Serif" font-size="10.00">device.hpp</text>
</a>
</g>
</g>
<!-- Node10&#45;&gt;Node12 -->
<g id="edge11_Node000010_Node000012" class="edge">
<title>Node10&#45;&gt;Node12</title>
<g id="a_edge11_Node000010_Node000012"><a xlink:title=" ">
<path fill="none" stroke="#63b8ff" d="M286.85,-99.12C285.44,-91.44 283.91,-82.58 282.74,-74.5 279.94,-55.07 277.68,-32.16 276.54,-19.75"/>
<polygon fill="#63b8ff" stroke="#63b8ff" points="283.38,-99.6 288.69,-108.78 290.26,-98.3 283.38,-99.6"/>
</a>
</g>
</g>
<!-- Node14&#45;&gt;Node11 -->
<g id="edge14_Node000014_Node000011" class="edge">
<title>Node14&#45;&gt;Node11</title>
<g id="a_edge14_Node000014_Node000011"><a xlink:title=" ">
<path fill="none" stroke="#63b8ff" d="M220.27,-51.9C257.15,-41.98 308.68,-28.12 341.63,-19.26"/>
<polygon fill="#63b8ff" stroke="#63b8ff" points="219.54,-48.47 210.79,-54.45 221.36,-55.23 219.54,-48.47"/>
</a>
</g>
</g>
<!-- Node14&#45;&gt;Node12 -->
<g id="edge15_Node000014_Node000012" class="edge">
<title>Node14&#45;&gt;Node12</title>
<g id="a_edge15_Node000014_Node000012"><a xlink:title=" ">
<path fill="none" stroke="#63b8ff" d="M202.78,-49.48C220.59,-39.99 243.37,-27.86 258.69,-19.7"/>
<polygon fill="#63b8ff" stroke="#63b8ff" points="201.22,-46.34 194.04,-54.13 204.51,-52.52 201.22,-46.34"/>
</a>
</g>
</g>
<!-- Node17&#45;&gt;Node11 -->
<g id="edge19_Node000017_Node000011" class="edge">
<title>Node17&#45;&gt;Node11</title>
<g id="a_edge19_Node000017_Node000011"><a xlink:title=" ">
<path fill="none" stroke="#63b8ff" d="M114.58,-54.72C179.99,-43.59 288.22,-25.17 341.74,-16.07"/>
<polygon fill="#63b8ff" stroke="#63b8ff" points="114.04,-51.26 104.77,-56.38 115.22,-58.16 114.04,-51.26"/>
</a>
</g>
</g>
<!-- Node17&#45;&gt;Node12 -->
<g id="edge20_Node000017_Node000012" class="edge">
<title>Node17&#45;&gt;Node12</title>
<g id="a_edge20_Node000017_Node000012"><a xlink:title=" ">
<path fill="none" stroke="#63b8ff" d="M108.33,-52.09C149.48,-41.9 207.83,-27.44 243.66,-18.57"/>
<polygon fill="#63b8ff" stroke="#63b8ff" points="107.55,-48.68 98.68,-54.48 109.23,-55.47 107.55,-48.68"/>
</a>
</g>
</g>
<!-- Node18 -->
<g id="Node000018" class="node">
<title>Node18</title>
<g id="a_Node000018"><a xlink:href="deprecated_2rhi_8hpp.html" target="_top" xlink:title=" ">
<polygon fill="white" stroke="#666666" points="52.37,-19.25 7.12,-19.25 7.12,0 52.37,0 52.37,-19.25"/>
<text text-anchor="middle" x="29.74" y="-5.75" font-family="Helvetica,sans-Serif" font-size="10.00">rhi.hpp</text>
</a>
</g>
</g>
<!-- Node17&#45;&gt;Node18 -->
<g id="edge21_Node000017_Node000018" class="edge">
<title>Node17&#45;&gt;Node18</title>
<g id="a_edge21_Node000017_Node000018"><a xlink:title=" ">
<path fill="none" stroke="#63b8ff" d="M49.97,-45.37C44.89,-36.64 39.06,-26.64 34.97,-19.61"/>
<polygon fill="#63b8ff" stroke="#63b8ff" points="46.8,-46.89 54.86,-53.77 52.85,-43.37 46.8,-46.89"/>
</a>
</g>
</g>
<!-- Node19 -->
<g id="Node000019" class="node">
<title>Node19</title>
<g id="a_Node000019"><a xlink:href="rhi_8hpp.html" target="_top" xlink:title=" ">
<polygon fill="white" stroke="#666666" points="115.37,-19.25 70.12,-19.25 70.12,0 115.37,0 115.37,-19.25"/>
<text text-anchor="middle" x="92.74" y="-5.75" font-family="Helvetica,sans-Serif" font-size="10.00">rhi.hpp</text>
</a>
</g>
</g>
<!-- Node17&#45;&gt;Node19 -->
<g id="edge22_Node000017_Node000019" class="edge">
<title>Node17&#45;&gt;Node19</title>
<g id="a_edge22_Node000017_Node000019"><a xlink:title=" ">
<path fill="none" stroke="#63b8ff" d="M71.86,-45.37C77.1,-36.64 83.12,-26.64 87.34,-19.61"/>
<polygon fill="#63b8ff" stroke="#63b8ff" points="68.96,-43.41 66.8,-53.78 74.96,-47.02 68.96,-43.41"/>
</a>
</g>
</g>
<!-- Node20&#45;&gt;Node10 -->
<g id="edge24_Node000020_Node000010" class="edge">
<title>Node20&#45;&gt;Node10</title>
<g id="a_edge24_Node000020_Node000010"><a xlink:title=" ">
<path fill="none" stroke="#63b8ff" d="M415.28,-161.81C385.57,-152.1 345.15,-138.9 318.53,-130.2"/>
<polygon fill="#63b8ff" stroke="#63b8ff" points="414.06,-165.09 424.65,-164.87 416.23,-158.44 414.06,-165.09"/>
</a>
</g>
</g>
<!-- Node21 -->
<g id="Node000021" class="node">
<title>Node21</title>
<g id="a_Node000021"><a xlink:href="sampler_8hpp.html" target="_top" xlink:title=" ">
<polygon fill="white" stroke="#666666" points="406.99,-129.75 338.49,-129.75 338.49,-110.5 406.99,-110.5 406.99,-129.75"/>
<text text-anchor="middle" x="372.74" y="-116.25" font-family="Helvetica,sans-Serif" font-size="10.00">sampler.hpp</text>
</a>
</g>
</g>
<!-- Node20&#45;&gt;Node21 -->
<g id="edge25_Node000020_Node000021" class="edge">
<title>Node20&#45;&gt;Node21</title>
<g id="a_edge25_Node000020_Node000021"><a xlink:title=" ">
<path fill="none" stroke="#63b8ff" d="M430.4,-159.03C416.2,-149.7 398.56,-138.1 386.55,-130.2"/>
<polygon fill="#63b8ff" stroke="#63b8ff" points="428.46,-161.94 438.74,-164.51 432.3,-156.09 428.46,-161.94"/>
</a>
</g>
</g>
<!-- Node22 -->
<g id="Node000022" class="node">
<title>Node22</title>
<g id="a_Node000022"><a xlink:href="texture_8hpp.html" target="_top" xlink:title=" ">
<polygon fill="white" stroke="#666666" points="490.12,-129.75 425.37,-129.75 425.37,-110.5 490.12,-110.5 490.12,-129.75"/>
<text text-anchor="middle" x="457.74" y="-116.25" font-family="Helvetica,sans-Serif" font-size="10.00">texture.hpp</text>
</a>
</g>
</g>
<!-- Node20&#45;&gt;Node22 -->
<g id="edge26_Node000020_Node000022" class="edge">
<title>Node20&#45;&gt;Node22</title>
<g id="a_edge26_Node000020_Node000022"><a xlink:title=" ">
<path fill="none" stroke="#63b8ff" d="M455.26,-154.13C455.88,-145.84 456.57,-136.67 457.07,-130.11"/>
<polygon fill="#63b8ff" stroke="#63b8ff" points="451.77,-153.84 454.51,-164.07 458.75,-154.36 451.77,-153.84"/>
</a>
</g>
</g>
<!-- Node22&#45;&gt;Node11 -->
<g id="edge27_Node000022_Node000011" class="edge">
<title>Node22&#45;&gt;Node11</title>
<g id="a_edge27_Node000022_Node000011"><a xlink:title=" ">
<path fill="none" stroke="#63b8ff" d="M463.7,-99.21C466.49,-85.83 467.68,-68.32 459.74,-55.25 448.03,-35.99 425.02,-24.66 405.74,-18.25"/>
<polygon fill="#63b8ff" stroke="#63b8ff" points="460.38,-98.07 461.28,-108.63 467.16,-99.81 460.38,-98.07"/>
</a>
</g>
</g>
<!-- Node22&#45;&gt;Node12 -->
<g id="edge28_Node000022_Node000012" class="edge">
<title>Node22&#45;&gt;Node12</title>
<g id="a_edge28_Node000022_Node000012"><a xlink:title=" ">
<path fill="none" stroke="#63b8ff" d="M420.34,-106.02C399.97,-98.16 374.71,-87.23 353.74,-74.5 326.51,-57.97 298.58,-32.66 284.7,-19.41"/>
<polygon fill="#63b8ff" stroke="#63b8ff" points="419.09,-109.29 429.68,-109.53 421.55,-102.73 419.09,-109.29"/>
</a>
</g>
</g>
<!-- Node23 -->
<g id="Node000023" class="node">
<title>Node23</title>
<g id="a_Node000023"><a xlink:href="deprecated_2render__pass_8hpp.html" target="_top" xlink:title=" ">
<polygon fill="white" stroke="#666666" points="594.74,-74.5 506.74,-74.5 506.74,-55.25 594.74,-55.25 594.74,-74.5"/>
<text text-anchor="middle" x="550.74" y="-61" font-family="Helvetica,sans-Serif" font-size="10.00">render_pass.hpp</text>
</a>
</g>
</g>
<!-- Node22&#45;&gt;Node23 -->
<g id="edge29_Node000022_Node000023" class="edge">
<title>Node22&#45;&gt;Node23</title>
<g id="a_edge29_Node000022_Node000023"><a xlink:title=" ">
<path fill="none" stroke="#63b8ff" d="M483.12,-104.59C499.65,-95.13 520.7,-83.08 534.89,-74.95"/>
<polygon fill="#63b8ff" stroke="#63b8ff" points="481.77,-101.33 474.83,-109.34 485.25,-107.41 481.77,-101.33"/>
</a>
</g>
</g>
<!-- Node24 -->
<g id="Node000024" class="node">
<title>Node24</title>
<g id="a_Node000024"><a xlink:href="render__pass_8hpp.html" target="_top" xlink:title=" ">
<polygon fill="white" stroke="#666666" points="450.74,-74.5 362.74,-74.5 362.74,-55.25 450.74,-55.25 450.74,-74.5"/>
<text text-anchor="middle" x="406.74" y="-61" font-family="Helvetica,sans-Serif" font-size="10.00">render_pass.hpp</text>
</a>
</g>
</g>
<!-- Node22&#45;&gt;Node24 -->
<g id="edge30_Node000022_Node000024" class="edge">
<title>Node22&#45;&gt;Node24</title>
<g id="a_edge30_Node000022_Node000024"><a xlink:title=" ">
<path fill="none" stroke="#63b8ff" d="M441.38,-102.04C432.72,-93 422.45,-82.27 415.35,-74.86"/>
<polygon fill="#63b8ff" stroke="#63b8ff" points="438.83,-104.44 448.27,-109.24 443.88,-99.6 438.83,-104.44"/>
</a>
</g>
</g>
<!-- Node24&#45;&gt;Node11 -->
<g id="edge31_Node000024_Node000011" class="edge">
<title>Node24&#45;&gt;Node11</title>
<g id="a_edge31_Node000024_Node000011"><a xlink:title=" ">
<path fill="none" stroke="#63b8ff" d="M395.27,-45.37C389.86,-36.64 383.66,-26.64 379.31,-19.61"/>
<polygon fill="#63b8ff" stroke="#63b8ff" points="392.25,-47.14 400.49,-53.8 398.2,-43.45 392.25,-47.14"/>
</a>
</g>
</g>
<!-- Node24&#45;&gt;Node12 -->
<g id="edge32_Node000024_Node000012" class="edge">
<title>Node24&#45;&gt;Node12</title>
<g id="a_edge32_Node000024_Node000012"><a xlink:title=" ">
<path fill="none" stroke="#63b8ff" d="M373.92,-50.53C350.24,-40.91 318.9,-28.17 298.07,-19.7"/>
<polygon fill="#63b8ff" stroke="#63b8ff" points="372.53,-53.75 383.12,-54.27 375.17,-47.26 372.53,-53.75"/>
</a>
</g>
</g>
<!-- Node26&#45;&gt;Node22 -->
<g id="edge48_Node000026_Node000022" class="edge">
<title>Node26&#45;&gt;Node22</title>
<g id="a_edge48_Node000026_Node000022"><a xlink:title=" ">
<path fill="none" stroke="#63b8ff" d="M595.36,-162.07C562.66,-152.34 517.75,-138.98 488.25,-130.2"/>
<polygon fill="#63b8ff" stroke="#63b8ff" points="594.34,-165.41 604.92,-164.91 596.34,-158.7 594.34,-165.41"/>
</a>
</g>
</g>
<!-- Node26&#45;&gt;Node23 -->
<g id="edge40_Node000026_Node000023" class="edge">
<title>Node26&#45;&gt;Node23</title>
<g id="a_edge40_Node000026_Node000023"><a xlink:title=" ">
<path fill="none" stroke="#63b8ff" d="M622.65,-156.6C604.07,-133.16 572.07,-92.78 557.88,-74.88"/>
<polygon fill="#63b8ff" stroke="#63b8ff" points="619.81,-158.65 628.76,-164.31 625.29,-154.3 619.81,-158.65"/>
</a>
</g>
</g>
<!-- Node26&#45;&gt;Node24 -->
<g id="edge41_Node000026_Node000024" class="edge">
<title>Node26&#45;&gt;Node24</title>
<g id="a_edge41_Node000026_Node000024"><a xlink:title=" ">
<path fill="none" stroke="#63b8ff" d="M607.22,-160.45C559.41,-137.89 466.32,-93.98 426.06,-74.99"/>
<polygon fill="#63b8ff" stroke="#63b8ff" points="605.62,-163.56 616.16,-164.67 608.61,-157.23 605.62,-163.56"/>
</a>
</g>
</g>
<!-- Node27 -->
<g id="Node000027" class="node">
<title>Node27</title>
<g id="a_Node000027"><a xlink:href="deprecated_2graphics__pipeline_8hpp.html" target="_top" xlink:title=" ">
<polygon fill="white" stroke="#666666" points="855.62,-74.5 745.87,-74.5 745.87,-55.25 855.62,-55.25 855.62,-74.5"/>
<text text-anchor="middle" x="800.74" y="-61" font-family="Helvetica,sans-Serif" font-size="10.00">graphics_pipeline.hpp</text>
</a>
</g>
</g>
<!-- Node26&#45;&gt;Node27 -->
<g id="edge35_Node000026_Node000027" class="edge">
<title>Node26&#45;&gt;Node27</title>
<g id="a_edge35_Node000026_Node000027"><a xlink:title=" ">
<path fill="none" stroke="#63b8ff" d="M636.08,-154.35C636.71,-140.38 639.85,-122.22 650.74,-110.5 664.52,-95.67 713.07,-82.99 751.25,-74.97"/>
<polygon fill="#63b8ff" stroke="#63b8ff" points="632.58,-154.17 636.07,-164.18 639.58,-154.18 632.58,-154.17"/>
</a>
</g>
</g>
<!-- Node28 -->
<g id="Node000028" class="node">
<title>Node28</title>
<g id="a_Node000028"><a xlink:href="graphics__pipeline_8hpp.html" target="_top" xlink:title=" ">
<polygon fill="white" stroke="#666666" points="722.62,-74.5 612.87,-74.5 612.87,-55.25 722.62,-55.25 722.62,-74.5"/>
<text text-anchor="middle" x="667.74" y="-61" font-family="Helvetica,sans-Serif" font-size="10.00">graphics_pipeline.hpp</text>
</a>
</g>
</g>
<!-- Node26&#45;&gt;Node28 -->
<g id="edge36_Node000026_Node000028" class="edge">
<title>Node26&#45;&gt;Node28</title>
<g id="a_edge36_Node000026_Node000028"><a xlink:title=" ">
<path fill="none" stroke="#63b8ff" d="M624.35,-155.76C617.34,-142.76 611.16,-125.18 617.74,-110.5 624.68,-95 639.97,-82.66 651.83,-74.92"/>
<polygon fill="#63b8ff" stroke="#63b8ff" points="621.24,-157.38 629.4,-164.14 627.24,-153.76 621.24,-157.38"/>
</a>
</g>
</g>
<!-- Node26&#45;&gt;Node30 -->
<g id="edge42_Node000026_Node000030" class="edge">
<title>Node26&#45;&gt;Node30</title>
<g id="a_edge42_Node000026_Node000030"><a xlink:title=" ">
<path fill="none" stroke="#63b8ff" d="M673.93,-161.68C702.33,-151.99 740.78,-138.86 766.15,-130.2"/>
<polygon fill="#63b8ff" stroke="#63b8ff" points="672.97,-158.31 664.64,-164.85 675.23,-164.93 672.97,-158.31"/>
</a>
</g>
</g>
<!-- Node26&#45;&gt;Node31 -->
<g id="edge43_Node000026_Node000031" class="edge">
<title>Node26&#45;&gt;Node31</title>
<g id="a_edge43_Node000026_Node000031"><a xlink:title=" ">
<path fill="none" stroke="#63b8ff" d="M679.41,-166.11C729.7,-156.37 813,-140.24 865,-130.18"/>
<polygon fill="#63b8ff" stroke="#63b8ff" points="678.92,-162.64 669.77,-167.98 680.26,-169.51 678.92,-162.64"/>
</a>
</g>
</g>
<!-- Node33 -->
<g id="Node000033" class="node">
<title>Node33</title>
<g id="a_Node000033"><a xlink:href="deprecated_2texture_8hpp.html" target="_top" xlink:title=" ">
<polygon fill="white" stroke="#666666" points="724.12,-129.75 659.37,-129.75 659.37,-110.5 724.12,-110.5 724.12,-129.75"/>
<text text-anchor="middle" x="691.74" y="-116.25" font-family="Helvetica,sans-Serif" font-size="10.00">texture.hpp</text>
</a>
</g>
</g>
<!-- Node26&#45;&gt;Node33 -->
<g id="edge47_Node000026_Node000033" class="edge">
<title>Node26&#45;&gt;Node33</title>
<g id="a_edge47_Node000026_Node000033"><a xlink:title=" ">
<path fill="none" stroke="#63b8ff" d="M654.09,-157.57C663.49,-148.48 674.72,-137.6 682.46,-130.11"/>
<polygon fill="#63b8ff" stroke="#63b8ff" points="651.66,-155.06 646.91,-164.53 656.53,-160.09 651.66,-155.06"/>
</a>
</g>
</g>
<!-- Node28&#45;&gt;Node11 -->
<g id="edge38_Node000028_Node000011" class="edge">
<title>Node28&#45;&gt;Node11</title>
<g id="a_edge38_Node000028_Node000011"><a xlink:title=" ">
<path fill="none" stroke="#63b8ff" d="M606.48,-52.78C545.27,-41.69 453.57,-25.08 405.59,-16.39"/>
<polygon fill="#63b8ff" stroke="#63b8ff" points="605.58,-56.17 616.04,-54.51 606.83,-49.29 605.58,-56.17"/>
</a>
</g>
</g>
<!-- Node28&#45;&gt;Node12 -->
<g id="edge39_Node000028_Node000012" class="edge">
<title>Node28&#45;&gt;Node12</title>
<g id="a_edge39_Node000028_Node000012"><a xlink:title=" ">
<path fill="none" stroke="#63b8ff" d="M601.47,-54.95C481.46,-38.96 449.51,-35.84 332.74,-19.25 324.62,-18.1 315.85,-16.8 307.68,-15.56"/>
<polygon fill="#63b8ff" stroke="#63b8ff" points="600.71,-58.38 611.08,-56.23 601.63,-51.44 600.71,-58.38"/>
</a>
</g>
</g>
<!-- Node29 -->
<g id="Node000029" class="node">
<title>Node29</title>
<g id="a_Node000029"><a xlink:href="deprecated_2compute__pipeline_8hpp.html" target="_top" xlink:title=" ">
<polygon fill="white" stroke="#666666" points="722.99,-19.25 612.49,-19.25 612.49,0 722.99,0 722.99,-19.25"/>
<text text-anchor="middle" x="667.74" y="-5.75" font-family="Helvetica,sans-Serif" font-size="10.00">compute_pipeline.hpp</text>
</a>
</g>
</g>
<!-- Node28&#45;&gt;Node29 -->
<g id="edge37_Node000028_Node000029" class="edge">
<title>Node28&#45;&gt;Node29</title>
<g id="a_edge37_Node000028_Node000029"><a xlink:title=" ">
<path fill="none" stroke="#63b8ff" d="M667.74,-43.63C667.74,-35.34 667.74,-26.17 667.74,-19.61"/>
<polygon fill="#63b8ff" stroke="#63b8ff" points="664.24,-43.57 667.74,-53.57 671.24,-43.57 664.24,-43.57"/>
</a>
</g>
</g>
<!-- Node31&#45;&gt;Node27 -->
<g id="edge45_Node000031_Node000027" class="edge">
<title>Node31&#45;&gt;Node27</title>
<g id="a_edge45_Node000031_Node000027"><a xlink:title=" ">
<path fill="none" stroke="#63b8ff" d="M882.56,-105.12C862.67,-95.58 836.92,-83.23 819.66,-74.95"/>
<polygon fill="#63b8ff" stroke="#63b8ff" points="881.02,-108.27 891.55,-109.44 884.04,-101.96 881.02,-108.27"/>
</a>
</g>
</g>
<!-- Node31&#45;&gt;Node28 -->
<g id="edge46_Node000031_Node000028" class="edge">
<title>Node31&#45;&gt;Node28</title>
<g id="a_edge46_Node000031_Node000028"><a xlink:title=" ">
<path fill="none" stroke="#63b8ff" d="M859.09,-107.63C814.21,-97.84 750.58,-83.95 709.24,-74.93"/>
<polygon fill="#63b8ff" stroke="#63b8ff" points="858.08,-111 868.59,-109.71 859.57,-104.16 858.08,-111"/>
</a>
</g>
</g>
<!-- Node32 -->
<g id="Node000032" class="node">
<title>Node32</title>
<g id="a_Node000032"><a xlink:href="descriptor_8hpp.html" target="_top" xlink:title=" ">
<polygon fill="white" stroke="#666666" points="950.12,-74.5 873.37,-74.5 873.37,-55.25 950.12,-55.25 950.12,-74.5"/>
<text text-anchor="middle" x="911.74" y="-61" font-family="Helvetica,sans-Serif" font-size="10.00">descriptor.hpp</text>
</a>
</g>
</g>
<!-- Node31&#45;&gt;Node32 -->
<g id="edge44_Node000031_Node000032" class="edge">
<title>Node31&#45;&gt;Node32</title>
<g id="a_edge44_Node000031_Node000032"><a xlink:title=" ">
<path fill="none" stroke="#63b8ff" d="M911.74,-98.88C911.74,-90.59 911.74,-81.42 911.74,-74.86"/>
<polygon fill="#63b8ff" stroke="#63b8ff" points="908.24,-98.82 911.74,-108.82 915.24,-98.82 908.24,-98.82"/>
</a>
</g>
</g>
<!-- Node37&#45;&gt;Node4 -->
<g id="edge59_Node000037_Node000004" class="edge">
<title>Node37&#45;&gt;Node4</title>
<g id="a_edge59_Node000037_Node000004"><a xlink:title=" ">
<path fill="none" stroke="#63b8ff" d="M264.21,-548.76C297.15,-538.44 343.04,-524.07 370.72,-515.4"/>
<polygon fill="#63b8ff" stroke="#63b8ff" points="263.52,-545.31 255.02,-551.64 265.61,-551.99 263.52,-545.31"/>
</a>
</g>
</g>
<!-- Node38 -->
<g id="Node000038" class="node">
<title>Node38</title>
<g id="a_Node000038"><a xlink:href="console__log__writer_8hpp.html" target="_top" xlink:title=" ">
<polygon fill="white" stroke="#666666" points="286.24,-516.5 171.24,-516.5 171.24,-497.25 286.24,-497.25 286.24,-516.5"/>
<text text-anchor="middle" x="228.74" y="-503" font-family="Helvetica,sans-Serif" font-size="10.00">console_log_writer.hpp</text>
</a>
</g>
</g>
<!-- Node37&#45;&gt;Node38 -->
<g id="edge56_Node000037_Node000038" class="edge">
<title>Node37&#45;&gt;Node38</title>
<g id="a_edge56_Node000037_Node000038"><a xlink:title=" ">
<path fill="none" stroke="#63b8ff" d="M226.26,-540.88C226.88,-532.59 227.57,-523.42 228.07,-516.86"/>
<polygon fill="#63b8ff" stroke="#63b8ff" points="222.77,-540.59 225.51,-550.82 229.75,-541.11 222.77,-540.59"/>
</a>
</g>
</g>
<!-- Node38&#45;&gt;Node2 -->
<g id="edge57_Node000038_Node000002" class="edge">
<title>Node38&#45;&gt;Node2</title>
<g id="a_edge57_Node000038_Node000002"><a xlink:title=" ">
<path fill="none" stroke="#63b8ff" d="M204.4,-490.8C189.25,-481.42 170.27,-469.67 157.4,-461.7"/>
<polygon fill="#63b8ff" stroke="#63b8ff" points="202.52,-493.76 212.87,-496.05 206.21,-487.8 202.52,-493.76"/>
</a>
</g>
</g>
<!-- Node38&#45;&gt;Node9 -->
<g id="edge58_Node000038_Node000009" class="edge">
<title>Node38&#45;&gt;Node9</title>
<g id="a_edge58_Node000038_Node000009"><a xlink:title=" ">
<path fill="none" stroke="#63b8ff" d="M228.74,-485.51C228.74,-463.7 228.74,-428.09 228.74,-397.38 228.74,-397.38 228.74,-397.38 228.74,-340.12 228.74,-282.22 303.94,-251.34 345.66,-238.67"/>
<polygon fill="#63b8ff" stroke="#63b8ff" points="225.24,-485.36 228.74,-495.36 232.24,-485.36 225.24,-485.36"/>
</a>
</g>
</g>
</g>
</svg>
