<?xml version="1.0" encoding="UTF-8" standalone="no"?>
<!DOCTYPE svg PUBLIC "-//W3C//DTD SVG 1.1//EN"
 "http://www.w3.org/Graphics/SVG/1.1/DTD/svg11.dtd">
<!-- Generated by graphviz version 7.1.0 (20230121.1956)
 -->
<!-- Title: log_message.hpp Pages: 1 -->
<svg width="262pt" height="196pt"
 viewBox="0.00 0.00 262.00 196.00" xmlns="http://www.w3.org/2000/svg" xmlns:xlink="http://www.w3.org/1999/xlink">
<g id="graph0" class="graph" transform="scale(1 1) rotate(0) translate(4 192)">
<title>log_message.hpp</title>
<polygon fill="white" stroke="none" points="-4,4 -4,-192 258,-192 258,4 -4,4"/>
<!-- Node1 -->
<g id="node1" class="node">
<title>Node1</title>
<g id="a_node1"><a xlink:title=" ">
<polygon fill="#bfbfbf" stroke="black" points="27.5,-168.5 27.5,-187.5 120.5,-187.5 120.5,-168.5 27.5,-168.5"/>
<text text-anchor="middle" x="74" y="-175.5" font-family="Helvetica,sans-Serif" font-size="10.00">log_message.hpp</text>
</a>
</g>
</g>
<!-- Node2 -->
<g id="node2" class="node">
<title>Node2</title>
<g id="a_node2"><a xlink:href="log_8hpp.html" target="_top" xlink:title=" ">
<polygon fill="white" stroke="black" points="34,-56.5 34,-75.5 82,-75.5 82,-56.5 34,-56.5"/>
<text text-anchor="middle" x="58" y="-63.5" font-family="Helvetica,sans-Serif" font-size="10.00">log.hpp</text>
</a>
</g>
</g>
<!-- Node1&#45;&gt;Node2 -->
<g id="edge1" class="edge">
<title>Node1&#45;&gt;Node2</title>
<path fill="none" stroke="midnightblue" d="M47.23,-162.75C36.02,-155.23 24.17,-144.87 18,-132 7.75,-110.61 31.39,-87.35 46.54,-75.3"/>
<polygon fill="midnightblue" stroke="midnightblue" points="45.13,-165.56 55.48,-167.83 48.8,-159.6 45.13,-165.56"/>
</g>
<!-- Node5 -->
<g id="node5" class="node">
<title>Node5</title>
<g id="a_node5"><a xlink:href="log__message_8cpp.html" target="_top" xlink:title=" ">
<polygon fill="white" stroke="black" points="27.5,-112.5 27.5,-131.5 120.5,-131.5 120.5,-112.5 27.5,-112.5"/>
<text text-anchor="middle" x="74" y="-119.5" font-family="Helvetica,sans-Serif" font-size="10.00">log_message.cpp</text>
</a>
</g>
</g>
<!-- Node1&#45;&gt;Node5 -->
<g id="edge4" class="edge">
<title>Node1&#45;&gt;Node5</title>
<path fill="none" stroke="midnightblue" d="M74,-157.1C74,-148.14 74,-138.06 74,-131.2"/>
<polygon fill="midnightblue" stroke="midnightblue" points="70.5,-157.05 74,-167.05 77.5,-157.05 70.5,-157.05"/>
</g>
<!-- Node6 -->
<g id="node6" class="node">
<title>Node6</title>
<g id="a_node6"><a xlink:href="log__writer_8hpp.html" target="_top" xlink:title=" ">
<polygon fill="white" stroke="black" points="138.5,-112.5 138.5,-131.5 215.5,-131.5 215.5,-112.5 138.5,-112.5"/>
<text text-anchor="middle" x="177" y="-119.5" font-family="Helvetica,sans-Serif" font-size="10.00">log_writer.hpp</text>
</a>
</g>
</g>
<!-- Node1&#45;&gt;Node6 -->
<g id="edge5" class="edge">
<title>Node1&#45;&gt;Node6</title>
<path fill="none" stroke="midnightblue" d="M100.28,-163.22C119.45,-153.17 144.81,-139.88 161.02,-131.38"/>
<polygon fill="midnightblue" stroke="midnightblue" points="98.67,-160.12 91.43,-167.86 101.92,-166.32 98.67,-160.12"/>
</g>
<!-- Node3 -->
<g id="node3" class="node">
<title>Node3</title>
<g id="a_node3"><a xlink:href="core_8hpp.html" target="_top" xlink:title=" ">
<polygon fill="white" stroke="black" points="66,-0.5 66,-19.5 120,-19.5 120,-0.5 66,-0.5"/>
<text text-anchor="middle" x="93" y="-7.5" font-family="Helvetica,sans-Serif" font-size="10.00">core.hpp</text>
</a>
</g>
</g>
<!-- Node2&#45;&gt;Node3 -->
<g id="edge2" class="edge">
<title>Node2&#45;&gt;Node3</title>
<path fill="none" stroke="midnightblue" d="M69.71,-46.94C75.79,-37.55 82.93,-26.54 87.68,-19.2"/>
<polygon fill="midnightblue" stroke="midnightblue" points="66.79,-45 64.29,-55.29 72.67,-48.8 66.79,-45"/>
</g>
<!-- Node4 -->
<g id="node4" class="node">
<title>Node4</title>
<g id="a_node4"><a xlink:href="log_8cpp.html" target="_top" xlink:title=" ">
<polygon fill="white" stroke="black" points="0,-0.5 0,-19.5 48,-19.5 48,-0.5 0,-0.5"/>
<text text-anchor="middle" x="24" y="-7.5" font-family="Helvetica,sans-Serif" font-size="10.00">log.cpp</text>
</a>
</g>
</g>
<!-- Node2&#45;&gt;Node4 -->
<g id="edge3" class="edge">
<title>Node2&#45;&gt;Node4</title>
<path fill="none" stroke="midnightblue" d="M46.63,-46.94C40.72,-37.55 33.78,-26.54 29.16,-19.2"/>
<polygon fill="midnightblue" stroke="midnightblue" points="43.59,-48.68 51.88,-55.28 49.51,-44.95 43.59,-48.68"/>
</g>
<!-- Node6&#45;&gt;Node2 -->
<g id="edge9" class="edge">
<title>Node6&#45;&gt;Node2</title>
<path fill="none" stroke="midnightblue" d="M148.17,-107.92C125.86,-97.79 95.63,-84.07 76.46,-75.38"/>
<polygon fill="midnightblue" stroke="midnightblue" points="146.48,-110.99 157.03,-111.94 149.37,-104.62 146.48,-110.99"/>
</g>
<!-- Node7 -->
<g id="node7" class="node">
<title>Node7</title>
<g id="a_node7"><a xlink:href="console__log__writer_8hpp.html" target="_top" xlink:title=" ">
<polygon fill="white" stroke="black" points="119,-56.5 119,-75.5 235,-75.5 235,-56.5 119,-56.5"/>
<text text-anchor="middle" x="177" y="-63.5" font-family="Helvetica,sans-Serif" font-size="10.00">console_log_writer.hpp</text>
</a>
</g>
</g>
<!-- Node6&#45;&gt;Node7 -->
<g id="edge6" class="edge">
<title>Node6&#45;&gt;Node7</title>
<path fill="none" stroke="midnightblue" d="M177,-101.1C177,-92.14 177,-82.06 177,-75.2"/>
<polygon fill="midnightblue" stroke="midnightblue" points="173.5,-101.05 177,-111.05 180.5,-101.05 173.5,-101.05"/>
</g>
<!-- Node7&#45;&gt;Node3 -->
<g id="edge8" class="edge">
<title>Node7&#45;&gt;Node3</title>
<path fill="none" stroke="midnightblue" d="M154.47,-50.52C138.98,-40.56 118.94,-27.68 106.03,-19.38"/>
<polygon fill="midnightblue" stroke="midnightblue" points="152.3,-53.28 162.6,-55.74 156.08,-47.39 152.3,-53.28"/>
</g>
<!-- Node8 -->
<g id="node8" class="node">
<title>Node8</title>
<g id="a_node8"><a xlink:href="console__log__writer_8cpp.html" target="_top" xlink:title=" ">
<polygon fill="white" stroke="black" points="138,-0.5 138,-19.5 254,-19.5 254,-0.5 138,-0.5"/>
<text text-anchor="middle" x="196" y="-7.5" font-family="Helvetica,sans-Serif" font-size="10.00">console_log_writer.cpp</text>
</a>
</g>
</g>
<!-- Node7&#45;&gt;Node8 -->
<g id="edge7" class="edge">
<title>Node7&#45;&gt;Node8</title>
<path fill="none" stroke="midnightblue" d="M183.78,-45.72C186.99,-36.61 190.64,-26.22 193.11,-19.2"/>
<polygon fill="midnightblue" stroke="midnightblue" points="180.49,-44.54 180.47,-55.13 187.09,-46.86 180.49,-44.54"/>
</g>
</g>
</svg>
