<?xml version="1.0" encoding="UTF-8" standalone="no"?>
<!DOCTYPE svg PUBLIC "-//W3C//DTD SVG 1.1//EN"
 "http://www.w3.org/Graphics/SVG/1.1/DTD/svg11.dtd">
<!-- Generated by graphviz version 9.0.0 (20230911.1827)
 -->
<!-- Title: log_writer.hpp Pages: 1 -->
<svg width="289pt" height="304pt"
 viewBox="0.00 0.00 289.25 303.50" xmlns="http://www.w3.org/2000/svg" xmlns:xlink="http://www.w3.org/1999/xlink">

<svg id="main" version="1.1" xmlns="http://www.w3.org/2000/svg" xmlns:xlink="http://www.w3.org/1999/xlink" xml:space="preserve" onload="init(evt)">
<style type="text/css"><![CDATA[
.node, .edge {opacity: 0.7;}
.node.selected, .edge.selected {opacity: 1;}
.edge:hover path { stroke: red; }
.edge:hover polygon { stroke: red; fill: red; }
]]></style>
<script type="application/ecmascript" xlink:href="svg.min.js"/>
<svg id="graph" class="graph">
<g id="graph0" class="graph" transform="scale(1 1) rotate(0) translate(4 299.5)">
<title>log_writer.hpp</title>
<!-- Node1 -->
<g id="Node000001" class="node">
<title>Node1</title>
<g id="a_Node000001"><a xlink:title=" ">
<polygon fill="#999999" stroke="#666666" points="153.5,-295.5 77.5,-295.5 77.5,-276.25 153.5,-276.25 153.5,-295.5"/>
<text text-anchor="middle" x="115.5" y="-282" font-family="Helvetica,sans-Serif" font-size="10.00">log_writer.hpp</text>
</a>
</g>
</g>
<!-- Node2 -->
<g id="Node000002" class="node">
<title>Node2</title>
<g id="a_Node000002"><a xlink:href="console__log__writer_8hpp.html" target="_top" xlink:title=" ">
<polygon fill="white" stroke="#666666" points="124,-240.25 9,-240.25 9,-221 124,-221 124,-240.25"/>
<text text-anchor="middle" x="66.5" y="-226.75" font-family="Helvetica,sans-Serif" font-size="10.00">console_log_writer.hpp</text>
</a>
</g>
</g>
<!-- Node1&#45;&gt;Node2 -->
<g id="edge1_Node000001_Node000002" class="edge">
<title>Node1&#45;&gt;Node2</title>
<g id="a_edge1_Node000001_Node000002"><a xlink:title=" ">
<path fill="none" stroke="#63b8ff" d="M99.78,-267.79C91.46,-258.75 81.59,-248.02 74.77,-240.61"/>
<polygon fill="#63b8ff" stroke="#63b8ff" points="97.04,-269.98 106.38,-274.97 102.19,-265.24 97.04,-269.98"/>
</a>
</g>
</g>
<!-- Node4 -->
<g id="Node000004" class="node">
<title>Node4</title>
<g id="a_Node000004"><a xlink:href="log_8hpp.html" target="_top" xlink:title=" ">
<polygon fill="white" stroke="#666666" points="198.25,-240.25 150.75,-240.25 150.75,-221 198.25,-221 198.25,-240.25"/>
<text text-anchor="middle" x="174.5" y="-226.75" font-family="Helvetica,sans-Serif" font-size="10.00">log.hpp</text>
</a>
</g>
</g>
<!-- Node1&#45;&gt;Node4 -->
<g id="edge3_Node000001_Node000004" class="edge">
<title>Node1&#45;&gt;Node4</title>
<g id="a_edge3_Node000001_Node000004"><a xlink:title=" ">
<path fill="none" stroke="#63b8ff" d="M133.77,-268.39C143.96,-259.19 156.24,-248.1 164.64,-240.52"/>
<polygon fill="#63b8ff" stroke="#63b8ff" points="131.71,-265.53 126.63,-274.83 136.4,-270.73 131.71,-265.53"/>
</a>
</g>
</g>
<!-- Node3 -->
<g id="Node000003" class="node">
<title>Node3</title>
<g id="a_Node000003"><a xlink:href="console__log__writer_8cpp.html" target="_top" xlink:title=" ">
<polygon fill="white" stroke="#666666" points="115,-185 0,-185 0,-165.75 115,-165.75 115,-185"/>
<text text-anchor="middle" x="57.5" y="-171.5" font-family="Helvetica,sans-Serif" font-size="10.00">console_log_writer.cpp</text>
</a>
</g>
</g>
<!-- Node2&#45;&gt;Node3 -->
<g id="edge2_Node000002_Node000003" class="edge">
<title>Node2&#45;&gt;Node3</title>
<g id="a_edge2_Node000002_Node000003"><a xlink:title=" ">
<path fill="none" stroke="#63b8ff" d="M63.13,-209.67C61.71,-201.3 60.14,-192 59.02,-185.36"/>
<polygon fill="#63b8ff" stroke="#63b8ff" points="59.64,-210.06 64.76,-219.34 66.55,-208.9 59.64,-210.06"/>
</a>
</g>
</g>
<!-- Node5 -->
<g id="Node000005" class="node">
<title>Node5</title>
<g id="a_Node000005"><a xlink:href="default__log_8hpp.html" target="_top" xlink:title=" ">
<polygon fill="white" stroke="#666666" points="215.5,-185 133.5,-185 133.5,-165.75 215.5,-165.75 215.5,-185"/>
<text text-anchor="middle" x="174.5" y="-171.5" font-family="Helvetica,sans-Serif" font-size="10.00">default_log.hpp</text>
</a>
</g>
</g>
<!-- Node4&#45;&gt;Node5 -->
<g id="edge4_Node000004_Node000005" class="edge">
<title>Node4&#45;&gt;Node5</title>
<g id="a_edge4_Node000004_Node000005"><a xlink:title=" ">
<path fill="none" stroke="#63b8ff" d="M174.5,-209.38C174.5,-201.09 174.5,-191.92 174.5,-185.36"/>
<polygon fill="#63b8ff" stroke="#63b8ff" points="171,-209.32 174.5,-219.32 178,-209.32 171,-209.32"/>
</a>
</g>
</g>
<!-- Node10 -->
<g id="Node000010" class="node">
<title>Node10</title>
<g id="a_Node000010"><a xlink:href="log_8cpp.html" target="_top" xlink:title=" ">
<polygon fill="white" stroke="#666666" points="281.25,-185 233.75,-185 233.75,-165.75 281.25,-165.75 281.25,-185"/>
<text text-anchor="middle" x="257.5" y="-171.5" font-family="Helvetica,sans-Serif" font-size="10.00">log.cpp</text>
</a>
</g>
</g>
<!-- Node4&#45;&gt;Node10 -->
<g id="edge9_Node000004_Node000010" class="edge">
<title>Node4&#45;&gt;Node10</title>
<g id="a_edge9_Node000004_Node000010"><a xlink:title=" ">
<path fill="none" stroke="#63b8ff" d="M197.99,-214.55C212.61,-205.17 230.93,-193.42 243.35,-185.45"/>
<polygon fill="#63b8ff" stroke="#63b8ff" points="196.38,-211.43 189.85,-219.77 200.16,-217.32 196.38,-211.43"/>
</a>
</g>
</g>
<!-- Node6 -->
<g id="Node000006" class="node">
<title>Node6</title>
<g id="a_Node000006"><a xlink:href="callback_8hpp.html" target="_top" xlink:title=" ">
<polygon fill="white" stroke="#666666" points="162.88,-129.75 92.12,-129.75 92.12,-110.5 162.88,-110.5 162.88,-129.75"/>
<text text-anchor="middle" x="127.5" y="-116.25" font-family="Helvetica,sans-Serif" font-size="10.00">callback.hpp</text>
</a>
</g>
</g>
<!-- Node5&#45;&gt;Node6 -->
<g id="edge5_Node000005_Node000006" class="edge">
<title>Node5&#45;&gt;Node6</title>
<g id="a_edge5_Node000005_Node000006"><a xlink:title=" ">
<path fill="none" stroke="#63b8ff" d="M159.17,-157.01C151.25,-148.03 141.9,-137.45 135.43,-130.11"/>
<polygon fill="#63b8ff" stroke="#63b8ff" points="156.5,-159.27 165.74,-164.45 161.74,-154.63 156.5,-159.27"/>
</a>
</g>
</g>
<!-- Node9 -->
<g id="Node000009" class="node">
<title>Node9</title>
<g id="a_Node000009"><a xlink:href="default__log_8cpp.html" target="_top" xlink:title=" ">
<polygon fill="white" stroke="#666666" points="262.5,-129.75 180.5,-129.75 180.5,-110.5 262.5,-110.5 262.5,-129.75"/>
<text text-anchor="middle" x="221.5" y="-116.25" font-family="Helvetica,sans-Serif" font-size="10.00">default_log.cpp</text>
</a>
</g>
</g>
<!-- Node5&#45;&gt;Node9 -->
<g id="edge8_Node000005_Node000009" class="edge">
<title>Node5&#45;&gt;Node9</title>
<g id="a_edge8_Node000005_Node000009"><a xlink:title=" ">
<path fill="none" stroke="#63b8ff" d="M189.83,-157.01C197.75,-148.03 207.1,-137.45 213.57,-130.11"/>
<polygon fill="#63b8ff" stroke="#63b8ff" points="187.26,-154.63 183.26,-164.45 192.5,-159.27 187.26,-154.63"/>
</a>
</g>
</g>
<!-- Node7 -->
<g id="Node000007" class="node">
<title>Node7</title>
<g id="a_Node000007"><a xlink:href="event__sink_8hpp.html" target="_top" xlink:title=" ">
<polygon fill="white" stroke="#666666" points="168.5,-74.5 86.5,-74.5 86.5,-55.25 168.5,-55.25 168.5,-74.5"/>
<text text-anchor="middle" x="127.5" y="-61" font-family="Helvetica,sans-Serif" font-size="10.00">event_sink.hpp</text>
</a>
</g>
</g>
<!-- Node6&#45;&gt;Node7 -->
<g id="edge6_Node000006_Node000007" class="edge">
<title>Node6&#45;&gt;Node7</title>
<g id="a_edge6_Node000006_Node000007"><a xlink:title=" ">
<path fill="none" stroke="#63b8ff" d="M127.5,-98.88C127.5,-90.59 127.5,-81.42 127.5,-74.86"/>
<polygon fill="#63b8ff" stroke="#63b8ff" points="124,-98.82 127.5,-108.82 131,-98.82 124,-98.82"/>
</a>
</g>
</g>
<!-- Node8 -->
<g id="Node000008" class="node">
<title>Node8</title>
<g id="a_Node000008"><a xlink:href="event__dispatcher_8hpp.html" target="_top" xlink:title=" ">
<polygon fill="white" stroke="#666666" points="181.62,-19.25 73.38,-19.25 73.38,0 181.62,0 181.62,-19.25"/>
<text text-anchor="middle" x="127.5" y="-5.75" font-family="Helvetica,sans-Serif" font-size="10.00">event_dispatcher.hpp</text>
</a>
</g>
</g>
<!-- Node7&#45;&gt;Node8 -->
<g id="edge7_Node000007_Node000008" class="edge">
<title>Node7&#45;&gt;Node8</title>
<g id="a_edge7_Node000007_Node000008"><a xlink:title=" ">
<path fill="none" stroke="#63b8ff" d="M127.5,-43.63C127.5,-35.34 127.5,-26.17 127.5,-19.61"/>
<polygon fill="#63b8ff" stroke="#63b8ff" points="124,-43.57 127.5,-53.57 131,-43.57 124,-43.57"/>
</a>
</g>
</g>
</g>
</svg>
</svg>

<style type='text/css'>
<![CDATA[
[data-mouse-over-selected='false'] { opacity: 0.7; }
[data-mouse-over-selected='true']  { opacity: 1.0; }
]]>
</style>
<script type="application/ecmascript"><![CDATA[
document.addEventListener('DOMContentLoaded', (event) => {
  highlightEdges();
  highlightAdjacentNodes();
});
]]></script>
</svg>
