<?xml version="1.0" encoding="UTF-8" standalone="no"?>
<!DOCTYPE svg PUBLIC "-//W3C//DTD SVG 1.1//EN"
 "http://www.w3.org/Graphics/SVG/1.1/DTD/svg11.dtd">
<!-- Generated by graphviz version 7.1.0 (20230121.1956)
 -->
<!-- Title: log_message.hpp Pages: 1 -->
<svg width="330pt" height="252pt"
 viewBox="0.00 0.00 329.50 252.00" xmlns="http://www.w3.org/2000/svg" xmlns:xlink="http://www.w3.org/1999/xlink">
<g id="graph0" class="graph" transform="scale(1 1) rotate(0) translate(4 248)">
<title>log_message.hpp</title>
<polygon fill="white" stroke="none" points="-4,4 -4,-248 325.5,-248 325.5,4 -4,4"/>
<!-- Node1 -->
<g id="node1" class="node">
<title>Node1</title>
<g id="a_node1"><a xlink:title=" ">
<polygon fill="#bfbfbf" stroke="black" points="58,-224.5 58,-243.5 151,-243.5 151,-224.5 58,-224.5"/>
<text text-anchor="middle" x="104.5" y="-231.5" font-family="Helvetica,sans-Serif" font-size="10.00">log_message.hpp</text>
</a>
</g>
</g>
<!-- Node2 -->
<g id="node2" class="node">
<title>Node2</title>
<g id="a_node2"><a xlink:href="log_8hpp.html" target="_top" xlink:title=" ">
<polygon fill="white" stroke="black" points="35.5,-112.5 35.5,-131.5 83.5,-131.5 83.5,-112.5 35.5,-112.5"/>
<text text-anchor="middle" x="59.5" y="-119.5" font-family="Helvetica,sans-Serif" font-size="10.00">log.hpp</text>
</a>
</g>
</g>
<!-- Node1&#45;&gt;Node2 -->
<g id="edge1" class="edge">
<title>Node1&#45;&gt;Node2</title>
<path fill="none" stroke="midnightblue" d="M77.73,-218.75C66.52,-211.23 54.67,-200.87 48.5,-188 39.5,-169.22 48.85,-144.29 55.02,-131.45"/>
<polygon fill="midnightblue" stroke="midnightblue" points="75.63,-221.56 85.98,-223.83 79.3,-215.6 75.63,-221.56"/>
</g>
<!-- Node7 -->
<g id="node7" class="node">
<title>Node7</title>
<g id="a_node7"><a xlink:href="log__message_8cpp.html" target="_top" xlink:title=" ">
<polygon fill="white" stroke="black" points="58,-168.5 58,-187.5 151,-187.5 151,-168.5 58,-168.5"/>
<text text-anchor="middle" x="104.5" y="-175.5" font-family="Helvetica,sans-Serif" font-size="10.00">log_message.cpp</text>
</a>
</g>
</g>
<!-- Node1&#45;&gt;Node7 -->
<g id="edge6" class="edge">
<title>Node1&#45;&gt;Node7</title>
<path fill="none" stroke="midnightblue" d="M104.5,-213.1C104.5,-204.14 104.5,-194.06 104.5,-187.2"/>
<polygon fill="midnightblue" stroke="midnightblue" points="101,-213.05 104.5,-223.05 108,-213.05 101,-213.05"/>
</g>
<!-- Node8 -->
<g id="node8" class="node">
<title>Node8</title>
<g id="a_node8"><a xlink:href="log__writer_8hpp.html" target="_top" xlink:title=" ">
<polygon fill="white" stroke="black" points="169,-168.5 169,-187.5 246,-187.5 246,-168.5 169,-168.5"/>
<text text-anchor="middle" x="207.5" y="-175.5" font-family="Helvetica,sans-Serif" font-size="10.00">log_writer.hpp</text>
</a>
</g>
</g>
<!-- Node1&#45;&gt;Node8 -->
<g id="edge7" class="edge">
<title>Node1&#45;&gt;Node8</title>
<path fill="none" stroke="midnightblue" d="M130.78,-219.22C149.95,-209.17 175.31,-195.88 191.52,-187.38"/>
<polygon fill="midnightblue" stroke="midnightblue" points="129.17,-216.12 121.93,-223.86 132.42,-222.32 129.17,-216.12"/>
</g>
<!-- Node3 -->
<g id="node3" class="node">
<title>Node3</title>
<g id="a_node3"><a xlink:href="default__log_8hpp.html" target="_top" xlink:title=" ">
<polygon fill="white" stroke="black" points="0,-56.5 0,-75.5 83,-75.5 83,-56.5 0,-56.5"/>
<text text-anchor="middle" x="41.5" y="-63.5" font-family="Helvetica,sans-Serif" font-size="10.00">default_log.hpp</text>
</a>
</g>
</g>
<!-- Node2&#45;&gt;Node3 -->
<g id="edge2" class="edge">
<title>Node2&#45;&gt;Node3</title>
<path fill="none" stroke="midnightblue" d="M53.07,-101.72C50.04,-92.61 46.57,-82.22 44.23,-75.2"/>
<polygon fill="midnightblue" stroke="midnightblue" points="49.73,-102.75 56.21,-111.13 56.37,-100.53 49.73,-102.75"/>
</g>
<!-- Node6 -->
<g id="node6" class="node">
<title>Node6</title>
<g id="a_node6"><a xlink:href="log_8cpp.html" target="_top" xlink:title=" ">
<polygon fill="white" stroke="black" points="101.5,-56.5 101.5,-75.5 149.5,-75.5 149.5,-56.5 101.5,-56.5"/>
<text text-anchor="middle" x="125.5" y="-63.5" font-family="Helvetica,sans-Serif" font-size="10.00">log.cpp</text>
</a>
</g>
</g>
<!-- Node2&#45;&gt;Node6 -->
<g id="edge5" class="edge">
<title>Node2&#45;&gt;Node6</title>
<path fill="none" stroke="midnightblue" d="M78.66,-105.32C90.7,-95.47 105.74,-83.17 115.48,-75.2"/>
<polygon fill="midnightblue" stroke="midnightblue" points="76.51,-102.56 70.98,-111.6 80.94,-107.98 76.51,-102.56"/>
</g>
<!-- Node4 -->
<g id="node4" class="node">
<title>Node4</title>
<g id="a_node4"><a xlink:href="core_8hpp.html" target="_top" xlink:title=" ">
<polygon fill="white" stroke="black" points="125.5,-0.5 125.5,-19.5 179.5,-19.5 179.5,-0.5 125.5,-0.5"/>
<text text-anchor="middle" x="152.5" y="-7.5" font-family="Helvetica,sans-Serif" font-size="10.00">core.hpp</text>
</a>
</g>
</g>
<!-- Node3&#45;&gt;Node4 -->
<g id="edge3" class="edge">
<title>Node3&#45;&gt;Node4</title>
<path fill="none" stroke="midnightblue" d="M68.96,-51.64C89.71,-41.54 117.57,-27.99 135.28,-19.38"/>
<polygon fill="midnightblue" stroke="midnightblue" points="67.67,-48.38 60.2,-55.9 70.73,-54.67 67.67,-48.38"/>
</g>
<!-- Node5 -->
<g id="node5" class="node">
<title>Node5</title>
<g id="a_node5"><a xlink:href="default__log_8cpp.html" target="_top" xlink:title=" ">
<polygon fill="white" stroke="black" points="0,-0.5 0,-19.5 83,-19.5 83,-0.5 0,-0.5"/>
<text text-anchor="middle" x="41.5" y="-7.5" font-family="Helvetica,sans-Serif" font-size="10.00">default_log.cpp</text>
</a>
</g>
</g>
<!-- Node3&#45;&gt;Node5 -->
<g id="edge4" class="edge">
<title>Node3&#45;&gt;Node5</title>
<path fill="none" stroke="midnightblue" d="M41.5,-45.1C41.5,-36.14 41.5,-26.06 41.5,-19.2"/>
<polygon fill="midnightblue" stroke="midnightblue" points="38,-45.05 41.5,-55.05 45,-45.05 38,-45.05"/>
</g>
<!-- Node8&#45;&gt;Node2 -->
<g id="edge11" class="edge">
<title>Node8&#45;&gt;Node2</title>
<path fill="none" stroke="midnightblue" d="M173.89,-164.74C145.96,-154.55 106.94,-140.31 82.46,-131.38"/>
<polygon fill="midnightblue" stroke="midnightblue" points="172.36,-167.9 182.95,-168.04 174.76,-161.33 172.36,-167.9"/>
</g>
<!-- Node9 -->
<g id="node9" class="node">
<title>Node9</title>
<g id="a_node9"><a xlink:href="console__log__writer_8hpp.html" target="_top" xlink:title=" ">
<polygon fill="white" stroke="black" points="149.5,-112.5 149.5,-131.5 265.5,-131.5 265.5,-112.5 149.5,-112.5"/>
<text text-anchor="middle" x="207.5" y="-119.5" font-family="Helvetica,sans-Serif" font-size="10.00">console_log_writer.hpp</text>
</a>
</g>
</g>
<!-- Node8&#45;&gt;Node9 -->
<g id="edge8" class="edge">
<title>Node8&#45;&gt;Node9</title>
<path fill="none" stroke="midnightblue" d="M207.5,-157.1C207.5,-148.14 207.5,-138.06 207.5,-131.2"/>
<polygon fill="midnightblue" stroke="midnightblue" points="204,-157.05 207.5,-167.05 211,-157.05 204,-157.05"/>
</g>
<!-- Node9&#45;&gt;Node4 -->
<g id="edge10" class="edge">
<title>Node9&#45;&gt;Node4</title>
<path fill="none" stroke="midnightblue" d="M198.37,-102.73C186.3,-78.59 165.52,-37.05 156.68,-19.36"/>
<polygon fill="midnightblue" stroke="midnightblue" points="195.09,-104 202.69,-111.38 201.35,-100.87 195.09,-104"/>
</g>
<!-- Node10 -->
<g id="node10" class="node">
<title>Node10</title>
<g id="a_node10"><a xlink:href="console__log__writer_8cpp.html" target="_top" xlink:title=" ">
<polygon fill="white" stroke="black" points="205.5,-56.5 205.5,-75.5 321.5,-75.5 321.5,-56.5 205.5,-56.5"/>
<text text-anchor="middle" x="263.5" y="-63.5" font-family="Helvetica,sans-Serif" font-size="10.00">console_log_writer.cpp</text>
</a>
</g>
</g>
<!-- Node9&#45;&gt;Node10 -->
<g id="edge9" class="edge">
<title>Node9&#45;&gt;Node10</title>
<path fill="none" stroke="midnightblue" d="M224.37,-104.73C234.48,-94.99 246.9,-83.01 254.99,-75.2"/>
<polygon fill="midnightblue" stroke="midnightblue" points="222.11,-102.05 217.34,-111.51 226.97,-107.09 222.11,-102.05"/>
</g>
</g>
</svg>
