<?xml version="1.0" encoding="UTF-8" standalone="no"?>
<!DOCTYPE svg PUBLIC "-//W3C//DTD SVG 1.1//EN"
 "http://www.w3.org/Graphics/SVG/1.1/DTD/svg11.dtd">
<!-- Generated by graphviz version 7.1.0 (20230121.1956)
 -->
<!-- Title: log_writer.hpp Pages: 1 -->
<svg width="391pt" height="364pt"
 viewBox="0.00 0.00 390.50 364.00" xmlns="http://www.w3.org/2000/svg" xmlns:xlink="http://www.w3.org/1999/xlink">
<g id="graph0" class="graph" transform="scale(1 1) rotate(0) translate(4 360)">
<title>log_writer.hpp</title>
<polygon fill="white" stroke="none" points="-4,4 -4,-360 386.5,-360 386.5,4 -4,4"/>
<!-- Node1 -->
<g id="node1" class="node">
<title>Node1</title>
<g id="a_node1"><a xlink:title=" ">
<polygon fill="#bfbfbf" stroke="black" points="155.5,-336.5 155.5,-355.5 232.5,-355.5 232.5,-336.5 155.5,-336.5"/>
<text text-anchor="middle" x="194" y="-343.5" font-family="Helvetica,sans-Serif" font-size="10.00">log_writer.hpp</text>
</a>
</g>
</g>
<!-- Node2 -->
<g id="node2" class="node">
<title>Node2</title>
<g id="a_node2"><a xlink:href="console__log__writer_8hpp.html" target="_top" xlink:title=" ">
<polygon fill="white" stroke="black" points="86,-280.5 86,-299.5 202,-299.5 202,-280.5 86,-280.5"/>
<text text-anchor="middle" x="144" y="-287.5" font-family="Helvetica,sans-Serif" font-size="10.00">console_log_writer.hpp</text>
</a>
</g>
</g>
<!-- Node1&#45;&gt;Node2 -->
<g id="edge1" class="edge">
<title>Node1&#45;&gt;Node2</title>
<path fill="none" stroke="midnightblue" d="M178.39,-328.14C169.47,-318.5 158.68,-306.85 151.59,-299.2"/>
<polygon fill="midnightblue" stroke="midnightblue" points="175.8,-330.49 185.16,-335.45 180.93,-325.74 175.8,-330.49"/>
</g>
<!-- Node5 -->
<g id="node5" class="node">
<title>Node5</title>
<g id="a_node5"><a xlink:href="log_8hpp.html" target="_top" xlink:title=" ">
<polygon fill="white" stroke="black" points="221,-280.5 221,-299.5 269,-299.5 269,-280.5 221,-280.5"/>
<text text-anchor="middle" x="245" y="-287.5" font-family="Helvetica,sans-Serif" font-size="10.00">log.hpp</text>
</a>
</g>
</g>
<!-- Node1&#45;&gt;Node5 -->
<g id="edge4" class="edge">
<title>Node1&#45;&gt;Node5</title>
<path fill="none" stroke="midnightblue" d="M209.64,-328.44C218.8,-318.74 229.95,-306.93 237.25,-299.2"/>
<polygon fill="midnightblue" stroke="midnightblue" points="207.33,-325.79 203.01,-335.46 212.42,-330.6 207.33,-325.79"/>
</g>
<!-- Node3 -->
<g id="node3" class="node">
<title>Node3</title>
<g id="a_node3"><a xlink:href="console__log__writer_8cpp.html" target="_top" xlink:title=" ">
<polygon fill="white" stroke="black" points="0,-224.5 0,-243.5 116,-243.5 116,-224.5 0,-224.5"/>
<text text-anchor="middle" x="58" y="-231.5" font-family="Helvetica,sans-Serif" font-size="10.00">console_log_writer.cpp</text>
</a>
</g>
</g>
<!-- Node2&#45;&gt;Node3 -->
<g id="edge2" class="edge">
<title>Node2&#45;&gt;Node3</title>
<path fill="none" stroke="midnightblue" d="M120.93,-274.52C105.07,-264.56 84.56,-251.68 71.34,-243.38"/>
<polygon fill="midnightblue" stroke="midnightblue" points="118.95,-277.4 129.28,-279.76 122.67,-271.48 118.95,-277.4"/>
</g>
<!-- Node4 -->
<g id="node4" class="node">
<title>Node4</title>
<g id="a_node4"><a xlink:href="core_8hpp.html" target="_top" xlink:title=" ">
<polygon fill="white" stroke="black" points="155,-0.5 155,-19.5 209,-19.5 209,-0.5 155,-0.5"/>
<text text-anchor="middle" x="182" y="-7.5" font-family="Helvetica,sans-Serif" font-size="10.00">core.hpp</text>
</a>
</g>
</g>
<!-- Node2&#45;&gt;Node4 -->
<g id="edge3" class="edge">
<title>Node2&#45;&gt;Node4</title>
<path fill="none" stroke="midnightblue" d="M144,-269.36C144,-247.35 144,-210.62 144,-179 144,-179 144,-179 144,-121 144,-81.2 166.5,-37.51 176.88,-19.49"/>
<polygon fill="midnightblue" stroke="midnightblue" points="140.5,-269.21 144,-279.21 147.5,-269.21 140.5,-269.21"/>
</g>
<!-- Node6 -->
<g id="node6" class="node">
<title>Node6</title>
<g id="a_node6"><a xlink:href="default__log_8hpp.html" target="_top" xlink:title=" ">
<polygon fill="white" stroke="black" points="203.5,-224.5 203.5,-243.5 286.5,-243.5 286.5,-224.5 203.5,-224.5"/>
<text text-anchor="middle" x="245" y="-231.5" font-family="Helvetica,sans-Serif" font-size="10.00">default_log.hpp</text>
</a>
</g>
</g>
<!-- Node5&#45;&gt;Node6 -->
<g id="edge5" class="edge">
<title>Node5&#45;&gt;Node6</title>
<path fill="none" stroke="midnightblue" d="M245,-269.1C245,-260.14 245,-250.06 245,-243.2"/>
<polygon fill="midnightblue" stroke="midnightblue" points="241.5,-269.05 245,-279.05 248.5,-269.05 241.5,-269.05"/>
</g>
<!-- Node11 -->
<g id="node11" class="node">
<title>Node11</title>
<g id="a_node11"><a xlink:href="log_8cpp.html" target="_top" xlink:title=" ">
<polygon fill="white" stroke="black" points="305,-224.5 305,-243.5 353,-243.5 353,-224.5 305,-224.5"/>
<text text-anchor="middle" x="329" y="-231.5" font-family="Helvetica,sans-Serif" font-size="10.00">log.cpp</text>
</a>
</g>
</g>
<!-- Node5&#45;&gt;Node11 -->
<g id="edge12" class="edge">
<title>Node5&#45;&gt;Node11</title>
<path fill="none" stroke="midnightblue" d="M267.53,-274.52C283.02,-264.56 303.06,-251.68 315.97,-243.38"/>
<polygon fill="midnightblue" stroke="midnightblue" points="265.92,-271.39 259.4,-279.74 269.7,-277.28 265.92,-271.39"/>
</g>
<!-- Node6&#45;&gt;Node4 -->
<g id="edge10" class="edge">
<title>Node6&#45;&gt;Node4</title>
<path fill="none" stroke="midnightblue" d="M224.38,-217.28C215.67,-209.48 206.33,-199.3 201,-188 172.93,-128.46 178.42,-45.46 181.05,-19.26"/>
<polygon fill="midnightblue" stroke="midnightblue" points="221.95,-219.82 231.87,-223.54 226.43,-214.44 221.95,-219.82"/>
</g>
<!-- Node7 -->
<g id="node7" class="node">
<title>Node7</title>
<g id="a_node7"><a xlink:href="callback_8hpp.html" target="_top" xlink:title=" ">
<polygon fill="white" stroke="black" points="210.5,-168.5 210.5,-187.5 281.5,-187.5 281.5,-168.5 210.5,-168.5"/>
<text text-anchor="middle" x="246" y="-175.5" font-family="Helvetica,sans-Serif" font-size="10.00">callback.hpp</text>
</a>
</g>
</g>
<!-- Node6&#45;&gt;Node7 -->
<g id="edge6" class="edge">
<title>Node6&#45;&gt;Node7</title>
<path fill="none" stroke="midnightblue" d="M245.37,-213.1C245.53,-204.14 245.72,-194.06 245.85,-187.2"/>
<polygon fill="midnightblue" stroke="midnightblue" points="241.87,-212.99 245.18,-223.05 248.87,-213.12 241.87,-212.99"/>
</g>
<!-- Node10 -->
<g id="node10" class="node">
<title>Node10</title>
<g id="a_node10"><a xlink:href="default__log_8cpp.html" target="_top" xlink:title=" ">
<polygon fill="white" stroke="black" points="299.5,-168.5 299.5,-187.5 382.5,-187.5 382.5,-168.5 299.5,-168.5"/>
<text text-anchor="middle" x="341" y="-175.5" font-family="Helvetica,sans-Serif" font-size="10.00">default_log.cpp</text>
</a>
</g>
</g>
<!-- Node6&#45;&gt;Node10 -->
<g id="edge11" class="edge">
<title>Node6&#45;&gt;Node10</title>
<path fill="none" stroke="midnightblue" d="M269.99,-218.94C287.8,-208.93 311.14,-195.8 326.11,-187.38"/>
<polygon fill="midnightblue" stroke="midnightblue" points="268.32,-215.87 261.32,-223.82 271.75,-221.97 268.32,-215.87"/>
</g>
<!-- Node8 -->
<g id="node8" class="node">
<title>Node8</title>
<g id="a_node8"><a xlink:href="event__sink_8hpp.html" target="_top" xlink:title=" ">
<polygon fill="white" stroke="black" points="216.5,-112.5 216.5,-131.5 299.5,-131.5 299.5,-112.5 216.5,-112.5"/>
<text text-anchor="middle" x="258" y="-119.5" font-family="Helvetica,sans-Serif" font-size="10.00">event_sink.hpp</text>
</a>
</g>
</g>
<!-- Node7&#45;&gt;Node8 -->
<g id="edge7" class="edge">
<title>Node7&#45;&gt;Node8</title>
<path fill="none" stroke="midnightblue" d="M250.35,-157.41C252.36,-148.38 254.63,-138.14 256.18,-131.2"/>
<polygon fill="midnightblue" stroke="midnightblue" points="246.96,-156.56 248.2,-167.08 253.79,-158.08 246.96,-156.56"/>
</g>
<!-- Node9 -->
<g id="node9" class="node">
<title>Node9</title>
<g id="a_node9"><a xlink:href="event__dispatcher_8hpp.html" target="_top" xlink:title=" ">
<polygon fill="white" stroke="black" points="210.5,-56.5 210.5,-75.5 319.5,-75.5 319.5,-56.5 210.5,-56.5"/>
<text text-anchor="middle" x="265" y="-63.5" font-family="Helvetica,sans-Serif" font-size="10.00">event_dispatcher.hpp</text>
</a>
</g>
</g>
<!-- Node8&#45;&gt;Node9 -->
<g id="edge8" class="edge">
<title>Node8&#45;&gt;Node9</title>
<path fill="none" stroke="midnightblue" d="M260.54,-101.41C261.71,-92.38 263.04,-82.14 263.94,-75.2"/>
<polygon fill="midnightblue" stroke="midnightblue" points="257.1,-100.69 259.29,-111.06 264.04,-101.59 257.1,-100.69"/>
</g>
<!-- Node9&#45;&gt;Node4 -->
<g id="edge9" class="edge">
<title>Node9&#45;&gt;Node4</title>
<path fill="none" stroke="midnightblue" d="M242.74,-50.52C227.43,-40.56 207.64,-27.68 194.88,-19.38"/>
<polygon fill="midnightblue" stroke="midnightblue" points="240.47,-53.22 250.76,-55.74 244.29,-47.35 240.47,-53.22"/>
</g>
</g>
</svg>
