<?xml version="1.0" encoding="UTF-8" standalone="no"?>
<!DOCTYPE svg PUBLIC "-//W3C//DTD SVG 1.1//EN"
 "http://www.w3.org/Graphics/SVG/1.1/DTD/svg11.dtd">
<!-- Generated by graphviz version 7.1.0 (20230121.1956)
 -->
<!-- Title: log_writer.hpp Pages: 1 -->
<svg width="533pt" height="308pt"
 viewBox="0.00 0.00 533.00 308.00" xmlns="http://www.w3.org/2000/svg" xmlns:xlink="http://www.w3.org/1999/xlink">
<g id="graph0" class="graph" transform="scale(1 1) rotate(0) translate(4 304)">
<title>log_writer.hpp</title>
<polygon fill="white" stroke="none" points="-4,4 -4,-304 529,-304 529,4 -4,4"/>
<!-- Node1 -->
<g id="node1" class="node">
<title>Node1</title>
<g id="a_node1"><a xlink:title=" ">
<polygon fill="#bfbfbf" stroke="black" points="211.5,-280.5 211.5,-299.5 288.5,-299.5 288.5,-280.5 211.5,-280.5"/>
<text text-anchor="middle" x="250" y="-287.5" font-family="Helvetica,sans-Serif" font-size="10.00">log_writer.hpp</text>
</a>
</g>
</g>
<!-- Node2 -->
<g id="node2" class="node">
<title>Node2</title>
<g id="a_node2"><a xlink:href="log__message_8hpp.html" target="_top" xlink:title=" ">
<polygon fill="white" stroke="black" points="174,-224.5 174,-243.5 326,-243.5 326,-224.5 174,-224.5"/>
<text text-anchor="middle" x="250" y="-231.5" font-family="Helvetica,sans-Serif" font-size="10.00">liger/core/log/log_message.hpp</text>
</a>
</g>
</g>
<!-- Node1&#45;&gt;Node2 -->
<g id="edge1" class="edge">
<title>Node1&#45;&gt;Node2</title>
<path fill="none" stroke="midnightblue" d="M250,-280.56C250,-273.63 250,-263.52 250,-254.59"/>
<polygon fill="midnightblue" stroke="midnightblue" points="253.5,-254.71 250,-244.71 246.5,-254.72 253.5,-254.71"/>
</g>
<!-- Node3 -->
<g id="node3" class="node">
<title>Node3</title>
<g id="a_node3"><a xlink:href="log__level_8hpp.html" target="_top" xlink:title=" ">
<polygon fill="white" stroke="black" points="137,-168.5 137,-187.5 269,-187.5 269,-168.5 137,-168.5"/>
<text text-anchor="middle" x="203" y="-175.5" font-family="Helvetica,sans-Serif" font-size="10.00">liger/core/log/log_level.hpp</text>
</a>
</g>
</g>
<!-- Node2&#45;&gt;Node3 -->
<g id="edge2" class="edge">
<title>Node2&#45;&gt;Node3</title>
<path fill="none" stroke="midnightblue" d="M242.66,-224.56C236,-216.91 225.98,-205.4 217.68,-195.86"/>
<polygon fill="midnightblue" stroke="midnightblue" points="220.34,-193.59 211.13,-188.34 215.06,-198.18 220.34,-193.59"/>
</g>
<!-- Node5 -->
<g id="node5" class="node">
<title>Node5</title>
<g id="a_node5"><a xlink:href="types_8hpp.html" target="_top" xlink:title=" ">
<polygon fill="white" stroke="black" points="199,-56.5 199,-75.5 301,-75.5 301,-56.5 199,-56.5"/>
<text text-anchor="middle" x="250" y="-63.5" font-family="Helvetica,sans-Serif" font-size="10.00">liger/core/types.hpp</text>
</a>
</g>
</g>
<!-- Node2&#45;&gt;Node5 -->
<g id="edge13" class="edge">
<title>Node2&#45;&gt;Node5</title>
<path fill="none" stroke="midnightblue" d="M257.15,-224.73C264.03,-216.19 273.96,-202.16 278,-188 287.28,-155.52 287.28,-144.48 278,-112 275.19,-102.16 269.53,-92.37 264.04,-84.45"/>
<polygon fill="midnightblue" stroke="midnightblue" points="266.86,-82.38 258.06,-76.48 261.26,-86.58 266.86,-82.38"/>
</g>
<!-- Node4 -->
<g id="node4" class="node">
<title>Node4</title>
<g id="a_node4"><a xlink:href="enum__class_8hpp.html" target="_top" xlink:title=" ">
<polygon fill="white" stroke="black" points="137.5,-112.5 137.5,-131.5 268.5,-131.5 268.5,-112.5 137.5,-112.5"/>
<text text-anchor="middle" x="203" y="-119.5" font-family="Helvetica,sans-Serif" font-size="10.00">liger/core/enum_class.hpp</text>
</a>
</g>
</g>
<!-- Node3&#45;&gt;Node4 -->
<g id="edge3" class="edge">
<title>Node3&#45;&gt;Node4</title>
<path fill="none" stroke="midnightblue" d="M203,-168.56C203,-161.63 203,-151.52 203,-142.59"/>
<polygon fill="midnightblue" stroke="midnightblue" points="206.5,-142.71 203,-132.71 199.5,-142.72 206.5,-142.71"/>
</g>
<!-- Node4&#45;&gt;Node5 -->
<g id="edge4" class="edge">
<title>Node4&#45;&gt;Node5</title>
<path fill="none" stroke="midnightblue" d="M210.34,-112.56C217,-104.91 227.02,-93.4 235.32,-83.86"/>
<polygon fill="midnightblue" stroke="midnightblue" points="237.94,-86.18 241.87,-76.34 232.66,-81.59 237.94,-86.18"/>
</g>
<!-- Node6 -->
<g id="node6" class="node">
<title>Node6</title>
<g id="a_node6"><a xlink:title=" ">
<polygon fill="white" stroke="#bfbfbf" points="0,-0.5 0,-19.5 46,-19.5 46,-0.5 0,-0.5"/>
<text text-anchor="middle" x="23" y="-7.5" font-family="Helvetica,sans-Serif" font-size="10.00">cstdint</text>
</a>
</g>
</g>
<!-- Node5&#45;&gt;Node6 -->
<g id="edge5" class="edge">
<title>Node5&#45;&gt;Node6</title>
<path fill="none" stroke="midnightblue" d="M211.02,-56.57C173.88,-48.42 116.12,-35.42 56.78,-20.36"/>
<polygon fill="midnightblue" stroke="midnightblue" points="57.71,-16.98 47.16,-17.9 55.98,-23.77 57.71,-16.98"/>
</g>
<!-- Node7 -->
<g id="node7" class="node">
<title>Node7</title>
<g id="a_node7"><a xlink:title=" ">
<polygon fill="white" stroke="#bfbfbf" points="64,-0.5 64,-19.5 114,-19.5 114,-0.5 64,-0.5"/>
<text text-anchor="middle" x="89" y="-7.5" font-family="Helvetica,sans-Serif" font-size="10.00">fstream</text>
</a>
</g>
</g>
<!-- Node5&#45;&gt;Node7 -->
<g id="edge6" class="edge">
<title>Node5&#45;&gt;Node7</title>
<path fill="none" stroke="midnightblue" d="M224.84,-56.56C197.91,-47.53 154.94,-33.12 124.55,-22.92"/>
<polygon fill="midnightblue" stroke="midnightblue" points="126.01,-19.72 115.41,-19.86 123.78,-26.36 126.01,-19.72"/>
</g>
<!-- Node8 -->
<g id="node8" class="node">
<title>Node8</title>
<g id="a_node8"><a xlink:title=" ">
<polygon fill="white" stroke="#bfbfbf" points="132,-0.5 132,-19.5 186,-19.5 186,-0.5 132,-0.5"/>
<text text-anchor="middle" x="159" y="-7.5" font-family="Helvetica,sans-Serif" font-size="10.00">iostream</text>
</a>
</g>
</g>
<!-- Node5&#45;&gt;Node8 -->
<g id="edge7" class="edge">
<title>Node5&#45;&gt;Node8</title>
<path fill="none" stroke="midnightblue" d="M235.78,-56.56C221.62,-48.16 199.63,-35.11 182.81,-25.13"/>
<polygon fill="midnightblue" stroke="midnightblue" points="184.81,-22.24 174.42,-20.15 181.23,-28.26 184.81,-22.24"/>
</g>
<!-- Node9 -->
<g id="node9" class="node">
<title>Node9</title>
<g id="a_node9"><a xlink:title=" ">
<polygon fill="white" stroke="#bfbfbf" points="204.5,-0.5 204.5,-19.5 239.5,-19.5 239.5,-0.5 204.5,-0.5"/>
<text text-anchor="middle" x="222" y="-7.5" font-family="Helvetica,sans-Serif" font-size="10.00">map</text>
</a>
</g>
</g>
<!-- Node5&#45;&gt;Node9 -->
<g id="edge8" class="edge">
<title>Node5&#45;&gt;Node9</title>
<path fill="none" stroke="midnightblue" d="M245.62,-56.56C241.86,-49.31 236.31,-38.59 231.52,-29.37"/>
<polygon fill="midnightblue" stroke="midnightblue" points="234.66,-27.81 226.95,-20.55 228.45,-31.03 234.66,-27.81"/>
</g>
<!-- Node10 -->
<g id="node10" class="node">
<title>Node10</title>
<g id="a_node10"><a xlink:title=" ">
<polygon fill="white" stroke="#bfbfbf" points="257.5,-0.5 257.5,-19.5 298.5,-19.5 298.5,-0.5 257.5,-0.5"/>
<text text-anchor="middle" x="278" y="-7.5" font-family="Helvetica,sans-Serif" font-size="10.00">string</text>
</a>
</g>
</g>
<!-- Node5&#45;&gt;Node10 -->
<g id="edge9" class="edge">
<title>Node5&#45;&gt;Node10</title>
<path fill="none" stroke="midnightblue" d="M254.38,-56.56C258.14,-49.31 263.69,-38.59 268.48,-29.37"/>
<polygon fill="midnightblue" stroke="midnightblue" points="271.55,-31.03 273.05,-20.55 265.34,-27.81 271.55,-31.03"/>
</g>
<!-- Node11 -->
<g id="node11" class="node">
<title>Node11</title>
<g id="a_node11"><a xlink:title=" ">
<polygon fill="white" stroke="#bfbfbf" points="317,-0.5 317,-19.5 383,-19.5 383,-0.5 317,-0.5"/>
<text text-anchor="middle" x="350" y="-7.5" font-family="Helvetica,sans-Serif" font-size="10.00">string_view</text>
</a>
</g>
</g>
<!-- Node5&#45;&gt;Node11 -->
<g id="edge10" class="edge">
<title>Node5&#45;&gt;Node11</title>
<path fill="none" stroke="midnightblue" d="M265.62,-56.56C281.33,-48.08 305.8,-34.87 324.36,-24.85"/>
<polygon fill="midnightblue" stroke="midnightblue" points="326.02,-27.93 333.15,-20.1 322.69,-21.77 326.02,-27.93"/>
</g>
<!-- Node12 -->
<g id="node12" class="node">
<title>Node12</title>
<g id="a_node12"><a xlink:title=" ">
<polygon fill="white" stroke="#bfbfbf" points="401,-0.5 401,-19.5 463,-19.5 463,-0.5 401,-0.5"/>
<text text-anchor="middle" x="432" y="-7.5" font-family="Helvetica,sans-Serif" font-size="10.00">type_traits</text>
</a>
</g>
</g>
<!-- Node5&#45;&gt;Node12 -->
<g id="edge11" class="edge">
<title>Node5&#45;&gt;Node12</title>
<path fill="none" stroke="midnightblue" d="M278.44,-56.56C309.2,-47.44 358.45,-32.82 392.86,-22.61"/>
<polygon fill="midnightblue" stroke="midnightblue" points="393.42,-26.1 402.01,-19.9 391.43,-19.39 393.42,-26.1"/>
</g>
<!-- Node13 -->
<g id="node13" class="node">
<title>Node13</title>
<g id="a_node13"><a xlink:title=" ">
<polygon fill="white" stroke="#bfbfbf" points="481,-0.5 481,-19.5 525,-19.5 525,-0.5 481,-0.5"/>
<text text-anchor="middle" x="503" y="-7.5" font-family="Helvetica,sans-Serif" font-size="10.00">vector</text>
</a>
</g>
</g>
<!-- Node5&#45;&gt;Node13 -->
<g id="edge12" class="edge">
<title>Node5&#45;&gt;Node13</title>
<path fill="none" stroke="midnightblue" d="M297.46,-56.55C340.2,-48.69 404.96,-36.12 470.16,-20.29"/>
<polygon fill="midnightblue" stroke="midnightblue" points="470.7,-23.76 479.58,-17.98 469.03,-16.96 470.7,-23.76"/>
</g>
</g>
</svg>
