<?xml version="1.0" encoding="UTF-8" standalone="no"?>
<!DOCTYPE svg PUBLIC "-//W3C//DTD SVG 1.1//EN"
 "http://www.w3.org/Graphics/SVG/1.1/DTD/svg11.dtd">
<!-- Generated by graphviz version 7.1.0 (20230121.1956)
 -->
<!-- Title: log_level.hpp Pages: 1 -->
<svg width="345pt" height="308pt"
 viewBox="0.00 0.00 345.00 308.00" xmlns="http://www.w3.org/2000/svg" xmlns:xlink="http://www.w3.org/1999/xlink">
<g id="graph0" class="graph" transform="scale(1 1) rotate(0) translate(4 304)">
<title>log_level.hpp</title>
<polygon fill="white" stroke="none" points="-4,4 -4,-304 341,-304 341,4 -4,4"/>
<!-- Node1 -->
<g id="node1" class="node">
<title>Node1</title>
<g id="a_node1"><a xlink:title=" ">
<polygon fill="#bfbfbf" stroke="black" points="29,-280.5 29,-299.5 103,-299.5 103,-280.5 29,-280.5"/>
<text text-anchor="middle" x="66" y="-287.5" font-family="Helvetica,sans-Serif" font-size="10.00">log_level.hpp</text>
</a>
</g>
</g>
<!-- Node2 -->
<g id="node2" class="node">
<title>Node2</title>
<g id="a_node2"><a xlink:href="console__log__writer_8cpp.html" target="_top" xlink:title=" ">
<polygon fill="white" stroke="black" points="0,-56.5 0,-75.5 116,-75.5 116,-56.5 0,-56.5"/>
<text text-anchor="middle" x="58" y="-63.5" font-family="Helvetica,sans-Serif" font-size="10.00">console_log_writer.cpp</text>
</a>
</g>
</g>
<!-- Node1&#45;&gt;Node2 -->
<g id="edge1" class="edge">
<title>Node1&#45;&gt;Node2</title>
<path fill="none" stroke="midnightblue" d="M61.49,-269.6C57.04,-249.37 50.53,-216.66 48,-188 44.25,-145.59 52.64,-94.77 56.35,-75.22"/>
<polygon fill="midnightblue" stroke="midnightblue" points="58.05,-270.23 63.67,-279.21 64.87,-268.68 58.05,-270.23"/>
</g>
<!-- Node3 -->
<g id="node3" class="node">
<title>Node3</title>
<g id="a_node3"><a xlink:href="log__message_8hpp.html" target="_top" xlink:title=" ">
<polygon fill="white" stroke="black" points="108.5,-224.5 108.5,-243.5 201.5,-243.5 201.5,-224.5 108.5,-224.5"/>
<text text-anchor="middle" x="155" y="-231.5" font-family="Helvetica,sans-Serif" font-size="10.00">log_message.hpp</text>
</a>
</g>
</g>
<!-- Node1&#45;&gt;Node3 -->
<g id="edge2" class="edge">
<title>Node1&#45;&gt;Node3</title>
<path fill="none" stroke="midnightblue" d="M89.4,-274.8C105.88,-264.8 127.38,-251.76 141.19,-243.38"/>
<polygon fill="midnightblue" stroke="midnightblue" points="87.93,-271.6 81.2,-279.78 91.57,-277.58 87.93,-271.6"/>
</g>
<!-- Node4 -->
<g id="node4" class="node">
<title>Node4</title>
<g id="a_node4"><a xlink:href="log_8hpp.html" target="_top" xlink:title=" ">
<polygon fill="white" stroke="black" points="242,-112.5 242,-131.5 290,-131.5 290,-112.5 242,-112.5"/>
<text text-anchor="middle" x="266" y="-119.5" font-family="Helvetica,sans-Serif" font-size="10.00">log.hpp</text>
</a>
</g>
</g>
<!-- Node3&#45;&gt;Node4 -->
<g id="edge3" class="edge">
<title>Node3&#45;&gt;Node4</title>
<path fill="none" stroke="midnightblue" d="M206.09,-220.82C224.12,-214.03 242.89,-203.67 255,-188 268.01,-171.15 267.92,-144.47 266.9,-131.14"/>
<polygon fill="midnightblue" stroke="midnightblue" points="205.09,-217.46 196.76,-224.01 207.35,-224.09 205.09,-217.46"/>
</g>
<!-- Node9 -->
<g id="node9" class="node">
<title>Node9</title>
<g id="a_node9"><a xlink:href="log__message_8cpp.html" target="_top" xlink:title=" ">
<polygon fill="white" stroke="black" points="57.5,-168.5 57.5,-187.5 150.5,-187.5 150.5,-168.5 57.5,-168.5"/>
<text text-anchor="middle" x="104" y="-175.5" font-family="Helvetica,sans-Serif" font-size="10.00">log_message.cpp</text>
</a>
</g>
</g>
<!-- Node3&#45;&gt;Node9 -->
<g id="edge8" class="edge">
<title>Node3&#45;&gt;Node9</title>
<path fill="none" stroke="midnightblue" d="M139.36,-216.44C130.2,-206.74 119.05,-194.93 111.75,-187.2"/>
<polygon fill="midnightblue" stroke="midnightblue" points="136.58,-218.6 145.99,-223.46 141.67,-213.79 136.58,-218.6"/>
</g>
<!-- Node10 -->
<g id="node10" class="node">
<title>Node10</title>
<g id="a_node10"><a xlink:href="log__writer_8hpp.html" target="_top" xlink:title=" ">
<polygon fill="white" stroke="black" points="168.5,-168.5 168.5,-187.5 245.5,-187.5 245.5,-168.5 168.5,-168.5"/>
<text text-anchor="middle" x="207" y="-175.5" font-family="Helvetica,sans-Serif" font-size="10.00">log_writer.hpp</text>
</a>
</g>
</g>
<!-- Node3&#45;&gt;Node10 -->
<g id="edge9" class="edge">
<title>Node3&#45;&gt;Node10</title>
<path fill="none" stroke="midnightblue" d="M170.95,-216.44C180.28,-206.74 191.66,-194.93 199.1,-187.2"/>
<polygon fill="midnightblue" stroke="midnightblue" points="168.59,-213.84 164.17,-223.47 173.63,-218.7 168.59,-213.84"/>
</g>
<!-- Node5 -->
<g id="node5" class="node">
<title>Node5</title>
<g id="a_node5"><a xlink:href="default__log_8hpp.html" target="_top" xlink:title=" ">
<polygon fill="white" stroke="black" points="187.5,-56.5 187.5,-75.5 270.5,-75.5 270.5,-56.5 187.5,-56.5"/>
<text text-anchor="middle" x="229" y="-63.5" font-family="Helvetica,sans-Serif" font-size="10.00">default_log.hpp</text>
</a>
</g>
</g>
<!-- Node4&#45;&gt;Node5 -->
<g id="edge4" class="edge">
<title>Node4&#45;&gt;Node5</title>
<path fill="none" stroke="midnightblue" d="M253.83,-103.24C247.35,-93.79 239.7,-82.62 234.62,-75.2"/>
<polygon fill="midnightblue" stroke="midnightblue" points="250.82,-105.04 259.36,-111.31 256.6,-101.09 250.82,-105.04"/>
</g>
<!-- Node8 -->
<g id="node8" class="node">
<title>Node8</title>
<g id="a_node8"><a xlink:href="log_8cpp.html" target="_top" xlink:title=" ">
<polygon fill="white" stroke="black" points="289,-56.5 289,-75.5 337,-75.5 337,-56.5 289,-56.5"/>
<text text-anchor="middle" x="313" y="-63.5" font-family="Helvetica,sans-Serif" font-size="10.00">log.cpp</text>
</a>
</g>
</g>
<!-- Node4&#45;&gt;Node8 -->
<g id="edge7" class="edge">
<title>Node4&#45;&gt;Node8</title>
<path fill="none" stroke="midnightblue" d="M280.68,-104.14C289.06,-94.5 299.2,-82.85 305.86,-75.2"/>
<polygon fill="midnightblue" stroke="midnightblue" points="278.26,-101.58 274.34,-111.42 283.54,-106.18 278.26,-101.58"/>
</g>
<!-- Node6 -->
<g id="node6" class="node">
<title>Node6</title>
<g id="a_node6"><a xlink:href="core_8hpp.html" target="_top" xlink:title=" ">
<polygon fill="white" stroke="black" points="124,-0.5 124,-19.5 178,-19.5 178,-0.5 124,-0.5"/>
<text text-anchor="middle" x="151" y="-7.5" font-family="Helvetica,sans-Serif" font-size="10.00">core.hpp</text>
</a>
</g>
</g>
<!-- Node5&#45;&gt;Node6 -->
<g id="edge5" class="edge">
<title>Node5&#45;&gt;Node6</title>
<path fill="none" stroke="midnightblue" d="M207.67,-50.23C193.34,-40.31 174.98,-27.6 163.1,-19.38"/>
<polygon fill="midnightblue" stroke="midnightblue" points="205.35,-52.89 215.57,-55.7 209.34,-47.13 205.35,-52.89"/>
</g>
<!-- Node7 -->
<g id="node7" class="node">
<title>Node7</title>
<g id="a_node7"><a xlink:href="default__log_8cpp.html" target="_top" xlink:title=" ">
<polygon fill="white" stroke="black" points="196.5,-0.5 196.5,-19.5 279.5,-19.5 279.5,-0.5 196.5,-0.5"/>
<text text-anchor="middle" x="238" y="-7.5" font-family="Helvetica,sans-Serif" font-size="10.00">default_log.cpp</text>
</a>
</g>
</g>
<!-- Node5&#45;&gt;Node7 -->
<g id="edge6" class="edge">
<title>Node5&#45;&gt;Node7</title>
<path fill="none" stroke="midnightblue" d="M232.27,-45.41C233.77,-36.38 235.48,-26.14 236.63,-19.2"/>
<polygon fill="midnightblue" stroke="midnightblue" points="228.85,-44.63 230.66,-55.07 235.75,-45.78 228.85,-44.63"/>
</g>
<!-- Node10&#45;&gt;Node4 -->
<g id="edge13" class="edge">
<title>Node10&#45;&gt;Node4</title>
<path fill="none" stroke="midnightblue" d="M224.45,-161.03C235.16,-151.23 248.42,-139.09 257.04,-131.2"/>
<polygon fill="midnightblue" stroke="midnightblue" points="222.35,-158.21 217.34,-167.54 227.08,-163.37 222.35,-158.21"/>
</g>
<!-- Node11 -->
<g id="node11" class="node">
<title>Node11</title>
<g id="a_node11"><a xlink:href="console__log__writer_8hpp.html" target="_top" xlink:title=" ">
<polygon fill="white" stroke="black" points="93,-112.5 93,-131.5 209,-131.5 209,-112.5 93,-112.5"/>
<text text-anchor="middle" x="151" y="-119.5" font-family="Helvetica,sans-Serif" font-size="10.00">console_log_writer.hpp</text>
</a>
</g>
</g>
<!-- Node10&#45;&gt;Node11 -->
<g id="edge10" class="edge">
<title>Node10&#45;&gt;Node11</title>
<path fill="none" stroke="midnightblue" d="M190.13,-160.73C180.02,-150.99 167.6,-139.01 159.51,-131.2"/>
<polygon fill="midnightblue" stroke="midnightblue" points="187.53,-163.09 197.16,-167.51 192.39,-158.05 187.53,-163.09"/>
</g>
<!-- Node11&#45;&gt;Node2 -->
<g id="edge11" class="edge">
<title>Node11&#45;&gt;Node2</title>
<path fill="none" stroke="midnightblue" d="M126.54,-106.8C109.33,-96.8 86.86,-83.76 72.43,-75.38"/>
<polygon fill="midnightblue" stroke="midnightblue" points="124.75,-109.81 135.16,-111.8 128.27,-103.75 124.75,-109.81"/>
</g>
<!-- Node11&#45;&gt;Node6 -->
<g id="edge12" class="edge">
<title>Node11&#45;&gt;Node6</title>
<path fill="none" stroke="midnightblue" d="M151,-101.41C151,-77.09 151,-36.73 151,-19.36"/>
<polygon fill="midnightblue" stroke="midnightblue" points="147.5,-101.22 151,-111.22 154.5,-101.22 147.5,-101.22"/>
</g>
</g>
</svg>
