<?xml version="1.0" encoding="UTF-8" standalone="no"?>
<!DOCTYPE svg PUBLIC "-//W3C//DTD SVG 1.1//EN"
 "http://www.w3.org/Graphics/SVG/1.1/DTD/svg11.dtd">
<!-- Generated by graphviz version 7.1.0 (20230121.1956)
 -->
<!-- Title: log.hpp Pages: 1 -->
<svg width="603pt" height="364pt"
 viewBox="0.00 0.00 602.50 364.00" xmlns="http://www.w3.org/2000/svg" xmlns:xlink="http://www.w3.org/1999/xlink">
<g id="graph0" class="graph" transform="scale(1 1) rotate(0) translate(4 360)">
<title>log.hpp</title>
<polygon fill="white" stroke="none" points="-4,4 -4,-360 598.5,-360 598.5,4 -4,4"/>
<!-- Node1 -->
<g id="node1" class="node">
<title>Node1</title>
<g id="a_node1"><a xlink:title=" ">
<polygon fill="#bfbfbf" stroke="black" points="307,-336.5 307,-355.5 355,-355.5 355,-336.5 307,-336.5"/>
<text text-anchor="middle" x="331" y="-343.5" font-family="Helvetica,sans-Serif" font-size="10.00">log.hpp</text>
</a>
</g>
</g>
<!-- Node2 -->
<g id="node2" class="node">
<title>Node2</title>
<g id="a_node2"><a xlink:href="log__message_8hpp.html" target="_top" xlink:title=" ">
<polygon fill="white" stroke="black" points="174,-224.5 174,-243.5 326,-243.5 326,-224.5 174,-224.5"/>
<text text-anchor="middle" x="250" y="-231.5" font-family="Helvetica,sans-Serif" font-size="10.00">liger/core/log/log_message.hpp</text>
</a>
</g>
</g>
<!-- Node1&#45;&gt;Node2 -->
<g id="edge1" class="edge">
<title>Node1&#45;&gt;Node2</title>
<path fill="none" stroke="midnightblue" d="M307.13,-337.88C289.23,-331.18 265.85,-319.25 254,-300 245.65,-286.44 245.28,-268.12 246.63,-254.38"/>
<polygon fill="midnightblue" stroke="midnightblue" points="250.05,-255.22 247.97,-244.83 243.12,-254.24 250.05,-255.22"/>
</g>
<!-- Node14 -->
<g id="node14" class="node">
<title>Node14</title>
<g id="a_node14"><a xlink:href="log__writer_8hpp.html" target="_top" xlink:title=" ">
<polygon fill="white" stroke="black" points="263.5,-280.5 263.5,-299.5 398.5,-299.5 398.5,-280.5 263.5,-280.5"/>
<text text-anchor="middle" x="331" y="-287.5" font-family="Helvetica,sans-Serif" font-size="10.00">liger/core/log/log_writer.hpp</text>
</a>
</g>
</g>
<!-- Node1&#45;&gt;Node14 -->
<g id="edge14" class="edge">
<title>Node1&#45;&gt;Node14</title>
<path fill="none" stroke="midnightblue" d="M331,-336.56C331,-329.63 331,-319.52 331,-310.59"/>
<polygon fill="midnightblue" stroke="midnightblue" points="334.5,-310.71 331,-300.71 327.5,-310.72 334.5,-310.71"/>
</g>
<!-- Node15 -->
<g id="node15" class="node">
<title>Node15</title>
<g id="a_node15"><a xlink:href="log_8ipp.html" target="_top" xlink:title=" ">
<polygon fill="white" stroke="black" points="417,-280.5 417,-299.5 521,-299.5 521,-280.5 417,-280.5"/>
<text text-anchor="middle" x="469" y="-287.5" font-family="Helvetica,sans-Serif" font-size="10.00">liger/core/log/log.ipp</text>
</a>
</g>
</g>
<!-- Node1&#45;&gt;Node15 -->
<g id="edge16" class="edge">
<title>Node1&#45;&gt;Node15</title>
<path fill="none" stroke="midnightblue" d="M352.56,-336.56C375.25,-327.69 411.19,-313.62 437.15,-303.46"/>
<polygon fill="midnightblue" stroke="midnightblue" points="438.14,-306.83 446.18,-299.93 435.59,-300.31 438.14,-306.83"/>
</g>
<!-- Node3 -->
<g id="node3" class="node">
<title>Node3</title>
<g id="a_node3"><a xlink:href="log__level_8hpp.html" target="_top" xlink:title=" ">
<polygon fill="white" stroke="black" points="137,-168.5 137,-187.5 269,-187.5 269,-168.5 137,-168.5"/>
<text text-anchor="middle" x="203" y="-175.5" font-family="Helvetica,sans-Serif" font-size="10.00">liger/core/log/log_level.hpp</text>
</a>
</g>
</g>
<!-- Node2&#45;&gt;Node3 -->
<g id="edge2" class="edge">
<title>Node2&#45;&gt;Node3</title>
<path fill="none" stroke="midnightblue" d="M242.66,-224.56C236,-216.91 225.98,-205.4 217.68,-195.86"/>
<polygon fill="midnightblue" stroke="midnightblue" points="220.34,-193.59 211.13,-188.34 215.06,-198.18 220.34,-193.59"/>
</g>
<!-- Node5 -->
<g id="node5" class="node">
<title>Node5</title>
<g id="a_node5"><a xlink:href="types_8hpp.html" target="_top" xlink:title=" ">
<polygon fill="white" stroke="black" points="199,-56.5 199,-75.5 301,-75.5 301,-56.5 199,-56.5"/>
<text text-anchor="middle" x="250" y="-63.5" font-family="Helvetica,sans-Serif" font-size="10.00">liger/core/types.hpp</text>
</a>
</g>
</g>
<!-- Node2&#45;&gt;Node5 -->
<g id="edge13" class="edge">
<title>Node2&#45;&gt;Node5</title>
<path fill="none" stroke="midnightblue" d="M257.15,-224.73C264.03,-216.19 273.96,-202.16 278,-188 281.37,-176.19 284.96,-139.76 277,-112 274.21,-102.26 268.74,-92.48 263.46,-84.55"/>
<polygon fill="midnightblue" stroke="midnightblue" points="266.4,-82.65 257.73,-76.56 260.71,-86.72 266.4,-82.65"/>
</g>
<!-- Node4 -->
<g id="node4" class="node">
<title>Node4</title>
<g id="a_node4"><a xlink:href="enum__class_8hpp.html" target="_top" xlink:title=" ">
<polygon fill="white" stroke="black" points="137.5,-112.5 137.5,-131.5 268.5,-131.5 268.5,-112.5 137.5,-112.5"/>
<text text-anchor="middle" x="203" y="-119.5" font-family="Helvetica,sans-Serif" font-size="10.00">liger/core/enum_class.hpp</text>
</a>
</g>
</g>
<!-- Node3&#45;&gt;Node4 -->
<g id="edge3" class="edge">
<title>Node3&#45;&gt;Node4</title>
<path fill="none" stroke="midnightblue" d="M203,-168.56C203,-161.63 203,-151.52 203,-142.59"/>
<polygon fill="midnightblue" stroke="midnightblue" points="206.5,-142.71 203,-132.71 199.5,-142.72 206.5,-142.71"/>
</g>
<!-- Node4&#45;&gt;Node5 -->
<g id="edge4" class="edge">
<title>Node4&#45;&gt;Node5</title>
<path fill="none" stroke="midnightblue" d="M210.34,-112.56C217,-104.91 227.02,-93.4 235.32,-83.86"/>
<polygon fill="midnightblue" stroke="midnightblue" points="237.94,-86.18 241.87,-76.34 232.66,-81.59 237.94,-86.18"/>
</g>
<!-- Node6 -->
<g id="node6" class="node">
<title>Node6</title>
<g id="a_node6"><a xlink:title=" ">
<polygon fill="white" stroke="#bfbfbf" points="0,-0.5 0,-19.5 46,-19.5 46,-0.5 0,-0.5"/>
<text text-anchor="middle" x="23" y="-7.5" font-family="Helvetica,sans-Serif" font-size="10.00">cstdint</text>
</a>
</g>
</g>
<!-- Node5&#45;&gt;Node6 -->
<g id="edge5" class="edge">
<title>Node5&#45;&gt;Node6</title>
<path fill="none" stroke="midnightblue" d="M211.02,-56.57C173.88,-48.42 116.12,-35.42 56.78,-20.36"/>
<polygon fill="midnightblue" stroke="midnightblue" points="57.71,-16.98 47.16,-17.9 55.98,-23.77 57.71,-16.98"/>
</g>
<!-- Node7 -->
<g id="node7" class="node">
<title>Node7</title>
<g id="a_node7"><a xlink:title=" ">
<polygon fill="white" stroke="#bfbfbf" points="64,-0.5 64,-19.5 114,-19.5 114,-0.5 64,-0.5"/>
<text text-anchor="middle" x="89" y="-7.5" font-family="Helvetica,sans-Serif" font-size="10.00">fstream</text>
</a>
</g>
</g>
<!-- Node5&#45;&gt;Node7 -->
<g id="edge6" class="edge">
<title>Node5&#45;&gt;Node7</title>
<path fill="none" stroke="midnightblue" d="M224.84,-56.56C197.91,-47.53 154.94,-33.12 124.55,-22.92"/>
<polygon fill="midnightblue" stroke="midnightblue" points="126.01,-19.72 115.41,-19.86 123.78,-26.36 126.01,-19.72"/>
</g>
<!-- Node8 -->
<g id="node8" class="node">
<title>Node8</title>
<g id="a_node8"><a xlink:title=" ">
<polygon fill="white" stroke="#bfbfbf" points="132,-0.5 132,-19.5 186,-19.5 186,-0.5 132,-0.5"/>
<text text-anchor="middle" x="159" y="-7.5" font-family="Helvetica,sans-Serif" font-size="10.00">iostream</text>
</a>
</g>
</g>
<!-- Node5&#45;&gt;Node8 -->
<g id="edge7" class="edge">
<title>Node5&#45;&gt;Node8</title>
<path fill="none" stroke="midnightblue" d="M235.78,-56.56C221.62,-48.16 199.63,-35.11 182.81,-25.13"/>
<polygon fill="midnightblue" stroke="midnightblue" points="184.81,-22.24 174.42,-20.15 181.23,-28.26 184.81,-22.24"/>
</g>
<!-- Node9 -->
<g id="node9" class="node">
<title>Node9</title>
<g id="a_node9"><a xlink:title=" ">
<polygon fill="white" stroke="#bfbfbf" points="204.5,-0.5 204.5,-19.5 239.5,-19.5 239.5,-0.5 204.5,-0.5"/>
<text text-anchor="middle" x="222" y="-7.5" font-family="Helvetica,sans-Serif" font-size="10.00">map</text>
</a>
</g>
</g>
<!-- Node5&#45;&gt;Node9 -->
<g id="edge8" class="edge">
<title>Node5&#45;&gt;Node9</title>
<path fill="none" stroke="midnightblue" d="M245.62,-56.56C241.86,-49.31 236.31,-38.59 231.52,-29.37"/>
<polygon fill="midnightblue" stroke="midnightblue" points="234.66,-27.81 226.95,-20.55 228.45,-31.03 234.66,-27.81"/>
</g>
<!-- Node10 -->
<g id="node10" class="node">
<title>Node10</title>
<g id="a_node10"><a xlink:title=" ">
<polygon fill="white" stroke="#bfbfbf" points="257.5,-0.5 257.5,-19.5 298.5,-19.5 298.5,-0.5 257.5,-0.5"/>
<text text-anchor="middle" x="278" y="-7.5" font-family="Helvetica,sans-Serif" font-size="10.00">string</text>
</a>
</g>
</g>
<!-- Node5&#45;&gt;Node10 -->
<g id="edge9" class="edge">
<title>Node5&#45;&gt;Node10</title>
<path fill="none" stroke="midnightblue" d="M254.38,-56.56C258.14,-49.31 263.69,-38.59 268.48,-29.37"/>
<polygon fill="midnightblue" stroke="midnightblue" points="271.55,-31.03 273.05,-20.55 265.34,-27.81 271.55,-31.03"/>
</g>
<!-- Node11 -->
<g id="node11" class="node">
<title>Node11</title>
<g id="a_node11"><a xlink:title=" ">
<polygon fill="white" stroke="#bfbfbf" points="317,-0.5 317,-19.5 383,-19.5 383,-0.5 317,-0.5"/>
<text text-anchor="middle" x="350" y="-7.5" font-family="Helvetica,sans-Serif" font-size="10.00">string_view</text>
</a>
</g>
</g>
<!-- Node5&#45;&gt;Node11 -->
<g id="edge10" class="edge">
<title>Node5&#45;&gt;Node11</title>
<path fill="none" stroke="midnightblue" d="M265.62,-56.56C281.33,-48.08 305.8,-34.87 324.36,-24.85"/>
<polygon fill="midnightblue" stroke="midnightblue" points="326.02,-27.93 333.15,-20.1 322.69,-21.77 326.02,-27.93"/>
</g>
<!-- Node12 -->
<g id="node12" class="node">
<title>Node12</title>
<g id="a_node12"><a xlink:title=" ">
<polygon fill="white" stroke="#bfbfbf" points="401,-0.5 401,-19.5 463,-19.5 463,-0.5 401,-0.5"/>
<text text-anchor="middle" x="432" y="-7.5" font-family="Helvetica,sans-Serif" font-size="10.00">type_traits</text>
</a>
</g>
</g>
<!-- Node5&#45;&gt;Node12 -->
<g id="edge11" class="edge">
<title>Node5&#45;&gt;Node12</title>
<path fill="none" stroke="midnightblue" d="M278.44,-56.56C309.2,-47.44 358.45,-32.82 392.86,-22.61"/>
<polygon fill="midnightblue" stroke="midnightblue" points="393.42,-26.1 402.01,-19.9 391.43,-19.39 393.42,-26.1"/>
</g>
<!-- Node13 -->
<g id="node13" class="node">
<title>Node13</title>
<g id="a_node13"><a xlink:title=" ">
<polygon fill="white" stroke="#bfbfbf" points="481,-0.5 481,-19.5 525,-19.5 525,-0.5 481,-0.5"/>
<text text-anchor="middle" x="503" y="-7.5" font-family="Helvetica,sans-Serif" font-size="10.00">vector</text>
</a>
</g>
</g>
<!-- Node5&#45;&gt;Node13 -->
<g id="edge12" class="edge">
<title>Node5&#45;&gt;Node13</title>
<path fill="none" stroke="midnightblue" d="M297.46,-56.55C340.2,-48.69 404.96,-36.12 470.16,-20.29"/>
<polygon fill="midnightblue" stroke="midnightblue" points="470.7,-23.76 479.58,-17.98 469.03,-16.96 470.7,-23.76"/>
</g>
<!-- Node14&#45;&gt;Node2 -->
<g id="edge15" class="edge">
<title>Node14&#45;&gt;Node2</title>
<path fill="none" stroke="midnightblue" d="M318.34,-280.56C305.98,-272.32 286.91,-259.6 272.05,-249.7"/>
<polygon fill="midnightblue" stroke="midnightblue" points="274.09,-246.85 263.83,-244.22 270.21,-252.68 274.09,-246.85"/>
</g>
<!-- Node16 -->
<g id="node16" class="node">
<title>Node16</title>
<g id="a_node16"><a xlink:title=" ">
<polygon fill="white" stroke="#bfbfbf" points="358,-224.5 358,-243.5 420,-243.5 420,-224.5 358,-224.5"/>
<text text-anchor="middle" x="389" y="-231.5" font-family="Helvetica,sans-Serif" font-size="10.00">fmt/color.h</text>
</a>
</g>
</g>
<!-- Node15&#45;&gt;Node16 -->
<g id="edge17" class="edge">
<title>Node15&#45;&gt;Node16</title>
<path fill="none" stroke="midnightblue" d="M456.5,-280.56C444.29,-272.32 425.45,-259.6 410.77,-249.7"/>
<polygon fill="midnightblue" stroke="midnightblue" points="412.91,-246.92 402.67,-244.23 409,-252.72 412.91,-246.92"/>
</g>
<!-- Node17 -->
<g id="node17" class="node">
<title>Node17</title>
<g id="a_node17"><a xlink:title=" ">
<polygon fill="white" stroke="#bfbfbf" points="438.5,-224.5 438.5,-243.5 499.5,-243.5 499.5,-224.5 438.5,-224.5"/>
<text text-anchor="middle" x="469" y="-231.5" font-family="Helvetica,sans-Serif" font-size="10.00">fmt/core.h</text>
</a>
</g>
</g>
<!-- Node15&#45;&gt;Node17 -->
<g id="edge18" class="edge">
<title>Node15&#45;&gt;Node17</title>
<path fill="none" stroke="midnightblue" d="M469,-280.56C469,-273.63 469,-263.52 469,-254.59"/>
<polygon fill="midnightblue" stroke="midnightblue" points="472.5,-254.71 469,-244.71 465.5,-254.72 472.5,-254.71"/>
</g>
<!-- Node18 -->
<g id="node18" class="node">
<title>Node18</title>
<g id="a_node18"><a xlink:title=" ">
<polygon fill="white" stroke="#bfbfbf" points="517.5,-224.5 517.5,-243.5 594.5,-243.5 594.5,-224.5 517.5,-224.5"/>
<text text-anchor="middle" x="556" y="-231.5" font-family="Helvetica,sans-Serif" font-size="10.00">fmt/ostream.h</text>
</a>
</g>
</g>
<!-- Node15&#45;&gt;Node18 -->
<g id="edge19" class="edge">
<title>Node15&#45;&gt;Node18</title>
<path fill="none" stroke="midnightblue" d="M482.59,-280.56C496,-272.24 516.76,-259.36 532.78,-249.41"/>
<polygon fill="midnightblue" stroke="midnightblue" points="534.57,-252.42 541.22,-244.18 530.87,-246.48 534.57,-252.42"/>
</g>
</g>
</svg>
