<?xml version="1.0" encoding="UTF-8" standalone="no"?>
<!DOCTYPE svg PUBLIC "-//W3C//DTD SVG 1.1//EN"
 "http://www.w3.org/Graphics/SVG/1.1/DTD/svg11.dtd">
<!-- Generated by graphviz version 9.0.0 (20230911.1827)
 -->
<!-- Title: math_formatting.hpp Pages: 1 -->
<svg width="188pt" height="83pt"
 viewBox="0.00 0.00 187.88 82.50" xmlns="http://www.w3.org/2000/svg" xmlns:xlink="http://www.w3.org/1999/xlink">
<g id="graph0" class="graph" transform="scale(1 1) rotate(0) translate(4 78.5)">
<title>math_formatting.hpp</title>
<!-- Node1 -->
<g id="Node000001" class="node">
<title>Node1</title>
<g id="a_Node000001"><a xlink:title=" ">
<polygon fill="#999999" stroke="#666666" points="131.75,-74.5 26.5,-74.5 26.5,-55.25 131.75,-55.25 131.75,-74.5"/>
<text text-anchor="middle" x="79.12" y="-61" font-family="Helvetica,sans-Serif" font-size="10.00">math_formatting.hpp</text>
</a>
</g>
</g>
<!-- Node2 -->
<g id="Node000002" class="node">
<title>Node2</title>
<g id="a_Node000002"><a xlink:title=" ">
<polygon fill="#e0e0e0" stroke="#999999" points="60.25,-19.25 0,-19.25 0,0 60.25,0 60.25,-19.25"/>
<text text-anchor="middle" x="30.12" y="-5.75" font-family="Helvetica,sans-Serif" font-size="10.00">fmt/core.h</text>
</a>
</g>
</g>
<!-- Node1&#45;&gt;Node2 -->
<g id="edge1_Node000001_Node000002" class="edge">
<title>Node1&#45;&gt;Node2</title>
<g id="a_edge1_Node000001_Node000002"><a xlink:title=" ">
<path fill="none" stroke="#63b8ff" d="M71.03,-55.08C64.27,-47.73 54.4,-37.01 46.06,-27.94"/>
<polygon fill="#63b8ff" stroke="#63b8ff" points="48.76,-25.71 39.42,-20.72 43.61,-30.45 48.76,-25.71"/>
</a>
</g>
</g>
<!-- Node3 -->
<g id="Node000003" class="node">
<title>Node3</title>
<g id="a_Node000003"><a xlink:title=" ">
<polygon fill="#e0e0e0" stroke="#999999" points="179.88,-19.25 78.38,-19.25 78.38,0 179.88,0 179.88,-19.25"/>
<text text-anchor="middle" x="129.12" y="-5.75" font-family="Helvetica,sans-Serif" font-size="10.00">liger/core/types.hpp</text>
</a>
</g>
</g>
<!-- Node1&#45;&gt;Node3 -->
<g id="edge2_Node000001_Node000003" class="edge">
<title>Node1&#45;&gt;Node3</title>
<g id="a_edge2_Node000001_Node000003"><a xlink:title=" ">
<path fill="none" stroke="#63b8ff" d="M87.38,-55.08C94.29,-47.73 104.35,-37.01 112.86,-27.94"/>
<polygon fill="#63b8ff" stroke="#63b8ff" points="115.36,-30.4 119.65,-20.71 110.26,-25.61 115.36,-30.4"/>
</a>
</g>
</g>
</g>
</svg>
