<?xml version="1.0" encoding="UTF-8" standalone="no"?>
<!DOCTYPE svg PUBLIC "-//W3C//DTD SVG 1.1//EN"
 "http://www.w3.org/Graphics/SVG/1.1/DTD/svg11.dtd">
<!-- Generated by graphviz version 9.0.0 (20230911.1827)
 -->
<!-- Title: math.hpp Pages: 1 -->
<svg width="334pt" height="138pt"
 viewBox="0.00 0.00 333.62 137.75" xmlns="http://www.w3.org/2000/svg" xmlns:xlink="http://www.w3.org/1999/xlink">
<g id="graph0" class="graph" transform="scale(1 1) rotate(0) translate(4 133.75)">
<title>math.hpp</title>
<!-- Node1 -->
<g id="Node000001" class="node">
<title>Node1</title>
<g id="a_Node000001"><a xlink:title=" ">
<polygon fill="#999999" stroke="#666666" points="200.62,-129.75 144.12,-129.75 144.12,-110.5 200.62,-110.5 200.62,-129.75"/>
<text text-anchor="middle" x="172.38" y="-116.25" font-family="Helvetica,sans-Serif" font-size="10.00">math.hpp</text>
</a>
</g>
</g>
<!-- Node2 -->
<g id="Node000002" class="node">
<title>Node2</title>
<g id="a_Node000002"><a xlink:href="math__formatting_8hpp.html" target="_top" xlink:title=" ">
<polygon fill="white" stroke="#666666" points="172.75,-74.5 0,-74.5 0,-55.25 172.75,-55.25 172.75,-74.5"/>
<text text-anchor="middle" x="86.38" y="-61" font-family="Helvetica,sans-Serif" font-size="10.00">liger/core/math/math_formatting.hpp</text>
</a>
</g>
</g>
<!-- Node1&#45;&gt;Node2 -->
<g id="edge1_Node000001_Node000002" class="edge">
<title>Node1&#45;&gt;Node2</title>
<g id="a_edge1_Node000001_Node000002"><a xlink:title=" ">
<path fill="none" stroke="#63b8ff" d="M157.79,-110.09C144.94,-102.14 125.96,-90.39 110.8,-81"/>
<polygon fill="#63b8ff" stroke="#63b8ff" points="112.67,-78.04 102.32,-75.75 108.98,-83.99 112.67,-78.04"/>
</a>
</g>
</g>
<!-- Node5 -->
<g id="Node000005" class="node">
<title>Node5</title>
<g id="a_Node000005"><a xlink:href="random_8hpp.html" target="_top" xlink:title=" ">
<polygon fill="white" stroke="#666666" points="325.62,-74.5 191.12,-74.5 191.12,-55.25 325.62,-55.25 325.62,-74.5"/>
<text text-anchor="middle" x="258.38" y="-61" font-family="Helvetica,sans-Serif" font-size="10.00">liger/core/math/random.hpp</text>
</a>
</g>
</g>
<!-- Node1&#45;&gt;Node5 -->
<g id="edge4_Node000001_Node000005" class="edge">
<title>Node1&#45;&gt;Node5</title>
<g id="a_edge4_Node000001_Node000005"><a xlink:title=" ">
<path fill="none" stroke="#63b8ff" d="M186.96,-110.09C199.81,-102.14 218.79,-90.39 233.95,-81"/>
<polygon fill="#63b8ff" stroke="#63b8ff" points="235.77,-83.99 242.43,-75.75 232.08,-78.04 235.77,-83.99"/>
</a>
</g>
</g>
<!-- Node3 -->
<g id="Node000003" class="node">
<title>Node3</title>
<g id="a_Node000003"><a xlink:title=" ">
<polygon fill="#e0e0e0" stroke="#999999" points="116.5,-19.25 56.25,-19.25 56.25,0 116.5,0 116.5,-19.25"/>
<text text-anchor="middle" x="86.38" y="-5.75" font-family="Helvetica,sans-Serif" font-size="10.00">fmt/core.h</text>
</a>
</g>
</g>
<!-- Node2&#45;&gt;Node3 -->
<g id="edge2_Node000002_Node000003" class="edge">
<title>Node2&#45;&gt;Node3</title>
<g id="a_edge2_Node000002_Node000003"><a xlink:title=" ">
<path fill="none" stroke="#63b8ff" d="M86.38,-55.08C86.38,-48.57 86.38,-39.42 86.38,-31.12"/>
<polygon fill="#63b8ff" stroke="#63b8ff" points="89.88,-31.12 86.38,-21.12 82.88,-31.12 89.88,-31.12"/>
</a>
</g>
</g>
<!-- Node4 -->
<g id="Node000004" class="node">
<title>Node4</title>
<g id="a_Node000004"><a xlink:title=" ">
<polygon fill="#e0e0e0" stroke="#999999" points="210,-19.25 140.75,-19.25 140.75,0 210,0 210,-19.25"/>
<text text-anchor="middle" x="175.38" y="-5.75" font-family="Helvetica,sans-Serif" font-size="10.00">glm/glm.hpp</text>
</a>
</g>
</g>
<!-- Node2&#45;&gt;Node4 -->
<g id="edge3_Node000002_Node000004" class="edge">
<title>Node2&#45;&gt;Node4</title>
<g id="a_edge3_Node000002_Node000004"><a xlink:title=" ">
<path fill="none" stroke="#63b8ff" d="M101.47,-54.84C114.9,-46.81 134.79,-34.91 150.55,-25.48"/>
<polygon fill="#63b8ff" stroke="#63b8ff" points="152.12,-28.62 158.9,-20.48 148.53,-22.61 152.12,-28.62"/>
</a>
</g>
</g>
<!-- Node5&#45;&gt;Node4 -->
<g id="edge5_Node000005_Node000004" class="edge">
<title>Node5&#45;&gt;Node4</title>
<g id="a_edge5_Node000005_Node000004"><a xlink:title=" ">
<path fill="none" stroke="#63b8ff" d="M244.3,-54.84C231.89,-46.89 213.58,-35.14 198.95,-25.75"/>
<polygon fill="#63b8ff" stroke="#63b8ff" points="201.1,-22.97 190.8,-20.52 197.32,-28.87 201.1,-22.97"/>
</a>
</g>
</g>
<!-- Node6 -->
<g id="Node000006" class="node">
<title>Node6</title>
<g id="a_Node000006"><a xlink:title=" ">
<polygon fill="#e0e0e0" stroke="#999999" points="282.5,-19.25 234.25,-19.25 234.25,0 282.5,0 282.5,-19.25"/>
<text text-anchor="middle" x="258.38" y="-5.75" font-family="Helvetica,sans-Serif" font-size="10.00">random</text>
</a>
</g>
</g>
<!-- Node5&#45;&gt;Node6 -->
<g id="edge6_Node000005_Node000006" class="edge">
<title>Node5&#45;&gt;Node6</title>
<g id="a_edge6_Node000005_Node000006"><a xlink:title=" ">
<path fill="none" stroke="#63b8ff" d="M258.38,-55.08C258.38,-48.57 258.38,-39.42 258.38,-31.12"/>
<polygon fill="#63b8ff" stroke="#63b8ff" points="261.88,-31.12 258.38,-21.12 254.88,-31.12 261.88,-31.12"/>
</a>
</g>
</g>
</g>
</svg>
