<?xml version="1.0" encoding="UTF-8" standalone="no"?>
<!DOCTYPE svg PUBLIC "-//W3C//DTD SVG 1.1//EN"
 "http://www.w3.org/Graphics/SVG/1.1/DTD/svg11.dtd">
<!-- Generated by graphviz version 9.0.0 (20230911.1827)
 -->
<!-- Title: mouse.hpp Pages: 1 -->
<svg width="485pt" height="193pt"
 viewBox="0.00 0.00 485.12 193.00" xmlns="http://www.w3.org/2000/svg" xmlns:xlink="http://www.w3.org/1999/xlink">

<svg id="main" version="1.1" xmlns="http://www.w3.org/2000/svg" xmlns:xlink="http://www.w3.org/1999/xlink" xml:space="preserve" onload="init(evt)">
<style type="text/css"><![CDATA[
.node, .edge {opacity: 0.7;}
.node.selected, .edge.selected {opacity: 1;}
.edge:hover path { stroke: red; }
.edge:hover polygon { stroke: red; fill: red; }
]]></style>
<script type="application/ecmascript" xlink:href="svg.min.js"/>
<svg id="graph" class="graph">
<g id="graph0" class="graph" transform="scale(1 1) rotate(0) translate(4 189)">
<title>mouse.hpp</title>
<!-- Node1 -->
<g id="Node000001" class="node">
<title>Node1</title>
<g id="a_Node000001"><a xlink:title=" ">
<polygon fill="#999999" stroke="#666666" points="352.38,-185 288.38,-185 288.38,-165.75 352.38,-165.75 352.38,-185"/>
<text text-anchor="middle" x="320.38" y="-171.5" font-family="Helvetica,sans-Serif" font-size="10.00">mouse.hpp</text>
</a>
</g>
</g>
<!-- Node2 -->
<g id="Node000002" class="node">
<title>Node2</title>
<g id="a_Node000002"><a xlink:href="math_8hpp.html" target="_top" xlink:title=" ">
<polygon fill="white" stroke="#666666" points="303.38,-129.75 179.38,-129.75 179.38,-110.5 303.38,-110.5 303.38,-129.75"/>
<text text-anchor="middle" x="241.38" y="-116.25" font-family="Helvetica,sans-Serif" font-size="10.00">liger/core/math/math.hpp</text>
</a>
</g>
</g>
<!-- Node1&#45;&gt;Node2 -->
<g id="edge1_Node000001_Node000002" class="edge">
<title>Node1&#45;&gt;Node2</title>
<g id="a_edge1_Node000001_Node000002"><a xlink:title=" ">
<path fill="none" stroke="#63b8ff" d="M306.97,-165.34C295.28,-157.46 278.07,-145.86 264.21,-136.52"/>
<polygon fill="#63b8ff" stroke="#63b8ff" points="266.35,-133.74 256.1,-131.05 262.43,-139.54 266.35,-133.74"/>
</a>
</g>
</g>
<!-- Node8 -->
<g id="Node000008" class="node">
<title>Node8</title>
<g id="a_Node000008"><a xlink:href="keyboard_8hpp.html" target="_top" xlink:title=" ">
<polygon fill="white" stroke="#666666" points="477.12,-129.75 321.62,-129.75 321.62,-110.5 477.12,-110.5 477.12,-129.75"/>
<text text-anchor="middle" x="399.38" y="-116.25" font-family="Helvetica,sans-Serif" font-size="10.00">liger/core/platform/keyboard.hpp</text>
</a>
</g>
</g>
<!-- Node1&#45;&gt;Node8 -->
<g id="edge8_Node000001_Node000008" class="edge">
<title>Node1&#45;&gt;Node8</title>
<g id="a_edge8_Node000001_Node000008"><a xlink:title=" ">
<path fill="none" stroke="#63b8ff" d="M333.78,-165.34C345.47,-157.46 362.68,-145.86 376.54,-136.52"/>
<polygon fill="#63b8ff" stroke="#63b8ff" points="378.32,-139.54 384.65,-131.05 374.4,-133.74 378.32,-139.54"/>
</a>
</g>
</g>
<!-- Node3 -->
<g id="Node000003" class="node">
<title>Node3</title>
<g id="a_Node000003"><a xlink:href="math__formatting_8hpp.html" target="_top" xlink:title=" ">
<polygon fill="white" stroke="#666666" points="172.75,-74.5 0,-74.5 0,-55.25 172.75,-55.25 172.75,-74.5"/>
<text text-anchor="middle" x="86.38" y="-61" font-family="Helvetica,sans-Serif" font-size="10.00">liger/core/math/math_formatting.hpp</text>
</a>
</g>
</g>
<!-- Node2&#45;&gt;Node3 -->
<g id="edge2_Node000002_Node000003" class="edge">
<title>Node2&#45;&gt;Node3</title>
<g id="a_edge2_Node000002_Node000003"><a xlink:title=" ">
<path fill="none" stroke="#63b8ff" d="M215.08,-110.09C189.92,-101.45 151.72,-88.32 123.47,-78.62"/>
<polygon fill="#63b8ff" stroke="#63b8ff" points="124.82,-75.38 114.23,-75.44 122.55,-82 124.82,-75.38"/>
</a>
</g>
</g>
<!-- Node6 -->
<g id="Node000006" class="node">
<title>Node6</title>
<g id="a_Node000006"><a xlink:href="random_8hpp.html" target="_top" xlink:title=" ">
<polygon fill="white" stroke="#666666" points="325.62,-74.5 191.12,-74.5 191.12,-55.25 325.62,-55.25 325.62,-74.5"/>
<text text-anchor="middle" x="258.38" y="-61" font-family="Helvetica,sans-Serif" font-size="10.00">liger/core/math/random.hpp</text>
</a>
</g>
</g>
<!-- Node2&#45;&gt;Node6 -->
<g id="edge5_Node000002_Node000006" class="edge">
<title>Node2&#45;&gt;Node6</title>
<g id="a_edge5_Node000002_Node000006"><a xlink:title=" ">
<path fill="none" stroke="#63b8ff" d="M244.18,-110.33C246.31,-103.67 249.32,-94.24 252.02,-85.78"/>
<polygon fill="#63b8ff" stroke="#63b8ff" points="255.34,-86.89 255.05,-76.3 248.67,-84.76 255.34,-86.89"/>
</a>
</g>
</g>
<!-- Node4 -->
<g id="Node000004" class="node">
<title>Node4</title>
<g id="a_Node000004"><a xlink:title=" ">
<polygon fill="#e0e0e0" stroke="#999999" points="116.5,-19.25 56.25,-19.25 56.25,0 116.5,0 116.5,-19.25"/>
<text text-anchor="middle" x="86.38" y="-5.75" font-family="Helvetica,sans-Serif" font-size="10.00">fmt/core.h</text>
</a>
</g>
</g>
<!-- Node3&#45;&gt;Node4 -->
<g id="edge3_Node000003_Node000004" class="edge">
<title>Node3&#45;&gt;Node4</title>
<g id="a_edge3_Node000003_Node000004"><a xlink:title=" ">
<path fill="none" stroke="#63b8ff" d="M86.38,-55.08C86.38,-48.57 86.38,-39.42 86.38,-31.12"/>
<polygon fill="#63b8ff" stroke="#63b8ff" points="89.88,-31.12 86.38,-21.12 82.88,-31.12 89.88,-31.12"/>
</a>
</g>
</g>
<!-- Node5 -->
<g id="Node000005" class="node">
<title>Node5</title>
<g id="a_Node000005"><a xlink:title=" ">
<polygon fill="#e0e0e0" stroke="#999999" points="210,-19.25 140.75,-19.25 140.75,0 210,0 210,-19.25"/>
<text text-anchor="middle" x="175.38" y="-5.75" font-family="Helvetica,sans-Serif" font-size="10.00">glm/glm.hpp</text>
</a>
</g>
</g>
<!-- Node3&#45;&gt;Node5 -->
<g id="edge4_Node000003_Node000005" class="edge">
<title>Node3&#45;&gt;Node5</title>
<g id="a_edge4_Node000003_Node000005"><a xlink:title=" ">
<path fill="none" stroke="#63b8ff" d="M101.47,-54.84C114.9,-46.81 134.79,-34.91 150.55,-25.48"/>
<polygon fill="#63b8ff" stroke="#63b8ff" points="152.12,-28.62 158.9,-20.48 148.53,-22.61 152.12,-28.62"/>
</a>
</g>
</g>
<!-- Node6&#45;&gt;Node5 -->
<g id="edge6_Node000006_Node000005" class="edge">
<title>Node6&#45;&gt;Node5</title>
<g id="a_edge6_Node000006_Node000005"><a xlink:title=" ">
<path fill="none" stroke="#63b8ff" d="M244.3,-54.84C231.89,-46.89 213.58,-35.14 198.95,-25.75"/>
<polygon fill="#63b8ff" stroke="#63b8ff" points="201.1,-22.97 190.8,-20.52 197.32,-28.87 201.1,-22.97"/>
</a>
</g>
</g>
<!-- Node7 -->
<g id="Node000007" class="node">
<title>Node7</title>
<g id="a_Node000007"><a xlink:title=" ">
<polygon fill="#e0e0e0" stroke="#999999" points="282.5,-19.25 234.25,-19.25 234.25,0 282.5,0 282.5,-19.25"/>
<text text-anchor="middle" x="258.38" y="-5.75" font-family="Helvetica,sans-Serif" font-size="10.00">random</text>
</a>
</g>
</g>
<!-- Node6&#45;&gt;Node7 -->
<g id="edge7_Node000006_Node000007" class="edge">
<title>Node6&#45;&gt;Node7</title>
<g id="a_edge7_Node000006_Node000007"><a xlink:title=" ">
<path fill="none" stroke="#63b8ff" d="M258.38,-55.08C258.38,-48.57 258.38,-39.42 258.38,-31.12"/>
<polygon fill="#63b8ff" stroke="#63b8ff" points="261.88,-31.12 258.38,-21.12 254.88,-31.12 261.88,-31.12"/>
</a>
</g>
</g>
<!-- Node9 -->
<g id="Node000009" class="node">
<title>Node9</title>
<g id="a_Node000009"><a xlink:title=" ">
<polygon fill="#e0e0e0" stroke="#999999" points="438.88,-74.5 359.88,-74.5 359.88,-55.25 438.88,-55.25 438.88,-74.5"/>
<text text-anchor="middle" x="399.38" y="-61" font-family="Helvetica,sans-Serif" font-size="10.00">GLFW/glfw3.h</text>
</a>
</g>
</g>
<!-- Node8&#45;&gt;Node9 -->
<g id="edge9_Node000008_Node000009" class="edge">
<title>Node8&#45;&gt;Node9</title>
<g id="a_edge9_Node000008_Node000009"><a xlink:title=" ">
<path fill="none" stroke="#63b8ff" d="M399.38,-110.33C399.38,-103.82 399.38,-94.67 399.38,-86.37"/>
<polygon fill="#63b8ff" stroke="#63b8ff" points="402.88,-86.37 399.38,-76.37 395.88,-86.37 402.88,-86.37"/>
</a>
</g>
</g>
</g>
</svg>
</svg>

<style type='text/css'>
<![CDATA[
[data-mouse-over-selected='false'] { opacity: 0.7; }
[data-mouse-over-selected='true']  { opacity: 1.0; }
]]>
</style>
<script type="application/ecmascript"><![CDATA[
document.addEventListener('DOMContentLoaded', (event) => {
  highlightEdges();
  highlightAdjacentNodes();
});
]]></script>
</svg>
