<?xml version="1.0" encoding="UTF-8" standalone="no"?>
<!DOCTYPE svg PUBLIC "-//W3C//DTD SVG 1.1//EN"
 "http://www.w3.org/Graphics/SVG/1.1/DTD/svg11.dtd">
<!-- Generated by graphviz version 9.0.0 (20230911.1827)
 -->
<!-- Title: platform_layer.hpp Pages: 1 -->
<svg width="328pt" height="193pt"
 viewBox="0.00 0.00 328.38 193.00" xmlns="http://www.w3.org/2000/svg" xmlns:xlink="http://www.w3.org/1999/xlink">
<g id="graph0" class="graph" transform="scale(1 1) rotate(0) translate(4 189)">
<title>platform_layer.hpp</title>
<!-- Node1 -->
<g id="Node000001" class="node">
<title>Node1</title>
<g id="a_Node000001"><a xlink:title=" ">
<polygon fill="#999999" stroke="#666666" points="193.5,-185 98,-185 98,-165.75 193.5,-165.75 193.5,-185"/>
<text text-anchor="middle" x="145.75" y="-171.5" font-family="Helvetica,sans-Serif" font-size="10.00">platform_layer.hpp</text>
</a>
</g>
</g>
<!-- Node2 -->
<g id="Node000002" class="node">
<title>Node2</title>
<g id="a_Node000002"><a xlink:href="keyboard_8hpp.html" target="_top" xlink:title=" ">
<polygon fill="white" stroke="#666666" points="155.5,-74.5 0,-74.5 0,-55.25 155.5,-55.25 155.5,-74.5"/>
<text text-anchor="middle" x="77.75" y="-61" font-family="Helvetica,sans-Serif" font-size="10.00">liger/core/platform/keyboard.hpp</text>
</a>
</g>
</g>
<!-- Node1&#45;&gt;Node2 -->
<g id="edge1_Node000001_Node000002" class="edge">
<title>Node1&#45;&gt;Node2</title>
<g id="a_edge1_Node000001_Node000002"><a xlink:title=" ">
<path fill="none" stroke="#63b8ff" d="M112.28,-165.28C94.53,-158.57 74.27,-147.44 63.75,-129.75 55.59,-116.03 60.62,-98.11 66.81,-84.74"/>
<polygon fill="#63b8ff" stroke="#63b8ff" points="69.79,-86.6 71.32,-76.12 63.59,-83.36 69.79,-86.6"/>
</a>
</g>
</g>
<!-- Node5 -->
<g id="Node000005" class="node">
<title>Node5</title>
<g id="a_Node000005"><a xlink:href="mouse_8hpp.html" target="_top" xlink:title=" ">
<polygon fill="white" stroke="#666666" points="218.25,-129.75 73.25,-129.75 73.25,-110.5 218.25,-110.5 218.25,-129.75"/>
<text text-anchor="middle" x="145.75" y="-116.25" font-family="Helvetica,sans-Serif" font-size="10.00">liger/core/platform/mouse.hpp</text>
</a>
</g>
</g>
<!-- Node1&#45;&gt;Node5 -->
<g id="edge4_Node000001_Node000005" class="edge">
<title>Node1&#45;&gt;Node5</title>
<g id="a_edge4_Node000001_Node000005"><a xlink:title=" ">
<path fill="none" stroke="#63b8ff" d="M145.75,-165.58C145.75,-159.07 145.75,-149.92 145.75,-141.62"/>
<polygon fill="#63b8ff" stroke="#63b8ff" points="149.25,-141.62 145.75,-131.62 142.25,-141.62 149.25,-141.62"/>
</a>
</g>
</g>
<!-- Node6 -->
<g id="Node000006" class="node">
<title>Node6</title>
<g id="a_Node000006"><a xlink:href="window_8hpp.html" target="_top" xlink:title=" ">
<polygon fill="white" stroke="#666666" points="320.38,-74.5 173.12,-74.5 173.12,-55.25 320.38,-55.25 320.38,-74.5"/>
<text text-anchor="middle" x="246.75" y="-61" font-family="Helvetica,sans-Serif" font-size="10.00">liger/core/platform/window.hpp</text>
</a>
</g>
</g>
<!-- Node1&#45;&gt;Node6 -->
<g id="edge6_Node000001_Node000006" class="edge">
<title>Node1&#45;&gt;Node6</title>
<g id="a_edge6_Node000001_Node000006"><a xlink:title=" ">
<path fill="none" stroke="#63b8ff" d="M173.35,-165.29C190.93,-158.19 212.93,-146.65 226.75,-129.75 237,-117.21 242.02,-99.4 244.46,-85.77"/>
<polygon fill="#63b8ff" stroke="#63b8ff" points="247.88,-86.59 245.84,-76.19 240.95,-85.59 247.88,-86.59"/>
</a>
</g>
</g>
<!-- Node3 -->
<g id="Node000003" class="node">
<title>Node3</title>
<g id="a_Node000003"><a xlink:title=" ">
<polygon fill="#e0e0e0" stroke="#999999" points="117.25,-19.25 38.25,-19.25 38.25,0 117.25,0 117.25,-19.25"/>
<text text-anchor="middle" x="77.75" y="-5.75" font-family="Helvetica,sans-Serif" font-size="10.00">GLFW/glfw3.h</text>
</a>
</g>
</g>
<!-- Node2&#45;&gt;Node3 -->
<g id="edge2_Node000002_Node000003" class="edge">
<title>Node2&#45;&gt;Node3</title>
<g id="a_edge2_Node000002_Node000003"><a xlink:title=" ">
<path fill="none" stroke="#63b8ff" d="M77.75,-55.08C77.75,-48.57 77.75,-39.42 77.75,-31.12"/>
<polygon fill="#63b8ff" stroke="#63b8ff" points="81.25,-31.12 77.75,-21.12 74.25,-31.12 81.25,-31.12"/>
</a>
</g>
</g>
<!-- Node4 -->
<g id="Node000004" class="node">
<title>Node4</title>
<g id="a_Node000004"><a xlink:title=" ">
<polygon fill="#e0e0e0" stroke="#999999" points="266.5,-19.25 165,-19.25 165,0 266.5,0 266.5,-19.25"/>
<text text-anchor="middle" x="215.75" y="-5.75" font-family="Helvetica,sans-Serif" font-size="10.00">liger/core/types.hpp</text>
</a>
</g>
</g>
<!-- Node2&#45;&gt;Node4 -->
<g id="edge3_Node000002_Node000004" class="edge">
<title>Node2&#45;&gt;Node4</title>
<g id="a_edge3_Node000002_Node000004"><a xlink:title=" ">
<path fill="none" stroke="#63b8ff" d="M101.16,-54.84C123.27,-46.31 156.67,-33.42 181.72,-23.76"/>
<polygon fill="#63b8ff" stroke="#63b8ff" points="182.74,-27.11 190.81,-20.25 180.22,-20.58 182.74,-27.11"/>
</a>
</g>
</g>
<!-- Node5&#45;&gt;Node2 -->
<g id="edge5_Node000005_Node000002" class="edge">
<title>Node5&#45;&gt;Node2</title>
<g id="a_edge5_Node000005_Node000002"><a xlink:title=" ">
<path fill="none" stroke="#63b8ff" d="M134.21,-110.09C124.29,-102.32 109.74,-90.92 97.89,-81.65"/>
<polygon fill="#63b8ff" stroke="#63b8ff" points="100.34,-79.12 90.31,-75.71 96.02,-84.63 100.34,-79.12"/>
</a>
</g>
</g>
<!-- Node6&#45;&gt;Node4 -->
<g id="edge7_Node000006_Node000004" class="edge">
<title>Node6&#45;&gt;Node4</title>
<g id="a_edge7_Node000006_Node000004"><a xlink:title=" ">
<path fill="none" stroke="#63b8ff" d="M241.63,-55.08C237.57,-48.11 231.76,-38.12 226.66,-29.37"/>
<polygon fill="#63b8ff" stroke="#63b8ff" points="229.8,-27.8 221.74,-20.92 223.75,-31.32 229.8,-27.8"/>
</a>
</g>
</g>
</g>
</svg>
