<?xml version="1.0" encoding="UTF-8" standalone="no"?>
<!DOCTYPE svg PUBLIC "-//W3C//DTD SVG 1.1//EN"
 "http://www.w3.org/Graphics/SVG/1.1/DTD/svg11.dtd">
<!-- Generated by graphviz version 9.0.0 (20230911.1827)
 -->
<!-- Title: random.cpp Pages: 1 -->
<svg width="268pt" height="138pt"
 viewBox="0.00 0.00 267.75 137.75" xmlns="http://www.w3.org/2000/svg" xmlns:xlink="http://www.w3.org/1999/xlink">
<g id="graph0" class="graph" transform="scale(1 1) rotate(0) translate(4 133.75)">
<title>random.cpp</title>
<!-- Node1 -->
<g id="Node000001" class="node">
<title>Node1</title>
<g id="a_Node000001"><a xlink:title=" ">
<polygon fill="#999999" stroke="#666666" points="174.12,-129.75 107.12,-129.75 107.12,-110.5 174.12,-110.5 174.12,-129.75"/>
<text text-anchor="middle" x="140.62" y="-116.25" font-family="Helvetica,sans-Serif" font-size="10.00">random.cpp</text>
</a>
</g>
</g>
<!-- Node2 -->
<g id="Node000002" class="node">
<title>Node2</title>
<g id="a_Node000002"><a xlink:href="random_8hpp.html" target="_top" xlink:title=" ">
<polygon fill="white" stroke="#666666" points="139.88,-74.5 5.38,-74.5 5.38,-55.25 139.88,-55.25 139.88,-74.5"/>
<text text-anchor="middle" x="72.62" y="-61" font-family="Helvetica,sans-Serif" font-size="10.00">liger/core/math/random.hpp</text>
</a>
</g>
</g>
<!-- Node1&#45;&gt;Node2 -->
<g id="edge1_Node000001_Node000002" class="edge">
<title>Node1&#45;&gt;Node2</title>
<g id="a_edge1_Node000001_Node000002"><a xlink:title=" ">
<path fill="none" stroke="#63b8ff" d="M129.09,-110.09C119.16,-102.32 104.61,-90.92 92.77,-81.65"/>
<polygon fill="#63b8ff" stroke="#63b8ff" points="95.21,-79.12 85.18,-75.71 90.9,-84.63 95.21,-79.12"/>
</a>
</g>
</g>
<!-- Node5 -->
<g id="Node000005" class="node">
<title>Node5</title>
<g id="a_Node000005"><a xlink:title=" ">
<polygon fill="#e0e0e0" stroke="#999999" points="259.75,-74.5 157.5,-74.5 157.5,-55.25 259.75,-55.25 259.75,-74.5"/>
<text text-anchor="middle" x="208.62" y="-61" font-family="Helvetica,sans-Serif" font-size="10.00">glm/gtc/random.hpp</text>
</a>
</g>
</g>
<!-- Node1&#45;&gt;Node5 -->
<g id="edge4_Node000001_Node000005" class="edge">
<title>Node1&#45;&gt;Node5</title>
<g id="a_edge4_Node000001_Node000005"><a xlink:title=" ">
<path fill="none" stroke="#63b8ff" d="M152.16,-110.09C162.09,-102.32 176.64,-90.92 188.48,-81.65"/>
<polygon fill="#63b8ff" stroke="#63b8ff" points="190.35,-84.63 196.07,-75.71 186.04,-79.12 190.35,-84.63"/>
</a>
</g>
</g>
<!-- Node3 -->
<g id="Node000003" class="node">
<title>Node3</title>
<g id="a_Node000003"><a xlink:title=" ">
<polygon fill="#e0e0e0" stroke="#999999" points="69.25,-19.25 0,-19.25 0,0 69.25,0 69.25,-19.25"/>
<text text-anchor="middle" x="34.62" y="-5.75" font-family="Helvetica,sans-Serif" font-size="10.00">glm/glm.hpp</text>
</a>
</g>
</g>
<!-- Node2&#45;&gt;Node3 -->
<g id="edge2_Node000002_Node000003" class="edge">
<title>Node2&#45;&gt;Node3</title>
<g id="a_edge2_Node000002_Node000003"><a xlink:title=" ">
<path fill="none" stroke="#63b8ff" d="M66.35,-55.08C61.27,-47.96 53.93,-37.68 47.59,-28.8"/>
<polygon fill="#63b8ff" stroke="#63b8ff" points="50.57,-26.95 41.92,-20.84 44.88,-31.01 50.57,-26.95"/>
</a>
</g>
</g>
<!-- Node4 -->
<g id="Node000004" class="node">
<title>Node4</title>
<g id="a_Node000004"><a xlink:title=" ">
<polygon fill="#e0e0e0" stroke="#999999" points="135.75,-19.25 87.5,-19.25 87.5,0 135.75,0 135.75,-19.25"/>
<text text-anchor="middle" x="111.62" y="-5.75" font-family="Helvetica,sans-Serif" font-size="10.00">random</text>
</a>
</g>
</g>
<!-- Node2&#45;&gt;Node4 -->
<g id="edge3_Node000002_Node000004" class="edge">
<title>Node2&#45;&gt;Node4</title>
<g id="a_edge3_Node000002_Node000004"><a xlink:title=" ">
<path fill="none" stroke="#63b8ff" d="M79.07,-55.08C84.28,-47.96 91.81,-37.68 98.32,-28.8"/>
<polygon fill="#63b8ff" stroke="#63b8ff" points="101.07,-30.97 104.15,-20.83 95.42,-26.83 101.07,-30.97"/>
</a>
</g>
</g>
</g>
</svg>
