<?xml version="1.0" encoding="UTF-8" standalone="no"?>
<!DOCTYPE svg PUBLIC "-//W3C//DTD SVG 1.1//EN"
 "http://www.w3.org/Graphics/SVG/1.1/DTD/svg11.dtd">
<!-- Generated by graphviz version 9.0.0 (20230911.1827)
 -->
<!-- Title: render_graph.cpp Pages: 1 -->
<!--zoomable 315 -->

<svg id="main" version="1.1" xmlns="http://www.w3.org/2000/svg" xmlns:xlink="http://www.w3.org/1999/xlink" xml:space="preserve" onload="init(evt)">
<style type="text/css"><![CDATA[
.node, .edge {opacity: 0.7;}
.node.selected, .edge.selected {opacity: 1;}
.edge:hover path { stroke: red; }
.edge:hover polygon { stroke: red; fill: red; }
]]></style>

<defs>
  <circle id="rim" cx="0" cy="0" r="7"/>
  <circle id="rim2" cx="0" cy="0" r="3.5"/>
  <g id="zoomPlus">
    <use xlink:href="#rim" fill="#404040"><set attributeName="fill" to="#808080" begin="zoomplus.mouseover" end="zoomplus.mouseout"/></use>
    <path d="M-4,0h8M0,-4v8" fill="none" stroke="white" stroke-width="1.5" pointer-events="none"/>
  </g>
  <g id="zoomMin">
    <use xlink:href="#rim" fill="#404040"><set attributeName="fill" to="#808080" begin="zoomminus.mouseover" end="zoomminus.mouseout"/></use>
    <path d="M-4,0h8" fill="none" stroke="white" stroke-width="1.5" pointer-events="none"/>
  </g>
  <g id="arrowUp" transform="translate(30 24)">
    <use xlink:href="#rim"/>
    <path pointer-events="none" fill="none" stroke="white" stroke-width="1.5" d="M0,-3.0v7 M-2.5,-0.5L0,-3.0L2.5,-0.5"/>
  </g>
  <g id="arrowRight" transform="rotate(90) translate(36 -43)">
    <use xlink:href="#rim"/>
    <path pointer-events="none" fill="none" stroke="white" stroke-width="1.5" d="M0,-3.0v7 M-2.5,-0.5L0,-3.0L2.5,-0.5"/>
  </g>
  <g id="arrowDown" transform="rotate(180) translate(-30 -48)">
    <use xlink:href="#rim"/>
    <path pointer-events="none" fill="none" stroke="white" stroke-width="1.5" d="M0,-3.0v7 M-2.5,-0.5L0,-3.0L2.5,-0.5"/>
  </g>
  <g id="arrowLeft" transform="rotate(270) translate(-36 17)">
    <use xlink:href="#rim"/>
    <path pointer-events="none" fill="none" stroke="white" stroke-width="1.5" d="M0,-3.0v7 M-2.5,-0.5L0,-3.0L2.5,-0.5"/>
  </g>
  <g id="resetDef">
    <use xlink:href="#rim2" fill="#404040"><set attributeName="fill" to="#808080" begin="reset.mouseover" end="reset.mouseout"/></use>
  </g>
</defs>
<script type="application/ecmascript">
var viewWidth = 1093;
var viewHeight = 315;
var sectionId = 'dynsection-0';
</script>
<script type="application/ecmascript" xlink:href="svg.min.js"/>
<svg id="graph" class="graph">
<g id="viewport">
<title>render_graph.cpp</title>
<!-- Node1 -->
<g id="Node000001" class="node">
<title>Node1</title>
<g id="a_Node000001"><a xlink:title=" ">
<polygon fill="#999999" stroke="#666666" points="695.62,-306.75 604.62,-306.75 604.62,-287.5 695.62,-287.5 695.62,-306.75"/>
<text text-anchor="middle" x="650.12" y="-293.25" font-family="Helvetica,sans-Serif" font-size="10.00">render_graph.cpp</text>
</a>
</g>
</g>
<!-- Node2 -->
<g id="Node000002" class="node">
<title>Node2</title>
<g id="a_Node000002"><a xlink:href="render__graph_8hpp.html" target="_top" xlink:title=" ">
<polygon fill="white" stroke="#666666" points="727.88,-251.5 572.38,-251.5 572.38,-232.25 727.88,-232.25 727.88,-251.5"/>
<text text-anchor="middle" x="650.12" y="-238" font-family="Helvetica,sans-Serif" font-size="10.00">liger/render/rhi/render_graph.hpp</text>
</a>
</g>
</g>
<!-- Node1&#45;&gt;Node2 -->
<g id="edge1_Node000001_Node000002" class="edge">
<title>Node1&#45;&gt;Node2</title>
<g id="a_edge1_Node000001_Node000002"><a xlink:title=" ">
<path fill="none" stroke="#63b8ff" d="M650.12,-287.33C650.12,-280.82 650.12,-271.67 650.12,-263.37"/>
<polygon fill="#63b8ff" stroke="#63b8ff" points="653.63,-263.37 650.13,-253.37 646.63,-263.37 653.63,-263.37"/>
</a>
</g>
</g>
<!-- Node3 -->
<g id="Node000003" class="node">
<title>Node3</title>
<g id="a_Node000003"><a xlink:href="dag_8hpp.html" target="_top" xlink:title=" ">
<polygon fill="white" stroke="#666666" points="229.75,-190.62 136.5,-190.62 136.5,-171.38 229.75,-171.38 229.75,-190.62"/>
<text text-anchor="middle" x="183.12" y="-177.12" font-family="Helvetica,sans-Serif" font-size="10.00">liger/core/dag.hpp</text>
</a>
</g>
</g>
<!-- Node2&#45;&gt;Node3 -->
<g id="edge2_Node000002_Node000003" class="edge">
<title>Node2&#45;&gt;Node3</title>
<g id="a_edge2_Node000002_Node000003"><a xlink:title=" ">
<path fill="none" stroke="#63b8ff" d="M572.05,-234.26C491.6,-226.94 362.68,-213.83 252.12,-196.25 246.53,-195.36 240.7,-194.33 234.91,-193.23"/>
<polygon fill="#63b8ff" stroke="#63b8ff" points="235.85,-189.85 225.36,-191.35 234.5,-196.72 235.85,-189.85"/>
</a>
</g>
</g>
<!-- Node9 -->
<g id="Node000009" class="node">
<title>Node9</title>
<g id="a_Node000009"><a xlink:href="buffer_8hpp.html" target="_top" xlink:title=" ">
<polygon fill="white" stroke="#666666" points="567.75,-190.62 444.5,-190.62 444.5,-171.38 567.75,-171.38 567.75,-190.62"/>
<text text-anchor="middle" x="506.12" y="-177.12" font-family="Helvetica,sans-Serif" font-size="10.00">liger/render/rhi/buffer.hpp</text>
</a>
</g>
</g>
<!-- Node2&#45;&gt;Node9 -->
<g id="edge8_Node000002_Node000009" class="edge">
<title>Node2&#45;&gt;Node9</title>
<g id="a_edge8_Node000002_Node000009"><a xlink:title=" ">
<path fill="none" stroke="#63b8ff" d="M627.94,-231.8C604.09,-222.05 565.93,-206.45 538.68,-195.31"/>
<polygon fill="#63b8ff" stroke="#63b8ff" points="540.08,-192.1 529.5,-191.56 537.43,-198.58 540.08,-192.1"/>
</a>
</g>
</g>
<!-- Node14 -->
<g id="Node000014" class="node">
<title>Node14</title>
<g id="a_Node000014"><a xlink:href="command__buffer_8hpp.html" target="_top" xlink:title=" ">
<polygon fill="white" stroke="#666666" points="1033.75,-129.75 862.5,-129.75 862.5,-110.5 1033.75,-110.5 1033.75,-129.75"/>
<text text-anchor="middle" x="948.12" y="-116.25" font-family="Helvetica,sans-Serif" font-size="10.00">liger/render/rhi/command_buffer.hpp</text>
</a>
</g>
</g>
<!-- Node2&#45;&gt;Node14 -->
<g id="edge13_Node000002_Node000014" class="edge">
<title>Node2&#45;&gt;Node14</title>
<g id="a_edge13_Node000002_Node000014"><a xlink:title=" ">
<path fill="none" stroke="#63b8ff" d="M666.39,-231.9C681.65,-223.29 704.94,-209.65 724.12,-196.25 741.88,-183.85 742.68,-175.28 762.12,-165.75 795.07,-149.59 834.24,-139.07 868.11,-132.33"/>
<polygon fill="#63b8ff" stroke="#63b8ff" points="868.72,-135.77 877.89,-130.47 867.41,-128.9 868.72,-135.77"/>
</a>
</g>
</g>
<!-- Node18 -->
<g id="Node000018" class="node">
<title>Node18</title>
<g id="a_Node000018"><a xlink:href="resource__version__registry_8hpp.html" target="_top" xlink:title=" ">
<polygon fill="white" stroke="#666666" points="415.5,-196.25 260.75,-196.25 260.75,-165.75 415.5,-165.75 415.5,-196.25"/>
<text text-anchor="start" x="268.75" y="-182.75" font-family="Helvetica,sans-Serif" font-size="10.00">liger/render/rhi/resource_version</text>
<text text-anchor="middle" x="338.12" y="-171.5" font-family="Helvetica,sans-Serif" font-size="10.00">_registry.hpp</text>
</a>
</g>
</g>
<!-- Node2&#45;&gt;Node18 -->
<g id="edge20_Node000002_Node000018" class="edge">
<title>Node2&#45;&gt;Node18</title>
<g id="a_edge20_Node000002_Node000018"><a xlink:title=" ">
<path fill="none" stroke="#63b8ff" d="M602.06,-231.8C555.59,-223.04 484.05,-209.54 427.17,-198.8"/>
<polygon fill="#63b8ff" stroke="#63b8ff" points="427.96,-195.39 417.48,-196.98 426.66,-202.27 427.96,-195.39"/>
</a>
</g>
</g>
<!-- Node20 -->
<g id="Node000020" class="node">
<title>Node20</title>
<g id="a_Node000020"><a xlink:href="texture_8hpp.html" target="_top" xlink:title=" ">
<polygon fill="white" stroke="#666666" points="714.75,-190.62 585.5,-190.62 585.5,-171.38 714.75,-171.38 714.75,-190.62"/>
<text text-anchor="middle" x="650.12" y="-177.12" font-family="Helvetica,sans-Serif" font-size="10.00">liger/render/rhi/texture.hpp</text>
</a>
</g>
</g>
<!-- Node2&#45;&gt;Node20 -->
<g id="edge23_Node000002_Node000020" class="edge">
<title>Node2&#45;&gt;Node20</title>
<g id="a_edge23_Node000002_Node000020"><a xlink:title=" ">
<path fill="none" stroke="#63b8ff" d="M650.12,-231.93C650.12,-224.15 650.12,-212.58 650.12,-202.53"/>
<polygon fill="#63b8ff" stroke="#63b8ff" points="653.63,-202.54 650.13,-192.54 646.63,-202.54 653.63,-202.54"/>
</a>
</g>
</g>
<!-- Node23 -->
<g id="Node000023" class="node">
<title>Node23</title>
<g id="a_Node000023"><a xlink:title=" ">
<polygon fill="#e0e0e0" stroke="#999999" points="821,-190.62 771.25,-190.62 771.25,-171.38 821,-171.38 821,-190.62"/>
<text text-anchor="middle" x="796.12" y="-177.12" font-family="Helvetica,sans-Serif" font-size="10.00">optional</text>
</a>
</g>
</g>
<!-- Node2&#45;&gt;Node23 -->
<g id="edge31_Node000002_Node000023" class="edge">
<title>Node2&#45;&gt;Node23</title>
<g id="a_edge31_Node000002_Node000023"><a xlink:title=" ">
<path fill="none" stroke="#63b8ff" d="M672.62,-231.8C696.91,-222.01 735.84,-206.31 763.49,-195.16"/>
<polygon fill="#63b8ff" stroke="#63b8ff" points="764.48,-198.54 772.44,-191.55 761.86,-192.04 764.48,-198.54"/>
</a>
</g>
</g>
<!-- Node24 -->
<g id="Node000024" class="node">
<title>Node24</title>
<g id="a_Node000024"><a xlink:title=" ">
<polygon fill="#e0e0e0" stroke="#999999" points="904.88,-190.62 839.38,-190.62 839.38,-171.38 904.88,-171.38 904.88,-190.62"/>
<text text-anchor="middle" x="872.12" y="-177.12" font-family="Helvetica,sans-Serif" font-size="10.00">string_view</text>
</a>
</g>
</g>
<!-- Node2&#45;&gt;Node24 -->
<g id="edge32_Node000002_Node000024" class="edge">
<title>Node2&#45;&gt;Node24</title>
<g id="a_edge32_Node000002_Node000024"><a xlink:title=" ">
<path fill="none" stroke="#63b8ff" d="M690.78,-231.83C727.43,-223.42 782.7,-210.15 830.12,-196.25 831.95,-195.71 833.82,-195.15 835.7,-194.56"/>
<polygon fill="#63b8ff" stroke="#63b8ff" points="836.59,-197.96 845.03,-191.55 834.44,-191.3 836.59,-197.96"/>
</a>
</g>
</g>
<!-- Node4 -->
<g id="Node000004" class="node">
<title>Node4</title>
<g id="a_Node000004"><a xlink:title=" ">
<polygon fill="#e0e0e0" stroke="#999999" points="48.25,-129.75 0,-129.75 0,-110.5 48.25,-110.5 48.25,-129.75"/>
<text text-anchor="middle" x="24.12" y="-116.25" font-family="Helvetica,sans-Serif" font-size="10.00">cassert</text>
</a>
</g>
</g>
<!-- Node3&#45;&gt;Node4 -->
<g id="edge3_Node000003_Node000004" class="edge">
<title>Node3&#45;&gt;Node4</title>
<g id="a_edge3_Node000003_Node000004"><a xlink:title=" ">
<path fill="none" stroke="#63b8ff" d="M158.63,-170.93C132.02,-161.08 89.28,-145.25 59.13,-134.09"/>
<polygon fill="#63b8ff" stroke="#63b8ff" points="60.66,-130.92 50.07,-130.73 58.23,-137.49 60.66,-130.92"/>
</a>
</g>
</g>
<!-- Node5 -->
<g id="Node000005" class="node">
<title>Node5</title>
<g id="a_Node000005"><a xlink:title=" ">
<polygon fill="#e0e0e0" stroke="#999999" points="122,-129.75 66.25,-129.75 66.25,-110.5 122,-110.5 122,-129.75"/>
<text text-anchor="middle" x="94.12" y="-116.25" font-family="Helvetica,sans-Serif" font-size="10.00">concepts</text>
</a>
</g>
</g>
<!-- Node3&#45;&gt;Node5 -->
<g id="edge4_Node000003_Node000005" class="edge">
<title>Node3&#45;&gt;Node5</title>
<g id="a_edge4_Node000003_Node000005"><a xlink:title=" ">
<path fill="none" stroke="#63b8ff" d="M169.61,-171.06C155.75,-161.89 133.95,-147.47 117.33,-136.48"/>
<polygon fill="#63b8ff" stroke="#63b8ff" points="119.3,-133.58 109.03,-130.99 115.44,-139.42 119.3,-133.58"/>
</a>
</g>
</g>
<!-- Node6 -->
<g id="Node000006" class="node">
<title>Node6</title>
<g id="a_Node000006"><a xlink:title=" ">
<polygon fill="#e0e0e0" stroke="#999999" points="754.75,-19.25 709.5,-19.25 709.5,0 754.75,0 754.75,-19.25"/>
<text text-anchor="middle" x="732.12" y="-5.75" font-family="Helvetica,sans-Serif" font-size="10.00">cstdint</text>
</a>
</g>
</g>
<!-- Node3&#45;&gt;Node6 -->
<g id="edge5_Node000003_Node000006" class="edge">
<title>Node3&#45;&gt;Node6</title>
<g id="a_edge5_Node000003_Node000006"><a xlink:title=" ">
<path fill="none" stroke="#63b8ff" d="M188.85,-170.95C198.64,-156.2 219.97,-126.98 245.12,-110.5 310.87,-67.42 336.56,-73.04 413.12,-55.25 515.3,-31.5 639.01,-18.6 697.84,-13.4"/>
<polygon fill="#63b8ff" stroke="#63b8ff" points="697.88,-16.91 707.54,-12.56 697.27,-9.93 697.88,-16.91"/>
</a>
</g>
</g>
<!-- Node7 -->
<g id="Node000007" class="node">
<title>Node7</title>
<g id="a_Node000007"><a xlink:title=" ">
<polygon fill="#e0e0e0" stroke="#999999" points="198.12,-129.75 140.12,-129.75 140.12,-110.5 198.12,-110.5 198.12,-129.75"/>
<text text-anchor="middle" x="169.12" y="-116.25" font-family="Helvetica,sans-Serif" font-size="10.00">functional</text>
</a>
</g>
</g>
<!-- Node3&#45;&gt;Node7 -->
<g id="edge6_Node000003_Node000007" class="edge">
<title>Node3&#45;&gt;Node7</title>
<g id="a_edge6_Node000003_Node000007"><a xlink:title=" ">
<path fill="none" stroke="#63b8ff" d="M181,-171.06C179.13,-163.19 176.34,-151.45 173.93,-141.32"/>
<polygon fill="#63b8ff" stroke="#63b8ff" points="177.34,-140.54 171.62,-131.62 170.53,-142.16 177.34,-140.54"/>
</a>
</g>
</g>
<!-- Node8 -->
<g id="Node000008" class="node">
<title>Node8</title>
<g id="a_Node000008"><a xlink:title=" ">
<polygon fill="#e0e0e0" stroke="#999999" points="297.62,-129.75 254.62,-129.75 254.62,-110.5 297.62,-110.5 297.62,-129.75"/>
<text text-anchor="middle" x="276.12" y="-116.25" font-family="Helvetica,sans-Serif" font-size="10.00">vector</text>
</a>
</g>
</g>
<!-- Node3&#45;&gt;Node8 -->
<g id="edge7_Node000003_Node000008" class="edge">
<title>Node3&#45;&gt;Node8</title>
<g id="a_edge7_Node000003_Node000008"><a xlink:title=" ">
<path fill="none" stroke="#63b8ff" d="M197.25,-171.06C211.86,-161.81 234.94,-147.2 252.37,-136.17"/>
<polygon fill="#63b8ff" stroke="#63b8ff" points="254.01,-139.27 260.59,-130.96 250.27,-133.35 254.01,-139.27"/>
</a>
</g>
</g>
<!-- Node10 -->
<g id="Node000010" class="node">
<title>Node10</title>
<g id="a_Node000010"><a xlink:href="device__resource__state_8hpp.html" target="_top" xlink:title=" ">
<polygon fill="white" stroke="#666666" points="575.88,-129.75 378.38,-129.75 378.38,-110.5 575.88,-110.5 575.88,-129.75"/>
<text text-anchor="middle" x="477.12" y="-116.25" font-family="Helvetica,sans-Serif" font-size="10.00">liger/render/rhi/device_resource_state.hpp</text>
</a>
</g>
</g>
<!-- Node9&#45;&gt;Node10 -->
<g id="edge9_Node000009_Node000010" class="edge">
<title>Node9&#45;&gt;Node10</title>
<g id="a_edge9_Node000009_Node000010"><a xlink:title=" ">
<path fill="none" stroke="#63b8ff" d="M501.72,-171.06C497.72,-162.93 491.68,-150.67 486.58,-140.33"/>
<polygon fill="#63b8ff" stroke="#63b8ff" points="489.8,-138.93 482.24,-131.51 483.52,-142.03 489.8,-138.93"/>
</a>
</g>
</g>
<!-- Node13 -->
<g id="Node000013" class="node">
<title>Node13</title>
<g id="a_Node000013"><a xlink:title=" ">
<polygon fill="#e0e0e0" stroke="#999999" points="634.12,-129.75 594.12,-129.75 594.12,-110.5 634.12,-110.5 634.12,-129.75"/>
<text text-anchor="middle" x="614.12" y="-116.25" font-family="Helvetica,sans-Serif" font-size="10.00">string</text>
</a>
</g>
</g>
<!-- Node9&#45;&gt;Node13 -->
<g id="edge12_Node000009_Node000013" class="edge">
<title>Node9&#45;&gt;Node13</title>
<g id="a_edge12_Node000009_Node000013"><a xlink:title=" ">
<path fill="none" stroke="#63b8ff" d="M522.53,-171.06C539.81,-161.63 567.3,-146.65 587.66,-135.55"/>
<polygon fill="#63b8ff" stroke="#63b8ff" points="589.13,-138.73 596.24,-130.88 585.78,-132.59 589.13,-138.73"/>
</a>
</g>
</g>
<!-- Node11 -->
<g id="Node000011" class="node">
<title>Node11</title>
<g id="a_Node000011"><a xlink:href="enum__bitmask_8hpp.html" target="_top" xlink:title=" ">
<polygon fill="white" stroke="#666666" points="563.75,-74.5 422.5,-74.5 422.5,-55.25 563.75,-55.25 563.75,-74.5"/>
<text text-anchor="middle" x="493.12" y="-61" font-family="Helvetica,sans-Serif" font-size="10.00">liger/core/enum_bitmask.hpp</text>
</a>
</g>
</g>
<!-- Node10&#45;&gt;Node11 -->
<g id="edge10_Node000010_Node000011" class="edge">
<title>Node10&#45;&gt;Node11</title>
<g id="a_edge10_Node000010_Node000011"><a xlink:title=" ">
<path fill="none" stroke="#63b8ff" d="M479.77,-110.33C481.77,-103.67 484.6,-94.24 487.14,-85.78"/>
<polygon fill="#63b8ff" stroke="#63b8ff" points="490.46,-86.89 489.99,-76.31 483.76,-84.88 490.46,-86.89"/>
</a>
</g>
</g>
<!-- Node12 -->
<g id="Node000012" class="node">
<title>Node12</title>
<g id="a_Node000012"><a xlink:title=" ">
<polygon fill="#e0e0e0" stroke="#999999" points="524,-19.25 462.25,-19.25 462.25,0 524,0 524,-19.25"/>
<text text-anchor="middle" x="493.12" y="-5.75" font-family="Helvetica,sans-Serif" font-size="10.00">type_traits</text>
</a>
</g>
</g>
<!-- Node11&#45;&gt;Node12 -->
<g id="edge11_Node000011_Node000012" class="edge">
<title>Node11&#45;&gt;Node12</title>
<g id="a_edge11_Node000011_Node000012"><a xlink:title=" ">
<path fill="none" stroke="#63b8ff" d="M493.12,-55.08C493.12,-48.57 493.12,-39.42 493.12,-31.12"/>
<polygon fill="#63b8ff" stroke="#63b8ff" points="496.63,-31.12 493.13,-21.12 489.63,-31.12 496.63,-31.12"/>
</a>
</g>
</g>
<!-- Node14&#45;&gt;Node11 -->
<g id="edge14_Node000014_Node000011" class="edge">
<title>Node14&#45;&gt;Node11</title>
<g id="a_edge14_Node000014_Node000011"><a xlink:title=" ">
<path fill="none" stroke="#63b8ff" d="M870.17,-110C787.98,-100.38 659.05,-85.29 575.31,-75.49"/>
<polygon fill="#63b8ff" stroke="#63b8ff" points="575.9,-72.04 565.56,-74.35 575.09,-78.99 575.9,-72.04"/>
</a>
</g>
</g>
<!-- Node15 -->
<g id="Node000015" class="node">
<title>Node15</title>
<g id="a_Node000015"><a xlink:href="extent_8hpp.html" target="_top" xlink:title=" ">
<polygon fill="white" stroke="#666666" points="1085.25,-74.5 959,-74.5 959,-55.25 1085.25,-55.25 1085.25,-74.5"/>
<text text-anchor="middle" x="1022.12" y="-61" font-family="Helvetica,sans-Serif" font-size="10.00">liger/render/rhi/extent.hpp</text>
</a>
</g>
</g>
<!-- Node14&#45;&gt;Node15 -->
<g id="edge15_Node000014_Node000015" class="edge">
<title>Node14&#45;&gt;Node15</title>
<g id="a_edge15_Node000014_Node000015"><a xlink:title=" ">
<path fill="none" stroke="#63b8ff" d="M960.68,-110.09C971.59,-102.24 987.63,-90.7 1000.59,-81.37"/>
<polygon fill="#63b8ff" stroke="#63b8ff" points="1002.46,-84.34 1008.53,-75.66 998.37,-78.66 1002.46,-84.34"/>
</a>
</g>
</g>
<!-- Node16 -->
<g id="Node000016" class="node">
<title>Node16</title>
<g id="a_Node000016"><a xlink:href="filter_8hpp.html" target="_top" xlink:title=" ">
<polygon fill="white" stroke="#666666" points="860.75,-74.5 743.5,-74.5 743.5,-55.25 860.75,-55.25 860.75,-74.5"/>
<text text-anchor="middle" x="802.12" y="-61" font-family="Helvetica,sans-Serif" font-size="10.00">liger/render/rhi/filter.hpp</text>
</a>
</g>
</g>
<!-- Node14&#45;&gt;Node16 -->
<g id="edge17_Node000014_Node000016" class="edge">
<title>Node14&#45;&gt;Node16</title>
<g id="a_edge17_Node000014_Node000016"><a xlink:title=" ">
<path fill="none" stroke="#63b8ff" d="M923.36,-110.09C899.87,-101.52 864.31,-88.56 837.77,-78.88"/>
<polygon fill="#63b8ff" stroke="#63b8ff" points="839.03,-75.61 828.44,-75.47 836.63,-82.19 839.03,-75.61"/>
</a>
</g>
</g>
<!-- Node17 -->
<g id="Node000017" class="node">
<title>Node17</title>
<g id="a_Node000017"><a xlink:title=" ">
<polygon fill="#e0e0e0" stroke="#999999" points="940.62,-74.5 903.62,-74.5 903.62,-55.25 940.62,-55.25 940.62,-74.5"/>
<text text-anchor="middle" x="922.12" y="-61" font-family="Helvetica,sans-Serif" font-size="10.00">span</text>
</a>
</g>
</g>
<!-- Node14&#45;&gt;Node17 -->
<g id="edge19_Node000014_Node000017" class="edge">
<title>Node14&#45;&gt;Node17</title>
<g id="a_edge19_Node000014_Node000017"><a xlink:title=" ">
<path fill="none" stroke="#63b8ff" d="M943.83,-110.33C940.5,-103.51 935.76,-93.81 931.56,-85.2"/>
<polygon fill="#63b8ff" stroke="#63b8ff" points="934.71,-83.67 927.18,-76.22 928.42,-86.74 934.71,-83.67"/>
</a>
</g>
</g>
<!-- Node15&#45;&gt;Node6 -->
<g id="edge16_Node000015_Node000006" class="edge">
<title>Node15&#45;&gt;Node6</title>
<g id="a_edge16_Node000015_Node000006"><a xlink:title=" ">
<path fill="none" stroke="#63b8ff" d="M972.6,-54.78C913.77,-43.98 817.19,-26.24 766.17,-16.88"/>
<polygon fill="#63b8ff" stroke="#63b8ff" points="767.07,-13.48 756.6,-15.12 765.8,-20.37 767.07,-13.48"/>
</a>
</g>
</g>
<!-- Node16&#45;&gt;Node6 -->
<g id="edge18_Node000016_Node000006" class="edge">
<title>Node16&#45;&gt;Node6</title>
<g id="a_edge18_Node000016_Node000006"><a xlink:title=" ">
<path fill="none" stroke="#63b8ff" d="M790.25,-54.84C780.03,-47.07 765.05,-35.67 752.86,-26.4"/>
<polygon fill="#63b8ff" stroke="#63b8ff" points="755.11,-23.71 745.03,-20.44 750.87,-29.28 755.11,-23.71"/>
</a>
</g>
</g>
<!-- Node18&#45;&gt;Node8 -->
<g id="edge22_Node000018_Node000008" class="edge">
<title>Node18&#45;&gt;Node8</title>
<g id="a_edge22_Node000018_Node000008"><a xlink:title=" ">
<path fill="none" stroke="#63b8ff" d="M322.8,-165.45C314.09,-157.17 303.13,-146.77 294.02,-138.12"/>
<polygon fill="#63b8ff" stroke="#63b8ff" points="296.44,-135.59 286.78,-131.24 291.62,-140.67 296.44,-135.59"/>
</a>
</g>
</g>
<!-- Node19 -->
<g id="Node000019" class="node">
<title>Node19</title>
<g id="a_Node000019"><a xlink:title=" ">
<polygon fill="#e0e0e0" stroke="#999999" points="360.75,-129.75 315.5,-129.75 315.5,-110.5 360.75,-110.5 360.75,-129.75"/>
<text text-anchor="middle" x="338.12" y="-116.25" font-family="Helvetica,sans-Serif" font-size="10.00">variant</text>
</a>
</g>
</g>
<!-- Node18&#45;&gt;Node19 -->
<g id="edge21_Node000018_Node000019" class="edge">
<title>Node18&#45;&gt;Node19</title>
<g id="a_edge21_Node000018_Node000019"><a xlink:title=" ">
<path fill="none" stroke="#63b8ff" d="M338.12,-165.45C338.12,-158.21 338.12,-149.34 338.12,-141.44"/>
<polygon fill="#63b8ff" stroke="#63b8ff" points="341.63,-141.71 338.13,-131.71 334.63,-141.71 341.63,-141.71"/>
</a>
</g>
</g>
<!-- Node20&#45;&gt;Node10 -->
<g id="edge24_Node000020_Node000010" class="edge">
<title>Node20&#45;&gt;Node10</title>
<g id="a_edge24_Node000020_Node000010"><a xlink:title=" ">
<path fill="none" stroke="#63b8ff" d="M623.47,-170.93C594.26,-160.99 547.2,-144.97 514.35,-133.79"/>
<polygon fill="#63b8ff" stroke="#63b8ff" points="515.83,-130.6 505.24,-130.69 513.58,-137.23 515.83,-130.6"/>
</a>
</g>
</g>
<!-- Node20&#45;&gt;Node13 -->
<g id="edge30_Node000020_Node000013" class="edge">
<title>Node20&#45;&gt;Node13</title>
<g id="a_edge30_Node000020_Node000013"><a xlink:title=" ">
<path fill="none" stroke="#63b8ff" d="M644.66,-171.06C639.58,-162.76 631.87,-150.14 625.47,-139.67"/>
<polygon fill="#63b8ff" stroke="#63b8ff" points="628.64,-138.15 620.43,-131.44 622.66,-141.8 628.64,-138.15"/>
</a>
</g>
</g>
<!-- Node20&#45;&gt;Node15 -->
<g id="edge25_Node000020_Node000015" class="edge">
<title>Node20&#45;&gt;Node15</title>
<g id="a_edge25_Node000020_Node000015"><a xlink:title=" ">
<path fill="none" stroke="#63b8ff" d="M714.99,-171.74C826.56,-157.53 1042.96,-129.94 1043.12,-129.75 1054.42,-116.92 1045.92,-97.86 1036.58,-83.9"/>
<polygon fill="#63b8ff" stroke="#63b8ff" points="1039.53,-82.01 1030.79,-76.02 1033.89,-86.16 1039.53,-82.01"/>
</a>
</g>
</g>
<!-- Node21 -->
<g id="Node000021" class="node">
<title>Node21</title>
<g id="a_Node000021"><a xlink:href="format_8hpp.html" target="_top" xlink:title=" ">
<polygon fill="white" stroke="#666666" points="725.62,-74.5 598.62,-74.5 598.62,-55.25 725.62,-55.25 725.62,-74.5"/>
<text text-anchor="middle" x="662.12" y="-61" font-family="Helvetica,sans-Serif" font-size="10.00">liger/render/rhi/format.hpp</text>
</a>
</g>
</g>
<!-- Node20&#45;&gt;Node21 -->
<g id="edge26_Node000020_Node000021" class="edge">
<title>Node20&#45;&gt;Node21</title>
<g id="a_edge26_Node000020_Node000021"><a xlink:title=" ">
<path fill="none" stroke="#63b8ff" d="M651.07,-171.04C652.98,-152.88 657.35,-111.29 659.99,-86.2"/>
<polygon fill="#63b8ff" stroke="#63b8ff" points="663.46,-86.61 661.03,-76.29 656.5,-85.87 663.46,-86.61"/>
</a>
</g>
</g>
<!-- Node22 -->
<g id="Node000022" class="node">
<title>Node22</title>
<g id="a_Node000022"><a xlink:href="sampler__info_8hpp.html" target="_top" xlink:title=" ">
<polygon fill="white" stroke="#666666" points="844.5,-129.75 689.75,-129.75 689.75,-110.5 844.5,-110.5 844.5,-129.75"/>
<text text-anchor="middle" x="767.12" y="-116.25" font-family="Helvetica,sans-Serif" font-size="10.00">liger/render/rhi/sampler_info.hpp</text>
</a>
</g>
</g>
<!-- Node20&#45;&gt;Node22 -->
<g id="edge28_Node000020_Node000022" class="edge">
<title>Node20&#45;&gt;Node22</title>
<g id="a_edge28_Node000020_Node000022"><a xlink:title=" ">
<path fill="none" stroke="#63b8ff" d="M668.15,-170.93C687.1,-161.39 717.16,-146.27 739.19,-135.18"/>
<polygon fill="#63b8ff" stroke="#63b8ff" points="740.56,-138.41 747.92,-130.79 737.41,-132.16 740.56,-138.41"/>
</a>
</g>
</g>
<!-- Node21&#45;&gt;Node6 -->
<g id="edge27_Node000021_Node000006" class="edge">
<title>Node21&#45;&gt;Node6</title>
<g id="a_edge27_Node000021_Node000006"><a xlink:title=" ">
<path fill="none" stroke="#63b8ff" d="M674,-54.84C684.22,-47.07 699.2,-35.67 711.39,-26.4"/>
<polygon fill="#63b8ff" stroke="#63b8ff" points="713.38,-29.28 719.22,-20.44 709.14,-23.71 713.38,-29.28"/>
</a>
</g>
</g>
<!-- Node22&#45;&gt;Node16 -->
<g id="edge29_Node000022_Node000016" class="edge">
<title>Node22&#45;&gt;Node16</title>
<g id="a_edge29_Node000022_Node000016"><a xlink:title=" ">
<path fill="none" stroke="#63b8ff" d="M772.9,-110.33C777.54,-103.28 784.2,-93.15 789.99,-84.33"/>
<polygon fill="#63b8ff" stroke="#63b8ff" points="792.82,-86.4 795.39,-76.12 786.97,-82.56 792.82,-86.4"/>
</a>
</g>
</g>
</g>
</svg>

<g id="navigator" transform="translate(0 0)" fill="#404254">
  <rect fill="#f2f5e9" fill-opacity="0.5" stroke="#606060" stroke-width=".5" x="0" y="0" width="60" height="60"/>
  <use id="zoomplus" xlink:href="#zoomPlus" x="17" y="9" onmousedown="handleZoom(evt,'in')"/>
  <use id="zoomminus" xlink:href="#zoomMin" x="42" y="9" onmousedown="handleZoom(evt,'out')"/>
  <use id="reset" xlink:href="#resetDef" x="30" y="36" onmousedown="handleReset()"/>
   <use id="arrowup" xlink:href="#arrowUp" x="0" y="0" onmousedown="handlePan(0,-1)"/>
  <use id="arrowright" xlink:href="#arrowRight" x="0" y="0" onmousedown="handlePan(1,0)"/>
  <use id="arrowdown" xlink:href="#arrowDown" x="0" y="0" onmousedown="handlePan(0,1)"/>
  <use id="arrowleft" xlink:href="#arrowLeft" x="0" y="0" onmousedown="handlePan(-1,0)"/>
</g>
<svg viewBox="0 0 15 15" width="100%" height="30px" preserveAspectRatio="xMaxYMin meet">
 <g id="arrow_out" transform="scale(0.3 0.3)">
  <a xlink:href="render__graph_8cpp__incl_org.svg" target="_base">
   <rect id="button" ry="5" rx="5" y="6" x="6" height="38" width="38"
        fill="#f2f5e9" fill-opacity="0.5" stroke="#606060" stroke-width="1.0"/>
   <path id="arrow"
     d="M 11.500037,31.436501 C 11.940474,20.09759 22.043105,11.32322 32.158766,21.979434 L 37.068811,17.246167 C 37.068811,17.246167 37.088388,32 37.088388,32 L 22.160133,31.978069 C 22.160133,31.978069 26.997745,27.140456 26.997745,27.140456 C 18.528582,18.264221 13.291696,25.230495 11.500037,31.436501 z"
     style="fill:#404040;"/>
  </a>
 </g>
</svg>

<style type='text/css'>
<![CDATA[
[data-mouse-over-selected='false'] { opacity: 0.7; }
[data-mouse-over-selected='true']  { opacity: 1.0; }
]]>
</style>
<script type="application/ecmascript"><![CDATA[
document.addEventListener('DOMContentLoaded', (event) => {
  highlightEdges();
  highlightAdjacentNodes();
});
]]></script>
</svg>
