<?xml version="1.0" encoding="UTF-8" standalone="no"?>
<!DOCTYPE svg PUBLIC "-//W3C//DTD SVG 1.1//EN"
 "http://www.w3.org/Graphics/SVG/1.1/DTD/svg11.dtd">
<!-- Generated by graphviz version 9.0.0 (20230911.1827)
 -->
<!-- Title: render_pass.hpp Pages: 1 -->
<svg width="324pt" height="248pt"
 viewBox="0.00 0.00 323.75 248.25" xmlns="http://www.w3.org/2000/svg" xmlns:xlink="http://www.w3.org/1999/xlink">
<g id="graph0" class="graph" transform="scale(1 1) rotate(0) translate(4 244.25)">
<title>render_pass.hpp</title>
<!-- Node1 -->
<g id="Node000001" class="node">
<title>Node1</title>
<g id="a_Node000001"><a xlink:title=" ">
<polygon fill="#999999" stroke="#666666" points="209.5,-240.25 121.5,-240.25 121.5,-221 209.5,-221 209.5,-240.25"/>
<text text-anchor="middle" x="165.5" y="-226.75" font-family="Helvetica,sans-Serif" font-size="10.00">render_pass.hpp</text>
</a>
</g>
</g>
<!-- Node2 -->
<g id="Node000002" class="node">
<title>Node2</title>
<g id="a_Node000002"><a xlink:href="format_8hpp.html" target="_top" xlink:title=" ">
<polygon fill="white" stroke="#666666" points="127,-74.5 0,-74.5 0,-55.25 127,-55.25 127,-74.5"/>
<text text-anchor="middle" x="63.5" y="-61" font-family="Helvetica,sans-Serif" font-size="10.00">liger/render/rhi/format.hpp</text>
</a>
</g>
</g>
<!-- Node1&#45;&gt;Node2 -->
<g id="edge1_Node000001_Node000002" class="edge">
<title>Node1&#45;&gt;Node2</title>
<g id="a_edge1_Node000001_Node000002"><a xlink:title=" ">
<path fill="none" stroke="#63b8ff" d="M134.34,-220.59C116.36,-213.75 94.91,-202.47 82.5,-185 61.54,-155.5 60.22,-111.55 61.57,-86.09"/>
<polygon fill="#63b8ff" stroke="#63b8ff" points="65.04,-86.68 62.3,-76.45 58.06,-86.16 65.04,-86.68"/>
</a>
</g>
</g>
<!-- Node4 -->
<g id="Node000004" class="node">
<title>Node4</title>
<g id="a_Node000004"><a xlink:href="framebuffer_8hpp.html" target="_top" xlink:title=" ">
<polygon fill="white" stroke="#666666" points="239.5,-185 91.5,-185 91.5,-165.75 239.5,-165.75 239.5,-185"/>
<text text-anchor="middle" x="165.5" y="-171.5" font-family="Helvetica,sans-Serif" font-size="10.00">liger/render/rhi/framebuffer.hpp</text>
</a>
</g>
</g>
<!-- Node1&#45;&gt;Node4 -->
<g id="edge3_Node000001_Node000004" class="edge">
<title>Node1&#45;&gt;Node4</title>
<g id="a_edge3_Node000001_Node000004"><a xlink:title=" ">
<path fill="none" stroke="#63b8ff" d="M165.5,-220.83C165.5,-214.32 165.5,-205.17 165.5,-196.87"/>
<polygon fill="#63b8ff" stroke="#63b8ff" points="169,-196.87 165.5,-186.87 162,-196.87 169,-196.87"/>
</a>
</g>
</g>
<!-- Node5 -->
<g id="Node000005" class="node">
<title>Node5</title>
<g id="a_Node000005"><a xlink:href="texture_8hpp.html" target="_top" xlink:title=" ">
<polygon fill="white" stroke="#666666" points="262.12,-129.75 132.88,-129.75 132.88,-110.5 262.12,-110.5 262.12,-129.75"/>
<text text-anchor="middle" x="197.5" y="-116.25" font-family="Helvetica,sans-Serif" font-size="10.00">liger/render/rhi/texture.hpp</text>
</a>
</g>
</g>
<!-- Node1&#45;&gt;Node5 -->
<g id="edge8_Node000001_Node000005" class="edge">
<title>Node1&#45;&gt;Node5</title>
<g id="a_edge8_Node000001_Node000005"><a xlink:title=" ">
<path fill="none" stroke="#63b8ff" d="M199.37,-220.64C217.33,-213.96 237.84,-202.83 248.5,-185 259.19,-167.12 240.84,-148.74 223.25,-136.31"/>
<polygon fill="#63b8ff" stroke="#63b8ff" points="225.29,-133.46 215.01,-130.9 221.44,-139.31 225.29,-133.46"/>
</a>
</g>
</g>
<!-- Node3 -->
<g id="Node000003" class="node">
<title>Node3</title>
<g id="a_Node000003"><a xlink:title=" ">
<polygon fill="#e0e0e0" stroke="#999999" points="194.62,-19.25 98.38,-19.25 98.38,0 194.62,0 194.62,-19.25"/>
<text text-anchor="middle" x="146.5" y="-5.75" font-family="Helvetica,sans-Serif" font-size="10.00">liger/core/core.hpp</text>
</a>
</g>
</g>
<!-- Node2&#45;&gt;Node3 -->
<g id="edge2_Node000002_Node000003" class="edge">
<title>Node2&#45;&gt;Node3</title>
<g id="a_edge2_Node000002_Node000003"><a xlink:title=" ">
<path fill="none" stroke="#63b8ff" d="M77.58,-54.84C89.98,-46.89 108.29,-35.14 122.93,-25.75"/>
<polygon fill="#63b8ff" stroke="#63b8ff" points="124.55,-28.87 131.08,-20.52 120.77,-22.97 124.55,-28.87"/>
</a>
</g>
</g>
<!-- Node4&#45;&gt;Node5 -->
<g id="edge4_Node000004_Node000005" class="edge">
<title>Node4&#45;&gt;Node5</title>
<g id="a_edge4_Node000004_Node000005"><a xlink:title=" ">
<path fill="none" stroke="#63b8ff" d="M170.78,-165.58C174.97,-158.61 180.98,-148.62 186.23,-139.87"/>
<polygon fill="#63b8ff" stroke="#63b8ff" points="189.17,-141.78 191.32,-131.41 183.17,-138.18 189.17,-141.78"/>
</a>
</g>
</g>
<!-- Node5&#45;&gt;Node2 -->
<g id="edge7_Node000005_Node000002" class="edge">
<title>Node5&#45;&gt;Node2</title>
<g id="a_edge7_Node000005_Node000002"><a xlink:title=" ">
<path fill="none" stroke="#63b8ff" d="M174.77,-110.09C153.4,-101.6 121.16,-88.79 96.87,-79.14"/>
<polygon fill="#63b8ff" stroke="#63b8ff" points="98.34,-75.95 87.75,-75.51 95.75,-82.46 98.34,-75.95"/>
</a>
</g>
</g>
<!-- Node6 -->
<g id="Node000006" class="node">
<title>Node6</title>
<g id="a_Node000006"><a xlink:href="device__resource_8hpp.html" target="_top" xlink:title=" ">
<polygon fill="white" stroke="#666666" points="315.75,-74.5 145.25,-74.5 145.25,-55.25 315.75,-55.25 315.75,-74.5"/>
<text text-anchor="middle" x="230.5" y="-61" font-family="Helvetica,sans-Serif" font-size="10.00">liger/render/rhi/device_resource.hpp</text>
</a>
</g>
</g>
<!-- Node5&#45;&gt;Node6 -->
<g id="edge5_Node000005_Node000006" class="edge">
<title>Node5&#45;&gt;Node6</title>
<g id="a_edge5_Node000005_Node000006"><a xlink:title=" ">
<path fill="none" stroke="#63b8ff" d="M202.95,-110.33C207.27,-103.36 213.46,-93.37 218.88,-84.62"/>
<polygon fill="#63b8ff" stroke="#63b8ff" points="221.84,-86.49 224.14,-76.15 215.89,-82.8 221.84,-86.49"/>
</a>
</g>
</g>
<!-- Node6&#45;&gt;Node3 -->
<g id="edge6_Node000006_Node000003" class="edge">
<title>Node6&#45;&gt;Node3</title>
<g id="a_edge6_Node000006_Node000003"><a xlink:title=" ">
<path fill="none" stroke="#63b8ff" d="M216.25,-54.84C203.7,-46.89 185.17,-35.14 170.36,-25.75"/>
<polygon fill="#63b8ff" stroke="#63b8ff" points="172.42,-22.91 162.1,-20.51 168.67,-28.82 172.42,-22.91"/>
</a>
</g>
</g>
</g>
</svg>
