<?xml version="1.0" encoding="UTF-8" standalone="no"?>
<!DOCTYPE svg PUBLIC "-//W3C//DTD SVG 1.1//EN"
 "http://www.w3.org/Graphics/SVG/1.1/DTD/svg11.dtd">
<!-- Generated by graphviz version 9.0.0 (20230911.1827)
 -->
<!-- Title: sampler_info.hpp Pages: 1 -->
<svg width="125pt" height="138pt"
 viewBox="0.00 0.00 125.25 137.75" xmlns="http://www.w3.org/2000/svg" xmlns:xlink="http://www.w3.org/1999/xlink">
<g id="graph0" class="graph" transform="scale(1 1) rotate(0) translate(4 133.75)">
<title>sampler_info.hpp</title>
<!-- Node1 -->
<g id="Node000001" class="node">
<title>Node1</title>
<g id="a_Node000001"><a xlink:title=" ">
<polygon fill="#999999" stroke="#666666" points="103.75,-129.75 13.5,-129.75 13.5,-110.5 103.75,-110.5 103.75,-129.75"/>
<text text-anchor="middle" x="58.62" y="-116.25" font-family="Helvetica,sans-Serif" font-size="10.00">sampler_info.hpp</text>
</a>
</g>
</g>
<!-- Node2 -->
<g id="Node000002" class="node">
<title>Node2</title>
<g id="a_Node000002"><a xlink:href="filter_8hpp.html" target="_top" xlink:title=" ">
<polygon fill="white" stroke="#666666" points="117.25,-74.5 0,-74.5 0,-55.25 117.25,-55.25 117.25,-74.5"/>
<text text-anchor="middle" x="58.62" y="-61" font-family="Helvetica,sans-Serif" font-size="10.00">liger/render/rhi/filter.hpp</text>
</a>
</g>
</g>
<!-- Node1&#45;&gt;Node2 -->
<g id="edge1_Node000001_Node000002" class="edge">
<title>Node1&#45;&gt;Node2</title>
<g id="a_edge1_Node000001_Node000002"><a xlink:title=" ">
<path fill="none" stroke="#63b8ff" d="M58.62,-110.33C58.62,-103.82 58.62,-94.67 58.62,-86.37"/>
<polygon fill="#63b8ff" stroke="#63b8ff" points="62.13,-86.37 58.63,-76.37 55.13,-86.37 62.13,-86.37"/>
</a>
</g>
</g>
<!-- Node3 -->
<g id="Node000003" class="node">
<title>Node3</title>
<g id="a_Node000003"><a xlink:title=" ">
<polygon fill="#e0e0e0" stroke="#999999" points="81.25,-19.25 36,-19.25 36,0 81.25,0 81.25,-19.25"/>
<text text-anchor="middle" x="58.62" y="-5.75" font-family="Helvetica,sans-Serif" font-size="10.00">cstdint</text>
</a>
</g>
</g>
<!-- Node2&#45;&gt;Node3 -->
<g id="edge2_Node000002_Node000003" class="edge">
<title>Node2&#45;&gt;Node3</title>
<g id="a_edge2_Node000002_Node000003"><a xlink:title=" ">
<path fill="none" stroke="#63b8ff" d="M58.62,-55.08C58.62,-48.57 58.62,-39.42 58.62,-31.12"/>
<polygon fill="#63b8ff" stroke="#63b8ff" points="62.13,-31.12 58.63,-21.12 55.13,-31.12 62.13,-31.12"/>
</a>
</g>
</g>
</g>
</svg>
