<?xml version="1.0" encoding="UTF-8" standalone="no"?>
<!DOCTYPE svg PUBLIC "-//W3C//DTD SVG 1.1//EN"
 "http://www.w3.org/Graphics/SVG/1.1/DTD/svg11.dtd">
<!-- Generated by graphviz version 7.1.0 (20230121.1956)
 -->
<!-- Title: liger::EnumBitMask&lt; EnumT, UnderlyingT &gt; Pages: 1 -->
<svg width="217pt" height="226pt"
 viewBox="0.00 0.00 217.00 226.00" xmlns="http://www.w3.org/2000/svg" xmlns:xlink="http://www.w3.org/1999/xlink">
<g id="graph0" class="graph" transform="scale(1 1) rotate(0) translate(4 222)">
<title>liger::EnumBitMask&lt; EnumT, UnderlyingT &gt;</title>
<polygon fill="white" stroke="none" points="-4,4 -4,-222 213,-222 213,4 -4,4"/>
<!-- Node1 -->
<g id="node1" class="node">
<title>Node1</title>
<g id="a_node1"><a xlink:title="Convenience struct for storing a bit mask of the specified enum class values.">
<polygon fill="#bfbfbf" stroke="black" points="0,-0.5 0,-112.5 209,-112.5 209,-0.5 0,-0.5"/>
<text text-anchor="middle" x="104.5" y="-100.5" font-family="Helvetica,sans-Serif" font-size="10.00">liger::EnumBitMask&lt; EnumT, UnderlyingT &gt;</text>
<polyline fill="none" stroke="black" points="0,-93.5 209,-93.5"/>
<text text-anchor="middle" x="104.5" y="-81.5" font-family="Helvetica,sans-Serif" font-size="10.00"> </text>
<polyline fill="none" stroke="black" points="0,-74.5 209,-74.5"/>
<text text-anchor="start" x="8" y="-62.5" font-family="Helvetica,sans-Serif" font-size="10.00">+ EnumBitMask()</text>
<text text-anchor="start" x="8" y="-51.5" font-family="Helvetica,sans-Serif" font-size="10.00">+ EnumBitMask()</text>
<text text-anchor="start" x="8" y="-40.5" font-family="Helvetica,sans-Serif" font-size="10.00">+ operator|=()</text>
<text text-anchor="start" x="8" y="-29.5" font-family="Helvetica,sans-Serif" font-size="10.00">+ operator&amp;=()</text>
<text text-anchor="start" x="8" y="-18.5" font-family="Helvetica,sans-Serif" font-size="10.00">+ operator|=()</text>
<text text-anchor="start" x="8" y="-7.5" font-family="Helvetica,sans-Serif" font-size="10.00">+ operator&amp;=()</text>
</a>
</g>
</g>
<!-- Node2 -->
<g id="node2" class="node">
<title>Node2</title>
<g id="a_node2"><a xlink:title=" ">
<polygon fill="white" stroke="#bfbfbf" points="83,-160.5 83,-217.5 126,-217.5 126,-160.5 83,-160.5"/>
<text text-anchor="middle" x="104.5" y="-205.5" font-family="Helvetica,sans-Serif" font-size="10.00">uint32</text>
<polyline fill="none" stroke="#bfbfbf" points="83,-198.5 126,-198.5"/>
<text text-anchor="middle" x="104.5" y="-186.5" font-family="Helvetica,sans-Serif" font-size="10.00"> </text>
<polyline fill="none" stroke="#bfbfbf" points="83,-179.5 126,-179.5"/>
<text text-anchor="middle" x="104.5" y="-167.5" font-family="Helvetica,sans-Serif" font-size="10.00"> </text>
</a>
</g>
</g>
<!-- Node2&#45;&gt;Node1 -->
<g id="edge1" class="edge">
<title>Node2&#45;&gt;Node1</title>
<path fill="none" stroke="#404040" d="M104.5,-160.64C104.5,-150.21 104.5,-137.81 104.5,-125.28"/>
<polygon fill="none" stroke="#404040" points="104.5,-125.16 100.5,-119.16 104.5,-113.16 108.5,-119.16 104.5,-125.16"/>
<text text-anchor="middle" x="121.5" y="-134" font-family="Helvetica,sans-Serif" font-size="10.00"> +mask</text>
</g>
</g>
</svg>
