<?xml version="1.0" encoding="UTF-8" standalone="no"?>
<!DOCTYPE svg PUBLIC "-//W3C//DTD SVG 1.1//EN"
 "http://www.w3.org/Graphics/SVG/1.1/DTD/svg11.dtd">
<!-- Generated by graphviz version 7.1.0 (20230121.1956)
 -->
<!-- Title: liger::EnumBitMask&lt; EnumT, UnderlyingT &gt; Pages: 1 -->
<svg width="211pt" height="333pt"
 viewBox="0.00 0.00 211.00 333.00" xmlns="http://www.w3.org/2000/svg" xmlns:xlink="http://www.w3.org/1999/xlink">

<svg id="main" version="1.1" xmlns="http://www.w3.org/2000/svg" xmlns:xlink="http://www.w3.org/1999/xlink" xml:space="preserve" onload="init(evt)">
<style type="text/css"><![CDATA[
.node, .edge {opacity: 0.7;}
.node.selected, .edge.selected {opacity: 1;}
.edge:hover path { stroke: red; }
.edge:hover polygon { stroke: red; fill: red; }
]]></style>
<script type="application/ecmascript" xlink:href="svg.min.js"/>
<svg id="graph" class="graph">
<g id="graph0" class="graph" transform="scale(1 1) rotate(0) translate(4 329)">
<title>liger::EnumBitMask&lt; EnumT, UnderlyingT &gt;</title>
<!-- Node1 -->
<g id="Node000001" class="node">
<title>Node1</title>
<g id="a_Node000001"><a xlink:title="Convenience struct for storing a bit mask of the specified enum class values.">
<polygon fill="#999999" stroke="none" points="203,-325 0,-325 0,-186 203,-186 203,-325"/>
<text text-anchor="start" x="5.5" y="-312.5" font-family="Helvetica,sans-Serif" font-size="10.00">liger::EnumBitMask&lt; EnumT, UnderlyingT &gt;</text>
<text text-anchor="start" x="33.5" y="-297.5" font-family="Helvetica,sans-Serif" font-size="10.00">+</text>
<text text-anchor="start" x="73.5" y="-297.5" font-family="Helvetica,sans-Serif" font-size="10.00">mask</text>
<text text-anchor="start" x="33.5" y="-282.5" font-family="Helvetica,sans-Serif" font-size="10.00">+</text>
<text text-anchor="start" x="73.5" y="-282.5" font-family="Helvetica,sans-Serif" font-size="10.00">EnumBitMask()</text>
<text text-anchor="start" x="33.5" y="-267.5" font-family="Helvetica,sans-Serif" font-size="10.00">+</text>
<text text-anchor="start" x="73.5" y="-267.5" font-family="Helvetica,sans-Serif" font-size="10.00">EnumBitMask()</text>
<text text-anchor="start" x="33.5" y="-252.5" font-family="Helvetica,sans-Serif" font-size="10.00">+</text>
<text text-anchor="start" x="73.5" y="-252.5" font-family="Helvetica,sans-Serif" font-size="10.00">EnumBitMask()</text>
<text text-anchor="start" x="33.5" y="-237.5" font-family="Helvetica,sans-Serif" font-size="10.00">+</text>
<text text-anchor="start" x="73.5" y="-237.5" font-family="Helvetica,sans-Serif" font-size="10.00">operator|=()</text>
<text text-anchor="start" x="33.5" y="-222.5" font-family="Helvetica,sans-Serif" font-size="10.00">+</text>
<text text-anchor="start" x="73.5" y="-222.5" font-family="Helvetica,sans-Serif" font-size="10.00">operator&amp;=()</text>
<text text-anchor="start" x="33.5" y="-207.5" font-family="Helvetica,sans-Serif" font-size="10.00">+</text>
<text text-anchor="start" x="73.5" y="-207.5" font-family="Helvetica,sans-Serif" font-size="10.00">operator|=()</text>
<text text-anchor="start" x="33.5" y="-192.5" font-family="Helvetica,sans-Serif" font-size="10.00">+</text>
<text text-anchor="start" x="73.5" y="-192.5" font-family="Helvetica,sans-Serif" font-size="10.00">operator&amp;=()</text>
<polygon fill="#666666" stroke="#666666" points="0.5,-307.5 0.5,-307.5 203.5,-307.5 203.5,-307.5 0.5,-307.5"/>
<polygon fill="#666666" stroke="#666666" points="0.5,-292.5 0.5,-292.5 71.5,-292.5 71.5,-292.5 0.5,-292.5"/>
<polygon fill="#666666" stroke="#666666" points="71.5,-292.5 71.5,-292.5 203.5,-292.5 203.5,-292.5 71.5,-292.5"/>
<polygon fill="none" stroke="#666666" points="0,-186 0,-325 203,-325 203,-186 0,-186"/>
</a>
</g>
</g>
<!-- Node2 -->
<g id="Node000002" class="node">
<title>Node2</title>
<g id="a_Node000002"><a xlink:href="structliger_1_1_enum_bit_mask.html" target="_top" xlink:title=" ">
<polygon fill="white" stroke="none" points="197.5,-139 5.5,-139 5.5,0 197.5,0 197.5,-139"/>
<text text-anchor="start" x="10.5" y="-126.5" font-family="Helvetica,sans-Serif" font-size="10.00">liger::EnumBitMask&lt; KeyModifier, uint8 &gt;</text>
<text text-anchor="start" x="35.5" y="-111.5" font-family="Helvetica,sans-Serif" font-size="10.00">+</text>
<text text-anchor="start" x="72.5" y="-111.5" font-family="Helvetica,sans-Serif" font-size="10.00">mask</text>
<text text-anchor="start" x="35.5" y="-96.5" font-family="Helvetica,sans-Serif" font-size="10.00">+</text>
<text text-anchor="start" x="72.5" y="-96.5" font-family="Helvetica,sans-Serif" font-size="10.00">EnumBitMask()</text>
<text text-anchor="start" x="35.5" y="-81.5" font-family="Helvetica,sans-Serif" font-size="10.00">+</text>
<text text-anchor="start" x="72.5" y="-81.5" font-family="Helvetica,sans-Serif" font-size="10.00">EnumBitMask()</text>
<text text-anchor="start" x="35.5" y="-66.5" font-family="Helvetica,sans-Serif" font-size="10.00">+</text>
<text text-anchor="start" x="72.5" y="-66.5" font-family="Helvetica,sans-Serif" font-size="10.00">EnumBitMask()</text>
<text text-anchor="start" x="35.5" y="-51.5" font-family="Helvetica,sans-Serif" font-size="10.00">+</text>
<text text-anchor="start" x="72.5" y="-51.5" font-family="Helvetica,sans-Serif" font-size="10.00">operator|=()</text>
<text text-anchor="start" x="35.5" y="-36.5" font-family="Helvetica,sans-Serif" font-size="10.00">+</text>
<text text-anchor="start" x="72.5" y="-36.5" font-family="Helvetica,sans-Serif" font-size="10.00">operator|=()</text>
<text text-anchor="start" x="35.5" y="-21.5" font-family="Helvetica,sans-Serif" font-size="10.00">+</text>
<text text-anchor="start" x="72.5" y="-21.5" font-family="Helvetica,sans-Serif" font-size="10.00">operator&amp;=()</text>
<text text-anchor="start" x="35.5" y="-6.5" font-family="Helvetica,sans-Serif" font-size="10.00">+</text>
<text text-anchor="start" x="72.5" y="-6.5" font-family="Helvetica,sans-Serif" font-size="10.00">operator&amp;=()</text>
<polygon fill="#666666" stroke="#666666" points="5.5,-121.5 5.5,-121.5 197.5,-121.5 197.5,-121.5 5.5,-121.5"/>
<polygon fill="#666666" stroke="#666666" points="5.5,-106.5 5.5,-106.5 70.5,-106.5 70.5,-106.5 5.5,-106.5"/>
<polygon fill="#666666" stroke="#666666" points="70.5,-106.5 70.5,-106.5 197.5,-106.5 197.5,-106.5 70.5,-106.5"/>
<polygon fill="none" stroke="#666666" points="5.5,0 5.5,-139 197.5,-139 197.5,0 5.5,0"/>
</a>
</g>
</g>
<!-- Node1&#45;&gt;Node2 -->
<g id="edge1_Node000001_Node000002" class="edge">
<title>Node1&#45;&gt;Node2</title>
<g id="a_edge1_Node000001_Node000002"><a xlink:title=" ">
<path fill="none" stroke="orange" d="M101.5,-174.88C101.5,-162.91 101.5,-150.66 101.5,-138.95"/>
<polygon fill="orange" stroke="orange" points="98,-174.73 101.5,-184.73 105,-174.73 98,-174.73"/>
</a>
</g>
<text text-anchor="middle" x="151.5" y="-160" font-family="Helvetica,sans-Serif" font-size="10.00" fill="grey"> &lt; KeyModifier, uint8 &gt;</text>
</g>
</g>
</svg>
</svg>

<style type='text/css'>
<![CDATA[
[data-mouse-over-selected='false'] { opacity: 0.7; }
[data-mouse-over-selected='true']  { opacity: 1.0; }
]]>
</style>
<script type="application/ecmascript"><![CDATA[
document.addEventListener('DOMContentLoaded', (event) => {
  highlightEdges();
  highlightAdjacentNodes();
});
]]></script>
</svg>
