<?xml version="1.0" encoding="UTF-8" standalone="no"?>
<!DOCTYPE svg PUBLIC "-//W3C//DTD SVG 1.1//EN"
 "http://www.w3.org/Graphics/SVG/1.1/DTD/svg11.dtd">
<!-- Generated by graphviz version 7.1.0 (20230121.1956)
 -->
<!-- Title: liger::ConsoleLogWriter::Style Pages: 1 -->
<svg width="289pt" height="193pt"
 viewBox="0.00 0.00 288.50 193.00" xmlns="http://www.w3.org/2000/svg" xmlns:xlink="http://www.w3.org/1999/xlink">
<g id="graph0" class="graph" transform="scale(1 1) rotate(0) translate(4 189)">
<title>liger::ConsoleLogWriter::Style</title>
<polygon fill="white" stroke="none" points="-4,4 -4,-189 284.5,-189 284.5,4 -4,4"/>
<!-- Node1 -->
<g id="node1" class="node">
<title>Node1</title>
<g id="a_node1"><a xlink:title=" ">
<polygon fill="#bfbfbf" stroke="black" points="44.5,-0.5 44.5,-57.5 190.5,-57.5 190.5,-0.5 44.5,-0.5"/>
<text text-anchor="middle" x="117.5" y="-45.5" font-family="Helvetica,sans-Serif" font-size="10.00">liger::ConsoleLogWriter::Style</text>
<polyline fill="none" stroke="black" points="44.5,-38.5 190.5,-38.5"/>
<text text-anchor="middle" x="117.5" y="-26.5" font-family="Helvetica,sans-Serif" font-size="10.00"> </text>
<polyline fill="none" stroke="black" points="44.5,-19.5 190.5,-19.5"/>
<text text-anchor="middle" x="117.5" y="-7.5" font-family="Helvetica,sans-Serif" font-size="10.00"> </text>
</a>
</g>
</g>
<!-- Node2 -->
<g id="node2" class="node">
<title>Node2</title>
<g id="a_node2"><a xlink:title=" ">
<polygon fill="white" stroke="#bfbfbf" points="0,-127.5 0,-184.5 59,-184.5 59,-127.5 0,-127.5"/>
<text text-anchor="middle" x="29.5" y="-172.5" font-family="Helvetica,sans-Serif" font-size="10.00">text_style</text>
<polyline fill="none" stroke="#bfbfbf" points="0,-165.5 59,-165.5"/>
<text text-anchor="middle" x="29.5" y="-153.5" font-family="Helvetica,sans-Serif" font-size="10.00"> </text>
<polyline fill="none" stroke="#bfbfbf" points="0,-146.5 59,-146.5"/>
<text text-anchor="middle" x="29.5" y="-134.5" font-family="Helvetica,sans-Serif" font-size="10.00"> </text>
</a>
</g>
</g>
<!-- Node2&#45;&gt;Node1 -->
<g id="edge1" class="edge">
<title>Node2&#45;&gt;Node1</title>
<path fill="none" stroke="#404040" d="M31.1,-127.73C33.2,-111.48 37.92,-91.15 48.5,-76 50.93,-72.52 53.72,-69.23 56.75,-66.13"/>
<polygon fill="none" stroke="#404040" points="56.84,-66.04 58.64,-59.06 65.77,-58.02 63.98,-65.01 56.84,-66.04"/>
<text text-anchor="middle" x="81" y="-90" font-family="Helvetica,sans-Serif" font-size="10.00"> +default_style</text>
</g>
<!-- Node3 -->
<g id="node3" class="node">
<title>Node3</title>
<g id="a_node3"><a xlink:title=" ">
<polygon fill="white" stroke="#bfbfbf" points="100,-127.5 100,-184.5 135,-184.5 135,-127.5 100,-127.5"/>
<text text-anchor="middle" x="117.5" y="-172.5" font-family="Helvetica,sans-Serif" font-size="10.00">bool</text>
<polyline fill="none" stroke="#bfbfbf" points="100,-165.5 135,-165.5"/>
<text text-anchor="middle" x="117.5" y="-153.5" font-family="Helvetica,sans-Serif" font-size="10.00"> </text>
<polyline fill="none" stroke="#bfbfbf" points="100,-146.5 135,-146.5"/>
<text text-anchor="middle" x="117.5" y="-134.5" font-family="Helvetica,sans-Serif" font-size="10.00"> </text>
</a>
</g>
</g>
<!-- Node3&#45;&gt;Node1 -->
<g id="edge2" class="edge">
<title>Node3&#45;&gt;Node1</title>
<path fill="none" stroke="#404040" d="M117.5,-127.57C117.5,-110.8 117.5,-89.05 117.5,-70.34"/>
<polygon fill="none" stroke="#404040" points="117.5,-70.27 113.5,-64.27 117.5,-58.27 121.5,-64.27 117.5,-70.27"/>
<text text-anchor="middle" x="152.5" y="-95.5" font-family="Helvetica,sans-Serif" font-size="10.00"> +write_channel</text>
<text text-anchor="middle" x="152.5" y="-84.5" font-family="Helvetica,sans-Serif" font-size="10.00">+write_level</text>
</g>
<!-- Node4 -->
<g id="node4" class="node">
<title>Node4</title>
<g id="a_node4"><a xlink:title=" ">
<polygon fill="white" stroke="#bfbfbf" points="190,-127.5 190,-184.5 231,-184.5 231,-127.5 190,-127.5"/>
<text text-anchor="middle" x="210.5" y="-172.5" font-family="Helvetica,sans-Serif" font-size="10.00">map&lt;</text>
<polyline fill="none" stroke="#bfbfbf" points="190,-165.5 231,-165.5"/>
<text text-anchor="middle" x="210.5" y="-153.5" font-family="Helvetica,sans-Serif" font-size="10.00"> </text>
<polyline fill="none" stroke="#bfbfbf" points="190,-146.5 231,-146.5"/>
<text text-anchor="middle" x="210.5" y="-134.5" font-family="Helvetica,sans-Serif" font-size="10.00"> </text>
</a>
</g>
</g>
<!-- Node4&#45;&gt;Node1 -->
<g id="edge3" class="edge">
<title>Node4&#45;&gt;Node1</title>
<path fill="none" stroke="#404040" d="M207.79,-127.64C205.05,-111.36 199.54,-91.03 188.5,-76 185.85,-72.4 182.83,-69.01 179.57,-65.82"/>
<polygon fill="none" stroke="#404040" points="179.57,-65.82 172.42,-64.93 170.49,-57.98 177.65,-58.87 179.57,-65.82"/>
<text text-anchor="middle" x="241.5" y="-101" font-family="Helvetica,sans-Serif" font-size="10.00"> +channel_names</text>
<text text-anchor="middle" x="241.5" y="-90" font-family="Helvetica,sans-Serif" font-size="10.00">+level_names</text>
<text text-anchor="middle" x="241.5" y="-79" font-family="Helvetica,sans-Serif" font-size="10.00">+level_styles</text>
</g>
</g>
</svg>
