<?xml version="1.0" encoding="UTF-8" standalone="no"?>
<!DOCTYPE svg PUBLIC "-//W3C//DTD SVG 1.1//EN"
 "http://www.w3.org/Graphics/SVG/1.1/DTD/svg11.dtd">
<!-- Generated by graphviz version 9.0.0 (20230911.1827)
 -->
<!-- Title: surface.hpp Pages: 1 -->
<svg width="117pt" height="138pt"
 viewBox="0.00 0.00 117.12 137.75" xmlns="http://www.w3.org/2000/svg" xmlns:xlink="http://www.w3.org/1999/xlink">

<svg id="main" version="1.1" xmlns="http://www.w3.org/2000/svg" xmlns:xlink="http://www.w3.org/1999/xlink" xml:space="preserve" onload="init(evt)">
<style type="text/css"><![CDATA[
.node, .edge {opacity: 0.7;}
.node.selected, .edge.selected {opacity: 1;}
.edge:hover path { stroke: red; }
.edge:hover polygon { stroke: red; fill: red; }
]]></style>
<script type="application/ecmascript" xlink:href="svg.min.js"/>
<svg id="graph" class="graph">
<g id="graph0" class="graph" transform="scale(1 1) rotate(0) translate(4 133.75)">
<title>surface.hpp</title>
<!-- Node1 -->
<g id="Node000001" class="node">
<title>Node1</title>
<g id="a_Node000001"><a xlink:title=" ">
<polygon fill="#999999" stroke="#666666" points="67,-129.75 0,-129.75 0,-110.5 67,-110.5 67,-129.75"/>
<text text-anchor="middle" x="33.5" y="-116.25" font-family="Helvetica,sans-Serif" font-size="10.00">surface.hpp</text>
</a>
</g>
</g>
<!-- Node2 -->
<g id="Node000002" class="node">
<title>Node2</title>
<g id="a_Node000002"><a xlink:href="device_8hpp_source.html" target="_top" xlink:title=" ">
<polygon fill="white" stroke="#666666" points="65.12,-19.25 1.88,-19.25 1.88,0 65.12,0 65.12,-19.25"/>
<text text-anchor="middle" x="33.5" y="-5.75" font-family="Helvetica,sans-Serif" font-size="10.00">device.hpp</text>
</a>
</g>
</g>
<!-- Node1&#45;&gt;Node2 -->
<g id="edge1_Node000001_Node000002" class="edge">
<title>Node1&#45;&gt;Node2</title>
<g id="a_edge1_Node000001_Node000002"><a xlink:title=" ">
<path fill="none" stroke="#63b8ff" d="M25.34,-99.41C22.59,-91.77 19.87,-82.86 18.5,-74.5 15.26,-54.71 23.57,-31.94 29.07,-19.64"/>
<polygon fill="#63b8ff" stroke="#63b8ff" points="22.07,-100.65 28.96,-108.71 28.59,-98.12 22.07,-100.65"/>
</a>
</g>
</g>
<!-- Node3 -->
<g id="Node000003" class="node">
<title>Node3</title>
<g id="a_Node000003"><a xlink:href="swapchain_8hpp.html" target="_top" xlink:title=" ">
<polygon fill="white" stroke="#666666" points="109.12,-74.5 27.88,-74.5 27.88,-55.25 109.12,-55.25 109.12,-74.5"/>
<text text-anchor="middle" x="68.5" y="-61" font-family="Helvetica,sans-Serif" font-size="10.00">swapchain.hpp</text>
</a>
</g>
</g>
<!-- Node1&#45;&gt;Node3 -->
<g id="edge2_Node000001_Node000003" class="edge">
<title>Node1&#45;&gt;Node3</title>
<g id="a_edge2_Node000001_Node000003"><a xlink:title=" ">
<path fill="none" stroke="#63b8ff" d="M45.48,-100.9C51.25,-92.11 57.93,-81.96 62.59,-74.86"/>
<polygon fill="#63b8ff" stroke="#63b8ff" points="42.68,-98.79 40.11,-109.07 48.53,-102.63 42.68,-98.79"/>
</a>
</g>
</g>
<!-- Node3&#45;&gt;Node2 -->
<g id="edge3_Node000003_Node000002" class="edge">
<title>Node3&#45;&gt;Node2</title>
<g id="a_edge3_Node000003_Node000002"><a xlink:title=" ">
<path fill="none" stroke="#63b8ff" d="M56.52,-45.65C50.75,-36.86 44.07,-26.71 39.41,-19.61"/>
<polygon fill="#63b8ff" stroke="#63b8ff" points="53.47,-47.38 61.89,-53.82 59.32,-43.54 53.47,-47.38"/>
</a>
</g>
</g>
</g>
</svg>
</svg>

<style type='text/css'>
<![CDATA[
[data-mouse-over-selected='false'] { opacity: 0.7; }
[data-mouse-over-selected='true']  { opacity: 1.0; }
]]>
</style>
<script type="application/ecmascript"><![CDATA[
document.addEventListener('DOMContentLoaded', (event) => {
  highlightEdges();
  highlightAdjacentNodes();
});
]]></script>
</svg>
