<?xml version="1.0" encoding="UTF-8" standalone="no"?>
<!DOCTYPE svg PUBLIC "-//W3C//DTD SVG 1.1//EN"
 "http://www.w3.org/Graphics/SVG/1.1/DTD/svg11.dtd">
<!-- Generated by graphviz version 9.0.0 (20230911.1827)
 -->
<!-- Title: swapchain.hpp Pages: 1 -->
<svg width="516pt" height="193pt"
 viewBox="0.00 0.00 516.38 193.00" xmlns="http://www.w3.org/2000/svg" xmlns:xlink="http://www.w3.org/1999/xlink">
<g id="graph0" class="graph" transform="scale(1 1) rotate(0) translate(4 189)">
<title>swapchain.hpp</title>
<!-- Node1 -->
<g id="Node000001" class="node">
<title>Node1</title>
<g id="a_Node000001"><a xlink:title=" ">
<polygon fill="#999999" stroke="#666666" points="289.38,-185 208.12,-185 208.12,-165.75 289.38,-165.75 289.38,-185"/>
<text text-anchor="middle" x="248.75" y="-171.5" font-family="Helvetica,sans-Serif" font-size="10.00">swapchain.hpp</text>
</a>
</g>
</g>
<!-- Node2 -->
<g id="Node000002" class="node">
<title>Node2</title>
<g id="a_Node000002"><a xlink:href="command__queue_8hpp.html" target="_top" xlink:title=" ">
<polygon fill="white" stroke="#666666" points="173.5,-129.75 0,-129.75 0,-110.5 173.5,-110.5 173.5,-129.75"/>
<text text-anchor="middle" x="86.75" y="-116.25" font-family="Helvetica,sans-Serif" font-size="10.00">liger/render/rhi/command_queue.hpp</text>
</a>
</g>
</g>
<!-- Node1&#45;&gt;Node2 -->
<g id="edge1_Node000001_Node000002" class="edge">
<title>Node1&#45;&gt;Node2</title>
<g id="a_edge1_Node000001_Node000002"><a xlink:title=" ">
<path fill="none" stroke="#63b8ff" d="M221.27,-165.34C194.85,-156.66 154.69,-143.46 125.13,-133.74"/>
<polygon fill="#63b8ff" stroke="#63b8ff" points="126.4,-130.47 115.8,-130.68 124.21,-137.12 126.4,-130.47"/>
</a>
</g>
</g>
<!-- Node3 -->
<g id="Node000003" class="node">
<title>Node3</title>
<g id="a_Node000003"><a xlink:href="device__resource_8hpp.html" target="_top" xlink:title=" ">
<polygon fill="white" stroke="#666666" points="362,-74.5 191.5,-74.5 191.5,-55.25 362,-55.25 362,-74.5"/>
<text text-anchor="middle" x="276.75" y="-61" font-family="Helvetica,sans-Serif" font-size="10.00">liger/render/rhi/device_resource.hpp</text>
</a>
</g>
</g>
<!-- Node1&#45;&gt;Node3 -->
<g id="edge4_Node000001_Node000003" class="edge">
<title>Node1&#45;&gt;Node3</title>
<g id="a_edge4_Node000001_Node000003"><a xlink:title=" ">
<path fill="none" stroke="#63b8ff" d="M239.93,-165.61C228.59,-153.21 211.4,-129.92 220.75,-110.5 226.66,-98.24 237.75,-88.3 248.52,-80.95"/>
<polygon fill="#63b8ff" stroke="#63b8ff" points="250.25,-83.99 256.88,-75.72 246.54,-78.06 250.25,-83.99"/>
</a>
</g>
</g>
<!-- Node5 -->
<g id="Node000005" class="node">
<title>Node5</title>
<g id="a_Node000005"><a xlink:href="surface_8hpp.html" target="_top" xlink:title=" ">
<polygon fill="white" stroke="#666666" points="361.5,-129.75 230,-129.75 230,-110.5 361.5,-110.5 361.5,-129.75"/>
<text text-anchor="middle" x="295.75" y="-116.25" font-family="Helvetica,sans-Serif" font-size="10.00">liger/render/rhi/surface.hpp</text>
</a>
</g>
</g>
<!-- Node1&#45;&gt;Node5 -->
<g id="edge5_Node000001_Node000005" class="edge">
<title>Node1&#45;&gt;Node5</title>
<g id="a_edge5_Node000001_Node000005"><a xlink:title=" ">
<path fill="none" stroke="#63b8ff" d="M256.51,-165.58C262.94,-158.3 272.26,-147.73 280.21,-138.73"/>
<polygon fill="#63b8ff" stroke="#63b8ff" points="282.83,-141.06 286.82,-131.24 277.58,-136.43 282.83,-141.06"/>
</a>
</g>
</g>
<!-- Node6 -->
<g id="Node000006" class="node">
<title>Node6</title>
<g id="a_Node000006"><a xlink:href="texture_8hpp.html" target="_top" xlink:title=" ">
<polygon fill="white" stroke="#666666" points="508.38,-129.75 379.12,-129.75 379.12,-110.5 508.38,-110.5 508.38,-129.75"/>
<text text-anchor="middle" x="443.75" y="-116.25" font-family="Helvetica,sans-Serif" font-size="10.00">liger/render/rhi/texture.hpp</text>
</a>
</g>
</g>
<!-- Node1&#45;&gt;Node6 -->
<g id="edge7_Node000001_Node000006" class="edge">
<title>Node1&#45;&gt;Node6</title>
<g id="a_edge7_Node000001_Node000006"><a xlink:title=" ">
<path fill="none" stroke="#63b8ff" d="M281.83,-165.34C314.19,-156.51 363.67,-142.99 399.42,-133.23"/>
<polygon fill="#63b8ff" stroke="#63b8ff" points="400.32,-136.61 409.05,-130.6 398.48,-129.86 400.32,-136.61"/>
</a>
</g>
</g>
<!-- Node2&#45;&gt;Node3 -->
<g id="edge2_Node000002_Node000003" class="edge">
<title>Node2&#45;&gt;Node3</title>
<g id="a_edge2_Node000002_Node000003"><a xlink:title=" ">
<path fill="none" stroke="#63b8ff" d="M118.98,-110.09C150.51,-101.26 198.73,-87.74 233.56,-77.98"/>
<polygon fill="#63b8ff" stroke="#63b8ff" points="234.22,-81.43 242.9,-75.36 232.33,-74.69 234.22,-81.43"/>
</a>
</g>
</g>
<!-- Node4 -->
<g id="Node000004" class="node">
<title>Node4</title>
<g id="a_Node000004"><a xlink:title=" ">
<polygon fill="#e0e0e0" stroke="#999999" points="407.88,-19.25 311.62,-19.25 311.62,0 407.88,0 407.88,-19.25"/>
<text text-anchor="middle" x="359.75" y="-5.75" font-family="Helvetica,sans-Serif" font-size="10.00">liger/core/core.hpp</text>
</a>
</g>
</g>
<!-- Node3&#45;&gt;Node4 -->
<g id="edge3_Node000003_Node000004" class="edge">
<title>Node3&#45;&gt;Node4</title>
<g id="a_edge3_Node000003_Node000004"><a xlink:title=" ">
<path fill="none" stroke="#63b8ff" d="M290.83,-54.84C303.23,-46.89 321.54,-35.14 336.18,-25.75"/>
<polygon fill="#63b8ff" stroke="#63b8ff" points="337.8,-28.87 344.33,-20.52 334.02,-22.97 337.8,-28.87"/>
</a>
</g>
</g>
<!-- Node5&#45;&gt;Node3 -->
<g id="edge6_Node000005_Node000003" class="edge">
<title>Node5&#45;&gt;Node3</title>
<g id="a_edge6_Node000005_Node000003"><a xlink:title=" ">
<path fill="none" stroke="#63b8ff" d="M292.61,-110.33C290.21,-103.59 286.79,-94.02 283.75,-85.49"/>
<polygon fill="#63b8ff" stroke="#63b8ff" points="287.12,-84.53 280.46,-76.28 280.53,-86.88 287.12,-84.53"/>
</a>
</g>
</g>
<!-- Node6&#45;&gt;Node3 -->
<g id="edge8_Node000006_Node000003" class="edge">
<title>Node6&#45;&gt;Node3</title>
<g id="a_edge8_Node000006_Node000003"><a xlink:title=" ">
<path fill="none" stroke="#63b8ff" d="M415.42,-110.09C388.07,-101.37 346.43,-88.09 315.91,-78.36"/>
<polygon fill="#63b8ff" stroke="#63b8ff" points="317.25,-75.12 306.66,-75.41 315.12,-81.78 317.25,-75.12"/>
</a>
</g>
</g>
<!-- Node7 -->
<g id="Node000007" class="node">
<title>Node7</title>
<g id="a_Node000007"><a xlink:href="format_8hpp.html" target="_top" xlink:title=" ">
<polygon fill="white" stroke="#666666" points="507.25,-74.5 380.25,-74.5 380.25,-55.25 507.25,-55.25 507.25,-74.5"/>
<text text-anchor="middle" x="443.75" y="-61" font-family="Helvetica,sans-Serif" font-size="10.00">liger/render/rhi/format.hpp</text>
</a>
</g>
</g>
<!-- Node6&#45;&gt;Node7 -->
<g id="edge9_Node000006_Node000007" class="edge">
<title>Node6&#45;&gt;Node7</title>
<g id="a_edge9_Node000006_Node000007"><a xlink:title=" ">
<path fill="none" stroke="#63b8ff" d="M443.75,-110.33C443.75,-103.82 443.75,-94.67 443.75,-86.37"/>
<polygon fill="#63b8ff" stroke="#63b8ff" points="447.25,-86.37 443.75,-76.37 440.25,-86.37 447.25,-86.37"/>
</a>
</g>
</g>
<!-- Node7&#45;&gt;Node4 -->
<g id="edge10_Node000007_Node000004" class="edge">
<title>Node7&#45;&gt;Node4</title>
<g id="a_edge10_Node000007_Node000004"><a xlink:title=" ">
<path fill="none" stroke="#63b8ff" d="M429.5,-54.84C416.95,-46.89 398.42,-35.14 383.61,-25.75"/>
<polygon fill="#63b8ff" stroke="#63b8ff" points="385.67,-22.91 375.35,-20.51 381.92,-28.82 385.67,-22.91"/>
</a>
</g>
</g>
</g>
</svg>
