<?xml version="1.0" encoding="UTF-8" standalone="no"?>
<!DOCTYPE svg PUBLIC "-//W3C//DTD SVG 1.1//EN"
 "http://www.w3.org/Graphics/SVG/1.1/DTD/svg11.dtd">
<!-- Generated by graphviz version 9.0.0 (20230911.1827)
 -->
<!-- Title: swapchain.hpp Pages: 1 -->
<svg width="607pt" height="248pt"
 viewBox="0.00 0.00 607.38 248.25" xmlns="http://www.w3.org/2000/svg" xmlns:xlink="http://www.w3.org/1999/xlink">
<g id="graph0" class="graph" transform="scale(1 1) rotate(0) translate(4 244.25)">
<title>swapchain.hpp</title>
<!-- Node1 -->
<g id="Node000001" class="node">
<title>Node1</title>
<g id="a_Node000001"><a xlink:title=" ">
<polygon fill="#999999" stroke="#666666" points="369.38,-240.25 288.12,-240.25 288.12,-221 369.38,-221 369.38,-240.25"/>
<text text-anchor="middle" x="328.75" y="-226.75" font-family="Helvetica,sans-Serif" font-size="10.00">swapchain.hpp</text>
</a>
</g>
</g>
<!-- Node2 -->
<g id="Node000002" class="node">
<title>Node2</title>
<g id="a_Node000002"><a xlink:href="window_8hpp.html" target="_top" xlink:title=" ">
<polygon fill="white" stroke="#666666" points="186.38,-185 39.12,-185 39.12,-165.75 186.38,-165.75 186.38,-185"/>
<text text-anchor="middle" x="112.75" y="-171.5" font-family="Helvetica,sans-Serif" font-size="10.00">liger/core/platform/window.hpp</text>
</a>
</g>
</g>
<!-- Node1&#45;&gt;Node2 -->
<g id="edge1_Node000001_Node000002" class="edge">
<title>Node1&#45;&gt;Node2</title>
<g id="a_edge1_Node000001_Node000002"><a xlink:title=" ">
<path fill="none" stroke="#63b8ff" d="M292.11,-220.59C255.88,-211.66 200.26,-197.95 160.57,-188.16"/>
<polygon fill="#63b8ff" stroke="#63b8ff" points="161.59,-184.81 151.04,-185.81 159.91,-191.61 161.59,-184.81"/>
</a>
</g>
</g>
<!-- Node4 -->
<g id="Node000004" class="node">
<title>Node4</title>
<g id="a_Node000004"><a xlink:href="texture_8hpp.html" target="_top" xlink:title=" ">
<polygon fill="white" stroke="#666666" points="393.38,-185 264.12,-185 264.12,-165.75 393.38,-165.75 393.38,-185"/>
<text text-anchor="middle" x="328.75" y="-171.5" font-family="Helvetica,sans-Serif" font-size="10.00">liger/render/rhi/texture.hpp</text>
</a>
</g>
</g>
<!-- Node1&#45;&gt;Node4 -->
<g id="edge3_Node000001_Node000004" class="edge">
<title>Node1&#45;&gt;Node4</title>
<g id="a_edge3_Node000001_Node000004"><a xlink:title=" ">
<path fill="none" stroke="#63b8ff" d="M328.75,-220.83C328.75,-214.32 328.75,-205.17 328.75,-196.87"/>
<polygon fill="#63b8ff" stroke="#63b8ff" points="332.25,-196.87 328.75,-186.87 325.25,-196.87 332.25,-196.87"/>
</a>
</g>
</g>
<!-- Node14 -->
<g id="Node000014" class="node">
<title>Node14</title>
<g id="a_Node000014"><a xlink:title=" ">
<polygon fill="#e0e0e0" stroke="#999999" points="448.25,-185 411.25,-185 411.25,-165.75 448.25,-165.75 448.25,-185"/>
<text text-anchor="middle" x="429.75" y="-171.5" font-family="Helvetica,sans-Serif" font-size="10.00">span</text>
</a>
</g>
</g>
<!-- Node1&#45;&gt;Node14 -->
<g id="edge15_Node000001_Node000014" class="edge">
<title>Node1&#45;&gt;Node14</title>
<g id="a_edge15_Node000001_Node000014"><a xlink:title=" ">
<path fill="none" stroke="#63b8ff" d="M345.88,-220.59C361.41,-212.41 384.55,-200.21 402.59,-190.69"/>
<polygon fill="#63b8ff" stroke="#63b8ff" points="403.98,-193.92 411.19,-186.16 400.72,-187.73 403.98,-193.92"/>
</a>
</g>
</g>
<!-- Node3 -->
<g id="Node000003" class="node">
<title>Node3</title>
<g id="a_Node000003"><a xlink:title=" ">
<polygon fill="#e0e0e0" stroke="#999999" points="65.5,-129.75 0,-129.75 0,-110.5 65.5,-110.5 65.5,-129.75"/>
<text text-anchor="middle" x="32.75" y="-116.25" font-family="Helvetica,sans-Serif" font-size="10.00">string_view</text>
</a>
</g>
</g>
<!-- Node2&#45;&gt;Node3 -->
<g id="edge2_Node000002_Node000003" class="edge">
<title>Node2&#45;&gt;Node3</title>
<g id="a_edge2_Node000002_Node000003"><a xlink:title=" ">
<path fill="none" stroke="#63b8ff" d="M99.18,-165.34C87.34,-157.46 69.91,-145.86 55.88,-136.52"/>
<polygon fill="#63b8ff" stroke="#63b8ff" points="57.91,-133.67 47.65,-131.04 54.03,-139.5 57.91,-133.67"/>
</a>
</g>
</g>
<!-- Node5 -->
<g id="Node000005" class="node">
<title>Node5</title>
<g id="a_Node000005"><a xlink:href="device__resource__state_8hpp.html" target="_top" xlink:title=" ">
<polygon fill="white" stroke="#666666" points="281.5,-129.75 84,-129.75 84,-110.5 281.5,-110.5 281.5,-129.75"/>
<text text-anchor="middle" x="182.75" y="-116.25" font-family="Helvetica,sans-Serif" font-size="10.00">liger/render/rhi/device_resource_state.hpp</text>
</a>
</g>
</g>
<!-- Node4&#45;&gt;Node5 -->
<g id="edge4_Node000004_Node000005" class="edge">
<title>Node4&#45;&gt;Node5</title>
<g id="a_edge4_Node000004_Node000005"><a xlink:title=" ">
<path fill="none" stroke="#63b8ff" d="M303.98,-165.34C280.49,-156.77 244.94,-143.81 218.4,-134.13"/>
<polygon fill="#63b8ff" stroke="#63b8ff" points="219.65,-130.86 209.06,-130.72 217.26,-137.44 219.65,-130.86"/>
</a>
</g>
</g>
<!-- Node8 -->
<g id="Node000008" class="node">
<title>Node8</title>
<g id="a_Node000008"><a xlink:href="extent_8hpp.html" target="_top" xlink:title=" ">
<polygon fill="white" stroke="#666666" points="318.88,-74.5 192.62,-74.5 192.62,-55.25 318.88,-55.25 318.88,-74.5"/>
<text text-anchor="middle" x="255.75" y="-61" font-family="Helvetica,sans-Serif" font-size="10.00">liger/render/rhi/extent.hpp</text>
</a>
</g>
</g>
<!-- Node4&#45;&gt;Node8 -->
<g id="edge7_Node000004_Node000008" class="edge">
<title>Node4&#45;&gt;Node8</title>
<g id="a_edge7_Node000004_Node000008"><a xlink:title=" ">
<path fill="none" stroke="#63b8ff" d="M323.93,-165.48C317.03,-152.93 303.74,-129.44 290.75,-110.5 284.5,-101.38 276.99,-91.67 270.54,-83.64"/>
<polygon fill="#63b8ff" stroke="#63b8ff" points="273.34,-81.54 264.3,-76.02 267.92,-85.97 273.34,-81.54"/>
</a>
</g>
</g>
<!-- Node10 -->
<g id="Node000010" class="node">
<title>Node10</title>
<g id="a_Node000010"><a xlink:href="format_8hpp.html" target="_top" xlink:title=" ">
<polygon fill="white" stroke="#666666" points="464.25,-74.5 337.25,-74.5 337.25,-55.25 464.25,-55.25 464.25,-74.5"/>
<text text-anchor="middle" x="400.75" y="-61" font-family="Helvetica,sans-Serif" font-size="10.00">liger/render/rhi/format.hpp</text>
</a>
</g>
</g>
<!-- Node4&#45;&gt;Node10 -->
<g id="edge9_Node000004_Node000010" class="edge">
<title>Node4&#45;&gt;Node10</title>
<g id="a_edge9_Node000004_Node000010"><a xlink:title=" ">
<path fill="none" stroke="#63b8ff" d="M333.6,-165.5C340.55,-152.98 353.9,-129.54 366.75,-110.5 372.87,-101.43 380.17,-91.73 386.43,-83.7"/>
<polygon fill="#63b8ff" stroke="#63b8ff" points="389.01,-86.08 392.46,-76.07 383.51,-81.74 389.01,-86.08"/>
</a>
</g>
</g>
<!-- Node11 -->
<g id="Node000011" class="node">
<title>Node11</title>
<g id="a_Node000011"><a xlink:href="sampler__info_8hpp.html" target="_top" xlink:title=" ">
<polygon fill="white" stroke="#666666" points="530.12,-129.75 375.38,-129.75 375.38,-110.5 530.12,-110.5 530.12,-129.75"/>
<text text-anchor="middle" x="452.75" y="-116.25" font-family="Helvetica,sans-Serif" font-size="10.00">liger/render/rhi/sampler_info.hpp</text>
</a>
</g>
</g>
<!-- Node4&#45;&gt;Node11 -->
<g id="edge11_Node000004_Node000011" class="edge">
<title>Node4&#45;&gt;Node11</title>
<g id="a_edge11_Node000004_Node000011"><a xlink:title=" ">
<path fill="none" stroke="#63b8ff" d="M349.78,-165.34C369.38,-156.93 398.86,-144.27 421.26,-134.65"/>
<polygon fill="#63b8ff" stroke="#63b8ff" points="422.41,-137.96 430.22,-130.8 419.65,-131.53 422.41,-137.96"/>
</a>
</g>
</g>
<!-- Node13 -->
<g id="Node000013" class="node">
<title>Node13</title>
<g id="a_Node000013"><a xlink:title=" ">
<polygon fill="#e0e0e0" stroke="#999999" points="587.75,-129.75 547.75,-129.75 547.75,-110.5 587.75,-110.5 587.75,-129.75"/>
<text text-anchor="middle" x="567.75" y="-116.25" font-family="Helvetica,sans-Serif" font-size="10.00">string</text>
</a>
</g>
</g>
<!-- Node4&#45;&gt;Node13 -->
<g id="edge14_Node000004_Node000013" class="edge">
<title>Node4&#45;&gt;Node13</title>
<g id="a_edge14_Node000004_Node000013"><a xlink:title=" ">
<path fill="none" stroke="#63b8ff" d="M376.96,-165.27C417.27,-157.4 476.49,-145.24 536.68,-130.12"/>
<polygon fill="#63b8ff" stroke="#63b8ff" points="537.23,-133.59 546.06,-127.74 535.5,-126.81 537.23,-133.59"/>
</a>
</g>
</g>
<!-- Node6 -->
<g id="Node000006" class="node">
<title>Node6</title>
<g id="a_Node000006"><a xlink:href="enum__bitmask_8hpp.html" target="_top" xlink:title=" ">
<polygon fill="white" stroke="#666666" points="174.38,-74.5 33.12,-74.5 33.12,-55.25 174.38,-55.25 174.38,-74.5"/>
<text text-anchor="middle" x="103.75" y="-61" font-family="Helvetica,sans-Serif" font-size="10.00">liger/core/enum_bitmask.hpp</text>
</a>
</g>
</g>
<!-- Node5&#45;&gt;Node6 -->
<g id="edge5_Node000005_Node000006" class="edge">
<title>Node5&#45;&gt;Node6</title>
<g id="a_edge5_Node000005_Node000006"><a xlink:title=" ">
<path fill="none" stroke="#63b8ff" d="M169.35,-110.09C157.66,-102.21 140.45,-90.61 126.59,-81.27"/>
<polygon fill="#63b8ff" stroke="#63b8ff" points="128.72,-78.49 118.47,-75.8 124.81,-84.29 128.72,-78.49"/>
</a>
</g>
</g>
<!-- Node7 -->
<g id="Node000007" class="node">
<title>Node7</title>
<g id="a_Node000007"><a xlink:title=" ">
<polygon fill="#e0e0e0" stroke="#999999" points="134.62,-19.25 72.88,-19.25 72.88,0 134.62,0 134.62,-19.25"/>
<text text-anchor="middle" x="103.75" y="-5.75" font-family="Helvetica,sans-Serif" font-size="10.00">type_traits</text>
</a>
</g>
</g>
<!-- Node6&#45;&gt;Node7 -->
<g id="edge6_Node000006_Node000007" class="edge">
<title>Node6&#45;&gt;Node7</title>
<g id="a_edge6_Node000006_Node000007"><a xlink:title=" ">
<path fill="none" stroke="#63b8ff" d="M103.75,-55.08C103.75,-48.57 103.75,-39.42 103.75,-31.12"/>
<polygon fill="#63b8ff" stroke="#63b8ff" points="107.25,-31.12 103.75,-21.12 100.25,-31.12 107.25,-31.12"/>
</a>
</g>
</g>
<!-- Node9 -->
<g id="Node000009" class="node">
<title>Node9</title>
<g id="a_Node000009"><a xlink:title=" ">
<polygon fill="#e0e0e0" stroke="#999999" points="423.38,-19.25 378.12,-19.25 378.12,0 423.38,0 423.38,-19.25"/>
<text text-anchor="middle" x="400.75" y="-5.75" font-family="Helvetica,sans-Serif" font-size="10.00">cstdint</text>
</a>
</g>
</g>
<!-- Node8&#45;&gt;Node9 -->
<g id="edge8_Node000008_Node000009" class="edge">
<title>Node8&#45;&gt;Node9</title>
<g id="a_edge8_Node000008_Node000009"><a xlink:title=" ">
<path fill="none" stroke="#63b8ff" d="M280.35,-54.84C304.24,-46.07 340.71,-32.68 367.25,-22.93"/>
<polygon fill="#63b8ff" stroke="#63b8ff" points="368.35,-26.25 376.53,-19.52 365.93,-19.68 368.35,-26.25"/>
</a>
</g>
</g>
<!-- Node10&#45;&gt;Node9 -->
<g id="edge10_Node000010_Node000009" class="edge">
<title>Node10&#45;&gt;Node9</title>
<g id="a_edge10_Node000010_Node000009"><a xlink:title=" ">
<path fill="none" stroke="#63b8ff" d="M400.75,-55.08C400.75,-48.57 400.75,-39.42 400.75,-31.12"/>
<polygon fill="#63b8ff" stroke="#63b8ff" points="404.25,-31.12 400.75,-21.12 397.25,-31.12 404.25,-31.12"/>
</a>
</g>
</g>
<!-- Node12 -->
<g id="Node000012" class="node">
<title>Node12</title>
<g id="a_Node000012"><a xlink:href="filter_8hpp.html" target="_top" xlink:title=" ">
<polygon fill="white" stroke="#666666" points="599.38,-74.5 482.12,-74.5 482.12,-55.25 599.38,-55.25 599.38,-74.5"/>
<text text-anchor="middle" x="540.75" y="-61" font-family="Helvetica,sans-Serif" font-size="10.00">liger/render/rhi/filter.hpp</text>
</a>
</g>
</g>
<!-- Node11&#45;&gt;Node12 -->
<g id="edge12_Node000011_Node000012" class="edge">
<title>Node11&#45;&gt;Node12</title>
<g id="a_edge12_Node000011_Node000012"><a xlink:title=" ">
<path fill="none" stroke="#63b8ff" d="M467.68,-110.09C480.95,-102.06 500.62,-90.16 516.2,-80.73"/>
<polygon fill="#63b8ff" stroke="#63b8ff" points="517.71,-83.91 524.45,-75.74 514.09,-77.92 517.71,-83.91"/>
</a>
</g>
</g>
<!-- Node12&#45;&gt;Node9 -->
<g id="edge13_Node000012_Node000009" class="edge">
<title>Node12&#45;&gt;Node9</title>
<g id="a_edge13_Node000012_Node000009"><a xlink:title=" ">
<path fill="none" stroke="#63b8ff" d="M517,-54.84C494.3,-46.21 459.86,-33.11 434.35,-23.41"/>
<polygon fill="#63b8ff" stroke="#63b8ff" points="435.69,-20.17 425.1,-19.89 433.2,-26.71 435.69,-20.17"/>
</a>
</g>
</g>
</g>
</svg>
