<?xml version="1.0" encoding="UTF-8" standalone="no"?>
<!DOCTYPE svg PUBLIC "-//W3C//DTD SVG 1.1//EN"
 "http://www.w3.org/Graphics/SVG/1.1/DTD/svg11.dtd">
<!-- Generated by graphviz version 9.0.0 (20230911.1827)
 -->
<!-- Title: synchronization.hpp Pages: 1 -->
<svg width="552pt" height="248pt"
 viewBox="0.00 0.00 551.75 248.25" xmlns="http://www.w3.org/2000/svg" xmlns:xlink="http://www.w3.org/1999/xlink">
<g id="graph0" class="graph" transform="scale(1 1) rotate(0) translate(4 244.25)">
<title>synchronization.hpp</title>
<!-- Node1 -->
<g id="Node000001" class="node">
<title>Node1</title>
<g id="a_Node000001"><a xlink:title=" ">
<polygon fill="#999999" stroke="#666666" points="253.12,-240.25 150.12,-240.25 150.12,-221 253.12,-221 253.12,-240.25"/>
<text text-anchor="middle" x="201.62" y="-226.75" font-family="Helvetica,sans-Serif" font-size="10.00">synchronization.hpp</text>
</a>
</g>
</g>
<!-- Node2 -->
<g id="Node000002" class="node">
<title>Node2</title>
<g id="a_Node000002"><a xlink:href="buffer_8hpp.html" target="_top" xlink:title=" ">
<polygon fill="white" stroke="#666666" points="123.25,-129.75 0,-129.75 0,-110.5 123.25,-110.5 123.25,-129.75"/>
<text text-anchor="middle" x="61.62" y="-116.25" font-family="Helvetica,sans-Serif" font-size="10.00">liger/render/rhi/buffer.hpp</text>
</a>
</g>
</g>
<!-- Node1&#45;&gt;Node2 -->
<g id="edge1_Node000001_Node000002" class="edge">
<title>Node1&#45;&gt;Node2</title>
<g id="a_edge1_Node000001_Node000002"><a xlink:title=" ">
<path fill="none" stroke="#63b8ff" d="M150.03,-223.88C102.6,-217.41 37.35,-205.1 21.62,-185 9.63,-169.67 25.09,-150.58 40.15,-137.28"/>
<polygon fill="#63b8ff" stroke="#63b8ff" points="42.09,-140.21 47.58,-131.15 37.64,-134.81 42.09,-140.21"/>
</a>
</g>
</g>
<!-- Node5 -->
<g id="Node000005" class="node">
<title>Node5</title>
<g id="a_Node000005"><a xlink:href="command__queue_8hpp.html" target="_top" xlink:title=" ">
<polygon fill="white" stroke="#666666" points="204.38,-185 30.88,-185 30.88,-165.75 204.38,-165.75 204.38,-185"/>
<text text-anchor="middle" x="117.62" y="-171.5" font-family="Helvetica,sans-Serif" font-size="10.00">liger/render/rhi/command_queue.hpp</text>
</a>
</g>
</g>
<!-- Node1&#45;&gt;Node5 -->
<g id="edge5_Node000001_Node000005" class="edge">
<title>Node1&#45;&gt;Node5</title>
<g id="a_edge5_Node000001_Node000005"><a xlink:title=" ">
<path fill="none" stroke="#63b8ff" d="M187.38,-220.59C174.83,-212.64 156.29,-200.89 141.48,-191.5"/>
<polygon fill="#63b8ff" stroke="#63b8ff" points="143.54,-188.66 133.22,-186.26 139.79,-194.57 143.54,-188.66"/>
</a>
</g>
</g>
<!-- Node6 -->
<g id="Node000006" class="node">
<title>Node6</title>
<g id="a_Node000006"><a xlink:href="graphics__pipeline_8hpp.html" target="_top" xlink:title=" ">
<polygon fill="white" stroke="#666666" points="543.75,-185 369.5,-185 369.5,-165.75 543.75,-165.75 543.75,-185"/>
<text text-anchor="middle" x="456.62" y="-171.5" font-family="Helvetica,sans-Serif" font-size="10.00">liger/render/rhi/graphics_pipeline.hpp</text>
</a>
</g>
</g>
<!-- Node1&#45;&gt;Node6 -->
<g id="edge7_Node000001_Node000006" class="edge">
<title>Node1&#45;&gt;Node6</title>
<g id="a_edge7_Node000001_Node000006"><a xlink:title=" ">
<path fill="none" stroke="#63b8ff" d="M245.17,-220.53C288.54,-211.48 355.23,-197.55 402.09,-187.76"/>
<polygon fill="#63b8ff" stroke="#63b8ff" points="402.7,-191.21 411.78,-185.74 401.27,-184.36 402.7,-191.21"/>
</a>
</g>
</g>
<!-- Node9 -->
<g id="Node000009" class="node">
<title>Node9</title>
<g id="a_Node000009"><a xlink:href="texture_8hpp.html" target="_top" xlink:title=" ">
<polygon fill="white" stroke="#666666" points="351.25,-185 222,-185 222,-165.75 351.25,-165.75 351.25,-185"/>
<text text-anchor="middle" x="286.62" y="-171.5" font-family="Helvetica,sans-Serif" font-size="10.00">liger/render/rhi/texture.hpp</text>
</a>
</g>
</g>
<!-- Node1&#45;&gt;Node9 -->
<g id="edge12_Node000001_Node000009" class="edge">
<title>Node1&#45;&gt;Node9</title>
<g id="a_edge12_Node000001_Node000009"><a xlink:title=" ">
<path fill="none" stroke="#63b8ff" d="M216.04,-220.59C228.74,-212.64 247.5,-200.89 262.48,-191.5"/>
<polygon fill="#63b8ff" stroke="#63b8ff" points="264.24,-194.53 270.85,-186.26 260.52,-188.6 264.24,-194.53"/>
</a>
</g>
</g>
<!-- Node3 -->
<g id="Node000003" class="node">
<title>Node3</title>
<g id="a_Node000003"><a xlink:title=" ">
<polygon fill="#e0e0e0" stroke="#999999" points="222.75,-19.25 126.5,-19.25 126.5,0 222.75,0 222.75,-19.25"/>
<text text-anchor="middle" x="174.62" y="-5.75" font-family="Helvetica,sans-Serif" font-size="10.00">liger/core/core.hpp</text>
</a>
</g>
</g>
<!-- Node2&#45;&gt;Node3 -->
<g id="edge2_Node000002_Node000003" class="edge">
<title>Node2&#45;&gt;Node3</title>
<g id="a_edge2_Node000002_Node000003"><a xlink:title=" ">
<path fill="none" stroke="#63b8ff" d="M62.04,-110.21C63.1,-96.78 66.93,-71.24 80.62,-55.25 93.18,-40.59 111.63,-30.4 128.86,-23.49"/>
<polygon fill="#63b8ff" stroke="#63b8ff" points="129.78,-26.88 137.95,-20.13 127.36,-20.32 129.78,-26.88"/>
</a>
</g>
</g>
<!-- Node4 -->
<g id="Node000004" class="node">
<title>Node4</title>
<g id="a_Node000004"><a xlink:href="device__resource_8hpp.html" target="_top" xlink:title=" ">
<polygon fill="white" stroke="#666666" points="259.88,-74.5 89.38,-74.5 89.38,-55.25 259.88,-55.25 259.88,-74.5"/>
<text text-anchor="middle" x="174.62" y="-61" font-family="Helvetica,sans-Serif" font-size="10.00">liger/render/rhi/device_resource.hpp</text>
</a>
</g>
</g>
<!-- Node2&#45;&gt;Node4 -->
<g id="edge3_Node000002_Node000004" class="edge">
<title>Node2&#45;&gt;Node4</title>
<g id="a_edge3_Node000002_Node000004"><a xlink:title=" ">
<path fill="none" stroke="#63b8ff" d="M80.79,-110.09C98.41,-101.79 124.78,-89.36 145.09,-79.79"/>
<polygon fill="#63b8ff" stroke="#63b8ff" points="146.44,-83.03 153.99,-75.6 143.45,-76.69 146.44,-83.03"/>
</a>
</g>
</g>
<!-- Node4&#45;&gt;Node3 -->
<g id="edge4_Node000004_Node000003" class="edge">
<title>Node4&#45;&gt;Node3</title>
<g id="a_edge4_Node000004_Node000003"><a xlink:title=" ">
<path fill="none" stroke="#63b8ff" d="M174.62,-55.08C174.62,-48.57 174.62,-39.42 174.62,-31.12"/>
<polygon fill="#63b8ff" stroke="#63b8ff" points="178.13,-31.12 174.63,-21.12 171.13,-31.12 178.13,-31.12"/>
</a>
</g>
</g>
<!-- Node5&#45;&gt;Node4 -->
<g id="edge6_Node000005_Node000004" class="edge">
<title>Node5&#45;&gt;Node4</title>
<g id="a_edge6_Node000005_Node000004"><a xlink:title=" ">
<path fill="none" stroke="#63b8ff" d="M122.29,-165.5C131.52,-147.93 152.28,-108.41 164.7,-84.77"/>
<polygon fill="#63b8ff" stroke="#63b8ff" points="167.64,-86.7 169.19,-76.22 161.44,-83.44 167.64,-86.7"/>
</a>
</g>
</g>
<!-- Node7 -->
<g id="Node000007" class="node">
<title>Node7</title>
<g id="a_Node000007"><a xlink:href="format_8hpp.html" target="_top" xlink:title=" ">
<polygon fill="white" stroke="#666666" points="351.12,-129.75 224.12,-129.75 224.12,-110.5 351.12,-110.5 351.12,-129.75"/>
<text text-anchor="middle" x="287.62" y="-116.25" font-family="Helvetica,sans-Serif" font-size="10.00">liger/render/rhi/format.hpp</text>
</a>
</g>
</g>
<!-- Node6&#45;&gt;Node7 -->
<g id="edge8_Node000006_Node000007" class="edge">
<title>Node6&#45;&gt;Node7</title>
<g id="a_edge8_Node000006_Node000007"><a xlink:title=" ">
<path fill="none" stroke="#63b8ff" d="M427.96,-165.34C400.28,-156.62 358.14,-143.34 327.25,-133.61"/>
<polygon fill="#63b8ff" stroke="#63b8ff" points="328.47,-130.32 317.88,-130.66 326.36,-137 328.47,-130.32"/>
</a>
</g>
</g>
<!-- Node8 -->
<g id="Node000008" class="node">
<title>Node8</title>
<g id="a_Node000008"><a xlink:href="shader__module_8hpp.html" target="_top" xlink:title=" ">
<polygon fill="white" stroke="#666666" points="537.25,-129.75 372,-129.75 372,-110.5 537.25,-110.5 537.25,-129.75"/>
<text text-anchor="middle" x="454.62" y="-116.25" font-family="Helvetica,sans-Serif" font-size="10.00">liger/render/rhi/shader_module.hpp</text>
</a>
</g>
</g>
<!-- Node6&#45;&gt;Node8 -->
<g id="edge10_Node000006_Node000008" class="edge">
<title>Node6&#45;&gt;Node8</title>
<g id="a_edge10_Node000006_Node000008"><a xlink:title=" ">
<path fill="none" stroke="#63b8ff" d="M456.29,-165.58C456.05,-158.99 455.7,-149.71 455.38,-141.32"/>
<polygon fill="#63b8ff" stroke="#63b8ff" points="458.89,-141.48 455.02,-131.62 451.9,-141.75 458.89,-141.48"/>
</a>
</g>
</g>
<!-- Node7&#45;&gt;Node3 -->
<g id="edge9_Node000007_Node000003" class="edge">
<title>Node7&#45;&gt;Node3</title>
<g id="a_edge9_Node000007_Node000003"><a xlink:title=" ">
<path fill="none" stroke="#63b8ff" d="M287.21,-110.21C286.15,-96.78 282.32,-71.24 268.62,-55.25 256.07,-40.59 237.62,-30.4 220.39,-23.49"/>
<polygon fill="#63b8ff" stroke="#63b8ff" points="221.89,-20.32 211.3,-20.13 219.47,-26.88 221.89,-20.32"/>
</a>
</g>
</g>
<!-- Node8&#45;&gt;Node4 -->
<g id="edge11_Node000008_Node000004" class="edge">
<title>Node8&#45;&gt;Node4</title>
<g id="a_edge11_Node000008_Node000004"><a xlink:title=" ">
<path fill="none" stroke="#63b8ff" d="M406.81,-110.03C358.89,-100.92 285.03,-86.87 233.53,-77.08"/>
<polygon fill="#63b8ff" stroke="#63b8ff" points="234.21,-73.64 223.73,-75.21 232.9,-80.52 234.21,-73.64"/>
</a>
</g>
</g>
<!-- Node9&#45;&gt;Node4 -->
<g id="edge13_Node000009_Node000004" class="edge">
<title>Node9&#45;&gt;Node4</title>
<g id="a_edge13_Node000009_Node000004"><a xlink:title=" ">
<path fill="none" stroke="#63b8ff" d="M266.91,-165.29C251.41,-157.45 229.95,-145 214.62,-129.75 201.44,-116.63 190.56,-98.38 183.49,-84.74"/>
<polygon fill="#63b8ff" stroke="#63b8ff" points="186.72,-83.37 179.16,-75.95 180.44,-86.46 186.72,-83.37"/>
</a>
</g>
</g>
<!-- Node9&#45;&gt;Node7 -->
<g id="edge14_Node000009_Node000007" class="edge">
<title>Node9&#45;&gt;Node7</title>
<g id="a_edge14_Node000009_Node000007"><a xlink:title=" ">
<path fill="none" stroke="#63b8ff" d="M286.79,-165.58C286.91,-159.07 287.08,-149.92 287.24,-141.62"/>
<polygon fill="#63b8ff" stroke="#63b8ff" points="290.74,-141.69 287.43,-131.62 283.74,-141.55 290.74,-141.69"/>
</a>
</g>
</g>
</g>
</svg>
