<?xml version="1.0" encoding="UTF-8" standalone="no"?>
<!DOCTYPE svg PUBLIC "-//W3C//DTD SVG 1.1//EN"
 "http://www.w3.org/Graphics/SVG/1.1/DTD/svg11.dtd">
<!-- Generated by graphviz version 9.0.0 (20230911.1827)
 -->
<!-- Title: texture.hpp Pages: 1 -->
<svg width="517pt" height="193pt"
 viewBox="0.00 0.00 517.05 193.00" xmlns="http://www.w3.org/2000/svg" xmlns:xlink="http://www.w3.org/1999/xlink">
<g id="graph0" class="graph" transform="scale(1 1) rotate(0) translate(4 189)">
<title>texture.hpp</title>
<!-- Node1 -->
<g id="Node000001" class="node">
<title>Node1</title>
<g id="a_Node000001"><a xlink:title=" ">
<polygon fill="#999999" stroke="#666666" points="311,-185 246.25,-185 246.25,-165.75 311,-165.75 311,-185"/>
<text text-anchor="middle" x="278.62" y="-171.5" font-family="Helvetica,sans-Serif" font-size="10.00">texture.hpp</text>
</a>
</g>
</g>
<!-- Node2 -->
<g id="Node000002" class="node">
<title>Node2</title>
<g id="a_Node000002"><a xlink:href="command__buffer_8hpp.html" target="_top" xlink:title=" ">
<polygon fill="white" stroke="#666666" points="191,-19.25 84.25,-19.25 84.25,0 191,0 191,-19.25"/>
<text text-anchor="middle" x="137.62" y="-5.75" font-family="Helvetica,sans-Serif" font-size="10.00">command_buffer.hpp</text>
</a>
</g>
</g>
<!-- Node1&#45;&gt;Node2 -->
<g id="edge1_Node000001_Node000002" class="edge">
<title>Node1&#45;&gt;Node2</title>
<g id="a_edge1_Node000001_Node000002"><a xlink:title=" ">
<path fill="none" stroke="#63b8ff" d="M235.16,-165.79C188.67,-154.04 117.24,-127.98 84.62,-74.5 71.64,-53.22 100.41,-31.53 120.43,-19.7"/>
<polygon fill="#63b8ff" stroke="#63b8ff" points="234.1,-169.14 244.64,-168.06 235.73,-162.33 234.1,-169.14"/>
</a>
</g>
</g>
<!-- Node3 -->
<g id="Node000003" class="node">
<title>Node3</title>
<g id="a_Node000003"><a xlink:href="deprecated_2device_8hpp_source.html" target="_top" xlink:title=" ">
<polygon fill="white" stroke="#666666" points="63.25,-19.25 0,-19.25 0,0 63.25,0 63.25,-19.25"/>
<text text-anchor="middle" x="31.62" y="-5.75" font-family="Helvetica,sans-Serif" font-size="10.00">device.hpp</text>
</a>
</g>
</g>
<!-- Node1&#45;&gt;Node3 -->
<g id="edge2_Node000001_Node000003" class="edge">
<title>Node1&#45;&gt;Node3</title>
<g id="a_edge2_Node000001_Node000003"><a xlink:title=" ">
<path fill="none" stroke="#63b8ff" d="M235.08,-170.88C199.61,-166.21 149.69,-155.28 113.62,-129.75 71.82,-100.16 44.57,-42.08 35.23,-19.71"/>
<polygon fill="#63b8ff" stroke="#63b8ff" points="234.2,-174.3 244.55,-172.01 235.03,-167.35 234.2,-174.3"/>
</a>
</g>
</g>
<!-- Node4 -->
<g id="Node000004" class="node">
<title>Node4</title>
<g id="a_Node000004"><a xlink:href="device_8hpp_source.html" target="_top" xlink:title=" ">
<polygon fill="white" stroke="#666666" points="363.25,-19.25 300,-19.25 300,0 363.25,0 363.25,-19.25"/>
<text text-anchor="middle" x="331.62" y="-5.75" font-family="Helvetica,sans-Serif" font-size="10.00">device.hpp</text>
</a>
</g>
</g>
<!-- Node1&#45;&gt;Node4 -->
<g id="edge3_Node000001_Node000004" class="edge">
<title>Node1&#45;&gt;Node4</title>
<g id="a_edge3_Node000001_Node000004"><a xlink:title=" ">
<path fill="none" stroke="#63b8ff" d="M322.44,-172.05C381.07,-167.91 480.28,-156.98 502.62,-129.75 521.77,-106.42 493.04,-71.47 473.62,-55.25 441.99,-28.82 394.66,-18 363.46,-13.6"/>
<polygon fill="#63b8ff" stroke="#63b8ff" points="322.55,-168.53 312.8,-172.69 323.01,-175.52 322.55,-168.53"/>
</a>
</g>
</g>
<!-- Node5 -->
<g id="Node000005" class="node">
<title>Node5</title>
<g id="a_Node000005"><a xlink:href="framebuffer_8hpp.html" target="_top" xlink:title=" ">
<polygon fill="white" stroke="#666666" points="355.38,-129.75 271.88,-129.75 271.88,-110.5 355.38,-110.5 355.38,-129.75"/>
<text text-anchor="middle" x="313.62" y="-116.25" font-family="Helvetica,sans-Serif" font-size="10.00">framebuffer.hpp</text>
</a>
</g>
</g>
<!-- Node1&#45;&gt;Node5 -->
<g id="edge4_Node000001_Node000005" class="edge">
<title>Node1&#45;&gt;Node5</title>
<g id="a_edge4_Node000001_Node000005"><a xlink:title=" ">
<path fill="none" stroke="#63b8ff" d="M290.6,-156.15C296.38,-147.36 303.05,-137.21 307.72,-130.11"/>
<polygon fill="#63b8ff" stroke="#63b8ff" points="287.8,-154.04 285.24,-164.32 293.65,-157.88 287.8,-154.04"/>
</a>
</g>
</g>
<!-- Node6 -->
<g id="Node000006" class="node">
<title>Node6</title>
<g id="a_Node000006"><a xlink:href="deprecated_2render__pass_8hpp.html" target="_top" xlink:title=" ">
<polygon fill="white" stroke="#666666" points="447.62,-74.5 359.62,-74.5 359.62,-55.25 447.62,-55.25 447.62,-74.5"/>
<text text-anchor="middle" x="403.62" y="-61" font-family="Helvetica,sans-Serif" font-size="10.00">render_pass.hpp</text>
</a>
</g>
</g>
<!-- Node1&#45;&gt;Node6 -->
<g id="edge11_Node000001_Node000006" class="edge">
<title>Node1&#45;&gt;Node6</title>
<g id="a_edge11_Node000001_Node000006"><a xlink:title=" ">
<path fill="none" stroke="#63b8ff" d="M314.65,-160.97C331.2,-153.56 350.3,-143.12 364.62,-129.75 381.92,-113.62 394.33,-88.14 400.07,-74.76"/>
<polygon fill="#63b8ff" stroke="#63b8ff" points="313.44,-157.68 305.6,-164.81 316.17,-164.12 313.44,-157.68"/>
</a>
</g>
</g>
<!-- Node7 -->
<g id="Node000007" class="node">
<title>Node7</title>
<g id="a_Node000007"><a xlink:href="render__pass_8hpp.html" target="_top" xlink:title=" ">
<polygon fill="white" stroke="#666666" points="181.62,-74.5 93.62,-74.5 93.62,-55.25 181.62,-55.25 181.62,-74.5"/>
<text text-anchor="middle" x="137.62" y="-61" font-family="Helvetica,sans-Serif" font-size="10.00">render_pass.hpp</text>
</a>
</g>
</g>
<!-- Node1&#45;&gt;Node7 -->
<g id="edge12_Node000001_Node000007" class="edge">
<title>Node1&#45;&gt;Node7</title>
<g id="a_edge12_Node000001_Node000007"><a xlink:title=" ">
<path fill="none" stroke="#63b8ff" d="M258.32,-158.75C228.37,-135.7 173.32,-93.34 149.32,-74.88"/>
<polygon fill="#63b8ff" stroke="#63b8ff" points="255.83,-161.25 265.89,-164.57 260.1,-155.7 255.83,-161.25"/>
</a>
</g>
</g>
<!-- Node8 -->
<g id="Node000008" class="node">
<title>Node8</title>
<g id="a_Node000008"><a xlink:href="swapchain_8hpp.html" target="_top" xlink:title=" ">
<polygon fill="white" stroke="#666666" points="493.25,-129.75 412,-129.75 412,-110.5 493.25,-110.5 493.25,-129.75"/>
<text text-anchor="middle" x="452.62" y="-116.25" font-family="Helvetica,sans-Serif" font-size="10.00">swapchain.hpp</text>
</a>
</g>
</g>
<!-- Node1&#45;&gt;Node8 -->
<g id="edge13_Node000001_Node000008" class="edge">
<title>Node1&#45;&gt;Node8</title>
<g id="a_edge13_Node000001_Node000008"><a xlink:title=" ">
<path fill="none" stroke="#63b8ff" d="M318.85,-162.07C350.64,-152.34 394.29,-138.98 422.96,-130.2"/>
<polygon fill="#63b8ff" stroke="#63b8ff" points="318.13,-158.63 309.59,-164.9 320.18,-165.32 318.13,-158.63"/>
</a>
</g>
</g>
<!-- Node9 -->
<g id="Node000009" class="node">
<title>Node9</title>
<g id="a_Node000009"><a xlink:href="synchronization_8hpp.html" target="_top" xlink:title=" ">
<polygon fill="white" stroke="#666666" points="303.12,-74.5 200.12,-74.5 200.12,-55.25 303.12,-55.25 303.12,-74.5"/>
<text text-anchor="middle" x="251.62" y="-61" font-family="Helvetica,sans-Serif" font-size="10.00">synchronization.hpp</text>
</a>
</g>
</g>
<!-- Node1&#45;&gt;Node9 -->
<g id="edge15_Node000001_Node000009" class="edge">
<title>Node1&#45;&gt;Node9</title>
<g id="a_edge15_Node000001_Node000009"><a xlink:title=" ">
<path fill="none" stroke="#63b8ff" d="M270.78,-154.82C267.91,-147.1 264.82,-138.1 262.62,-129.75 257.53,-110.38 254.2,-87.07 252.65,-74.66"/>
<polygon fill="#63b8ff" stroke="#63b8ff" points="267.42,-155.82 274.29,-163.88 273.94,-153.29 267.42,-155.82"/>
</a>
</g>
</g>
<!-- Node5&#45;&gt;Node4 -->
<g id="edge5_Node000005_Node000004" class="edge">
<title>Node5&#45;&gt;Node4</title>
<g id="a_edge5_Node000005_Node000004"><a xlink:title=" ">
<path fill="none" stroke="#63b8ff" d="M316.95,-99.1C320.88,-75.4 327.25,-36.97 330.13,-19.63"/>
<polygon fill="#63b8ff" stroke="#63b8ff" points="313.53,-98.31 315.35,-108.75 320.44,-99.46 313.53,-98.31"/>
</a>
</g>
</g>
<!-- Node5&#45;&gt;Node6 -->
<g id="edge6_Node000005_Node000006" class="edge">
<title>Node5&#45;&gt;Node6</title>
<g id="a_edge6_Node000005_Node000006"><a xlink:title=" ">
<path fill="none" stroke="#63b8ff" d="M338.64,-104.32C354.57,-94.9 374.68,-83 388.28,-74.95"/>
<polygon fill="#63b8ff" stroke="#63b8ff" points="337.02,-101.22 330.19,-109.32 340.58,-107.24 337.02,-101.22"/>
</a>
</g>
</g>
<!-- Node5&#45;&gt;Node7 -->
<g id="edge7_Node000005_Node000007" class="edge">
<title>Node5&#45;&gt;Node7</title>
<g id="a_edge7_Node000005_Node000007"><a xlink:title=" ">
<path fill="none" stroke="#63b8ff" d="M272.94,-106.82C240.78,-97.09 196.63,-83.73 167.63,-74.95"/>
<polygon fill="#63b8ff" stroke="#63b8ff" points="271.74,-110.11 282.32,-109.65 273.76,-103.41 271.74,-110.11"/>
</a>
</g>
</g>
<!-- Node7&#45;&gt;Node2 -->
<g id="edge8_Node000007_Node000002" class="edge">
<title>Node7&#45;&gt;Node2</title>
<g id="a_edge8_Node000007_Node000002"><a xlink:title=" ">
<path fill="none" stroke="#63b8ff" d="M137.62,-43.63C137.62,-35.34 137.62,-26.17 137.62,-19.61"/>
<polygon fill="#63b8ff" stroke="#63b8ff" points="134.13,-43.57 137.63,-53.57 141.13,-43.57 134.13,-43.57"/>
</a>
</g>
</g>
<!-- Node7&#45;&gt;Node3 -->
<g id="edge9_Node000007_Node000003" class="edge">
<title>Node7&#45;&gt;Node3</title>
<g id="a_edge9_Node000007_Node000003"><a xlink:title=" ">
<path fill="none" stroke="#63b8ff" d="M109.49,-49.74C90.54,-40.22 66.09,-27.94 49.69,-19.7"/>
<polygon fill="#63b8ff" stroke="#63b8ff" points="107.78,-52.8 118.29,-54.16 110.93,-46.55 107.78,-52.8"/>
</a>
</g>
</g>
<!-- Node7&#45;&gt;Node4 -->
<g id="edge10_Node000007_Node000004" class="edge">
<title>Node7&#45;&gt;Node4</title>
<g id="a_edge10_Node000007_Node000004"><a xlink:title=" ">
<path fill="none" stroke="#63b8ff" d="M181.19,-51.92C217.09,-42.06 267.19,-28.31 299.52,-19.44"/>
<polygon fill="#63b8ff" stroke="#63b8ff" points="180.71,-48.42 171.99,-54.44 182.56,-55.17 180.71,-48.42"/>
</a>
</g>
</g>
<!-- Node8&#45;&gt;Node4 -->
<g id="edge14_Node000008_Node000004" class="edge">
<title>Node8&#45;&gt;Node4</title>
<g id="a_edge14_Node000008_Node000004"><a xlink:title=" ">
<path fill="none" stroke="#63b8ff" d="M459.8,-99.72C463.53,-86.07 465.64,-68.03 456.62,-55.25 435.72,-25.59 393.22,-15.53 363.62,-12.19"/>
<polygon fill="#63b8ff" stroke="#63b8ff" points="456.58,-98.31 456.82,-108.9 463.24,-100.47 456.58,-98.31"/>
</a>
</g>
</g>
<!-- Node9&#45;&gt;Node2 -->
<g id="edge16_Node000009_Node000002" class="edge">
<title>Node9&#45;&gt;Node2</title>
<g id="a_edge16_Node000009_Node000002"><a xlink:title=" ">
<path fill="none" stroke="#63b8ff" d="M221.94,-50.01C201.47,-40.45 174.86,-28.02 157.06,-19.7"/>
<polygon fill="#63b8ff" stroke="#63b8ff" points="220.37,-53.14 230.92,-54.2 223.34,-46.8 220.37,-53.14"/>
</a>
</g>
</g>
<!-- Node9&#45;&gt;Node4 -->
<g id="edge17_Node000009_Node000004" class="edge">
<title>Node9&#45;&gt;Node4</title>
<g id="a_edge17_Node000009_Node000004"><a xlink:title=" ">
<path fill="none" stroke="#63b8ff" d="M274.68,-48.53C288.7,-39.2 306.13,-27.6 317.99,-19.7"/>
<polygon fill="#63b8ff" stroke="#63b8ff" points="272.84,-45.55 266.46,-54 276.72,-51.38 272.84,-45.55"/>
</a>
</g>
</g>
</g>
</svg>
