<?xml version="1.0" encoding="UTF-8" standalone="no"?>
<!DOCTYPE svg PUBLIC "-//W3C//DTD SVG 1.1//EN"
 "http://www.w3.org/Graphics/SVG/1.1/DTD/svg11.dtd">
<!-- Generated by graphviz version 9.0.0 (20230911.1827)
 -->
<!-- Title: time.cpp Pages: 1 -->
<svg width="360pt" height="304pt"
 viewBox="0.00 0.00 359.75 303.50" xmlns="http://www.w3.org/2000/svg" xmlns:xlink="http://www.w3.org/1999/xlink">

<svg id="main" version="1.1" xmlns="http://www.w3.org/2000/svg" xmlns:xlink="http://www.w3.org/1999/xlink" xml:space="preserve" onload="init(evt)">
<style type="text/css"><![CDATA[
.node, .edge {opacity: 0.7;}
.node.selected, .edge.selected {opacity: 1;}
.edge:hover path { stroke: red; }
.edge:hover polygon { stroke: red; fill: red; }
]]></style>
<script type="application/ecmascript" xlink:href="svg.min.js"/>
<svg id="graph" class="graph">
<g id="graph0" class="graph" transform="scale(1 1) rotate(0) translate(4 299.5)">
<title>time.cpp</title>
<!-- Node1 -->
<g id="Node000001" class="node">
<title>Node1</title>
<g id="a_Node000001"><a xlink:title=" ">
<polygon fill="#999999" stroke="#666666" points="209.88,-295.5 156.38,-295.5 156.38,-276.25 209.88,-276.25 209.88,-295.5"/>
<text text-anchor="middle" x="183.12" y="-282" font-family="Helvetica,sans-Serif" font-size="10.00">time.cpp</text>
</a>
</g>
</g>
<!-- Node2 -->
<g id="Node000002" class="node">
<title>Node2</title>
<g id="a_Node000002"><a xlink:href="default__log_8hpp.html" target="_top" xlink:title=" ">
<polygon fill="white" stroke="#666666" points="185.38,-240.25 44.88,-240.25 44.88,-221 185.38,-221 185.38,-240.25"/>
<text text-anchor="middle" x="115.12" y="-226.75" font-family="Helvetica,sans-Serif" font-size="10.00">liger/core/log/default_log.hpp</text>
</a>
</g>
</g>
<!-- Node1&#45;&gt;Node2 -->
<g id="edge1_Node000001_Node000002" class="edge">
<title>Node1&#45;&gt;Node2</title>
<g id="a_edge1_Node000001_Node000002"><a xlink:title=" ">
<path fill="none" stroke="#63b8ff" d="M171.59,-275.84C161.66,-268.07 147.11,-256.67 135.27,-247.4"/>
<polygon fill="#63b8ff" stroke="#63b8ff" points="137.71,-244.87 127.68,-241.46 133.4,-250.38 137.71,-244.87"/>
</a>
</g>
</g>
<!-- Node10 -->
<g id="Node000010" class="node">
<title>Node10</title>
<g id="a_Node000010"><a xlink:href="time_8hpp.html" target="_top" xlink:title=" ">
<polygon fill="white" stroke="#666666" points="326.25,-240.25 230,-240.25 230,-221 326.25,-221 326.25,-240.25"/>
<text text-anchor="middle" x="278.12" y="-226.75" font-family="Helvetica,sans-Serif" font-size="10.00">liger/core/time.hpp</text>
</a>
</g>
</g>
<!-- Node1&#45;&gt;Node10 -->
<g id="edge10_Node000001_Node000010" class="edge">
<title>Node1&#45;&gt;Node10</title>
<g id="a_edge10_Node000001_Node000010"><a xlink:title=" ">
<path fill="none" stroke="#63b8ff" d="M199.24,-275.84C213.71,-267.73 235.2,-255.68 252.11,-246.21"/>
<polygon fill="#63b8ff" stroke="#63b8ff" points="253.6,-249.39 260.61,-241.44 250.18,-243.28 253.6,-249.39"/>
</a>
</g>
</g>
<!-- Node3 -->
<g id="Node000003" class="node">
<title>Node3</title>
<g id="a_Node000003"><a xlink:href="log_8hpp.html" target="_top" xlink:title=" ">
<polygon fill="white" stroke="#666666" points="154.12,-185 48.12,-185 48.12,-165.75 154.12,-165.75 154.12,-185"/>
<text text-anchor="middle" x="101.12" y="-171.5" font-family="Helvetica,sans-Serif" font-size="10.00">liger/core/log/log.hpp</text>
</a>
</g>
</g>
<!-- Node2&#45;&gt;Node3 -->
<g id="edge2_Node000002_Node000003" class="edge">
<title>Node2&#45;&gt;Node3</title>
<g id="a_edge2_Node000002_Node000003"><a xlink:title=" ">
<path fill="none" stroke="#63b8ff" d="M112.81,-220.83C111.06,-214.17 108.58,-204.74 106.36,-196.28"/>
<polygon fill="#63b8ff" stroke="#63b8ff" points="109.8,-195.6 103.87,-186.82 103.03,-197.38 109.8,-195.6"/>
</a>
</g>
</g>
<!-- Node4 -->
<g id="Node000004" class="node">
<title>Node4</title>
<g id="a_Node000004"><a xlink:title=" ">
<polygon fill="#e0e0e0" stroke="#999999" points="60.25,-129.75 0,-129.75 0,-110.5 60.25,-110.5 60.25,-129.75"/>
<text text-anchor="middle" x="30.12" y="-116.25" font-family="Helvetica,sans-Serif" font-size="10.00">fmt/core.h</text>
</a>
</g>
</g>
<!-- Node3&#45;&gt;Node4 -->
<g id="edge3_Node000003_Node000004" class="edge">
<title>Node3&#45;&gt;Node4</title>
<g id="a_edge3_Node000003_Node000004"><a xlink:title=" ">
<path fill="none" stroke="#63b8ff" d="M89.08,-165.34C78.72,-157.57 63.52,-146.17 51.16,-136.9"/>
<polygon fill="#63b8ff" stroke="#63b8ff" points="53.3,-134.13 43.2,-130.93 49.1,-139.73 53.3,-134.13"/>
</a>
</g>
</g>
<!-- Node5 -->
<g id="Node000005" class="node">
<title>Node5</title>
<g id="a_Node000005"><a xlink:href="log__message_8hpp.html" target="_top" xlink:title=" ">
<polygon fill="white" stroke="#666666" points="249.62,-74.5 98.62,-74.5 98.62,-55.25 249.62,-55.25 249.62,-74.5"/>
<text text-anchor="middle" x="174.12" y="-61" font-family="Helvetica,sans-Serif" font-size="10.00">liger/core/log/log_message.hpp</text>
</a>
</g>
</g>
<!-- Node3&#45;&gt;Node5 -->
<g id="edge4_Node000003_Node000005" class="edge">
<title>Node3&#45;&gt;Node5</title>
<g id="a_edge4_Node000003_Node000005"><a xlink:title=" ">
<path fill="none" stroke="#63b8ff" d="M99.68,-165.38C98.05,-152.3 96.84,-127.71 107.12,-110.5 114.99,-97.34 128.41,-87.27 141.19,-80.05"/>
<polygon fill="#63b8ff" stroke="#63b8ff" points="142.57,-83.27 149.83,-75.56 139.34,-77.06 142.57,-83.27"/>
</a>
</g>
</g>
<!-- Node9 -->
<g id="Node000009" class="node">
<title>Node9</title>
<g id="a_Node000009"><a xlink:href="log__writer_8hpp.html" target="_top" xlink:title=" ">
<polygon fill="white" stroke="#666666" points="250.38,-129.75 115.88,-129.75 115.88,-110.5 250.38,-110.5 250.38,-129.75"/>
<text text-anchor="middle" x="183.12" y="-116.25" font-family="Helvetica,sans-Serif" font-size="10.00">liger/core/log/log_writer.hpp</text>
</a>
</g>
</g>
<!-- Node3&#45;&gt;Node9 -->
<g id="edge8_Node000003_Node000009" class="edge">
<title>Node3&#45;&gt;Node9</title>
<g id="a_edge8_Node000003_Node000009"><a xlink:title=" ">
<path fill="none" stroke="#63b8ff" d="M115.04,-165.34C127.29,-157.39 145.38,-145.64 159.84,-136.25"/>
<polygon fill="#63b8ff" stroke="#63b8ff" points="161.4,-139.41 167.88,-131.03 157.58,-133.54 161.4,-139.41"/>
</a>
</g>
</g>
<!-- Node6 -->
<g id="Node000006" class="node">
<title>Node6</title>
<g id="a_Node000006"><a xlink:title=" ">
<polygon fill="#e0e0e0" stroke="#999999" points="132.75,-19.25 87.5,-19.25 87.5,0 132.75,0 132.75,-19.25"/>
<text text-anchor="middle" x="110.12" y="-5.75" font-family="Helvetica,sans-Serif" font-size="10.00">cstdint</text>
</a>
</g>
</g>
<!-- Node5&#45;&gt;Node6 -->
<g id="edge5_Node000005_Node000006" class="edge">
<title>Node5&#45;&gt;Node6</title>
<g id="a_edge5_Node000005_Node000006"><a xlink:title=" ">
<path fill="none" stroke="#63b8ff" d="M163.27,-54.84C154.02,-47.15 140.5,-35.9 129.42,-26.68"/>
<polygon fill="#63b8ff" stroke="#63b8ff" points="131.91,-24.2 121.98,-20.49 127.43,-29.58 131.91,-24.2"/>
</a>
</g>
</g>
<!-- Node7 -->
<g id="Node000007" class="node">
<title>Node7</title>
<g id="a_Node000007"><a xlink:title=" ">
<polygon fill="#e0e0e0" stroke="#999999" points="290.12,-19.25 250.12,-19.25 250.12,0 290.12,0 290.12,-19.25"/>
<text text-anchor="middle" x="270.12" y="-5.75" font-family="Helvetica,sans-Serif" font-size="10.00">string</text>
</a>
</g>
</g>
<!-- Node5&#45;&gt;Node7 -->
<g id="edge6_Node000005_Node000007" class="edge">
<title>Node5&#45;&gt;Node7</title>
<g id="a_edge6_Node000005_Node000007"><a xlink:title=" ">
<path fill="none" stroke="#63b8ff" d="M190.41,-54.84C205.03,-46.73 226.75,-34.68 243.83,-25.21"/>
<polygon fill="#63b8ff" stroke="#63b8ff" points="245.39,-28.35 252.44,-20.44 241.99,-22.23 245.39,-28.35"/>
</a>
</g>
</g>
<!-- Node8 -->
<g id="Node000008" class="node">
<title>Node8</title>
<g id="a_Node000008"><a xlink:title=" ">
<polygon fill="#e0e0e0" stroke="#999999" points="215.88,-19.25 150.38,-19.25 150.38,0 215.88,0 215.88,-19.25"/>
<text text-anchor="middle" x="183.12" y="-5.75" font-family="Helvetica,sans-Serif" font-size="10.00">string_view</text>
</a>
</g>
</g>
<!-- Node5&#45;&gt;Node8 -->
<g id="edge7_Node000005_Node000008" class="edge">
<title>Node5&#45;&gt;Node8</title>
<g id="a_edge7_Node000005_Node000008"><a xlink:title=" ">
<path fill="none" stroke="#63b8ff" d="M175.61,-55.08C176.72,-48.49 178.29,-39.21 179.71,-30.82"/>
<polygon fill="#63b8ff" stroke="#63b8ff" points="183.14,-31.55 181.35,-21.1 176.24,-30.38 183.14,-31.55"/>
</a>
</g>
</g>
<!-- Node9&#45;&gt;Node5 -->
<g id="edge9_Node000009_Node000005" class="edge">
<title>Node9&#45;&gt;Node5</title>
<g id="a_edge9_Node000009_Node000005"><a xlink:title=" ">
<path fill="none" stroke="#63b8ff" d="M181.64,-110.33C180.53,-103.74 178.96,-94.46 177.54,-86.07"/>
<polygon fill="#63b8ff" stroke="#63b8ff" points="181.01,-85.63 175.9,-76.35 174.11,-86.8 181.01,-85.63"/>
</a>
</g>
</g>
<!-- Node10&#45;&gt;Node7 -->
<g id="edge12_Node000010_Node000007" class="edge">
<title>Node10&#45;&gt;Node7</title>
<g id="a_edge12_Node000010_Node000007"><a xlink:title=" ">
<path fill="none" stroke="#63b8ff" d="M277.8,-220.77C276.62,-188.51 272.54,-76.76 270.86,-30.71"/>
<polygon fill="#63b8ff" stroke="#63b8ff" points="274.36,-30.73 270.5,-20.86 267.37,-30.99 274.36,-30.73"/>
</a>
</g>
</g>
<!-- Node11 -->
<g id="Node000011" class="node">
<title>Node11</title>
<g id="a_Node000011"><a xlink:title=" ">
<polygon fill="#e0e0e0" stroke="#999999" points="351.75,-185 306.5,-185 306.5,-165.75 351.75,-165.75 351.75,-185"/>
<text text-anchor="middle" x="329.12" y="-171.5" font-family="Helvetica,sans-Serif" font-size="10.00">chrono</text>
</a>
</g>
</g>
<!-- Node10&#45;&gt;Node11 -->
<g id="edge11_Node000010_Node000011" class="edge">
<title>Node10&#45;&gt;Node11</title>
<g id="a_edge11_Node000010_Node000011"><a xlink:title=" ">
<path fill="none" stroke="#63b8ff" d="M286.55,-220.83C293.66,-213.4 304.07,-202.54 312.81,-193.41"/>
<polygon fill="#63b8ff" stroke="#63b8ff" points="315.08,-196.1 319.47,-186.45 310.03,-191.25 315.08,-196.1"/>
</a>
</g>
</g>
</g>
</svg>
</svg>

<style type='text/css'>
<![CDATA[
[data-mouse-over-selected='false'] { opacity: 0.7; }
[data-mouse-over-selected='true']  { opacity: 1.0; }
]]>
</style>
<script type="application/ecmascript"><![CDATA[
document.addEventListener('DOMContentLoaded', (event) => {
  highlightEdges();
  highlightAdjacentNodes();
});
]]></script>
</svg>
