<?xml version="1.0" encoding="UTF-8" standalone="no"?>
<!DOCTYPE svg PUBLIC "-//W3C//DTD SVG 1.1//EN"
 "http://www.w3.org/Graphics/SVG/1.1/DTD/svg11.dtd">
<!-- Generated by graphviz version 7.1.0 (20230121.1956)
 -->
<!-- Title: types.hpp Pages: 1 -->
<svg width="1288pt" height="577pt"
 viewBox="0.00 0.00 1287.50 577.00" xmlns="http://www.w3.org/2000/svg" xmlns:xlink="http://www.w3.org/1999/xlink">
<g id="graph0" class="graph" transform="scale(1 1) rotate(0) translate(4 573)">
<title>types.hpp</title>
<!-- Node1 -->
<g id="Node000001" class="node">
<title>Node1</title>
<g id="a_Node000001"><a xlink:title=" ">
<polygon fill="#999999" stroke="#666666" points="618.5,-569 559.5,-569 559.5,-550 618.5,-550 618.5,-569"/>
<text text-anchor="middle" x="589" y="-557" font-family="Helvetica,sans-Serif" font-size="10.00">types.hpp</text>
</a>
</g>
</g>
<!-- Node2 -->
<g id="Node000002" class="node">
<title>Node2</title>
<g id="a_Node000002"><a xlink:href="callback_8hpp.html" target="_top" xlink:title=" ">
<polygon fill="white" stroke="#666666" points="606.5,-184 535.5,-184 535.5,-165 606.5,-165 606.5,-184"/>
<text text-anchor="middle" x="571" y="-172" font-family="Helvetica,sans-Serif" font-size="10.00">callback.hpp</text>
</a>
</g>
</g>
<!-- Node1&#45;&gt;Node2 -->
<g id="edge1_Node000001_Node000002" class="edge">
<title>Node1&#45;&gt;Node2</title>
<g id="a_edge1_Node000001_Node000002"><a xlink:title=" ">
<path fill="none" stroke="#63b8ff" d="M565.99,-542.91C556.15,-535.23 545.28,-525.2 538,-514 524.05,-492.55 524.82,-484.3 521,-459 512.31,-401.48 547.36,-370.81 561,-294 568.19,-253.55 570.24,-204.38 570.8,-184.49"/>
<polygon fill="#63b8ff" stroke="#63b8ff" points="563.61,-545.51 573.73,-548.63 567.77,-539.88 563.61,-545.51"/>
</a>
</g>
</g>
<!-- Node5 -->
<g id="Node000005" class="node">
<title>Node5</title>
<g id="a_Node000005"><a xlink:href="core_8hpp.html" target="_top" xlink:title=" ">
<polygon fill="white" stroke="#666666" points="570,-19 516,-19 516,0 570,0 570,-19"/>
<text text-anchor="middle" x="543" y="-7" font-family="Helvetica,sans-Serif" font-size="10.00">core.hpp</text>
</a>
</g>
</g>
<!-- Node1&#45;&gt;Node5 -->
<g id="edge5_Node000001_Node000005" class="edge">
<title>Node1&#45;&gt;Node5</title>
<g id="a_edge5_Node000001_Node000005"><a xlink:title=" ">
<path fill="none" stroke="#63b8ff" d="M547.73,-556.93C447.04,-552.75 191.16,-539.83 110,-514 56.21,-496.88 0,-506.95 0,-450.5 0,-450.5 0,-450.5 0,-118.5 0,-12.17 405.59,-8.96 515.7,-10.05"/>
<polygon fill="#63b8ff" stroke="#63b8ff" points="547.57,-560.43 557.7,-557.34 547.85,-553.43 547.57,-560.43"/>
</a>
</g>
</g>
<!-- Node6 -->
<g id="Node000006" class="node">
<title>Node6</title>
<g id="a_Node000006"><a xlink:href="enum__bitmask_8hpp.html" target="_top" xlink:title=" ">
<polygon fill="white" stroke="#666666" points="127.5,-129 28.5,-129 28.5,-110 127.5,-110 127.5,-129"/>
<text text-anchor="middle" x="78" y="-117" font-family="Helvetica,sans-Serif" font-size="10.00">enum_bitmask.hpp</text>
</a>
</g>
</g>
<!-- Node1&#45;&gt;Node6 -->
<g id="edge6_Node000001_Node000006" class="edge">
<title>Node1&#45;&gt;Node6</title>
<g id="a_edge6_Node000001_Node000006"><a xlink:title=" ">
<path fill="none" stroke="#63b8ff" d="M547.98,-558.54C426.65,-557.55 78,-546.37 78,-450.5 78,-450.5 78,-450.5 78,-228.5 78,-191.75 78,-147.97 78,-129.46"/>
<polygon fill="#63b8ff" stroke="#63b8ff" points="547.78,-562.03 557.8,-558.59 547.83,-555.04 547.78,-562.03"/>
</a>
</g>
</g>
<!-- Node7 -->
<g id="Node000007" class="node">
<title>Node7</title>
<g id="a_Node000007"><a xlink:href="enum__class_8hpp.html" target="_top" xlink:title=" ">
<polygon fill="white" stroke="#666666" points="359,-514 271,-514 271,-495 359,-495 359,-514"/>
<text text-anchor="middle" x="315" y="-502" font-family="Helvetica,sans-Serif" font-size="10.00">enum_class.hpp</text>
</a>
</g>
</g>
<!-- Node1&#45;&gt;Node7 -->
<g id="edge8_Node000001_Node000007" class="edge">
<title>Node1&#45;&gt;Node7</title>
<g id="a_edge8_Node000001_Node000007"><a xlink:title=" ">
<path fill="none" stroke="#63b8ff" d="M547.98,-550.57C497.3,-540.76 411.38,-524.14 359.25,-514.06"/>
<polygon fill="#63b8ff" stroke="#63b8ff" points="547.19,-553.98 557.67,-552.44 548.52,-547.1 547.19,-553.98"/>
</a>
</g>
</g>
<!-- Node11 -->
<g id="Node000011" class="node">
<title>Node11</title>
<g id="a_Node000011"><a xlink:href="log__message_8hpp.html" target="_top" xlink:title=" ">
<polygon fill="white" stroke="#666666" points="293.5,-404 200.5,-404 200.5,-385 293.5,-385 293.5,-404"/>
<text text-anchor="middle" x="247" y="-392" font-family="Helvetica,sans-Serif" font-size="10.00">log_message.hpp</text>
</a>
</g>
</g>
<!-- Node1&#45;&gt;Node11 -->
<g id="edge39_Node000001_Node000011" class="edge">
<title>Node1&#45;&gt;Node11</title>
<g id="a_edge39_Node000001_Node000011"><a xlink:title=" ">
<path fill="none" stroke="#63b8ff" d="M548.03,-556.45C471.63,-552.06 310.77,-539.96 262,-514 233.1,-498.62 224.65,-489.59 213,-459 205.17,-438.43 224.17,-416.13 236.82,-404.2"/>
<polygon fill="#63b8ff" stroke="#63b8ff" points="547.41,-559.92 557.58,-556.98 547.79,-552.93 547.41,-559.92"/>
</a>
</g>
</g>
<!-- Node19 -->
<g id="Node000019" class="node">
<title>Node19</title>
<g id="a_Node000019"><a xlink:href="event__type_8hpp.html" target="_top" xlink:title=" ">
<polygon fill="white" stroke="#666666" points="630.5,-514 547.5,-514 547.5,-495 630.5,-495 630.5,-514"/>
<text text-anchor="middle" x="589" y="-502" font-family="Helvetica,sans-Serif" font-size="10.00">event_type.hpp</text>
</a>
</g>
</g>
<!-- Node1&#45;&gt;Node19 -->
<g id="edge26_Node000001_Node000019" class="edge">
<title>Node1&#45;&gt;Node19</title>
<g id="a_edge26_Node000001_Node000019"><a xlink:title=" ">
<path fill="none" stroke="#63b8ff" d="M589,-538.35C589,-530.1 589,-520.97 589,-514.44"/>
<polygon fill="#63b8ff" stroke="#63b8ff" points="585.5,-538.23 589,-548.23 592.5,-538.23 585.5,-538.23"/>
</a>
</g>
</g>
<!-- Node21 -->
<g id="Node000021" class="node">
<title>Node21</title>
<g id="a_Node000021"><a xlink:href="keyboard_8hpp.html" target="_top" xlink:title=" ">
<polygon fill="white" stroke="#666666" points="740.5,-514 665.5,-514 665.5,-495 740.5,-495 740.5,-514"/>
<text text-anchor="middle" x="703" y="-502" font-family="Helvetica,sans-Serif" font-size="10.00">keyboard.hpp</text>
</a>
</g>
</g>
<!-- Node1&#45;&gt;Node21 -->
<g id="edge29_Node000001_Node000021" class="edge">
<title>Node1&#45;&gt;Node21</title>
<g id="a_edge29_Node000001_Node000021"><a xlink:title=" ">
<path fill="none" stroke="#63b8ff" d="M618.76,-544.67C639.36,-535.09 666.17,-522.62 683.95,-514.36"/>
<polygon fill="#63b8ff" stroke="#63b8ff" points="617.3,-541.48 609.71,-548.87 620.25,-547.83 617.3,-541.48"/>
</a>
</g>
</g>
<!-- Node25 -->
<g id="Node000025" class="node">
<title>Node25</title>
<g id="a_Node000025"><a xlink:href="log__channels_8hpp_source.html" target="_top" xlink:title=" ">
<polygon fill="white" stroke="#666666" points="552,-294 460,-294 460,-275 552,-275 552,-294"/>
<text text-anchor="middle" x="506" y="-282" font-family="Helvetica,sans-Serif" font-size="10.00">log_channels.hpp</text>
</a>
</g>
</g>
<!-- Node1&#45;&gt;Node25 -->
<g id="edge35_Node000001_Node000025" class="edge">
<title>Node1&#45;&gt;Node25</title>
<g id="a_edge35_Node000001_Node000025"><a xlink:title=" ">
<path fill="none" stroke="#63b8ff" d="M548.34,-548.69C527.91,-541.93 504.13,-531.02 488,-514 467.25,-492.1 464,-480.67 464,-450.5 464,-450.5 464,-450.5 464,-393.5 464,-354.27 488.37,-312.14 499.98,-294.29"/>
<polygon fill="#63b8ff" stroke="#63b8ff" points="547.25,-552.02 557.83,-551.59 549.29,-545.32 547.25,-552.02"/>
</a>
</g>
</g>
<!-- Node26 -->
<g id="Node000026" class="node">
<title>Node26</title>
<g id="a_Node000026"><a xlink:href="math__formatting_8hpp.html" target="_top" xlink:title=" ">
<polygon fill="white" stroke="#666666" points="932,-74 826,-74 826,-55 932,-55 932,-74"/>
<text text-anchor="middle" x="879" y="-62" font-family="Helvetica,sans-Serif" font-size="10.00">math_formatting.hpp</text>
</a>
</g>
</g>
<!-- Node1&#45;&gt;Node26 -->
<g id="edge40_Node000001_Node000026" class="edge">
<title>Node1&#45;&gt;Node26</title>
<g id="a_edge40_Node000001_Node000026"><a xlink:title=" ">
<path fill="none" stroke="#63b8ff" d="M629.97,-555.36C697.45,-549.64 828.52,-536.03 869,-514 902.31,-495.87 926,-488.42 926,-450.5 926,-450.5 926,-450.5 926,-173.5 926,-133.83 899.01,-92.26 885.94,-74.46"/>
<polygon fill="#63b8ff" stroke="#63b8ff" points="629.72,-551.87 620.05,-556.18 630.3,-558.85 629.72,-551.87"/>
</a>
</g>
</g>
<!-- Node27 -->
<g id="Node000027" class="node">
<title>Node27</title>
<g id="a_Node000027"><a xlink:href="random_8hpp.html" target="_top" xlink:title=" ">
<polygon fill="white" stroke="#666666" points="1022,-514 954,-514 954,-495 1022,-495 1022,-514"/>
<text text-anchor="middle" x="988" y="-502" font-family="Helvetica,sans-Serif" font-size="10.00">random.hpp</text>
</a>
</g>
</g>
<!-- Node1&#45;&gt;Node27 -->
<g id="edge42_Node000001_Node000027" class="edge">
<title>Node1&#45;&gt;Node27</title>
<g id="a_edge42_Node000001_Node000027"><a xlink:title=" ">
<path fill="none" stroke="#63b8ff" d="M629.7,-554C695.2,-546.6 828,-531.01 940,-514 944.43,-513.33 949.09,-512.57 953.69,-511.79"/>
<polygon fill="#63b8ff" stroke="#63b8ff" points="629.7,-550.48 620.16,-555.07 630.48,-557.43 629.7,-550.48"/>
</a>
</g>
</g>
<!-- Node29 -->
<g id="Node000029" class="node">
<title>Node29</title>
<g id="a_Node000029"><a xlink:href="time_8hpp.html" target="_top" xlink:title=" ">
<polygon fill="white" stroke="#666666" points="1115,-514 1061,-514 1061,-495 1115,-495 1115,-514"/>
<text text-anchor="middle" x="1088" y="-502" font-family="Helvetica,sans-Serif" font-size="10.00">time.hpp</text>
</a>
</g>
</g>
<!-- Node1&#45;&gt;Node29 -->
<g id="edge45_Node000001_Node000029" class="edge">
<title>Node1&#45;&gt;Node29</title>
<g id="a_edge45_Node000001_Node000029"><a xlink:title=" ">
<path fill="none" stroke="#63b8ff" d="M630.05,-555.03C708.22,-548.26 883.78,-532.38 1031,-514 1040.73,-512.79 1051.36,-511.26 1060.78,-509.83"/>
<polygon fill="#63b8ff" stroke="#63b8ff" points="629.97,-551.52 620.31,-555.86 630.57,-558.49 629.97,-551.52"/>
</a>
</g>
</g>
<!-- Node31 -->
<g id="Node000031" class="node">
<title>Node31</title>
<g id="a_Node000031"><a xlink:href="uuid_8hpp.html" target="_top" xlink:title=" ">
<polygon fill="white" stroke="#666666" points="1224.5,-514 1171.5,-514 1171.5,-495 1224.5,-495 1224.5,-514"/>
<text text-anchor="middle" x="1198" y="-502" font-family="Helvetica,sans-Serif" font-size="10.00">uuid.hpp</text>
</a>
</g>
</g>
<!-- Node1&#45;&gt;Node31 -->
<g id="edge48_Node000001_Node000031" class="edge">
<title>Node1&#45;&gt;Node31</title>
<g id="a_edge48_Node000001_Node000031"><a xlink:title=" ">
<path fill="none" stroke="#63b8ff" d="M630.19,-555.52C719.98,-548.92 940.04,-532.21 1124,-514 1139.7,-512.45 1157.24,-510.44 1171.31,-508.77"/>
<polygon fill="#63b8ff" stroke="#63b8ff" points="630.13,-552.01 620.41,-556.23 630.64,-558.99 630.13,-552.01"/>
</a>
</g>
</g>
<!-- Node33 -->
<g id="Node000033" class="node">
<title>Node33</title>
<g id="a_Node000033"><a xlink:href="window_8hpp.html" target="_top" xlink:title=" ">
<polygon fill="white" stroke="#666666" points="859.5,-514 792.5,-514 792.5,-495 859.5,-495 859.5,-514"/>
<text text-anchor="middle" x="826" y="-502" font-family="Helvetica,sans-Serif" font-size="10.00">window.hpp</text>
</a>
</g>
</g>
<!-- Node1&#45;&gt;Node33 -->
<g id="edge51_Node000001_Node000033" class="edge">
<title>Node1&#45;&gt;Node33</title>
<g id="a_edge51_Node000001_Node000033"><a xlink:title=" ">
<path fill="none" stroke="#63b8ff" d="M629.57,-549.43C675.46,-539.16 749.39,-522.63 792.26,-513.05"/>
<polygon fill="#63b8ff" stroke="#63b8ff" points="629.01,-545.97 620.01,-551.56 630.54,-552.8 629.01,-545.97"/>
</a>
</g>
</g>
<!-- Node3 -->
<g id="Node000003" class="node">
<title>Node3</title>
<g id="a_Node000003"><a xlink:href="event__sink_8hpp.html" target="_top" xlink:title=" ">
<polygon fill="white" stroke="#666666" points="613.5,-129 530.5,-129 530.5,-110 613.5,-110 613.5,-129"/>
<text text-anchor="middle" x="572" y="-117" font-family="Helvetica,sans-Serif" font-size="10.00">event_sink.hpp</text>
</a>
</g>
</g>
<!-- Node2&#45;&gt;Node3 -->
<g id="edge2_Node000002_Node000003" class="edge">
<title>Node2&#45;&gt;Node3</title>
<g id="a_edge2_Node000002_Node000003"><a xlink:title=" ">
<path fill="none" stroke="#63b8ff" d="M571.38,-153.35C571.54,-145.1 571.71,-135.97 571.83,-129.44"/>
<polygon fill="#63b8ff" stroke="#63b8ff" points="567.88,-153.17 571.19,-163.23 574.88,-153.3 567.88,-153.17"/>
</a>
</g>
</g>
<!-- Node4 -->
<g id="Node000004" class="node">
<title>Node4</title>
<g id="a_Node000004"><a xlink:href="event__dispatcher_8hpp.html" target="_top" xlink:title=" ">
<polygon fill="white" stroke="#666666" points="639.5,-74 530.5,-74 530.5,-55 639.5,-55 639.5,-74"/>
<text text-anchor="middle" x="585" y="-62" font-family="Helvetica,sans-Serif" font-size="10.00">event_dispatcher.hpp</text>
</a>
</g>
</g>
<!-- Node3&#45;&gt;Node4 -->
<g id="edge3_Node000003_Node000004" class="edge">
<title>Node3&#45;&gt;Node4</title>
<g id="a_edge3_Node000003_Node000004"><a xlink:title=" ">
<path fill="none" stroke="#63b8ff" d="M576.87,-98.64C578.91,-90.31 581.19,-81.05 582.81,-74.44"/>
<polygon fill="#63b8ff" stroke="#63b8ff" points="573.49,-97.73 574.51,-108.28 580.29,-99.4 573.49,-97.73"/>
</a>
</g>
</g>
<!-- Node4&#45;&gt;Node5 -->
<g id="edge4_Node000004_Node000005" class="edge">
<title>Node4&#45;&gt;Node5</title>
<g id="a_edge4_Node000004_Node000005"><a xlink:title=" ">
<path fill="none" stroke="#63b8ff" d="M571.08,-45.93C564.04,-37.06 555.81,-26.67 550.09,-19.44"/>
<polygon fill="#63b8ff" stroke="#63b8ff" points="568.17,-47.9 577.12,-53.56 573.66,-43.55 568.17,-47.9"/>
</a>
</g>
</g>
<!-- Node6&#45;&gt;Node5 -->
<g id="edge7_Node000006_Node000005" class="edge">
<title>Node6&#45;&gt;Node5</title>
<g id="a_edge7_Node000006_Node000005"><a xlink:title=" ">
<path fill="none" stroke="#63b8ff" d="M90.35,-100.83C101.86,-85.88 120.45,-65.3 142,-55 208.43,-23.24 436.23,-13.63 515.52,-11.21"/>
<polygon fill="#63b8ff" stroke="#63b8ff" points="87.85,-98.32 84.74,-108.45 93.49,-102.47 87.85,-98.32"/>
</a>
</g>
</g>
<!-- Node7&#45;&gt;Node5 -->
<g id="edge9_Node000007_Node000005" class="edge">
<title>Node7&#45;&gt;Node5</title>
<g id="a_edge9_Node000007_Node000005"><a xlink:title=" ">
<path fill="none" stroke="#63b8ff" d="M266.19,-490.91C247.57,-484.05 227.39,-473.84 213,-459 136.76,-380.37 119.13,-324.15 153,-220 182.39,-129.63 204.48,-98.45 289,-55 364.45,-16.21 467.38,-10.46 515.76,-10.1"/>
<polygon fill="#63b8ff" stroke="#63b8ff" points="264.88,-494.16 275.48,-494.08 267.14,-487.54 264.88,-494.16"/>
</a>
</g>
</g>
<!-- Node8 -->
<g id="Node000008" class="node">
<title>Node8</title>
<g id="a_Node000008"><a xlink:href="enum__class_8cpp.html" target="_top" xlink:title=" ">
<polygon fill="white" stroke="#666666" points="310,-459 222,-459 222,-440 310,-440 310,-459"/>
<text text-anchor="middle" x="266" y="-447" font-family="Helvetica,sans-Serif" font-size="10.00">enum_class.cpp</text>
</a>
</g>
</g>
<!-- Node7&#45;&gt;Node8 -->
<g id="edge10_Node000007_Node000008" class="edge">
<title>Node7&#45;&gt;Node8</title>
<g id="a_edge10_Node000007_Node000008"><a xlink:title=" ">
<path fill="none" stroke="#63b8ff" d="M299.28,-486.5C290.96,-477.5 281.09,-466.82 274.27,-459.44"/>
<polygon fill="#63b8ff" stroke="#63b8ff" points="296.52,-488.67 305.88,-493.64 301.66,-483.92 296.52,-488.67"/>
</a>
</g>
</g>
<!-- Node9 -->
<g id="Node000009" class="node">
<title>Node9</title>
<g id="a_Node000009"><a xlink:href="log__level_8hpp.html" target="_top" xlink:title=" ">
<polygon fill="white" stroke="#666666" points="402,-459 328,-459 328,-440 402,-440 402,-459"/>
<text text-anchor="middle" x="365" y="-447" font-family="Helvetica,sans-Serif" font-size="10.00">log_level.hpp</text>
</a>
</g>
</g>
<!-- Node7&#45;&gt;Node9 -->
<g id="edge11_Node000007_Node000009" class="edge">
<title>Node7&#45;&gt;Node9</title>
<g id="a_edge11_Node000007_Node000009"><a xlink:title=" ">
<path fill="none" stroke="#63b8ff" d="M331.04,-486.5C339.53,-477.5 349.6,-466.82 356.56,-459.44"/>
<polygon fill="#63b8ff" stroke="#63b8ff" points="328.61,-483.97 324.3,-493.65 333.7,-488.78 328.61,-483.97"/>
</a>
</g>
</g>
<!-- Node10 -->
<g id="Node000010" class="node">
<title>Node10</title>
<g id="a_Node000010"><a xlink:href="console__log__writer_8cpp.html" target="_top" xlink:title=" ">
<polygon fill="white" stroke="#666666" points="484,-239 368,-239 368,-220 484,-220 484,-239"/>
<text text-anchor="middle" x="426" y="-227" font-family="Helvetica,sans-Serif" font-size="10.00">console_log_writer.cpp</text>
</a>
</g>
</g>
<!-- Node9&#45;&gt;Node10 -->
<g id="edge12_Node000009_Node000010" class="edge">
<title>Node9&#45;&gt;Node10</title>
<g id="a_edge12_Node000009_Node000010"><a xlink:title=" ">
<path fill="none" stroke="#63b8ff" d="M371.81,-428.74C378.6,-408.75 389.11,-376.91 397,-349 408.47,-308.44 419.63,-259.33 424.03,-239.48"/>
<polygon fill="#63b8ff" stroke="#63b8ff" points="368.54,-427.48 368.62,-438.08 375.17,-429.75 368.54,-427.48"/>
</a>
</g>
</g>
<!-- Node9&#45;&gt;Node11 -->
<g id="edge13_Node000009_Node000011" class="edge">
<title>Node9&#45;&gt;Node11</title>
<g id="a_edge13_Node000009_Node000011"><a xlink:title=" ">
<path fill="none" stroke="#63b8ff" d="M334.49,-434.8C313.13,-425.2 285.21,-412.66 266.72,-404.36"/>
<polygon fill="#63b8ff" stroke="#63b8ff" points="333.05,-437.98 343.6,-438.89 335.91,-431.6 333.05,-437.98"/>
</a>
</g>
</g>
<!-- Node12 -->
<g id="Node000012" class="node">
<title>Node12</title>
<g id="a_Node000012"><a xlink:href="log_8hpp.html" target="_top" xlink:title=" ">
<polygon fill="white" stroke="#666666" points="237,-294 189,-294 189,-275 237,-275 237,-294"/>
<text text-anchor="middle" x="213" y="-282" font-family="Helvetica,sans-Serif" font-size="10.00">log.hpp</text>
</a>
</g>
</g>
<!-- Node11&#45;&gt;Node12 -->
<g id="edge14_Node000011_Node000012" class="edge">
<title>Node11&#45;&gt;Node12</title>
<g id="a_edge14_Node000011_Node000012"><a xlink:title=" ">
<path fill="none" stroke="#63b8ff" d="M219,-378.64C208.16,-371.29 196.95,-361.33 191,-349 181.97,-330.3 196.14,-306.9 205.6,-294.38"/>
<polygon fill="#63b8ff" stroke="#63b8ff" points="217.06,-381.55 227.4,-383.85 220.75,-375.61 217.06,-381.55"/>
</a>
</g>
</g>
<!-- Node16 -->
<g id="Node000016" class="node">
<title>Node16</title>
<g id="a_Node000016"><a xlink:href="log__message_8cpp.html" target="_top" xlink:title=" ">
<polygon fill="white" stroke="#666666" points="293.5,-349 200.5,-349 200.5,-330 293.5,-330 293.5,-349"/>
<text text-anchor="middle" x="247" y="-337" font-family="Helvetica,sans-Serif" font-size="10.00">log_message.cpp</text>
</a>
</g>
</g>
<!-- Node11&#45;&gt;Node16 -->
<g id="edge20_Node000011_Node000016" class="edge">
<title>Node11&#45;&gt;Node16</title>
<g id="a_edge20_Node000011_Node000016"><a xlink:title=" ">
<path fill="none" stroke="#63b8ff" d="M247,-373.35C247,-365.1 247,-355.97 247,-349.44"/>
<polygon fill="#63b8ff" stroke="#63b8ff" points="243.5,-373.23 247,-383.23 250.5,-373.23 243.5,-373.23"/>
</a>
</g>
</g>
<!-- Node17 -->
<g id="Node000017" class="node">
<title>Node17</title>
<g id="a_Node000017"><a xlink:href="log__writer_8hpp.html" target="_top" xlink:title=" ">
<polygon fill="white" stroke="#666666" points="388.5,-349 311.5,-349 311.5,-330 388.5,-330 388.5,-349"/>
<text text-anchor="middle" x="350" y="-337" font-family="Helvetica,sans-Serif" font-size="10.00">log_writer.hpp</text>
</a>
</g>
</g>
<!-- Node11&#45;&gt;Node17 -->
<g id="edge21_Node000011_Node000017" class="edge">
<title>Node11&#45;&gt;Node17</title>
<g id="a_edge21_Node000011_Node000017"><a xlink:title=" ">
<path fill="none" stroke="#63b8ff" d="M274.66,-379.27C293.17,-369.74 316.94,-357.51 332.79,-349.36"/>
<polygon fill="#63b8ff" stroke="#63b8ff" points="273.11,-376.13 265.82,-383.82 276.31,-382.35 273.11,-376.13"/>
</a>
</g>
</g>
<!-- Node13 -->
<g id="Node000013" class="node">
<title>Node13</title>
<g id="a_Node000013"><a xlink:href="default__log_8hpp.html" target="_top" xlink:title=" ">
<polygon fill="white" stroke="#666666" points="311.5,-239 228.5,-239 228.5,-220 311.5,-220 311.5,-239"/>
<text text-anchor="middle" x="270" y="-227" font-family="Helvetica,sans-Serif" font-size="10.00">default_log.hpp</text>
</a>
</g>
</g>
<!-- Node12&#45;&gt;Node13 -->
<g id="edge15_Node000012_Node000013" class="edge">
<title>Node12&#45;&gt;Node13</title>
<g id="a_edge15_Node000012_Node000013"><a xlink:title=" ">
<path fill="none" stroke="#63b8ff" d="M230.95,-266.81C240.73,-257.72 252.44,-246.82 260.47,-239.36"/>
<polygon fill="#63b8ff" stroke="#63b8ff" points="228.72,-264.11 223.78,-273.48 233.48,-269.23 228.72,-264.11"/>
</a>
</g>
</g>
<!-- Node15 -->
<g id="Node000015" class="node">
<title>Node15</title>
<g id="a_Node000015"><a xlink:href="log_8cpp.html" target="_top" xlink:title=" ">
<polygon fill="white" stroke="#666666" points="210,-239 162,-239 162,-220 210,-220 210,-239"/>
<text text-anchor="middle" x="186" y="-227" font-family="Helvetica,sans-Serif" font-size="10.00">log.cpp</text>
</a>
</g>
</g>
<!-- Node12&#45;&gt;Node15 -->
<g id="edge19_Node000012_Node000015" class="edge">
<title>Node12&#45;&gt;Node15</title>
<g id="a_edge19_Node000012_Node000015"><a xlink:title=" ">
<path fill="none" stroke="#63b8ff" d="M203.32,-264.5C198.97,-255.96 194.04,-246.28 190.56,-239.44"/>
<polygon fill="#63b8ff" stroke="#63b8ff" points="200.2,-266.08 207.85,-273.4 206.43,-262.9 200.2,-266.08"/>
</a>
</g>
</g>
<!-- Node13&#45;&gt;Node2 -->
<g id="edge16_Node000013_Node000002" class="edge">
<title>Node13&#45;&gt;Node2</title>
<g id="a_edge16_Node000013_Node000002"><a xlink:title=" ">
<path fill="none" stroke="#63b8ff" d="M323.16,-219.14C384.17,-208.4 482.56,-191.07 535.14,-181.81"/>
<polygon fill="#63b8ff" stroke="#63b8ff" points="322.58,-215.69 313.34,-220.87 323.8,-222.58 322.58,-215.69"/>
</a>
</g>
</g>
<!-- Node13&#45;&gt;Node5 -->
<g id="edge17_Node000013_Node000005" class="edge">
<title>Node13&#45;&gt;Node5</title>
<g id="a_edge17_Node000013_Node000005"><a xlink:title=" ">
<path fill="none" stroke="#63b8ff" d="M244.5,-213.24C228.18,-201.34 211.39,-183.73 219,-165 244.66,-101.81 266.17,-87.74 326,-55 387.91,-21.12 472.56,-12.95 515.54,-11.03"/>
<polygon fill="#63b8ff" stroke="#63b8ff" points="242.35,-216.02 252.6,-218.71 246.27,-210.22 242.35,-216.02"/>
</a>
</g>
</g>
<!-- Node14 -->
<g id="Node000014" class="node">
<title>Node14</title>
<g id="a_Node000014"><a xlink:href="default__log_8cpp.html" target="_top" xlink:title=" ">
<polygon fill="white" stroke="#666666" points="311.5,-184 228.5,-184 228.5,-165 311.5,-165 311.5,-184"/>
<text text-anchor="middle" x="270" y="-172" font-family="Helvetica,sans-Serif" font-size="10.00">default_log.cpp</text>
</a>
</g>
</g>
<!-- Node13&#45;&gt;Node14 -->
<g id="edge18_Node000013_Node000014" class="edge">
<title>Node13&#45;&gt;Node14</title>
<g id="a_edge18_Node000013_Node000014"><a xlink:title=" ">
<path fill="none" stroke="#63b8ff" d="M270,-208.35C270,-200.1 270,-190.97 270,-184.44"/>
<polygon fill="#63b8ff" stroke="#63b8ff" points="266.5,-208.23 270,-218.23 273.5,-208.23 266.5,-208.23"/>
</a>
</g>
</g>
<!-- Node17&#45;&gt;Node12 -->
<g id="edge25_Node000017_Node000012" class="edge">
<title>Node17&#45;&gt;Node12</title>
<g id="a_edge25_Node000017_Node000012"><a xlink:title=" ">
<path fill="none" stroke="#63b8ff" d="M316.28,-325.45C291.27,-315.78 257.86,-302.85 235.9,-294.36"/>
<polygon fill="#63b8ff" stroke="#63b8ff" points="314.76,-328.62 325.35,-328.96 317.28,-322.09 314.76,-328.62"/>
</a>
</g>
</g>
<!-- Node18 -->
<g id="Node000018" class="node">
<title>Node18</title>
<g id="a_Node000018"><a xlink:href="console__log__writer_8hpp.html" target="_top" xlink:title=" ">
<polygon fill="white" stroke="#666666" points="398,-294 282,-294 282,-275 398,-275 398,-294"/>
<text text-anchor="middle" x="340" y="-282" font-family="Helvetica,sans-Serif" font-size="10.00">console_log_writer.hpp</text>
</a>
</g>
</g>
<!-- Node17&#45;&gt;Node18 -->
<g id="edge22_Node000017_Node000018" class="edge">
<title>Node17&#45;&gt;Node18</title>
<g id="a_edge22_Node000017_Node000018"><a xlink:title=" ">
<path fill="none" stroke="#63b8ff" d="M346.25,-318.64C344.68,-310.31 342.93,-301.05 341.69,-294.44"/>
<polygon fill="#63b8ff" stroke="#63b8ff" points="342.77,-319.08 348.07,-328.26 349.65,-317.79 342.77,-319.08"/>
</a>
</g>
</g>
<!-- Node18&#45;&gt;Node5 -->
<g id="edge24_Node000018_Node000005" class="edge">
<title>Node18&#45;&gt;Node5</title>
<g id="a_edge24_Node000018_Node000005"><a xlink:title=" ">
<path fill="none" stroke="#63b8ff" d="M340,-263.23C340,-241.52 340,-206.08 340,-175.5 340,-175.5 340,-175.5 340,-118.5 340,-39.86 460.21,-18.3 515.62,-12.53"/>
<polygon fill="#63b8ff" stroke="#63b8ff" points="336.5,-263.03 340,-273.03 343.5,-263.03 336.5,-263.03"/>
</a>
</g>
</g>
<!-- Node18&#45;&gt;Node10 -->
<g id="edge23_Node000018_Node000010" class="edge">
<title>Node18&#45;&gt;Node10</title>
<g id="a_edge23_Node000018_Node000010"><a xlink:title=" ">
<path fill="none" stroke="#63b8ff" d="M363.97,-268.73C379.29,-259.29 398.65,-247.36 411.63,-239.36"/>
<polygon fill="#63b8ff" stroke="#63b8ff" points="362.55,-265.49 355.88,-273.72 366.23,-271.45 362.55,-265.49"/>
</a>
</g>
</g>
<!-- Node19&#45;&gt;Node4 -->
<g id="edge27_Node000019_Node000004" class="edge">
<title>Node19&#45;&gt;Node4</title>
<g id="a_edge27_Node000019_Node000004"><a xlink:title=" ">
<path fill="none" stroke="#63b8ff" d="M604.66,-486.08C611.07,-478.24 618.1,-468.61 623,-459 636.38,-432.76 642,-424.96 642,-395.5 642,-395.5 642,-395.5 642,-173.5 642,-144.04 637.09,-135.87 623,-110 615.42,-96.08 602.97,-82.6 594.39,-74.19"/>
<polygon fill="#63b8ff" stroke="#63b8ff" points="602.18,-483.6 598.34,-493.47 607.5,-488.15 602.18,-483.6"/>
</a>
</g>
</g>
<!-- Node20 -->
<g id="Node000020" class="node">
<title>Node20</title>
<g id="a_Node000020"><a xlink:href="event__type_8cpp.html" target="_top" xlink:title=" ">
<polygon fill="white" stroke="#666666" points="613.5,-459 530.5,-459 530.5,-440 613.5,-440 613.5,-459"/>
<text text-anchor="middle" x="572" y="-447" font-family="Helvetica,sans-Serif" font-size="10.00">event_type.cpp</text>
</a>
</g>
</g>
<!-- Node19&#45;&gt;Node20 -->
<g id="edge28_Node000019_Node000020" class="edge">
<title>Node19&#45;&gt;Node20</title>
<g id="a_edge28_Node000019_Node000020"><a xlink:title=" ">
<path fill="none" stroke="#63b8ff" d="M582.72,-483.93C580.03,-475.53 577.01,-466.13 574.87,-459.44"/>
<polygon fill="#63b8ff" stroke="#63b8ff" points="579.34,-484.85 585.73,-493.31 586.01,-482.72 579.34,-484.85"/>
</a>
</g>
</g>
<!-- Node22 -->
<g id="Node000022" class="node">
<title>Node22</title>
<g id="a_Node000022"><a xlink:href="mouse_8hpp.html" target="_top" xlink:title=" ">
<polygon fill="white" stroke="#666666" points="735.5,-459 670.5,-459 670.5,-440 735.5,-440 735.5,-459"/>
<text text-anchor="middle" x="703" y="-447" font-family="Helvetica,sans-Serif" font-size="10.00">mouse.hpp</text>
</a>
</g>
</g>
<!-- Node21&#45;&gt;Node22 -->
<g id="edge30_Node000021_Node000022" class="edge">
<title>Node21&#45;&gt;Node22</title>
<g id="a_edge30_Node000021_Node000022"><a xlink:title=" ">
<path fill="none" stroke="#63b8ff" d="M703,-483.35C703,-475.1 703,-465.97 703,-459.44"/>
<polygon fill="#63b8ff" stroke="#63b8ff" points="699.5,-483.23 703,-493.23 706.5,-483.23 699.5,-483.23"/>
</a>
</g>
</g>
<!-- Node23 -->
<g id="Node000023" class="node">
<title>Node23</title>
<g id="a_Node000023"><a xlink:href="platform__layer_8hpp.html" target="_top" xlink:title=" ">
<polygon fill="white" stroke="#666666" points="812,-404 716,-404 716,-385 812,-385 812,-404"/>
<text text-anchor="middle" x="764" y="-392" font-family="Helvetica,sans-Serif" font-size="10.00">platform_layer.hpp</text>
</a>
</g>
</g>
<!-- Node21&#45;&gt;Node23 -->
<g id="edge34_Node000021_Node000023" class="edge">
<title>Node21&#45;&gt;Node23</title>
<g id="a_edge34_Node000021_Node000023"><a xlink:title=" ">
<path fill="none" stroke="#63b8ff" d="M722.04,-487.11C730.1,-479.3 738.99,-469.4 745,-459 755.36,-441.06 760.54,-416.96 762.71,-404.22"/>
<polygon fill="#63b8ff" stroke="#63b8ff" points="719.9,-484.32 714.91,-493.66 724.64,-489.47 719.9,-484.32"/>
</a>
</g>
</g>
<!-- Node22&#45;&gt;Node23 -->
<g id="edge31_Node000022_Node000023" class="edge">
<title>Node22&#45;&gt;Node23</title>
<g id="a_edge31_Node000022_Node000023"><a xlink:title=" ">
<path fill="none" stroke="#63b8ff" d="M721.89,-432.09C732.42,-422.94 745.12,-411.9 753.81,-404.36"/>
<polygon fill="#63b8ff" stroke="#63b8ff" points="719.74,-429.32 714.49,-438.52 724.33,-434.6 719.74,-429.32"/>
</a>
</g>
</g>
<!-- Node23&#45;&gt;Node5 -->
<g id="edge32_Node000023_Node000005" class="edge">
<title>Node23&#45;&gt;Node5</title>
<g id="a_edge32_Node000023_Node000005"><a xlink:title=" ">
<path fill="none" stroke="#63b8ff" d="M772.74,-374.28C781.6,-353.02 794,-317.53 794,-285.5 794,-285.5 794,-285.5 794,-118.5 794,-21.96 635.39,-10.66 570.34,-10.08"/>
<polygon fill="#63b8ff" stroke="#63b8ff" points="769.56,-372.82 768.78,-383.38 775.98,-375.61 769.56,-372.82"/>
</a>
</g>
</g>
<!-- Node24 -->
<g id="Node000024" class="node">
<title>Node24</title>
<g id="a_Node000024"><a xlink:href="platform__layer_8cpp.html" target="_top" xlink:title=" ">
<polygon fill="white" stroke="#666666" points="766,-349 670,-349 670,-330 766,-330 766,-349"/>
<text text-anchor="middle" x="718" y="-337" font-family="Helvetica,sans-Serif" font-size="10.00">platform_layer.cpp</text>
</a>
</g>
</g>
<!-- Node23&#45;&gt;Node24 -->
<g id="edge33_Node000023_Node000024" class="edge">
<title>Node23&#45;&gt;Node24</title>
<g id="a_edge33_Node000023_Node000024"><a xlink:title=" ">
<path fill="none" stroke="#63b8ff" d="M749,-376.22C741.24,-367.28 732.1,-356.74 725.76,-349.44"/>
<polygon fill="#63b8ff" stroke="#63b8ff" points="746.21,-378.35 755.41,-383.61 751.5,-373.76 746.21,-378.35"/>
</a>
</g>
</g>
<!-- Node25&#45;&gt;Node2 -->
<g id="edge36_Node000025_Node000002" class="edge">
<title>Node25&#45;&gt;Node2</title>
<g id="a_edge36_Node000025_Node000002"><a xlink:title=" ">
<path fill="none" stroke="#63b8ff" d="M517.22,-264.86C531.34,-241.4 555.02,-202.04 565.61,-184.46"/>
<polygon fill="#63b8ff" stroke="#63b8ff" points="514.26,-262.99 512.1,-273.37 520.26,-266.6 514.26,-262.99"/>
</a>
</g>
</g>
<!-- Node25&#45;&gt;Node5 -->
<g id="edge38_Node000025_Node000005" class="edge">
<title>Node25&#45;&gt;Node5</title>
<g id="a_edge38_Node000025_Node000005"><a xlink:title=" ">
<path fill="none" stroke="#63b8ff" d="M504.71,-263.19C502.71,-222.77 500.95,-129.67 521,-55 524.53,-41.85 532.08,-27.98 537.35,-19.29"/>
<polygon fill="#63b8ff" stroke="#63b8ff" points="501.21,-263.28 505.27,-273.07 508.2,-262.89 501.21,-263.28"/>
</a>
</g>
</g>
<!-- Node25&#45;&gt;Node10 -->
<g id="edge37_Node000025_Node000010" class="edge">
<title>Node25&#45;&gt;Node10</title>
<g id="a_edge37_Node000025_Node000010"><a xlink:title=" ">
<path fill="none" stroke="#63b8ff" d="M482.89,-268.19C468.77,-258.84 451.22,-247.21 439.37,-239.36"/>
<polygon fill="#63b8ff" stroke="#63b8ff" points="480.9,-271.07 491.17,-273.67 484.76,-265.23 480.9,-271.07"/>
</a>
</g>
</g>
<!-- Node26&#45;&gt;Node5 -->
<g id="edge41_Node000026_Node000005" class="edge">
<title>Node26&#45;&gt;Node5</title>
<g id="a_edge41_Node000026_Node000005"><a xlink:title=" ">
<path fill="none" stroke="#63b8ff" d="M814.76,-53.37C740.97,-41.73 623.29,-23.17 570.36,-14.82"/>
<polygon fill="#63b8ff" stroke="#63b8ff" points="813.84,-56.77 824.26,-54.87 814.93,-49.85 813.84,-56.77"/>
</a>
</g>
</g>
<!-- Node27&#45;&gt;Node5 -->
<g id="edge43_Node000027_Node000005" class="edge">
<title>Node27&#45;&gt;Node5</title>
<g id="a_edge43_Node000027_Node000005"><a xlink:title=" ">
<path fill="none" stroke="#63b8ff" d="M980.91,-483.82C973.83,-462.4 964,-426.97 964,-395.5 964,-395.5 964,-395.5 964,-118.5 964,-88.48 964.58,-73.58 941,-55 883.38,-9.6 650.37,-8.81 570.23,-9.93"/>
<polygon fill="#63b8ff" stroke="#63b8ff" points="977.59,-484.95 984.17,-493.26 984.21,-482.66 977.59,-484.95"/>
</a>
</g>
</g>
<!-- Node28 -->
<g id="Node000028" class="node">
<title>Node28</title>
<g id="a_Node000028"><a xlink:href="random_8cpp.html" target="_top" xlink:title=" ">
<polygon fill="white" stroke="#666666" points="1060,-459 992,-459 992,-440 1060,-440 1060,-459"/>
<text text-anchor="middle" x="1026" y="-447" font-family="Helvetica,sans-Serif" font-size="10.00">random.cpp</text>
</a>
</g>
</g>
<!-- Node27&#45;&gt;Node28 -->
<g id="edge44_Node000027_Node000028" class="edge">
<title>Node27&#45;&gt;Node28</title>
<g id="a_edge44_Node000027_Node000028"><a xlink:title=" ">
<path fill="none" stroke="#63b8ff" d="M1000.8,-485.65C1007.12,-476.84 1014.46,-466.59 1019.59,-459.44"/>
<polygon fill="#63b8ff" stroke="#63b8ff" points="998.14,-483.35 995.16,-493.52 1003.83,-487.43 998.14,-483.35"/>
</a>
</g>
</g>
<!-- Node29&#45;&gt;Node5 -->
<g id="edge46_Node000029_Node000005" class="edge">
<title>Node29&#45;&gt;Node5</title>
<g id="a_edge46_Node000029_Node000005"><a xlink:title=" ">
<path fill="none" stroke="#63b8ff" d="M1088,-483.23C1088,-461.52 1088,-426.08 1088,-395.5 1088,-395.5 1088,-395.5 1088,-118.5 1088,-11.79 680.92,-8.86 570.4,-10.03"/>
<polygon fill="#63b8ff" stroke="#63b8ff" points="1084.5,-483.03 1088,-493.03 1091.5,-483.03 1084.5,-483.03"/>
</a>
</g>
</g>
<!-- Node30 -->
<g id="Node000030" class="node">
<title>Node30</title>
<g id="a_Node000030"><a xlink:href="time_8cpp.html" target="_top" xlink:title=" ">
<polygon fill="white" stroke="#666666" points="1170,-459 1116,-459 1116,-440 1170,-440 1170,-459"/>
<text text-anchor="middle" x="1143" y="-447" font-family="Helvetica,sans-Serif" font-size="10.00">time.cpp</text>
</a>
</g>
</g>
<!-- Node29&#45;&gt;Node30 -->
<g id="edge47_Node000029_Node000030" class="edge">
<title>Node29&#45;&gt;Node30</title>
<g id="a_edge47_Node000029_Node000030"><a xlink:title=" ">
<path fill="none" stroke="#63b8ff" d="M1105.35,-486.78C1114.75,-477.72 1125.98,-466.9 1133.72,-459.44"/>
<polygon fill="#63b8ff" stroke="#63b8ff" points="1102.94,-484.24 1098.17,-493.7 1107.8,-489.28 1102.94,-484.24"/>
</a>
</g>
</g>
<!-- Node31&#45;&gt;Node5 -->
<g id="edge49_Node000031_Node000005" class="edge">
<title>Node31&#45;&gt;Node5</title>
<g id="a_edge49_Node000031_Node000005"><a xlink:title=" ">
<path fill="none" stroke="#63b8ff" d="M1198,-483.23C1198,-461.52 1198,-426.08 1198,-395.5 1198,-395.5 1198,-395.5 1198,-118.5 1198,-46.51 1118.83,-72.48 1049,-55 870.64,-10.35 647.16,-8.91 570.37,-9.92"/>
<polygon fill="#63b8ff" stroke="#63b8ff" points="1194.5,-483.03 1198,-493.03 1201.5,-483.03 1194.5,-483.03"/>
</a>
</g>
</g>
<!-- Node32 -->
<g id="Node000032" class="node">
<title>Node32</title>
<g id="a_Node000032"><a xlink:href="uuid_8cpp.html" target="_top" xlink:title=" ">
<polygon fill="white" stroke="#666666" points="1279.5,-459 1226.5,-459 1226.5,-440 1279.5,-440 1279.5,-459"/>
<text text-anchor="middle" x="1253" y="-447" font-family="Helvetica,sans-Serif" font-size="10.00">uuid.cpp</text>
</a>
</g>
</g>
<!-- Node31&#45;&gt;Node32 -->
<g id="edge50_Node000031_Node000032" class="edge">
<title>Node31&#45;&gt;Node32</title>
<g id="a_edge50_Node000031_Node000032"><a xlink:title=" ">
<path fill="none" stroke="#63b8ff" d="M1215.35,-486.78C1224.75,-477.72 1235.98,-466.9 1243.72,-459.44"/>
<polygon fill="#63b8ff" stroke="#63b8ff" points="1212.94,-484.24 1208.17,-493.7 1217.8,-489.28 1212.94,-484.24"/>
</a>
</g>
</g>
<!-- Node33&#45;&gt;Node23 -->
<g id="edge52_Node000033_Node000023" class="edge">
<title>Node33&#45;&gt;Node23</title>
<g id="a_edge52_Node000033_Node000023"><a xlink:title=" ">
<path fill="none" stroke="#63b8ff" d="M848.32,-487.89C863.82,-475.08 879.88,-456.42 869,-440 856.32,-420.85 833.57,-409.92 812.48,-403.69"/>
<polygon fill="#63b8ff" stroke="#63b8ff" points="846.46,-484.91 840.67,-493.78 850.73,-490.45 846.46,-484.91"/>
</a>
</g>
</g>
<!-- Node34 -->
<g id="Node000034" class="node">
<title>Node34</title>
<g id="a_Node000034"><a xlink:href="window_8cpp.html" target="_top" xlink:title=" ">
<polygon fill="white" stroke="#666666" points="859.5,-459 792.5,-459 792.5,-440 859.5,-440 859.5,-459"/>
<text text-anchor="middle" x="826" y="-447" font-family="Helvetica,sans-Serif" font-size="10.00">window.cpp</text>
</a>
</g>
</g>
<!-- Node33&#45;&gt;Node34 -->
<g id="edge53_Node000033_Node000034" class="edge">
<title>Node33&#45;&gt;Node34</title>
<g id="a_edge53_Node000033_Node000034"><a xlink:title=" ">
<path fill="none" stroke="#63b8ff" d="M826,-483.35C826,-475.1 826,-465.97 826,-459.44"/>
<polygon fill="#63b8ff" stroke="#63b8ff" points="822.5,-483.23 826,-493.23 829.5,-483.23 822.5,-483.23"/>
</a>
</g>
</g>
</g>
</svg>
