<?xml version="1.0" encoding="UTF-8" standalone="no"?>
<!DOCTYPE svg PUBLIC "-//W3C//DTD SVG 1.1//EN"
 "http://www.w3.org/Graphics/SVG/1.1/DTD/svg11.dtd">
<!-- Generated by graphviz version 7.1.0 (20230121.1956)
 -->
<!-- Title: types.hpp Pages: 1 -->
<!--zoomable 420 -->
<svg id="main" version="1.1" xmlns="http://www.w3.org/2000/svg" xmlns:xlink="http://www.w3.org/1999/xlink" xml:space="preserve" onload="init(evt)">
<style type="text/css"><![CDATA[
.edge:hover path { stroke: red; }
.edge:hover polygon { stroke: red; fill: red; }
]]></style>
<script type="text/javascript"><![CDATA[
var edges = document.getElementsByTagName('g');
if (edges && edges.length) {
  for (var i=0;i<edges.length;i++) {
    if (edges[i].id.substr(0,4)=='edge') {
      edges[i].setAttribute('class','edge');
    }
  }
}
]]></script>
        <defs>
                <circle id="rim" cx="0" cy="0" r="7"/>
                <circle id="rim2" cx="0" cy="0" r="3.5"/>
                <g id="zoomPlus">
                        <use xlink:href="#rim" fill="#404040">
                                <set attributeName="fill" to="#808080" begin="zoomplus.mouseover" end="zoomplus.mouseout"/>
                        </use>
                        <path d="M-4,0h8M0,-4v8" fill="none" stroke="white" stroke-width="1.5" pointer-events="none"/>
                </g>
                <g id="zoomMin">
                        <use xlink:href="#rim" fill="#404040">
                                <set attributeName="fill" to="#808080" begin="zoomminus.mouseover" end="zoomminus.mouseout"/>
                        </use>
                        <path d="M-4,0h8" fill="none" stroke="white" stroke-width="1.5" pointer-events="none"/>
                </g>
                <g id="dirArrow">
                        <path fill="none" stroke="white" stroke-width="1.5" d="M0,-3.0v7 M-2.5,-0.5L0,-3.0L2.5,-0.5"/>
                </g>
               <g id="resetDef">
                       <use xlink:href="#rim2" fill="#404040">
                               <set attributeName="fill" to="#808080" begin="reset.mouseover" end="reset.mouseout"/>
                       </use>
               </g>
        </defs>

<script type="text/javascript">
var viewWidth = 733;
var viewHeight = 420;
var sectionId = 'dynsection-1';
</script>
<script xlink:href="svgpan.js"/>
<svg id="graph" class="graph">
<g id="viewport">
<title>types.hpp</title>
<polygon fill="white" stroke="none" points="-4,4 -4,-416 729,-416 729,4 -4,4"/>
<!-- Node1 -->
<g id="node1" class="node">
<title>Node1</title>
<g id="a_node1"><a xlink:title=" ">
<polygon fill="#bfbfbf" stroke="black" points="413,-392.5 413,-411.5 472,-411.5 472,-392.5 413,-392.5"/>
<text text-anchor="middle" x="442.5" y="-399.5" font-family="Helvetica,sans-Serif" font-size="10.00">types.hpp</text>
</a>
</g>
</g>
<!-- Node2 -->
<g id="node2" class="node">
<title>Node2</title>
<g id="a_node2"><a xlink:href="core_8hpp.html" target="_top" xlink:title=" ">
<polygon fill="white" stroke="black" points="360.5,-0.5 360.5,-19.5 414.5,-19.5 414.5,-0.5 360.5,-0.5"/>
<text text-anchor="middle" x="387.5" y="-7.5" font-family="Helvetica,sans-Serif" font-size="10.00">core.hpp</text>
</a>
</g>
</g>
<!-- Node1&#45;&gt;Node2 -->
<g id="edge1" class="edge">
<title>Node1&#45;&gt;Node2</title>
<path fill="none" stroke="midnightblue" d="M482.49,-391.31C528.42,-377.52 597.5,-347.4 597.5,-291 597.5,-291 597.5,-291 597.5,-121 597.5,-39.1 470.6,-18.06 414.1,-12.75"/>
<polygon fill="midnightblue" stroke="midnightblue" points="481.77,-387.88 473.11,-393.98 483.69,-394.61 481.77,-387.88"/>
</g>
<!-- Node3 -->
<g id="node3" class="node">
<title>Node3</title>
<g id="a_node3"><a xlink:href="enum__bitmask_8hpp.html" target="_top" xlink:title=" ">
<polygon fill="white" stroke="black" points="626,-224.5 626,-243.5 725,-243.5 725,-224.5 626,-224.5"/>
<text text-anchor="middle" x="675.5" y="-231.5" font-family="Helvetica,sans-Serif" font-size="10.00">enum_bitmask.hpp</text>
</a>
</g>
</g>
<!-- Node1&#45;&gt;Node3 -->
<g id="edge2" class="edge">
<title>Node1&#45;&gt;Node3</title>
<path fill="none" stroke="midnightblue" d="M483.32,-399.21C520.35,-395.65 574.63,-385.35 611.5,-356 649.99,-325.37 668.08,-265.16 673.59,-243.23"/>
<polygon fill="midnightblue" stroke="midnightblue" points="483.14,-395.72 473.46,-400.03 483.71,-402.69 483.14,-395.72"/>
</g>
<!-- Node4 -->
<g id="node4" class="node">
<title>Node4</title>
<g id="a_node4"><a xlink:href="enum__class_8hpp.html" target="_top" xlink:title=" ">
<polygon fill="white" stroke="black" points="326.5,-336.5 326.5,-355.5 414.5,-355.5 414.5,-336.5 326.5,-336.5"/>
<text text-anchor="middle" x="370.5" y="-343.5" font-family="Helvetica,sans-Serif" font-size="10.00">enum_class.hpp</text>
</a>
</g>
</g>
<!-- Node1&#45;&gt;Node4 -->
<g id="edge4" class="edge">
<title>Node1&#45;&gt;Node4</title>
<path fill="none" stroke="midnightblue" d="M422.37,-385.9C409.11,-375.96 392.27,-363.33 381.44,-355.2"/>
<polygon fill="midnightblue" stroke="midnightblue" points="419.94,-388.45 430.04,-391.65 424.14,-382.85 419.94,-388.45"/>
</g>
<!-- Node8 -->
<g id="node8" class="node">
<title>Node8</title>
<g id="a_node8"><a xlink:href="log__message_8hpp.html" target="_top" xlink:title=" ">
<polygon fill="white" stroke="black" points="167,-224.5 167,-243.5 260,-243.5 260,-224.5 167,-224.5"/>
<text text-anchor="middle" x="213.5" y="-231.5" font-family="Helvetica,sans-Serif" font-size="10.00">log_message.hpp</text>
</a>
</g>
</g>
<!-- Node1&#45;&gt;Node8 -->
<g id="edge24" class="edge">
<title>Node1&#45;&gt;Node8</title>
<path fill="none" stroke="midnightblue" d="M402.25,-393.45C353.75,-382.1 273.67,-355.73 232.5,-300 219.65,-282.6 215.45,-256.63 214.11,-243.4"/>
<polygon fill="midnightblue" stroke="midnightblue" points="401.26,-396.81 411.79,-395.57 402.78,-389.98 401.26,-396.81"/>
</g>
<!-- Node16 -->
<g id="node16" class="node">
<title>Node16</title>
<g id="a_node16"><a xlink:href="log__channels_8hpp_source.html" target="_top" xlink:title=" ">
<polygon fill="white" stroke="black" points="95.5,-112.5 95.5,-131.5 187.5,-131.5 187.5,-112.5 95.5,-112.5"/>
<text text-anchor="middle" x="141.5" y="-119.5" font-family="Helvetica,sans-Serif" font-size="10.00">log_channels.hpp</text>
</a>
</g>
</g>
<!-- Node1&#45;&gt;Node16 -->
<g id="edge21" class="edge">
<title>Node1&#45;&gt;Node16</title>
<path fill="none" stroke="midnightblue" d="M401.83,-398.08C302.67,-389.84 56.5,-362.23 56.5,-291 56.5,-291 56.5,-291 56.5,-233 56.5,-186.66 104.31,-147.96 128.22,-131.5"/>
<polygon fill="midnightblue" stroke="midnightblue" points="401.41,-401.56 411.66,-398.87 401.97,-394.58 401.41,-401.56"/>
</g>
<!-- Node17 -->
<g id="node17" class="node">
<title>Node17</title>
<g id="a_node17"><a xlink:href="time_8hpp.html" target="_top" xlink:title=" ">
<polygon fill="white" stroke="black" points="460.5,-336.5 460.5,-355.5 514.5,-355.5 514.5,-336.5 460.5,-336.5"/>
<text text-anchor="middle" x="487.5" y="-343.5" font-family="Helvetica,sans-Serif" font-size="10.00">time.hpp</text>
</a>
</g>
</g>
<!-- Node1&#45;&gt;Node17 -->
<g id="edge25" class="edge">
<title>Node1&#45;&gt;Node17</title>
<path fill="none" stroke="midnightblue" d="M456.8,-383.84C464.78,-374.26 474.35,-362.77 480.67,-355.2"/>
<polygon fill="midnightblue" stroke="midnightblue" points="454.21,-381.48 450.5,-391.4 459.59,-385.96 454.21,-381.48"/>
</g>
<!-- Node3&#45;&gt;Node2 -->
<g id="edge3" class="edge">
<title>Node3&#45;&gt;Node2</title>
<path fill="none" stroke="midnightblue" d="M674.47,-213.72C671.42,-177.04 659.34,-97.2 611.5,-56 582.12,-30.7 466.98,-17.8 414.2,-13.11"/>
<polygon fill="midnightblue" stroke="midnightblue" points="670.95,-213.51 675.12,-223.25 677.93,-213.04 670.95,-213.51"/>
</g>
<!-- Node4&#45;&gt;Node2 -->
<g id="edge5" class="edge">
<title>Node4&#45;&gt;Node2</title>
<path fill="none" stroke="midnightblue" d="M366.31,-325.75C364.78,-317.81 363.25,-308.51 362.5,-300 357.68,-245.3 387.5,-233.91 387.5,-179 387.5,-179 387.5,-179 387.5,-121 387.5,-83 387.5,-37.61 387.5,-19.28"/>
<polygon fill="midnightblue" stroke="midnightblue" points="362.83,-326.2 368.28,-335.28 369.68,-324.78 362.83,-326.2"/>
</g>
<!-- Node5 -->
<g id="node5" class="node">
<title>Node5</title>
<g id="a_node5"><a xlink:href="enum__class_8cpp.html" target="_top" xlink:title=" ">
<polygon fill="white" stroke="black" points="371.5,-280.5 371.5,-299.5 459.5,-299.5 459.5,-280.5 371.5,-280.5"/>
<text text-anchor="middle" x="415.5" y="-287.5" font-family="Helvetica,sans-Serif" font-size="10.00">enum_class.cpp</text>
</a>
</g>
</g>
<!-- Node4&#45;&gt;Node5 -->
<g id="edge6" class="edge">
<title>Node4&#45;&gt;Node5</title>
<path fill="none" stroke="midnightblue" d="M384.8,-327.84C392.78,-318.26 402.35,-306.77 408.67,-299.2"/>
<polygon fill="midnightblue" stroke="midnightblue" points="382.21,-325.48 378.5,-335.4 387.59,-329.96 382.21,-325.48"/>
</g>
<!-- Node6 -->
<g id="node6" class="node">
<title>Node6</title>
<g id="a_node6"><a xlink:href="log__level_8hpp.html" target="_top" xlink:title=" ">
<polygon fill="white" stroke="black" points="241.5,-280.5 241.5,-299.5 315.5,-299.5 315.5,-280.5 241.5,-280.5"/>
<text text-anchor="middle" x="278.5" y="-287.5" font-family="Helvetica,sans-Serif" font-size="10.00">log_level.hpp</text>
</a>
</g>
</g>
<!-- Node4&#45;&gt;Node6 -->
<g id="edge7" class="edge">
<title>Node4&#45;&gt;Node6</title>
<path fill="none" stroke="midnightblue" d="M346.31,-330.8C329.27,-320.8 307.05,-307.76 292.77,-299.38"/>
<polygon fill="midnightblue" stroke="midnightblue" points="344.42,-333.75 354.82,-335.8 347.97,-327.72 344.42,-333.75"/>
</g>
<!-- Node7 -->
<g id="node7" class="node">
<title>Node7</title>
<g id="a_node7"><a xlink:href="console__log__writer_8cpp.html" target="_top" xlink:title=" ">
<polygon fill="white" stroke="black" points="243.5,-56.5 243.5,-75.5 359.5,-75.5 359.5,-56.5 243.5,-56.5"/>
<text text-anchor="middle" x="301.5" y="-63.5" font-family="Helvetica,sans-Serif" font-size="10.00">console_log_writer.cpp</text>
</a>
</g>
</g>
<!-- Node6&#45;&gt;Node7 -->
<g id="edge8" class="edge">
<title>Node6&#45;&gt;Node7</title>
<path fill="none" stroke="midnightblue" d="M287.44,-270.12C296.61,-250.12 310.73,-217.42 319.5,-188 326.75,-163.69 328.04,-157.25 330.5,-132 331.36,-123.15 333.01,-120.53 330.5,-112 326.3,-97.73 316.02,-83.72 308.9,-75.22"/>
<polygon fill="midnightblue" stroke="midnightblue" points="284.27,-268.64 283.22,-279.18 290.61,-271.6 284.27,-268.64"/>
</g>
<!-- Node6&#45;&gt;Node8 -->
<g id="edge9" class="edge">
<title>Node6&#45;&gt;Node8</title>
<path fill="none" stroke="midnightblue" d="M259.63,-273.32C247.77,-263.47 232.96,-251.17 223.37,-243.2"/>
<polygon fill="midnightblue" stroke="midnightblue" points="257.25,-275.9 267.18,-279.6 261.72,-270.51 257.25,-275.9"/>
</g>
<!-- Node9 -->
<g id="node9" class="node">
<title>Node9</title>
<g id="a_node9"><a xlink:href="log_8hpp.html" target="_top" xlink:title=" ">
<polygon fill="white" stroke="black" points="29.5,-112.5 29.5,-131.5 77.5,-131.5 77.5,-112.5 29.5,-112.5"/>
<text text-anchor="middle" x="53.5" y="-119.5" font-family="Helvetica,sans-Serif" font-size="10.00">log.hpp</text>
</a>
</g>
</g>
<!-- Node8&#45;&gt;Node9 -->
<g id="edge10" class="edge">
<title>Node8&#45;&gt;Node9</title>
<path fill="none" stroke="midnightblue" d="M176.58,-220.5C156.83,-212.84 132.7,-201.83 113.5,-188 90.32,-171.31 69.15,-144.56 59.31,-131.18"/>
<polygon fill="midnightblue" stroke="midnightblue" points="175.32,-223.77 185.91,-223.99 177.77,-217.21 175.32,-223.77"/>
</g>
<!-- Node13 -->
<g id="node13" class="node">
<title>Node13</title>
<g id="a_node13"><a xlink:href="log__message_8cpp.html" target="_top" xlink:title=" ">
<polygon fill="white" stroke="black" points="123,-168.5 123,-187.5 216,-187.5 216,-168.5 123,-168.5"/>
<text text-anchor="middle" x="169.5" y="-175.5" font-family="Helvetica,sans-Serif" font-size="10.00">log_message.cpp</text>
</a>
</g>
</g>
<!-- Node8&#45;&gt;Node13 -->
<g id="edge15" class="edge">
<title>Node8&#45;&gt;Node13</title>
<path fill="none" stroke="midnightblue" d="M199.52,-215.84C191.71,-206.26 182.35,-194.77 176.18,-187.2"/>
<polygon fill="midnightblue" stroke="midnightblue" points="196.64,-217.85 205.67,-223.39 202.07,-213.43 196.64,-217.85"/>
</g>
<!-- Node14 -->
<g id="node14" class="node">
<title>Node14</title>
<g id="a_node14"><a xlink:href="log__writer_8hpp.html" target="_top" xlink:title=" ">
<polygon fill="white" stroke="black" points="234,-168.5 234,-187.5 311,-187.5 311,-168.5 234,-168.5"/>
<text text-anchor="middle" x="272.5" y="-175.5" font-family="Helvetica,sans-Serif" font-size="10.00">log_writer.hpp</text>
</a>
</g>
</g>
<!-- Node8&#45;&gt;Node14 -->
<g id="edge16" class="edge">
<title>Node8&#45;&gt;Node14</title>
<path fill="none" stroke="midnightblue" d="M230.95,-217.03C241.66,-207.23 254.92,-195.09 263.54,-187.2"/>
<polygon fill="midnightblue" stroke="midnightblue" points="228.85,-214.21 223.84,-223.54 233.58,-219.37 228.85,-214.21"/>
</g>
<!-- Node10 -->
<g id="node10" class="node">
<title>Node10</title>
<g id="a_node10"><a xlink:href="default__log_8hpp.html" target="_top" xlink:title=" ">
<polygon fill="white" stroke="black" points="0,-56.5 0,-75.5 83,-75.5 83,-56.5 0,-56.5"/>
<text text-anchor="middle" x="41.5" y="-63.5" font-family="Helvetica,sans-Serif" font-size="10.00">default_log.hpp</text>
</a>
</g>
</g>
<!-- Node9&#45;&gt;Node10 -->
<g id="edge11" class="edge">
<title>Node9&#45;&gt;Node10</title>
<path fill="none" stroke="midnightblue" d="M49.15,-101.41C47.14,-92.38 44.87,-82.14 43.32,-75.2"/>
<polygon fill="midnightblue" stroke="midnightblue" points="45.71,-102.08 51.3,-111.08 52.54,-100.56 45.71,-102.08"/>
</g>
<!-- Node12 -->
<g id="node12" class="node">
<title>Node12</title>
<g id="a_node12"><a xlink:href="log_8cpp.html" target="_top" xlink:title=" ">
<polygon fill="white" stroke="black" points="101.5,-56.5 101.5,-75.5 149.5,-75.5 149.5,-56.5 101.5,-56.5"/>
<text text-anchor="middle" x="125.5" y="-63.5" font-family="Helvetica,sans-Serif" font-size="10.00">log.cpp</text>
</a>
</g>
</g>
<!-- Node9&#45;&gt;Node12 -->
<g id="edge14" class="edge">
<title>Node9&#45;&gt;Node12</title>
<path fill="none" stroke="midnightblue" d="M73.63,-105.9C86.89,-95.96 103.73,-83.33 114.56,-75.2"/>
<polygon fill="midnightblue" stroke="midnightblue" points="71.86,-102.85 65.96,-111.65 76.06,-108.45 71.86,-102.85"/>
</g>
<!-- Node10&#45;&gt;Node2 -->
<g id="edge12" class="edge">
<title>Node10&#45;&gt;Node2</title>
<path fill="none" stroke="midnightblue" d="M94.08,-55.77C199.12,-38.6 310.5,-22.18 360.62,-14.89"/>
<polygon fill="midnightblue" stroke="midnightblue" points="93.75,-52.28 84.45,-57.36 94.89,-59.19 93.75,-52.28"/>
</g>
<!-- Node11 -->
<g id="node11" class="node">
<title>Node11</title>
<g id="a_node11"><a xlink:href="default__log_8cpp.html" target="_top" xlink:title=" ">
<polygon fill="white" stroke="black" points="0,-0.5 0,-19.5 83,-19.5 83,-0.5 0,-0.5"/>
<text text-anchor="middle" x="41.5" y="-7.5" font-family="Helvetica,sans-Serif" font-size="10.00">default_log.cpp</text>
</a>
</g>
</g>
<!-- Node10&#45;&gt;Node11 -->
<g id="edge13" class="edge">
<title>Node10&#45;&gt;Node11</title>
<path fill="none" stroke="midnightblue" d="M41.5,-45.1C41.5,-36.14 41.5,-26.06 41.5,-19.2"/>
<polygon fill="midnightblue" stroke="midnightblue" points="38,-45.05 41.5,-55.05 45,-45.05 38,-45.05"/>
</g>
<!-- Node14&#45;&gt;Node9 -->
<g id="edge20" class="edge">
<title>Node14&#45;&gt;Node9</title>
<path fill="none" stroke="midnightblue" d="M224.94,-165.89C187.3,-157.01 133.45,-144.08 86.5,-132 83.51,-131.23 80.37,-130.4 77.27,-129.57"/>
<polygon fill="midnightblue" stroke="midnightblue" points="224.06,-169.28 234.6,-168.17 225.66,-162.47 224.06,-169.28"/>
</g>
<!-- Node15 -->
<g id="node15" class="node">
<title>Node15</title>
<g id="a_node15"><a xlink:href="console__log__writer_8hpp.html" target="_top" xlink:title=" ">
<polygon fill="white" stroke="black" points="205.5,-112.5 205.5,-131.5 321.5,-131.5 321.5,-112.5 205.5,-112.5"/>
<text text-anchor="middle" x="263.5" y="-119.5" font-family="Helvetica,sans-Serif" font-size="10.00">console_log_writer.hpp</text>
</a>
</g>
</g>
<!-- Node14&#45;&gt;Node15 -->
<g id="edge17" class="edge">
<title>Node14&#45;&gt;Node15</title>
<path fill="none" stroke="midnightblue" d="M269.23,-157.41C267.73,-148.38 266.02,-138.14 264.87,-131.2"/>
<polygon fill="midnightblue" stroke="midnightblue" points="265.75,-157.78 270.84,-167.07 272.65,-156.63 265.75,-157.78"/>
</g>
<!-- Node15&#45;&gt;Node2 -->
<g id="edge19" class="edge">
<title>Node15&#45;&gt;Node2</title>
<path fill="none" stroke="midnightblue" d="M247.21,-104.69C235.41,-90.85 223.33,-70.93 234.5,-56 249.64,-35.77 320.95,-21.51 360.65,-15"/>
<polygon fill="midnightblue" stroke="midnightblue" points="244.3,-106.69 253.65,-111.67 249.45,-101.95 244.3,-106.69"/>
</g>
<!-- Node15&#45;&gt;Node7 -->
<g id="edge18" class="edge">
<title>Node15&#45;&gt;Node7</title>
<path fill="none" stroke="midnightblue" d="M276,-103.24C282.65,-93.79 290.51,-82.62 295.73,-75.2"/>
<polygon fill="midnightblue" stroke="midnightblue" points="273.2,-101.13 270.31,-111.32 278.93,-105.16 273.2,-101.13"/>
</g>
<!-- Node16&#45;&gt;Node2 -->
<g id="edge23" class="edge">
<title>Node16&#45;&gt;Node2</title>
<path fill="none" stroke="midnightblue" d="M158.57,-104.77C174.85,-90.1 200.65,-68.89 226.5,-56 270.91,-33.85 327.83,-21.21 360.73,-15.26"/>
<polygon fill="midnightblue" stroke="midnightblue" points="156.24,-102.16 151.27,-111.51 160.99,-107.3 156.24,-102.16"/>
</g>
<!-- Node16&#45;&gt;Node7 -->
<g id="edge22" class="edge">
<title>Node16&#45;&gt;Node7</title>
<path fill="none" stroke="midnightblue" d="M177.4,-108.89C207.53,-98.72 249.8,-84.45 276.41,-75.47"/>
<polygon fill="midnightblue" stroke="midnightblue" points="176.29,-105.56 167.93,-112.08 178.53,-112.2 176.29,-105.56"/>
</g>
<!-- Node17&#45;&gt;Node2 -->
<g id="edge26" class="edge">
<title>Node17&#45;&gt;Node2</title>
<path fill="none" stroke="midnightblue" d="M487.5,-325.36C487.5,-303.35 487.5,-266.62 487.5,-235 487.5,-235 487.5,-235 487.5,-121 487.5,-71.96 432.42,-35.12 404.01,-19.39"/>
<polygon fill="midnightblue" stroke="midnightblue" points="484,-325.21 487.5,-335.21 491,-325.21 484,-325.21"/>
</g>
<!-- Node18 -->
<g id="node18" class="node">
<title>Node18</title>
<g id="a_node18"><a xlink:href="time_8cpp.html" target="_top" xlink:title=" ">
<polygon fill="white" stroke="black" points="515.5,-280.5 515.5,-299.5 569.5,-299.5 569.5,-280.5 515.5,-280.5"/>
<text text-anchor="middle" x="542.5" y="-287.5" font-family="Helvetica,sans-Serif" font-size="10.00">time.cpp</text>
</a>
</g>
</g>
<!-- Node17&#45;&gt;Node18 -->
<g id="edge27" class="edge">
<title>Node17&#45;&gt;Node18</title>
<path fill="none" stroke="midnightblue" d="M504.07,-328.73C514,-318.99 526.19,-307.01 534.15,-299.2"/>
<polygon fill="midnightblue" stroke="midnightblue" points="501.86,-326 497.17,-335.5 506.76,-330.99 501.86,-326"/>
</g>
</g>
</svg>
        <g id="navigator" transform="translate(0 0)" fill="#404254">
                <rect fill="#f2f5e9" fill-opacity="0.5" stroke="#606060" stroke-width=".5" x="0" y="0" width="60" height="60"/>
                <use id="zoomplus" xlink:href="#zoomPlus" x="17" y="9" onmousedown="handleZoom(evt,'in')"/>
                <use id="zoomminus" xlink:href="#zoomMin" x="42" y="9" onmousedown="handleZoom(evt,'out')"/>
                <use id="reset" xlink:href="#resetDef" x="30" y="36" onmousedown="handleReset()"/>
                <g id="arrowUp" xlink:href="#dirArrow" transform="translate(30 24)" onmousedown="handlePan(0,-1)">
                  <use xlink:href="#rim" fill="#404040">
                        <set attributeName="fill" to="#808080" begin="arrowUp.mouseover" end="arrowUp.mouseout"/>
                  </use>
                  <path fill="none" stroke="white" stroke-width="1.5" d="M0,-3.0v7 M-2.5,-0.5L0,-3.0L2.5,-0.5"/>
                </g>
                <g id="arrowRight" xlink:href="#dirArrow" transform="rotate(90) translate(36 -43)" onmousedown="handlePan(1,0)">
                  <use xlink:href="#rim" fill="#404040">
                        <set attributeName="fill" to="#808080" begin="arrowRight.mouseover" end="arrowRight.mouseout"/>
                  </use>
                  <path fill="none" stroke="white" stroke-width="1.5" d="M0,-3.0v7 M-2.5,-0.5L0,-3.0L2.5,-0.5"/>
                </g>
                <g id="arrowDown" xlink:href="#dirArrow" transform="rotate(180) translate(-30 -48)" onmousedown="handlePan(0,1)">
                  <use xlink:href="#rim" fill="#404040">
                        <set attributeName="fill" to="#808080" begin="arrowDown.mouseover" end="arrowDown.mouseout"/>
                  </use>
                  <path fill="none" stroke="white" stroke-width="1.5" d="M0,-3.0v7 M-2.5,-0.5L0,-3.0L2.5,-0.5"/>
                </g>
                <g id="arrowLeft" xlink:href="#dirArrow" transform="rotate(270) translate(-36 17)" onmousedown="handlePan(-1,0)">
                  <use xlink:href="#rim" fill="#404040">
                        <set attributeName="fill" to="#808080" begin="arrowLeft.mouseover" end="arrowLeft.mouseout"/>
                  </use>
                  <path fill="none" stroke="white" stroke-width="1.5" d="M0,-3.0v7 M-2.5,-0.5L0,-3.0L2.5,-0.5"/>
                </g>
        </g>
        <svg viewBox="0 0 15 15" width="100%" height="30px" preserveAspectRatio="xMaxYMin meet">
         <g id="arrow_out" transform="scale(0.3 0.3)">
          <a xlink:href="types_8hpp__dep__incl_org.svg" target="_base">
           <rect id="button" ry="5" rx="5" y="6" x="6" height="38" width="38"
                fill="#f2f5e9" fill-opacity="0.5" stroke="#606060" stroke-width="1.0"/>
           <path id="arrow"
             d="M 11.500037,31.436501 C 11.940474,20.09759 22.043105,11.32322 32.158766,21.979434 L 37.068811,17.246167 C 37.068811,17.246167 37.088388,32 37.088388,32 L 22.160133,31.978069 C 22.160133,31.978069 26.997745,27.140456 26.997745,27.140456 C 18.528582,18.264221 13.291696,25.230495 11.500037,31.436501 z"
             style="fill:#404040;"/>
          </a>
         </g>
        </svg>
</svg>
