<?xml version="1.0" encoding="UTF-8" standalone="no"?>
<!DOCTYPE svg PUBLIC "-//W3C//DTD SVG 1.1//EN"
 "http://www.w3.org/Graphics/SVG/1.1/DTD/svg11.dtd">
<!-- Generated by graphviz version 7.1.0 (20230121.1956)
 -->
<!-- Title: types.hpp Pages: 1 -->
<svg width="582pt" height="364pt"
 viewBox="0.00 0.00 582.00 364.00" xmlns="http://www.w3.org/2000/svg" xmlns:xlink="http://www.w3.org/1999/xlink">
<g id="graph0" class="graph" transform="scale(1 1) rotate(0) translate(4 360)">
<title>types.hpp</title>
<polygon fill="white" stroke="none" points="-4,4 -4,-360 578,-360 578,4 -4,4"/>
<!-- Node1 -->
<g id="node1" class="node">
<title>Node1</title>
<g id="a_node1"><a xlink:title=" ">
<polygon fill="#bfbfbf" stroke="black" points="88.5,-336.5 88.5,-355.5 147.5,-355.5 147.5,-336.5 88.5,-336.5"/>
<text text-anchor="middle" x="118" y="-343.5" font-family="Helvetica,sans-Serif" font-size="10.00">types.hpp</text>
</a>
</g>
</g>
<!-- Node2 -->
<g id="node2" class="node">
<title>Node2</title>
<g id="a_node2"><a xlink:href="core_8hpp.html" target="_top" xlink:title=" ">
<polygon fill="white" stroke="black" points="134,-0.5 134,-19.5 188,-19.5 188,-0.5 134,-0.5"/>
<text text-anchor="middle" x="161" y="-7.5" font-family="Helvetica,sans-Serif" font-size="10.00">core.hpp</text>
</a>
</g>
</g>
<!-- Node1&#45;&gt;Node2 -->
<g id="edge1" class="edge">
<title>Node1&#45;&gt;Node2</title>
<path fill="none" stroke="midnightblue" d="M86.11,-331.79C51.16,-314.94 0,-282.21 0,-235 0,-235 0,-235 0,-121 0,-56.85 88.22,-27.4 134.05,-16.43"/>
<polygon fill="midnightblue" stroke="midnightblue" points="84.43,-334.87 94.98,-335.88 87.36,-328.52 84.43,-334.87"/>
</g>
<!-- Node3 -->
<g id="node3" class="node">
<title>Node3</title>
<g id="a_node3"><a xlink:href="enum__bitmask_8hpp.html" target="_top" xlink:title=" ">
<polygon fill="white" stroke="black" points="28.5,-168.5 28.5,-187.5 127.5,-187.5 127.5,-168.5 28.5,-168.5"/>
<text text-anchor="middle" x="78" y="-175.5" font-family="Helvetica,sans-Serif" font-size="10.00">enum_bitmask.hpp</text>
</a>
</g>
</g>
<!-- Node1&#45;&gt;Node3 -->
<g id="edge2" class="edge">
<title>Node1&#45;&gt;Node3</title>
<path fill="none" stroke="midnightblue" d="M111.69,-326.04C109.13,-318.05 106.26,-308.62 104,-300 92.98,-258.02 83.16,-206.95 79.51,-187.28"/>
<polygon fill="midnightblue" stroke="midnightblue" points="108.29,-326.92 114.72,-335.33 114.94,-324.74 108.29,-326.92"/>
</g>
<!-- Node4 -->
<g id="node4" class="node">
<title>Node4</title>
<g id="a_node4"><a xlink:href="enum__class_8hpp.html" target="_top" xlink:title=" ">
<polygon fill="white" stroke="black" points="165,-280.5 165,-299.5 253,-299.5 253,-280.5 165,-280.5"/>
<text text-anchor="middle" x="209" y="-287.5" font-family="Helvetica,sans-Serif" font-size="10.00">enum_class.hpp</text>
</a>
</g>
</g>
<!-- Node1&#45;&gt;Node4 -->
<g id="edge4" class="edge">
<title>Node1&#45;&gt;Node4</title>
<path fill="none" stroke="midnightblue" d="M141.93,-330.8C158.78,-320.8 180.76,-307.76 194.88,-299.38"/>
<polygon fill="midnightblue" stroke="midnightblue" points="140.33,-327.68 133.52,-335.79 143.91,-333.7 140.33,-327.68"/>
</g>
<!-- Node8 -->
<g id="node8" class="node">
<title>Node8</title>
<g id="a_node8"><a xlink:href="log__message_8hpp.html" target="_top" xlink:title=" ">
<polygon fill="white" stroke="black" points="249.5,-168.5 249.5,-187.5 342.5,-187.5 342.5,-168.5 249.5,-168.5"/>
<text text-anchor="middle" x="296" y="-175.5" font-family="Helvetica,sans-Serif" font-size="10.00">log_message.hpp</text>
</a>
</g>
</g>
<!-- Node1&#45;&gt;Node8 -->
<g id="edge22" class="edge">
<title>Node1&#45;&gt;Node8</title>
<path fill="none" stroke="midnightblue" d="M122.29,-325.5C129.07,-299.03 144.73,-251.82 175,-224 195.63,-205.04 224.96,-193.87 249.58,-187.4"/>
<polygon fill="midnightblue" stroke="midnightblue" points="118.89,-324.65 119.99,-335.19 125.7,-326.26 118.89,-324.65"/>
</g>
<!-- Node14 -->
<g id="node14" class="node">
<title>Node14</title>
<g id="a_node14"><a xlink:href="liger__log__channels_8hpp.html" target="_top" xlink:title=" ">
<polygon fill="white" stroke="black" points="458,-56.5 458,-75.5 574,-75.5 574,-56.5 458,-56.5"/>
<text text-anchor="middle" x="516" y="-63.5" font-family="Helvetica,sans-Serif" font-size="10.00">liger_log_channels.hpp</text>
</a>
</g>
</g>
<!-- Node1&#45;&gt;Node14 -->
<g id="edge19" class="edge">
<title>Node1&#45;&gt;Node14</title>
<path fill="none" stroke="midnightblue" d="M158.72,-341.71C255.64,-332.76 492,-303.87 492,-235 492,-235 492,-235 492,-177 492,-138.3 506.36,-93.66 512.86,-75.42"/>
<polygon fill="midnightblue" stroke="midnightblue" points="158.5,-338.21 148.85,-342.59 159.13,-345.19 158.5,-338.21"/>
</g>
<!-- Node3&#45;&gt;Node2 -->
<g id="edge3" class="edge">
<title>Node3&#45;&gt;Node2</title>
<path fill="none" stroke="midnightblue" d="M85.41,-158.04C95.1,-133.86 113.08,-90.96 132,-56 139.17,-42.76 148.88,-28.26 155.04,-19.39"/>
<polygon fill="midnightblue" stroke="midnightblue" points="82.22,-156.58 81.8,-167.17 88.73,-159.16 82.22,-156.58"/>
</g>
<!-- Node4&#45;&gt;Node2 -->
<g id="edge5" class="edge">
<title>Node4&#45;&gt;Node2</title>
<path fill="none" stroke="midnightblue" d="M192.63,-272.09C185.99,-264.18 178.96,-254.26 175,-244 143.21,-161.57 155.41,-50.57 159.73,-19.43"/>
<polygon fill="midnightblue" stroke="midnightblue" points="190.01,-274.4 199.3,-279.49 195.21,-269.71 190.01,-274.4"/>
</g>
<!-- Node5 -->
<g id="node5" class="node">
<title>Node5</title>
<g id="a_node5"><a xlink:href="enum__class_8cpp.html" target="_top" xlink:title=" ">
<polygon fill="white" stroke="black" points="184,-224.5 184,-243.5 272,-243.5 272,-224.5 184,-224.5"/>
<text text-anchor="middle" x="228" y="-231.5" font-family="Helvetica,sans-Serif" font-size="10.00">enum_class.cpp</text>
</a>
</g>
</g>
<!-- Node4&#45;&gt;Node5 -->
<g id="edge6" class="edge">
<title>Node4&#45;&gt;Node5</title>
<path fill="none" stroke="midnightblue" d="M215.78,-269.72C218.99,-260.61 222.64,-250.22 225.11,-243.2"/>
<polygon fill="midnightblue" stroke="midnightblue" points="212.49,-268.54 212.47,-279.13 219.09,-270.86 212.49,-268.54"/>
</g>
<!-- Node6 -->
<g id="node6" class="node">
<title>Node6</title>
<g id="a_node6"><a xlink:href="log__level_8hpp.html" target="_top" xlink:title=" ">
<polygon fill="white" stroke="black" points="290,-224.5 290,-243.5 364,-243.5 364,-224.5 290,-224.5"/>
<text text-anchor="middle" x="327" y="-231.5" font-family="Helvetica,sans-Serif" font-size="10.00">log_level.hpp</text>
</a>
</g>
</g>
<!-- Node4&#45;&gt;Node6 -->
<g id="edge7" class="edge">
<title>Node4&#45;&gt;Node6</title>
<path fill="none" stroke="midnightblue" d="M237.89,-275.78C259.98,-265.67 289.78,-252.03 308.69,-243.38"/>
<polygon fill="midnightblue" stroke="midnightblue" points="236.45,-272.59 228.81,-279.93 239.36,-278.95 236.45,-272.59"/>
</g>
<!-- Node7 -->
<g id="node7" class="node">
<title>Node7</title>
<g id="a_node7"><a xlink:href="console__log__writer_8cpp.html" target="_top" xlink:title=" ">
<polygon fill="white" stroke="black" points="372,-0.5 372,-19.5 488,-19.5 488,-0.5 372,-0.5"/>
<text text-anchor="middle" x="430" y="-7.5" font-family="Helvetica,sans-Serif" font-size="10.00">console_log_writer.cpp</text>
</a>
</g>
</g>
<!-- Node6&#45;&gt;Node7 -->
<g id="edge8" class="edge">
<title>Node6&#45;&gt;Node7</title>
<path fill="none" stroke="midnightblue" d="M344.88,-216.97C364.25,-198.49 394.46,-166.26 410,-132 427.85,-92.64 429.97,-39.62 430.08,-19.35"/>
<polygon fill="midnightblue" stroke="midnightblue" points="342.65,-214.26 337.7,-223.63 347.41,-219.39 342.65,-214.26"/>
</g>
<!-- Node6&#45;&gt;Node8 -->
<g id="edge9" class="edge">
<title>Node6&#45;&gt;Node8</title>
<path fill="none" stroke="midnightblue" d="M316.46,-214.63C311.11,-205.31 304.87,-194.46 300.71,-187.2"/>
<polygon fill="midnightblue" stroke="midnightblue" points="313.39,-216.32 321.4,-223.25 319.46,-212.83 313.39,-216.32"/>
</g>
<!-- Node9 -->
<g id="node9" class="node">
<title>Node9</title>
<g id="a_node9"><a xlink:href="log_8hpp.html" target="_top" xlink:title=" ">
<polygon fill="white" stroke="black" points="220,-56.5 220,-75.5 268,-75.5 268,-56.5 220,-56.5"/>
<text text-anchor="middle" x="244" y="-63.5" font-family="Helvetica,sans-Serif" font-size="10.00">log.hpp</text>
</a>
</g>
</g>
<!-- Node8&#45;&gt;Node9 -->
<g id="edge10" class="edge">
<title>Node8&#45;&gt;Node9</title>
<path fill="none" stroke="midnightblue" d="M291.76,-157.59C288.45,-144.34 283.2,-126.6 276,-112 269.21,-98.24 258.41,-84.11 251.26,-75.44"/>
<polygon fill="midnightblue" stroke="midnightblue" points="288.32,-158.26 293.99,-167.2 295.14,-156.67 288.32,-158.26"/>
</g>
<!-- Node11 -->
<g id="node11" class="node">
<title>Node11</title>
<g id="a_node11"><a xlink:href="log__message_8cpp.html" target="_top" xlink:title=" ">
<polygon fill="white" stroke="black" points="174.5,-112.5 174.5,-131.5 267.5,-131.5 267.5,-112.5 174.5,-112.5"/>
<text text-anchor="middle" x="221" y="-119.5" font-family="Helvetica,sans-Serif" font-size="10.00">log_message.cpp</text>
</a>
</g>
</g>
<!-- Node8&#45;&gt;Node11 -->
<g id="edge13" class="edge">
<title>Node8&#45;&gt;Node11</title>
<path fill="none" stroke="midnightblue" d="M275.03,-161.9C261.22,-151.96 243.68,-139.33 232.39,-131.2"/>
<polygon fill="midnightblue" stroke="midnightblue" points="272.89,-164.68 283.05,-167.68 276.98,-158.99 272.89,-164.68"/>
</g>
<!-- Node12 -->
<g id="node12" class="node">
<title>Node12</title>
<g id="a_node12"><a xlink:href="log__writer_8hpp.html" target="_top" xlink:title=" ">
<polygon fill="white" stroke="black" points="324.5,-112.5 324.5,-131.5 401.5,-131.5 401.5,-112.5 324.5,-112.5"/>
<text text-anchor="middle" x="363" y="-119.5" font-family="Helvetica,sans-Serif" font-size="10.00">log_writer.hpp</text>
</a>
</g>
</g>
<!-- Node8&#45;&gt;Node12 -->
<g id="edge14" class="edge">
<title>Node8&#45;&gt;Node12</title>
<path fill="none" stroke="midnightblue" d="M315.09,-161.61C327.37,-151.72 342.84,-139.25 352.82,-131.2"/>
<polygon fill="midnightblue" stroke="midnightblue" points="313.24,-158.61 307.65,-167.61 317.63,-164.06 313.24,-158.61"/>
</g>
<!-- Node9&#45;&gt;Node2 -->
<g id="edge11" class="edge">
<title>Node9&#45;&gt;Node2</title>
<path fill="none" stroke="midnightblue" d="M221.74,-50.52C206.43,-40.56 186.64,-27.68 173.88,-19.38"/>
<polygon fill="midnightblue" stroke="midnightblue" points="219.47,-53.22 229.76,-55.74 223.29,-47.35 219.47,-53.22"/>
</g>
<!-- Node10 -->
<g id="node10" class="node">
<title>Node10</title>
<g id="a_node10"><a xlink:href="log_8cpp.html" target="_top" xlink:title=" ">
<polygon fill="white" stroke="black" points="220,-0.5 220,-19.5 268,-19.5 268,-0.5 220,-0.5"/>
<text text-anchor="middle" x="244" y="-7.5" font-family="Helvetica,sans-Serif" font-size="10.00">log.cpp</text>
</a>
</g>
</g>
<!-- Node9&#45;&gt;Node10 -->
<g id="edge12" class="edge">
<title>Node9&#45;&gt;Node10</title>
<path fill="none" stroke="midnightblue" d="M244,-45.1C244,-36.14 244,-26.06 244,-19.2"/>
<polygon fill="midnightblue" stroke="midnightblue" points="240.5,-45.05 244,-55.05 247.5,-45.05 240.5,-45.05"/>
</g>
<!-- Node12&#45;&gt;Node9 -->
<g id="edge18" class="edge">
<title>Node12&#45;&gt;Node9</title>
<path fill="none" stroke="midnightblue" d="M334.17,-107.92C311.86,-97.79 281.63,-84.07 262.46,-75.38"/>
<polygon fill="midnightblue" stroke="midnightblue" points="332.48,-110.99 343.03,-111.94 335.37,-104.62 332.48,-110.99"/>
</g>
<!-- Node13 -->
<g id="node13" class="node">
<title>Node13</title>
<g id="a_node13"><a xlink:href="console__log__writer_8hpp.html" target="_top" xlink:title=" ">
<polygon fill="white" stroke="black" points="286,-56.5 286,-75.5 402,-75.5 402,-56.5 286,-56.5"/>
<text text-anchor="middle" x="344" y="-63.5" font-family="Helvetica,sans-Serif" font-size="10.00">console_log_writer.hpp</text>
</a>
</g>
</g>
<!-- Node12&#45;&gt;Node13 -->
<g id="edge15" class="edge">
<title>Node12&#45;&gt;Node13</title>
<path fill="none" stroke="midnightblue" d="M356.22,-101.72C353.01,-92.61 349.36,-82.22 346.89,-75.2"/>
<polygon fill="midnightblue" stroke="midnightblue" points="352.91,-102.86 359.53,-111.13 359.51,-100.54 352.91,-102.86"/>
</g>
<!-- Node13&#45;&gt;Node2 -->
<g id="edge17" class="edge">
<title>Node13&#45;&gt;Node2</title>
<path fill="none" stroke="midnightblue" d="M304.56,-53.36C269.33,-42.97 218.67,-28.02 187.9,-18.94"/>
<polygon fill="midnightblue" stroke="midnightblue" points="303.37,-56.66 313.95,-56.13 305.35,-49.95 303.37,-56.66"/>
</g>
<!-- Node13&#45;&gt;Node7 -->
<g id="edge16" class="edge">
<title>Node13&#45;&gt;Node7</title>
<path fill="none" stroke="midnightblue" d="M367.07,-50.52C382.93,-40.56 403.44,-27.68 416.66,-19.38"/>
<polygon fill="midnightblue" stroke="midnightblue" points="365.33,-47.48 358.72,-55.76 369.05,-53.4 365.33,-47.48"/>
</g>
<!-- Node14&#45;&gt;Node2 -->
<g id="edge21" class="edge">
<title>Node14&#45;&gt;Node2</title>
<path fill="none" stroke="midnightblue" d="M446.83,-55.43C384.95,-46.72 291.81,-33.23 211,-20 203.51,-18.77 195.42,-17.36 187.96,-16.01"/>
<polygon fill="midnightblue" stroke="midnightblue" points="446.12,-58.87 456.51,-56.79 447.1,-51.93 446.12,-58.87"/>
</g>
<!-- Node14&#45;&gt;Node7 -->
<g id="edge20" class="edge">
<title>Node14&#45;&gt;Node7</title>
<path fill="none" stroke="midnightblue" d="M492.93,-50.52C477.07,-40.56 456.56,-27.68 443.34,-19.38"/>
<polygon fill="midnightblue" stroke="midnightblue" points="490.95,-53.4 501.28,-55.76 494.67,-47.48 490.95,-53.4"/>
</g>
</g>
</svg>
