<?xml version="1.0" encoding="UTF-8" standalone="no"?>
<!DOCTYPE svg PUBLIC "-//W3C//DTD SVG 1.1//EN"
 "http://www.w3.org/Graphics/SVG/1.1/DTD/svg11.dtd">
<!-- Generated by graphviz version 7.1.0 (20230121.1956)
 -->
<!-- Title: types.hpp Pages: 1 -->
<!--zoomable 588 -->
<svg id="main" version="1.1" xmlns="http://www.w3.org/2000/svg" xmlns:xlink="http://www.w3.org/1999/xlink" xml:space="preserve" onload="init(evt)">
<style type="text/css"><![CDATA[
.edge:hover path { stroke: red; }
.edge:hover polygon { stroke: red; fill: red; }
]]></style>
<script type="text/javascript"><![CDATA[
var edges = document.getElementsByTagName('g');
if (edges && edges.length) {
  for (var i=0;i<edges.length;i++) {
    if (edges[i].id.substr(0,4)=='edge') {
      edges[i].setAttribute('class','edge');
    }
  }
}
]]></script>
        <defs>
                <circle id="rim" cx="0" cy="0" r="7"/>
                <circle id="rim2" cx="0" cy="0" r="3.5"/>
                <g id="zoomPlus">
                        <use xlink:href="#rim" fill="#404040">
                                <set attributeName="fill" to="#808080" begin="zoomplus.mouseover" end="zoomplus.mouseout"/>
                        </use>
                        <path d="M-4,0h8M0,-4v8" fill="none" stroke="white" stroke-width="1.5" pointer-events="none"/>
                </g>
                <g id="zoomMin">
                        <use xlink:href="#rim" fill="#404040">
                                <set attributeName="fill" to="#808080" begin="zoomminus.mouseover" end="zoomminus.mouseout"/>
                        </use>
                        <path d="M-4,0h8" fill="none" stroke="white" stroke-width="1.5" pointer-events="none"/>
                </g>
                <g id="dirArrow">
                        <path fill="none" stroke="white" stroke-width="1.5" d="M0,-3.0v7 M-2.5,-0.5L0,-3.0L2.5,-0.5"/>
                </g>
               <g id="resetDef">
                       <use xlink:href="#rim2" fill="#404040">
                               <set attributeName="fill" to="#808080" begin="reset.mouseover" end="reset.mouseout"/>
                       </use>
               </g>
        </defs>

<script type="text/javascript">
var viewWidth = 1062;
var viewHeight = 588;
var sectionId = 'dynsection-1';
</script>
<script xlink:href="svgpan.js"/>
<svg id="graph" class="graph">
<g id="viewport">
<title>types.hpp</title>
<polygon fill="white" stroke="none" points="-4,4 -4,-584 1057.5,-584 1057.5,4 -4,4"/>
<!-- Node1 -->
<g id="node1" class="node">
<title>Node1</title>
<g id="a_node1"><a xlink:title=" ">
<polygon fill="#bfbfbf" stroke="black" points="493.5,-560.5 493.5,-579.5 552.5,-579.5 552.5,-560.5 493.5,-560.5"/>
<text text-anchor="middle" x="523" y="-567.5" font-family="Helvetica,sans-Serif" font-size="10.00">types.hpp</text>
</a>
</g>
</g>
<!-- Node2 -->
<g id="node2" class="node">
<title>Node2</title>
<g id="a_node2"><a xlink:href="callback_8hpp.html" target="_top" xlink:title=" ">
<polygon fill="white" stroke="black" points="500.5,-168.5 500.5,-187.5 571.5,-187.5 571.5,-168.5 500.5,-168.5"/>
<text text-anchor="middle" x="536" y="-175.5" font-family="Helvetica,sans-Serif" font-size="10.00">callback.hpp</text>
</a>
</g>
</g>
<!-- Node1&#45;&gt;Node2 -->
<g id="edge1" class="edge">
<title>Node1&#45;&gt;Node2</title>
<path fill="none" stroke="midnightblue" d="M527.21,-549.41C536.73,-502.79 558.5,-381.55 551,-280 548.44,-245.35 541.01,-204.55 537.66,-187.33"/>
<polygon fill="midnightblue" stroke="midnightblue" points="523.82,-548.51 525.2,-559.02 530.67,-549.95 523.82,-548.51"/>
</g>
<!-- Node5 -->
<g id="node5" class="node">
<title>Node5</title>
<g id="a_node5"><a xlink:href="core_8hpp.html" target="_top" xlink:title=" ">
<polygon fill="white" stroke="black" points="388,-0.5 388,-19.5 442,-19.5 442,-0.5 388,-0.5"/>
<text text-anchor="middle" x="415" y="-7.5" font-family="Helvetica,sans-Serif" font-size="10.00">core.hpp</text>
</a>
</g>
</g>
<!-- Node1&#45;&gt;Node5 -->
<g id="edge5" class="edge">
<title>Node1&#45;&gt;Node5</title>
<path fill="none" stroke="midnightblue" d="M482.28,-569.09C359.29,-568.26 0,-557.44 0,-459 0,-459 0,-459 0,-121 0,-74.84 38.58,-74.19 81,-56 136.39,-32.25 318.91,-17.58 388.09,-12.76"/>
<polygon fill="midnightblue" stroke="midnightblue" points="482.23,-572.59 492.25,-569.13 482.26,-565.59 482.23,-572.59"/>
</g>
<!-- Node6 -->
<g id="node6" class="node">
<title>Node6</title>
<g id="a_node6"><a xlink:href="enum__bitmask_8hpp.html" target="_top" xlink:title=" ">
<polygon fill="white" stroke="black" points="28.5,-392.5 28.5,-411.5 127.5,-411.5 127.5,-392.5 28.5,-392.5"/>
<text text-anchor="middle" x="78" y="-399.5" font-family="Helvetica,sans-Serif" font-size="10.00">enum_bitmask.hpp</text>
</a>
</g>
</g>
<!-- Node1&#45;&gt;Node6 -->
<g id="edge6" class="edge">
<title>Node1&#45;&gt;Node6</title>
<path fill="none" stroke="midnightblue" d="M482.16,-566.24C408.73,-559.62 251.84,-537.77 142,-468 117.14,-452.21 94.62,-425.05 84.16,-411.38"/>
<polygon fill="midnightblue" stroke="midnightblue" points="481.86,-569.73 492.12,-567.08 482.45,-562.75 481.86,-569.73"/>
</g>
<!-- Node7 -->
<g id="node7" class="node">
<title>Node7</title>
<g id="a_node7"><a xlink:href="enum__class_8hpp.html" target="_top" xlink:title=" ">
<polygon fill="white" stroke="black" points="340,-504.5 340,-523.5 428,-523.5 428,-504.5 340,-504.5"/>
<text text-anchor="middle" x="384" y="-511.5" font-family="Helvetica,sans-Serif" font-size="10.00">enum_class.hpp</text>
</a>
</g>
</g>
<!-- Node1&#45;&gt;Node7 -->
<g id="edge8" class="edge">
<title>Node1&#45;&gt;Node7</title>
<path fill="none" stroke="midnightblue" d="M490.74,-556.47C464.55,-546.29 428.36,-532.23 405.57,-523.38"/>
<polygon fill="midnightblue" stroke="midnightblue" points="489.28,-559.66 499.87,-560.01 491.82,-553.13 489.28,-559.66"/>
</g>
<!-- Node11 -->
<g id="node11" class="node">
<title>Node11</title>
<g id="a_node11"><a xlink:href="log__message_8hpp.html" target="_top" xlink:title=" ">
<polygon fill="white" stroke="black" points="225.5,-392.5 225.5,-411.5 318.5,-411.5 318.5,-392.5 225.5,-392.5"/>
<text text-anchor="middle" x="272" y="-399.5" font-family="Helvetica,sans-Serif" font-size="10.00">log_message.hpp</text>
</a>
</g>
</g>
<!-- Node1&#45;&gt;Node11 -->
<g id="edge33" class="edge">
<title>Node1&#45;&gt;Node11</title>
<path fill="none" stroke="midnightblue" d="M482.14,-566.78C441.25,-562.94 377.86,-552.49 331,-524 302.99,-506.97 296.91,-497.68 283,-468 274.16,-449.14 272.33,-424.24 272.01,-411.43"/>
<polygon fill="midnightblue" stroke="midnightblue" points="481.79,-570.26 492.05,-567.61 482.37,-563.29 481.79,-570.26"/>
</g>
<!-- Node19 -->
<g id="node19" class="node">
<title>Node19</title>
<g id="a_node19"><a xlink:href="event__type_8hpp.html" target="_top" xlink:title=" ">
<polygon fill="white" stroke="black" points="588.5,-504.5 588.5,-523.5 671.5,-523.5 671.5,-504.5 588.5,-504.5"/>
<text text-anchor="middle" x="630" y="-511.5" font-family="Helvetica,sans-Serif" font-size="10.00">event_type.hpp</text>
</a>
</g>
</g>
<!-- Node1&#45;&gt;Node19 -->
<g id="edge26" class="edge">
<title>Node1&#45;&gt;Node19</title>
<path fill="none" stroke="midnightblue" d="M549.75,-555.5C569.72,-545.42 596.4,-531.96 613.4,-523.38"/>
<polygon fill="midnightblue" stroke="midnightblue" points="548.42,-552.25 541.07,-559.88 551.57,-558.5 548.42,-552.25"/>
</g>
<!-- Node21 -->
<g id="node21" class="node">
<title>Node21</title>
<g id="a_node21"><a xlink:href="log__channels_8hpp_source.html" target="_top" xlink:title=" ">
<polygon fill="white" stroke="black" points="450,-280.5 450,-299.5 542,-299.5 542,-280.5 450,-280.5"/>
<text text-anchor="middle" x="496" y="-287.5" font-family="Helvetica,sans-Serif" font-size="10.00">log_channels.hpp</text>
</a>
</g>
</g>
<!-- Node1&#45;&gt;Node21 -->
<g id="edge29" class="edge">
<title>Node1&#45;&gt;Node21</title>
<path fill="none" stroke="midnightblue" d="M517.56,-549.51C511.94,-527.66 504,-491.08 504,-459 504,-459 504,-459 504,-401 504,-362.9 499.17,-317.56 497.01,-299.26"/>
<polygon fill="midnightblue" stroke="midnightblue" points="514.15,-550.32 520.12,-559.07 520.91,-548.5 514.15,-550.32"/>
</g>
<!-- Node22 -->
<g id="node22" class="node">
<title>Node22</title>
<g id="a_node22"><a xlink:href="random_8hpp.html" target="_top" xlink:title=" ">
<polygon fill="white" stroke="black" points="704,-504.5 704,-523.5 772,-523.5 772,-504.5 704,-504.5"/>
<text text-anchor="middle" x="738" y="-511.5" font-family="Helvetica,sans-Serif" font-size="10.00">random.hpp</text>
</a>
</g>
</g>
<!-- Node1&#45;&gt;Node22 -->
<g id="edge34" class="edge">
<title>Node1&#45;&gt;Node22</title>
<path fill="none" stroke="midnightblue" d="M563.58,-558.81C604.28,-548.58 666.25,-533.02 704.32,-523.46"/>
<polygon fill="midnightblue" stroke="midnightblue" points="562.76,-555.41 553.91,-561.24 564.46,-562.19 562.76,-555.41"/>
</g>
<!-- Node24 -->
<g id="node24" class="node">
<title>Node24</title>
<g id="a_node24"><a xlink:href="time_8hpp.html" target="_top" xlink:title=" ">
<polygon fill="white" stroke="black" points="835,-504.5 835,-523.5 889,-523.5 889,-504.5 835,-504.5"/>
<text text-anchor="middle" x="862" y="-511.5" font-family="Helvetica,sans-Serif" font-size="10.00">time.hpp</text>
</a>
</g>
</g>
<!-- Node1&#45;&gt;Node24 -->
<g id="edge37" class="edge">
<title>Node1&#45;&gt;Node24</title>
<path fill="none" stroke="midnightblue" d="M563.51,-562.55C633.67,-551.37 775.95,-528.71 835.18,-519.27"/>
<polygon fill="midnightblue" stroke="midnightblue" points="563.31,-559.03 553.99,-564.06 564.41,-565.95 563.31,-559.03"/>
</g>
<!-- Node26 -->
<g id="node26" class="node">
<title>Node26</title>
<g id="a_node26"><a xlink:href="uuid_8hpp.html" target="_top" xlink:title=" ">
<polygon fill="white" stroke="black" points="945.5,-504.5 945.5,-523.5 998.5,-523.5 998.5,-504.5 945.5,-504.5"/>
<text text-anchor="middle" x="972" y="-511.5" font-family="Helvetica,sans-Serif" font-size="10.00">uuid.hpp</text>
</a>
</g>
</g>
<!-- Node1&#45;&gt;Node26 -->
<g id="edge40" class="edge">
<title>Node1&#45;&gt;Node26</title>
<path fill="none" stroke="midnightblue" d="M563.32,-564.18C632.02,-555.97 776.16,-538.72 898,-524 913.8,-522.09 931.5,-519.94 945.63,-518.22"/>
<polygon fill="midnightblue" stroke="midnightblue" points="563.19,-560.67 553.68,-565.34 564.02,-567.62 563.19,-560.67"/>
</g>
<!-- Node3 -->
<g id="node3" class="node">
<title>Node3</title>
<g id="a_node3"><a xlink:href="event__sink_8hpp.html" target="_top" xlink:title=" ">
<polygon fill="white" stroke="black" points="496.5,-112.5 496.5,-131.5 579.5,-131.5 579.5,-112.5 496.5,-112.5"/>
<text text-anchor="middle" x="538" y="-119.5" font-family="Helvetica,sans-Serif" font-size="10.00">event_sink.hpp</text>
</a>
</g>
</g>
<!-- Node2&#45;&gt;Node3 -->
<g id="edge2" class="edge">
<title>Node2&#45;&gt;Node3</title>
<path fill="none" stroke="midnightblue" d="M536.74,-157.1C537.07,-148.14 537.44,-138.06 537.7,-131.2"/>
<polygon fill="midnightblue" stroke="midnightblue" points="533.24,-156.93 536.37,-167.05 540.24,-157.19 533.24,-156.93"/>
</g>
<!-- Node4 -->
<g id="node4" class="node">
<title>Node4</title>
<g id="a_node4"><a xlink:href="event__dispatcher_8hpp.html" target="_top" xlink:title=" ">
<polygon fill="white" stroke="black" points="496.5,-56.5 496.5,-75.5 605.5,-75.5 605.5,-56.5 496.5,-56.5"/>
<text text-anchor="middle" x="551" y="-63.5" font-family="Helvetica,sans-Serif" font-size="10.00">event_dispatcher.hpp</text>
</a>
</g>
</g>
<!-- Node3&#45;&gt;Node4 -->
<g id="edge3" class="edge">
<title>Node3&#45;&gt;Node4</title>
<path fill="none" stroke="midnightblue" d="M542.72,-101.41C544.89,-92.38 547.35,-82.14 549.03,-75.2"/>
<polygon fill="midnightblue" stroke="midnightblue" points="539.32,-100.55 540.39,-111.09 546.13,-102.19 539.32,-100.55"/>
</g>
<!-- Node4&#45;&gt;Node5 -->
<g id="edge4" class="edge">
<title>Node4&#45;&gt;Node5</title>
<path fill="none" stroke="midnightblue" d="M519.09,-52.33C493.5,-42.17 458.3,-28.19 436.1,-19.38"/>
<polygon fill="midnightblue" stroke="midnightblue" points="517.76,-55.57 528.34,-56 520.34,-49.06 517.76,-55.57"/>
</g>
<!-- Node6&#45;&gt;Node5 -->
<g id="edge7" class="edge">
<title>Node6&#45;&gt;Node5</title>
<path fill="none" stroke="midnightblue" d="M78,-381.36C78,-359.35 78,-322.62 78,-291 78,-291 78,-291 78,-121 78,-90.2 78.05,-75.36 102,-56 145.86,-20.53 321,-13.01 388.39,-11.42"/>
<polygon fill="midnightblue" stroke="midnightblue" points="74.5,-381.21 78,-391.21 81.5,-381.21 74.5,-381.21"/>
</g>
<!-- Node7&#45;&gt;Node5 -->
<g id="edge9" class="edge">
<title>Node7&#45;&gt;Node5</title>
<path fill="none" stroke="midnightblue" d="M349.65,-500.46C329.53,-492.45 304.03,-481.11 283,-468 174.9,-400.57 116,-362.41 116,-235 116,-235 116,-235 116,-121 116,-84 136.23,-74.96 168,-56 205.05,-33.88 332.55,-19.06 388.41,-13.48"/>
<polygon fill="midnightblue" stroke="midnightblue" points="348.21,-503.65 358.8,-504.01 350.74,-497.13 348.21,-503.65"/>
</g>
<!-- Node8 -->
<g id="node8" class="node">
<title>Node8</title>
<g id="a_node8"><a xlink:href="enum__class_8cpp.html" target="_top" xlink:title=" ">
<polygon fill="white" stroke="black" points="292,-448.5 292,-467.5 380,-467.5 380,-448.5 292,-448.5"/>
<text text-anchor="middle" x="336" y="-455.5" font-family="Helvetica,sans-Serif" font-size="10.00">enum_class.cpp</text>
</a>
</g>
</g>
<!-- Node7&#45;&gt;Node8 -->
<g id="edge10" class="edge">
<title>Node7&#45;&gt;Node8</title>
<path fill="none" stroke="midnightblue" d="M369.01,-496.14C360.45,-486.5 350.09,-474.85 343.29,-467.2"/>
<polygon fill="midnightblue" stroke="midnightblue" points="366.23,-498.28 375.49,-503.43 371.47,-493.63 366.23,-498.28"/>
</g>
<!-- Node9 -->
<g id="node9" class="node">
<title>Node9</title>
<g id="a_node9"><a xlink:href="log__level_8hpp.html" target="_top" xlink:title=" ">
<polygon fill="white" stroke="black" points="398,-448.5 398,-467.5 472,-467.5 472,-448.5 398,-448.5"/>
<text text-anchor="middle" x="435" y="-455.5" font-family="Helvetica,sans-Serif" font-size="10.00">log_level.hpp</text>
</a>
</g>
</g>
<!-- Node7&#45;&gt;Node9 -->
<g id="edge11" class="edge">
<title>Node7&#45;&gt;Node9</title>
<path fill="none" stroke="midnightblue" d="M399.64,-496.44C408.8,-486.74 419.95,-474.93 427.25,-467.2"/>
<polygon fill="midnightblue" stroke="midnightblue" points="397.33,-493.79 393.01,-503.46 402.42,-498.6 397.33,-493.79"/>
</g>
<!-- Node10 -->
<g id="node10" class="node">
<title>Node10</title>
<g id="a_node10"><a xlink:href="console__log__writer_8cpp.html" target="_top" xlink:title=" ">
<polygon fill="white" stroke="black" points="350,-224.5 350,-243.5 466,-243.5 466,-224.5 350,-224.5"/>
<text text-anchor="middle" x="408" y="-231.5" font-family="Helvetica,sans-Serif" font-size="10.00">console_log_writer.cpp</text>
</a>
</g>
</g>
<!-- Node9&#45;&gt;Node10 -->
<g id="edge12" class="edge">
<title>Node9&#45;&gt;Node10</title>
<path fill="none" stroke="midnightblue" d="M432.62,-437.42C426.97,-390.97 412.94,-275.6 409.03,-243.44"/>
<polygon fill="midnightblue" stroke="midnightblue" points="429.11,-437.56 433.79,-447.07 436.06,-436.72 429.11,-437.56"/>
</g>
<!-- Node9&#45;&gt;Node11 -->
<g id="edge13" class="edge">
<title>Node9&#45;&gt;Node11</title>
<path fill="none" stroke="midnightblue" d="M398.84,-445.02C368.11,-434.84 324.79,-420.49 297.56,-411.47"/>
<polygon fill="midnightblue" stroke="midnightblue" points="397.5,-448.26 408.09,-448.09 399.7,-441.62 397.5,-448.26"/>
</g>
<!-- Node12 -->
<g id="node12" class="node">
<title>Node12</title>
<g id="a_node12"><a xlink:href="log_8hpp.html" target="_top" xlink:title=" ">
<polygon fill="white" stroke="black" points="278,-280.5 278,-299.5 326,-299.5 326,-280.5 278,-280.5"/>
<text text-anchor="middle" x="302" y="-287.5" font-family="Helvetica,sans-Serif" font-size="10.00">log.hpp</text>
</a>
</g>
</g>
<!-- Node11&#45;&gt;Node12 -->
<g id="edge14" class="edge">
<title>Node11&#45;&gt;Node12</title>
<path fill="none" stroke="midnightblue" d="M277.25,-381.74C283.87,-357.47 294.96,-316.81 299.72,-299.36"/>
<polygon fill="midnightblue" stroke="midnightblue" points="273.91,-380.7 274.65,-391.27 280.66,-382.55 273.91,-380.7"/>
</g>
<!-- Node16 -->
<g id="node16" class="node">
<title>Node16</title>
<g id="a_node16"><a xlink:href="log__message_8cpp.html" target="_top" xlink:title=" ">
<polygon fill="white" stroke="black" points="300.5,-336.5 300.5,-355.5 393.5,-355.5 393.5,-336.5 300.5,-336.5"/>
<text text-anchor="middle" x="347" y="-343.5" font-family="Helvetica,sans-Serif" font-size="10.00">log_message.cpp</text>
</a>
</g>
</g>
<!-- Node11&#45;&gt;Node16 -->
<g id="edge20" class="edge">
<title>Node11&#45;&gt;Node16</title>
<path fill="none" stroke="midnightblue" d="M292.97,-385.9C306.78,-375.96 324.32,-363.33 335.61,-355.2"/>
<polygon fill="midnightblue" stroke="midnightblue" points="291.02,-382.99 284.95,-391.68 295.11,-388.68 291.02,-382.99"/>
</g>
<!-- Node17 -->
<g id="node17" class="node">
<title>Node17</title>
<g id="a_node17"><a xlink:href="log__writer_8hpp.html" target="_top" xlink:title=" ">
<polygon fill="white" stroke="black" points="166.5,-336.5 166.5,-355.5 243.5,-355.5 243.5,-336.5 166.5,-336.5"/>
<text text-anchor="middle" x="205" y="-343.5" font-family="Helvetica,sans-Serif" font-size="10.00">log_writer.hpp</text>
</a>
</g>
</g>
<!-- Node11&#45;&gt;Node17 -->
<g id="edge21" class="edge">
<title>Node11&#45;&gt;Node17</title>
<path fill="none" stroke="midnightblue" d="M252.91,-385.61C240.63,-375.72 225.16,-363.25 215.18,-355.2"/>
<polygon fill="midnightblue" stroke="midnightblue" points="250.37,-388.06 260.35,-391.61 254.76,-382.61 250.37,-388.06"/>
</g>
<!-- Node13 -->
<g id="node13" class="node">
<title>Node13</title>
<g id="a_node13"><a xlink:href="default__log_8hpp.html" target="_top" xlink:title=" ">
<polygon fill="white" stroke="black" points="182.5,-224.5 182.5,-243.5 265.5,-243.5 265.5,-224.5 182.5,-224.5"/>
<text text-anchor="middle" x="224" y="-231.5" font-family="Helvetica,sans-Serif" font-size="10.00">default_log.hpp</text>
</a>
</g>
</g>
<!-- Node12&#45;&gt;Node13 -->
<g id="edge15" class="edge">
<title>Node12&#45;&gt;Node13</title>
<path fill="none" stroke="midnightblue" d="M280.67,-274.23C266.34,-264.31 247.98,-251.6 236.1,-243.38"/>
<polygon fill="midnightblue" stroke="midnightblue" points="278.35,-276.89 288.57,-279.7 282.34,-271.13 278.35,-276.89"/>
</g>
<!-- Node15 -->
<g id="node15" class="node">
<title>Node15</title>
<g id="a_node15"><a xlink:href="log_8cpp.html" target="_top" xlink:title=" ">
<polygon fill="white" stroke="black" points="284,-224.5 284,-243.5 332,-243.5 332,-224.5 284,-224.5"/>
<text text-anchor="middle" x="308" y="-231.5" font-family="Helvetica,sans-Serif" font-size="10.00">log.cpp</text>
</a>
</g>
</g>
<!-- Node12&#45;&gt;Node15 -->
<g id="edge19" class="edge">
<title>Node12&#45;&gt;Node15</title>
<path fill="none" stroke="midnightblue" d="M304.18,-269.41C305.18,-260.38 306.32,-250.14 307.09,-243.2"/>
<polygon fill="midnightblue" stroke="midnightblue" points="300.73,-268.73 303.1,-279.06 307.69,-269.51 300.73,-268.73"/>
</g>
<!-- Node13&#45;&gt;Node2 -->
<g id="edge16" class="edge">
<title>Node13&#45;&gt;Node2</title>
<path fill="none" stroke="midnightblue" d="M276.58,-223.73C363.32,-208.61 452.38,-193.32 500.53,-185.07"/>
<polygon fill="midnightblue" stroke="midnightblue" points="276.21,-220.24 266.96,-225.41 277.41,-227.14 276.21,-220.24"/>
</g>
<!-- Node13&#45;&gt;Node5 -->
<g id="edge17" class="edge">
<title>Node13&#45;&gt;Node5</title>
<path fill="none" stroke="midnightblue" d="M242.91,-217.29C252.56,-208.95 264.29,-198.31 274,-188 331.37,-127.08 390.88,-45 409.26,-19.15"/>
<polygon fill="midnightblue" stroke="midnightblue" points="240.93,-214.38 235.57,-223.52 245.46,-219.72 240.93,-214.38"/>
</g>
<!-- Node14 -->
<g id="node14" class="node">
<title>Node14</title>
<g id="a_node14"><a xlink:href="default__log_8cpp.html" target="_top" xlink:title=" ">
<polygon fill="white" stroke="black" points="182.5,-168.5 182.5,-187.5 265.5,-187.5 265.5,-168.5 182.5,-168.5"/>
<text text-anchor="middle" x="224" y="-175.5" font-family="Helvetica,sans-Serif" font-size="10.00">default_log.cpp</text>
</a>
</g>
</g>
<!-- Node13&#45;&gt;Node14 -->
<g id="edge18" class="edge">
<title>Node13&#45;&gt;Node14</title>
<path fill="none" stroke="midnightblue" d="M224,-213.1C224,-204.14 224,-194.06 224,-187.2"/>
<polygon fill="midnightblue" stroke="midnightblue" points="220.5,-213.05 224,-223.05 227.5,-213.05 220.5,-213.05"/>
</g>
<!-- Node17&#45;&gt;Node12 -->
<g id="edge25" class="edge">
<title>Node17&#45;&gt;Node12</title>
<path fill="none" stroke="midnightblue" d="M230,-331.08C248.02,-321.05 271.76,-307.84 286.95,-299.38"/>
<polygon fill="midnightblue" stroke="midnightblue" points="228.51,-327.9 221.48,-335.83 231.92,-334.02 228.51,-327.9"/>
</g>
<!-- Node18 -->
<g id="node18" class="node">
<title>Node18</title>
<g id="a_node18"><a xlink:href="console__log__writer_8hpp.html" target="_top" xlink:title=" ">
<polygon fill="white" stroke="black" points="144,-280.5 144,-299.5 260,-299.5 260,-280.5 144,-280.5"/>
<text text-anchor="middle" x="202" y="-287.5" font-family="Helvetica,sans-Serif" font-size="10.00">console_log_writer.hpp</text>
</a>
</g>
</g>
<!-- Node17&#45;&gt;Node18 -->
<g id="edge22" class="edge">
<title>Node17&#45;&gt;Node18</title>
<path fill="none" stroke="midnightblue" d="M203.89,-325.1C203.4,-316.14 202.84,-306.06 202.46,-299.2"/>
<polygon fill="midnightblue" stroke="midnightblue" points="200.4,-325.26 204.45,-335.05 207.39,-324.87 200.4,-325.26"/>
</g>
<!-- Node18&#45;&gt;Node5 -->
<g id="edge24" class="edge">
<title>Node18&#45;&gt;Node5</title>
<path fill="none" stroke="midnightblue" d="M189.02,-271.55C174.8,-250.67 154,-214.11 154,-179 154,-179 154,-179 154,-121 154,-20.2 321.37,-10.3 388.05,-10.36"/>
<polygon fill="midnightblue" stroke="midnightblue" points="186,-273.35 194.65,-279.47 191.71,-269.29 186,-273.35"/>
</g>
<!-- Node18&#45;&gt;Node10 -->
<g id="edge23" class="edge">
<title>Node18&#45;&gt;Node10</title>
<path fill="none" stroke="midnightblue" d="M245.17,-277.68C284.12,-267.47 340.53,-252.69 375.7,-243.47"/>
<polygon fill="midnightblue" stroke="midnightblue" points="244.44,-274.26 235.65,-280.18 246.21,-281.03 244.44,-274.26"/>
</g>
<!-- Node19&#45;&gt;Node4 -->
<g id="edge27" class="edge">
<title>Node19&#45;&gt;Node4</title>
<path fill="none" stroke="midnightblue" d="M623.28,-493.59C620.85,-485.74 618.38,-476.53 617,-468 600.5,-365.69 608,-338.63 608,-235 608,-235 608,-235 608,-177 608,-146.77 602.31,-138.62 588,-112 580.34,-97.75 567.8,-83.73 559.47,-75.23"/>
<polygon fill="midnightblue" stroke="midnightblue" points="619.95,-494.68 626.4,-503.08 626.6,-492.48 619.95,-494.68"/>
</g>
<!-- Node20 -->
<g id="node20" class="node">
<title>Node20</title>
<g id="a_node20"><a xlink:href="event__type_8cpp.html" target="_top" xlink:title=" ">
<polygon fill="white" stroke="black" points="626.5,-448.5 626.5,-467.5 709.5,-467.5 709.5,-448.5 626.5,-448.5"/>
<text text-anchor="middle" x="668" y="-455.5" font-family="Helvetica,sans-Serif" font-size="10.00">event_type.cpp</text>
</a>
</g>
</g>
<!-- Node19&#45;&gt;Node20 -->
<g id="edge28" class="edge">
<title>Node19&#45;&gt;Node20</title>
<path fill="none" stroke="midnightblue" d="M642.5,-495.24C649.15,-485.79 657.01,-474.62 662.23,-467.2"/>
<polygon fill="midnightblue" stroke="midnightblue" points="639.7,-493.13 636.81,-503.32 645.43,-497.16 639.7,-493.13"/>
</g>
<!-- Node21&#45;&gt;Node2 -->
<g id="edge30" class="edge">
<title>Node21&#45;&gt;Node2</title>
<path fill="none" stroke="midnightblue" d="M502.88,-270.07C511.69,-245.84 526.59,-204.89 532.96,-187.36"/>
<polygon fill="midnightblue" stroke="midnightblue" points="499.65,-268.72 499.52,-279.31 506.23,-271.11 499.65,-268.72"/>
</g>
<!-- Node21&#45;&gt;Node5 -->
<g id="edge32" class="edge">
<title>Node21&#45;&gt;Node5</title>
<path fill="none" stroke="midnightblue" d="M490.39,-269.74C474.3,-214.52 428.46,-57.19 417.41,-19.29"/>
<polygon fill="midnightblue" stroke="midnightblue" points="486.99,-270.61 493.15,-279.23 493.72,-268.65 486.99,-270.61"/>
</g>
<!-- Node21&#45;&gt;Node10 -->
<g id="edge31" class="edge">
<title>Node21&#45;&gt;Node10</title>
<path fill="none" stroke="midnightblue" d="M472.86,-274.8C456.57,-264.8 435.31,-251.76 421.65,-243.38"/>
<polygon fill="midnightblue" stroke="midnightblue" points="470.61,-277.52 480.96,-279.77 474.27,-271.56 470.61,-277.52"/>
</g>
<!-- Node22&#45;&gt;Node5 -->
<g id="edge35" class="edge">
<title>Node22&#45;&gt;Node5</title>
<path fill="none" stroke="midnightblue" d="M738,-493.36C738,-471.35 738,-434.62 738,-403 738,-403 738,-403 738,-121 738,-58.65 519.61,-24.46 441.98,-14.28"/>
<polygon fill="midnightblue" stroke="midnightblue" points="734.5,-493.21 738,-503.21 741.5,-493.21 734.5,-493.21"/>
</g>
<!-- Node23 -->
<g id="node23" class="node">
<title>Node23</title>
<g id="a_node23"><a xlink:href="random_8cpp.html" target="_top" xlink:title=" ">
<polygon fill="white" stroke="black" points="766,-448.5 766,-467.5 834,-467.5 834,-448.5 766,-448.5"/>
<text text-anchor="middle" x="800" y="-455.5" font-family="Helvetica,sans-Serif" font-size="10.00">random.cpp</text>
</a>
</g>
</g>
<!-- Node22&#45;&gt;Node23 -->
<g id="edge36" class="edge">
<title>Node22&#45;&gt;Node23</title>
<path fill="none" stroke="midnightblue" d="M756.34,-497.03C767.59,-487.23 781.53,-475.09 790.58,-467.2"/>
<polygon fill="midnightblue" stroke="midnightblue" points="754.07,-494.36 748.83,-503.57 758.67,-499.64 754.07,-494.36"/>
</g>
<!-- Node24&#45;&gt;Node5 -->
<g id="edge38" class="edge">
<title>Node24&#45;&gt;Node5</title>
<path fill="none" stroke="midnightblue" d="M862,-493.36C862,-471.35 862,-434.62 862,-403 862,-403 862,-403 862,-121 862,-33.99 538.6,-15.41 441.96,-11.81"/>
<polygon fill="midnightblue" stroke="midnightblue" points="858.5,-493.21 862,-503.21 865.5,-493.21 858.5,-493.21"/>
</g>
<!-- Node25 -->
<g id="node25" class="node">
<title>Node25</title>
<g id="a_node25"><a xlink:href="time_8cpp.html" target="_top" xlink:title=" ">
<polygon fill="white" stroke="black" points="890,-448.5 890,-467.5 944,-467.5 944,-448.5 890,-448.5"/>
<text text-anchor="middle" x="917" y="-455.5" font-family="Helvetica,sans-Serif" font-size="10.00">time.cpp</text>
</a>
</g>
</g>
<!-- Node24&#45;&gt;Node25 -->
<g id="edge39" class="edge">
<title>Node24&#45;&gt;Node25</title>
<path fill="none" stroke="midnightblue" d="M878.57,-496.73C888.5,-486.99 900.69,-475.01 908.65,-467.2"/>
<polygon fill="midnightblue" stroke="midnightblue" points="876.36,-494 871.67,-503.5 881.26,-498.99 876.36,-494"/>
</g>
<!-- Node26&#45;&gt;Node5 -->
<g id="edge41" class="edge">
<title>Node26&#45;&gt;Node5</title>
<path fill="none" stroke="midnightblue" d="M972,-493.36C972,-471.35 972,-434.62 972,-403 972,-403 972,-403 972,-121 972,-11.59 553.13,-9.22 441.87,-10.52"/>
<polygon fill="midnightblue" stroke="midnightblue" points="968.5,-493.21 972,-503.21 975.5,-493.21 968.5,-493.21"/>
</g>
<!-- Node27 -->
<g id="node27" class="node">
<title>Node27</title>
<g id="a_node27"><a xlink:href="uuid_8cpp.html" target="_top" xlink:title=" ">
<polygon fill="white" stroke="black" points="1000.5,-448.5 1000.5,-467.5 1053.5,-467.5 1053.5,-448.5 1000.5,-448.5"/>
<text text-anchor="middle" x="1027" y="-455.5" font-family="Helvetica,sans-Serif" font-size="10.00">uuid.cpp</text>
</a>
</g>
</g>
<!-- Node26&#45;&gt;Node27 -->
<g id="edge42" class="edge">
<title>Node26&#45;&gt;Node27</title>
<path fill="none" stroke="midnightblue" d="M988.57,-496.73C998.5,-486.99 1010.69,-475.01 1018.65,-467.2"/>
<polygon fill="midnightblue" stroke="midnightblue" points="986.36,-494 981.67,-503.5 991.26,-498.99 986.36,-494"/>
</g>
</g>
</svg>
        <g id="navigator" transform="translate(0 0)" fill="#404254">
                <rect fill="#f2f5e9" fill-opacity="0.5" stroke="#606060" stroke-width=".5" x="0" y="0" width="60" height="60"/>
                <use id="zoomplus" xlink:href="#zoomPlus" x="17" y="9" onmousedown="handleZoom(evt,'in')"/>
                <use id="zoomminus" xlink:href="#zoomMin" x="42" y="9" onmousedown="handleZoom(evt,'out')"/>
                <use id="reset" xlink:href="#resetDef" x="30" y="36" onmousedown="handleReset()"/>
                <g id="arrowUp" xlink:href="#dirArrow" transform="translate(30 24)" onmousedown="handlePan(0,-1)">
                  <use xlink:href="#rim" fill="#404040">
                        <set attributeName="fill" to="#808080" begin="arrowUp.mouseover" end="arrowUp.mouseout"/>
                  </use>
                  <path fill="none" stroke="white" stroke-width="1.5" d="M0,-3.0v7 M-2.5,-0.5L0,-3.0L2.5,-0.5"/>
                </g>
                <g id="arrowRight" xlink:href="#dirArrow" transform="rotate(90) translate(36 -43)" onmousedown="handlePan(1,0)">
                  <use xlink:href="#rim" fill="#404040">
                        <set attributeName="fill" to="#808080" begin="arrowRight.mouseover" end="arrowRight.mouseout"/>
                  </use>
                  <path fill="none" stroke="white" stroke-width="1.5" d="M0,-3.0v7 M-2.5,-0.5L0,-3.0L2.5,-0.5"/>
                </g>
                <g id="arrowDown" xlink:href="#dirArrow" transform="rotate(180) translate(-30 -48)" onmousedown="handlePan(0,1)">
                  <use xlink:href="#rim" fill="#404040">
                        <set attributeName="fill" to="#808080" begin="arrowDown.mouseover" end="arrowDown.mouseout"/>
                  </use>
                  <path fill="none" stroke="white" stroke-width="1.5" d="M0,-3.0v7 M-2.5,-0.5L0,-3.0L2.5,-0.5"/>
                </g>
                <g id="arrowLeft" xlink:href="#dirArrow" transform="rotate(270) translate(-36 17)" onmousedown="handlePan(-1,0)">
                  <use xlink:href="#rim" fill="#404040">
                        <set attributeName="fill" to="#808080" begin="arrowLeft.mouseover" end="arrowLeft.mouseout"/>
                  </use>
                  <path fill="none" stroke="white" stroke-width="1.5" d="M0,-3.0v7 M-2.5,-0.5L0,-3.0L2.5,-0.5"/>
                </g>
        </g>
        <svg viewBox="0 0 15 15" width="100%" height="30px" preserveAspectRatio="xMaxYMin meet">
         <g id="arrow_out" transform="scale(0.3 0.3)">
          <a xlink:href="types_8hpp__dep__incl_org.svg" target="_base">
           <rect id="button" ry="5" rx="5" y="6" x="6" height="38" width="38"
                fill="#f2f5e9" fill-opacity="0.5" stroke="#606060" stroke-width="1.0"/>
           <path id="arrow"
             d="M 11.500037,31.436501 C 11.940474,20.09759 22.043105,11.32322 32.158766,21.979434 L 37.068811,17.246167 C 37.068811,17.246167 37.088388,32 37.088388,32 L 22.160133,31.978069 C 22.160133,31.978069 26.997745,27.140456 26.997745,27.140456 C 18.528582,18.264221 13.291696,25.230495 11.500037,31.436501 z"
             style="fill:#404040;"/>
          </a>
         </g>
        </svg>
</svg>
