<?xml version="1.0" encoding="UTF-8" standalone="no"?>
<!DOCTYPE svg PUBLIC "-//W3C//DTD SVG 1.1//EN"
 "http://www.w3.org/Graphics/SVG/1.1/DTD/svg11.dtd">
<!-- Generated by graphviz version 7.1.0 (20230121.1956)
 -->
<!-- Title: types.hpp Pages: 1 -->
<svg width="911pt" height="588pt"
 viewBox="0.00 0.00 910.52 588.00" xmlns="http://www.w3.org/2000/svg" xmlns:xlink="http://www.w3.org/1999/xlink">
<g id="graph0" class="graph" transform="scale(1 1) rotate(0) translate(4 584)">
<title>types.hpp</title>
<polygon fill="white" stroke="none" points="-4,4 -4,-584 906.52,-584 906.52,4 -4,4"/>
<!-- Node1 -->
<g id="node1" class="node">
<title>Node1</title>
<g id="a_node1"><a xlink:title=" ">
<polygon fill="#bfbfbf" stroke="black" points="289.52,-560.5 289.52,-579.5 348.52,-579.5 348.52,-560.5 289.52,-560.5"/>
<text text-anchor="middle" x="319.02" y="-567.5" font-family="Helvetica,sans-Serif" font-size="10.00">types.hpp</text>
</a>
</g>
</g>
<!-- Node2 -->
<g id="node2" class="node">
<title>Node2</title>
<g id="a_node2"><a xlink:href="callback_8hpp.html" target="_top" xlink:title=" ">
<polygon fill="white" stroke="black" points="195.52,-168.5 195.52,-187.5 266.52,-187.5 266.52,-168.5 195.52,-168.5"/>
<text text-anchor="middle" x="231.02" y="-175.5" font-family="Helvetica,sans-Serif" font-size="10.00">callback.hpp</text>
</a>
</g>
</g>
<!-- Node1&#45;&gt;Node2 -->
<g id="edge1" class="edge">
<title>Node1&#45;&gt;Node2</title>
<path fill="none" stroke="midnightblue" d="M279.93,-556.35C263.38,-549.22 245.16,-538.72 233.02,-524 166.9,-443.84 181.07,-402.82 166.02,-300 159.15,-253.05 202.24,-205.98 221.76,-187.34"/>
<polygon fill="midnightblue" stroke="midnightblue" points="278.49,-559.55 289.07,-560 281.08,-553.05 278.49,-559.55"/>
</g>
<!-- Node5 -->
<g id="node5" class="node">
<title>Node5</title>
<g id="a_node5"><a xlink:href="core_8hpp.html" target="_top" xlink:title=" ">
<polygon fill="white" stroke="black" points="408.02,-0.5 408.02,-19.5 462.02,-19.5 462.02,-0.5 408.02,-0.5"/>
<text text-anchor="middle" x="435.02" y="-7.5" font-family="Helvetica,sans-Serif" font-size="10.00">core.hpp</text>
</a>
</g>
</g>
<!-- Node1&#45;&gt;Node5 -->
<g id="edge5" class="edge">
<title>Node1&#45;&gt;Node5</title>
<path fill="none" stroke="midnightblue" d="M278.47,-565.33C214.88,-559.03 95.12,-544.79 58.02,-524 24.5,-505.22 1.02,-497.42 1.02,-459 1.02,-459 1.02,-459 1.02,-121 1.02,-90.9 -3.06,-75.33 20.02,-56 49.81,-31.05 321.03,-16.32 408.19,-12.2"/>
<polygon fill="midnightblue" stroke="midnightblue" points="277.86,-568.79 288.16,-566.27 278.54,-561.82 277.86,-568.79"/>
</g>
<!-- Node6 -->
<g id="node6" class="node">
<title>Node6</title>
<g id="a_node6"><a xlink:href="enum__bitmask_8hpp.html" target="_top" xlink:title=" ">
<polygon fill="white" stroke="black" points="583.52,-392.5 583.52,-411.5 682.52,-411.5 682.52,-392.5 583.52,-392.5"/>
<text text-anchor="middle" x="633.02" y="-399.5" font-family="Helvetica,sans-Serif" font-size="10.00">enum_bitmask.hpp</text>
</a>
</g>
</g>
<!-- Node1&#45;&gt;Node6 -->
<g id="edge6" class="edge">
<title>Node1&#45;&gt;Node6</title>
<path fill="none" stroke="midnightblue" d="M359.58,-563.18C396.07,-556.89 450.49,-544.84 494.02,-524 553.75,-495.4 607.77,-433.94 626.26,-411.46"/>
<polygon fill="midnightblue" stroke="midnightblue" points="359.19,-559.7 349.89,-564.78 360.33,-566.6 359.19,-559.7"/>
</g>
<!-- Node7 -->
<g id="node7" class="node">
<title>Node7</title>
<g id="a_node7"><a xlink:href="enum__class_8hpp.html" target="_top" xlink:title=" ">
<polygon fill="white" stroke="black" points="397.02,-504.5 397.02,-523.5 485.02,-523.5 485.02,-504.5 397.02,-504.5"/>
<text text-anchor="middle" x="441.02" y="-511.5" font-family="Helvetica,sans-Serif" font-size="10.00">enum_class.hpp</text>
</a>
</g>
</g>
<!-- Node1&#45;&gt;Node7 -->
<g id="edge8" class="edge">
<title>Node1&#45;&gt;Node7</title>
<path fill="none" stroke="midnightblue" d="M348.57,-555.92C371.45,-545.79 402.44,-532.07 422.09,-523.38"/>
<polygon fill="midnightblue" stroke="midnightblue" points="347.19,-552.7 339.47,-559.95 350.03,-559.1 347.19,-552.7"/>
</g>
<!-- Node11 -->
<g id="node11" class="node">
<title>Node11</title>
<g id="a_node11"><a xlink:href="log__message_8hpp.html" target="_top" xlink:title=" ">
<polygon fill="white" stroke="black" points="287.52,-392.5 287.52,-411.5 380.52,-411.5 380.52,-392.5 287.52,-392.5"/>
<text text-anchor="middle" x="334.02" y="-399.5" font-family="Helvetica,sans-Serif" font-size="10.00">log_message.hpp</text>
</a>
</g>
</g>
<!-- Node1&#45;&gt;Node11 -->
<g id="edge33" class="edge">
<title>Node1&#45;&gt;Node11</title>
<path fill="none" stroke="midnightblue" d="M320.78,-549.52C324.06,-513.19 330.99,-436.49 333.27,-411.25"/>
<polygon fill="midnightblue" stroke="midnightblue" points="317.33,-548.76 319.92,-559.03 324.31,-549.39 317.33,-548.76"/>
</g>
<!-- Node19 -->
<g id="node19" class="node">
<title>Node19</title>
<g id="a_node19"><a xlink:href="event__type_8hpp.html" target="_top" xlink:title=" ">
<polygon fill="white" stroke="black" points="67.52,-504.5 67.52,-523.5 150.52,-523.5 150.52,-504.5 67.52,-504.5"/>
<text text-anchor="middle" x="109.02" y="-511.5" font-family="Helvetica,sans-Serif" font-size="10.00">event_type.hpp</text>
</a>
</g>
</g>
<!-- Node1&#45;&gt;Node19 -->
<g id="edge26" class="edge">
<title>Node1&#45;&gt;Node19</title>
<path fill="none" stroke="midnightblue" d="M278.92,-558.69C239.1,-548.45 178.8,-532.94 141.77,-523.42"/>
<polygon fill="midnightblue" stroke="midnightblue" points="277.8,-562.01 288.35,-561.11 279.54,-555.23 277.8,-562.01"/>
</g>
<!-- Node21 -->
<g id="node21" class="node">
<title>Node21</title>
<g id="a_node21"><a xlink:href="log__channels_8hpp_source.html" target="_top" xlink:title=" ">
<polygon fill="white" stroke="black" points="175.02,-280.5 175.02,-299.5 267.02,-299.5 267.02,-280.5 175.02,-280.5"/>
<text text-anchor="middle" x="221.02" y="-287.5" font-family="Helvetica,sans-Serif" font-size="10.00">log_channels.hpp</text>
</a>
</g>
</g>
<!-- Node1&#45;&gt;Node21 -->
<g id="edge29" class="edge">
<title>Node1&#45;&gt;Node21</title>
<path fill="none" stroke="midnightblue" d="M293.25,-554.81C264.21,-536.71 221.02,-502.47 221.02,-459 221.02,-459 221.02,-459 221.02,-401 221.02,-363 221.02,-317.61 221.02,-299.28"/>
<polygon fill="midnightblue" stroke="midnightblue" points="291.15,-557.63 301.54,-559.75 294.74,-551.62 291.15,-557.63"/>
</g>
<!-- Node22 -->
<g id="node22" class="node">
<title>Node22</title>
<g id="a_node22"><a xlink:href="time_8hpp.html" target="_top" xlink:title=" ">
<polygon fill="white" stroke="black" points="684.02,-504.5 684.02,-523.5 738.02,-523.5 738.02,-504.5 684.02,-504.5"/>
<text text-anchor="middle" x="711.02" y="-511.5" font-family="Helvetica,sans-Serif" font-size="10.00">time.hpp</text>
</a>
</g>
</g>
<!-- Node1&#45;&gt;Node22 -->
<g id="edge34" class="edge">
<title>Node1&#45;&gt;Node22</title>
<path fill="none" stroke="midnightblue" d="M359.59,-563.41C439.77,-552.37 616.59,-528.01 684.1,-518.71"/>
<polygon fill="midnightblue" stroke="midnightblue" points="359.41,-559.9 349.98,-564.73 360.37,-566.84 359.41,-559.9"/>
</g>
<!-- Node24 -->
<g id="node24" class="node">
<title>Node24</title>
<g id="a_node24"><a xlink:href="uuid_8hpp.html" target="_top" xlink:title=" ">
<polygon fill="white" stroke="black" points="794.52,-504.5 794.52,-523.5 847.52,-523.5 847.52,-504.5 794.52,-504.5"/>
<text text-anchor="middle" x="821.02" y="-511.5" font-family="Helvetica,sans-Serif" font-size="10.00">uuid.hpp</text>
</a>
</g>
</g>
<!-- Node1&#45;&gt;Node24 -->
<g id="edge37" class="edge">
<title>Node1&#45;&gt;Node24</title>
<path fill="none" stroke="midnightblue" d="M359.76,-564.94C435.87,-557.3 604.85,-540.12 747.02,-524 762.84,-522.21 780.54,-520.06 794.66,-518.31"/>
<polygon fill="midnightblue" stroke="midnightblue" points="359.46,-561.45 349.86,-565.93 360.16,-568.42 359.46,-561.45"/>
</g>
<!-- Node3 -->
<g id="node3" class="node">
<title>Node3</title>
<g id="a_node3"><a xlink:href="event__sink_8hpp.html" target="_top" xlink:title=" ">
<polygon fill="white" stroke="black" points="195.52,-112.5 195.52,-131.5 278.52,-131.5 278.52,-112.5 195.52,-112.5"/>
<text text-anchor="middle" x="237.02" y="-119.5" font-family="Helvetica,sans-Serif" font-size="10.00">event_sink.hpp</text>
</a>
</g>
</g>
<!-- Node2&#45;&gt;Node3 -->
<g id="edge2" class="edge">
<title>Node2&#45;&gt;Node3</title>
<path fill="none" stroke="midnightblue" d="M233.2,-157.41C234.2,-148.38 235.34,-138.14 236.11,-131.2"/>
<polygon fill="midnightblue" stroke="midnightblue" points="229.75,-156.73 232.12,-167.06 236.71,-157.51 229.75,-156.73"/>
</g>
<!-- Node4 -->
<g id="node4" class="node">
<title>Node4</title>
<g id="a_node4"><a xlink:href="event__dispatcher_8hpp.html" target="_top" xlink:title=" ">
<polygon fill="white" stroke="black" points="29.52,-56.5 29.52,-75.5 138.52,-75.5 138.52,-56.5 29.52,-56.5"/>
<text text-anchor="middle" x="84.02" y="-63.5" font-family="Helvetica,sans-Serif" font-size="10.00">event_dispatcher.hpp</text>
</a>
</g>
</g>
<!-- Node3&#45;&gt;Node4 -->
<g id="edge3" class="edge">
<title>Node3&#45;&gt;Node4</title>
<path fill="none" stroke="midnightblue" d="M202.31,-108.75C173.52,-98.59 133.34,-84.41 108.01,-75.47"/>
<polygon fill="midnightblue" stroke="midnightblue" points="201.09,-112.03 211.69,-112.06 203.42,-105.43 201.09,-112.03"/>
</g>
<!-- Node4&#45;&gt;Node5 -->
<g id="edge4" class="edge">
<title>Node4&#45;&gt;Node5</title>
<path fill="none" stroke="midnightblue" d="M149.61,-54.91C227.52,-42.92 353.79,-23.5 408.43,-15.09"/>
<polygon fill="midnightblue" stroke="midnightblue" points="149.32,-51.41 139.97,-56.39 150.39,-58.33 149.32,-51.41"/>
</g>
<!-- Node6&#45;&gt;Node5 -->
<g id="edge7" class="edge">
<title>Node6&#45;&gt;Node5</title>
<path fill="none" stroke="midnightblue" d="M634.16,-381.37C635.35,-359.37 637.02,-322.64 637.02,-291 637.02,-291 637.02,-291 637.02,-121 637.02,-90.2 635.92,-76.59 613.02,-56 570.47,-17.74 500.08,-11.01 461.81,-10.41"/>
<polygon fill="midnightblue" stroke="midnightblue" points="630.68,-381.03 633.61,-391.21 637.67,-381.43 630.68,-381.03"/>
</g>
<!-- Node7&#45;&gt;Node5 -->
<g id="edge9" class="edge">
<title>Node7&#45;&gt;Node5</title>
<path fill="none" stroke="midnightblue" d="M487.43,-500.68C505.05,-493.78 523.79,-483.38 536.02,-468 576.91,-416.54 599.02,-244.73 599.02,-179 599.02,-179 599.02,-179 599.02,-121 599.02,-55.69 508.2,-26.67 461.73,-16.09"/>
<polygon fill="midnightblue" stroke="midnightblue" points="486.34,-497.35 478.1,-504.02 488.7,-503.94 486.34,-497.35"/>
</g>
<!-- Node8 -->
<g id="node8" class="node">
<title>Node8</title>
<g id="a_node8"><a xlink:href="enum__class_8cpp.html" target="_top" xlink:title=" ">
<polygon fill="white" stroke="black" points="347.02,-448.5 347.02,-467.5 435.02,-467.5 435.02,-448.5 347.02,-448.5"/>
<text text-anchor="middle" x="391.02" y="-455.5" font-family="Helvetica,sans-Serif" font-size="10.00">enum_class.cpp</text>
</a>
</g>
</g>
<!-- Node7&#45;&gt;Node8 -->
<g id="edge10" class="edge">
<title>Node7&#45;&gt;Node8</title>
<path fill="none" stroke="midnightblue" d="M425.41,-496.14C416.48,-486.5 405.7,-474.85 398.61,-467.2"/>
<polygon fill="midnightblue" stroke="midnightblue" points="422.82,-498.49 432.18,-503.45 427.95,-493.74 422.82,-498.49"/>
</g>
<!-- Node9 -->
<g id="node9" class="node">
<title>Node9</title>
<g id="a_node9"><a xlink:href="log__level_8hpp.html" target="_top" xlink:title=" ">
<polygon fill="white" stroke="black" points="453.02,-448.5 453.02,-467.5 527.02,-467.5 527.02,-448.5 453.02,-448.5"/>
<text text-anchor="middle" x="490.02" y="-455.5" font-family="Helvetica,sans-Serif" font-size="10.00">log_level.hpp</text>
</a>
</g>
</g>
<!-- Node7&#45;&gt;Node9 -->
<g id="edge11" class="edge">
<title>Node7&#45;&gt;Node9</title>
<path fill="none" stroke="midnightblue" d="M456.32,-496.14C465.06,-486.5 475.63,-474.85 482.58,-467.2"/>
<polygon fill="midnightblue" stroke="midnightblue" points="453.82,-493.68 449.69,-503.44 459,-498.39 453.82,-493.68"/>
</g>
<!-- Node10 -->
<g id="node10" class="node">
<title>Node10</title>
<g id="a_node10"><a xlink:href="console__log__writer_8cpp.html" target="_top" xlink:title=" ">
<polygon fill="white" stroke="black" points="455.02,-224.5 455.02,-243.5 571.02,-243.5 571.02,-224.5 455.02,-224.5"/>
<text text-anchor="middle" x="513.02" y="-231.5" font-family="Helvetica,sans-Serif" font-size="10.00">console_log_writer.cpp</text>
</a>
</g>
</g>
<!-- Node9&#45;&gt;Node10 -->
<g id="edge12" class="edge">
<title>Node9&#45;&gt;Node10</title>
<path fill="none" stroke="midnightblue" d="M492.08,-437.12C496.91,-390.48 508.82,-275.53 512.14,-243.44"/>
<polygon fill="midnightblue" stroke="midnightblue" points="488.6,-436.76 491.05,-447.06 495.56,-437.48 488.6,-436.76"/>
</g>
<!-- Node9&#45;&gt;Node11 -->
<g id="edge13" class="edge">
<title>Node9&#45;&gt;Node11</title>
<path fill="none" stroke="midnightblue" d="M455.02,-444.89C425.64,-434.72 384.42,-420.45 358.48,-411.47"/>
<polygon fill="midnightblue" stroke="midnightblue" points="453.62,-448.1 464.21,-448.07 455.91,-441.49 453.62,-448.1"/>
</g>
<!-- Node12 -->
<g id="node12" class="node">
<title>Node12</title>
<g id="a_node12"><a xlink:href="log_8hpp.html" target="_top" xlink:title=" ">
<polygon fill="white" stroke="black" points="294.02,-280.5 294.02,-299.5 342.02,-299.5 342.02,-280.5 294.02,-280.5"/>
<text text-anchor="middle" x="318.02" y="-287.5" font-family="Helvetica,sans-Serif" font-size="10.00">log.hpp</text>
</a>
</g>
</g>
<!-- Node11&#45;&gt;Node12 -->
<g id="edge14" class="edge">
<title>Node11&#45;&gt;Node12</title>
<path fill="none" stroke="midnightblue" d="M307.39,-386.42C296.47,-378.9 285.01,-368.63 279.02,-356 268.87,-334.59 292.28,-311.15 307.07,-299.12"/>
<polygon fill="midnightblue" stroke="midnightblue" points="305.48,-389.36 315.81,-391.73 309.22,-383.44 305.48,-389.36"/>
</g>
<!-- Node16 -->
<g id="node16" class="node">
<title>Node16</title>
<g id="a_node16"><a xlink:href="log__message_8cpp.html" target="_top" xlink:title=" ">
<polygon fill="white" stroke="black" points="287.52,-336.5 287.52,-355.5 380.52,-355.5 380.52,-336.5 287.52,-336.5"/>
<text text-anchor="middle" x="334.02" y="-343.5" font-family="Helvetica,sans-Serif" font-size="10.00">log_message.cpp</text>
</a>
</g>
</g>
<!-- Node11&#45;&gt;Node16 -->
<g id="edge20" class="edge">
<title>Node11&#45;&gt;Node16</title>
<path fill="none" stroke="midnightblue" d="M334.02,-381.1C334.02,-372.14 334.02,-362.06 334.02,-355.2"/>
<polygon fill="midnightblue" stroke="midnightblue" points="330.52,-381.05 334.02,-391.05 337.52,-381.05 330.52,-381.05"/>
</g>
<!-- Node17 -->
<g id="node17" class="node">
<title>Node17</title>
<g id="a_node17"><a xlink:href="log__writer_8hpp.html" target="_top" xlink:title=" ">
<polygon fill="white" stroke="black" points="398.52,-336.5 398.52,-355.5 475.52,-355.5 475.52,-336.5 398.52,-336.5"/>
<text text-anchor="middle" x="437.02" y="-343.5" font-family="Helvetica,sans-Serif" font-size="10.00">log_writer.hpp</text>
</a>
</g>
</g>
<!-- Node11&#45;&gt;Node17 -->
<g id="edge21" class="edge">
<title>Node11&#45;&gt;Node17</title>
<path fill="none" stroke="midnightblue" d="M360.3,-387.22C379.47,-377.17 404.83,-363.88 421.04,-355.38"/>
<polygon fill="midnightblue" stroke="midnightblue" points="358.68,-384.12 351.45,-391.86 361.93,-390.32 358.68,-384.12"/>
</g>
<!-- Node13 -->
<g id="node13" class="node">
<title>Node13</title>
<g id="a_node13"><a xlink:href="default__log_8hpp.html" target="_top" xlink:title=" ">
<polygon fill="white" stroke="black" points="249.52,-224.5 249.52,-243.5 332.52,-243.5 332.52,-224.5 249.52,-224.5"/>
<text text-anchor="middle" x="291.02" y="-231.5" font-family="Helvetica,sans-Serif" font-size="10.00">default_log.hpp</text>
</a>
</g>
</g>
<!-- Node12&#45;&gt;Node13 -->
<g id="edge15" class="edge">
<title>Node12&#45;&gt;Node13</title>
<path fill="none" stroke="midnightblue" d="M308.68,-270.33C304.06,-261.08 298.71,-250.38 295.12,-243.2"/>
<polygon fill="midnightblue" stroke="midnightblue" points="305.52,-271.83 313.12,-279.21 311.78,-268.7 305.52,-271.83"/>
</g>
<!-- Node15 -->
<g id="node15" class="node">
<title>Node15</title>
<g id="a_node15"><a xlink:href="log_8cpp.html" target="_top" xlink:title=" ">
<polygon fill="white" stroke="black" points="351.02,-224.5 351.02,-243.5 399.02,-243.5 399.02,-224.5 351.02,-224.5"/>
<text text-anchor="middle" x="375.02" y="-231.5" font-family="Helvetica,sans-Serif" font-size="10.00">log.cpp</text>
</a>
</g>
</g>
<!-- Node12&#45;&gt;Node15 -->
<g id="edge19" class="edge">
<title>Node12&#45;&gt;Node15</title>
<path fill="none" stroke="midnightblue" d="M335.19,-272.73C345.48,-262.99 358.12,-251.01 366.36,-243.2"/>
<polygon fill="midnightblue" stroke="midnightblue" points="332.88,-270.1 328.02,-279.52 337.69,-275.18 332.88,-270.1"/>
</g>
<!-- Node13&#45;&gt;Node2 -->
<g id="edge16" class="edge">
<title>Node13&#45;&gt;Node2</title>
<path fill="none" stroke="midnightblue" d="M273.27,-217.03C262.38,-207.23 248.9,-195.09 240.13,-187.2"/>
<polygon fill="midnightblue" stroke="midnightblue" points="270.74,-219.46 280.52,-223.55 275.43,-214.26 270.74,-219.46"/>
</g>
<!-- Node13&#45;&gt;Node5 -->
<g id="edge17" class="edge">
<title>Node13&#45;&gt;Node5</title>
<path fill="none" stroke="midnightblue" d="M296.39,-213.96C300.54,-200.64 306.94,-182.68 315.02,-168 349.26,-105.79 406.59,-41.53 427.28,-19.22"/>
<polygon fill="midnightblue" stroke="midnightblue" points="293.14,-212.62 293.66,-223.2 299.85,-214.61 293.14,-212.62"/>
</g>
<!-- Node14 -->
<g id="node14" class="node">
<title>Node14</title>
<g id="a_node14"><a xlink:href="default__log_8cpp.html" target="_top" xlink:title=" ">
<polygon fill="white" stroke="black" points="323.52,-168.5 323.52,-187.5 406.52,-187.5 406.52,-168.5 323.52,-168.5"/>
<text text-anchor="middle" x="365.02" y="-175.5" font-family="Helvetica,sans-Serif" font-size="10.00">default_log.cpp</text>
</a>
</g>
</g>
<!-- Node13&#45;&gt;Node14 -->
<g id="edge18" class="edge">
<title>Node13&#45;&gt;Node14</title>
<path fill="none" stroke="midnightblue" d="M311.71,-217.9C325.33,-207.96 342.65,-195.33 353.78,-187.2"/>
<polygon fill="midnightblue" stroke="midnightblue" points="309.82,-214.95 303.8,-223.67 313.94,-220.6 309.82,-214.95"/>
</g>
<!-- Node17&#45;&gt;Node12 -->
<g id="edge25" class="edge">
<title>Node17&#45;&gt;Node12</title>
<path fill="none" stroke="midnightblue" d="M408.19,-331.92C385.88,-321.79 355.64,-308.07 336.48,-299.38"/>
<polygon fill="midnightblue" stroke="midnightblue" points="406.49,-334.99 417.05,-335.94 409.39,-328.62 406.49,-334.99"/>
</g>
<!-- Node18 -->
<g id="node18" class="node">
<title>Node18</title>
<g id="a_node18"><a xlink:href="console__log__writer_8hpp.html" target="_top" xlink:title=" ">
<polygon fill="white" stroke="black" points="369.02,-280.5 369.02,-299.5 485.02,-299.5 485.02,-280.5 369.02,-280.5"/>
<text text-anchor="middle" x="427.02" y="-287.5" font-family="Helvetica,sans-Serif" font-size="10.00">console_log_writer.hpp</text>
</a>
</g>
</g>
<!-- Node17&#45;&gt;Node18 -->
<g id="edge22" class="edge">
<title>Node17&#45;&gt;Node18</title>
<path fill="none" stroke="midnightblue" d="M433.39,-325.41C431.72,-316.38 429.82,-306.14 428.54,-299.2"/>
<polygon fill="midnightblue" stroke="midnightblue" points="429.92,-325.88 435.18,-335.07 436.8,-324.6 429.92,-325.88"/>
</g>
<!-- Node18&#45;&gt;Node5 -->
<g id="edge24" class="edge">
<title>Node18&#45;&gt;Node5</title>
<path fill="none" stroke="midnightblue" d="M427.58,-269.39C429.18,-213.86 433.69,-57.11 434.78,-19.29"/>
<polygon fill="midnightblue" stroke="midnightblue" points="424.09,-269.07 427.3,-279.17 431.09,-269.27 424.09,-269.07"/>
</g>
<!-- Node18&#45;&gt;Node10 -->
<g id="edge23" class="edge">
<title>Node18&#45;&gt;Node10</title>
<path fill="none" stroke="midnightblue" d="M450.09,-274.52C465.95,-264.56 486.46,-251.68 499.68,-243.38"/>
<polygon fill="midnightblue" stroke="midnightblue" points="448.35,-271.48 441.74,-279.76 452.07,-277.4 448.35,-271.48"/>
</g>
<!-- Node19&#45;&gt;Node4 -->
<g id="edge27" class="edge">
<title>Node19&#45;&gt;Node4</title>
<path fill="none" stroke="midnightblue" d="M86.72,-497.86C76.66,-490.01 65.41,-479.63 58.02,-468 41.88,-442.6 39.02,-433.1 39.02,-403 39.02,-403 39.02,-403 39.02,-177 39.02,-136.35 65.67,-93.12 77.95,-75.36"/>
<polygon fill="midnightblue" stroke="midnightblue" points="84.48,-500.56 94.61,-503.67 88.63,-494.92 84.48,-500.56"/>
</g>
<!-- Node20 -->
<g id="node20" class="node">
<title>Node20</title>
<g id="a_node20"><a xlink:href="event__type_8cpp.html" target="_top" xlink:title=" ">
<polygon fill="white" stroke="black" points="67.52,-448.5 67.52,-467.5 150.52,-467.5 150.52,-448.5 67.52,-448.5"/>
<text text-anchor="middle" x="109.02" y="-455.5" font-family="Helvetica,sans-Serif" font-size="10.00">event_type.cpp</text>
</a>
</g>
</g>
<!-- Node19&#45;&gt;Node20 -->
<g id="edge28" class="edge">
<title>Node19&#45;&gt;Node20</title>
<path fill="none" stroke="midnightblue" d="M109.02,-493.1C109.02,-484.14 109.02,-474.06 109.02,-467.2"/>
<polygon fill="midnightblue" stroke="midnightblue" points="105.52,-493.05 109.02,-503.05 112.52,-493.05 105.52,-493.05"/>
</g>
<!-- Node21&#45;&gt;Node2 -->
<g id="edge30" class="edge">
<title>Node21&#45;&gt;Node2</title>
<path fill="none" stroke="midnightblue" d="M222.8,-269.41C225.01,-245.09 228.68,-204.73 230.26,-187.36"/>
<polygon fill="midnightblue" stroke="midnightblue" points="219.33,-268.95 221.91,-279.22 226.3,-269.58 219.33,-268.95"/>
</g>
<!-- Node21&#45;&gt;Node5 -->
<g id="edge32" class="edge">
<title>Node21&#45;&gt;Node5</title>
<path fill="none" stroke="midnightblue" d="M209.76,-271.28C189.79,-237.35 153.3,-162.14 187.02,-112 237.61,-36.77 355.02,-17.55 408.1,-12.66"/>
<polygon fill="midnightblue" stroke="midnightblue" points="206.57,-272.76 214.77,-279.47 212.54,-269.11 206.57,-272.76"/>
</g>
<!-- Node21&#45;&gt;Node10 -->
<g id="edge31" class="edge">
<title>Node21&#45;&gt;Node10</title>
<path fill="none" stroke="midnightblue" d="M277.99,-278.46C333.31,-268.23 416.21,-252.9 467.34,-243.45"/>
<polygon fill="midnightblue" stroke="midnightblue" points="277.65,-274.97 268.45,-280.23 278.92,-281.85 277.65,-274.97"/>
</g>
<!-- Node22&#45;&gt;Node5 -->
<g id="edge35" class="edge">
<title>Node22&#45;&gt;Node5</title>
<path fill="none" stroke="midnightblue" d="M711.02,-493.36C711.02,-471.35 711.02,-434.62 711.02,-403 711.02,-403 711.02,-403 711.02,-121 711.02,-76.55 674.76,-75.91 635.02,-56 577.58,-27.23 501.71,-16.66 461.96,-12.93"/>
<polygon fill="midnightblue" stroke="midnightblue" points="707.52,-493.21 711.02,-503.21 714.52,-493.21 707.52,-493.21"/>
</g>
<!-- Node23 -->
<g id="node23" class="node">
<title>Node23</title>
<g id="a_node23"><a xlink:href="time_8cpp.html" target="_top" xlink:title=" ">
<polygon fill="white" stroke="black" points="739.02,-448.5 739.02,-467.5 793.02,-467.5 793.02,-448.5 739.02,-448.5"/>
<text text-anchor="middle" x="766.02" y="-455.5" font-family="Helvetica,sans-Serif" font-size="10.00">time.cpp</text>
</a>
</g>
</g>
<!-- Node22&#45;&gt;Node23 -->
<g id="edge36" class="edge">
<title>Node22&#45;&gt;Node23</title>
<path fill="none" stroke="midnightblue" d="M727.59,-496.73C737.51,-486.99 749.71,-475.01 757.67,-467.2"/>
<polygon fill="midnightblue" stroke="midnightblue" points="725.38,-494 720.69,-503.5 730.28,-498.99 725.38,-494"/>
</g>
<!-- Node24&#45;&gt;Node5 -->
<g id="edge38" class="edge">
<title>Node24&#45;&gt;Node5</title>
<path fill="none" stroke="midnightblue" d="M821.02,-493.36C821.02,-471.35 821.02,-434.62 821.02,-403 821.02,-403 821.02,-403 821.02,-121 821.02,-46.18 549.39,-19.48 461.85,-12.82"/>
<polygon fill="midnightblue" stroke="midnightblue" points="817.52,-493.21 821.02,-503.21 824.52,-493.21 817.52,-493.21"/>
</g>
<!-- Node25 -->
<g id="node25" class="node">
<title>Node25</title>
<g id="a_node25"><a xlink:href="uuid_8cpp.html" target="_top" xlink:title=" ">
<polygon fill="white" stroke="black" points="849.52,-448.5 849.52,-467.5 902.52,-467.5 902.52,-448.5 849.52,-448.5"/>
<text text-anchor="middle" x="876.02" y="-455.5" font-family="Helvetica,sans-Serif" font-size="10.00">uuid.cpp</text>
</a>
</g>
</g>
<!-- Node24&#45;&gt;Node25 -->
<g id="edge39" class="edge">
<title>Node24&#45;&gt;Node25</title>
<path fill="none" stroke="midnightblue" d="M837.59,-496.73C847.51,-486.99 859.71,-475.01 867.67,-467.2"/>
<polygon fill="midnightblue" stroke="midnightblue" points="835.38,-494 830.69,-503.5 840.28,-498.99 835.38,-494"/>
</g>
</g>
</svg>
