<?xml version="1.0" encoding="UTF-8" standalone="no"?>
<!DOCTYPE svg PUBLIC "-//W3C//DTD SVG 1.1//EN"
 "http://www.w3.org/Graphics/SVG/1.1/DTD/svg11.dtd">
<!-- Generated by graphviz version 9.0.0 (20230911.1827)
 -->
<!-- Title: vulkan_utils.hpp Pages: 1 -->
<!--zoomable 425 -->

<svg id="main" version="1.1" xmlns="http://www.w3.org/2000/svg" xmlns:xlink="http://www.w3.org/1999/xlink" xml:space="preserve" onload="init(evt)">
<style type="text/css"><![CDATA[
.node, .edge {opacity: 0.7;}
.node.selected, .edge.selected {opacity: 1;}
.edge:hover path { stroke: red; }
.edge:hover polygon { stroke: red; fill: red; }
]]></style>

<defs>
  <circle id="rim" cx="0" cy="0" r="7"/>
  <circle id="rim2" cx="0" cy="0" r="3.5"/>
  <g id="zoomPlus">
    <use xlink:href="#rim" fill="#404040"><set attributeName="fill" to="#808080" begin="zoomplus.mouseover" end="zoomplus.mouseout"/></use>
    <path d="M-4,0h8M0,-4v8" fill="none" stroke="white" stroke-width="1.5" pointer-events="none"/>
  </g>
  <g id="zoomMin">
    <use xlink:href="#rim" fill="#404040"><set attributeName="fill" to="#808080" begin="zoomminus.mouseover" end="zoomminus.mouseout"/></use>
    <path d="M-4,0h8" fill="none" stroke="white" stroke-width="1.5" pointer-events="none"/>
  </g>
  <g id="arrowUp" transform="translate(30 24)">
    <use xlink:href="#rim"/>
    <path pointer-events="none" fill="none" stroke="white" stroke-width="1.5" d="M0,-3.0v7 M-2.5,-0.5L0,-3.0L2.5,-0.5"/>
  </g>
  <g id="arrowRight" transform="rotate(90) translate(36 -43)">
    <use xlink:href="#rim"/>
    <path pointer-events="none" fill="none" stroke="white" stroke-width="1.5" d="M0,-3.0v7 M-2.5,-0.5L0,-3.0L2.5,-0.5"/>
  </g>
  <g id="arrowDown" transform="rotate(180) translate(-30 -48)">
    <use xlink:href="#rim"/>
    <path pointer-events="none" fill="none" stroke="white" stroke-width="1.5" d="M0,-3.0v7 M-2.5,-0.5L0,-3.0L2.5,-0.5"/>
  </g>
  <g id="arrowLeft" transform="rotate(270) translate(-36 17)">
    <use xlink:href="#rim"/>
    <path pointer-events="none" fill="none" stroke="white" stroke-width="1.5" d="M0,-3.0v7 M-2.5,-0.5L0,-3.0L2.5,-0.5"/>
  </g>
  <g id="resetDef">
    <use xlink:href="#rim2" fill="#404040"><set attributeName="fill" to="#808080" begin="reset.mouseover" end="reset.mouseout"/></use>
  </g>
</defs>
<script type="application/ecmascript">
var viewWidth = 1735;
var viewHeight = 425;
var sectionId = 'dynsection-0';
</script>
<script type="application/ecmascript" xlink:href="svg.min.js"/>
<svg id="graph" class="graph">
<g id="viewport">
<title>vulkan_utils.hpp</title>
<!-- Node1 -->
<g id="Node000001" class="node">
<title>Node1</title>
<g id="a_Node000001"><a xlink:title=" ">
<polygon fill="#999999" stroke="#666666" points="1415.38,-417.25 1328.88,-417.25 1328.88,-398 1415.38,-398 1415.38,-417.25"/>
<text text-anchor="middle" x="1372.12" y="-403.75" font-family="Helvetica,sans-Serif" font-size="10.00">vulkan_utils.hpp</text>
</a>
</g>
</g>
<!-- Node2 -->
<g id="Node000002" class="node">
<title>Node2</title>
<g id="a_Node000002"><a xlink:href="default__log_8hpp.html" target="_top" xlink:title=" ">
<polygon fill="white" stroke="#666666" points="1360.38,-362 1219.88,-362 1219.88,-342.75 1360.38,-342.75 1360.38,-362"/>
<text text-anchor="middle" x="1290.12" y="-348.5" font-family="Helvetica,sans-Serif" font-size="10.00">liger/core/log/default_log.hpp</text>
</a>
</g>
</g>
<!-- Node1&#45;&gt;Node2 -->
<g id="edge1_Node000001_Node000002" class="edge">
<title>Node1&#45;&gt;Node2</title>
<g id="a_edge1_Node000001_Node000002"><a xlink:title=" ">
<path fill="none" stroke="#63b8ff" d="M1358.21,-397.59C1345.96,-389.64 1327.87,-377.89 1313.41,-368.5"/>
<polygon fill="#63b8ff" stroke="#63b8ff" points="1315.67,-365.79 1305.37,-363.28 1311.85,-371.66 1315.67,-365.79"/>
</a>
</g>
</g>
<!-- Node10 -->
<g id="Node000010" class="node">
<title>Node10</title>
<g id="a_Node000010"><a xlink:href="rhi__log__level_8hpp.html" target="_top" xlink:title=" ">
<polygon fill="white" stroke="#666666" points="1531.75,-362 1378.5,-362 1378.5,-342.75 1531.75,-342.75 1531.75,-362"/>
<text text-anchor="middle" x="1455.12" y="-348.5" font-family="Helvetica,sans-Serif" font-size="10.00">liger/render/rhi/rhi_log_level.hpp</text>
</a>
</g>
</g>
<!-- Node1&#45;&gt;Node10 -->
<g id="edge10_Node000001_Node000010" class="edge">
<title>Node1&#45;&gt;Node10</title>
<g id="a_edge10_Node000001_Node000010"><a xlink:title=" ">
<path fill="none" stroke="#63b8ff" d="M1386.2,-397.59C1398.61,-389.64 1416.92,-377.89 1431.55,-368.5"/>
<polygon fill="#63b8ff" stroke="#63b8ff" points="1433.18,-371.62 1439.7,-363.27 1429.4,-365.72 1433.18,-371.62"/>
</a>
</g>
</g>
<!-- Node11 -->
<g id="Node000011" class="node">
<title>Node11</title>
<g id="a_Node000011"><a xlink:href="device_8hpp.html" target="_top" xlink:title=" ">
<polygon fill="white" stroke="#666666" points="1107,-306.75 979.25,-306.75 979.25,-287.5 1107,-287.5 1107,-306.75"/>
<text text-anchor="middle" x="1043.12" y="-293.25" font-family="Helvetica,sans-Serif" font-size="10.00">liger/render/rhi/device.hpp</text>
</a>
</g>
</g>
<!-- Node1&#45;&gt;Node11 -->
<g id="edge11_Node000001_Node000011" class="edge">
<title>Node1&#45;&gt;Node11</title>
<g id="a_edge11_Node000001_Node000011"><a xlink:title=" ">
<path fill="none" stroke="#63b8ff" d="M1335.71,-397.56C1302.89,-389.15 1253.43,-375.87 1211.12,-362 1163.31,-346.32 1109.07,-325.05 1075.47,-311.45"/>
<polygon fill="#63b8ff" stroke="#63b8ff" points="1076.89,-308.25 1066.31,-307.72 1074.25,-314.73 1076.89,-308.25"/>
</a>
</g>
</g>
<!-- Node37 -->
<g id="Node000037" class="node">
<title>Node37</title>
<g id="a_Node000037"><a xlink:title=" ">
<polygon fill="#e0e0e0" stroke="#999999" points="1634.25,-362 1550,-362 1550,-342.75 1634.25,-342.75 1634.25,-362"/>
<text text-anchor="middle" x="1592.12" y="-348.5" font-family="Helvetica,sans-Serif" font-size="10.00">vulkan/vulkan.h</text>
</a>
</g>
</g>
<!-- Node1&#45;&gt;Node37 -->
<g id="edge58_Node000001_Node000037" class="edge">
<title>Node1&#45;&gt;Node37</title>
<g id="a_edge58_Node000001_Node000037"><a xlink:title=" ">
<path fill="none" stroke="#63b8ff" d="M1409.45,-397.59C1446.42,-388.64 1503.24,-374.89 1543.68,-365.1"/>
<polygon fill="#63b8ff" stroke="#63b8ff" points="1544.25,-368.56 1553.15,-362.81 1542.61,-361.76 1544.25,-368.56"/>
</a>
</g>
</g>
<!-- Node3 -->
<g id="Node000003" class="node">
<title>Node3</title>
<g id="a_Node000003"><a xlink:href="log_8hpp.html" target="_top" xlink:title=" ">
<polygon fill="white" stroke="#666666" points="1567.12,-306.75 1461.12,-306.75 1461.12,-287.5 1567.12,-287.5 1567.12,-306.75"/>
<text text-anchor="middle" x="1514.12" y="-293.25" font-family="Helvetica,sans-Serif" font-size="10.00">liger/core/log/log.hpp</text>
</a>
</g>
</g>
<!-- Node2&#45;&gt;Node3 -->
<g id="edge2_Node000002_Node000003" class="edge">
<title>Node2&#45;&gt;Node3</title>
<g id="a_edge2_Node000002_Node000003"><a xlink:title=" ">
<path fill="none" stroke="#63b8ff" d="M1328.38,-342.28C1366.07,-333.32 1423.82,-319.59 1464.91,-309.82"/>
<polygon fill="#63b8ff" stroke="#63b8ff" points="1465.64,-313.25 1474.56,-307.53 1464.02,-306.44 1465.64,-313.25"/>
</a>
</g>
</g>
<!-- Node4 -->
<g id="Node000004" class="node">
<title>Node4</title>
<g id="a_Node000004"><a xlink:title=" ">
<polygon fill="#e0e0e0" stroke="#999999" points="1602.25,-251.5 1542,-251.5 1542,-232.25 1602.25,-232.25 1602.25,-251.5"/>
<text text-anchor="middle" x="1572.12" y="-238" font-family="Helvetica,sans-Serif" font-size="10.00">fmt/core.h</text>
</a>
</g>
</g>
<!-- Node3&#45;&gt;Node4 -->
<g id="edge3_Node000003_Node000004" class="edge">
<title>Node3&#45;&gt;Node4</title>
<g id="a_edge3_Node000003_Node000004"><a xlink:title=" ">
<path fill="none" stroke="#63b8ff" d="M1523.96,-287.09C1532.18,-279.55 1544.11,-268.6 1554.04,-259.48"/>
<polygon fill="#63b8ff" stroke="#63b8ff" points="1556.32,-262.14 1561.32,-252.8 1551.58,-256.98 1556.32,-262.14"/>
</a>
</g>
</g>
<!-- Node5 -->
<g id="Node000005" class="node">
<title>Node5</title>
<g id="a_Node000005"><a xlink:href="log__message_8hpp.html" target="_top" xlink:title=" ">
<polygon fill="white" stroke="#666666" points="1543.62,-190.62 1392.62,-190.62 1392.62,-171.38 1543.62,-171.38 1543.62,-190.62"/>
<text text-anchor="middle" x="1468.12" y="-177.12" font-family="Helvetica,sans-Serif" font-size="10.00">liger/core/log/log_message.hpp</text>
</a>
</g>
</g>
<!-- Node3&#45;&gt;Node5 -->
<g id="edge4_Node000003_Node000005" class="edge">
<title>Node3&#45;&gt;Node5</title>
<g id="a_edge4_Node000003_Node000005"><a xlink:title=" ">
<path fill="none" stroke="#63b8ff" d="M1552.69,-287.02C1587.22,-276.94 1629.78,-258.57 1611.12,-232.25 1600.27,-216.93 1557.06,-203.07 1520.96,-193.81"/>
<polygon fill="#63b8ff" stroke="#63b8ff" points="1522.04,-190.47 1511.49,-191.45 1520.35,-197.26 1522.04,-190.47"/>
</a>
</g>
</g>
<!-- Node9 -->
<g id="Node000009" class="node">
<title>Node9</title>
<g id="a_Node000009"><a xlink:href="log__writer_8hpp.html" target="_top" xlink:title=" ">
<polygon fill="white" stroke="#666666" points="1524.38,-251.5 1389.88,-251.5 1389.88,-232.25 1524.38,-232.25 1524.38,-251.5"/>
<text text-anchor="middle" x="1457.12" y="-238" font-family="Helvetica,sans-Serif" font-size="10.00">liger/core/log/log_writer.hpp</text>
</a>
</g>
</g>
<!-- Node3&#45;&gt;Node9 -->
<g id="edge8_Node000003_Node000009" class="edge">
<title>Node3&#45;&gt;Node9</title>
<g id="a_edge8_Node000003_Node000009"><a xlink:title=" ">
<path fill="none" stroke="#63b8ff" d="M1504.46,-287.09C1496.38,-279.55 1484.66,-268.6 1474.9,-259.48"/>
<polygon fill="#63b8ff" stroke="#63b8ff" points="1477.45,-257.08 1467.76,-252.81 1472.68,-262.19 1477.45,-257.08"/>
</a>
</g>
</g>
<!-- Node6 -->
<g id="Node000006" class="node">
<title>Node6</title>
<g id="a_Node000006"><a xlink:title=" ">
<polygon fill="#e0e0e0" stroke="#999999" points="974.75,-19.25 929.5,-19.25 929.5,0 974.75,0 974.75,-19.25"/>
<text text-anchor="middle" x="952.12" y="-5.75" font-family="Helvetica,sans-Serif" font-size="10.00">cstdint</text>
</a>
</g>
</g>
<!-- Node5&#45;&gt;Node6 -->
<g id="edge5_Node000005_Node000006" class="edge">
<title>Node5&#45;&gt;Node6</title>
<g id="a_edge5_Node000005_Node000006"><a xlink:title=" ">
<path fill="none" stroke="#63b8ff" d="M1461.19,-171.19C1448.94,-156.26 1421.91,-126.08 1392.12,-110.5 1253.44,-37.95 1063.2,-17.81 986.37,-12.46"/>
<polygon fill="#63b8ff" stroke="#63b8ff" points="986.75,-8.98 976.55,-11.82 986.3,-15.96 986.75,-8.98"/>
</a>
</g>
</g>
<!-- Node7 -->
<g id="Node000007" class="node">
<title>Node7</title>
<g id="a_Node000007"><a xlink:title=" ">
<polygon fill="#e0e0e0" stroke="#999999" points="1117.12,-129.75 1077.12,-129.75 1077.12,-110.5 1117.12,-110.5 1117.12,-129.75"/>
<text text-anchor="middle" x="1097.12" y="-116.25" font-family="Helvetica,sans-Serif" font-size="10.00">string</text>
</a>
</g>
</g>
<!-- Node5&#45;&gt;Node7 -->
<g id="edge6_Node000005_Node000007" class="edge">
<title>Node5&#45;&gt;Node7</title>
<g id="a_edge6_Node000005_Node000007"><a xlink:title=" ">
<path fill="none" stroke="#63b8ff" d="M1410.97,-170.93C1331.72,-158.35 1191.19,-136.05 1128.65,-126.13"/>
<polygon fill="#63b8ff" stroke="#63b8ff" points="1129.49,-122.72 1119.06,-124.61 1128.39,-129.63 1129.49,-122.72"/>
</a>
</g>
</g>
<!-- Node8 -->
<g id="Node000008" class="node">
<title>Node8</title>
<g id="a_Node000008"><a xlink:title=" ">
<polygon fill="#e0e0e0" stroke="#999999" points="1294.88,-129.75 1229.38,-129.75 1229.38,-110.5 1294.88,-110.5 1294.88,-129.75"/>
<text text-anchor="middle" x="1262.12" y="-116.25" font-family="Helvetica,sans-Serif" font-size="10.00">string_view</text>
</a>
</g>
</g>
<!-- Node5&#45;&gt;Node8 -->
<g id="edge7_Node000005_Node000008" class="edge">
<title>Node5&#45;&gt;Node8</title>
<g id="a_edge7_Node000005_Node000008"><a xlink:title=" ">
<path fill="none" stroke="#63b8ff" d="M1436.39,-170.93C1401.16,-160.86 1344.1,-144.55 1304.93,-133.36"/>
<polygon fill="#63b8ff" stroke="#63b8ff" points="1305.93,-130 1295.35,-130.62 1304.01,-136.73 1305.93,-130"/>
</a>
</g>
</g>
<!-- Node9&#45;&gt;Node5 -->
<g id="edge9_Node000009_Node000005" class="edge">
<title>Node9&#45;&gt;Node5</title>
<g id="a_edge9_Node000009_Node000005"><a xlink:title=" ">
<path fill="none" stroke="#63b8ff" d="M1458.8,-231.93C1460.27,-224.07 1462.46,-212.32 1464.35,-202.2"/>
<polygon fill="#63b8ff" stroke="#63b8ff" points="1467.76,-202.99 1466.16,-192.51 1460.88,-201.7 1467.76,-202.99"/>
</a>
</g>
</g>
<!-- Node11&#45;&gt;Node7 -->
<g id="edge57_Node000011_Node000007" class="edge">
<title>Node11&#45;&gt;Node7</title>
<g id="a_edge57_Node000011_Node000007"><a xlink:title=" ">
<path fill="none" stroke="#63b8ff" d="M1050.99,-287.02C1064.78,-270.36 1092.86,-233.29 1103.12,-196.25 1108.2,-177.94 1105.59,-156.24 1102.38,-140.88"/>
<polygon fill="#63b8ff" stroke="#63b8ff" points="1105.88,-140.49 1100.16,-131.58 1099.07,-142.12 1105.88,-140.49"/>
</a>
</g>
</g>
<!-- Node12 -->
<g id="Node000012" class="node">
<title>Node12</title>
<g id="a_Node000012"><a xlink:href="buffer_8hpp.html" target="_top" xlink:title=" ">
<polygon fill="white" stroke="#666666" points="688.75,-190.62 565.5,-190.62 565.5,-171.38 688.75,-171.38 688.75,-190.62"/>
<text text-anchor="middle" x="627.12" y="-177.12" font-family="Helvetica,sans-Serif" font-size="10.00">liger/render/rhi/buffer.hpp</text>
</a>
</g>
</g>
<!-- Node11&#45;&gt;Node12 -->
<g id="edge12_Node000011_Node000012" class="edge">
<title>Node11&#45;&gt;Node12</title>
<g id="a_edge12_Node000011_Node000012"><a xlink:title=" ">
<path fill="none" stroke="#63b8ff" d="M978.79,-292.81C872.85,-286.79 670.86,-272.67 646.12,-251.5 632.03,-239.43 627.89,-218.01 626.9,-202.13"/>
<polygon fill="#63b8ff" stroke="#63b8ff" points="630.4,-202.3 626.69,-192.38 623.41,-202.46 630.4,-202.3"/>
</a>
</g>
</g>
<!-- Node16 -->
<g id="Node000016" class="node">
<title>Node16</title>
<g id="a_Node000016"><a xlink:href="compute__pipeline_8hpp.html" target="_top" xlink:title=" ">
<polygon fill="white" stroke="#666666" points="830.62,-251.5 655.62,-251.5 655.62,-232.25 830.62,-232.25 830.62,-251.5"/>
<text text-anchor="middle" x="743.12" y="-238" font-family="Helvetica,sans-Serif" font-size="10.00">liger/render/rhi/compute_pipeline.hpp</text>
</a>
</g>
</g>
<!-- Node11&#45;&gt;Node16 -->
<g id="edge17_Node000011_Node000016" class="edge">
<title>Node11&#45;&gt;Node16</title>
<g id="a_edge17_Node000011_Node000016"><a xlink:title=" ">
<path fill="none" stroke="#63b8ff" d="M991.89,-287.03C940.31,-277.87 860.66,-263.74 805.44,-253.94"/>
<polygon fill="#63b8ff" stroke="#63b8ff" points="806.34,-250.54 795.89,-252.24 805.12,-257.43 806.34,-250.54"/>
</a>
</g>
</g>
<!-- Node17 -->
<g id="Node000017" class="node">
<title>Node17</title>
<g id="a_Node000017"><a xlink:href="graphics__pipeline_8hpp.html" target="_top" xlink:title=" ">
<polygon fill="white" stroke="#666666" points="547.25,-190.62 373,-190.62 373,-171.38 547.25,-171.38 547.25,-190.62"/>
<text text-anchor="middle" x="460.12" y="-177.12" font-family="Helvetica,sans-Serif" font-size="10.00">liger/render/rhi/graphics_pipeline.hpp</text>
</a>
</g>
</g>
<!-- Node11&#45;&gt;Node17 -->
<g id="edge18_Node000011_Node000017" class="edge">
<title>Node11&#45;&gt;Node17</title>
<g id="a_edge18_Node000011_Node000017"><a xlink:title=" ">
<path fill="none" stroke="#63b8ff" d="M978.82,-294.73C896.74,-291.7 750.9,-282.06 630.12,-251.5 577.92,-238.29 520.6,-212.25 487.64,-196.07"/>
<polygon fill="#63b8ff" stroke="#63b8ff" points="489.3,-192.99 478.79,-191.67 486.18,-199.26 489.3,-192.99"/>
</a>
</g>
</g>
<!-- Node20 -->
<g id="Node000020" class="node">
<title>Node20</title>
<g id="a_Node000020"><a xlink:href="render__graph_8hpp.html" target="_top" xlink:title=" ">
<polygon fill="white" stroke="#666666" points="1003.88,-251.5 848.38,-251.5 848.38,-232.25 1003.88,-232.25 1003.88,-251.5"/>
<text text-anchor="middle" x="926.12" y="-238" font-family="Helvetica,sans-Serif" font-size="10.00">liger/render/rhi/render_graph.hpp</text>
</a>
</g>
</g>
<!-- Node11&#45;&gt;Node20 -->
<g id="edge22_Node000011_Node000020" class="edge">
<title>Node11&#45;&gt;Node20</title>
<g id="a_edge22_Node000011_Node000020"><a xlink:title=" ">
<path fill="none" stroke="#63b8ff" d="M1023.28,-287.09C1004.96,-278.75 977.48,-266.25 956.42,-256.66"/>
<polygon fill="#63b8ff" stroke="#63b8ff" points="958,-253.54 947.45,-252.58 955.1,-259.91 958,-253.54"/>
</a>
</g>
</g>
<!-- Node34 -->
<g id="Node000034" class="node">
<title>Node34</title>
<g id="a_Node000034"><a xlink:href="shader__module_8hpp.html" target="_top" xlink:title=" ">
<polygon fill="white" stroke="#666666" points="1726.75,-190.62 1561.5,-190.62 1561.5,-171.38 1726.75,-171.38 1726.75,-190.62"/>
<text text-anchor="middle" x="1644.12" y="-177.12" font-family="Helvetica,sans-Serif" font-size="10.00">liger/render/rhi/shader_module.hpp</text>
</a>
</g>
</g>
<!-- Node11&#45;&gt;Node34 -->
<g id="edge49_Node000011_Node000034" class="edge">
<title>Node11&#45;&gt;Node34</title>
<g id="a_edge49_Node000011_Node000034"><a xlink:title=" ">
<path fill="none" stroke="#63b8ff" d="M1107.38,-292.54C1169.06,-287.72 1264.23,-276.62 1343.12,-251.5 1361.16,-245.76 1363.21,-238.36 1381.12,-232.25 1416.22,-220.28 1509.69,-203.71 1575.17,-192.93"/>
<polygon fill="#63b8ff" stroke="#63b8ff" points="1575.44,-196.43 1584.74,-191.36 1574.31,-189.52 1575.44,-196.43"/>
</a>
</g>
</g>
<!-- Node35 -->
<g id="Node000035" class="node">
<title>Node35</title>
<g id="a_Node000035"><a xlink:href="swapchain_8hpp.html" target="_top" xlink:title=" ">
<polygon fill="white" stroke="#666666" points="1334,-251.5 1188.25,-251.5 1188.25,-232.25 1334,-232.25 1334,-251.5"/>
<text text-anchor="middle" x="1261.12" y="-238" font-family="Helvetica,sans-Serif" font-size="10.00">liger/render/rhi/swapchain.hpp</text>
</a>
</g>
</g>
<!-- Node11&#45;&gt;Node35 -->
<g id="edge52_Node000011_Node000035" class="edge">
<title>Node11&#45;&gt;Node35</title>
<g id="a_edge52_Node000011_Node000035"><a xlink:title=" ">
<path fill="none" stroke="#63b8ff" d="M1080.11,-287.09C1116.67,-278.16 1172.8,-264.45 1212.86,-254.66"/>
<polygon fill="#63b8ff" stroke="#63b8ff" points="1213.61,-258.08 1222.49,-252.31 1211.95,-251.28 1213.61,-258.08"/>
</a>
</g>
</g>
<!-- Node12&#45;&gt;Node7 -->
<g id="edge16_Node000012_Node000007" class="edge">
<title>Node12&#45;&gt;Node7</title>
<g id="a_edge16_Node000012_Node000007"><a xlink:title=" ">
<path fill="none" stroke="#63b8ff" d="M668.67,-170.93C678.31,-169.03 688.55,-167.17 698.12,-165.75 858.04,-141.98 904.01,-160.61 1065.82,-129.84"/>
<polygon fill="#63b8ff" stroke="#63b8ff" points="1066.01,-133.37 1075.17,-128.03 1064.68,-126.5 1066.01,-133.37"/>
</a>
</g>
</g>
<!-- Node13 -->
<g id="Node000013" class="node">
<title>Node13</title>
<g id="a_Node000013"><a xlink:href="device__resource__state_8hpp.html" target="_top" xlink:title=" ">
<polygon fill="white" stroke="#666666" points="741.88,-129.75 544.38,-129.75 544.38,-110.5 741.88,-110.5 741.88,-129.75"/>
<text text-anchor="middle" x="643.12" y="-116.25" font-family="Helvetica,sans-Serif" font-size="10.00">liger/render/rhi/device_resource_state.hpp</text>
</a>
</g>
</g>
<!-- Node12&#45;&gt;Node13 -->
<g id="edge13_Node000012_Node000013" class="edge">
<title>Node12&#45;&gt;Node13</title>
<g id="a_edge13_Node000012_Node000013"><a xlink:title=" ">
<path fill="none" stroke="#63b8ff" d="M629.56,-171.06C631.72,-163.1 634.95,-151.19 637.73,-140.99"/>
<polygon fill="#63b8ff" stroke="#63b8ff" points="641.03,-142.18 640.28,-131.61 634.28,-140.34 641.03,-142.18"/>
</a>
</g>
</g>
<!-- Node14 -->
<g id="Node000014" class="node">
<title>Node14</title>
<g id="a_Node000014"><a xlink:href="enum__bitmask_8hpp.html" target="_top" xlink:title=" ">
<polygon fill="white" stroke="#666666" points="782.75,-74.5 641.5,-74.5 641.5,-55.25 782.75,-55.25 782.75,-74.5"/>
<text text-anchor="middle" x="712.12" y="-61" font-family="Helvetica,sans-Serif" font-size="10.00">liger/core/enum_bitmask.hpp</text>
</a>
</g>
</g>
<!-- Node13&#45;&gt;Node14 -->
<g id="edge14_Node000013_Node000014" class="edge">
<title>Node13&#45;&gt;Node14</title>
<g id="a_edge14_Node000013_Node000014"><a xlink:title=" ">
<path fill="none" stroke="#63b8ff" d="M654.83,-110.09C664.9,-102.32 679.67,-90.92 691.69,-81.65"/>
<polygon fill="#63b8ff" stroke="#63b8ff" points="693.62,-84.58 699.39,-75.7 689.34,-79.04 693.62,-84.58"/>
</a>
</g>
</g>
<!-- Node15 -->
<g id="Node000015" class="node">
<title>Node15</title>
<g id="a_Node000015"><a xlink:title=" ">
<polygon fill="#e0e0e0" stroke="#999999" points="743,-19.25 681.25,-19.25 681.25,0 743,0 743,-19.25"/>
<text text-anchor="middle" x="712.12" y="-5.75" font-family="Helvetica,sans-Serif" font-size="10.00">type_traits</text>
</a>
</g>
</g>
<!-- Node14&#45;&gt;Node15 -->
<g id="edge15_Node000014_Node000015" class="edge">
<title>Node14&#45;&gt;Node15</title>
<g id="a_edge15_Node000014_Node000015"><a xlink:title=" ">
<path fill="none" stroke="#63b8ff" d="M712.12,-55.08C712.12,-48.57 712.12,-39.42 712.12,-31.12"/>
<polygon fill="#63b8ff" stroke="#63b8ff" points="715.63,-31.12 712.13,-21.12 708.63,-31.12 715.63,-31.12"/>
</a>
</g>
</g>
<!-- Node18 -->
<g id="Node000018" class="node">
<title>Node18</title>
<g id="a_Node000018"><a xlink:href="format_8hpp.html" target="_top" xlink:title=" ">
<polygon fill="white" stroke="#666666" points="526.62,-129.75 399.62,-129.75 399.62,-110.5 526.62,-110.5 526.62,-129.75"/>
<text text-anchor="middle" x="463.12" y="-116.25" font-family="Helvetica,sans-Serif" font-size="10.00">liger/render/rhi/format.hpp</text>
</a>
</g>
</g>
<!-- Node17&#45;&gt;Node18 -->
<g id="edge19_Node000017_Node000018" class="edge">
<title>Node17&#45;&gt;Node18</title>
<g id="a_edge19_Node000017_Node000018"><a xlink:title=" ">
<path fill="none" stroke="#63b8ff" d="M460.58,-171.06C460.98,-163.19 461.58,-151.45 462.1,-141.32"/>
<polygon fill="#63b8ff" stroke="#63b8ff" points="465.57,-141.83 462.59,-131.66 458.58,-141.47 465.57,-141.83"/>
</a>
</g>
</g>
<!-- Node19 -->
<g id="Node000019" class="node">
<title>Node19</title>
<g id="a_Node000019"><a xlink:title=" ">
<polygon fill="#e0e0e0" stroke="#999999" points="360.62,-129.75 317.62,-129.75 317.62,-110.5 360.62,-110.5 360.62,-129.75"/>
<text text-anchor="middle" x="339.12" y="-116.25" font-family="Helvetica,sans-Serif" font-size="10.00">vector</text>
</a>
</g>
</g>
<!-- Node17&#45;&gt;Node19 -->
<g id="edge21_Node000017_Node000019" class="edge">
<title>Node17&#45;&gt;Node19</title>
<g id="a_edge21_Node000017_Node000019"><a xlink:title=" ">
<path fill="none" stroke="#63b8ff" d="M441.48,-170.93C421.8,-161.35 390.51,-146.13 367.71,-135.03"/>
<polygon fill="#63b8ff" stroke="#63b8ff" points="369.47,-132 358.95,-130.77 366.41,-138.29 369.47,-132"/>
</a>
</g>
</g>
<!-- Node18&#45;&gt;Node6 -->
<g id="edge20_Node000018_Node000006" class="edge">
<title>Node18&#45;&gt;Node6</title>
<g id="a_edge20_Node000018_Node000006"><a xlink:title=" ">
<path fill="none" stroke="#63b8ff" d="M482.69,-110.08C513.71,-96.13 576.36,-69.49 632.12,-55.25 734.33,-29.16 859.04,-17.32 918.06,-12.87"/>
<polygon fill="#63b8ff" stroke="#63b8ff" points="918.06,-16.38 927.78,-12.17 917.55,-9.4 918.06,-16.38"/>
</a>
</g>
</g>
<!-- Node20&#45;&gt;Node8 -->
<g id="edge48_Node000020_Node000008" class="edge">
<title>Node20&#45;&gt;Node8</title>
<g id="a_edge48_Node000020_Node000008"><a xlink:title=" ">
<path fill="none" stroke="#63b8ff" d="M972.33,-231.81C1008.48,-224.1 1059.72,-211.81 1103.12,-196.25 1151.46,-178.93 1204.9,-151.94 1235.89,-135.47"/>
<polygon fill="#63b8ff" stroke="#63b8ff" points="1237.38,-138.64 1244.53,-130.83 1234.07,-132.47 1237.38,-138.64"/>
</a>
</g>
</g>
<!-- Node20&#45;&gt;Node12 -->
<g id="edge29_Node000020_Node000012" class="edge">
<title>Node20&#45;&gt;Node12</title>
<g id="a_edge29_Node000020_Node000012"><a xlink:title=" ">
<path fill="none" stroke="#63b8ff" d="M879.39,-231.8C833.29,-222.82 760.83,-208.68 698.12,-196.25 693.28,-195.29 688.24,-194.29 683.2,-193.28"/>
<polygon fill="#63b8ff" stroke="#63b8ff" points="684.17,-189.9 673.67,-191.38 682.79,-196.77 684.17,-189.9"/>
</a>
</g>
</g>
<!-- Node21 -->
<g id="Node000021" class="node">
<title>Node21</title>
<g id="a_Node000021"><a xlink:href="dag_8hpp.html" target="_top" xlink:title=" ">
<polygon fill="white" stroke="#666666" points="181.75,-190.62 88.5,-190.62 88.5,-171.38 181.75,-171.38 181.75,-190.62"/>
<text text-anchor="middle" x="135.12" y="-177.12" font-family="Helvetica,sans-Serif" font-size="10.00">liger/core/dag.hpp</text>
</a>
</g>
</g>
<!-- Node20&#45;&gt;Node21 -->
<g id="edge23_Node000020_Node000021" class="edge">
<title>Node20&#45;&gt;Node21</title>
<g id="a_edge23_Node000020_Node000021"><a xlink:title=" ">
<path fill="none" stroke="#63b8ff" d="M848.32,-232.92C845.56,-232.68 842.82,-232.46 840.12,-232.25 552.11,-209.83 476.67,-240.08 191.12,-196.25 186.68,-195.57 182.07,-194.69 177.5,-193.7"/>
<polygon fill="#63b8ff" stroke="#63b8ff" points="178.31,-190.29 167.77,-191.42 176.71,-197.11 178.31,-190.29"/>
</a>
</g>
</g>
<!-- Node25 -->
<g id="Node000025" class="node">
<title>Node25</title>
<g id="a_Node000025"><a xlink:href="command__buffer_8hpp.html" target="_top" xlink:title=" ">
<polygon fill="white" stroke="#666666" points="1093.75,-190.62 922.5,-190.62 922.5,-171.38 1093.75,-171.38 1093.75,-190.62"/>
<text text-anchor="middle" x="1008.12" y="-177.12" font-family="Helvetica,sans-Serif" font-size="10.00">liger/render/rhi/command_buffer.hpp</text>
</a>
</g>
</g>
<!-- Node20&#45;&gt;Node25 -->
<g id="edge30_Node000020_Node000025" class="edge">
<title>Node20&#45;&gt;Node25</title>
<g id="a_edge30_Node000020_Node000025"><a xlink:title=" ">
<path fill="none" stroke="#63b8ff" d="M938.58,-231.93C951.22,-222.86 971.05,-208.62 986.31,-197.66"/>
<polygon fill="#63b8ff" stroke="#63b8ff" points="988.24,-200.58 994.32,-191.91 984.16,-194.9 988.24,-200.58"/>
</a>
</g>
</g>
<!-- Node29 -->
<g id="Node000029" class="node">
<title>Node29</title>
<g id="a_Node000029"><a xlink:href="resource__version__registry_8hpp.html" target="_top" xlink:title=" ">
<polygon fill="white" stroke="#666666" points="354.5,-196.25 199.75,-196.25 199.75,-165.75 354.5,-165.75 354.5,-196.25"/>
<text text-anchor="start" x="207.75" y="-182.75" font-family="Helvetica,sans-Serif" font-size="10.00">liger/render/rhi/resource_version</text>
<text text-anchor="middle" x="277.12" y="-171.5" font-family="Helvetica,sans-Serif" font-size="10.00">_registry.hpp</text>
</a>
</g>
</g>
<!-- Node20&#45;&gt;Node29 -->
<g id="edge37_Node000020_Node000029" class="edge">
<title>Node20&#45;&gt;Node29</title>
<g id="a_edge37_Node000020_Node000029"><a xlink:title=" ">
<path fill="none" stroke="#63b8ff" d="M848.32,-232.99C845.55,-232.73 842.82,-232.49 840.12,-232.25 632.39,-213.98 576.68,-221.16 366,-196.4"/>
<polygon fill="#63b8ff" stroke="#63b8ff" points="366.71,-192.96 356.37,-195.26 365.89,-199.91 366.71,-192.96"/>
</a>
</g>
</g>
<!-- Node31 -->
<g id="Node000031" class="node">
<title>Node31</title>
<g id="a_Node000031"><a xlink:href="texture_8hpp.html" target="_top" xlink:title=" ">
<polygon fill="white" stroke="#666666" points="904.75,-190.62 775.5,-190.62 775.5,-171.38 904.75,-171.38 904.75,-190.62"/>
<text text-anchor="middle" x="840.12" y="-177.12" font-family="Helvetica,sans-Serif" font-size="10.00">liger/render/rhi/texture.hpp</text>
</a>
</g>
</g>
<!-- Node20&#45;&gt;Node31 -->
<g id="edge40_Node000020_Node000031" class="edge">
<title>Node20&#45;&gt;Node31</title>
<g id="a_edge40_Node000020_Node000031"><a xlink:title=" ">
<path fill="none" stroke="#63b8ff" d="M913.06,-231.93C899.68,-222.77 878.61,-208.34 862.55,-197.35"/>
<polygon fill="#63b8ff" stroke="#63b8ff" points="864.79,-194.64 854.56,-191.88 860.83,-200.42 864.79,-194.64"/>
</a>
</g>
</g>
<!-- Node33 -->
<g id="Node000033" class="node">
<title>Node33</title>
<g id="a_Node000033"><a xlink:title=" ">
<polygon fill="#e0e0e0" stroke="#999999" points="757,-190.62 707.25,-190.62 707.25,-171.38 757,-171.38 757,-190.62"/>
<text text-anchor="middle" x="732.12" y="-177.12" font-family="Helvetica,sans-Serif" font-size="10.00">optional</text>
</a>
</g>
</g>
<!-- Node20&#45;&gt;Node33 -->
<g id="edge47_Node000020_Node000033" class="edge">
<title>Node20&#45;&gt;Node33</title>
<g id="a_edge47_Node000020_Node000033"><a xlink:title=" ">
<path fill="none" stroke="#63b8ff" d="M888.54,-231.81C855.85,-223.59 807.39,-210.59 766.12,-196.25 765.15,-195.91 764.16,-195.56 763.16,-195.19"/>
<polygon fill="#63b8ff" stroke="#63b8ff" points="764.46,-191.94 753.87,-191.56 761.91,-198.46 764.46,-191.94"/>
</a>
</g>
</g>
<!-- Node21&#45;&gt;Node6 -->
<g id="edge26_Node000021_Node000006" class="edge">
<title>Node21&#45;&gt;Node6</title>
<g id="a_edge26_Node000021_Node000006"><a xlink:title=" ">
<path fill="none" stroke="#63b8ff" d="M147.76,-171.13C172.05,-154.22 224.67,-118.36 245.12,-110.5 371.11,-62.11 794.28,-23.78 917.93,-13.41"/>
<polygon fill="#63b8ff" stroke="#63b8ff" points="918.08,-16.91 927.75,-12.59 917.5,-9.93 918.08,-16.91"/>
</a>
</g>
</g>
<!-- Node21&#45;&gt;Node19 -->
<g id="edge28_Node000021_Node000019" class="edge">
<title>Node21&#45;&gt;Node19</title>
<g id="a_edge28_Node000021_Node000019"><a xlink:title=" ">
<path fill="none" stroke="#63b8ff" d="M166.55,-170.93C204.6,-159.95 268.33,-141.56 306.78,-130.46"/>
<polygon fill="#63b8ff" stroke="#63b8ff" points="307.29,-133.96 315.93,-127.82 305.35,-127.23 307.29,-133.96"/>
</a>
</g>
</g>
<!-- Node22 -->
<g id="Node000022" class="node">
<title>Node22</title>
<g id="a_Node000022"><a xlink:title=" ">
<polygon fill="#e0e0e0" stroke="#999999" points="48.25,-129.75 0,-129.75 0,-110.5 48.25,-110.5 48.25,-129.75"/>
<text text-anchor="middle" x="24.12" y="-116.25" font-family="Helvetica,sans-Serif" font-size="10.00">cassert</text>
</a>
</g>
</g>
<!-- Node21&#45;&gt;Node22 -->
<g id="edge24_Node000021_Node000022" class="edge">
<title>Node21&#45;&gt;Node22</title>
<g id="a_edge24_Node000021_Node000022"><a xlink:title=" ">
<path fill="none" stroke="#63b8ff" d="M118.27,-171.06C100.42,-161.59 71.99,-146.51 51.03,-135.4"/>
<polygon fill="#63b8ff" stroke="#63b8ff" points="52.95,-132.45 42.48,-130.86 49.67,-138.64 52.95,-132.45"/>
</a>
</g>
</g>
<!-- Node23 -->
<g id="Node000023" class="node">
<title>Node23</title>
<g id="a_Node000023"><a xlink:title=" ">
<polygon fill="#e0e0e0" stroke="#999999" points="122,-129.75 66.25,-129.75 66.25,-110.5 122,-110.5 122,-129.75"/>
<text text-anchor="middle" x="94.12" y="-116.25" font-family="Helvetica,sans-Serif" font-size="10.00">concepts</text>
</a>
</g>
</g>
<!-- Node21&#45;&gt;Node23 -->
<g id="edge25_Node000021_Node000023" class="edge">
<title>Node21&#45;&gt;Node23</title>
<g id="a_edge25_Node000021_Node000023"><a xlink:title=" ">
<path fill="none" stroke="#63b8ff" d="M128.9,-171.06C123.06,-162.67 114.15,-149.88 106.81,-139.34"/>
<polygon fill="#63b8ff" stroke="#63b8ff" points="109.86,-137.6 101.28,-131.39 104.12,-141.6 109.86,-137.6"/>
</a>
</g>
</g>
<!-- Node24 -->
<g id="Node000024" class="node">
<title>Node24</title>
<g id="a_Node000024"><a xlink:title=" ">
<polygon fill="#e0e0e0" stroke="#999999" points="198.12,-129.75 140.12,-129.75 140.12,-110.5 198.12,-110.5 198.12,-129.75"/>
<text text-anchor="middle" x="169.12" y="-116.25" font-family="Helvetica,sans-Serif" font-size="10.00">functional</text>
</a>
</g>
</g>
<!-- Node21&#45;&gt;Node24 -->
<g id="edge27_Node000021_Node000024" class="edge">
<title>Node21&#45;&gt;Node24</title>
<g id="a_edge27_Node000021_Node000024"><a xlink:title=" ">
<path fill="none" stroke="#63b8ff" d="M140.29,-171.06C145.03,-162.85 152.21,-150.41 158.23,-140"/>
<polygon fill="#63b8ff" stroke="#63b8ff" points="161.19,-141.87 163.16,-131.46 155.12,-138.37 161.19,-141.87"/>
</a>
</g>
</g>
<!-- Node25&#45;&gt;Node14 -->
<g id="edge31_Node000025_Node000014" class="edge">
<title>Node25&#45;&gt;Node14</title>
<g id="a_edge31_Node000025_Node000014"><a xlink:title=" ">
<path fill="none" stroke="#63b8ff" d="M1052.19,-170.96C1095.74,-160.12 1152.34,-139.69 1126.12,-110.5 1115.18,-98.32 912.28,-81.02 794.67,-71.96"/>
<polygon fill="#63b8ff" stroke="#63b8ff" points="794.96,-68.47 784.73,-71.19 794.43,-75.45 794.96,-68.47"/>
</a>
</g>
</g>
<!-- Node26 -->
<g id="Node000026" class="node">
<title>Node26</title>
<g id="a_Node000026"><a xlink:href="extent_8hpp.html" target="_top" xlink:title=" ">
<polygon fill="white" stroke="#666666" points="1059.25,-129.75 933,-129.75 933,-110.5 1059.25,-110.5 1059.25,-129.75"/>
<text text-anchor="middle" x="996.12" y="-116.25" font-family="Helvetica,sans-Serif" font-size="10.00">liger/render/rhi/extent.hpp</text>
</a>
</g>
</g>
<!-- Node25&#45;&gt;Node26 -->
<g id="edge32_Node000025_Node000026" class="edge">
<title>Node25&#45;&gt;Node26</title>
<g id="a_edge32_Node000025_Node000026"><a xlink:title=" ">
<path fill="none" stroke="#63b8ff" d="M1006.3,-171.06C1004.7,-163.19 1002.31,-151.45 1000.24,-141.32"/>
<polygon fill="#63b8ff" stroke="#63b8ff" points="1003.69,-140.73 998.27,-131.63 996.83,-142.13 1003.69,-140.73"/>
</a>
</g>
</g>
<!-- Node27 -->
<g id="Node000027" class="node">
<title>Node27</title>
<g id="a_Node000027"><a xlink:href="filter_8hpp.html" target="_top" xlink:title=" ">
<polygon fill="white" stroke="#666666" points="967.75,-74.5 850.5,-74.5 850.5,-55.25 967.75,-55.25 967.75,-74.5"/>
<text text-anchor="middle" x="909.12" y="-61" font-family="Helvetica,sans-Serif" font-size="10.00">liger/render/rhi/filter.hpp</text>
</a>
</g>
</g>
<!-- Node25&#45;&gt;Node27 -->
<g id="edge34_Node000025_Node000027" class="edge">
<title>Node25&#45;&gt;Node27</title>
<g id="a_edge34_Node000025_Node000027"><a xlink:title=" ">
<path fill="none" stroke="#63b8ff" d="M1080.2,-170.91C1131.42,-161.48 1186.64,-143.36 1159.12,-110.5 1136.55,-83.54 1045.04,-72.85 979.27,-68.62"/>
<polygon fill="#63b8ff" stroke="#63b8ff" points="979.83,-65.15 969.64,-68.04 979.41,-72.14 979.83,-65.15"/>
</a>
</g>
</g>
<!-- Node28 -->
<g id="Node000028" class="node">
<title>Node28</title>
<g id="a_Node000028"><a xlink:title=" ">
<polygon fill="#e0e0e0" stroke="#999999" points="1382.62,-129.75 1345.62,-129.75 1345.62,-110.5 1382.62,-110.5 1382.62,-129.75"/>
<text text-anchor="middle" x="1364.12" y="-116.25" font-family="Helvetica,sans-Serif" font-size="10.00">span</text>
</a>
</g>
</g>
<!-- Node25&#45;&gt;Node28 -->
<g id="edge36_Node000025_Node000028" class="edge">
<title>Node25&#45;&gt;Node28</title>
<g id="a_edge36_Node000025_Node000028"><a xlink:title=" ">
<path fill="none" stroke="#63b8ff" d="M1062.97,-170.93C1139.06,-158.35 1274.04,-136.02 1333.99,-126.11"/>
<polygon fill="#63b8ff" stroke="#63b8ff" points="1334.48,-129.58 1343.78,-124.49 1333.34,-122.67 1334.48,-129.58"/>
</a>
</g>
</g>
<!-- Node26&#45;&gt;Node6 -->
<g id="edge33_Node000026_Node000006" class="edge">
<title>Node26&#45;&gt;Node6</title>
<g id="a_edge33_Node000026_Node000006"><a xlink:title=" ">
<path fill="none" stroke="#63b8ff" d="M994.14,-110.23C991.2,-97.69 985.14,-74.22 977.12,-55.25 973.41,-46.47 968.42,-37.2 963.86,-29.4"/>
<polygon fill="#63b8ff" stroke="#63b8ff" points="966.86,-27.59 958.69,-20.85 960.87,-31.22 966.86,-27.59"/>
</a>
</g>
</g>
<!-- Node27&#45;&gt;Node6 -->
<g id="edge35_Node000027_Node000006" class="edge">
<title>Node27&#45;&gt;Node6</title>
<g id="a_edge35_Node000027_Node000006"><a xlink:title=" ">
<path fill="none" stroke="#63b8ff" d="M916.23,-55.08C922.04,-47.88 930.46,-37.46 937.68,-28.51"/>
<polygon fill="#63b8ff" stroke="#63b8ff" points="940.36,-30.77 943.92,-20.79 934.91,-26.37 940.36,-30.77"/>
</a>
</g>
</g>
<!-- Node29&#45;&gt;Node19 -->
<g id="edge39_Node000029_Node000019" class="edge">
<title>Node29&#45;&gt;Node19</title>
<g id="a_edge39_Node000029_Node000019"><a xlink:title=" ">
<path fill="none" stroke="#63b8ff" d="M292.45,-165.45C301.16,-157.17 312.12,-146.77 321.23,-138.12"/>
<polygon fill="#63b8ff" stroke="#63b8ff" points="323.63,-140.67 328.47,-131.24 318.81,-135.59 323.63,-140.67"/>
</a>
</g>
</g>
<!-- Node30 -->
<g id="Node000030" class="node">
<title>Node30</title>
<g id="a_Node000030"><a xlink:title=" ">
<polygon fill="#e0e0e0" stroke="#999999" points="299.75,-129.75 254.5,-129.75 254.5,-110.5 299.75,-110.5 299.75,-129.75"/>
<text text-anchor="middle" x="277.12" y="-116.25" font-family="Helvetica,sans-Serif" font-size="10.00">variant</text>
</a>
</g>
</g>
<!-- Node29&#45;&gt;Node30 -->
<g id="edge38_Node000029_Node000030" class="edge">
<title>Node29&#45;&gt;Node30</title>
<g id="a_edge38_Node000029_Node000030"><a xlink:title=" ">
<path fill="none" stroke="#63b8ff" d="M277.12,-165.45C277.12,-158.21 277.12,-149.34 277.12,-141.44"/>
<polygon fill="#63b8ff" stroke="#63b8ff" points="280.63,-141.71 277.13,-131.71 273.63,-141.71 280.63,-141.71"/>
</a>
</g>
</g>
<!-- Node31&#45;&gt;Node7 -->
<g id="edge46_Node000031_Node000007" class="edge">
<title>Node31&#45;&gt;Node7</title>
<g id="a_edge46_Node000031_Node000007"><a xlink:title=" ">
<path fill="none" stroke="#63b8ff" d="M885.78,-170.95C929.63,-162.03 997.96,-147.55 1065.98,-130.16"/>
<polygon fill="#63b8ff" stroke="#63b8ff" points="1066.62,-133.61 1075.43,-127.72 1064.87,-126.83 1066.62,-133.61"/>
</a>
</g>
</g>
<!-- Node31&#45;&gt;Node13 -->
<g id="edge41_Node000031_Node000013" class="edge">
<title>Node31&#45;&gt;Node13</title>
<g id="a_edge41_Node000031_Node000013"><a xlink:title=" ">
<path fill="none" stroke="#63b8ff" d="M809.78,-170.93C776.08,-160.86 721.52,-144.55 684.06,-133.36"/>
<polygon fill="#63b8ff" stroke="#63b8ff" points="685.54,-130.15 674.96,-130.64 683.54,-136.86 685.54,-130.15"/>
</a>
</g>
</g>
<!-- Node31&#45;&gt;Node18 -->
<g id="edge43_Node000031_Node000018" class="edge">
<title>Node31&#45;&gt;Node18</title>
<g id="a_edge43_Node000031_Node000018"><a xlink:title=" ">
<path fill="none" stroke="#63b8ff" d="M794.79,-170.94C785.33,-169.14 775.41,-167.33 766.12,-165.75 688.65,-152.59 599.63,-139.75 538.23,-131.25"/>
<polygon fill="#63b8ff" stroke="#63b8ff" points="538.98,-127.82 528.59,-129.92 538.02,-134.75 538.98,-127.82"/>
</a>
</g>
</g>
<!-- Node31&#45;&gt;Node26 -->
<g id="edge42_Node000031_Node000026" class="edge">
<title>Node31&#45;&gt;Node26</title>
<g id="a_edge42_Node000031_Node000026"><a xlink:title=" ">
<path fill="none" stroke="#63b8ff" d="M864.16,-170.93C890.15,-161.12 931.83,-145.39 961.39,-134.23"/>
<polygon fill="#63b8ff" stroke="#63b8ff" points="962.53,-137.55 970.65,-130.74 960.06,-131 962.53,-137.55"/>
</a>
</g>
</g>
<!-- Node32 -->
<g id="Node000032" class="node">
<title>Node32</title>
<g id="a_Node000032"><a xlink:href="sampler__info_8hpp.html" target="_top" xlink:title=" ">
<polygon fill="white" stroke="#666666" points="914.5,-129.75 759.75,-129.75 759.75,-110.5 914.5,-110.5 914.5,-129.75"/>
<text text-anchor="middle" x="837.12" y="-116.25" font-family="Helvetica,sans-Serif" font-size="10.00">liger/render/rhi/sampler_info.hpp</text>
</a>
</g>
</g>
<!-- Node31&#45;&gt;Node32 -->
<g id="edge44_Node000031_Node000032" class="edge">
<title>Node31&#45;&gt;Node32</title>
<g id="a_edge44_Node000031_Node000032"><a xlink:title=" ">
<path fill="none" stroke="#63b8ff" d="M839.67,-171.06C839.27,-163.19 838.67,-151.45 838.15,-141.32"/>
<polygon fill="#63b8ff" stroke="#63b8ff" points="841.67,-141.47 837.66,-131.66 834.68,-141.83 841.67,-141.47"/>
</a>
</g>
</g>
<!-- Node32&#45;&gt;Node27 -->
<g id="edge45_Node000032_Node000027" class="edge">
<title>Node32&#45;&gt;Node27</title>
<g id="a_edge45_Node000032_Node000027"><a xlink:title=" ">
<path fill="none" stroke="#63b8ff" d="M849.34,-110.09C859.95,-102.24 875.56,-90.7 888.17,-81.37"/>
<polygon fill="#63b8ff" stroke="#63b8ff" points="889.92,-84.44 895.87,-75.67 885.75,-78.81 889.92,-84.44"/>
</a>
</g>
</g>
<!-- Node34&#45;&gt;Node6 -->
<g id="edge50_Node000034_Node000006" class="edge">
<title>Node34&#45;&gt;Node6</title>
<g id="a_edge50_Node000034_Node000006"><a xlink:title=" ">
<path fill="none" stroke="#63b8ff" d="M1623.5,-170.99C1569.84,-147.92 1421.02,-86.39 1291.12,-55.25 1181.54,-28.98 1048.06,-17.13 986.39,-12.76"/>
<polygon fill="#63b8ff" stroke="#63b8ff" points="986.76,-9.28 976.55,-12.09 986.29,-16.26 986.76,-9.28"/>
</a>
</g>
</g>
<!-- Node34&#45;&gt;Node28 -->
<g id="edge51_Node000034_Node000028" class="edge">
<title>Node34&#45;&gt;Node28</title>
<g id="a_edge51_Node000034_Node000028"><a xlink:title=" ">
<path fill="none" stroke="#63b8ff" d="M1600.99,-170.93C1543.73,-158.89 1444.09,-137.94 1394.28,-127.46"/>
<polygon fill="#63b8ff" stroke="#63b8ff" points="1395.01,-124.04 1384.5,-125.41 1393.57,-130.89 1395.01,-124.04"/>
</a>
</g>
</g>
<!-- Node35&#45;&gt;Node28 -->
<g id="edge56_Node000035_Node000028" class="edge">
<title>Node35&#45;&gt;Node28</title>
<g id="a_edge56_Node000035_Node000028"><a xlink:title=" ">
<path fill="none" stroke="#63b8ff" d="M1291.28,-231.84C1309.43,-224.9 1331.57,-213.53 1345.12,-196.25 1357.44,-180.55 1361.86,-157.82 1363.4,-141.48"/>
<polygon fill="#63b8ff" stroke="#63b8ff" points="1366.9,-141.71 1364.03,-131.51 1359.91,-141.27 1366.9,-141.71"/>
</a>
</g>
</g>
<!-- Node35&#45;&gt;Node31 -->
<g id="edge55_Node000035_Node000031" class="edge">
<title>Node35&#45;&gt;Node31</title>
<g id="a_edge55_Node000035_Node000031"><a xlink:title=" ">
<path fill="none" stroke="#63b8ff" d="M1187.94,-232.9C1117.38,-224.87 1007.68,-211.53 913.12,-196.25 907.23,-195.3 901.08,-194.22 894.96,-193.1"/>
<polygon fill="#63b8ff" stroke="#63b8ff" points="896.01,-189.74 885.54,-191.33 894.72,-196.62 896.01,-189.74"/>
</a>
</g>
</g>
<!-- Node36 -->
<g id="Node000036" class="node">
<title>Node36</title>
<g id="a_Node000036"><a xlink:href="window_8hpp.html" target="_top" xlink:title=" ">
<polygon fill="white" stroke="#666666" points="1335.75,-190.62 1188.5,-190.62 1188.5,-171.38 1335.75,-171.38 1335.75,-190.62"/>
<text text-anchor="middle" x="1262.12" y="-177.12" font-family="Helvetica,sans-Serif" font-size="10.00">liger/core/platform/window.hpp</text>
</a>
</g>
</g>
<!-- Node35&#45;&gt;Node36 -->
<g id="edge53_Node000035_Node000036" class="edge">
<title>Node35&#45;&gt;Node36</title>
<g id="a_edge53_Node000035_Node000036"><a xlink:title=" ">
<path fill="none" stroke="#63b8ff" d="M1261.28,-231.93C1261.41,-224.15 1261.61,-212.58 1261.78,-202.53"/>
<polygon fill="#63b8ff" stroke="#63b8ff" points="1265.28,-202.6 1261.95,-192.54 1258.28,-202.48 1265.28,-202.6"/>
</a>
</g>
</g>
<!-- Node36&#45;&gt;Node8 -->
<g id="edge54_Node000036_Node000008" class="edge">
<title>Node36&#45;&gt;Node8</title>
<g id="a_edge54_Node000036_Node000008"><a xlink:title=" ">
<path fill="none" stroke="#63b8ff" d="M1262.12,-171.06C1262.12,-163.28 1262.12,-151.7 1262.12,-141.66"/>
<polygon fill="#63b8ff" stroke="#63b8ff" points="1265.63,-141.66 1262.13,-131.66 1258.63,-141.66 1265.63,-141.66"/>
</a>
</g>
</g>
</g>
</svg>

<g id="navigator" transform="translate(0 0)" fill="#404254">
  <rect fill="#f2f5e9" fill-opacity="0.5" stroke="#606060" stroke-width=".5" x="0" y="0" width="60" height="60"/>
  <use id="zoomplus" xlink:href="#zoomPlus" x="17" y="9" onmousedown="handleZoom(evt,'in')"/>
  <use id="zoomminus" xlink:href="#zoomMin" x="42" y="9" onmousedown="handleZoom(evt,'out')"/>
  <use id="reset" xlink:href="#resetDef" x="30" y="36" onmousedown="handleReset()"/>
   <use id="arrowup" xlink:href="#arrowUp" x="0" y="0" onmousedown="handlePan(0,-1)"/>
  <use id="arrowright" xlink:href="#arrowRight" x="0" y="0" onmousedown="handlePan(1,0)"/>
  <use id="arrowdown" xlink:href="#arrowDown" x="0" y="0" onmousedown="handlePan(0,1)"/>
  <use id="arrowleft" xlink:href="#arrowLeft" x="0" y="0" onmousedown="handlePan(-1,0)"/>
</g>
<svg viewBox="0 0 15 15" width="100%" height="30px" preserveAspectRatio="xMaxYMin meet">
 <g id="arrow_out" transform="scale(0.3 0.3)">
  <a xlink:href="vulkan__utils_8hpp__incl_org.svg" target="_base">
   <rect id="button" ry="5" rx="5" y="6" x="6" height="38" width="38"
        fill="#f2f5e9" fill-opacity="0.5" stroke="#606060" stroke-width="1.0"/>
   <path id="arrow"
     d="M 11.500037,31.436501 C 11.940474,20.09759 22.043105,11.32322 32.158766,21.979434 L 37.068811,17.246167 C 37.068811,17.246167 37.088388,32 37.088388,32 L 22.160133,31.978069 C 22.160133,31.978069 26.997745,27.140456 26.997745,27.140456 C 18.528582,18.264221 13.291696,25.230495 11.500037,31.436501 z"
     style="fill:#404040;"/>
  </a>
 </g>
</svg>

<style type='text/css'>
<![CDATA[
[data-mouse-over-selected='false'] { opacity: 0.7; }
[data-mouse-over-selected='true']  { opacity: 1.0; }
]]>
</style>
<script type="application/ecmascript"><![CDATA[
document.addEventListener('DOMContentLoaded', (event) => {
  highlightEdges();
  highlightAdjacentNodes();
});
]]></script>
</svg>
