<?xml version="1.0" encoding="UTF-8" standalone="no"?>
<!DOCTYPE svg PUBLIC "-//W3C//DTD SVG 1.1//EN"
 "http://www.w3.org/Graphics/SVG/1.1/DTD/svg11.dtd">
<!-- Generated by graphviz version 9.0.0 (20230911.1827)
 -->
<!-- Title: vulkan_instance.cpp Pages: 1 -->
<svg width="1772pt" height="481pt"
 viewBox="0.00 0.00 1771.62 480.50" xmlns="http://www.w3.org/2000/svg" xmlns:xlink="http://www.w3.org/1999/xlink">
<g id="graph0" class="graph" transform="scale(1 1) rotate(0) translate(4 476.5)">
<title>vulkan_instance.cpp</title>
<!-- Node1 -->
<g id="Node000001" class="node">
<title>Node1</title>
<g id="a_Node000001"><a xlink:title=" ">
<polygon fill="#999999" stroke="#666666" points="800.25,-472.5 695,-472.5 695,-453.25 800.25,-453.25 800.25,-472.5"/>
<text text-anchor="middle" x="747.62" y="-459" font-family="Helvetica,sans-Serif" font-size="10.00">vulkan_instance.cpp</text>
</a>
</g>
</g>
<!-- Node2 -->
<g id="Node000002" class="node">
<title>Node2</title>
<g id="a_Node000002"><a xlink:title=" ">
<polygon fill="#e0e0e0" stroke="#999999" points="524.12,-417.25 445.12,-417.25 445.12,-398 524.12,-398 524.12,-417.25"/>
<text text-anchor="middle" x="484.62" y="-403.75" font-family="Helvetica,sans-Serif" font-size="10.00">GLFW/glfw3.h</text>
</a>
</g>
</g>
<!-- Node1&#45;&gt;Node2 -->
<g id="edge1_Node000001_Node000002" class="edge">
<title>Node1&#45;&gt;Node2</title>
<g id="a_edge1_Node000001_Node000002"><a xlink:title=" ">
<path fill="none" stroke="#63b8ff" d="M702.71,-452.78C656.4,-443.4 584.28,-428.8 535.8,-418.99"/>
<polygon fill="#63b8ff" stroke="#63b8ff" points="536.59,-415.58 526.1,-417.02 535.2,-422.44 536.59,-415.58"/>
</a>
</g>
</g>
<!-- Node3 -->
<g id="Node000003" class="node">
<title>Node3</title>
<g id="a_Node000003"><a xlink:href="vulkan__instance_8hpp.html" target="_top" xlink:title=" ">
<polygon fill="white" stroke="#666666" points="743.25,-417.25 542,-417.25 542,-398 743.25,-398 743.25,-417.25"/>
<text text-anchor="middle" x="642.62" y="-403.75" font-family="Helvetica,sans-Serif" font-size="10.00">liger/render/rhi/vulkan/vulkan_instance.hpp</text>
</a>
</g>
</g>
<!-- Node1&#45;&gt;Node3 -->
<g id="edge2_Node000001_Node000003" class="edge">
<title>Node1&#45;&gt;Node3</title>
<g id="a_edge2_Node000001_Node000003"><a xlink:title=" ">
<path fill="none" stroke="#63b8ff" d="M729.81,-452.84C713.6,-444.62 689.39,-432.34 670.59,-422.81"/>
<polygon fill="#63b8ff" stroke="#63b8ff" points="672.38,-419.79 661.87,-418.39 669.21,-426.03 672.38,-419.79"/>
</a>
</g>
</g>
<!-- Node35 -->
<g id="Node000035" class="node">
<title>Node35</title>
<g id="a_Node000035"><a xlink:href="vulkan__utils_8hpp.html" target="_top" xlink:title=" ">
<polygon fill="white" stroke="#666666" points="943.88,-417.25 761.38,-417.25 761.38,-398 943.88,-398 943.88,-417.25"/>
<text text-anchor="middle" x="852.62" y="-403.75" font-family="Helvetica,sans-Serif" font-size="10.00">liger/render/rhi/vulkan/vulkan_utils.hpp</text>
</a>
</g>
</g>
<!-- Node1&#45;&gt;Node35 -->
<g id="edge53_Node000001_Node000035" class="edge">
<title>Node1&#45;&gt;Node35</title>
<g id="a_edge53_Node000001_Node000035"><a xlink:title=" ">
<path fill="none" stroke="#63b8ff" d="M765.44,-452.84C781.65,-444.62 805.86,-432.34 824.66,-422.81"/>
<polygon fill="#63b8ff" stroke="#63b8ff" points="826.04,-426.03 833.38,-418.39 822.87,-419.79 826.04,-426.03"/>
</a>
</g>
</g>
<!-- Node42 -->
<g id="Node000042" class="node">
<title>Node42</title>
<g id="a_Node000042"><a xlink:title=" ">
<polygon fill="#e0e0e0" stroke="#999999" points="999.5,-417.25 961.75,-417.25 961.75,-398 999.5,-398 999.5,-417.25"/>
<text text-anchor="middle" x="980.62" y="-403.75" font-family="Helvetica,sans-Serif" font-size="10.00">array</text>
</a>
</g>
</g>
<!-- Node1&#45;&gt;Node42 -->
<g id="edge66_Node000001_Node000042" class="edge">
<title>Node1&#45;&gt;Node42</title>
<g id="a_edge66_Node000001_Node000042"><a xlink:title=" ">
<path fill="none" stroke="#63b8ff" d="M794.71,-452.8C833.99,-444.97 891.65,-432.87 950.42,-417.66"/>
<polygon fill="#63b8ff" stroke="#63b8ff" points="951.16,-421.08 959.94,-415.16 949.38,-414.31 951.16,-421.08"/>
</a>
</g>
</g>
<!-- Node4 -->
<g id="Node000004" class="node">
<title>Node4</title>
<g id="a_Node000004"><a xlink:href="instance_8hpp.html" target="_top" xlink:title=" ">
<polygon fill="white" stroke="#666666" points="619.62,-362 483.62,-362 483.62,-342.75 619.62,-342.75 619.62,-362"/>
<text text-anchor="middle" x="551.62" y="-348.5" font-family="Helvetica,sans-Serif" font-size="10.00">liger/render/rhi/instance.hpp</text>
</a>
</g>
</g>
<!-- Node3&#45;&gt;Node4 -->
<g id="edge3_Node000003_Node000004" class="edge">
<title>Node3&#45;&gt;Node4</title>
<g id="a_edge3_Node000003_Node000004"><a xlink:title=" ">
<path fill="none" stroke="#63b8ff" d="M627.19,-397.59C613.46,-389.56 593.13,-377.66 577.01,-368.23"/>
<polygon fill="#63b8ff" stroke="#63b8ff" points="578.84,-365.25 568.44,-363.22 575.31,-371.29 578.84,-365.25"/>
</a>
</g>
</g>
<!-- Node34 -->
<g id="Node000034" class="node">
<title>Node34</title>
<g id="a_Node000034"><a xlink:title=" ">
<polygon fill="#e0e0e0" stroke="#999999" points="721.75,-362 637.5,-362 637.5,-342.75 721.75,-342.75 721.75,-362"/>
<text text-anchor="middle" x="679.62" y="-348.5" font-family="Helvetica,sans-Serif" font-size="10.00">vulkan/vulkan.h</text>
</a>
</g>
</g>
<!-- Node3&#45;&gt;Node34 -->
<g id="edge52_Node000003_Node000034" class="edge">
<title>Node3&#45;&gt;Node34</title>
<g id="a_edge52_Node000003_Node000034"><a xlink:title=" ">
<path fill="none" stroke="#63b8ff" d="M648.73,-397.83C653.69,-390.71 660.83,-380.43 667,-371.55"/>
<polygon fill="#63b8ff" stroke="#63b8ff" points="669.69,-373.81 672.52,-363.6 663.94,-369.82 669.69,-373.81"/>
</a>
</g>
</g>
<!-- Node5 -->
<g id="Node000005" class="node">
<title>Node5</title>
<g id="a_Node000005"><a xlink:href="device_8hpp.html" target="_top" xlink:title=" ">
<polygon fill="white" stroke="#666666" points="889.5,-306.75 761.75,-306.75 761.75,-287.5 889.5,-287.5 889.5,-306.75"/>
<text text-anchor="middle" x="825.62" y="-293.25" font-family="Helvetica,sans-Serif" font-size="10.00">liger/render/rhi/device.hpp</text>
</a>
</g>
</g>
<!-- Node4&#45;&gt;Node5 -->
<g id="edge4_Node000004_Node000005" class="edge">
<title>Node4&#45;&gt;Node5</title>
<g id="a_edge4_Node000004_Node000005"><a xlink:title=" ">
<path fill="none" stroke="#63b8ff" d="M598.42,-342.28C645.31,-333.17 717.58,-319.12 767.99,-309.33"/>
<polygon fill="#63b8ff" stroke="#63b8ff" points="768.39,-312.81 777.54,-307.47 767.06,-305.94 768.39,-312.81"/>
</a>
</g>
</g>
<!-- Node24 -->
<g id="Node000024" class="node">
<title>Node24</title>
<g id="a_Node000024"><a xlink:title=" ">
<polygon fill="#e0e0e0" stroke="#999999" points="231.12,-129.75 194.12,-129.75 194.12,-110.5 231.12,-110.5 231.12,-129.75"/>
<text text-anchor="middle" x="212.62" y="-116.25" font-family="Helvetica,sans-Serif" font-size="10.00">span</text>
</a>
</g>
</g>
<!-- Node4&#45;&gt;Node24 -->
<g id="edge51_Node000004_Node000024" class="edge">
<title>Node4&#45;&gt;Node24</title>
<g id="a_edge51_Node000004_Node000024"><a xlink:title=" ">
<path fill="none" stroke="#63b8ff" d="M498.66,-342.31C424.34,-326.61 290.71,-286.88 223.62,-196.25 211.99,-180.53 210.15,-157.81 210.65,-141.47"/>
<polygon fill="#63b8ff" stroke="#63b8ff" points="214.14,-141.72 211.32,-131.5 207.16,-141.25 214.14,-141.72"/>
</a>
</g>
</g>
<!-- Node6 -->
<g id="Node000006" class="node">
<title>Node6</title>
<g id="a_Node000006"><a xlink:href="buffer_8hpp.html" target="_top" xlink:title=" ">
<polygon fill="white" stroke="#666666" points="992.25,-190.62 869,-190.62 869,-171.38 992.25,-171.38 992.25,-190.62"/>
<text text-anchor="middle" x="930.62" y="-177.12" font-family="Helvetica,sans-Serif" font-size="10.00">liger/render/rhi/buffer.hpp</text>
</a>
</g>
</g>
<!-- Node5&#45;&gt;Node6 -->
<g id="edge5_Node000005_Node000006" class="edge">
<title>Node5&#45;&gt;Node6</title>
<g id="a_edge5_Node000005_Node000006"><a xlink:title=" ">
<path fill="none" stroke="#63b8ff" d="M857.65,-287.01C876.27,-280.14 898.73,-268.86 912.62,-251.5 923.95,-237.36 928.21,-216.88 929.79,-201.81"/>
<polygon fill="#63b8ff" stroke="#63b8ff" points="933.25,-202.42 930.47,-192.2 926.27,-201.93 933.25,-202.42"/>
</a>
</g>
</g>
<!-- Node10 -->
<g id="Node000010" class="node">
<title>Node10</title>
<g id="a_Node000010"><a xlink:title=" ">
<polygon fill="#e0e0e0" stroke="#999999" points="1223.62,-129.75 1183.62,-129.75 1183.62,-110.5 1223.62,-110.5 1223.62,-129.75"/>
<text text-anchor="middle" x="1203.62" y="-116.25" font-family="Helvetica,sans-Serif" font-size="10.00">string</text>
</a>
</g>
</g>
<!-- Node5&#45;&gt;Node10 -->
<g id="edge50_Node000005_Node000010" class="edge">
<title>Node5&#45;&gt;Node10</title>
<g id="a_edge50_Node000005_Node000010"><a xlink:title=" ">
<path fill="none" stroke="#63b8ff" d="M889.76,-287.34C984.22,-273.02 1153.89,-241.64 1193.62,-196.25 1206.75,-181.26 1207.85,-157.72 1206.55,-140.99"/>
<polygon fill="#63b8ff" stroke="#63b8ff" points="1210.06,-140.82 1205.43,-131.28 1203.1,-141.62 1210.06,-140.82"/>
</a>
</g>
</g>
<!-- Node11 -->
<g id="Node000011" class="node">
<title>Node11</title>
<g id="a_Node000011"><a xlink:href="compute__pipeline_8hpp.html" target="_top" xlink:title=" ">
<polygon fill="white" stroke="#666666" points="527.12,-251.5 352.12,-251.5 352.12,-232.25 527.12,-232.25 527.12,-251.5"/>
<text text-anchor="middle" x="439.62" y="-238" font-family="Helvetica,sans-Serif" font-size="10.00">liger/render/rhi/compute_pipeline.hpp</text>
</a>
</g>
</g>
<!-- Node5&#45;&gt;Node11 -->
<g id="edge10_Node000005_Node000011" class="edge">
<title>Node5&#45;&gt;Node11</title>
<g id="a_edge10_Node000005_Node000011"><a xlink:title=" ">
<path fill="none" stroke="#63b8ff" d="M761.45,-287.27C694.2,-277.99 588.54,-263.42 516.78,-253.52"/>
<polygon fill="#63b8ff" stroke="#63b8ff" points="517.45,-250.08 507.07,-252.18 516.5,-257.01 517.45,-250.08"/>
</a>
</g>
</g>
<!-- Node12 -->
<g id="Node000012" class="node">
<title>Node12</title>
<g id="a_Node000012"><a xlink:href="graphics__pipeline_8hpp.html" target="_top" xlink:title=" ">
<polygon fill="white" stroke="#666666" points="1184.75,-190.62 1010.5,-190.62 1010.5,-171.38 1184.75,-171.38 1184.75,-190.62"/>
<text text-anchor="middle" x="1097.62" y="-177.12" font-family="Helvetica,sans-Serif" font-size="10.00">liger/render/rhi/graphics_pipeline.hpp</text>
</a>
</g>
</g>
<!-- Node5&#45;&gt;Node12 -->
<g id="edge11_Node000005_Node000012" class="edge">
<title>Node5&#45;&gt;Node12</title>
<g id="a_edge11_Node000005_Node000012"><a xlink:title=" ">
<path fill="none" stroke="#63b8ff" d="M846.97,-287.17C894.52,-267.22 1009.39,-219.02 1065.59,-195.44"/>
<polygon fill="#63b8ff" stroke="#63b8ff" points="1066.74,-198.75 1074.61,-191.66 1064.03,-192.3 1066.74,-198.75"/>
</a>
</g>
</g>
<!-- Node16 -->
<g id="Node000016" class="node">
<title>Node16</title>
<g id="a_Node000016"><a xlink:href="render__graph_8hpp.html" target="_top" xlink:title=" ">
<polygon fill="white" stroke="#666666" points="903.38,-251.5 747.88,-251.5 747.88,-232.25 903.38,-232.25 903.38,-251.5"/>
<text text-anchor="middle" x="825.62" y="-238" font-family="Helvetica,sans-Serif" font-size="10.00">liger/render/rhi/render_graph.hpp</text>
</a>
</g>
</g>
<!-- Node5&#45;&gt;Node16 -->
<g id="edge15_Node000005_Node000016" class="edge">
<title>Node5&#45;&gt;Node16</title>
<g id="a_edge15_Node000005_Node000016"><a xlink:title=" ">
<path fill="none" stroke="#63b8ff" d="M825.62,-287.33C825.62,-280.82 825.62,-271.67 825.62,-263.37"/>
<polygon fill="#63b8ff" stroke="#63b8ff" points="829.13,-263.37 825.63,-253.37 822.13,-263.37 829.13,-263.37"/>
</a>
</g>
</g>
<!-- Node31 -->
<g id="Node000031" class="node">
<title>Node31</title>
<g id="a_Node000031"><a xlink:href="shader__module_8hpp.html" target="_top" xlink:title=" ">
<polygon fill="white" stroke="#666666" points="165.25,-190.62 0,-190.62 0,-171.38 165.25,-171.38 165.25,-190.62"/>
<text text-anchor="middle" x="82.62" y="-177.12" font-family="Helvetica,sans-Serif" font-size="10.00">liger/render/rhi/shader_module.hpp</text>
</a>
</g>
</g>
<!-- Node5&#45;&gt;Node31 -->
<g id="edge42_Node000005_Node000031" class="edge">
<title>Node5&#45;&gt;Node31</title>
<g id="a_edge42_Node000005_Node000031"><a xlink:title=" ">
<path fill="none" stroke="#63b8ff" d="M761.48,-289.78C710.03,-283.5 636.44,-271.8 574.62,-251.5 556.26,-245.47 554.18,-237.68 535.62,-232.25 518.66,-227.29 304.57,-204.76 176.88,-191.61"/>
<polygon fill="#63b8ff" stroke="#63b8ff" points="177.38,-188.15 167.07,-190.61 176.66,-195.11 177.38,-188.15"/>
</a>
</g>
</g>
<!-- Node32 -->
<g id="Node000032" class="node">
<title>Node32</title>
<g id="a_Node000032"><a xlink:href="swapchain_8hpp.html" target="_top" xlink:title=" ">
<polygon fill="white" stroke="#666666" points="729.5,-251.5 583.75,-251.5 583.75,-232.25 729.5,-232.25 729.5,-251.5"/>
<text text-anchor="middle" x="656.62" y="-238" font-family="Helvetica,sans-Serif" font-size="10.00">liger/render/rhi/swapchain.hpp</text>
</a>
</g>
</g>
<!-- Node5&#45;&gt;Node32 -->
<g id="edge45_Node000005_Node000032" class="edge">
<title>Node5&#45;&gt;Node32</title>
<g id="a_edge45_Node000005_Node000032"><a xlink:title=" ">
<path fill="none" stroke="#63b8ff" d="M796.96,-287.09C769.28,-278.37 727.14,-265.09 696.25,-255.36"/>
<polygon fill="#63b8ff" stroke="#63b8ff" points="697.47,-252.07 686.88,-252.41 695.36,-258.75 697.47,-252.07"/>
</a>
</g>
</g>
<!-- Node7 -->
<g id="Node000007" class="node">
<title>Node7</title>
<g id="a_Node000007"><a xlink:href="device__resource__state_8hpp.html" target="_top" xlink:title=" ">
<polygon fill="white" stroke="#666666" points="1010.38,-129.75 812.88,-129.75 812.88,-110.5 1010.38,-110.5 1010.38,-129.75"/>
<text text-anchor="middle" x="911.62" y="-116.25" font-family="Helvetica,sans-Serif" font-size="10.00">liger/render/rhi/device_resource_state.hpp</text>
</a>
</g>
</g>
<!-- Node6&#45;&gt;Node7 -->
<g id="edge6_Node000006_Node000007" class="edge">
<title>Node6&#45;&gt;Node7</title>
<g id="a_edge6_Node000006_Node000007"><a xlink:title=" ">
<path fill="none" stroke="#63b8ff" d="M927.74,-171.06C925.17,-163.1 921.33,-151.19 918.04,-140.99"/>
<polygon fill="#63b8ff" stroke="#63b8ff" points="921.4,-140.03 915,-131.59 914.74,-142.18 921.4,-140.03"/>
</a>
</g>
</g>
<!-- Node6&#45;&gt;Node10 -->
<g id="edge9_Node000006_Node000010" class="edge">
<title>Node6&#45;&gt;Node10</title>
<g id="a_edge9_Node000006_Node000010"><a xlink:title=" ">
<path fill="none" stroke="#63b8ff" d="M973.34,-170.91C1020.26,-160.9 1097.84,-144.31 1164.62,-129.75 1167.1,-129.21 1169.67,-128.65 1172.24,-128.08"/>
<polygon fill="#63b8ff" stroke="#63b8ff" points="1172.9,-131.52 1181.91,-125.95 1171.39,-124.69 1172.9,-131.52"/>
</a>
</g>
</g>
<!-- Node8 -->
<g id="Node000008" class="node">
<title>Node8</title>
<g id="a_Node000008"><a xlink:href="enum__bitmask_8hpp.html" target="_top" xlink:title=" ">
<polygon fill="white" stroke="#666666" points="463.25,-74.5 322,-74.5 322,-55.25 463.25,-55.25 463.25,-74.5"/>
<text text-anchor="middle" x="392.62" y="-61" font-family="Helvetica,sans-Serif" font-size="10.00">liger/core/enum_bitmask.hpp</text>
</a>
</g>
</g>
<!-- Node7&#45;&gt;Node8 -->
<g id="edge7_Node000007_Node000008" class="edge">
<title>Node7&#45;&gt;Node8</title>
<g id="a_edge7_Node000007_Node000008"><a xlink:title=" ">
<path fill="none" stroke="#63b8ff" d="M822.7,-110C725.14,-99.99 569.82,-84.06 474.96,-74.32"/>
<polygon fill="#63b8ff" stroke="#63b8ff" points="475.51,-70.86 465.2,-73.32 474.79,-77.82 475.51,-70.86"/>
</a>
</g>
</g>
<!-- Node9 -->
<g id="Node000009" class="node">
<title>Node9</title>
<g id="a_Node000009"><a xlink:title=" ">
<polygon fill="#e0e0e0" stroke="#999999" points="423.5,-19.25 361.75,-19.25 361.75,0 423.5,0 423.5,-19.25"/>
<text text-anchor="middle" x="392.62" y="-5.75" font-family="Helvetica,sans-Serif" font-size="10.00">type_traits</text>
</a>
</g>
</g>
<!-- Node8&#45;&gt;Node9 -->
<g id="edge8_Node000008_Node000009" class="edge">
<title>Node8&#45;&gt;Node9</title>
<g id="a_edge8_Node000008_Node000009"><a xlink:title=" ">
<path fill="none" stroke="#63b8ff" d="M392.62,-55.08C392.62,-48.57 392.62,-39.42 392.62,-31.12"/>
<polygon fill="#63b8ff" stroke="#63b8ff" points="396.13,-31.12 392.63,-21.12 389.13,-31.12 396.13,-31.12"/>
</a>
</g>
</g>
<!-- Node13 -->
<g id="Node000013" class="node">
<title>Node13</title>
<g id="a_Node000013"><a xlink:href="format_8hpp.html" target="_top" xlink:title=" ">
<polygon fill="white" stroke="#666666" points="1155.12,-129.75 1028.12,-129.75 1028.12,-110.5 1155.12,-110.5 1155.12,-129.75"/>
<text text-anchor="middle" x="1091.62" y="-116.25" font-family="Helvetica,sans-Serif" font-size="10.00">liger/render/rhi/format.hpp</text>
</a>
</g>
</g>
<!-- Node12&#45;&gt;Node13 -->
<g id="edge12_Node000012_Node000013" class="edge">
<title>Node12&#45;&gt;Node13</title>
<g id="a_edge12_Node000012_Node000013"><a xlink:title=" ">
<path fill="none" stroke="#63b8ff" d="M1096.71,-171.06C1095.91,-163.19 1094.72,-151.45 1093.68,-141.32"/>
<polygon fill="#63b8ff" stroke="#63b8ff" points="1097.19,-141.25 1092.7,-131.66 1090.23,-141.96 1097.19,-141.25"/>
</a>
</g>
</g>
<!-- Node15 -->
<g id="Node000015" class="node">
<title>Node15</title>
<g id="a_Node000015"><a xlink:title=" ">
<polygon fill="#e0e0e0" stroke="#999999" points="1509.12,-129.75 1466.12,-129.75 1466.12,-110.5 1509.12,-110.5 1509.12,-129.75"/>
<text text-anchor="middle" x="1487.62" y="-116.25" font-family="Helvetica,sans-Serif" font-size="10.00">vector</text>
</a>
</g>
</g>
<!-- Node12&#45;&gt;Node15 -->
<g id="edge14_Node000012_Node000015" class="edge">
<title>Node12&#45;&gt;Node15</title>
<g id="a_edge14_Node000012_Node000015"><a xlink:title=" ">
<path fill="none" stroke="#63b8ff" d="M1185.15,-171.28C1255.71,-163.45 1357.6,-150.34 1454.57,-130.16"/>
<polygon fill="#63b8ff" stroke="#63b8ff" points="1455.22,-133.6 1464.28,-128.11 1453.77,-126.75 1455.22,-133.6"/>
</a>
</g>
</g>
<!-- Node14 -->
<g id="Node000014" class="node">
<title>Node14</title>
<g id="a_Node000014"><a xlink:title=" ">
<polygon fill="#e0e0e0" stroke="#999999" points="855.25,-19.25 810,-19.25 810,0 855.25,0 855.25,-19.25"/>
<text text-anchor="middle" x="832.62" y="-5.75" font-family="Helvetica,sans-Serif" font-size="10.00">cstdint</text>
</a>
</g>
</g>
<!-- Node13&#45;&gt;Node14 -->
<g id="edge13_Node000013_Node000014" class="edge">
<title>Node13&#45;&gt;Node14</title>
<g id="a_edge13_Node000013_Node000014"><a xlink:title=" ">
<path fill="none" stroke="#63b8ff" d="M1069.99,-110.06C1024.47,-90.99 918.61,-46.65 864.99,-24.18"/>
<polygon fill="#63b8ff" stroke="#63b8ff" points="866.35,-20.96 855.78,-20.32 863.65,-27.42 866.35,-20.96"/>
</a>
</g>
</g>
<!-- Node16&#45;&gt;Node6 -->
<g id="edge22_Node000016_Node000006" class="edge">
<title>Node16&#45;&gt;Node6</title>
<g id="a_edge22_Node000016_Node000006"><a xlink:title=" ">
<path fill="none" stroke="#63b8ff" d="M841.57,-231.93C858.3,-222.55 884.86,-207.66 904.63,-196.58"/>
<polygon fill="#63b8ff" stroke="#63b8ff" points="906.2,-199.71 913.21,-191.77 902.77,-193.6 906.2,-199.71"/>
</a>
</g>
</g>
<!-- Node17 -->
<g id="Node000017" class="node">
<title>Node17</title>
<g id="a_Node000017"><a xlink:href="dag_8hpp.html" target="_top" xlink:title=" ">
<polygon fill="white" stroke="#666666" points="1676.25,-190.62 1583,-190.62 1583,-171.38 1676.25,-171.38 1676.25,-190.62"/>
<text text-anchor="middle" x="1629.62" y="-177.12" font-family="Helvetica,sans-Serif" font-size="10.00">liger/core/dag.hpp</text>
</a>
</g>
</g>
<!-- Node16&#45;&gt;Node17 -->
<g id="edge16_Node000016_Node000017" class="edge">
<title>Node16&#45;&gt;Node17</title>
<g id="a_edge16_Node000016_Node000017"><a xlink:title=" ">
<path fill="none" stroke="#63b8ff" d="M903.67,-241.07C1040.3,-240.33 1331.32,-233.96 1573.62,-196.25 1578.02,-195.57 1582.56,-194.69 1587.08,-193.72"/>
<polygon fill="#63b8ff" stroke="#63b8ff" points="1587.74,-197.16 1596.68,-191.47 1586.14,-190.34 1587.74,-197.16"/>
</a>
</g>
</g>
<!-- Node21 -->
<g id="Node000021" class="node">
<title>Node21</title>
<g id="a_Node000021"><a xlink:href="command__buffer_8hpp.html" target="_top" xlink:title=" ">
<polygon fill="white" stroke="#666666" points="431.25,-190.62 260,-190.62 260,-171.38 431.25,-171.38 431.25,-190.62"/>
<text text-anchor="middle" x="345.62" y="-177.12" font-family="Helvetica,sans-Serif" font-size="10.00">liger/render/rhi/command_buffer.hpp</text>
</a>
</g>
</g>
<!-- Node16&#45;&gt;Node21 -->
<g id="edge23_Node000016_Node000021" class="edge">
<title>Node16&#45;&gt;Node21</title>
<g id="a_edge23_Node000016_Node000021"><a xlink:title=" ">
<path fill="none" stroke="#63b8ff" d="M747.53,-232.67C669.48,-224.27 546.11,-210.47 439.62,-196.25 431.58,-195.18 423.16,-193.99 414.81,-192.77"/>
<polygon fill="#63b8ff" stroke="#63b8ff" points="415.4,-189.32 404.99,-191.32 414.37,-196.25 415.4,-189.32"/>
</a>
</g>
</g>
<!-- Node25 -->
<g id="Node000025" class="node">
<title>Node25</title>
<g id="a_Node000025"><a xlink:href="resource__version__registry_8hpp.html" target="_top" xlink:title=" ">
<polygon fill="white" stroke="#666666" points="1565,-196.25 1410.25,-196.25 1410.25,-165.75 1565,-165.75 1565,-196.25"/>
<text text-anchor="start" x="1418.25" y="-182.75" font-family="Helvetica,sans-Serif" font-size="10.00">liger/render/rhi/resource_version</text>
<text text-anchor="middle" x="1487.62" y="-171.5" font-family="Helvetica,sans-Serif" font-size="10.00">_registry.hpp</text>
</a>
</g>
</g>
<!-- Node16&#45;&gt;Node25 -->
<g id="edge30_Node000016_Node000025" class="edge">
<title>Node16&#45;&gt;Node25</title>
<g id="a_edge30_Node000016_Node000025"><a xlink:title=" ">
<path fill="none" stroke="#63b8ff" d="M903.63,-236.99C1012.34,-231.09 1215.79,-218.31 1398.67,-196.54"/>
<polygon fill="#63b8ff" stroke="#63b8ff" points="1398.84,-200.05 1408.35,-195.38 1398,-193.1 1398.84,-200.05"/>
</a>
</g>
</g>
<!-- Node27 -->
<g id="Node000027" class="node">
<title>Node27</title>
<g id="a_Node000027"><a xlink:href="texture_8hpp.html" target="_top" xlink:title=" ">
<polygon fill="white" stroke="#666666" points="782.25,-190.62 653,-190.62 653,-171.38 782.25,-171.38 782.25,-190.62"/>
<text text-anchor="middle" x="717.62" y="-177.12" font-family="Helvetica,sans-Serif" font-size="10.00">liger/render/rhi/texture.hpp</text>
</a>
</g>
</g>
<!-- Node16&#45;&gt;Node27 -->
<g id="edge33_Node000016_Node000027" class="edge">
<title>Node16&#45;&gt;Node27</title>
<g id="a_edge33_Node000016_Node000027"><a xlink:title=" ">
<path fill="none" stroke="#63b8ff" d="M809.22,-231.93C791.94,-222.51 764.45,-207.52 744.09,-196.43"/>
<polygon fill="#63b8ff" stroke="#63b8ff" points="745.97,-193.46 735.51,-191.75 742.62,-199.61 745.97,-193.46"/>
</a>
</g>
</g>
<!-- Node29 -->
<g id="Node000029" class="node">
<title>Node29</title>
<g id="a_Node000029"><a xlink:title=" ">
<polygon fill="#e0e0e0" stroke="#999999" points="850.5,-190.62 800.75,-190.62 800.75,-171.38 850.5,-171.38 850.5,-190.62"/>
<text text-anchor="middle" x="825.62" y="-177.12" font-family="Helvetica,sans-Serif" font-size="10.00">optional</text>
</a>
</g>
</g>
<!-- Node16&#45;&gt;Node29 -->
<g id="edge40_Node000016_Node000029" class="edge">
<title>Node16&#45;&gt;Node29</title>
<g id="a_edge40_Node000016_Node000029"><a xlink:title=" ">
<path fill="none" stroke="#63b8ff" d="M825.62,-231.93C825.62,-224.15 825.62,-212.58 825.62,-202.53"/>
<polygon fill="#63b8ff" stroke="#63b8ff" points="829.13,-202.54 825.63,-192.54 822.13,-202.54 829.13,-202.54"/>
</a>
</g>
</g>
<!-- Node30 -->
<g id="Node000030" class="node">
<title>Node30</title>
<g id="a_Node000030"><a xlink:title=" ">
<polygon fill="#e0e0e0" stroke="#999999" points="622.38,-129.75 556.88,-129.75 556.88,-110.5 622.38,-110.5 622.38,-129.75"/>
<text text-anchor="middle" x="589.62" y="-116.25" font-family="Helvetica,sans-Serif" font-size="10.00">string_view</text>
</a>
</g>
</g>
<!-- Node16&#45;&gt;Node30 -->
<g id="edge41_Node000016_Node000030" class="edge">
<title>Node16&#45;&gt;Node30</title>
<g id="a_edge41_Node000016_Node000030"><a xlink:title=" ">
<path fill="none" stroke="#63b8ff" d="M770.96,-231.78C725.23,-223.4 664.25,-210.18 643.62,-196.25 622.88,-182.24 607.38,-157.44 598.43,-140.19"/>
<polygon fill="#63b8ff" stroke="#63b8ff" points="601.71,-138.93 594.16,-131.48 595.42,-142 601.71,-138.93"/>
</a>
</g>
</g>
<!-- Node17&#45;&gt;Node14 -->
<g id="edge19_Node000017_Node000014" class="edge">
<title>Node17&#45;&gt;Node14</title>
<g id="a_edge19_Node000017_Node000014"><a xlink:title=" ">
<path fill="none" stroke="#63b8ff" d="M1616.89,-171.08C1592.4,-154.1 1539.33,-118.1 1518.62,-110.5 1280.61,-23.08 969.72,-11.9 867.12,-10.69"/>
<polygon fill="#63b8ff" stroke="#63b8ff" points="867.21,-7.19 857.18,-10.6 867.15,-14.19 867.21,-7.19"/>
</a>
</g>
</g>
<!-- Node17&#45;&gt;Node15 -->
<g id="edge21_Node000017_Node000015" class="edge">
<title>Node17&#45;&gt;Node15</title>
<g id="a_edge21_Node000017_Node000015"><a xlink:title=" ">
<path fill="none" stroke="#63b8ff" d="M1607.75,-170.93C1584.23,-161.18 1546.6,-145.58 1519.72,-134.43"/>
<polygon fill="#63b8ff" stroke="#63b8ff" points="1521.27,-131.29 1510.69,-130.69 1518.59,-137.75 1521.27,-131.29"/>
</a>
</g>
</g>
<!-- Node18 -->
<g id="Node000018" class="node">
<title>Node18</title>
<g id="a_Node000018"><a xlink:title=" ">
<polygon fill="#e0e0e0" stroke="#999999" points="1613.75,-129.75 1565.5,-129.75 1565.5,-110.5 1613.75,-110.5 1613.75,-129.75"/>
<text text-anchor="middle" x="1589.62" y="-116.25" font-family="Helvetica,sans-Serif" font-size="10.00">cassert</text>
</a>
</g>
</g>
<!-- Node17&#45;&gt;Node18 -->
<g id="edge17_Node000017_Node000018" class="edge">
<title>Node17&#45;&gt;Node18</title>
<g id="a_edge17_Node000017_Node000018"><a xlink:title=" ">
<path fill="none" stroke="#63b8ff" d="M1623.55,-171.06C1617.91,-162.76 1609.34,-150.14 1602.23,-139.67"/>
<polygon fill="#63b8ff" stroke="#63b8ff" points="1605.12,-137.71 1596.61,-131.4 1599.33,-141.64 1605.12,-137.71"/>
</a>
</g>
</g>
<!-- Node19 -->
<g id="Node000019" class="node">
<title>Node19</title>
<g id="a_Node000019"><a xlink:title=" ">
<polygon fill="#e0e0e0" stroke="#999999" points="1687.5,-129.75 1631.75,-129.75 1631.75,-110.5 1687.5,-110.5 1687.5,-129.75"/>
<text text-anchor="middle" x="1659.62" y="-116.25" font-family="Helvetica,sans-Serif" font-size="10.00">concepts</text>
</a>
</g>
</g>
<!-- Node17&#45;&gt;Node19 -->
<g id="edge18_Node000017_Node000019" class="edge">
<title>Node17&#45;&gt;Node19</title>
<g id="a_edge18_Node000017_Node000019"><a xlink:title=" ">
<path fill="none" stroke="#63b8ff" d="M1634.18,-171.06C1638.32,-162.93 1644.57,-150.67 1649.84,-140.33"/>
<polygon fill="#63b8ff" stroke="#63b8ff" points="1652.92,-142 1654.34,-131.5 1646.68,-138.82 1652.92,-142"/>
</a>
</g>
</g>
<!-- Node20 -->
<g id="Node000020" class="node">
<title>Node20</title>
<g id="a_Node000020"><a xlink:title=" ">
<polygon fill="#e0e0e0" stroke="#999999" points="1763.62,-129.75 1705.62,-129.75 1705.62,-110.5 1763.62,-110.5 1763.62,-129.75"/>
<text text-anchor="middle" x="1734.62" y="-116.25" font-family="Helvetica,sans-Serif" font-size="10.00">functional</text>
</a>
</g>
</g>
<!-- Node17&#45;&gt;Node20 -->
<g id="edge20_Node000017_Node000020" class="edge">
<title>Node17&#45;&gt;Node20</title>
<g id="a_edge20_Node000017_Node000020"><a xlink:title=" ">
<path fill="none" stroke="#63b8ff" d="M1645.57,-171.06C1662.3,-161.68 1688.86,-146.79 1708.63,-135.7"/>
<polygon fill="#63b8ff" stroke="#63b8ff" points="1710.2,-138.83 1717.21,-130.89 1706.77,-132.73 1710.2,-138.83"/>
</a>
</g>
</g>
<!-- Node21&#45;&gt;Node8 -->
<g id="edge24_Node000021_Node000008" class="edge">
<title>Node21&#45;&gt;Node8</title>
<g id="a_edge24_Node000021_Node000008"><a xlink:title=" ">
<path fill="none" stroke="#63b8ff" d="M347.38,-171.18C350.22,-157.73 356.47,-131.44 365.62,-110.5 369.57,-101.49 375.02,-92.09 380,-84.25"/>
<polygon fill="#63b8ff" stroke="#63b8ff" points="382.87,-86.26 385.47,-75.99 377.03,-82.4 382.87,-86.26"/>
</a>
</g>
</g>
<!-- Node22 -->
<g id="Node000022" class="node">
<title>Node22</title>
<g id="a_Node000022"><a xlink:href="extent_8hpp.html" target="_top" xlink:title=" ">
<polygon fill="white" stroke="#666666" points="500.75,-129.75 374.5,-129.75 374.5,-110.5 500.75,-110.5 500.75,-129.75"/>
<text text-anchor="middle" x="437.62" y="-116.25" font-family="Helvetica,sans-Serif" font-size="10.00">liger/render/rhi/extent.hpp</text>
</a>
</g>
</g>
<!-- Node21&#45;&gt;Node22 -->
<g id="edge25_Node000021_Node000022" class="edge">
<title>Node21&#45;&gt;Node22</title>
<g id="a_edge25_Node000021_Node000022"><a xlink:title=" ">
<path fill="none" stroke="#63b8ff" d="M359.6,-171.06C374.05,-161.81 396.88,-147.2 414.12,-136.17"/>
<polygon fill="#63b8ff" stroke="#63b8ff" points="415.71,-139.31 422.25,-130.97 411.94,-133.41 415.71,-139.31"/>
</a>
</g>
</g>
<!-- Node23 -->
<g id="Node000023" class="node">
<title>Node23</title>
<g id="a_Node000023"><a xlink:href="filter_8hpp.html" target="_top" xlink:title=" ">
<polygon fill="white" stroke="#666666" points="776.25,-74.5 659,-74.5 659,-55.25 776.25,-55.25 776.25,-74.5"/>
<text text-anchor="middle" x="717.62" y="-61" font-family="Helvetica,sans-Serif" font-size="10.00">liger/render/rhi/filter.hpp</text>
</a>
</g>
</g>
<!-- Node21&#45;&gt;Node23 -->
<g id="edge27_Node000021_Node000023" class="edge">
<title>Node21&#45;&gt;Node23</title>
<g id="a_edge27_Node000021_Node000023"><a xlink:title=" ">
<path fill="none" stroke="#63b8ff" d="M381.42,-170.94C415.06,-161.98 466.54,-147.12 509.62,-129.75 527.18,-122.67 529.93,-117.22 547.62,-110.5 584.66,-96.44 627.85,-85.16 661.43,-77.46"/>
<polygon fill="#63b8ff" stroke="#63b8ff" points="661.96,-80.93 670.95,-75.32 660.43,-74.1 661.96,-80.93"/>
</a>
</g>
</g>
<!-- Node21&#45;&gt;Node24 -->
<g id="edge29_Node000021_Node000024" class="edge">
<title>Node21&#45;&gt;Node24</title>
<g id="a_edge29_Node000021_Node000024"><a xlink:title=" ">
<path fill="none" stroke="#63b8ff" d="M325.14,-170.93C302.79,-161.04 266.86,-145.13 241.63,-133.96"/>
<polygon fill="#63b8ff" stroke="#63b8ff" points="243.15,-130.81 232.59,-129.96 240.32,-137.21 243.15,-130.81"/>
</a>
</g>
</g>
<!-- Node22&#45;&gt;Node14 -->
<g id="edge26_Node000022_Node000014" class="edge">
<title>Node22&#45;&gt;Node14</title>
<g id="a_edge26_Node000022_Node000014"><a xlink:title=" ">
<path fill="none" stroke="#63b8ff" d="M465.95,-110.07C506.47,-97.22 583.42,-73.28 649.62,-55.25 701.3,-41.18 761.75,-26.85 798.61,-18.35"/>
<polygon fill="#63b8ff" stroke="#63b8ff" points="799.26,-21.79 808.23,-16.14 797.7,-14.96 799.26,-21.79"/>
</a>
</g>
</g>
<!-- Node23&#45;&gt;Node14 -->
<g id="edge28_Node000023_Node000014" class="edge">
<title>Node23&#45;&gt;Node14</title>
<g id="a_edge28_Node000023_Node000014"><a xlink:title=" ">
<path fill="none" stroke="#63b8ff" d="M737.13,-54.84C755.14,-46.5 782.15,-34 802.85,-24.41"/>
<polygon fill="#63b8ff" stroke="#63b8ff" points="804.04,-27.72 811.65,-20.34 801.1,-21.36 804.04,-27.72"/>
</a>
</g>
</g>
<!-- Node25&#45;&gt;Node15 -->
<g id="edge32_Node000025_Node000015" class="edge">
<title>Node25&#45;&gt;Node15</title>
<g id="a_edge32_Node000025_Node000015"><a xlink:title=" ">
<path fill="none" stroke="#63b8ff" d="M1487.62,-165.45C1487.62,-158.21 1487.62,-149.34 1487.62,-141.44"/>
<polygon fill="#63b8ff" stroke="#63b8ff" points="1491.13,-141.71 1487.63,-131.71 1484.13,-141.71 1491.13,-141.71"/>
</a>
</g>
</g>
<!-- Node26 -->
<g id="Node000026" class="node">
<title>Node26</title>
<g id="a_Node000026"><a xlink:title=" ">
<polygon fill="#e0e0e0" stroke="#999999" points="1448.25,-129.75 1403,-129.75 1403,-110.5 1448.25,-110.5 1448.25,-129.75"/>
<text text-anchor="middle" x="1425.62" y="-116.25" font-family="Helvetica,sans-Serif" font-size="10.00">variant</text>
</a>
</g>
</g>
<!-- Node25&#45;&gt;Node26 -->
<g id="edge31_Node000025_Node000026" class="edge">
<title>Node25&#45;&gt;Node26</title>
<g id="a_edge31_Node000025_Node000026"><a xlink:title=" ">
<path fill="none" stroke="#63b8ff" d="M1472.3,-165.45C1463.59,-157.17 1452.63,-146.77 1443.52,-138.12"/>
<polygon fill="#63b8ff" stroke="#63b8ff" points="1445.94,-135.59 1436.28,-131.24 1441.12,-140.67 1445.94,-135.59"/>
</a>
</g>
</g>
<!-- Node27&#45;&gt;Node7 -->
<g id="edge34_Node000027_Node000007" class="edge">
<title>Node27&#45;&gt;Node7</title>
<g id="a_edge34_Node000027_Node000007"><a xlink:title=" ">
<path fill="none" stroke="#63b8ff" d="M747.51,-170.93C780.55,-160.9 833.96,-144.69 870.83,-133.5"/>
<polygon fill="#63b8ff" stroke="#63b8ff" points="871.7,-136.9 880.26,-130.65 869.67,-130.2 871.7,-136.9"/>
</a>
</g>
</g>
<!-- Node27&#45;&gt;Node10 -->
<g id="edge39_Node000027_Node000010" class="edge">
<title>Node27&#45;&gt;Node10</title>
<g id="a_edge39_Node000027_Node000010"><a xlink:title=" ">
<path fill="none" stroke="#63b8ff" d="M761.34,-170.88C771.26,-169 781.78,-167.17 791.62,-165.75 956.47,-141.98 1000.12,-155.78 1164.62,-129.75 1167.13,-129.35 1169.71,-128.89 1172.3,-128.4"/>
<polygon fill="#63b8ff" stroke="#63b8ff" points="1172.92,-131.85 1181.99,-126.38 1171.49,-124.99 1172.92,-131.85"/>
</a>
</g>
</g>
<!-- Node27&#45;&gt;Node13 -->
<g id="edge36_Node000027_Node000013" class="edge">
<title>Node27&#45;&gt;Node13</title>
<g id="a_edge36_Node000027_Node000013"><a xlink:title=" ">
<path fill="none" stroke="#63b8ff" d="M763.36,-170.88C772.7,-169.1 782.47,-167.31 791.62,-165.75 868.1,-152.71 955.91,-139.89 1016.69,-131.37"/>
<polygon fill="#63b8ff" stroke="#63b8ff" points="1016.79,-134.89 1026.21,-130.04 1015.82,-127.96 1016.79,-134.89"/>
</a>
</g>
</g>
<!-- Node27&#45;&gt;Node22 -->
<g id="edge35_Node000027_Node000022" class="edge">
<title>Node27&#45;&gt;Node22</title>
<g id="a_edge35_Node000027_Node000022"><a xlink:title=" ">
<path fill="none" stroke="#63b8ff" d="M674.49,-170.93C625.37,-160.6 545.04,-143.71 491.75,-132.51"/>
<polygon fill="#63b8ff" stroke="#63b8ff" points="492.8,-129.15 482.29,-130.52 491.36,-136 492.8,-129.15"/>
</a>
</g>
</g>
<!-- Node28 -->
<g id="Node000028" class="node">
<title>Node28</title>
<g id="a_Node000028"><a xlink:href="sampler__info_8hpp.html" target="_top" xlink:title=" ">
<polygon fill="white" stroke="#666666" points="795,-129.75 640.25,-129.75 640.25,-110.5 795,-110.5 795,-129.75"/>
<text text-anchor="middle" x="717.62" y="-116.25" font-family="Helvetica,sans-Serif" font-size="10.00">liger/render/rhi/sampler_info.hpp</text>
</a>
</g>
</g>
<!-- Node27&#45;&gt;Node28 -->
<g id="edge37_Node000027_Node000028" class="edge">
<title>Node27&#45;&gt;Node28</title>
<g id="a_edge37_Node000027_Node000028"><a xlink:title=" ">
<path fill="none" stroke="#63b8ff" d="M717.62,-171.06C717.62,-163.28 717.62,-151.7 717.62,-141.66"/>
<polygon fill="#63b8ff" stroke="#63b8ff" points="721.13,-141.66 717.63,-131.66 714.13,-141.66 721.13,-141.66"/>
</a>
</g>
</g>
<!-- Node28&#45;&gt;Node23 -->
<g id="edge38_Node000028_Node000023" class="edge">
<title>Node28&#45;&gt;Node23</title>
<g id="a_edge38_Node000028_Node000023"><a xlink:title=" ">
<path fill="none" stroke="#63b8ff" d="M717.62,-110.33C717.62,-103.82 717.62,-94.67 717.62,-86.37"/>
<polygon fill="#63b8ff" stroke="#63b8ff" points="721.13,-86.37 717.63,-76.37 714.13,-86.37 721.13,-86.37"/>
</a>
</g>
</g>
<!-- Node31&#45;&gt;Node14 -->
<g id="edge43_Node000031_Node000014" class="edge">
<title>Node31&#45;&gt;Node14</title>
<g id="a_edge43_Node000031_Node000014"><a xlink:title=" ">
<path fill="none" stroke="#63b8ff" d="M94.19,-170.92C126.43,-146.25 221,-78.31 312.62,-55.25 405.19,-31.95 697.6,-16.78 798.22,-12.13"/>
<polygon fill="#63b8ff" stroke="#63b8ff" points="798.17,-15.64 808,-11.69 797.85,-8.65 798.17,-15.64"/>
</a>
</g>
</g>
<!-- Node31&#45;&gt;Node24 -->
<g id="edge44_Node000031_Node000024" class="edge">
<title>Node31&#45;&gt;Node24</title>
<g id="a_edge44_Node000031_Node000024"><a xlink:title=" ">
<path fill="none" stroke="#63b8ff" d="M102.65,-170.93C124.24,-161.15 158.82,-145.49 183.43,-134.35"/>
<polygon fill="#63b8ff" stroke="#63b8ff" points="184.59,-137.66 192.25,-130.35 181.7,-131.29 184.59,-137.66"/>
</a>
</g>
</g>
<!-- Node32&#45;&gt;Node24 -->
<g id="edge49_Node000032_Node000024" class="edge">
<title>Node32&#45;&gt;Node24</title>
<g id="a_edge49_Node000032_Node000024"><a xlink:title=" ">
<path fill="none" stroke="#63b8ff" d="M583.39,-233.27C467.37,-221.15 254.02,-198.6 250.62,-196.25 232.07,-183.39 222.07,-158.71 217.06,-141.14"/>
<polygon fill="#63b8ff" stroke="#63b8ff" points="220.49,-140.43 214.66,-131.59 213.7,-142.14 220.49,-140.43"/>
</a>
</g>
</g>
<!-- Node32&#45;&gt;Node27 -->
<g id="edge48_Node000032_Node000027" class="edge">
<title>Node32&#45;&gt;Node27</title>
<g id="a_edge48_Node000032_Node000027"><a xlink:title=" ">
<path fill="none" stroke="#63b8ff" d="M665.89,-231.93C674.94,-223.2 688.93,-209.69 700.09,-198.93"/>
<polygon fill="#63b8ff" stroke="#63b8ff" points="702.42,-201.54 707.18,-192.08 697.56,-196.5 702.42,-201.54"/>
</a>
</g>
</g>
<!-- Node33 -->
<g id="Node000033" class="node">
<title>Node33</title>
<g id="a_Node000033"><a xlink:href="window_8hpp.html" target="_top" xlink:title=" ">
<polygon fill="white" stroke="#666666" points="596.25,-190.62 449,-190.62 449,-171.38 596.25,-171.38 596.25,-190.62"/>
<text text-anchor="middle" x="522.62" y="-177.12" font-family="Helvetica,sans-Serif" font-size="10.00">liger/core/platform/window.hpp</text>
</a>
</g>
</g>
<!-- Node32&#45;&gt;Node33 -->
<g id="edge46_Node000032_Node000033" class="edge">
<title>Node32&#45;&gt;Node33</title>
<g id="a_edge46_Node000032_Node000033"><a xlink:title=" ">
<path fill="none" stroke="#63b8ff" d="M635.98,-231.8C613.98,-222.14 578.91,-206.73 553.59,-195.61"/>
<polygon fill="#63b8ff" stroke="#63b8ff" points="555.02,-192.41 544.46,-191.59 552.21,-198.82 555.02,-192.41"/>
</a>
</g>
</g>
<!-- Node33&#45;&gt;Node30 -->
<g id="edge47_Node000033_Node000030" class="edge">
<title>Node33&#45;&gt;Node30</title>
<g id="a_edge47_Node000033_Node000030"><a xlink:title=" ">
<path fill="none" stroke="#63b8ff" d="M532.8,-171.06C542.84,-162.24 558.41,-148.55 570.72,-137.73"/>
<polygon fill="#63b8ff" stroke="#63b8ff" points="573.01,-140.38 578.22,-131.15 568.39,-135.12 573.01,-140.38"/>
</a>
</g>
</g>
<!-- Node35&#45;&gt;Node5 -->
<g id="edge64_Node000035_Node000005" class="edge">
<title>Node35&#45;&gt;Node5</title>
<g id="a_edge64_Node000035_Node000005"><a xlink:title=" ">
<path fill="none" stroke="#63b8ff" d="M868.49,-397.7C887.36,-385.86 914.86,-363.98 902.62,-342.75 894.49,-328.64 880,-318.58 865.77,-311.63"/>
<polygon fill="#63b8ff" stroke="#63b8ff" points="867.49,-308.57 856.93,-307.72 864.66,-314.97 867.49,-308.57"/>
</a>
</g>
</g>
<!-- Node35&#45;&gt;Node34 -->
<g id="edge65_Node000035_Node000034" class="edge">
<title>Node35&#45;&gt;Node34</title>
<g id="a_edge65_Node000035_Node000034"><a xlink:title=" ">
<path fill="none" stroke="#63b8ff" d="M823.28,-397.59C794.82,-388.83 751.43,-375.48 719.78,-365.73"/>
<polygon fill="#63b8ff" stroke="#63b8ff" points="721.15,-362.49 710.56,-362.9 719.09,-369.18 721.15,-362.49"/>
</a>
</g>
</g>
<!-- Node36 -->
<g id="Node000036" class="node">
<title>Node36</title>
<g id="a_Node000036"><a xlink:href="default__log_8hpp.html" target="_top" xlink:title=" ">
<polygon fill="white" stroke="#666666" points="1281.88,-362 1141.38,-362 1141.38,-342.75 1281.88,-342.75 1281.88,-362"/>
<text text-anchor="middle" x="1211.62" y="-348.5" font-family="Helvetica,sans-Serif" font-size="10.00">liger/core/log/default_log.hpp</text>
</a>
</g>
</g>
<!-- Node35&#45;&gt;Node36 -->
<g id="edge54_Node000035_Node000036" class="edge">
<title>Node35&#45;&gt;Node36</title>
<g id="a_edge54_Node000035_Node000036"><a xlink:title=" ">
<path fill="none" stroke="#63b8ff" d="M913.93,-397.53C976.31,-388.28 1072.97,-373.94 1139.11,-364.13"/>
<polygon fill="#63b8ff" stroke="#63b8ff" points="1139.4,-367.63 1148.77,-362.7 1138.37,-360.7 1139.4,-367.63"/>
</a>
</g>
</g>
<!-- Node41 -->
<g id="Node000041" class="node">
<title>Node41</title>
<g id="a_Node000041"><a xlink:href="rhi__log__level_8hpp.html" target="_top" xlink:title=" ">
<polygon fill="white" stroke="#666666" points="893.25,-362 740,-362 740,-342.75 893.25,-342.75 893.25,-362"/>
<text text-anchor="middle" x="816.62" y="-348.5" font-family="Helvetica,sans-Serif" font-size="10.00">liger/render/rhi/rhi_log_level.hpp</text>
</a>
</g>
</g>
<!-- Node35&#45;&gt;Node41 -->
<g id="edge63_Node000035_Node000041" class="edge">
<title>Node35&#45;&gt;Node41</title>
<g id="a_edge63_Node000035_Node000041"><a xlink:title=" ">
<path fill="none" stroke="#63b8ff" d="M846.68,-397.83C841.91,-390.78 835.06,-380.65 829.1,-371.83"/>
<polygon fill="#63b8ff" stroke="#63b8ff" points="832.05,-369.94 823.55,-363.61 826.25,-373.86 832.05,-369.94"/>
</a>
</g>
</g>
<!-- Node37 -->
<g id="Node000037" class="node">
<title>Node37</title>
<g id="a_Node000037"><a xlink:href="log_8hpp.html" target="_top" xlink:title=" ">
<polygon fill="white" stroke="#666666" points="1407.62,-306.75 1301.62,-306.75 1301.62,-287.5 1407.62,-287.5 1407.62,-306.75"/>
<text text-anchor="middle" x="1354.62" y="-293.25" font-family="Helvetica,sans-Serif" font-size="10.00">liger/core/log/log.hpp</text>
</a>
</g>
</g>
<!-- Node36&#45;&gt;Node37 -->
<g id="edge55_Node000036_Node000037" class="edge">
<title>Node36&#45;&gt;Node37</title>
<g id="a_edge55_Node000036_Node000037"><a xlink:title=" ">
<path fill="none" stroke="#63b8ff" d="M1235.88,-342.34C1258.89,-333.77 1293.72,-320.81 1319.71,-311.13"/>
<polygon fill="#63b8ff" stroke="#63b8ff" points="1320.68,-314.5 1328.83,-307.73 1318.24,-307.94 1320.68,-314.5"/>
</a>
</g>
</g>
<!-- Node38 -->
<g id="Node000038" class="node">
<title>Node38</title>
<g id="a_Node000038"><a xlink:title=" ">
<polygon fill="#e0e0e0" stroke="#999999" points="1490.75,-251.5 1430.5,-251.5 1430.5,-232.25 1490.75,-232.25 1490.75,-251.5"/>
<text text-anchor="middle" x="1460.62" y="-238" font-family="Helvetica,sans-Serif" font-size="10.00">fmt/core.h</text>
</a>
</g>
</g>
<!-- Node37&#45;&gt;Node38 -->
<g id="edge56_Node000037_Node000038" class="edge">
<title>Node37&#45;&gt;Node38</title>
<g id="a_edge56_Node000037_Node000038"><a xlink:title=" ">
<path fill="none" stroke="#63b8ff" d="M1372.61,-287.09C1388.98,-278.87 1413.41,-266.59 1432.39,-257.06"/>
<polygon fill="#63b8ff" stroke="#63b8ff" points="1433.84,-260.25 1441.2,-252.63 1430.7,-253.99 1433.84,-260.25"/>
</a>
</g>
</g>
<!-- Node39 -->
<g id="Node000039" class="node">
<title>Node39</title>
<g id="a_Node000039"><a xlink:href="log__message_8hpp.html" target="_top" xlink:title=" ">
<polygon fill="white" stroke="#666666" points="1392.12,-190.62 1241.12,-190.62 1241.12,-171.38 1392.12,-171.38 1392.12,-190.62"/>
<text text-anchor="middle" x="1316.62" y="-177.12" font-family="Helvetica,sans-Serif" font-size="10.00">liger/core/log/log_message.hpp</text>
</a>
</g>
</g>
<!-- Node37&#45;&gt;Node39 -->
<g id="edge57_Node000037_Node000039" class="edge">
<title>Node37&#45;&gt;Node39</title>
<g id="a_edge57_Node000037_Node000039"><a xlink:title=" ">
<path fill="none" stroke="#63b8ff" d="M1363.76,-287.35C1375.51,-274.95 1393.32,-251.64 1383.62,-232.25 1375.88,-216.76 1360.84,-204.81 1346.97,-196.45"/>
<polygon fill="#63b8ff" stroke="#63b8ff" points="1348.96,-193.56 1338.52,-191.74 1345.55,-199.67 1348.96,-193.56"/>
</a>
</g>
</g>
<!-- Node40 -->
<g id="Node000040" class="node">
<title>Node40</title>
<g id="a_Node000040"><a xlink:href="log__writer_8hpp.html" target="_top" xlink:title=" ">
<polygon fill="white" stroke="#666666" points="1374.88,-251.5 1240.38,-251.5 1240.38,-232.25 1374.88,-232.25 1374.88,-251.5"/>
<text text-anchor="middle" x="1307.62" y="-238" font-family="Helvetica,sans-Serif" font-size="10.00">liger/core/log/log_writer.hpp</text>
</a>
</g>
</g>
<!-- Node37&#45;&gt;Node40 -->
<g id="edge61_Node000037_Node000040" class="edge">
<title>Node37&#45;&gt;Node40</title>
<g id="a_edge61_Node000037_Node000040"><a xlink:title=" ">
<path fill="none" stroke="#63b8ff" d="M1346.86,-287.33C1340.44,-280.05 1331.11,-269.48 1323.16,-260.48"/>
<polygon fill="#63b8ff" stroke="#63b8ff" points="1325.8,-258.18 1316.56,-252.99 1320.55,-262.81 1325.8,-258.18"/>
</a>
</g>
</g>
<!-- Node39&#45;&gt;Node10 -->
<g id="edge59_Node000039_Node000010" class="edge">
<title>Node39&#45;&gt;Node10</title>
<g id="a_edge59_Node000039_Node000010"><a xlink:title=" ">
<path fill="none" stroke="#63b8ff" d="M1299.46,-171.06C1281.29,-161.59 1252.35,-146.51 1231.02,-135.4"/>
<polygon fill="#63b8ff" stroke="#63b8ff" points="1232.78,-132.37 1222.29,-130.85 1229.54,-138.58 1232.78,-132.37"/>
</a>
</g>
</g>
<!-- Node39&#45;&gt;Node14 -->
<g id="edge58_Node000039_Node000014" class="edge">
<title>Node39&#45;&gt;Node14</title>
<g id="a_edge58_Node000039_Node000014"><a xlink:title=" ">
<path fill="none" stroke="#63b8ff" d="M1308.72,-171.29C1294.8,-156.51 1264.38,-126.55 1232.62,-110.5 1107.02,-47.02 938.39,-22.13 866.93,-14.01"/>
<polygon fill="#63b8ff" stroke="#63b8ff" points="867.35,-10.53 857.03,-12.92 866.59,-17.49 867.35,-10.53"/>
</a>
</g>
</g>
<!-- Node39&#45;&gt;Node30 -->
<g id="edge60_Node000039_Node000030" class="edge">
<title>Node39&#45;&gt;Node30</title>
<g id="a_edge60_Node000039_Node000030"><a xlink:title=" ">
<path fill="none" stroke="#63b8ff" d="M1243.52,-170.9C1227.12,-169.04 1209.79,-167.2 1193.62,-165.75 947.99,-143.67 881.63,-162.44 633.74,-129.83"/>
<polygon fill="#63b8ff" stroke="#63b8ff" points="634.44,-126.39 624.07,-128.54 633.52,-133.33 634.44,-126.39"/>
</a>
</g>
</g>
<!-- Node40&#45;&gt;Node39 -->
<g id="edge62_Node000040_Node000039" class="edge">
<title>Node40&#45;&gt;Node39</title>
<g id="a_edge62_Node000040_Node000039"><a xlink:title=" ">
<path fill="none" stroke="#63b8ff" d="M1308.99,-231.93C1310.19,-224.07 1311.99,-212.32 1313.54,-202.2"/>
<polygon fill="#63b8ff" stroke="#63b8ff" points="1316.97,-202.94 1315.02,-192.52 1310.05,-201.88 1316.97,-202.94"/>
</a>
</g>
</g>
</g>
</svg>
