<?xml version="1.0" encoding="UTF-8" standalone="no"?>
<!DOCTYPE svg PUBLIC "-//W3C//DTD SVG 1.1//EN"
 "http://www.w3.org/Graphics/SVG/1.1/DTD/svg11.dtd">
<!-- Generated by graphviz version 9.0.0 (20230911.1827)
 -->
<!-- Title: window.hpp Pages: 1 -->
<svg width="350pt" height="138pt"
 viewBox="0.00 0.00 349.75 137.75" xmlns="http://www.w3.org/2000/svg" xmlns:xlink="http://www.w3.org/1999/xlink">

<svg id="main" version="1.1" xmlns="http://www.w3.org/2000/svg" xmlns:xlink="http://www.w3.org/1999/xlink" xml:space="preserve" onload="init(evt)">
<style type="text/css"><![CDATA[
.node, .edge {opacity: 0.7;}
.node.selected, .edge.selected {opacity: 1;}
.edge:hover path { stroke: red; }
.edge:hover polygon { stroke: red; fill: red; }
]]></style>
<script type="application/ecmascript" xlink:href="svg.min.js"/>
<svg id="graph" class="graph">
<g id="graph0" class="graph" transform="scale(1 1) rotate(0) translate(4 133.75)">
<title>window.hpp</title>
<!-- Node1 -->
<g id="Node000001" class="node">
<title>Node1</title>
<g id="a_Node000001"><a xlink:title=" ">
<polygon fill="#999999" stroke="#666666" points="193.75,-129.75 127.5,-129.75 127.5,-110.5 193.75,-110.5 193.75,-129.75"/>
<text text-anchor="middle" x="160.62" y="-116.25" font-family="Helvetica,sans-Serif" font-size="10.00">window.hpp</text>
</a>
</g>
</g>
<!-- Node2 -->
<g id="Node000002" class="node">
<title>Node2</title>
<g id="a_Node000002"><a xlink:href="deprecated_2device_8hpp_source.html" target="_top" xlink:title=" ">
<polygon fill="white" stroke="#666666" points="63.25,-74.5 0,-74.5 0,-55.25 63.25,-55.25 63.25,-74.5"/>
<text text-anchor="middle" x="31.62" y="-61" font-family="Helvetica,sans-Serif" font-size="10.00">device.hpp</text>
</a>
</g>
</g>
<!-- Node1&#45;&gt;Node2 -->
<g id="edge1_Node000001_Node000002" class="edge">
<title>Node1&#45;&gt;Node2</title>
<g id="a_edge1_Node000001_Node000002"><a xlink:title=" ">
<path fill="none" stroke="#63b8ff" d="M128.3,-105.78C104.99,-96.16 74.13,-83.42 53.62,-74.95"/>
<polygon fill="#63b8ff" stroke="#63b8ff" points="126.76,-108.93 137.34,-109.51 129.43,-102.46 126.76,-108.93"/>
</a>
</g>
</g>
<!-- Node3 -->
<g id="Node000003" class="node">
<title>Node3</title>
<g id="a_Node000003"><a xlink:href="device_8hpp_source.html" target="_top" xlink:title=" ">
<polygon fill="white" stroke="#666666" points="144.25,-74.5 81,-74.5 81,-55.25 144.25,-55.25 144.25,-74.5"/>
<text text-anchor="middle" x="112.62" y="-61" font-family="Helvetica,sans-Serif" font-size="10.00">device.hpp</text>
</a>
</g>
</g>
<!-- Node1&#45;&gt;Node3 -->
<g id="edge2_Node000001_Node000003" class="edge">
<title>Node1&#45;&gt;Node3</title>
<g id="a_edge2_Node000001_Node000003"><a xlink:title=" ">
<path fill="none" stroke="#63b8ff" d="M145.23,-102.04C137.08,-93 127.41,-82.27 120.72,-74.86"/>
<polygon fill="#63b8ff" stroke="#63b8ff" points="142.39,-104.12 151.69,-109.21 147.59,-99.44 142.39,-104.12"/>
</a>
</g>
</g>
<!-- Node4 -->
<g id="Node000004" class="node">
<title>Node4</title>
<g id="a_Node000004"><a xlink:href="platform__layer_8hpp.html" target="_top" xlink:title=" ">
<polygon fill="white" stroke="#666666" points="257.38,-74.5 161.88,-74.5 161.88,-55.25 257.38,-55.25 257.38,-74.5"/>
<text text-anchor="middle" x="209.62" y="-61" font-family="Helvetica,sans-Serif" font-size="10.00">platform_layer.hpp</text>
</a>
</g>
</g>
<!-- Node1&#45;&gt;Node4 -->
<g id="edge3_Node000001_Node000004" class="edge">
<title>Node1&#45;&gt;Node4</title>
<g id="a_edge3_Node000001_Node000004"><a xlink:title=" ">
<path fill="none" stroke="#63b8ff" d="M176.34,-102.04C184.66,-93 194.54,-82.27 201.36,-74.86"/>
<polygon fill="#63b8ff" stroke="#63b8ff" points="173.94,-99.49 169.74,-109.22 179.09,-104.23 173.94,-99.49"/>
</a>
</g>
</g>
<!-- Node6 -->
<g id="Node000006" class="node">
<title>Node6</title>
<g id="a_Node000006"><a xlink:href="window_8cpp.html" target="_top" xlink:title=" ">
<polygon fill="white" stroke="#666666" points="341.75,-74.5 275.5,-74.5 275.5,-55.25 341.75,-55.25 341.75,-74.5"/>
<text text-anchor="middle" x="308.62" y="-61" font-family="Helvetica,sans-Serif" font-size="10.00">window.cpp</text>
</a>
</g>
</g>
<!-- Node1&#45;&gt;Node6 -->
<g id="edge5_Node000001_Node000006" class="edge">
<title>Node1&#45;&gt;Node6</title>
<g id="a_edge5_Node000001_Node000006"><a xlink:title=" ">
<path fill="none" stroke="#63b8ff" d="M196.26,-106.3C223.17,-96.62 259.43,-83.57 283.4,-74.95"/>
<polygon fill="#63b8ff" stroke="#63b8ff" points="195.38,-102.9 187.16,-109.58 197.75,-109.49 195.38,-102.9"/>
</a>
</g>
</g>
<!-- Node5 -->
<g id="Node000005" class="node">
<title>Node5</title>
<g id="a_Node000005"><a xlink:href="platform__layer_8cpp.html" target="_top" xlink:title=" ">
<polygon fill="white" stroke="#666666" points="257.38,-19.25 161.88,-19.25 161.88,0 257.38,0 257.38,-19.25"/>
<text text-anchor="middle" x="209.62" y="-5.75" font-family="Helvetica,sans-Serif" font-size="10.00">platform_layer.cpp</text>
</a>
</g>
</g>
<!-- Node4&#45;&gt;Node5 -->
<g id="edge4_Node000004_Node000005" class="edge">
<title>Node4&#45;&gt;Node5</title>
<g id="a_edge4_Node000004_Node000005"><a xlink:title=" ">
<path fill="none" stroke="#63b8ff" d="M209.62,-43.63C209.62,-35.34 209.62,-26.17 209.62,-19.61"/>
<polygon fill="#63b8ff" stroke="#63b8ff" points="206.13,-43.57 209.63,-53.57 213.13,-43.57 206.13,-43.57"/>
</a>
</g>
</g>
</g>
</svg>
</svg>

<style type='text/css'>
<![CDATA[
[data-mouse-over-selected='false'] { opacity: 0.7; }
[data-mouse-over-selected='true']  { opacity: 1.0; }
]]>
</style>
<script type="application/ecmascript"><![CDATA[
document.addEventListener('DOMContentLoaded', (event) => {
  highlightEdges();
  highlightAdjacentNodes();
});
]]></script>
</svg>
