<?xml version="1.0" encoding="UTF-8" standalone="no"?>
<!DOCTYPE svg PUBLIC "-//W3C//DTD SVG 1.1//EN"
 "http://www.w3.org/Graphics/SVG/1.1/DTD/svg11.dtd">
<!-- Generated by graphviz version 2.43.0 (0)
 -->
<!-- Title: event_sink.hpp Pages: 1 -->
<svg width="823pt" height="532pt"
 viewBox="0.00 0.00 822.50 532.00" xmlns="http://www.w3.org/2000/svg" xmlns:xlink="http://www.w3.org/1999/xlink">
<g id="graph0" class="graph" transform="scale(1 1) rotate(0) translate(4 528)">
<title>event_sink.hpp</title>
<polygon fill="white" stroke="transparent" points="-4,4 -4,-528 818.5,-528 818.5,4 -4,4"/>
<!-- Node1 -->
<g id="node1" class="node">
<title>Node1</title>
<g id="a_node1"><a xlink:title=" ">
<polygon fill="#bfbfbf" stroke="black" points="372.5,-504.5 372.5,-523.5 463.5,-523.5 463.5,-504.5 372.5,-504.5"/>
<text text-anchor="middle" x="418" y="-511.5" font-family="Helvetica,sans-Serif" font-size="10.00">event_sink.hpp</text>
</a>
</g>
</g>
<!-- Node2 -->
<g id="node2" class="node">
<title>Node2</title>
<g id="a_node2"><a xlink:href="callback_8hpp.html" target="_top" xlink:title=" ">
<polygon fill="white" stroke="black" points="324,-448.5 324,-467.5 512,-467.5 512,-448.5 324,-448.5"/>
<text text-anchor="middle" x="418" y="-455.5" font-family="Helvetica,sans-Serif" font-size="10.00">liger/core/event/detail/callback.hpp</text>
</a>
</g>
</g>
<!-- Node1&#45;&gt;Node2 -->
<g id="edge1" class="edge">
<title>Node1&#45;&gt;Node2</title>
<path fill="none" stroke="midnightblue" d="M418,-504.08C418,-497.01 418,-486.86 418,-477.99"/>
<polygon fill="midnightblue" stroke="midnightblue" points="421.5,-477.75 418,-467.75 414.5,-477.75 421.5,-477.75"/>
</g>
<!-- Node3 -->
<g id="node3" class="node">
<title>Node3</title>
<g id="a_node3"><a xlink:href="default__log_8hpp.html" target="_top" xlink:title=" ">
<polygon fill="white" stroke="black" points="181.5,-392.5 181.5,-411.5 340.5,-411.5 340.5,-392.5 181.5,-392.5"/>
<text text-anchor="middle" x="261" y="-399.5" font-family="Helvetica,sans-Serif" font-size="10.00">liger/core/log/default_log.hpp</text>
</a>
</g>
</g>
<!-- Node2&#45;&gt;Node3 -->
<g id="edge2" class="edge">
<title>Node2&#45;&gt;Node3</title>
<path fill="none" stroke="midnightblue" d="M393.12,-448.44C366.71,-439.36 324.78,-424.94 295.26,-414.78"/>
<polygon fill="midnightblue" stroke="midnightblue" points="296.36,-411.46 285.76,-411.52 294.08,-418.08 296.36,-411.46"/>
</g>
<!-- Node9 -->
<g id="node9" class="node">
<title>Node9</title>
<g id="a_node9"><a xlink:href="types_8hpp.html" target="_top" xlink:title=" ">
<polygon fill="white" stroke="black" points="342.5,-56.5 342.5,-75.5 455.5,-75.5 455.5,-56.5 342.5,-56.5"/>
<text text-anchor="middle" x="399" y="-63.5" font-family="Helvetica,sans-Serif" font-size="10.00">liger/core/types.hpp</text>
</a>
</g>
</g>
<!-- Node2&#45;&gt;Node9 -->
<g id="edge25" class="edge">
<title>Node2&#45;&gt;Node9</title>
<path fill="none" stroke="midnightblue" d="M418,-448.44C418,-429.94 418,-384.81 418,-347 418,-347 418,-347 418,-177 418,-144.49 409.84,-107.35 404.22,-85.61"/>
<polygon fill="midnightblue" stroke="midnightblue" points="407.54,-84.5 401.56,-75.75 400.78,-86.32 407.54,-84.5"/>
</g>
<!-- Node22 -->
<g id="node22" class="node">
<title>Node22</title>
<g id="a_node22"><a xlink:href="log__channels_8hpp_source.html" target="_top" xlink:title=" ">
<polygon fill="white" stroke="black" points="446,-336.5 446,-355.5 614,-355.5 614,-336.5 446,-336.5"/>
<text text-anchor="middle" x="530" y="-343.5" font-family="Helvetica,sans-Serif" font-size="10.00">liger/core/log/log_channels.hpp</text>
</a>
</g>
</g>
<!-- Node2&#45;&gt;Node22 -->
<g id="edge23" class="edge">
<title>Node2&#45;&gt;Node22</title>
<path fill="none" stroke="midnightblue" d="M426.79,-448.37C445.6,-429.89 489.99,-386.29 513.97,-362.74"/>
<polygon fill="midnightblue" stroke="midnightblue" points="516.57,-365.1 521.25,-355.59 511.67,-360.1 516.57,-365.1"/>
</g>
<!-- Node4 -->
<g id="node4" class="node">
<title>Node4</title>
<g id="a_node4"><a xlink:href="log_8hpp.html" target="_top" xlink:title=" ">
<polygon fill="white" stroke="black" points="175.5,-336.5 175.5,-355.5 294.5,-355.5 294.5,-336.5 175.5,-336.5"/>
<text text-anchor="middle" x="235" y="-343.5" font-family="Helvetica,sans-Serif" font-size="10.00">liger/core/log/log.hpp</text>
</a>
</g>
</g>
<!-- Node3&#45;&gt;Node4 -->
<g id="edge3" class="edge">
<title>Node3&#45;&gt;Node4</title>
<path fill="none" stroke="midnightblue" d="M256.71,-392.08C253.15,-384.69 247.98,-373.95 243.58,-364.81"/>
<polygon fill="midnightblue" stroke="midnightblue" points="246.71,-363.24 239.21,-355.75 240.4,-366.28 246.71,-363.24"/>
</g>
<!-- Node5 -->
<g id="node5" class="node">
<title>Node5</title>
<g id="a_node5"><a xlink:title=" ">
<polygon fill="white" stroke="#bfbfbf" points="114.5,-280.5 114.5,-299.5 181.5,-299.5 181.5,-280.5 114.5,-280.5"/>
<text text-anchor="middle" x="148" y="-287.5" font-family="Helvetica,sans-Serif" font-size="10.00">fmt/core.h</text>
</a>
</g>
</g>
<!-- Node4&#45;&gt;Node5 -->
<g id="edge4" class="edge">
<title>Node4&#45;&gt;Node5</title>
<path fill="none" stroke="midnightblue" d="M221.02,-336.32C207.45,-327.9 186.62,-314.97 170.68,-305.07"/>
<polygon fill="midnightblue" stroke="midnightblue" points="172.29,-301.95 161.94,-299.65 168.59,-307.9 172.29,-301.95"/>
</g>
<!-- Node6 -->
<g id="node6" class="node">
<title>Node6</title>
<g id="a_node6"><a xlink:href="log__message_8hpp.html" target="_top" xlink:title=" ">
<polygon fill="white" stroke="black" points="207.5,-224.5 207.5,-243.5 376.5,-243.5 376.5,-224.5 207.5,-224.5"/>
<text text-anchor="middle" x="292" y="-231.5" font-family="Helvetica,sans-Serif" font-size="10.00">liger/core/log/log_message.hpp</text>
</a>
</g>
</g>
<!-- Node4&#45;&gt;Node6 -->
<g id="edge5" class="edge">
<title>Node4&#45;&gt;Node6</title>
<path fill="none" stroke="midnightblue" d="M231.42,-336.44C226.58,-323.46 219.56,-298.34 229,-280 236.08,-266.25 249.52,-255.77 262.18,-248.39"/>
<polygon fill="midnightblue" stroke="midnightblue" points="264,-251.39 271.15,-243.57 260.69,-245.22 264,-251.39"/>
</g>
<!-- Node21 -->
<g id="node21" class="node">
<title>Node21</title>
<g id="a_node21"><a xlink:href="log__writer_8hpp.html" target="_top" xlink:title=" ">
<polygon fill="white" stroke="black" points="238,-280.5 238,-299.5 390,-299.5 390,-280.5 238,-280.5"/>
<text text-anchor="middle" x="314" y="-287.5" font-family="Helvetica,sans-Serif" font-size="10.00">liger/core/log/log_writer.hpp</text>
</a>
</g>
</g>
<!-- Node4&#45;&gt;Node21 -->
<g id="edge21" class="edge">
<title>Node4&#45;&gt;Node21</title>
<path fill="none" stroke="midnightblue" d="M247.69,-336.32C259.9,-327.98 278.58,-315.21 293,-305.35"/>
<polygon fill="midnightblue" stroke="midnightblue" points="295.06,-308.19 301.34,-299.65 291.11,-302.41 295.06,-308.19"/>
</g>
<!-- Node7 -->
<g id="node7" class="node">
<title>Node7</title>
<g id="a_node7"><a xlink:href="log__level_8hpp.html" target="_top" xlink:title=" ">
<polygon fill="white" stroke="black" points="203.5,-168.5 203.5,-187.5 352.5,-187.5 352.5,-168.5 203.5,-168.5"/>
<text text-anchor="middle" x="278" y="-175.5" font-family="Helvetica,sans-Serif" font-size="10.00">liger/core/log/log_level.hpp</text>
</a>
</g>
</g>
<!-- Node6&#45;&gt;Node7 -->
<g id="edge6" class="edge">
<title>Node6&#45;&gt;Node7</title>
<path fill="none" stroke="midnightblue" d="M289.69,-224.08C287.83,-216.93 285.16,-206.64 282.85,-197.69"/>
<polygon fill="midnightblue" stroke="midnightblue" points="286.17,-196.55 280.27,-187.75 279.39,-198.31 286.17,-196.55"/>
</g>
<!-- Node6&#45;&gt;Node9 -->
<g id="edge20" class="edge">
<title>Node6&#45;&gt;Node9</title>
<path fill="none" stroke="midnightblue" d="M312.28,-224.43C327.72,-216.94 348.39,-204.64 361,-188 384.53,-156.96 393.69,-111.04 397.1,-85.62"/>
<polygon fill="midnightblue" stroke="midnightblue" points="400.59,-85.86 398.29,-75.52 393.64,-85.04 400.59,-85.86"/>
</g>
<!-- Node8 -->
<g id="node8" class="node">
<title>Node8</title>
<g id="a_node8"><a xlink:href="enum__class_8hpp.html" target="_top" xlink:title=" ">
<polygon fill="white" stroke="black" points="207,-112.5 207,-131.5 351,-131.5 351,-112.5 207,-112.5"/>
<text text-anchor="middle" x="279" y="-119.5" font-family="Helvetica,sans-Serif" font-size="10.00">liger/core/enum_class.hpp</text>
</a>
</g>
</g>
<!-- Node7&#45;&gt;Node8 -->
<g id="edge7" class="edge">
<title>Node7&#45;&gt;Node8</title>
<path fill="none" stroke="midnightblue" d="M278.17,-168.08C278.3,-161.01 278.48,-150.86 278.65,-141.99"/>
<polygon fill="midnightblue" stroke="midnightblue" points="282.15,-141.81 278.84,-131.75 275.15,-141.68 282.15,-141.81"/>
</g>
<!-- Node8&#45;&gt;Node9 -->
<g id="edge8" class="edge">
<title>Node8&#45;&gt;Node9</title>
<path fill="none" stroke="midnightblue" d="M298.01,-112.44C317.59,-103.64 348.31,-89.81 370.73,-79.72"/>
<polygon fill="midnightblue" stroke="midnightblue" points="372.39,-82.81 380.07,-75.52 369.52,-76.43 372.39,-82.81"/>
</g>
<!-- Node10 -->
<g id="node10" class="node">
<title>Node10</title>
<g id="a_node10"><a xlink:title=" ">
<polygon fill="white" stroke="#bfbfbf" points="0,-0.5 0,-19.5 50,-19.5 50,-0.5 0,-0.5"/>
<text text-anchor="middle" x="25" y="-7.5" font-family="Helvetica,sans-Serif" font-size="10.00">cstdint</text>
</a>
</g>
</g>
<!-- Node9&#45;&gt;Node10 -->
<g id="edge9" class="edge">
<title>Node9&#45;&gt;Node10</title>
<path fill="none" stroke="midnightblue" d="M342.39,-59.73C276.73,-53.13 165.11,-40.37 60.29,-20.04"/>
<polygon fill="midnightblue" stroke="midnightblue" points="60.66,-16.54 50.17,-18.04 59.3,-23.41 60.66,-16.54"/>
</g>
<!-- Node11 -->
<g id="node11" class="node">
<title>Node11</title>
<g id="a_node11"><a xlink:title=" ">
<polygon fill="white" stroke="#bfbfbf" points="68.5,-0.5 68.5,-19.5 123.5,-19.5 123.5,-0.5 68.5,-0.5"/>
<text text-anchor="middle" x="96" y="-7.5" font-family="Helvetica,sans-Serif" font-size="10.00">fstream</text>
</a>
</g>
</g>
<!-- Node9&#45;&gt;Node11 -->
<g id="edge10" class="edge">
<title>Node9&#45;&gt;Node11</title>
<path fill="none" stroke="midnightblue" d="M342.48,-56.63C290.7,-48.69 211.71,-35.91 133.82,-20.05"/>
<polygon fill="midnightblue" stroke="midnightblue" points="134.33,-16.58 123.83,-17.99 132.92,-23.44 134.33,-16.58"/>
</g>
<!-- Node12 -->
<g id="node12" class="node">
<title>Node12</title>
<g id="a_node12"><a xlink:title=" ">
<polygon fill="white" stroke="#bfbfbf" points="142,-0.5 142,-19.5 220,-19.5 220,-0.5 142,-0.5"/>
<text text-anchor="middle" x="181" y="-7.5" font-family="Helvetica,sans-Serif" font-size="10.00">glm/glm.hpp</text>
</a>
</g>
</g>
<!-- Node9&#45;&gt;Node12 -->
<g id="edge11" class="edge">
<title>Node9&#45;&gt;Node12</title>
<path fill="none" stroke="midnightblue" d="M364.46,-56.44C326.75,-47.1 266.26,-32.12 225.14,-21.93"/>
<polygon fill="midnightblue" stroke="midnightblue" points="225.93,-18.52 215.38,-19.52 224.25,-25.32 225.93,-18.52"/>
</g>
<!-- Node13 -->
<g id="node13" class="node">
<title>Node13</title>
<g id="a_node13"><a xlink:title=" ">
<polygon fill="white" stroke="#bfbfbf" points="238,-0.5 238,-19.5 298,-19.5 298,-0.5 238,-0.5"/>
<text text-anchor="middle" x="268" y="-7.5" font-family="Helvetica,sans-Serif" font-size="10.00">iostream</text>
</a>
</g>
</g>
<!-- Node9&#45;&gt;Node13 -->
<g id="edge12" class="edge">
<title>Node9&#45;&gt;Node13</title>
<path fill="none" stroke="midnightblue" d="M378.24,-56.44C356.68,-47.56 322.74,-33.56 298.21,-23.45"/>
<polygon fill="midnightblue" stroke="midnightblue" points="299.24,-20.09 288.66,-19.52 296.57,-26.56 299.24,-20.09"/>
</g>
<!-- Node14 -->
<g id="node14" class="node">
<title>Node14</title>
<g id="a_node14"><a xlink:title=" ">
<polygon fill="white" stroke="#bfbfbf" points="316,-0.5 316,-19.5 354,-19.5 354,-0.5 316,-0.5"/>
<text text-anchor="middle" x="335" y="-7.5" font-family="Helvetica,sans-Serif" font-size="10.00">map</text>
</a>
</g>
</g>
<!-- Node9&#45;&gt;Node14 -->
<g id="edge13" class="edge">
<title>Node9&#45;&gt;Node14</title>
<path fill="none" stroke="midnightblue" d="M388.72,-56.32C379.16,-48.26 364.72,-36.08 353.22,-26.37"/>
<polygon fill="midnightblue" stroke="midnightblue" points="355.37,-23.61 345.47,-19.83 350.86,-28.96 355.37,-23.61"/>
</g>
<!-- Node15 -->
<g id="node15" class="node">
<title>Node15</title>
<g id="a_node15"><a xlink:title=" ">
<polygon fill="white" stroke="#bfbfbf" points="372,-0.5 372,-19.5 426,-19.5 426,-0.5 372,-0.5"/>
<text text-anchor="middle" x="399" y="-7.5" font-family="Helvetica,sans-Serif" font-size="10.00">random</text>
</a>
</g>
</g>
<!-- Node9&#45;&gt;Node15 -->
<g id="edge14" class="edge">
<title>Node9&#45;&gt;Node15</title>
<path fill="none" stroke="midnightblue" d="M399,-56.08C399,-49.01 399,-38.86 399,-29.99"/>
<polygon fill="midnightblue" stroke="midnightblue" points="402.5,-29.75 399,-19.75 395.5,-29.75 402.5,-29.75"/>
</g>
<!-- Node16 -->
<g id="node16" class="node">
<title>Node16</title>
<g id="a_node16"><a xlink:title=" ">
<polygon fill="white" stroke="#bfbfbf" points="444,-0.5 444,-19.5 488,-19.5 488,-0.5 444,-0.5"/>
<text text-anchor="middle" x="466" y="-7.5" font-family="Helvetica,sans-Serif" font-size="10.00">string</text>
</a>
</g>
</g>
<!-- Node9&#45;&gt;Node16 -->
<g id="edge15" class="edge">
<title>Node9&#45;&gt;Node16</title>
<path fill="none" stroke="midnightblue" d="M409.76,-56.32C419.77,-48.26 434.89,-36.08 446.93,-26.37"/>
<polygon fill="midnightblue" stroke="midnightblue" points="449.45,-28.83 455.04,-19.83 445.06,-23.38 449.45,-28.83"/>
</g>
<!-- Node17 -->
<g id="node17" class="node">
<title>Node17</title>
<g id="a_node17"><a xlink:title=" ">
<polygon fill="white" stroke="#bfbfbf" points="506.5,-0.5 506.5,-19.5 579.5,-19.5 579.5,-0.5 506.5,-0.5"/>
<text text-anchor="middle" x="543" y="-7.5" font-family="Helvetica,sans-Serif" font-size="10.00">string_view</text>
</a>
</g>
</g>
<!-- Node9&#45;&gt;Node17 -->
<g id="edge16" class="edge">
<title>Node9&#45;&gt;Node17</title>
<path fill="none" stroke="midnightblue" d="M421.82,-56.44C445.83,-47.44 483.83,-33.19 510.87,-23.05"/>
<polygon fill="midnightblue" stroke="midnightblue" points="512.16,-26.3 520.29,-19.52 509.7,-19.75 512.16,-26.3"/>
</g>
<!-- Node18 -->
<g id="node18" class="node">
<title>Node18</title>
<g id="a_node18"><a xlink:title=" ">
<polygon fill="white" stroke="#bfbfbf" points="597.5,-0.5 597.5,-19.5 666.5,-19.5 666.5,-0.5 597.5,-0.5"/>
<text text-anchor="middle" x="632" y="-7.5" font-family="Helvetica,sans-Serif" font-size="10.00">type_traits</text>
</a>
</g>
</g>
<!-- Node9&#45;&gt;Node18 -->
<g id="edge17" class="edge">
<title>Node9&#45;&gt;Node18</title>
<path fill="none" stroke="midnightblue" d="M435.92,-56.44C476.99,-46.92 543.34,-31.55 587.31,-21.36"/>
<polygon fill="midnightblue" stroke="midnightblue" points="588.2,-24.74 597.16,-19.08 586.62,-17.92 588.2,-24.74"/>
</g>
<!-- Node19 -->
<g id="node19" class="node">
<title>Node19</title>
<g id="a_node19"><a xlink:title=" ">
<polygon fill="white" stroke="#bfbfbf" points="684.5,-0.5 684.5,-19.5 749.5,-19.5 749.5,-0.5 684.5,-0.5"/>
<text text-anchor="middle" x="717" y="-7.5" font-family="Helvetica,sans-Serif" font-size="10.00">typeindex</text>
</a>
</g>
</g>
<!-- Node9&#45;&gt;Node19 -->
<g id="edge18" class="edge">
<title>Node9&#45;&gt;Node19</title>
<path fill="none" stroke="midnightblue" d="M455.66,-56.73C509.57,-48.65 593.18,-35.57 674.46,-20.22"/>
<polygon fill="midnightblue" stroke="midnightblue" points="675.19,-23.64 684.36,-18.33 673.88,-16.77 675.19,-23.64"/>
</g>
<!-- Node20 -->
<g id="node20" class="node">
<title>Node20</title>
<g id="a_node20"><a xlink:title=" ">
<polygon fill="white" stroke="#bfbfbf" points="767.5,-0.5 767.5,-19.5 814.5,-19.5 814.5,-0.5 767.5,-0.5"/>
<text text-anchor="middle" x="791" y="-7.5" font-family="Helvetica,sans-Serif" font-size="10.00">vector</text>
</a>
</g>
</g>
<!-- Node9&#45;&gt;Node20 -->
<g id="edge19" class="edge">
<title>Node9&#45;&gt;Node20</title>
<path fill="none" stroke="midnightblue" d="M455.54,-60.57C524.71,-54.57 645.47,-42.2 757.24,-20.11"/>
<polygon fill="midnightblue" stroke="midnightblue" points="758.22,-23.48 767.33,-18.08 756.84,-16.62 758.22,-23.48"/>
</g>
<!-- Node21&#45;&gt;Node6 -->
<g id="edge22" class="edge">
<title>Node21&#45;&gt;Node6</title>
<path fill="none" stroke="midnightblue" d="M310.37,-280.08C307.39,-272.77 303.07,-262.18 299.38,-253.1"/>
<polygon fill="midnightblue" stroke="midnightblue" points="302.58,-251.69 295.57,-243.75 296.1,-254.33 302.58,-251.69"/>
</g>
<!-- Node22&#45;&gt;Node9 -->
<g id="edge24" class="edge">
<title>Node22&#45;&gt;Node9</title>
<path fill="none" stroke="midnightblue" d="M525.01,-336.49C514.91,-318.44 493,-274.69 493,-235 493,-235 493,-235 493,-177 493,-133.93 450.84,-99.21 422.99,-80.98"/>
<polygon fill="midnightblue" stroke="midnightblue" points="424.85,-78.01 414.52,-75.65 421.12,-83.94 424.85,-78.01"/>
</g>
</g>
</svg>
