<?xml version="1.0" encoding="UTF-8" standalone="no"?>
<!DOCTYPE svg PUBLIC "-//W3C//DTD SVG 1.1//EN"
 "http://www.w3.org/Graphics/SVG/1.1/DTD/svg11.dtd">
<!-- Generated by graphviz version 2.43.0 (0)
 -->
<!-- Title: log_level.hpp Pages: 1 -->
<svg width="450pt" height="476pt"
 viewBox="0.00 0.00 450.00 476.00" xmlns="http://www.w3.org/2000/svg" xmlns:xlink="http://www.w3.org/1999/xlink">
<g id="graph0" class="graph" transform="scale(1 1) rotate(0) translate(4 472)">
<title>log_level.hpp</title>
<polygon fill="white" stroke="transparent" points="-4,4 -4,-472 446,-472 446,4 -4,4"/>
<!-- Node1 -->
<g id="node1" class="node">
<title>Node1</title>
<g id="a_node1"><a xlink:title=" ">
<polygon fill="#bfbfbf" stroke="black" points="62,-448.5 62,-467.5 144,-467.5 144,-448.5 62,-448.5"/>
<text text-anchor="middle" x="103" y="-455.5" font-family="Helvetica,sans-Serif" font-size="10.00">log_level.hpp</text>
</a>
</g>
</g>
<!-- Node2 -->
<g id="node2" class="node">
<title>Node2</title>
<g id="a_node2"><a xlink:href="console__log__writer_8cpp.html" target="_top" xlink:title=" ">
<polygon fill="white" stroke="black" points="0,-224.5 0,-243.5 128,-243.5 128,-224.5 0,-224.5"/>
<text text-anchor="middle" x="64" y="-231.5" font-family="Helvetica,sans-Serif" font-size="10.00">console_log_writer.cpp</text>
</a>
</g>
</g>
<!-- Node1&#45;&gt;Node2 -->
<g id="edge1" class="edge">
<title>Node1&#45;&gt;Node2</title>
<path fill="none" stroke="midnightblue" d="M99.07,-438.34C94.87,-418.1 88.11,-384.82 83,-356 75.53,-313.92 68.08,-263.32 65.22,-243.53"/>
<polygon fill="midnightblue" stroke="midnightblue" points="95.7,-439.3 101.17,-448.38 102.55,-437.87 95.7,-439.3"/>
</g>
<!-- Node3 -->
<g id="node3" class="node">
<title>Node3</title>
<g id="a_node3"><a xlink:href="log__message_8hpp.html" target="_top" xlink:title=" ">
<polygon fill="white" stroke="black" points="148,-392.5 148,-411.5 250,-411.5 250,-392.5 148,-392.5"/>
<text text-anchor="middle" x="199" y="-399.5" font-family="Helvetica,sans-Serif" font-size="10.00">log_message.hpp</text>
</a>
</g>
</g>
<!-- Node1&#45;&gt;Node3 -->
<g id="edge2" class="edge">
<title>Node1&#45;&gt;Node3</title>
<path fill="none" stroke="midnightblue" d="M127.57,-443.18C145.24,-433.24 168.51,-420.15 183.61,-411.65"/>
<polygon fill="midnightblue" stroke="midnightblue" points="125.42,-440.37 118.42,-448.32 128.86,-446.47 125.42,-440.37"/>
</g>
<!-- Node4 -->
<g id="node4" class="node">
<title>Node4</title>
<g id="a_node4"><a xlink:href="log_8hpp.html" target="_top" xlink:title=" ">
<polygon fill="white" stroke="black" points="299.5,-280.5 299.5,-299.5 352.5,-299.5 352.5,-280.5 299.5,-280.5"/>
<text text-anchor="middle" x="326" y="-287.5" font-family="Helvetica,sans-Serif" font-size="10.00">log.hpp</text>
</a>
</g>
</g>
<!-- Node3&#45;&gt;Node4 -->
<g id="edge3" class="edge">
<title>Node3&#45;&gt;Node4</title>
<path fill="none" stroke="midnightblue" d="M251.44,-389.47C271.26,-382.71 292.5,-372.19 307,-356 321.43,-339.88 324.93,-313.35 325.76,-299.71"/>
<polygon fill="midnightblue" stroke="midnightblue" points="250.34,-386.14 241.86,-392.49 252.45,-392.82 250.34,-386.14"/>
</g>
<!-- Node12 -->
<g id="node12" class="node">
<title>Node12</title>
<g id="a_node12"><a xlink:href="log__message_8cpp.html" target="_top" xlink:title=" ">
<polygon fill="white" stroke="black" points="92.5,-336.5 92.5,-355.5 193.5,-355.5 193.5,-336.5 92.5,-336.5"/>
<text text-anchor="middle" x="143" y="-343.5" font-family="Helvetica,sans-Serif" font-size="10.00">log_message.cpp</text>
</a>
</g>
</g>
<!-- Node3&#45;&gt;Node12 -->
<g id="edge12" class="edge">
<title>Node3&#45;&gt;Node12</title>
<path fill="none" stroke="midnightblue" d="M182.67,-385.25C172.74,-375.67 160.41,-363.79 152.16,-355.83"/>
<polygon fill="midnightblue" stroke="midnightblue" points="180.37,-387.9 190,-392.32 185.23,-382.86 180.37,-387.9"/>
</g>
<!-- Node13 -->
<g id="node13" class="node">
<title>Node13</title>
<g id="a_node13"><a xlink:href="log__writer_8hpp.html" target="_top" xlink:title=" ">
<polygon fill="white" stroke="black" points="212,-336.5 212,-355.5 298,-355.5 298,-336.5 212,-336.5"/>
<text text-anchor="middle" x="255" y="-343.5" font-family="Helvetica,sans-Serif" font-size="10.00">log_writer.hpp</text>
</a>
</g>
</g>
<!-- Node3&#45;&gt;Node13 -->
<g id="edge13" class="edge">
<title>Node3&#45;&gt;Node13</title>
<path fill="none" stroke="midnightblue" d="M215.33,-385.25C225.26,-375.67 237.59,-363.79 245.84,-355.83"/>
<polygon fill="midnightblue" stroke="midnightblue" points="212.77,-382.86 208,-392.32 217.63,-387.9 212.77,-382.86"/>
</g>
<!-- Node5 -->
<g id="node5" class="node">
<title>Node5</title>
<g id="a_node5"><a xlink:href="default__log_8hpp.html" target="_top" xlink:title=" ">
<polygon fill="white" stroke="black" points="280,-224.5 280,-243.5 372,-243.5 372,-224.5 280,-224.5"/>
<text text-anchor="middle" x="326" y="-231.5" font-family="Helvetica,sans-Serif" font-size="10.00">default_log.hpp</text>
</a>
</g>
</g>
<!-- Node4&#45;&gt;Node5 -->
<g id="edge4" class="edge">
<title>Node4&#45;&gt;Node5</title>
<path fill="none" stroke="midnightblue" d="M326,-269.8C326,-260.91 326,-250.78 326,-243.75"/>
<polygon fill="midnightblue" stroke="midnightblue" points="322.5,-270.08 326,-280.08 329.5,-270.08 322.5,-270.08"/>
</g>
<!-- Node11 -->
<g id="node11" class="node">
<title>Node11</title>
<g id="a_node11"><a xlink:href="log_8cpp.html" target="_top" xlink:title=" ">
<polygon fill="white" stroke="black" points="390,-224.5 390,-243.5 442,-243.5 442,-224.5 390,-224.5"/>
<text text-anchor="middle" x="416" y="-231.5" font-family="Helvetica,sans-Serif" font-size="10.00">log.cpp</text>
</a>
</g>
</g>
<!-- Node4&#45;&gt;Node11 -->
<g id="edge11" class="edge">
<title>Node4&#45;&gt;Node11</title>
<path fill="none" stroke="midnightblue" d="M349.04,-275.18C365.6,-265.24 387.42,-252.15 401.58,-243.65"/>
<polygon fill="midnightblue" stroke="midnightblue" points="347.23,-272.18 340.46,-280.32 350.84,-278.18 347.23,-272.18"/>
</g>
<!-- Node6 -->
<g id="node6" class="node">
<title>Node6</title>
<g id="a_node6"><a xlink:href="core_8hpp.html" target="_top" xlink:title=" ">
<polygon fill="white" stroke="black" points="215.5,-0.5 215.5,-19.5 274.5,-19.5 274.5,-0.5 215.5,-0.5"/>
<text text-anchor="middle" x="245" y="-7.5" font-family="Helvetica,sans-Serif" font-size="10.00">core.hpp</text>
</a>
</g>
</g>
<!-- Node5&#45;&gt;Node6 -->
<g id="edge5" class="edge">
<title>Node5&#45;&gt;Node6</title>
<path fill="none" stroke="midnightblue" d="M351.86,-218.95C363.01,-211.38 374.87,-200.93 381,-188 384.81,-179.97 383.37,-176.57 381,-168 365.55,-112.09 354.21,-97.8 314,-56 299.03,-40.44 277.71,-27.58 262.75,-19.65"/>
<polygon fill="midnightblue" stroke="midnightblue" points="349.81,-216.1 343.2,-224.39 353.53,-222.03 349.81,-216.1"/>
</g>
<!-- Node7 -->
<g id="node7" class="node">
<title>Node7</title>
<g id="a_node7"><a xlink:href="callback_8hpp.html" target="_top" xlink:title=" ">
<polygon fill="white" stroke="black" points="184,-168.5 184,-187.5 262,-187.5 262,-168.5 184,-168.5"/>
<text text-anchor="middle" x="223" y="-175.5" font-family="Helvetica,sans-Serif" font-size="10.00">callback.hpp</text>
</a>
</g>
</g>
<!-- Node5&#45;&gt;Node7 -->
<g id="edge6" class="edge">
<title>Node5&#45;&gt;Node7</title>
<path fill="none" stroke="midnightblue" d="M300.42,-219.59C281.38,-209.61 255.94,-196.27 239.51,-187.65"/>
<polygon fill="midnightblue" stroke="midnightblue" points="298.97,-222.78 309.45,-224.32 302.22,-216.58 298.97,-222.78"/>
</g>
<!-- Node10 -->
<g id="node10" class="node">
<title>Node10</title>
<g id="a_node10"><a xlink:href="default__log_8cpp.html" target="_top" xlink:title=" ">
<polygon fill="white" stroke="black" points="280,-168.5 280,-187.5 372,-187.5 372,-168.5 280,-168.5"/>
<text text-anchor="middle" x="326" y="-175.5" font-family="Helvetica,sans-Serif" font-size="10.00">default_log.cpp</text>
</a>
</g>
</g>
<!-- Node5&#45;&gt;Node10 -->
<g id="edge10" class="edge">
<title>Node5&#45;&gt;Node10</title>
<path fill="none" stroke="midnightblue" d="M326,-213.8C326,-204.91 326,-194.78 326,-187.75"/>
<polygon fill="midnightblue" stroke="midnightblue" points="322.5,-214.08 326,-224.08 329.5,-214.08 322.5,-214.08"/>
</g>
<!-- Node8 -->
<g id="node8" class="node">
<title>Node8</title>
<g id="a_node8"><a xlink:href="event__sink_8hpp.html" target="_top" xlink:title=" ">
<polygon fill="white" stroke="black" points="192.5,-112.5 192.5,-131.5 283.5,-131.5 283.5,-112.5 192.5,-112.5"/>
<text text-anchor="middle" x="238" y="-119.5" font-family="Helvetica,sans-Serif" font-size="10.00">event_sink.hpp</text>
</a>
</g>
</g>
<!-- Node7&#45;&gt;Node8 -->
<g id="edge7" class="edge">
<title>Node7&#45;&gt;Node8</title>
<path fill="none" stroke="midnightblue" d="M228.17,-158.4C230.68,-149.36 233.57,-138.94 235.57,-131.75"/>
<polygon fill="midnightblue" stroke="midnightblue" points="224.78,-157.51 225.48,-168.08 231.53,-159.38 224.78,-157.51"/>
</g>
<!-- Node9 -->
<g id="node9" class="node">
<title>Node9</title>
<g id="a_node9"><a xlink:href="event__dispatcher_8hpp.html" target="_top" xlink:title=" ">
<polygon fill="white" stroke="black" points="184.5,-56.5 184.5,-75.5 305.5,-75.5 305.5,-56.5 184.5,-56.5"/>
<text text-anchor="middle" x="245" y="-63.5" font-family="Helvetica,sans-Serif" font-size="10.00">event_dispatcher.hpp</text>
</a>
</g>
</g>
<!-- Node8&#45;&gt;Node9 -->
<g id="edge8" class="edge">
<title>Node8&#45;&gt;Node9</title>
<path fill="none" stroke="midnightblue" d="M240.45,-102.1C241.61,-93.14 242.94,-82.86 243.87,-75.75"/>
<polygon fill="midnightblue" stroke="midnightblue" points="236.97,-101.72 239.16,-112.08 243.91,-102.62 236.97,-101.72"/>
</g>
<!-- Node9&#45;&gt;Node6 -->
<g id="edge9" class="edge">
<title>Node9&#45;&gt;Node6</title>
<path fill="none" stroke="midnightblue" d="M245,-45.8C245,-36.91 245,-26.78 245,-19.75"/>
<polygon fill="midnightblue" stroke="midnightblue" points="241.5,-46.08 245,-56.08 248.5,-46.08 241.5,-46.08"/>
</g>
<!-- Node13&#45;&gt;Node4 -->
<g id="edge17" class="edge">
<title>Node13&#45;&gt;Node4</title>
<path fill="none" stroke="midnightblue" d="M274.59,-330.1C287.37,-320.38 303.61,-308.03 314.39,-299.83"/>
<polygon fill="midnightblue" stroke="midnightblue" points="272.25,-327.48 266.41,-336.32 276.49,-333.06 272.25,-327.48"/>
</g>
<!-- Node14 -->
<g id="node14" class="node">
<title>Node14</title>
<g id="a_node14"><a xlink:href="console__log__writer_8hpp.html" target="_top" xlink:title=" ">
<polygon fill="white" stroke="black" points="92,-280.5 92,-299.5 220,-299.5 220,-280.5 92,-280.5"/>
<text text-anchor="middle" x="156" y="-287.5" font-family="Helvetica,sans-Serif" font-size="10.00">console_log_writer.hpp</text>
</a>
</g>
</g>
<!-- Node13&#45;&gt;Node14 -->
<g id="edge14" class="edge">
<title>Node13&#45;&gt;Node14</title>
<path fill="none" stroke="midnightblue" d="M230.16,-331.45C211.89,-321.48 187.58,-308.23 171.87,-299.65"/>
<polygon fill="midnightblue" stroke="midnightblue" points="228.64,-334.61 239.09,-336.32 231.99,-328.46 228.64,-334.61"/>
</g>
<!-- Node14&#45;&gt;Node2 -->
<g id="edge16" class="edge">
<title>Node14&#45;&gt;Node2</title>
<path fill="none" stroke="midnightblue" d="M132.45,-275.18C115.52,-265.24 93.22,-252.15 78.74,-243.65"/>
<polygon fill="midnightblue" stroke="midnightblue" points="130.82,-278.28 141.22,-280.32 134.37,-272.24 130.82,-278.28"/>
</g>
<!-- Node14&#45;&gt;Node6 -->
<g id="edge15" class="edge">
<title>Node14&#45;&gt;Node6</title>
<path fill="none" stroke="midnightblue" d="M156,-270.25C156,-248.36 156,-211.05 156,-179 156,-179 156,-179 156,-121 156,-90.9 156.98,-80.11 175,-56 187.54,-39.22 208.33,-27.01 224.01,-19.58"/>
<polygon fill="midnightblue" stroke="midnightblue" points="152.5,-270.44 156,-280.44 159.5,-270.44 152.5,-270.44"/>
</g>
</g>
</svg>
