<?xml version="1.0" encoding="UTF-8" standalone="no"?>
<!DOCTYPE svg PUBLIC "-//W3C//DTD SVG 1.1//EN"
 "http://www.w3.org/Graphics/SVG/1.1/DTD/svg11.dtd">
<!-- Generated by graphviz version 2.43.0 (0)
 -->
<!-- Title: log_writer.hpp Pages: 1 -->
<svg width="344pt" height="364pt"
 viewBox="0.00 0.00 344.00 364.00" xmlns="http://www.w3.org/2000/svg" xmlns:xlink="http://www.w3.org/1999/xlink">
<g id="graph0" class="graph" transform="scale(1 1) rotate(0) translate(4 360)">
<title>log_writer.hpp</title>
<polygon fill="white" stroke="transparent" points="-4,4 -4,-360 340,-360 340,4 -4,4"/>
<!-- Node1 -->
<g id="node1" class="node">
<title>Node1</title>
<g id="a_node1"><a xlink:title=" ">
<polygon fill="#bfbfbf" stroke="black" points="113,-336.5 113,-355.5 199,-355.5 199,-336.5 113,-336.5"/>
<text text-anchor="middle" x="156" y="-343.5" font-family="Helvetica,sans-Serif" font-size="10.00">log_writer.hpp</text>
</a>
</g>
</g>
<!-- Node2 -->
<g id="node2" class="node">
<title>Node2</title>
<g id="a_node2"><a xlink:href="console__log__writer_8hpp.html" target="_top" xlink:title=" ">
<polygon fill="white" stroke="black" points="28,-280.5 28,-299.5 156,-299.5 156,-280.5 28,-280.5"/>
<text text-anchor="middle" x="92" y="-287.5" font-family="Helvetica,sans-Serif" font-size="10.00">console_log_writer.hpp</text>
</a>
</g>
</g>
<!-- Node1&#45;&gt;Node2 -->
<g id="edge1" class="edge">
<title>Node1&#45;&gt;Node2</title>
<path fill="none" stroke="midnightblue" d="M138.01,-329.82C126.54,-320.15 112.09,-307.95 102.47,-299.83"/>
<polygon fill="midnightblue" stroke="midnightblue" points="135.82,-332.55 145.72,-336.32 140.33,-327.2 135.82,-332.55"/>
</g>
<!-- Node5 -->
<g id="node5" class="node">
<title>Node5</title>
<g id="a_node5"><a xlink:href="log_8hpp.html" target="_top" xlink:title=" ">
<polygon fill="white" stroke="black" points="193.5,-280.5 193.5,-299.5 246.5,-299.5 246.5,-280.5 193.5,-280.5"/>
<text text-anchor="middle" x="220" y="-287.5" font-family="Helvetica,sans-Serif" font-size="10.00">log.hpp</text>
</a>
</g>
</g>
<!-- Node1&#45;&gt;Node5 -->
<g id="edge4" class="edge">
<title>Node1&#45;&gt;Node5</title>
<path fill="none" stroke="midnightblue" d="M173.99,-329.82C185.46,-320.15 199.91,-307.95 209.53,-299.83"/>
<polygon fill="midnightblue" stroke="midnightblue" points="171.67,-327.2 166.28,-336.32 176.18,-332.55 171.67,-327.2"/>
</g>
<!-- Node3 -->
<g id="node3" class="node">
<title>Node3</title>
<g id="a_node3"><a xlink:href="core_8hpp.html" target="_top" xlink:title=" ">
<polygon fill="white" stroke="black" points="54.5,-0.5 54.5,-19.5 113.5,-19.5 113.5,-0.5 54.5,-0.5"/>
<text text-anchor="middle" x="84" y="-7.5" font-family="Helvetica,sans-Serif" font-size="10.00">core.hpp</text>
</a>
</g>
</g>
<!-- Node2&#45;&gt;Node3 -->
<g id="edge2" class="edge">
<title>Node2&#45;&gt;Node3</title>
<path fill="none" stroke="midnightblue" d="M60.56,-276.07C46.03,-268.65 29.66,-257.99 19,-244 0.75,-220.06 0,-209.1 0,-179 0,-179 0,-179 0,-121 0,-74.86 47.25,-36.06 70.88,-19.54"/>
<polygon fill="midnightblue" stroke="midnightblue" points="59.24,-279.32 69.77,-280.49 62.27,-273.01 59.24,-279.32"/>
</g>
<!-- Node4 -->
<g id="node4" class="node">
<title>Node4</title>
<g id="a_node4"><a xlink:href="console__log__writer_8cpp.html" target="_top" xlink:title=" ">
<polygon fill="white" stroke="black" points="28,-224.5 28,-243.5 156,-243.5 156,-224.5 28,-224.5"/>
<text text-anchor="middle" x="92" y="-231.5" font-family="Helvetica,sans-Serif" font-size="10.00">console_log_writer.cpp</text>
</a>
</g>
</g>
<!-- Node2&#45;&gt;Node4 -->
<g id="edge3" class="edge">
<title>Node2&#45;&gt;Node4</title>
<path fill="none" stroke="midnightblue" d="M92,-269.8C92,-260.91 92,-250.78 92,-243.75"/>
<polygon fill="midnightblue" stroke="midnightblue" points="88.5,-270.08 92,-280.08 95.5,-270.08 88.5,-270.08"/>
</g>
<!-- Node6 -->
<g id="node6" class="node">
<title>Node6</title>
<g id="a_node6"><a xlink:href="default__log_8hpp.html" target="_top" xlink:title=" ">
<polygon fill="white" stroke="black" points="174,-224.5 174,-243.5 266,-243.5 266,-224.5 174,-224.5"/>
<text text-anchor="middle" x="220" y="-231.5" font-family="Helvetica,sans-Serif" font-size="10.00">default_log.hpp</text>
</a>
</g>
</g>
<!-- Node5&#45;&gt;Node6 -->
<g id="edge5" class="edge">
<title>Node5&#45;&gt;Node6</title>
<path fill="none" stroke="midnightblue" d="M220,-269.8C220,-260.91 220,-250.78 220,-243.75"/>
<polygon fill="midnightblue" stroke="midnightblue" points="216.5,-270.08 220,-280.08 223.5,-270.08 216.5,-270.08"/>
</g>
<!-- Node11 -->
<g id="node11" class="node">
<title>Node11</title>
<g id="a_node11"><a xlink:href="log_8cpp.html" target="_top" xlink:title=" ">
<polygon fill="white" stroke="black" points="284,-224.5 284,-243.5 336,-243.5 336,-224.5 284,-224.5"/>
<text text-anchor="middle" x="310" y="-231.5" font-family="Helvetica,sans-Serif" font-size="10.00">log.cpp</text>
</a>
</g>
</g>
<!-- Node5&#45;&gt;Node11 -->
<g id="edge12" class="edge">
<title>Node5&#45;&gt;Node11</title>
<path fill="none" stroke="midnightblue" d="M243.04,-275.18C259.6,-265.24 281.42,-252.15 295.58,-243.65"/>
<polygon fill="midnightblue" stroke="midnightblue" points="241.23,-272.18 234.46,-280.32 244.84,-278.18 241.23,-272.18"/>
</g>
<!-- Node6&#45;&gt;Node3 -->
<g id="edge6" class="edge">
<title>Node6&#45;&gt;Node3</title>
<path fill="none" stroke="midnightblue" d="M174.68,-220.98C156.79,-214.08 137.56,-203.59 125,-188 82.86,-135.67 82.46,-47.89 83.51,-19.87"/>
<polygon fill="midnightblue" stroke="midnightblue" points="173.83,-224.4 184.43,-224.46 176.18,-217.8 173.83,-224.4"/>
</g>
<!-- Node7 -->
<g id="node7" class="node">
<title>Node7</title>
<g id="a_node7"><a xlink:href="callback_8hpp.html" target="_top" xlink:title=" ">
<polygon fill="white" stroke="black" points="134,-168.5 134,-187.5 212,-187.5 212,-168.5 134,-168.5"/>
<text text-anchor="middle" x="173" y="-175.5" font-family="Helvetica,sans-Serif" font-size="10.00">callback.hpp</text>
</a>
</g>
</g>
<!-- Node6&#45;&gt;Node7 -->
<g id="edge7" class="edge">
<title>Node6&#45;&gt;Node7</title>
<path fill="none" stroke="midnightblue" d="M205.58,-216.43C197.34,-206.97 187.35,-195.48 180.62,-187.75"/>
<polygon fill="midnightblue" stroke="midnightblue" points="203.03,-218.84 212.24,-224.08 208.31,-214.24 203.03,-218.84"/>
</g>
<!-- Node10 -->
<g id="node10" class="node">
<title>Node10</title>
<g id="a_node10"><a xlink:href="default__log_8cpp.html" target="_top" xlink:title=" ">
<polygon fill="white" stroke="black" points="230,-168.5 230,-187.5 322,-187.5 322,-168.5 230,-168.5"/>
<text text-anchor="middle" x="276" y="-175.5" font-family="Helvetica,sans-Serif" font-size="10.00">default_log.cpp</text>
</a>
</g>
</g>
<!-- Node6&#45;&gt;Node10 -->
<g id="edge11" class="edge">
<title>Node6&#45;&gt;Node10</title>
<path fill="none" stroke="midnightblue" d="M236.33,-217.25C246.26,-207.67 258.59,-195.79 266.84,-187.83"/>
<polygon fill="midnightblue" stroke="midnightblue" points="233.77,-214.86 229,-224.32 238.63,-219.9 233.77,-214.86"/>
</g>
<!-- Node8 -->
<g id="node8" class="node">
<title>Node8</title>
<g id="a_node8"><a xlink:href="event__sink_8hpp.html" target="_top" xlink:title=" ">
<polygon fill="white" stroke="black" points="127.5,-112.5 127.5,-131.5 218.5,-131.5 218.5,-112.5 127.5,-112.5"/>
<text text-anchor="middle" x="173" y="-119.5" font-family="Helvetica,sans-Serif" font-size="10.00">event_sink.hpp</text>
</a>
</g>
</g>
<!-- Node7&#45;&gt;Node8 -->
<g id="edge8" class="edge">
<title>Node7&#45;&gt;Node8</title>
<path fill="none" stroke="midnightblue" d="M173,-157.8C173,-148.91 173,-138.78 173,-131.75"/>
<polygon fill="midnightblue" stroke="midnightblue" points="169.5,-158.08 173,-168.08 176.5,-158.08 169.5,-158.08"/>
</g>
<!-- Node9 -->
<g id="node9" class="node">
<title>Node9</title>
<g id="a_node9"><a xlink:href="event__dispatcher_8hpp.html" target="_top" xlink:title=" ">
<polygon fill="white" stroke="black" points="112.5,-56.5 112.5,-75.5 233.5,-75.5 233.5,-56.5 112.5,-56.5"/>
<text text-anchor="middle" x="173" y="-63.5" font-family="Helvetica,sans-Serif" font-size="10.00">event_dispatcher.hpp</text>
</a>
</g>
</g>
<!-- Node8&#45;&gt;Node9 -->
<g id="edge9" class="edge">
<title>Node8&#45;&gt;Node9</title>
<path fill="none" stroke="midnightblue" d="M173,-101.8C173,-92.91 173,-82.78 173,-75.75"/>
<polygon fill="midnightblue" stroke="midnightblue" points="169.5,-102.08 173,-112.08 176.5,-102.08 169.5,-102.08"/>
</g>
<!-- Node9&#45;&gt;Node3 -->
<g id="edge10" class="edge">
<title>Node9&#45;&gt;Node3</title>
<path fill="none" stroke="midnightblue" d="M149.76,-50.9C133.44,-41 112.13,-28.07 98.26,-19.65"/>
<polygon fill="midnightblue" stroke="midnightblue" points="148.34,-54.13 158.7,-56.32 151.97,-48.14 148.34,-54.13"/>
</g>
</g>
</svg>
