<?xml version="1.0" encoding="UTF-8" standalone="no"?>
<!DOCTYPE svg PUBLIC "-//W3C//DTD SVG 1.1//EN"
 "http://www.w3.org/Graphics/SVG/1.1/DTD/svg11.dtd">
<!-- Generated by graphviz version 2.43.0 (0)
 -->
<!-- Title: Buffer.hpp Pages: 1 -->
<!--zoomable 364 -->
<svg id="main" version="1.1" xmlns="http://www.w3.org/2000/svg" xmlns:xlink="http://www.w3.org/1999/xlink" xml:space="preserve" onload="init(evt)">
<style type="text/css"><![CDATA[
.edge:hover path { stroke: red; }
.edge:hover polygon { stroke: red; fill: red; }
]]></style>
<script type="text/javascript"><![CDATA[
var edges = document.getElementsByTagName('g');
if (edges && edges.length) {
  for (var i=0;i<edges.length;i++) {
    if (edges[i].id.substr(0,4)=='edge') {
      edges[i].setAttribute('class','edge');
    }
  }
}
]]></script>
        <defs>
                <circle id="rim" cx="0" cy="0" r="7"/>
                <circle id="rim2" cx="0" cy="0" r="3.5"/>
                <g id="zoomPlus">
                        <use xlink:href="#rim" fill="#404040">
                                <set attributeName="fill" to="#808080" begin="zoomplus.mouseover" end="zoomplus.mouseout"/>
                        </use>
                        <path d="M-4,0h8M0,-4v8" fill="none" stroke="white" stroke-width="1.5" pointer-events="none"/>
                </g>
                <g id="zoomMin">
                        <use xlink:href="#rim" fill="#404040">
                                <set attributeName="fill" to="#808080" begin="zoomminus.mouseover" end="zoomminus.mouseout"/>
                        </use>
                        <path d="M-4,0h8" fill="none" stroke="white" stroke-width="1.5" pointer-events="none"/>
                </g>
                <g id="dirArrow">
                        <path fill="none" stroke="white" stroke-width="1.5" d="M0,-3.0v7 M-2.5,-0.5L0,-3.0L2.5,-0.5"/>
                </g>
               <g id="resetDef">
                       <use xlink:href="#rim2" fill="#404040">
                               <set attributeName="fill" to="#808080" begin="reset.mouseover" end="reset.mouseout"/>
                       </use>
               </g>
        </defs>

<script type="text/javascript">
var viewWidth = 1264;
var viewHeight = 364;
var sectionId = 'dynsection-1';
</script>
<script xlink:href="svgpan.js"/>
<svg id="graph" class="graph">
<g id="viewport">
<title>Buffer.hpp</title>
<polygon fill="white" stroke="transparent" points="-4,4 -4,-360 1259.5,-360 1259.5,4 -4,4"/>
<!-- Node1 -->
<g id="node1" class="node">
<title>Node1</title>
<g id="a_node1"><a xlink:title=" ">
<polygon fill="#bfbfbf" stroke="black" points="834,-336.5 834,-355.5 900,-355.5 900,-336.5 834,-336.5"/>
<text text-anchor="middle" x="867" y="-343.5" font-family="Helvetica,sans-Serif" font-size="10.00">Buffer.hpp</text>
</a>
</g>
</g>
<!-- Node2 -->
<g id="node2" class="node">
<title>Node2</title>
<g id="a_node2"><a xlink:href="_device_8hpp.html" target="_top" xlink:title=" ">
<polygon fill="white" stroke="black" points="763.5,-224.5 763.5,-243.5 834.5,-243.5 834.5,-224.5 763.5,-224.5"/>
<text text-anchor="middle" x="799" y="-231.5" font-family="Helvetica,sans-Serif" font-size="10.00">Device.hpp</text>
</a>
</g>
</g>
<!-- Node1&#45;&gt;Node2 -->
<g id="edge1" class="edge">
<title>Node1&#45;&gt;Node2</title>
<path fill="none" stroke="midnightblue" d="M856.27,-327.64C841.5,-303.74 815.46,-261.63 804.31,-243.59"/>
<polygon fill="midnightblue" stroke="midnightblue" points="853.43,-329.7 861.66,-336.37 859.38,-326.02 853.43,-329.7"/>
</g>
<!-- Node19 -->
<g id="node19" class="node">
<title>Node19</title>
<g id="a_node19"><a xlink:href="_render_graph_8hpp.html" target="_top" xlink:title=" ">
<polygon fill="white" stroke="black" points="913.5,-280.5 913.5,-299.5 1014.5,-299.5 1014.5,-280.5 913.5,-280.5"/>
<text text-anchor="middle" x="964" y="-287.5" font-family="Helvetica,sans-Serif" font-size="10.00">RenderGraph.hpp</text>
</a>
</g>
</g>
<!-- Node1&#45;&gt;Node19 -->
<g id="edge27" class="edge">
<title>Node1&#45;&gt;Node19</title>
<path fill="none" stroke="midnightblue" d="M891.34,-331.45C909.24,-321.48 933.05,-308.23 948.45,-299.65"/>
<polygon fill="midnightblue" stroke="midnightblue" points="889.62,-328.4 882.58,-336.32 893.02,-334.52 889.62,-328.4"/>
</g>
<!-- Node3 -->
<g id="node3" class="node">
<title>Node3</title>
<g id="a_node3"><a xlink:href="_feature_8hpp.html" target="_top" xlink:title=" ">
<polygon fill="white" stroke="black" points="652,-112.5 652,-131.5 726,-131.5 726,-112.5 652,-112.5"/>
<text text-anchor="middle" x="689" y="-119.5" font-family="Helvetica,sans-Serif" font-size="10.00">Feature.hpp</text>
</a>
</g>
</g>
<!-- Node2&#45;&gt;Node3 -->
<g id="edge2" class="edge">
<title>Node2&#45;&gt;Node3</title>
<path fill="none" stroke="midnightblue" d="M753.25,-233.01C718.25,-230.29 672.03,-220.24 648,-188 633.65,-168.75 659.75,-144.43 676.51,-131.69"/>
<polygon fill="midnightblue" stroke="midnightblue" points="753.06,-236.5 763.26,-233.61 753.49,-229.51 753.06,-236.5"/>
</g>
<!-- Node12 -->
<g id="node12" class="node">
<title>Node12</title>
<g id="a_node12"><a xlink:href="_layer_8hpp.html" target="_top" xlink:title=" ">
<polygon fill="white" stroke="black" points="657,-168.5 657,-187.5 721,-187.5 721,-168.5 657,-168.5"/>
<text text-anchor="middle" x="689" y="-175.5" font-family="Helvetica,sans-Serif" font-size="10.00">Layer.hpp</text>
</a>
</g>
</g>
<!-- Node2&#45;&gt;Node12 -->
<g id="edge11" class="edge">
<title>Node2&#45;&gt;Node12</title>
<path fill="none" stroke="midnightblue" d="M772.24,-219.86C751.84,-209.85 724.33,-196.35 706.63,-187.65"/>
<polygon fill="midnightblue" stroke="midnightblue" points="770.81,-223.06 781.33,-224.32 773.89,-216.78 770.81,-223.06"/>
</g>
<!-- Node13 -->
<g id="node13" class="node">
<title>Node13</title>
<g id="a_node13"><a xlink:href="_view_8hpp.html" target="_top" xlink:title=" ">
<polygon fill="white" stroke="black" points="739.5,-168.5 739.5,-187.5 800.5,-187.5 800.5,-168.5 739.5,-168.5"/>
<text text-anchor="middle" x="770" y="-175.5" font-family="Helvetica,sans-Serif" font-size="10.00">View.hpp</text>
</a>
</g>
</g>
<!-- Node2&#45;&gt;Node13 -->
<g id="edge13" class="edge">
<title>Node2&#45;&gt;Node13</title>
<path fill="none" stroke="midnightblue" d="M789.32,-214.98C784.4,-205.82 778.64,-195.09 774.7,-187.75"/>
<polygon fill="midnightblue" stroke="midnightblue" points="786.4,-216.93 794.21,-224.08 792.56,-213.62 786.4,-216.93"/>
</g>
<!-- Node14 -->
<g id="node14" class="node">
<title>Node14</title>
<g id="a_node14"><a xlink:href="_instance_8hpp.html" target="_top" xlink:title=" ">
<polygon fill="white" stroke="black" points="818.5,-168.5 818.5,-187.5 897.5,-187.5 897.5,-168.5 818.5,-168.5"/>
<text text-anchor="middle" x="858" y="-175.5" font-family="Helvetica,sans-Serif" font-size="10.00">Instance.hpp</text>
</a>
</g>
</g>
<!-- Node2&#45;&gt;Node14 -->
<g id="edge14" class="edge">
<title>Node2&#45;&gt;Node14</title>
<path fill="none" stroke="midnightblue" d="M815.89,-217.54C826.41,-207.91 839.57,-195.87 848.35,-187.83"/>
<polygon fill="midnightblue" stroke="midnightblue" points="813.49,-214.99 808.48,-224.32 818.22,-220.15 813.49,-214.99"/>
</g>
<!-- Node15 -->
<g id="node15" class="node">
<title>Node15</title>
<g id="a_node15"><a xlink:href="_mapped_buffer_8hpp.html" target="_top" xlink:title=" ">
<polygon fill="white" stroke="black" points="873.5,-112.5 873.5,-131.5 978.5,-131.5 978.5,-112.5 873.5,-112.5"/>
<text text-anchor="middle" x="926" y="-119.5" font-family="Helvetica,sans-Serif" font-size="10.00">MappedBuffer.hpp</text>
</a>
</g>
</g>
<!-- Node2&#45;&gt;Node15 -->
<g id="edge15" class="edge">
<title>Node2&#45;&gt;Node15</title>
<path fill="none" stroke="midnightblue" d="M844.23,-223.79C865.95,-217.2 890.73,-206.18 907,-188 921.43,-171.88 924.93,-145.35 925.76,-131.71"/>
<polygon fill="midnightblue" stroke="midnightblue" points="843.2,-220.44 834.51,-226.51 845.08,-227.18 843.2,-220.44"/>
</g>
<!-- Node16 -->
<g id="node16" class="node">
<title>Node16</title>
<g id="a_node16"><a xlink:href="_shader_8hpp.html" target="_top" xlink:title=" ">
<polygon fill="white" stroke="black" points="448.5,-112.5 448.5,-131.5 519.5,-131.5 519.5,-112.5 448.5,-112.5"/>
<text text-anchor="middle" x="484" y="-119.5" font-family="Helvetica,sans-Serif" font-size="10.00">Shader.hpp</text>
</a>
</g>
</g>
<!-- Node2&#45;&gt;Node16 -->
<g id="edge18" class="edge">
<title>Node2&#45;&gt;Node16</title>
<path fill="none" stroke="midnightblue" d="M753.93,-221.91C721.62,-213.57 677.23,-201.34 639,-188 588.58,-170.41 531.04,-144.75 502.32,-131.55"/>
<polygon fill="midnightblue" stroke="midnightblue" points="753.42,-225.39 763.97,-224.47 755.15,-218.61 753.42,-225.39"/>
</g>
<!-- Node4 -->
<g id="node4" class="node">
<title>Node4</title>
<g id="a_node4"><a xlink:href="_bloom_feature_8hpp.html" target="_top" xlink:title=" ">
<polygon fill="white" stroke="black" points="395,-56.5 395,-75.5 501,-75.5 501,-56.5 395,-56.5"/>
<text text-anchor="middle" x="448" y="-63.5" font-family="Helvetica,sans-Serif" font-size="10.00">BloomFeature.hpp</text>
</a>
</g>
</g>
<!-- Node3&#45;&gt;Node4 -->
<g id="edge3" class="edge">
<title>Node3&#45;&gt;Node4</title>
<path fill="none" stroke="midnightblue" d="M641.94,-110.46C596.38,-100.25 528.17,-84.96 485.97,-75.51"/>
<polygon fill="midnightblue" stroke="midnightblue" points="641.35,-113.91 651.87,-112.68 642.88,-107.08 641.35,-113.91"/>
</g>
<!-- Node5 -->
<g id="node5" class="node">
<title>Node5</title>
<g id="a_node5"><a xlink:href="_camera_data_collector_8hpp.html" target="_top" xlink:title=" ">
<polygon fill="white" stroke="black" points="950,-56.5 950,-75.5 1092,-75.5 1092,-56.5 950,-56.5"/>
<text text-anchor="middle" x="1021" y="-63.5" font-family="Helvetica,sans-Serif" font-size="10.00">CameraDataCollector.hpp</text>
</a>
</g>
</g>
<!-- Node3&#45;&gt;Node5 -->
<g id="edge4" class="edge">
<title>Node3&#45;&gt;Node5</title>
<path fill="none" stroke="midnightblue" d="M736.31,-113.3C797.78,-103.31 904.76,-85.91 968.61,-75.52"/>
<polygon fill="midnightblue" stroke="midnightblue" points="735.43,-109.9 726.12,-114.96 736.55,-116.81 735.43,-109.9"/>
</g>
<!-- Node6 -->
<g id="node6" class="node">
<title>Node6</title>
<g id="a_node6"><a xlink:href="_clustered_light_feature_8hpp.html" target="_top" xlink:title=" ">
<polygon fill="white" stroke="black" points="1110.5,-56.5 1110.5,-75.5 1255.5,-75.5 1255.5,-56.5 1110.5,-56.5"/>
<text text-anchor="middle" x="1183" y="-63.5" font-family="Helvetica,sans-Serif" font-size="10.00">ClusteredLightFeature.hpp</text>
</a>
</g>
</g>
<!-- Node3&#45;&gt;Node6 -->
<g id="edge5" class="edge">
<title>Node3&#45;&gt;Node6</title>
<path fill="none" stroke="midnightblue" d="M736.5,-115.82C813.17,-107.46 968.99,-90.45 1101,-76 1103.99,-75.67 1107.04,-75.34 1110.12,-75"/>
<polygon fill="midnightblue" stroke="midnightblue" points="735.77,-112.38 726.21,-116.94 736.53,-119.34 735.77,-112.38"/>
</g>
<!-- Node7 -->
<g id="node7" class="node">
<title>Node7</title>
<g id="a_node7"><a xlink:href="_forward_render_feature_8hpp.html" target="_top" xlink:title=" ">
<polygon fill="white" stroke="black" points="519,-56.5 519,-75.5 667,-75.5 667,-56.5 519,-56.5"/>
<text text-anchor="middle" x="593" y="-63.5" font-family="Helvetica,sans-Serif" font-size="10.00">ForwardRenderFeature.hpp</text>
</a>
</g>
</g>
<!-- Node3&#45;&gt;Node7 -->
<g id="edge6" class="edge">
<title>Node3&#45;&gt;Node7</title>
<path fill="none" stroke="midnightblue" d="M664.43,-107.18C646.76,-97.24 623.49,-84.15 608.39,-75.65"/>
<polygon fill="midnightblue" stroke="midnightblue" points="663.14,-110.47 673.58,-112.32 666.58,-104.37 663.14,-110.47"/>
</g>
<!-- Node8 -->
<g id="node8" class="node">
<title>Node8</title>
<g id="a_node8"><a xlink:href="_particle_system_feature_8hpp.html" target="_top" xlink:title=" ">
<polygon fill="white" stroke="black" points="685.5,-56.5 685.5,-75.5 832.5,-75.5 832.5,-56.5 685.5,-56.5"/>
<text text-anchor="middle" x="759" y="-63.5" font-family="Helvetica,sans-Serif" font-size="10.00">ParticleSystemFeature.hpp</text>
</a>
</g>
</g>
<!-- Node3&#45;&gt;Node8 -->
<g id="edge7" class="edge">
<title>Node3&#45;&gt;Node8</title>
<path fill="none" stroke="midnightblue" d="M708.31,-106.1C720.91,-96.38 736.93,-84.03 747.55,-75.83"/>
<polygon fill="midnightblue" stroke="midnightblue" points="706.03,-103.44 700.25,-112.32 710.3,-108.99 706.03,-103.44"/>
</g>
<!-- Node9 -->
<g id="node9" class="node">
<title>Node9</title>
<g id="a_node9"><a xlink:href="_static_mesh_feature_8hpp.html" target="_top" xlink:title=" ">
<polygon fill="white" stroke="black" points="111,-56.5 111,-75.5 239,-75.5 239,-56.5 111,-56.5"/>
<text text-anchor="middle" x="175" y="-63.5" font-family="Helvetica,sans-Serif" font-size="10.00">StaticMeshFeature.hpp</text>
</a>
</g>
</g>
<!-- Node3&#45;&gt;Node9 -->
<g id="edge8" class="edge">
<title>Node3&#45;&gt;Node9</title>
<path fill="none" stroke="midnightblue" d="M641.46,-116.48C560.58,-108.71 391.09,-92.12 248,-76 245.08,-75.67 242.1,-75.33 239.09,-74.98"/>
<polygon fill="midnightblue" stroke="midnightblue" points="641.51,-120 651.8,-117.47 642.18,-113.03 641.51,-120"/>
</g>
<!-- Node10 -->
<g id="node10" class="node">
<title>Node10</title>
<g id="a_node10"><a xlink:href="_tonemap_feature_8hpp.html" target="_top" xlink:title=" ">
<polygon fill="white" stroke="black" points="257.5,-56.5 257.5,-75.5 376.5,-75.5 376.5,-56.5 257.5,-56.5"/>
<text text-anchor="middle" x="317" y="-63.5" font-family="Helvetica,sans-Serif" font-size="10.00">TonemapFeature.hpp</text>
</a>
</g>
</g>
<!-- Node3&#45;&gt;Node10 -->
<g id="edge9" class="edge">
<title>Node3&#45;&gt;Node10</title>
<path fill="none" stroke="midnightblue" d="M642.01,-114.18C574.32,-104.35 449.43,-86.22 375.74,-75.53"/>
<polygon fill="midnightblue" stroke="midnightblue" points="641.57,-117.65 651.97,-115.62 642.58,-110.72 641.57,-117.65"/>
</g>
<!-- Node11 -->
<g id="node11" class="node">
<title>Node11</title>
<g id="a_node11"><a xlink:href="_renderer_8hpp.html" target="_top" xlink:title=" ">
<polygon fill="white" stroke="black" points="850.5,-56.5 850.5,-75.5 931.5,-75.5 931.5,-56.5 850.5,-56.5"/>
<text text-anchor="middle" x="891" y="-63.5" font-family="Helvetica,sans-Serif" font-size="10.00">Renderer.hpp</text>
</a>
</g>
</g>
<!-- Node3&#45;&gt;Node11 -->
<g id="edge10" class="edge">
<title>Node3&#45;&gt;Node11</title>
<path fill="none" stroke="midnightblue" d="M730.79,-109.83C768.93,-99.63 824.48,-84.78 859.14,-75.52"/>
<polygon fill="midnightblue" stroke="midnightblue" points="729.76,-106.48 721.01,-112.44 731.57,-113.24 729.76,-106.48"/>
</g>
<!-- Node12&#45;&gt;Node3 -->
<g id="edge12" class="edge">
<title>Node12&#45;&gt;Node3</title>
<path fill="none" stroke="midnightblue" d="M689,-157.8C689,-148.91 689,-138.78 689,-131.75"/>
<polygon fill="midnightblue" stroke="midnightblue" points="685.5,-158.08 689,-168.08 692.5,-158.08 685.5,-158.08"/>
</g>
<!-- Node15&#45;&gt;Node5 -->
<g id="edge16" class="edge">
<title>Node15&#45;&gt;Node5</title>
<path fill="none" stroke="midnightblue" d="M950.32,-107.18C967.8,-97.24 990.83,-84.15 1005.77,-75.65"/>
<polygon fill="midnightblue" stroke="midnightblue" points="948.23,-104.34 941.26,-112.32 951.69,-110.43 948.23,-104.34"/>
</g>
<!-- Node15&#45;&gt;Node8 -->
<g id="edge17" class="edge">
<title>Node15&#45;&gt;Node8</title>
<path fill="none" stroke="midnightblue" d="M889.83,-109.3C858.36,-99.13 813.51,-84.62 785.34,-75.52"/>
<polygon fill="midnightblue" stroke="midnightblue" points="888.95,-112.7 899.54,-112.44 891.1,-106.04 888.95,-112.7"/>
</g>
<!-- Node16&#45;&gt;Node4 -->
<g id="edge19" class="edge">
<title>Node16&#45;&gt;Node4</title>
<path fill="none" stroke="midnightblue" d="M472.38,-103.57C466.18,-94.27 458.83,-83.25 453.83,-75.75"/>
<polygon fill="midnightblue" stroke="midnightblue" points="469.6,-105.7 478.06,-112.08 475.42,-101.82 469.6,-105.7"/>
</g>
<!-- Node16&#45;&gt;Node6 -->
<g id="edge20" class="edge">
<title>Node16&#45;&gt;Node6</title>
<path fill="none" stroke="midnightblue" d="M529.49,-118.25C631.74,-111.95 887.47,-95.5 1101,-76 1104,-75.73 1107.05,-75.44 1110.14,-75.14"/>
<polygon fill="midnightblue" stroke="midnightblue" points="529.28,-114.76 519.51,-118.87 529.71,-121.75 529.28,-114.76"/>
</g>
<!-- Node16&#45;&gt;Node7 -->
<g id="edge21" class="edge">
<title>Node16&#45;&gt;Node7</title>
<path fill="none" stroke="midnightblue" d="M510.52,-107.86C530.73,-97.85 557.99,-84.35 575.53,-75.65"/>
<polygon fill="midnightblue" stroke="midnightblue" points="508.92,-104.75 501.51,-112.32 512.03,-111.02 508.92,-104.75"/>
</g>
<!-- Node16&#45;&gt;Node8 -->
<g id="edge22" class="edge">
<title>Node16&#45;&gt;Node8</title>
<path fill="none" stroke="midnightblue" d="M529.56,-112.05C581.26,-101.9 664.96,-85.47 715.7,-75.5"/>
<polygon fill="midnightblue" stroke="midnightblue" points="528.81,-108.63 519.67,-114 530.16,-115.5 528.81,-108.63"/>
</g>
<!-- Node16&#45;&gt;Node9 -->
<g id="edge23" class="edge">
<title>Node16&#45;&gt;Node9</title>
<path fill="none" stroke="midnightblue" d="M438.37,-113.03C380.95,-102.99 282.76,-85.83 223.86,-75.54"/>
<polygon fill="midnightblue" stroke="midnightblue" points="437.8,-116.48 448.25,-114.75 439,-109.58 437.8,-116.48"/>
</g>
<!-- Node16&#45;&gt;Node10 -->
<g id="edge24" class="edge">
<title>Node16&#45;&gt;Node10</title>
<path fill="none" stroke="midnightblue" d="M447.83,-109.3C416.36,-99.13 371.51,-84.62 343.34,-75.52"/>
<polygon fill="midnightblue" stroke="midnightblue" points="446.95,-112.7 457.54,-112.44 449.1,-106.04 446.95,-112.7"/>
</g>
<!-- Node17 -->
<g id="node17" class="node">
<title>Node17</title>
<g id="a_node17"><a xlink:href="_compiler_8hpp.html" target="_top" xlink:title=" ">
<polygon fill="white" stroke="black" points="11.5,-56.5 11.5,-75.5 92.5,-75.5 92.5,-56.5 11.5,-56.5"/>
<text text-anchor="middle" x="52" y="-63.5" font-family="Helvetica,sans-Serif" font-size="10.00">Compiler.hpp</text>
</a>
</g>
</g>
<!-- Node16&#45;&gt;Node17 -->
<g id="edge25" class="edge">
<title>Node16&#45;&gt;Node17</title>
<path fill="none" stroke="midnightblue" d="M438.3,-116.52C366.51,-109.29 223.03,-94 102,-76 98.95,-75.55 95.79,-75.05 92.63,-74.53"/>
<polygon fill="midnightblue" stroke="midnightblue" points="438.06,-120.02 448.36,-117.53 438.75,-113.05 438.06,-120.02"/>
</g>
<!-- Node18 -->
<g id="node18" class="node">
<title>Node18</title>
<g id="a_node18"><a xlink:href="_shader_loader_8hpp.html" target="_top" xlink:title=" ">
<polygon fill="white" stroke="black" points="0,-0.5 0,-19.5 104,-19.5 104,-0.5 0,-0.5"/>
<text text-anchor="middle" x="52" y="-7.5" font-family="Helvetica,sans-Serif" font-size="10.00">ShaderLoader.hpp</text>
</a>
</g>
</g>
<!-- Node17&#45;&gt;Node18 -->
<g id="edge26" class="edge">
<title>Node17&#45;&gt;Node18</title>
<path fill="none" stroke="midnightblue" d="M52,-45.8C52,-36.91 52,-26.78 52,-19.75"/>
<polygon fill="midnightblue" stroke="midnightblue" points="48.5,-46.08 52,-56.08 55.5,-46.08 48.5,-46.08"/>
</g>
<!-- Node19&#45;&gt;Node2 -->
<g id="edge33" class="edge">
<title>Node19&#45;&gt;Node2</title>
<path fill="none" stroke="midnightblue" d="M928.26,-277.3C897.17,-267.13 852.85,-252.62 825.02,-243.52"/>
<polygon fill="midnightblue" stroke="midnightblue" points="927.26,-280.66 937.86,-280.44 929.44,-274.01 927.26,-280.66"/>
</g>
<!-- Node19&#45;&gt;Node3 -->
<g id="edge32" class="edge">
<title>Node19&#45;&gt;Node3</title>
<path fill="none" stroke="midnightblue" d="M960.62,-270.29C954.72,-243.31 939.88,-193.9 907,-168 879.37,-146.24 780.84,-132.68 726.19,-126.65"/>
<polygon fill="midnightblue" stroke="midnightblue" points="957.24,-271.22 962.63,-280.34 964.1,-269.85 957.24,-271.22"/>
</g>
<!-- Node20 -->
<g id="node20" class="node">
<title>Node20</title>
<g id="a_node20"><a xlink:href="_clustered_light_data_8hpp.html" target="_top" xlink:title=" ">
<polygon fill="white" stroke="black" points="1117.5,-224.5 1117.5,-243.5 1248.5,-243.5 1248.5,-224.5 1117.5,-224.5"/>
<text text-anchor="middle" x="1183" y="-231.5" font-family="Helvetica,sans-Serif" font-size="10.00">ClusteredLightData.hpp</text>
</a>
</g>
</g>
<!-- Node19&#45;&gt;Node20 -->
<g id="edge28" class="edge">
<title>Node19&#45;&gt;Node20</title>
<path fill="none" stroke="midnightblue" d="M1008.51,-278.02C1049.88,-267.82 1110.64,-252.84 1148.46,-243.52"/>
<polygon fill="midnightblue" stroke="midnightblue" points="1007.57,-274.65 998.7,-280.44 1009.25,-281.45 1007.57,-274.65"/>
</g>
<!-- Node21 -->
<g id="node21" class="node">
<title>Node21</title>
<g id="a_node21"><a xlink:href="_output_texture_8hpp.html" target="_top" xlink:title=" ">
<polygon fill="white" stroke="black" points="992.5,-224.5 992.5,-243.5 1099.5,-243.5 1099.5,-224.5 992.5,-224.5"/>
<text text-anchor="middle" x="1046" y="-231.5" font-family="Helvetica,sans-Serif" font-size="10.00">OutputTexture.hpp</text>
</a>
</g>
</g>
<!-- Node19&#45;&gt;Node21 -->
<g id="edge30" class="edge">
<title>Node19&#45;&gt;Node21</title>
<path fill="none" stroke="midnightblue" d="M985.83,-274.62C1000.81,-264.76 1020.2,-251.99 1032.86,-243.65"/>
<polygon fill="midnightblue" stroke="midnightblue" points="983.6,-271.9 977.17,-280.32 987.45,-277.75 983.6,-271.9"/>
</g>
<!-- Node20&#45;&gt;Node6 -->
<g id="edge29" class="edge">
<title>Node20&#45;&gt;Node6</title>
<path fill="none" stroke="midnightblue" d="M1183,-213.93C1183,-177.92 1183,-101.23 1183,-75.57"/>
<polygon fill="midnightblue" stroke="midnightblue" points="1179.5,-214.08 1183,-224.08 1186.5,-214.08 1179.5,-214.08"/>
</g>
<!-- Node21&#45;&gt;Node6 -->
<g id="edge31" class="edge">
<title>Node21&#45;&gt;Node6</title>
<path fill="none" stroke="midnightblue" d="M1059.86,-216.21C1088.7,-181.26 1154.29,-101.79 1175.93,-75.57"/>
<polygon fill="midnightblue" stroke="midnightblue" points="1057.03,-214.13 1053.37,-224.08 1062.43,-218.59 1057.03,-214.13"/>
</g>
</g>
</svg>
        <g id="navigator" transform="translate(0 0)" fill="#404254">
                <rect fill="#f2f5e9" fill-opacity="0.5" stroke="#606060" stroke-width=".5" x="0" y="0" width="60" height="60"/>
                <use id="zoomplus" xlink:href="#zoomPlus" x="17" y="9" onmousedown="handleZoom(evt,'in')"/>
                <use id="zoomminus" xlink:href="#zoomMin" x="42" y="9" onmousedown="handleZoom(evt,'out')"/>
                <use id="reset" xlink:href="#resetDef" x="30" y="36" onmousedown="handleReset()"/>
                <g id="arrowUp" xlink:href="#dirArrow" transform="translate(30 24)" onmousedown="handlePan(0,-1)">
                  <use xlink:href="#rim" fill="#404040">
                        <set attributeName="fill" to="#808080" begin="arrowUp.mouseover" end="arrowUp.mouseout"/>
                  </use>
                  <path fill="none" stroke="white" stroke-width="1.5" d="M0,-3.0v7 M-2.5,-0.5L0,-3.0L2.5,-0.5"/>
                </g>
                <g id="arrowRight" xlink:href="#dirArrow" transform="rotate(90) translate(36 -43)" onmousedown="handlePan(1,0)">
                  <use xlink:href="#rim" fill="#404040">
                        <set attributeName="fill" to="#808080" begin="arrowRight.mouseover" end="arrowRight.mouseout"/>
                  </use>
                  <path fill="none" stroke="white" stroke-width="1.5" d="M0,-3.0v7 M-2.5,-0.5L0,-3.0L2.5,-0.5"/>
                </g>
                <g id="arrowDown" xlink:href="#dirArrow" transform="rotate(180) translate(-30 -48)" onmousedown="handlePan(0,1)">
                  <use xlink:href="#rim" fill="#404040">
                        <set attributeName="fill" to="#808080" begin="arrowDown.mouseover" end="arrowDown.mouseout"/>
                  </use>
                  <path fill="none" stroke="white" stroke-width="1.5" d="M0,-3.0v7 M-2.5,-0.5L0,-3.0L2.5,-0.5"/>
                </g>
                <g id="arrowLeft" xlink:href="#dirArrow" transform="rotate(270) translate(-36 17)" onmousedown="handlePan(-1,0)">
                  <use xlink:href="#rim" fill="#404040">
                        <set attributeName="fill" to="#808080" begin="arrowLeft.mouseover" end="arrowLeft.mouseout"/>
                  </use>
                  <path fill="none" stroke="white" stroke-width="1.5" d="M0,-3.0v7 M-2.5,-0.5L0,-3.0L2.5,-0.5"/>
                </g>
        </g>
        <svg viewBox="0 0 15 15" width="100%" height="30px" preserveAspectRatio="xMaxYMin meet">
         <g id="arrow_out" transform="scale(0.3 0.3)">
          <a xlink:href="_buffer_8hpp__dep__incl_org.svg" target="_base">
           <rect id="button" ry="5" rx="5" y="6" x="6" height="38" width="38"
                fill="#f2f5e9" fill-opacity="0.5" stroke="#606060" stroke-width="1.0"/>
           <path id="arrow"
             d="M 11.500037,31.436501 C 11.940474,20.09759 22.043105,11.32322 32.158766,21.979434 L 37.068811,17.246167 C 37.068811,17.246167 37.088388,32 37.088388,32 L 22.160133,31.978069 C 22.160133,31.978069 26.997745,27.140456 26.997745,27.140456 C 18.528582,18.264221 13.291696,25.230495 11.500037,31.436501 z"
             style="fill:#404040;"/>
          </a>
         </g>
        </svg>
</svg>
