<?xml version="1.0" encoding="UTF-8" standalone="no"?>
<!DOCTYPE svg PUBLIC "-//W3C//DTD SVG 1.1//EN"
 "http://www.w3.org/Graphics/SVG/1.1/DTD/svg11.dtd">
<!-- Generated by graphviz version 2.43.0 (0)
 -->
<!-- Title: Buffer.hpp Pages: 1 -->
<svg width="524pt" height="196pt"
 viewBox="0.00 0.00 523.50 196.00" xmlns="http://www.w3.org/2000/svg" xmlns:xlink="http://www.w3.org/1999/xlink">
<g id="graph0" class="graph" transform="scale(1 1) rotate(0) translate(4 192)">
<title>Buffer.hpp</title>
<polygon fill="white" stroke="transparent" points="-4,4 -4,-192 519.5,-192 519.5,4 -4,4"/>
<!-- Node1 -->
<g id="node1" class="node">
<title>Node1</title>
<g id="a_node1"><a xlink:title=" ">
<polygon fill="#bfbfbf" stroke="black" points="307.5,-168.5 307.5,-187.5 373.5,-187.5 373.5,-168.5 307.5,-168.5"/>
<text text-anchor="middle" x="340.5" y="-175.5" font-family="Helvetica,sans-Serif" font-size="10.00">Buffer.hpp</text>
</a>
</g>
</g>
<!-- Node2 -->
<g id="node2" class="node">
<title>Node2</title>
<g id="a_node2"><a xlink:href="_descriptor_binding_8hpp.html" target="_top" xlink:title=" ">
<polygon fill="white" stroke="black" points="0,-112.5 0,-131.5 209,-131.5 209,-112.5 0,-112.5"/>
<text text-anchor="middle" x="104.5" y="-119.5" font-family="Helvetica,sans-Serif" font-size="10.00">Liger&#45;Engine/RHI/DescriptorBinding.hpp</text>
</a>
</g>
</g>
<!-- Node1&#45;&gt;Node2 -->
<g id="edge1" class="edge">
<title>Node1&#45;&gt;Node2</title>
<path fill="none" stroke="midnightblue" d="M307.44,-169.43C266.9,-160.16 197.91,-144.37 151.78,-133.82"/>
<polygon fill="midnightblue" stroke="midnightblue" points="152.54,-130.4 142.01,-131.58 150.98,-137.23 152.54,-130.4"/>
</g>
<!-- Node4 -->
<g id="node4" class="node">
<title>Node4</title>
<g id="a_node4"><a xlink:href="_device_resource_state_8hpp.html" target="_top" xlink:title=" ">
<polygon fill="white" stroke="black" points="227.5,-112.5 227.5,-131.5 453.5,-131.5 453.5,-112.5 227.5,-112.5"/>
<text text-anchor="middle" x="340.5" y="-119.5" font-family="Helvetica,sans-Serif" font-size="10.00">Liger&#45;Engine/RHI/DeviceResourceState.hpp</text>
</a>
</g>
</g>
<!-- Node1&#45;&gt;Node4 -->
<g id="edge3" class="edge">
<title>Node1&#45;&gt;Node4</title>
<path fill="none" stroke="midnightblue" d="M340.5,-168.08C340.5,-161.01 340.5,-150.86 340.5,-141.99"/>
<polygon fill="midnightblue" stroke="midnightblue" points="344,-141.75 340.5,-131.75 337,-141.75 344,-141.75"/>
</g>
<!-- Node8 -->
<g id="node8" class="node">
<title>Node8</title>
<g id="a_node8"><a xlink:title=" ">
<polygon fill="white" stroke="#bfbfbf" points="471.5,-112.5 471.5,-131.5 515.5,-131.5 515.5,-112.5 471.5,-112.5"/>
<text text-anchor="middle" x="493.5" y="-119.5" font-family="Helvetica,sans-Serif" font-size="10.00">string</text>
</a>
</g>
</g>
<!-- Node1&#45;&gt;Node8 -->
<g id="edge7" class="edge">
<title>Node1&#45;&gt;Node8</title>
<path fill="none" stroke="midnightblue" d="M364.74,-168.44C390.97,-159.19 432.9,-144.39 461.75,-134.21"/>
<polygon fill="midnightblue" stroke="midnightblue" points="463.09,-137.44 471.36,-130.82 460.76,-130.84 463.09,-137.44"/>
</g>
<!-- Node3 -->
<g id="node3" class="node">
<title>Node3</title>
<g id="a_node3"><a xlink:title=" ">
<polygon fill="white" stroke="#bfbfbf" points="79.5,-56.5 79.5,-75.5 129.5,-75.5 129.5,-56.5 79.5,-56.5"/>
<text text-anchor="middle" x="104.5" y="-63.5" font-family="Helvetica,sans-Serif" font-size="10.00">cstdint</text>
</a>
</g>
</g>
<!-- Node2&#45;&gt;Node3 -->
<g id="edge2" class="edge">
<title>Node2&#45;&gt;Node3</title>
<path fill="none" stroke="midnightblue" d="M104.5,-112.08C104.5,-105.01 104.5,-94.86 104.5,-85.99"/>
<polygon fill="midnightblue" stroke="midnightblue" points="108,-85.75 104.5,-75.75 101,-85.75 108,-85.75"/>
</g>
<!-- Node5 -->
<g id="node5" class="node">
<title>Node5</title>
<g id="a_node5"><a xlink:href="_enum_bitmask_8hpp.html" target="_top" xlink:title=" ">
<polygon fill="white" stroke="black" points="243,-56.5 243,-75.5 438,-75.5 438,-56.5 243,-56.5"/>
<text text-anchor="middle" x="340.5" y="-63.5" font-family="Helvetica,sans-Serif" font-size="10.00">Liger&#45;Engine/Core/EnumBitmask.hpp</text>
</a>
</g>
</g>
<!-- Node4&#45;&gt;Node5 -->
<g id="edge4" class="edge">
<title>Node4&#45;&gt;Node5</title>
<path fill="none" stroke="midnightblue" d="M340.5,-112.08C340.5,-105.01 340.5,-94.86 340.5,-85.99"/>
<polygon fill="midnightblue" stroke="midnightblue" points="344,-85.75 340.5,-75.75 337,-85.75 344,-85.75"/>
</g>
<!-- Node6 -->
<g id="node6" class="node">
<title>Node6</title>
<g id="a_node6"><a xlink:title=" ">
<polygon fill="white" stroke="#bfbfbf" points="247,-0.5 247,-19.5 316,-19.5 316,-0.5 247,-0.5"/>
<text text-anchor="middle" x="281.5" y="-7.5" font-family="Helvetica,sans-Serif" font-size="10.00">type_traits</text>
</a>
</g>
</g>
<!-- Node5&#45;&gt;Node6 -->
<g id="edge5" class="edge">
<title>Node5&#45;&gt;Node6</title>
<path fill="none" stroke="midnightblue" d="M331.02,-56.32C322.3,-48.34 309.16,-36.31 298.6,-26.65"/>
<polygon fill="midnightblue" stroke="midnightblue" points="300.89,-24 291.15,-19.83 296.17,-29.17 300.89,-24"/>
</g>
<!-- Node7 -->
<g id="node7" class="node">
<title>Node7</title>
<g id="a_node7"><a xlink:title=" ">
<polygon fill="white" stroke="#bfbfbf" points="334,-0.5 334,-19.5 463,-19.5 463,-0.5 334,-0.5"/>
<text text-anchor="middle" x="398.5" y="-7.5" font-family="Helvetica,sans-Serif" font-size="10.00">magic_enum_flags.hpp</text>
</a>
</g>
</g>
<!-- Node5&#45;&gt;Node7 -->
<g id="edge6" class="edge">
<title>Node5&#45;&gt;Node7</title>
<path fill="none" stroke="midnightblue" d="M349.82,-56.32C358.39,-48.34 371.31,-36.31 381.69,-26.65"/>
<polygon fill="midnightblue" stroke="midnightblue" points="384.08,-29.21 389.01,-19.83 379.31,-24.09 384.08,-29.21"/>
</g>
</g>
</svg>
