<?xml version="1.0" encoding="UTF-8" standalone="no"?>
<!DOCTYPE svg PUBLIC "-//W3C//DTD SVG 1.1//EN"
 "http://www.w3.org/Graphics/SVG/1.1/DTD/svg11.dtd">
<!-- Generated by graphviz version 2.43.0 (0)
 -->
<!-- Title: CameraMovementScript.hpp Pages: 1 -->
<svg width="1950pt" height="532pt"
 viewBox="0.00 0.00 1949.72 532.00" xmlns="http://www.w3.org/2000/svg" xmlns:xlink="http://www.w3.org/1999/xlink">
<g id="graph0" class="graph" transform="scale(1 1) rotate(0) translate(4 528)">
<title>CameraMovementScript.hpp</title>
<polygon fill="white" stroke="transparent" points="-4,4 -4,-528 1945.72,-528 1945.72,4 -4,4"/>
<!-- Node1 -->
<g id="node1" class="node">
<title>Node1</title>
<g id="a_node1"><a xlink:title=" ">
<polygon fill="#bfbfbf" stroke="black" points="927.72,-504.5 927.72,-523.5 1083.72,-523.5 1083.72,-504.5 927.72,-504.5"/>
<text text-anchor="middle" x="1005.72" y="-511.5" font-family="Helvetica,sans-Serif" font-size="10.00">CameraMovementScript.hpp</text>
</a>
</g>
</g>
<!-- Node2 -->
<g id="node2" class="node">
<title>Node2</title>
<g id="a_node2"><a xlink:href="_platform_layer_8hpp.html" target="_top" xlink:title=" ">
<polygon fill="white" stroke="black" points="770.72,-448.5 770.72,-467.5 1010.72,-467.5 1010.72,-448.5 770.72,-448.5"/>
<text text-anchor="middle" x="890.72" y="-455.5" font-family="Helvetica,sans-Serif" font-size="10.00">Liger&#45;Engine/Core/Platform/PlatformLayer.hpp</text>
</a>
</g>
</g>
<!-- Node1&#45;&gt;Node2 -->
<g id="edge1" class="edge">
<title>Node1&#45;&gt;Node2</title>
<path fill="none" stroke="midnightblue" d="M987.5,-504.44C968.82,-495.68 939.56,-481.94 918.1,-471.86"/>
<polygon fill="midnightblue" stroke="midnightblue" points="919.39,-468.6 908.86,-467.52 916.42,-474.93 919.39,-468.6"/>
</g>
<!-- Node31 -->
<g id="node31" class="node">
<title>Node31</title>
<g id="a_node31"><a xlink:href="_script_8hpp.html" target="_top" xlink:title=" ">
<polygon fill="white" stroke="black" points="1128.22,-448.5 1128.22,-467.5 1279.22,-467.5 1279.22,-448.5 1128.22,-448.5"/>
<text text-anchor="middle" x="1203.72" y="-455.5" font-family="Helvetica,sans-Serif" font-size="10.00">Liger&#45;Engine/ECS/Script.hpp</text>
</a>
</g>
</g>
<!-- Node1&#45;&gt;Node31 -->
<g id="edge37" class="edge">
<title>Node1&#45;&gt;Node31</title>
<path fill="none" stroke="midnightblue" d="M1037.09,-504.44C1070.98,-495.2 1125.12,-480.44 1162.44,-470.26"/>
<polygon fill="midnightblue" stroke="midnightblue" points="1163.77,-473.52 1172.49,-467.52 1161.92,-466.77 1163.77,-473.52"/>
</g>
<!-- Node3 -->
<g id="node3" class="node">
<title>Node3</title>
<g id="a_node3"><a xlink:href="_event_dispatcher_8hpp.html" target="_top" xlink:title=" ">
<polygon fill="white" stroke="black" points="1085.22,-392.5 1085.22,-411.5 1322.22,-411.5 1322.22,-392.5 1085.22,-392.5"/>
<text text-anchor="middle" x="1203.72" y="-399.5" font-family="Helvetica,sans-Serif" font-size="10.00">Liger&#45;Engine/Core/Event/EventDispatcher.hpp</text>
</a>
</g>
</g>
<!-- Node2&#45;&gt;Node3 -->
<g id="edge2" class="edge">
<title>Node2&#45;&gt;Node3</title>
<path fill="none" stroke="midnightblue" d="M940.31,-448.44C995.72,-438.89 1085.36,-423.42 1144.42,-413.23"/>
<polygon fill="midnightblue" stroke="midnightblue" points="1145.1,-416.67 1154.35,-411.52 1143.91,-409.77 1145.1,-416.67"/>
</g>
<!-- Node18 -->
<g id="node18" class="node">
<title>Node18</title>
<g id="a_node18"><a xlink:href="_keyboard_8hpp.html" target="_top" xlink:title=" ">
<polygon fill="white" stroke="black" points="716.72,-336.5 716.72,-355.5 934.72,-355.5 934.72,-336.5 716.72,-336.5"/>
<text text-anchor="middle" x="825.72" y="-343.5" font-family="Helvetica,sans-Serif" font-size="10.00">Liger&#45;Engine/Core/Platform/Keyboard.hpp</text>
</a>
</g>
</g>
<!-- Node2&#45;&gt;Node18 -->
<g id="edge20" class="edge">
<title>Node2&#45;&gt;Node18</title>
<path fill="none" stroke="midnightblue" d="M889.63,-448.45C887.69,-435.46 882.73,-410.35 871.72,-392 864.94,-380.7 854.65,-370.27 845.52,-362.3"/>
<polygon fill="midnightblue" stroke="midnightblue" points="847.52,-359.41 837.59,-355.71 843.05,-364.79 847.52,-359.41"/>
</g>
<!-- Node20 -->
<g id="node20" class="node">
<title>Node20</title>
<g id="a_node20"><a xlink:href="_mouse_8hpp.html" target="_top" xlink:title=" ">
<polygon fill="white" stroke="black" points="658.72,-392.5 658.72,-411.5 862.72,-411.5 862.72,-392.5 658.72,-392.5"/>
<text text-anchor="middle" x="760.72" y="-399.5" font-family="Helvetica,sans-Serif" font-size="10.00">Liger&#45;Engine/Core/Platform/Mouse.hpp</text>
</a>
</g>
</g>
<!-- Node2&#45;&gt;Node20 -->
<g id="edge22" class="edge">
<title>Node2&#45;&gt;Node20</title>
<path fill="none" stroke="midnightblue" d="M870.12,-448.44C848.73,-439.56 815.04,-425.56 790.69,-415.45"/>
<polygon fill="midnightblue" stroke="midnightblue" points="791.8,-412.12 781.22,-411.52 789.11,-418.58 791.8,-412.12"/>
</g>
<!-- Node30 -->
<g id="node30" class="node">
<title>Node30</title>
<g id="a_node30"><a xlink:href="_window_8hpp.html" target="_top" xlink:title=" ">
<polygon fill="white" stroke="black" points="108.72,-168.5 108.72,-187.5 318.72,-187.5 318.72,-168.5 108.72,-168.5"/>
<text text-anchor="middle" x="213.72" y="-175.5" font-family="Helvetica,sans-Serif" font-size="10.00">Liger&#45;Engine/Core/Platform/Window.hpp</text>
</a>
</g>
</g>
<!-- Node2&#45;&gt;Node30 -->
<g id="edge35" class="edge">
<title>Node2&#45;&gt;Node30</title>
<path fill="none" stroke="midnightblue" d="M770.69,-454.38C527.76,-447.48 0.72,-423.68 0.72,-347 0.72,-347 0.72,-347 0.72,-289 0.72,-258.9 -2.16,-244.67 19.72,-224 36.55,-208.1 88.86,-196.52 134.93,-189.09"/>
<polygon fill="midnightblue" stroke="midnightblue" points="135.61,-192.53 144.95,-187.52 134.53,-185.61 135.61,-192.53"/>
</g>
<!-- Node4 -->
<g id="node4" class="node">
<title>Node4</title>
<g id="a_node4"><a xlink:href="_event_type_8hpp.html" target="_top" xlink:title=" ">
<polygon fill="white" stroke="black" points="1298.72,-56.5 1298.72,-75.5 1538.72,-75.5 1538.72,-56.5 1298.72,-56.5"/>
<text text-anchor="middle" x="1418.72" y="-63.5" font-family="Helvetica,sans-Serif" font-size="10.00">Liger&#45;Engine/Core/Event/Detail/EventType.hpp</text>
</a>
</g>
</g>
<!-- Node3&#45;&gt;Node4 -->
<g id="edge3" class="edge">
<title>Node3&#45;&gt;Node4</title>
<path fill="none" stroke="midnightblue" d="M1291.53,-392.49C1353.94,-381.03 1426.72,-354.13 1426.72,-291 1426.72,-291 1426.72,-291 1426.72,-177 1426.72,-144.86 1423.28,-107.58 1420.91,-85.72"/>
<polygon fill="midnightblue" stroke="midnightblue" points="1424.36,-85.09 1419.76,-75.54 1417.41,-85.87 1424.36,-85.09"/>
</g>
<!-- Node6 -->
<g id="node6" class="node">
<title>Node6</title>
<g id="a_node6"><a xlink:href="_event_sink_8hpp.html" target="_top" xlink:title=" ">
<polygon fill="white" stroke="black" points="1016.72,-336.5 1016.72,-355.5 1222.72,-355.5 1222.72,-336.5 1016.72,-336.5"/>
<text text-anchor="middle" x="1119.72" y="-343.5" font-family="Helvetica,sans-Serif" font-size="10.00">Liger&#45;Engine/Core/Event/EventSink.hpp</text>
</a>
</g>
</g>
<!-- Node3&#45;&gt;Node6 -->
<g id="edge5" class="edge">
<title>Node3&#45;&gt;Node6</title>
<path fill="none" stroke="midnightblue" d="M1190.22,-392.32C1177.12,-383.9 1157.01,-370.97 1141.61,-361.07"/>
<polygon fill="midnightblue" stroke="midnightblue" points="1143.49,-358.12 1133.18,-355.65 1139.7,-364.01 1143.49,-358.12"/>
</g>
<!-- Node17 -->
<g id="node17" class="node">
<title>Node17</title>
<g id="a_node17"><a xlink:title=" ">
<polygon fill="white" stroke="#bfbfbf" points="1241.22,-336.5 1241.22,-355.5 1334.22,-355.5 1334.22,-336.5 1241.22,-336.5"/>
<text text-anchor="middle" x="1287.72" y="-343.5" font-family="Helvetica,sans-Serif" font-size="10.00">unordered_map</text>
</a>
</g>
</g>
<!-- Node3&#45;&gt;Node17 -->
<g id="edge19" class="edge">
<title>Node3&#45;&gt;Node17</title>
<path fill="none" stroke="midnightblue" d="M1217.21,-392.32C1230.32,-383.9 1250.43,-370.97 1265.83,-361.07"/>
<polygon fill="midnightblue" stroke="midnightblue" points="1267.74,-364.01 1274.26,-355.65 1263.95,-358.12 1267.74,-364.01"/>
</g>
<!-- Node5 -->
<g id="node5" class="node">
<title>Node5</title>
<g id="a_node5"><a xlink:title=" ">
<polygon fill="white" stroke="#bfbfbf" points="1293.72,-0.5 1293.72,-19.5 1343.72,-19.5 1343.72,-0.5 1293.72,-0.5"/>
<text text-anchor="middle" x="1318.72" y="-7.5" font-family="Helvetica,sans-Serif" font-size="10.00">cstdint</text>
</a>
</g>
</g>
<!-- Node4&#45;&gt;Node5 -->
<g id="edge4" class="edge">
<title>Node4&#45;&gt;Node5</title>
<path fill="none" stroke="midnightblue" d="M1402.65,-56.32C1386.76,-47.74 1362.21,-34.49 1343.76,-24.52"/>
<polygon fill="midnightblue" stroke="midnightblue" points="1345.21,-21.33 1334.75,-19.65 1341.88,-27.49 1345.21,-21.33"/>
</g>
<!-- Node7 -->
<g id="node7" class="node">
<title>Node7</title>
<g id="a_node7"><a xlink:href="_base_event_sink_8hpp.html" target="_top" xlink:title=" ">
<polygon fill="white" stroke="black" points="885.22,-280.5 885.22,-299.5 1148.22,-299.5 1148.22,-280.5 885.22,-280.5"/>
<text text-anchor="middle" x="1016.72" y="-287.5" font-family="Helvetica,sans-Serif" font-size="10.00">Liger&#45;Engine/Core/Event/Detail/BaseEventSink.hpp</text>
</a>
</g>
</g>
<!-- Node6&#45;&gt;Node7 -->
<g id="edge6" class="edge">
<title>Node6&#45;&gt;Node7</title>
<path fill="none" stroke="midnightblue" d="M1103.17,-336.32C1086.73,-327.7 1061.28,-314.36 1042.25,-304.39"/>
<polygon fill="midnightblue" stroke="midnightblue" points="1043.71,-301.2 1033.23,-299.65 1040.46,-307.4 1043.71,-301.2"/>
</g>
<!-- Node8 -->
<g id="node8" class="node">
<title>Node8</title>
<g id="a_node8"><a xlink:href="_callback_8hpp.html" target="_top" xlink:title=" ">
<polygon fill="white" stroke="black" points="1166.72,-280.5 1166.72,-299.5 1398.72,-299.5 1398.72,-280.5 1166.72,-280.5"/>
<text text-anchor="middle" x="1282.72" y="-287.5" font-family="Helvetica,sans-Serif" font-size="10.00">Liger&#45;Engine/Core/Event/Detail/Callback.hpp</text>
</a>
</g>
</g>
<!-- Node6&#45;&gt;Node8 -->
<g id="edge7" class="edge">
<title>Node6&#45;&gt;Node8</title>
<path fill="none" stroke="midnightblue" d="M1145.55,-336.44C1172.97,-327.36 1216.5,-312.94 1247.15,-302.78"/>
<polygon fill="midnightblue" stroke="midnightblue" points="1248.62,-305.98 1257.01,-299.52 1246.42,-299.34 1248.62,-305.98"/>
</g>
<!-- Node9 -->
<g id="node9" class="node">
<title>Node9</title>
<g id="a_node9"><a xlink:href="_log_8hpp.html" target="_top" xlink:title=" ">
<polygon fill="white" stroke="black" points="1080.72,-168.5 1080.72,-187.5 1244.72,-187.5 1244.72,-168.5 1080.72,-168.5"/>
<text text-anchor="middle" x="1162.72" y="-175.5" font-family="Helvetica,sans-Serif" font-size="10.00">Liger&#45;Engine/Core/Log/Log.hpp</text>
</a>
</g>
</g>
<!-- Node8&#45;&gt;Node9 -->
<g id="edge8" class="edge">
<title>Node8&#45;&gt;Node9</title>
<path fill="none" stroke="midnightblue" d="M1282.43,-280.33C1281.54,-266.74 1277.95,-240.29 1263.72,-224 1249.95,-208.24 1229.6,-197.74 1210.76,-190.89"/>
<polygon fill="midnightblue" stroke="midnightblue" points="1211.69,-187.5 1201.09,-187.62 1209.45,-194.14 1211.69,-187.5"/>
</g>
<!-- Node16 -->
<g id="node16" class="node">
<title>Node16</title>
<g id="a_node16"><a xlink:href="_core_2_log_channel_8hpp.html" target="_top" xlink:title=" ">
<polygon fill="white" stroke="black" points="1070.72,-224.5 1070.72,-243.5 1254.72,-243.5 1254.72,-224.5 1070.72,-224.5"/>
<text text-anchor="middle" x="1162.72" y="-231.5" font-family="Helvetica,sans-Serif" font-size="10.00">Liger&#45;Engine/Core/LogChannel.hpp</text>
</a>
</g>
</g>
<!-- Node8&#45;&gt;Node16 -->
<g id="edge17" class="edge">
<title>Node8&#45;&gt;Node16</title>
<path fill="none" stroke="midnightblue" d="M1263.7,-280.44C1244.13,-271.64 1213.41,-257.81 1190.99,-247.72"/>
<polygon fill="midnightblue" stroke="midnightblue" points="1192.2,-244.43 1181.64,-243.52 1189.33,-250.81 1192.2,-244.43"/>
</g>
<!-- Node10 -->
<g id="node10" class="node">
<title>Node10</title>
<g id="a_node10"><a xlink:href="_message_8hpp.html" target="_top" xlink:title=" ">
<polygon fill="white" stroke="black" points="1074.22,-56.5 1074.22,-75.5 1265.22,-75.5 1265.22,-56.5 1074.22,-56.5"/>
<text text-anchor="middle" x="1169.72" y="-63.5" font-family="Helvetica,sans-Serif" font-size="10.00">Liger&#45;Engine/Core/Log/Message.hpp</text>
</a>
</g>
</g>
<!-- Node9&#45;&gt;Node10 -->
<g id="edge9" class="edge">
<title>Node9&#45;&gt;Node10</title>
<path fill="none" stroke="midnightblue" d="M1163.27,-168.37C1164.4,-150.62 1167,-109.67 1168.54,-85.6"/>
<polygon fill="midnightblue" stroke="midnightblue" points="1172.03,-85.79 1169.17,-75.59 1165.04,-85.35 1172.03,-85.79"/>
</g>
<!-- Node13 -->
<g id="node13" class="node">
<title>Node13</title>
<g id="a_node13"><a xlink:href="_writer_8hpp.html" target="_top" xlink:title=" ">
<polygon fill="white" stroke="black" points="1190.72,-112.5 1190.72,-131.5 1366.72,-131.5 1366.72,-112.5 1190.72,-112.5"/>
<text text-anchor="middle" x="1278.72" y="-119.5" font-family="Helvetica,sans-Serif" font-size="10.00">Liger&#45;Engine/Core/Log/Writer.hpp</text>
</a>
</g>
</g>
<!-- Node9&#45;&gt;Node13 -->
<g id="edge13" class="edge">
<title>Node9&#45;&gt;Node13</title>
<path fill="none" stroke="midnightblue" d="M1181.1,-168.44C1199.94,-159.68 1229.45,-145.94 1251.1,-135.86"/>
<polygon fill="midnightblue" stroke="midnightblue" points="1252.84,-138.91 1260.42,-131.52 1249.88,-132.56 1252.84,-138.91"/>
</g>
<!-- Node14 -->
<g id="node14" class="node">
<title>Node14</title>
<g id="a_node14"><a xlink:title=" ">
<polygon fill="white" stroke="#bfbfbf" points="876.22,-112.5 876.22,-131.5 943.22,-131.5 943.22,-112.5 876.22,-112.5"/>
<text text-anchor="middle" x="909.72" y="-119.5" font-family="Helvetica,sans-Serif" font-size="10.00">fmt/core.h</text>
</a>
</g>
</g>
<!-- Node9&#45;&gt;Node14 -->
<g id="edge15" class="edge">
<title>Node9&#45;&gt;Node14</title>
<path fill="none" stroke="midnightblue" d="M1122.63,-168.44C1076.55,-158.61 1001.16,-142.52 953.55,-132.36"/>
<polygon fill="midnightblue" stroke="midnightblue" points="954.06,-128.88 943.55,-130.22 952.6,-135.73 954.06,-128.88"/>
</g>
<!-- Node15 -->
<g id="node15" class="node">
<title>Node15</title>
<g id="a_node15"><a xlink:title=" ">
<polygon fill="white" stroke="#bfbfbf" points="1087.22,-112.5 1087.22,-131.5 1134.22,-131.5 1134.22,-112.5 1087.22,-112.5"/>
<text text-anchor="middle" x="1110.72" y="-119.5" font-family="Helvetica,sans-Serif" font-size="10.00">vector</text>
</a>
</g>
</g>
<!-- Node9&#45;&gt;Node15 -->
<g id="edge16" class="edge">
<title>Node9&#45;&gt;Node15</title>
<path fill="none" stroke="midnightblue" d="M1154.13,-168.08C1146.56,-160.22 1135.34,-148.57 1126.2,-139.08"/>
<polygon fill="midnightblue" stroke="midnightblue" points="1128.6,-136.53 1119.15,-131.75 1123.56,-141.38 1128.6,-136.53"/>
</g>
<!-- Node10&#45;&gt;Node5 -->
<g id="edge10" class="edge">
<title>Node10&#45;&gt;Node5</title>
<path fill="none" stroke="midnightblue" d="M1193.33,-56.44C1218.18,-47.44 1257.49,-33.19 1285.47,-23.05"/>
<polygon fill="midnightblue" stroke="midnightblue" points="1287.01,-26.21 1295.22,-19.52 1284.63,-19.63 1287.01,-26.21"/>
</g>
<!-- Node11 -->
<g id="node11" class="node">
<title>Node11</title>
<g id="a_node11"><a xlink:title=" ">
<polygon fill="white" stroke="#bfbfbf" points="1147.72,-0.5 1147.72,-19.5 1191.72,-19.5 1191.72,-0.5 1147.72,-0.5"/>
<text text-anchor="middle" x="1169.72" y="-7.5" font-family="Helvetica,sans-Serif" font-size="10.00">string</text>
</a>
</g>
</g>
<!-- Node10&#45;&gt;Node11 -->
<g id="edge11" class="edge">
<title>Node10&#45;&gt;Node11</title>
<path fill="none" stroke="midnightblue" d="M1169.72,-56.08C1169.72,-49.01 1169.72,-38.86 1169.72,-29.99"/>
<polygon fill="midnightblue" stroke="midnightblue" points="1173.22,-29.75 1169.72,-19.75 1166.22,-29.75 1173.22,-29.75"/>
</g>
<!-- Node12 -->
<g id="node12" class="node">
<title>Node12</title>
<g id="a_node12"><a xlink:title=" ">
<polygon fill="white" stroke="#bfbfbf" points="1000.22,-0.5 1000.22,-19.5 1073.22,-19.5 1073.22,-0.5 1000.22,-0.5"/>
<text text-anchor="middle" x="1036.72" y="-7.5" font-family="Helvetica,sans-Serif" font-size="10.00">string_view</text>
</a>
</g>
</g>
<!-- Node10&#45;&gt;Node12 -->
<g id="edge12" class="edge">
<title>Node10&#45;&gt;Node12</title>
<path fill="none" stroke="midnightblue" d="M1148.64,-56.44C1126.66,-47.52 1091.98,-33.44 1067.05,-23.32"/>
<polygon fill="midnightblue" stroke="midnightblue" points="1068.28,-20.04 1057.69,-19.52 1065.64,-26.52 1068.28,-20.04"/>
</g>
<!-- Node13&#45;&gt;Node10 -->
<g id="edge14" class="edge">
<title>Node13&#45;&gt;Node10</title>
<path fill="none" stroke="midnightblue" d="M1261.21,-112.32C1243.65,-103.62 1216.39,-90.12 1196.19,-80.11"/>
<polygon fill="midnightblue" stroke="midnightblue" points="1197.7,-76.96 1187.19,-75.65 1194.59,-83.23 1197.7,-76.96"/>
</g>
<!-- Node16&#45;&gt;Node9 -->
<g id="edge18" class="edge">
<title>Node16&#45;&gt;Node9</title>
<path fill="none" stroke="midnightblue" d="M1162.72,-224.08C1162.72,-217.01 1162.72,-206.86 1162.72,-197.99"/>
<polygon fill="midnightblue" stroke="midnightblue" points="1166.22,-197.75 1162.72,-187.75 1159.22,-197.75 1166.22,-197.75"/>
</g>
<!-- Node19 -->
<g id="node19" class="node">
<title>Node19</title>
<g id="a_node19"><a xlink:title=" ">
<polygon fill="white" stroke="#bfbfbf" points="784.22,-280.5 784.22,-299.5 867.22,-299.5 867.22,-280.5 784.22,-280.5"/>
<text text-anchor="middle" x="825.72" y="-287.5" font-family="Helvetica,sans-Serif" font-size="10.00">GLFW/glfw3.h</text>
</a>
</g>
</g>
<!-- Node18&#45;&gt;Node19 -->
<g id="edge21" class="edge">
<title>Node18&#45;&gt;Node19</title>
<path fill="none" stroke="midnightblue" d="M825.72,-336.08C825.72,-329.01 825.72,-318.86 825.72,-309.99"/>
<polygon fill="midnightblue" stroke="midnightblue" points="829.22,-309.75 825.72,-299.75 822.22,-309.75 829.22,-309.75"/>
</g>
<!-- Node20&#45;&gt;Node18 -->
<g id="edge34" class="edge">
<title>Node20&#45;&gt;Node18</title>
<path fill="none" stroke="midnightblue" d="M771.16,-392.32C780.86,-384.26 795.53,-372.08 807.22,-362.37"/>
<polygon fill="midnightblue" stroke="midnightblue" points="809.63,-364.92 815.09,-355.83 805.16,-359.53 809.63,-364.92"/>
</g>
<!-- Node21 -->
<g id="node21" class="node">
<title>Node21</title>
<g id="a_node21"><a xlink:href="_math_8hpp.html" target="_top" xlink:title=" ">
<polygon fill="white" stroke="black" points="439.22,-336.5 439.22,-355.5 618.22,-355.5 618.22,-336.5 439.22,-336.5"/>
<text text-anchor="middle" x="528.72" y="-343.5" font-family="Helvetica,sans-Serif" font-size="10.00">Liger&#45;Engine/Core/Math/Math.hpp</text>
</a>
</g>
</g>
<!-- Node20&#45;&gt;Node21 -->
<g id="edge23" class="edge">
<title>Node20&#45;&gt;Node21</title>
<path fill="none" stroke="midnightblue" d="M723.96,-392.44C683.66,-383.06 618.91,-367.99 575.13,-357.8"/>
<polygon fill="midnightblue" stroke="midnightblue" points="575.84,-354.37 565.31,-355.52 574.25,-361.19 575.84,-354.37"/>
</g>
<!-- Node22 -->
<g id="node22" class="node">
<title>Node22</title>
<g id="a_node22"><a xlink:href="_formatting_8hpp.html" target="_top" xlink:title=" ">
<polygon fill="white" stroke="black" points="344.72,-280.5 344.72,-299.5 552.72,-299.5 552.72,-280.5 344.72,-280.5"/>
<text text-anchor="middle" x="448.72" y="-287.5" font-family="Helvetica,sans-Serif" font-size="10.00">Liger&#45;Engine/Core/Math/Formatting.hpp</text>
</a>
</g>
</g>
<!-- Node21&#45;&gt;Node22 -->
<g id="edge24" class="edge">
<title>Node21&#45;&gt;Node22</title>
<path fill="none" stroke="midnightblue" d="M515.87,-336.32C503.5,-327.98 484.59,-315.21 469.98,-305.35"/>
<polygon fill="midnightblue" stroke="midnightblue" points="471.79,-302.35 461.54,-299.65 467.87,-308.15 471.79,-302.35"/>
</g>
<!-- Node24 -->
<g id="node24" class="node">
<title>Node24</title>
<g id="a_node24"><a xlink:href="_random_8hpp.html" target="_top" xlink:title=" ">
<polygon fill="white" stroke="black" points="571.22,-280.5 571.22,-299.5 766.22,-299.5 766.22,-280.5 571.22,-280.5"/>
<text text-anchor="middle" x="668.72" y="-287.5" font-family="Helvetica,sans-Serif" font-size="10.00">Liger&#45;Engine/Core/Math/Random.hpp</text>
</a>
</g>
</g>
<!-- Node21&#45;&gt;Node24 -->
<g id="edge27" class="edge">
<title>Node21&#45;&gt;Node24</title>
<path fill="none" stroke="midnightblue" d="M550.9,-336.44C574.15,-327.48 610.87,-313.31 637.13,-303.18"/>
<polygon fill="midnightblue" stroke="midnightblue" points="638.57,-306.38 646.64,-299.52 636.05,-299.85 638.57,-306.38"/>
</g>
<!-- Node26 -->
<g id="node26" class="node">
<title>Node26</title>
<g id="a_node26"><a xlink:href="_transform3_d_8hpp.html" target="_top" xlink:title=" ">
<polygon fill="white" stroke="black" points="109.22,-280.5 109.22,-299.5 326.22,-299.5 326.22,-280.5 109.22,-280.5"/>
<text text-anchor="middle" x="217.72" y="-287.5" font-family="Helvetica,sans-Serif" font-size="10.00">Liger&#45;Engine/Core/Math/Transform3D.hpp</text>
</a>
</g>
</g>
<!-- Node21&#45;&gt;Node26 -->
<g id="edge30" class="edge">
<title>Node21&#45;&gt;Node26</title>
<path fill="none" stroke="midnightblue" d="M479.44,-336.44C424.39,-326.89 335.32,-311.42 276.63,-301.23"/>
<polygon fill="midnightblue" stroke="midnightblue" points="277.22,-297.78 266.77,-299.52 276.02,-304.68 277.22,-297.78"/>
</g>
<!-- Node22&#45;&gt;Node14 -->
<g id="edge25" class="edge">
<title>Node22&#45;&gt;Node14</title>
<path fill="none" stroke="midnightblue" d="M466.2,-280.45C484.55,-271.45 514.22,-256.84 539.72,-244 557.12,-235.24 560.66,-231.32 578.72,-224 679.14,-183.3 802.35,-149.82 866.4,-133.59"/>
<polygon fill="midnightblue" stroke="midnightblue" points="867.31,-136.96 876.16,-131.13 865.61,-130.18 867.31,-136.96"/>
</g>
<!-- Node23 -->
<g id="node23" class="node">
<title>Node23</title>
<g id="a_node23"><a xlink:title=" ">
<polygon fill="white" stroke="#bfbfbf" points="587.72,-224.5 587.72,-243.5 665.72,-243.5 665.72,-224.5 587.72,-224.5"/>
<text text-anchor="middle" x="626.72" y="-231.5" font-family="Helvetica,sans-Serif" font-size="10.00">glm/glm.hpp</text>
</a>
</g>
</g>
<!-- Node22&#45;&gt;Node23 -->
<g id="edge26" class="edge">
<title>Node22&#45;&gt;Node23</title>
<path fill="none" stroke="midnightblue" d="M476.92,-280.44C507.13,-271.28 555.23,-256.69 588.75,-246.52"/>
<polygon fill="midnightblue" stroke="midnightblue" points="590.09,-249.77 598.65,-243.52 588.06,-243.07 590.09,-249.77"/>
</g>
<!-- Node24&#45;&gt;Node23 -->
<g id="edge28" class="edge">
<title>Node24&#45;&gt;Node23</title>
<path fill="none" stroke="midnightblue" d="M661.78,-280.08C655.79,-272.38 646.97,-261.03 639.67,-251.65"/>
<polygon fill="midnightblue" stroke="midnightblue" points="642.43,-249.5 633.53,-243.75 636.9,-253.79 642.43,-249.5"/>
</g>
<!-- Node25 -->
<g id="node25" class="node">
<title>Node25</title>
<g id="a_node25"><a xlink:title=" ">
<polygon fill="white" stroke="#bfbfbf" points="683.72,-224.5 683.72,-243.5 737.72,-243.5 737.72,-224.5 683.72,-224.5"/>
<text text-anchor="middle" x="710.72" y="-231.5" font-family="Helvetica,sans-Serif" font-size="10.00">random</text>
</a>
</g>
</g>
<!-- Node24&#45;&gt;Node25 -->
<g id="edge29" class="edge">
<title>Node24&#45;&gt;Node25</title>
<path fill="none" stroke="midnightblue" d="M675.65,-280.08C681.65,-272.38 690.47,-261.03 697.77,-251.65"/>
<polygon fill="midnightblue" stroke="midnightblue" points="700.54,-253.79 703.91,-243.75 695.01,-249.5 700.54,-253.79"/>
</g>
<!-- Node27 -->
<g id="node27" class="node">
<title>Node27</title>
<g id="a_node27"><a xlink:title=" ">
<polygon fill="white" stroke="#bfbfbf" points="368.22,-224.5 368.22,-243.5 531.22,-243.5 531.22,-224.5 368.22,-224.5"/>
<text text-anchor="middle" x="449.72" y="-231.5" font-family="Helvetica,sans-Serif" font-size="10.00">glm/gtc/matrix_transform.hpp</text>
</a>
</g>
</g>
<!-- Node26&#45;&gt;Node27 -->
<g id="edge31" class="edge">
<title>Node26&#45;&gt;Node27</title>
<path fill="none" stroke="midnightblue" d="M254.48,-280.44C294.78,-271.06 359.53,-255.99 403.3,-245.8"/>
<polygon fill="midnightblue" stroke="midnightblue" points="404.18,-249.19 413.13,-243.52 402.6,-242.37 404.18,-249.19"/>
</g>
<!-- Node28 -->
<g id="node28" class="node">
<title>Node28</title>
<g id="a_node28"><a xlink:title=" ">
<polygon fill="white" stroke="#bfbfbf" points="28.72,-224.5 28.72,-243.5 200.72,-243.5 200.72,-224.5 28.72,-224.5"/>
<text text-anchor="middle" x="114.72" y="-231.5" font-family="Helvetica,sans-Serif" font-size="10.00">glm/gtx/matrix_decompose.hpp</text>
</a>
</g>
</g>
<!-- Node26&#45;&gt;Node28 -->
<g id="edge32" class="edge">
<title>Node26&#45;&gt;Node28</title>
<path fill="none" stroke="midnightblue" d="M201.17,-280.32C184.73,-271.7 159.28,-258.36 140.25,-248.39"/>
<polygon fill="midnightblue" stroke="midnightblue" points="141.71,-245.2 131.23,-243.65 138.46,-251.4 141.71,-245.2"/>
</g>
<!-- Node29 -->
<g id="node29" class="node">
<title>Node29</title>
<g id="a_node29"><a xlink:title=" ">
<polygon fill="white" stroke="#bfbfbf" points="219.22,-224.5 219.22,-243.5 350.22,-243.5 350.22,-224.5 219.22,-224.5"/>
<text text-anchor="middle" x="284.72" y="-231.5" font-family="Helvetica,sans-Serif" font-size="10.00">glm/gtx/quaternion.hpp</text>
</a>
</g>
</g>
<!-- Node26&#45;&gt;Node29 -->
<g id="edge33" class="edge">
<title>Node26&#45;&gt;Node29</title>
<path fill="none" stroke="midnightblue" d="M228.48,-280.32C238.48,-272.26 253.61,-260.08 265.65,-250.37"/>
<polygon fill="midnightblue" stroke="midnightblue" points="268.17,-252.83 273.76,-243.83 263.78,-247.38 268.17,-252.83"/>
</g>
<!-- Node30&#45;&gt;Node12 -->
<g id="edge36" class="edge">
<title>Node30&#45;&gt;Node12</title>
<path fill="none" stroke="midnightblue" d="M255.95,-168.48C395.92,-140.25 844.01,-49.87 990.15,-20.39"/>
<polygon fill="midnightblue" stroke="midnightblue" points="991.03,-23.79 1000.14,-18.38 989.65,-16.92 991.03,-23.79"/>
</g>
<!-- Node31&#45;&gt;Node3 -->
<g id="edge38" class="edge">
<title>Node31&#45;&gt;Node3</title>
<path fill="none" stroke="midnightblue" d="M1203.72,-448.08C1203.72,-441.01 1203.72,-430.86 1203.72,-421.99"/>
<polygon fill="midnightblue" stroke="midnightblue" points="1207.22,-421.75 1203.72,-411.75 1200.22,-421.75 1207.22,-421.75"/>
</g>
<!-- Node32 -->
<g id="node32" class="node">
<title>Node32</title>
<g id="a_node32"><a xlink:href="_scene_8hpp.html" target="_top" xlink:title=" ">
<polygon fill="white" stroke="black" points="1595.72,-392.5 1595.72,-411.5 1747.72,-411.5 1747.72,-392.5 1595.72,-392.5"/>
<text text-anchor="middle" x="1671.72" y="-399.5" font-family="Helvetica,sans-Serif" font-size="10.00">Liger&#45;Engine/ECS/Scene.hpp</text>
</a>
</g>
</g>
<!-- Node31&#45;&gt;Node32 -->
<g id="edge39" class="edge">
<title>Node31&#45;&gt;Node32</title>
<path fill="none" stroke="midnightblue" d="M1277.62,-448.47C1361.94,-438.74 1499.56,-422.86 1587.84,-412.68"/>
<polygon fill="midnightblue" stroke="midnightblue" points="1588.29,-416.15 1597.82,-411.53 1587.49,-409.2 1588.29,-416.15"/>
</g>
<!-- Node33 -->
<g id="node33" class="node">
<title>Node33</title>
<g id="a_node33"><a xlink:href="_entity_8hpp.html" target="_top" xlink:title=" ">
<polygon fill="white" stroke="black" points="1750.72,-336.5 1750.72,-355.5 1900.72,-355.5 1900.72,-336.5 1750.72,-336.5"/>
<text text-anchor="middle" x="1825.72" y="-343.5" font-family="Helvetica,sans-Serif" font-size="10.00">Liger&#45;Engine/ECS/Entity.hpp</text>
</a>
</g>
</g>
<!-- Node32&#45;&gt;Node33 -->
<g id="edge40" class="edge">
<title>Node32&#45;&gt;Node33</title>
<path fill="none" stroke="midnightblue" d="M1696.12,-392.44C1721.92,-383.4 1762.8,-369.06 1791.74,-358.92"/>
<polygon fill="midnightblue" stroke="midnightblue" points="1793.15,-362.13 1801.43,-355.52 1790.84,-355.52 1793.15,-362.13"/>
</g>
<!-- Node34 -->
<g id="node34" class="node">
<title>Node34</title>
<g id="a_node34"><a xlink:title=" ">
<polygon fill="white" stroke="#bfbfbf" points="1813.72,-280.5 1813.72,-299.5 1941.72,-299.5 1941.72,-280.5 1813.72,-280.5"/>
<text text-anchor="middle" x="1877.72" y="-287.5" font-family="Helvetica,sans-Serif" font-size="10.00">entt/entity/registry.hpp</text>
</a>
</g>
</g>
<!-- Node32&#45;&gt;Node34 -->
<g id="edge43" class="edge">
<title>Node32&#45;&gt;Node34</title>
<path fill="none" stroke="midnightblue" d="M1747.85,-396.91C1809.51,-391.82 1889.36,-380.57 1909.72,-356 1921.93,-341.27 1908.32,-321.09 1895.27,-307.14"/>
<polygon fill="midnightblue" stroke="midnightblue" points="1897.41,-304.32 1887.86,-299.74 1892.46,-309.28 1897.41,-304.32"/>
</g>
<!-- Node35 -->
<g id="node35" class="node">
<title>Node35</title>
<g id="a_node35"><a xlink:title=" ">
<polygon fill="white" stroke="#bfbfbf" points="1455.22,-336.5 1455.22,-355.5 1592.22,-355.5 1592.22,-336.5 1455.22,-336.5"/>
<text text-anchor="middle" x="1523.72" y="-343.5" font-family="Helvetica,sans-Serif" font-size="10.00">entt/entity/organizer.hpp</text>
</a>
</g>
</g>
<!-- Node32&#45;&gt;Node35 -->
<g id="edge42" class="edge">
<title>Node32&#45;&gt;Node35</title>
<path fill="none" stroke="midnightblue" d="M1648.27,-392.44C1623.59,-383.44 1584.53,-369.19 1556.74,-359.05"/>
<polygon fill="midnightblue" stroke="midnightblue" points="1557.65,-355.66 1547.06,-355.52 1555.25,-362.23 1557.65,-355.66"/>
</g>
<!-- Node36 -->
<g id="node36" class="node">
<title>Node36</title>
<g id="a_node36"><a xlink:title=" ">
<polygon fill="white" stroke="#bfbfbf" points="1610.72,-336.5 1610.72,-355.5 1732.72,-355.5 1732.72,-336.5 1610.72,-336.5"/>
<text text-anchor="middle" x="1671.72" y="-343.5" font-family="Helvetica,sans-Serif" font-size="10.00">taskflow/taskflow.hpp</text>
</a>
</g>
</g>
<!-- Node32&#45;&gt;Node36 -->
<g id="edge44" class="edge">
<title>Node32&#45;&gt;Node36</title>
<path fill="none" stroke="midnightblue" d="M1671.72,-392.08C1671.72,-385.01 1671.72,-374.86 1671.72,-365.99"/>
<polygon fill="midnightblue" stroke="midnightblue" points="1675.22,-365.75 1671.72,-355.75 1668.22,-365.75 1675.22,-365.75"/>
</g>
<!-- Node33&#45;&gt;Node34 -->
<g id="edge41" class="edge">
<title>Node33&#45;&gt;Node34</title>
<path fill="none" stroke="midnightblue" d="M1834.31,-336.08C1841.88,-328.22 1853.1,-316.57 1862.23,-307.08"/>
<polygon fill="midnightblue" stroke="midnightblue" points="1864.88,-309.38 1869.29,-299.75 1859.83,-304.53 1864.88,-309.38"/>
</g>
</g>
</svg>
