<?xml version="1.0" encoding="UTF-8" standalone="no"?>
<!DOCTYPE svg PUBLIC "-//W3C//DTD SVG 1.1//EN"
 "http://www.w3.org/Graphics/SVG/1.1/DTD/svg11.dtd">
<!-- Generated by graphviz version 2.43.0 (0)
 -->
<!-- Title: CameraData.hpp Pages: 1 -->
<svg width="1217pt" height="364pt"
 viewBox="0.00 0.00 1217.00 364.00" xmlns="http://www.w3.org/2000/svg" xmlns:xlink="http://www.w3.org/1999/xlink">
<g id="graph0" class="graph" transform="scale(1 1) rotate(0) translate(4 360)">
<title>CameraData.hpp</title>
<polygon fill="white" stroke="transparent" points="-4,4 -4,-360 1213,-360 1213,4 -4,4"/>
<!-- Node1 -->
<g id="node1" class="node">
<title>Node1</title>
<g id="a_node1"><a xlink:title=" ">
<polygon fill="#bfbfbf" stroke="black" points="180,-336.5 180,-355.5 279,-355.5 279,-336.5 180,-336.5"/>
<text text-anchor="middle" x="229.5" y="-343.5" font-family="Helvetica,sans-Serif" font-size="10.00">CameraData.hpp</text>
</a>
</g>
</g>
<!-- Node2 -->
<g id="node2" class="node">
<title>Node2</title>
<g id="a_node2"><a xlink:href="_descriptor_binding_8hpp.html" target="_top" xlink:title=" ">
<polygon fill="white" stroke="black" points="0,-224.5 0,-243.5 209,-243.5 209,-224.5 0,-224.5"/>
<text text-anchor="middle" x="104.5" y="-231.5" font-family="Helvetica,sans-Serif" font-size="10.00">Liger&#45;Engine/RHI/DescriptorBinding.hpp</text>
</a>
</g>
</g>
<!-- Node1&#45;&gt;Node2 -->
<g id="edge1" class="edge">
<title>Node1&#45;&gt;Node2</title>
<path fill="none" stroke="midnightblue" d="M219.69,-336.37C198.61,-317.81 148.72,-273.91 122.04,-250.44"/>
<polygon fill="midnightblue" stroke="midnightblue" points="124.08,-247.57 114.26,-243.59 119.46,-252.83 124.08,-247.57"/>
</g>
<!-- Node4 -->
<g id="node4" class="node">
<title>Node4</title>
<g id="a_node4"><a xlink:href="_shader_alignment_8hpp.html" target="_top" xlink:title=" ">
<polygon fill="white" stroke="black" points="193.5,-280.5 193.5,-299.5 399.5,-299.5 399.5,-280.5 193.5,-280.5"/>
<text text-anchor="middle" x="296.5" y="-287.5" font-family="Helvetica,sans-Serif" font-size="10.00">Liger&#45;Engine/RHI/ShaderAlignment.hpp</text>
</a>
</g>
</g>
<!-- Node1&#45;&gt;Node4 -->
<g id="edge3" class="edge">
<title>Node1&#45;&gt;Node4</title>
<path fill="none" stroke="midnightblue" d="M240.26,-336.32C250.27,-328.26 265.39,-316.08 277.43,-306.37"/>
<polygon fill="midnightblue" stroke="midnightblue" points="279.95,-308.83 285.54,-299.83 275.56,-303.38 279.95,-308.83"/>
</g>
<!-- Node3 -->
<g id="node3" class="node">
<title>Node3</title>
<g id="a_node3"><a xlink:title=" ">
<polygon fill="white" stroke="#bfbfbf" points="97.5,-0.5 97.5,-19.5 147.5,-19.5 147.5,-0.5 97.5,-0.5"/>
<text text-anchor="middle" x="122.5" y="-7.5" font-family="Helvetica,sans-Serif" font-size="10.00">cstdint</text>
</a>
</g>
</g>
<!-- Node2&#45;&gt;Node3 -->
<g id="edge2" class="edge">
<title>Node2&#45;&gt;Node3</title>
<path fill="none" stroke="midnightblue" d="M104.36,-224.48C104.06,-198.86 103.96,-120.34 112.5,-56 113.67,-47.16 115.72,-37.5 117.65,-29.4"/>
<polygon fill="midnightblue" stroke="midnightblue" points="121.09,-30.1 120.14,-19.55 114.3,-28.39 121.09,-30.1"/>
</g>
<!-- Node4&#45;&gt;Node2 -->
<g id="edge24" class="edge">
<title>Node4&#45;&gt;Node2</title>
<path fill="none" stroke="midnightblue" d="M266.08,-280.44C233.22,-271.2 180.72,-256.44 144.53,-246.26"/>
<polygon fill="midnightblue" stroke="midnightblue" points="145.35,-242.85 134.78,-243.52 143.46,-249.59 145.35,-242.85"/>
</g>
<!-- Node5 -->
<g id="node5" class="node">
<title>Node5</title>
<g id="a_node5"><a xlink:href="_log_8hpp.html" target="_top" xlink:title=" ">
<polygon fill="white" stroke="black" points="165.5,-168.5 165.5,-187.5 329.5,-187.5 329.5,-168.5 165.5,-168.5"/>
<text text-anchor="middle" x="247.5" y="-175.5" font-family="Helvetica,sans-Serif" font-size="10.00">Liger&#45;Engine/Core/Log/Log.hpp</text>
</a>
</g>
</g>
<!-- Node4&#45;&gt;Node5 -->
<g id="edge4" class="edge">
<title>Node4&#45;&gt;Node5</title>
<path fill="none" stroke="midnightblue" d="M286.4,-280.47C277.27,-272.15 264.27,-258.64 257.5,-244 250.83,-229.57 248.45,-211.62 247.68,-198.23"/>
<polygon fill="midnightblue" stroke="midnightblue" points="251.16,-197.73 247.34,-187.85 244.17,-197.96 251.16,-197.73"/>
</g>
<!-- Node12 -->
<g id="node12" class="node">
<title>Node12</title>
<g id="a_node12"><a xlink:href="_math_8hpp.html" target="_top" xlink:title=" ">
<polygon fill="white" stroke="black" points="463,-224.5 463,-243.5 642,-243.5 642,-224.5 463,-224.5"/>
<text text-anchor="middle" x="552.5" y="-231.5" font-family="Helvetica,sans-Serif" font-size="10.00">Liger&#45;Engine/Core/Math/Math.hpp</text>
</a>
</g>
</g>
<!-- Node4&#45;&gt;Node12 -->
<g id="edge13" class="edge">
<title>Node4&#45;&gt;Node12</title>
<path fill="none" stroke="midnightblue" d="M337.06,-280.44C381.82,-271 453.88,-255.8 502.2,-245.61"/>
<polygon fill="midnightblue" stroke="midnightblue" points="503.06,-249.01 512.13,-243.52 501.62,-242.16 503.06,-249.01"/>
</g>
<!-- Node21 -->
<g id="node21" class="node">
<title>Node21</title>
<g id="a_node21"><a xlink:href="_r_h_i_2_log_channel_8hpp.html" target="_top" xlink:title=" ">
<polygon fill="white" stroke="black" points="266,-224.5 266,-243.5 445,-243.5 445,-224.5 266,-224.5"/>
<text text-anchor="middle" x="355.5" y="-231.5" font-family="Helvetica,sans-Serif" font-size="10.00">Liger&#45;Engine/RHI/LogChannel.hpp</text>
</a>
</g>
</g>
<!-- Node4&#45;&gt;Node21 -->
<g id="edge25" class="edge">
<title>Node4&#45;&gt;Node21</title>
<path fill="none" stroke="midnightblue" d="M305.98,-280.32C314.7,-272.34 327.84,-260.31 338.4,-250.65"/>
<polygon fill="midnightblue" stroke="midnightblue" points="340.83,-253.17 345.85,-243.83 336.11,-248 340.83,-253.17"/>
</g>
<!-- Node22 -->
<g id="node22" class="node">
<title>Node22</title>
<g id="a_node22"><a xlink:title=" ">
<polygon fill="white" stroke="#bfbfbf" points="660.5,-224.5 660.5,-243.5 712.5,-243.5 712.5,-224.5 660.5,-224.5"/>
<text text-anchor="middle" x="686.5" y="-231.5" font-family="Helvetica,sans-Serif" font-size="10.00">cassert</text>
</a>
</g>
</g>
<!-- Node4&#45;&gt;Node22 -->
<g id="edge27" class="edge">
<title>Node4&#45;&gt;Node22</title>
<path fill="none" stroke="midnightblue" d="M388.94,-280.5C458.42,-273.36 556.07,-261.74 650.23,-244.04"/>
<polygon fill="midnightblue" stroke="midnightblue" points="651.04,-247.45 660.21,-242.14 649.73,-240.57 651.04,-247.45"/>
</g>
<!-- Node6 -->
<g id="node6" class="node">
<title>Node6</title>
<g id="a_node6"><a xlink:href="_message_8hpp.html" target="_top" xlink:title=" ">
<polygon fill="white" stroke="black" points="122,-56.5 122,-75.5 313,-75.5 313,-56.5 122,-56.5"/>
<text text-anchor="middle" x="217.5" y="-63.5" font-family="Helvetica,sans-Serif" font-size="10.00">Liger&#45;Engine/Core/Log/Message.hpp</text>
</a>
</g>
</g>
<!-- Node5&#45;&gt;Node6 -->
<g id="edge5" class="edge">
<title>Node5&#45;&gt;Node6</title>
<path fill="none" stroke="midnightblue" d="M205.11,-168.45C184.92,-162.02 162.59,-150.93 150.5,-132 137.18,-111.14 163.6,-92.03 187.08,-80.01"/>
<polygon fill="midnightblue" stroke="midnightblue" points="188.7,-83.12 196.18,-75.62 185.65,-76.82 188.7,-83.12"/>
</g>
<!-- Node9 -->
<g id="node9" class="node">
<title>Node9</title>
<g id="a_node9"><a xlink:href="_writer_8hpp.html" target="_top" xlink:title=" ">
<polygon fill="white" stroke="black" points="159.5,-112.5 159.5,-131.5 335.5,-131.5 335.5,-112.5 159.5,-112.5"/>
<text text-anchor="middle" x="247.5" y="-119.5" font-family="Helvetica,sans-Serif" font-size="10.00">Liger&#45;Engine/Core/Log/Writer.hpp</text>
</a>
</g>
</g>
<!-- Node5&#45;&gt;Node9 -->
<g id="edge9" class="edge">
<title>Node5&#45;&gt;Node9</title>
<path fill="none" stroke="midnightblue" d="M247.5,-168.08C247.5,-161.01 247.5,-150.86 247.5,-141.99"/>
<polygon fill="midnightblue" stroke="midnightblue" points="251,-141.75 247.5,-131.75 244,-141.75 251,-141.75"/>
</g>
<!-- Node10 -->
<g id="node10" class="node">
<title>Node10</title>
<g id="a_node10"><a xlink:title=" ">
<polygon fill="white" stroke="#bfbfbf" points="419,-112.5 419,-131.5 486,-131.5 486,-112.5 419,-112.5"/>
<text text-anchor="middle" x="452.5" y="-119.5" font-family="Helvetica,sans-Serif" font-size="10.00">fmt/core.h</text>
</a>
</g>
</g>
<!-- Node5&#45;&gt;Node10 -->
<g id="edge11" class="edge">
<title>Node5&#45;&gt;Node10</title>
<path fill="none" stroke="midnightblue" d="M279.98,-168.44C315.22,-159.16 371.6,-144.31 410.26,-134.13"/>
<polygon fill="midnightblue" stroke="midnightblue" points="411.39,-137.45 420.17,-131.52 409.61,-130.68 411.39,-137.45"/>
</g>
<!-- Node11 -->
<g id="node11" class="node">
<title>Node11</title>
<g id="a_node11"><a xlink:title=" ">
<polygon fill="white" stroke="#bfbfbf" points="354,-112.5 354,-131.5 401,-131.5 401,-112.5 354,-112.5"/>
<text text-anchor="middle" x="377.5" y="-119.5" font-family="Helvetica,sans-Serif" font-size="10.00">vector</text>
</a>
</g>
</g>
<!-- Node5&#45;&gt;Node11 -->
<g id="edge12" class="edge">
<title>Node5&#45;&gt;Node11</title>
<path fill="none" stroke="midnightblue" d="M268.1,-168.44C289.49,-159.56 323.18,-145.56 347.52,-135.45"/>
<polygon fill="midnightblue" stroke="midnightblue" points="349.11,-138.58 357,-131.52 346.42,-132.12 349.11,-138.58"/>
</g>
<!-- Node6&#45;&gt;Node3 -->
<g id="edge6" class="edge">
<title>Node6&#45;&gt;Node3</title>
<path fill="none" stroke="midnightblue" d="M202.24,-56.32C187.28,-47.82 164.25,-34.73 146.77,-24.8"/>
<polygon fill="midnightblue" stroke="midnightblue" points="148.15,-21.55 137.73,-19.65 144.69,-27.64 148.15,-21.55"/>
</g>
<!-- Node7 -->
<g id="node7" class="node">
<title>Node7</title>
<g id="a_node7"><a xlink:title=" ">
<polygon fill="white" stroke="#bfbfbf" points="180.5,-0.5 180.5,-19.5 224.5,-19.5 224.5,-0.5 180.5,-0.5"/>
<text text-anchor="middle" x="202.5" y="-7.5" font-family="Helvetica,sans-Serif" font-size="10.00">string</text>
</a>
</g>
</g>
<!-- Node6&#45;&gt;Node7 -->
<g id="edge7" class="edge">
<title>Node6&#45;&gt;Node7</title>
<path fill="none" stroke="midnightblue" d="M215.02,-56.08C213.01,-48.85 210.11,-38.41 207.61,-29.4"/>
<polygon fill="midnightblue" stroke="midnightblue" points="210.98,-28.45 204.93,-19.75 204.24,-30.32 210.98,-28.45"/>
</g>
<!-- Node8 -->
<g id="node8" class="node">
<title>Node8</title>
<g id="a_node8"><a xlink:title=" ">
<polygon fill="white" stroke="#bfbfbf" points="243,-0.5 243,-19.5 316,-19.5 316,-0.5 243,-0.5"/>
<text text-anchor="middle" x="279.5" y="-7.5" font-family="Helvetica,sans-Serif" font-size="10.00">string_view</text>
</a>
</g>
</g>
<!-- Node6&#45;&gt;Node8 -->
<g id="edge8" class="edge">
<title>Node6&#45;&gt;Node8</title>
<path fill="none" stroke="midnightblue" d="M227.46,-56.32C236.63,-48.34 250.44,-36.31 261.53,-26.65"/>
<polygon fill="midnightblue" stroke="midnightblue" points="264.12,-29.04 269.36,-19.83 259.52,-23.76 264.12,-29.04"/>
</g>
<!-- Node9&#45;&gt;Node6 -->
<g id="edge10" class="edge">
<title>Node9&#45;&gt;Node6</title>
<path fill="none" stroke="midnightblue" d="M242.55,-112.08C238.4,-104.61 232.35,-93.72 227.23,-84.52"/>
<polygon fill="midnightblue" stroke="midnightblue" points="230.28,-82.79 222.36,-75.75 224.16,-86.19 230.28,-82.79"/>
</g>
<!-- Node13 -->
<g id="node13" class="node">
<title>Node13</title>
<g id="a_node13"><a xlink:href="_formatting_8hpp.html" target="_top" xlink:title=" ">
<polygon fill="white" stroke="black" points="347.5,-168.5 347.5,-187.5 555.5,-187.5 555.5,-168.5 347.5,-168.5"/>
<text text-anchor="middle" x="451.5" y="-175.5" font-family="Helvetica,sans-Serif" font-size="10.00">Liger&#45;Engine/Core/Math/Formatting.hpp</text>
</a>
</g>
</g>
<!-- Node12&#45;&gt;Node13 -->
<g id="edge14" class="edge">
<title>Node12&#45;&gt;Node13</title>
<path fill="none" stroke="midnightblue" d="M536.27,-224.32C520.15,-215.7 495.2,-202.36 476.54,-192.39"/>
<polygon fill="midnightblue" stroke="midnightblue" points="478.16,-189.28 467.69,-187.65 474.86,-195.46 478.16,-189.28"/>
</g>
<!-- Node15 -->
<g id="node15" class="node">
<title>Node15</title>
<g id="a_node15"><a xlink:href="_random_8hpp.html" target="_top" xlink:title=" ">
<polygon fill="white" stroke="black" points="574,-168.5 574,-187.5 769,-187.5 769,-168.5 574,-168.5"/>
<text text-anchor="middle" x="671.5" y="-175.5" font-family="Helvetica,sans-Serif" font-size="10.00">Liger&#45;Engine/Core/Math/Random.hpp</text>
</a>
</g>
</g>
<!-- Node12&#45;&gt;Node15 -->
<g id="edge17" class="edge">
<title>Node12&#45;&gt;Node15</title>
<path fill="none" stroke="midnightblue" d="M571.36,-224.44C590.77,-215.64 621.23,-201.81 643.46,-191.72"/>
<polygon fill="midnightblue" stroke="midnightblue" points="645.07,-194.84 652.73,-187.52 642.18,-188.46 645.07,-194.84"/>
</g>
<!-- Node17 -->
<g id="node17" class="node">
<title>Node17</title>
<g id="a_node17"><a xlink:href="_transform3_d_8hpp.html" target="_top" xlink:title=" ">
<polygon fill="white" stroke="black" points="831,-168.5 831,-187.5 1048,-187.5 1048,-168.5 831,-168.5"/>
<text text-anchor="middle" x="939.5" y="-175.5" font-family="Helvetica,sans-Serif" font-size="10.00">Liger&#45;Engine/Core/Math/Transform3D.hpp</text>
</a>
</g>
</g>
<!-- Node12&#45;&gt;Node17 -->
<g id="edge20" class="edge">
<title>Node12&#45;&gt;Node17</title>
<path fill="none" stroke="midnightblue" d="M613.82,-224.44C683.03,-214.79 795.45,-199.1 868.44,-188.92"/>
<polygon fill="midnightblue" stroke="midnightblue" points="869.05,-192.36 878.47,-187.52 868.08,-185.43 869.05,-192.36"/>
</g>
<!-- Node13&#45;&gt;Node10 -->
<g id="edge15" class="edge">
<title>Node13&#45;&gt;Node10</title>
<path fill="none" stroke="midnightblue" d="M451.67,-168.08C451.8,-161.01 451.98,-150.86 452.15,-141.99"/>
<polygon fill="midnightblue" stroke="midnightblue" points="455.65,-141.81 452.34,-131.75 448.65,-141.68 455.65,-141.81"/>
</g>
<!-- Node14 -->
<g id="node14" class="node">
<title>Node14</title>
<g id="a_node14"><a xlink:title=" ">
<polygon fill="white" stroke="#bfbfbf" points="515.5,-112.5 515.5,-131.5 593.5,-131.5 593.5,-112.5 515.5,-112.5"/>
<text text-anchor="middle" x="554.5" y="-119.5" font-family="Helvetica,sans-Serif" font-size="10.00">glm/glm.hpp</text>
</a>
</g>
</g>
<!-- Node13&#45;&gt;Node14 -->
<g id="edge16" class="edge">
<title>Node13&#45;&gt;Node14</title>
<path fill="none" stroke="midnightblue" d="M468.05,-168.32C484.49,-159.7 509.93,-146.36 528.97,-136.39"/>
<polygon fill="midnightblue" stroke="midnightblue" points="530.76,-139.4 537.99,-131.65 527.51,-133.2 530.76,-139.4"/>
</g>
<!-- Node15&#45;&gt;Node14 -->
<g id="edge18" class="edge">
<title>Node15&#45;&gt;Node14</title>
<path fill="none" stroke="midnightblue" d="M652.96,-168.44C633.88,-159.64 603.93,-145.81 582.06,-135.72"/>
<polygon fill="midnightblue" stroke="midnightblue" points="583.5,-132.53 572.95,-131.52 580.57,-138.88 583.5,-132.53"/>
</g>
<!-- Node16 -->
<g id="node16" class="node">
<title>Node16</title>
<g id="a_node16"><a xlink:title=" ">
<polygon fill="white" stroke="#bfbfbf" points="633.5,-112.5 633.5,-131.5 687.5,-131.5 687.5,-112.5 633.5,-112.5"/>
<text text-anchor="middle" x="660.5" y="-119.5" font-family="Helvetica,sans-Serif" font-size="10.00">random</text>
</a>
</g>
</g>
<!-- Node15&#45;&gt;Node16 -->
<g id="edge19" class="edge">
<title>Node15&#45;&gt;Node16</title>
<path fill="none" stroke="midnightblue" d="M669.68,-168.08C668.23,-160.93 666.13,-150.64 664.31,-141.69"/>
<polygon fill="midnightblue" stroke="midnightblue" points="667.71,-140.85 662.28,-131.75 660.85,-142.25 667.71,-140.85"/>
</g>
<!-- Node18 -->
<g id="node18" class="node">
<title>Node18</title>
<g id="a_node18"><a xlink:title=" ">
<polygon fill="white" stroke="#bfbfbf" points="706,-112.5 706,-131.5 869,-131.5 869,-112.5 706,-112.5"/>
<text text-anchor="middle" x="787.5" y="-119.5" font-family="Helvetica,sans-Serif" font-size="10.00">glm/gtc/matrix_transform.hpp</text>
</a>
</g>
</g>
<!-- Node17&#45;&gt;Node18 -->
<g id="edge21" class="edge">
<title>Node17&#45;&gt;Node18</title>
<path fill="none" stroke="midnightblue" d="M915.42,-168.44C889.96,-159.4 849.61,-145.06 821.04,-134.92"/>
<polygon fill="midnightblue" stroke="midnightblue" points="822.07,-131.57 811.47,-131.52 819.72,-138.16 822.07,-131.57"/>
</g>
<!-- Node19 -->
<g id="node19" class="node">
<title>Node19</title>
<g id="a_node19"><a xlink:title=" ">
<polygon fill="white" stroke="#bfbfbf" points="887.5,-112.5 887.5,-131.5 1059.5,-131.5 1059.5,-112.5 887.5,-112.5"/>
<text text-anchor="middle" x="973.5" y="-119.5" font-family="Helvetica,sans-Serif" font-size="10.00">glm/gtx/matrix_decompose.hpp</text>
</a>
</g>
</g>
<!-- Node17&#45;&gt;Node19 -->
<g id="edge22" class="edge">
<title>Node17&#45;&gt;Node19</title>
<path fill="none" stroke="midnightblue" d="M945.11,-168.08C949.87,-160.53 956.82,-149.49 962.65,-140.23"/>
<polygon fill="midnightblue" stroke="midnightblue" points="965.62,-142.08 967.99,-131.75 959.7,-138.35 965.62,-142.08"/>
</g>
<!-- Node20 -->
<g id="node20" class="node">
<title>Node20</title>
<g id="a_node20"><a xlink:title=" ">
<polygon fill="white" stroke="#bfbfbf" points="1078,-112.5 1078,-131.5 1209,-131.5 1209,-112.5 1078,-112.5"/>
<text text-anchor="middle" x="1143.5" y="-119.5" font-family="Helvetica,sans-Serif" font-size="10.00">glm/gtx/quaternion.hpp</text>
</a>
</g>
</g>
<!-- Node17&#45;&gt;Node20 -->
<g id="edge23" class="edge">
<title>Node17&#45;&gt;Node20</title>
<path fill="none" stroke="midnightblue" d="M971.82,-168.44C1006.89,-159.16 1063,-144.31 1101.46,-134.13"/>
<polygon fill="midnightblue" stroke="midnightblue" points="1102.56,-137.46 1111.33,-131.52 1100.76,-130.69 1102.56,-137.46"/>
</g>
<!-- Node21&#45;&gt;Node5 -->
<g id="edge26" class="edge">
<title>Node21&#45;&gt;Node5</title>
<path fill="none" stroke="midnightblue" d="M338.15,-224.32C320.83,-215.66 293.98,-202.24 274,-192.25"/>
<polygon fill="midnightblue" stroke="midnightblue" points="275.32,-189 264.81,-187.65 272.19,-195.26 275.32,-189"/>
</g>
</g>
</svg>
