<?xml version="1.0" encoding="UTF-8" standalone="no"?>
<!DOCTYPE svg PUBLIC "-//W3C//DTD SVG 1.1//EN"
 "http://www.w3.org/Graphics/SVG/1.1/DTD/svg11.dtd">
<!-- Generated by graphviz version 2.43.0 (0)
 -->
<!-- Title: CameraAspectSystem.hpp Pages: 1 -->
<svg width="1850pt" height="588pt"
 viewBox="0.00 0.00 1850.00 588.00" xmlns="http://www.w3.org/2000/svg" xmlns:xlink="http://www.w3.org/1999/xlink">
<g id="graph0" class="graph" transform="scale(1 1) rotate(0) translate(4 584)">
<title>CameraAspectSystem.hpp</title>
<polygon fill="white" stroke="transparent" points="-4,4 -4,-584 1846,-584 1846,4 -4,4"/>
<!-- Node1 -->
<g id="node1" class="node">
<title>Node1</title>
<g id="a_node1"><a xlink:title=" ">
<polygon fill="#bfbfbf" stroke="black" points="588,-560.5 588,-579.5 734,-579.5 734,-560.5 588,-560.5"/>
<text text-anchor="middle" x="661" y="-567.5" font-family="Helvetica,sans-Serif" font-size="10.00">CameraAspectSystem.hpp</text>
</a>
</g>
</g>
<!-- Node2 -->
<g id="node2" class="node">
<title>Node2</title>
<g id="a_node2"><a xlink:href="_window_8hpp.html" target="_top" xlink:title=" ">
<polygon fill="white" stroke="black" points="0,-224.5 0,-243.5 210,-243.5 210,-224.5 0,-224.5"/>
<text text-anchor="middle" x="105" y="-231.5" font-family="Helvetica,sans-Serif" font-size="10.00">Liger&#45;Engine/Core/Platform/Window.hpp</text>
</a>
</g>
</g>
<!-- Node1&#45;&gt;Node2 -->
<g id="edge1" class="edge">
<title>Node1&#45;&gt;Node2</title>
<path fill="none" stroke="midnightblue" d="M587.95,-568.22C447.37,-564.73 153,-546.93 153,-459 153,-459 153,-459 153,-345 153,-309.58 131.84,-272.71 117.62,-251.92"/>
<polygon fill="midnightblue" stroke="midnightblue" points="120.32,-249.68 111.67,-243.56 114.62,-253.74 120.32,-249.68"/>
</g>
<!-- Node4 -->
<g id="node4" class="node">
<title>Node4</title>
<g id="a_node4"><a xlink:href="_default_components_8hpp.html" target="_top" xlink:title=" ">
<polygon fill="white" stroke="black" points="759.5,-504.5 759.5,-523.5 980.5,-523.5 980.5,-504.5 759.5,-504.5"/>
<text text-anchor="middle" x="870" y="-511.5" font-family="Helvetica,sans-Serif" font-size="10.00">Liger&#45;Engine/ECS/DefaultComponents.hpp</text>
</a>
</g>
</g>
<!-- Node1&#45;&gt;Node4 -->
<g id="edge3" class="edge">
<title>Node1&#45;&gt;Node4</title>
<path fill="none" stroke="midnightblue" d="M694.12,-560.44C730.12,-551.14 787.77,-536.25 827.19,-526.06"/>
<polygon fill="midnightblue" stroke="midnightblue" points="828.23,-529.41 837.04,-523.52 826.48,-522.63 828.23,-529.41"/>
</g>
<!-- Node34 -->
<g id="node34" class="node">
<title>Node34</title>
<g id="a_node34"><a xlink:href="_system_8hpp.html" target="_top" xlink:title=" ">
<polygon fill="white" stroke="black" points="581,-504.5 581,-523.5 741,-523.5 741,-504.5 581,-504.5"/>
<text text-anchor="middle" x="661" y="-511.5" font-family="Helvetica,sans-Serif" font-size="10.00">Liger&#45;Engine/ECS/System.hpp</text>
</a>
</g>
</g>
<!-- Node1&#45;&gt;Node34 -->
<g id="edge42" class="edge">
<title>Node1&#45;&gt;Node34</title>
<path fill="none" stroke="midnightblue" d="M661,-560.08C661,-553.01 661,-542.86 661,-533.99"/>
<polygon fill="midnightblue" stroke="midnightblue" points="664.5,-533.75 661,-523.75 657.5,-533.75 664.5,-533.75"/>
</g>
<!-- Node3 -->
<g id="node3" class="node">
<title>Node3</title>
<g id="a_node3"><a xlink:title=" ">
<polygon fill="white" stroke="#bfbfbf" points="172.5,-0.5 172.5,-19.5 245.5,-19.5 245.5,-0.5 172.5,-0.5"/>
<text text-anchor="middle" x="209" y="-7.5" font-family="Helvetica,sans-Serif" font-size="10.00">string_view</text>
</a>
</g>
</g>
<!-- Node2&#45;&gt;Node3 -->
<g id="edge2" class="edge">
<title>Node2&#45;&gt;Node3</title>
<path fill="none" stroke="midnightblue" d="M109.08,-224.3C124.48,-191.42 179.3,-74.39 200.53,-29.09"/>
<polygon fill="midnightblue" stroke="midnightblue" points="203.77,-30.42 204.84,-19.88 197.43,-27.45 203.77,-30.42"/>
</g>
<!-- Node5 -->
<g id="node5" class="node">
<title>Node5</title>
<g id="a_node5"><a xlink:href="_math_8hpp.html" target="_top" xlink:title=" ">
<polygon fill="white" stroke="black" points="1087.5,-448.5 1087.5,-467.5 1266.5,-467.5 1266.5,-448.5 1087.5,-448.5"/>
<text text-anchor="middle" x="1177" y="-455.5" font-family="Helvetica,sans-Serif" font-size="10.00">Liger&#45;Engine/Core/Math/Math.hpp</text>
</a>
</g>
</g>
<!-- Node4&#45;&gt;Node5 -->
<g id="edge4" class="edge">
<title>Node4&#45;&gt;Node5</title>
<path fill="none" stroke="midnightblue" d="M918.65,-504.44C972.87,-494.9 1060.55,-479.48 1118.48,-469.29"/>
<polygon fill="midnightblue" stroke="midnightblue" points="1119.34,-472.7 1128.58,-467.52 1118.13,-465.8 1119.34,-472.7"/>
</g>
<!-- Node15 -->
<g id="node15" class="node">
<title>Node15</title>
<g id="a_node15"><a xlink:href="_scene_8hpp.html" target="_top" xlink:title=" ">
<polygon fill="white" stroke="black" points="690,-392.5 690,-411.5 842,-411.5 842,-392.5 690,-392.5"/>
<text text-anchor="middle" x="766" y="-399.5" font-family="Helvetica,sans-Serif" font-size="10.00">Liger&#45;Engine/ECS/Scene.hpp</text>
</a>
</g>
</g>
<!-- Node4&#45;&gt;Node15 -->
<g id="edge15" class="edge">
<title>Node4&#45;&gt;Node15</title>
<path fill="none" stroke="midnightblue" d="M869.58,-504.45C868.51,-491.01 864.67,-464.76 851,-448 838.91,-433.18 820.63,-422.61 804.11,-415.46"/>
<polygon fill="midnightblue" stroke="midnightblue" points="805.24,-412.14 794.65,-411.64 802.61,-418.63 805.24,-412.14"/>
</g>
<!-- Node20 -->
<g id="node20" class="node">
<title>Node20</title>
<g id="a_node20"><a xlink:href="_script_8hpp.html" target="_top" xlink:title=" ">
<polygon fill="white" stroke="black" points="690.5,-448.5 690.5,-467.5 841.5,-467.5 841.5,-448.5 690.5,-448.5"/>
<text text-anchor="middle" x="766" y="-455.5" font-family="Helvetica,sans-Serif" font-size="10.00">Liger&#45;Engine/ECS/Script.hpp</text>
</a>
</g>
</g>
<!-- Node4&#45;&gt;Node20 -->
<g id="edge21" class="edge">
<title>Node4&#45;&gt;Node20</title>
<path fill="none" stroke="midnightblue" d="M853.29,-504.32C836.69,-495.7 811,-482.36 791.78,-472.39"/>
<polygon fill="midnightblue" stroke="midnightblue" points="793.16,-469.16 782.67,-467.65 789.93,-475.37 793.16,-469.16"/>
</g>
<!-- Node29 -->
<g id="node29" class="node">
<title>Node29</title>
<g id="a_node29"><a xlink:title=" ">
<polygon fill="white" stroke="#bfbfbf" points="475,-0.5 475,-19.5 519,-19.5 519,-0.5 475,-0.5"/>
<text text-anchor="middle" x="497" y="-7.5" font-family="Helvetica,sans-Serif" font-size="10.00">string</text>
</a>
</g>
</g>
<!-- Node4&#45;&gt;Node29 -->
<g id="edge41" class="edge">
<title>Node4&#45;&gt;Node29</title>
<path fill="none" stroke="midnightblue" d="M980.55,-511.84C1235.31,-507.72 1842,-488.87 1842,-403 1842,-403 1842,-403 1842,-121 1842,-52.96 734.1,-17.82 529.34,-11.9"/>
<polygon fill="midnightblue" stroke="midnightblue" points="529.32,-8.4 519.22,-11.61 529.12,-15.4 529.32,-8.4"/>
</g>
<!-- Node6 -->
<g id="node6" class="node">
<title>Node6</title>
<g id="a_node6"><a xlink:href="_formatting_8hpp.html" target="_top" xlink:title=" ">
<polygon fill="white" stroke="black" points="963,-392.5 963,-411.5 1171,-411.5 1171,-392.5 963,-392.5"/>
<text text-anchor="middle" x="1067" y="-399.5" font-family="Helvetica,sans-Serif" font-size="10.00">Liger&#45;Engine/Core/Math/Formatting.hpp</text>
</a>
</g>
</g>
<!-- Node5&#45;&gt;Node6 -->
<g id="edge5" class="edge">
<title>Node5&#45;&gt;Node6</title>
<path fill="none" stroke="midnightblue" d="M1159.33,-448.32C1141.61,-439.62 1114.1,-426.12 1093.71,-416.11"/>
<polygon fill="midnightblue" stroke="midnightblue" points="1095.15,-412.92 1084.63,-411.65 1092.06,-419.2 1095.15,-412.92"/>
</g>
<!-- Node9 -->
<g id="node9" class="node">
<title>Node9</title>
<g id="a_node9"><a xlink:href="_random_8hpp.html" target="_top" xlink:title=" ">
<polygon fill="white" stroke="black" points="1189.5,-392.5 1189.5,-411.5 1384.5,-411.5 1384.5,-392.5 1189.5,-392.5"/>
<text text-anchor="middle" x="1287" y="-399.5" font-family="Helvetica,sans-Serif" font-size="10.00">Liger&#45;Engine/Core/Math/Random.hpp</text>
</a>
</g>
</g>
<!-- Node5&#45;&gt;Node9 -->
<g id="edge8" class="edge">
<title>Node5&#45;&gt;Node9</title>
<path fill="none" stroke="midnightblue" d="M1194.67,-448.32C1212.39,-439.62 1239.9,-426.12 1260.29,-416.11"/>
<polygon fill="midnightblue" stroke="midnightblue" points="1261.94,-419.2 1269.37,-411.65 1258.85,-412.92 1261.94,-419.2"/>
</g>
<!-- Node11 -->
<g id="node11" class="node">
<title>Node11</title>
<g id="a_node11"><a xlink:href="_transform3_d_8hpp.html" target="_top" xlink:title=" ">
<polygon fill="white" stroke="black" points="1425.5,-392.5 1425.5,-411.5 1642.5,-411.5 1642.5,-392.5 1425.5,-392.5"/>
<text text-anchor="middle" x="1534" y="-399.5" font-family="Helvetica,sans-Serif" font-size="10.00">Liger&#45;Engine/Core/Math/Transform3D.hpp</text>
</a>
</g>
</g>
<!-- Node5&#45;&gt;Node11 -->
<g id="edge11" class="edge">
<title>Node5&#45;&gt;Node11</title>
<path fill="none" stroke="midnightblue" d="M1233.57,-448.44C1297.15,-438.83 1400.27,-423.23 1467.62,-413.04"/>
<polygon fill="midnightblue" stroke="midnightblue" points="1468.33,-416.47 1477.7,-411.52 1467.29,-409.55 1468.33,-416.47"/>
</g>
<!-- Node7 -->
<g id="node7" class="node">
<title>Node7</title>
<g id="a_node7"><a xlink:title=" ">
<polygon fill="white" stroke="#bfbfbf" points="934.5,-112.5 934.5,-131.5 1001.5,-131.5 1001.5,-112.5 934.5,-112.5"/>
<text text-anchor="middle" x="968" y="-119.5" font-family="Helvetica,sans-Serif" font-size="10.00">fmt/core.h</text>
</a>
</g>
</g>
<!-- Node6&#45;&gt;Node7 -->
<g id="edge6" class="edge">
<title>Node6&#45;&gt;Node7</title>
<path fill="none" stroke="midnightblue" d="M1073.54,-392.41C1086.45,-374.56 1114,-331.7 1114,-291 1114,-291 1114,-291 1114,-233 1114,-180.44 1052.91,-149.85 1009.76,-134.8"/>
<polygon fill="midnightblue" stroke="midnightblue" points="1010.63,-131.4 1000.04,-131.56 1008.42,-138.05 1010.63,-131.4"/>
</g>
<!-- Node8 -->
<g id="node8" class="node">
<title>Node8</title>
<g id="a_node8"><a xlink:title=" ">
<polygon fill="white" stroke="#bfbfbf" points="1142,-336.5 1142,-355.5 1220,-355.5 1220,-336.5 1142,-336.5"/>
<text text-anchor="middle" x="1181" y="-343.5" font-family="Helvetica,sans-Serif" font-size="10.00">glm/glm.hpp</text>
</a>
</g>
</g>
<!-- Node6&#45;&gt;Node8 -->
<g id="edge7" class="edge">
<title>Node6&#45;&gt;Node8</title>
<path fill="none" stroke="midnightblue" d="M1085.06,-392.44C1103.57,-383.68 1132.58,-369.94 1153.86,-359.86"/>
<polygon fill="midnightblue" stroke="midnightblue" points="1155.48,-362.96 1163.02,-355.52 1152.49,-356.63 1155.48,-362.96"/>
</g>
<!-- Node9&#45;&gt;Node8 -->
<g id="edge9" class="edge">
<title>Node9&#45;&gt;Node8</title>
<path fill="none" stroke="midnightblue" d="M1269.97,-392.32C1252.97,-383.66 1226.62,-370.24 1207.01,-360.25"/>
<polygon fill="midnightblue" stroke="midnightblue" points="1208.49,-357.08 1197.99,-355.65 1205.31,-363.31 1208.49,-357.08"/>
</g>
<!-- Node10 -->
<g id="node10" class="node">
<title>Node10</title>
<g id="a_node10"><a xlink:title=" ">
<polygon fill="white" stroke="#bfbfbf" points="1238,-336.5 1238,-355.5 1292,-355.5 1292,-336.5 1238,-336.5"/>
<text text-anchor="middle" x="1265" y="-343.5" font-family="Helvetica,sans-Serif" font-size="10.00">random</text>
</a>
</g>
</g>
<!-- Node9&#45;&gt;Node10 -->
<g id="edge10" class="edge">
<title>Node9&#45;&gt;Node10</title>
<path fill="none" stroke="midnightblue" d="M1283.37,-392.08C1280.39,-384.77 1276.07,-374.18 1272.38,-365.1"/>
<polygon fill="midnightblue" stroke="midnightblue" points="1275.58,-363.69 1268.57,-355.75 1269.1,-366.33 1275.58,-363.69"/>
</g>
<!-- Node12 -->
<g id="node12" class="node">
<title>Node12</title>
<g id="a_node12"><a xlink:title=" ">
<polygon fill="white" stroke="#bfbfbf" points="1310.5,-336.5 1310.5,-355.5 1473.5,-355.5 1473.5,-336.5 1310.5,-336.5"/>
<text text-anchor="middle" x="1392" y="-343.5" font-family="Helvetica,sans-Serif" font-size="10.00">glm/gtc/matrix_transform.hpp</text>
</a>
</g>
</g>
<!-- Node11&#45;&gt;Node12 -->
<g id="edge12" class="edge">
<title>Node11&#45;&gt;Node12</title>
<path fill="none" stroke="midnightblue" d="M1511.5,-392.44C1487.92,-383.48 1450.68,-369.31 1424.04,-359.18"/>
<polygon fill="midnightblue" stroke="midnightblue" points="1424.99,-355.8 1414.4,-355.52 1422.5,-362.34 1424.99,-355.8"/>
</g>
<!-- Node13 -->
<g id="node13" class="node">
<title>Node13</title>
<g id="a_node13"><a xlink:title=" ">
<polygon fill="white" stroke="#bfbfbf" points="1492,-336.5 1492,-355.5 1664,-355.5 1664,-336.5 1492,-336.5"/>
<text text-anchor="middle" x="1578" y="-343.5" font-family="Helvetica,sans-Serif" font-size="10.00">glm/gtx/matrix_decompose.hpp</text>
</a>
</g>
</g>
<!-- Node11&#45;&gt;Node13 -->
<g id="edge13" class="edge">
<title>Node11&#45;&gt;Node13</title>
<path fill="none" stroke="midnightblue" d="M1541.27,-392.08C1547.54,-384.38 1556.79,-373.03 1564.43,-363.65"/>
<polygon fill="midnightblue" stroke="midnightblue" points="1567.27,-365.71 1570.87,-355.75 1561.84,-361.29 1567.27,-365.71"/>
</g>
<!-- Node14 -->
<g id="node14" class="node">
<title>Node14</title>
<g id="a_node14"><a xlink:title=" ">
<polygon fill="white" stroke="#bfbfbf" points="1682.5,-336.5 1682.5,-355.5 1813.5,-355.5 1813.5,-336.5 1682.5,-336.5"/>
<text text-anchor="middle" x="1748" y="-343.5" font-family="Helvetica,sans-Serif" font-size="10.00">glm/gtx/quaternion.hpp</text>
</a>
</g>
</g>
<!-- Node11&#45;&gt;Node14 -->
<g id="edge14" class="edge">
<title>Node11&#45;&gt;Node14</title>
<path fill="none" stroke="midnightblue" d="M1567.91,-392.44C1604.85,-383.12 1664.05,-368.18 1704.42,-358"/>
<polygon fill="midnightblue" stroke="midnightblue" points="1705.41,-361.36 1714.25,-355.52 1703.7,-354.57 1705.41,-361.36"/>
</g>
<!-- Node16 -->
<g id="node16" class="node">
<title>Node16</title>
<g id="a_node16"><a xlink:href="_entity_8hpp.html" target="_top" xlink:title=" ">
<polygon fill="white" stroke="black" points="936,-336.5 936,-355.5 1086,-355.5 1086,-336.5 936,-336.5"/>
<text text-anchor="middle" x="1011" y="-343.5" font-family="Helvetica,sans-Serif" font-size="10.00">Liger&#45;Engine/ECS/Entity.hpp</text>
</a>
</g>
</g>
<!-- Node15&#45;&gt;Node16 -->
<g id="edge16" class="edge">
<title>Node15&#45;&gt;Node16</title>
<path fill="none" stroke="midnightblue" d="M804.82,-392.44C847.56,-383.02 916.33,-367.87 962.57,-357.68"/>
<polygon fill="midnightblue" stroke="midnightblue" points="963.35,-361.09 972.36,-355.52 961.84,-354.25 963.35,-361.09"/>
</g>
<!-- Node17 -->
<g id="node17" class="node">
<title>Node17</title>
<g id="a_node17"><a xlink:title=" ">
<polygon fill="white" stroke="#bfbfbf" points="898,-280.5 898,-299.5 1026,-299.5 1026,-280.5 898,-280.5"/>
<text text-anchor="middle" x="962" y="-287.5" font-family="Helvetica,sans-Serif" font-size="10.00">entt/entity/registry.hpp</text>
</a>
</g>
</g>
<!-- Node15&#45;&gt;Node17 -->
<g id="edge19" class="edge">
<title>Node15&#45;&gt;Node17</title>
<path fill="none" stroke="midnightblue" d="M706.2,-392.46C659.28,-383.31 605.9,-365.9 632,-336 648.56,-317.03 795.42,-303.04 887.56,-296.03"/>
<polygon fill="midnightblue" stroke="midnightblue" points="887.97,-299.51 897.68,-295.28 887.44,-292.53 887.97,-299.51"/>
</g>
<!-- Node18 -->
<g id="node18" class="node">
<title>Node18</title>
<g id="a_node18"><a xlink:title=" ">
<polygon fill="white" stroke="#bfbfbf" points="640.5,-336.5 640.5,-355.5 777.5,-355.5 777.5,-336.5 640.5,-336.5"/>
<text text-anchor="middle" x="709" y="-343.5" font-family="Helvetica,sans-Serif" font-size="10.00">entt/entity/organizer.hpp</text>
</a>
</g>
</g>
<!-- Node15&#45;&gt;Node18 -->
<g id="edge18" class="edge">
<title>Node15&#45;&gt;Node18</title>
<path fill="none" stroke="midnightblue" d="M756.84,-392.32C748.5,-384.42 735.97,-372.55 725.82,-362.94"/>
<polygon fill="midnightblue" stroke="midnightblue" points="727.99,-360.17 718.32,-355.83 723.18,-365.25 727.99,-360.17"/>
</g>
<!-- Node19 -->
<g id="node19" class="node">
<title>Node19</title>
<g id="a_node19"><a xlink:title=" ">
<polygon fill="white" stroke="#bfbfbf" points="796,-336.5 796,-355.5 918,-355.5 918,-336.5 796,-336.5"/>
<text text-anchor="middle" x="857" y="-343.5" font-family="Helvetica,sans-Serif" font-size="10.00">taskflow/taskflow.hpp</text>
</a>
</g>
</g>
<!-- Node15&#45;&gt;Node19 -->
<g id="edge20" class="edge">
<title>Node15&#45;&gt;Node19</title>
<path fill="none" stroke="midnightblue" d="M780.62,-392.32C794.95,-383.82 817.01,-370.73 833.75,-360.8"/>
<polygon fill="midnightblue" stroke="midnightblue" points="835.6,-363.77 842.42,-355.65 832.03,-357.75 835.6,-363.77"/>
</g>
<!-- Node16&#45;&gt;Node17 -->
<g id="edge17" class="edge">
<title>Node16&#45;&gt;Node17</title>
<path fill="none" stroke="midnightblue" d="M1002.91,-336.08C995.84,-328.3 985.41,-316.8 976.85,-307.37"/>
<polygon fill="midnightblue" stroke="midnightblue" points="979.25,-304.8 969.94,-299.75 974.07,-309.51 979.25,-304.8"/>
</g>
<!-- Node20&#45;&gt;Node15 -->
<g id="edge40" class="edge">
<title>Node20&#45;&gt;Node15</title>
<path fill="none" stroke="midnightblue" d="M766,-448.08C766,-441.01 766,-430.86 766,-421.99"/>
<polygon fill="midnightblue" stroke="midnightblue" points="769.5,-421.75 766,-411.75 762.5,-421.75 769.5,-421.75"/>
</g>
<!-- Node21 -->
<g id="node21" class="node">
<title>Node21</title>
<g id="a_node21"><a xlink:href="_event_dispatcher_8hpp.html" target="_top" xlink:title=" ">
<polygon fill="white" stroke="black" points="278.5,-392.5 278.5,-411.5 515.5,-411.5 515.5,-392.5 278.5,-392.5"/>
<text text-anchor="middle" x="397" y="-399.5" font-family="Helvetica,sans-Serif" font-size="10.00">Liger&#45;Engine/Core/Event/EventDispatcher.hpp</text>
</a>
</g>
</g>
<!-- Node20&#45;&gt;Node21 -->
<g id="edge22" class="edge">
<title>Node20&#45;&gt;Node21</title>
<path fill="none" stroke="midnightblue" d="M707.53,-448.44C641.68,-438.81 534.78,-423.16 465.18,-412.98"/>
<polygon fill="midnightblue" stroke="midnightblue" points="465.6,-409.5 455.2,-411.52 464.58,-416.43 465.6,-409.5"/>
</g>
<!-- Node22 -->
<g id="node22" class="node">
<title>Node22</title>
<g id="a_node22"><a xlink:href="_event_type_8hpp.html" target="_top" xlink:title=" ">
<polygon fill="white" stroke="black" points="158,-168.5 158,-187.5 398,-187.5 398,-168.5 158,-168.5"/>
<text text-anchor="middle" x="278" y="-175.5" font-family="Helvetica,sans-Serif" font-size="10.00">Liger&#45;Engine/Core/Event/Detail/EventType.hpp</text>
</a>
</g>
</g>
<!-- Node21&#45;&gt;Node22 -->
<g id="edge23" class="edge">
<title>Node21&#45;&gt;Node22</title>
<path fill="none" stroke="midnightblue" d="M314.55,-392.41C292.33,-385.89 270.69,-374.77 257,-356 221.81,-307.73 251.63,-231.62 268.43,-197.1"/>
<polygon fill="midnightblue" stroke="midnightblue" points="271.74,-198.3 273.14,-187.8 265.5,-195.14 271.74,-198.3"/>
</g>
<!-- Node24 -->
<g id="node24" class="node">
<title>Node24</title>
<g id="a_node24"><a xlink:href="_event_sink_8hpp.html" target="_top" xlink:title=" ">
<polygon fill="white" stroke="black" points="378,-336.5 378,-355.5 584,-355.5 584,-336.5 378,-336.5"/>
<text text-anchor="middle" x="481" y="-343.5" font-family="Helvetica,sans-Serif" font-size="10.00">Liger&#45;Engine/Core/Event/EventSink.hpp</text>
</a>
</g>
</g>
<!-- Node21&#45;&gt;Node24 -->
<g id="edge25" class="edge">
<title>Node21&#45;&gt;Node24</title>
<path fill="none" stroke="midnightblue" d="M410.5,-392.32C423.6,-383.9 443.71,-370.97 459.11,-361.07"/>
<polygon fill="midnightblue" stroke="midnightblue" points="461.02,-364.01 467.54,-355.65 457.23,-358.12 461.02,-364.01"/>
</g>
<!-- Node33 -->
<g id="node33" class="node">
<title>Node33</title>
<g id="a_node33"><a xlink:title=" ">
<polygon fill="white" stroke="#bfbfbf" points="266.5,-336.5 266.5,-355.5 359.5,-355.5 359.5,-336.5 266.5,-336.5"/>
<text text-anchor="middle" x="313" y="-343.5" font-family="Helvetica,sans-Serif" font-size="10.00">unordered_map</text>
</a>
</g>
</g>
<!-- Node21&#45;&gt;Node33 -->
<g id="edge39" class="edge">
<title>Node21&#45;&gt;Node33</title>
<path fill="none" stroke="midnightblue" d="M383.5,-392.32C370.4,-383.9 350.29,-370.97 334.89,-361.07"/>
<polygon fill="midnightblue" stroke="midnightblue" points="336.77,-358.12 326.46,-355.65 332.98,-364.01 336.77,-358.12"/>
</g>
<!-- Node23 -->
<g id="node23" class="node">
<title>Node23</title>
<g id="a_node23"><a xlink:title=" ">
<polygon fill="white" stroke="#bfbfbf" points="364,-0.5 364,-19.5 414,-19.5 414,-0.5 364,-0.5"/>
<text text-anchor="middle" x="389" y="-7.5" font-family="Helvetica,sans-Serif" font-size="10.00">cstdint</text>
</a>
</g>
</g>
<!-- Node22&#45;&gt;Node23 -->
<g id="edge24" class="edge">
<title>Node22&#45;&gt;Node23</title>
<path fill="none" stroke="midnightblue" d="M280.93,-168.45C288.28,-147.73 309.04,-93.78 338,-56 346.76,-44.58 358.73,-33.83 368.88,-25.71"/>
<polygon fill="midnightblue" stroke="midnightblue" points="371.09,-28.43 376.86,-19.54 366.81,-22.89 371.09,-28.43"/>
</g>
<!-- Node25 -->
<g id="node25" class="node">
<title>Node25</title>
<g id="a_node25"><a xlink:href="_base_event_sink_8hpp.html" target="_top" xlink:title=" ">
<polygon fill="white" stroke="black" points="566.5,-280.5 566.5,-299.5 829.5,-299.5 829.5,-280.5 566.5,-280.5"/>
<text text-anchor="middle" x="698" y="-287.5" font-family="Helvetica,sans-Serif" font-size="10.00">Liger&#45;Engine/Core/Event/Detail/BaseEventSink.hpp</text>
</a>
</g>
</g>
<!-- Node24&#45;&gt;Node25 -->
<g id="edge26" class="edge">
<title>Node24&#45;&gt;Node25</title>
<path fill="none" stroke="midnightblue" d="M515.38,-336.44C552.92,-327.1 613.13,-312.12 654.07,-301.93"/>
<polygon fill="midnightblue" stroke="midnightblue" points="654.92,-305.33 663.78,-299.52 653.23,-298.53 654.92,-305.33"/>
</g>
<!-- Node26 -->
<g id="node26" class="node">
<title>Node26</title>
<g id="a_node26"><a xlink:href="_callback_8hpp.html" target="_top" xlink:title=" ">
<polygon fill="white" stroke="black" points="316,-280.5 316,-299.5 548,-299.5 548,-280.5 316,-280.5"/>
<text text-anchor="middle" x="432" y="-287.5" font-family="Helvetica,sans-Serif" font-size="10.00">Liger&#45;Engine/Core/Event/Detail/Callback.hpp</text>
</a>
</g>
</g>
<!-- Node24&#45;&gt;Node26 -->
<g id="edge27" class="edge">
<title>Node24&#45;&gt;Node26</title>
<path fill="none" stroke="midnightblue" d="M472.91,-336.08C465.84,-328.3 455.41,-316.8 446.85,-307.37"/>
<polygon fill="midnightblue" stroke="midnightblue" points="449.25,-304.8 439.94,-299.75 444.07,-309.51 449.25,-304.8"/>
</g>
<!-- Node27 -->
<g id="node27" class="node">
<title>Node27</title>
<g id="a_node27"><a xlink:href="_log_8hpp.html" target="_top" xlink:title=" ">
<polygon fill="white" stroke="black" points="426,-168.5 426,-187.5 590,-187.5 590,-168.5 426,-168.5"/>
<text text-anchor="middle" x="508" y="-175.5" font-family="Helvetica,sans-Serif" font-size="10.00">Liger&#45;Engine/Core/Log/Log.hpp</text>
</a>
</g>
</g>
<!-- Node26&#45;&gt;Node27 -->
<g id="edge28" class="edge">
<title>Node26&#45;&gt;Node27</title>
<path fill="none" stroke="midnightblue" d="M425.06,-280.39C415.44,-267.34 400.47,-242.13 412,-224 422.16,-208.01 439.68,-197.6 456.98,-190.87"/>
<polygon fill="midnightblue" stroke="midnightblue" points="458.27,-194.13 466.53,-187.5 455.93,-187.53 458.27,-194.13"/>
</g>
<!-- Node32 -->
<g id="node32" class="node">
<title>Node32</title>
<g id="a_node32"><a xlink:href="_core_2_log_channel_8hpp.html" target="_top" xlink:title=" ">
<polygon fill="white" stroke="black" points="421,-224.5 421,-243.5 605,-243.5 605,-224.5 421,-224.5"/>
<text text-anchor="middle" x="513" y="-231.5" font-family="Helvetica,sans-Serif" font-size="10.00">Liger&#45;Engine/Core/LogChannel.hpp</text>
</a>
</g>
</g>
<!-- Node26&#45;&gt;Node32 -->
<g id="edge37" class="edge">
<title>Node26&#45;&gt;Node32</title>
<path fill="none" stroke="midnightblue" d="M445.01,-280.32C457.53,-271.98 476.68,-259.21 491.47,-249.35"/>
<polygon fill="midnightblue" stroke="midnightblue" points="493.64,-252.11 500.02,-243.65 489.76,-246.29 493.64,-252.11"/>
</g>
<!-- Node27&#45;&gt;Node7 -->
<g id="edge35" class="edge">
<title>Node27&#45;&gt;Node7</title>
<path fill="none" stroke="midnightblue" d="M580.63,-168.47C677.31,-157.12 845.25,-137.41 924.38,-128.12"/>
<polygon fill="midnightblue" stroke="midnightblue" points="924.96,-131.58 934.48,-126.93 924.14,-124.62 924.96,-131.58"/>
</g>
<!-- Node28 -->
<g id="node28" class="node">
<title>Node28</title>
<g id="a_node28"><a xlink:href="_message_8hpp.html" target="_top" xlink:title=" ">
<polygon fill="white" stroke="black" points="347.5,-56.5 347.5,-75.5 538.5,-75.5 538.5,-56.5 347.5,-56.5"/>
<text text-anchor="middle" x="443" y="-63.5" font-family="Helvetica,sans-Serif" font-size="10.00">Liger&#45;Engine/Core/Log/Message.hpp</text>
</a>
</g>
</g>
<!-- Node27&#45;&gt;Node28 -->
<g id="edge29" class="edge">
<title>Node27&#45;&gt;Node28</title>
<path fill="none" stroke="midnightblue" d="M496.44,-168.2C486.28,-159.9 471.78,-146.58 463,-132 454.34,-117.62 449.13,-99.16 446.21,-85.59"/>
<polygon fill="midnightblue" stroke="midnightblue" points="449.6,-84.69 444.27,-75.54 442.73,-86.02 449.6,-84.69"/>
</g>
<!-- Node30 -->
<g id="node30" class="node">
<title>Node30</title>
<g id="a_node30"><a xlink:href="_writer_8hpp.html" target="_top" xlink:title=" ">
<polygon fill="white" stroke="black" points="537,-112.5 537,-131.5 713,-131.5 713,-112.5 537,-112.5"/>
<text text-anchor="middle" x="625" y="-119.5" font-family="Helvetica,sans-Serif" font-size="10.00">Liger&#45;Engine/Core/Log/Writer.hpp</text>
</a>
</g>
</g>
<!-- Node27&#45;&gt;Node30 -->
<g id="edge33" class="edge">
<title>Node27&#45;&gt;Node30</title>
<path fill="none" stroke="midnightblue" d="M526.54,-168.44C545.62,-159.64 575.57,-145.81 597.44,-135.72"/>
<polygon fill="midnightblue" stroke="midnightblue" points="598.93,-138.88 606.55,-131.52 596,-132.53 598.93,-138.88"/>
</g>
<!-- Node31 -->
<g id="node31" class="node">
<title>Node31</title>
<g id="a_node31"><a xlink:title=" ">
<polygon fill="white" stroke="#bfbfbf" points="471.5,-112.5 471.5,-131.5 518.5,-131.5 518.5,-112.5 471.5,-112.5"/>
<text text-anchor="middle" x="495" y="-119.5" font-family="Helvetica,sans-Serif" font-size="10.00">vector</text>
</a>
</g>
</g>
<!-- Node27&#45;&gt;Node31 -->
<g id="edge36" class="edge">
<title>Node27&#45;&gt;Node31</title>
<path fill="none" stroke="midnightblue" d="M505.85,-168.08C504.13,-160.93 501.65,-150.64 499.5,-141.69"/>
<polygon fill="midnightblue" stroke="midnightblue" points="502.85,-140.65 497.11,-131.75 496.04,-142.29 502.85,-140.65"/>
</g>
<!-- Node28&#45;&gt;Node3 -->
<g id="edge32" class="edge">
<title>Node28&#45;&gt;Node3</title>
<path fill="none" stroke="midnightblue" d="M405.92,-56.44C365.15,-47.04 299.58,-31.9 255.43,-21.71"/>
<polygon fill="midnightblue" stroke="midnightblue" points="256.05,-18.27 245.52,-19.43 254.48,-25.09 256.05,-18.27"/>
</g>
<!-- Node28&#45;&gt;Node23 -->
<g id="edge30" class="edge">
<title>Node28&#45;&gt;Node23</title>
<path fill="none" stroke="midnightblue" d="M434.08,-56.08C426.22,-48.22 414.57,-36.57 405.08,-27.08"/>
<polygon fill="midnightblue" stroke="midnightblue" points="407.3,-24.35 397.75,-19.75 402.35,-29.3 407.3,-24.35"/>
</g>
<!-- Node28&#45;&gt;Node29 -->
<g id="edge31" class="edge">
<title>Node28&#45;&gt;Node29</title>
<path fill="none" stroke="midnightblue" d="M451.92,-56.08C459.78,-48.22 471.43,-36.57 480.92,-27.08"/>
<polygon fill="midnightblue" stroke="midnightblue" points="483.65,-29.3 488.25,-19.75 478.7,-24.35 483.65,-29.3"/>
</g>
<!-- Node30&#45;&gt;Node28 -->
<g id="edge34" class="edge">
<title>Node30&#45;&gt;Node28</title>
<path fill="none" stroke="midnightblue" d="M596.16,-112.44C565.14,-103.24 515.67,-88.56 481.38,-78.39"/>
<polygon fill="midnightblue" stroke="midnightblue" points="482.29,-75.01 471.7,-75.52 480.29,-81.72 482.29,-75.01"/>
</g>
<!-- Node32&#45;&gt;Node27 -->
<g id="edge38" class="edge">
<title>Node32&#45;&gt;Node27</title>
<path fill="none" stroke="midnightblue" d="M512.17,-224.08C511.52,-217.01 510.58,-206.86 509.76,-197.99"/>
<polygon fill="midnightblue" stroke="midnightblue" points="513.22,-197.39 508.81,-187.75 506.25,-198.03 513.22,-197.39"/>
</g>
<!-- Node34&#45;&gt;Node15 -->
<g id="edge43" class="edge">
<title>Node34&#45;&gt;Node15</title>
<path fill="none" stroke="midnightblue" d="M661.73,-504.44C663.28,-491 668.01,-464.75 682,-448 694.32,-433.24 712.76,-422.61 729.23,-415.4"/>
<polygon fill="midnightblue" stroke="midnightblue" points="730.71,-418.58 738.64,-411.55 728.06,-412.1 730.71,-418.58"/>
</g>
</g>
</svg>
