<?xml version="1.0" encoding="UTF-8" standalone="no"?>
<!DOCTYPE svg PUBLIC "-//W3C//DTD SVG 1.1//EN"
 "http://www.w3.org/Graphics/SVG/1.1/DTD/svg11.dtd">
<!-- Generated by graphviz version 2.43.0 (0)
 -->
<!-- Title: ClusteredLightData.hpp Pages: 1 -->
<svg width="2925pt" height="420pt"
 viewBox="0.00 0.00 2924.50 420.00" xmlns="http://www.w3.org/2000/svg" xmlns:xlink="http://www.w3.org/1999/xlink">
<g id="graph0" class="graph" transform="scale(1 1) rotate(0) translate(4 416)">
<title>ClusteredLightData.hpp</title>
<polygon fill="white" stroke="transparent" points="-4,4 -4,-416 2920.5,-416 2920.5,4 -4,4"/>
<!-- Node1 -->
<g id="node1" class="node">
<title>Node1</title>
<g id="a_node1"><a xlink:title=" ">
<polygon fill="#bfbfbf" stroke="black" points="1508.5,-392.5 1508.5,-411.5 1639.5,-411.5 1639.5,-392.5 1508.5,-392.5"/>
<text text-anchor="middle" x="1574" y="-399.5" font-family="Helvetica,sans-Serif" font-size="10.00">ClusteredLightData.hpp</text>
</a>
</g>
</g>
<!-- Node2 -->
<g id="node2" class="node">
<title>Node2</title>
<g id="a_node2"><a xlink:href="_descriptor_binding_8hpp.html" target="_top" xlink:title=" ">
<polygon fill="white" stroke="black" points="2431.5,-112.5 2431.5,-131.5 2640.5,-131.5 2640.5,-112.5 2431.5,-112.5"/>
<text text-anchor="middle" x="2536" y="-119.5" font-family="Helvetica,sans-Serif" font-size="10.00">Liger&#45;Engine/RHI/DescriptorBinding.hpp</text>
</a>
</g>
</g>
<!-- Node1&#45;&gt;Node2 -->
<g id="edge1" class="edge">
<title>Node1&#45;&gt;Node2</title>
<path fill="none" stroke="midnightblue" d="M1639.62,-400.12C1851.25,-396.41 2502,-377.95 2502,-291 2502,-291 2502,-291 2502,-233 2502,-199.16 2516.87,-161.97 2526.94,-140.66"/>
<polygon fill="midnightblue" stroke="midnightblue" points="2530.14,-142.08 2531.41,-131.56 2523.86,-138.99 2530.14,-142.08"/>
</g>
<!-- Node4 -->
<g id="node4" class="node">
<title>Node4</title>
<g id="a_node4"><a xlink:href="_render_graph_8hpp.html" target="_top" xlink:title=" ">
<polygon fill="white" stroke="black" points="1481.5,-336.5 1481.5,-355.5 1666.5,-355.5 1666.5,-336.5 1481.5,-336.5"/>
<text text-anchor="middle" x="1574" y="-343.5" font-family="Helvetica,sans-Serif" font-size="10.00">Liger&#45;Engine/RHI/RenderGraph.hpp</text>
</a>
</g>
</g>
<!-- Node1&#45;&gt;Node4 -->
<g id="edge3" class="edge">
<title>Node1&#45;&gt;Node4</title>
<path fill="none" stroke="midnightblue" d="M1574,-392.08C1574,-385.01 1574,-374.86 1574,-365.99"/>
<polygon fill="midnightblue" stroke="midnightblue" points="1577.5,-365.75 1574,-355.75 1570.5,-365.75 1577.5,-365.75"/>
</g>
<!-- Node39 -->
<g id="node39" class="node">
<title>Node39</title>
<g id="a_node39"><a xlink:href="_shader_alignment_8hpp.html" target="_top" xlink:title=" ">
<polygon fill="white" stroke="black" points="704,-280.5 704,-299.5 910,-299.5 910,-280.5 704,-280.5"/>
<text text-anchor="middle" x="807" y="-287.5" font-family="Helvetica,sans-Serif" font-size="10.00">Liger&#45;Engine/RHI/ShaderAlignment.hpp</text>
</a>
</g>
</g>
<!-- Node1&#45;&gt;Node39 -->
<g id="edge58" class="edge">
<title>Node1&#45;&gt;Node39</title>
<path fill="none" stroke="midnightblue" d="M1514.45,-392.46C1374.59,-372.4 1025.69,-322.36 876.47,-300.96"/>
<polygon fill="midnightblue" stroke="midnightblue" points="876.9,-297.49 866.51,-299.53 875.91,-304.42 876.9,-297.49"/>
</g>
<!-- Node3 -->
<g id="node3" class="node">
<title>Node3</title>
<g id="a_node3"><a xlink:title=" ">
<polygon fill="white" stroke="#bfbfbf" points="1818,-0.5 1818,-19.5 1868,-19.5 1868,-0.5 1818,-0.5"/>
<text text-anchor="middle" x="1843" y="-7.5" font-family="Helvetica,sans-Serif" font-size="10.00">cstdint</text>
</a>
</g>
</g>
<!-- Node2&#45;&gt;Node3 -->
<g id="edge2" class="edge">
<title>Node2&#45;&gt;Node3</title>
<path fill="none" stroke="midnightblue" d="M2482.2,-112.46C2346.18,-90.87 1991.36,-34.55 1878.21,-16.59"/>
<polygon fill="midnightblue" stroke="midnightblue" points="1878.46,-13.08 1868.03,-14.97 1877.36,-20 1878.46,-13.08"/>
</g>
<!-- Node5 -->
<g id="node5" class="node">
<title>Node5</title>
<g id="a_node5"><a xlink:href="_dependency_graph_8hpp.html" target="_top" xlink:title=" ">
<polygon fill="white" stroke="black" points="1300,-280.5 1300,-299.5 1572,-299.5 1572,-280.5 1300,-280.5"/>
<text text-anchor="middle" x="1436" y="-287.5" font-family="Helvetica,sans-Serif" font-size="10.00">Liger&#45;Engine/Core/Containers/DependencyGraph.hpp</text>
</a>
</g>
</g>
<!-- Node4&#45;&gt;Node5 -->
<g id="edge4" class="edge">
<title>Node4&#45;&gt;Node5</title>
<path fill="none" stroke="midnightblue" d="M1552.13,-336.44C1529.22,-327.48 1493.02,-313.31 1467.13,-303.18"/>
<polygon fill="midnightblue" stroke="midnightblue" points="1468.35,-299.9 1457.76,-299.52 1465.8,-306.42 1468.35,-299.9"/>
</g>
<!-- Node8 -->
<g id="node8" class="node">
<title>Node8</title>
<g id="a_node8"><a xlink:href="_buffer_8hpp.html" target="_top" xlink:title=" ">
<polygon fill="white" stroke="black" points="2258,-168.5 2258,-187.5 2408,-187.5 2408,-168.5 2258,-168.5"/>
<text text-anchor="middle" x="2333" y="-175.5" font-family="Helvetica,sans-Serif" font-size="10.00">Liger&#45;Engine/RHI/Buffer.hpp</text>
</a>
</g>
</g>
<!-- Node4&#45;&gt;Node8 -->
<g id="edge8" class="edge">
<title>Node4&#45;&gt;Node8</title>
<path fill="none" stroke="midnightblue" d="M1666.56,-344.03C1809.31,-341.52 2076.01,-332.49 2165,-300 2228.61,-276.77 2289.59,-222.2 2317.35,-195"/>
<polygon fill="midnightblue" stroke="midnightblue" points="2319.96,-197.34 2324.57,-187.8 2315.02,-192.38 2319.96,-197.34"/>
</g>
<!-- Node14 -->
<g id="node14" class="node">
<title>Node14</title>
<g id="a_node14"><a xlink:href="_command_buffer_8hpp.html" target="_top" xlink:title=" ">
<polygon fill="white" stroke="black" points="1545,-168.5 1545,-187.5 1745,-187.5 1745,-168.5 1545,-168.5"/>
<text text-anchor="middle" x="1645" y="-175.5" font-family="Helvetica,sans-Serif" font-size="10.00">Liger&#45;Engine/RHI/CommandBuffer.hpp</text>
</a>
</g>
</g>
<!-- Node4&#45;&gt;Node14 -->
<g id="edge15" class="edge">
<title>Node4&#45;&gt;Node14</title>
<path fill="none" stroke="midnightblue" d="M1666.56,-342.86C1739.47,-338.99 1832.74,-328.43 1857,-300 1868.56,-286.46 1872.19,-248.32 1850,-224 1834.59,-207.1 1784.99,-195.96 1738.45,-188.98"/>
<polygon fill="midnightblue" stroke="midnightblue" points="1738.66,-185.48 1728.26,-187.52 1737.66,-192.41 1738.66,-185.48"/>
</g>
<!-- Node21 -->
<g id="node21" class="node">
<title>Node21</title>
<g id="a_node21"><a xlink:href="_context_8hpp.html" target="_top" xlink:title=" ">
<polygon fill="white" stroke="black" points="1008,-280.5 1008,-299.5 1168,-299.5 1168,-280.5 1008,-280.5"/>
<text text-anchor="middle" x="1088" y="-287.5" font-family="Helvetica,sans-Serif" font-size="10.00">Liger&#45;Engine/RHI/Context.hpp</text>
</a>
</g>
</g>
<!-- Node4&#45;&gt;Node21 -->
<g id="edge26" class="edge">
<title>Node4&#45;&gt;Node21</title>
<path fill="none" stroke="midnightblue" d="M1497.26,-336.47C1409.6,-326.73 1266.49,-310.83 1174.82,-300.65"/>
<polygon fill="midnightblue" stroke="midnightblue" points="1175.06,-297.15 1164.74,-299.53 1174.29,-304.11 1175.06,-297.15"/>
</g>
<!-- Node25 -->
<g id="node25" class="node">
<title>Node25</title>
<g id="a_node25"><a xlink:title=" ">
<polygon fill="white" stroke="#bfbfbf" points="962.5,-0.5 962.5,-19.5 1035.5,-19.5 1035.5,-0.5 962.5,-0.5"/>
<text text-anchor="middle" x="999" y="-7.5" font-family="Helvetica,sans-Serif" font-size="10.00">string_view</text>
</a>
</g>
</g>
<!-- Node4&#45;&gt;Node25 -->
<g id="edge56" class="edge">
<title>Node4&#45;&gt;Node25</title>
<path fill="none" stroke="midnightblue" d="M1481.46,-342.72C1342.38,-338.46 1086.45,-327.13 999,-300 927.85,-277.92 883,-253.5 883,-179 883,-179 883,-179 883,-121 883,-73.81 934.16,-40.79 968.53,-23.92"/>
<polygon fill="midnightblue" stroke="midnightblue" points="970.17,-27.02 977.72,-19.6 967.19,-20.69 970.17,-27.02"/>
</g>
<!-- Node30 -->
<g id="node30" class="node">
<title>Node30</title>
<g id="a_node30"><a xlink:title=" ">
<polygon fill="white" stroke="#bfbfbf" points="1244.5,-224.5 1244.5,-243.5 1337.5,-243.5 1337.5,-224.5 1244.5,-224.5"/>
<text text-anchor="middle" x="1291" y="-231.5" font-family="Helvetica,sans-Serif" font-size="10.00">unordered_map</text>
</a>
</g>
</g>
<!-- Node4&#45;&gt;Node30 -->
<g id="edge57" class="edge">
<title>Node4&#45;&gt;Node30</title>
<path fill="none" stroke="midnightblue" d="M1481.44,-342.86C1408.53,-338.99 1315.26,-328.43 1291,-300 1280.26,-287.41 1281.82,-267.92 1285.12,-253.56"/>
<polygon fill="midnightblue" stroke="midnightblue" points="1288.53,-254.35 1287.8,-243.78 1281.78,-252.5 1288.53,-254.35"/>
</g>
<!-- Node31 -->
<g id="node31" class="node">
<title>Node31</title>
<g id="a_node31"><a xlink:href="_dependent_texture_info_8hpp.html" target="_top" xlink:title=" ">
<polygon fill="white" stroke="black" points="1926,-280.5 1926,-299.5 2156,-299.5 2156,-280.5 1926,-280.5"/>
<text text-anchor="middle" x="2041" y="-287.5" font-family="Helvetica,sans-Serif" font-size="10.00">Liger&#45;Engine/RHI/DependentTextureInfo.hpp</text>
</a>
</g>
</g>
<!-- Node4&#45;&gt;Node31 -->
<g id="edge40" class="edge">
<title>Node4&#45;&gt;Node31</title>
<path fill="none" stroke="midnightblue" d="M1647.74,-336.47C1731.89,-326.74 1869.21,-310.86 1957.3,-300.68"/>
<polygon fill="midnightblue" stroke="midnightblue" points="1957.73,-304.15 1967.26,-299.53 1956.93,-297.2 1957.73,-304.15"/>
</g>
<!-- Node35 -->
<g id="node35" class="node">
<title>Node35</title>
<g id="a_node35"><a xlink:href="_resource_version_registry_8hpp.html" target="_top" xlink:title=" ">
<polygon fill="white" stroke="black" points="1590,-280.5 1590,-299.5 1832,-299.5 1832,-280.5 1590,-280.5"/>
<text text-anchor="middle" x="1711" y="-287.5" font-family="Helvetica,sans-Serif" font-size="10.00">Liger&#45;Engine/RHI/ResourceVersionRegistry.hpp</text>
</a>
</g>
</g>
<!-- Node4&#45;&gt;Node35 -->
<g id="edge50" class="edge">
<title>Node4&#45;&gt;Node35</title>
<path fill="none" stroke="midnightblue" d="M1595.71,-336.44C1618.35,-327.52 1654.07,-313.44 1679.75,-303.32"/>
<polygon fill="midnightblue" stroke="midnightblue" points="1681.37,-306.44 1689.39,-299.52 1678.81,-299.93 1681.37,-306.44"/>
</g>
<!-- Node36 -->
<g id="node36" class="node">
<title>Node36</title>
<g id="a_node36"><a xlink:title=" ">
<polygon fill="white" stroke="#bfbfbf" points="1785,-224.5 1785,-243.5 1841,-243.5 1841,-224.5 1785,-224.5"/>
<text text-anchor="middle" x="1813" y="-231.5" font-family="Helvetica,sans-Serif" font-size="10.00">optional</text>
</a>
</g>
</g>
<!-- Node4&#45;&gt;Node36 -->
<g id="edge55" class="edge">
<title>Node4&#45;&gt;Node36</title>
<path fill="none" stroke="midnightblue" d="M1666.56,-341.78C1734.54,-337.23 1818.77,-326.29 1841,-300 1853.07,-285.73 1840.9,-265.46 1829.05,-251.37"/>
<polygon fill="midnightblue" stroke="midnightblue" points="1831.58,-248.95 1822.29,-243.87 1826.39,-253.64 1831.58,-248.95"/>
</g>
<!-- Node38 -->
<g id="node38" class="node">
<title>Node38</title>
<g id="a_node38"><a xlink:title=" ">
<polygon fill="white" stroke="#bfbfbf" points="1186,-280.5 1186,-299.5 1244,-299.5 1244,-280.5 1186,-280.5"/>
<text text-anchor="middle" x="1215" y="-287.5" font-family="Helvetica,sans-Serif" font-size="10.00">memory</text>
</a>
</g>
</g>
<!-- Node4&#45;&gt;Node38 -->
<g id="edge54" class="edge">
<title>Node4&#45;&gt;Node38</title>
<path fill="none" stroke="midnightblue" d="M1505.06,-336.49C1440.91,-328.27 1342.73,-314.88 1258,-300 1256.73,-299.78 1255.44,-299.54 1254.15,-299.3"/>
<polygon fill="midnightblue" stroke="midnightblue" points="1254.58,-295.82 1244.09,-297.36 1253.25,-302.7 1254.58,-295.82"/>
</g>
<!-- Node5&#45;&gt;Node3 -->
<g id="edge6" class="edge">
<title>Node5&#45;&gt;Node3</title>
<path fill="none" stroke="midnightblue" d="M1435.46,-280.07C1434.23,-266.6 1430.19,-240.85 1417,-224 1363.96,-156.21 1203.56,-177.85 1259,-112 1330.09,-27.56 1692.22,-13.71 1807.62,-11.44"/>
<polygon fill="midnightblue" stroke="midnightblue" points="1807.76,-14.94 1817.69,-11.26 1807.63,-7.94 1807.76,-14.94"/>
</g>
<!-- Node6 -->
<g id="node6" class="node">
<title>Node6</title>
<g id="a_node6"><a xlink:title=" ">
<polygon fill="white" stroke="#bfbfbf" points="1356,-224.5 1356,-243.5 1408,-243.5 1408,-224.5 1356,-224.5"/>
<text text-anchor="middle" x="1382" y="-231.5" font-family="Helvetica,sans-Serif" font-size="10.00">cassert</text>
</a>
</g>
</g>
<!-- Node5&#45;&gt;Node6 -->
<g id="edge5" class="edge">
<title>Node5&#45;&gt;Node6</title>
<path fill="none" stroke="midnightblue" d="M1427.08,-280.08C1419.22,-272.22 1407.57,-260.57 1398.08,-251.08"/>
<polygon fill="midnightblue" stroke="midnightblue" points="1400.3,-248.35 1390.75,-243.75 1395.35,-253.3 1400.3,-248.35"/>
</g>
<!-- Node7 -->
<g id="node7" class="node">
<title>Node7</title>
<g id="a_node7"><a xlink:title=" ">
<polygon fill="white" stroke="#bfbfbf" points="1267.5,-112.5 1267.5,-131.5 1314.5,-131.5 1314.5,-112.5 1267.5,-112.5"/>
<text text-anchor="middle" x="1291" y="-119.5" font-family="Helvetica,sans-Serif" font-size="10.00">vector</text>
</a>
</g>
</g>
<!-- Node5&#45;&gt;Node7 -->
<g id="edge7" class="edge">
<title>Node5&#45;&gt;Node7</title>
<path fill="none" stroke="midnightblue" d="M1441.37,-280.46C1448.77,-267.5 1460.12,-242.41 1450,-224 1423.4,-175.59 1362.68,-147.09 1324.45,-133.31"/>
<polygon fill="midnightblue" stroke="midnightblue" points="1325.38,-129.92 1314.78,-129.96 1323.09,-136.54 1325.38,-129.92"/>
</g>
<!-- Node8&#45;&gt;Node2 -->
<g id="edge9" class="edge">
<title>Node8&#45;&gt;Node2</title>
<path fill="none" stroke="midnightblue" d="M2365.17,-168.44C2400.06,-159.16 2455.89,-144.31 2494.17,-134.13"/>
<polygon fill="midnightblue" stroke="midnightblue" points="2495.22,-137.47 2503.98,-131.52 2493.42,-130.7 2495.22,-137.47"/>
</g>
<!-- Node9 -->
<g id="node9" class="node">
<title>Node9</title>
<g id="a_node9"><a xlink:href="_device_resource_state_8hpp.html" target="_top" xlink:title=" ">
<polygon fill="white" stroke="black" points="2187,-112.5 2187,-131.5 2413,-131.5 2413,-112.5 2187,-112.5"/>
<text text-anchor="middle" x="2300" y="-119.5" font-family="Helvetica,sans-Serif" font-size="10.00">Liger&#45;Engine/RHI/DeviceResourceState.hpp</text>
</a>
</g>
</g>
<!-- Node8&#45;&gt;Node9 -->
<g id="edge10" class="edge">
<title>Node8&#45;&gt;Node9</title>
<path fill="none" stroke="midnightblue" d="M2327.55,-168.08C2322.99,-160.61 2316.33,-149.72 2310.71,-140.52"/>
<polygon fill="midnightblue" stroke="midnightblue" points="2313.55,-138.46 2305.35,-131.75 2307.58,-142.11 2313.55,-138.46"/>
</g>
<!-- Node13 -->
<g id="node13" class="node">
<title>Node13</title>
<g id="a_node13"><a xlink:title=" ">
<polygon fill="white" stroke="#bfbfbf" points="2099,-0.5 2099,-19.5 2143,-19.5 2143,-0.5 2099,-0.5"/>
<text text-anchor="middle" x="2121" y="-7.5" font-family="Helvetica,sans-Serif" font-size="10.00">string</text>
</a>
</g>
</g>
<!-- Node8&#45;&gt;Node13 -->
<g id="edge14" class="edge">
<title>Node8&#45;&gt;Node13</title>
<path fill="none" stroke="midnightblue" d="M2408.03,-177.22C2491.68,-175.67 2619.3,-167.37 2650,-132 2655.83,-125.29 2655.67,-118.85 2650,-112 2586.11,-34.76 2258.16,-16.05 2153.29,-12.02"/>
<polygon fill="midnightblue" stroke="midnightblue" points="2153.14,-8.51 2143.01,-11.64 2152.88,-15.5 2153.14,-8.51"/>
</g>
<!-- Node10 -->
<g id="node10" class="node">
<title>Node10</title>
<g id="a_node10"><a xlink:href="_enum_bitmask_8hpp.html" target="_top" xlink:title=" ">
<polygon fill="white" stroke="black" points="2696.5,-56.5 2696.5,-75.5 2891.5,-75.5 2891.5,-56.5 2696.5,-56.5"/>
<text text-anchor="middle" x="2794" y="-63.5" font-family="Helvetica,sans-Serif" font-size="10.00">Liger&#45;Engine/Core/EnumBitmask.hpp</text>
</a>
</g>
</g>
<!-- Node9&#45;&gt;Node10 -->
<g id="edge11" class="edge">
<title>Node9&#45;&gt;Node10</title>
<path fill="none" stroke="midnightblue" d="M2378,-112.47C2467.19,-102.72 2612.87,-86.8 2706.03,-76.62"/>
<polygon fill="midnightblue" stroke="midnightblue" points="2706.44,-80.09 2716,-75.53 2705.68,-73.13 2706.44,-80.09"/>
</g>
<!-- Node11 -->
<g id="node11" class="node">
<title>Node11</title>
<g id="a_node11"><a xlink:title=" ">
<polygon fill="white" stroke="#bfbfbf" points="2700.5,-0.5 2700.5,-19.5 2769.5,-19.5 2769.5,-0.5 2700.5,-0.5"/>
<text text-anchor="middle" x="2735" y="-7.5" font-family="Helvetica,sans-Serif" font-size="10.00">type_traits</text>
</a>
</g>
</g>
<!-- Node10&#45;&gt;Node11 -->
<g id="edge12" class="edge">
<title>Node10&#45;&gt;Node11</title>
<path fill="none" stroke="midnightblue" d="M2784.52,-56.32C2775.8,-48.34 2762.66,-36.31 2752.1,-26.65"/>
<polygon fill="midnightblue" stroke="midnightblue" points="2754.39,-24 2744.65,-19.83 2749.67,-29.17 2754.39,-24"/>
</g>
<!-- Node12 -->
<g id="node12" class="node">
<title>Node12</title>
<g id="a_node12"><a xlink:title=" ">
<polygon fill="white" stroke="#bfbfbf" points="2787.5,-0.5 2787.5,-19.5 2916.5,-19.5 2916.5,-0.5 2787.5,-0.5"/>
<text text-anchor="middle" x="2852" y="-7.5" font-family="Helvetica,sans-Serif" font-size="10.00">magic_enum_flags.hpp</text>
</a>
</g>
</g>
<!-- Node10&#45;&gt;Node12 -->
<g id="edge13" class="edge">
<title>Node10&#45;&gt;Node12</title>
<path fill="none" stroke="midnightblue" d="M2803.32,-56.32C2811.89,-48.34 2824.81,-36.31 2835.19,-26.65"/>
<polygon fill="midnightblue" stroke="midnightblue" points="2837.58,-29.21 2842.51,-19.83 2832.81,-24.09 2837.58,-29.21"/>
</g>
<!-- Node14&#45;&gt;Node9 -->
<g id="edge17" class="edge">
<title>Node14&#45;&gt;Node9</title>
<path fill="none" stroke="midnightblue" d="M1745.19,-168.74C1864.14,-158.93 2062.03,-142.62 2186.52,-132.36"/>
<polygon fill="midnightblue" stroke="midnightblue" points="2187.17,-135.81 2196.85,-131.5 2186.59,-128.84 2187.17,-135.81"/>
</g>
<!-- Node14&#45;&gt;Node10 -->
<g id="edge16" class="edge">
<title>Node14&#45;&gt;Node10</title>
<path fill="none" stroke="midnightblue" d="M1741.33,-168.49C1826.4,-160.54 1953.71,-147.58 2064,-132 2114.93,-124.81 2126.95,-118.33 2178,-112 2355.38,-90.02 2562.93,-77.58 2686.16,-71.58"/>
<polygon fill="midnightblue" stroke="midnightblue" points="2686.53,-75.07 2696.35,-71.09 2686.19,-68.08 2686.53,-75.07"/>
</g>
<!-- Node15 -->
<g id="node15" class="node">
<title>Node15</title>
<g id="a_node15"><a xlink:href="_extent_8hpp.html" target="_top" xlink:title=" ">
<polygon fill="white" stroke="black" points="1901.5,-112.5 1901.5,-131.5 2054.5,-131.5 2054.5,-112.5 1901.5,-112.5"/>
<text text-anchor="middle" x="1978" y="-119.5" font-family="Helvetica,sans-Serif" font-size="10.00">Liger&#45;Engine/RHI/Extent.hpp</text>
</a>
</g>
</g>
<!-- Node14&#45;&gt;Node15 -->
<g id="edge18" class="edge">
<title>Node14&#45;&gt;Node15</title>
<path fill="none" stroke="midnightblue" d="M1697.76,-168.44C1756.83,-158.87 1852.47,-143.36 1915.31,-133.17"/>
<polygon fill="midnightblue" stroke="midnightblue" points="1916.17,-136.57 1925.48,-131.52 1915.05,-129.66 1916.17,-136.57"/>
</g>
<!-- Node16 -->
<g id="node16" class="node">
<title>Node16</title>
<g id="a_node16"><a xlink:href="_filter_8hpp.html" target="_top" xlink:title=" ">
<polygon fill="white" stroke="black" points="1720,-56.5 1720,-75.5 1866,-75.5 1866,-56.5 1720,-56.5"/>
<text text-anchor="middle" x="1793" y="-63.5" font-family="Helvetica,sans-Serif" font-size="10.00">Liger&#45;Engine/RHI/Filter.hpp</text>
</a>
</g>
</g>
<!-- Node14&#45;&gt;Node16 -->
<g id="edge20" class="edge">
<title>Node14&#45;&gt;Node16</title>
<path fill="none" stroke="midnightblue" d="M1554.58,-168.48C1476.6,-160.2 1374.58,-146.73 1362,-132 1356.23,-125.24 1356.05,-118.6 1362,-112 1384.78,-86.71 1590.75,-74.69 1709.52,-69.81"/>
<polygon fill="midnightblue" stroke="midnightblue" points="1709.82,-73.3 1719.67,-69.41 1709.54,-66.31 1709.82,-73.3"/>
</g>
<!-- Node17 -->
<g id="node17" class="node">
<title>Node17</title>
<g id="a_node17"><a xlink:href="_job_type_8hpp.html" target="_top" xlink:title=" ">
<polygon fill="white" stroke="black" points="1428.5,-112.5 1428.5,-131.5 1587.5,-131.5 1587.5,-112.5 1428.5,-112.5"/>
<text text-anchor="middle" x="1508" y="-119.5" font-family="Helvetica,sans-Serif" font-size="10.00">Liger&#45;Engine/RHI/JobType.hpp</text>
</a>
</g>
</g>
<!-- Node14&#45;&gt;Node17 -->
<g id="edge22" class="edge">
<title>Node14&#45;&gt;Node17</title>
<path fill="none" stroke="midnightblue" d="M1623.29,-168.44C1600.65,-159.52 1564.93,-145.44 1539.25,-135.32"/>
<polygon fill="midnightblue" stroke="midnightblue" points="1540.19,-131.93 1529.61,-131.52 1537.63,-138.44 1540.19,-131.93"/>
</g>
<!-- Node18 -->
<g id="node18" class="node">
<title>Node18</title>
<g id="a_node18"><a xlink:title=" ">
<polygon fill="white" stroke="#bfbfbf" points="1605.5,-112.5 1605.5,-131.5 1684.5,-131.5 1684.5,-112.5 1605.5,-112.5"/>
<text text-anchor="middle" x="1645" y="-119.5" font-family="Helvetica,sans-Serif" font-size="10.00">fmt/format.h</text>
</a>
</g>
</g>
<!-- Node14&#45;&gt;Node18 -->
<g id="edge23" class="edge">
<title>Node14&#45;&gt;Node18</title>
<path fill="none" stroke="midnightblue" d="M1645,-168.08C1645,-161.01 1645,-150.86 1645,-141.99"/>
<polygon fill="midnightblue" stroke="midnightblue" points="1648.5,-141.75 1645,-131.75 1641.5,-141.75 1648.5,-141.75"/>
</g>
<!-- Node19 -->
<g id="node19" class="node">
<title>Node19</title>
<g id="a_node19"><a xlink:title=" ">
<polygon fill="white" stroke="#bfbfbf" points="712,-112.5 712,-131.5 790,-131.5 790,-112.5 712,-112.5"/>
<text text-anchor="middle" x="751" y="-119.5" font-family="Helvetica,sans-Serif" font-size="10.00">glm/glm.hpp</text>
</a>
</g>
</g>
<!-- Node14&#45;&gt;Node19 -->
<g id="edge24" class="edge">
<title>Node14&#45;&gt;Node19</title>
<path fill="none" stroke="midnightblue" d="M1544.62,-170.94C1353.26,-159.38 942.71,-134.58 800.61,-126"/>
<polygon fill="midnightblue" stroke="midnightblue" points="800.65,-122.49 790.46,-125.38 800.23,-129.48 800.65,-122.49"/>
</g>
<!-- Node20 -->
<g id="node20" class="node">
<title>Node20</title>
<g id="a_node20"><a xlink:title=" ">
<polygon fill="white" stroke="#bfbfbf" points="1371,-112.5 1371,-131.5 1411,-131.5 1411,-112.5 1371,-112.5"/>
<text text-anchor="middle" x="1391" y="-119.5" font-family="Helvetica,sans-Serif" font-size="10.00">span</text>
</a>
</g>
</g>
<!-- Node14&#45;&gt;Node20 -->
<g id="edge25" class="edge">
<title>Node14&#45;&gt;Node20</title>
<path fill="none" stroke="midnightblue" d="M1594.62,-168.47C1551.04,-160.74 1486.17,-148.41 1421.21,-132.11"/>
<polygon fill="midnightblue" stroke="midnightblue" points="1421.76,-128.63 1411.21,-129.56 1420.04,-135.42 1421.76,-128.63"/>
</g>
<!-- Node15&#45;&gt;Node3 -->
<g id="edge19" class="edge">
<title>Node15&#45;&gt;Node3</title>
<path fill="none" stroke="midnightblue" d="M1967,-112.46C1955.47,-103.47 1936.86,-88.87 1921,-76 1900.44,-59.32 1877.16,-39.84 1861.42,-26.59"/>
<polygon fill="midnightblue" stroke="midnightblue" points="1863.42,-23.69 1853.52,-19.92 1858.91,-29.04 1863.42,-23.69"/>
</g>
<!-- Node16&#45;&gt;Node3 -->
<g id="edge21" class="edge">
<title>Node16&#45;&gt;Node3</title>
<path fill="none" stroke="midnightblue" d="M1801.26,-56.08C1808.46,-48.3 1819.11,-36.8 1827.85,-27.37"/>
<polygon fill="midnightblue" stroke="midnightblue" points="1830.67,-29.47 1834.9,-19.75 1825.53,-24.71 1830.67,-29.47"/>
</g>
<!-- Node22 -->
<g id="node22" class="node">
<title>Node22</title>
<g id="a_node22"><a xlink:href="_r_h_i_2_log_channel_8hpp.html" target="_top" xlink:title=" ">
<polygon fill="white" stroke="black" points="911.5,-224.5 911.5,-243.5 1090.5,-243.5 1090.5,-224.5 911.5,-224.5"/>
<text text-anchor="middle" x="1001" y="-231.5" font-family="Helvetica,sans-Serif" font-size="10.00">Liger&#45;Engine/RHI/LogChannel.hpp</text>
</a>
</g>
</g>
<!-- Node21&#45;&gt;Node22 -->
<g id="edge27" class="edge">
<title>Node21&#45;&gt;Node22</title>
<path fill="none" stroke="midnightblue" d="M1074.02,-280.32C1060.45,-271.9 1039.62,-258.97 1023.68,-249.07"/>
<polygon fill="midnightblue" stroke="midnightblue" points="1025.29,-245.95 1014.94,-243.65 1021.59,-251.9 1025.29,-245.95"/>
</g>
<!-- Node28 -->
<g id="node28" class="node">
<title>Node28</title>
<g id="a_node28"><a xlink:title=" ">
<polygon fill="white" stroke="#bfbfbf" points="1191.5,-224.5 1191.5,-243.5 1226.5,-243.5 1226.5,-224.5 1191.5,-224.5"/>
<text text-anchor="middle" x="1209" y="-231.5" font-family="Helvetica,sans-Serif" font-size="10.00">any</text>
</a>
</g>
</g>
<!-- Node21&#45;&gt;Node28 -->
<g id="edge37" class="edge">
<title>Node21&#45;&gt;Node28</title>
<path fill="none" stroke="midnightblue" d="M1107.17,-280.44C1127.37,-271.43 1159.35,-257.16 1182.08,-247.02"/>
<polygon fill="midnightblue" stroke="midnightblue" points="1183.78,-250.09 1191.49,-242.82 1180.93,-243.69 1183.78,-250.09"/>
</g>
<!-- Node29 -->
<g id="node29" class="node">
<title>Node29</title>
<g id="a_node29"><a xlink:title=" ">
<polygon fill="white" stroke="#bfbfbf" points="1108.5,-224.5 1108.5,-243.5 1173.5,-243.5 1173.5,-224.5 1108.5,-224.5"/>
<text text-anchor="middle" x="1141" y="-231.5" font-family="Helvetica,sans-Serif" font-size="10.00">typeindex</text>
</a>
</g>
</g>
<!-- Node21&#45;&gt;Node29 -->
<g id="edge38" class="edge">
<title>Node21&#45;&gt;Node29</title>
<path fill="none" stroke="midnightblue" d="M1096.75,-280.08C1104.47,-272.22 1115.9,-260.57 1125.22,-251.08"/>
<polygon fill="midnightblue" stroke="midnightblue" points="1127.9,-253.34 1132.41,-243.75 1122.91,-248.44 1127.9,-253.34"/>
</g>
<!-- Node21&#45;&gt;Node30 -->
<g id="edge39" class="edge">
<title>Node21&#45;&gt;Node30</title>
<path fill="none" stroke="midnightblue" d="M1120.17,-280.44C1155.06,-271.16 1210.89,-256.31 1249.17,-246.13"/>
<polygon fill="midnightblue" stroke="midnightblue" points="1250.22,-249.47 1258.98,-243.52 1248.42,-242.7 1250.22,-249.47"/>
</g>
<!-- Node23 -->
<g id="node23" class="node">
<title>Node23</title>
<g id="a_node23"><a xlink:href="_log_8hpp.html" target="_top" xlink:title=" ">
<polygon fill="white" stroke="black" points="961,-168.5 961,-187.5 1125,-187.5 1125,-168.5 961,-168.5"/>
<text text-anchor="middle" x="1043" y="-175.5" font-family="Helvetica,sans-Serif" font-size="10.00">Liger&#45;Engine/Core/Log/Log.hpp</text>
</a>
</g>
</g>
<!-- Node22&#45;&gt;Node23 -->
<g id="edge28" class="edge">
<title>Node22&#45;&gt;Node23</title>
<path fill="none" stroke="midnightblue" d="M1007.94,-224.08C1013.93,-216.38 1022.75,-205.03 1030.05,-195.65"/>
<polygon fill="midnightblue" stroke="midnightblue" points="1032.82,-197.79 1036.19,-187.75 1027.29,-193.5 1032.82,-197.79"/>
</g>
<!-- Node23&#45;&gt;Node7 -->
<g id="edge36" class="edge">
<title>Node23&#45;&gt;Node7</title>
<path fill="none" stroke="midnightblue" d="M1082.3,-168.44C1130.57,-157.93 1211.66,-140.28 1257.25,-130.35"/>
<polygon fill="midnightblue" stroke="midnightblue" points="1258.2,-133.72 1267.22,-128.18 1256.71,-126.88 1258.2,-133.72"/>
</g>
<!-- Node24 -->
<g id="node24" class="node">
<title>Node24</title>
<g id="a_node24"><a xlink:href="_message_8hpp.html" target="_top" xlink:title=" ">
<polygon fill="white" stroke="black" points="1019.5,-56.5 1019.5,-75.5 1210.5,-75.5 1210.5,-56.5 1019.5,-56.5"/>
<text text-anchor="middle" x="1115" y="-63.5" font-family="Helvetica,sans-Serif" font-size="10.00">Liger&#45;Engine/Core/Log/Message.hpp</text>
</a>
</g>
</g>
<!-- Node23&#45;&gt;Node24 -->
<g id="edge29" class="edge">
<title>Node23&#45;&gt;Node24</title>
<path fill="none" stroke="midnightblue" d="M1124.15,-168.49C1146.46,-161.99 1168.27,-150.87 1182,-132 1196.73,-111.75 1169.28,-92.27 1145.19,-80"/>
<polygon fill="midnightblue" stroke="midnightblue" points="1146.42,-76.71 1135.89,-75.52 1143.38,-83.01 1146.42,-76.71"/>
</g>
<!-- Node26 -->
<g id="node26" class="node">
<title>Node26</title>
<g id="a_node26"><a xlink:href="_writer_8hpp.html" target="_top" xlink:title=" ">
<polygon fill="white" stroke="black" points="997,-112.5 997,-131.5 1173,-131.5 1173,-112.5 997,-112.5"/>
<text text-anchor="middle" x="1085" y="-119.5" font-family="Helvetica,sans-Serif" font-size="10.00">Liger&#45;Engine/Core/Log/Writer.hpp</text>
</a>
</g>
</g>
<!-- Node23&#45;&gt;Node26 -->
<g id="edge33" class="edge">
<title>Node23&#45;&gt;Node26</title>
<path fill="none" stroke="midnightblue" d="M1049.94,-168.08C1055.93,-160.38 1064.75,-149.03 1072.05,-139.65"/>
<polygon fill="midnightblue" stroke="midnightblue" points="1074.82,-141.79 1078.19,-131.75 1069.29,-137.5 1074.82,-141.79"/>
</g>
<!-- Node27 -->
<g id="node27" class="node">
<title>Node27</title>
<g id="a_node27"><a xlink:title=" ">
<polygon fill="white" stroke="#bfbfbf" points="911.5,-112.5 911.5,-131.5 978.5,-131.5 978.5,-112.5 911.5,-112.5"/>
<text text-anchor="middle" x="945" y="-119.5" font-family="Helvetica,sans-Serif" font-size="10.00">fmt/core.h</text>
</a>
</g>
</g>
<!-- Node23&#45;&gt;Node27 -->
<g id="edge35" class="edge">
<title>Node23&#45;&gt;Node27</title>
<path fill="none" stroke="midnightblue" d="M1027.25,-168.32C1011.68,-159.74 987.62,-146.49 969.54,-136.52"/>
<polygon fill="midnightblue" stroke="midnightblue" points="971.15,-133.42 960.71,-131.65 967.78,-139.55 971.15,-133.42"/>
</g>
<!-- Node24&#45;&gt;Node3 -->
<g id="edge30" class="edge">
<title>Node24&#45;&gt;Node3</title>
<path fill="none" stroke="midnightblue" d="M1210.69,-57.12C1215.53,-56.74 1220.32,-56.36 1225,-56 1446.78,-38.85 1713.49,-20.05 1807.85,-13.45"/>
<polygon fill="midnightblue" stroke="midnightblue" points="1808.24,-16.93 1817.97,-12.74 1807.76,-9.95 1808.24,-16.93"/>
</g>
<!-- Node24&#45;&gt;Node13 -->
<g id="edge31" class="edge">
<title>Node24&#45;&gt;Node13</title>
<path fill="none" stroke="midnightblue" d="M1210.55,-59.87C1428.3,-48.18 1953.01,-20.02 2088.59,-12.74"/>
<polygon fill="midnightblue" stroke="midnightblue" points="2088.94,-16.23 2098.73,-12.2 2088.56,-9.24 2088.94,-16.23"/>
</g>
<!-- Node24&#45;&gt;Node25 -->
<g id="edge32" class="edge">
<title>Node24&#45;&gt;Node25</title>
<path fill="none" stroke="midnightblue" d="M1096.62,-56.44C1077.78,-47.68 1048.27,-33.94 1026.62,-23.86"/>
<polygon fill="midnightblue" stroke="midnightblue" points="1027.84,-20.56 1017.29,-19.52 1024.88,-26.91 1027.84,-20.56"/>
</g>
<!-- Node26&#45;&gt;Node24 -->
<g id="edge34" class="edge">
<title>Node26&#45;&gt;Node24</title>
<path fill="none" stroke="midnightblue" d="M1089.95,-112.08C1094.1,-104.61 1100.15,-93.72 1105.27,-84.52"/>
<polygon fill="midnightblue" stroke="midnightblue" points="1108.34,-86.19 1110.14,-75.75 1102.22,-82.79 1108.34,-86.19"/>
</g>
<!-- Node32 -->
<g id="node32" class="node">
<title>Node32</title>
<g id="a_node32"><a xlink:href="_texture_8hpp.html" target="_top" xlink:title=" ">
<polygon fill="white" stroke="black" points="1915,-168.5 1915,-187.5 2073,-187.5 2073,-168.5 1915,-168.5"/>
<text text-anchor="middle" x="1994" y="-175.5" font-family="Helvetica,sans-Serif" font-size="10.00">Liger&#45;Engine/RHI/Texture.hpp</text>
</a>
</g>
</g>
<!-- Node31&#45;&gt;Node32 -->
<g id="edge41" class="edge">
<title>Node31&#45;&gt;Node32</title>
<path fill="none" stroke="midnightblue" d="M2037.31,-280.37C2029.66,-262.46 2011.91,-220.92 2001.67,-196.95"/>
<polygon fill="midnightblue" stroke="midnightblue" points="2004.82,-195.41 1997.67,-187.59 1998.38,-198.16 2004.82,-195.41"/>
</g>
<!-- Node32&#45;&gt;Node2 -->
<g id="edge42" class="edge">
<title>Node32&#45;&gt;Node2</title>
<path fill="none" stroke="midnightblue" d="M2073.1,-169.12C2170.49,-159.42 2335.79,-142.95 2440.25,-132.54"/>
<polygon fill="midnightblue" stroke="midnightblue" points="2440.88,-135.99 2450.48,-131.52 2440.18,-129.03 2440.88,-135.99"/>
</g>
<!-- Node32&#45;&gt;Node9 -->
<g id="edge43" class="edge">
<title>Node32&#45;&gt;Node9</title>
<path fill="none" stroke="midnightblue" d="M2042.49,-168.44C2096.54,-158.9 2183.93,-143.48 2241.67,-133.29"/>
<polygon fill="midnightblue" stroke="midnightblue" points="2242.5,-136.7 2251.74,-131.52 2241.28,-129.81 2242.5,-136.7"/>
</g>
<!-- Node32&#45;&gt;Node13 -->
<g id="edge49" class="edge">
<title>Node32&#45;&gt;Node13</title>
<path fill="none" stroke="midnightblue" d="M2021.57,-168.43C2040.13,-161.37 2063.89,-149.62 2079,-132 2104.73,-102.01 2114.97,-55.35 2118.84,-29.62"/>
<polygon fill="midnightblue" stroke="midnightblue" points="2122.31,-30.06 2120.16,-19.69 2115.37,-29.14 2122.31,-30.06"/>
</g>
<!-- Node32&#45;&gt;Node15 -->
<g id="edge44" class="edge">
<title>Node32&#45;&gt;Node15</title>
<path fill="none" stroke="midnightblue" d="M1991.36,-168.08C1989.21,-160.85 1986.12,-150.41 1983.45,-141.4"/>
<polygon fill="midnightblue" stroke="midnightblue" points="1986.79,-140.34 1980.59,-131.75 1980.08,-142.33 1986.79,-140.34"/>
</g>
<!-- Node33 -->
<g id="node33" class="node">
<title>Node33</title>
<g id="a_node33"><a xlink:href="_format_8hpp.html" target="_top" xlink:title=" ">
<polygon fill="white" stroke="black" points="1930,-56.5 1930,-75.5 2086,-75.5 2086,-56.5 1930,-56.5"/>
<text text-anchor="middle" x="2008" y="-63.5" font-family="Helvetica,sans-Serif" font-size="10.00">Liger&#45;Engine/RHI/Format.hpp</text>
</a>
</g>
</g>
<!-- Node32&#45;&gt;Node33 -->
<g id="edge45" class="edge">
<title>Node32&#45;&gt;Node33</title>
<path fill="none" stroke="midnightblue" d="M2018.47,-168.44C2034.57,-161.38 2054.38,-149.63 2064,-132 2074.83,-112.16 2053.14,-93 2033.68,-80.69"/>
<polygon fill="midnightblue" stroke="midnightblue" points="2035.41,-77.64 2025.02,-75.53 2031.83,-83.65 2035.41,-77.64"/>
</g>
<!-- Node34 -->
<g id="node34" class="node">
<title>Node34</title>
<g id="a_node34"><a xlink:href="_sampler_info_8hpp.html" target="_top" xlink:title=" ">
<polygon fill="white" stroke="black" points="1702.5,-112.5 1702.5,-131.5 1883.5,-131.5 1883.5,-112.5 1702.5,-112.5"/>
<text text-anchor="middle" x="1793" y="-119.5" font-family="Helvetica,sans-Serif" font-size="10.00">Liger&#45;Engine/RHI/SamplerInfo.hpp</text>
</a>
</g>
</g>
<!-- Node32&#45;&gt;Node34 -->
<g id="edge47" class="edge">
<title>Node32&#45;&gt;Node34</title>
<path fill="none" stroke="midnightblue" d="M1962.15,-168.44C1927.6,-159.16 1872.32,-144.31 1834.42,-134.13"/>
<polygon fill="midnightblue" stroke="midnightblue" points="1835.27,-130.73 1824.7,-131.52 1833.45,-137.49 1835.27,-130.73"/>
</g>
<!-- Node33&#45;&gt;Node3 -->
<g id="edge46" class="edge">
<title>Node33&#45;&gt;Node3</title>
<path fill="none" stroke="midnightblue" d="M1981.86,-56.44C1953.73,-47.24 1908.87,-32.56 1877.78,-22.38"/>
<polygon fill="midnightblue" stroke="midnightblue" points="1878.8,-19.03 1868.21,-19.25 1876.63,-25.69 1878.8,-19.03"/>
</g>
<!-- Node34&#45;&gt;Node16 -->
<g id="edge48" class="edge">
<title>Node34&#45;&gt;Node16</title>
<path fill="none" stroke="midnightblue" d="M1793,-112.08C1793,-105.01 1793,-94.86 1793,-85.99"/>
<polygon fill="midnightblue" stroke="midnightblue" points="1796.5,-85.75 1793,-75.75 1789.5,-85.75 1796.5,-85.75"/>
</g>
<!-- Node35&#45;&gt;Node7 -->
<g id="edge53" class="edge">
<title>Node35&#45;&gt;Node7</title>
<path fill="none" stroke="midnightblue" d="M1691.97,-280.47C1646.11,-260.02 1525.66,-207.01 1423,-168 1389.69,-155.34 1351.04,-142.36 1324.21,-133.62"/>
<polygon fill="midnightblue" stroke="midnightblue" points="1325.13,-130.24 1314.54,-130.48 1322.98,-136.89 1325.13,-130.24"/>
</g>
<!-- Node35&#45;&gt;Node36 -->
<g id="edge51" class="edge">
<title>Node35&#45;&gt;Node36</title>
<path fill="none" stroke="midnightblue" d="M1727.39,-280.32C1743.67,-271.7 1768.87,-258.36 1787.72,-248.39"/>
<polygon fill="midnightblue" stroke="midnightblue" points="1789.45,-251.43 1796.65,-243.65 1786.18,-245.24 1789.45,-251.43"/>
</g>
<!-- Node37 -->
<g id="node37" class="node">
<title>Node37</title>
<g id="a_node37"><a xlink:title=" ">
<polygon fill="white" stroke="#bfbfbf" points="1685.5,-224.5 1685.5,-243.5 1736.5,-243.5 1736.5,-224.5 1685.5,-224.5"/>
<text text-anchor="middle" x="1711" y="-231.5" font-family="Helvetica,sans-Serif" font-size="10.00">variant</text>
</a>
</g>
</g>
<!-- Node35&#45;&gt;Node37 -->
<g id="edge52" class="edge">
<title>Node35&#45;&gt;Node37</title>
<path fill="none" stroke="midnightblue" d="M1711,-280.08C1711,-273.01 1711,-262.86 1711,-253.99"/>
<polygon fill="midnightblue" stroke="midnightblue" points="1714.5,-253.75 1711,-243.75 1707.5,-253.75 1714.5,-253.75"/>
</g>
<!-- Node39&#45;&gt;Node2 -->
<g id="edge71" class="edge">
<title>Node39&#45;&gt;Node2</title>
<path fill="none" stroke="midnightblue" d="M815.99,-280.14C831.79,-265.24 866.28,-235.65 902,-224 1026.71,-183.33 1951.32,-199.31 2082,-188 2156.35,-181.56 2365.24,-149.7 2471.77,-133.1"/>
<polygon fill="midnightblue" stroke="midnightblue" points="2472.41,-136.54 2481.76,-131.54 2471.34,-129.63 2472.41,-136.54"/>
</g>
<!-- Node39&#45;&gt;Node6 -->
<g id="edge73" class="edge">
<title>Node39&#45;&gt;Node6</title>
<path fill="none" stroke="midnightblue" d="M910.03,-282.49C1038,-274.06 1250.15,-258.85 1345.75,-243.9"/>
<polygon fill="midnightblue" stroke="midnightblue" points="1346.43,-247.33 1355.73,-242.26 1345.29,-240.42 1346.43,-247.33"/>
</g>
<!-- Node39&#45;&gt;Node22 -->
<g id="edge72" class="edge">
<title>Node39&#45;&gt;Node22</title>
<path fill="none" stroke="midnightblue" d="M837.74,-280.44C870.94,-271.2 923.99,-256.44 960.56,-246.26"/>
<polygon fill="midnightblue" stroke="midnightblue" points="961.71,-249.57 970.4,-243.52 959.83,-242.83 961.71,-249.57"/>
</g>
<!-- Node39&#45;&gt;Node23 -->
<g id="edge59" class="edge">
<title>Node39&#45;&gt;Node23</title>
<path fill="none" stroke="midnightblue" d="M807.61,-280.36C809.08,-266.32 814.08,-238.64 831,-224 849.84,-207.71 905.88,-196.23 955.62,-188.95"/>
<polygon fill="midnightblue" stroke="midnightblue" points="956.38,-192.37 965.79,-187.5 955.4,-185.44 956.38,-192.37"/>
</g>
<!-- Node40 -->
<g id="node40" class="node">
<title>Node40</title>
<g id="a_node40"><a xlink:href="_math_8hpp.html" target="_top" xlink:title=" ">
<polygon fill="white" stroke="black" points="520.5,-224.5 520.5,-243.5 699.5,-243.5 699.5,-224.5 520.5,-224.5"/>
<text text-anchor="middle" x="610" y="-231.5" font-family="Helvetica,sans-Serif" font-size="10.00">Liger&#45;Engine/Core/Math/Math.hpp</text>
</a>
</g>
</g>
<!-- Node39&#45;&gt;Node40 -->
<g id="edge60" class="edge">
<title>Node39&#45;&gt;Node40</title>
<path fill="none" stroke="midnightblue" d="M775.78,-280.44C742.07,-271.2 688.2,-256.44 651.07,-246.26"/>
<polygon fill="midnightblue" stroke="midnightblue" points="651.64,-242.78 641.07,-243.52 649.79,-249.54 651.64,-242.78"/>
</g>
<!-- Node41 -->
<g id="node41" class="node">
<title>Node41</title>
<g id="a_node41"><a xlink:href="_formatting_8hpp.html" target="_top" xlink:title=" ">
<polygon fill="white" stroke="black" points="647,-168.5 647,-187.5 855,-187.5 855,-168.5 647,-168.5"/>
<text text-anchor="middle" x="751" y="-175.5" font-family="Helvetica,sans-Serif" font-size="10.00">Liger&#45;Engine/Core/Math/Formatting.hpp</text>
</a>
</g>
</g>
<!-- Node40&#45;&gt;Node41 -->
<g id="edge61" class="edge">
<title>Node40&#45;&gt;Node41</title>
<path fill="none" stroke="midnightblue" d="M632.34,-224.44C655.75,-215.48 692.74,-201.31 719.19,-191.18"/>
<polygon fill="midnightblue" stroke="midnightblue" points="720.68,-194.36 728.76,-187.52 718.17,-187.82 720.68,-194.36"/>
</g>
<!-- Node42 -->
<g id="node42" class="node">
<title>Node42</title>
<g id="a_node42"><a xlink:href="_random_8hpp.html" target="_top" xlink:title=" ">
<polygon fill="white" stroke="black" points="433.5,-168.5 433.5,-187.5 628.5,-187.5 628.5,-168.5 433.5,-168.5"/>
<text text-anchor="middle" x="531" y="-175.5" font-family="Helvetica,sans-Serif" font-size="10.00">Liger&#45;Engine/Core/Math/Random.hpp</text>
</a>
</g>
</g>
<!-- Node40&#45;&gt;Node42 -->
<g id="edge64" class="edge">
<title>Node40&#45;&gt;Node42</title>
<path fill="none" stroke="midnightblue" d="M597.31,-224.32C585.1,-215.98 566.42,-203.21 552,-193.35"/>
<polygon fill="midnightblue" stroke="midnightblue" points="553.89,-190.41 543.66,-187.65 549.94,-196.19 553.89,-190.41"/>
</g>
<!-- Node44 -->
<g id="node44" class="node">
<title>Node44</title>
<g id="a_node44"><a xlink:href="_transform3_d_8hpp.html" target="_top" xlink:title=" ">
<polygon fill="white" stroke="black" points="181.5,-168.5 181.5,-187.5 398.5,-187.5 398.5,-168.5 181.5,-168.5"/>
<text text-anchor="middle" x="290" y="-175.5" font-family="Helvetica,sans-Serif" font-size="10.00">Liger&#45;Engine/Core/Math/Transform3D.hpp</text>
</a>
</g>
</g>
<!-- Node40&#45;&gt;Node44 -->
<g id="edge67" class="edge">
<title>Node40&#45;&gt;Node44</title>
<path fill="none" stroke="midnightblue" d="M559.3,-224.44C502.65,-214.89 411,-199.42 350.62,-189.23"/>
<polygon fill="midnightblue" stroke="midnightblue" points="350.91,-185.73 340.47,-187.52 349.75,-192.63 350.91,-185.73"/>
</g>
<!-- Node41&#45;&gt;Node19 -->
<g id="edge63" class="edge">
<title>Node41&#45;&gt;Node19</title>
<path fill="none" stroke="midnightblue" d="M751,-168.08C751,-161.01 751,-150.86 751,-141.99"/>
<polygon fill="midnightblue" stroke="midnightblue" points="754.5,-141.75 751,-131.75 747.5,-141.75 754.5,-141.75"/>
</g>
<!-- Node41&#45;&gt;Node27 -->
<g id="edge62" class="edge">
<title>Node41&#45;&gt;Node27</title>
<path fill="none" stroke="midnightblue" d="M781.74,-168.44C814.94,-159.2 867.99,-144.44 904.56,-134.26"/>
<polygon fill="midnightblue" stroke="midnightblue" points="905.71,-137.57 914.4,-131.52 903.83,-130.83 905.71,-137.57"/>
</g>
<!-- Node42&#45;&gt;Node19 -->
<g id="edge65" class="edge">
<title>Node42&#45;&gt;Node19</title>
<path fill="none" stroke="midnightblue" d="M565.86,-168.44C603.92,-159.1 664.96,-144.12 706.46,-133.93"/>
<polygon fill="midnightblue" stroke="midnightblue" points="707.43,-137.3 716.3,-131.52 705.76,-130.5 707.43,-137.3"/>
</g>
<!-- Node43 -->
<g id="node43" class="node">
<title>Node43</title>
<g id="a_node43"><a xlink:title=" ">
<polygon fill="white" stroke="#bfbfbf" points="521,-112.5 521,-131.5 575,-131.5 575,-112.5 521,-112.5"/>
<text text-anchor="middle" x="548" y="-119.5" font-family="Helvetica,sans-Serif" font-size="10.00">random</text>
</a>
</g>
</g>
<!-- Node42&#45;&gt;Node43 -->
<g id="edge66" class="edge">
<title>Node42&#45;&gt;Node43</title>
<path fill="none" stroke="midnightblue" d="M533.81,-168.08C536.08,-160.85 539.37,-150.41 542.21,-141.4"/>
<polygon fill="midnightblue" stroke="midnightblue" points="545.58,-142.34 545.25,-131.75 538.9,-140.24 545.58,-142.34"/>
</g>
<!-- Node45 -->
<g id="node45" class="node">
<title>Node45</title>
<g id="a_node45"><a xlink:title=" ">
<polygon fill="white" stroke="#bfbfbf" points="339.5,-112.5 339.5,-131.5 502.5,-131.5 502.5,-112.5 339.5,-112.5"/>
<text text-anchor="middle" x="421" y="-119.5" font-family="Helvetica,sans-Serif" font-size="10.00">glm/gtc/matrix_transform.hpp</text>
</a>
</g>
</g>
<!-- Node44&#45;&gt;Node45 -->
<g id="edge68" class="edge">
<title>Node44&#45;&gt;Node45</title>
<path fill="none" stroke="midnightblue" d="M310.76,-168.44C332.32,-159.56 366.26,-145.56 390.79,-135.45"/>
<polygon fill="midnightblue" stroke="midnightblue" points="392.43,-138.56 400.34,-131.52 389.76,-132.09 392.43,-138.56"/>
</g>
<!-- Node46 -->
<g id="node46" class="node">
<title>Node46</title>
<g id="a_node46"><a xlink:title=" ">
<polygon fill="white" stroke="#bfbfbf" points="0,-112.5 0,-131.5 172,-131.5 172,-112.5 0,-112.5"/>
<text text-anchor="middle" x="86" y="-119.5" font-family="Helvetica,sans-Serif" font-size="10.00">glm/gtx/matrix_decompose.hpp</text>
</a>
</g>
</g>
<!-- Node44&#45;&gt;Node46 -->
<g id="edge69" class="edge">
<title>Node44&#45;&gt;Node46</title>
<path fill="none" stroke="midnightblue" d="M257.68,-168.44C222.61,-159.16 166.5,-144.31 128.04,-134.13"/>
<polygon fill="midnightblue" stroke="midnightblue" points="128.74,-130.69 118.17,-131.52 126.94,-137.46 128.74,-130.69"/>
</g>
<!-- Node47 -->
<g id="node47" class="node">
<title>Node47</title>
<g id="a_node47"><a xlink:title=" ">
<polygon fill="white" stroke="#bfbfbf" points="190.5,-112.5 190.5,-131.5 321.5,-131.5 321.5,-112.5 190.5,-112.5"/>
<text text-anchor="middle" x="256" y="-119.5" font-family="Helvetica,sans-Serif" font-size="10.00">glm/gtx/quaternion.hpp</text>
</a>
</g>
</g>
<!-- Node44&#45;&gt;Node47 -->
<g id="edge70" class="edge">
<title>Node44&#45;&gt;Node47</title>
<path fill="none" stroke="midnightblue" d="M284.39,-168.08C279.63,-160.53 272.68,-149.49 266.85,-140.23"/>
<polygon fill="midnightblue" stroke="midnightblue" points="269.8,-138.35 261.51,-131.75 263.88,-142.08 269.8,-138.35"/>
</g>
</g>
</svg>
