<?xml version="1.0" encoding="UTF-8" standalone="no"?>
<!DOCTYPE svg PUBLIC "-//W3C//DTD SVG 1.1//EN"
 "http://www.w3.org/Graphics/SVG/1.1/DTD/svg11.dtd">
<!-- Generated by graphviz version 2.43.0 (0)
 -->
<!-- Title: CommandBuffer.hpp Pages: 1 -->
<svg width="124pt" height="196pt"
 viewBox="0.00 0.00 124.00 196.00" xmlns="http://www.w3.org/2000/svg" xmlns:xlink="http://www.w3.org/1999/xlink">
<g id="graph0" class="graph" transform="scale(1 1) rotate(0) translate(4 192)">
<title>CommandBuffer.hpp</title>
<polygon fill="white" stroke="transparent" points="-4,4 -4,-192 120,-192 120,4 -4,4"/>
<!-- Node1 -->
<g id="node1" class="node">
<title>Node1</title>
<g id="a_node1"><a xlink:title=" ">
<polygon fill="#bfbfbf" stroke="black" points="0,-168.5 0,-187.5 116,-187.5 116,-168.5 0,-168.5"/>
<text text-anchor="middle" x="58" y="-175.5" font-family="Helvetica,sans-Serif" font-size="10.00">CommandBuffer.hpp</text>
</a>
</g>
</g>
<!-- Node2 -->
<g id="node2" class="node">
<title>Node2</title>
<g id="a_node2"><a xlink:href="_render_graph_8hpp.html" target="_top" xlink:title=" ">
<polygon fill="white" stroke="black" points="7.5,-112.5 7.5,-131.5 108.5,-131.5 108.5,-112.5 7.5,-112.5"/>
<text text-anchor="middle" x="58" y="-119.5" font-family="Helvetica,sans-Serif" font-size="10.00">RenderGraph.hpp</text>
</a>
</g>
</g>
<!-- Node1&#45;&gt;Node2 -->
<g id="edge1" class="edge">
<title>Node1&#45;&gt;Node2</title>
<path fill="none" stroke="midnightblue" d="M58,-157.8C58,-148.91 58,-138.78 58,-131.75"/>
<polygon fill="midnightblue" stroke="midnightblue" points="54.5,-158.08 58,-168.08 61.5,-158.08 54.5,-158.08"/>
</g>
<!-- Node3 -->
<g id="node3" class="node">
<title>Node3</title>
<g id="a_node3"><a xlink:href="_device_8hpp.html" target="_top" xlink:title=" ">
<polygon fill="white" stroke="black" points="22.5,-56.5 22.5,-75.5 93.5,-75.5 93.5,-56.5 22.5,-56.5"/>
<text text-anchor="middle" x="58" y="-63.5" font-family="Helvetica,sans-Serif" font-size="10.00">Device.hpp</text>
</a>
</g>
</g>
<!-- Node2&#45;&gt;Node3 -->
<g id="edge2" class="edge">
<title>Node2&#45;&gt;Node3</title>
<path fill="none" stroke="midnightblue" d="M58,-101.8C58,-92.91 58,-82.78 58,-75.75"/>
<polygon fill="midnightblue" stroke="midnightblue" points="54.5,-102.08 58,-112.08 61.5,-102.08 54.5,-102.08"/>
</g>
<!-- Node4 -->
<g id="node4" class="node">
<title>Node4</title>
<g id="a_node4"><a xlink:href="_instance_8hpp.html" target="_top" xlink:title=" ">
<polygon fill="white" stroke="black" points="18.5,-0.5 18.5,-19.5 97.5,-19.5 97.5,-0.5 18.5,-0.5"/>
<text text-anchor="middle" x="58" y="-7.5" font-family="Helvetica,sans-Serif" font-size="10.00">Instance.hpp</text>
</a>
</g>
</g>
<!-- Node3&#45;&gt;Node4 -->
<g id="edge3" class="edge">
<title>Node3&#45;&gt;Node4</title>
<path fill="none" stroke="midnightblue" d="M58,-45.8C58,-36.91 58,-26.78 58,-19.75"/>
<polygon fill="midnightblue" stroke="midnightblue" points="54.5,-46.08 58,-56.08 61.5,-46.08 54.5,-46.08"/>
</g>
</g>
</svg>
