<?xml version="1.0" encoding="UTF-8" standalone="no"?>
<!DOCTYPE svg PUBLIC "-//W3C//DTD SVG 1.1//EN"
 "http://www.w3.org/Graphics/SVG/1.1/DTD/svg11.dtd">
<!-- Generated by graphviz version 2.43.0 (0)
 -->
<!-- Title: CommandBuffer.hpp Pages: 1 -->
<svg width="597pt" height="140pt"
 viewBox="0.00 0.00 596.50 140.00" xmlns="http://www.w3.org/2000/svg" xmlns:xlink="http://www.w3.org/1999/xlink">
<g id="graph0" class="graph" transform="scale(1 1) rotate(0) translate(4 136)">
<title>CommandBuffer.hpp</title>
<polygon fill="white" stroke="transparent" points="-4,4 -4,-136 592.5,-136 592.5,4 -4,4"/>
<!-- Node1 -->
<g id="node1" class="node">
<title>Node1</title>
<g id="a_node1"><a xlink:title=" ">
<polygon fill="#bfbfbf" stroke="black" points="315.5,-112.5 315.5,-131.5 431.5,-131.5 431.5,-112.5 315.5,-112.5"/>
<text text-anchor="middle" x="373.5" y="-119.5" font-family="Helvetica,sans-Serif" font-size="10.00">CommandBuffer.hpp</text>
</a>
</g>
</g>
<!-- Node2 -->
<g id="node2" class="node">
<title>Node2</title>
<g id="a_node2"><a xlink:href="_enum_bitmask_8hpp.html" target="_top" xlink:title=" ">
<polygon fill="white" stroke="black" points="0,-56.5 0,-75.5 195,-75.5 195,-56.5 0,-56.5"/>
<text text-anchor="middle" x="97.5" y="-63.5" font-family="Helvetica,sans-Serif" font-size="10.00">Liger&#45;Engine/Core/EnumBitmask.hpp</text>
</a>
</g>
</g>
<!-- Node1&#45;&gt;Node2 -->
<g id="edge1" class="edge">
<title>Node1&#45;&gt;Node2</title>
<path fill="none" stroke="midnightblue" d="M329.77,-112.44C281.32,-102.96 203.17,-87.67 151.08,-77.48"/>
<polygon fill="midnightblue" stroke="midnightblue" points="151.51,-74 141.03,-75.52 150.17,-80.87 151.51,-74"/>
</g>
<!-- Node5 -->
<g id="node5" class="node">
<title>Node5</title>
<g id="a_node5"><a xlink:href="_extent_8hpp.html" target="_top" xlink:title=" ">
<polygon fill="white" stroke="black" points="213,-56.5 213,-75.5 366,-75.5 366,-56.5 213,-56.5"/>
<text text-anchor="middle" x="289.5" y="-63.5" font-family="Helvetica,sans-Serif" font-size="10.00">Liger&#45;Engine/RHI/Extent.hpp</text>
</a>
</g>
</g>
<!-- Node1&#45;&gt;Node5 -->
<g id="edge4" class="edge">
<title>Node1&#45;&gt;Node5</title>
<path fill="none" stroke="midnightblue" d="M360,-112.32C346.9,-103.9 326.79,-90.97 311.39,-81.07"/>
<polygon fill="midnightblue" stroke="midnightblue" points="313.27,-78.12 302.96,-75.65 309.48,-84.01 313.27,-78.12"/>
</g>
<!-- Node7 -->
<g id="node7" class="node">
<title>Node7</title>
<g id="a_node7"><a xlink:href="_filter_8hpp.html" target="_top" xlink:title=" ">
<polygon fill="white" stroke="black" points="384.5,-56.5 384.5,-75.5 530.5,-75.5 530.5,-56.5 384.5,-56.5"/>
<text text-anchor="middle" x="457.5" y="-63.5" font-family="Helvetica,sans-Serif" font-size="10.00">Liger&#45;Engine/RHI/Filter.hpp</text>
</a>
</g>
</g>
<!-- Node1&#45;&gt;Node7 -->
<g id="edge6" class="edge">
<title>Node1&#45;&gt;Node7</title>
<path fill="none" stroke="midnightblue" d="M387,-112.32C400.1,-103.9 420.21,-90.97 435.61,-81.07"/>
<polygon fill="midnightblue" stroke="midnightblue" points="437.52,-84.01 444.04,-75.65 433.73,-78.12 437.52,-84.01"/>
</g>
<!-- Node8 -->
<g id="node8" class="node">
<title>Node8</title>
<g id="a_node8"><a xlink:title=" ">
<polygon fill="white" stroke="#bfbfbf" points="548.5,-56.5 548.5,-75.5 588.5,-75.5 588.5,-56.5 548.5,-56.5"/>
<text text-anchor="middle" x="568.5" y="-63.5" font-family="Helvetica,sans-Serif" font-size="10.00">span</text>
</a>
</g>
</g>
<!-- Node1&#45;&gt;Node8 -->
<g id="edge8" class="edge">
<title>Node1&#45;&gt;Node8</title>
<path fill="none" stroke="midnightblue" d="M406.35,-112.47C437.95,-104.18 487.27,-91.03 538.64,-76.18"/>
<polygon fill="midnightblue" stroke="midnightblue" points="539.62,-79.54 548.25,-73.39 537.67,-72.82 539.62,-79.54"/>
</g>
<!-- Node3 -->
<g id="node3" class="node">
<title>Node3</title>
<g id="a_node3"><a xlink:title=" ">
<polygon fill="white" stroke="#bfbfbf" points="47,-0.5 47,-19.5 116,-19.5 116,-0.5 47,-0.5"/>
<text text-anchor="middle" x="81.5" y="-7.5" font-family="Helvetica,sans-Serif" font-size="10.00">type_traits</text>
</a>
</g>
</g>
<!-- Node2&#45;&gt;Node3 -->
<g id="edge2" class="edge">
<title>Node2&#45;&gt;Node3</title>
<path fill="none" stroke="midnightblue" d="M94.86,-56.08C92.71,-48.85 89.62,-38.41 86.95,-29.4"/>
<polygon fill="midnightblue" stroke="midnightblue" points="90.29,-28.34 84.09,-19.75 83.58,-30.33 90.29,-28.34"/>
</g>
<!-- Node4 -->
<g id="node4" class="node">
<title>Node4</title>
<g id="a_node4"><a xlink:title=" ">
<polygon fill="white" stroke="#bfbfbf" points="134,-0.5 134,-19.5 263,-19.5 263,-0.5 134,-0.5"/>
<text text-anchor="middle" x="198.5" y="-7.5" font-family="Helvetica,sans-Serif" font-size="10.00">magic_enum_flags.hpp</text>
</a>
</g>
</g>
<!-- Node2&#45;&gt;Node4 -->
<g id="edge3" class="edge">
<title>Node2&#45;&gt;Node4</title>
<path fill="none" stroke="midnightblue" d="M113.73,-56.32C129.85,-47.7 154.8,-34.36 173.46,-24.39"/>
<polygon fill="midnightblue" stroke="midnightblue" points="175.14,-27.46 182.31,-19.65 171.84,-21.28 175.14,-27.46"/>
</g>
<!-- Node6 -->
<g id="node6" class="node">
<title>Node6</title>
<g id="a_node6"><a xlink:title=" ">
<polygon fill="white" stroke="#bfbfbf" points="356.5,-0.5 356.5,-19.5 406.5,-19.5 406.5,-0.5 356.5,-0.5"/>
<text text-anchor="middle" x="381.5" y="-7.5" font-family="Helvetica,sans-Serif" font-size="10.00">cstdint</text>
</a>
</g>
</g>
<!-- Node5&#45;&gt;Node6 -->
<g id="edge5" class="edge">
<title>Node5&#45;&gt;Node6</title>
<path fill="none" stroke="midnightblue" d="M304.28,-56.32C318.77,-47.82 341.07,-34.73 357.99,-24.8"/>
<polygon fill="midnightblue" stroke="midnightblue" points="359.9,-27.74 366.76,-19.65 356.36,-21.7 359.9,-27.74"/>
</g>
<!-- Node7&#45;&gt;Node6 -->
<g id="edge7" class="edge">
<title>Node7&#45;&gt;Node6</title>
<path fill="none" stroke="midnightblue" d="M445.29,-56.32C433.72,-48.11 416.12,-35.6 402.34,-25.81"/>
<polygon fill="midnightblue" stroke="midnightblue" points="404.11,-22.77 393.93,-19.83 400.06,-28.48 404.11,-22.77"/>
</g>
</g>
</svg>
