<?xml version="1.0" encoding="UTF-8" standalone="no"?>
<!DOCTYPE svg PUBLIC "-//W3C//DTD SVG 1.1//EN"
 "http://www.w3.org/Graphics/SVG/1.1/DTD/svg11.dtd">
<!-- Generated by graphviz version 2.43.0 (0)
 -->
<!-- Title: Compiler.hpp Pages: 1 -->
<svg width="2650pt" height="532pt"
 viewBox="0.00 0.00 2649.50 532.00" xmlns="http://www.w3.org/2000/svg" xmlns:xlink="http://www.w3.org/1999/xlink">
<g id="graph0" class="graph" transform="scale(1 1) rotate(0) translate(4 528)">
<title>Compiler.hpp</title>
<polygon fill="white" stroke="transparent" points="-4,4 -4,-528 2645.5,-528 2645.5,4 -4,4"/>
<!-- Node1 -->
<g id="node1" class="node">
<title>Node1</title>
<g id="a_node1"><a xlink:title=" ">
<polygon fill="#bfbfbf" stroke="black" points="1667.5,-504.5 1667.5,-523.5 1748.5,-523.5 1748.5,-504.5 1667.5,-504.5"/>
<text text-anchor="middle" x="1708" y="-511.5" font-family="Helvetica,sans-Serif" font-size="10.00">Compiler.hpp</text>
</a>
</g>
</g>
<!-- Node2 -->
<g id="node2" class="node">
<title>Node2</title>
<g id="a_node2"><a xlink:href="_declaration_8hpp.html" target="_top" xlink:title=" ">
<polygon fill="white" stroke="black" points="1711.5,-448.5 1711.5,-467.5 1942.5,-467.5 1942.5,-448.5 1711.5,-448.5"/>
<text text-anchor="middle" x="1827" y="-455.5" font-family="Helvetica,sans-Serif" font-size="10.00">Liger&#45;Engine/ShaderSystem/Declaration.hpp</text>
</a>
</g>
</g>
<!-- Node1&#45;&gt;Node2 -->
<g id="edge1" class="edge">
<title>Node1&#45;&gt;Node2</title>
<path fill="none" stroke="midnightblue" d="M1726.86,-504.44C1746.27,-495.64 1776.73,-481.81 1798.96,-471.72"/>
<polygon fill="midnightblue" stroke="midnightblue" points="1800.57,-474.84 1808.23,-467.52 1797.68,-468.46 1800.57,-474.84"/>
</g>
<!-- Node13 -->
<g id="node13" class="node">
<title>Node13</title>
<g id="a_node13"><a xlink:href="_shader_8hpp.html" target="_top" xlink:title=" ">
<polygon fill="white" stroke="black" points="1485,-448.5 1485,-467.5 1693,-467.5 1693,-448.5 1485,-448.5"/>
<text text-anchor="middle" x="1589" y="-455.5" font-family="Helvetica,sans-Serif" font-size="10.00">Liger&#45;Engine/ShaderSystem/Shader.hpp</text>
</a>
</g>
</g>
<!-- Node1&#45;&gt;Node13 -->
<g id="edge13" class="edge">
<title>Node1&#45;&gt;Node13</title>
<path fill="none" stroke="midnightblue" d="M1689.14,-504.44C1669.73,-495.64 1639.27,-481.81 1617.04,-471.72"/>
<polygon fill="midnightblue" stroke="midnightblue" points="1618.32,-468.46 1607.77,-467.52 1615.43,-474.84 1618.32,-468.46"/>
</g>
<!-- Node3 -->
<g id="node3" class="node">
<title>Node3</title>
<g id="a_node3"><a xlink:href="_pipeline_8hpp.html" target="_top" xlink:title=" ">
<polygon fill="white" stroke="black" points="1746.5,-280.5 1746.5,-299.5 1907.5,-299.5 1907.5,-280.5 1746.5,-280.5"/>
<text text-anchor="middle" x="1827" y="-287.5" font-family="Helvetica,sans-Serif" font-size="10.00">Liger&#45;Engine/RHI/Pipeline.hpp</text>
</a>
</g>
</g>
<!-- Node2&#45;&gt;Node3 -->
<g id="edge2" class="edge">
<title>Node2&#45;&gt;Node3</title>
<path fill="none" stroke="midnightblue" d="M1827,-448.08C1827,-421.95 1827,-345.21 1827,-309.58"/>
<polygon fill="midnightblue" stroke="midnightblue" points="1830.5,-309.57 1827,-299.57 1823.5,-309.57 1830.5,-309.57"/>
</g>
<!-- Node4 -->
<g id="node4" class="node">
<title>Node4</title>
<g id="a_node4"><a xlink:href="_format_8hpp.html" target="_top" xlink:title=" ">
<polygon fill="white" stroke="black" points="1581,-112.5 1581,-131.5 1737,-131.5 1737,-112.5 1581,-112.5"/>
<text text-anchor="middle" x="1659" y="-119.5" font-family="Helvetica,sans-Serif" font-size="10.00">Liger&#45;Engine/RHI/Format.hpp</text>
</a>
</g>
</g>
<!-- Node3&#45;&gt;Node4 -->
<g id="edge3" class="edge">
<title>Node3&#45;&gt;Node4</title>
<path fill="none" stroke="midnightblue" d="M1817.97,-280.08C1790.84,-253.27 1709.79,-173.19 1675.08,-138.89"/>
<polygon fill="midnightblue" stroke="midnightblue" points="1677.24,-136.11 1667.67,-131.57 1672.32,-141.09 1677.24,-136.11"/>
</g>
<!-- Node6 -->
<g id="node6" class="node">
<title>Node6</title>
<g id="a_node6"><a xlink:href="_push_constant_info_8hpp.html" target="_top" xlink:title=" ">
<polygon fill="white" stroke="black" points="1903.5,-224.5 1903.5,-243.5 2110.5,-243.5 2110.5,-224.5 1903.5,-224.5"/>
<text text-anchor="middle" x="2007" y="-231.5" font-family="Helvetica,sans-Serif" font-size="10.00">Liger&#45;Engine/RHI/PushConstantInfo.hpp</text>
</a>
</g>
</g>
<!-- Node3&#45;&gt;Node6 -->
<g id="edge5" class="edge">
<title>Node3&#45;&gt;Node6</title>
<path fill="none" stroke="midnightblue" d="M1855.52,-280.44C1886.07,-271.28 1934.71,-256.69 1968.6,-246.52"/>
<polygon fill="midnightblue" stroke="midnightblue" points="1970.04,-249.74 1978.61,-243.52 1968.03,-243.04 1970.04,-249.74"/>
</g>
<!-- Node12 -->
<g id="node12" class="node">
<title>Node12</title>
<g id="a_node12"><a xlink:title=" ">
<polygon fill="white" stroke="#bfbfbf" points="768.5,-112.5 768.5,-131.5 815.5,-131.5 815.5,-112.5 768.5,-112.5"/>
<text text-anchor="middle" x="792" y="-119.5" font-family="Helvetica,sans-Serif" font-size="10.00">vector</text>
</a>
</g>
</g>
<!-- Node3&#45;&gt;Node12 -->
<g id="edge12" class="edge">
<title>Node3&#45;&gt;Node12</title>
<path fill="none" stroke="midnightblue" d="M1810.11,-280.33C1780.71,-265.7 1717.83,-236.51 1661,-224 1400.53,-166.68 1325.78,-227.36 1062,-188 975.45,-175.08 875.91,-147.81 825.3,-133.03"/>
<polygon fill="midnightblue" stroke="midnightblue" points="826.14,-129.63 815.56,-130.16 824.17,-136.34 826.14,-129.63"/>
</g>
<!-- Node5 -->
<g id="node5" class="node">
<title>Node5</title>
<g id="a_node5"><a xlink:title=" ">
<polygon fill="white" stroke="#bfbfbf" points="1299,-0.5 1299,-19.5 1349,-19.5 1349,-0.5 1299,-0.5"/>
<text text-anchor="middle" x="1324" y="-7.5" font-family="Helvetica,sans-Serif" font-size="10.00">cstdint</text>
</a>
</g>
</g>
<!-- Node4&#45;&gt;Node5 -->
<g id="edge4" class="edge">
<title>Node4&#45;&gt;Node5</title>
<path fill="none" stroke="midnightblue" d="M1632.99,-112.46C1573.33,-92.87 1426.59,-44.69 1359.06,-22.51"/>
<polygon fill="midnightblue" stroke="midnightblue" points="1359.9,-19.1 1349.3,-19.31 1357.71,-25.75 1359.9,-19.1"/>
</g>
<!-- Node7 -->
<g id="node7" class="node">
<title>Node7</title>
<g id="a_node7"><a xlink:href="_shader_module_8hpp.html" target="_top" xlink:title=" ">
<polygon fill="white" stroke="black" points="2297.5,-168.5 2297.5,-187.5 2488.5,-187.5 2488.5,-168.5 2297.5,-168.5"/>
<text text-anchor="middle" x="2393" y="-175.5" font-family="Helvetica,sans-Serif" font-size="10.00">Liger&#45;Engine/RHI/ShaderModule.hpp</text>
</a>
</g>
</g>
<!-- Node6&#45;&gt;Node7 -->
<g id="edge6" class="edge">
<title>Node6&#45;&gt;Node7</title>
<path fill="none" stroke="midnightblue" d="M2068.16,-224.44C2137.19,-214.79 2249.33,-199.1 2322.12,-188.92"/>
<polygon fill="midnightblue" stroke="midnightblue" points="2322.7,-192.37 2332.12,-187.52 2321.73,-185.44 2322.7,-192.37"/>
</g>
<!-- Node7&#45;&gt;Node5 -->
<g id="edge10" class="edge">
<title>Node7&#45;&gt;Node5</title>
<path fill="none" stroke="midnightblue" d="M2402.23,-168.45C2415.64,-155.03 2437.32,-128.8 2422,-112 2348.67,-31.62 1539.56,-14.35 1359.41,-11.49"/>
<polygon fill="midnightblue" stroke="midnightblue" points="1359.22,-7.99 1349.17,-11.33 1359.11,-14.99 1359.22,-7.99"/>
</g>
<!-- Node8 -->
<g id="node8" class="node">
<title>Node8</title>
<g id="a_node8"><a xlink:href="_enum_bitmask_8hpp.html" target="_top" xlink:title=" ">
<polygon fill="white" stroke="black" points="2446.5,-56.5 2446.5,-75.5 2641.5,-75.5 2641.5,-56.5 2446.5,-56.5"/>
<text text-anchor="middle" x="2544" y="-63.5" font-family="Helvetica,sans-Serif" font-size="10.00">Liger&#45;Engine/Core/EnumBitmask.hpp</text>
</a>
</g>
</g>
<!-- Node7&#45;&gt;Node8 -->
<g id="edge7" class="edge">
<title>Node7&#45;&gt;Node8</title>
<path fill="none" stroke="midnightblue" d="M2404.89,-168.38C2417.38,-159.33 2437.58,-144.68 2455,-132 2478.58,-114.83 2505.63,-95.07 2523.66,-81.88"/>
<polygon fill="midnightblue" stroke="midnightblue" points="2526.2,-84.36 2532.2,-75.63 2522.07,-78.71 2526.2,-84.36"/>
</g>
<!-- Node11 -->
<g id="node11" class="node">
<title>Node11</title>
<g id="a_node11"><a xlink:title=" ">
<polygon fill="white" stroke="#bfbfbf" points="2373,-112.5 2373,-131.5 2413,-131.5 2413,-112.5 2373,-112.5"/>
<text text-anchor="middle" x="2393" y="-119.5" font-family="Helvetica,sans-Serif" font-size="10.00">span</text>
</a>
</g>
</g>
<!-- Node7&#45;&gt;Node11 -->
<g id="edge11" class="edge">
<title>Node7&#45;&gt;Node11</title>
<path fill="none" stroke="midnightblue" d="M2393,-168.08C2393,-161.01 2393,-150.86 2393,-141.99"/>
<polygon fill="midnightblue" stroke="midnightblue" points="2396.5,-141.75 2393,-131.75 2389.5,-141.75 2396.5,-141.75"/>
</g>
<!-- Node9 -->
<g id="node9" class="node">
<title>Node9</title>
<g id="a_node9"><a xlink:title=" ">
<polygon fill="white" stroke="#bfbfbf" points="2567.5,-0.5 2567.5,-19.5 2636.5,-19.5 2636.5,-0.5 2567.5,-0.5"/>
<text text-anchor="middle" x="2602" y="-7.5" font-family="Helvetica,sans-Serif" font-size="10.00">type_traits</text>
</a>
</g>
</g>
<!-- Node8&#45;&gt;Node9 -->
<g id="edge8" class="edge">
<title>Node8&#45;&gt;Node9</title>
<path fill="none" stroke="midnightblue" d="M2553.32,-56.32C2561.89,-48.34 2574.81,-36.31 2585.19,-26.65"/>
<polygon fill="midnightblue" stroke="midnightblue" points="2587.58,-29.21 2592.51,-19.83 2582.81,-24.09 2587.58,-29.21"/>
</g>
<!-- Node10 -->
<g id="node10" class="node">
<title>Node10</title>
<g id="a_node10"><a xlink:title=" ">
<polygon fill="white" stroke="#bfbfbf" points="2420.5,-0.5 2420.5,-19.5 2549.5,-19.5 2549.5,-0.5 2420.5,-0.5"/>
<text text-anchor="middle" x="2485" y="-7.5" font-family="Helvetica,sans-Serif" font-size="10.00">magic_enum_flags.hpp</text>
</a>
</g>
</g>
<!-- Node8&#45;&gt;Node10 -->
<g id="edge9" class="edge">
<title>Node8&#45;&gt;Node10</title>
<path fill="none" stroke="midnightblue" d="M2534.52,-56.32C2525.8,-48.34 2512.66,-36.31 2502.1,-26.65"/>
<polygon fill="midnightblue" stroke="midnightblue" points="2504.39,-24 2494.65,-19.83 2499.67,-29.17 2504.39,-24"/>
</g>
<!-- Node14 -->
<g id="node14" class="node">
<title>Node14</title>
<g id="a_node14"><a xlink:href="_device_8hpp.html" target="_top" xlink:title=" ">
<polygon fill="white" stroke="black" points="1511.5,-392.5 1511.5,-411.5 1666.5,-411.5 1666.5,-392.5 1511.5,-392.5"/>
<text text-anchor="middle" x="1589" y="-399.5" font-family="Helvetica,sans-Serif" font-size="10.00">Liger&#45;Engine/RHI/Device.hpp</text>
</a>
</g>
</g>
<!-- Node13&#45;&gt;Node14 -->
<g id="edge14" class="edge">
<title>Node13&#45;&gt;Node14</title>
<path fill="none" stroke="midnightblue" d="M1589,-448.08C1589,-441.01 1589,-430.86 1589,-421.99"/>
<polygon fill="midnightblue" stroke="midnightblue" points="1592.5,-421.75 1589,-411.75 1585.5,-421.75 1592.5,-421.75"/>
</g>
<!-- Node48 -->
<g id="node48" class="node">
<title>Node48</title>
<g id="a_node48"><a xlink:href="_shader_system_2_log_channel_8hpp.html" target="_top" xlink:title=" ">
<polygon fill="white" stroke="black" points="0,-336.5 0,-355.5 232,-355.5 232,-336.5 0,-336.5"/>
<text text-anchor="middle" x="116" y="-343.5" font-family="Helvetica,sans-Serif" font-size="10.00">Liger&#45;Engine/ShaderSystem/LogChannel.hpp</text>
</a>
</g>
</g>
<!-- Node13&#45;&gt;Node48 -->
<g id="edge78" class="edge">
<title>Node13&#45;&gt;Node48</title>
<path fill="none" stroke="midnightblue" d="M1484.83,-449.22C1220.59,-429.49 525,-377.54 240.23,-356.28"/>
<polygon fill="midnightblue" stroke="midnightblue" points="240.1,-352.76 229.87,-355.5 239.58,-359.74 240.1,-352.76"/>
</g>
<!-- Node49 -->
<g id="node49" class="node">
<title>Node49</title>
<g id="a_node49"><a xlink:title=" ">
<polygon fill="white" stroke="#bfbfbf" points="1685,-392.5 1685,-411.5 1723,-411.5 1723,-392.5 1685,-392.5"/>
<text text-anchor="middle" x="1704" y="-399.5" font-family="Helvetica,sans-Serif" font-size="10.00">map</text>
</a>
</g>
</g>
<!-- Node13&#45;&gt;Node49 -->
<g id="edge80" class="edge">
<title>Node13&#45;&gt;Node49</title>
<path fill="none" stroke="midnightblue" d="M1607.22,-448.44C1625.9,-439.68 1655.16,-425.94 1676.62,-415.86"/>
<polygon fill="midnightblue" stroke="midnightblue" points="1678.3,-418.93 1685.86,-411.52 1675.32,-412.6 1678.3,-418.93"/>
</g>
<!-- Node14&#45;&gt;Node3 -->
<g id="edge21" class="edge">
<title>Node14&#45;&gt;Node3</title>
<path fill="none" stroke="midnightblue" d="M1594.63,-392.36C1604.24,-378.31 1625.21,-350.63 1650,-336 1679.08,-318.84 1714.59,-308.17 1746.15,-301.56"/>
<polygon fill="midnightblue" stroke="midnightblue" points="1747.12,-304.94 1756.24,-299.56 1745.75,-298.07 1747.12,-304.94"/>
</g>
<!-- Node14&#45;&gt;Node7 -->
<g id="edge70" class="edge">
<title>Node14&#45;&gt;Node7</title>
<path fill="none" stroke="midnightblue" d="M1620.03,-392.43C1744.89,-357.96 2210.72,-229.33 2352.08,-190.3"/>
<polygon fill="midnightblue" stroke="midnightblue" points="2353.36,-193.58 2362.07,-187.54 2351.5,-186.83 2353.36,-193.58"/>
</g>
<!-- Node15 -->
<g id="node15" class="node">
<title>Node15</title>
<g id="a_node15"><a xlink:href="_buffer_8hpp.html" target="_top" xlink:title=" ">
<polygon fill="white" stroke="black" points="1071,-168.5 1071,-187.5 1221,-187.5 1221,-168.5 1071,-168.5"/>
<text text-anchor="middle" x="1146" y="-175.5" font-family="Helvetica,sans-Serif" font-size="10.00">Liger&#45;Engine/RHI/Buffer.hpp</text>
</a>
</g>
</g>
<!-- Node14&#45;&gt;Node15 -->
<g id="edge15" class="edge">
<title>Node14&#45;&gt;Node15</title>
<path fill="none" stroke="midnightblue" d="M1511.42,-398.27C1304.04,-390.14 749.08,-362.67 698,-300 649.65,-240.68 663.35,-268.81 804,-224 888.84,-196.97 990.5,-186.16 1060.82,-181.84"/>
<polygon fill="midnightblue" stroke="midnightblue" points="1061.18,-185.33 1070.96,-181.25 1060.78,-178.34 1061.18,-185.33"/>
</g>
<!-- Node18 -->
<g id="node18" class="node">
<title>Node18</title>
<g id="a_node18"><a xlink:title=" ">
<polygon fill="white" stroke="#bfbfbf" points="708,-0.5 708,-19.5 752,-19.5 752,-0.5 708,-0.5"/>
<text text-anchor="middle" x="730" y="-7.5" font-family="Helvetica,sans-Serif" font-size="10.00">string</text>
</a>
</g>
</g>
<!-- Node14&#45;&gt;Node18 -->
<g id="edge77" class="edge">
<title>Node14&#45;&gt;Node18</title>
<path fill="none" stroke="midnightblue" d="M1511.32,-398.67C1227.05,-389.62 260,-354.2 260,-291 260,-291 260,-291 260,-233 260,-170.19 282.62,-149.5 333,-112 384.54,-73.64 413.06,-99.12 473,-76 490.81,-69.13 493.03,-62.43 511,-56 575.32,-32.99 654.7,-20.35 698.04,-14.7"/>
<polygon fill="midnightblue" stroke="midnightblue" points="698.52,-18.16 708,-13.44 697.64,-11.22 698.52,-18.16"/>
</g>
<!-- Node19 -->
<g id="node19" class="node">
<title>Node19</title>
<g id="a_node19"><a xlink:href="_render_graph_8hpp.html" target="_top" xlink:title=" ">
<polygon fill="white" stroke="black" points="979.5,-336.5 979.5,-355.5 1164.5,-355.5 1164.5,-336.5 979.5,-336.5"/>
<text text-anchor="middle" x="1072" y="-343.5" font-family="Helvetica,sans-Serif" font-size="10.00">Liger&#45;Engine/RHI/RenderGraph.hpp</text>
</a>
</g>
</g>
<!-- Node14&#45;&gt;Node19 -->
<g id="edge22" class="edge">
<title>Node14&#45;&gt;Node19</title>
<path fill="none" stroke="midnightblue" d="M1511.32,-392.89C1418.25,-383.17 1262.53,-366.9 1163.66,-356.57"/>
<polygon fill="midnightblue" stroke="midnightblue" points="1163.99,-353.09 1153.68,-355.53 1163.26,-360.05 1163.99,-353.09"/>
</g>
<!-- Node45 -->
<g id="node45" class="node">
<title>Node45</title>
<g id="a_node45"><a xlink:href="_swapchain_8hpp.html" target="_top" xlink:title=" ">
<polygon fill="white" stroke="black" points="1478,-224.5 1478,-243.5 1652,-243.5 1652,-224.5 1478,-224.5"/>
<text text-anchor="middle" x="1565" y="-231.5" font-family="Helvetica,sans-Serif" font-size="10.00">Liger&#45;Engine/RHI/Swapchain.hpp</text>
</a>
</g>
</g>
<!-- Node14&#45;&gt;Node45 -->
<g id="edge71" class="edge">
<title>Node14&#45;&gt;Node45</title>
<path fill="none" stroke="midnightblue" d="M1588.16,-392.46C1586.17,-372.64 1580.79,-322 1574,-280 1572.58,-271.24 1570.7,-261.59 1569.02,-253.47"/>
<polygon fill="midnightblue" stroke="midnightblue" points="1572.42,-252.65 1566.92,-243.59 1565.57,-254.1 1572.42,-252.65"/>
</g>
<!-- Node47 -->
<g id="node47" class="node">
<title>Node47</title>
<g id="a_node47"><a xlink:title=" ">
<polygon fill="white" stroke="#bfbfbf" points="1659,-336.5 1659,-355.5 1691,-355.5 1691,-336.5 1659,-336.5"/>
<text text-anchor="middle" x="1675" y="-343.5" font-family="Helvetica,sans-Serif" font-size="10.00">list</text>
</a>
</g>
</g>
<!-- Node14&#45;&gt;Node47 -->
<g id="edge76" class="edge">
<title>Node14&#45;&gt;Node47</title>
<path fill="none" stroke="midnightblue" d="M1602.82,-392.32C1616.23,-383.9 1636.82,-370.97 1652.59,-361.07"/>
<polygon fill="midnightblue" stroke="midnightblue" points="1654.61,-363.94 1661.22,-355.65 1650.89,-358.01 1654.61,-363.94"/>
</g>
<!-- Node16 -->
<g id="node16" class="node">
<title>Node16</title>
<g id="a_node16"><a xlink:href="_descriptor_binding_8hpp.html" target="_top" xlink:title=" ">
<polygon fill="white" stroke="black" points="910.5,-112.5 910.5,-131.5 1119.5,-131.5 1119.5,-112.5 910.5,-112.5"/>
<text text-anchor="middle" x="1015" y="-119.5" font-family="Helvetica,sans-Serif" font-size="10.00">Liger&#45;Engine/RHI/DescriptorBinding.hpp</text>
</a>
</g>
</g>
<!-- Node15&#45;&gt;Node16 -->
<g id="edge16" class="edge">
<title>Node15&#45;&gt;Node16</title>
<path fill="none" stroke="midnightblue" d="M1125.24,-168.44C1103.68,-159.56 1069.74,-145.56 1045.21,-135.45"/>
<polygon fill="midnightblue" stroke="midnightblue" points="1046.24,-132.09 1035.66,-131.52 1043.57,-138.56 1046.24,-132.09"/>
</g>
<!-- Node17 -->
<g id="node17" class="node">
<title>Node17</title>
<g id="a_node17"><a xlink:href="_device_resource_state_8hpp.html" target="_top" xlink:title=" ">
<polygon fill="white" stroke="black" points="1337,-112.5 1337,-131.5 1563,-131.5 1563,-112.5 1337,-112.5"/>
<text text-anchor="middle" x="1450" y="-119.5" font-family="Helvetica,sans-Serif" font-size="10.00">Liger&#45;Engine/RHI/DeviceResourceState.hpp</text>
</a>
</g>
</g>
<!-- Node15&#45;&gt;Node17 -->
<g id="edge18" class="edge">
<title>Node15&#45;&gt;Node17</title>
<path fill="none" stroke="midnightblue" d="M1194.17,-168.44C1247.87,-158.9 1334.69,-143.48 1392.05,-133.29"/>
<polygon fill="midnightblue" stroke="midnightblue" points="1392.82,-136.71 1402.06,-131.52 1391.6,-129.82 1392.82,-136.71"/>
</g>
<!-- Node15&#45;&gt;Node18 -->
<g id="edge20" class="edge">
<title>Node15&#45;&gt;Node18</title>
<path fill="none" stroke="midnightblue" d="M1071,-169.57C1001.27,-161.83 903.05,-148.51 868,-132 814.39,-106.75 765.84,-54.33 743.29,-27.54"/>
<polygon fill="midnightblue" stroke="midnightblue" points="745.74,-25 736.67,-19.51 740.34,-29.45 745.74,-25"/>
</g>
<!-- Node16&#45;&gt;Node5 -->
<g id="edge17" class="edge">
<title>Node16&#45;&gt;Node5</title>
<path fill="none" stroke="midnightblue" d="M1038.99,-112.46C1093.64,-93.01 1227.49,-45.36 1290.36,-22.98"/>
<polygon fill="midnightblue" stroke="midnightblue" points="1291.57,-26.26 1299.81,-19.61 1289.22,-19.67 1291.57,-26.26"/>
</g>
<!-- Node17&#45;&gt;Node8 -->
<g id="edge19" class="edge">
<title>Node17&#45;&gt;Node8</title>
<path fill="none" stroke="midnightblue" d="M1563.31,-112.53C1566.24,-112.35 1569.14,-112.17 1572,-112 1885.67,-93.17 2256.69,-77.95 2436.11,-71.03"/>
<polygon fill="midnightblue" stroke="midnightblue" points="2436.49,-74.52 2446.34,-70.64 2436.22,-67.52 2436.49,-74.52"/>
</g>
<!-- Node19&#45;&gt;Node15 -->
<g id="edge27" class="edge">
<title>Node19&#45;&gt;Node15</title>
<path fill="none" stroke="midnightblue" d="M1060.5,-336.26C1040.74,-320.43 1001.03,-284.85 986,-244 982.93,-235.66 980.63,-231.09 986,-224 997.64,-208.64 1040.68,-197.06 1079.2,-189.49"/>
<polygon fill="midnightblue" stroke="midnightblue" points="1080.22,-192.86 1089.39,-187.56 1078.91,-185.99 1080.22,-192.86"/>
</g>
<!-- Node20 -->
<g id="node20" class="node">
<title>Node20</title>
<g id="a_node20"><a xlink:href="_dependency_graph_8hpp.html" target="_top" xlink:title=" ">
<polygon fill="white" stroke="black" points="546,-168.5 546,-187.5 818,-187.5 818,-168.5 546,-168.5"/>
<text text-anchor="middle" x="682" y="-175.5" font-family="Helvetica,sans-Serif" font-size="10.00">Liger&#45;Engine/Core/Containers/DependencyGraph.hpp</text>
</a>
</g>
</g>
<!-- Node19&#45;&gt;Node20 -->
<g id="edge23" class="edge">
<title>Node19&#45;&gt;Node20</title>
<path fill="none" stroke="midnightblue" d="M979.05,-339.7C874.81,-332.85 717.68,-319.45 698,-300 670.83,-273.15 673.99,-224.12 678.24,-197.46"/>
<polygon fill="midnightblue" stroke="midnightblue" points="681.7,-198 680.04,-187.53 674.81,-196.75 681.7,-198"/>
</g>
<!-- Node22 -->
<g id="node22" class="node">
<title>Node22</title>
<g id="a_node22"><a xlink:href="_command_buffer_8hpp.html" target="_top" xlink:title=" ">
<polygon fill="white" stroke="black" points="1944,-168.5 1944,-187.5 2144,-187.5 2144,-168.5 1944,-168.5"/>
<text text-anchor="middle" x="2044" y="-175.5" font-family="Helvetica,sans-Serif" font-size="10.00">Liger&#45;Engine/RHI/CommandBuffer.hpp</text>
</a>
</g>
</g>
<!-- Node19&#45;&gt;Node22 -->
<g id="edge28" class="edge">
<title>Node19&#45;&gt;Node22</title>
<path fill="none" stroke="midnightblue" d="M1164.65,-341.21C1265.83,-336.02 1432.37,-324.41 1574,-300 1738.1,-271.72 1928.93,-214.99 2007.43,-190.59"/>
<polygon fill="midnightblue" stroke="midnightblue" points="2008.81,-193.83 2017.31,-187.51 2006.72,-187.15 2008.81,-193.83"/>
</g>
<!-- Node28 -->
<g id="node28" class="node">
<title>Node28</title>
<g id="a_node28"><a xlink:href="_context_8hpp.html" target="_top" xlink:title=" ">
<polygon fill="white" stroke="black" points="1119,-280.5 1119,-299.5 1279,-299.5 1279,-280.5 1119,-280.5"/>
<text text-anchor="middle" x="1199" y="-287.5" font-family="Helvetica,sans-Serif" font-size="10.00">Liger&#45;Engine/RHI/Context.hpp</text>
</a>
</g>
</g>
<!-- Node19&#45;&gt;Node28 -->
<g id="edge39" class="edge">
<title>Node19&#45;&gt;Node28</title>
<path fill="none" stroke="midnightblue" d="M1092.12,-336.44C1113.02,-327.56 1145.93,-313.56 1169.72,-303.45"/>
<polygon fill="midnightblue" stroke="midnightblue" points="1171.14,-306.65 1178.97,-299.52 1168.4,-300.21 1171.14,-306.65"/>
</g>
<!-- Node32 -->
<g id="node32" class="node">
<title>Node32</title>
<g id="a_node32"><a xlink:title=" ">
<polygon fill="white" stroke="#bfbfbf" points="322.5,-0.5 322.5,-19.5 395.5,-19.5 395.5,-0.5 322.5,-0.5"/>
<text text-anchor="middle" x="359" y="-7.5" font-family="Helvetica,sans-Serif" font-size="10.00">string_view</text>
</a>
</g>
</g>
<!-- Node19&#45;&gt;Node32 -->
<g id="edge68" class="edge">
<title>Node19&#45;&gt;Node32</title>
<path fill="none" stroke="midnightblue" d="M979.13,-339.45C899.38,-333.47 781.69,-321.73 681,-300 521.76,-265.63 465.48,-281.38 332,-188 274.43,-147.72 205.48,-114.09 245,-56 260.1,-33.81 287.99,-22.56 312.4,-16.86"/>
<polygon fill="midnightblue" stroke="midnightblue" points="313.18,-20.28 322.25,-14.81 311.75,-13.42 313.18,-20.28"/>
</g>
<!-- Node37 -->
<g id="node37" class="node">
<title>Node37</title>
<g id="a_node37"><a xlink:title=" ">
<polygon fill="white" stroke="#bfbfbf" points="1328.5,-224.5 1328.5,-243.5 1421.5,-243.5 1421.5,-224.5 1328.5,-224.5"/>
<text text-anchor="middle" x="1375" y="-231.5" font-family="Helvetica,sans-Serif" font-size="10.00">unordered_map</text>
</a>
</g>
</g>
<!-- Node19&#45;&gt;Node37 -->
<g id="edge69" class="edge">
<title>Node19&#45;&gt;Node37</title>
<path fill="none" stroke="midnightblue" d="M1154.11,-336.47C1195.6,-330.05 1245.92,-318.97 1288,-300 1315.22,-287.73 1342.06,-265.76 1358.57,-250.79"/>
<polygon fill="midnightblue" stroke="midnightblue" points="1361.27,-253.06 1366.21,-243.69 1356.51,-247.93 1361.27,-253.06"/>
</g>
<!-- Node38 -->
<g id="node38" class="node">
<title>Node38</title>
<g id="a_node38"><a xlink:href="_dependent_texture_info_8hpp.html" target="_top" xlink:title=" ">
<polygon fill="white" stroke="black" points="1335,-280.5 1335,-299.5 1565,-299.5 1565,-280.5 1335,-280.5"/>
<text text-anchor="middle" x="1450" y="-287.5" font-family="Helvetica,sans-Serif" font-size="10.00">Liger&#45;Engine/RHI/DependentTextureInfo.hpp</text>
</a>
</g>
</g>
<!-- Node19&#45;&gt;Node38 -->
<g id="edge53" class="edge">
<title>Node19&#45;&gt;Node38</title>
<path fill="none" stroke="midnightblue" d="M1131.9,-336.44C1199.36,-326.81 1308.86,-311.16 1380.15,-300.98"/>
<polygon fill="midnightblue" stroke="midnightblue" points="1380.98,-304.4 1390.38,-299.52 1379.99,-297.47 1380.98,-304.4"/>
</g>
<!-- Node41 -->
<g id="node41" class="node">
<title>Node41</title>
<g id="a_node41"><a xlink:href="_resource_version_registry_8hpp.html" target="_top" xlink:title=" ">
<polygon fill="white" stroke="black" points="707,-280.5 707,-299.5 949,-299.5 949,-280.5 707,-280.5"/>
<text text-anchor="middle" x="828" y="-287.5" font-family="Helvetica,sans-Serif" font-size="10.00">Liger&#45;Engine/RHI/ResourceVersionRegistry.hpp</text>
</a>
</g>
</g>
<!-- Node19&#45;&gt;Node41 -->
<g id="edge62" class="edge">
<title>Node19&#45;&gt;Node41</title>
<path fill="none" stroke="midnightblue" d="M1033.34,-336.44C990.86,-327.04 922.57,-311.93 876.53,-301.74"/>
<polygon fill="midnightblue" stroke="midnightblue" points="877,-298.26 866.48,-299.52 875.49,-305.09 877,-298.26"/>
</g>
<!-- Node42 -->
<g id="node42" class="node">
<title>Node42</title>
<g id="a_node42"><a xlink:title=" ">
<polygon fill="white" stroke="#bfbfbf" points="883,-224.5 883,-243.5 939,-243.5 939,-224.5 883,-224.5"/>
<text text-anchor="middle" x="911" y="-231.5" font-family="Helvetica,sans-Serif" font-size="10.00">optional</text>
</a>
</g>
</g>
<!-- Node19&#45;&gt;Node42 -->
<g id="edge67" class="edge">
<title>Node19&#45;&gt;Node42</title>
<path fill="none" stroke="midnightblue" d="M1057.96,-336.45C1043.52,-327.58 1020.46,-313.17 1001,-300 976.31,-283.28 948.6,-263.04 930.53,-249.63"/>
<polygon fill="midnightblue" stroke="midnightblue" points="932.6,-246.81 922.49,-243.64 928.42,-252.42 932.6,-246.81"/>
</g>
<!-- Node44 -->
<g id="node44" class="node">
<title>Node44</title>
<g id="a_node44"><a xlink:title=" ">
<polygon fill="white" stroke="#bfbfbf" points="1043,-280.5 1043,-299.5 1101,-299.5 1101,-280.5 1043,-280.5"/>
<text text-anchor="middle" x="1072" y="-287.5" font-family="Helvetica,sans-Serif" font-size="10.00">memory</text>
</a>
</g>
</g>
<!-- Node19&#45;&gt;Node44 -->
<g id="edge66" class="edge">
<title>Node19&#45;&gt;Node44</title>
<path fill="none" stroke="midnightblue" d="M1072,-336.08C1072,-329.01 1072,-318.86 1072,-309.99"/>
<polygon fill="midnightblue" stroke="midnightblue" points="1075.5,-309.75 1072,-299.75 1068.5,-309.75 1075.5,-309.75"/>
</g>
<!-- Node20&#45;&gt;Node5 -->
<g id="edge25" class="edge">
<title>Node20&#45;&gt;Node5</title>
<path fill="none" stroke="midnightblue" d="M689.52,-168.18C702.24,-153.88 729.55,-125.83 759,-112 944.67,-24.82 1197.06,-12.54 1288.82,-11.07"/>
<polygon fill="midnightblue" stroke="midnightblue" points="1289,-14.57 1298.95,-10.95 1288.91,-7.57 1289,-14.57"/>
</g>
<!-- Node20&#45;&gt;Node12 -->
<g id="edge26" class="edge">
<title>Node20&#45;&gt;Node12</title>
<path fill="none" stroke="midnightblue" d="M699.67,-168.32C717.39,-159.62 744.9,-146.12 765.29,-136.11"/>
<polygon fill="midnightblue" stroke="midnightblue" points="766.94,-139.2 774.37,-131.65 763.85,-132.92 766.94,-139.2"/>
</g>
<!-- Node21 -->
<g id="node21" class="node">
<title>Node21</title>
<g id="a_node21"><a xlink:title=" ">
<polygon fill="white" stroke="#bfbfbf" points="660,-112.5 660,-131.5 712,-131.5 712,-112.5 660,-112.5"/>
<text text-anchor="middle" x="686" y="-119.5" font-family="Helvetica,sans-Serif" font-size="10.00">cassert</text>
</a>
</g>
</g>
<!-- Node20&#45;&gt;Node21 -->
<g id="edge24" class="edge">
<title>Node20&#45;&gt;Node21</title>
<path fill="none" stroke="midnightblue" d="M682.66,-168.08C683.18,-161.01 683.94,-150.86 684.59,-141.99"/>
<polygon fill="midnightblue" stroke="midnightblue" points="688.1,-141.98 685.35,-131.75 681.12,-141.47 688.1,-141.98"/>
</g>
<!-- Node22&#45;&gt;Node8 -->
<g id="edge29" class="edge">
<title>Node22&#45;&gt;Node8</title>
<path fill="none" stroke="midnightblue" d="M2144.09,-169.05C2198.86,-162.72 2267.32,-151.54 2326,-132 2344.11,-125.97 2346.17,-118.81 2364,-112 2404.02,-96.72 2451.04,-85.17 2486.99,-77.6"/>
<polygon fill="midnightblue" stroke="midnightblue" points="2487.73,-81.02 2496.82,-75.57 2486.31,-74.16 2487.73,-81.02"/>
</g>
<!-- Node22&#45;&gt;Node11 -->
<g id="edge38" class="edge">
<title>Node22&#45;&gt;Node11</title>
<path fill="none" stroke="midnightblue" d="M2121.46,-168.49C2185.49,-160.85 2278.61,-148.32 2359,-132 2360.28,-131.74 2361.58,-131.46 2362.89,-131.17"/>
<polygon fill="midnightblue" stroke="midnightblue" points="2364.07,-134.49 2372.96,-128.72 2362.41,-127.68 2364.07,-134.49"/>
</g>
<!-- Node22&#45;&gt;Node17 -->
<g id="edge30" class="edge">
<title>Node22&#45;&gt;Node17</title>
<path fill="none" stroke="midnightblue" d="M1950.21,-168.47C1842.42,-158.67 1666.02,-142.64 1554.08,-132.46"/>
<polygon fill="midnightblue" stroke="midnightblue" points="1554.07,-128.95 1543.79,-131.53 1553.43,-135.92 1554.07,-128.95"/>
</g>
<!-- Node23 -->
<g id="node23" class="node">
<title>Node23</title>
<g id="a_node23"><a xlink:href="_extent_8hpp.html" target="_top" xlink:title=" ">
<polygon fill="white" stroke="black" points="1793.5,-112.5 1793.5,-131.5 1946.5,-131.5 1946.5,-112.5 1793.5,-112.5"/>
<text text-anchor="middle" x="1870" y="-119.5" font-family="Helvetica,sans-Serif" font-size="10.00">Liger&#45;Engine/RHI/Extent.hpp</text>
</a>
</g>
</g>
<!-- Node22&#45;&gt;Node23 -->
<g id="edge31" class="edge">
<title>Node22&#45;&gt;Node23</title>
<path fill="none" stroke="midnightblue" d="M2016.43,-168.44C1986.9,-159.28 1939.88,-144.69 1907.12,-134.52"/>
<polygon fill="midnightblue" stroke="midnightblue" points="1908.03,-131.14 1897.44,-131.52 1905.96,-137.82 1908.03,-131.14"/>
</g>
<!-- Node24 -->
<g id="node24" class="node">
<title>Node24</title>
<g id="a_node24"><a xlink:href="_filter_8hpp.html" target="_top" xlink:title=" ">
<polygon fill="white" stroke="black" points="1251,-56.5 1251,-75.5 1397,-75.5 1397,-56.5 1251,-56.5"/>
<text text-anchor="middle" x="1324" y="-63.5" font-family="Helvetica,sans-Serif" font-size="10.00">Liger&#45;Engine/RHI/Filter.hpp</text>
</a>
</g>
</g>
<!-- Node22&#45;&gt;Node24 -->
<g id="edge33" class="edge">
<title>Node22&#45;&gt;Node24</title>
<path fill="none" stroke="midnightblue" d="M1956.64,-168.48C1905.65,-161.88 1840.61,-150.61 1785,-132 1766.53,-125.82 1764.67,-117.57 1746,-112 1684.59,-93.67 1511.78,-79.47 1407.33,-72.26"/>
<polygon fill="midnightblue" stroke="midnightblue" points="1407.34,-68.75 1397.12,-71.56 1406.86,-75.73 1407.34,-68.75"/>
</g>
<!-- Node25 -->
<g id="node25" class="node">
<title>Node25</title>
<g id="a_node25"><a xlink:href="_job_type_8hpp.html" target="_top" xlink:title=" ">
<polygon fill="white" stroke="black" points="1964.5,-112.5 1964.5,-131.5 2123.5,-131.5 2123.5,-112.5 1964.5,-112.5"/>
<text text-anchor="middle" x="2044" y="-119.5" font-family="Helvetica,sans-Serif" font-size="10.00">Liger&#45;Engine/RHI/JobType.hpp</text>
</a>
</g>
</g>
<!-- Node22&#45;&gt;Node25 -->
<g id="edge35" class="edge">
<title>Node22&#45;&gt;Node25</title>
<path fill="none" stroke="midnightblue" d="M2044,-168.08C2044,-161.01 2044,-150.86 2044,-141.99"/>
<polygon fill="midnightblue" stroke="midnightblue" points="2047.5,-141.75 2044,-131.75 2040.5,-141.75 2047.5,-141.75"/>
</g>
<!-- Node26 -->
<g id="node26" class="node">
<title>Node26</title>
<g id="a_node26"><a xlink:title=" ">
<polygon fill="white" stroke="#bfbfbf" points="2141.5,-112.5 2141.5,-131.5 2220.5,-131.5 2220.5,-112.5 2141.5,-112.5"/>
<text text-anchor="middle" x="2181" y="-119.5" font-family="Helvetica,sans-Serif" font-size="10.00">fmt/format.h</text>
</a>
</g>
</g>
<!-- Node22&#45;&gt;Node26 -->
<g id="edge36" class="edge">
<title>Node22&#45;&gt;Node26</title>
<path fill="none" stroke="midnightblue" d="M2065.71,-168.44C2088.35,-159.52 2124.07,-145.44 2149.75,-135.32"/>
<polygon fill="midnightblue" stroke="midnightblue" points="2151.37,-138.44 2159.39,-131.52 2148.81,-131.93 2151.37,-138.44"/>
</g>
<!-- Node27 -->
<g id="node27" class="node">
<title>Node27</title>
<g id="a_node27"><a xlink:title=" ">
<polygon fill="white" stroke="#bfbfbf" points="2239,-112.5 2239,-131.5 2317,-131.5 2317,-112.5 2239,-112.5"/>
<text text-anchor="middle" x="2278" y="-119.5" font-family="Helvetica,sans-Serif" font-size="10.00">glm/glm.hpp</text>
</a>
</g>
</g>
<!-- Node22&#45;&gt;Node27 -->
<g id="edge37" class="edge">
<title>Node22&#45;&gt;Node27</title>
<path fill="none" stroke="midnightblue" d="M2081.08,-168.44C2121.73,-159.06 2187.03,-143.99 2231.18,-133.8"/>
<polygon fill="midnightblue" stroke="midnightblue" points="2232.14,-137.18 2241.1,-131.52 2230.56,-130.35 2232.14,-137.18"/>
</g>
<!-- Node23&#45;&gt;Node5 -->
<g id="edge32" class="edge">
<title>Node23&#45;&gt;Node5</title>
<path fill="none" stroke="midnightblue" d="M1827.61,-112.46C1723.18,-91.42 1455.02,-37.4 1358.92,-18.03"/>
<polygon fill="midnightblue" stroke="midnightblue" points="1359.61,-14.6 1349.12,-16.06 1358.23,-21.47 1359.61,-14.6"/>
</g>
<!-- Node24&#45;&gt;Node5 -->
<g id="edge34" class="edge">
<title>Node24&#45;&gt;Node5</title>
<path fill="none" stroke="midnightblue" d="M1324,-56.08C1324,-49.01 1324,-38.86 1324,-29.99"/>
<polygon fill="midnightblue" stroke="midnightblue" points="1327.5,-29.75 1324,-19.75 1320.5,-29.75 1327.5,-29.75"/>
</g>
<!-- Node29 -->
<g id="node29" class="node">
<title>Node29</title>
<g id="a_node29"><a xlink:href="_r_h_i_2_log_channel_8hpp.html" target="_top" xlink:title=" ">
<polygon fill="white" stroke="black" points="995.5,-224.5 995.5,-243.5 1174.5,-243.5 1174.5,-224.5 995.5,-224.5"/>
<text text-anchor="middle" x="1085" y="-231.5" font-family="Helvetica,sans-Serif" font-size="10.00">Liger&#45;Engine/RHI/LogChannel.hpp</text>
</a>
</g>
</g>
<!-- Node28&#45;&gt;Node29 -->
<g id="edge40" class="edge">
<title>Node28&#45;&gt;Node29</title>
<path fill="none" stroke="midnightblue" d="M1180.94,-280.44C1162.43,-271.68 1133.42,-257.94 1112.14,-247.86"/>
<polygon fill="midnightblue" stroke="midnightblue" points="1113.51,-244.63 1102.98,-243.52 1110.52,-250.96 1113.51,-244.63"/>
</g>
<!-- Node35 -->
<g id="node35" class="node">
<title>Node35</title>
<g id="a_node35"><a xlink:title=" ">
<polygon fill="white" stroke="#bfbfbf" points="1192.5,-224.5 1192.5,-243.5 1227.5,-243.5 1227.5,-224.5 1192.5,-224.5"/>
<text text-anchor="middle" x="1210" y="-231.5" font-family="Helvetica,sans-Serif" font-size="10.00">any</text>
</a>
</g>
</g>
<!-- Node28&#45;&gt;Node35 -->
<g id="edge50" class="edge">
<title>Node28&#45;&gt;Node35</title>
<path fill="none" stroke="midnightblue" d="M1200.82,-280.08C1202.27,-272.93 1204.37,-262.64 1206.19,-253.69"/>
<polygon fill="midnightblue" stroke="midnightblue" points="1209.65,-254.25 1208.22,-243.75 1202.79,-252.85 1209.65,-254.25"/>
</g>
<!-- Node36 -->
<g id="node36" class="node">
<title>Node36</title>
<g id="a_node36"><a xlink:title=" ">
<polygon fill="white" stroke="#bfbfbf" points="1245.5,-224.5 1245.5,-243.5 1310.5,-243.5 1310.5,-224.5 1245.5,-224.5"/>
<text text-anchor="middle" x="1278" y="-231.5" font-family="Helvetica,sans-Serif" font-size="10.00">typeindex</text>
</a>
</g>
</g>
<!-- Node28&#45;&gt;Node36 -->
<g id="edge51" class="edge">
<title>Node28&#45;&gt;Node36</title>
<path fill="none" stroke="midnightblue" d="M1211.69,-280.32C1223.9,-271.98 1242.58,-259.21 1257,-249.35"/>
<polygon fill="midnightblue" stroke="midnightblue" points="1259.06,-252.19 1265.34,-243.65 1255.11,-246.41 1259.06,-252.19"/>
</g>
<!-- Node28&#45;&gt;Node37 -->
<g id="edge52" class="edge">
<title>Node28&#45;&gt;Node37</title>
<path fill="none" stroke="midnightblue" d="M1226.89,-280.44C1256.75,-271.28 1304.31,-256.69 1337.46,-246.52"/>
<polygon fill="midnightblue" stroke="midnightblue" points="1338.71,-249.8 1347.24,-243.52 1336.66,-243.1 1338.71,-249.8"/>
</g>
<!-- Node30 -->
<g id="node30" class="node">
<title>Node30</title>
<g id="a_node30"><a xlink:href="_log_8hpp.html" target="_top" xlink:title=" ">
<polygon fill="white" stroke="black" points="364,-168.5 364,-187.5 528,-187.5 528,-168.5 364,-168.5"/>
<text text-anchor="middle" x="446" y="-175.5" font-family="Helvetica,sans-Serif" font-size="10.00">Liger&#45;Engine/Core/Log/Log.hpp</text>
</a>
</g>
</g>
<!-- Node29&#45;&gt;Node30 -->
<g id="edge41" class="edge">
<title>Node29&#45;&gt;Node30</title>
<path fill="none" stroke="midnightblue" d="M995.26,-226.09C888.81,-217.79 705.71,-203.19 538.32,-188.11"/>
<polygon fill="midnightblue" stroke="midnightblue" points="538.61,-184.62 528.33,-187.2 537.98,-191.59 538.61,-184.62"/>
</g>
<!-- Node30&#45;&gt;Node12 -->
<g id="edge49" class="edge">
<title>Node30&#45;&gt;Node12</title>
<path fill="none" stroke="midnightblue" d="M500.82,-168.44C573.27,-157.14 698.67,-137.57 758.44,-128.24"/>
<polygon fill="midnightblue" stroke="midnightblue" points="759.13,-131.67 768.47,-126.67 758.05,-124.76 759.13,-131.67"/>
</g>
<!-- Node31 -->
<g id="node31" class="node">
<title>Node31</title>
<g id="a_node31"><a xlink:href="_message_8hpp.html" target="_top" xlink:title=" ">
<polygon fill="white" stroke="black" points="520.5,-56.5 520.5,-75.5 711.5,-75.5 711.5,-56.5 520.5,-56.5"/>
<text text-anchor="middle" x="616" y="-63.5" font-family="Helvetica,sans-Serif" font-size="10.00">Liger&#45;Engine/Core/Log/Message.hpp</text>
</a>
</g>
</g>
<!-- Node30&#45;&gt;Node31 -->
<g id="edge42" class="edge">
<title>Node30&#45;&gt;Node31</title>
<path fill="none" stroke="midnightblue" d="M505.71,-168.45C547.96,-161.07 599.41,-148.91 613,-132 623.27,-119.21 622.86,-100.02 620.57,-85.81"/>
<polygon fill="midnightblue" stroke="midnightblue" points="623.94,-84.79 618.51,-75.69 617.08,-86.19 623.94,-84.79"/>
</g>
<!-- Node33 -->
<g id="node33" class="node">
<title>Node33</title>
<g id="a_node33"><a xlink:href="_writer_8hpp.html" target="_top" xlink:title=" ">
<polygon fill="white" stroke="black" points="428,-112.5 428,-131.5 604,-131.5 604,-112.5 428,-112.5"/>
<text text-anchor="middle" x="516" y="-119.5" font-family="Helvetica,sans-Serif" font-size="10.00">Liger&#45;Engine/Core/Log/Writer.hpp</text>
</a>
</g>
</g>
<!-- Node30&#45;&gt;Node33 -->
<g id="edge46" class="edge">
<title>Node30&#45;&gt;Node33</title>
<path fill="none" stroke="midnightblue" d="M457.25,-168.32C467.8,-160.18 483.8,-147.84 496.44,-138.09"/>
<polygon fill="midnightblue" stroke="midnightblue" points="498.77,-140.71 504.55,-131.83 494.49,-135.17 498.77,-140.71"/>
</g>
<!-- Node34 -->
<g id="node34" class="node">
<title>Node34</title>
<g id="a_node34"><a xlink:title=" ">
<polygon fill="white" stroke="#bfbfbf" points="342.5,-112.5 342.5,-131.5 409.5,-131.5 409.5,-112.5 342.5,-112.5"/>
<text text-anchor="middle" x="376" y="-119.5" font-family="Helvetica,sans-Serif" font-size="10.00">fmt/core.h</text>
</a>
</g>
</g>
<!-- Node30&#45;&gt;Node34 -->
<g id="edge48" class="edge">
<title>Node30&#45;&gt;Node34</title>
<path fill="none" stroke="midnightblue" d="M434.75,-168.32C424.2,-160.18 408.2,-147.84 395.56,-138.09"/>
<polygon fill="midnightblue" stroke="midnightblue" points="397.51,-135.17 387.45,-131.83 393.23,-140.71 397.51,-135.17"/>
</g>
<!-- Node31&#45;&gt;Node5 -->
<g id="edge43" class="edge">
<title>Node31&#45;&gt;Node5</title>
<path fill="none" stroke="midnightblue" d="M711.69,-57.13C716.53,-56.75 721.32,-56.37 726,-56 939.66,-39.22 1196.36,-20.33 1288.74,-13.57"/>
<polygon fill="midnightblue" stroke="midnightblue" points="1289.21,-17.05 1298.93,-12.83 1288.7,-10.07 1289.21,-17.05"/>
</g>
<!-- Node31&#45;&gt;Node18 -->
<g id="edge44" class="edge">
<title>Node31&#45;&gt;Node18</title>
<path fill="none" stroke="midnightblue" d="M634.06,-56.44C652.57,-47.68 681.58,-33.94 702.86,-23.86"/>
<polygon fill="midnightblue" stroke="midnightblue" points="704.48,-26.96 712.02,-19.52 701.49,-20.63 704.48,-26.96"/>
</g>
<!-- Node31&#45;&gt;Node32 -->
<g id="edge45" class="edge">
<title>Node31&#45;&gt;Node32</title>
<path fill="none" stroke="midnightblue" d="M575.28,-56.44C529.16,-46.75 454.15,-30.99 405.7,-20.81"/>
<polygon fill="midnightblue" stroke="midnightblue" points="406.29,-17.36 395.78,-18.73 404.85,-24.21 406.29,-17.36"/>
</g>
<!-- Node33&#45;&gt;Node31 -->
<g id="edge47" class="edge">
<title>Node33&#45;&gt;Node31</title>
<path fill="none" stroke="midnightblue" d="M532.07,-112.32C547.96,-103.74 572.51,-90.49 590.96,-80.52"/>
<polygon fill="midnightblue" stroke="midnightblue" points="592.84,-83.49 599.97,-75.65 589.51,-77.33 592.84,-83.49"/>
</g>
<!-- Node39 -->
<g id="node39" class="node">
<title>Node39</title>
<g id="a_node39"><a xlink:href="_texture_8hpp.html" target="_top" xlink:title=" ">
<polygon fill="white" stroke="black" points="1371,-168.5 1371,-187.5 1529,-187.5 1529,-168.5 1371,-168.5"/>
<text text-anchor="middle" x="1450" y="-175.5" font-family="Helvetica,sans-Serif" font-size="10.00">Liger&#45;Engine/RHI/Texture.hpp</text>
</a>
</g>
</g>
<!-- Node38&#45;&gt;Node39 -->
<g id="edge54" class="edge">
<title>Node38&#45;&gt;Node39</title>
<path fill="none" stroke="midnightblue" d="M1450,-280.37C1450,-262.62 1450,-221.67 1450,-197.6"/>
<polygon fill="midnightblue" stroke="midnightblue" points="1453.5,-197.59 1450,-187.59 1446.5,-197.59 1453.5,-197.59"/>
</g>
<!-- Node39&#45;&gt;Node4 -->
<g id="edge58" class="edge">
<title>Node39&#45;&gt;Node4</title>
<path fill="none" stroke="midnightblue" d="M1483.12,-168.44C1519.12,-159.14 1576.77,-144.25 1616.19,-134.06"/>
<polygon fill="midnightblue" stroke="midnightblue" points="1617.23,-137.41 1626.04,-131.52 1615.48,-130.63 1617.23,-137.41"/>
</g>
<!-- Node39&#45;&gt;Node16 -->
<g id="edge55" class="edge">
<title>Node39&#45;&gt;Node16</title>
<path fill="none" stroke="midnightblue" d="M1381.07,-168.44C1302.88,-158.74 1175.62,-142.94 1093.62,-132.76"/>
<polygon fill="midnightblue" stroke="midnightblue" points="1093.96,-129.28 1083.6,-131.52 1093.1,-136.22 1093.96,-129.28"/>
</g>
<!-- Node39&#45;&gt;Node17 -->
<g id="edge56" class="edge">
<title>Node39&#45;&gt;Node17</title>
<path fill="none" stroke="midnightblue" d="M1450,-168.08C1450,-161.01 1450,-150.86 1450,-141.99"/>
<polygon fill="midnightblue" stroke="midnightblue" points="1453.5,-141.75 1450,-131.75 1446.5,-141.75 1453.5,-141.75"/>
</g>
<!-- Node39&#45;&gt;Node18 -->
<g id="edge61" class="edge">
<title>Node39&#45;&gt;Node18</title>
<path fill="none" stroke="midnightblue" d="M1370.93,-172.83C1229.51,-165.04 944,-147.64 901,-132 898.86,-131.22 795.48,-57.66 750.52,-25.63"/>
<polygon fill="midnightblue" stroke="midnightblue" points="752.29,-22.59 742.11,-19.63 748.23,-28.29 752.29,-22.59"/>
</g>
<!-- Node39&#45;&gt;Node23 -->
<g id="edge57" class="edge">
<title>Node39&#45;&gt;Node23</title>
<path fill="none" stroke="midnightblue" d="M1516.55,-168.44C1591.82,-158.77 1714.17,-143.04 1793.36,-132.85"/>
<polygon fill="midnightblue" stroke="midnightblue" points="1794.29,-136.26 1803.76,-131.52 1793.4,-129.32 1794.29,-136.26"/>
</g>
<!-- Node40 -->
<g id="node40" class="node">
<title>Node40</title>
<g id="a_node40"><a xlink:href="_sampler_info_8hpp.html" target="_top" xlink:title=" ">
<polygon fill="white" stroke="black" points="1137.5,-112.5 1137.5,-131.5 1318.5,-131.5 1318.5,-112.5 1137.5,-112.5"/>
<text text-anchor="middle" x="1228" y="-119.5" font-family="Helvetica,sans-Serif" font-size="10.00">Liger&#45;Engine/RHI/SamplerInfo.hpp</text>
</a>
</g>
</g>
<!-- Node39&#45;&gt;Node40 -->
<g id="edge59" class="edge">
<title>Node39&#45;&gt;Node40</title>
<path fill="none" stroke="midnightblue" d="M1414.82,-168.44C1376.42,-159.1 1314.82,-144.12 1272.94,-133.93"/>
<polygon fill="midnightblue" stroke="midnightblue" points="1273.56,-130.48 1263.01,-131.52 1271.9,-137.28 1273.56,-130.48"/>
</g>
<!-- Node40&#45;&gt;Node24 -->
<g id="edge60" class="edge">
<title>Node40&#45;&gt;Node24</title>
<path fill="none" stroke="midnightblue" d="M1243.42,-112.32C1258.54,-103.82 1281.82,-90.73 1299.47,-80.8"/>
<polygon fill="midnightblue" stroke="midnightblue" points="1301.61,-83.61 1308.61,-75.65 1298.18,-77.51 1301.61,-83.61"/>
</g>
<!-- Node41&#45;&gt;Node12 -->
<g id="edge65" class="edge">
<title>Node41&#45;&gt;Node12</title>
<path fill="none" stroke="midnightblue" d="M821.63,-280.23C815.74,-271.53 807.39,-257.57 804,-244 801.84,-235.38 801.51,-232.53 804,-224 809.32,-205.78 821.68,-206.22 827,-188 829.49,-179.47 829.88,-176.41 827,-168 823.28,-157.16 815.77,-146.92 808.65,-138.96"/>
<polygon fill="midnightblue" stroke="midnightblue" points="811,-136.35 801.56,-131.55 805.95,-141.19 811,-136.35"/>
</g>
<!-- Node41&#45;&gt;Node42 -->
<g id="edge63" class="edge">
<title>Node41&#45;&gt;Node42</title>
<path fill="none" stroke="midnightblue" d="M841.34,-280.32C854.16,-271.98 873.78,-259.21 888.94,-249.35"/>
<polygon fill="midnightblue" stroke="midnightblue" points="891.22,-252.04 897.7,-243.65 887.41,-246.17 891.22,-252.04"/>
</g>
<!-- Node43 -->
<g id="node43" class="node">
<title>Node43</title>
<g id="a_node43"><a xlink:title=" ">
<polygon fill="white" stroke="#bfbfbf" points="813.5,-224.5 813.5,-243.5 864.5,-243.5 864.5,-224.5 813.5,-224.5"/>
<text text-anchor="middle" x="839" y="-231.5" font-family="Helvetica,sans-Serif" font-size="10.00">variant</text>
</a>
</g>
</g>
<!-- Node41&#45;&gt;Node43 -->
<g id="edge64" class="edge">
<title>Node41&#45;&gt;Node43</title>
<path fill="none" stroke="midnightblue" d="M829.82,-280.08C831.27,-272.93 833.37,-262.64 835.19,-253.69"/>
<polygon fill="midnightblue" stroke="midnightblue" points="838.65,-254.25 837.22,-243.75 831.79,-252.85 838.65,-254.25"/>
</g>
<!-- Node45&#45;&gt;Node11 -->
<g id="edge75" class="edge">
<title>Node45&#45;&gt;Node11</title>
<path fill="none" stroke="midnightblue" d="M1652.31,-231.43C1767.69,-228.2 1976.93,-218.3 2153,-188 2229.96,-174.75 2318,-147.77 2363.03,-133.08"/>
<polygon fill="midnightblue" stroke="midnightblue" points="2364.34,-136.33 2372.74,-129.88 2362.15,-129.68 2364.34,-136.33"/>
</g>
<!-- Node45&#45;&gt;Node39 -->
<g id="edge74" class="edge">
<title>Node45&#45;&gt;Node39</title>
<path fill="none" stroke="midnightblue" d="M1546.78,-224.44C1528.1,-215.68 1498.84,-201.94 1477.38,-191.86"/>
<polygon fill="midnightblue" stroke="midnightblue" points="1478.68,-188.6 1468.14,-187.52 1475.7,-194.93 1478.68,-188.6"/>
</g>
<!-- Node46 -->
<g id="node46" class="node">
<title>Node46</title>
<g id="a_node46"><a xlink:href="_window_8hpp.html" target="_top" xlink:title=" ">
<polygon fill="white" stroke="black" points="254,-56.5 254,-75.5 464,-75.5 464,-56.5 254,-56.5"/>
<text text-anchor="middle" x="359" y="-63.5" font-family="Helvetica,sans-Serif" font-size="10.00">Liger&#45;Engine/Core/Platform/Window.hpp</text>
</a>
</g>
</g>
<!-- Node45&#45;&gt;Node46 -->
<g id="edge72" class="edge">
<title>Node45&#45;&gt;Node46</title>
<path fill="none" stroke="midnightblue" d="M1477.81,-226.72C1462.23,-225.72 1446.14,-224.76 1431,-224 1371.26,-221 403.85,-222.51 355,-188 326.28,-167.71 323.89,-145.96 333,-112 335.65,-102.1 341.07,-92.13 346.27,-84.1"/>
<polygon fill="midnightblue" stroke="midnightblue" points="349.29,-85.89 352.11,-75.68 343.54,-81.91 349.29,-85.89"/>
</g>
<!-- Node46&#45;&gt;Node32 -->
<g id="edge73" class="edge">
<title>Node46&#45;&gt;Node32</title>
<path fill="none" stroke="midnightblue" d="M359,-56.08C359,-49.01 359,-38.86 359,-29.99"/>
<polygon fill="midnightblue" stroke="midnightblue" points="362.5,-29.75 359,-19.75 355.5,-29.75 362.5,-29.75"/>
</g>
<!-- Node48&#45;&gt;Node30 -->
<g id="edge79" class="edge">
<title>Node48&#45;&gt;Node30</title>
<path fill="none" stroke="midnightblue" d="M133.28,-336.31C187.52,-309.02 354.66,-224.95 419.71,-192.22"/>
<polygon fill="midnightblue" stroke="midnightblue" points="421.53,-195.23 428.89,-187.61 418.39,-188.97 421.53,-195.23"/>
</g>
</g>
</svg>
