<?xml version="1.0" encoding="UTF-8" standalone="no"?>
<!DOCTYPE svg PUBLIC "-//W3C//DTD SVG 1.1//EN"
 "http://www.w3.org/Graphics/SVG/1.1/DTD/svg11.dtd">
<!-- Generated by graphviz version 2.43.0 (0)
 -->
<!-- Title: LogChannel.hpp Pages: 1 -->
<svg width="1174pt" height="364pt"
 viewBox="0.00 0.00 1174.00 364.00" xmlns="http://www.w3.org/2000/svg" xmlns:xlink="http://www.w3.org/1999/xlink">
<g id="graph0" class="graph" transform="scale(1 1) rotate(0) translate(4 360)">
<title>LogChannel.hpp</title>
<polygon fill="white" stroke="transparent" points="-4,4 -4,-360 1170,-360 1170,4 -4,4"/>
<!-- Node1 -->
<g id="node1" class="node">
<title>Node1</title>
<g id="a_node1"><a xlink:title=" ">
<polygon fill="#bfbfbf" stroke="black" points="310.5,-336.5 310.5,-355.5 405.5,-355.5 405.5,-336.5 310.5,-336.5"/>
<text text-anchor="middle" x="358" y="-343.5" font-family="Helvetica,sans-Serif" font-size="10.00">LogChannel.hpp</text>
</a>
</g>
</g>
<!-- Node2 -->
<g id="node2" class="node">
<title>Node2</title>
<g id="a_node2"><a xlink:href="_ref_count_storage_8hpp.html" target="_top" xlink:title=" ">
<polygon fill="white" stroke="black" points="298,-280.5 298,-299.5 418,-299.5 418,-280.5 298,-280.5"/>
<text text-anchor="middle" x="358" y="-287.5" font-family="Helvetica,sans-Serif" font-size="10.00">RefCountStorage.hpp</text>
</a>
</g>
</g>
<!-- Node1&#45;&gt;Node2 -->
<g id="edge1" class="edge">
<title>Node1&#45;&gt;Node2</title>
<path fill="none" stroke="midnightblue" d="M358,-325.8C358,-316.91 358,-306.78 358,-299.75"/>
<polygon fill="midnightblue" stroke="midnightblue" points="354.5,-326.08 358,-336.08 361.5,-326.08 354.5,-326.08"/>
</g>
<!-- Node9 -->
<g id="node9" class="node">
<title>Node9</title>
<g id="a_node9"><a xlink:href="_type_map_8hpp.html" target="_top" xlink:title=" ">
<polygon fill="white" stroke="black" points="198.5,-280.5 198.5,-299.5 279.5,-299.5 279.5,-280.5 198.5,-280.5"/>
<text text-anchor="middle" x="239" y="-287.5" font-family="Helvetica,sans-Serif" font-size="10.00">TypeMap.hpp</text>
</a>
</g>
</g>
<!-- Node1&#45;&gt;Node9 -->
<g id="edge8" class="edge">
<title>Node1&#45;&gt;Node9</title>
<path fill="none" stroke="midnightblue" d="M329.86,-332.23C307.6,-322.13 277.14,-308.31 257.77,-299.52"/>
<polygon fill="midnightblue" stroke="midnightblue" points="328.59,-335.5 339.14,-336.44 331.48,-329.12 328.59,-335.5"/>
</g>
<!-- Node10 -->
<g id="node10" class="node">
<title>Node10</title>
<g id="a_node10"><a xlink:href="_callback_8hpp.html" target="_top" xlink:title=" ">
<polygon fill="white" stroke="black" points="436,-280.5 436,-299.5 516,-299.5 516,-280.5 436,-280.5"/>
<text text-anchor="middle" x="476" y="-287.5" font-family="Helvetica,sans-Serif" font-size="10.00">Callback.hpp</text>
</a>
</g>
</g>
<!-- Node1&#45;&gt;Node10 -->
<g id="edge10" class="edge">
<title>Node1&#45;&gt;Node10</title>
<path fill="none" stroke="midnightblue" d="M385.9,-332.23C407.97,-322.13 438.18,-308.31 457.39,-299.52"/>
<polygon fill="midnightblue" stroke="midnightblue" points="384.33,-329.1 376.7,-336.44 387.25,-335.46 384.33,-329.1"/>
</g>
<!-- Node3 -->
<g id="node3" class="node">
<title>Node3</title>
<g id="a_node3"><a xlink:href="_storage_8hpp.html" target="_top" xlink:title=" ">
<polygon fill="white" stroke="black" points="233.5,-224.5 233.5,-243.5 308.5,-243.5 308.5,-224.5 233.5,-224.5"/>
<text text-anchor="middle" x="271" y="-231.5" font-family="Helvetica,sans-Serif" font-size="10.00">Storage.hpp</text>
</a>
</g>
</g>
<!-- Node2&#45;&gt;Node3 -->
<g id="edge2" class="edge">
<title>Node2&#45;&gt;Node3</title>
<path fill="none" stroke="midnightblue" d="M335.28,-274.9C319.33,-265 298.5,-252.07 284.94,-243.65"/>
<polygon fill="midnightblue" stroke="midnightblue" points="333.68,-278.02 344.02,-280.32 337.37,-272.08 333.68,-278.02"/>
</g>
<!-- Node4 -->
<g id="node4" class="node">
<title>Node4</title>
<g id="a_node4"><a xlink:href="_manager_8hpp.html" target="_top" xlink:title=" ">
<polygon fill="white" stroke="black" points="231,-56.5 231,-75.5 311,-75.5 311,-56.5 231,-56.5"/>
<text text-anchor="middle" x="271" y="-63.5" font-family="Helvetica,sans-Serif" font-size="10.00">Manager.hpp</text>
</a>
</g>
</g>
<!-- Node3&#45;&gt;Node4 -->
<g id="edge3" class="edge">
<title>Node3&#45;&gt;Node4</title>
<path fill="none" stroke="midnightblue" d="M271,-213.93C271,-177.92 271,-101.23 271,-75.57"/>
<polygon fill="midnightblue" stroke="midnightblue" points="267.5,-214.08 271,-224.08 274.5,-214.08 267.5,-214.08"/>
</g>
<!-- Node5 -->
<g id="node5" class="node">
<title>Node5</title>
<g id="a_node5"><a xlink:href="_bloom_feature_8hpp.html" target="_top" xlink:title=" ">
<polygon fill="white" stroke="black" points="284,-0.5 284,-19.5 390,-19.5 390,-0.5 284,-0.5"/>
<text text-anchor="middle" x="337" y="-7.5" font-family="Helvetica,sans-Serif" font-size="10.00">BloomFeature.hpp</text>
</a>
</g>
</g>
<!-- Node4&#45;&gt;Node5 -->
<g id="edge4" class="edge">
<title>Node4&#45;&gt;Node5</title>
<path fill="none" stroke="midnightblue" d="M289.55,-49.82C301.38,-40.15 316.29,-27.95 326.2,-19.83"/>
<polygon fill="midnightblue" stroke="midnightblue" points="287.13,-47.28 281.6,-56.32 291.56,-52.7 287.13,-47.28"/>
</g>
<!-- Node6 -->
<g id="node6" class="node">
<title>Node6</title>
<g id="a_node6"><a xlink:href="_particle_system_feature_8hpp.html" target="_top" xlink:title=" ">
<polygon fill="white" stroke="black" points="408.5,-0.5 408.5,-19.5 555.5,-19.5 555.5,-0.5 408.5,-0.5"/>
<text text-anchor="middle" x="482" y="-7.5" font-family="Helvetica,sans-Serif" font-size="10.00">ParticleSystemFeature.hpp</text>
</a>
</g>
</g>
<!-- Node4&#45;&gt;Node6 -->
<g id="edge5" class="edge">
<title>Node4&#45;&gt;Node6</title>
<path fill="none" stroke="midnightblue" d="M314.14,-53.96C353.99,-43.76 412.36,-28.82 448.72,-19.52"/>
<polygon fill="midnightblue" stroke="midnightblue" points="313.25,-50.57 304.43,-56.44 314.99,-57.35 313.25,-50.57"/>
</g>
<!-- Node7 -->
<g id="node7" class="node">
<title>Node7</title>
<g id="a_node7"><a xlink:href="_static_mesh_feature_8hpp.html" target="_top" xlink:title=" ">
<polygon fill="white" stroke="black" points="0,-0.5 0,-19.5 128,-19.5 128,-0.5 0,-0.5"/>
<text text-anchor="middle" x="64" y="-7.5" font-family="Helvetica,sans-Serif" font-size="10.00">StaticMeshFeature.hpp</text>
</a>
</g>
</g>
<!-- Node4&#45;&gt;Node7 -->
<g id="edge6" class="edge">
<title>Node4&#45;&gt;Node7</title>
<path fill="none" stroke="midnightblue" d="M228.18,-53.83C189.09,-43.63 132.17,-28.78 96.65,-19.52"/>
<polygon fill="midnightblue" stroke="midnightblue" points="227.64,-57.31 238.2,-56.44 229.41,-50.53 227.64,-57.31"/>
</g>
<!-- Node8 -->
<g id="node8" class="node">
<title>Node8</title>
<g id="a_node8"><a xlink:href="_tonemap_feature_8hpp.html" target="_top" xlink:title=" ">
<polygon fill="white" stroke="black" points="146.5,-0.5 146.5,-19.5 265.5,-19.5 265.5,-0.5 146.5,-0.5"/>
<text text-anchor="middle" x="206" y="-7.5" font-family="Helvetica,sans-Serif" font-size="10.00">TonemapFeature.hpp</text>
</a>
</g>
</g>
<!-- Node4&#45;&gt;Node8 -->
<g id="edge7" class="edge">
<title>Node4&#45;&gt;Node8</title>
<path fill="none" stroke="midnightblue" d="M252.73,-49.82C241.08,-40.15 226.4,-27.95 216.63,-19.83"/>
<polygon fill="midnightblue" stroke="midnightblue" points="250.63,-52.63 260.56,-56.32 255.1,-47.24 250.63,-52.63"/>
</g>
<!-- Node9&#45;&gt;Node3 -->
<g id="edge9" class="edge">
<title>Node9&#45;&gt;Node3</title>
<path fill="none" stroke="midnightblue" d="M249.5,-271.27C254.97,-262.05 261.42,-251.17 265.81,-243.75"/>
<polygon fill="midnightblue" stroke="midnightblue" points="246.37,-269.7 244.28,-280.08 252.39,-273.26 246.37,-269.7"/>
</g>
<!-- Node11 -->
<g id="node11" class="node">
<title>Node11</title>
<g id="a_node11"><a xlink:href="_event_sink_8hpp.html" target="_top" xlink:title=" ">
<polygon fill="white" stroke="black" points="433,-224.5 433,-243.5 519,-243.5 519,-224.5 433,-224.5"/>
<text text-anchor="middle" x="476" y="-231.5" font-family="Helvetica,sans-Serif" font-size="10.00">EventSink.hpp</text>
</a>
</g>
</g>
<!-- Node10&#45;&gt;Node11 -->
<g id="edge11" class="edge">
<title>Node10&#45;&gt;Node11</title>
<path fill="none" stroke="midnightblue" d="M476,-269.8C476,-260.91 476,-250.78 476,-243.75"/>
<polygon fill="midnightblue" stroke="midnightblue" points="472.5,-270.08 476,-280.08 479.5,-270.08 472.5,-270.08"/>
</g>
<!-- Node12 -->
<g id="node12" class="node">
<title>Node12</title>
<g id="a_node12"><a xlink:href="_event_dispatcher_8hpp.html" target="_top" xlink:title=" ">
<polygon fill="white" stroke="black" points="417.5,-168.5 417.5,-187.5 534.5,-187.5 534.5,-168.5 417.5,-168.5"/>
<text text-anchor="middle" x="476" y="-175.5" font-family="Helvetica,sans-Serif" font-size="10.00">EventDispatcher.hpp</text>
</a>
</g>
</g>
<!-- Node11&#45;&gt;Node12 -->
<g id="edge12" class="edge">
<title>Node11&#45;&gt;Node12</title>
<path fill="none" stroke="midnightblue" d="M476,-213.8C476,-204.91 476,-194.78 476,-187.75"/>
<polygon fill="midnightblue" stroke="midnightblue" points="472.5,-214.08 476,-224.08 479.5,-214.08 472.5,-214.08"/>
</g>
<!-- Node13 -->
<g id="node13" class="node">
<title>Node13</title>
<g id="a_node13"><a xlink:href="_platform_layer_8hpp.html" target="_top" xlink:title=" ">
<polygon fill="white" stroke="black" points="392,-112.5 392,-131.5 498,-131.5 498,-112.5 392,-112.5"/>
<text text-anchor="middle" x="445" y="-119.5" font-family="Helvetica,sans-Serif" font-size="10.00">PlatformLayer.hpp</text>
</a>
</g>
</g>
<!-- Node12&#45;&gt;Node13 -->
<g id="edge13" class="edge">
<title>Node12&#45;&gt;Node13</title>
<path fill="none" stroke="midnightblue" d="M465.82,-159.27C460.53,-150.05 454.28,-139.17 450.02,-131.75"/>
<polygon fill="midnightblue" stroke="midnightblue" points="462.87,-161.15 470.88,-168.08 468.94,-157.67 462.87,-161.15"/>
</g>
<!-- Node15 -->
<g id="node15" class="node">
<title>Node15</title>
<g id="a_node15"><a xlink:href="_script_8hpp.html" target="_top" xlink:title=" ">
<polygon fill="white" stroke="black" points="516.5,-112.5 516.5,-131.5 581.5,-131.5 581.5,-112.5 516.5,-112.5"/>
<text text-anchor="middle" x="549" y="-119.5" font-family="Helvetica,sans-Serif" font-size="10.00">Script.hpp</text>
</a>
</g>
</g>
<!-- Node12&#45;&gt;Node15 -->
<g id="edge15" class="edge">
<title>Node12&#45;&gt;Node15</title>
<path fill="none" stroke="midnightblue" d="M496.14,-162.1C509.28,-152.38 525.98,-140.03 537.06,-131.83"/>
<polygon fill="midnightblue" stroke="midnightblue" points="493.69,-159.56 487.73,-168.32 497.85,-165.19 493.69,-159.56"/>
</g>
<!-- Node14 -->
<g id="node14" class="node">
<title>Node14</title>
<g id="a_node14"><a xlink:href="_camera_movement_script_8hpp.html" target="_top" xlink:title=" ">
<polygon fill="white" stroke="black" points="367,-56.5 367,-75.5 523,-75.5 523,-56.5 367,-56.5"/>
<text text-anchor="middle" x="445" y="-63.5" font-family="Helvetica,sans-Serif" font-size="10.00">CameraMovementScript.hpp</text>
</a>
</g>
</g>
<!-- Node13&#45;&gt;Node14 -->
<g id="edge14" class="edge">
<title>Node13&#45;&gt;Node14</title>
<path fill="none" stroke="midnightblue" d="M445,-101.8C445,-92.91 445,-82.78 445,-75.75"/>
<polygon fill="midnightblue" stroke="midnightblue" points="441.5,-102.08 445,-112.08 448.5,-102.08 441.5,-102.08"/>
</g>
<!-- Node15&#45;&gt;Node14 -->
<g id="edge16" class="edge">
<title>Node15&#45;&gt;Node14</title>
<path fill="none" stroke="midnightblue" d="M523.17,-107.59C503.94,-97.61 478.26,-84.27 461.67,-75.65"/>
<polygon fill="midnightblue" stroke="midnightblue" points="521.8,-110.82 532.29,-112.32 525.03,-104.61 521.8,-110.82"/>
</g>
<!-- Node16 -->
<g id="node16" class="node">
<title>Node16</title>
<g id="a_node16"><a xlink:href="_default_components_8hpp.html" target="_top" xlink:title=" ">
<polygon fill="white" stroke="black" points="541.5,-56.5 541.5,-75.5 676.5,-75.5 676.5,-56.5 541.5,-56.5"/>
<text text-anchor="middle" x="609" y="-63.5" font-family="Helvetica,sans-Serif" font-size="10.00">DefaultComponents.hpp</text>
</a>
</g>
</g>
<!-- Node15&#45;&gt;Node16 -->
<g id="edge17" class="edge">
<title>Node15&#45;&gt;Node16</title>
<path fill="none" stroke="midnightblue" d="M566.18,-105.54C576.88,-95.91 590.26,-83.87 599.18,-75.83"/>
<polygon fill="midnightblue" stroke="midnightblue" points="563.73,-103.03 558.64,-112.32 568.41,-108.24 563.73,-103.03"/>
</g>
<!-- Node16&#45;&gt;Node5 -->
<g id="edge20" class="edge">
<title>Node16&#45;&gt;Node5</title>
<path fill="none" stroke="midnightblue" d="M555.98,-54.47C504.57,-44.27 427.56,-28.98 379.9,-19.52"/>
<polygon fill="midnightblue" stroke="midnightblue" points="555.41,-57.93 565.9,-56.44 556.77,-51.06 555.41,-57.93"/>
</g>
<!-- Node16&#45;&gt;Node6 -->
<g id="edge23" class="edge">
<title>Node16&#45;&gt;Node6</title>
<path fill="none" stroke="midnightblue" d="M579.61,-52.5C555.8,-42.38 522.89,-28.39 502.03,-19.52"/>
<polygon fill="midnightblue" stroke="midnightblue" points="578.3,-55.75 588.88,-56.44 581.04,-49.31 578.3,-55.75"/>
</g>
<!-- Node16&#45;&gt;Node7 -->
<g id="edge24" class="edge">
<title>Node16&#45;&gt;Node7</title>
<path fill="none" stroke="midnightblue" d="M531.26,-55.95C354.97,-37.8 309.03,-38.44 137,-20 134.08,-19.69 131.09,-19.36 128.08,-19.02"/>
<polygon fill="midnightblue" stroke="midnightblue" points="531.1,-59.45 541.4,-57 531.82,-52.49 531.1,-59.45"/>
</g>
<!-- Node16&#45;&gt;Node8 -->
<g id="edge25" class="edge">
<title>Node16&#45;&gt;Node8</title>
<path fill="none" stroke="midnightblue" d="M534.97,-55.08C457.46,-44.69 337.25,-28.59 265.62,-18.99"/>
<polygon fill="midnightblue" stroke="midnightblue" points="534.77,-58.58 545.14,-56.44 535.7,-51.65 534.77,-58.58"/>
</g>
<!-- Node17 -->
<g id="node17" class="node">
<title>Node17</title>
<g id="a_node17"><a xlink:href="_camera_aspect_system_8hpp.html" target="_top" xlink:title=" ">
<polygon fill="white" stroke="black" points="574,-0.5 574,-19.5 720,-19.5 720,-0.5 574,-0.5"/>
<text text-anchor="middle" x="647" y="-7.5" font-family="Helvetica,sans-Serif" font-size="10.00">CameraAspectSystem.hpp</text>
</a>
</g>
</g>
<!-- Node16&#45;&gt;Node17 -->
<g id="edge18" class="edge">
<title>Node16&#45;&gt;Node17</title>
<path fill="none" stroke="midnightblue" d="M621.06,-47.86C627.64,-38.5 635.51,-27.33 640.84,-19.75"/>
<polygon fill="midnightblue" stroke="midnightblue" points="618.17,-45.89 615.27,-56.08 623.89,-49.92 618.17,-45.89"/>
</g>
<!-- Node18 -->
<g id="node18" class="node">
<title>Node18</title>
<g id="a_node18"><a xlink:href="_script_system_8hpp.html" target="_top" xlink:title=" ">
<polygon fill="white" stroke="black" points="738,-0.5 738,-19.5 840,-19.5 840,-0.5 738,-0.5"/>
<text text-anchor="middle" x="789" y="-7.5" font-family="Helvetica,sans-Serif" font-size="10.00">ScriptSystem.hpp</text>
</a>
</g>
</g>
<!-- Node16&#45;&gt;Node18 -->
<g id="edge19" class="edge">
<title>Node16&#45;&gt;Node18</title>
<path fill="none" stroke="midnightblue" d="M647.11,-53.57C681.06,-43.38 729.99,-28.7 760.61,-19.52"/>
<polygon fill="midnightblue" stroke="midnightblue" points="646.09,-50.22 637.52,-56.44 648.11,-56.92 646.09,-50.22"/>
</g>
<!-- Node19 -->
<g id="node19" class="node">
<title>Node19</title>
<g id="a_node19"><a xlink:href="_camera_data_collector_8hpp.html" target="_top" xlink:title=" ">
<polygon fill="white" stroke="black" points="858,-0.5 858,-19.5 1000,-19.5 1000,-0.5 858,-0.5"/>
<text text-anchor="middle" x="929" y="-7.5" font-family="Helvetica,sans-Serif" font-size="10.00">CameraDataCollector.hpp</text>
</a>
</g>
</g>
<!-- Node16&#45;&gt;Node19 -->
<g id="edge21" class="edge">
<title>Node16&#45;&gt;Node19</title>
<path fill="none" stroke="midnightblue" d="M669.87,-54.73C730.34,-44.52 821.99,-29.06 878.53,-19.52"/>
<polygon fill="midnightblue" stroke="midnightblue" points="668.98,-51.33 659.7,-56.44 670.15,-58.23 668.98,-51.33"/>
</g>
<!-- Node20 -->
<g id="node20" class="node">
<title>Node20</title>
<g id="a_node20"><a xlink:href="_forward_render_feature_8hpp.html" target="_top" xlink:title=" ">
<polygon fill="white" stroke="black" points="1018,-0.5 1018,-19.5 1166,-19.5 1166,-0.5 1018,-0.5"/>
<text text-anchor="middle" x="1092" y="-7.5" font-family="Helvetica,sans-Serif" font-size="10.00">ForwardRenderFeature.hpp</text>
</a>
</g>
</g>
<!-- Node16&#45;&gt;Node20 -->
<g id="edge22" class="edge">
<title>Node16&#45;&gt;Node20</title>
<path fill="none" stroke="midnightblue" d="M686.67,-56.32C777.84,-46.12 927.95,-29.34 1017.66,-19.31"/>
<polygon fill="midnightblue" stroke="midnightblue" points="686.22,-52.85 676.67,-57.43 686.99,-59.8 686.22,-52.85"/>
</g>
</g>
</svg>
