<?xml version="1.0" encoding="UTF-8" standalone="no"?>
<!DOCTYPE svg PUBLIC "-//W3C//DTD SVG 1.1//EN"
 "http://www.w3.org/Graphics/SVG/1.1/DTD/svg11.dtd">
<!-- Generated by graphviz version 2.43.0 (0)
 -->
<!-- Title: LogChannel.hpp Pages: 1 -->
<!--zoomable 364 -->
<svg id="main" version="1.1" xmlns="http://www.w3.org/2000/svg" xmlns:xlink="http://www.w3.org/1999/xlink" xml:space="preserve" onload="init(evt)">
<style type="text/css"><![CDATA[
.edge:hover path { stroke: red; }
.edge:hover polygon { stroke: red; fill: red; }
]]></style>
<script type="text/javascript"><![CDATA[
var edges = document.getElementsByTagName('g');
if (edges && edges.length) {
  for (var i=0;i<edges.length;i++) {
    if (edges[i].id.substr(0,4)=='edge') {
      edges[i].setAttribute('class','edge');
    }
  }
}
]]></script>
        <defs>
                <circle id="rim" cx="0" cy="0" r="7"/>
                <circle id="rim2" cx="0" cy="0" r="3.5"/>
                <g id="zoomPlus">
                        <use xlink:href="#rim" fill="#404040">
                                <set attributeName="fill" to="#808080" begin="zoomplus.mouseover" end="zoomplus.mouseout"/>
                        </use>
                        <path d="M-4,0h8M0,-4v8" fill="none" stroke="white" stroke-width="1.5" pointer-events="none"/>
                </g>
                <g id="zoomMin">
                        <use xlink:href="#rim" fill="#404040">
                                <set attributeName="fill" to="#808080" begin="zoomminus.mouseover" end="zoomminus.mouseout"/>
                        </use>
                        <path d="M-4,0h8" fill="none" stroke="white" stroke-width="1.5" pointer-events="none"/>
                </g>
                <g id="dirArrow">
                        <path fill="none" stroke="white" stroke-width="1.5" d="M0,-3.0v7 M-2.5,-0.5L0,-3.0L2.5,-0.5"/>
                </g>
               <g id="resetDef">
                       <use xlink:href="#rim2" fill="#404040">
                               <set attributeName="fill" to="#808080" begin="reset.mouseover" end="reset.mouseout"/>
                       </use>
               </g>
        </defs>

<script type="text/javascript">
var viewWidth = 1337;
var viewHeight = 364;
var sectionId = 'dynsection-1';
</script>
<script xlink:href="svgpan.js"/>
<svg id="graph" class="graph">
<g id="viewport">
<title>LogChannel.hpp</title>
<polygon fill="white" stroke="transparent" points="-4,4 -4,-360 1333,-360 1333,4 -4,4"/>
<!-- Node1 -->
<g id="node1" class="node">
<title>Node1</title>
<g id="a_node1"><a xlink:title=" ">
<polygon fill="#bfbfbf" stroke="black" points="361.5,-336.5 361.5,-355.5 456.5,-355.5 456.5,-336.5 361.5,-336.5"/>
<text text-anchor="middle" x="409" y="-343.5" font-family="Helvetica,sans-Serif" font-size="10.00">LogChannel.hpp</text>
</a>
</g>
</g>
<!-- Node2 -->
<g id="node2" class="node">
<title>Node2</title>
<g id="a_node2"><a xlink:href="_ref_count_storage_8hpp.html" target="_top" xlink:title=" ">
<polygon fill="white" stroke="black" points="349,-280.5 349,-299.5 469,-299.5 469,-280.5 349,-280.5"/>
<text text-anchor="middle" x="409" y="-287.5" font-family="Helvetica,sans-Serif" font-size="10.00">RefCountStorage.hpp</text>
</a>
</g>
</g>
<!-- Node1&#45;&gt;Node2 -->
<g id="edge1" class="edge">
<title>Node1&#45;&gt;Node2</title>
<path fill="none" stroke="midnightblue" d="M409,-325.8C409,-316.91 409,-306.78 409,-299.75"/>
<polygon fill="midnightblue" stroke="midnightblue" points="405.5,-326.08 409,-336.08 412.5,-326.08 405.5,-326.08"/>
</g>
<!-- Node10 -->
<g id="node10" class="node">
<title>Node10</title>
<g id="a_node10"><a xlink:href="_type_map_8hpp.html" target="_top" xlink:title=" ">
<polygon fill="white" stroke="black" points="249.5,-280.5 249.5,-299.5 330.5,-299.5 330.5,-280.5 249.5,-280.5"/>
<text text-anchor="middle" x="290" y="-287.5" font-family="Helvetica,sans-Serif" font-size="10.00">TypeMap.hpp</text>
</a>
</g>
</g>
<!-- Node1&#45;&gt;Node10 -->
<g id="edge9" class="edge">
<title>Node1&#45;&gt;Node10</title>
<path fill="none" stroke="midnightblue" d="M380.86,-332.23C358.6,-322.13 328.14,-308.31 308.77,-299.52"/>
<polygon fill="midnightblue" stroke="midnightblue" points="379.59,-335.5 390.14,-336.44 382.48,-329.12 379.59,-335.5"/>
</g>
<!-- Node11 -->
<g id="node11" class="node">
<title>Node11</title>
<g id="a_node11"><a xlink:href="_callback_8hpp.html" target="_top" xlink:title=" ">
<polygon fill="white" stroke="black" points="487,-280.5 487,-299.5 567,-299.5 567,-280.5 487,-280.5"/>
<text text-anchor="middle" x="527" y="-287.5" font-family="Helvetica,sans-Serif" font-size="10.00">Callback.hpp</text>
</a>
</g>
</g>
<!-- Node1&#45;&gt;Node11 -->
<g id="edge11" class="edge">
<title>Node1&#45;&gt;Node11</title>
<path fill="none" stroke="midnightblue" d="M436.9,-332.23C458.97,-322.13 489.18,-308.31 508.39,-299.52"/>
<polygon fill="midnightblue" stroke="midnightblue" points="435.33,-329.1 427.7,-336.44 438.25,-335.46 435.33,-329.1"/>
</g>
<!-- Node3 -->
<g id="node3" class="node">
<title>Node3</title>
<g id="a_node3"><a xlink:href="_storage_8hpp.html" target="_top" xlink:title=" ">
<polygon fill="white" stroke="black" points="299.5,-224.5 299.5,-243.5 374.5,-243.5 374.5,-224.5 299.5,-224.5"/>
<text text-anchor="middle" x="337" y="-231.5" font-family="Helvetica,sans-Serif" font-size="10.00">Storage.hpp</text>
</a>
</g>
</g>
<!-- Node2&#45;&gt;Node3 -->
<g id="edge2" class="edge">
<title>Node2&#45;&gt;Node3</title>
<path fill="none" stroke="midnightblue" d="M389.13,-274.1C376.18,-264.38 359.7,-252.03 348.78,-243.83"/>
<polygon fill="midnightblue" stroke="midnightblue" points="387.33,-277.12 397.43,-280.32 391.53,-271.52 387.33,-277.12"/>
</g>
<!-- Node4 -->
<g id="node4" class="node">
<title>Node4</title>
<g id="a_node4"><a xlink:href="_manager_8hpp.html" target="_top" xlink:title=" ">
<polygon fill="white" stroke="black" points="297,-56.5 297,-75.5 377,-75.5 377,-56.5 297,-56.5"/>
<text text-anchor="middle" x="337" y="-63.5" font-family="Helvetica,sans-Serif" font-size="10.00">Manager.hpp</text>
</a>
</g>
</g>
<!-- Node3&#45;&gt;Node4 -->
<g id="edge3" class="edge">
<title>Node3&#45;&gt;Node4</title>
<path fill="none" stroke="midnightblue" d="M337,-213.93C337,-177.92 337,-101.23 337,-75.57"/>
<polygon fill="midnightblue" stroke="midnightblue" points="333.5,-214.08 337,-224.08 340.5,-214.08 333.5,-214.08"/>
</g>
<!-- Node5 -->
<g id="node5" class="node">
<title>Node5</title>
<g id="a_node5"><a xlink:href="_bloom_feature_8hpp.html" target="_top" xlink:title=" ">
<polygon fill="white" stroke="black" points="284,-0.5 284,-19.5 390,-19.5 390,-0.5 284,-0.5"/>
<text text-anchor="middle" x="337" y="-7.5" font-family="Helvetica,sans-Serif" font-size="10.00">BloomFeature.hpp</text>
</a>
</g>
</g>
<!-- Node4&#45;&gt;Node5 -->
<g id="edge4" class="edge">
<title>Node4&#45;&gt;Node5</title>
<path fill="none" stroke="midnightblue" d="M337,-45.8C337,-36.91 337,-26.78 337,-19.75"/>
<polygon fill="midnightblue" stroke="midnightblue" points="333.5,-46.08 337,-56.08 340.5,-46.08 333.5,-46.08"/>
</g>
<!-- Node6 -->
<g id="node6" class="node">
<title>Node6</title>
<g id="a_node6"><a xlink:href="_clustered_light_feature_8hpp.html" target="_top" xlink:title=" ">
<polygon fill="white" stroke="black" points="408.5,-0.5 408.5,-19.5 553.5,-19.5 553.5,-0.5 408.5,-0.5"/>
<text text-anchor="middle" x="481" y="-7.5" font-family="Helvetica,sans-Serif" font-size="10.00">ClusteredLightFeature.hpp</text>
</a>
</g>
</g>
<!-- Node4&#45;&gt;Node6 -->
<g id="edge5" class="edge">
<title>Node4&#45;&gt;Node6</title>
<path fill="none" stroke="midnightblue" d="M369.25,-52.91C396.32,-42.75 434.32,-28.51 458.29,-19.52"/>
<polygon fill="midnightblue" stroke="midnightblue" points="367.95,-49.66 359.82,-56.44 370.41,-56.21 367.95,-49.66"/>
</g>
<!-- Node7 -->
<g id="node7" class="node">
<title>Node7</title>
<g id="a_node7"><a xlink:href="_particle_system_feature_8hpp.html" target="_top" xlink:title=" ">
<polygon fill="white" stroke="black" points="571.5,-0.5 571.5,-19.5 718.5,-19.5 718.5,-0.5 571.5,-0.5"/>
<text text-anchor="middle" x="645" y="-7.5" font-family="Helvetica,sans-Serif" font-size="10.00">ParticleSystemFeature.hpp</text>
</a>
</g>
</g>
<!-- Node4&#45;&gt;Node7 -->
<g id="edge6" class="edge">
<title>Node4&#45;&gt;Node7</title>
<path fill="none" stroke="midnightblue" d="M387.26,-56.19C445.05,-46.06 539.25,-29.54 596.35,-19.53"/>
<polygon fill="midnightblue" stroke="midnightblue" points="386.51,-52.77 377.27,-57.94 387.72,-59.66 386.51,-52.77"/>
</g>
<!-- Node8 -->
<g id="node8" class="node">
<title>Node8</title>
<g id="a_node8"><a xlink:href="_static_mesh_feature_8hpp.html" target="_top" xlink:title=" ">
<polygon fill="white" stroke="black" points="0,-0.5 0,-19.5 128,-19.5 128,-0.5 0,-0.5"/>
<text text-anchor="middle" x="64" y="-7.5" font-family="Helvetica,sans-Serif" font-size="10.00">StaticMeshFeature.hpp</text>
</a>
</g>
</g>
<!-- Node4&#45;&gt;Node8 -->
<g id="edge7" class="edge">
<title>Node4&#45;&gt;Node8</title>
<path fill="none" stroke="midnightblue" d="M286.8,-55.07C235.28,-44.88 155.95,-29.19 107.15,-19.54"/>
<polygon fill="midnightblue" stroke="midnightblue" points="286.23,-58.53 296.72,-57.03 287.59,-51.66 286.23,-58.53"/>
</g>
<!-- Node9 -->
<g id="node9" class="node">
<title>Node9</title>
<g id="a_node9"><a xlink:href="_tonemap_feature_8hpp.html" target="_top" xlink:title=" ">
<polygon fill="white" stroke="black" points="146.5,-0.5 146.5,-19.5 265.5,-19.5 265.5,-0.5 146.5,-0.5"/>
<text text-anchor="middle" x="206" y="-7.5" font-family="Helvetica,sans-Serif" font-size="10.00">TonemapFeature.hpp</text>
</a>
</g>
</g>
<!-- Node4&#45;&gt;Node9 -->
<g id="edge8" class="edge">
<title>Node4&#45;&gt;Node9</title>
<path fill="none" stroke="midnightblue" d="M306.68,-52.5C282.12,-42.38 248.18,-28.39 226.66,-19.52"/>
<polygon fill="midnightblue" stroke="midnightblue" points="305.66,-55.87 316.24,-56.44 308.33,-49.4 305.66,-55.87"/>
</g>
<!-- Node10&#45;&gt;Node3 -->
<g id="edge10" class="edge">
<title>Node10&#45;&gt;Node3</title>
<path fill="none" stroke="midnightblue" d="M304.42,-272.43C312.66,-262.97 322.65,-251.48 329.38,-243.75"/>
<polygon fill="midnightblue" stroke="midnightblue" points="301.69,-270.24 297.76,-280.08 306.97,-274.84 301.69,-270.24"/>
</g>
<!-- Node12 -->
<g id="node12" class="node">
<title>Node12</title>
<g id="a_node12"><a xlink:href="_event_sink_8hpp.html" target="_top" xlink:title=" ">
<polygon fill="white" stroke="black" points="484,-224.5 484,-243.5 570,-243.5 570,-224.5 484,-224.5"/>
<text text-anchor="middle" x="527" y="-231.5" font-family="Helvetica,sans-Serif" font-size="10.00">EventSink.hpp</text>
</a>
</g>
</g>
<!-- Node11&#45;&gt;Node12 -->
<g id="edge12" class="edge">
<title>Node11&#45;&gt;Node12</title>
<path fill="none" stroke="midnightblue" d="M527,-269.8C527,-260.91 527,-250.78 527,-243.75"/>
<polygon fill="midnightblue" stroke="midnightblue" points="523.5,-270.08 527,-280.08 530.5,-270.08 523.5,-270.08"/>
</g>
<!-- Node13 -->
<g id="node13" class="node">
<title>Node13</title>
<g id="a_node13"><a xlink:href="_event_dispatcher_8hpp.html" target="_top" xlink:title=" ">
<polygon fill="white" stroke="black" points="468.5,-168.5 468.5,-187.5 585.5,-187.5 585.5,-168.5 468.5,-168.5"/>
<text text-anchor="middle" x="527" y="-175.5" font-family="Helvetica,sans-Serif" font-size="10.00">EventDispatcher.hpp</text>
</a>
</g>
</g>
<!-- Node12&#45;&gt;Node13 -->
<g id="edge13" class="edge">
<title>Node12&#45;&gt;Node13</title>
<path fill="none" stroke="midnightblue" d="M527,-213.8C527,-204.91 527,-194.78 527,-187.75"/>
<polygon fill="midnightblue" stroke="midnightblue" points="523.5,-214.08 527,-224.08 530.5,-214.08 523.5,-214.08"/>
</g>
<!-- Node14 -->
<g id="node14" class="node">
<title>Node14</title>
<g id="a_node14"><a xlink:href="_platform_layer_8hpp.html" target="_top" xlink:title=" ">
<polygon fill="white" stroke="black" points="428,-112.5 428,-131.5 534,-131.5 534,-112.5 428,-112.5"/>
<text text-anchor="middle" x="481" y="-119.5" font-family="Helvetica,sans-Serif" font-size="10.00">PlatformLayer.hpp</text>
</a>
</g>
</g>
<!-- Node13&#45;&gt;Node14 -->
<g id="edge14" class="edge">
<title>Node13&#45;&gt;Node14</title>
<path fill="none" stroke="midnightblue" d="M512.89,-160.43C504.82,-150.97 495.04,-139.48 488.45,-131.75"/>
<polygon fill="midnightblue" stroke="midnightblue" points="510.25,-162.74 519.4,-168.08 515.58,-158.2 510.25,-162.74"/>
</g>
<!-- Node16 -->
<g id="node16" class="node">
<title>Node16</title>
<g id="a_node16"><a xlink:href="_script_8hpp.html" target="_top" xlink:title=" ">
<polygon fill="white" stroke="black" points="552.5,-112.5 552.5,-131.5 617.5,-131.5 617.5,-112.5 552.5,-112.5"/>
<text text-anchor="middle" x="585" y="-119.5" font-family="Helvetica,sans-Serif" font-size="10.00">Script.hpp</text>
</a>
</g>
</g>
<!-- Node13&#45;&gt;Node16 -->
<g id="edge16" class="edge">
<title>Node13&#45;&gt;Node16</title>
<path fill="none" stroke="midnightblue" d="M543.91,-161.25C554.2,-151.67 566.97,-139.79 575.51,-131.83"/>
<polygon fill="midnightblue" stroke="midnightblue" points="541.25,-158.95 536.32,-168.32 546.02,-164.07 541.25,-158.95"/>
</g>
<!-- Node15 -->
<g id="node15" class="node">
<title>Node15</title>
<g id="a_node15"><a xlink:href="_camera_movement_script_8hpp.html" target="_top" xlink:title=" ">
<polygon fill="white" stroke="black" points="403,-56.5 403,-75.5 559,-75.5 559,-56.5 403,-56.5"/>
<text text-anchor="middle" x="481" y="-63.5" font-family="Helvetica,sans-Serif" font-size="10.00">CameraMovementScript.hpp</text>
</a>
</g>
</g>
<!-- Node14&#45;&gt;Node15 -->
<g id="edge15" class="edge">
<title>Node14&#45;&gt;Node15</title>
<path fill="none" stroke="midnightblue" d="M481,-101.8C481,-92.91 481,-82.78 481,-75.75"/>
<polygon fill="midnightblue" stroke="midnightblue" points="477.5,-102.08 481,-112.08 484.5,-102.08 477.5,-102.08"/>
</g>
<!-- Node16&#45;&gt;Node15 -->
<g id="edge17" class="edge">
<title>Node16&#45;&gt;Node15</title>
<path fill="none" stroke="midnightblue" d="M559.17,-107.59C539.94,-97.61 514.26,-84.27 497.67,-75.65"/>
<polygon fill="midnightblue" stroke="midnightblue" points="557.8,-110.82 568.29,-112.32 561.03,-104.61 557.8,-110.82"/>
</g>
<!-- Node17 -->
<g id="node17" class="node">
<title>Node17</title>
<g id="a_node17"><a xlink:href="_default_components_8hpp.html" target="_top" xlink:title=" ">
<polygon fill="white" stroke="black" points="577.5,-56.5 577.5,-75.5 712.5,-75.5 712.5,-56.5 577.5,-56.5"/>
<text text-anchor="middle" x="645" y="-63.5" font-family="Helvetica,sans-Serif" font-size="10.00">DefaultComponents.hpp</text>
</a>
</g>
</g>
<!-- Node16&#45;&gt;Node17 -->
<g id="edge18" class="edge">
<title>Node16&#45;&gt;Node17</title>
<path fill="none" stroke="midnightblue" d="M602.18,-105.54C612.88,-95.91 626.26,-83.87 635.18,-75.83"/>
<polygon fill="midnightblue" stroke="midnightblue" points="599.73,-103.03 594.64,-112.32 604.41,-108.24 599.73,-103.03"/>
</g>
<!-- Node17&#45;&gt;Node5 -->
<g id="edge21" class="edge">
<title>Node17&#45;&gt;Node5</title>
<path fill="none" stroke="midnightblue" d="M586.05,-54.66C527.84,-44.46 439.89,-29.04 385.58,-19.52"/>
<polygon fill="midnightblue" stroke="midnightblue" points="585.74,-58.16 596.2,-56.44 586.95,-51.27 585.74,-58.16"/>
</g>
<!-- Node17&#45;&gt;Node6 -->
<g id="edge23" class="edge">
<title>Node17&#45;&gt;Node6</title>
<path fill="none" stroke="midnightblue" d="M609.48,-53.3C578.58,-43.13 534.53,-28.62 506.86,-19.52"/>
<polygon fill="midnightblue" stroke="midnightblue" points="608.42,-56.64 619.01,-56.44 610.61,-49.99 608.42,-56.64"/>
</g>
<!-- Node17&#45;&gt;Node7 -->
<g id="edge25" class="edge">
<title>Node17&#45;&gt;Node7</title>
<path fill="none" stroke="midnightblue" d="M645,-45.8C645,-36.91 645,-26.78 645,-19.75"/>
<polygon fill="midnightblue" stroke="midnightblue" points="641.5,-46.08 645,-56.08 648.5,-46.08 641.5,-46.08"/>
</g>
<!-- Node17&#45;&gt;Node8 -->
<g id="edge26" class="edge">
<title>Node17&#45;&gt;Node8</title>
<path fill="none" stroke="midnightblue" d="M567.25,-55.96C375.03,-36.93 324.94,-39.43 137,-20 134.08,-19.7 131.09,-19.38 128.08,-19.04"/>
<polygon fill="midnightblue" stroke="midnightblue" points="567.11,-59.46 577.41,-56.97 567.8,-52.5 567.11,-59.46"/>
</g>
<!-- Node17&#45;&gt;Node9 -->
<g id="edge27" class="edge">
<title>Node17&#45;&gt;Node9</title>
<path fill="none" stroke="midnightblue" d="M567.18,-55.73C492.29,-46.77 375.87,-32.71 275,-20 272,-19.62 268.93,-19.23 265.84,-18.84"/>
<polygon fill="midnightblue" stroke="midnightblue" points="567.12,-59.25 577.46,-56.96 567.95,-52.3 567.12,-59.25"/>
</g>
<!-- Node18 -->
<g id="node18" class="node">
<title>Node18</title>
<g id="a_node18"><a xlink:href="_camera_aspect_system_8hpp.html" target="_top" xlink:title=" ">
<polygon fill="white" stroke="black" points="903,-0.5 903,-19.5 1049,-19.5 1049,-0.5 903,-0.5"/>
<text text-anchor="middle" x="976" y="-7.5" font-family="Helvetica,sans-Serif" font-size="10.00">CameraAspectSystem.hpp</text>
</a>
</g>
</g>
<!-- Node17&#45;&gt;Node18 -->
<g id="edge19" class="edge">
<title>Node17&#45;&gt;Node18</title>
<path fill="none" stroke="midnightblue" d="M707.58,-54.79C770.12,-44.59 865.19,-29.08 923.8,-19.52"/>
<polygon fill="midnightblue" stroke="midnightblue" points="706.75,-51.38 697.45,-56.44 707.88,-58.29 706.75,-51.38"/>
</g>
<!-- Node19 -->
<g id="node19" class="node">
<title>Node19</title>
<g id="a_node19"><a xlink:href="_script_system_8hpp.html" target="_top" xlink:title=" ">
<polygon fill="white" stroke="black" points="1067,-0.5 1067,-19.5 1169,-19.5 1169,-0.5 1067,-0.5"/>
<text text-anchor="middle" x="1118" y="-7.5" font-family="Helvetica,sans-Serif" font-size="10.00">ScriptSystem.hpp</text>
</a>
</g>
</g>
<!-- Node17&#45;&gt;Node19 -->
<g id="edge20" class="edge">
<title>Node17&#45;&gt;Node19</title>
<path fill="none" stroke="midnightblue" d="M722.82,-57.47C805.93,-49.2 941.44,-35.09 1058,-20 1060.92,-19.62 1063.93,-19.22 1066.96,-18.8"/>
<polygon fill="midnightblue" stroke="midnightblue" points="722.31,-54 712.7,-58.47 723,-60.97 722.31,-54"/>
</g>
<!-- Node20 -->
<g id="node20" class="node">
<title>Node20</title>
<g id="a_node20"><a xlink:href="_camera_data_collector_8hpp.html" target="_top" xlink:title=" ">
<polygon fill="white" stroke="black" points="1187,-0.5 1187,-19.5 1329,-19.5 1329,-0.5 1187,-0.5"/>
<text text-anchor="middle" x="1258" y="-7.5" font-family="Helvetica,sans-Serif" font-size="10.00">CameraDataCollector.hpp</text>
</a>
</g>
</g>
<!-- Node17&#45;&gt;Node20 -->
<g id="edge22" class="edge">
<title>Node17&#45;&gt;Node20</title>
<path fill="none" stroke="midnightblue" d="M722.87,-59.11C826.75,-51.09 1016.34,-35.91 1178,-20 1180.92,-19.71 1183.9,-19.41 1186.91,-19.1"/>
<polygon fill="midnightblue" stroke="midnightblue" points="722.49,-55.63 712.79,-59.88 723.02,-62.61 722.49,-55.63"/>
</g>
<!-- Node21 -->
<g id="node21" class="node">
<title>Node21</title>
<g id="a_node21"><a xlink:href="_forward_render_feature_8hpp.html" target="_top" xlink:title=" ">
<polygon fill="white" stroke="black" points="737,-0.5 737,-19.5 885,-19.5 885,-0.5 737,-0.5"/>
<text text-anchor="middle" x="811" y="-7.5" font-family="Helvetica,sans-Serif" font-size="10.00">ForwardRenderFeature.hpp</text>
</a>
</g>
</g>
<!-- Node17&#45;&gt;Node21 -->
<g id="edge24" class="edge">
<title>Node17&#45;&gt;Node21</title>
<path fill="none" stroke="midnightblue" d="M680.95,-53.3C712.23,-43.13 756.82,-28.62 784.82,-19.52"/>
<polygon fill="midnightblue" stroke="midnightblue" points="679.73,-50.02 671.3,-56.44 681.9,-56.68 679.73,-50.02"/>
</g>
</g>
</svg>
        <g id="navigator" transform="translate(0 0)" fill="#404254">
                <rect fill="#f2f5e9" fill-opacity="0.5" stroke="#606060" stroke-width=".5" x="0" y="0" width="60" height="60"/>
                <use id="zoomplus" xlink:href="#zoomPlus" x="17" y="9" onmousedown="handleZoom(evt,'in')"/>
                <use id="zoomminus" xlink:href="#zoomMin" x="42" y="9" onmousedown="handleZoom(evt,'out')"/>
                <use id="reset" xlink:href="#resetDef" x="30" y="36" onmousedown="handleReset()"/>
                <g id="arrowUp" xlink:href="#dirArrow" transform="translate(30 24)" onmousedown="handlePan(0,-1)">
                  <use xlink:href="#rim" fill="#404040">
                        <set attributeName="fill" to="#808080" begin="arrowUp.mouseover" end="arrowUp.mouseout"/>
                  </use>
                  <path fill="none" stroke="white" stroke-width="1.5" d="M0,-3.0v7 M-2.5,-0.5L0,-3.0L2.5,-0.5"/>
                </g>
                <g id="arrowRight" xlink:href="#dirArrow" transform="rotate(90) translate(36 -43)" onmousedown="handlePan(1,0)">
                  <use xlink:href="#rim" fill="#404040">
                        <set attributeName="fill" to="#808080" begin="arrowRight.mouseover" end="arrowRight.mouseout"/>
                  </use>
                  <path fill="none" stroke="white" stroke-width="1.5" d="M0,-3.0v7 M-2.5,-0.5L0,-3.0L2.5,-0.5"/>
                </g>
                <g id="arrowDown" xlink:href="#dirArrow" transform="rotate(180) translate(-30 -48)" onmousedown="handlePan(0,1)">
                  <use xlink:href="#rim" fill="#404040">
                        <set attributeName="fill" to="#808080" begin="arrowDown.mouseover" end="arrowDown.mouseout"/>
                  </use>
                  <path fill="none" stroke="white" stroke-width="1.5" d="M0,-3.0v7 M-2.5,-0.5L0,-3.0L2.5,-0.5"/>
                </g>
                <g id="arrowLeft" xlink:href="#dirArrow" transform="rotate(270) translate(-36 17)" onmousedown="handlePan(-1,0)">
                  <use xlink:href="#rim" fill="#404040">
                        <set attributeName="fill" to="#808080" begin="arrowLeft.mouseover" end="arrowLeft.mouseout"/>
                  </use>
                  <path fill="none" stroke="white" stroke-width="1.5" d="M0,-3.0v7 M-2.5,-0.5L0,-3.0L2.5,-0.5"/>
                </g>
        </g>
        <svg viewBox="0 0 15 15" width="100%" height="30px" preserveAspectRatio="xMaxYMin meet">
         <g id="arrow_out" transform="scale(0.3 0.3)">
          <a xlink:href="_core_2_log_channel_8hpp__dep__incl_org.svg" target="_base">
           <rect id="button" ry="5" rx="5" y="6" x="6" height="38" width="38"
                fill="#f2f5e9" fill-opacity="0.5" stroke="#606060" stroke-width="1.0"/>
           <path id="arrow"
             d="M 11.500037,31.436501 C 11.940474,20.09759 22.043105,11.32322 32.158766,21.979434 L 37.068811,17.246167 C 37.068811,17.246167 37.088388,32 37.088388,32 L 22.160133,31.978069 C 22.160133,31.978069 26.997745,27.140456 26.997745,27.140456 C 18.528582,18.264221 13.291696,25.230495 11.500037,31.436501 z"
             style="fill:#404040;"/>
          </a>
         </g>
        </svg>
</svg>
