<?xml version="1.0" encoding="UTF-8" standalone="no"?>
<!DOCTYPE svg PUBLIC "-//W3C//DTD SVG 1.1//EN"
 "http://www.w3.org/Graphics/SVG/1.1/DTD/svg11.dtd">
<!-- Generated by graphviz version 2.43.0 (0)
 -->
<!-- Title: DeclarationStack.hpp Pages: 1 -->
<svg width="1153pt" height="140pt"
 viewBox="0.00 0.00 1152.50 140.00" xmlns="http://www.w3.org/2000/svg" xmlns:xlink="http://www.w3.org/1999/xlink">
<g id="graph0" class="graph" transform="scale(1 1) rotate(0) translate(4 136)">
<title>DeclarationStack.hpp</title>
<polygon fill="white" stroke="transparent" points="-4,4 -4,-136 1148.5,-136 1148.5,4 -4,4"/>
<!-- Node1 -->
<g id="node1" class="node">
<title>Node1</title>
<g id="a_node1"><a xlink:title=" ">
<polygon fill="#bfbfbf" stroke="black" points="544.5,-112.5 544.5,-131.5 665.5,-131.5 665.5,-112.5 544.5,-112.5"/>
<text text-anchor="middle" x="605" y="-119.5" font-family="Helvetica,sans-Serif" font-size="10.00">DeclarationStack.hpp</text>
</a>
</g>
</g>
<!-- Node2 -->
<g id="node2" class="node">
<title>Node2</title>
<g id="a_node2"><a xlink:href="_feature_8hpp.html" target="_top" xlink:title=" ">
<polygon fill="white" stroke="black" points="568,-56.5 568,-75.5 642,-75.5 642,-56.5 568,-56.5"/>
<text text-anchor="middle" x="605" y="-63.5" font-family="Helvetica,sans-Serif" font-size="10.00">Feature.hpp</text>
</a>
</g>
</g>
<!-- Node1&#45;&gt;Node2 -->
<g id="edge1" class="edge">
<title>Node1&#45;&gt;Node2</title>
<path fill="none" stroke="midnightblue" d="M605,-101.8C605,-92.91 605,-82.78 605,-75.75"/>
<polygon fill="midnightblue" stroke="midnightblue" points="601.5,-102.08 605,-112.08 608.5,-102.08 601.5,-102.08"/>
</g>
<!-- Node3 -->
<g id="node3" class="node">
<title>Node3</title>
<g id="a_node3"><a xlink:href="_bloom_feature_8hpp.html" target="_top" xlink:title=" ">
<polygon fill="white" stroke="black" points="0,-0.5 0,-19.5 106,-19.5 106,-0.5 0,-0.5"/>
<text text-anchor="middle" x="53" y="-7.5" font-family="Helvetica,sans-Serif" font-size="10.00">BloomFeature.hpp</text>
</a>
</g>
</g>
<!-- Node2&#45;&gt;Node3 -->
<g id="edge2" class="edge">
<title>Node2&#45;&gt;Node3</title>
<path fill="none" stroke="midnightblue" d="M557.59,-61.48C470.02,-54.79 277.02,-39.19 115,-20 112.08,-19.65 109.09,-19.28 106.08,-18.89"/>
<polygon fill="midnightblue" stroke="midnightblue" points="557.5,-64.98 567.74,-62.25 558.03,-58 557.5,-64.98"/>
</g>
<!-- Node4 -->
<g id="node4" class="node">
<title>Node4</title>
<g id="a_node4"><a xlink:href="_camera_data_collector_8hpp.html" target="_top" xlink:title=" ">
<polygon fill="white" stroke="black" points="124,-0.5 124,-19.5 266,-19.5 266,-0.5 124,-0.5"/>
<text text-anchor="middle" x="195" y="-7.5" font-family="Helvetica,sans-Serif" font-size="10.00">CameraDataCollector.hpp</text>
</a>
</g>
</g>
<!-- Node2&#45;&gt;Node4 -->
<g id="edge3" class="edge">
<title>Node2&#45;&gt;Node4</title>
<path fill="none" stroke="midnightblue" d="M557.56,-58.75C484.05,-49.07 342.49,-30.43 259.68,-19.52"/>
<polygon fill="midnightblue" stroke="midnightblue" points="557.52,-62.28 567.89,-60.11 558.43,-55.34 557.52,-62.28"/>
</g>
<!-- Node5 -->
<g id="node5" class="node">
<title>Node5</title>
<g id="a_node5"><a xlink:href="_clustered_light_feature_8hpp.html" target="_top" xlink:title=" ">
<polygon fill="white" stroke="black" points="284.5,-0.5 284.5,-19.5 429.5,-19.5 429.5,-0.5 284.5,-0.5"/>
<text text-anchor="middle" x="357" y="-7.5" font-family="Helvetica,sans-Serif" font-size="10.00">ClusteredLightFeature.hpp</text>
</a>
</g>
</g>
<!-- Node2&#45;&gt;Node5 -->
<g id="edge4" class="edge">
<title>Node2&#45;&gt;Node5</title>
<path fill="none" stroke="midnightblue" d="M557.99,-54.76C511.24,-44.59 440.33,-29.15 396.43,-19.59"/>
<polygon fill="midnightblue" stroke="midnightblue" points="557.36,-58.21 567.87,-56.92 558.85,-51.37 557.36,-58.21"/>
</g>
<!-- Node6 -->
<g id="node6" class="node">
<title>Node6</title>
<g id="a_node6"><a xlink:href="_forward_render_feature_8hpp.html" target="_top" xlink:title=" ">
<polygon fill="white" stroke="black" points="448,-0.5 448,-19.5 596,-19.5 596,-0.5 448,-0.5"/>
<text text-anchor="middle" x="522" y="-7.5" font-family="Helvetica,sans-Serif" font-size="10.00">ForwardRenderFeature.hpp</text>
</a>
</g>
</g>
<!-- Node2&#45;&gt;Node6 -->
<g id="edge5" class="edge">
<title>Node2&#45;&gt;Node6</title>
<path fill="none" stroke="midnightblue" d="M582.9,-50.62C567.74,-40.76 548.12,-27.99 535.3,-19.65"/>
<polygon fill="midnightblue" stroke="midnightblue" points="581.37,-53.8 591.66,-56.32 585.19,-47.94 581.37,-53.8"/>
</g>
<!-- Node7 -->
<g id="node7" class="node">
<title>Node7</title>
<g id="a_node7"><a xlink:href="_particle_system_feature_8hpp.html" target="_top" xlink:title=" ">
<polygon fill="white" stroke="black" points="614.5,-0.5 614.5,-19.5 761.5,-19.5 761.5,-0.5 614.5,-0.5"/>
<text text-anchor="middle" x="688" y="-7.5" font-family="Helvetica,sans-Serif" font-size="10.00">ParticleSystemFeature.hpp</text>
</a>
</g>
</g>
<!-- Node2&#45;&gt;Node7 -->
<g id="edge6" class="edge">
<title>Node2&#45;&gt;Node7</title>
<path fill="none" stroke="midnightblue" d="M627.1,-50.62C642.26,-40.76 661.88,-27.99 674.7,-19.65"/>
<polygon fill="midnightblue" stroke="midnightblue" points="624.81,-47.94 618.34,-56.32 628.63,-53.8 624.81,-47.94"/>
</g>
<!-- Node8 -->
<g id="node8" class="node">
<title>Node8</title>
<g id="a_node8"><a xlink:href="_static_mesh_feature_8hpp.html" target="_top" xlink:title=" ">
<polygon fill="white" stroke="black" points="780,-0.5 780,-19.5 908,-19.5 908,-0.5 780,-0.5"/>
<text text-anchor="middle" x="844" y="-7.5" font-family="Helvetica,sans-Serif" font-size="10.00">StaticMeshFeature.hpp</text>
</a>
</g>
</g>
<!-- Node2&#45;&gt;Node8 -->
<g id="edge7" class="edge">
<title>Node2&#45;&gt;Node8</title>
<path fill="none" stroke="midnightblue" d="M651.91,-54.4C696.98,-44.22 764.24,-29.02 806.04,-19.58"/>
<polygon fill="midnightblue" stroke="midnightblue" points="651.06,-51 642.08,-56.62 652.61,-57.83 651.06,-51"/>
</g>
<!-- Node9 -->
<g id="node9" class="node">
<title>Node9</title>
<g id="a_node9"><a xlink:href="_tonemap_feature_8hpp.html" target="_top" xlink:title=" ">
<polygon fill="white" stroke="black" points="926.5,-0.5 926.5,-19.5 1045.5,-19.5 1045.5,-0.5 926.5,-0.5"/>
<text text-anchor="middle" x="986" y="-7.5" font-family="Helvetica,sans-Serif" font-size="10.00">TonemapFeature.hpp</text>
</a>
</g>
</g>
<!-- Node2&#45;&gt;Node9 -->
<g id="edge8" class="edge">
<title>Node2&#45;&gt;Node9</title>
<path fill="none" stroke="midnightblue" d="M652.41,-58.28C721.7,-48.46 850.57,-30.19 926.25,-19.47"/>
<polygon fill="midnightblue" stroke="midnightblue" points="651.64,-54.86 642.23,-59.72 652.62,-61.79 651.64,-54.86"/>
</g>
<!-- Node10 -->
<g id="node10" class="node">
<title>Node10</title>
<g id="a_node10"><a xlink:href="_renderer_8hpp.html" target="_top" xlink:title=" ">
<polygon fill="white" stroke="black" points="1063.5,-0.5 1063.5,-19.5 1144.5,-19.5 1144.5,-0.5 1063.5,-0.5"/>
<text text-anchor="middle" x="1104" y="-7.5" font-family="Helvetica,sans-Serif" font-size="10.00">Renderer.hpp</text>
</a>
</g>
</g>
<!-- Node2&#45;&gt;Node10 -->
<g id="edge9" class="edge">
<title>Node2&#45;&gt;Node10</title>
<path fill="none" stroke="midnightblue" d="M652.19,-61.56C734.3,-55.29 908.69,-40.72 1055,-20 1057.74,-19.61 1060.56,-19.18 1063.4,-18.72"/>
<polygon fill="midnightblue" stroke="midnightblue" points="651.87,-58.08 642.17,-62.32 652.4,-65.06 651.87,-58.08"/>
</g>
</g>
</svg>
