<?xml version="1.0" encoding="UTF-8" standalone="no"?>
<!DOCTYPE svg PUBLIC "-//W3C//DTD SVG 1.1//EN"
 "http://www.w3.org/Graphics/SVG/1.1/DTD/svg11.dtd">
<!-- Generated by graphviz version 2.43.0 (0)
 -->
<!-- Title: DeclarationParser.hpp Pages: 1 -->
<svg width="582pt" height="364pt"
 viewBox="0.00 0.00 582.00 364.00" xmlns="http://www.w3.org/2000/svg" xmlns:xlink="http://www.w3.org/1999/xlink">
<g id="graph0" class="graph" transform="scale(1 1) rotate(0) translate(4 360)">
<title>DeclarationParser.hpp</title>
<polygon fill="white" stroke="transparent" points="-4,4 -4,-360 578,-360 578,4 -4,4"/>
<!-- Node1 -->
<g id="node1" class="node">
<title>Node1</title>
<g id="a_node1"><a xlink:title=" ">
<polygon fill="#bfbfbf" stroke="black" points="376.5,-336.5 376.5,-355.5 499.5,-355.5 499.5,-336.5 376.5,-336.5"/>
<text text-anchor="middle" x="438" y="-343.5" font-family="Helvetica,sans-Serif" font-size="10.00">DeclarationParser.hpp</text>
</a>
</g>
</g>
<!-- Node2 -->
<g id="node2" class="node">
<title>Node2</title>
<g id="a_node2"><a xlink:href="_declaration_8hpp.html" target="_top" xlink:title=" ">
<polygon fill="white" stroke="black" points="139.5,-280.5 139.5,-299.5 370.5,-299.5 370.5,-280.5 139.5,-280.5"/>
<text text-anchor="middle" x="255" y="-287.5" font-family="Helvetica,sans-Serif" font-size="10.00">Liger&#45;Engine/ShaderSystem/Declaration.hpp</text>
</a>
</g>
</g>
<!-- Node1&#45;&gt;Node2 -->
<g id="edge1" class="edge">
<title>Node1&#45;&gt;Node2</title>
<path fill="none" stroke="midnightblue" d="M409,-336.44C377.82,-327.24 328.07,-312.56 293.59,-302.39"/>
<polygon fill="midnightblue" stroke="midnightblue" points="294.44,-298.99 283.86,-299.52 292.46,-305.7 294.44,-298.99"/>
</g>
<!-- Node13 -->
<g id="node13" class="node">
<title>Node13</title>
<g id="a_node13"><a xlink:title=" ">
<polygon fill="white" stroke="#bfbfbf" points="388.5,-280.5 388.5,-299.5 487.5,-299.5 487.5,-280.5 388.5,-280.5"/>
<text text-anchor="middle" x="438" y="-287.5" font-family="Helvetica,sans-Serif" font-size="10.00">yaml&#45;cpp/yaml.h</text>
</a>
</g>
</g>
<!-- Node1&#45;&gt;Node13 -->
<g id="edge13" class="edge">
<title>Node1&#45;&gt;Node13</title>
<path fill="none" stroke="midnightblue" d="M438,-336.08C438,-329.01 438,-318.86 438,-309.99"/>
<polygon fill="midnightblue" stroke="midnightblue" points="441.5,-309.75 438,-299.75 434.5,-309.75 441.5,-309.75"/>
</g>
<!-- Node14 -->
<g id="node14" class="node">
<title>Node14</title>
<g id="a_node14"><a xlink:title=" ">
<polygon fill="white" stroke="#bfbfbf" points="506,-280.5 506,-299.5 574,-299.5 574,-280.5 506,-280.5"/>
<text text-anchor="middle" x="540" y="-287.5" font-family="Helvetica,sans-Serif" font-size="10.00">filesystem</text>
</a>
</g>
</g>
<!-- Node1&#45;&gt;Node14 -->
<g id="edge14" class="edge">
<title>Node1&#45;&gt;Node14</title>
<path fill="none" stroke="midnightblue" d="M454.39,-336.32C470.67,-327.7 495.87,-314.36 514.72,-304.39"/>
<polygon fill="midnightblue" stroke="midnightblue" points="516.45,-307.43 523.65,-299.65 513.18,-301.24 516.45,-307.43"/>
</g>
<!-- Node3 -->
<g id="node3" class="node">
<title>Node3</title>
<g id="a_node3"><a xlink:href="_pipeline_8hpp.html" target="_top" xlink:title=" ">
<polygon fill="white" stroke="black" points="174.5,-224.5 174.5,-243.5 335.5,-243.5 335.5,-224.5 174.5,-224.5"/>
<text text-anchor="middle" x="255" y="-231.5" font-family="Helvetica,sans-Serif" font-size="10.00">Liger&#45;Engine/RHI/Pipeline.hpp</text>
</a>
</g>
</g>
<!-- Node2&#45;&gt;Node3 -->
<g id="edge2" class="edge">
<title>Node2&#45;&gt;Node3</title>
<path fill="none" stroke="midnightblue" d="M255,-280.08C255,-273.01 255,-262.86 255,-253.99"/>
<polygon fill="midnightblue" stroke="midnightblue" points="258.5,-253.75 255,-243.75 251.5,-253.75 258.5,-253.75"/>
</g>
<!-- Node4 -->
<g id="node4" class="node">
<title>Node4</title>
<g id="a_node4"><a xlink:href="_format_8hpp.html" target="_top" xlink:title=" ">
<polygon fill="white" stroke="black" points="0,-112.5 0,-131.5 156,-131.5 156,-112.5 0,-112.5"/>
<text text-anchor="middle" x="78" y="-119.5" font-family="Helvetica,sans-Serif" font-size="10.00">Liger&#45;Engine/RHI/Format.hpp</text>
</a>
</g>
</g>
<!-- Node3&#45;&gt;Node4 -->
<g id="edge3" class="edge">
<title>Node3&#45;&gt;Node4</title>
<path fill="none" stroke="midnightblue" d="M223.59,-224.35C199.92,-216.95 167.33,-204.82 142,-188 121.9,-174.65 103.05,-154.17 91.09,-139.77"/>
<polygon fill="midnightblue" stroke="midnightblue" points="93.58,-137.29 84.58,-131.71 88.14,-141.69 93.58,-137.29"/>
</g>
<!-- Node6 -->
<g id="node6" class="node">
<title>Node6</title>
<g id="a_node6"><a xlink:href="_push_constant_info_8hpp.html" target="_top" xlink:title=" ">
<polygon fill="white" stroke="black" points="151.5,-168.5 151.5,-187.5 358.5,-187.5 358.5,-168.5 151.5,-168.5"/>
<text text-anchor="middle" x="255" y="-175.5" font-family="Helvetica,sans-Serif" font-size="10.00">Liger&#45;Engine/RHI/PushConstantInfo.hpp</text>
</a>
</g>
</g>
<!-- Node3&#45;&gt;Node6 -->
<g id="edge5" class="edge">
<title>Node3&#45;&gt;Node6</title>
<path fill="none" stroke="midnightblue" d="M255,-224.08C255,-217.01 255,-206.86 255,-197.99"/>
<polygon fill="midnightblue" stroke="midnightblue" points="258.5,-197.75 255,-187.75 251.5,-197.75 258.5,-197.75"/>
</g>
<!-- Node12 -->
<g id="node12" class="node">
<title>Node12</title>
<g id="a_node12"><a xlink:title=" ">
<polygon fill="white" stroke="#bfbfbf" points="376.5,-168.5 376.5,-187.5 423.5,-187.5 423.5,-168.5 376.5,-168.5"/>
<text text-anchor="middle" x="400" y="-175.5" font-family="Helvetica,sans-Serif" font-size="10.00">vector</text>
</a>
</g>
</g>
<!-- Node3&#45;&gt;Node12 -->
<g id="edge12" class="edge">
<title>Node3&#45;&gt;Node12</title>
<path fill="none" stroke="midnightblue" d="M277.98,-224.44C302.16,-215.44 340.42,-201.19 367.65,-191.05"/>
<polygon fill="midnightblue" stroke="midnightblue" points="368.98,-194.29 377.13,-187.52 366.54,-187.73 368.98,-194.29"/>
</g>
<!-- Node5 -->
<g id="node5" class="node">
<title>Node5</title>
<g id="a_node5"><a xlink:title=" ">
<polygon fill="white" stroke="#bfbfbf" points="78,-56.5 78,-75.5 128,-75.5 128,-56.5 78,-56.5"/>
<text text-anchor="middle" x="103" y="-63.5" font-family="Helvetica,sans-Serif" font-size="10.00">cstdint</text>
</a>
</g>
</g>
<!-- Node4&#45;&gt;Node5 -->
<g id="edge4" class="edge">
<title>Node4&#45;&gt;Node5</title>
<path fill="none" stroke="midnightblue" d="M82.13,-112.08C85.51,-104.77 90.42,-94.18 94.62,-85.1"/>
<polygon fill="midnightblue" stroke="midnightblue" points="97.92,-86.3 98.95,-75.75 91.57,-83.36 97.92,-86.3"/>
</g>
<!-- Node7 -->
<g id="node7" class="node">
<title>Node7</title>
<g id="a_node7"><a xlink:href="_shader_module_8hpp.html" target="_top" xlink:title=" ">
<polygon fill="white" stroke="black" points="174.5,-112.5 174.5,-131.5 365.5,-131.5 365.5,-112.5 174.5,-112.5"/>
<text text-anchor="middle" x="270" y="-119.5" font-family="Helvetica,sans-Serif" font-size="10.00">Liger&#45;Engine/RHI/ShaderModule.hpp</text>
</a>
</g>
</g>
<!-- Node6&#45;&gt;Node7 -->
<g id="edge6" class="edge">
<title>Node6&#45;&gt;Node7</title>
<path fill="none" stroke="midnightblue" d="M257.48,-168.08C259.49,-160.85 262.39,-150.41 264.89,-141.4"/>
<polygon fill="midnightblue" stroke="midnightblue" points="268.26,-142.32 267.57,-131.75 261.52,-140.45 268.26,-142.32"/>
</g>
<!-- Node7&#45;&gt;Node5 -->
<g id="edge10" class="edge">
<title>Node7&#45;&gt;Node5</title>
<path fill="none" stroke="midnightblue" d="M243.54,-112.44C214.99,-103.21 169.4,-88.47 137.93,-78.29"/>
<polygon fill="midnightblue" stroke="midnightblue" points="138.84,-74.91 128.24,-75.16 136.68,-81.57 138.84,-74.91"/>
</g>
<!-- Node8 -->
<g id="node8" class="node">
<title>Node8</title>
<g id="a_node8"><a xlink:href="_enum_bitmask_8hpp.html" target="_top" xlink:title=" ">
<polygon fill="white" stroke="black" points="159.5,-56.5 159.5,-75.5 354.5,-75.5 354.5,-56.5 159.5,-56.5"/>
<text text-anchor="middle" x="257" y="-63.5" font-family="Helvetica,sans-Serif" font-size="10.00">Liger&#45;Engine/Core/EnumBitmask.hpp</text>
</a>
</g>
</g>
<!-- Node7&#45;&gt;Node8 -->
<g id="edge7" class="edge">
<title>Node7&#45;&gt;Node8</title>
<path fill="none" stroke="midnightblue" d="M267.85,-112.08C266.13,-104.93 263.65,-94.64 261.5,-85.69"/>
<polygon fill="midnightblue" stroke="midnightblue" points="264.85,-84.65 259.11,-75.75 258.04,-86.29 264.85,-84.65"/>
</g>
<!-- Node11 -->
<g id="node11" class="node">
<title>Node11</title>
<g id="a_node11"><a xlink:title=" ">
<polygon fill="white" stroke="#bfbfbf" points="373,-56.5 373,-75.5 413,-75.5 413,-56.5 373,-56.5"/>
<text text-anchor="middle" x="393" y="-63.5" font-family="Helvetica,sans-Serif" font-size="10.00">span</text>
</a>
</g>
</g>
<!-- Node7&#45;&gt;Node11 -->
<g id="edge11" class="edge">
<title>Node7&#45;&gt;Node11</title>
<path fill="none" stroke="midnightblue" d="M289.49,-112.44C309.64,-103.6 341.32,-89.69 364.33,-79.59"/>
<polygon fill="midnightblue" stroke="midnightblue" points="365.85,-82.74 373.6,-75.52 363.04,-76.33 365.85,-82.74"/>
</g>
<!-- Node9 -->
<g id="node9" class="node">
<title>Node9</title>
<g id="a_node9"><a xlink:title=" ">
<polygon fill="white" stroke="#bfbfbf" points="164.5,-0.5 164.5,-19.5 233.5,-19.5 233.5,-0.5 164.5,-0.5"/>
<text text-anchor="middle" x="199" y="-7.5" font-family="Helvetica,sans-Serif" font-size="10.00">type_traits</text>
</a>
</g>
</g>
<!-- Node8&#45;&gt;Node9 -->
<g id="edge8" class="edge">
<title>Node8&#45;&gt;Node9</title>
<path fill="none" stroke="midnightblue" d="M247.68,-56.32C239.11,-48.34 226.19,-36.31 215.81,-26.65"/>
<polygon fill="midnightblue" stroke="midnightblue" points="218.19,-24.09 208.49,-19.83 213.42,-29.21 218.19,-24.09"/>
</g>
<!-- Node10 -->
<g id="node10" class="node">
<title>Node10</title>
<g id="a_node10"><a xlink:title=" ">
<polygon fill="white" stroke="#bfbfbf" points="251.5,-0.5 251.5,-19.5 380.5,-19.5 380.5,-0.5 251.5,-0.5"/>
<text text-anchor="middle" x="316" y="-7.5" font-family="Helvetica,sans-Serif" font-size="10.00">magic_enum_flags.hpp</text>
</a>
</g>
</g>
<!-- Node8&#45;&gt;Node10 -->
<g id="edge9" class="edge">
<title>Node8&#45;&gt;Node10</title>
<path fill="none" stroke="midnightblue" d="M266.48,-56.32C275.2,-48.34 288.34,-36.31 298.9,-26.65"/>
<polygon fill="midnightblue" stroke="midnightblue" points="301.33,-29.17 306.35,-19.83 296.61,-24 301.33,-29.17"/>
</g>
</g>
</svg>
