<?xml version="1.0" encoding="UTF-8" standalone="no"?>
<!DOCTYPE svg PUBLIC "-//W3C//DTD SVG 1.1//EN"
 "http://www.w3.org/Graphics/SVG/1.1/DTD/svg11.dtd">
<!-- Generated by graphviz version 2.43.0 (0)
 -->
<!-- Title: DefaultComponents.hpp Pages: 1 -->
<svg width="1772pt" height="532pt"
 viewBox="0.00 0.00 1772.00 532.00" xmlns="http://www.w3.org/2000/svg" xmlns:xlink="http://www.w3.org/1999/xlink">
<g id="graph0" class="graph" transform="scale(1 1) rotate(0) translate(4 528)">
<title>DefaultComponents.hpp</title>
<polygon fill="white" stroke="transparent" points="-4,4 -4,-528 1768,-528 1768,4 -4,4"/>
<!-- Node1 -->
<g id="node1" class="node">
<title>Node1</title>
<g id="a_node1"><a xlink:title=" ">
<polygon fill="#bfbfbf" stroke="black" points="799,-504.5 799,-523.5 934,-523.5 934,-504.5 799,-504.5"/>
<text text-anchor="middle" x="866.5" y="-511.5" font-family="Helvetica,sans-Serif" font-size="10.00">DefaultComponents.hpp</text>
</a>
</g>
</g>
<!-- Node2 -->
<g id="node2" class="node">
<title>Node2</title>
<g id="a_node2"><a xlink:href="_math_8hpp.html" target="_top" xlink:title=" ">
<polygon fill="white" stroke="black" points="1038,-448.5 1038,-467.5 1217,-467.5 1217,-448.5 1038,-448.5"/>
<text text-anchor="middle" x="1127.5" y="-455.5" font-family="Helvetica,sans-Serif" font-size="10.00">Liger&#45;Engine/Core/Math/Math.hpp</text>
</a>
</g>
</g>
<!-- Node1&#45;&gt;Node2 -->
<g id="edge1" class="edge">
<title>Node1&#45;&gt;Node2</title>
<path fill="none" stroke="midnightblue" d="M907.86,-504.44C953.58,-494.98 1027.26,-479.74 1076.52,-469.55"/>
<polygon fill="midnightblue" stroke="midnightblue" points="1077.25,-472.97 1086.34,-467.52 1075.84,-466.12 1077.25,-472.97"/>
</g>
<!-- Node12 -->
<g id="node12" class="node">
<title>Node12</title>
<g id="a_node12"><a xlink:href="_scene_8hpp.html" target="_top" xlink:title=" ">
<polygon fill="white" stroke="black" points="674.5,-392.5 674.5,-411.5 826.5,-411.5 826.5,-392.5 674.5,-392.5"/>
<text text-anchor="middle" x="750.5" y="-399.5" font-family="Helvetica,sans-Serif" font-size="10.00">Liger&#45;Engine/ECS/Scene.hpp</text>
</a>
</g>
</g>
<!-- Node1&#45;&gt;Node12 -->
<g id="edge12" class="edge">
<title>Node1&#45;&gt;Node12</title>
<path fill="none" stroke="midnightblue" d="M862.88,-504.07C857.06,-490.59 844.53,-464.84 827.5,-448 813.91,-434.57 795.54,-423.63 780.14,-415.9"/>
<polygon fill="midnightblue" stroke="midnightblue" points="781.54,-412.69 771.01,-411.51 778.51,-419 781.54,-412.69"/>
</g>
<!-- Node17 -->
<g id="node17" class="node">
<title>Node17</title>
<g id="a_node17"><a xlink:href="_script_8hpp.html" target="_top" xlink:title=" ">
<polygon fill="white" stroke="black" points="668,-448.5 668,-467.5 819,-467.5 819,-448.5 668,-448.5"/>
<text text-anchor="middle" x="743.5" y="-455.5" font-family="Helvetica,sans-Serif" font-size="10.00">Liger&#45;Engine/ECS/Script.hpp</text>
</a>
</g>
</g>
<!-- Node1&#45;&gt;Node17 -->
<g id="edge18" class="edge">
<title>Node1&#45;&gt;Node17</title>
<path fill="none" stroke="midnightblue" d="M847.01,-504.44C826.86,-495.6 795.18,-481.69 772.17,-471.59"/>
<polygon fill="midnightblue" stroke="midnightblue" points="773.46,-468.33 762.9,-467.52 770.65,-474.74 773.46,-468.33"/>
</g>
<!-- Node26 -->
<g id="node26" class="node">
<title>Node26</title>
<g id="a_node26"><a xlink:title=" ">
<polygon fill="white" stroke="#bfbfbf" points="821.5,-0.5 821.5,-19.5 865.5,-19.5 865.5,-0.5 821.5,-0.5"/>
<text text-anchor="middle" x="843.5" y="-7.5" font-family="Helvetica,sans-Serif" font-size="10.00">string</text>
</a>
</g>
</g>
<!-- Node1&#45;&gt;Node26 -->
<g id="edge38" class="edge">
<title>Node1&#45;&gt;Node26</title>
<path fill="none" stroke="midnightblue" d="M869.06,-504.25C874.25,-485.74 885.5,-441.18 885.5,-403 885.5,-403 885.5,-403 885.5,-121 885.5,-86.41 867.15,-49.49 854.71,-28.43"/>
<polygon fill="midnightblue" stroke="midnightblue" points="857.56,-26.38 849.34,-19.69 851.59,-30.04 857.56,-26.38"/>
</g>
<!-- Node3 -->
<g id="node3" class="node">
<title>Node3</title>
<g id="a_node3"><a xlink:href="_formatting_8hpp.html" target="_top" xlink:title=" ">
<polygon fill="white" stroke="black" points="913.5,-392.5 913.5,-411.5 1121.5,-411.5 1121.5,-392.5 913.5,-392.5"/>
<text text-anchor="middle" x="1017.5" y="-399.5" font-family="Helvetica,sans-Serif" font-size="10.00">Liger&#45;Engine/Core/Math/Formatting.hpp</text>
</a>
</g>
</g>
<!-- Node2&#45;&gt;Node3 -->
<g id="edge2" class="edge">
<title>Node2&#45;&gt;Node3</title>
<path fill="none" stroke="midnightblue" d="M1109.83,-448.32C1092.11,-439.62 1064.6,-426.12 1044.21,-416.11"/>
<polygon fill="midnightblue" stroke="midnightblue" points="1045.65,-412.92 1035.13,-411.65 1042.56,-419.2 1045.65,-412.92"/>
</g>
<!-- Node6 -->
<g id="node6" class="node">
<title>Node6</title>
<g id="a_node6"><a xlink:href="_random_8hpp.html" target="_top" xlink:title=" ">
<polygon fill="white" stroke="black" points="1140,-392.5 1140,-411.5 1335,-411.5 1335,-392.5 1140,-392.5"/>
<text text-anchor="middle" x="1237.5" y="-399.5" font-family="Helvetica,sans-Serif" font-size="10.00">Liger&#45;Engine/Core/Math/Random.hpp</text>
</a>
</g>
</g>
<!-- Node2&#45;&gt;Node6 -->
<g id="edge5" class="edge">
<title>Node2&#45;&gt;Node6</title>
<path fill="none" stroke="midnightblue" d="M1145.17,-448.32C1162.89,-439.62 1190.4,-426.12 1210.79,-416.11"/>
<polygon fill="midnightblue" stroke="midnightblue" points="1212.44,-419.2 1219.87,-411.65 1209.35,-412.92 1212.44,-419.2"/>
</g>
<!-- Node8 -->
<g id="node8" class="node">
<title>Node8</title>
<g id="a_node8"><a xlink:href="_transform3_d_8hpp.html" target="_top" xlink:title=" ">
<polygon fill="white" stroke="black" points="1397,-392.5 1397,-411.5 1614,-411.5 1614,-392.5 1397,-392.5"/>
<text text-anchor="middle" x="1505.5" y="-399.5" font-family="Helvetica,sans-Serif" font-size="10.00">Liger&#45;Engine/Core/Math/Transform3D.hpp</text>
</a>
</g>
</g>
<!-- Node2&#45;&gt;Node8 -->
<g id="edge8" class="edge">
<title>Node2&#45;&gt;Node8</title>
<path fill="none" stroke="midnightblue" d="M1187.4,-448.44C1254.86,-438.81 1364.36,-423.16 1435.65,-412.98"/>
<polygon fill="midnightblue" stroke="midnightblue" points="1436.48,-416.4 1445.88,-411.52 1435.49,-409.47 1436.48,-416.4"/>
</g>
<!-- Node4 -->
<g id="node4" class="node">
<title>Node4</title>
<g id="a_node4"><a xlink:title=" ">
<polygon fill="white" stroke="#bfbfbf" points="932,-112.5 932,-131.5 999,-131.5 999,-112.5 932,-112.5"/>
<text text-anchor="middle" x="965.5" y="-119.5" font-family="Helvetica,sans-Serif" font-size="10.00">fmt/core.h</text>
</a>
</g>
</g>
<!-- Node3&#45;&gt;Node4 -->
<g id="edge3" class="edge">
<title>Node3&#45;&gt;Node4</title>
<path fill="none" stroke="midnightblue" d="M1012.78,-392.46C1003.23,-374.34 982.5,-330.48 982.5,-291 982.5,-291 982.5,-291 982.5,-233 982.5,-200.58 975.2,-163.42 970.17,-141.64"/>
<polygon fill="midnightblue" stroke="midnightblue" points="973.53,-140.67 967.79,-131.77 966.73,-142.31 973.53,-140.67"/>
</g>
<!-- Node5 -->
<g id="node5" class="node">
<title>Node5</title>
<g id="a_node5"><a xlink:title=" ">
<polygon fill="white" stroke="#bfbfbf" points="1058.5,-336.5 1058.5,-355.5 1136.5,-355.5 1136.5,-336.5 1058.5,-336.5"/>
<text text-anchor="middle" x="1097.5" y="-343.5" font-family="Helvetica,sans-Serif" font-size="10.00">glm/glm.hpp</text>
</a>
</g>
</g>
<!-- Node3&#45;&gt;Node5 -->
<g id="edge4" class="edge">
<title>Node3&#45;&gt;Node5</title>
<path fill="none" stroke="midnightblue" d="M1030.35,-392.32C1042.72,-383.98 1061.63,-371.21 1076.24,-361.35"/>
<polygon fill="midnightblue" stroke="midnightblue" points="1078.35,-364.15 1084.68,-355.65 1074.43,-358.35 1078.35,-364.15"/>
</g>
<!-- Node6&#45;&gt;Node5 -->
<g id="edge6" class="edge">
<title>Node6&#45;&gt;Node5</title>
<path fill="none" stroke="midnightblue" d="M1215.32,-392.44C1192.07,-383.48 1155.35,-369.31 1129.08,-359.18"/>
<polygon fill="midnightblue" stroke="midnightblue" points="1130.17,-355.85 1119.58,-355.52 1127.65,-362.38 1130.17,-355.85"/>
</g>
<!-- Node7 -->
<g id="node7" class="node">
<title>Node7</title>
<g id="a_node7"><a xlink:title=" ">
<polygon fill="white" stroke="#bfbfbf" points="1188.5,-336.5 1188.5,-355.5 1242.5,-355.5 1242.5,-336.5 1188.5,-336.5"/>
<text text-anchor="middle" x="1215.5" y="-343.5" font-family="Helvetica,sans-Serif" font-size="10.00">random</text>
</a>
</g>
</g>
<!-- Node6&#45;&gt;Node7 -->
<g id="edge7" class="edge">
<title>Node6&#45;&gt;Node7</title>
<path fill="none" stroke="midnightblue" d="M1233.87,-392.08C1230.89,-384.77 1226.57,-374.18 1222.88,-365.1"/>
<polygon fill="midnightblue" stroke="midnightblue" points="1226.08,-363.69 1219.07,-355.75 1219.6,-366.33 1226.08,-363.69"/>
</g>
<!-- Node9 -->
<g id="node9" class="node">
<title>Node9</title>
<g id="a_node9"><a xlink:title=" ">
<polygon fill="white" stroke="#bfbfbf" points="1261,-336.5 1261,-355.5 1424,-355.5 1424,-336.5 1261,-336.5"/>
<text text-anchor="middle" x="1342.5" y="-343.5" font-family="Helvetica,sans-Serif" font-size="10.00">glm/gtc/matrix_transform.hpp</text>
</a>
</g>
</g>
<!-- Node8&#45;&gt;Node9 -->
<g id="edge9" class="edge">
<title>Node8&#45;&gt;Node9</title>
<path fill="none" stroke="midnightblue" d="M1479.67,-392.44C1452.25,-383.36 1408.72,-368.94 1378.07,-358.78"/>
<polygon fill="midnightblue" stroke="midnightblue" points="1378.8,-355.34 1368.21,-355.52 1376.6,-361.98 1378.8,-355.34"/>
</g>
<!-- Node10 -->
<g id="node10" class="node">
<title>Node10</title>
<g id="a_node10"><a xlink:title=" ">
<polygon fill="white" stroke="#bfbfbf" points="1442.5,-336.5 1442.5,-355.5 1614.5,-355.5 1614.5,-336.5 1442.5,-336.5"/>
<text text-anchor="middle" x="1528.5" y="-343.5" font-family="Helvetica,sans-Serif" font-size="10.00">glm/gtx/matrix_decompose.hpp</text>
</a>
</g>
</g>
<!-- Node8&#45;&gt;Node10 -->
<g id="edge10" class="edge">
<title>Node8&#45;&gt;Node10</title>
<path fill="none" stroke="midnightblue" d="M1509.3,-392.08C1512.41,-384.77 1516.92,-374.18 1520.79,-365.1"/>
<polygon fill="midnightblue" stroke="midnightblue" points="1524.07,-366.32 1524.77,-355.75 1517.63,-363.58 1524.07,-366.32"/>
</g>
<!-- Node11 -->
<g id="node11" class="node">
<title>Node11</title>
<g id="a_node11"><a xlink:title=" ">
<polygon fill="white" stroke="#bfbfbf" points="1633,-336.5 1633,-355.5 1764,-355.5 1764,-336.5 1633,-336.5"/>
<text text-anchor="middle" x="1698.5" y="-343.5" font-family="Helvetica,sans-Serif" font-size="10.00">glm/gtx/quaternion.hpp</text>
</a>
</g>
</g>
<!-- Node8&#45;&gt;Node11 -->
<g id="edge11" class="edge">
<title>Node8&#45;&gt;Node11</title>
<path fill="none" stroke="midnightblue" d="M1536.08,-392.44C1569.11,-383.2 1621.89,-368.44 1658.27,-358.26"/>
<polygon fill="midnightblue" stroke="midnightblue" points="1659.37,-361.58 1668.06,-355.52 1657.49,-354.84 1659.37,-361.58"/>
</g>
<!-- Node13 -->
<g id="node13" class="node">
<title>Node13</title>
<g id="a_node13"><a xlink:href="_entity_8hpp.html" target="_top" xlink:title=" ">
<polygon fill="white" stroke="black" points="373.5,-336.5 373.5,-355.5 523.5,-355.5 523.5,-336.5 373.5,-336.5"/>
<text text-anchor="middle" x="448.5" y="-343.5" font-family="Helvetica,sans-Serif" font-size="10.00">Liger&#45;Engine/ECS/Entity.hpp</text>
</a>
</g>
</g>
<!-- Node12&#45;&gt;Node13 -->
<g id="edge13" class="edge">
<title>Node12&#45;&gt;Node13</title>
<path fill="none" stroke="midnightblue" d="M702.65,-392.44C649.3,-382.9 563.06,-367.48 506.06,-357.29"/>
<polygon fill="midnightblue" stroke="midnightblue" points="506.59,-353.83 496.13,-355.52 505.36,-360.72 506.59,-353.83"/>
</g>
<!-- Node14 -->
<g id="node14" class="node">
<title>Node14</title>
<g id="a_node14"><a xlink:title=" ">
<polygon fill="white" stroke="#bfbfbf" points="717.5,-280.5 717.5,-299.5 845.5,-299.5 845.5,-280.5 717.5,-280.5"/>
<text text-anchor="middle" x="781.5" y="-287.5" font-family="Helvetica,sans-Serif" font-size="10.00">entt/entity/registry.hpp</text>
</a>
</g>
</g>
<!-- Node12&#45;&gt;Node14 -->
<g id="edge16" class="edge">
<title>Node12&#45;&gt;Node14</title>
<path fill="none" stroke="midnightblue" d="M779.62,-392.44C797.14,-385.62 818.02,-374.14 828.5,-356 839,-337.82 820.84,-318.52 804.13,-305.71"/>
<polygon fill="midnightblue" stroke="midnightblue" points="805.85,-302.64 795.69,-299.65 801.77,-308.33 805.85,-302.64"/>
</g>
<!-- Node15 -->
<g id="node15" class="node">
<title>Node15</title>
<g id="a_node15"><a xlink:title=" ">
<polygon fill="white" stroke="#bfbfbf" points="542,-336.5 542,-355.5 679,-355.5 679,-336.5 542,-336.5"/>
<text text-anchor="middle" x="610.5" y="-343.5" font-family="Helvetica,sans-Serif" font-size="10.00">entt/entity/organizer.hpp</text>
</a>
</g>
</g>
<!-- Node12&#45;&gt;Node15 -->
<g id="edge15" class="edge">
<title>Node12&#45;&gt;Node15</title>
<path fill="none" stroke="midnightblue" d="M728.32,-392.44C705.07,-383.48 668.35,-369.31 642.08,-359.18"/>
<polygon fill="midnightblue" stroke="midnightblue" points="643.17,-355.85 632.58,-355.52 640.65,-362.38 643.17,-355.85"/>
</g>
<!-- Node16 -->
<g id="node16" class="node">
<title>Node16</title>
<g id="a_node16"><a xlink:title=" ">
<polygon fill="white" stroke="#bfbfbf" points="697.5,-336.5 697.5,-355.5 819.5,-355.5 819.5,-336.5 697.5,-336.5"/>
<text text-anchor="middle" x="758.5" y="-343.5" font-family="Helvetica,sans-Serif" font-size="10.00">taskflow/taskflow.hpp</text>
</a>
</g>
</g>
<!-- Node12&#45;&gt;Node16 -->
<g id="edge17" class="edge">
<title>Node12&#45;&gt;Node16</title>
<path fill="none" stroke="midnightblue" d="M751.82,-392.08C752.88,-384.93 754.41,-374.64 755.73,-365.69"/>
<polygon fill="midnightblue" stroke="midnightblue" points="759.2,-366.16 757.2,-355.75 752.28,-365.13 759.2,-366.16"/>
</g>
<!-- Node13&#45;&gt;Node14 -->
<g id="edge14" class="edge">
<title>Node13&#45;&gt;Node14</title>
<path fill="none" stroke="midnightblue" d="M501.26,-336.44C560.33,-326.87 655.97,-311.36 718.81,-301.17"/>
<polygon fill="midnightblue" stroke="midnightblue" points="719.67,-304.57 728.98,-299.52 718.55,-297.66 719.67,-304.57"/>
</g>
<!-- Node17&#45;&gt;Node12 -->
<g id="edge37" class="edge">
<title>Node17&#45;&gt;Node12</title>
<path fill="none" stroke="midnightblue" d="M744.66,-448.08C745.58,-440.93 746.92,-430.64 748.08,-421.69"/>
<polygon fill="midnightblue" stroke="midnightblue" points="751.55,-422.12 749.37,-411.75 744.61,-421.22 751.55,-422.12"/>
</g>
<!-- Node18 -->
<g id="node18" class="node">
<title>Node18</title>
<g id="a_node18"><a xlink:href="_event_dispatcher_8hpp.html" target="_top" xlink:title=" ">
<polygon fill="white" stroke="black" points="69,-392.5 69,-411.5 306,-411.5 306,-392.5 69,-392.5"/>
<text text-anchor="middle" x="187.5" y="-399.5" font-family="Helvetica,sans-Serif" font-size="10.00">Liger&#45;Engine/Core/Event/EventDispatcher.hpp</text>
</a>
</g>
</g>
<!-- Node17&#45;&gt;Node18 -->
<g id="edge19" class="edge">
<title>Node17&#45;&gt;Node18</title>
<path fill="none" stroke="midnightblue" d="M667.94,-449.66C568.75,-440.03 394.46,-423.1 285.3,-412.5"/>
<polygon fill="midnightblue" stroke="midnightblue" points="285.56,-409.01 275.27,-411.52 284.89,-415.98 285.56,-409.01"/>
</g>
<!-- Node19 -->
<g id="node19" class="node">
<title>Node19</title>
<g id="a_node19"><a xlink:href="_event_type_8hpp.html" target="_top" xlink:title=" ">
<polygon fill="white" stroke="black" points="146.5,-224.5 146.5,-243.5 386.5,-243.5 386.5,-224.5 146.5,-224.5"/>
<text text-anchor="middle" x="266.5" y="-231.5" font-family="Helvetica,sans-Serif" font-size="10.00">Liger&#45;Engine/Core/Event/Detail/EventType.hpp</text>
</a>
</g>
</g>
<!-- Node18&#45;&gt;Node19 -->
<g id="edge20" class="edge">
<title>Node18&#45;&gt;Node19</title>
<path fill="none" stroke="midnightblue" d="M173.42,-392.26C162.15,-384.35 147.15,-371.58 140.5,-356 127.24,-324.94 121.04,-307.61 140.5,-280 152,-263.68 169.99,-253.24 188.81,-246.58"/>
<polygon fill="midnightblue" stroke="midnightblue" points="189.93,-249.9 198.39,-243.52 187.8,-243.23 189.93,-249.9"/>
</g>
<!-- Node21 -->
<g id="node21" class="node">
<title>Node21</title>
<g id="a_node21"><a xlink:href="_event_sink_8hpp.html" target="_top" xlink:title=" ">
<polygon fill="white" stroke="black" points="149.5,-336.5 149.5,-355.5 355.5,-355.5 355.5,-336.5 149.5,-336.5"/>
<text text-anchor="middle" x="252.5" y="-343.5" font-family="Helvetica,sans-Serif" font-size="10.00">Liger&#45;Engine/Core/Event/EventSink.hpp</text>
</a>
</g>
</g>
<!-- Node18&#45;&gt;Node21 -->
<g id="edge22" class="edge">
<title>Node18&#45;&gt;Node21</title>
<path fill="none" stroke="midnightblue" d="M197.94,-392.32C207.65,-384.26 222.32,-372.08 234,-362.37"/>
<polygon fill="midnightblue" stroke="midnightblue" points="236.41,-364.92 241.87,-355.83 231.94,-359.53 236.41,-364.92"/>
</g>
<!-- Node31 -->
<g id="node31" class="node">
<title>Node31</title>
<g id="a_node31"><a xlink:title=" ">
<polygon fill="white" stroke="#bfbfbf" points="0,-336.5 0,-355.5 93,-355.5 93,-336.5 0,-336.5"/>
<text text-anchor="middle" x="46.5" y="-343.5" font-family="Helvetica,sans-Serif" font-size="10.00">unordered_map</text>
</a>
</g>
</g>
<!-- Node18&#45;&gt;Node31 -->
<g id="edge36" class="edge">
<title>Node18&#45;&gt;Node31</title>
<path fill="none" stroke="midnightblue" d="M165.16,-392.44C141.75,-383.48 104.76,-369.31 78.31,-359.18"/>
<polygon fill="midnightblue" stroke="midnightblue" points="79.33,-355.82 68.74,-355.52 76.82,-362.36 79.33,-355.82"/>
</g>
<!-- Node20 -->
<g id="node20" class="node">
<title>Node20</title>
<g id="a_node20"><a xlink:title=" ">
<polygon fill="white" stroke="#bfbfbf" points="564.5,-0.5 564.5,-19.5 614.5,-19.5 614.5,-0.5 564.5,-0.5"/>
<text text-anchor="middle" x="589.5" y="-7.5" font-family="Helvetica,sans-Serif" font-size="10.00">cstdint</text>
</a>
</g>
</g>
<!-- Node19&#45;&gt;Node20 -->
<g id="edge21" class="edge">
<title>Node19&#45;&gt;Node20</title>
<path fill="none" stroke="midnightblue" d="M279.16,-224.3C328.31,-190.52 506.76,-67.87 568.39,-25.51"/>
<polygon fill="midnightblue" stroke="midnightblue" points="570.67,-28.19 576.93,-19.64 566.7,-22.42 570.67,-28.19"/>
</g>
<!-- Node22 -->
<g id="node22" class="node">
<title>Node22</title>
<g id="a_node22"><a xlink:href="_base_event_sink_8hpp.html" target="_top" xlink:title=" ">
<polygon fill="white" stroke="black" points="150,-280.5 150,-299.5 413,-299.5 413,-280.5 150,-280.5"/>
<text text-anchor="middle" x="281.5" y="-287.5" font-family="Helvetica,sans-Serif" font-size="10.00">Liger&#45;Engine/Core/Event/Detail/BaseEventSink.hpp</text>
</a>
</g>
</g>
<!-- Node21&#45;&gt;Node22 -->
<g id="edge23" class="edge">
<title>Node21&#45;&gt;Node22</title>
<path fill="none" stroke="midnightblue" d="M257.29,-336.08C261.26,-328.69 267.03,-317.95 271.93,-308.81"/>
<polygon fill="midnightblue" stroke="midnightblue" points="275.15,-310.22 276.8,-299.75 268.99,-306.91 275.15,-310.22"/>
</g>
<!-- Node23 -->
<g id="node23" class="node">
<title>Node23</title>
<g id="a_node23"><a xlink:href="_callback_8hpp.html" target="_top" xlink:title=" ">
<polygon fill="white" stroke="black" points="443.5,-280.5 443.5,-299.5 675.5,-299.5 675.5,-280.5 443.5,-280.5"/>
<text text-anchor="middle" x="559.5" y="-287.5" font-family="Helvetica,sans-Serif" font-size="10.00">Liger&#45;Engine/Core/Event/Detail/Callback.hpp</text>
</a>
</g>
</g>
<!-- Node21&#45;&gt;Node23 -->
<g id="edge24" class="edge">
<title>Node21&#45;&gt;Node23</title>
<path fill="none" stroke="midnightblue" d="M301.15,-336.44C355.37,-326.9 443.05,-311.48 500.98,-301.29"/>
<polygon fill="midnightblue" stroke="midnightblue" points="501.84,-304.7 511.08,-299.52 500.63,-297.8 501.84,-304.7"/>
</g>
<!-- Node24 -->
<g id="node24" class="node">
<title>Node24</title>
<g id="a_node24"><a xlink:href="_log_8hpp.html" target="_top" xlink:title=" ">
<polygon fill="white" stroke="black" points="597.5,-168.5 597.5,-187.5 761.5,-187.5 761.5,-168.5 597.5,-168.5"/>
<text text-anchor="middle" x="679.5" y="-175.5" font-family="Helvetica,sans-Serif" font-size="10.00">Liger&#45;Engine/Core/Log/Log.hpp</text>
</a>
</g>
</g>
<!-- Node23&#45;&gt;Node24 -->
<g id="edge25" class="edge">
<title>Node23&#45;&gt;Node24</title>
<path fill="none" stroke="midnightblue" d="M559.79,-280.33C560.68,-266.74 564.27,-240.29 578.5,-224 592.27,-208.24 612.62,-197.74 631.46,-190.89"/>
<polygon fill="midnightblue" stroke="midnightblue" points="632.77,-194.14 641.12,-187.62 630.53,-187.5 632.77,-194.14"/>
</g>
<!-- Node30 -->
<g id="node30" class="node">
<title>Node30</title>
<g id="a_node30"><a xlink:href="_core_2_log_channel_8hpp.html" target="_top" xlink:title=" ">
<polygon fill="white" stroke="black" points="587.5,-224.5 587.5,-243.5 771.5,-243.5 771.5,-224.5 587.5,-224.5"/>
<text text-anchor="middle" x="679.5" y="-231.5" font-family="Helvetica,sans-Serif" font-size="10.00">Liger&#45;Engine/Core/LogChannel.hpp</text>
</a>
</g>
</g>
<!-- Node23&#45;&gt;Node30 -->
<g id="edge34" class="edge">
<title>Node23&#45;&gt;Node30</title>
<path fill="none" stroke="midnightblue" d="M578.51,-280.44C598.09,-271.64 628.81,-257.81 651.23,-247.72"/>
<polygon fill="midnightblue" stroke="midnightblue" points="652.89,-250.81 660.57,-243.52 650.02,-244.43 652.89,-250.81"/>
</g>
<!-- Node24&#45;&gt;Node4 -->
<g id="edge32" class="edge">
<title>Node24&#45;&gt;Node4</title>
<path fill="none" stroke="midnightblue" d="M724.82,-168.44C778.83,-158.25 868.45,-141.32 921.75,-131.26"/>
<polygon fill="midnightblue" stroke="midnightblue" points="922.41,-134.7 931.59,-129.4 921.11,-127.82 922.41,-134.7"/>
</g>
<!-- Node25 -->
<g id="node25" class="node">
<title>Node25</title>
<g id="a_node25"><a xlink:href="_message_8hpp.html" target="_top" xlink:title=" ">
<polygon fill="white" stroke="black" points="625,-56.5 625,-75.5 816,-75.5 816,-56.5 625,-56.5"/>
<text text-anchor="middle" x="720.5" y="-63.5" font-family="Helvetica,sans-Serif" font-size="10.00">Liger&#45;Engine/Core/Log/Message.hpp</text>
</a>
</g>
</g>
<!-- Node24&#45;&gt;Node25 -->
<g id="edge26" class="edge">
<title>Node24&#45;&gt;Node25</title>
<path fill="none" stroke="midnightblue" d="M721.89,-168.45C742.08,-162.02 764.41,-150.93 776.5,-132 788.79,-112.75 766.27,-93.25 746.23,-80.69"/>
<polygon fill="midnightblue" stroke="midnightblue" points="748.01,-77.68 737.62,-75.6 744.45,-83.7 748.01,-77.68"/>
</g>
<!-- Node28 -->
<g id="node28" class="node">
<title>Node28</title>
<g id="a_node28"><a xlink:href="_writer_8hpp.html" target="_top" xlink:title=" ">
<polygon fill="white" stroke="black" points="591.5,-112.5 591.5,-131.5 767.5,-131.5 767.5,-112.5 591.5,-112.5"/>
<text text-anchor="middle" x="679.5" y="-119.5" font-family="Helvetica,sans-Serif" font-size="10.00">Liger&#45;Engine/Core/Log/Writer.hpp</text>
</a>
</g>
</g>
<!-- Node24&#45;&gt;Node28 -->
<g id="edge30" class="edge">
<title>Node24&#45;&gt;Node28</title>
<path fill="none" stroke="midnightblue" d="M679.5,-168.08C679.5,-161.01 679.5,-150.86 679.5,-141.99"/>
<polygon fill="midnightblue" stroke="midnightblue" points="683,-141.75 679.5,-131.75 676,-141.75 683,-141.75"/>
</g>
<!-- Node29 -->
<g id="node29" class="node">
<title>Node29</title>
<g id="a_node29"><a xlink:title=" ">
<polygon fill="white" stroke="#bfbfbf" points="526,-112.5 526,-131.5 573,-131.5 573,-112.5 526,-112.5"/>
<text text-anchor="middle" x="549.5" y="-119.5" font-family="Helvetica,sans-Serif" font-size="10.00">vector</text>
</a>
</g>
</g>
<!-- Node24&#45;&gt;Node29 -->
<g id="edge33" class="edge">
<title>Node24&#45;&gt;Node29</title>
<path fill="none" stroke="midnightblue" d="M658.9,-168.44C637.51,-159.56 603.82,-145.56 579.48,-135.45"/>
<polygon fill="midnightblue" stroke="midnightblue" points="580.58,-132.12 570,-131.52 577.89,-138.58 580.58,-132.12"/>
</g>
<!-- Node25&#45;&gt;Node20 -->
<g id="edge27" class="edge">
<title>Node25&#45;&gt;Node20</title>
<path fill="none" stroke="midnightblue" d="M699.74,-56.44C678.18,-47.56 644.24,-33.56 619.71,-23.45"/>
<polygon fill="midnightblue" stroke="midnightblue" points="620.74,-20.09 610.16,-19.52 618.07,-26.56 620.74,-20.09"/>
</g>
<!-- Node25&#45;&gt;Node26 -->
<g id="edge28" class="edge">
<title>Node25&#45;&gt;Node26</title>
<path fill="none" stroke="midnightblue" d="M739.99,-56.44C760.14,-47.6 791.82,-33.69 814.83,-23.59"/>
<polygon fill="midnightblue" stroke="midnightblue" points="816.35,-26.74 824.1,-19.52 813.54,-20.33 816.35,-26.74"/>
</g>
<!-- Node27 -->
<g id="node27" class="node">
<title>Node27</title>
<g id="a_node27"><a xlink:title=" ">
<polygon fill="white" stroke="#bfbfbf" points="684,-0.5 684,-19.5 757,-19.5 757,-0.5 684,-0.5"/>
<text text-anchor="middle" x="720.5" y="-7.5" font-family="Helvetica,sans-Serif" font-size="10.00">string_view</text>
</a>
</g>
</g>
<!-- Node25&#45;&gt;Node27 -->
<g id="edge29" class="edge">
<title>Node25&#45;&gt;Node27</title>
<path fill="none" stroke="midnightblue" d="M720.5,-56.08C720.5,-49.01 720.5,-38.86 720.5,-29.99"/>
<polygon fill="midnightblue" stroke="midnightblue" points="724,-29.75 720.5,-19.75 717,-29.75 724,-29.75"/>
</g>
<!-- Node28&#45;&gt;Node25 -->
<g id="edge31" class="edge">
<title>Node28&#45;&gt;Node25</title>
<path fill="none" stroke="midnightblue" d="M686.27,-112.08C692.06,-104.46 700.56,-93.26 707.64,-83.94"/>
<polygon fill="midnightblue" stroke="midnightblue" points="710.6,-85.83 713.86,-75.75 705.02,-81.6 710.6,-85.83"/>
</g>
<!-- Node30&#45;&gt;Node24 -->
<g id="edge35" class="edge">
<title>Node30&#45;&gt;Node24</title>
<path fill="none" stroke="midnightblue" d="M679.5,-224.08C679.5,-217.01 679.5,-206.86 679.5,-197.99"/>
<polygon fill="midnightblue" stroke="midnightblue" points="683,-197.75 679.5,-187.75 676,-197.75 683,-197.75"/>
</g>
</g>
</svg>
