<?xml version="1.0" encoding="UTF-8" standalone="no"?>
<!DOCTYPE svg PUBLIC "-//W3C//DTD SVG 1.1//EN"
 "http://www.w3.org/Graphics/SVG/1.1/DTD/svg11.dtd">
<!-- Generated by graphviz version 2.43.0 (0)
 -->
<!-- Title: DependentTextureInfo.hpp Pages: 1 -->
<svg width="979pt" height="252pt"
 viewBox="0.00 0.00 978.50 252.00" xmlns="http://www.w3.org/2000/svg" xmlns:xlink="http://www.w3.org/1999/xlink">
<g id="graph0" class="graph" transform="scale(1 1) rotate(0) translate(4 248)">
<title>DependentTextureInfo.hpp</title>
<polygon fill="white" stroke="transparent" points="-4,4 -4,-248 974.5,-248 974.5,4 -4,4"/>
<!-- Node1 -->
<g id="node1" class="node">
<title>Node1</title>
<g id="a_node1"><a xlink:title=" ">
<polygon fill="#bfbfbf" stroke="black" points="406.5,-224.5 406.5,-243.5 552.5,-243.5 552.5,-224.5 406.5,-224.5"/>
<text text-anchor="middle" x="479.5" y="-231.5" font-family="Helvetica,sans-Serif" font-size="10.00">DependentTextureInfo.hpp</text>
</a>
</g>
</g>
<!-- Node2 -->
<g id="node2" class="node">
<title>Node2</title>
<g id="a_node2"><a xlink:href="_texture_8hpp.html" target="_top" xlink:title=" ">
<polygon fill="white" stroke="black" points="400.5,-168.5 400.5,-187.5 558.5,-187.5 558.5,-168.5 400.5,-168.5"/>
<text text-anchor="middle" x="479.5" y="-175.5" font-family="Helvetica,sans-Serif" font-size="10.00">Liger&#45;Engine/RHI/Texture.hpp</text>
</a>
</g>
</g>
<!-- Node1&#45;&gt;Node2 -->
<g id="edge1" class="edge">
<title>Node1&#45;&gt;Node2</title>
<path fill="none" stroke="midnightblue" d="M479.5,-224.08C479.5,-217.01 479.5,-206.86 479.5,-197.99"/>
<polygon fill="midnightblue" stroke="midnightblue" points="483,-197.75 479.5,-187.75 476,-197.75 483,-197.75"/>
</g>
<!-- Node3 -->
<g id="node3" class="node">
<title>Node3</title>
<g id="a_node3"><a xlink:href="_descriptor_binding_8hpp.html" target="_top" xlink:title=" ">
<polygon fill="white" stroke="black" points="0,-56.5 0,-75.5 209,-75.5 209,-56.5 0,-56.5"/>
<text text-anchor="middle" x="104.5" y="-63.5" font-family="Helvetica,sans-Serif" font-size="10.00">Liger&#45;Engine/RHI/DescriptorBinding.hpp</text>
</a>
</g>
</g>
<!-- Node2&#45;&gt;Node3 -->
<g id="edge2" class="edge">
<title>Node2&#45;&gt;Node3</title>
<path fill="none" stroke="midnightblue" d="M438.03,-168.5C399.32,-160.25 340.08,-146.83 289.5,-132 234.86,-115.98 172.64,-93.14 136.07,-79.24"/>
<polygon fill="midnightblue" stroke="midnightblue" points="137.06,-75.87 126.47,-75.57 134.56,-82.41 137.06,-75.87"/>
</g>
<!-- Node5 -->
<g id="node5" class="node">
<title>Node5</title>
<g id="a_node5"><a xlink:href="_device_resource_state_8hpp.html" target="_top" xlink:title=" ">
<polygon fill="white" stroke="black" points="682.5,-112.5 682.5,-131.5 908.5,-131.5 908.5,-112.5 682.5,-112.5"/>
<text text-anchor="middle" x="795.5" y="-119.5" font-family="Helvetica,sans-Serif" font-size="10.00">Liger&#45;Engine/RHI/DeviceResourceState.hpp</text>
</a>
</g>
</g>
<!-- Node2&#45;&gt;Node5 -->
<g id="edge4" class="edge">
<title>Node2&#45;&gt;Node5</title>
<path fill="none" stroke="midnightblue" d="M529.57,-168.44C585.51,-158.89 676.01,-143.42 735.64,-133.23"/>
<polygon fill="midnightblue" stroke="midnightblue" points="736.4,-136.65 745.66,-131.52 735.22,-129.75 736.4,-136.65"/>
</g>
<!-- Node9 -->
<g id="node9" class="node">
<title>Node9</title>
<g id="a_node9"><a xlink:href="_extent_8hpp.html" target="_top" xlink:title=" ">
<polygon fill="white" stroke="black" points="227,-56.5 227,-75.5 380,-75.5 380,-56.5 227,-56.5"/>
<text text-anchor="middle" x="303.5" y="-63.5" font-family="Helvetica,sans-Serif" font-size="10.00">Liger&#45;Engine/RHI/Extent.hpp</text>
</a>
</g>
</g>
<!-- Node2&#45;&gt;Node9 -->
<g id="edge8" class="edge">
<title>Node2&#45;&gt;Node9</title>
<path fill="none" stroke="midnightblue" d="M409.71,-168.45C365.16,-161.4 313.28,-149.65 299.5,-132 289.3,-118.93 292.09,-99.51 296.35,-85.3"/>
<polygon fill="midnightblue" stroke="midnightblue" points="299.73,-86.24 299.69,-75.64 293.11,-83.95 299.73,-86.24"/>
</g>
<!-- Node10 -->
<g id="node10" class="node">
<title>Node10</title>
<g id="a_node10"><a xlink:href="_format_8hpp.html" target="_top" xlink:title=" ">
<polygon fill="white" stroke="black" points="308.5,-112.5 308.5,-131.5 464.5,-131.5 464.5,-112.5 308.5,-112.5"/>
<text text-anchor="middle" x="386.5" y="-119.5" font-family="Helvetica,sans-Serif" font-size="10.00">Liger&#45;Engine/RHI/Format.hpp</text>
</a>
</g>
</g>
<!-- Node2&#45;&gt;Node10 -->
<g id="edge10" class="edge">
<title>Node2&#45;&gt;Node10</title>
<path fill="none" stroke="midnightblue" d="M464.56,-168.32C449.91,-159.82 427.37,-146.73 410.26,-136.8"/>
<polygon fill="midnightblue" stroke="midnightblue" points="411.81,-133.65 401.4,-131.65 408.3,-139.7 411.81,-133.65"/>
</g>
<!-- Node11 -->
<g id="node11" class="node">
<title>Node11</title>
<g id="a_node11"><a xlink:href="_sampler_info_8hpp.html" target="_top" xlink:title=" ">
<polygon fill="white" stroke="black" points="483,-112.5 483,-131.5 664,-131.5 664,-112.5 483,-112.5"/>
<text text-anchor="middle" x="573.5" y="-119.5" font-family="Helvetica,sans-Serif" font-size="10.00">Liger&#45;Engine/RHI/SamplerInfo.hpp</text>
</a>
</g>
</g>
<!-- Node2&#45;&gt;Node11 -->
<g id="edge12" class="edge">
<title>Node2&#45;&gt;Node11</title>
<path fill="none" stroke="midnightblue" d="M494.6,-168.32C509.4,-159.82 532.19,-146.73 549.48,-136.8"/>
<polygon fill="midnightblue" stroke="midnightblue" points="551.51,-139.67 558.43,-131.65 548.02,-133.6 551.51,-139.67"/>
</g>
<!-- Node13 -->
<g id="node13" class="node">
<title>Node13</title>
<g id="a_node13"><a xlink:title=" ">
<polygon fill="white" stroke="#bfbfbf" points="926.5,-112.5 926.5,-131.5 970.5,-131.5 970.5,-112.5 926.5,-112.5"/>
<text text-anchor="middle" x="948.5" y="-119.5" font-family="Helvetica,sans-Serif" font-size="10.00">string</text>
</a>
</g>
</g>
<!-- Node2&#45;&gt;Node13 -->
<g id="edge15" class="edge">
<title>Node2&#45;&gt;Node13</title>
<path fill="none" stroke="midnightblue" d="M558.86,-173.15C644.85,-168.02 786.11,-156.75 916.13,-131.94"/>
<polygon fill="midnightblue" stroke="midnightblue" points="917.12,-135.32 926.27,-129.97 915.78,-128.44 917.12,-135.32"/>
</g>
<!-- Node4 -->
<g id="node4" class="node">
<title>Node4</title>
<g id="a_node4"><a xlink:title=" ">
<polygon fill="white" stroke="#bfbfbf" points="331.5,-0.5 331.5,-19.5 381.5,-19.5 381.5,-0.5 331.5,-0.5"/>
<text text-anchor="middle" x="356.5" y="-7.5" font-family="Helvetica,sans-Serif" font-size="10.00">cstdint</text>
</a>
</g>
</g>
<!-- Node3&#45;&gt;Node4 -->
<g id="edge3" class="edge">
<title>Node3&#45;&gt;Node4</title>
<path fill="none" stroke="midnightblue" d="M144.43,-56.44C193.2,-45.99 274.93,-28.48 321.4,-18.52"/>
<polygon fill="midnightblue" stroke="midnightblue" points="322.26,-21.92 331.31,-16.4 320.79,-15.07 322.26,-21.92"/>
</g>
<!-- Node6 -->
<g id="node6" class="node">
<title>Node6</title>
<g id="a_node6"><a xlink:href="_enum_bitmask_8hpp.html" target="_top" xlink:title=" ">
<polygon fill="white" stroke="black" points="698,-56.5 698,-75.5 893,-75.5 893,-56.5 698,-56.5"/>
<text text-anchor="middle" x="795.5" y="-63.5" font-family="Helvetica,sans-Serif" font-size="10.00">Liger&#45;Engine/Core/EnumBitmask.hpp</text>
</a>
</g>
</g>
<!-- Node5&#45;&gt;Node6 -->
<g id="edge5" class="edge">
<title>Node5&#45;&gt;Node6</title>
<path fill="none" stroke="midnightblue" d="M795.5,-112.08C795.5,-105.01 795.5,-94.86 795.5,-85.99"/>
<polygon fill="midnightblue" stroke="midnightblue" points="799,-85.75 795.5,-75.75 792,-85.75 799,-85.75"/>
</g>
<!-- Node7 -->
<g id="node7" class="node">
<title>Node7</title>
<g id="a_node7"><a xlink:title=" ">
<polygon fill="white" stroke="#bfbfbf" points="702,-0.5 702,-19.5 771,-19.5 771,-0.5 702,-0.5"/>
<text text-anchor="middle" x="736.5" y="-7.5" font-family="Helvetica,sans-Serif" font-size="10.00">type_traits</text>
</a>
</g>
</g>
<!-- Node6&#45;&gt;Node7 -->
<g id="edge6" class="edge">
<title>Node6&#45;&gt;Node7</title>
<path fill="none" stroke="midnightblue" d="M786.02,-56.32C777.3,-48.34 764.16,-36.31 753.6,-26.65"/>
<polygon fill="midnightblue" stroke="midnightblue" points="755.89,-24 746.15,-19.83 751.17,-29.17 755.89,-24"/>
</g>
<!-- Node8 -->
<g id="node8" class="node">
<title>Node8</title>
<g id="a_node8"><a xlink:title=" ">
<polygon fill="white" stroke="#bfbfbf" points="789,-0.5 789,-19.5 918,-19.5 918,-0.5 789,-0.5"/>
<text text-anchor="middle" x="853.5" y="-7.5" font-family="Helvetica,sans-Serif" font-size="10.00">magic_enum_flags.hpp</text>
</a>
</g>
</g>
<!-- Node6&#45;&gt;Node8 -->
<g id="edge7" class="edge">
<title>Node6&#45;&gt;Node8</title>
<path fill="none" stroke="midnightblue" d="M804.82,-56.32C813.39,-48.34 826.31,-36.31 836.69,-26.65"/>
<polygon fill="midnightblue" stroke="midnightblue" points="839.08,-29.21 844.01,-19.83 834.31,-24.09 839.08,-29.21"/>
</g>
<!-- Node9&#45;&gt;Node4 -->
<g id="edge9" class="edge">
<title>Node9&#45;&gt;Node4</title>
<path fill="none" stroke="midnightblue" d="M312.25,-56.08C319.97,-48.22 331.4,-36.57 340.72,-27.08"/>
<polygon fill="midnightblue" stroke="midnightblue" points="343.4,-29.34 347.91,-19.75 338.41,-24.44 343.4,-29.34"/>
</g>
<!-- Node10&#45;&gt;Node4 -->
<g id="edge11" class="edge">
<title>Node10&#45;&gt;Node4</title>
<path fill="none" stroke="midnightblue" d="M388.56,-112.33C391.18,-99.63 394.68,-75.36 388.5,-56 385.16,-45.54 378.4,-35.43 371.95,-27.45"/>
<polygon fill="midnightblue" stroke="midnightblue" points="374.44,-24.98 365.25,-19.71 369.15,-29.56 374.44,-24.98"/>
</g>
<!-- Node12 -->
<g id="node12" class="node">
<title>Node12</title>
<g id="a_node12"><a xlink:href="_filter_8hpp.html" target="_top" xlink:title=" ">
<polygon fill="white" stroke="black" points="479.5,-56.5 479.5,-75.5 625.5,-75.5 625.5,-56.5 479.5,-56.5"/>
<text text-anchor="middle" x="552.5" y="-63.5" font-family="Helvetica,sans-Serif" font-size="10.00">Liger&#45;Engine/RHI/Filter.hpp</text>
</a>
</g>
</g>
<!-- Node11&#45;&gt;Node12 -->
<g id="edge13" class="edge">
<title>Node11&#45;&gt;Node12</title>
<path fill="none" stroke="midnightblue" d="M570.03,-112.08C567.19,-104.77 563.07,-94.18 559.54,-85.1"/>
<polygon fill="midnightblue" stroke="midnightblue" points="562.79,-83.8 555.9,-75.75 556.27,-86.34 562.79,-83.8"/>
</g>
<!-- Node12&#45;&gt;Node4 -->
<g id="edge14" class="edge">
<title>Node12&#45;&gt;Node4</title>
<path fill="none" stroke="midnightblue" d="M521.44,-56.44C486.02,-46.68 428.25,-30.77 391.33,-20.6"/>
<polygon fill="midnightblue" stroke="midnightblue" points="392.07,-17.17 381.5,-17.89 390.21,-23.92 392.07,-17.17"/>
</g>
</g>
</svg>
