<?xml version="1.0" encoding="UTF-8" standalone="no"?>
<!DOCTYPE svg PUBLIC "-//W3C//DTD SVG 1.1//EN"
 "http://www.w3.org/Graphics/SVG/1.1/DTD/svg11.dtd">
<!-- Generated by graphviz version 2.43.0 (0)
 -->
<!-- Title: DescriptorBinding.hpp Pages: 1 -->
<!--zoomable 476 -->
<svg id="main" version="1.1" xmlns="http://www.w3.org/2000/svg" xmlns:xlink="http://www.w3.org/1999/xlink" xml:space="preserve" onload="init(evt)">
<style type="text/css"><![CDATA[
.edge:hover path { stroke: red; }
.edge:hover polygon { stroke: red; fill: red; }
]]></style>
<script type="text/javascript"><![CDATA[
var edges = document.getElementsByTagName('g');
if (edges && edges.length) {
  for (var i=0;i<edges.length;i++) {
    if (edges[i].id.substr(0,4)=='edge') {
      edges[i].setAttribute('class','edge');
    }
  }
}
]]></script>
        <defs>
                <circle id="rim" cx="0" cy="0" r="7"/>
                <circle id="rim2" cx="0" cy="0" r="3.5"/>
                <g id="zoomPlus">
                        <use xlink:href="#rim" fill="#404040">
                                <set attributeName="fill" to="#808080" begin="zoomplus.mouseover" end="zoomplus.mouseout"/>
                        </use>
                        <path d="M-4,0h8M0,-4v8" fill="none" stroke="white" stroke-width="1.5" pointer-events="none"/>
                </g>
                <g id="zoomMin">
                        <use xlink:href="#rim" fill="#404040">
                                <set attributeName="fill" to="#808080" begin="zoomminus.mouseover" end="zoomminus.mouseout"/>
                        </use>
                        <path d="M-4,0h8" fill="none" stroke="white" stroke-width="1.5" pointer-events="none"/>
                </g>
                <g id="dirArrow">
                        <path fill="none" stroke="white" stroke-width="1.5" d="M0,-3.0v7 M-2.5,-0.5L0,-3.0L2.5,-0.5"/>
                </g>
               <g id="resetDef">
                       <use xlink:href="#rim2" fill="#404040">
                               <set attributeName="fill" to="#808080" begin="reset.mouseover" end="reset.mouseout"/>
                       </use>
               </g>
        </defs>

<script type="text/javascript">
var viewWidth = 1252;
var viewHeight = 476;
var sectionId = 'dynsection-1';
</script>
<script xlink:href="svgpan.js"/>
<svg id="graph" class="graph">
<g id="viewport">
<title>DescriptorBinding.hpp</title>
<polygon fill="white" stroke="transparent" points="-4,4 -4,-472 1247.5,-472 1247.5,4 -4,4"/>
<!-- Node1 -->
<g id="node1" class="node">
<title>Node1</title>
<g id="a_node1"><a xlink:title=" ">
<polygon fill="#bfbfbf" stroke="black" points="214,-448.5 214,-467.5 339,-467.5 339,-448.5 214,-448.5"/>
<text text-anchor="middle" x="276.5" y="-455.5" font-family="Helvetica,sans-Serif" font-size="10.00">DescriptorBinding.hpp</text>
</a>
</g>
</g>
<!-- Node2 -->
<g id="node2" class="node">
<title>Node2</title>
<g id="a_node2"><a xlink:href="_camera_data_8hpp.html" target="_top" xlink:title=" ">
<polygon fill="white" stroke="black" points="233,-112.5 233,-131.5 332,-131.5 332,-112.5 233,-112.5"/>
<text text-anchor="middle" x="282.5" y="-119.5" font-family="Helvetica,sans-Serif" font-size="10.00">CameraData.hpp</text>
</a>
</g>
</g>
<!-- Node1&#45;&gt;Node2 -->
<g id="edge1" class="edge">
<title>Node1&#45;&gt;Node2</title>
<path fill="none" stroke="midnightblue" d="M241.83,-444.52C203.92,-428.39 148.5,-396.36 148.5,-347 148.5,-347 148.5,-347 148.5,-233 148.5,-178.22 216.23,-145.73 255.38,-131.53"/>
<polygon fill="midnightblue" stroke="midnightblue" points="240.93,-447.94 251.52,-448.47 243.57,-441.45 240.93,-447.94"/>
</g>
<!-- Node6 -->
<g id="node6" class="node">
<title>Node6</title>
<g id="a_node6"><a xlink:href="_clustered_light_data_8hpp.html" target="_top" xlink:title=" ">
<polygon fill="white" stroke="black" points="7,-112.5 7,-131.5 138,-131.5 138,-112.5 7,-112.5"/>
<text text-anchor="middle" x="72.5" y="-119.5" font-family="Helvetica,sans-Serif" font-size="10.00">ClusteredLightData.hpp</text>
</a>
</g>
</g>
<!-- Node1&#45;&gt;Node6 -->
<g id="edge5" class="edge">
<title>Node1&#45;&gt;Node6</title>
<path fill="none" stroke="midnightblue" d="M203.89,-447.78C145.28,-435.8 72.5,-408.52 72.5,-347 72.5,-347 72.5,-347 72.5,-233 72.5,-195.19 72.5,-150.06 72.5,-131.56"/>
<polygon fill="midnightblue" stroke="midnightblue" points="203.43,-451.26 213.91,-449.71 204.75,-444.38 203.43,-451.26"/>
</g>
<!-- Node7 -->
<g id="node7" class="node">
<title>Node7</title>
<g id="a_node7"><a xlink:href="_buffer_8hpp.html" target="_top" xlink:title=" ">
<polygon fill="white" stroke="black" points="381.5,-336.5 381.5,-355.5 447.5,-355.5 447.5,-336.5 381.5,-336.5"/>
<text text-anchor="middle" x="414.5" y="-343.5" font-family="Helvetica,sans-Serif" font-size="10.00">Buffer.hpp</text>
</a>
</g>
</g>
<!-- Node1&#45;&gt;Node7 -->
<g id="edge7" class="edge">
<title>Node1&#45;&gt;Node7</title>
<path fill="none" stroke="midnightblue" d="M295.17,-442.12C324.46,-418.77 380.29,-374.27 403.72,-355.59"/>
<polygon fill="midnightblue" stroke="midnightblue" points="292.97,-439.4 287.33,-448.37 297.33,-444.87 292.97,-439.4"/>
</g>
<!-- Node24 -->
<g id="node24" class="node">
<title>Node24</title>
<g id="a_node24"><a xlink:href="_shader_alignment_8hpp.html" target="_top" xlink:title=" ">
<polygon fill="white" stroke="black" points="621.5,-168.5 621.5,-187.5 743.5,-187.5 743.5,-168.5 621.5,-168.5"/>
<text text-anchor="middle" x="682.5" y="-175.5" font-family="Helvetica,sans-Serif" font-size="10.00">ShaderAlignment.hpp</text>
</a>
</g>
</g>
<!-- Node1&#45;&gt;Node24 -->
<g id="edge40" class="edge">
<title>Node1&#45;&gt;Node24</title>
<path fill="none" stroke="midnightblue" d="M348.2,-446.88C441.98,-431.6 594.5,-398.78 594.5,-347 594.5,-347 594.5,-347 594.5,-289 594.5,-242.29 643.49,-204.05 668.36,-187.64"/>
<polygon fill="midnightblue" stroke="midnightblue" points="347.51,-443.45 338.19,-448.49 348.62,-450.36 347.51,-443.45"/>
</g>
<!-- Node25 -->
<g id="node25" class="node">
<title>Node25</title>
<g id="a_node25"><a xlink:href="_texture_8hpp.html" target="_top" xlink:title=" ">
<polygon fill="white" stroke="black" points="239.5,-392.5 239.5,-411.5 313.5,-411.5 313.5,-392.5 239.5,-392.5"/>
<text text-anchor="middle" x="276.5" y="-399.5" font-family="Helvetica,sans-Serif" font-size="10.00">Texture.hpp</text>
</a>
</g>
</g>
<!-- Node1&#45;&gt;Node25 -->
<g id="edge49" class="edge">
<title>Node1&#45;&gt;Node25</title>
<path fill="none" stroke="midnightblue" d="M276.5,-437.8C276.5,-428.91 276.5,-418.78 276.5,-411.75"/>
<polygon fill="midnightblue" stroke="midnightblue" points="273,-438.08 276.5,-448.08 280,-438.08 273,-438.08"/>
</g>
<!-- Node3 -->
<g id="node3" class="node">
<title>Node3</title>
<g id="a_node3"><a xlink:href="_camera_data_collector_8hpp.html" target="_top" xlink:title=" ">
<polygon fill="white" stroke="black" points="163.5,-56.5 163.5,-75.5 305.5,-75.5 305.5,-56.5 163.5,-56.5"/>
<text text-anchor="middle" x="234.5" y="-63.5" font-family="Helvetica,sans-Serif" font-size="10.00">CameraDataCollector.hpp</text>
</a>
</g>
</g>
<!-- Node2&#45;&gt;Node3 -->
<g id="edge2" class="edge">
<title>Node2&#45;&gt;Node3</title>
<path fill="none" stroke="midnightblue" d="M267.77,-104.43C259.36,-94.97 249.15,-83.48 242.28,-75.75"/>
<polygon fill="midnightblue" stroke="midnightblue" points="265.31,-106.93 274.57,-112.08 270.55,-102.28 265.31,-106.93"/>
</g>
<!-- Node4 -->
<g id="node4" class="node">
<title>Node4</title>
<g id="a_node4"><a xlink:href="_clustered_light_feature_8hpp.html" target="_top" xlink:title=" ">
<polygon fill="white" stroke="black" points="0,-56.5 0,-75.5 145,-75.5 145,-56.5 0,-56.5"/>
<text text-anchor="middle" x="72.5" y="-63.5" font-family="Helvetica,sans-Serif" font-size="10.00">ClusteredLightFeature.hpp</text>
</a>
</g>
</g>
<!-- Node2&#45;&gt;Node4 -->
<g id="edge3" class="edge">
<title>Node2&#45;&gt;Node4</title>
<path fill="none" stroke="midnightblue" d="M239.31,-109.89C199.65,-99.7 141.73,-84.8 105.62,-75.52"/>
<polygon fill="midnightblue" stroke="midnightblue" points="238.67,-113.34 249.22,-112.44 240.41,-106.56 238.67,-113.34"/>
</g>
<!-- Node5 -->
<g id="node5" class="node">
<title>Node5</title>
<g id="a_node5"><a xlink:href="_particle_system_feature_8hpp.html" target="_top" xlink:title=" ">
<polygon fill="white" stroke="black" points="324,-56.5 324,-75.5 471,-75.5 471,-56.5 324,-56.5"/>
<text text-anchor="middle" x="397.5" y="-63.5" font-family="Helvetica,sans-Serif" font-size="10.00">ParticleSystemFeature.hpp</text>
</a>
</g>
</g>
<!-- Node2&#45;&gt;Node5 -->
<g id="edge4" class="edge">
<title>Node2&#45;&gt;Node5</title>
<path fill="none" stroke="midnightblue" d="M309.98,-108.1C331.47,-98.01 360.72,-84.27 379.36,-75.52"/>
<polygon fill="midnightblue" stroke="midnightblue" points="308.29,-105.02 300.72,-112.44 311.26,-111.36 308.29,-105.02"/>
</g>
<!-- Node6&#45;&gt;Node4 -->
<g id="edge6" class="edge">
<title>Node6&#45;&gt;Node4</title>
<path fill="none" stroke="midnightblue" d="M72.5,-101.8C72.5,-92.91 72.5,-82.78 72.5,-75.75"/>
<polygon fill="midnightblue" stroke="midnightblue" points="69,-102.08 72.5,-112.08 76,-102.08 69,-102.08"/>
</g>
<!-- Node8 -->
<g id="node8" class="node">
<title>Node8</title>
<g id="a_node8"><a xlink:href="_device_8hpp.html" target="_top" xlink:title=" ">
<polygon fill="white" stroke="black" points="404,-224.5 404,-243.5 475,-243.5 475,-224.5 404,-224.5"/>
<text text-anchor="middle" x="439.5" y="-231.5" font-family="Helvetica,sans-Serif" font-size="10.00">Device.hpp</text>
</a>
</g>
</g>
<!-- Node7&#45;&gt;Node8 -->
<g id="edge8" class="edge">
<title>Node7&#45;&gt;Node8</title>
<path fill="none" stroke="midnightblue" d="M418.74,-326.35C424.22,-302.25 433.52,-261.31 437.55,-243.59"/>
<polygon fill="midnightblue" stroke="midnightblue" points="415.27,-325.84 416.46,-336.37 422.09,-327.39 415.27,-325.84"/>
</g>
<!-- Node22 -->
<g id="node22" class="node">
<title>Node22</title>
<g id="a_node22"><a xlink:href="_render_graph_8hpp.html" target="_top" xlink:title=" ">
<polygon fill="white" stroke="black" points="202,-280.5 202,-299.5 303,-299.5 303,-280.5 202,-280.5"/>
<text text-anchor="middle" x="252.5" y="-287.5" font-family="Helvetica,sans-Serif" font-size="10.00">RenderGraph.hpp</text>
</a>
</g>
</g>
<!-- Node7&#45;&gt;Node22 -->
<g id="edge34" class="edge">
<title>Node7&#45;&gt;Node22</title>
<path fill="none" stroke="midnightblue" d="M379.02,-333.17C348.51,-323 305.26,-308.59 278.05,-299.52"/>
<polygon fill="midnightblue" stroke="midnightblue" points="378.24,-336.6 388.83,-336.44 380.45,-329.96 378.24,-336.6"/>
</g>
<!-- Node9 -->
<g id="node9" class="node">
<title>Node9</title>
<g id="a_node9"><a xlink:href="_feature_8hpp.html" target="_top" xlink:title=" ">
<polygon fill="white" stroke="black" points="473.5,-112.5 473.5,-131.5 547.5,-131.5 547.5,-112.5 473.5,-112.5"/>
<text text-anchor="middle" x="510.5" y="-119.5" font-family="Helvetica,sans-Serif" font-size="10.00">Feature.hpp</text>
</a>
</g>
</g>
<!-- Node8&#45;&gt;Node9 -->
<g id="edge9" class="edge">
<title>Node8&#45;&gt;Node9</title>
<path fill="none" stroke="midnightblue" d="M454.28,-216.7C461.43,-208.42 469.87,-198.01 476.5,-188 489.16,-168.89 500.83,-144.52 506.64,-131.73"/>
<polygon fill="midnightblue" stroke="midnightblue" points="451.43,-214.64 447.44,-224.45 456.68,-219.27 451.43,-214.64"/>
</g>
<!-- Node15 -->
<g id="node15" class="node">
<title>Node15</title>
<g id="a_node15"><a xlink:href="_layer_8hpp.html" target="_top" xlink:title=" ">
<polygon fill="white" stroke="black" points="403.5,-168.5 403.5,-187.5 467.5,-187.5 467.5,-168.5 403.5,-168.5"/>
<text text-anchor="middle" x="435.5" y="-175.5" font-family="Helvetica,sans-Serif" font-size="10.00">Layer.hpp</text>
</a>
</g>
</g>
<!-- Node8&#45;&gt;Node15 -->
<g id="edge18" class="edge">
<title>Node8&#45;&gt;Node15</title>
<path fill="none" stroke="midnightblue" d="M438.1,-214.1C437.44,-205.14 436.67,-194.86 436.15,-187.75"/>
<polygon fill="midnightblue" stroke="midnightblue" points="434.61,-214.37 438.84,-224.08 441.59,-213.85 434.61,-214.37"/>
</g>
<!-- Node16 -->
<g id="node16" class="node">
<title>Node16</title>
<g id="a_node16"><a xlink:href="_view_8hpp.html" target="_top" xlink:title=" ">
<polygon fill="white" stroke="black" points="713,-112.5 713,-131.5 774,-131.5 774,-112.5 713,-112.5"/>
<text text-anchor="middle" x="743.5" y="-119.5" font-family="Helvetica,sans-Serif" font-size="10.00">View.hpp</text>
</a>
</g>
</g>
<!-- Node8&#45;&gt;Node16 -->
<g id="edge20" class="edge">
<title>Node8&#45;&gt;Node16</title>
<path fill="none" stroke="midnightblue" d="M485.3,-233.42C563.7,-233.07 718.48,-227.26 752.5,-188 766.23,-172.16 755.57,-145.51 748.49,-131.77"/>
<polygon fill="midnightblue" stroke="midnightblue" points="485.21,-229.92 475.22,-233.44 485.23,-236.92 485.21,-229.92"/>
</g>
<!-- Node17 -->
<g id="node17" class="node">
<title>Node17</title>
<g id="a_node17"><a xlink:href="_instance_8hpp.html" target="_top" xlink:title=" ">
<polygon fill="white" stroke="black" points="524,-168.5 524,-187.5 603,-187.5 603,-168.5 524,-168.5"/>
<text text-anchor="middle" x="563.5" y="-175.5" font-family="Helvetica,sans-Serif" font-size="10.00">Instance.hpp</text>
</a>
</g>
</g>
<!-- Node8&#45;&gt;Node17 -->
<g id="edge21" class="edge">
<title>Node8&#45;&gt;Node17</title>
<path fill="none" stroke="midnightblue" d="M468.51,-220.37C491.73,-210.26 523.66,-196.35 543.94,-187.52"/>
<polygon fill="midnightblue" stroke="midnightblue" points="466.92,-217.24 459.15,-224.44 469.71,-223.66 466.92,-217.24"/>
</g>
<!-- Node18 -->
<g id="node18" class="node">
<title>Node18</title>
<g id="a_node18"><a xlink:href="_mapped_buffer_8hpp.html" target="_top" xlink:title=" ">
<polygon fill="white" stroke="black" points="350,-112.5 350,-131.5 455,-131.5 455,-112.5 350,-112.5"/>
<text text-anchor="middle" x="402.5" y="-119.5" font-family="Helvetica,sans-Serif" font-size="10.00">MappedBuffer.hpp</text>
</a>
</g>
</g>
<!-- Node8&#45;&gt;Node18 -->
<g id="edge22" class="edge">
<title>Node8&#45;&gt;Node18</title>
<path fill="none" stroke="midnightblue" d="M418.33,-218.04C409.17,-210.26 399.42,-199.88 394.5,-188 386.67,-169.09 393.8,-144.64 398.73,-131.79"/>
<polygon fill="midnightblue" stroke="midnightblue" points="416.42,-220.99 426.44,-224.44 420.75,-215.49 416.42,-220.99"/>
</g>
<!-- Node19 -->
<g id="node19" class="node">
<title>Node19</title>
<g id="a_node19"><a xlink:href="_shader_8hpp.html" target="_top" xlink:title=" ">
<polygon fill="white" stroke="black" points="792,-112.5 792,-131.5 863,-131.5 863,-112.5 792,-112.5"/>
<text text-anchor="middle" x="827.5" y="-119.5" font-family="Helvetica,sans-Serif" font-size="10.00">Shader.hpp</text>
</a>
</g>
</g>
<!-- Node8&#45;&gt;Node19 -->
<g id="edge25" class="edge">
<title>Node8&#45;&gt;Node19</title>
<path fill="none" stroke="midnightblue" d="M485.25,-230.66C563.96,-225.99 721.19,-213.7 769.5,-188 794.34,-174.79 813.7,-146.46 822.43,-131.96"/>
<polygon fill="midnightblue" stroke="midnightblue" points="484.92,-227.17 475.14,-231.24 485.33,-234.16 484.92,-227.17"/>
</g>
<!-- Node9&#45;&gt;Node3 -->
<g id="edge11" class="edge">
<title>Node9&#45;&gt;Node3</title>
<path fill="none" stroke="midnightblue" d="M463.34,-111.77C411.51,-101.63 328.91,-85.47 278.4,-75.59"/>
<polygon fill="midnightblue" stroke="midnightblue" points="462.79,-115.23 473.28,-113.72 464.14,-108.36 462.79,-115.23"/>
</g>
<!-- Node9&#45;&gt;Node4 -->
<g id="edge12" class="edge">
<title>Node9&#45;&gt;Node4</title>
<path fill="none" stroke="midnightblue" d="M463.32,-112.01C409.07,-104.47 242.93,-85.87 145.4,-75.05"/>
<polygon fill="midnightblue" stroke="midnightblue" points="462.99,-115.49 473.39,-113.48 464,-108.57 462.99,-115.49"/>
</g>
<!-- Node9&#45;&gt;Node5 -->
<g id="edge14" class="edge">
<title>Node9&#45;&gt;Node5</title>
<path fill="none" stroke="midnightblue" d="M483.5,-108.1C462.39,-98.01 433.64,-84.27 415.32,-75.52"/>
<polygon fill="midnightblue" stroke="midnightblue" points="482.06,-111.29 492.59,-112.44 485.08,-104.97 482.06,-111.29"/>
</g>
<!-- Node10 -->
<g id="node10" class="node">
<title>Node10</title>
<g id="a_node10"><a xlink:href="_bloom_feature_8hpp.html" target="_top" xlink:title=" ">
<polygon fill="white" stroke="black" points="734.5,-56.5 734.5,-75.5 840.5,-75.5 840.5,-56.5 734.5,-56.5"/>
<text text-anchor="middle" x="787.5" y="-63.5" font-family="Helvetica,sans-Serif" font-size="10.00">BloomFeature.hpp</text>
</a>
</g>
</g>
<!-- Node9&#45;&gt;Node10 -->
<g id="edge10" class="edge">
<title>Node9&#45;&gt;Node10</title>
<path fill="none" stroke="midnightblue" d="M557.56,-111.83C609.69,-101.66 693.07,-85.41 743.81,-75.52"/>
<polygon fill="midnightblue" stroke="midnightblue" points="556.72,-108.42 547.57,-113.77 558.05,-115.3 556.72,-108.42"/>
</g>
<!-- Node11 -->
<g id="node11" class="node">
<title>Node11</title>
<g id="a_node11"><a xlink:href="_forward_render_feature_8hpp.html" target="_top" xlink:title=" ">
<polygon fill="white" stroke="black" points="1095.5,-56.5 1095.5,-75.5 1243.5,-75.5 1243.5,-56.5 1095.5,-56.5"/>
<text text-anchor="middle" x="1169.5" y="-63.5" font-family="Helvetica,sans-Serif" font-size="10.00">ForwardRenderFeature.hpp</text>
</a>
</g>
</g>
<!-- Node9&#45;&gt;Node11 -->
<g id="edge13" class="edge">
<title>Node9&#45;&gt;Node11</title>
<path fill="none" stroke="midnightblue" d="M557.81,-117.79C656.28,-110.99 890.41,-94.29 1086.5,-76 1089.39,-75.73 1092.33,-75.45 1095.3,-75.16"/>
<polygon fill="midnightblue" stroke="midnightblue" points="557.33,-114.31 547.6,-118.49 557.81,-121.3 557.33,-114.31"/>
</g>
<!-- Node12 -->
<g id="node12" class="node">
<title>Node12</title>
<g id="a_node12"><a xlink:href="_static_mesh_feature_8hpp.html" target="_top" xlink:title=" ">
<polygon fill="white" stroke="black" points="588.5,-56.5 588.5,-75.5 716.5,-75.5 716.5,-56.5 588.5,-56.5"/>
<text text-anchor="middle" x="652.5" y="-63.5" font-family="Helvetica,sans-Serif" font-size="10.00">StaticMeshFeature.hpp</text>
</a>
</g>
</g>
<!-- Node9&#45;&gt;Node12 -->
<g id="edge15" class="edge">
<title>Node9&#45;&gt;Node12</title>
<path fill="none" stroke="midnightblue" d="M542.66,-108.77C569.33,-98.63 606.57,-84.47 630.1,-75.52"/>
<polygon fill="midnightblue" stroke="midnightblue" points="541.1,-105.62 533,-112.44 543.59,-112.16 541.1,-105.62"/>
</g>
<!-- Node13 -->
<g id="node13" class="node">
<title>Node13</title>
<g id="a_node13"><a xlink:href="_tonemap_feature_8hpp.html" target="_top" xlink:title=" ">
<polygon fill="white" stroke="black" points="958,-56.5 958,-75.5 1077,-75.5 1077,-56.5 958,-56.5"/>
<text text-anchor="middle" x="1017.5" y="-63.5" font-family="Helvetica,sans-Serif" font-size="10.00">TonemapFeature.hpp</text>
</a>
</g>
</g>
<!-- Node9&#45;&gt;Node13 -->
<g id="edge16" class="edge">
<title>Node9&#45;&gt;Node13</title>
<path fill="none" stroke="midnightblue" d="M557.84,-116.61C638.37,-109.03 807.13,-92.71 949.5,-76 952.22,-75.68 955,-75.35 957.81,-75"/>
<polygon fill="midnightblue" stroke="midnightblue" points="557.17,-113.16 547.54,-117.57 557.82,-120.12 557.17,-113.16"/>
</g>
<!-- Node14 -->
<g id="node14" class="node">
<title>Node14</title>
<g id="a_node14"><a xlink:href="_renderer_8hpp.html" target="_top" xlink:title=" ">
<polygon fill="white" stroke="black" points="489,-56.5 489,-75.5 570,-75.5 570,-56.5 489,-56.5"/>
<text text-anchor="middle" x="529.5" y="-63.5" font-family="Helvetica,sans-Serif" font-size="10.00">Renderer.hpp</text>
</a>
</g>
</g>
<!-- Node9&#45;&gt;Node14 -->
<g id="edge17" class="edge">
<title>Node9&#45;&gt;Node14</title>
<path fill="none" stroke="midnightblue" d="M517.05,-102.4C520.22,-93.36 523.89,-82.94 526.42,-75.75"/>
<polygon fill="midnightblue" stroke="midnightblue" points="513.65,-101.49 513.64,-112.08 520.26,-103.81 513.65,-101.49"/>
</g>
<!-- Node15&#45;&gt;Node9 -->
<g id="edge19" class="edge">
<title>Node15&#45;&gt;Node9</title>
<path fill="none" stroke="midnightblue" d="M455.81,-162.38C469.36,-152.62 486.74,-140.11 498.23,-131.83"/>
<polygon fill="midnightblue" stroke="midnightblue" points="453.62,-159.64 447.55,-168.32 457.71,-165.32 453.62,-159.64"/>
</g>
<!-- Node18&#45;&gt;Node3 -->
<g id="edge23" class="edge">
<title>Node18&#45;&gt;Node3</title>
<path fill="none" stroke="midnightblue" d="M366.11,-109.3C334.46,-99.13 289.33,-84.62 261,-75.52"/>
<polygon fill="midnightblue" stroke="midnightblue" points="365.29,-112.72 375.88,-112.44 367.43,-106.05 365.29,-112.72"/>
</g>
<!-- Node18&#45;&gt;Node5 -->
<g id="edge24" class="edge">
<title>Node18&#45;&gt;Node5</title>
<path fill="none" stroke="midnightblue" d="M400.75,-102.1C399.92,-93.14 398.97,-82.86 398.31,-75.75"/>
<polygon fill="midnightblue" stroke="midnightblue" points="397.27,-102.45 401.67,-112.08 404.24,-101.8 397.27,-102.45"/>
</g>
<!-- Node19&#45;&gt;Node4 -->
<g id="edge27" class="edge">
<title>Node19&#45;&gt;Node4</title>
<path fill="none" stroke="midnightblue" d="M781.6,-111.92C504.11,-76.39 430.27,-99.01 154.5,-76 151.5,-75.75 148.45,-75.48 145.36,-75.2"/>
<polygon fill="midnightblue" stroke="midnightblue" points="781.19,-115.39 791.55,-113.21 782.08,-108.45 781.19,-115.39"/>
</g>
<!-- Node19&#45;&gt;Node5 -->
<g id="edge29" class="edge">
<title>Node19&#45;&gt;Node5</title>
<path fill="none" stroke="midnightblue" d="M781.49,-111.87C728.67,-104.37 567.1,-86.03 471,-75.22"/>
<polygon fill="midnightblue" stroke="midnightblue" points="781.12,-115.36 791.53,-113.38 782.16,-108.43 781.12,-115.36"/>
</g>
<!-- Node19&#45;&gt;Node10 -->
<g id="edge26" class="edge">
<title>Node19&#45;&gt;Node10</title>
<path fill="none" stroke="midnightblue" d="M814.8,-103.86C807.87,-94.5 799.59,-83.33 793.98,-75.75"/>
<polygon fill="midnightblue" stroke="midnightblue" points="812.13,-106.13 820.89,-112.08 817.75,-101.96 812.13,-106.13"/>
</g>
<!-- Node19&#45;&gt;Node11 -->
<g id="edge28" class="edge">
<title>Node19&#45;&gt;Node11</title>
<path fill="none" stroke="midnightblue" d="M873.13,-113.8C935.88,-103.89 1048.61,-86.09 1115.48,-75.53"/>
<polygon fill="midnightblue" stroke="midnightblue" points="872.46,-110.36 863.13,-115.37 873.56,-117.27 872.46,-110.36"/>
</g>
<!-- Node19&#45;&gt;Node12 -->
<g id="edge30" class="edge">
<title>Node19&#45;&gt;Node12</title>
<path fill="none" stroke="midnightblue" d="M790.03,-109.44C757.03,-99.26 709.74,-84.66 680.1,-75.52"/>
<polygon fill="midnightblue" stroke="midnightblue" points="789.18,-112.84 799.77,-112.44 791.25,-106.15 789.18,-112.84"/>
</g>
<!-- Node19&#45;&gt;Node13 -->
<g id="edge31" class="edge">
<title>Node19&#45;&gt;Node13</title>
<path fill="none" stroke="midnightblue" d="M867.26,-109.7C903.12,-99.51 955.07,-84.74 987.53,-75.52"/>
<polygon fill="midnightblue" stroke="midnightblue" points="866.27,-106.34 857.61,-112.44 868.18,-113.08 866.27,-106.34"/>
</g>
<!-- Node20 -->
<g id="node20" class="node">
<title>Node20</title>
<g id="a_node20"><a xlink:href="_compiler_8hpp.html" target="_top" xlink:title=" ">
<polygon fill="white" stroke="black" points="859,-56.5 859,-75.5 940,-75.5 940,-56.5 859,-56.5"/>
<text text-anchor="middle" x="899.5" y="-63.5" font-family="Helvetica,sans-Serif" font-size="10.00">Compiler.hpp</text>
</a>
</g>
</g>
<!-- Node19&#45;&gt;Node20 -->
<g id="edge32" class="edge">
<title>Node19&#45;&gt;Node20</title>
<path fill="none" stroke="midnightblue" d="M847.37,-106.1C860.32,-96.38 876.8,-84.03 887.72,-75.83"/>
<polygon fill="midnightblue" stroke="midnightblue" points="844.97,-103.52 839.07,-112.32 849.17,-109.12 844.97,-103.52"/>
</g>
<!-- Node21 -->
<g id="node21" class="node">
<title>Node21</title>
<g id="a_node21"><a xlink:href="_shader_loader_8hpp.html" target="_top" xlink:title=" ">
<polygon fill="white" stroke="black" points="847.5,-0.5 847.5,-19.5 951.5,-19.5 951.5,-0.5 847.5,-0.5"/>
<text text-anchor="middle" x="899.5" y="-7.5" font-family="Helvetica,sans-Serif" font-size="10.00">ShaderLoader.hpp</text>
</a>
</g>
</g>
<!-- Node20&#45;&gt;Node21 -->
<g id="edge33" class="edge">
<title>Node20&#45;&gt;Node21</title>
<path fill="none" stroke="midnightblue" d="M899.5,-45.8C899.5,-36.91 899.5,-26.78 899.5,-19.75"/>
<polygon fill="midnightblue" stroke="midnightblue" points="896,-46.08 899.5,-56.08 903,-46.08 896,-46.08"/>
</g>
<!-- Node22&#45;&gt;Node6 -->
<g id="edge35" class="edge">
<title>Node22&#45;&gt;Node6</title>
<path fill="none" stroke="midnightblue" d="M226.64,-275.54C212.09,-267.37 193.98,-256.19 179.5,-244 135.94,-207.35 94.18,-152.74 78.76,-131.7"/>
<polygon fill="midnightblue" stroke="midnightblue" points="225.17,-278.72 235.62,-280.45 228.53,-272.58 225.17,-278.72"/>
</g>
<!-- Node22&#45;&gt;Node8 -->
<g id="edge39" class="edge">
<title>Node22&#45;&gt;Node8</title>
<path fill="none" stroke="midnightblue" d="M292.09,-277.57C327.37,-267.38 378.19,-252.7 410.01,-243.52"/>
<polygon fill="midnightblue" stroke="midnightblue" points="290.77,-274.31 282.13,-280.44 292.71,-281.03 290.77,-274.31"/>
</g>
<!-- Node22&#45;&gt;Node9 -->
<g id="edge38" class="edge">
<title>Node22&#45;&gt;Node9</title>
<path fill="none" stroke="midnightblue" d="M270.45,-273.43C307.1,-241.67 387.64,-172.09 394.5,-168 421.96,-151.62 456.44,-139.14 480.64,-131.52"/>
<polygon fill="midnightblue" stroke="midnightblue" points="267.81,-271.08 262.55,-280.28 272.39,-276.37 267.81,-271.08"/>
</g>
<!-- Node23 -->
<g id="node23" class="node">
<title>Node23</title>
<g id="a_node23"><a xlink:href="_output_texture_8hpp.html" target="_top" xlink:title=" ">
<polygon fill="white" stroke="black" points="188,-224.5 188,-243.5 295,-243.5 295,-224.5 188,-224.5"/>
<text text-anchor="middle" x="241.5" y="-231.5" font-family="Helvetica,sans-Serif" font-size="10.00">OutputTexture.hpp</text>
</a>
</g>
</g>
<!-- Node22&#45;&gt;Node23 -->
<g id="edge36" class="edge">
<title>Node22&#45;&gt;Node23</title>
<path fill="none" stroke="midnightblue" d="M248.65,-270.1C246.82,-261.14 244.73,-250.86 243.28,-243.75"/>
<polygon fill="midnightblue" stroke="midnightblue" points="245.26,-270.98 250.68,-280.08 252.12,-269.59 245.26,-270.98"/>
</g>
<!-- Node23&#45;&gt;Node4 -->
<g id="edge37" class="edge">
<title>Node23&#45;&gt;Node4</title>
<path fill="none" stroke="midnightblue" d="M230.65,-215.45C214.53,-190.36 182.3,-143.77 146.5,-112 129.29,-96.73 106.22,-83.64 90.44,-75.58"/>
<polygon fill="midnightblue" stroke="midnightblue" points="227.89,-217.63 236.18,-224.22 233.81,-213.89 227.89,-217.63"/>
</g>
<!-- Node24&#45;&gt;Node2 -->
<g id="edge42" class="edge">
<title>Node24&#45;&gt;Node2</title>
<path fill="none" stroke="midnightblue" d="M611.47,-167.8C527.29,-156.86 392.06,-139.19 341.5,-132 338.42,-131.56 335.26,-131.1 332.06,-130.63"/>
<polygon fill="midnightblue" stroke="midnightblue" points="611.11,-171.28 621.47,-169.1 612.01,-164.34 611.11,-171.28"/>
</g>
<!-- Node24&#45;&gt;Node4 -->
<g id="edge44" class="edge">
<title>Node24&#45;&gt;Node4</title>
<path fill="none" stroke="midnightblue" d="M611.49,-167.95C438.53,-149.95 388.78,-175.63 224.5,-132 203.74,-126.49 200.19,-120.58 180.5,-112 150.52,-98.94 115.53,-84.51 93.69,-75.6"/>
<polygon fill="midnightblue" stroke="midnightblue" points="611.12,-171.43 621.43,-169.02 611.86,-164.47 611.12,-171.43"/>
</g>
<!-- Node24&#45;&gt;Node6 -->
<g id="edge43" class="edge">
<title>Node24&#45;&gt;Node6</title>
<path fill="none" stroke="midnightblue" d="M611.35,-167.93C505.54,-157.12 257.18,-137.41 138.11,-128.1"/>
<polygon fill="midnightblue" stroke="midnightblue" points="611.13,-171.43 621.44,-168.99 611.85,-164.47 611.13,-171.43"/>
</g>
<!-- Node24&#45;&gt;Node10 -->
<g id="edge41" class="edge">
<title>Node24&#45;&gt;Node10</title>
<path fill="none" stroke="midnightblue" d="M685.03,-158.44C687.78,-144.36 693.35,-125.23 704.5,-112 719.29,-94.45 742.72,-82.64 760.93,-75.54"/>
<polygon fill="midnightblue" stroke="midnightblue" points="681.56,-158.01 683.39,-168.45 688.46,-159.14 681.56,-158.01"/>
</g>
<!-- Node24&#45;&gt;Node11 -->
<g id="edge45" class="edge">
<title>Node24&#45;&gt;Node11</title>
<path fill="none" stroke="midnightblue" d="M739.2,-166.64C785.43,-158 852.36,-145.02 910.5,-132 992.83,-113.56 1089.01,-88.48 1137.73,-75.53"/>
<polygon fill="midnightblue" stroke="midnightblue" points="738.56,-163.2 729.37,-168.47 739.84,-170.08 738.56,-163.2"/>
</g>
<!-- Node24&#45;&gt;Node12 -->
<g id="edge46" class="edge">
<title>Node24&#45;&gt;Node12</title>
<path fill="none" stroke="midnightblue" d="M677.5,-158.67C670.94,-134.62 659.7,-93.39 654.84,-75.59"/>
<polygon fill="midnightblue" stroke="midnightblue" points="674.14,-159.64 680.15,-168.37 680.89,-157.8 674.14,-159.64"/>
</g>
<!-- Node24&#45;&gt;Node13 -->
<g id="edge47" class="edge">
<title>Node24&#45;&gt;Node13</title>
<path fill="none" stroke="midnightblue" d="M739.17,-166.5C777.36,-158.72 828.59,-146.89 872.5,-132 920.57,-115.7 974.45,-89.25 1000.95,-75.66"/>
<polygon fill="midnightblue" stroke="midnightblue" points="738.38,-163.09 729.26,-168.49 739.76,-169.95 738.38,-163.09"/>
</g>
<!-- Node24&#45;&gt;Node16 -->
<g id="edge48" class="edge">
<title>Node24&#45;&gt;Node16</title>
<path fill="none" stroke="midnightblue" d="M699.97,-161.54C710.84,-151.91 724.44,-139.87 733.52,-131.83"/>
<polygon fill="midnightblue" stroke="midnightblue" points="697.47,-159.07 692.3,-168.32 702.11,-164.32 697.47,-159.07"/>
</g>
<!-- Node26 -->
<g id="node26" class="node">
<title>Node26</title>
<g id="a_node26"><a xlink:href="_dependent_texture_info_8hpp.html" target="_top" xlink:title=" ">
<polygon fill="white" stroke="black" points="179.5,-336.5 179.5,-355.5 325.5,-355.5 325.5,-336.5 179.5,-336.5"/>
<text text-anchor="middle" x="252.5" y="-343.5" font-family="Helvetica,sans-Serif" font-size="10.00">DependentTextureInfo.hpp</text>
</a>
</g>
</g>
<!-- Node25&#45;&gt;Node26 -->
<g id="edge50" class="edge">
<title>Node25&#45;&gt;Node26</title>
<path fill="none" stroke="midnightblue" d="M268.36,-382.69C264.32,-373.59 259.62,-363.01 256.39,-355.75"/>
<polygon fill="midnightblue" stroke="midnightblue" points="265.28,-384.37 272.54,-392.08 271.67,-381.52 265.28,-384.37"/>
</g>
<!-- Node27 -->
<g id="node27" class="node">
<title>Node27</title>
<g id="a_node27"><a xlink:href="_swapchain_8hpp.html" target="_top" xlink:title=" ">
<polygon fill="white" stroke="black" points="321.5,-280.5 321.5,-299.5 411.5,-299.5 411.5,-280.5 321.5,-280.5"/>
<text text-anchor="middle" x="366.5" y="-287.5" font-family="Helvetica,sans-Serif" font-size="10.00">Swapchain.hpp</text>
</a>
</g>
</g>
<!-- Node25&#45;&gt;Node27 -->
<g id="edge52" class="edge">
<title>Node25&#45;&gt;Node27</title>
<path fill="none" stroke="midnightblue" d="M299.71,-386.65C311.23,-378.68 324.74,-367.96 334.5,-356 348.97,-338.26 359.04,-312.89 363.65,-299.71"/>
<polygon fill="midnightblue" stroke="midnightblue" points="297.77,-383.74 291.38,-392.19 301.64,-389.57 297.77,-383.74"/>
</g>
<!-- Node26&#45;&gt;Node22 -->
<g id="edge51" class="edge">
<title>Node26&#45;&gt;Node22</title>
<path fill="none" stroke="midnightblue" d="M252.5,-325.8C252.5,-316.91 252.5,-306.78 252.5,-299.75"/>
<polygon fill="midnightblue" stroke="midnightblue" points="249,-326.08 252.5,-336.08 256,-326.08 249,-326.08"/>
</g>
<!-- Node27&#45;&gt;Node8 -->
<g id="edge53" class="edge">
<title>Node27&#45;&gt;Node8</title>
<path fill="none" stroke="midnightblue" d="M386.64,-274.1C399.78,-264.38 416.48,-252.03 427.56,-243.83"/>
<polygon fill="midnightblue" stroke="midnightblue" points="384.19,-271.56 378.23,-280.32 388.35,-277.19 384.19,-271.56"/>
</g>
</g>
</svg>
        <g id="navigator" transform="translate(0 0)" fill="#404254">
                <rect fill="#f2f5e9" fill-opacity="0.5" stroke="#606060" stroke-width=".5" x="0" y="0" width="60" height="60"/>
                <use id="zoomplus" xlink:href="#zoomPlus" x="17" y="9" onmousedown="handleZoom(evt,'in')"/>
                <use id="zoomminus" xlink:href="#zoomMin" x="42" y="9" onmousedown="handleZoom(evt,'out')"/>
                <use id="reset" xlink:href="#resetDef" x="30" y="36" onmousedown="handleReset()"/>
                <g id="arrowUp" xlink:href="#dirArrow" transform="translate(30 24)" onmousedown="handlePan(0,-1)">
                  <use xlink:href="#rim" fill="#404040">
                        <set attributeName="fill" to="#808080" begin="arrowUp.mouseover" end="arrowUp.mouseout"/>
                  </use>
                  <path fill="none" stroke="white" stroke-width="1.5" d="M0,-3.0v7 M-2.5,-0.5L0,-3.0L2.5,-0.5"/>
                </g>
                <g id="arrowRight" xlink:href="#dirArrow" transform="rotate(90) translate(36 -43)" onmousedown="handlePan(1,0)">
                  <use xlink:href="#rim" fill="#404040">
                        <set attributeName="fill" to="#808080" begin="arrowRight.mouseover" end="arrowRight.mouseout"/>
                  </use>
                  <path fill="none" stroke="white" stroke-width="1.5" d="M0,-3.0v7 M-2.5,-0.5L0,-3.0L2.5,-0.5"/>
                </g>
                <g id="arrowDown" xlink:href="#dirArrow" transform="rotate(180) translate(-30 -48)" onmousedown="handlePan(0,1)">
                  <use xlink:href="#rim" fill="#404040">
                        <set attributeName="fill" to="#808080" begin="arrowDown.mouseover" end="arrowDown.mouseout"/>
                  </use>
                  <path fill="none" stroke="white" stroke-width="1.5" d="M0,-3.0v7 M-2.5,-0.5L0,-3.0L2.5,-0.5"/>
                </g>
                <g id="arrowLeft" xlink:href="#dirArrow" transform="rotate(270) translate(-36 17)" onmousedown="handlePan(-1,0)">
                  <use xlink:href="#rim" fill="#404040">
                        <set attributeName="fill" to="#808080" begin="arrowLeft.mouseover" end="arrowLeft.mouseout"/>
                  </use>
                  <path fill="none" stroke="white" stroke-width="1.5" d="M0,-3.0v7 M-2.5,-0.5L0,-3.0L2.5,-0.5"/>
                </g>
        </g>
        <svg viewBox="0 0 15 15" width="100%" height="30px" preserveAspectRatio="xMaxYMin meet">
         <g id="arrow_out" transform="scale(0.3 0.3)">
          <a xlink:href="_descriptor_binding_8hpp__dep__incl_org.svg" target="_base">
           <rect id="button" ry="5" rx="5" y="6" x="6" height="38" width="38"
                fill="#f2f5e9" fill-opacity="0.5" stroke="#606060" stroke-width="1.0"/>
           <path id="arrow"
             d="M 11.500037,31.436501 C 11.940474,20.09759 22.043105,11.32322 32.158766,21.979434 L 37.068811,17.246167 C 37.068811,17.246167 37.088388,32 37.088388,32 L 22.160133,31.978069 C 22.160133,31.978069 26.997745,27.140456 26.997745,27.140456 C 18.528582,18.264221 13.291696,25.230495 11.500037,31.436501 z"
             style="fill:#404040;"/>
          </a>
         </g>
        </svg>
</svg>
