<?xml version="1.0" encoding="UTF-8" standalone="no"?>
<!DOCTYPE svg PUBLIC "-//W3C//DTD SVG 1.1//EN"
 "http://www.w3.org/Graphics/SVG/1.1/DTD/svg11.dtd">
<!-- Generated by graphviz version 2.43.0 (0)
 -->
<!-- Title: DescriptorBinding.hpp Pages: 1 -->
<svg width="1100pt" height="476pt"
 viewBox="0.00 0.00 1100.00 476.00" xmlns="http://www.w3.org/2000/svg" xmlns:xlink="http://www.w3.org/1999/xlink">
<g id="graph0" class="graph" transform="scale(1 1) rotate(0) translate(4 472)">
<title>DescriptorBinding.hpp</title>
<polygon fill="white" stroke="transparent" points="-4,4 -4,-472 1096,-472 1096,4 -4,4"/>
<!-- Node1 -->
<g id="node1" class="node">
<title>Node1</title>
<g id="a_node1"><a xlink:title=" ">
<polygon fill="#bfbfbf" stroke="black" points="642.5,-448.5 642.5,-467.5 767.5,-467.5 767.5,-448.5 642.5,-448.5"/>
<text text-anchor="middle" x="705" y="-455.5" font-family="Helvetica,sans-Serif" font-size="10.00">DescriptorBinding.hpp</text>
</a>
</g>
</g>
<!-- Node2 -->
<g id="node2" class="node">
<title>Node2</title>
<g id="a_node2"><a xlink:href="_camera_data_8hpp.html" target="_top" xlink:title=" ">
<polygon fill="white" stroke="black" points="808.5,-112.5 808.5,-131.5 907.5,-131.5 907.5,-112.5 808.5,-112.5"/>
<text text-anchor="middle" x="858" y="-119.5" font-family="Helvetica,sans-Serif" font-size="10.00">CameraData.hpp</text>
</a>
</g>
</g>
<!-- Node1&#45;&gt;Node2 -->
<g id="edge1" class="edge">
<title>Node1&#45;&gt;Node2</title>
<path fill="none" stroke="midnightblue" d="M771.76,-446.7C861.52,-430.94 1010,-397.27 1010,-347 1010,-347 1010,-347 1010,-233 1010,-175.51 937.75,-145 892.87,-131.6"/>
<polygon fill="midnightblue" stroke="midnightblue" points="770.91,-443.3 761.65,-448.45 772.1,-450.2 770.91,-443.3"/>
</g>
<!-- Node5 -->
<g id="node5" class="node">
<title>Node5</title>
<g id="a_node5"><a xlink:href="_buffer_8hpp.html" target="_top" xlink:title=" ">
<polygon fill="white" stroke="black" points="640,-336.5 640,-355.5 706,-355.5 706,-336.5 640,-336.5"/>
<text text-anchor="middle" x="673" y="-343.5" font-family="Helvetica,sans-Serif" font-size="10.00">Buffer.hpp</text>
</a>
</g>
</g>
<!-- Node1&#45;&gt;Node5 -->
<g id="edge4" class="edge">
<title>Node1&#45;&gt;Node5</title>
<path fill="none" stroke="midnightblue" d="M699.67,-438.67C692.67,-414.62 680.68,-373.39 675.5,-355.59"/>
<polygon fill="midnightblue" stroke="midnightblue" points="696.33,-439.74 702.49,-448.37 703.06,-437.79 696.33,-439.74"/>
</g>
<!-- Node22 -->
<g id="node22" class="node">
<title>Node22</title>
<g id="a_node22"><a xlink:href="_shader_alignment_8hpp.html" target="_top" xlink:title=" ">
<polygon fill="white" stroke="black" points="402,-168.5 402,-187.5 524,-187.5 524,-168.5 402,-168.5"/>
<text text-anchor="middle" x="463" y="-175.5" font-family="Helvetica,sans-Serif" font-size="10.00">ShaderAlignment.hpp</text>
</a>
</g>
</g>
<!-- Node1&#45;&gt;Node22 -->
<g id="edge33" class="edge">
<title>Node1&#45;&gt;Node22</title>
<path fill="none" stroke="midnightblue" d="M650.31,-445.86C600.28,-432.1 534,-403.26 534,-347 534,-347 534,-347 534,-289 534,-245.13 493.65,-204.89 473.78,-187.74"/>
<polygon fill="midnightblue" stroke="midnightblue" points="649.51,-449.27 660.07,-448.42 651.28,-442.5 649.51,-449.27"/>
</g>
<!-- Node23 -->
<g id="node23" class="node">
<title>Node23</title>
<g id="a_node23"><a xlink:href="_texture_8hpp.html" target="_top" xlink:title=" ">
<polygon fill="white" stroke="black" points="701,-392.5 701,-411.5 775,-411.5 775,-392.5 701,-392.5"/>
<text text-anchor="middle" x="738" y="-399.5" font-family="Helvetica,sans-Serif" font-size="10.00">Texture.hpp</text>
</a>
</g>
</g>
<!-- Node1&#45;&gt;Node23 -->
<g id="edge40" class="edge">
<title>Node1&#45;&gt;Node23</title>
<path fill="none" stroke="midnightblue" d="M715.83,-439.27C721.47,-430.05 728.12,-419.17 732.65,-411.75"/>
<polygon fill="midnightblue" stroke="midnightblue" points="712.68,-437.73 710.45,-448.08 718.65,-441.38 712.68,-437.73"/>
</g>
<!-- Node3 -->
<g id="node3" class="node">
<title>Node3</title>
<g id="a_node3"><a xlink:href="_camera_data_collector_8hpp.html" target="_top" xlink:title=" ">
<polygon fill="white" stroke="black" points="950,-56.5 950,-75.5 1092,-75.5 1092,-56.5 950,-56.5"/>
<text text-anchor="middle" x="1021" y="-63.5" font-family="Helvetica,sans-Serif" font-size="10.00">CameraDataCollector.hpp</text>
</a>
</g>
</g>
<!-- Node2&#45;&gt;Node3 -->
<g id="edge2" class="edge">
<title>Node2&#45;&gt;Node3</title>
<path fill="none" stroke="midnightblue" d="M893.7,-109.17C924.4,-99 967.92,-84.59 995.29,-75.52"/>
<polygon fill="midnightblue" stroke="midnightblue" points="892.22,-105.98 883.83,-112.44 894.42,-112.62 892.22,-105.98"/>
</g>
<!-- Node4 -->
<g id="node4" class="node">
<title>Node4</title>
<g id="a_node4"><a xlink:href="_particle_system_feature_8hpp.html" target="_top" xlink:title=" ">
<polygon fill="white" stroke="black" points="784.5,-56.5 784.5,-75.5 931.5,-75.5 931.5,-56.5 784.5,-56.5"/>
<text text-anchor="middle" x="858" y="-63.5" font-family="Helvetica,sans-Serif" font-size="10.00">ParticleSystemFeature.hpp</text>
</a>
</g>
</g>
<!-- Node2&#45;&gt;Node4 -->
<g id="edge3" class="edge">
<title>Node2&#45;&gt;Node4</title>
<path fill="none" stroke="midnightblue" d="M858,-101.8C858,-92.91 858,-82.78 858,-75.75"/>
<polygon fill="midnightblue" stroke="midnightblue" points="854.5,-102.08 858,-112.08 861.5,-102.08 854.5,-102.08"/>
</g>
<!-- Node6 -->
<g id="node6" class="node">
<title>Node6</title>
<g id="a_node6"><a xlink:href="_device_8hpp.html" target="_top" xlink:title=" ">
<polygon fill="white" stroke="black" points="666.5,-224.5 666.5,-243.5 737.5,-243.5 737.5,-224.5 666.5,-224.5"/>
<text text-anchor="middle" x="702" y="-231.5" font-family="Helvetica,sans-Serif" font-size="10.00">Device.hpp</text>
</a>
</g>
</g>
<!-- Node5&#45;&gt;Node6 -->
<g id="edge5" class="edge">
<title>Node5&#45;&gt;Node6</title>
<path fill="none" stroke="midnightblue" d="M672.42,-326.21C672.5,-313.03 673.59,-295.13 678,-280 681.96,-266.4 690.35,-252.22 696.08,-243.5"/>
<polygon fill="midnightblue" stroke="midnightblue" points="668.92,-326.43 672.55,-336.39 675.92,-326.34 668.92,-326.43"/>
</g>
<!-- Node20 -->
<g id="node20" class="node">
<title>Node20</title>
<g id="a_node20"><a xlink:href="_render_graph_8hpp.html" target="_top" xlink:title=" ">
<polygon fill="white" stroke="black" points="795.5,-280.5 795.5,-299.5 896.5,-299.5 896.5,-280.5 795.5,-280.5"/>
<text text-anchor="middle" x="846" y="-287.5" font-family="Helvetica,sans-Serif" font-size="10.00">RenderGraph.hpp</text>
</a>
</g>
</g>
<!-- Node5&#45;&gt;Node20 -->
<g id="edge29" class="edge">
<title>Node5&#45;&gt;Node20</title>
<path fill="none" stroke="midnightblue" d="M710.05,-333.44C742.66,-323.26 789.41,-308.66 818.72,-299.52"/>
<polygon fill="midnightblue" stroke="midnightblue" points="708.92,-330.12 700.41,-336.44 711,-336.8 708.92,-330.12"/>
</g>
<!-- Node7 -->
<g id="node7" class="node">
<title>Node7</title>
<g id="a_node7"><a xlink:href="_feature_8hpp.html" target="_top" xlink:title=" ">
<polygon fill="white" stroke="black" points="639,-112.5 639,-131.5 713,-131.5 713,-112.5 639,-112.5"/>
<text text-anchor="middle" x="676" y="-119.5" font-family="Helvetica,sans-Serif" font-size="10.00">Feature.hpp</text>
</a>
</g>
</g>
<!-- Node6&#45;&gt;Node7 -->
<g id="edge6" class="edge">
<title>Node6&#45;&gt;Node7</title>
<path fill="none" stroke="midnightblue" d="M724.93,-218.41C741.88,-205.69 760.36,-186.43 750,-168 739.98,-150.18 719.72,-138.59 702.93,-131.64"/>
<polygon fill="midnightblue" stroke="midnightblue" points="722.54,-215.82 716.37,-224.43 726.56,-221.55 722.54,-215.82"/>
</g>
<!-- Node13 -->
<g id="node13" class="node">
<title>Node13</title>
<g id="a_node13"><a xlink:href="_layer_8hpp.html" target="_top" xlink:title=" ">
<polygon fill="white" stroke="black" points="580,-168.5 580,-187.5 644,-187.5 644,-168.5 580,-168.5"/>
<text text-anchor="middle" x="612" y="-175.5" font-family="Helvetica,sans-Serif" font-size="10.00">Layer.hpp</text>
</a>
</g>
</g>
<!-- Node6&#45;&gt;Node13 -->
<g id="edge14" class="edge">
<title>Node6&#45;&gt;Node13</title>
<path fill="none" stroke="midnightblue" d="M678.96,-219.18C662.4,-209.24 640.58,-196.15 626.42,-187.65"/>
<polygon fill="midnightblue" stroke="midnightblue" points="677.16,-222.18 687.54,-224.32 680.77,-216.18 677.16,-222.18"/>
</g>
<!-- Node14 -->
<g id="node14" class="node">
<title>Node14</title>
<g id="a_node14"><a xlink:href="_view_8hpp.html" target="_top" xlink:title=" ">
<polygon fill="white" stroke="black" points="529.5,-112.5 529.5,-131.5 590.5,-131.5 590.5,-112.5 529.5,-112.5"/>
<text text-anchor="middle" x="560" y="-119.5" font-family="Helvetica,sans-Serif" font-size="10.00">View.hpp</text>
</a>
</g>
</g>
<!-- Node6&#45;&gt;Node14 -->
<g id="edge16" class="edge">
<title>Node6&#45;&gt;Node14</title>
<path fill="none" stroke="midnightblue" d="M656.19,-228.97C627.48,-223.97 592.07,-212.82 571,-188 557.37,-171.94 557.65,-145.39 558.89,-131.72"/>
<polygon fill="midnightblue" stroke="midnightblue" points="656,-232.49 666.42,-230.55 657.07,-225.57 656,-232.49"/>
</g>
<!-- Node15 -->
<g id="node15" class="node">
<title>Node15</title>
<g id="a_node15"><a xlink:href="_instance_8hpp.html" target="_top" xlink:title=" ">
<polygon fill="white" stroke="black" points="662.5,-168.5 662.5,-187.5 741.5,-187.5 741.5,-168.5 662.5,-168.5"/>
<text text-anchor="middle" x="702" y="-175.5" font-family="Helvetica,sans-Serif" font-size="10.00">Instance.hpp</text>
</a>
</g>
</g>
<!-- Node6&#45;&gt;Node15 -->
<g id="edge17" class="edge">
<title>Node6&#45;&gt;Node15</title>
<path fill="none" stroke="midnightblue" d="M702,-213.8C702,-204.91 702,-194.78 702,-187.75"/>
<polygon fill="midnightblue" stroke="midnightblue" points="698.5,-214.08 702,-224.08 705.5,-214.08 698.5,-214.08"/>
</g>
<!-- Node16 -->
<g id="node16" class="node">
<title>Node16</title>
<g id="a_node16"><a xlink:href="_mapped_buffer_8hpp.html" target="_top" xlink:title=" ">
<polygon fill="white" stroke="black" points="925.5,-112.5 925.5,-131.5 1030.5,-131.5 1030.5,-112.5 925.5,-112.5"/>
<text text-anchor="middle" x="978" y="-119.5" font-family="Helvetica,sans-Serif" font-size="10.00">MappedBuffer.hpp</text>
</a>
</g>
</g>
<!-- Node6&#45;&gt;Node16 -->
<g id="edge18" class="edge">
<title>Node6&#45;&gt;Node16</title>
<path fill="none" stroke="midnightblue" d="M733.15,-220.59C789.69,-198.05 907.87,-150.95 956.44,-131.59"/>
<polygon fill="midnightblue" stroke="midnightblue" points="731.65,-217.41 723.66,-224.37 734.24,-223.92 731.65,-217.41"/>
</g>
<!-- Node17 -->
<g id="node17" class="node">
<title>Node17</title>
<g id="a_node17"><a xlink:href="_shader_8hpp.html" target="_top" xlink:title=" ">
<polygon fill="white" stroke="black" points="325.5,-112.5 325.5,-131.5 396.5,-131.5 396.5,-112.5 325.5,-112.5"/>
<text text-anchor="middle" x="361" y="-119.5" font-family="Helvetica,sans-Serif" font-size="10.00">Shader.hpp</text>
</a>
</g>
</g>
<!-- Node6&#45;&gt;Node17 -->
<g id="edge21" class="edge">
<title>Node6&#45;&gt;Node17</title>
<path fill="none" stroke="midnightblue" d="M656.22,-231.48C580.65,-228.13 434.08,-217.89 393,-188 374.08,-174.24 365.76,-146.16 362.63,-131.83"/>
<polygon fill="midnightblue" stroke="midnightblue" points="656.25,-234.98 666.39,-231.9 656.54,-227.99 656.25,-234.98"/>
</g>
<!-- Node7&#45;&gt;Node3 -->
<g id="edge8" class="edge">
<title>Node7&#45;&gt;Node3</title>
<path fill="none" stroke="midnightblue" d="M723.4,-113.58C787.01,-103.62 899.73,-85.98 966.69,-75.5"/>
<polygon fill="midnightblue" stroke="midnightblue" points="722.59,-110.17 713.25,-115.17 723.67,-117.08 722.59,-110.17"/>
</g>
<!-- Node7&#45;&gt;Node4 -->
<g id="edge10" class="edge">
<title>Node7&#45;&gt;Node4</title>
<path fill="none" stroke="midnightblue" d="M714.53,-109.57C748.86,-99.38 798.33,-84.7 829.3,-75.52"/>
<polygon fill="midnightblue" stroke="midnightblue" points="713.43,-106.24 704.84,-112.44 715.42,-112.95 713.43,-106.24"/>
</g>
<!-- Node8 -->
<g id="node8" class="node">
<title>Node8</title>
<g id="a_node8"><a xlink:href="_bloom_feature_8hpp.html" target="_top" xlink:title=" ">
<polygon fill="white" stroke="black" points="561,-56.5 561,-75.5 667,-75.5 667,-56.5 561,-56.5"/>
<text text-anchor="middle" x="614" y="-63.5" font-family="Helvetica,sans-Serif" font-size="10.00">BloomFeature.hpp</text>
</a>
</g>
</g>
<!-- Node7&#45;&gt;Node8 -->
<g id="edge7" class="edge">
<title>Node7&#45;&gt;Node8</title>
<path fill="none" stroke="midnightblue" d="M658.25,-105.54C647.19,-95.91 633.37,-83.87 624.14,-75.83"/>
<polygon fill="midnightblue" stroke="midnightblue" points="656.2,-108.4 666.04,-112.32 660.8,-103.12 656.2,-108.4"/>
</g>
<!-- Node9 -->
<g id="node9" class="node">
<title>Node9</title>
<g id="a_node9"><a xlink:href="_forward_render_feature_8hpp.html" target="_top" xlink:title=" ">
<polygon fill="white" stroke="black" points="111,-56.5 111,-75.5 259,-75.5 259,-56.5 111,-56.5"/>
<text text-anchor="middle" x="185" y="-63.5" font-family="Helvetica,sans-Serif" font-size="10.00">ForwardRenderFeature.hpp</text>
</a>
</g>
</g>
<!-- Node7&#45;&gt;Node9 -->
<g id="edge9" class="edge">
<title>Node7&#45;&gt;Node9</title>
<path fill="none" stroke="midnightblue" d="M628.77,-115.42C618.93,-114.27 608.63,-113.09 599,-112 582.39,-110.13 373.58,-87.46 259.04,-75.03"/>
<polygon fill="midnightblue" stroke="midnightblue" points="628.46,-118.91 638.8,-116.59 629.27,-111.95 628.46,-118.91"/>
</g>
<!-- Node10 -->
<g id="node10" class="node">
<title>Node10</title>
<g id="a_node10"><a xlink:href="_static_mesh_feature_8hpp.html" target="_top" xlink:title=" ">
<polygon fill="white" stroke="black" points="277,-56.5 277,-75.5 405,-75.5 405,-56.5 277,-56.5"/>
<text text-anchor="middle" x="341" y="-63.5" font-family="Helvetica,sans-Serif" font-size="10.00">StaticMeshFeature.hpp</text>
</a>
</g>
</g>
<!-- Node7&#45;&gt;Node10 -->
<g id="edge11" class="edge">
<title>Node7&#45;&gt;Node10</title>
<path fill="none" stroke="midnightblue" d="M628.99,-113.42C567.12,-103.45 458.68,-85.97 393.98,-75.54"/>
<polygon fill="midnightblue" stroke="midnightblue" points="628.44,-116.88 638.87,-115.01 629.55,-109.97 628.44,-116.88"/>
</g>
<!-- Node11 -->
<g id="node11" class="node">
<title>Node11</title>
<g id="a_node11"><a xlink:href="_tonemap_feature_8hpp.html" target="_top" xlink:title=" ">
<polygon fill="white" stroke="black" points="423.5,-56.5 423.5,-75.5 542.5,-75.5 542.5,-56.5 423.5,-56.5"/>
<text text-anchor="middle" x="483" y="-63.5" font-family="Helvetica,sans-Serif" font-size="10.00">TonemapFeature.hpp</text>
</a>
</g>
</g>
<!-- Node7&#45;&gt;Node11 -->
<g id="edge12" class="edge">
<title>Node7&#45;&gt;Node11</title>
<path fill="none" stroke="midnightblue" d="M635.61,-109.7C599.18,-99.51 546.41,-84.74 513.44,-75.52"/>
<polygon fill="midnightblue" stroke="midnightblue" points="634.85,-113.12 645.42,-112.44 636.73,-106.38 634.85,-113.12"/>
</g>
<!-- Node12 -->
<g id="node12" class="node">
<title>Node12</title>
<g id="a_node12"><a xlink:href="_renderer_8hpp.html" target="_top" xlink:title=" ">
<polygon fill="white" stroke="black" points="685.5,-56.5 685.5,-75.5 766.5,-75.5 766.5,-56.5 685.5,-56.5"/>
<text text-anchor="middle" x="726" y="-63.5" font-family="Helvetica,sans-Serif" font-size="10.00">Renderer.hpp</text>
</a>
</g>
</g>
<!-- Node7&#45;&gt;Node12 -->
<g id="edge13" class="edge">
<title>Node7&#45;&gt;Node12</title>
<path fill="none" stroke="midnightblue" d="M691.08,-104.72C699.89,-95.2 710.67,-83.56 717.9,-75.75"/>
<polygon fill="midnightblue" stroke="midnightblue" points="688.48,-102.37 684.26,-112.08 693.62,-107.12 688.48,-102.37"/>
</g>
<!-- Node13&#45;&gt;Node7 -->
<g id="edge15" class="edge">
<title>Node13&#45;&gt;Node7</title>
<path fill="none" stroke="midnightblue" d="M629.99,-161.82C641.46,-152.15 655.91,-139.95 665.53,-131.83"/>
<polygon fill="midnightblue" stroke="midnightblue" points="627.67,-159.2 622.28,-168.32 632.18,-164.55 627.67,-159.2"/>
</g>
<!-- Node16&#45;&gt;Node3 -->
<g id="edge19" class="edge">
<title>Node16&#45;&gt;Node3</title>
<path fill="none" stroke="midnightblue" d="M991.42,-104.14C998.91,-94.74 1007.94,-83.4 1014.03,-75.75"/>
<polygon fill="midnightblue" stroke="midnightblue" points="988.59,-102.08 985.1,-112.08 994.07,-106.44 988.59,-102.08"/>
</g>
<!-- Node16&#45;&gt;Node4 -->
<g id="edge20" class="edge">
<title>Node16&#45;&gt;Node4</title>
<path fill="none" stroke="midnightblue" d="M949.63,-108.23C927.18,-98.13 896.46,-84.31 876.93,-75.52"/>
<polygon fill="midnightblue" stroke="midnightblue" points="948.43,-111.53 958.99,-112.44 951.3,-105.15 948.43,-111.53"/>
</g>
<!-- Node17&#45;&gt;Node4 -->
<g id="edge24" class="edge">
<title>Node17&#45;&gt;Node4</title>
<path fill="none" stroke="midnightblue" d="M406.76,-116.06C483.23,-107.79 641.83,-90.64 776,-76 778.71,-75.7 781.46,-75.4 784.24,-75.1"/>
<polygon fill="midnightblue" stroke="midnightblue" points="406.1,-112.61 396.53,-117.16 406.85,-119.57 406.1,-112.61"/>
</g>
<!-- Node17&#45;&gt;Node8 -->
<g id="edge22" class="edge">
<title>Node17&#45;&gt;Node8</title>
<path fill="none" stroke="midnightblue" d="M406.76,-111.23C454.44,-101.06 528.41,-85.27 573.88,-75.56"/>
<polygon fill="midnightblue" stroke="midnightblue" points="405.76,-107.87 396.71,-113.38 407.22,-114.71 405.76,-107.87"/>
</g>
<!-- Node17&#45;&gt;Node9 -->
<g id="edge23" class="edge">
<title>Node17&#45;&gt;Node9</title>
<path fill="none" stroke="midnightblue" d="M323.31,-109.44C290.13,-99.26 242.57,-84.66 212.76,-75.52"/>
<polygon fill="midnightblue" stroke="midnightblue" points="322.53,-112.86 333.11,-112.44 324.58,-106.16 322.53,-112.86"/>
</g>
<!-- Node17&#45;&gt;Node10 -->
<g id="edge25" class="edge">
<title>Node17&#45;&gt;Node10</title>
<path fill="none" stroke="midnightblue" d="M354.22,-102.69C350.85,-93.59 346.93,-83.01 344.24,-75.75"/>
<polygon fill="midnightblue" stroke="midnightblue" points="350.94,-103.92 357.7,-112.08 357.51,-101.49 350.94,-103.92"/>
</g>
<!-- Node17&#45;&gt;Node11 -->
<g id="edge26" class="edge">
<title>Node17&#45;&gt;Node11</title>
<path fill="none" stroke="midnightblue" d="M389.54,-108.37C412.39,-98.26 443.81,-84.35 463.76,-75.52"/>
<polygon fill="midnightblue" stroke="midnightblue" points="388.06,-105.2 380.33,-112.44 390.89,-111.6 388.06,-105.2"/>
</g>
<!-- Node18 -->
<g id="node18" class="node">
<title>Node18</title>
<g id="a_node18"><a xlink:href="_compiler_8hpp.html" target="_top" xlink:title=" ">
<polygon fill="white" stroke="black" points="11.5,-56.5 11.5,-75.5 92.5,-75.5 92.5,-56.5 11.5,-56.5"/>
<text text-anchor="middle" x="52" y="-63.5" font-family="Helvetica,sans-Serif" font-size="10.00">Compiler.hpp</text>
</a>
</g>
</g>
<!-- Node17&#45;&gt;Node18 -->
<g id="edge27" class="edge">
<title>Node17&#45;&gt;Node18</title>
<path fill="none" stroke="midnightblue" d="M315.52,-113.18C263.78,-104.27 176.79,-89.23 102,-76 98.96,-75.46 95.82,-74.9 92.66,-74.34"/>
<polygon fill="midnightblue" stroke="midnightblue" points="314.93,-116.63 325.38,-114.88 316.12,-109.74 314.93,-116.63"/>
</g>
<!-- Node19 -->
<g id="node19" class="node">
<title>Node19</title>
<g id="a_node19"><a xlink:href="_shader_loader_8hpp.html" target="_top" xlink:title=" ">
<polygon fill="white" stroke="black" points="0,-0.5 0,-19.5 104,-19.5 104,-0.5 0,-0.5"/>
<text text-anchor="middle" x="52" y="-7.5" font-family="Helvetica,sans-Serif" font-size="10.00">ShaderLoader.hpp</text>
</a>
</g>
</g>
<!-- Node18&#45;&gt;Node19 -->
<g id="edge28" class="edge">
<title>Node18&#45;&gt;Node19</title>
<path fill="none" stroke="midnightblue" d="M52,-45.8C52,-36.91 52,-26.78 52,-19.75"/>
<polygon fill="midnightblue" stroke="midnightblue" points="48.5,-46.08 52,-56.08 55.5,-46.08 48.5,-46.08"/>
</g>
<!-- Node20&#45;&gt;Node6 -->
<g id="edge32" class="edge">
<title>Node20&#45;&gt;Node6</title>
<path fill="none" stroke="midnightblue" d="M813.75,-276.91C786.68,-266.75 748.68,-252.51 724.71,-243.52"/>
<polygon fill="midnightblue" stroke="midnightblue" points="812.59,-280.21 823.18,-280.44 815.05,-273.66 812.59,-280.21"/>
</g>
<!-- Node20&#45;&gt;Node7 -->
<g id="edge31" class="edge">
<title>Node20&#45;&gt;Node7</title>
<path fill="none" stroke="midnightblue" d="M837.68,-271.01C825.07,-245.36 798.94,-198.04 765,-168 746.07,-151.25 719.78,-138.97 700.69,-131.51"/>
<polygon fill="midnightblue" stroke="midnightblue" points="834.64,-272.77 842.11,-280.28 840.96,-269.75 834.64,-272.77"/>
</g>
<!-- Node21 -->
<g id="node21" class="node">
<title>Node21</title>
<g id="a_node21"><a xlink:href="_output_texture_8hpp.html" target="_top" xlink:title=" ">
<polygon fill="white" stroke="black" points="874.5,-224.5 874.5,-243.5 981.5,-243.5 981.5,-224.5 874.5,-224.5"/>
<text text-anchor="middle" x="928" y="-231.5" font-family="Helvetica,sans-Serif" font-size="10.00">OutputTexture.hpp</text>
</a>
</g>
</g>
<!-- Node20&#45;&gt;Node21 -->
<g id="edge30" class="edge">
<title>Node20&#45;&gt;Node21</title>
<path fill="none" stroke="midnightblue" d="M867.83,-274.62C882.81,-264.76 902.2,-251.99 914.86,-243.65"/>
<polygon fill="midnightblue" stroke="midnightblue" points="865.6,-271.9 859.17,-280.32 869.45,-277.75 865.6,-271.9"/>
</g>
<!-- Node22&#45;&gt;Node2 -->
<g id="edge35" class="edge">
<title>Node22&#45;&gt;Node2</title>
<path fill="none" stroke="midnightblue" d="M534.67,-167.2C613.9,-156.37 739.43,-139.21 808.45,-129.77"/>
<polygon fill="midnightblue" stroke="midnightblue" points="533.72,-163.8 524.29,-168.62 534.67,-170.73 533.72,-163.8"/>
</g>
<!-- Node22&#45;&gt;Node8 -->
<g id="edge34" class="edge">
<title>Node22&#45;&gt;Node8</title>
<path fill="none" stroke="midnightblue" d="M474.8,-160.06C485.37,-145.83 501.95,-125.69 520,-112 541.34,-95.82 569.42,-83.31 589.32,-75.63"/>
<polygon fill="midnightblue" stroke="midnightblue" points="471.78,-158.27 468.77,-168.43 477.45,-162.36 471.78,-158.27"/>
</g>
<!-- Node22&#45;&gt;Node9 -->
<g id="edge36" class="edge">
<title>Node22&#45;&gt;Node9</title>
<path fill="none" stroke="midnightblue" d="M419.46,-165.69C389.86,-157.51 350.05,-145.55 316,-132 272.83,-114.82 224.44,-88.99 200.35,-75.65"/>
<polygon fill="midnightblue" stroke="midnightblue" points="418.91,-169.17 429.48,-168.42 420.75,-162.41 418.91,-169.17"/>
</g>
<!-- Node22&#45;&gt;Node10 -->
<g id="edge37" class="edge">
<title>Node22&#45;&gt;Node10</title>
<path fill="none" stroke="midnightblue" d="M449.96,-160.36C438.78,-146.63 421.86,-127.02 405,-112 389.07,-97.82 368.61,-84.11 355.17,-75.62"/>
<polygon fill="midnightblue" stroke="midnightblue" points="447.44,-162.81 456.42,-168.43 452.9,-158.44 447.44,-162.81"/>
</g>
<!-- Node22&#45;&gt;Node11 -->
<g id="edge38" class="edge">
<title>Node22&#45;&gt;Node11</title>
<path fill="none" stroke="midnightblue" d="M466.39,-158.35C470.77,-134.25 478.22,-93.31 481.44,-75.59"/>
<polygon fill="midnightblue" stroke="midnightblue" points="462.91,-157.9 464.57,-168.37 469.8,-159.16 462.91,-157.9"/>
</g>
<!-- Node22&#45;&gt;Node14 -->
<g id="edge39" class="edge">
<title>Node22&#45;&gt;Node14</title>
<path fill="none" stroke="midnightblue" d="M487.34,-163.45C505.24,-153.48 529.05,-140.23 544.45,-131.65"/>
<polygon fill="midnightblue" stroke="midnightblue" points="485.62,-160.4 478.58,-168.32 489.02,-166.52 485.62,-160.4"/>
</g>
<!-- Node24 -->
<g id="node24" class="node">
<title>Node24</title>
<g id="a_node24"><a xlink:href="_dependent_texture_info_8hpp.html" target="_top" xlink:title=" ">
<polygon fill="white" stroke="black" points="767,-336.5 767,-355.5 913,-355.5 913,-336.5 767,-336.5"/>
<text text-anchor="middle" x="840" y="-343.5" font-family="Helvetica,sans-Serif" font-size="10.00">DependentTextureInfo.hpp</text>
</a>
</g>
</g>
<!-- Node23&#45;&gt;Node24 -->
<g id="edge41" class="edge">
<title>Node23&#45;&gt;Node24</title>
<path fill="none" stroke="midnightblue" d="M763.33,-387.59C782.19,-377.61 807.38,-364.27 823.65,-355.65"/>
<polygon fill="midnightblue" stroke="midnightblue" points="761.59,-384.55 754.39,-392.32 764.86,-390.74 761.59,-384.55"/>
</g>
<!-- Node25 -->
<g id="node25" class="node">
<title>Node25</title>
<g id="a_node25"><a xlink:href="_swapchain_8hpp.html" target="_top" xlink:title=" ">
<polygon fill="white" stroke="black" points="687,-280.5 687,-299.5 777,-299.5 777,-280.5 687,-280.5"/>
<text text-anchor="middle" x="732" y="-287.5" font-family="Helvetica,sans-Serif" font-size="10.00">Swapchain.hpp</text>
</a>
</g>
</g>
<!-- Node23&#45;&gt;Node25 -->
<g id="edge43" class="edge">
<title>Node23&#45;&gt;Node25</title>
<path fill="none" stroke="midnightblue" d="M736.98,-382.35C735.67,-358.25 733.43,-317.31 732.47,-299.59"/>
<polygon fill="midnightblue" stroke="midnightblue" points="733.49,-382.57 737.53,-392.37 740.48,-382.19 733.49,-382.57"/>
</g>
<!-- Node24&#45;&gt;Node20 -->
<g id="edge42" class="edge">
<title>Node24&#45;&gt;Node20</title>
<path fill="none" stroke="midnightblue" d="M842.1,-326.1C843.1,-317.14 844.24,-306.86 845.03,-299.75"/>
<polygon fill="midnightblue" stroke="midnightblue" points="838.62,-325.76 840.99,-336.08 845.57,-326.53 838.62,-325.76"/>
</g>
<!-- Node25&#45;&gt;Node6 -->
<g id="edge44" class="edge">
<title>Node25&#45;&gt;Node6</title>
<path fill="none" stroke="midnightblue" d="M722.15,-271.27C717.03,-262.05 710.98,-251.17 706.86,-243.75"/>
<polygon fill="midnightblue" stroke="midnightblue" points="719.13,-273.04 727.05,-280.08 725.25,-269.64 719.13,-273.04"/>
</g>
</g>
</svg>
