<?xml version="1.0" encoding="UTF-8" standalone="no"?>
<!DOCTYPE svg PUBLIC "-//W3C//DTD SVG 1.1//EN"
 "http://www.w3.org/Graphics/SVG/1.1/DTD/svg11.dtd">
<!-- Generated by graphviz version 2.43.0 (0)
 -->
<!-- Title: Device.hpp Pages: 1 -->
<!--zoomable 364 -->
<svg id="main" version="1.1" xmlns="http://www.w3.org/2000/svg" xmlns:xlink="http://www.w3.org/1999/xlink" xml:space="preserve" onload="init(evt)">
<style type="text/css"><![CDATA[
.edge:hover path { stroke: red; }
.edge:hover polygon { stroke: red; fill: red; }
]]></style>
<script type="text/javascript"><![CDATA[
var edges = document.getElementsByTagName('g');
if (edges && edges.length) {
  for (var i=0;i<edges.length;i++) {
    if (edges[i].id.substr(0,4)=='edge') {
      edges[i].setAttribute('class','edge');
    }
  }
}
]]></script>
        <defs>
                <circle id="rim" cx="0" cy="0" r="7"/>
                <circle id="rim2" cx="0" cy="0" r="3.5"/>
                <g id="zoomPlus">
                        <use xlink:href="#rim" fill="#404040">
                                <set attributeName="fill" to="#808080" begin="zoomplus.mouseover" end="zoomplus.mouseout"/>
                        </use>
                        <path d="M-4,0h8M0,-4v8" fill="none" stroke="white" stroke-width="1.5" pointer-events="none"/>
                </g>
                <g id="zoomMin">
                        <use xlink:href="#rim" fill="#404040">
                                <set attributeName="fill" to="#808080" begin="zoomminus.mouseover" end="zoomminus.mouseout"/>
                        </use>
                        <path d="M-4,0h8" fill="none" stroke="white" stroke-width="1.5" pointer-events="none"/>
                </g>
                <g id="dirArrow">
                        <path fill="none" stroke="white" stroke-width="1.5" d="M0,-3.0v7 M-2.5,-0.5L0,-3.0L2.5,-0.5"/>
                </g>
               <g id="resetDef">
                       <use xlink:href="#rim2" fill="#404040">
                               <set attributeName="fill" to="#808080" begin="reset.mouseover" end="reset.mouseout"/>
                       </use>
               </g>
        </defs>

<script type="text/javascript">
var viewWidth = 1954;
var viewHeight = 364;
var sectionId = 'dynsection-0';
</script>
<script xlink:href="svgpan.js"/>
<svg id="graph" class="graph">
<g id="viewport">
<title>Device.hpp</title>
<polygon fill="white" stroke="transparent" points="-4,4 -4,-360 1949.58,-360 1949.58,4 -4,4"/>
<!-- Node1 -->
<g id="node1" class="node">
<title>Node1</title>
<g id="a_node1"><a xlink:title=" ">
<polygon fill="#bfbfbf" stroke="black" points="1393.69,-336.5 1393.69,-355.5 1464.69,-355.5 1464.69,-336.5 1393.69,-336.5"/>
<text text-anchor="middle" x="1429.19" y="-343.5" font-family="Helvetica,sans-Serif" font-size="10.00">Device.hpp</text>
</a>
</g>
</g>
<!-- Node2 -->
<g id="node2" class="node">
<title>Node2</title>
<g id="a_node2"><a xlink:href="_buffer_8hpp.html" target="_top" xlink:title=" ">
<polygon fill="white" stroke="black" points="17.19,-168.5 17.19,-187.5 167.19,-187.5 167.19,-168.5 17.19,-168.5"/>
<text text-anchor="middle" x="92.19" y="-175.5" font-family="Helvetica,sans-Serif" font-size="10.00">Liger&#45;Engine/RHI/Buffer.hpp</text>
</a>
</g>
</g>
<!-- Node1&#45;&gt;Node2 -->
<g id="edge1" class="edge">
<title>Node1&#45;&gt;Node2</title>
<path fill="none" stroke="midnightblue" d="M1393.54,-345.19C1188.34,-345.95 163.67,-344.62 72.19,-244 60.21,-230.81 69.31,-210.58 78.8,-196.19"/>
<polygon fill="midnightblue" stroke="midnightblue" points="81.89,-197.89 84.87,-187.72 76.2,-193.81 81.89,-197.89"/>
</g>
<!-- Node9 -->
<g id="node9" class="node">
<title>Node9</title>
<g id="a_node9"><a xlink:title=" ">
<polygon fill="white" stroke="#bfbfbf" points="293.19,-112.5 293.19,-131.5 337.19,-131.5 337.19,-112.5 293.19,-112.5"/>
<text text-anchor="middle" x="315.19" y="-119.5" font-family="Helvetica,sans-Serif" font-size="10.00">string</text>
</a>
</g>
</g>
<!-- Node1&#45;&gt;Node9 -->
<g id="edge57" class="edge">
<title>Node1&#45;&gt;Node9</title>
<path fill="none" stroke="midnightblue" d="M1393.56,-344.76C1200.22,-343.34 281.44,-334.8 160.19,-300 112.35,-286.27 102.55,-274.48 63.19,-244 30.23,-218.47 -19.07,-199.55 8.19,-168 43.45,-127.2 211.35,-122.69 282.84,-122.67"/>
<polygon fill="midnightblue" stroke="midnightblue" points="283.05,-126.17 293.06,-122.69 283.07,-119.17 283.05,-126.17"/>
</g>
<!-- Node10 -->
<g id="node10" class="node">
<title>Node10</title>
<g id="a_node10"><a xlink:href="_compute_pipeline_8hpp.html" target="_top" xlink:title=" ">
<polygon fill="white" stroke="black" points="1495.69,-224.5 1495.69,-243.5 1700.69,-243.5 1700.69,-224.5 1495.69,-224.5"/>
<text text-anchor="middle" x="1598.19" y="-231.5" font-family="Helvetica,sans-Serif" font-size="10.00">Liger&#45;Engine/RHI/ComputePipeline.hpp</text>
</a>
</g>
</g>
<!-- Node1&#45;&gt;Node10 -->
<g id="edge9" class="edge">
<title>Node1&#45;&gt;Node10</title>
<path fill="none" stroke="midnightblue" d="M1452.29,-336.38C1472.37,-328.38 1501.84,-315.4 1525.19,-300 1546.75,-285.79 1568.47,-265.51 1582.54,-251.4"/>
<polygon fill="midnightblue" stroke="midnightblue" points="1585.39,-253.49 1589.88,-243.89 1580.39,-248.59 1585.39,-253.49"/>
</g>
<!-- Node12 -->
<g id="node12" class="node">
<title>Node12</title>
<g id="a_node12"><a xlink:href="_shader_module_8hpp.html" target="_top" xlink:title=" ">
<polygon fill="white" stroke="black" points="1495.69,-112.5 1495.69,-131.5 1686.69,-131.5 1686.69,-112.5 1495.69,-112.5"/>
<text text-anchor="middle" x="1591.19" y="-119.5" font-family="Helvetica,sans-Serif" font-size="10.00">Liger&#45;Engine/RHI/ShaderModule.hpp</text>
</a>
</g>
</g>
<!-- Node1&#45;&gt;Node12 -->
<g id="edge51" class="edge">
<title>Node1&#45;&gt;Node12</title>
<path fill="none" stroke="midnightblue" d="M1464.7,-343.45C1569,-338.08 1870.9,-316.44 1930.19,-244 1998.58,-160.45 1820.26,-134.56 1697.08,-126.56"/>
<polygon fill="midnightblue" stroke="midnightblue" points="1697.03,-123.05 1686.83,-125.93 1696.6,-130.04 1697.03,-123.05"/>
</g>
<!-- Node14 -->
<g id="node14" class="node">
<title>Node14</title>
<g id="a_node14"><a xlink:href="_graphics_pipeline_8hpp.html" target="_top" xlink:title=" ">
<polygon fill="white" stroke="black" points="1718.69,-224.5 1718.69,-243.5 1921.69,-243.5 1921.69,-224.5 1718.69,-224.5"/>
<text text-anchor="middle" x="1820.19" y="-231.5" font-family="Helvetica,sans-Serif" font-size="10.00">Liger&#45;Engine/RHI/GraphicsPipeline.hpp</text>
</a>
</g>
</g>
<!-- Node1&#45;&gt;Node14 -->
<g id="edge16" class="edge">
<title>Node1&#45;&gt;Node14</title>
<path fill="none" stroke="midnightblue" d="M1459.55,-336.46C1529.35,-316.82 1701.29,-268.45 1779.86,-246.35"/>
<polygon fill="midnightblue" stroke="midnightblue" points="1781.18,-249.61 1789.86,-243.53 1779.28,-242.87 1781.18,-249.61"/>
</g>
<!-- Node17 -->
<g id="node17" class="node">
<title>Node17</title>
<g id="a_node17"><a xlink:href="_render_graph_8hpp.html" target="_top" xlink:title=" ">
<polygon fill="white" stroke="black" points="668.69,-280.5 668.69,-299.5 853.69,-299.5 853.69,-280.5 668.69,-280.5"/>
<text text-anchor="middle" x="761.19" y="-287.5" font-family="Helvetica,sans-Serif" font-size="10.00">Liger&#45;Engine/RHI/RenderGraph.hpp</text>
</a>
</g>
</g>
<!-- Node1&#45;&gt;Node17 -->
<g id="edge21" class="edge">
<title>Node1&#45;&gt;Node17</title>
<path fill="none" stroke="midnightblue" d="M1393.28,-342.1C1294.6,-334.12 1016.57,-311.64 864.21,-299.33"/>
<polygon fill="midnightblue" stroke="midnightblue" points="864.16,-295.81 853.91,-298.5 863.6,-302.79 864.16,-295.81"/>
</g>
<!-- Node32 -->
<g id="node32" class="node">
<title>Node32</title>
<g id="a_node32"><a xlink:href="_swapchain_8hpp.html" target="_top" xlink:title=" ">
<polygon fill="white" stroke="black" points="1342.19,-280.5 1342.19,-299.5 1516.19,-299.5 1516.19,-280.5 1342.19,-280.5"/>
<text text-anchor="middle" x="1429.19" y="-287.5" font-family="Helvetica,sans-Serif" font-size="10.00">Liger&#45;Engine/RHI/Swapchain.hpp</text>
</a>
</g>
</g>
<!-- Node1&#45;&gt;Node32 -->
<g id="edge52" class="edge">
<title>Node1&#45;&gt;Node32</title>
<path fill="none" stroke="midnightblue" d="M1429.19,-336.08C1429.19,-329.01 1429.19,-318.86 1429.19,-309.99"/>
<polygon fill="midnightblue" stroke="midnightblue" points="1432.69,-309.75 1429.19,-299.75 1425.69,-309.75 1432.69,-309.75"/>
</g>
<!-- Node3 -->
<g id="node3" class="node">
<title>Node3</title>
<g id="a_node3"><a xlink:href="_descriptor_binding_8hpp.html" target="_top" xlink:title=" ">
<polygon fill="white" stroke="black" points="355.69,-112.5 355.69,-131.5 564.69,-131.5 564.69,-112.5 355.69,-112.5"/>
<text text-anchor="middle" x="460.19" y="-119.5" font-family="Helvetica,sans-Serif" font-size="10.00">Liger&#45;Engine/RHI/DescriptorBinding.hpp</text>
</a>
</g>
</g>
<!-- Node2&#45;&gt;Node3 -->
<g id="edge2" class="edge">
<title>Node2&#45;&gt;Node3</title>
<path fill="none" stroke="midnightblue" d="M150.5,-168.44C216.18,-158.81 322.78,-143.16 392.19,-132.98"/>
<polygon fill="midnightblue" stroke="midnightblue" points="392.77,-136.43 402.16,-131.52 391.75,-129.51 392.77,-136.43"/>
</g>
<!-- Node5 -->
<g id="node5" class="node">
<title>Node5</title>
<g id="a_node5"><a xlink:href="_device_resource_state_8hpp.html" target="_top" xlink:title=" ">
<polygon fill="white" stroke="black" points="583.19,-112.5 583.19,-131.5 809.19,-131.5 809.19,-112.5 583.19,-112.5"/>
<text text-anchor="middle" x="696.19" y="-119.5" font-family="Helvetica,sans-Serif" font-size="10.00">Liger&#45;Engine/RHI/DeviceResourceState.hpp</text>
</a>
</g>
</g>
<!-- Node2&#45;&gt;Node5 -->
<g id="edge4" class="edge">
<title>Node2&#45;&gt;Node5</title>
<path fill="none" stroke="midnightblue" d="M167.29,-168.88C170.3,-168.58 173.27,-168.28 176.19,-168 315.12,-154.55 475.12,-140.99 580.54,-132.33"/>
<polygon fill="midnightblue" stroke="midnightblue" points="580.89,-135.81 590.57,-131.51 580.31,-128.83 580.89,-135.81"/>
</g>
<!-- Node2&#45;&gt;Node9 -->
<g id="edge8" class="edge">
<title>Node2&#45;&gt;Node9</title>
<path fill="none" stroke="midnightblue" d="M127.53,-168.44C170.33,-158.08 241.8,-140.77 283.09,-130.77"/>
<polygon fill="midnightblue" stroke="midnightblue" points="284,-134.15 292.9,-128.4 282.36,-127.35 284,-134.15"/>
</g>
<!-- Node4 -->
<g id="node4" class="node">
<title>Node4</title>
<g id="a_node4"><a xlink:title=" ">
<polygon fill="white" stroke="#bfbfbf" points="977.19,-0.5 977.19,-19.5 1027.19,-19.5 1027.19,-0.5 977.19,-0.5"/>
<text text-anchor="middle" x="1002.19" y="-7.5" font-family="Helvetica,sans-Serif" font-size="10.00">cstdint</text>
</a>
</g>
</g>
<!-- Node3&#45;&gt;Node4 -->
<g id="edge3" class="edge">
<title>Node3&#45;&gt;Node4</title>
<path fill="none" stroke="midnightblue" d="M502.27,-112.46C605.72,-91.47 870.98,-37.63 966.91,-18.16"/>
<polygon fill="midnightblue" stroke="midnightblue" points="967.86,-21.54 976.96,-16.12 966.47,-14.68 967.86,-21.54"/>
</g>
<!-- Node6 -->
<g id="node6" class="node">
<title>Node6</title>
<g id="a_node6"><a xlink:href="_enum_bitmask_8hpp.html" target="_top" xlink:title=" ">
<polygon fill="white" stroke="black" points="1218.69,-56.5 1218.69,-75.5 1413.69,-75.5 1413.69,-56.5 1218.69,-56.5"/>
<text text-anchor="middle" x="1316.19" y="-63.5" font-family="Helvetica,sans-Serif" font-size="10.00">Liger&#45;Engine/Core/EnumBitmask.hpp</text>
</a>
</g>
</g>
<!-- Node5&#45;&gt;Node6 -->
<g id="edge5" class="edge">
<title>Node5&#45;&gt;Node6</title>
<path fill="none" stroke="midnightblue" d="M794.09,-112.47C906.91,-102.65 1091.73,-86.55 1208.52,-76.38"/>
<polygon fill="midnightblue" stroke="midnightblue" points="1208.9,-79.86 1218.55,-75.5 1208.29,-72.89 1208.9,-79.86"/>
</g>
<!-- Node7 -->
<g id="node7" class="node">
<title>Node7</title>
<g id="a_node7"><a xlink:title=" ">
<polygon fill="white" stroke="#bfbfbf" points="1222.69,-0.5 1222.69,-19.5 1291.69,-19.5 1291.69,-0.5 1222.69,-0.5"/>
<text text-anchor="middle" x="1257.19" y="-7.5" font-family="Helvetica,sans-Serif" font-size="10.00">type_traits</text>
</a>
</g>
</g>
<!-- Node6&#45;&gt;Node7 -->
<g id="edge6" class="edge">
<title>Node6&#45;&gt;Node7</title>
<path fill="none" stroke="midnightblue" d="M1306.71,-56.32C1297.99,-48.34 1284.85,-36.31 1274.3,-26.65"/>
<polygon fill="midnightblue" stroke="midnightblue" points="1276.59,-24 1266.85,-19.83 1271.86,-29.17 1276.59,-24"/>
</g>
<!-- Node8 -->
<g id="node8" class="node">
<title>Node8</title>
<g id="a_node8"><a xlink:title=" ">
<polygon fill="white" stroke="#bfbfbf" points="1309.69,-0.5 1309.69,-19.5 1438.69,-19.5 1438.69,-0.5 1309.69,-0.5"/>
<text text-anchor="middle" x="1374.19" y="-7.5" font-family="Helvetica,sans-Serif" font-size="10.00">magic_enum_flags.hpp</text>
</a>
</g>
</g>
<!-- Node6&#45;&gt;Node8 -->
<g id="edge7" class="edge">
<title>Node6&#45;&gt;Node8</title>
<path fill="none" stroke="midnightblue" d="M1325.51,-56.32C1334.09,-48.34 1347.01,-36.31 1357.38,-26.65"/>
<polygon fill="midnightblue" stroke="midnightblue" points="1359.77,-29.21 1364.71,-19.83 1355,-24.09 1359.77,-29.21"/>
</g>
<!-- Node10&#45;&gt;Node9 -->
<g id="edge15" class="edge">
<title>Node10&#45;&gt;Node9</title>
<path fill="none" stroke="midnightblue" d="M1524.96,-224.45C1406.87,-210.91 1167,-184.37 963.19,-168 692.73,-146.28 618.7,-177.8 347.55,-131.84"/>
<polygon fill="midnightblue" stroke="midnightblue" points="347.85,-128.34 337.41,-130.1 346.67,-135.24 347.85,-128.34"/>
</g>
<!-- Node11 -->
<g id="node11" class="node">
<title>Node11</title>
<g id="a_node11"><a xlink:href="_push_constant_info_8hpp.html" target="_top" xlink:title=" ">
<polygon fill="white" stroke="black" points="1495.69,-168.5 1495.69,-187.5 1702.69,-187.5 1702.69,-168.5 1495.69,-168.5"/>
<text text-anchor="middle" x="1599.19" y="-175.5" font-family="Helvetica,sans-Serif" font-size="10.00">Liger&#45;Engine/RHI/PushConstantInfo.hpp</text>
</a>
</g>
</g>
<!-- Node10&#45;&gt;Node11 -->
<g id="edge10" class="edge">
<title>Node10&#45;&gt;Node11</title>
<path fill="none" stroke="midnightblue" d="M1598.36,-224.08C1598.49,-217.01 1598.68,-206.86 1598.84,-197.99"/>
<polygon fill="midnightblue" stroke="midnightblue" points="1602.35,-197.81 1599.03,-187.75 1595.35,-197.68 1602.35,-197.81"/>
</g>
<!-- Node11&#45;&gt;Node12 -->
<g id="edge11" class="edge">
<title>Node11&#45;&gt;Node12</title>
<path fill="none" stroke="midnightblue" d="M1597.87,-168.08C1596.81,-160.93 1595.29,-150.64 1593.96,-141.69"/>
<polygon fill="midnightblue" stroke="midnightblue" points="1597.42,-141.13 1592.49,-131.75 1590.49,-142.16 1597.42,-141.13"/>
</g>
<!-- Node12&#45;&gt;Node4 -->
<g id="edge13" class="edge">
<title>Node12&#45;&gt;Node4</title>
<path fill="none" stroke="midnightblue" d="M1582.13,-112.37C1566.21,-97.81 1531.54,-68.72 1496.19,-56 1453.3,-40.56 1143.45,-19.88 1037.56,-13.19"/>
<polygon fill="midnightblue" stroke="midnightblue" points="1037.59,-9.68 1027.39,-12.55 1037.15,-16.67 1037.59,-9.68"/>
</g>
<!-- Node12&#45;&gt;Node6 -->
<g id="edge12" class="edge">
<title>Node12&#45;&gt;Node6</title>
<path fill="none" stroke="midnightblue" d="M1547.62,-112.44C1499.34,-102.96 1421.48,-87.67 1369.58,-77.48"/>
<polygon fill="midnightblue" stroke="midnightblue" points="1370.05,-74.01 1359.56,-75.52 1368.7,-80.88 1370.05,-74.01"/>
</g>
<!-- Node13 -->
<g id="node13" class="node">
<title>Node13</title>
<g id="a_node13"><a xlink:title=" ">
<polygon fill="white" stroke="#bfbfbf" points="1447.19,-56.5 1447.19,-75.5 1487.19,-75.5 1487.19,-56.5 1447.19,-56.5"/>
<text text-anchor="middle" x="1467.19" y="-63.5" font-family="Helvetica,sans-Serif" font-size="10.00">span</text>
</a>
</g>
</g>
<!-- Node12&#45;&gt;Node13 -->
<g id="edge14" class="edge">
<title>Node12&#45;&gt;Node13</title>
<path fill="none" stroke="midnightblue" d="M1571.55,-112.44C1551.23,-103.6 1519.29,-89.69 1496.1,-79.59"/>
<polygon fill="midnightblue" stroke="midnightblue" points="1497.32,-76.3 1486.75,-75.52 1494.52,-82.72 1497.32,-76.3"/>
</g>
<!-- Node14&#45;&gt;Node11 -->
<g id="edge19" class="edge">
<title>Node14&#45;&gt;Node11</title>
<path fill="none" stroke="midnightblue" d="M1785.18,-224.44C1746.95,-215.1 1685.63,-200.12 1643.94,-189.93"/>
<polygon fill="midnightblue" stroke="midnightblue" points="1644.59,-186.49 1634.05,-187.52 1642.93,-193.29 1644.59,-186.49"/>
</g>
<!-- Node15 -->
<g id="node15" class="node">
<title>Node15</title>
<g id="a_node15"><a xlink:href="_format_8hpp.html" target="_top" xlink:title=" ">
<polygon fill="white" stroke="black" points="1283.19,-112.5 1283.19,-131.5 1439.19,-131.5 1439.19,-112.5 1283.19,-112.5"/>
<text text-anchor="middle" x="1361.19" y="-119.5" font-family="Helvetica,sans-Serif" font-size="10.00">Liger&#45;Engine/RHI/Format.hpp</text>
</a>
</g>
</g>
<!-- Node14&#45;&gt;Node15 -->
<g id="edge17" class="edge">
<title>Node14&#45;&gt;Node15</title>
<path fill="none" stroke="midnightblue" d="M1809.19,-224.31C1790.35,-209.94 1750.14,-181.46 1711.19,-168 1664.34,-151.8 1536.84,-138.1 1449.39,-130.21"/>
<polygon fill="midnightblue" stroke="midnightblue" points="1449.47,-126.71 1439.2,-129.3 1448.85,-133.68 1449.47,-126.71"/>
</g>
<!-- Node16 -->
<g id="node16" class="node">
<title>Node16</title>
<g id="a_node16"><a xlink:title=" ">
<polygon fill="white" stroke="#bfbfbf" points="482.69,-168.5 482.69,-187.5 529.69,-187.5 529.69,-168.5 482.69,-168.5"/>
<text text-anchor="middle" x="506.19" y="-175.5" font-family="Helvetica,sans-Serif" font-size="10.00">vector</text>
</a>
</g>
</g>
<!-- Node14&#45;&gt;Node16 -->
<g id="edge20" class="edge">
<title>Node14&#45;&gt;Node16</title>
<path fill="none" stroke="midnightblue" d="M1718.58,-224.56C1715.42,-224.36 1712.28,-224.17 1709.19,-224 1452.43,-209.65 811.42,-227.1 539.72,-187.82"/>
<polygon fill="midnightblue" stroke="midnightblue" points="540.23,-184.36 529.82,-186.34 539.19,-191.28 540.23,-184.36"/>
</g>
<!-- Node15&#45;&gt;Node4 -->
<g id="edge18" class="edge">
<title>Node15&#45;&gt;Node4</title>
<path fill="none" stroke="midnightblue" d="M1325.2,-112.48C1293.96,-104.58 1247.82,-91.7 1209.19,-76 1191.51,-68.81 1188.97,-62.94 1171.19,-56 1126.34,-38.48 1072.2,-25.4 1037.5,-17.98"/>
<polygon fill="midnightblue" stroke="midnightblue" points="1037.89,-14.48 1027.38,-15.86 1036.45,-21.34 1037.89,-14.48"/>
</g>
<!-- Node17&#45;&gt;Node2 -->
<g id="edge26" class="edge">
<title>Node17&#45;&gt;Node2</title>
<path fill="none" stroke="midnightblue" d="M668.58,-289.72C492.05,-290.12 121.4,-285.89 82.19,-244 70.53,-231.54 75.9,-211.46 82.39,-196.92"/>
<polygon fill="midnightblue" stroke="midnightblue" points="85.55,-198.41 86.86,-187.89 79.28,-195.3 85.55,-198.41"/>
</g>
<!-- Node18 -->
<g id="node18" class="node">
<title>Node18</title>
<g id="a_node18"><a xlink:href="_dependency_graph_8hpp.html" target="_top" xlink:title=" ">
<polygon fill="white" stroke="black" points="91.19,-224.5 91.19,-243.5 363.19,-243.5 363.19,-224.5 91.19,-224.5"/>
<text text-anchor="middle" x="227.19" y="-231.5" font-family="Helvetica,sans-Serif" font-size="10.00">Liger&#45;Engine/Core/Containers/DependencyGraph.hpp</text>
</a>
</g>
</g>
<!-- Node17&#45;&gt;Node18 -->
<g id="edge22" class="edge">
<title>Node17&#45;&gt;Node18</title>
<path fill="none" stroke="midnightblue" d="M676.87,-280.47C580.27,-270.7 422.36,-254.74 321.68,-244.55"/>
<polygon fill="midnightblue" stroke="midnightblue" points="321.81,-241.05 311.51,-243.53 321.11,-248.01 321.81,-241.05"/>
</g>
<!-- Node20 -->
<g id="node20" class="node">
<title>Node20</title>
<g id="a_node20"><a xlink:href="_command_buffer_8hpp.html" target="_top" xlink:title=" ">
<polygon fill="white" stroke="black" points="1065.19,-112.5 1065.19,-131.5 1265.19,-131.5 1265.19,-112.5 1065.19,-112.5"/>
<text text-anchor="middle" x="1165.19" y="-119.5" font-family="Helvetica,sans-Serif" font-size="10.00">Liger&#45;Engine/RHI/CommandBuffer.hpp</text>
</a>
</g>
</g>
<!-- Node17&#45;&gt;Node20 -->
<g id="edge27" class="edge">
<title>Node17&#45;&gt;Node20</title>
<path fill="none" stroke="midnightblue" d="M854.09,-283.79C960.37,-276.94 1122.48,-263.46 1143.19,-244 1171.25,-217.65 1170.7,-168.42 1167.92,-141.59"/>
<polygon fill="midnightblue" stroke="midnightblue" points="1171.39,-141.09 1166.67,-131.6 1164.44,-141.96 1171.39,-141.09"/>
</g>
<!-- Node23 -->
<g id="node23" class="node">
<title>Node23</title>
<g id="a_node23"><a xlink:href="_dependent_texture_info_8hpp.html" target="_top" xlink:title=" ">
<polygon fill="white" stroke="black" points="717.19,-224.5 717.19,-243.5 947.19,-243.5 947.19,-224.5 717.19,-224.5"/>
<text text-anchor="middle" x="832.19" y="-231.5" font-family="Helvetica,sans-Serif" font-size="10.00">Liger&#45;Engine/RHI/DependentTextureInfo.hpp</text>
</a>
</g>
</g>
<!-- Node17&#45;&gt;Node23 -->
<g id="edge34" class="edge">
<title>Node17&#45;&gt;Node23</title>
<path fill="none" stroke="midnightblue" d="M772.6,-280.32C783.3,-272.18 799.53,-259.84 812.36,-250.09"/>
<polygon fill="midnightblue" stroke="midnightblue" points="814.74,-252.67 820.58,-243.83 810.5,-247.1 814.74,-252.67"/>
</g>
<!-- Node26 -->
<g id="node26" class="node">
<title>Node26</title>
<g id="a_node26"><a xlink:href="_resource_version_registry_8hpp.html" target="_top" xlink:title=" ">
<polygon fill="white" stroke="black" points="419.19,-224.5 419.19,-243.5 661.19,-243.5 661.19,-224.5 419.19,-224.5"/>
<text text-anchor="middle" x="540.19" y="-231.5" font-family="Helvetica,sans-Serif" font-size="10.00">Liger&#45;Engine/RHI/ResourceVersionRegistry.hpp</text>
</a>
</g>
</g>
<!-- Node17&#45;&gt;Node26 -->
<g id="edge43" class="edge">
<title>Node17&#45;&gt;Node26</title>
<path fill="none" stroke="midnightblue" d="M726.18,-280.44C687.95,-271.1 626.63,-256.12 584.94,-245.93"/>
<polygon fill="midnightblue" stroke="midnightblue" points="585.59,-242.49 575.05,-243.52 583.93,-249.29 585.59,-242.49"/>
</g>
<!-- Node27 -->
<g id="node27" class="node">
<title>Node27</title>
<g id="a_node27"><a xlink:title=" ">
<polygon fill="white" stroke="#bfbfbf" points="402.19,-168.5 402.19,-187.5 458.19,-187.5 458.19,-168.5 402.19,-168.5"/>
<text text-anchor="middle" x="430.19" y="-175.5" font-family="Helvetica,sans-Serif" font-size="10.00">optional</text>
</a>
</g>
</g>
<!-- Node17&#45;&gt;Node27 -->
<g id="edge48" class="edge">
<title>Node17&#45;&gt;Node27</title>
<path fill="none" stroke="midnightblue" d="M668.68,-283.38C570.48,-276.46 427.09,-263.2 410.19,-244 398.42,-230.62 407.48,-210.42 416.9,-196.1"/>
<polygon fill="midnightblue" stroke="midnightblue" points="419.97,-197.83 422.93,-187.66 414.27,-193.76 419.97,-197.83"/>
</g>
<!-- Node29 -->
<g id="node29" class="node">
<title>Node29</title>
<g id="a_node29"><a xlink:title=" ">
<polygon fill="white" stroke="#bfbfbf" points="965.19,-224.5 965.19,-243.5 1023.19,-243.5 1023.19,-224.5 965.19,-224.5"/>
<text text-anchor="middle" x="994.19" y="-231.5" font-family="Helvetica,sans-Serif" font-size="10.00">memory</text>
</a>
</g>
</g>
<!-- Node17&#45;&gt;Node29 -->
<g id="edge47" class="edge">
<title>Node17&#45;&gt;Node29</title>
<path fill="none" stroke="midnightblue" d="M798.59,-280.44C835.79,-271.91 894.75,-258.34 955.07,-244.25"/>
<polygon fill="midnightblue" stroke="midnightblue" points="956.21,-247.58 965.15,-241.9 954.62,-240.76 956.21,-247.58"/>
</g>
<!-- Node30 -->
<g id="node30" class="node">
<title>Node30</title>
<g id="a_node30"><a xlink:title=" ">
<polygon fill="white" stroke="#bfbfbf" points="656.69,-168.5 656.69,-187.5 729.69,-187.5 729.69,-168.5 656.69,-168.5"/>
<text text-anchor="middle" x="693.19" y="-175.5" font-family="Helvetica,sans-Serif" font-size="10.00">string_view</text>
</a>
</g>
</g>
<!-- Node17&#45;&gt;Node30 -->
<g id="edge49" class="edge">
<title>Node17&#45;&gt;Node30</title>
<path fill="none" stroke="midnightblue" d="M746.3,-280.2C734.19,-272.26 717.61,-259.47 708.19,-244 699.63,-229.93 695.95,-211.44 694.38,-197.78"/>
<polygon fill="midnightblue" stroke="midnightblue" points="697.85,-197.29 693.48,-187.64 690.87,-197.91 697.85,-197.29"/>
</g>
<!-- Node31 -->
<g id="node31" class="node">
<title>Node31</title>
<g id="a_node31"><a xlink:title=" ">
<polygon fill="white" stroke="#bfbfbf" points="1041.69,-224.5 1041.69,-243.5 1134.69,-243.5 1134.69,-224.5 1041.69,-224.5"/>
<text text-anchor="middle" x="1088.19" y="-231.5" font-family="Helvetica,sans-Serif" font-size="10.00">unordered_map</text>
</a>
</g>
</g>
<!-- Node17&#45;&gt;Node31 -->
<g id="edge50" class="edge">
<title>Node17&#45;&gt;Node31</title>
<path fill="none" stroke="midnightblue" d="M813.01,-280.44C872.63,-270.6 970.21,-254.48 1031.72,-244.33"/>
<polygon fill="midnightblue" stroke="midnightblue" points="1032.35,-247.77 1041.65,-242.69 1031.21,-240.86 1032.35,-247.77"/>
</g>
<!-- Node18&#45;&gt;Node4 -->
<g id="edge24" class="edge">
<title>Node18&#45;&gt;Node4</title>
<path fill="none" stroke="midnightblue" d="M231.06,-224.22C243.06,-197 279.22,-115.67 284.19,-112 394.66,-30.49 838.12,-14.56 966.94,-11.63"/>
<polygon fill="midnightblue" stroke="midnightblue" points="967.12,-15.12 977.04,-11.41 966.97,-8.12 967.12,-15.12"/>
</g>
<!-- Node18&#45;&gt;Node16 -->
<g id="edge25" class="edge">
<title>Node18&#45;&gt;Node16</title>
<path fill="none" stroke="midnightblue" d="M276.04,-224.45C324.61,-215.81 401.22,-201.79 467.19,-188 468.88,-187.65 470.6,-187.28 472.34,-186.9"/>
<polygon fill="midnightblue" stroke="midnightblue" points="473.31,-190.27 482.3,-184.68 471.78,-183.44 473.31,-190.27"/>
</g>
<!-- Node19 -->
<g id="node19" class="node">
<title>Node19</title>
<g id="a_node19"><a xlink:title=" ">
<polygon fill="white" stroke="#bfbfbf" points="185.19,-168.5 185.19,-187.5 237.19,-187.5 237.19,-168.5 185.19,-168.5"/>
<text text-anchor="middle" x="211.19" y="-175.5" font-family="Helvetica,sans-Serif" font-size="10.00">cassert</text>
</a>
</g>
</g>
<!-- Node18&#45;&gt;Node19 -->
<g id="edge23" class="edge">
<title>Node18&#45;&gt;Node19</title>
<path fill="none" stroke="midnightblue" d="M224.55,-224.08C222.41,-216.85 219.32,-206.41 216.65,-197.4"/>
<polygon fill="midnightblue" stroke="midnightblue" points="219.98,-196.34 213.79,-187.75 213.27,-198.33 219.98,-196.34"/>
</g>
<!-- Node20&#45;&gt;Node6 -->
<g id="edge28" class="edge">
<title>Node20&#45;&gt;Node6</title>
<path fill="none" stroke="midnightblue" d="M1189.12,-112.44C1214.41,-103.4 1254.5,-89.06 1282.87,-78.92"/>
<polygon fill="midnightblue" stroke="midnightblue" points="1284.14,-82.18 1292.38,-75.52 1281.79,-75.59 1284.14,-82.18"/>
</g>
<!-- Node20&#45;&gt;Node13 -->
<g id="edge33" class="edge">
<title>Node20&#45;&gt;Node13</title>
<path fill="none" stroke="midnightblue" d="M1215.97,-112.48C1267.86,-103.69 1350.74,-89.4 1422.19,-76 1427.03,-75.09 1432.15,-74.1 1437.14,-73.12"/>
<polygon fill="midnightblue" stroke="midnightblue" points="1437.93,-76.53 1447.05,-71.14 1436.56,-69.66 1437.93,-76.53"/>
</g>
<!-- Node21 -->
<g id="node21" class="node">
<title>Node21</title>
<g id="a_node21"><a xlink:href="_extent_8hpp.html" target="_top" xlink:title=" ">
<polygon fill="white" stroke="black" points="1009.69,-56.5 1009.69,-75.5 1162.69,-75.5 1162.69,-56.5 1009.69,-56.5"/>
<text text-anchor="middle" x="1086.19" y="-63.5" font-family="Helvetica,sans-Serif" font-size="10.00">Liger&#45;Engine/RHI/Extent.hpp</text>
</a>
</g>
</g>
<!-- Node20&#45;&gt;Node21 -->
<g id="edge29" class="edge">
<title>Node20&#45;&gt;Node21</title>
<path fill="none" stroke="midnightblue" d="M1152.5,-112.32C1140.29,-103.98 1121.62,-91.21 1107.19,-81.35"/>
<polygon fill="midnightblue" stroke="midnightblue" points="1109.09,-78.41 1098.86,-75.65 1105.14,-84.19 1109.09,-78.41"/>
</g>
<!-- Node22 -->
<g id="node22" class="node">
<title>Node22</title>
<g id="a_node22"><a xlink:href="_filter_8hpp.html" target="_top" xlink:title=" ">
<polygon fill="white" stroke="black" points="845.19,-56.5 845.19,-75.5 991.19,-75.5 991.19,-56.5 845.19,-56.5"/>
<text text-anchor="middle" x="918.19" y="-63.5" font-family="Helvetica,sans-Serif" font-size="10.00">Liger&#45;Engine/RHI/Filter.hpp</text>
</a>
</g>
</g>
<!-- Node20&#45;&gt;Node22 -->
<g id="edge31" class="edge">
<title>Node20&#45;&gt;Node22</title>
<path fill="none" stroke="midnightblue" d="M1126.06,-112.44C1082.97,-103.02 1013.64,-87.87 967.02,-77.68"/>
<polygon fill="midnightblue" stroke="midnightblue" points="967.67,-74.23 957.15,-75.52 966.17,-81.07 967.67,-74.23"/>
</g>
<!-- Node21&#45;&gt;Node4 -->
<g id="edge30" class="edge">
<title>Node21&#45;&gt;Node4</title>
<path fill="none" stroke="midnightblue" d="M1072.7,-56.32C1059.59,-47.9 1039.48,-34.97 1024.09,-25.07"/>
<polygon fill="midnightblue" stroke="midnightblue" points="1025.96,-22.12 1015.66,-19.65 1022.18,-28.01 1025.96,-22.12"/>
</g>
<!-- Node22&#45;&gt;Node4 -->
<g id="edge32" class="edge">
<title>Node22&#45;&gt;Node4</title>
<path fill="none" stroke="midnightblue" d="M931.69,-56.32C944.79,-47.9 964.91,-34.97 980.3,-25.07"/>
<polygon fill="midnightblue" stroke="midnightblue" points="982.21,-28.01 988.73,-19.65 978.43,-22.12 982.21,-28.01"/>
</g>
<!-- Node24 -->
<g id="node24" class="node">
<title>Node24</title>
<g id="a_node24"><a xlink:href="_texture_8hpp.html" target="_top" xlink:title=" ">
<polygon fill="white" stroke="black" points="796.19,-168.5 796.19,-187.5 954.19,-187.5 954.19,-168.5 796.19,-168.5"/>
<text text-anchor="middle" x="875.19" y="-175.5" font-family="Helvetica,sans-Serif" font-size="10.00">Liger&#45;Engine/RHI/Texture.hpp</text>
</a>
</g>
</g>
<!-- Node23&#45;&gt;Node24 -->
<g id="edge35" class="edge">
<title>Node23&#45;&gt;Node24</title>
<path fill="none" stroke="midnightblue" d="M839.29,-224.08C845.43,-216.38 854.46,-205.03 861.93,-195.65"/>
<polygon fill="midnightblue" stroke="midnightblue" points="864.73,-197.75 868.23,-187.75 859.26,-193.39 864.73,-197.75"/>
</g>
<!-- Node24&#45;&gt;Node3 -->
<g id="edge36" class="edge">
<title>Node24&#45;&gt;Node3</title>
<path fill="none" stroke="midnightblue" d="M809.44,-168.44C735.07,-158.77 614.17,-143.04 535.92,-132.85"/>
<polygon fill="midnightblue" stroke="midnightblue" points="536.01,-129.34 525.64,-131.52 535.11,-136.28 536.01,-129.34"/>
</g>
<!-- Node24&#45;&gt;Node5 -->
<g id="edge37" class="edge">
<title>Node24&#45;&gt;Node5</title>
<path fill="none" stroke="midnightblue" d="M846.83,-168.44C816.46,-159.28 768.08,-144.69 734.38,-134.52"/>
<polygon fill="midnightblue" stroke="midnightblue" points="735.01,-131.05 724.42,-131.52 732.99,-137.76 735.01,-131.05"/>
</g>
<!-- Node24&#45;&gt;Node9 -->
<g id="edge42" class="edge">
<title>Node24&#45;&gt;Node9</title>
<path fill="none" stroke="midnightblue" d="M796.15,-171.14C666.64,-161.43 417.34,-142.17 347.38,-131.69"/>
<polygon fill="midnightblue" stroke="midnightblue" points="347.86,-128.22 337.42,-130.02 346.7,-135.12 347.86,-128.22"/>
</g>
<!-- Node24&#45;&gt;Node15 -->
<g id="edge39" class="edge">
<title>Node24&#45;&gt;Node15</title>
<path fill="none" stroke="midnightblue" d="M951.93,-168.47C1039.59,-158.73 1182.7,-142.83 1274.37,-132.65"/>
<polygon fill="midnightblue" stroke="midnightblue" points="1274.9,-136.11 1284.46,-131.53 1274.13,-129.15 1274.9,-136.11"/>
</g>
<!-- Node24&#45;&gt;Node21 -->
<g id="edge38" class="edge">
<title>Node24&#45;&gt;Node21</title>
<path fill="none" stroke="midnightblue" d="M919.24,-168.43C948.41,-161.49 986.76,-149.88 1017.19,-132 1039.02,-119.18 1059.53,-98.3 1072.42,-83.67"/>
<polygon fill="midnightblue" stroke="midnightblue" points="1075.24,-85.76 1079.09,-75.89 1069.92,-81.21 1075.24,-85.76"/>
</g>
<!-- Node25 -->
<g id="node25" class="node">
<title>Node25</title>
<g id="a_node25"><a xlink:href="_sampler_info_8hpp.html" target="_top" xlink:title=" ">
<polygon fill="white" stroke="black" points="827.69,-112.5 827.69,-131.5 1008.69,-131.5 1008.69,-112.5 827.69,-112.5"/>
<text text-anchor="middle" x="918.19" y="-119.5" font-family="Helvetica,sans-Serif" font-size="10.00">Liger&#45;Engine/RHI/SamplerInfo.hpp</text>
</a>
</g>
</g>
<!-- Node24&#45;&gt;Node25 -->
<g id="edge40" class="edge">
<title>Node24&#45;&gt;Node25</title>
<path fill="none" stroke="midnightblue" d="M882.29,-168.08C888.43,-160.38 897.46,-149.03 904.93,-139.65"/>
<polygon fill="midnightblue" stroke="midnightblue" points="907.73,-141.75 911.23,-131.75 902.26,-137.39 907.73,-141.75"/>
</g>
<!-- Node25&#45;&gt;Node22 -->
<g id="edge41" class="edge">
<title>Node25&#45;&gt;Node22</title>
<path fill="none" stroke="midnightblue" d="M918.19,-112.08C918.19,-105.01 918.19,-94.86 918.19,-85.99"/>
<polygon fill="midnightblue" stroke="midnightblue" points="921.69,-85.75 918.19,-75.75 914.69,-85.75 921.69,-85.75"/>
</g>
<!-- Node26&#45;&gt;Node16 -->
<g id="edge46" class="edge">
<title>Node26&#45;&gt;Node16</title>
<path fill="none" stroke="midnightblue" d="M534.58,-224.08C529.83,-216.53 522.88,-205.49 517.04,-196.23"/>
<polygon fill="midnightblue" stroke="midnightblue" points="519.99,-194.35 511.7,-187.75 514.07,-198.08 519.99,-194.35"/>
</g>
<!-- Node26&#45;&gt;Node27 -->
<g id="edge44" class="edge">
<title>Node26&#45;&gt;Node27</title>
<path fill="none" stroke="midnightblue" d="M522.52,-224.32C504.8,-215.62 477.29,-202.12 456.91,-192.11"/>
<polygon fill="midnightblue" stroke="midnightblue" points="458.34,-188.92 447.82,-187.65 455.26,-195.2 458.34,-188.92"/>
</g>
<!-- Node28 -->
<g id="node28" class="node">
<title>Node28</title>
<g id="a_node28"><a xlink:title=" ">
<polygon fill="white" stroke="#bfbfbf" points="547.69,-168.5 547.69,-187.5 598.69,-187.5 598.69,-168.5 547.69,-168.5"/>
<text text-anchor="middle" x="573.19" y="-175.5" font-family="Helvetica,sans-Serif" font-size="10.00">variant</text>
</a>
</g>
</g>
<!-- Node26&#45;&gt;Node28 -->
<g id="edge45" class="edge">
<title>Node26&#45;&gt;Node28</title>
<path fill="none" stroke="midnightblue" d="M545.64,-224.08C550.21,-216.61 556.86,-205.72 562.49,-196.52"/>
<polygon fill="midnightblue" stroke="midnightblue" points="565.62,-198.11 567.85,-187.75 559.65,-194.46 565.62,-198.11"/>
</g>
<!-- Node32&#45;&gt;Node13 -->
<g id="edge56" class="edge">
<title>Node32&#45;&gt;Node13</title>
<path fill="none" stroke="midnightblue" d="M1430.68,-280.3C1436.28,-247.63 1456.09,-131.87 1463.95,-85.96"/>
<polygon fill="midnightblue" stroke="midnightblue" points="1467.44,-86.33 1465.67,-75.88 1460.54,-85.15 1467.44,-86.33"/>
</g>
<!-- Node32&#45;&gt;Node24 -->
<g id="edge55" class="edge">
<title>Node32&#45;&gt;Node24</title>
<path fill="none" stroke="midnightblue" d="M1429.51,-280.18C1429.48,-265.88 1427.13,-237.84 1410.19,-224 1376.52,-196.48 1107.56,-185.17 964.3,-181.06"/>
<polygon fill="midnightblue" stroke="midnightblue" points="964.3,-177.56 954.21,-180.78 964.11,-184.55 964.3,-177.56"/>
</g>
<!-- Node33 -->
<g id="node33" class="node">
<title>Node33</title>
<g id="a_node33"><a xlink:href="_window_8hpp.html" target="_top" xlink:title=" ">
<polygon fill="white" stroke="black" points="1191.19,-224.5 1191.19,-243.5 1401.19,-243.5 1401.19,-224.5 1191.19,-224.5"/>
<text text-anchor="middle" x="1296.19" y="-231.5" font-family="Helvetica,sans-Serif" font-size="10.00">Liger&#45;Engine/Core/Platform/Window.hpp</text>
</a>
</g>
</g>
<!-- Node32&#45;&gt;Node33 -->
<g id="edge53" class="edge">
<title>Node32&#45;&gt;Node33</title>
<path fill="none" stroke="midnightblue" d="M1408.12,-280.44C1386.13,-271.52 1351.46,-257.44 1326.53,-247.32"/>
<polygon fill="midnightblue" stroke="midnightblue" points="1327.75,-244.04 1317.17,-243.52 1325.12,-250.52 1327.75,-244.04"/>
</g>
<!-- Node33&#45;&gt;Node30 -->
<g id="edge54" class="edge">
<title>Node33&#45;&gt;Node30</title>
<path fill="none" stroke="midnightblue" d="M1197.17,-224.46C1094.59,-215.56 929.64,-201.12 787.19,-188 771.81,-186.58 755.01,-184.99 739.92,-183.54"/>
<polygon fill="midnightblue" stroke="midnightblue" points="740.08,-180.04 729.79,-182.57 739.41,-187.01 740.08,-180.04"/>
</g>
</g>
</svg>
        <g id="navigator" transform="translate(0 0)" fill="#404254">
                <rect fill="#f2f5e9" fill-opacity="0.5" stroke="#606060" stroke-width=".5" x="0" y="0" width="60" height="60"/>
                <use id="zoomplus" xlink:href="#zoomPlus" x="17" y="9" onmousedown="handleZoom(evt,'in')"/>
                <use id="zoomminus" xlink:href="#zoomMin" x="42" y="9" onmousedown="handleZoom(evt,'out')"/>
                <use id="reset" xlink:href="#resetDef" x="30" y="36" onmousedown="handleReset()"/>
                <g id="arrowUp" xlink:href="#dirArrow" transform="translate(30 24)" onmousedown="handlePan(0,-1)">
                  <use xlink:href="#rim" fill="#404040">
                        <set attributeName="fill" to="#808080" begin="arrowUp.mouseover" end="arrowUp.mouseout"/>
                  </use>
                  <path fill="none" stroke="white" stroke-width="1.5" d="M0,-3.0v7 M-2.5,-0.5L0,-3.0L2.5,-0.5"/>
                </g>
                <g id="arrowRight" xlink:href="#dirArrow" transform="rotate(90) translate(36 -43)" onmousedown="handlePan(1,0)">
                  <use xlink:href="#rim" fill="#404040">
                        <set attributeName="fill" to="#808080" begin="arrowRight.mouseover" end="arrowRight.mouseout"/>
                  </use>
                  <path fill="none" stroke="white" stroke-width="1.5" d="M0,-3.0v7 M-2.5,-0.5L0,-3.0L2.5,-0.5"/>
                </g>
                <g id="arrowDown" xlink:href="#dirArrow" transform="rotate(180) translate(-30 -48)" onmousedown="handlePan(0,1)">
                  <use xlink:href="#rim" fill="#404040">
                        <set attributeName="fill" to="#808080" begin="arrowDown.mouseover" end="arrowDown.mouseout"/>
                  </use>
                  <path fill="none" stroke="white" stroke-width="1.5" d="M0,-3.0v7 M-2.5,-0.5L0,-3.0L2.5,-0.5"/>
                </g>
                <g id="arrowLeft" xlink:href="#dirArrow" transform="rotate(270) translate(-36 17)" onmousedown="handlePan(-1,0)">
                  <use xlink:href="#rim" fill="#404040">
                        <set attributeName="fill" to="#808080" begin="arrowLeft.mouseover" end="arrowLeft.mouseout"/>
                  </use>
                  <path fill="none" stroke="white" stroke-width="1.5" d="M0,-3.0v7 M-2.5,-0.5L0,-3.0L2.5,-0.5"/>
                </g>
        </g>
        <svg viewBox="0 0 15 15" width="100%" height="30px" preserveAspectRatio="xMaxYMin meet">
         <g id="arrow_out" transform="scale(0.3 0.3)">
          <a xlink:href="_device_8hpp__incl_org.svg" target="_base">
           <rect id="button" ry="5" rx="5" y="6" x="6" height="38" width="38"
                fill="#f2f5e9" fill-opacity="0.5" stroke="#606060" stroke-width="1.0"/>
           <path id="arrow"
             d="M 11.500037,31.436501 C 11.940474,20.09759 22.043105,11.32322 32.158766,21.979434 L 37.068811,17.246167 C 37.068811,17.246167 37.088388,32 37.088388,32 L 22.160133,31.978069 C 22.160133,31.978069 26.997745,27.140456 26.997745,27.140456 C 18.528582,18.264221 13.291696,25.230495 11.500037,31.436501 z"
             style="fill:#404040;"/>
          </a>
         </g>
        </svg>
</svg>
