<?xml version="1.0" encoding="UTF-8" standalone="no"?>
<!DOCTYPE svg PUBLIC "-//W3C//DTD SVG 1.1//EN"
 "http://www.w3.org/Graphics/SVG/1.1/DTD/svg11.dtd">
<!-- Generated by graphviz version 2.43.0 (0)
 -->
<!-- Title: Device.hpp Pages: 1 -->
<svg width="2245pt" height="420pt"
 viewBox="0.00 0.00 2245.23 420.00" xmlns="http://www.w3.org/2000/svg" xmlns:xlink="http://www.w3.org/1999/xlink">
<g id="graph0" class="graph" transform="scale(1 1) rotate(0) translate(4 416)">
<title>Device.hpp</title>
<polygon fill="white" stroke="transparent" points="-4,4 -4,-416 2241.23,-416 2241.23,4 -4,4"/>
<!-- Node1 -->
<g id="node1" class="node">
<title>Node1</title>
<g id="a_node1"><a xlink:title=" ">
<polygon fill="#bfbfbf" stroke="black" points="1114.5,-392.5 1114.5,-411.5 1185.5,-411.5 1185.5,-392.5 1114.5,-392.5"/>
<text text-anchor="middle" x="1150" y="-399.5" font-family="Helvetica,sans-Serif" font-size="10.00">Device.hpp</text>
</a>
</g>
</g>
<!-- Node2 -->
<g id="node2" class="node">
<title>Node2</title>
<g id="a_node2"><a xlink:href="_buffer_8hpp.html" target="_top" xlink:title=" ">
<polygon fill="white" stroke="black" points="463,-168.5 463,-187.5 613,-187.5 613,-168.5 463,-168.5"/>
<text text-anchor="middle" x="538" y="-175.5" font-family="Helvetica,sans-Serif" font-size="10.00">Liger&#45;Engine/RHI/Buffer.hpp</text>
</a>
</g>
</g>
<!-- Node1&#45;&gt;Node2 -->
<g id="edge1" class="edge">
<title>Node1&#45;&gt;Node2</title>
<path fill="none" stroke="midnightblue" d="M1114.4,-399.1C1002.54,-392.46 660.56,-367 576,-300 544.89,-275.35 538.75,-225.43 537.84,-198.04"/>
<polygon fill="midnightblue" stroke="midnightblue" points="541.34,-197.78 537.71,-187.82 534.34,-197.86 541.34,-197.78"/>
</g>
<!-- Node9 -->
<g id="node9" class="node">
<title>Node9</title>
<g id="a_node9"><a xlink:title=" ">
<polygon fill="white" stroke="#bfbfbf" points="503,-0.5 503,-19.5 547,-19.5 547,-0.5 503,-0.5"/>
<text text-anchor="middle" x="525" y="-7.5" font-family="Helvetica,sans-Serif" font-size="10.00">string</text>
</a>
</g>
</g>
<!-- Node1&#45;&gt;Node9 -->
<g id="edge73" class="edge">
<title>Node1&#45;&gt;Node9</title>
<path fill="none" stroke="midnightblue" d="M1114.32,-401.42C920.21,-403.24 0,-405.82 0,-291 0,-291 0,-291 0,-121 0,-19.85 378.07,-11.16 492.54,-10.84"/>
<polygon fill="midnightblue" stroke="midnightblue" points="492.78,-14.34 502.78,-10.84 492.77,-7.34 492.78,-14.34"/>
</g>
<!-- Node10 -->
<g id="node10" class="node">
<title>Node10</title>
<g id="a_node10"><a xlink:href="_pipeline_8hpp.html" target="_top" xlink:title=" ">
<polygon fill="white" stroke="black" points="341.5,-280.5 341.5,-299.5 502.5,-299.5 502.5,-280.5 341.5,-280.5"/>
<text text-anchor="middle" x="422" y="-287.5" font-family="Helvetica,sans-Serif" font-size="10.00">Liger&#45;Engine/RHI/Pipeline.hpp</text>
</a>
</g>
</g>
<!-- Node1&#45;&gt;Node10 -->
<g id="edge9" class="edge">
<title>Node1&#45;&gt;Node10</title>
<path fill="none" stroke="midnightblue" d="M1114.32,-400.73C998.61,-399.48 634.82,-392.67 524,-356 491.5,-345.25 459.03,-321.83 439.73,-306.24"/>
<polygon fill="midnightblue" stroke="midnightblue" points="441.77,-303.38 431.83,-299.7 437.3,-308.77 441.77,-303.38"/>
</g>
<!-- Node13 -->
<g id="node13" class="node">
<title>Node13</title>
<g id="a_node13"><a xlink:href="_shader_module_8hpp.html" target="_top" xlink:title=" ">
<polygon fill="white" stroke="black" points="1431.5,-168.5 1431.5,-187.5 1622.5,-187.5 1622.5,-168.5 1431.5,-168.5"/>
<text text-anchor="middle" x="1527" y="-175.5" font-family="Helvetica,sans-Serif" font-size="10.00">Liger&#45;Engine/RHI/ShaderModule.hpp</text>
</a>
</g>
</g>
<!-- Node1&#45;&gt;Node13 -->
<g id="edge66" class="edge">
<title>Node1&#45;&gt;Node13</title>
<path fill="none" stroke="midnightblue" d="M1185.71,-392.63C1238.83,-379.07 1340.42,-348.78 1415,-300 1458.74,-271.39 1497.06,-222.04 1515.44,-196.09"/>
<polygon fill="midnightblue" stroke="midnightblue" points="1518.46,-197.88 1521.28,-187.67 1512.71,-193.89 1518.46,-197.88"/>
</g>
<!-- Node16 -->
<g id="node16" class="node">
<title>Node16</title>
<g id="a_node16"><a xlink:href="_render_graph_8hpp.html" target="_top" xlink:title=" ">
<polygon fill="white" stroke="black" points="1057.5,-336.5 1057.5,-355.5 1242.5,-355.5 1242.5,-336.5 1057.5,-336.5"/>
<text text-anchor="middle" x="1150" y="-343.5" font-family="Helvetica,sans-Serif" font-size="10.00">Liger&#45;Engine/RHI/RenderGraph.hpp</text>
</a>
</g>
</g>
<!-- Node1&#45;&gt;Node16 -->
<g id="edge18" class="edge">
<title>Node1&#45;&gt;Node16</title>
<path fill="none" stroke="midnightblue" d="M1150,-392.08C1150,-385.01 1150,-374.86 1150,-365.99"/>
<polygon fill="midnightblue" stroke="midnightblue" points="1153.5,-365.75 1150,-355.75 1146.5,-365.75 1153.5,-365.75"/>
</g>
<!-- Node42 -->
<g id="node42" class="node">
<title>Node42</title>
<g id="a_node42"><a xlink:href="_swapchain_8hpp.html" target="_top" xlink:title=" ">
<polygon fill="white" stroke="black" points="1559,-224.5 1559,-243.5 1733,-243.5 1733,-224.5 1559,-224.5"/>
<text text-anchor="middle" x="1646" y="-231.5" font-family="Helvetica,sans-Serif" font-size="10.00">Liger&#45;Engine/RHI/Swapchain.hpp</text>
</a>
</g>
</g>
<!-- Node1&#45;&gt;Node42 -->
<g id="edge67" class="edge">
<title>Node1&#45;&gt;Node42</title>
<path fill="none" stroke="midnightblue" d="M1185.54,-400.29C1270.57,-398.08 1483.26,-389.28 1545,-356 1589.41,-332.07 1622.24,-279.85 1637.13,-252.5"/>
<polygon fill="midnightblue" stroke="midnightblue" points="1640.23,-254.13 1641.8,-243.65 1634.04,-250.86 1640.23,-254.13"/>
</g>
<!-- Node44 -->
<g id="node44" class="node">
<title>Node44</title>
<g id="a_node44"><a xlink:title=" ">
<polygon fill="white" stroke="#bfbfbf" points="1886,-336.5 1886,-355.5 1918,-355.5 1918,-336.5 1886,-336.5"/>
<text text-anchor="middle" x="1902" y="-343.5" font-family="Helvetica,sans-Serif" font-size="10.00">list</text>
</a>
</g>
</g>
<!-- Node1&#45;&gt;Node44 -->
<g id="edge72" class="edge">
<title>Node1&#45;&gt;Node44</title>
<path fill="none" stroke="midnightblue" d="M1185.65,-401.65C1291.33,-402.96 1611.76,-402.51 1872,-356 1873.29,-355.77 1874.61,-355.5 1875.94,-355.2"/>
<polygon fill="midnightblue" stroke="midnightblue" points="1877.2,-358.49 1885.97,-352.55 1875.41,-351.72 1877.2,-358.49"/>
</g>
<!-- Node3 -->
<g id="node3" class="node">
<title>Node3</title>
<g id="a_node3"><a xlink:href="_descriptor_binding_8hpp.html" target="_top" xlink:title=" ">
<polygon fill="white" stroke="black" points="416.5,-112.5 416.5,-131.5 625.5,-131.5 625.5,-112.5 416.5,-112.5"/>
<text text-anchor="middle" x="521" y="-119.5" font-family="Helvetica,sans-Serif" font-size="10.00">Liger&#45;Engine/RHI/DescriptorBinding.hpp</text>
</a>
</g>
</g>
<!-- Node2&#45;&gt;Node3 -->
<g id="edge2" class="edge">
<title>Node2&#45;&gt;Node3</title>
<path fill="none" stroke="midnightblue" d="M535.19,-168.08C532.92,-160.85 529.63,-150.41 526.79,-141.4"/>
<polygon fill="midnightblue" stroke="midnightblue" points="530.1,-140.24 523.75,-131.75 523.42,-142.34 530.1,-140.24"/>
</g>
<!-- Node5 -->
<g id="node5" class="node">
<title>Node5</title>
<g id="a_node5"><a xlink:href="_device_resource_state_8hpp.html" target="_top" xlink:title=" ">
<polygon fill="white" stroke="black" points="1200,-112.5 1200,-131.5 1426,-131.5 1426,-112.5 1200,-112.5"/>
<text text-anchor="middle" x="1313" y="-119.5" font-family="Helvetica,sans-Serif" font-size="10.00">Liger&#45;Engine/RHI/DeviceResourceState.hpp</text>
</a>
</g>
</g>
<!-- Node2&#45;&gt;Node5 -->
<g id="edge4" class="edge">
<title>Node2&#45;&gt;Node5</title>
<path fill="none" stroke="midnightblue" d="M613.43,-169.01C617.34,-168.66 621.22,-168.32 625,-168 872.88,-147.3 937.83,-149.22 1189.49,-132.1"/>
<polygon fill="midnightblue" stroke="midnightblue" points="1189.94,-135.57 1199.68,-131.4 1189.47,-128.59 1189.94,-135.57"/>
</g>
<!-- Node2&#45;&gt;Node9 -->
<g id="edge8" class="edge">
<title>Node2&#45;&gt;Node9</title>
<path fill="none" stroke="midnightblue" d="M463.46,-168.46C375.62,-158.03 240.52,-140.71 233,-132 157.71,-44.79 402.35,-19.24 492.76,-12.87"/>
<polygon fill="midnightblue" stroke="midnightblue" points="493.25,-16.35 503,-12.19 492.78,-9.36 493.25,-16.35"/>
</g>
<!-- Node4 -->
<g id="node4" class="node">
<title>Node4</title>
<g id="a_node4"><a xlink:title=" ">
<polygon fill="white" stroke="#bfbfbf" points="1010,-0.5 1010,-19.5 1060,-19.5 1060,-0.5 1010,-0.5"/>
<text text-anchor="middle" x="1035" y="-7.5" font-family="Helvetica,sans-Serif" font-size="10.00">cstdint</text>
</a>
</g>
</g>
<!-- Node3&#45;&gt;Node4 -->
<g id="edge3" class="edge">
<title>Node3&#45;&gt;Node4</title>
<path fill="none" stroke="midnightblue" d="M617.29,-112.5C708.28,-103.86 837.93,-89.82 887,-76 907.68,-70.18 911.36,-64.71 931,-56 956.15,-44.84 984.86,-32.45 1005.73,-23.49"/>
<polygon fill="midnightblue" stroke="midnightblue" points="1007.2,-26.67 1015.02,-19.52 1004.44,-20.24 1007.2,-26.67"/>
</g>
<!-- Node6 -->
<g id="node6" class="node">
<title>Node6</title>
<g id="a_node6"><a xlink:href="_enum_bitmask_8hpp.html" target="_top" xlink:title=" ">
<polygon fill="white" stroke="black" points="1566.5,-56.5 1566.5,-75.5 1761.5,-75.5 1761.5,-56.5 1566.5,-56.5"/>
<text text-anchor="middle" x="1664" y="-63.5" font-family="Helvetica,sans-Serif" font-size="10.00">Liger&#45;Engine/Core/EnumBitmask.hpp</text>
</a>
</g>
</g>
<!-- Node5&#45;&gt;Node6 -->
<g id="edge5" class="edge">
<title>Node5&#45;&gt;Node6</title>
<path fill="none" stroke="midnightblue" d="M1368.62,-112.44C1431.13,-102.83 1532.52,-87.23 1598.73,-77.04"/>
<polygon fill="midnightblue" stroke="midnightblue" points="1599.29,-80.5 1608.64,-75.52 1598.23,-73.58 1599.29,-80.5"/>
</g>
<!-- Node7 -->
<g id="node7" class="node">
<title>Node7</title>
<g id="a_node7"><a xlink:title=" ">
<polygon fill="white" stroke="#bfbfbf" points="1687.5,-0.5 1687.5,-19.5 1756.5,-19.5 1756.5,-0.5 1687.5,-0.5"/>
<text text-anchor="middle" x="1722" y="-7.5" font-family="Helvetica,sans-Serif" font-size="10.00">type_traits</text>
</a>
</g>
</g>
<!-- Node6&#45;&gt;Node7 -->
<g id="edge6" class="edge">
<title>Node6&#45;&gt;Node7</title>
<path fill="none" stroke="midnightblue" d="M1673.32,-56.32C1681.89,-48.34 1694.81,-36.31 1705.19,-26.65"/>
<polygon fill="midnightblue" stroke="midnightblue" points="1707.58,-29.21 1712.51,-19.83 1702.81,-24.09 1707.58,-29.21"/>
</g>
<!-- Node8 -->
<g id="node8" class="node">
<title>Node8</title>
<g id="a_node8"><a xlink:title=" ">
<polygon fill="white" stroke="#bfbfbf" points="1540.5,-0.5 1540.5,-19.5 1669.5,-19.5 1669.5,-0.5 1540.5,-0.5"/>
<text text-anchor="middle" x="1605" y="-7.5" font-family="Helvetica,sans-Serif" font-size="10.00">magic_enum_flags.hpp</text>
</a>
</g>
</g>
<!-- Node6&#45;&gt;Node8 -->
<g id="edge7" class="edge">
<title>Node6&#45;&gt;Node8</title>
<path fill="none" stroke="midnightblue" d="M1654.52,-56.32C1645.8,-48.34 1632.66,-36.31 1622.1,-26.65"/>
<polygon fill="midnightblue" stroke="midnightblue" points="1624.39,-24 1614.65,-19.83 1619.67,-29.17 1624.39,-24"/>
</g>
<!-- Node11 -->
<g id="node11" class="node">
<title>Node11</title>
<g id="a_node11"><a xlink:href="_format_8hpp.html" target="_top" xlink:title=" ">
<polygon fill="white" stroke="black" points="242,-112.5 242,-131.5 398,-131.5 398,-112.5 242,-112.5"/>
<text text-anchor="middle" x="320" y="-119.5" font-family="Helvetica,sans-Serif" font-size="10.00">Liger&#45;Engine/RHI/Format.hpp</text>
</a>
</g>
</g>
<!-- Node10&#45;&gt;Node11 -->
<g id="edge10" class="edge">
<title>Node10&#45;&gt;Node11</title>
<path fill="none" stroke="midnightblue" d="M418.24,-280.43C409.18,-260.12 384.86,-207.78 358,-168 351.13,-157.83 342.35,-147.31 334.97,-139"/>
<polygon fill="midnightblue" stroke="midnightblue" points="337.48,-136.56 328.16,-131.52 332.3,-141.27 337.48,-136.56"/>
</g>
<!-- Node12 -->
<g id="node12" class="node">
<title>Node12</title>
<g id="a_node12"><a xlink:href="_push_constant_info_8hpp.html" target="_top" xlink:title=" ">
<polygon fill="white" stroke="black" points="610.5,-224.5 610.5,-243.5 817.5,-243.5 817.5,-224.5 610.5,-224.5"/>
<text text-anchor="middle" x="714" y="-231.5" font-family="Helvetica,sans-Serif" font-size="10.00">Liger&#45;Engine/RHI/PushConstantInfo.hpp</text>
</a>
</g>
</g>
<!-- Node10&#45;&gt;Node12 -->
<g id="edge12" class="edge">
<title>Node10&#45;&gt;Node12</title>
<path fill="none" stroke="midnightblue" d="M468.27,-280.44C519.74,-270.92 602.89,-255.55 658,-245.36"/>
<polygon fill="midnightblue" stroke="midnightblue" points="658.75,-248.78 667.95,-243.52 657.48,-241.89 658.75,-248.78"/>
</g>
<!-- Node15 -->
<g id="node15" class="node">
<title>Node15</title>
<g id="a_node15"><a xlink:title=" ">
<polygon fill="white" stroke="#bfbfbf" points="138.5,-112.5 138.5,-131.5 185.5,-131.5 185.5,-112.5 138.5,-112.5"/>
<text text-anchor="middle" x="162" y="-119.5" font-family="Helvetica,sans-Serif" font-size="10.00">vector</text>
</a>
</g>
</g>
<!-- Node10&#45;&gt;Node15 -->
<g id="edge17" class="edge">
<title>Node10&#45;&gt;Node15</title>
<path fill="none" stroke="midnightblue" d="M414.85,-280.23C394.24,-255.17 334.6,-183.99 309,-168 273.71,-145.96 226.9,-134.08 195.67,-128.15"/>
<polygon fill="midnightblue" stroke="midnightblue" points="196.18,-124.69 185.72,-126.37 194.95,-131.58 196.18,-124.69"/>
</g>
<!-- Node11&#45;&gt;Node4 -->
<g id="edge11" class="edge">
<title>Node11&#45;&gt;Node4</title>
<path fill="none" stroke="midnightblue" d="M375.51,-112.46C516.3,-90.8 884.33,-34.18 999.81,-16.41"/>
<polygon fill="midnightblue" stroke="midnightblue" points="1000.52,-19.85 1009.87,-14.87 999.45,-12.93 1000.52,-19.85"/>
</g>
<!-- Node12&#45;&gt;Node13 -->
<g id="edge13" class="edge">
<title>Node12&#45;&gt;Node13</title>
<path fill="none" stroke="midnightblue" d="M817.79,-226.11C973.2,-215.78 1264.77,-196.42 1421.29,-186.02"/>
<polygon fill="midnightblue" stroke="midnightblue" points="1421.65,-189.5 1431.4,-185.35 1421.19,-182.52 1421.65,-189.5"/>
</g>
<!-- Node13&#45;&gt;Node4 -->
<g id="edge15" class="edge">
<title>Node13&#45;&gt;Node4</title>
<path fill="none" stroke="midnightblue" d="M1516.45,-168.42C1499.83,-155.17 1466.24,-129.46 1435,-112 1379.72,-81.12 1364.77,-73.79 1304,-56 1222.16,-32.04 1122.34,-19.52 1070.34,-14.2"/>
<polygon fill="midnightblue" stroke="midnightblue" points="1070.59,-10.71 1060.3,-13.2 1069.9,-17.68 1070.59,-10.71"/>
</g>
<!-- Node13&#45;&gt;Node6 -->
<g id="edge14" class="edge">
<title>Node13&#45;&gt;Node6</title>
<path fill="none" stroke="midnightblue" d="M1577.6,-168.44C1601.01,-162.06 1627.45,-151.01 1645,-132 1656.58,-119.46 1661.13,-100.23 1662.91,-85.94"/>
<polygon fill="midnightblue" stroke="midnightblue" points="1666.42,-86.03 1663.82,-75.76 1659.44,-85.41 1666.42,-86.03"/>
</g>
<!-- Node14 -->
<g id="node14" class="node">
<title>Node14</title>
<g id="a_node14"><a xlink:title=" ">
<polygon fill="white" stroke="#bfbfbf" points="1692,-112.5 1692,-131.5 1732,-131.5 1732,-112.5 1692,-112.5"/>
<text text-anchor="middle" x="1712" y="-119.5" font-family="Helvetica,sans-Serif" font-size="10.00">span</text>
</a>
</g>
</g>
<!-- Node13&#45;&gt;Node14 -->
<g id="edge16" class="edge">
<title>Node13&#45;&gt;Node14</title>
<path fill="none" stroke="midnightblue" d="M1556.31,-168.44C1590.66,-158.42 1647.28,-141.89 1681.94,-131.77"/>
<polygon fill="midnightblue" stroke="midnightblue" points="1683.33,-135.02 1691.95,-128.85 1681.37,-128.3 1683.33,-135.02"/>
</g>
<!-- Node16&#45;&gt;Node2 -->
<g id="edge23" class="edge">
<title>Node16&#45;&gt;Node2</title>
<path fill="none" stroke="midnightblue" d="M1057.39,-342.52C909.3,-337.8 632.03,-325.65 595,-300 576.98,-287.52 554.55,-227.67 544,-197.08"/>
<polygon fill="midnightblue" stroke="midnightblue" points="547.32,-195.96 540.8,-187.61 540.69,-198.2 547.32,-195.96"/>
</g>
<!-- Node17 -->
<g id="node17" class="node">
<title>Node17</title>
<g id="a_node17"><a xlink:href="_dependency_graph_8hpp.html" target="_top" xlink:title=" ">
<polygon fill="white" stroke="black" points="28,-168.5 28,-187.5 300,-187.5 300,-168.5 28,-168.5"/>
<text text-anchor="middle" x="164" y="-175.5" font-family="Helvetica,sans-Serif" font-size="10.00">Liger&#45;Engine/Core/Containers/DependencyGraph.hpp</text>
</a>
</g>
</g>
<!-- Node16&#45;&gt;Node17 -->
<g id="edge19" class="edge">
<title>Node16&#45;&gt;Node17</title>
<path fill="none" stroke="midnightblue" d="M1057.45,-342.83C857.72,-337.74 398.84,-323.61 332,-300 267.84,-277.33 206.7,-222.02 179.2,-194.74"/>
<polygon fill="midnightblue" stroke="midnightblue" points="181.59,-192.18 172.07,-187.54 176.62,-197.11 181.59,-192.18"/>
</g>
<!-- Node19 -->
<g id="node19" class="node">
<title>Node19</title>
<g id="a_node19"><a xlink:href="_command_buffer_8hpp.html" target="_top" xlink:title=" ">
<polygon fill="white" stroke="black" points="1679,-168.5 1679,-187.5 1879,-187.5 1879,-168.5 1679,-168.5"/>
<text text-anchor="middle" x="1779" y="-175.5" font-family="Helvetica,sans-Serif" font-size="10.00">Liger&#45;Engine/RHI/CommandBuffer.hpp</text>
</a>
</g>
</g>
<!-- Node16&#45;&gt;Node19 -->
<g id="edge24" class="edge">
<title>Node16&#45;&gt;Node19</title>
<path fill="none" stroke="midnightblue" d="M1242.54,-338.82C1388.29,-327.53 1662.92,-299.44 1742,-244 1757.91,-232.84 1767.87,-212.51 1773.39,-197.55"/>
<polygon fill="midnightblue" stroke="midnightblue" points="1776.79,-198.41 1776.65,-187.81 1770.16,-196.18 1776.79,-198.41"/>
</g>
<!-- Node25 -->
<g id="node25" class="node">
<title>Node25</title>
<g id="a_node25"><a xlink:href="_context_8hpp.html" target="_top" xlink:title=" ">
<polygon fill="white" stroke="black" points="1226,-280.5 1226,-299.5 1386,-299.5 1386,-280.5 1226,-280.5"/>
<text text-anchor="middle" x="1306" y="-287.5" font-family="Helvetica,sans-Serif" font-size="10.00">Liger&#45;Engine/RHI/Context.hpp</text>
</a>
</g>
</g>
<!-- Node16&#45;&gt;Node25 -->
<g id="edge35" class="edge">
<title>Node16&#45;&gt;Node25</title>
<path fill="none" stroke="midnightblue" d="M1174.72,-336.44C1200.85,-327.4 1242.26,-313.06 1271.58,-302.92"/>
<polygon fill="midnightblue" stroke="midnightblue" points="1273.09,-306.1 1281.4,-299.52 1270.8,-299.48 1273.09,-306.1"/>
</g>
<!-- Node29 -->
<g id="node29" class="node">
<title>Node29</title>
<g id="a_node29"><a xlink:title=" ">
<polygon fill="white" stroke="#bfbfbf" points="2074.5,-0.5 2074.5,-19.5 2147.5,-19.5 2147.5,-0.5 2074.5,-0.5"/>
<text text-anchor="middle" x="2111" y="-7.5" font-family="Helvetica,sans-Serif" font-size="10.00">string_view</text>
</a>
</g>
</g>
<!-- Node16&#45;&gt;Node29 -->
<g id="edge64" class="edge">
<title>Node16&#45;&gt;Node29</title>
<path fill="none" stroke="midnightblue" d="M1242.69,-343.7C1418.87,-338.27 1811.4,-311.97 2113,-188 2184.16,-158.75 2268.28,-119.61 2225,-56 2209.9,-33.81 2182.01,-22.56 2157.6,-16.86"/>
<polygon fill="midnightblue" stroke="midnightblue" points="2158.25,-13.42 2147.75,-14.81 2156.82,-20.28 2158.25,-13.42"/>
</g>
<!-- Node34 -->
<g id="node34" class="node">
<title>Node34</title>
<g id="a_node34"><a xlink:title=" ">
<polygon fill="white" stroke="#bfbfbf" points="1367.5,-224.5 1367.5,-243.5 1460.5,-243.5 1460.5,-224.5 1367.5,-224.5"/>
<text text-anchor="middle" x="1414" y="-231.5" font-family="Helvetica,sans-Serif" font-size="10.00">unordered_map</text>
</a>
</g>
</g>
<!-- Node16&#45;&gt;Node34 -->
<g id="edge65" class="edge">
<title>Node16&#45;&gt;Node34</title>
<path fill="none" stroke="midnightblue" d="M1242.76,-338.01C1302.37,-331.67 1372.68,-320.13 1395,-300 1407.94,-288.33 1412.26,-268.38 1413.61,-253.66"/>
<polygon fill="midnightblue" stroke="midnightblue" points="1417.11,-253.81 1414.16,-243.64 1410.12,-253.43 1417.11,-253.81"/>
</g>
<!-- Node35 -->
<g id="node35" class="node">
<title>Node35</title>
<g id="a_node35"><a xlink:href="_dependent_texture_info_8hpp.html" target="_top" xlink:title=" ">
<polygon fill="white" stroke="black" points="604,-280.5 604,-299.5 834,-299.5 834,-280.5 604,-280.5"/>
<text text-anchor="middle" x="719" y="-287.5" font-family="Helvetica,sans-Serif" font-size="10.00">Liger&#45;Engine/RHI/DependentTextureInfo.hpp</text>
</a>
</g>
</g>
<!-- Node16&#45;&gt;Node35 -->
<g id="edge49" class="edge">
<title>Node16&#45;&gt;Node35</title>
<path fill="none" stroke="midnightblue" d="M1081.71,-336.44C1004.31,-326.75 878.4,-310.97 797.15,-300.79"/>
<polygon fill="midnightblue" stroke="midnightblue" points="797.33,-297.29 786.97,-299.52 796.46,-304.23 797.33,-297.29"/>
</g>
<!-- Node38 -->
<g id="node38" class="node">
<title>Node38</title>
<g id="a_node38"><a xlink:href="_resource_version_registry_8hpp.html" target="_top" xlink:title=" ">
<polygon fill="white" stroke="black" points="852,-280.5 852,-299.5 1094,-299.5 1094,-280.5 852,-280.5"/>
<text text-anchor="middle" x="973" y="-287.5" font-family="Helvetica,sans-Serif" font-size="10.00">Liger&#45;Engine/RHI/ResourceVersionRegistry.hpp</text>
</a>
</g>
</g>
<!-- Node16&#45;&gt;Node38 -->
<g id="edge58" class="edge">
<title>Node16&#45;&gt;Node38</title>
<path fill="none" stroke="midnightblue" d="M1121.95,-336.44C1091.92,-327.28 1044.09,-312.69 1010.76,-302.52"/>
<polygon fill="midnightblue" stroke="midnightblue" points="1011.5,-299.09 1000.91,-299.52 1009.46,-305.78 1011.5,-299.09"/>
</g>
<!-- Node39 -->
<g id="node39" class="node">
<title>Node39</title>
<g id="a_node39"><a xlink:title=" ">
<polygon fill="white" stroke="#bfbfbf" points="960,-224.5 960,-243.5 1016,-243.5 1016,-224.5 960,-224.5"/>
<text text-anchor="middle" x="988" y="-231.5" font-family="Helvetica,sans-Serif" font-size="10.00">optional</text>
</a>
</g>
</g>
<!-- Node16&#45;&gt;Node39 -->
<g id="edge63" class="edge">
<title>Node16&#45;&gt;Node39</title>
<path fill="none" stroke="midnightblue" d="M1145.75,-336.19C1138.68,-322.4 1123.26,-295.69 1103,-280 1090.34,-270.2 1053.29,-256.51 1024.64,-246.81"/>
<polygon fill="midnightblue" stroke="midnightblue" points="1025.5,-243.41 1014.9,-243.56 1023.28,-250.05 1025.5,-243.41"/>
</g>
<!-- Node41 -->
<g id="node41" class="node">
<title>Node41</title>
<g id="a_node41"><a xlink:title=" ">
<polygon fill="white" stroke="#bfbfbf" points="1150,-280.5 1150,-299.5 1208,-299.5 1208,-280.5 1150,-280.5"/>
<text text-anchor="middle" x="1179" y="-287.5" font-family="Helvetica,sans-Serif" font-size="10.00">memory</text>
</a>
</g>
</g>
<!-- Node16&#45;&gt;Node41 -->
<g id="edge62" class="edge">
<title>Node16&#45;&gt;Node41</title>
<path fill="none" stroke="midnightblue" d="M1154.79,-336.08C1158.76,-328.69 1164.53,-317.95 1169.43,-308.81"/>
<polygon fill="midnightblue" stroke="midnightblue" points="1172.65,-310.22 1174.3,-299.75 1166.49,-306.91 1172.65,-310.22"/>
</g>
<!-- Node17&#45;&gt;Node4 -->
<g id="edge21" class="edge">
<title>Node17&#45;&gt;Node4</title>
<path fill="none" stroke="midnightblue" d="M153.28,-168.43C137.99,-155.21 113.4,-129.52 129,-112 272.11,48.74 396.1,-79.78 610,-56 754.44,-39.95 926.65,-22.12 999.58,-14.62"/>
<polygon fill="midnightblue" stroke="midnightblue" points="1000.01,-18.1 1009.6,-13.6 999.3,-11.14 1000.01,-18.1"/>
</g>
<!-- Node17&#45;&gt;Node15 -->
<g id="edge22" class="edge">
<title>Node17&#45;&gt;Node15</title>
<path fill="none" stroke="midnightblue" d="M163.67,-168.08C163.41,-161.01 163.03,-150.86 162.7,-141.99"/>
<polygon fill="midnightblue" stroke="midnightblue" points="166.19,-141.61 162.32,-131.75 159.2,-141.87 166.19,-141.61"/>
</g>
<!-- Node18 -->
<g id="node18" class="node">
<title>Node18</title>
<g id="a_node18"><a xlink:title=" ">
<polygon fill="white" stroke="#bfbfbf" points="30,-112.5 30,-131.5 82,-131.5 82,-112.5 30,-112.5"/>
<text text-anchor="middle" x="56" y="-119.5" font-family="Helvetica,sans-Serif" font-size="10.00">cassert</text>
</a>
</g>
</g>
<!-- Node17&#45;&gt;Node18 -->
<g id="edge20" class="edge">
<title>Node17&#45;&gt;Node18</title>
<path fill="none" stroke="midnightblue" d="M146.65,-168.32C129.33,-159.66 102.48,-146.24 82.5,-136.25"/>
<polygon fill="midnightblue" stroke="midnightblue" points="83.82,-133 73.31,-131.65 80.69,-139.26 83.82,-133"/>
</g>
<!-- Node19&#45;&gt;Node5 -->
<g id="edge26" class="edge">
<title>Node19&#45;&gt;Node5</title>
<path fill="none" stroke="midnightblue" d="M1705.42,-168.47C1621.45,-158.74 1484.42,-142.86 1396.52,-132.68"/>
<polygon fill="midnightblue" stroke="midnightblue" points="1396.92,-129.2 1386.58,-131.53 1396.11,-136.15 1396.92,-129.2"/>
</g>
<!-- Node19&#45;&gt;Node6 -->
<g id="edge25" class="edge">
<title>Node19&#45;&gt;Node6</title>
<path fill="none" stroke="midnightblue" d="M1780.95,-168.46C1783.48,-155.05 1786.26,-128.83 1774,-112 1762.15,-95.74 1743.37,-85.34 1724.66,-78.69"/>
<polygon fill="midnightblue" stroke="midnightblue" points="1725.51,-75.29 1714.92,-75.54 1723.36,-81.95 1725.51,-75.29"/>
</g>
<!-- Node19&#45;&gt;Node14 -->
<g id="edge34" class="edge">
<title>Node19&#45;&gt;Node14</title>
<path fill="none" stroke="midnightblue" d="M1768.24,-168.32C1758.23,-160.26 1743.11,-148.08 1731.07,-138.37"/>
<polygon fill="midnightblue" stroke="midnightblue" points="1732.94,-135.38 1722.96,-131.83 1728.55,-140.83 1732.94,-135.38"/>
</g>
<!-- Node20 -->
<g id="node20" class="node">
<title>Node20</title>
<g id="a_node20"><a xlink:href="_extent_8hpp.html" target="_top" xlink:title=" ">
<polygon fill="white" stroke="black" points="1482.5,-112.5 1482.5,-131.5 1635.5,-131.5 1635.5,-112.5 1482.5,-112.5"/>
<text text-anchor="middle" x="1559" y="-119.5" font-family="Helvetica,sans-Serif" font-size="10.00">Liger&#45;Engine/RHI/Extent.hpp</text>
</a>
</g>
</g>
<!-- Node19&#45;&gt;Node20 -->
<g id="edge27" class="edge">
<title>Node19&#45;&gt;Node20</title>
<path fill="none" stroke="midnightblue" d="M1744.14,-168.44C1706.08,-159.1 1645.04,-144.12 1603.54,-133.93"/>
<polygon fill="midnightblue" stroke="midnightblue" points="1604.24,-130.5 1593.7,-131.52 1602.57,-137.3 1604.24,-130.5"/>
</g>
<!-- Node21 -->
<g id="node21" class="node">
<title>Node21</title>
<g id="a_node21"><a xlink:href="_filter_8hpp.html" target="_top" xlink:title=" ">
<polygon fill="white" stroke="black" points="1149,-56.5 1149,-75.5 1295,-75.5 1295,-56.5 1149,-56.5"/>
<text text-anchor="middle" x="1222" y="-63.5" font-family="Helvetica,sans-Serif" font-size="10.00">Liger&#45;Engine/RHI/Filter.hpp</text>
</a>
</g>
</g>
<!-- Node19&#45;&gt;Node21 -->
<g id="edge29" class="edge">
<title>Node19&#45;&gt;Node21</title>
<path fill="none" stroke="midnightblue" d="M1776.78,-168.46C1772.53,-154.04 1761.77,-125.14 1741,-112 1705.12,-89.3 1442.58,-75.69 1305.24,-70.05"/>
<polygon fill="midnightblue" stroke="midnightblue" points="1305.3,-66.55 1295.17,-69.64 1305.02,-73.54 1305.3,-66.55"/>
</g>
<!-- Node22 -->
<g id="node22" class="node">
<title>Node22</title>
<g id="a_node22"><a xlink:href="_job_type_8hpp.html" target="_top" xlink:title=" ">
<polygon fill="white" stroke="black" points="1825.5,-112.5 1825.5,-131.5 1984.5,-131.5 1984.5,-112.5 1825.5,-112.5"/>
<text text-anchor="middle" x="1905" y="-119.5" font-family="Helvetica,sans-Serif" font-size="10.00">Liger&#45;Engine/RHI/JobType.hpp</text>
</a>
</g>
</g>
<!-- Node19&#45;&gt;Node22 -->
<g id="edge31" class="edge">
<title>Node19&#45;&gt;Node22</title>
<path fill="none" stroke="midnightblue" d="M1798.97,-168.44C1819.61,-159.6 1852.06,-145.69 1875.63,-135.59"/>
<polygon fill="midnightblue" stroke="midnightblue" points="1877.32,-138.67 1885.13,-131.52 1874.56,-132.24 1877.32,-138.67"/>
</g>
<!-- Node23 -->
<g id="node23" class="node">
<title>Node23</title>
<g id="a_node23"><a xlink:title=" ">
<polygon fill="white" stroke="#bfbfbf" points="2002.5,-112.5 2002.5,-131.5 2081.5,-131.5 2081.5,-112.5 2002.5,-112.5"/>
<text text-anchor="middle" x="2042" y="-119.5" font-family="Helvetica,sans-Serif" font-size="10.00">fmt/format.h</text>
</a>
</g>
</g>
<!-- Node19&#45;&gt;Node23 -->
<g id="edge32" class="edge">
<title>Node19&#45;&gt;Node23</title>
<path fill="none" stroke="midnightblue" d="M1820.67,-168.44C1867.29,-158.87 1942.75,-143.38 1992.37,-133.19"/>
<polygon fill="midnightblue" stroke="midnightblue" points="1993.15,-136.6 2002.24,-131.16 1991.74,-129.75 1993.15,-136.6"/>
</g>
<!-- Node24 -->
<g id="node24" class="node">
<title>Node24</title>
<g id="a_node24"><a xlink:title=" ">
<polygon fill="white" stroke="#bfbfbf" points="2100,-112.5 2100,-131.5 2178,-131.5 2178,-112.5 2100,-112.5"/>
<text text-anchor="middle" x="2139" y="-119.5" font-family="Helvetica,sans-Serif" font-size="10.00">glm/glm.hpp</text>
</a>
</g>
</g>
<!-- Node19&#45;&gt;Node24 -->
<g id="edge33" class="edge">
<title>Node19&#45;&gt;Node24</title>
<path fill="none" stroke="midnightblue" d="M1843.66,-168.48C1904.62,-160.27 1998.79,-147.11 2090.03,-132.1"/>
<polygon fill="midnightblue" stroke="midnightblue" points="2090.7,-135.54 2099.99,-130.46 2089.55,-128.63 2090.7,-135.54"/>
</g>
<!-- Node20&#45;&gt;Node4 -->
<g id="edge28" class="edge">
<title>Node20&#45;&gt;Node4</title>
<path fill="none" stroke="midnightblue" d="M1550.37,-112.41C1535.21,-97.92 1502.14,-68.92 1468,-56 1395.32,-28.49 1160.01,-16.14 1070.24,-12.34"/>
<polygon fill="midnightblue" stroke="midnightblue" points="1070.17,-8.84 1060.03,-11.92 1069.88,-15.83 1070.17,-8.84"/>
</g>
<!-- Node21&#45;&gt;Node4 -->
<g id="edge30" class="edge">
<title>Node21&#45;&gt;Node4</title>
<path fill="none" stroke="midnightblue" d="M1192.37,-56.44C1159.09,-46.83 1105.15,-31.26 1069.87,-21.07"/>
<polygon fill="midnightblue" stroke="midnightblue" points="1070.58,-17.63 1060,-18.22 1068.64,-24.36 1070.58,-17.63"/>
</g>
<!-- Node26 -->
<g id="node26" class="node">
<title>Node26</title>
<g id="a_node26"><a xlink:href="_r_h_i_2_log_channel_8hpp.html" target="_top" xlink:title=" ">
<polygon fill="white" stroke="black" points="1034.5,-224.5 1034.5,-243.5 1213.5,-243.5 1213.5,-224.5 1034.5,-224.5"/>
<text text-anchor="middle" x="1124" y="-231.5" font-family="Helvetica,sans-Serif" font-size="10.00">Liger&#45;Engine/RHI/LogChannel.hpp</text>
</a>
</g>
</g>
<!-- Node25&#45;&gt;Node26 -->
<g id="edge36" class="edge">
<title>Node25&#45;&gt;Node26</title>
<path fill="none" stroke="midnightblue" d="M1277.16,-280.44C1246.14,-271.24 1196.67,-256.56 1162.38,-246.39"/>
<polygon fill="midnightblue" stroke="midnightblue" points="1163.29,-243.01 1152.7,-243.52 1161.29,-249.72 1163.29,-243.01"/>
</g>
<!-- Node32 -->
<g id="node32" class="node">
<title>Node32</title>
<g id="a_node32"><a xlink:title=" ">
<polygon fill="white" stroke="#bfbfbf" points="1231.5,-224.5 1231.5,-243.5 1266.5,-243.5 1266.5,-224.5 1231.5,-224.5"/>
<text text-anchor="middle" x="1249" y="-231.5" font-family="Helvetica,sans-Serif" font-size="10.00">any</text>
</a>
</g>
</g>
<!-- Node25&#45;&gt;Node32 -->
<g id="edge46" class="edge">
<title>Node25&#45;&gt;Node32</title>
<path fill="none" stroke="midnightblue" d="M1296.84,-280.32C1288.5,-272.42 1275.97,-260.55 1265.82,-250.94"/>
<polygon fill="midnightblue" stroke="midnightblue" points="1267.99,-248.17 1258.32,-243.83 1263.18,-253.25 1267.99,-248.17"/>
</g>
<!-- Node33 -->
<g id="node33" class="node">
<title>Node33</title>
<g id="a_node33"><a xlink:title=" ">
<polygon fill="white" stroke="#bfbfbf" points="1284.5,-224.5 1284.5,-243.5 1349.5,-243.5 1349.5,-224.5 1284.5,-224.5"/>
<text text-anchor="middle" x="1317" y="-231.5" font-family="Helvetica,sans-Serif" font-size="10.00">typeindex</text>
</a>
</g>
</g>
<!-- Node25&#45;&gt;Node33 -->
<g id="edge47" class="edge">
<title>Node25&#45;&gt;Node33</title>
<path fill="none" stroke="midnightblue" d="M1307.82,-280.08C1309.27,-272.93 1311.37,-262.64 1313.19,-253.69"/>
<polygon fill="midnightblue" stroke="midnightblue" points="1316.65,-254.25 1315.22,-243.75 1309.79,-252.85 1316.65,-254.25"/>
</g>
<!-- Node25&#45;&gt;Node34 -->
<g id="edge48" class="edge">
<title>Node25&#45;&gt;Node34</title>
<path fill="none" stroke="midnightblue" d="M1323.35,-280.32C1340.67,-271.66 1367.52,-258.24 1387.5,-248.25"/>
<polygon fill="midnightblue" stroke="midnightblue" points="1389.31,-251.26 1396.69,-243.65 1386.18,-245 1389.31,-251.26"/>
</g>
<!-- Node27 -->
<g id="node27" class="node">
<title>Node27</title>
<g id="a_node27"><a xlink:href="_log_8hpp.html" target="_top" xlink:title=" ">
<polygon fill="white" stroke="black" points="634,-168.5 634,-187.5 798,-187.5 798,-168.5 634,-168.5"/>
<text text-anchor="middle" x="716" y="-175.5" font-family="Helvetica,sans-Serif" font-size="10.00">Liger&#45;Engine/Core/Log/Log.hpp</text>
</a>
</g>
</g>
<!-- Node26&#45;&gt;Node27 -->
<g id="edge37" class="edge">
<title>Node26&#45;&gt;Node27</title>
<path fill="none" stroke="midnightblue" d="M1059.35,-224.44C986.24,-214.77 867.38,-199.04 790.45,-188.85"/>
<polygon fill="midnightblue" stroke="midnightblue" points="790.72,-185.36 780.35,-187.52 789.8,-192.3 790.72,-185.36"/>
</g>
<!-- Node27&#45;&gt;Node15 -->
<g id="edge45" class="edge">
<title>Node27&#45;&gt;Node15</title>
<path fill="none" stroke="midnightblue" d="M633.98,-169.13C629.93,-168.75 625.92,-168.37 622,-168 449.14,-151.73 405.59,-150.92 233,-132 220.77,-130.66 207.38,-129.01 195.56,-127.49"/>
<polygon fill="midnightblue" stroke="midnightblue" points="196.01,-124.02 185.64,-126.2 195.11,-130.96 196.01,-124.02"/>
</g>
<!-- Node28 -->
<g id="node28" class="node">
<title>Node28</title>
<g id="a_node28"><a xlink:href="_message_8hpp.html" target="_top" xlink:title=" ">
<polygon fill="white" stroke="black" points="939.5,-56.5 939.5,-75.5 1130.5,-75.5 1130.5,-56.5 939.5,-56.5"/>
<text text-anchor="middle" x="1035" y="-63.5" font-family="Helvetica,sans-Serif" font-size="10.00">Liger&#45;Engine/Core/Log/Message.hpp</text>
</a>
</g>
</g>
<!-- Node27&#45;&gt;Node28 -->
<g id="edge38" class="edge">
<title>Node27&#45;&gt;Node28</title>
<path fill="none" stroke="midnightblue" d="M703.21,-168.47C685.31,-155.52 656.7,-130.46 673,-112 681.58,-102.28 827.38,-86.58 931.29,-76.53"/>
<polygon fill="midnightblue" stroke="midnightblue" points="931.9,-79.98 941.52,-75.54 931.23,-73.01 931.9,-79.98"/>
</g>
<!-- Node30 -->
<g id="node30" class="node">
<title>Node30</title>
<g id="a_node30"><a xlink:href="_writer_8hpp.html" target="_top" xlink:title=" ">
<polygon fill="white" stroke="black" points="768,-112.5 768,-131.5 944,-131.5 944,-112.5 768,-112.5"/>
<text text-anchor="middle" x="856" y="-119.5" font-family="Helvetica,sans-Serif" font-size="10.00">Liger&#45;Engine/Core/Log/Writer.hpp</text>
</a>
</g>
</g>
<!-- Node27&#45;&gt;Node30 -->
<g id="edge42" class="edge">
<title>Node27&#45;&gt;Node30</title>
<path fill="none" stroke="midnightblue" d="M738.18,-168.44C761.43,-159.48 798.15,-145.31 824.42,-135.18"/>
<polygon fill="midnightblue" stroke="midnightblue" points="825.85,-138.38 833.92,-131.52 823.33,-131.85 825.85,-138.38"/>
</g>
<!-- Node31 -->
<g id="node31" class="node">
<title>Node31</title>
<g id="a_node31"><a xlink:title=" ">
<polygon fill="white" stroke="#bfbfbf" points="682.5,-112.5 682.5,-131.5 749.5,-131.5 749.5,-112.5 682.5,-112.5"/>
<text text-anchor="middle" x="716" y="-119.5" font-family="Helvetica,sans-Serif" font-size="10.00">fmt/core.h</text>
</a>
</g>
</g>
<!-- Node27&#45;&gt;Node31 -->
<g id="edge44" class="edge">
<title>Node27&#45;&gt;Node31</title>
<path fill="none" stroke="midnightblue" d="M716,-168.08C716,-161.01 716,-150.86 716,-141.99"/>
<polygon fill="midnightblue" stroke="midnightblue" points="719.5,-141.75 716,-131.75 712.5,-141.75 719.5,-141.75"/>
</g>
<!-- Node28&#45;&gt;Node4 -->
<g id="edge39" class="edge">
<title>Node28&#45;&gt;Node4</title>
<path fill="none" stroke="midnightblue" d="M1035,-56.08C1035,-49.01 1035,-38.86 1035,-29.99"/>
<polygon fill="midnightblue" stroke="midnightblue" points="1038.5,-29.75 1035,-19.75 1031.5,-29.75 1038.5,-29.75"/>
</g>
<!-- Node28&#45;&gt;Node9 -->
<g id="edge40" class="edge">
<title>Node28&#45;&gt;Node9</title>
<path fill="none" stroke="midnightblue" d="M954.47,-56.47C840.27,-44.38 636.37,-22.79 557.44,-14.44"/>
<polygon fill="midnightblue" stroke="midnightblue" points="557.47,-10.92 547.16,-13.35 556.74,-17.88 557.47,-10.92"/>
</g>
<!-- Node28&#45;&gt;Node29 -->
<g id="edge41" class="edge">
<title>Node28&#45;&gt;Node29</title>
<path fill="none" stroke="midnightblue" d="M1130.56,-56.65C1133.74,-56.42 1136.9,-56.2 1140,-56 1494.9,-32.58 1923.57,-17.22 2063.99,-12.52"/>
<polygon fill="midnightblue" stroke="midnightblue" points="2064.5,-16.01 2074.38,-12.18 2064.27,-9.01 2064.5,-16.01"/>
</g>
<!-- Node30&#45;&gt;Node28 -->
<g id="edge43" class="edge">
<title>Node30&#45;&gt;Node28</title>
<path fill="none" stroke="midnightblue" d="M884.36,-112.44C914.74,-103.28 963.11,-88.69 996.82,-78.52"/>
<polygon fill="midnightblue" stroke="midnightblue" points="998.21,-81.76 1006.77,-75.52 996.18,-75.05 998.21,-81.76"/>
</g>
<!-- Node36 -->
<g id="node36" class="node">
<title>Node36</title>
<g id="a_node36"><a xlink:href="_texture_8hpp.html" target="_top" xlink:title=" ">
<polygon fill="white" stroke="black" points="952,-168.5 952,-187.5 1110,-187.5 1110,-168.5 952,-168.5"/>
<text text-anchor="middle" x="1031" y="-175.5" font-family="Helvetica,sans-Serif" font-size="10.00">Liger&#45;Engine/RHI/Texture.hpp</text>
</a>
</g>
</g>
<!-- Node35&#45;&gt;Node36 -->
<g id="edge50" class="edge">
<title>Node35&#45;&gt;Node36</title>
<path fill="none" stroke="midnightblue" d="M738.87,-280.43C769.36,-267.43 829.66,-242.3 882,-224 918.21,-211.34 960.08,-198.88 990.19,-190.3"/>
<polygon fill="midnightblue" stroke="midnightblue" points="991.26,-193.63 999.93,-187.54 989.35,-186.9 991.26,-193.63"/>
</g>
<!-- Node36&#45;&gt;Node3 -->
<g id="edge51" class="edge">
<title>Node36&#45;&gt;Node3</title>
<path fill="none" stroke="midnightblue" d="M951.87,-168.62C859.86,-158.88 708.29,-142.83 611.63,-132.6"/>
<polygon fill="midnightblue" stroke="midnightblue" points="611.89,-129.1 601.58,-131.53 611.15,-136.07 611.89,-129.1"/>
</g>
<!-- Node36&#45;&gt;Node5 -->
<g id="edge52" class="edge">
<title>Node36&#45;&gt;Node5</title>
<path fill="none" stroke="midnightblue" d="M1075.68,-168.44C1125.29,-158.94 1205.36,-143.61 1258.59,-133.42"/>
<polygon fill="midnightblue" stroke="midnightblue" points="1259.36,-136.83 1268.53,-131.52 1258.05,-129.96 1259.36,-136.83"/>
</g>
<!-- Node36&#45;&gt;Node9 -->
<g id="edge57" class="edge">
<title>Node36&#45;&gt;Node9</title>
<path fill="none" stroke="midnightblue" d="M1023.27,-168.36C1010.22,-154.33 982.33,-126.65 953,-112 815.97,-43.55 630.84,-20.36 557.17,-13.52"/>
<polygon fill="midnightblue" stroke="midnightblue" points="557.4,-10.03 547.13,-12.63 556.78,-17 557.4,-10.03"/>
</g>
<!-- Node36&#45;&gt;Node11 -->
<g id="edge54" class="edge">
<title>Node36&#45;&gt;Node11</title>
<path fill="none" stroke="midnightblue" d="M951.64,-172.07C835.01,-164.65 610.19,-149.67 408.44,-132.1"/>
<polygon fill="midnightblue" stroke="midnightblue" points="408.51,-128.59 398.24,-131.21 407.9,-135.57 408.51,-128.59"/>
</g>
<!-- Node36&#45;&gt;Node20 -->
<g id="edge53" class="edge">
<title>Node36&#45;&gt;Node20</title>
<path fill="none" stroke="midnightblue" d="M1110.05,-168.92C1207.25,-158.97 1371.69,-142.16 1472.29,-131.87"/>
<polygon fill="midnightblue" stroke="midnightblue" points="1472.83,-135.33 1482.42,-130.83 1472.12,-128.37 1472.83,-135.33"/>
</g>
<!-- Node37 -->
<g id="node37" class="node">
<title>Node37</title>
<g id="a_node37"><a xlink:href="_sampler_info_8hpp.html" target="_top" xlink:title=" ">
<polygon fill="white" stroke="black" points="1000.5,-112.5 1000.5,-131.5 1181.5,-131.5 1181.5,-112.5 1000.5,-112.5"/>
<text text-anchor="middle" x="1091" y="-119.5" font-family="Helvetica,sans-Serif" font-size="10.00">Liger&#45;Engine/RHI/SamplerInfo.hpp</text>
</a>
</g>
</g>
<!-- Node36&#45;&gt;Node37 -->
<g id="edge55" class="edge">
<title>Node36&#45;&gt;Node37</title>
<path fill="none" stroke="midnightblue" d="M1040.64,-168.32C1049.51,-160.34 1062.87,-148.31 1073.61,-138.65"/>
<polygon fill="midnightblue" stroke="midnightblue" points="1076.09,-141.13 1081.18,-131.83 1071.41,-135.92 1076.09,-141.13"/>
</g>
<!-- Node37&#45;&gt;Node21 -->
<g id="edge56" class="edge">
<title>Node37&#45;&gt;Node21</title>
<path fill="none" stroke="midnightblue" d="M1111.76,-112.44C1133.32,-103.56 1167.26,-89.56 1191.79,-79.45"/>
<polygon fill="midnightblue" stroke="midnightblue" points="1193.43,-82.56 1201.34,-75.52 1190.76,-76.09 1193.43,-82.56"/>
</g>
<!-- Node38&#45;&gt;Node15 -->
<g id="edge61" class="edge">
<title>Node38&#45;&gt;Node15</title>
<path fill="none" stroke="midnightblue" d="M865.25,-280.47C790.6,-273.47 689.17,-261.77 601,-244 480.05,-219.63 453.02,-200.51 334,-168 286.1,-154.92 230.49,-140.51 195.76,-131.61"/>
<polygon fill="midnightblue" stroke="midnightblue" points="196.25,-128.12 185.69,-129.03 194.51,-134.9 196.25,-128.12"/>
</g>
<!-- Node38&#45;&gt;Node39 -->
<g id="edge59" class="edge">
<title>Node38&#45;&gt;Node39</title>
<path fill="none" stroke="midnightblue" d="M975.48,-280.08C977.49,-272.85 980.39,-262.41 982.89,-253.4"/>
<polygon fill="midnightblue" stroke="midnightblue" points="986.26,-254.32 985.57,-243.75 979.52,-252.45 986.26,-254.32"/>
</g>
<!-- Node40 -->
<g id="node40" class="node">
<title>Node40</title>
<g id="a_node40"><a xlink:title=" ">
<polygon fill="white" stroke="#bfbfbf" points="890.5,-224.5 890.5,-243.5 941.5,-243.5 941.5,-224.5 890.5,-224.5"/>
<text text-anchor="middle" x="916" y="-231.5" font-family="Helvetica,sans-Serif" font-size="10.00">variant</text>
</a>
</g>
</g>
<!-- Node38&#45;&gt;Node40 -->
<g id="edge60" class="edge">
<title>Node38&#45;&gt;Node40</title>
<path fill="none" stroke="midnightblue" d="M963.84,-280.32C955.5,-272.42 942.97,-260.55 932.82,-250.94"/>
<polygon fill="midnightblue" stroke="midnightblue" points="934.99,-248.17 925.32,-243.83 930.18,-253.25 934.99,-248.17"/>
</g>
<!-- Node42&#45;&gt;Node14 -->
<g id="edge71" class="edge">
<title>Node42&#45;&gt;Node14</title>
<path fill="none" stroke="midnightblue" d="M1648.09,-224.09C1651.39,-211.08 1658.64,-186.43 1670,-168 1676.63,-157.24 1686.09,-146.83 1694.36,-138.73"/>
<polygon fill="midnightblue" stroke="midnightblue" points="1696.9,-141.14 1701.78,-131.74 1692.1,-136.04 1696.9,-141.14"/>
</g>
<!-- Node42&#45;&gt;Node36 -->
<g id="edge70" class="edge">
<title>Node42&#45;&gt;Node36</title>
<path fill="none" stroke="midnightblue" d="M1558.86,-225.35C1442.63,-215.14 1237.9,-197.17 1120.48,-186.86"/>
<polygon fill="midnightblue" stroke="midnightblue" points="1120.71,-183.36 1110.44,-185.98 1120.1,-190.34 1120.71,-183.36"/>
</g>
<!-- Node43 -->
<g id="node43" class="node">
<title>Node43</title>
<g id="a_node43"><a xlink:href="_window_8hpp.html" target="_top" xlink:title=" ">
<polygon fill="white" stroke="black" points="2006,-56.5 2006,-75.5 2216,-75.5 2216,-56.5 2006,-56.5"/>
<text text-anchor="middle" x="2111" y="-63.5" font-family="Helvetica,sans-Serif" font-size="10.00">Liger&#45;Engine/Core/Platform/Window.hpp</text>
</a>
</g>
</g>
<!-- Node42&#45;&gt;Node43 -->
<g id="edge68" class="edge">
<title>Node42&#45;&gt;Node43</title>
<path fill="none" stroke="midnightblue" d="M1733.05,-229.78C1871.07,-222.65 2130.32,-200.28 2187,-132 2204.26,-111.21 2172.44,-91.67 2144.84,-79.55"/>
<polygon fill="midnightblue" stroke="midnightblue" points="2145.91,-76.2 2135.34,-75.58 2143.21,-82.66 2145.91,-76.2"/>
</g>
<!-- Node43&#45;&gt;Node29 -->
<g id="edge69" class="edge">
<title>Node43&#45;&gt;Node29</title>
<path fill="none" stroke="midnightblue" d="M2111,-56.08C2111,-49.01 2111,-38.86 2111,-29.99"/>
<polygon fill="midnightblue" stroke="midnightblue" points="2114.5,-29.75 2111,-19.75 2107.5,-29.75 2114.5,-29.75"/>
</g>
</g>
</svg>
