<?xml version="1.0" encoding="UTF-8" standalone="no"?>
<!DOCTYPE svg PUBLIC "-//W3C//DTD SVG 1.1//EN"
 "http://www.w3.org/Graphics/SVG/1.1/DTD/svg11.dtd">
<!-- Generated by graphviz version 2.43.0 (0)
 -->
<!-- Title: Entity.hpp Pages: 1 -->
<svg width="1273pt" height="308pt"
 viewBox="0.00 0.00 1272.50 308.00" xmlns="http://www.w3.org/2000/svg" xmlns:xlink="http://www.w3.org/1999/xlink">
<g id="graph0" class="graph" transform="scale(1 1) rotate(0) translate(4 304)">
<title>Entity.hpp</title>
<polygon fill="white" stroke="transparent" points="-4,4 -4,-304 1268.5,-304 1268.5,4 -4,4"/>
<!-- Node1 -->
<g id="node1" class="node">
<title>Node1</title>
<g id="a_node1"><a xlink:title=" ">
<polygon fill="#bfbfbf" stroke="black" points="719,-280.5 719,-299.5 784,-299.5 784,-280.5 719,-280.5"/>
<text text-anchor="middle" x="751.5" y="-287.5" font-family="Helvetica,sans-Serif" font-size="10.00">Entity.hpp</text>
</a>
</g>
</g>
<!-- Node2 -->
<g id="node2" class="node">
<title>Node2</title>
<g id="a_node2"><a xlink:href="_scene_8hpp.html" target="_top" xlink:title=" ">
<polygon fill="white" stroke="black" points="718,-224.5 718,-243.5 785,-243.5 785,-224.5 718,-224.5"/>
<text text-anchor="middle" x="751.5" y="-231.5" font-family="Helvetica,sans-Serif" font-size="10.00">Scene.hpp</text>
</a>
</g>
</g>
<!-- Node1&#45;&gt;Node2 -->
<g id="edge1" class="edge">
<title>Node1&#45;&gt;Node2</title>
<path fill="none" stroke="midnightblue" d="M751.5,-269.8C751.5,-260.91 751.5,-250.78 751.5,-243.75"/>
<polygon fill="midnightblue" stroke="midnightblue" points="748,-270.08 751.5,-280.08 755,-270.08 748,-270.08"/>
</g>
<!-- Node3 -->
<g id="node3" class="node">
<title>Node3</title>
<g id="a_node3"><a xlink:href="_default_components_8hpp.html" target="_top" xlink:title=" ">
<polygon fill="white" stroke="black" points="666,-56.5 666,-75.5 801,-75.5 801,-56.5 666,-56.5"/>
<text text-anchor="middle" x="733.5" y="-63.5" font-family="Helvetica,sans-Serif" font-size="10.00">DefaultComponents.hpp</text>
</a>
</g>
</g>
<!-- Node2&#45;&gt;Node3 -->
<g id="edge2" class="edge">
<title>Node2&#45;&gt;Node3</title>
<path fill="none" stroke="midnightblue" d="M749.43,-213.93C745.53,-177.92 737.21,-101.23 734.43,-75.57"/>
<polygon fill="midnightblue" stroke="midnightblue" points="745.97,-214.51 750.53,-224.08 752.93,-213.76 745.97,-214.51"/>
</g>
<!-- Node12 -->
<g id="node12" class="node">
<title>Node12</title>
<g id="a_node12"><a xlink:href="_script_8hpp.html" target="_top" xlink:title=" ">
<polygon fill="white" stroke="black" points="658,-112.5 658,-131.5 723,-131.5 723,-112.5 658,-112.5"/>
<text text-anchor="middle" x="690.5" y="-119.5" font-family="Helvetica,sans-Serif" font-size="10.00">Script.hpp</text>
</a>
</g>
</g>
<!-- Node2&#45;&gt;Node12 -->
<g id="edge11" class="edge">
<title>Node2&#45;&gt;Node12</title>
<path fill="none" stroke="midnightblue" d="M741.7,-215.32C728.41,-191.37 705.22,-149.55 695.26,-131.59"/>
<polygon fill="midnightblue" stroke="midnightblue" points="738.8,-217.32 746.71,-224.37 744.92,-213.93 738.8,-217.32"/>
</g>
<!-- Node14 -->
<g id="node14" class="node">
<title>Node14</title>
<g id="a_node14"><a xlink:href="_system_8hpp.html" target="_top" xlink:title=" ">
<polygon fill="white" stroke="black" points="921.5,-168.5 921.5,-187.5 995.5,-187.5 995.5,-168.5 921.5,-168.5"/>
<text text-anchor="middle" x="958.5" y="-175.5" font-family="Helvetica,sans-Serif" font-size="10.00">System.hpp</text>
</a>
</g>
</g>
<!-- Node2&#45;&gt;Node14 -->
<g id="edge14" class="edge">
<title>Node2&#45;&gt;Node14</title>
<path fill="none" stroke="midnightblue" d="M794.32,-221.83C833.41,-211.63 890.33,-196.78 925.85,-187.52"/>
<polygon fill="midnightblue" stroke="midnightblue" points="793.09,-218.53 784.3,-224.44 794.86,-225.31 793.09,-218.53"/>
</g>
<!-- Node4 -->
<g id="node4" class="node">
<title>Node4</title>
<g id="a_node4"><a xlink:href="_camera_aspect_system_8hpp.html" target="_top" xlink:title=" ">
<polygon fill="white" stroke="black" points="998.5,-0.5 998.5,-19.5 1144.5,-19.5 1144.5,-0.5 998.5,-0.5"/>
<text text-anchor="middle" x="1071.5" y="-7.5" font-family="Helvetica,sans-Serif" font-size="10.00">CameraAspectSystem.hpp</text>
</a>
</g>
</g>
<!-- Node3&#45;&gt;Node4 -->
<g id="edge3" class="edge">
<title>Node3&#45;&gt;Node4</title>
<path fill="none" stroke="midnightblue" d="M797.01,-54.85C860.87,-44.65 958.22,-29.1 1018.19,-19.52"/>
<polygon fill="midnightblue" stroke="midnightblue" points="796.38,-51.41 787.06,-56.44 797.48,-58.32 796.38,-51.41"/>
</g>
<!-- Node5 -->
<g id="node5" class="node">
<title>Node5</title>
<g id="a_node5"><a xlink:href="_script_system_8hpp.html" target="_top" xlink:title=" ">
<polygon fill="white" stroke="black" points="1162.5,-0.5 1162.5,-19.5 1264.5,-19.5 1264.5,-0.5 1162.5,-0.5"/>
<text text-anchor="middle" x="1213.5" y="-7.5" font-family="Helvetica,sans-Serif" font-size="10.00">ScriptSystem.hpp</text>
</a>
</g>
</g>
<!-- Node3&#45;&gt;Node5 -->
<g id="edge4" class="edge">
<title>Node3&#45;&gt;Node5</title>
<path fill="none" stroke="midnightblue" d="M811.27,-57.66C895.67,-49.46 1034.33,-35.31 1153.5,-20 1156.43,-19.62 1159.43,-19.22 1162.46,-18.81"/>
<polygon fill="midnightblue" stroke="midnightblue" points="810.87,-54.18 801.25,-58.63 811.54,-61.15 810.87,-54.18"/>
</g>
<!-- Node6 -->
<g id="node6" class="node">
<title>Node6</title>
<g id="a_node6"><a xlink:href="_bloom_feature_8hpp.html" target="_top" xlink:title=" ">
<polygon fill="white" stroke="black" points="548.5,-0.5 548.5,-19.5 654.5,-19.5 654.5,-0.5 548.5,-0.5"/>
<text text-anchor="middle" x="601.5" y="-7.5" font-family="Helvetica,sans-Serif" font-size="10.00">BloomFeature.hpp</text>
</a>
</g>
</g>
<!-- Node3&#45;&gt;Node6 -->
<g id="edge5" class="edge">
<title>Node3&#45;&gt;Node6</title>
<path fill="none" stroke="midnightblue" d="M703.28,-52.64C678.51,-42.5 644.1,-28.43 622.32,-19.52"/>
<polygon fill="midnightblue" stroke="midnightblue" points="702,-55.9 712.58,-56.44 704.65,-49.42 702,-55.9"/>
</g>
<!-- Node7 -->
<g id="node7" class="node">
<title>Node7</title>
<g id="a_node7"><a xlink:href="_camera_data_collector_8hpp.html" target="_top" xlink:title=" ">
<polygon fill="white" stroke="black" points="672.5,-0.5 672.5,-19.5 814.5,-19.5 814.5,-0.5 672.5,-0.5"/>
<text text-anchor="middle" x="743.5" y="-7.5" font-family="Helvetica,sans-Serif" font-size="10.00">CameraDataCollector.hpp</text>
</a>
</g>
</g>
<!-- Node3&#45;&gt;Node7 -->
<g id="edge6" class="edge">
<title>Node3&#45;&gt;Node7</title>
<path fill="none" stroke="midnightblue" d="M737,-46.1C738.66,-37.14 740.56,-26.86 741.88,-19.75"/>
<polygon fill="midnightblue" stroke="midnightblue" points="733.53,-45.61 735.15,-56.08 740.41,-46.89 733.53,-45.61"/>
</g>
<!-- Node8 -->
<g id="node8" class="node">
<title>Node8</title>
<g id="a_node8"><a xlink:href="_forward_render_feature_8hpp.html" target="_top" xlink:title=" ">
<polygon fill="white" stroke="black" points="832.5,-0.5 832.5,-19.5 980.5,-19.5 980.5,-0.5 832.5,-0.5"/>
<text text-anchor="middle" x="906.5" y="-7.5" font-family="Helvetica,sans-Serif" font-size="10.00">ForwardRenderFeature.hpp</text>
</a>
</g>
</g>
<!-- Node3&#45;&gt;Node8 -->
<g id="edge7" class="edge">
<title>Node3&#45;&gt;Node8</title>
<path fill="none" stroke="midnightblue" d="M770.55,-53.44C803.16,-43.26 849.91,-28.66 879.22,-19.52"/>
<polygon fill="midnightblue" stroke="midnightblue" points="769.42,-50.12 760.91,-56.44 771.5,-56.8 769.42,-50.12"/>
</g>
<!-- Node9 -->
<g id="node9" class="node">
<title>Node9</title>
<g id="a_node9"><a xlink:href="_particle_system_feature_8hpp.html" target="_top" xlink:title=" ">
<polygon fill="white" stroke="black" points="99,-0.5 99,-19.5 246,-19.5 246,-0.5 99,-0.5"/>
<text text-anchor="middle" x="172.5" y="-7.5" font-family="Helvetica,sans-Serif" font-size="10.00">ParticleSystemFeature.hpp</text>
</a>
</g>
</g>
<!-- Node3&#45;&gt;Node9 -->
<g id="edge8" class="edge">
<title>Node3&#45;&gt;Node9</title>
<path fill="none" stroke="midnightblue" d="M655.75,-56.82C652.96,-56.54 650.21,-56.27 647.5,-56 473.38,-38.89 429.58,-37.43 255.5,-20 252.47,-19.7 249.38,-19.38 246.26,-19.06"/>
<polygon fill="midnightblue" stroke="midnightblue" points="655.6,-60.32 665.91,-57.84 656.31,-53.36 655.6,-60.32"/>
</g>
<!-- Node10 -->
<g id="node10" class="node">
<title>Node10</title>
<g id="a_node10"><a xlink:href="_static_mesh_feature_8hpp.html" target="_top" xlink:title=" ">
<polygon fill="white" stroke="black" points="264.5,-0.5 264.5,-19.5 392.5,-19.5 392.5,-0.5 264.5,-0.5"/>
<text text-anchor="middle" x="328.5" y="-7.5" font-family="Helvetica,sans-Serif" font-size="10.00">StaticMeshFeature.hpp</text>
</a>
</g>
</g>
<!-- Node3&#45;&gt;Node10 -->
<g id="edge9" class="edge">
<title>Node3&#45;&gt;Node10</title>
<path fill="none" stroke="midnightblue" d="M659.28,-55.1C582.81,-44.91 464.82,-29.18 392.37,-19.52"/>
<polygon fill="midnightblue" stroke="midnightblue" points="658.95,-58.59 669.33,-56.44 659.88,-51.65 658.95,-58.59"/>
</g>
<!-- Node11 -->
<g id="node11" class="node">
<title>Node11</title>
<g id="a_node11"><a xlink:href="_tonemap_feature_8hpp.html" target="_top" xlink:title=" ">
<polygon fill="white" stroke="black" points="411,-0.5 411,-19.5 530,-19.5 530,-0.5 411,-0.5"/>
<text text-anchor="middle" x="470.5" y="-7.5" font-family="Helvetica,sans-Serif" font-size="10.00">TonemapFeature.hpp</text>
</a>
</g>
</g>
<!-- Node3&#45;&gt;Node11 -->
<g id="edge10" class="edge">
<title>Node3&#45;&gt;Node11</title>
<path fill="none" stroke="midnightblue" d="M681.92,-54.41C632.22,-44.2 557.97,-28.96 511.98,-19.52"/>
<polygon fill="midnightblue" stroke="midnightblue" points="681.33,-57.86 691.83,-56.44 682.74,-51 681.33,-57.86"/>
</g>
<!-- Node12&#45;&gt;Node3 -->
<g id="edge13" class="edge">
<title>Node12&#45;&gt;Node3</title>
<path fill="none" stroke="midnightblue" d="M703.92,-104.14C711.41,-94.74 720.44,-83.4 726.53,-75.75"/>
<polygon fill="midnightblue" stroke="midnightblue" points="701.09,-102.08 697.6,-112.08 706.57,-106.44 701.09,-102.08"/>
</g>
<!-- Node13 -->
<g id="node13" class="node">
<title>Node13</title>
<g id="a_node13"><a xlink:href="_camera_movement_script_8hpp.html" target="_top" xlink:title=" ">
<polygon fill="white" stroke="black" points="390.5,-56.5 390.5,-75.5 546.5,-75.5 546.5,-56.5 390.5,-56.5"/>
<text text-anchor="middle" x="468.5" y="-63.5" font-family="Helvetica,sans-Serif" font-size="10.00">CameraMovementScript.hpp</text>
</a>
</g>
</g>
<!-- Node12&#45;&gt;Node13 -->
<g id="edge12" class="edge">
<title>Node12&#45;&gt;Node13</title>
<path fill="none" stroke="midnightblue" d="M647.83,-110.62C605.91,-100.42 542.69,-85.05 503.59,-75.54"/>
<polygon fill="midnightblue" stroke="midnightblue" points="647.2,-114.07 657.74,-113.03 648.85,-107.27 647.2,-114.07"/>
</g>
<!-- Node14&#45;&gt;Node4 -->
<g id="edge15" class="edge">
<title>Node14&#45;&gt;Node4</title>
<path fill="none" stroke="midnightblue" d="M970.23,-159.76C994.18,-124.59 1047.9,-45.68 1065.67,-19.57"/>
<polygon fill="midnightblue" stroke="midnightblue" points="967.31,-157.84 964.58,-168.08 973.1,-161.78 967.31,-157.84"/>
</g>
<!-- Node14&#45;&gt;Node5 -->
<g id="edge16" class="edge">
<title>Node14&#45;&gt;Node5</title>
<path fill="none" stroke="midnightblue" d="M980.55,-162.65C1032.05,-129.12 1158.98,-46.49 1200.28,-19.61"/>
<polygon fill="midnightblue" stroke="midnightblue" points="978.32,-159.92 971.85,-168.31 982.14,-165.79 978.32,-159.92"/>
</g>
<!-- Node15 -->
<g id="node15" class="node">
<title>Node15</title>
<g id="a_node15"><a xlink:href="_system_graph_8hpp.html" target="_top" xlink:title=" ">
<polygon fill="white" stroke="black" points="849.5,-112.5 849.5,-131.5 953.5,-131.5 953.5,-112.5 849.5,-112.5"/>
<text text-anchor="middle" x="901.5" y="-119.5" font-family="Helvetica,sans-Serif" font-size="10.00">SystemGraph.hpp</text>
</a>
</g>
</g>
<!-- Node14&#45;&gt;Node15 -->
<g id="edge17" class="edge">
<title>Node14&#45;&gt;Node15</title>
<path fill="none" stroke="midnightblue" d="M941.88,-161.25C931.77,-151.67 919.22,-139.79 910.82,-131.83"/>
<polygon fill="midnightblue" stroke="midnightblue" points="939.68,-163.99 949.34,-168.32 944.49,-158.91 939.68,-163.99"/>
</g>
<!-- Node16 -->
<g id="node16" class="node">
<title>Node16</title>
<g id="a_node16"><a xlink:href="_feature_8hpp.html" target="_top" xlink:title=" ">
<polygon fill="white" stroke="black" points="564.5,-56.5 564.5,-75.5 638.5,-75.5 638.5,-56.5 564.5,-56.5"/>
<text text-anchor="middle" x="601.5" y="-63.5" font-family="Helvetica,sans-Serif" font-size="10.00">Feature.hpp</text>
</a>
</g>
</g>
<!-- Node15&#45;&gt;Node16 -->
<g id="edge18" class="edge">
<title>Node15&#45;&gt;Node16</title>
<path fill="none" stroke="midnightblue" d="M843.82,-110.62C783.41,-99.74 690.3,-82.98 638.86,-73.73"/>
<polygon fill="midnightblue" stroke="midnightblue" points="843.5,-114.12 853.96,-112.44 844.74,-107.23 843.5,-114.12"/>
</g>
<!-- Node16&#45;&gt;Node6 -->
<g id="edge19" class="edge">
<title>Node16&#45;&gt;Node6</title>
<path fill="none" stroke="midnightblue" d="M601.5,-45.8C601.5,-36.91 601.5,-26.78 601.5,-19.75"/>
<polygon fill="midnightblue" stroke="midnightblue" points="598,-46.08 601.5,-56.08 605,-46.08 598,-46.08"/>
</g>
<!-- Node16&#45;&gt;Node7 -->
<g id="edge20" class="edge">
<title>Node16&#45;&gt;Node7</title>
<path fill="none" stroke="midnightblue" d="M633.66,-52.77C660.33,-42.63 697.57,-28.47 721.1,-19.52"/>
<polygon fill="midnightblue" stroke="midnightblue" points="632.1,-49.62 624,-56.44 634.59,-56.16 632.1,-49.62"/>
</g>
<!-- Node16&#45;&gt;Node8 -->
<g id="edge21" class="edge">
<title>Node16&#45;&gt;Node8</title>
<path fill="none" stroke="midnightblue" d="M648.77,-56.63C705.77,-46.54 801.02,-29.67 858.39,-19.52"/>
<polygon fill="midnightblue" stroke="midnightblue" points="647.83,-53.24 638.59,-58.43 649.05,-60.14 647.83,-53.24"/>
</g>
<!-- Node16&#45;&gt;Node9 -->
<g id="edge22" class="edge">
<title>Node16&#45;&gt;Node9</title>
<path fill="none" stroke="midnightblue" d="M554.43,-55.96C483.09,-45.32 335.94,-28.81 246.29,-18.99"/>
<polygon fill="midnightblue" stroke="midnightblue" points="553.97,-59.43 564.39,-57.49 555.03,-52.51 553.97,-59.43"/>
</g>
<!-- Node16&#45;&gt;Node10 -->
<g id="edge23" class="edge">
<title>Node16&#45;&gt;Node10</title>
<path fill="none" stroke="midnightblue" d="M554.55,-55.71C503.23,-45.56 421.68,-29.43 371.83,-19.57"/>
<polygon fill="midnightblue" stroke="midnightblue" points="553.91,-59.15 564.4,-57.66 555.27,-52.29 553.91,-59.15"/>
</g>
<!-- Node16&#45;&gt;Node11 -->
<g id="edge24" class="edge">
<title>Node16&#45;&gt;Node11</title>
<path fill="none" stroke="midnightblue" d="M571.18,-52.5C546.62,-42.38 512.68,-28.39 491.16,-19.52"/>
<polygon fill="midnightblue" stroke="midnightblue" points="570.16,-55.87 580.74,-56.44 572.83,-49.4 570.16,-55.87"/>
</g>
<!-- Node17 -->
<g id="node17" class="node">
<title>Node17</title>
<g id="a_node17"><a xlink:href="_renderer_8hpp.html" target="_top" xlink:title=" ">
<polygon fill="white" stroke="black" points="0,-0.5 0,-19.5 81,-19.5 81,-0.5 0,-0.5"/>
<text text-anchor="middle" x="40.5" y="-7.5" font-family="Helvetica,sans-Serif" font-size="10.00">Renderer.hpp</text>
</a>
</g>
</g>
<!-- Node16&#45;&gt;Node17 -->
<g id="edge25" class="edge">
<title>Node16&#45;&gt;Node17</title>
<path fill="none" stroke="midnightblue" d="M554.46,-56.02C347.94,-28.59 292.27,-46.38 89.5,-20 86.76,-19.64 83.93,-19.23 81.09,-18.79"/>
<polygon fill="midnightblue" stroke="midnightblue" points="554.03,-59.49 564.4,-57.36 554.96,-52.55 554.03,-59.49"/>
</g>
</g>
</svg>
