<?xml version="1.0" encoding="UTF-8" standalone="no"?>
<!DOCTYPE svg PUBLIC "-//W3C//DTD SVG 1.1//EN"
 "http://www.w3.org/Graphics/SVG/1.1/DTD/svg11.dtd">
<!-- Generated by graphviz version 2.43.0 (0)
 -->
<!-- Title: EnumBitmask.hpp Pages: 1 -->
<!--zoomable 532 -->
<svg id="main" version="1.1" xmlns="http://www.w3.org/2000/svg" xmlns:xlink="http://www.w3.org/1999/xlink" xml:space="preserve" onload="init(evt)">
<style type="text/css"><![CDATA[
.edge:hover path { stroke: red; }
.edge:hover polygon { stroke: red; fill: red; }
]]></style>
<script type="text/javascript"><![CDATA[
var edges = document.getElementsByTagName('g');
if (edges && edges.length) {
  for (var i=0;i<edges.length;i++) {
    if (edges[i].id.substr(0,4)=='edge') {
      edges[i].setAttribute('class','edge');
    }
  }
}
]]></script>
        <defs>
                <circle id="rim" cx="0" cy="0" r="7"/>
                <circle id="rim2" cx="0" cy="0" r="3.5"/>
                <g id="zoomPlus">
                        <use xlink:href="#rim" fill="#404040">
                                <set attributeName="fill" to="#808080" begin="zoomplus.mouseover" end="zoomplus.mouseout"/>
                        </use>
                        <path d="M-4,0h8M0,-4v8" fill="none" stroke="white" stroke-width="1.5" pointer-events="none"/>
                </g>
                <g id="zoomMin">
                        <use xlink:href="#rim" fill="#404040">
                                <set attributeName="fill" to="#808080" begin="zoomminus.mouseover" end="zoomminus.mouseout"/>
                        </use>
                        <path d="M-4,0h8" fill="none" stroke="white" stroke-width="1.5" pointer-events="none"/>
                </g>
                <g id="dirArrow">
                        <path fill="none" stroke="white" stroke-width="1.5" d="M0,-3.0v7 M-2.5,-0.5L0,-3.0L2.5,-0.5"/>
                </g>
               <g id="resetDef">
                       <use xlink:href="#rim2" fill="#404040">
                               <set attributeName="fill" to="#808080" begin="reset.mouseover" end="reset.mouseout"/>
                       </use>
               </g>
        </defs>

<script type="text/javascript">
var viewWidth = 1263;
var viewHeight = 532;
var sectionId = 'dynsection-1';
</script>
<script xlink:href="svgpan.js"/>
<svg id="graph" class="graph">
<g id="viewport">
<title>EnumBitmask.hpp</title>
<polygon fill="white" stroke="transparent" points="-4,4 -4,-528 1258.5,-528 1258.5,4 -4,4"/>
<!-- Node1 -->
<g id="node1" class="node">
<title>Node1</title>
<g id="a_node1"><a xlink:title=" ">
<polygon fill="#bfbfbf" stroke="black" points="285.5,-504.5 285.5,-523.5 391.5,-523.5 391.5,-504.5 285.5,-504.5"/>
<text text-anchor="middle" x="338.5" y="-511.5" font-family="Helvetica,sans-Serif" font-size="10.00">EnumBitmask.hpp</text>
</a>
</g>
</g>
<!-- Node2 -->
<g id="node2" class="node">
<title>Node2</title>
<g id="a_node2"><a xlink:href="_command_buffer_8hpp.html" target="_top" xlink:title=" ">
<polygon fill="white" stroke="black" points="167.5,-392.5 167.5,-411.5 283.5,-411.5 283.5,-392.5 167.5,-392.5"/>
<text text-anchor="middle" x="225.5" y="-399.5" font-family="Helvetica,sans-Serif" font-size="10.00">CommandBuffer.hpp</text>
</a>
</g>
</g>
<!-- Node1&#45;&gt;Node2 -->
<g id="edge1" class="edge">
<title>Node1&#45;&gt;Node2</title>
<path fill="none" stroke="midnightblue" d="M305.99,-500.1C290.16,-492.57 271.74,-481.82 258.5,-468 242.39,-451.19 232.39,-424.96 228.04,-411.54"/>
<polygon fill="midnightblue" stroke="midnightblue" points="304.88,-503.44 315.44,-504.37 307.77,-497.06 304.88,-503.44"/>
</g>
<!-- Node23 -->
<g id="node23" class="node">
<title>Node23</title>
<g id="a_node23"><a xlink:href="_device_resource_state_8hpp.html" target="_top" xlink:title=" ">
<polygon fill="white" stroke="black" points="267.5,-448.5 267.5,-467.5 409.5,-467.5 409.5,-448.5 267.5,-448.5"/>
<text text-anchor="middle" x="338.5" y="-455.5" font-family="Helvetica,sans-Serif" font-size="10.00">DeviceResourceState.hpp</text>
</a>
</g>
</g>
<!-- Node1&#45;&gt;Node23 -->
<g id="edge34" class="edge">
<title>Node1&#45;&gt;Node23</title>
<path fill="none" stroke="midnightblue" d="M338.5,-493.8C338.5,-484.91 338.5,-474.78 338.5,-467.75"/>
<polygon fill="midnightblue" stroke="midnightblue" points="335,-494.08 338.5,-504.08 342,-494.08 335,-494.08"/>
</g>
<!-- Node28 -->
<g id="node28" class="node">
<title>Node28</title>
<g id="a_node28"><a xlink:href="_shader_module_8hpp.html" target="_top" xlink:title=" ">
<polygon fill="white" stroke="black" points="432,-392.5 432,-411.5 539,-411.5 539,-392.5 432,-392.5"/>
<text text-anchor="middle" x="485.5" y="-399.5" font-family="Helvetica,sans-Serif" font-size="10.00">ShaderModule.hpp</text>
</a>
</g>
</g>
<!-- Node1&#45;&gt;Node28 -->
<g id="edge44" class="edge">
<title>Node1&#45;&gt;Node28</title>
<path fill="none" stroke="midnightblue" d="M366.11,-499.72C382.04,-491.52 402.11,-480.24 418.5,-468 442.14,-450.35 466.03,-424.95 477.87,-411.73"/>
<polygon fill="midnightblue" stroke="midnightblue" points="364.15,-496.79 356.79,-504.41 367.29,-503.04 364.15,-496.79"/>
</g>
<!-- Node3 -->
<g id="node3" class="node">
<title>Node3</title>
<g id="a_node3"><a xlink:href="_render_graph_8hpp.html" target="_top" xlink:title=" ">
<polygon fill="white" stroke="black" points="195,-280.5 195,-299.5 296,-299.5 296,-280.5 195,-280.5"/>
<text text-anchor="middle" x="245.5" y="-287.5" font-family="Helvetica,sans-Serif" font-size="10.00">RenderGraph.hpp</text>
</a>
</g>
</g>
<!-- Node2&#45;&gt;Node3 -->
<g id="edge2" class="edge">
<title>Node2&#45;&gt;Node3</title>
<path fill="none" stroke="midnightblue" d="M200.07,-387.16C180.83,-374.74 159.45,-355.52 170.5,-336 180.67,-318.03 201.21,-306.45 218.22,-299.55"/>
<polygon fill="midnightblue" stroke="midnightblue" points="198.27,-390.16 208.64,-392.36 201.91,-384.18 198.27,-390.16"/>
</g>
<!-- Node4 -->
<g id="node4" class="node">
<title>Node4</title>
<g id="a_node4"><a xlink:href="_clustered_light_data_8hpp.html" target="_top" xlink:title=" ">
<polygon fill="white" stroke="black" points="20,-112.5 20,-131.5 151,-131.5 151,-112.5 20,-112.5"/>
<text text-anchor="middle" x="85.5" y="-119.5" font-family="Helvetica,sans-Serif" font-size="10.00">ClusteredLightData.hpp</text>
</a>
</g>
</g>
<!-- Node3&#45;&gt;Node4 -->
<g id="edge3" class="edge">
<title>Node3&#45;&gt;Node4</title>
<path fill="none" stroke="midnightblue" d="M184.98,-278.32C163.08,-271.72 139.77,-261.09 123.5,-244 92.38,-211.31 86.73,-153.38 85.72,-131.6"/>
<polygon fill="midnightblue" stroke="midnightblue" points="184.34,-281.78 194.91,-281.08 186.21,-275.03 184.34,-281.78"/>
</g>
<!-- Node6 -->
<g id="node6" class="node">
<title>Node6</title>
<g id="a_node6"><a xlink:href="_output_texture_8hpp.html" target="_top" xlink:title=" ">
<polygon fill="white" stroke="black" points="133,-224.5 133,-243.5 240,-243.5 240,-224.5 133,-224.5"/>
<text text-anchor="middle" x="186.5" y="-231.5" font-family="Helvetica,sans-Serif" font-size="10.00">OutputTexture.hpp</text>
</a>
</g>
</g>
<!-- Node3&#45;&gt;Node6 -->
<g id="edge5" class="edge">
<title>Node3&#45;&gt;Node6</title>
<path fill="none" stroke="midnightblue" d="M228.61,-273.54C218.09,-263.91 204.93,-251.87 196.15,-243.83"/>
<polygon fill="midnightblue" stroke="midnightblue" points="226.28,-276.15 236.02,-280.32 231.01,-270.99 226.28,-276.15"/>
</g>
<!-- Node7 -->
<g id="node7" class="node">
<title>Node7</title>
<g id="a_node7"><a xlink:href="_feature_8hpp.html" target="_top" xlink:title=" ">
<polygon fill="white" stroke="black" points="489.5,-112.5 489.5,-131.5 563.5,-131.5 563.5,-112.5 489.5,-112.5"/>
<text text-anchor="middle" x="526.5" y="-119.5" font-family="Helvetica,sans-Serif" font-size="10.00">Feature.hpp</text>
</a>
</g>
</g>
<!-- Node3&#45;&gt;Node7 -->
<g id="edge7" class="edge">
<title>Node3&#45;&gt;Node7</title>
<path fill="none" stroke="midnightblue" d="M256.97,-271.92C275.56,-245.58 314.83,-195.24 360.5,-168 400.76,-143.99 454.08,-132.5 489.29,-127.21"/>
<polygon fill="midnightblue" stroke="midnightblue" points="253.88,-270.24 251.08,-280.46 259.64,-274.21 253.88,-270.24"/>
</g>
<!-- Node15 -->
<g id="node15" class="node">
<title>Node15</title>
<g id="a_node15"><a xlink:href="_device_8hpp.html" target="_top" xlink:title=" ">
<polygon fill="white" stroke="black" points="397,-224.5 397,-243.5 468,-243.5 468,-224.5 397,-224.5"/>
<text text-anchor="middle" x="432.5" y="-231.5" font-family="Helvetica,sans-Serif" font-size="10.00">Device.hpp</text>
</a>
</g>
</g>
<!-- Node3&#45;&gt;Node15 -->
<g id="edge16" class="edge">
<title>Node3&#45;&gt;Node15</title>
<path fill="none" stroke="midnightblue" d="M285.09,-277.57C320.37,-267.38 371.19,-252.7 403.01,-243.52"/>
<polygon fill="midnightblue" stroke="midnightblue" points="283.77,-274.31 275.13,-280.44 285.71,-281.03 283.77,-274.31"/>
</g>
<!-- Node5 -->
<g id="node5" class="node">
<title>Node5</title>
<g id="a_node5"><a xlink:href="_clustered_light_feature_8hpp.html" target="_top" xlink:title=" ">
<polygon fill="white" stroke="black" points="0,-56.5 0,-75.5 145,-75.5 145,-56.5 0,-56.5"/>
<text text-anchor="middle" x="72.5" y="-63.5" font-family="Helvetica,sans-Serif" font-size="10.00">ClusteredLightFeature.hpp</text>
</a>
</g>
</g>
<!-- Node4&#45;&gt;Node5 -->
<g id="edge4" class="edge">
<title>Node4&#45;&gt;Node5</title>
<path fill="none" stroke="midnightblue" d="M80.95,-102.1C78.79,-93.14 76.32,-82.86 74.61,-75.75"/>
<polygon fill="midnightblue" stroke="midnightblue" points="77.61,-103.18 83.35,-112.08 84.42,-101.54 77.61,-103.18"/>
</g>
<!-- Node6&#45;&gt;Node5 -->
<g id="edge6" class="edge">
<title>Node6&#45;&gt;Node5</title>
<path fill="none" stroke="midnightblue" d="M187.02,-214.12C186.75,-188.42 182.74,-142.16 159.5,-112 145.59,-93.95 122.41,-82.47 103.47,-75.62"/>
<polygon fill="midnightblue" stroke="midnightblue" points="183.51,-214.33 186.93,-224.36 190.51,-214.39 183.51,-214.33"/>
</g>
<!-- Node7&#45;&gt;Node5 -->
<g id="edge10" class="edge">
<title>Node7&#45;&gt;Node5</title>
<path fill="none" stroke="midnightblue" d="M479.11,-115.36C399.3,-105.87 237.67,-86.65 144.02,-75.51"/>
<polygon fill="midnightblue" stroke="midnightblue" points="479,-118.88 489.35,-116.58 479.83,-111.92 479,-118.88"/>
</g>
<!-- Node8 -->
<g id="node8" class="node">
<title>Node8</title>
<g id="a_node8"><a xlink:href="_bloom_feature_8hpp.html" target="_top" xlink:title=" ">
<polygon fill="white" stroke="black" points="725.5,-56.5 725.5,-75.5 831.5,-75.5 831.5,-56.5 725.5,-56.5"/>
<text text-anchor="middle" x="778.5" y="-63.5" font-family="Helvetica,sans-Serif" font-size="10.00">BloomFeature.hpp</text>
</a>
</g>
</g>
<!-- Node7&#45;&gt;Node8 -->
<g id="edge8" class="edge">
<title>Node7&#45;&gt;Node8</title>
<path fill="none" stroke="midnightblue" d="M573.73,-110.88C621.31,-100.68 693.91,-85.13 738.67,-75.54"/>
<polygon fill="midnightblue" stroke="midnightblue" points="572.73,-107.51 563.68,-113.03 574.19,-114.36 572.73,-107.51"/>
</g>
<!-- Node9 -->
<g id="node9" class="node">
<title>Node9</title>
<g id="a_node9"><a xlink:href="_camera_data_collector_8hpp.html" target="_top" xlink:title=" ">
<polygon fill="white" stroke="black" points="163.5,-56.5 163.5,-75.5 305.5,-75.5 305.5,-56.5 163.5,-56.5"/>
<text text-anchor="middle" x="234.5" y="-63.5" font-family="Helvetica,sans-Serif" font-size="10.00">CameraDataCollector.hpp</text>
</a>
</g>
</g>
<!-- Node7&#45;&gt;Node9 -->
<g id="edge9" class="edge">
<title>Node7&#45;&gt;Node9</title>
<path fill="none" stroke="midnightblue" d="M479.09,-112.23C424.35,-102.11 334.91,-85.57 280.69,-75.54"/>
<polygon fill="midnightblue" stroke="midnightblue" points="478.75,-115.73 489.22,-114.11 480.02,-108.85 478.75,-115.73"/>
</g>
<!-- Node10 -->
<g id="node10" class="node">
<title>Node10</title>
<g id="a_node10"><a xlink:href="_forward_render_feature_8hpp.html" target="_top" xlink:title=" ">
<polygon fill="white" stroke="black" points="849.5,-56.5 849.5,-75.5 997.5,-75.5 997.5,-56.5 849.5,-56.5"/>
<text text-anchor="middle" x="923.5" y="-63.5" font-family="Helvetica,sans-Serif" font-size="10.00">ForwardRenderFeature.hpp</text>
</a>
</g>
</g>
<!-- Node7&#45;&gt;Node10 -->
<g id="edge11" class="edge">
<title>Node7&#45;&gt;Node10</title>
<path fill="none" stroke="midnightblue" d="M573.92,-114.55C645.46,-104.82 781.04,-86.38 860.7,-75.54"/>
<polygon fill="midnightblue" stroke="midnightblue" points="573.29,-111.1 563.85,-115.92 574.23,-118.04 573.29,-111.1"/>
</g>
<!-- Node11 -->
<g id="node11" class="node">
<title>Node11</title>
<g id="a_node11"><a xlink:href="_particle_system_feature_8hpp.html" target="_top" xlink:title=" ">
<polygon fill="white" stroke="black" points="423,-56.5 423,-75.5 570,-75.5 570,-56.5 423,-56.5"/>
<text text-anchor="middle" x="496.5" y="-63.5" font-family="Helvetica,sans-Serif" font-size="10.00">ParticleSystemFeature.hpp</text>
</a>
</g>
</g>
<!-- Node7&#45;&gt;Node11 -->
<g id="edge12" class="edge">
<title>Node7&#45;&gt;Node11</title>
<path fill="none" stroke="midnightblue" d="M516.65,-103.27C511.53,-94.05 505.48,-83.17 501.36,-75.75"/>
<polygon fill="midnightblue" stroke="midnightblue" points="513.63,-105.04 521.55,-112.08 519.75,-101.64 513.63,-105.04"/>
</g>
<!-- Node12 -->
<g id="node12" class="node">
<title>Node12</title>
<g id="a_node12"><a xlink:href="_static_mesh_feature_8hpp.html" target="_top" xlink:title=" ">
<polygon fill="white" stroke="black" points="1015.5,-56.5 1015.5,-75.5 1143.5,-75.5 1143.5,-56.5 1015.5,-56.5"/>
<text text-anchor="middle" x="1079.5" y="-63.5" font-family="Helvetica,sans-Serif" font-size="10.00">StaticMeshFeature.hpp</text>
</a>
</g>
</g>
<!-- Node7&#45;&gt;Node12 -->
<g id="edge13" class="edge">
<title>Node7&#45;&gt;Node12</title>
<path fill="none" stroke="midnightblue" d="M573.55,-117.05C659.58,-109.72 847.98,-93.2 1006.5,-76 1009.42,-75.68 1012.4,-75.35 1015.42,-75.01"/>
<polygon fill="midnightblue" stroke="midnightblue" points="573.24,-113.56 563.57,-117.9 573.84,-120.54 573.24,-113.56"/>
</g>
<!-- Node13 -->
<g id="node13" class="node">
<title>Node13</title>
<g id="a_node13"><a xlink:href="_tonemap_feature_8hpp.html" target="_top" xlink:title=" ">
<polygon fill="white" stroke="black" points="588,-56.5 588,-75.5 707,-75.5 707,-56.5 588,-56.5"/>
<text text-anchor="middle" x="647.5" y="-63.5" font-family="Helvetica,sans-Serif" font-size="10.00">TonemapFeature.hpp</text>
</a>
</g>
</g>
<!-- Node7&#45;&gt;Node13 -->
<g id="edge14" class="edge">
<title>Node7&#45;&gt;Node13</title>
<path fill="none" stroke="midnightblue" d="M554.81,-108.37C577.47,-98.26 608.63,-84.35 628.42,-75.52"/>
<polygon fill="midnightblue" stroke="midnightblue" points="553.38,-105.17 545.67,-112.44 556.23,-111.56 553.38,-105.17"/>
</g>
<!-- Node14 -->
<g id="node14" class="node">
<title>Node14</title>
<g id="a_node14"><a xlink:href="_renderer_8hpp.html" target="_top" xlink:title=" ">
<polygon fill="white" stroke="black" points="324,-56.5 324,-75.5 405,-75.5 405,-56.5 324,-56.5"/>
<text text-anchor="middle" x="364.5" y="-63.5" font-family="Helvetica,sans-Serif" font-size="10.00">Renderer.hpp</text>
</a>
</g>
</g>
<!-- Node7&#45;&gt;Node14 -->
<g id="edge15" class="edge">
<title>Node7&#45;&gt;Node14</title>
<path fill="none" stroke="midnightblue" d="M491.02,-109.17C460.51,-99 417.26,-84.59 390.05,-75.52"/>
<polygon fill="midnightblue" stroke="midnightblue" points="490.24,-112.6 500.83,-112.44 492.45,-105.96 490.24,-112.6"/>
</g>
<!-- Node15&#45;&gt;Node7 -->
<g id="edge17" class="edge">
<title>Node15&#45;&gt;Node7</title>
<path fill="none" stroke="midnightblue" d="M403.83,-219.64C380.92,-207.1 354.87,-187.41 369.5,-168 383.92,-148.87 447.72,-135.38 489.42,-128.43"/>
<polygon fill="midnightblue" stroke="midnightblue" points="402.52,-222.9 413.01,-224.4 405.74,-216.69 402.52,-222.9"/>
</g>
<!-- Node16 -->
<g id="node16" class="node">
<title>Node16</title>
<g id="a_node16"><a xlink:href="_layer_8hpp.html" target="_top" xlink:title=" ">
<polygon fill="white" stroke="black" points="554.5,-168.5 554.5,-187.5 618.5,-187.5 618.5,-168.5 554.5,-168.5"/>
<text text-anchor="middle" x="586.5" y="-175.5" font-family="Helvetica,sans-Serif" font-size="10.00">Layer.hpp</text>
</a>
</g>
</g>
<!-- Node15&#45;&gt;Node16 -->
<g id="edge18" class="edge">
<title>Node15&#45;&gt;Node16</title>
<path fill="none" stroke="midnightblue" d="M466.61,-221.04C495.59,-210.88 536.46,-196.55 562.21,-187.52"/>
<polygon fill="midnightblue" stroke="midnightblue" points="465.18,-217.83 456.9,-224.44 467.5,-224.44 465.18,-217.83"/>
</g>
<!-- Node17 -->
<g id="node17" class="node">
<title>Node17</title>
<g id="a_node17"><a xlink:href="_view_8hpp.html" target="_top" xlink:title=" ">
<polygon fill="white" stroke="black" points="378,-168.5 378,-187.5 439,-187.5 439,-168.5 378,-168.5"/>
<text text-anchor="middle" x="408.5" y="-175.5" font-family="Helvetica,sans-Serif" font-size="10.00">View.hpp</text>
</a>
</g>
</g>
<!-- Node15&#45;&gt;Node17 -->
<g id="edge20" class="edge">
<title>Node15&#45;&gt;Node17</title>
<path fill="none" stroke="midnightblue" d="M424.36,-214.69C420.32,-205.59 415.62,-195.01 412.39,-187.75"/>
<polygon fill="midnightblue" stroke="midnightblue" points="421.28,-216.37 428.54,-224.08 427.67,-213.52 421.28,-216.37"/>
</g>
<!-- Node18 -->
<g id="node18" class="node">
<title>Node18</title>
<g id="a_node18"><a xlink:href="_instance_8hpp.html" target="_top" xlink:title=" ">
<polygon fill="white" stroke="black" points="457,-168.5 457,-187.5 536,-187.5 536,-168.5 457,-168.5"/>
<text text-anchor="middle" x="496.5" y="-175.5" font-family="Helvetica,sans-Serif" font-size="10.00">Instance.hpp</text>
</a>
</g>
</g>
<!-- Node15&#45;&gt;Node18 -->
<g id="edge21" class="edge">
<title>Node15&#45;&gt;Node18</title>
<path fill="none" stroke="midnightblue" d="M450.49,-217.82C461.96,-208.15 476.41,-195.95 486.03,-187.83"/>
<polygon fill="midnightblue" stroke="midnightblue" points="448.17,-215.2 442.78,-224.32 452.68,-220.55 448.17,-215.2"/>
</g>
<!-- Node19 -->
<g id="node19" class="node">
<title>Node19</title>
<g id="a_node19"><a xlink:href="_mapped_buffer_8hpp.html" target="_top" xlink:title=" ">
<polygon fill="white" stroke="black" points="259,-112.5 259,-131.5 364,-131.5 364,-112.5 259,-112.5"/>
<text text-anchor="middle" x="311.5" y="-119.5" font-family="Helvetica,sans-Serif" font-size="10.00">MappedBuffer.hpp</text>
</a>
</g>
</g>
<!-- Node15&#45;&gt;Node19 -->
<g id="edge22" class="edge">
<title>Node15&#45;&gt;Node19</title>
<path fill="none" stroke="midnightblue" d="M406.08,-219.59C391.71,-211.56 374.14,-200.5 360.5,-188 341.54,-170.62 324.77,-145.1 316.66,-131.8"/>
<polygon fill="midnightblue" stroke="midnightblue" points="404.53,-222.72 414.99,-224.41 407.86,-216.57 404.53,-222.72"/>
</g>
<!-- Node20 -->
<g id="node20" class="node">
<title>Node20</title>
<g id="a_node20"><a xlink:href="_shader_8hpp.html" target="_top" xlink:title=" ">
<polygon fill="white" stroke="black" points="677,-112.5 677,-131.5 748,-131.5 748,-112.5 677,-112.5"/>
<text text-anchor="middle" x="712.5" y="-119.5" font-family="Helvetica,sans-Serif" font-size="10.00">Shader.hpp</text>
</a>
</g>
</g>
<!-- Node15&#45;&gt;Node20 -->
<g id="edge25" class="edge">
<title>Node15&#45;&gt;Node20</title>
<path fill="none" stroke="midnightblue" d="M478.31,-228.02C519.01,-222.31 579.35,-210.66 627.5,-188 658.77,-173.29 689.47,-145.64 703.92,-131.62"/>
<polygon fill="midnightblue" stroke="midnightblue" points="477.59,-224.58 468.14,-229.38 478.52,-231.52 477.59,-224.58"/>
</g>
<!-- Node16&#45;&gt;Node7 -->
<g id="edge19" class="edge">
<title>Node16&#45;&gt;Node7</title>
<path fill="none" stroke="midnightblue" d="M569.32,-161.54C558.62,-151.91 545.24,-139.87 536.32,-131.83"/>
<polygon fill="midnightblue" stroke="midnightblue" points="567.09,-164.24 576.86,-168.32 571.77,-159.03 567.09,-164.24"/>
</g>
<!-- Node19&#45;&gt;Node9 -->
<g id="edge23" class="edge">
<title>Node19&#45;&gt;Node9</title>
<path fill="none" stroke="midnightblue" d="M290.6,-106.34C276.59,-96.52 258.62,-83.91 246.84,-75.65"/>
<polygon fill="midnightblue" stroke="midnightblue" points="288.93,-109.45 299.13,-112.32 292.95,-103.72 288.93,-109.45"/>
</g>
<!-- Node19&#45;&gt;Node11 -->
<g id="edge24" class="edge">
<title>Node19&#45;&gt;Node11</title>
<path fill="none" stroke="midnightblue" d="M350.67,-109.57C385.57,-99.38 435.85,-84.7 467.32,-75.52"/>
<polygon fill="midnightblue" stroke="midnightblue" points="349.43,-106.28 340.81,-112.44 351.39,-113 349.43,-106.28"/>
</g>
<!-- Node20&#45;&gt;Node5 -->
<g id="edge27" class="edge">
<title>Node20&#45;&gt;Node5</title>
<path fill="none" stroke="midnightblue" d="M666.73,-117.76C571.38,-110.91 344.51,-94.09 154.5,-76 151.51,-75.72 148.45,-75.42 145.37,-75.11"/>
<polygon fill="midnightblue" stroke="midnightblue" points="666.67,-121.26 676.89,-118.49 667.17,-114.28 666.67,-121.26"/>
</g>
<!-- Node20&#45;&gt;Node8 -->
<g id="edge26" class="edge">
<title>Node20&#45;&gt;Node8</title>
<path fill="none" stroke="midnightblue" d="M731.05,-105.82C742.88,-96.15 757.79,-83.95 767.7,-75.83"/>
<polygon fill="midnightblue" stroke="midnightblue" points="728.63,-103.28 723.1,-112.32 733.06,-108.7 728.63,-103.28"/>
</g>
<!-- Node20&#45;&gt;Node10 -->
<g id="edge28" class="edge">
<title>Node20&#45;&gt;Node10</title>
<path fill="none" stroke="midnightblue" d="M755.64,-109.96C795.49,-99.76 853.86,-84.82 890.22,-75.52"/>
<polygon fill="midnightblue" stroke="midnightblue" points="754.75,-106.57 745.93,-112.44 756.49,-113.35 754.75,-106.57"/>
</g>
<!-- Node20&#45;&gt;Node11 -->
<g id="edge29" class="edge">
<title>Node20&#45;&gt;Node11</title>
<path fill="none" stroke="midnightblue" d="M668.34,-109.96C627.54,-99.76 567.79,-84.82 530.57,-75.52"/>
<polygon fill="midnightblue" stroke="midnightblue" points="667.72,-113.41 678.27,-112.44 669.42,-106.62 667.72,-113.41"/>
</g>
<!-- Node20&#45;&gt;Node12 -->
<g id="edge30" class="edge">
<title>Node20&#45;&gt;Node12</title>
<path fill="none" stroke="midnightblue" d="M758.21,-114.27C824.82,-104.47 948.55,-86.27 1021.5,-75.53"/>
<polygon fill="midnightblue" stroke="midnightblue" points="757.41,-110.85 748.02,-115.77 758.43,-117.78 757.41,-110.85"/>
</g>
<!-- Node20&#45;&gt;Node13 -->
<g id="edge31" class="edge">
<title>Node20&#45;&gt;Node13</title>
<path fill="none" stroke="midnightblue" d="M694.23,-105.82C682.58,-96.15 667.9,-83.95 658.13,-75.83"/>
<polygon fill="midnightblue" stroke="midnightblue" points="692.13,-108.63 702.06,-112.32 696.6,-103.24 692.13,-108.63"/>
</g>
<!-- Node21 -->
<g id="node21" class="node">
<title>Node21</title>
<g id="a_node21"><a xlink:href="_compiler_8hpp.html" target="_top" xlink:title=" ">
<polygon fill="white" stroke="black" points="1162,-56.5 1162,-75.5 1243,-75.5 1243,-56.5 1162,-56.5"/>
<text text-anchor="middle" x="1202.5" y="-63.5" font-family="Helvetica,sans-Serif" font-size="10.00">Compiler.hpp</text>
</a>
</g>
</g>
<!-- Node20&#45;&gt;Node21 -->
<g id="edge32" class="edge">
<title>Node20&#45;&gt;Node21</title>
<path fill="none" stroke="midnightblue" d="M758.51,-117.46C838.73,-111.02 1009.33,-96.18 1152.5,-76 1155.56,-75.57 1158.71,-75.09 1161.88,-74.58"/>
<polygon fill="midnightblue" stroke="midnightblue" points="757.95,-113.99 748.26,-118.27 758.5,-120.97 757.95,-113.99"/>
</g>
<!-- Node22 -->
<g id="node22" class="node">
<title>Node22</title>
<g id="a_node22"><a xlink:href="_shader_loader_8hpp.html" target="_top" xlink:title=" ">
<polygon fill="white" stroke="black" points="1150.5,-0.5 1150.5,-19.5 1254.5,-19.5 1254.5,-0.5 1150.5,-0.5"/>
<text text-anchor="middle" x="1202.5" y="-7.5" font-family="Helvetica,sans-Serif" font-size="10.00">ShaderLoader.hpp</text>
</a>
</g>
</g>
<!-- Node21&#45;&gt;Node22 -->
<g id="edge33" class="edge">
<title>Node21&#45;&gt;Node22</title>
<path fill="none" stroke="midnightblue" d="M1202.5,-45.8C1202.5,-36.91 1202.5,-26.78 1202.5,-19.75"/>
<polygon fill="midnightblue" stroke="midnightblue" points="1199,-46.08 1202.5,-56.08 1206,-46.08 1199,-46.08"/>
</g>
<!-- Node23&#45;&gt;Node2 -->
<g id="edge38" class="edge">
<title>Node23&#45;&gt;Node2</title>
<path fill="none" stroke="midnightblue" d="M311.5,-444.1C290.39,-434.01 261.64,-420.27 243.32,-411.52"/>
<polygon fill="midnightblue" stroke="midnightblue" points="310.06,-447.29 320.59,-448.44 313.08,-440.97 310.06,-447.29"/>
</g>
<!-- Node24 -->
<g id="node24" class="node">
<title>Node24</title>
<g id="a_node24"><a xlink:href="_buffer_8hpp.html" target="_top" xlink:title=" ">
<polygon fill="white" stroke="black" points="381.5,-336.5 381.5,-355.5 447.5,-355.5 447.5,-336.5 381.5,-336.5"/>
<text text-anchor="middle" x="414.5" y="-343.5" font-family="Helvetica,sans-Serif" font-size="10.00">Buffer.hpp</text>
</a>
</g>
</g>
<!-- Node23&#45;&gt;Node24 -->
<g id="edge35" class="edge">
<title>Node23&#45;&gt;Node24</title>
<path fill="none" stroke="midnightblue" d="M357.24,-441.55C366.28,-433.43 376.81,-422.9 384.5,-412 397.54,-393.52 407.2,-368.46 411.7,-355.52"/>
<polygon fill="midnightblue" stroke="midnightblue" points="354.74,-439.09 349.47,-448.28 359.32,-444.38 354.74,-439.09"/>
</g>
<!-- Node25 -->
<g id="node25" class="node">
<title>Node25</title>
<g id="a_node25"><a xlink:href="_texture_8hpp.html" target="_top" xlink:title=" ">
<polygon fill="white" stroke="black" points="301.5,-392.5 301.5,-411.5 375.5,-411.5 375.5,-392.5 301.5,-392.5"/>
<text text-anchor="middle" x="338.5" y="-399.5" font-family="Helvetica,sans-Serif" font-size="10.00">Texture.hpp</text>
</a>
</g>
</g>
<!-- Node23&#45;&gt;Node25 -->
<g id="edge39" class="edge">
<title>Node23&#45;&gt;Node25</title>
<path fill="none" stroke="midnightblue" d="M338.5,-437.8C338.5,-428.91 338.5,-418.78 338.5,-411.75"/>
<polygon fill="midnightblue" stroke="midnightblue" points="335,-438.08 338.5,-448.08 342,-438.08 335,-438.08"/>
</g>
<!-- Node24&#45;&gt;Node3 -->
<g id="edge37" class="edge">
<title>Node24&#45;&gt;Node3</title>
<path fill="none" stroke="midnightblue" d="M377.9,-333.3C346.05,-323.13 300.66,-308.62 272.15,-299.52"/>
<polygon fill="midnightblue" stroke="midnightblue" points="377.13,-336.73 387.72,-336.44 379.26,-330.07 377.13,-336.73"/>
</g>
<!-- Node24&#45;&gt;Node15 -->
<g id="edge36" class="edge">
<title>Node24&#45;&gt;Node15</title>
<path fill="none" stroke="midnightblue" d="M417.55,-326.35C421.49,-302.25 428.2,-261.31 431.09,-243.59"/>
<polygon fill="midnightblue" stroke="midnightblue" points="414.07,-325.93 415.91,-336.37 420.98,-327.06 414.07,-325.93"/>
</g>
<!-- Node26 -->
<g id="node26" class="node">
<title>Node26</title>
<g id="a_node26"><a xlink:href="_dependent_texture_info_8hpp.html" target="_top" xlink:title=" ">
<polygon fill="white" stroke="black" points="179.5,-336.5 179.5,-355.5 325.5,-355.5 325.5,-336.5 179.5,-336.5"/>
<text text-anchor="middle" x="252.5" y="-343.5" font-family="Helvetica,sans-Serif" font-size="10.00">DependentTextureInfo.hpp</text>
</a>
</g>
</g>
<!-- Node25&#45;&gt;Node26 -->
<g id="edge40" class="edge">
<title>Node25&#45;&gt;Node26</title>
<path fill="none" stroke="midnightblue" d="M316.05,-386.9C300.28,-377 279.69,-364.07 266.28,-355.65"/>
<polygon fill="midnightblue" stroke="midnightblue" points="314.35,-389.97 324.68,-392.32 318.07,-384.04 314.35,-389.97"/>
</g>
<!-- Node27 -->
<g id="node27" class="node">
<title>Node27</title>
<g id="a_node27"><a xlink:href="_swapchain_8hpp.html" target="_top" xlink:title=" ">
<polygon fill="white" stroke="black" points="314.5,-280.5 314.5,-299.5 404.5,-299.5 404.5,-280.5 314.5,-280.5"/>
<text text-anchor="middle" x="359.5" y="-287.5" font-family="Helvetica,sans-Serif" font-size="10.00">Swapchain.hpp</text>
</a>
</g>
</g>
<!-- Node25&#45;&gt;Node27 -->
<g id="edge42" class="edge">
<title>Node25&#45;&gt;Node27</title>
<path fill="none" stroke="midnightblue" d="M342.06,-382.35C346.66,-358.25 354.48,-317.31 357.86,-299.59"/>
<polygon fill="midnightblue" stroke="midnightblue" points="338.59,-381.89 340.15,-392.37 345.46,-383.2 338.59,-381.89"/>
</g>
<!-- Node26&#45;&gt;Node3 -->
<g id="edge41" class="edge">
<title>Node26&#45;&gt;Node3</title>
<path fill="none" stroke="midnightblue" d="M250.05,-326.1C248.89,-317.14 247.56,-306.86 246.63,-299.75"/>
<polygon fill="midnightblue" stroke="midnightblue" points="246.59,-326.62 251.34,-336.08 253.53,-325.72 246.59,-326.62"/>
</g>
<!-- Node27&#45;&gt;Node15 -->
<g id="edge43" class="edge">
<title>Node27&#45;&gt;Node15</title>
<path fill="none" stroke="midnightblue" d="M379.64,-274.1C392.78,-264.38 409.48,-252.03 420.56,-243.83"/>
<polygon fill="midnightblue" stroke="midnightblue" points="377.19,-271.56 371.23,-280.32 381.35,-277.19 377.19,-271.56"/>
</g>
<!-- Node28&#45;&gt;Node15 -->
<g id="edge45" class="edge">
<title>Node28&#45;&gt;Node15</title>
<path fill="none" stroke="midnightblue" d="M479.56,-382.39C468.13,-346.59 443.46,-269.34 435.24,-243.57"/>
<polygon fill="midnightblue" stroke="midnightblue" points="476.27,-383.61 482.65,-392.08 482.94,-381.48 476.27,-383.61"/>
</g>
<!-- Node29 -->
<g id="node29" class="node">
<title>Node29</title>
<g id="a_node29"><a xlink:href="_push_constant_info_8hpp.html" target="_top" xlink:title=" ">
<polygon fill="white" stroke="black" points="504,-336.5 504,-355.5 627,-355.5 627,-336.5 504,-336.5"/>
<text text-anchor="middle" x="565.5" y="-343.5" font-family="Helvetica,sans-Serif" font-size="10.00">PushConstantInfo.hpp</text>
</a>
</g>
</g>
<!-- Node28&#45;&gt;Node29 -->
<g id="edge46" class="edge">
<title>Node28&#45;&gt;Node29</title>
<path fill="none" stroke="midnightblue" d="M506.8,-386.62C521.42,-376.76 540.33,-363.99 552.68,-355.65"/>
<polygon fill="midnightblue" stroke="midnightblue" points="504.68,-383.83 498.35,-392.32 508.6,-389.63 504.68,-383.83"/>
</g>
<!-- Node30 -->
<g id="node30" class="node">
<title>Node30</title>
<g id="a_node30"><a xlink:href="_pipeline_8hpp.html" target="_top" xlink:title=" ">
<polygon fill="white" stroke="black" points="527,-280.5 527,-299.5 604,-299.5 604,-280.5 527,-280.5"/>
<text text-anchor="middle" x="565.5" y="-287.5" font-family="Helvetica,sans-Serif" font-size="10.00">Pipeline.hpp</text>
</a>
</g>
</g>
<!-- Node29&#45;&gt;Node30 -->
<g id="edge47" class="edge">
<title>Node29&#45;&gt;Node30</title>
<path fill="none" stroke="midnightblue" d="M565.5,-325.8C565.5,-316.91 565.5,-306.78 565.5,-299.75"/>
<polygon fill="midnightblue" stroke="midnightblue" points="562,-326.08 565.5,-336.08 569,-326.08 562,-326.08"/>
</g>
<!-- Node30&#45;&gt;Node15 -->
<g id="edge48" class="edge">
<title>Node30&#45;&gt;Node15</title>
<path fill="none" stroke="midnightblue" d="M535.05,-276.64C510.09,-266.5 475.42,-252.43 453.48,-243.52"/>
<polygon fill="midnightblue" stroke="midnightblue" points="533.84,-279.92 544.43,-280.44 536.48,-273.44 533.84,-279.92"/>
</g>
<!-- Node31 -->
<g id="node31" class="node">
<title>Node31</title>
<g id="a_node31"><a xlink:href="_declaration_8hpp.html" target="_top" xlink:title=" ">
<polygon fill="white" stroke="black" points="758.5,-224.5 758.5,-243.5 852.5,-243.5 852.5,-224.5 758.5,-224.5"/>
<text text-anchor="middle" x="805.5" y="-231.5" font-family="Helvetica,sans-Serif" font-size="10.00">Declaration.hpp</text>
</a>
</g>
</g>
<!-- Node30&#45;&gt;Node31 -->
<g id="edge49" class="edge">
<title>Node30&#45;&gt;Node31</title>
<path fill="none" stroke="midnightblue" d="M613.42,-278.22C658.77,-268.01 725.94,-252.9 767.65,-243.52"/>
<polygon fill="midnightblue" stroke="midnightblue" points="612.52,-274.83 603.53,-280.44 614.05,-281.66 612.52,-274.83"/>
</g>
<!-- Node31&#45;&gt;Node21 -->
<g id="edge50" class="edge">
<title>Node31&#45;&gt;Node21</title>
<path fill="none" stroke="midnightblue" d="M845.78,-221.69C874.25,-213.33 913.14,-201.14 946.5,-188 1039.58,-151.34 1146.44,-96.5 1186.36,-75.55"/>
<polygon fill="midnightblue" stroke="midnightblue" points="844.79,-218.34 836.16,-224.49 846.74,-225.06 844.79,-218.34"/>
</g>
<!-- Node32 -->
<g id="node32" class="node">
<title>Node32</title>
<g id="a_node32"><a xlink:href="_declaration_parser_8hpp.html" target="_top" xlink:title=" ">
<polygon fill="white" stroke="black" points="814,-168.5 814,-187.5 937,-187.5 937,-168.5 814,-168.5"/>
<text text-anchor="middle" x="875.5" y="-175.5" font-family="Helvetica,sans-Serif" font-size="10.00">DeclarationParser.hpp</text>
</a>
</g>
</g>
<!-- Node31&#45;&gt;Node32 -->
<g id="edge51" class="edge">
<title>Node31&#45;&gt;Node32</title>
<path fill="none" stroke="midnightblue" d="M824.81,-218.1C837.41,-208.38 853.43,-196.03 864.05,-187.83"/>
<polygon fill="midnightblue" stroke="midnightblue" points="822.53,-215.44 816.75,-224.32 826.8,-220.99 822.53,-215.44"/>
</g>
<!-- Node33 -->
<g id="node33" class="node">
<title>Node33</title>
<g id="a_node33"><a xlink:href="_declaration_stack_8hpp.html" target="_top" xlink:title=" ">
<polygon fill="white" stroke="black" points="675,-168.5 675,-187.5 796,-187.5 796,-168.5 675,-168.5"/>
<text text-anchor="middle" x="735.5" y="-175.5" font-family="Helvetica,sans-Serif" font-size="10.00">DeclarationStack.hpp</text>
</a>
</g>
</g>
<!-- Node31&#45;&gt;Node33 -->
<g id="edge52" class="edge">
<title>Node31&#45;&gt;Node33</title>
<path fill="none" stroke="midnightblue" d="M786.19,-218.1C773.59,-208.38 757.57,-196.03 746.95,-187.83"/>
<polygon fill="midnightblue" stroke="midnightblue" points="784.2,-220.99 794.25,-224.32 788.47,-215.44 784.2,-220.99"/>
</g>
<!-- Node33&#45;&gt;Node7 -->
<g id="edge53" class="edge">
<title>Node33&#45;&gt;Node7</title>
<path fill="none" stroke="midnightblue" d="M692.52,-165.89C653.05,-155.7 595.4,-140.8 559.46,-131.52"/>
<polygon fill="midnightblue" stroke="midnightblue" points="691.83,-169.33 702.38,-168.44 693.58,-162.55 691.83,-169.33"/>
</g>
</g>
</svg>
        <g id="navigator" transform="translate(0 0)" fill="#404254">
                <rect fill="#f2f5e9" fill-opacity="0.5" stroke="#606060" stroke-width=".5" x="0" y="0" width="60" height="60"/>
                <use id="zoomplus" xlink:href="#zoomPlus" x="17" y="9" onmousedown="handleZoom(evt,'in')"/>
                <use id="zoomminus" xlink:href="#zoomMin" x="42" y="9" onmousedown="handleZoom(evt,'out')"/>
                <use id="reset" xlink:href="#resetDef" x="30" y="36" onmousedown="handleReset()"/>
                <g id="arrowUp" xlink:href="#dirArrow" transform="translate(30 24)" onmousedown="handlePan(0,-1)">
                  <use xlink:href="#rim" fill="#404040">
                        <set attributeName="fill" to="#808080" begin="arrowUp.mouseover" end="arrowUp.mouseout"/>
                  </use>
                  <path fill="none" stroke="white" stroke-width="1.5" d="M0,-3.0v7 M-2.5,-0.5L0,-3.0L2.5,-0.5"/>
                </g>
                <g id="arrowRight" xlink:href="#dirArrow" transform="rotate(90) translate(36 -43)" onmousedown="handlePan(1,0)">
                  <use xlink:href="#rim" fill="#404040">
                        <set attributeName="fill" to="#808080" begin="arrowRight.mouseover" end="arrowRight.mouseout"/>
                  </use>
                  <path fill="none" stroke="white" stroke-width="1.5" d="M0,-3.0v7 M-2.5,-0.5L0,-3.0L2.5,-0.5"/>
                </g>
                <g id="arrowDown" xlink:href="#dirArrow" transform="rotate(180) translate(-30 -48)" onmousedown="handlePan(0,1)">
                  <use xlink:href="#rim" fill="#404040">
                        <set attributeName="fill" to="#808080" begin="arrowDown.mouseover" end="arrowDown.mouseout"/>
                  </use>
                  <path fill="none" stroke="white" stroke-width="1.5" d="M0,-3.0v7 M-2.5,-0.5L0,-3.0L2.5,-0.5"/>
                </g>
                <g id="arrowLeft" xlink:href="#dirArrow" transform="rotate(270) translate(-36 17)" onmousedown="handlePan(-1,0)">
                  <use xlink:href="#rim" fill="#404040">
                        <set attributeName="fill" to="#808080" begin="arrowLeft.mouseover" end="arrowLeft.mouseout"/>
                  </use>
                  <path fill="none" stroke="white" stroke-width="1.5" d="M0,-3.0v7 M-2.5,-0.5L0,-3.0L2.5,-0.5"/>
                </g>
        </g>
        <svg viewBox="0 0 15 15" width="100%" height="30px" preserveAspectRatio="xMaxYMin meet">
         <g id="arrow_out" transform="scale(0.3 0.3)">
          <a xlink:href="_enum_bitmask_8hpp__dep__incl_org.svg" target="_base">
           <rect id="button" ry="5" rx="5" y="6" x="6" height="38" width="38"
                fill="#f2f5e9" fill-opacity="0.5" stroke="#606060" stroke-width="1.0"/>
           <path id="arrow"
             d="M 11.500037,31.436501 C 11.940474,20.09759 22.043105,11.32322 32.158766,21.979434 L 37.068811,17.246167 C 37.068811,17.246167 37.088388,32 37.088388,32 L 22.160133,31.978069 C 22.160133,31.978069 26.997745,27.140456 26.997745,27.140456 C 18.528582,18.264221 13.291696,25.230495 11.500037,31.436501 z"
             style="fill:#404040;"/>
          </a>
         </g>
        </svg>
</svg>
