<?xml version="1.0" encoding="UTF-8" standalone="no"?>
<!DOCTYPE svg PUBLIC "-//W3C//DTD SVG 1.1//EN"
 "http://www.w3.org/Graphics/SVG/1.1/DTD/svg11.dtd">
<!-- Generated by graphviz version 2.43.0 (0)
 -->
<!-- Title: EnumBitmask.hpp Pages: 1 -->
<svg width="657pt" height="364pt"
 viewBox="0.00 0.00 656.50 364.00" xmlns="http://www.w3.org/2000/svg" xmlns:xlink="http://www.w3.org/1999/xlink">
<g id="graph0" class="graph" transform="scale(1 1) rotate(0) translate(4 360)">
<title>EnumBitmask.hpp</title>
<polygon fill="white" stroke="transparent" points="-4,4 -4,-360 652.5,-360 652.5,4 -4,4"/>
<!-- Node1 -->
<g id="node1" class="node">
<title>Node1</title>
<g id="a_node1"><a xlink:title=" ">
<polygon fill="#bfbfbf" stroke="black" points="191,-336.5 191,-355.5 297,-355.5 297,-336.5 191,-336.5"/>
<text text-anchor="middle" x="244" y="-343.5" font-family="Helvetica,sans-Serif" font-size="10.00">EnumBitmask.hpp</text>
</a>
</g>
</g>
<!-- Node2 -->
<g id="node2" class="node">
<title>Node2</title>
<g id="a_node2"><a xlink:href="_command_buffer_8hpp.html" target="_top" xlink:title=" ">
<polygon fill="white" stroke="black" points="0,-280.5 0,-299.5 116,-299.5 116,-280.5 0,-280.5"/>
<text text-anchor="middle" x="58" y="-287.5" font-family="Helvetica,sans-Serif" font-size="10.00">CommandBuffer.hpp</text>
</a>
</g>
</g>
<!-- Node1&#45;&gt;Node2 -->
<g id="edge1" class="edge">
<title>Node1&#45;&gt;Node2</title>
<path fill="none" stroke="midnightblue" d="M204.62,-333.57C169.53,-323.38 118.98,-308.7 87.33,-299.52"/>
<polygon fill="midnightblue" stroke="midnightblue" points="203.95,-337.02 214.53,-336.44 205.9,-330.29 203.95,-337.02"/>
</g>
<!-- Node6 -->
<g id="node6" class="node">
<title>Node6</title>
<g id="a_node6"><a xlink:href="_device_resource_state_8hpp.html" target="_top" xlink:title=" ">
<polygon fill="white" stroke="black" points="173,-280.5 173,-299.5 315,-299.5 315,-280.5 173,-280.5"/>
<text text-anchor="middle" x="244" y="-287.5" font-family="Helvetica,sans-Serif" font-size="10.00">DeviceResourceState.hpp</text>
</a>
</g>
</g>
<!-- Node1&#45;&gt;Node6 -->
<g id="edge5" class="edge">
<title>Node1&#45;&gt;Node6</title>
<path fill="none" stroke="midnightblue" d="M244,-325.8C244,-316.91 244,-306.78 244,-299.75"/>
<polygon fill="midnightblue" stroke="midnightblue" points="240.5,-326.08 244,-336.08 247.5,-326.08 240.5,-326.08"/>
</g>
<!-- Node11 -->
<g id="node11" class="node">
<title>Node11</title>
<g id="a_node11"><a xlink:href="_shader_module_8hpp.html" target="_top" xlink:title=" ">
<polygon fill="white" stroke="black" points="318.5,-224.5 318.5,-243.5 425.5,-243.5 425.5,-224.5 318.5,-224.5"/>
<text text-anchor="middle" x="372" y="-231.5" font-family="Helvetica,sans-Serif" font-size="10.00">ShaderModule.hpp</text>
</a>
</g>
</g>
<!-- Node1&#45;&gt;Node11 -->
<g id="edge14" class="edge">
<title>Node1&#45;&gt;Node11</title>
<path fill="none" stroke="midnightblue" d="M273.98,-331.92C289.89,-324.09 309.16,-313.11 324,-300 343.13,-283.1 359.32,-257.37 367.08,-243.92"/>
<polygon fill="midnightblue" stroke="midnightblue" points="272.11,-328.93 264.57,-336.38 275.11,-335.26 272.11,-328.93"/>
</g>
<!-- Node3 -->
<g id="node3" class="node">
<title>Node3</title>
<g id="a_node3"><a xlink:href="_render_graph_8hpp.html" target="_top" xlink:title=" ">
<polygon fill="white" stroke="black" points="86.5,-112.5 86.5,-131.5 187.5,-131.5 187.5,-112.5 86.5,-112.5"/>
<text text-anchor="middle" x="137" y="-119.5" font-family="Helvetica,sans-Serif" font-size="10.00">RenderGraph.hpp</text>
</a>
</g>
</g>
<!-- Node2&#45;&gt;Node3 -->
<g id="edge2" class="edge">
<title>Node2&#45;&gt;Node3</title>
<path fill="none" stroke="midnightblue" d="M52.39,-270.64C45.88,-245.57 38.25,-200.07 57,-168 67.7,-149.71 88.87,-138.27 106.75,-131.51"/>
<polygon fill="midnightblue" stroke="midnightblue" points="49.04,-271.65 55.12,-280.32 55.78,-269.75 49.04,-271.65"/>
</g>
<!-- Node4 -->
<g id="node4" class="node">
<title>Node4</title>
<g id="a_node4"><a xlink:href="_device_8hpp.html" target="_top" xlink:title=" ">
<polygon fill="white" stroke="black" points="307.5,-56.5 307.5,-75.5 378.5,-75.5 378.5,-56.5 307.5,-56.5"/>
<text text-anchor="middle" x="343" y="-63.5" font-family="Helvetica,sans-Serif" font-size="10.00">Device.hpp</text>
</a>
</g>
</g>
<!-- Node3&#45;&gt;Node4 -->
<g id="edge3" class="edge">
<title>Node3&#45;&gt;Node4</title>
<path fill="none" stroke="midnightblue" d="M179.62,-109.83C218.51,-99.63 275.16,-84.78 310.51,-75.52"/>
<polygon fill="midnightblue" stroke="midnightblue" points="178.43,-106.52 169.64,-112.44 180.2,-113.29 178.43,-106.52"/>
</g>
<!-- Node5 -->
<g id="node5" class="node">
<title>Node5</title>
<g id="a_node5"><a xlink:href="_instance_8hpp.html" target="_top" xlink:title=" ">
<polygon fill="white" stroke="black" points="303.5,-0.5 303.5,-19.5 382.5,-19.5 382.5,-0.5 303.5,-0.5"/>
<text text-anchor="middle" x="343" y="-7.5" font-family="Helvetica,sans-Serif" font-size="10.00">Instance.hpp</text>
</a>
</g>
</g>
<!-- Node4&#45;&gt;Node5 -->
<g id="edge4" class="edge">
<title>Node4&#45;&gt;Node5</title>
<path fill="none" stroke="midnightblue" d="M343,-45.8C343,-36.91 343,-26.78 343,-19.75"/>
<polygon fill="midnightblue" stroke="midnightblue" points="339.5,-46.08 343,-56.08 346.5,-46.08 339.5,-46.08"/>
</g>
<!-- Node7 -->
<g id="node7" class="node">
<title>Node7</title>
<g id="a_node7"><a xlink:href="_buffer_8hpp.html" target="_top" xlink:title=" ">
<polygon fill="white" stroke="black" points="268,-168.5 268,-187.5 334,-187.5 334,-168.5 268,-168.5"/>
<text text-anchor="middle" x="301" y="-175.5" font-family="Helvetica,sans-Serif" font-size="10.00">Buffer.hpp</text>
</a>
</g>
</g>
<!-- Node6&#45;&gt;Node7 -->
<g id="edge6" class="edge">
<title>Node6&#45;&gt;Node7</title>
<path fill="none" stroke="midnightblue" d="M255.09,-271.51C260.16,-263.28 266.1,-253.26 271,-244 281.46,-224.22 292.04,-200.12 297.4,-187.56"/>
<polygon fill="midnightblue" stroke="midnightblue" points="252,-269.86 249.67,-280.2 257.93,-273.57 252,-269.86"/>
</g>
<!-- Node8 -->
<g id="node8" class="node">
<title>Node8</title>
<g id="a_node8"><a xlink:href="_texture_8hpp.html" target="_top" xlink:title=" ">
<polygon fill="white" stroke="black" points="188,-224.5 188,-243.5 262,-243.5 262,-224.5 188,-224.5"/>
<text text-anchor="middle" x="225" y="-231.5" font-family="Helvetica,sans-Serif" font-size="10.00">Texture.hpp</text>
</a>
</g>
</g>
<!-- Node6&#45;&gt;Node8 -->
<g id="edge9" class="edge">
<title>Node6&#45;&gt;Node8</title>
<path fill="none" stroke="midnightblue" d="M237.45,-270.4C234.28,-261.36 230.61,-250.94 228.08,-243.75"/>
<polygon fill="midnightblue" stroke="midnightblue" points="234.24,-271.81 240.86,-280.08 240.85,-269.49 234.24,-271.81"/>
</g>
<!-- Node7&#45;&gt;Node3 -->
<g id="edge8" class="edge">
<title>Node7&#45;&gt;Node3</title>
<path fill="none" stroke="midnightblue" d="M265.48,-165.3C234.58,-155.13 190.53,-140.62 162.86,-131.52"/>
<polygon fill="midnightblue" stroke="midnightblue" points="264.42,-168.64 275.01,-168.44 266.61,-161.99 264.42,-168.64"/>
</g>
<!-- Node7&#45;&gt;Node4 -->
<g id="edge7" class="edge">
<title>Node7&#45;&gt;Node4</title>
<path fill="none" stroke="midnightblue" d="M307.87,-159C317.04,-135 332.89,-93.47 339.72,-75.59"/>
<polygon fill="midnightblue" stroke="midnightblue" points="304.59,-157.78 304.3,-168.37 311.13,-160.27 304.59,-157.78"/>
</g>
<!-- Node9 -->
<g id="node9" class="node">
<title>Node9</title>
<g id="a_node9"><a xlink:href="_dependent_texture_info_8hpp.html" target="_top" xlink:title=" ">
<polygon fill="white" stroke="black" points="66,-168.5 66,-187.5 212,-187.5 212,-168.5 66,-168.5"/>
<text text-anchor="middle" x="139" y="-175.5" font-family="Helvetica,sans-Serif" font-size="10.00">DependentTextureInfo.hpp</text>
</a>
</g>
</g>
<!-- Node8&#45;&gt;Node9 -->
<g id="edge10" class="edge">
<title>Node8&#45;&gt;Node9</title>
<path fill="none" stroke="midnightblue" d="M202.55,-218.9C186.78,-209 166.19,-196.07 152.78,-187.65"/>
<polygon fill="midnightblue" stroke="midnightblue" points="200.85,-221.97 211.18,-224.32 204.57,-216.04 200.85,-221.97"/>
</g>
<!-- Node10 -->
<g id="node10" class="node">
<title>Node10</title>
<g id="a_node10"><a xlink:href="_swapchain_8hpp.html" target="_top" xlink:title=" ">
<polygon fill="white" stroke="black" points="206,-112.5 206,-131.5 296,-131.5 296,-112.5 206,-112.5"/>
<text text-anchor="middle" x="251" y="-119.5" font-family="Helvetica,sans-Serif" font-size="10.00">Swapchain.hpp</text>
</a>
</g>
</g>
<!-- Node8&#45;&gt;Node10 -->
<g id="edge12" class="edge">
<title>Node8&#45;&gt;Node10</title>
<path fill="none" stroke="midnightblue" d="M229.41,-214.35C235.1,-190.25 244.78,-149.31 248.97,-131.59"/>
<polygon fill="midnightblue" stroke="midnightblue" points="225.93,-213.83 227.04,-224.37 232.75,-215.44 225.93,-213.83"/>
</g>
<!-- Node9&#45;&gt;Node3 -->
<g id="edge11" class="edge">
<title>Node9&#45;&gt;Node3</title>
<path fill="none" stroke="midnightblue" d="M138.29,-157.8C137.96,-148.91 137.58,-138.78 137.32,-131.75"/>
<polygon fill="midnightblue" stroke="midnightblue" points="134.8,-158.22 138.67,-168.08 141.8,-157.96 134.8,-158.22"/>
</g>
<!-- Node10&#45;&gt;Node4 -->
<g id="edge13" class="edge">
<title>Node10&#45;&gt;Node4</title>
<path fill="none" stroke="midnightblue" d="M274.55,-107.18C291.48,-97.24 313.78,-84.15 328.26,-75.65"/>
<polygon fill="midnightblue" stroke="midnightblue" points="272.63,-104.24 265.78,-112.32 276.18,-110.28 272.63,-104.24"/>
</g>
<!-- Node11&#45;&gt;Node4 -->
<g id="edge15" class="edge">
<title>Node11&#45;&gt;Node4</title>
<path fill="none" stroke="midnightblue" d="M368.67,-213.93C362.38,-177.92 348.98,-101.23 344.5,-75.57"/>
<polygon fill="midnightblue" stroke="midnightblue" points="365.27,-214.83 370.44,-224.08 372.17,-213.62 365.27,-214.83"/>
</g>
<!-- Node12 -->
<g id="node12" class="node">
<title>Node12</title>
<g id="a_node12"><a xlink:href="_push_constant_info_8hpp.html" target="_top" xlink:title=" ">
<polygon fill="white" stroke="black" points="390.5,-168.5 390.5,-187.5 513.5,-187.5 513.5,-168.5 390.5,-168.5"/>
<text text-anchor="middle" x="452" y="-175.5" font-family="Helvetica,sans-Serif" font-size="10.00">PushConstantInfo.hpp</text>
</a>
</g>
</g>
<!-- Node11&#45;&gt;Node12 -->
<g id="edge16" class="edge">
<title>Node11&#45;&gt;Node12</title>
<path fill="none" stroke="midnightblue" d="M393.3,-218.62C407.92,-208.76 426.83,-195.99 439.18,-187.65"/>
<polygon fill="midnightblue" stroke="midnightblue" points="391.18,-215.83 384.85,-224.32 395.1,-221.63 391.18,-215.83"/>
</g>
<!-- Node13 -->
<g id="node13" class="node">
<title>Node13</title>
<g id="a_node13"><a xlink:href="_compute_pipeline_8hpp.html" target="_top" xlink:title=" ">
<polygon fill="white" stroke="black" points="390.5,-112.5 390.5,-131.5 511.5,-131.5 511.5,-112.5 390.5,-112.5"/>
<text text-anchor="middle" x="451" y="-119.5" font-family="Helvetica,sans-Serif" font-size="10.00">ComputePipeline.hpp</text>
</a>
</g>
</g>
<!-- Node12&#45;&gt;Node13 -->
<g id="edge17" class="edge">
<title>Node12&#45;&gt;Node13</title>
<path fill="none" stroke="midnightblue" d="M451.64,-157.8C451.48,-148.91 451.29,-138.78 451.16,-131.75"/>
<polygon fill="midnightblue" stroke="midnightblue" points="448.15,-158.15 451.83,-168.08 455.15,-158.02 448.15,-158.15"/>
</g>
<!-- Node14 -->
<g id="node14" class="node">
<title>Node14</title>
<g id="a_node14"><a xlink:href="_graphics_pipeline_8hpp.html" target="_top" xlink:title=" ">
<polygon fill="white" stroke="black" points="529.5,-112.5 529.5,-131.5 648.5,-131.5 648.5,-112.5 529.5,-112.5"/>
<text text-anchor="middle" x="589" y="-119.5" font-family="Helvetica,sans-Serif" font-size="10.00">GraphicsPipeline.hpp</text>
</a>
</g>
</g>
<!-- Node12&#45;&gt;Node14 -->
<g id="edge19" class="edge">
<title>Node12&#45;&gt;Node14</title>
<path fill="none" stroke="midnightblue" d="M483.02,-164.77C508.76,-154.63 544.69,-140.47 567.39,-131.52"/>
<polygon fill="midnightblue" stroke="midnightblue" points="481.73,-161.52 473.71,-168.44 484.29,-168.03 481.73,-161.52"/>
</g>
<!-- Node13&#45;&gt;Node4 -->
<g id="edge18" class="edge">
<title>Node13&#45;&gt;Node4</title>
<path fill="none" stroke="midnightblue" d="M424.45,-107.73C404.45,-97.73 377.61,-84.31 360.31,-75.65"/>
<polygon fill="midnightblue" stroke="midnightblue" points="423.14,-110.98 433.65,-112.32 426.27,-104.72 423.14,-110.98"/>
</g>
<!-- Node14&#45;&gt;Node4 -->
<g id="edge20" class="edge">
<title>Node14&#45;&gt;Node4</title>
<path fill="none" stroke="midnightblue" d="M540.23,-110.29C492.57,-99.83 421.15,-84.16 378.6,-74.82"/>
<polygon fill="midnightblue" stroke="midnightblue" points="539.5,-113.72 550.02,-112.44 541,-106.88 539.5,-113.72"/>
</g>
</g>
</svg>
