<?xml version="1.0" encoding="UTF-8" standalone="no"?>
<!DOCTYPE svg PUBLIC "-//W3C//DTD SVG 1.1//EN"
 "http://www.w3.org/Graphics/SVG/1.1/DTD/svg11.dtd">
<!-- Generated by graphviz version 2.43.0 (0)
 -->
<!-- Title: EventDispatcher.hpp Pages: 1 -->
<svg width="670pt" height="420pt"
 viewBox="0.00 0.00 670.00 420.00" xmlns="http://www.w3.org/2000/svg" xmlns:xlink="http://www.w3.org/1999/xlink">
<g id="graph0" class="graph" transform="scale(1 1) rotate(0) translate(4 416)">
<title>EventDispatcher.hpp</title>
<polygon fill="white" stroke="transparent" points="-4,4 -4,-416 666,-416 666,4 -4,4"/>
<!-- Node1 -->
<g id="node1" class="node">
<title>Node1</title>
<g id="a_node1"><a xlink:title=" ">
<polygon fill="#bfbfbf" stroke="black" points="221.5,-392.5 221.5,-411.5 338.5,-411.5 338.5,-392.5 221.5,-392.5"/>
<text text-anchor="middle" x="280" y="-399.5" font-family="Helvetica,sans-Serif" font-size="10.00">EventDispatcher.hpp</text>
</a>
</g>
</g>
<!-- Node2 -->
<g id="node2" class="node">
<title>Node2</title>
<g id="a_node2"><a xlink:href="_event_type_8hpp.html" target="_top" xlink:title=" ">
<polygon fill="white" stroke="black" points="0,-224.5 0,-243.5 240,-243.5 240,-224.5 0,-224.5"/>
<text text-anchor="middle" x="120" y="-231.5" font-family="Helvetica,sans-Serif" font-size="10.00">Liger&#45;Engine/Core/Event/Detail/EventType.hpp</text>
</a>
</g>
</g>
<!-- Node1&#45;&gt;Node2 -->
<g id="edge1" class="edge">
<title>Node1&#45;&gt;Node2</title>
<path fill="none" stroke="midnightblue" d="M240.5,-392.49C217.17,-385.81 188.32,-374.46 168,-356 138,-328.74 126.47,-280.28 122.26,-253.71"/>
<polygon fill="midnightblue" stroke="midnightblue" points="125.73,-253.2 120.87,-243.78 118.79,-254.17 125.73,-253.2"/>
</g>
<!-- Node4 -->
<g id="node4" class="node">
<title>Node4</title>
<g id="a_node4"><a xlink:href="_event_sink_8hpp.html" target="_top" xlink:title=" ">
<polygon fill="white" stroke="black" points="177,-336.5 177,-355.5 383,-355.5 383,-336.5 177,-336.5"/>
<text text-anchor="middle" x="280" y="-343.5" font-family="Helvetica,sans-Serif" font-size="10.00">Liger&#45;Engine/Core/Event/EventSink.hpp</text>
</a>
</g>
</g>
<!-- Node1&#45;&gt;Node4 -->
<g id="edge3" class="edge">
<title>Node1&#45;&gt;Node4</title>
<path fill="none" stroke="midnightblue" d="M280,-392.08C280,-385.01 280,-374.86 280,-365.99"/>
<polygon fill="midnightblue" stroke="midnightblue" points="283.5,-365.75 280,-355.75 276.5,-365.75 283.5,-365.75"/>
</g>
<!-- Node15 -->
<g id="node15" class="node">
<title>Node15</title>
<g id="a_node15"><a xlink:title=" ">
<polygon fill="white" stroke="#bfbfbf" points="401.5,-336.5 401.5,-355.5 494.5,-355.5 494.5,-336.5 401.5,-336.5"/>
<text text-anchor="middle" x="448" y="-343.5" font-family="Helvetica,sans-Serif" font-size="10.00">unordered_map</text>
</a>
</g>
</g>
<!-- Node1&#45;&gt;Node15 -->
<g id="edge17" class="edge">
<title>Node1&#45;&gt;Node15</title>
<path fill="none" stroke="midnightblue" d="M306.62,-392.44C335.01,-383.32 380.14,-368.81 411.75,-358.65"/>
<polygon fill="midnightblue" stroke="midnightblue" points="413.06,-361.91 421.5,-355.52 410.91,-355.24 413.06,-361.91"/>
</g>
<!-- Node3 -->
<g id="node3" class="node">
<title>Node3</title>
<g id="a_node3"><a xlink:title=" ">
<polygon fill="white" stroke="#bfbfbf" points="124,-0.5 124,-19.5 174,-19.5 174,-0.5 124,-0.5"/>
<text text-anchor="middle" x="149" y="-7.5" font-family="Helvetica,sans-Serif" font-size="10.00">cstdint</text>
</a>
</g>
</g>
<!-- Node2&#45;&gt;Node3 -->
<g id="edge2" class="edge">
<title>Node2&#45;&gt;Node3</title>
<path fill="none" stroke="midnightblue" d="M120.58,-224.48C122.38,-198.87 128.43,-120.35 139,-56 140.44,-47.2 142.53,-37.54 144.41,-29.44"/>
<polygon fill="midnightblue" stroke="midnightblue" points="147.85,-30.11 146.8,-19.57 141.05,-28.47 147.85,-30.11"/>
</g>
<!-- Node5 -->
<g id="node5" class="node">
<title>Node5</title>
<g id="a_node5"><a xlink:href="_base_event_sink_8hpp.html" target="_top" xlink:title=" ">
<polygon fill="white" stroke="black" points="148.5,-280.5 148.5,-299.5 411.5,-299.5 411.5,-280.5 148.5,-280.5"/>
<text text-anchor="middle" x="280" y="-287.5" font-family="Helvetica,sans-Serif" font-size="10.00">Liger&#45;Engine/Core/Event/Detail/BaseEventSink.hpp</text>
</a>
</g>
</g>
<!-- Node4&#45;&gt;Node5 -->
<g id="edge4" class="edge">
<title>Node4&#45;&gt;Node5</title>
<path fill="none" stroke="midnightblue" d="M280,-336.08C280,-329.01 280,-318.86 280,-309.99"/>
<polygon fill="midnightblue" stroke="midnightblue" points="283.5,-309.75 280,-299.75 276.5,-309.75 283.5,-309.75"/>
</g>
<!-- Node6 -->
<g id="node6" class="node">
<title>Node6</title>
<g id="a_node6"><a xlink:href="_callback_8hpp.html" target="_top" xlink:title=" ">
<polygon fill="white" stroke="black" points="430,-280.5 430,-299.5 662,-299.5 662,-280.5 430,-280.5"/>
<text text-anchor="middle" x="546" y="-287.5" font-family="Helvetica,sans-Serif" font-size="10.00">Liger&#45;Engine/Core/Event/Detail/Callback.hpp</text>
</a>
</g>
</g>
<!-- Node4&#45;&gt;Node6 -->
<g id="edge5" class="edge">
<title>Node4&#45;&gt;Node6</title>
<path fill="none" stroke="midnightblue" d="M322.15,-336.44C368.75,-326.98 443.84,-311.74 494.05,-301.55"/>
<polygon fill="midnightblue" stroke="midnightblue" points="494.94,-304.94 504.05,-299.52 493.55,-298.08 494.94,-304.94"/>
</g>
<!-- Node7 -->
<g id="node7" class="node">
<title>Node7</title>
<g id="a_node7"><a xlink:href="_log_8hpp.html" target="_top" xlink:title=" ">
<polygon fill="white" stroke="black" points="371,-168.5 371,-187.5 535,-187.5 535,-168.5 371,-168.5"/>
<text text-anchor="middle" x="453" y="-175.5" font-family="Helvetica,sans-Serif" font-size="10.00">Liger&#45;Engine/Core/Log/Log.hpp</text>
</a>
</g>
</g>
<!-- Node6&#45;&gt;Node7 -->
<g id="edge6" class="edge">
<title>Node6&#45;&gt;Node7</title>
<path fill="none" stroke="midnightblue" d="M507.74,-280.45C488.13,-273.93 465.91,-262.76 454,-244 445.31,-230.32 446.06,-211.53 448.39,-197.67"/>
<polygon fill="midnightblue" stroke="midnightblue" points="451.83,-198.31 450.44,-187.81 444.98,-196.88 451.83,-198.31"/>
</g>
<!-- Node14 -->
<g id="node14" class="node">
<title>Node14</title>
<g id="a_node14"><a xlink:href="_core_2_log_channel_8hpp.html" target="_top" xlink:title=" ">
<polygon fill="white" stroke="black" points="463,-224.5 463,-243.5 647,-243.5 647,-224.5 463,-224.5"/>
<text text-anchor="middle" x="555" y="-231.5" font-family="Helvetica,sans-Serif" font-size="10.00">Liger&#45;Engine/Core/LogChannel.hpp</text>
</a>
</g>
</g>
<!-- Node6&#45;&gt;Node14 -->
<g id="edge15" class="edge">
<title>Node6&#45;&gt;Node14</title>
<path fill="none" stroke="midnightblue" d="M547.49,-280.08C548.68,-272.93 550.39,-262.64 551.88,-253.69"/>
<polygon fill="midnightblue" stroke="midnightblue" points="555.35,-254.19 553.54,-243.75 548.45,-253.04 555.35,-254.19"/>
</g>
<!-- Node8 -->
<g id="node8" class="node">
<title>Node8</title>
<g id="a_node8"><a xlink:href="_message_8hpp.html" target="_top" xlink:title=" ">
<polygon fill="white" stroke="black" points="148.5,-56.5 148.5,-75.5 339.5,-75.5 339.5,-56.5 148.5,-56.5"/>
<text text-anchor="middle" x="244" y="-63.5" font-family="Helvetica,sans-Serif" font-size="10.00">Liger&#45;Engine/Core/Log/Message.hpp</text>
</a>
</g>
</g>
<!-- Node7&#45;&gt;Node8 -->
<g id="edge7" class="edge">
<title>Node7&#45;&gt;Node8</title>
<path fill="none" stroke="midnightblue" d="M370.91,-171.5C313.65,-165.76 244.33,-154.32 226,-132 214.78,-118.34 223.05,-98.19 231.73,-83.96"/>
<polygon fill="midnightblue" stroke="midnightblue" points="234.67,-85.85 237.28,-75.58 228.84,-81.98 234.67,-85.85"/>
</g>
<!-- Node11 -->
<g id="node11" class="node">
<title>Node11</title>
<g id="a_node11"><a xlink:href="_writer_8hpp.html" target="_top" xlink:title=" ">
<polygon fill="white" stroke="black" points="235,-112.5 235,-131.5 411,-131.5 411,-112.5 235,-112.5"/>
<text text-anchor="middle" x="323" y="-119.5" font-family="Helvetica,sans-Serif" font-size="10.00">Liger&#45;Engine/Core/Log/Writer.hpp</text>
</a>
</g>
</g>
<!-- Node7&#45;&gt;Node11 -->
<g id="edge11" class="edge">
<title>Node7&#45;&gt;Node11</title>
<path fill="none" stroke="midnightblue" d="M432.4,-168.44C411.01,-159.56 377.32,-145.56 352.98,-135.45"/>
<polygon fill="midnightblue" stroke="midnightblue" points="354.08,-132.12 343.5,-131.52 351.39,-138.58 354.08,-132.12"/>
</g>
<!-- Node12 -->
<g id="node12" class="node">
<title>Node12</title>
<g id="a_node12"><a xlink:title=" ">
<polygon fill="white" stroke="#bfbfbf" points="429.5,-112.5 429.5,-131.5 496.5,-131.5 496.5,-112.5 429.5,-112.5"/>
<text text-anchor="middle" x="463" y="-119.5" font-family="Helvetica,sans-Serif" font-size="10.00">fmt/core.h</text>
</a>
</g>
</g>
<!-- Node7&#45;&gt;Node12 -->
<g id="edge13" class="edge">
<title>Node7&#45;&gt;Node12</title>
<path fill="none" stroke="midnightblue" d="M454.65,-168.08C455.98,-160.93 457.88,-150.64 459.54,-141.69"/>
<polygon fill="midnightblue" stroke="midnightblue" points="463,-142.22 461.38,-131.75 456.12,-140.95 463,-142.22"/>
</g>
<!-- Node13 -->
<g id="node13" class="node">
<title>Node13</title>
<g id="a_node13"><a xlink:title=" ">
<polygon fill="white" stroke="#bfbfbf" points="514.5,-112.5 514.5,-131.5 561.5,-131.5 561.5,-112.5 514.5,-112.5"/>
<text text-anchor="middle" x="538" y="-119.5" font-family="Helvetica,sans-Serif" font-size="10.00">vector</text>
</a>
</g>
</g>
<!-- Node7&#45;&gt;Node13 -->
<g id="edge14" class="edge">
<title>Node7&#45;&gt;Node13</title>
<path fill="none" stroke="midnightblue" d="M466.66,-168.32C479.92,-159.9 500.27,-146.97 515.85,-137.07"/>
<polygon fill="midnightblue" stroke="midnightblue" points="517.81,-139.97 524.38,-131.65 514.06,-134.06 517.81,-139.97"/>
</g>
<!-- Node8&#45;&gt;Node3 -->
<g id="edge8" class="edge">
<title>Node8&#45;&gt;Node3</title>
<path fill="none" stroke="midnightblue" d="M228.74,-56.32C213.78,-47.82 190.75,-34.73 173.27,-24.8"/>
<polygon fill="midnightblue" stroke="midnightblue" points="174.65,-21.55 164.23,-19.65 171.19,-27.64 174.65,-21.55"/>
</g>
<!-- Node9 -->
<g id="node9" class="node">
<title>Node9</title>
<g id="a_node9"><a xlink:title=" ">
<polygon fill="white" stroke="#bfbfbf" points="207,-0.5 207,-19.5 251,-19.5 251,-0.5 207,-0.5"/>
<text text-anchor="middle" x="229" y="-7.5" font-family="Helvetica,sans-Serif" font-size="10.00">string</text>
</a>
</g>
</g>
<!-- Node8&#45;&gt;Node9 -->
<g id="edge9" class="edge">
<title>Node8&#45;&gt;Node9</title>
<path fill="none" stroke="midnightblue" d="M241.52,-56.08C239.51,-48.85 236.61,-38.41 234.11,-29.4"/>
<polygon fill="midnightblue" stroke="midnightblue" points="237.48,-28.45 231.43,-19.75 230.74,-30.32 237.48,-28.45"/>
</g>
<!-- Node10 -->
<g id="node10" class="node">
<title>Node10</title>
<g id="a_node10"><a xlink:title=" ">
<polygon fill="white" stroke="#bfbfbf" points="269.5,-0.5 269.5,-19.5 342.5,-19.5 342.5,-0.5 269.5,-0.5"/>
<text text-anchor="middle" x="306" y="-7.5" font-family="Helvetica,sans-Serif" font-size="10.00">string_view</text>
</a>
</g>
</g>
<!-- Node8&#45;&gt;Node10 -->
<g id="edge10" class="edge">
<title>Node8&#45;&gt;Node10</title>
<path fill="none" stroke="midnightblue" d="M253.96,-56.32C263.13,-48.34 276.94,-36.31 288.03,-26.65"/>
<polygon fill="midnightblue" stroke="midnightblue" points="290.62,-29.04 295.86,-19.83 286.02,-23.76 290.62,-29.04"/>
</g>
<!-- Node11&#45;&gt;Node8 -->
<g id="edge12" class="edge">
<title>Node11&#45;&gt;Node8</title>
<path fill="none" stroke="midnightblue" d="M310.31,-112.32C298.1,-103.98 279.42,-91.21 265,-81.35"/>
<polygon fill="midnightblue" stroke="midnightblue" points="266.89,-78.41 256.66,-75.65 262.94,-84.19 266.89,-78.41"/>
</g>
<!-- Node14&#45;&gt;Node7 -->
<g id="edge16" class="edge">
<title>Node14&#45;&gt;Node7</title>
<path fill="none" stroke="midnightblue" d="M538.61,-224.32C522.33,-215.7 497.13,-202.36 478.28,-192.39"/>
<polygon fill="midnightblue" stroke="midnightblue" points="479.82,-189.24 469.35,-187.65 476.55,-195.43 479.82,-189.24"/>
</g>
</g>
</svg>
