<?xml version="1.0" encoding="UTF-8" standalone="no"?>
<!DOCTYPE svg PUBLIC "-//W3C//DTD SVG 1.1//EN"
 "http://www.w3.org/Graphics/SVG/1.1/DTD/svg11.dtd">
<!-- Generated by graphviz version 2.43.0 (0)
 -->
<!-- Title: EventSink.hpp Pages: 1 -->
<svg width="574pt" height="364pt"
 viewBox="0.00 0.00 574.00 364.00" xmlns="http://www.w3.org/2000/svg" xmlns:xlink="http://www.w3.org/1999/xlink">
<g id="graph0" class="graph" transform="scale(1 1) rotate(0) translate(4 360)">
<title>EventSink.hpp</title>
<polygon fill="white" stroke="transparent" points="-4,4 -4,-360 570,-360 570,4 -4,4"/>
<!-- Node1 -->
<g id="node1" class="node">
<title>Node1</title>
<g id="a_node1"><a xlink:title=" ">
<polygon fill="#bfbfbf" stroke="black" points="221.5,-336.5 221.5,-355.5 307.5,-355.5 307.5,-336.5 221.5,-336.5"/>
<text text-anchor="middle" x="264.5" y="-343.5" font-family="Helvetica,sans-Serif" font-size="10.00">EventSink.hpp</text>
</a>
</g>
</g>
<!-- Node2 -->
<g id="node2" class="node">
<title>Node2</title>
<g id="a_node2"><a xlink:href="_base_event_sink_8hpp.html" target="_top" xlink:title=" ">
<polygon fill="white" stroke="black" points="0,-280.5 0,-299.5 263,-299.5 263,-280.5 0,-280.5"/>
<text text-anchor="middle" x="131.5" y="-287.5" font-family="Helvetica,sans-Serif" font-size="10.00">Liger&#45;Engine/Core/Event/Detail/BaseEventSink.hpp</text>
</a>
</g>
</g>
<!-- Node1&#45;&gt;Node2 -->
<g id="edge1" class="edge">
<title>Node1&#45;&gt;Node2</title>
<path fill="none" stroke="midnightblue" d="M243.43,-336.44C221.44,-327.52 186.77,-313.44 161.84,-303.32"/>
<polygon fill="midnightblue" stroke="midnightblue" points="163.06,-300.04 152.48,-299.52 160.42,-306.52 163.06,-300.04"/>
</g>
<!-- Node3 -->
<g id="node3" class="node">
<title>Node3</title>
<g id="a_node3"><a xlink:href="_callback_8hpp.html" target="_top" xlink:title=" ">
<polygon fill="white" stroke="black" points="281.5,-280.5 281.5,-299.5 513.5,-299.5 513.5,-280.5 281.5,-280.5"/>
<text text-anchor="middle" x="397.5" y="-287.5" font-family="Helvetica,sans-Serif" font-size="10.00">Liger&#45;Engine/Core/Event/Detail/Callback.hpp</text>
</a>
</g>
</g>
<!-- Node1&#45;&gt;Node3 -->
<g id="edge2" class="edge">
<title>Node1&#45;&gt;Node3</title>
<path fill="none" stroke="midnightblue" d="M285.57,-336.44C307.56,-327.52 342.23,-313.44 367.16,-303.32"/>
<polygon fill="midnightblue" stroke="midnightblue" points="368.58,-306.52 376.52,-299.52 365.94,-300.04 368.58,-306.52"/>
</g>
<!-- Node4 -->
<g id="node4" class="node">
<title>Node4</title>
<g id="a_node4"><a xlink:href="_log_8hpp.html" target="_top" xlink:title=" ">
<polygon fill="white" stroke="black" points="315.5,-168.5 315.5,-187.5 479.5,-187.5 479.5,-168.5 315.5,-168.5"/>
<text text-anchor="middle" x="397.5" y="-175.5" font-family="Helvetica,sans-Serif" font-size="10.00">Liger&#45;Engine/Core/Log/Log.hpp</text>
</a>
</g>
</g>
<!-- Node3&#45;&gt;Node4 -->
<g id="edge3" class="edge">
<title>Node3&#45;&gt;Node4</title>
<path fill="none" stroke="midnightblue" d="M385.51,-280.34C370.58,-268.41 348.02,-245.9 356.5,-224 360.95,-212.5 369.87,-202.13 378.25,-194.25"/>
<polygon fill="midnightblue" stroke="midnightblue" points="380.74,-196.73 385.96,-187.51 376.13,-191.46 380.74,-196.73"/>
</g>
<!-- Node12 -->
<g id="node12" class="node">
<title>Node12</title>
<g id="a_node12"><a xlink:href="_core_2_log_channel_8hpp.html" target="_top" xlink:title=" ">
<polygon fill="white" stroke="black" points="365.5,-224.5 365.5,-243.5 549.5,-243.5 549.5,-224.5 365.5,-224.5"/>
<text text-anchor="middle" x="457.5" y="-231.5" font-family="Helvetica,sans-Serif" font-size="10.00">Liger&#45;Engine/Core/LogChannel.hpp</text>
</a>
</g>
</g>
<!-- Node3&#45;&gt;Node12 -->
<g id="edge12" class="edge">
<title>Node3&#45;&gt;Node12</title>
<path fill="none" stroke="midnightblue" d="M407.14,-280.32C416.01,-272.34 429.37,-260.31 440.11,-250.65"/>
<polygon fill="midnightblue" stroke="midnightblue" points="442.59,-253.13 447.68,-243.83 437.91,-247.92 442.59,-253.13"/>
</g>
<!-- Node5 -->
<g id="node5" class="node">
<title>Node5</title>
<g id="a_node5"><a xlink:href="_message_8hpp.html" target="_top" xlink:title=" ">
<polygon fill="white" stroke="black" points="174,-56.5 174,-75.5 365,-75.5 365,-56.5 174,-56.5"/>
<text text-anchor="middle" x="269.5" y="-63.5" font-family="Helvetica,sans-Serif" font-size="10.00">Liger&#45;Engine/Core/Log/Message.hpp</text>
</a>
</g>
</g>
<!-- Node4&#45;&gt;Node5 -->
<g id="edge4" class="edge">
<title>Node4&#45;&gt;Node5</title>
<path fill="none" stroke="midnightblue" d="M336.68,-168.47C294.49,-161.17 243.6,-149.1 230.5,-132 218.16,-115.9 234.82,-95.62 250.03,-82.04"/>
<polygon fill="midnightblue" stroke="midnightblue" points="252.29,-84.71 257.69,-75.6 247.78,-79.35 252.29,-84.71"/>
</g>
<!-- Node9 -->
<g id="node9" class="node">
<title>Node9</title>
<g id="a_node9"><a xlink:href="_writer_8hpp.html" target="_top" xlink:title=" ">
<polygon fill="white" stroke="black" points="239.5,-112.5 239.5,-131.5 415.5,-131.5 415.5,-112.5 239.5,-112.5"/>
<text text-anchor="middle" x="327.5" y="-119.5" font-family="Helvetica,sans-Serif" font-size="10.00">Liger&#45;Engine/Core/Log/Writer.hpp</text>
</a>
</g>
</g>
<!-- Node4&#45;&gt;Node9 -->
<g id="edge8" class="edge">
<title>Node4&#45;&gt;Node9</title>
<path fill="none" stroke="midnightblue" d="M386.25,-168.32C375.7,-160.18 359.7,-147.84 347.06,-138.09"/>
<polygon fill="midnightblue" stroke="midnightblue" points="349.01,-135.17 338.95,-131.83 344.73,-140.71 349.01,-135.17"/>
</g>
<!-- Node10 -->
<g id="node10" class="node">
<title>Node10</title>
<g id="a_node10"><a xlink:title=" ">
<polygon fill="white" stroke="#bfbfbf" points="434,-112.5 434,-131.5 501,-131.5 501,-112.5 434,-112.5"/>
<text text-anchor="middle" x="467.5" y="-119.5" font-family="Helvetica,sans-Serif" font-size="10.00">fmt/core.h</text>
</a>
</g>
</g>
<!-- Node4&#45;&gt;Node10 -->
<g id="edge10" class="edge">
<title>Node4&#45;&gt;Node10</title>
<path fill="none" stroke="midnightblue" d="M408.75,-168.32C419.3,-160.18 435.3,-147.84 447.94,-138.09"/>
<polygon fill="midnightblue" stroke="midnightblue" points="450.27,-140.71 456.05,-131.83 445.99,-135.17 450.27,-140.71"/>
</g>
<!-- Node11 -->
<g id="node11" class="node">
<title>Node11</title>
<g id="a_node11"><a xlink:title=" ">
<polygon fill="white" stroke="#bfbfbf" points="519,-112.5 519,-131.5 566,-131.5 566,-112.5 519,-112.5"/>
<text text-anchor="middle" x="542.5" y="-119.5" font-family="Helvetica,sans-Serif" font-size="10.00">vector</text>
</a>
</g>
</g>
<!-- Node4&#45;&gt;Node11 -->
<g id="edge11" class="edge">
<title>Node4&#45;&gt;Node11</title>
<path fill="none" stroke="midnightblue" d="M420.48,-168.44C444.66,-159.44 482.92,-145.19 510.15,-135.05"/>
<polygon fill="midnightblue" stroke="midnightblue" points="511.48,-138.29 519.63,-131.52 509.04,-131.73 511.48,-138.29"/>
</g>
<!-- Node6 -->
<g id="node6" class="node">
<title>Node6</title>
<g id="a_node6"><a xlink:title=" ">
<polygon fill="white" stroke="#bfbfbf" points="179.5,-0.5 179.5,-19.5 229.5,-19.5 229.5,-0.5 179.5,-0.5"/>
<text text-anchor="middle" x="204.5" y="-7.5" font-family="Helvetica,sans-Serif" font-size="10.00">cstdint</text>
</a>
</g>
</g>
<!-- Node5&#45;&gt;Node6 -->
<g id="edge5" class="edge">
<title>Node5&#45;&gt;Node6</title>
<path fill="none" stroke="midnightblue" d="M259.06,-56.32C249.35,-48.26 234.68,-36.08 223,-26.37"/>
<polygon fill="midnightblue" stroke="midnightblue" points="225.06,-23.53 215.13,-19.83 220.59,-28.92 225.06,-23.53"/>
</g>
<!-- Node7 -->
<g id="node7" class="node">
<title>Node7</title>
<g id="a_node7"><a xlink:title=" ">
<polygon fill="white" stroke="#bfbfbf" points="247.5,-0.5 247.5,-19.5 291.5,-19.5 291.5,-0.5 247.5,-0.5"/>
<text text-anchor="middle" x="269.5" y="-7.5" font-family="Helvetica,sans-Serif" font-size="10.00">string</text>
</a>
</g>
</g>
<!-- Node5&#45;&gt;Node7 -->
<g id="edge6" class="edge">
<title>Node5&#45;&gt;Node7</title>
<path fill="none" stroke="midnightblue" d="M269.5,-56.08C269.5,-49.01 269.5,-38.86 269.5,-29.99"/>
<polygon fill="midnightblue" stroke="midnightblue" points="273,-29.75 269.5,-19.75 266,-29.75 273,-29.75"/>
</g>
<!-- Node8 -->
<g id="node8" class="node">
<title>Node8</title>
<g id="a_node8"><a xlink:title=" ">
<polygon fill="white" stroke="#bfbfbf" points="310,-0.5 310,-19.5 383,-19.5 383,-0.5 310,-0.5"/>
<text text-anchor="middle" x="346.5" y="-7.5" font-family="Helvetica,sans-Serif" font-size="10.00">string_view</text>
</a>
</g>
</g>
<!-- Node5&#45;&gt;Node8 -->
<g id="edge7" class="edge">
<title>Node5&#45;&gt;Node8</title>
<path fill="none" stroke="midnightblue" d="M281.87,-56.32C293.66,-48.06 311.63,-35.45 325.64,-25.63"/>
<polygon fill="midnightblue" stroke="midnightblue" points="327.98,-28.26 334.16,-19.65 323.96,-22.53 327.98,-28.26"/>
</g>
<!-- Node9&#45;&gt;Node5 -->
<g id="edge9" class="edge">
<title>Node9&#45;&gt;Node5</title>
<path fill="none" stroke="midnightblue" d="M318.18,-112.32C309.61,-104.34 296.69,-92.31 286.31,-82.65"/>
<polygon fill="midnightblue" stroke="midnightblue" points="288.69,-80.09 278.99,-75.83 283.92,-85.21 288.69,-80.09"/>
</g>
<!-- Node12&#45;&gt;Node4 -->
<g id="edge13" class="edge">
<title>Node12&#45;&gt;Node4</title>
<path fill="none" stroke="midnightblue" d="M447.86,-224.32C438.99,-216.34 425.63,-204.31 414.89,-194.65"/>
<polygon fill="midnightblue" stroke="midnightblue" points="417.09,-191.92 407.32,-187.83 412.41,-197.13 417.09,-191.92"/>
</g>
</g>
</svg>
