<?xml version="1.0" encoding="UTF-8" standalone="no"?>
<!DOCTYPE svg PUBLIC "-//W3C//DTD SVG 1.1//EN"
 "http://www.w3.org/Graphics/SVG/1.1/DTD/svg11.dtd">
<!-- Generated by graphviz version 2.43.0 (0)
 -->
<!-- Title: Extent.hpp Pages: 1 -->
<!--zoomable 476 -->
<svg id="main" version="1.1" xmlns="http://www.w3.org/2000/svg" xmlns:xlink="http://www.w3.org/1999/xlink" xml:space="preserve" onload="init(evt)">
<style type="text/css"><![CDATA[
.edge:hover path { stroke: red; }
.edge:hover polygon { stroke: red; fill: red; }
]]></style>
<script type="text/javascript"><![CDATA[
var edges = document.getElementsByTagName('g');
if (edges && edges.length) {
  for (var i=0;i<edges.length;i++) {
    if (edges[i].id.substr(0,4)=='edge') {
      edges[i].setAttribute('class','edge');
    }
  }
}
]]></script>
        <defs>
                <circle id="rim" cx="0" cy="0" r="7"/>
                <circle id="rim2" cx="0" cy="0" r="3.5"/>
                <g id="zoomPlus">
                        <use xlink:href="#rim" fill="#404040">
                                <set attributeName="fill" to="#808080" begin="zoomplus.mouseover" end="zoomplus.mouseout"/>
                        </use>
                        <path d="M-4,0h8M0,-4v8" fill="none" stroke="white" stroke-width="1.5" pointer-events="none"/>
                </g>
                <g id="zoomMin">
                        <use xlink:href="#rim" fill="#404040">
                                <set attributeName="fill" to="#808080" begin="zoomminus.mouseover" end="zoomminus.mouseout"/>
                        </use>
                        <path d="M-4,0h8" fill="none" stroke="white" stroke-width="1.5" pointer-events="none"/>
                </g>
                <g id="dirArrow">
                        <path fill="none" stroke="white" stroke-width="1.5" d="M0,-3.0v7 M-2.5,-0.5L0,-3.0L2.5,-0.5"/>
                </g>
               <g id="resetDef">
                       <use xlink:href="#rim2" fill="#404040">
                               <set attributeName="fill" to="#808080" begin="reset.mouseover" end="reset.mouseout"/>
                       </use>
               </g>
        </defs>

<script type="text/javascript">
var viewWidth = 1099;
var viewHeight = 476;
var sectionId = 'dynsection-1';
</script>
<script xlink:href="svgpan.js"/>
<svg id="graph" class="graph">
<g id="viewport">
<title>Extent.hpp</title>
<polygon fill="white" stroke="transparent" points="-4,4 -4,-472 1095,-472 1095,4 -4,4"/>
<!-- Node1 -->
<g id="node1" class="node">
<title>Node1</title>
<g id="a_node1"><a xlink:title=" ">
<polygon fill="#bfbfbf" stroke="black" points="537.5,-448.5 537.5,-467.5 606.5,-467.5 606.5,-448.5 537.5,-448.5"/>
<text text-anchor="middle" x="572" y="-455.5" font-family="Helvetica,sans-Serif" font-size="10.00">Extent.hpp</text>
</a>
</g>
</g>
<!-- Node2 -->
<g id="node2" class="node">
<title>Node2</title>
<g id="a_node2"><a xlink:href="_command_buffer_8hpp.html" target="_top" xlink:title=" ">
<polygon fill="white" stroke="black" points="571,-392.5 571,-411.5 687,-411.5 687,-392.5 571,-392.5"/>
<text text-anchor="middle" x="629" y="-399.5" font-family="Helvetica,sans-Serif" font-size="10.00">CommandBuffer.hpp</text>
</a>
</g>
</g>
<!-- Node1&#45;&gt;Node2 -->
<g id="edge1" class="edge">
<title>Node1&#45;&gt;Node2</title>
<path fill="none" stroke="midnightblue" d="M588.62,-441.25C598.73,-431.67 611.28,-419.79 619.68,-411.83"/>
<polygon fill="midnightblue" stroke="midnightblue" points="586.01,-438.91 581.16,-448.32 590.82,-443.99 586.01,-438.91"/>
</g>
<!-- Node21 -->
<g id="node21" class="node">
<title>Node21</title>
<g id="a_node21"><a xlink:href="_texture_8hpp.html" target="_top" xlink:title=" ">
<polygon fill="white" stroke="black" points="479,-392.5 479,-411.5 553,-411.5 553,-392.5 479,-392.5"/>
<text text-anchor="middle" x="516" y="-399.5" font-family="Helvetica,sans-Serif" font-size="10.00">Texture.hpp</text>
</a>
</g>
</g>
<!-- Node1&#45;&gt;Node21 -->
<g id="edge29" class="edge">
<title>Node1&#45;&gt;Node21</title>
<path fill="none" stroke="midnightblue" d="M555.67,-441.25C545.74,-431.67 533.41,-419.79 525.16,-411.83"/>
<polygon fill="midnightblue" stroke="midnightblue" points="553.37,-443.9 563,-448.32 558.23,-438.86 553.37,-443.9"/>
</g>
<!-- Node3 -->
<g id="node3" class="node">
<title>Node3</title>
<g id="a_node3"><a xlink:href="_render_graph_8hpp.html" target="_top" xlink:title=" ">
<polygon fill="white" stroke="black" points="490.5,-280.5 490.5,-299.5 591.5,-299.5 591.5,-280.5 490.5,-280.5"/>
<text text-anchor="middle" x="541" y="-287.5" font-family="Helvetica,sans-Serif" font-size="10.00">RenderGraph.hpp</text>
</a>
</g>
</g>
<!-- Node2&#45;&gt;Node3 -->
<g id="edge2" class="edge">
<title>Node2&#45;&gt;Node3</title>
<path fill="none" stroke="midnightblue" d="M626.98,-381.84C624.72,-367.99 619.97,-349.42 610,-336 597.64,-319.35 577.14,-307.12 561.7,-299.65"/>
<polygon fill="midnightblue" stroke="midnightblue" points="623.57,-382.7 628.35,-392.15 630.5,-381.78 623.57,-382.7"/>
</g>
<!-- Node4 -->
<g id="node4" class="node">
<title>Node4</title>
<g id="a_node4"><a xlink:href="_output_texture_8hpp.html" target="_top" xlink:title=" ">
<polygon fill="white" stroke="black" points="485.5,-224.5 485.5,-243.5 592.5,-243.5 592.5,-224.5 485.5,-224.5"/>
<text text-anchor="middle" x="539" y="-231.5" font-family="Helvetica,sans-Serif" font-size="10.00">OutputTexture.hpp</text>
</a>
</g>
</g>
<!-- Node3&#45;&gt;Node4 -->
<g id="edge3" class="edge">
<title>Node3&#45;&gt;Node4</title>
<path fill="none" stroke="midnightblue" d="M540.29,-269.8C539.96,-260.91 539.58,-250.78 539.32,-243.75"/>
<polygon fill="midnightblue" stroke="midnightblue" points="536.8,-270.22 540.67,-280.08 543.8,-269.96 536.8,-270.22"/>
</g>
<!-- Node5 -->
<g id="node5" class="node">
<title>Node5</title>
<g id="a_node5"><a xlink:href="_feature_8hpp.html" target="_top" xlink:title=" ">
<polygon fill="white" stroke="black" points="468,-112.5 468,-131.5 542,-131.5 542,-112.5 468,-112.5"/>
<text text-anchor="middle" x="505" y="-119.5" font-family="Helvetica,sans-Serif" font-size="10.00">Feature.hpp</text>
</a>
</g>
</g>
<!-- Node3&#45;&gt;Node5 -->
<g id="edge4" class="edge">
<title>Node3&#45;&gt;Node5</title>
<path fill="none" stroke="midnightblue" d="M570,-275.33C582.23,-267.92 595.19,-257.48 602,-244 606.01,-236.07 605.32,-232.25 602,-224 584.94,-181.6 540.62,-147 518.28,-131.62"/>
<polygon fill="midnightblue" stroke="midnightblue" points="567.93,-272.48 560.91,-280.41 571.34,-278.59 567.93,-272.48"/>
</g>
<!-- Node13 -->
<g id="node13" class="node">
<title>Node13</title>
<g id="a_node13"><a xlink:href="_device_8hpp.html" target="_top" xlink:title=" ">
<polygon fill="white" stroke="black" points="394.5,-224.5 394.5,-243.5 465.5,-243.5 465.5,-224.5 394.5,-224.5"/>
<text text-anchor="middle" x="430" y="-231.5" font-family="Helvetica,sans-Serif" font-size="10.00">Device.hpp</text>
</a>
</g>
</g>
<!-- Node3&#45;&gt;Node13 -->
<g id="edge12" class="edge">
<title>Node3&#45;&gt;Node13</title>
<path fill="none" stroke="midnightblue" d="M513.99,-275.86C493.41,-265.85 465.66,-252.35 447.79,-243.65"/>
<polygon fill="midnightblue" stroke="midnightblue" points="512.64,-279.1 523.17,-280.32 515.7,-272.8 512.64,-279.1"/>
</g>
<!-- Node6 -->
<g id="node6" class="node">
<title>Node6</title>
<g id="a_node6"><a xlink:href="_bloom_feature_8hpp.html" target="_top" xlink:title=" ">
<polygon fill="white" stroke="black" points="425,-56.5 425,-75.5 531,-75.5 531,-56.5 425,-56.5"/>
<text text-anchor="middle" x="478" y="-63.5" font-family="Helvetica,sans-Serif" font-size="10.00">BloomFeature.hpp</text>
</a>
</g>
</g>
<!-- Node5&#45;&gt;Node6 -->
<g id="edge5" class="edge">
<title>Node5&#45;&gt;Node6</title>
<path fill="none" stroke="midnightblue" d="M495.99,-102.98C491.41,-93.82 486.05,-83.09 482.38,-75.75"/>
<polygon fill="midnightblue" stroke="midnightblue" points="492.94,-104.7 500.54,-112.08 499.2,-101.57 492.94,-104.7"/>
</g>
<!-- Node7 -->
<g id="node7" class="node">
<title>Node7</title>
<g id="a_node7"><a xlink:href="_camera_data_collector_8hpp.html" target="_top" xlink:title=" ">
<polygon fill="white" stroke="black" points="0,-56.5 0,-75.5 142,-75.5 142,-56.5 0,-56.5"/>
<text text-anchor="middle" x="71" y="-63.5" font-family="Helvetica,sans-Serif" font-size="10.00">CameraDataCollector.hpp</text>
</a>
</g>
</g>
<!-- Node5&#45;&gt;Node7 -->
<g id="edge6" class="edge">
<title>Node5&#45;&gt;Node7</title>
<path fill="none" stroke="midnightblue" d="M457.66,-115.11C380.75,-105.54 228.34,-86.58 139.57,-75.53"/>
<polygon fill="midnightblue" stroke="midnightblue" points="457.64,-118.63 468,-116.4 458.51,-111.69 457.64,-118.63"/>
</g>
<!-- Node8 -->
<g id="node8" class="node">
<title>Node8</title>
<g id="a_node8"><a xlink:href="_forward_render_feature_8hpp.html" target="_top" xlink:title=" ">
<polygon fill="white" stroke="black" points="549,-56.5 549,-75.5 697,-75.5 697,-56.5 549,-56.5"/>
<text text-anchor="middle" x="623" y="-63.5" font-family="Helvetica,sans-Serif" font-size="10.00">ForwardRenderFeature.hpp</text>
</a>
</g>
</g>
<!-- Node5&#45;&gt;Node8 -->
<g id="edge7" class="edge">
<title>Node5&#45;&gt;Node8</title>
<path fill="none" stroke="midnightblue" d="M532.9,-108.23C554.97,-98.13 585.18,-84.31 604.39,-75.52"/>
<polygon fill="midnightblue" stroke="midnightblue" points="531.33,-105.1 523.7,-112.44 534.25,-111.46 531.33,-105.1"/>
</g>
<!-- Node9 -->
<g id="node9" class="node">
<title>Node9</title>
<g id="a_node9"><a xlink:href="_particle_system_feature_8hpp.html" target="_top" xlink:title=" ">
<polygon fill="white" stroke="black" points="259.5,-56.5 259.5,-75.5 406.5,-75.5 406.5,-56.5 259.5,-56.5"/>
<text text-anchor="middle" x="333" y="-63.5" font-family="Helvetica,sans-Serif" font-size="10.00">ParticleSystemFeature.hpp</text>
</a>
</g>
</g>
<!-- Node5&#45;&gt;Node9 -->
<g id="edge8" class="edge">
<title>Node5&#45;&gt;Node9</title>
<path fill="none" stroke="midnightblue" d="M468.17,-109.44C435.74,-99.26 389.26,-84.66 360.13,-75.52"/>
<polygon fill="midnightblue" stroke="midnightblue" points="467.16,-112.79 477.75,-112.44 469.25,-106.11 467.16,-112.79"/>
</g>
<!-- Node10 -->
<g id="node10" class="node">
<title>Node10</title>
<g id="a_node10"><a xlink:href="_static_mesh_feature_8hpp.html" target="_top" xlink:title=" ">
<polygon fill="white" stroke="black" points="715,-56.5 715,-75.5 843,-75.5 843,-56.5 715,-56.5"/>
<text text-anchor="middle" x="779" y="-63.5" font-family="Helvetica,sans-Serif" font-size="10.00">StaticMeshFeature.hpp</text>
</a>
</g>
</g>
<!-- Node5&#45;&gt;Node10 -->
<g id="edge9" class="edge">
<title>Node5&#45;&gt;Node10</title>
<path fill="none" stroke="midnightblue" d="M552.12,-111.71C603.63,-101.56 685.48,-85.43 735.51,-75.57"/>
<polygon fill="midnightblue" stroke="midnightblue" points="551.37,-108.29 542.24,-113.66 552.73,-115.16 551.37,-108.29"/>
</g>
<!-- Node11 -->
<g id="node11" class="node">
<title>Node11</title>
<g id="a_node11"><a xlink:href="_tonemap_feature_8hpp.html" target="_top" xlink:title=" ">
<polygon fill="white" stroke="black" points="861.5,-56.5 861.5,-75.5 980.5,-75.5 980.5,-56.5 861.5,-56.5"/>
<text text-anchor="middle" x="921" y="-63.5" font-family="Helvetica,sans-Serif" font-size="10.00">TonemapFeature.hpp</text>
</a>
</g>
</g>
<!-- Node5&#45;&gt;Node11 -->
<g id="edge10" class="edge">
<title>Node5&#45;&gt;Node11</title>
<path fill="none" stroke="midnightblue" d="M552.44,-114.86C619.26,-106.21 744.93,-89.93 852,-76 854.99,-75.61 858.06,-75.21 861.16,-74.81"/>
<polygon fill="midnightblue" stroke="midnightblue" points="551.7,-111.43 542.23,-116.18 552.6,-118.37 551.7,-111.43"/>
</g>
<!-- Node12 -->
<g id="node12" class="node">
<title>Node12</title>
<g id="a_node12"><a xlink:href="_renderer_8hpp.html" target="_top" xlink:title=" ">
<polygon fill="white" stroke="black" points="160.5,-56.5 160.5,-75.5 241.5,-75.5 241.5,-56.5 160.5,-56.5"/>
<text text-anchor="middle" x="201" y="-63.5" font-family="Helvetica,sans-Serif" font-size="10.00">Renderer.hpp</text>
</a>
</g>
</g>
<!-- Node5&#45;&gt;Node12 -->
<g id="edge11" class="edge">
<title>Node5&#45;&gt;Node12</title>
<path fill="none" stroke="midnightblue" d="M457.92,-112.7C406.92,-103.7 323.18,-88.89 251,-76 247.96,-75.46 244.82,-74.89 241.66,-74.33"/>
<polygon fill="midnightblue" stroke="midnightblue" points="457.52,-116.18 467.98,-114.47 458.74,-109.29 457.52,-116.18"/>
</g>
<!-- Node13&#45;&gt;Node5 -->
<g id="edge13" class="edge">
<title>Node13&#45;&gt;Node5</title>
<path fill="none" stroke="midnightblue" d="M475.4,-223.19C494.44,-216.59 514.73,-205.73 526,-188 537.58,-169.79 522.08,-144.62 512.15,-131.59"/>
<polygon fill="midnightblue" stroke="midnightblue" points="474.1,-219.93 465.61,-226.26 476.2,-226.6 474.1,-219.93"/>
</g>
<!-- Node14 -->
<g id="node14" class="node">
<title>Node14</title>
<g id="a_node14"><a xlink:href="_layer_8hpp.html" target="_top" xlink:title=" ">
<polygon fill="white" stroke="black" points="276,-168.5 276,-187.5 340,-187.5 340,-168.5 276,-168.5"/>
<text text-anchor="middle" x="308" y="-175.5" font-family="Helvetica,sans-Serif" font-size="10.00">Layer.hpp</text>
</a>
</g>
</g>
<!-- Node13&#45;&gt;Node14 -->
<g id="edge14" class="edge">
<title>Node13&#45;&gt;Node14</title>
<path fill="none" stroke="midnightblue" d="M401.46,-220.37C378.61,-210.26 347.19,-196.35 327.24,-187.52"/>
<polygon fill="midnightblue" stroke="midnightblue" points="400.11,-223.6 410.67,-224.44 402.94,-217.2 400.11,-223.6"/>
</g>
<!-- Node15 -->
<g id="node15" class="node">
<title>Node15</title>
<g id="a_node15"><a xlink:href="_view_8hpp.html" target="_top" xlink:title=" ">
<polygon fill="white" stroke="black" points="358.5,-168.5 358.5,-187.5 419.5,-187.5 419.5,-168.5 358.5,-168.5"/>
<text text-anchor="middle" x="389" y="-175.5" font-family="Helvetica,sans-Serif" font-size="10.00">View.hpp</text>
</a>
</g>
</g>
<!-- Node13&#45;&gt;Node15 -->
<g id="edge16" class="edge">
<title>Node13&#45;&gt;Node15</title>
<path fill="none" stroke="midnightblue" d="M416.98,-215.86C409.88,-206.5 401.4,-195.33 395.64,-187.75"/>
<polygon fill="midnightblue" stroke="midnightblue" points="414.39,-218.24 423.23,-224.08 419.97,-214 414.39,-218.24"/>
</g>
<!-- Node16 -->
<g id="node16" class="node">
<title>Node16</title>
<g id="a_node16"><a xlink:href="_instance_8hpp.html" target="_top" xlink:title=" ">
<polygon fill="white" stroke="black" points="437.5,-168.5 437.5,-187.5 516.5,-187.5 516.5,-168.5 437.5,-168.5"/>
<text text-anchor="middle" x="477" y="-175.5" font-family="Helvetica,sans-Serif" font-size="10.00">Instance.hpp</text>
</a>
</g>
</g>
<!-- Node13&#45;&gt;Node16 -->
<g id="edge17" class="edge">
<title>Node13&#45;&gt;Node16</title>
<path fill="none" stroke="midnightblue" d="M444.42,-216.43C452.66,-206.97 462.65,-195.48 469.38,-187.75"/>
<polygon fill="midnightblue" stroke="midnightblue" points="441.69,-214.24 437.76,-224.08 446.97,-218.84 441.69,-214.24"/>
</g>
<!-- Node17 -->
<g id="node17" class="node">
<title>Node17</title>
<g id="a_node17"><a xlink:href="_mapped_buffer_8hpp.html" target="_top" xlink:title=" ">
<polygon fill="white" stroke="black" points="195.5,-112.5 195.5,-131.5 300.5,-131.5 300.5,-112.5 195.5,-112.5"/>
<text text-anchor="middle" x="248" y="-119.5" font-family="Helvetica,sans-Serif" font-size="10.00">MappedBuffer.hpp</text>
</a>
</g>
</g>
<!-- Node13&#45;&gt;Node17 -->
<g id="edge18" class="edge">
<title>Node13&#45;&gt;Node17</title>
<path fill="none" stroke="midnightblue" d="M383.9,-232C347.53,-228.75 297.93,-218.47 267,-188 251.59,-172.82 248.52,-145.88 248.01,-131.93"/>
<polygon fill="midnightblue" stroke="midnightblue" points="384.02,-235.52 394.25,-232.77 384.54,-228.54 384.02,-235.52"/>
</g>
<!-- Node18 -->
<g id="node18" class="node">
<title>Node18</title>
<g id="a_node18"><a xlink:href="_shader_8hpp.html" target="_top" xlink:title=" ">
<polygon fill="white" stroke="black" points="587.5,-112.5 587.5,-131.5 658.5,-131.5 658.5,-112.5 587.5,-112.5"/>
<text text-anchor="middle" x="623" y="-119.5" font-family="Helvetica,sans-Serif" font-size="10.00">Shader.hpp</text>
</a>
</g>
</g>
<!-- Node13&#45;&gt;Node18 -->
<g id="edge21" class="edge">
<title>Node13&#45;&gt;Node18</title>
<path fill="none" stroke="midnightblue" d="M467.25,-221.14C489.68,-213.26 518.36,-201.82 542,-188 570.64,-171.25 599.95,-145 614.18,-131.56"/>
<polygon fill="midnightblue" stroke="midnightblue" points="466.07,-217.85 457.75,-224.4 468.34,-224.47 466.07,-217.85"/>
</g>
<!-- Node14&#45;&gt;Node5 -->
<g id="edge15" class="edge">
<title>Node14&#45;&gt;Node5</title>
<path fill="none" stroke="midnightblue" d="M349.23,-165.7C386.41,-155.51 440.27,-140.74 473.93,-131.52"/>
<polygon fill="midnightblue" stroke="midnightblue" points="347.93,-162.42 339.22,-168.44 349.78,-169.18 347.93,-162.42"/>
</g>
<!-- Node17&#45;&gt;Node7 -->
<g id="edge19" class="edge">
<title>Node17&#45;&gt;Node7</title>
<path fill="none" stroke="midnightblue" d="M210.1,-109.44C176.72,-99.26 128.9,-84.66 98.91,-75.52"/>
<polygon fill="midnightblue" stroke="midnightblue" points="209.37,-112.87 219.95,-112.44 211.41,-106.18 209.37,-112.87"/>
</g>
<!-- Node17&#45;&gt;Node9 -->
<g id="edge20" class="edge">
<title>Node17&#45;&gt;Node9</title>
<path fill="none" stroke="midnightblue" d="M270.19,-106.9C285.78,-97 306.13,-84.07 319.38,-75.65"/>
<polygon fill="midnightblue" stroke="midnightblue" points="268.22,-104.01 261.66,-112.32 271.97,-109.92 268.22,-104.01"/>
</g>
<!-- Node18&#45;&gt;Node6 -->
<g id="edge22" class="edge">
<title>Node18&#45;&gt;Node6</title>
<path fill="none" stroke="midnightblue" d="M590.52,-108.91C563.26,-98.75 525.01,-84.51 500.87,-75.52"/>
<polygon fill="midnightblue" stroke="midnightblue" points="589.43,-112.23 600.02,-112.44 591.87,-105.67 589.43,-112.23"/>
</g>
<!-- Node18&#45;&gt;Node8 -->
<g id="edge23" class="edge">
<title>Node18&#45;&gt;Node8</title>
<path fill="none" stroke="midnightblue" d="M623,-101.8C623,-92.91 623,-82.78 623,-75.75"/>
<polygon fill="midnightblue" stroke="midnightblue" points="619.5,-102.08 623,-112.08 626.5,-102.08 619.5,-102.08"/>
</g>
<!-- Node18&#45;&gt;Node9 -->
<g id="edge24" class="edge">
<title>Node18&#45;&gt;Node9</title>
<path fill="none" stroke="midnightblue" d="M577.42,-112.51C523.21,-102.42 433.24,-85.67 378.89,-75.55"/>
<polygon fill="midnightblue" stroke="midnightblue" points="576.97,-115.99 587.44,-114.38 578.25,-109.11 576.97,-115.99"/>
</g>
<!-- Node18&#45;&gt;Node10 -->
<g id="edge25" class="edge">
<title>Node18&#45;&gt;Node10</title>
<path fill="none" stroke="midnightblue" d="M657.17,-109.17C686.54,-99 728.2,-84.59 754.4,-75.52"/>
<polygon fill="midnightblue" stroke="midnightblue" points="656.02,-105.86 647.72,-112.44 658.31,-112.48 656.02,-105.86"/>
</g>
<!-- Node18&#45;&gt;Node11 -->
<g id="edge26" class="edge">
<title>Node18&#45;&gt;Node11</title>
<path fill="none" stroke="midnightblue" d="M668.58,-112.74C724.21,-102.66 817.79,-85.7 874.04,-75.51"/>
<polygon fill="midnightblue" stroke="midnightblue" points="667.87,-109.31 658.65,-114.54 669.11,-116.2 667.87,-109.31"/>
</g>
<!-- Node19 -->
<g id="node19" class="node">
<title>Node19</title>
<g id="a_node19"><a xlink:href="_compiler_8hpp.html" target="_top" xlink:title=" ">
<polygon fill="white" stroke="black" points="998.5,-56.5 998.5,-75.5 1079.5,-75.5 1079.5,-56.5 998.5,-56.5"/>
<text text-anchor="middle" x="1039" y="-63.5" font-family="Helvetica,sans-Serif" font-size="10.00">Compiler.hpp</text>
</a>
</g>
</g>
<!-- Node18&#45;&gt;Node19 -->
<g id="edge27" class="edge">
<title>Node18&#45;&gt;Node19</title>
<path fill="none" stroke="midnightblue" d="M668.69,-116.28C738.23,-108.91 874.72,-93.64 990,-76 992.74,-75.58 995.55,-75.13 998.39,-74.65"/>
<polygon fill="midnightblue" stroke="midnightblue" points="668.1,-112.83 658.52,-117.36 668.84,-119.79 668.1,-112.83"/>
</g>
<!-- Node20 -->
<g id="node20" class="node">
<title>Node20</title>
<g id="a_node20"><a xlink:href="_shader_loader_8hpp.html" target="_top" xlink:title=" ">
<polygon fill="white" stroke="black" points="987,-0.5 987,-19.5 1091,-19.5 1091,-0.5 987,-0.5"/>
<text text-anchor="middle" x="1039" y="-7.5" font-family="Helvetica,sans-Serif" font-size="10.00">ShaderLoader.hpp</text>
</a>
</g>
</g>
<!-- Node19&#45;&gt;Node20 -->
<g id="edge28" class="edge">
<title>Node19&#45;&gt;Node20</title>
<path fill="none" stroke="midnightblue" d="M1039,-45.8C1039,-36.91 1039,-26.78 1039,-19.75"/>
<polygon fill="midnightblue" stroke="midnightblue" points="1035.5,-46.08 1039,-56.08 1042.5,-46.08 1035.5,-46.08"/>
</g>
<!-- Node22 -->
<g id="node22" class="node">
<title>Node22</title>
<g id="a_node22"><a xlink:href="_dependent_texture_info_8hpp.html" target="_top" xlink:title=" ">
<polygon fill="white" stroke="black" points="455,-336.5 455,-355.5 601,-355.5 601,-336.5 455,-336.5"/>
<text text-anchor="middle" x="528" y="-343.5" font-family="Helvetica,sans-Serif" font-size="10.00">DependentTextureInfo.hpp</text>
</a>
</g>
</g>
<!-- Node21&#45;&gt;Node22 -->
<g id="edge30" class="edge">
<title>Node21&#45;&gt;Node22</title>
<path fill="none" stroke="midnightblue" d="M520.2,-382.1C522.19,-373.14 524.48,-362.86 526.06,-355.75"/>
<polygon fill="midnightblue" stroke="midnightblue" points="516.73,-381.56 517.98,-392.08 523.57,-383.08 516.73,-381.56"/>
</g>
<!-- Node23 -->
<g id="node23" class="node">
<title>Node23</title>
<g id="a_node23"><a xlink:href="_swapchain_8hpp.html" target="_top" xlink:title=" ">
<polygon fill="white" stroke="black" points="382,-280.5 382,-299.5 472,-299.5 472,-280.5 382,-280.5"/>
<text text-anchor="middle" x="427" y="-287.5" font-family="Helvetica,sans-Serif" font-size="10.00">Swapchain.hpp</text>
</a>
</g>
</g>
<!-- Node21&#45;&gt;Node23 -->
<g id="edge32" class="edge">
<title>Node21&#45;&gt;Node23</title>
<path fill="none" stroke="midnightblue" d="M485.74,-387.74C471.83,-380.25 456.19,-369.63 446,-356 433.19,-338.86 428.99,-313.24 427.63,-299.86"/>
<polygon fill="midnightblue" stroke="midnightblue" points="484.5,-391.03 495.01,-392.42 487.66,-384.79 484.5,-391.03"/>
</g>
<!-- Node22&#45;&gt;Node3 -->
<g id="edge31" class="edge">
<title>Node22&#45;&gt;Node3</title>
<path fill="none" stroke="midnightblue" d="M532.55,-326.1C534.71,-317.14 537.18,-306.86 538.89,-299.75"/>
<polygon fill="midnightblue" stroke="midnightblue" points="529.08,-325.54 530.15,-336.08 535.89,-327.18 529.08,-325.54"/>
</g>
<!-- Node23&#45;&gt;Node13 -->
<g id="edge33" class="edge">
<title>Node23&#45;&gt;Node13</title>
<path fill="none" stroke="midnightblue" d="M428.07,-269.8C428.56,-260.91 429.12,-250.78 429.51,-243.75"/>
<polygon fill="midnightblue" stroke="midnightblue" points="424.56,-269.9 427.5,-280.08 431.54,-270.29 424.56,-269.9"/>
</g>
</g>
</svg>
        <g id="navigator" transform="translate(0 0)" fill="#404254">
                <rect fill="#f2f5e9" fill-opacity="0.5" stroke="#606060" stroke-width=".5" x="0" y="0" width="60" height="60"/>
                <use id="zoomplus" xlink:href="#zoomPlus" x="17" y="9" onmousedown="handleZoom(evt,'in')"/>
                <use id="zoomminus" xlink:href="#zoomMin" x="42" y="9" onmousedown="handleZoom(evt,'out')"/>
                <use id="reset" xlink:href="#resetDef" x="30" y="36" onmousedown="handleReset()"/>
                <g id="arrowUp" xlink:href="#dirArrow" transform="translate(30 24)" onmousedown="handlePan(0,-1)">
                  <use xlink:href="#rim" fill="#404040">
                        <set attributeName="fill" to="#808080" begin="arrowUp.mouseover" end="arrowUp.mouseout"/>
                  </use>
                  <path fill="none" stroke="white" stroke-width="1.5" d="M0,-3.0v7 M-2.5,-0.5L0,-3.0L2.5,-0.5"/>
                </g>
                <g id="arrowRight" xlink:href="#dirArrow" transform="rotate(90) translate(36 -43)" onmousedown="handlePan(1,0)">
                  <use xlink:href="#rim" fill="#404040">
                        <set attributeName="fill" to="#808080" begin="arrowRight.mouseover" end="arrowRight.mouseout"/>
                  </use>
                  <path fill="none" stroke="white" stroke-width="1.5" d="M0,-3.0v7 M-2.5,-0.5L0,-3.0L2.5,-0.5"/>
                </g>
                <g id="arrowDown" xlink:href="#dirArrow" transform="rotate(180) translate(-30 -48)" onmousedown="handlePan(0,1)">
                  <use xlink:href="#rim" fill="#404040">
                        <set attributeName="fill" to="#808080" begin="arrowDown.mouseover" end="arrowDown.mouseout"/>
                  </use>
                  <path fill="none" stroke="white" stroke-width="1.5" d="M0,-3.0v7 M-2.5,-0.5L0,-3.0L2.5,-0.5"/>
                </g>
                <g id="arrowLeft" xlink:href="#dirArrow" transform="rotate(270) translate(-36 17)" onmousedown="handlePan(-1,0)">
                  <use xlink:href="#rim" fill="#404040">
                        <set attributeName="fill" to="#808080" begin="arrowLeft.mouseover" end="arrowLeft.mouseout"/>
                  </use>
                  <path fill="none" stroke="white" stroke-width="1.5" d="M0,-3.0v7 M-2.5,-0.5L0,-3.0L2.5,-0.5"/>
                </g>
        </g>
        <svg viewBox="0 0 15 15" width="100%" height="30px" preserveAspectRatio="xMaxYMin meet">
         <g id="arrow_out" transform="scale(0.3 0.3)">
          <a xlink:href="_extent_8hpp__dep__incl_org.svg" target="_base">
           <rect id="button" ry="5" rx="5" y="6" x="6" height="38" width="38"
                fill="#f2f5e9" fill-opacity="0.5" stroke="#606060" stroke-width="1.0"/>
           <path id="arrow"
             d="M 11.500037,31.436501 C 11.940474,20.09759 22.043105,11.32322 32.158766,21.979434 L 37.068811,17.246167 C 37.068811,17.246167 37.088388,32 37.088388,32 L 22.160133,31.978069 C 22.160133,31.978069 26.997745,27.140456 26.997745,27.140456 C 18.528582,18.264221 13.291696,25.230495 11.500037,31.436501 z"
             style="fill:#404040;"/>
          </a>
         </g>
        </svg>
</svg>
