<?xml version="1.0" encoding="UTF-8" standalone="no"?>
<!DOCTYPE svg PUBLIC "-//W3C//DTD SVG 1.1//EN"
 "http://www.w3.org/Graphics/SVG/1.1/DTD/svg11.dtd">
<!-- Generated by graphviz version 2.43.0 (0)
 -->
<!-- Title: Filter.hpp Pages: 1 -->
<svg width="313pt" height="364pt"
 viewBox="0.00 0.00 313.00 364.00" xmlns="http://www.w3.org/2000/svg" xmlns:xlink="http://www.w3.org/1999/xlink">
<g id="graph0" class="graph" transform="scale(1 1) rotate(0) translate(4 360)">
<title>Filter.hpp</title>
<polygon fill="white" stroke="transparent" points="-4,4 -4,-360 309,-360 309,4 -4,4"/>
<!-- Node1 -->
<g id="node1" class="node">
<title>Node1</title>
<g id="a_node1"><a xlink:title=" ">
<polygon fill="#bfbfbf" stroke="black" points="83,-336.5 83,-355.5 145,-355.5 145,-336.5 83,-336.5"/>
<text text-anchor="middle" x="114" y="-343.5" font-family="Helvetica,sans-Serif" font-size="10.00">Filter.hpp</text>
</a>
</g>
</g>
<!-- Node2 -->
<g id="node2" class="node">
<title>Node2</title>
<g id="a_node2"><a xlink:href="_command_buffer_8hpp.html" target="_top" xlink:title=" ">
<polygon fill="white" stroke="black" points="0,-224.5 0,-243.5 116,-243.5 116,-224.5 0,-224.5"/>
<text text-anchor="middle" x="58" y="-231.5" font-family="Helvetica,sans-Serif" font-size="10.00">CommandBuffer.hpp</text>
</a>
</g>
</g>
<!-- Node1&#45;&gt;Node2 -->
<g id="edge1" class="edge">
<title>Node1&#45;&gt;Node2</title>
<path fill="none" stroke="midnightblue" d="M105,-327.32C92.81,-303.37 71.52,-261.55 62.37,-243.59"/>
<polygon fill="midnightblue" stroke="midnightblue" points="101.95,-329.04 109.61,-336.37 108.19,-325.87 101.95,-329.04"/>
</g>
<!-- Node6 -->
<g id="node6" class="node">
<title>Node6</title>
<g id="a_node6"><a xlink:href="_sampler_info_8hpp.html" target="_top" xlink:title=" ">
<polygon fill="white" stroke="black" points="113.5,-280.5 113.5,-299.5 210.5,-299.5 210.5,-280.5 113.5,-280.5"/>
<text text-anchor="middle" x="162" y="-287.5" font-family="Helvetica,sans-Serif" font-size="10.00">SamplerInfo.hpp</text>
</a>
</g>
</g>
<!-- Node1&#45;&gt;Node6 -->
<g id="edge5" class="edge">
<title>Node1&#45;&gt;Node6</title>
<path fill="none" stroke="midnightblue" d="M128.73,-328.43C137.14,-318.97 147.35,-307.48 154.22,-299.75"/>
<polygon fill="midnightblue" stroke="midnightblue" points="125.95,-326.28 121.93,-336.08 131.19,-330.93 125.95,-326.28"/>
</g>
<!-- Node3 -->
<g id="node3" class="node">
<title>Node3</title>
<g id="a_node3"><a xlink:href="_render_graph_8hpp.html" target="_top" xlink:title=" ">
<polygon fill="white" stroke="black" points="95.5,-112.5 95.5,-131.5 196.5,-131.5 196.5,-112.5 95.5,-112.5"/>
<text text-anchor="middle" x="146" y="-119.5" font-family="Helvetica,sans-Serif" font-size="10.00">RenderGraph.hpp</text>
</a>
</g>
</g>
<!-- Node2&#45;&gt;Node3 -->
<g id="edge2" class="edge">
<title>Node2&#45;&gt;Node3</title>
<path fill="none" stroke="midnightblue" d="M60.02,-213.84C62.28,-199.99 67.03,-181.42 77,-168 89.36,-151.35 109.86,-139.12 125.3,-131.65"/>
<polygon fill="midnightblue" stroke="midnightblue" points="56.5,-213.78 58.65,-224.15 63.43,-214.7 56.5,-213.78"/>
</g>
<!-- Node4 -->
<g id="node4" class="node">
<title>Node4</title>
<g id="a_node4"><a xlink:href="_device_8hpp.html" target="_top" xlink:title=" ">
<polygon fill="white" stroke="black" points="167.5,-56.5 167.5,-75.5 238.5,-75.5 238.5,-56.5 167.5,-56.5"/>
<text text-anchor="middle" x="203" y="-63.5" font-family="Helvetica,sans-Serif" font-size="10.00">Device.hpp</text>
</a>
</g>
</g>
<!-- Node3&#45;&gt;Node4 -->
<g id="edge3" class="edge">
<title>Node3&#45;&gt;Node4</title>
<path fill="none" stroke="midnightblue" d="M162.62,-105.25C172.73,-95.67 185.28,-83.79 193.68,-75.83"/>
<polygon fill="midnightblue" stroke="midnightblue" points="160.01,-102.91 155.16,-112.32 164.82,-107.99 160.01,-102.91"/>
</g>
<!-- Node5 -->
<g id="node5" class="node">
<title>Node5</title>
<g id="a_node5"><a xlink:href="_instance_8hpp.html" target="_top" xlink:title=" ">
<polygon fill="white" stroke="black" points="163.5,-0.5 163.5,-19.5 242.5,-19.5 242.5,-0.5 163.5,-0.5"/>
<text text-anchor="middle" x="203" y="-7.5" font-family="Helvetica,sans-Serif" font-size="10.00">Instance.hpp</text>
</a>
</g>
</g>
<!-- Node4&#45;&gt;Node5 -->
<g id="edge4" class="edge">
<title>Node4&#45;&gt;Node5</title>
<path fill="none" stroke="midnightblue" d="M203,-45.8C203,-36.91 203,-26.78 203,-19.75"/>
<polygon fill="midnightblue" stroke="midnightblue" points="199.5,-46.08 203,-56.08 206.5,-46.08 199.5,-46.08"/>
</g>
<!-- Node7 -->
<g id="node7" class="node">
<title>Node7</title>
<g id="a_node7"><a xlink:href="_texture_8hpp.html" target="_top" xlink:title=" ">
<polygon fill="white" stroke="black" points="134,-224.5 134,-243.5 208,-243.5 208,-224.5 134,-224.5"/>
<text text-anchor="middle" x="171" y="-231.5" font-family="Helvetica,sans-Serif" font-size="10.00">Texture.hpp</text>
</a>
</g>
</g>
<!-- Node6&#45;&gt;Node7 -->
<g id="edge6" class="edge">
<title>Node6&#45;&gt;Node7</title>
<path fill="none" stroke="midnightblue" d="M165.15,-270.1C166.64,-261.14 168.36,-250.86 169.54,-243.75"/>
<polygon fill="midnightblue" stroke="midnightblue" points="161.68,-269.64 163.49,-280.08 168.58,-270.79 161.68,-269.64"/>
</g>
<!-- Node8 -->
<g id="node8" class="node">
<title>Node8</title>
<g id="a_node8"><a xlink:href="_dependent_texture_info_8hpp.html" target="_top" xlink:title=" ">
<polygon fill="white" stroke="black" points="86,-168.5 86,-187.5 232,-187.5 232,-168.5 86,-168.5"/>
<text text-anchor="middle" x="159" y="-175.5" font-family="Helvetica,sans-Serif" font-size="10.00">DependentTextureInfo.hpp</text>
</a>
</g>
</g>
<!-- Node7&#45;&gt;Node8 -->
<g id="edge7" class="edge">
<title>Node7&#45;&gt;Node8</title>
<path fill="none" stroke="midnightblue" d="M166.8,-214.1C164.81,-205.14 162.52,-194.86 160.94,-187.75"/>
<polygon fill="midnightblue" stroke="midnightblue" points="163.43,-215.08 169.02,-224.08 170.27,-213.56 163.43,-215.08"/>
</g>
<!-- Node9 -->
<g id="node9" class="node">
<title>Node9</title>
<g id="a_node9"><a xlink:href="_swapchain_8hpp.html" target="_top" xlink:title=" ">
<polygon fill="white" stroke="black" points="215,-112.5 215,-131.5 305,-131.5 305,-112.5 215,-112.5"/>
<text text-anchor="middle" x="260" y="-119.5" font-family="Helvetica,sans-Serif" font-size="10.00">Swapchain.hpp</text>
</a>
</g>
</g>
<!-- Node7&#45;&gt;Node9 -->
<g id="edge9" class="edge">
<title>Node7&#45;&gt;Node9</title>
<path fill="none" stroke="midnightblue" d="M201.26,-219.74C215.17,-212.25 230.81,-201.63 241,-188 253.81,-170.86 258.01,-145.24 259.37,-131.86"/>
<polygon fill="midnightblue" stroke="midnightblue" points="199.34,-216.79 191.99,-224.42 202.5,-223.03 199.34,-216.79"/>
</g>
<!-- Node8&#45;&gt;Node3 -->
<g id="edge8" class="edge">
<title>Node8&#45;&gt;Node3</title>
<path fill="none" stroke="midnightblue" d="M154.45,-158.1C152.29,-149.14 149.82,-138.86 148.11,-131.75"/>
<polygon fill="midnightblue" stroke="midnightblue" points="151.11,-159.18 156.85,-168.08 157.92,-157.54 151.11,-159.18"/>
</g>
<!-- Node9&#45;&gt;Node4 -->
<g id="edge10" class="edge">
<title>Node9&#45;&gt;Node4</title>
<path fill="none" stroke="midnightblue" d="M243.38,-105.25C233.27,-95.67 220.72,-83.79 212.32,-75.83"/>
<polygon fill="midnightblue" stroke="midnightblue" points="241.18,-107.99 250.84,-112.32 245.99,-102.91 241.18,-107.99"/>
</g>
</g>
</svg>
