<?xml version="1.0" encoding="UTF-8" standalone="no"?>
<!DOCTYPE svg PUBLIC "-//W3C//DTD SVG 1.1//EN"
 "http://www.w3.org/Graphics/SVG/1.1/DTD/svg11.dtd">
<!-- Generated by graphviz version 2.43.0 (0)
 -->
<!-- Title: Format.hpp Pages: 1 -->
<svg width="1099pt" height="476pt"
 viewBox="0.00 0.00 1099.00 476.00" xmlns="http://www.w3.org/2000/svg" xmlns:xlink="http://www.w3.org/1999/xlink">
<g id="graph0" class="graph" transform="scale(1 1) rotate(0) translate(4 472)">
<title>Format.hpp</title>
<polygon fill="white" stroke="transparent" points="-4,4 -4,-472 1095,-472 1095,4 -4,4"/>
<!-- Node1 -->
<g id="node1" class="node">
<title>Node1</title>
<g id="a_node1"><a xlink:title=" ">
<polygon fill="#bfbfbf" stroke="black" points="528,-448.5 528,-467.5 600,-467.5 600,-448.5 528,-448.5"/>
<text text-anchor="middle" x="564" y="-455.5" font-family="Helvetica,sans-Serif" font-size="10.00">Format.hpp</text>
</a>
</g>
</g>
<!-- Node2 -->
<g id="node2" class="node">
<title>Node2</title>
<g id="a_node2"><a xlink:href="_pipeline_8hpp.html" target="_top" xlink:title=" ">
<polygon fill="white" stroke="black" points="489.5,-280.5 489.5,-299.5 566.5,-299.5 566.5,-280.5 489.5,-280.5"/>
<text text-anchor="middle" x="528" y="-287.5" font-family="Helvetica,sans-Serif" font-size="10.00">Pipeline.hpp</text>
</a>
</g>
</g>
<!-- Node1&#45;&gt;Node2 -->
<g id="edge1" class="edge">
<title>Node1&#45;&gt;Node2</title>
<path fill="none" stroke="midnightblue" d="M559.86,-437.93C552.06,-401.92 535.42,-325.23 529.86,-299.57"/>
<polygon fill="midnightblue" stroke="midnightblue" points="556.52,-439.04 562.06,-448.08 563.37,-437.56 556.52,-439.04"/>
</g>
<!-- Node22 -->
<g id="node22" class="node">
<title>Node22</title>
<g id="a_node22"><a xlink:href="_texture_8hpp.html" target="_top" xlink:title=" ">
<polygon fill="white" stroke="black" points="564,-392.5 564,-411.5 638,-411.5 638,-392.5 564,-392.5"/>
<text text-anchor="middle" x="601" y="-399.5" font-family="Helvetica,sans-Serif" font-size="10.00">Texture.hpp</text>
</a>
</g>
</g>
<!-- Node1&#45;&gt;Node22 -->
<g id="edge31" class="edge">
<title>Node1&#45;&gt;Node22</title>
<path fill="none" stroke="midnightblue" d="M575.95,-439.57C582.31,-430.27 589.87,-419.25 595,-411.75"/>
<polygon fill="midnightblue" stroke="midnightblue" points="572.87,-437.86 570.11,-448.08 578.65,-441.81 572.87,-437.86"/>
</g>
<!-- Node3 -->
<g id="node3" class="node">
<title>Node3</title>
<g id="a_node3"><a xlink:href="_device_8hpp.html" target="_top" xlink:title=" ">
<polygon fill="white" stroke="black" points="558.5,-224.5 558.5,-243.5 629.5,-243.5 629.5,-224.5 558.5,-224.5"/>
<text text-anchor="middle" x="594" y="-231.5" font-family="Helvetica,sans-Serif" font-size="10.00">Device.hpp</text>
</a>
</g>
</g>
<!-- Node2&#45;&gt;Node3 -->
<g id="edge2" class="edge">
<title>Node2&#45;&gt;Node3</title>
<path fill="none" stroke="midnightblue" d="M546.55,-273.82C558.38,-264.15 573.29,-251.95 583.2,-243.83"/>
<polygon fill="midnightblue" stroke="midnightblue" points="544.13,-271.28 538.6,-280.32 548.56,-276.7 544.13,-271.28"/>
</g>
<!-- Node19 -->
<g id="node19" class="node">
<title>Node19</title>
<g id="a_node19"><a xlink:href="_declaration_8hpp.html" target="_top" xlink:title=" ">
<polygon fill="white" stroke="black" points="173,-224.5 173,-243.5 267,-243.5 267,-224.5 173,-224.5"/>
<text text-anchor="middle" x="220" y="-231.5" font-family="Helvetica,sans-Serif" font-size="10.00">Declaration.hpp</text>
</a>
</g>
</g>
<!-- Node2&#45;&gt;Node19 -->
<g id="edge26" class="edge">
<title>Node2&#45;&gt;Node19</title>
<path fill="none" stroke="midnightblue" d="M479.26,-280.45C421.1,-270.26 324.53,-253.33 267.1,-243.26"/>
<polygon fill="midnightblue" stroke="midnightblue" points="478.85,-283.94 489.3,-282.22 480.06,-277.04 478.85,-283.94"/>
</g>
<!-- Node4 -->
<g id="node4" class="node">
<title>Node4</title>
<g id="a_node4"><a xlink:href="_feature_8hpp.html" target="_top" xlink:title=" ">
<polygon fill="white" stroke="black" points="565,-112.5 565,-131.5 639,-131.5 639,-112.5 565,-112.5"/>
<text text-anchor="middle" x="602" y="-119.5" font-family="Helvetica,sans-Serif" font-size="10.00">Feature.hpp</text>
</a>
</g>
</g>
<!-- Node3&#45;&gt;Node4 -->
<g id="edge3" class="edge">
<title>Node3&#45;&gt;Node4</title>
<path fill="none" stroke="midnightblue" d="M595.36,-214.35C597.11,-190.25 600.09,-149.31 601.38,-131.59"/>
<polygon fill="midnightblue" stroke="midnightblue" points="591.86,-214.14 594.63,-224.37 598.84,-214.65 591.86,-214.14"/>
</g>
<!-- Node12 -->
<g id="node12" class="node">
<title>Node12</title>
<g id="a_node12"><a xlink:href="_layer_8hpp.html" target="_top" xlink:title=" ">
<polygon fill="white" stroke="black" points="622,-168.5 622,-187.5 686,-187.5 686,-168.5 622,-168.5"/>
<text text-anchor="middle" x="654" y="-175.5" font-family="Helvetica,sans-Serif" font-size="10.00">Layer.hpp</text>
</a>
</g>
</g>
<!-- Node3&#45;&gt;Node12 -->
<g id="edge11" class="edge">
<title>Node3&#45;&gt;Node12</title>
<path fill="none" stroke="midnightblue" d="M611.18,-217.54C621.88,-207.91 635.26,-195.87 644.18,-187.83"/>
<polygon fill="midnightblue" stroke="midnightblue" points="608.73,-215.03 603.64,-224.32 613.41,-220.24 608.73,-215.03"/>
</g>
<!-- Node13 -->
<g id="node13" class="node">
<title>Node13</title>
<g id="a_node13"><a xlink:href="_view_8hpp.html" target="_top" xlink:title=" ">
<polygon fill="white" stroke="black" points="407.5,-168.5 407.5,-187.5 468.5,-187.5 468.5,-168.5 407.5,-168.5"/>
<text text-anchor="middle" x="438" y="-175.5" font-family="Helvetica,sans-Serif" font-size="10.00">View.hpp</text>
</a>
</g>
</g>
<!-- Node3&#45;&gt;Node13 -->
<g id="edge13" class="edge">
<title>Node3&#45;&gt;Node13</title>
<path fill="none" stroke="midnightblue" d="M559.83,-221.17C530.46,-211 488.8,-196.59 462.6,-187.52"/>
<polygon fill="midnightblue" stroke="midnightblue" points="558.69,-224.48 569.28,-224.44 560.98,-217.86 558.69,-224.48"/>
</g>
<!-- Node14 -->
<g id="node14" class="node">
<title>Node14</title>
<g id="a_node14"><a xlink:href="_instance_8hpp.html" target="_top" xlink:title=" ">
<polygon fill="white" stroke="black" points="486.5,-168.5 486.5,-187.5 565.5,-187.5 565.5,-168.5 486.5,-168.5"/>
<text text-anchor="middle" x="526" y="-175.5" font-family="Helvetica,sans-Serif" font-size="10.00">Instance.hpp</text>
</a>
</g>
</g>
<!-- Node3&#45;&gt;Node14 -->
<g id="edge14" class="edge">
<title>Node3&#45;&gt;Node14</title>
<path fill="none" stroke="midnightblue" d="M575.24,-218.1C563,-208.38 547.44,-196.03 537.12,-187.83"/>
<polygon fill="midnightblue" stroke="midnightblue" points="573.07,-220.85 583.07,-224.32 577.42,-215.36 573.07,-220.85"/>
</g>
<!-- Node15 -->
<g id="node15" class="node">
<title>Node15</title>
<g id="a_node15"><a xlink:href="_mapped_buffer_8hpp.html" target="_top" xlink:title=" ">
<polygon fill="white" stroke="black" points="705.5,-112.5 705.5,-131.5 810.5,-131.5 810.5,-112.5 705.5,-112.5"/>
<text text-anchor="middle" x="758" y="-119.5" font-family="Helvetica,sans-Serif" font-size="10.00">MappedBuffer.hpp</text>
</a>
</g>
</g>
<!-- Node3&#45;&gt;Node15 -->
<g id="edge15" class="edge">
<title>Node3&#45;&gt;Node15</title>
<path fill="none" stroke="midnightblue" d="M629.78,-220.91C649.93,-213.18 674.99,-201.99 695,-188 718.7,-171.43 740.88,-145.1 751.48,-131.6"/>
<polygon fill="midnightblue" stroke="midnightblue" points="628.48,-217.66 620.33,-224.42 630.92,-224.22 628.48,-217.66"/>
</g>
<!-- Node16 -->
<g id="node16" class="node">
<title>Node16</title>
<g id="a_node16"><a xlink:href="_shader_8hpp.html" target="_top" xlink:title=" ">
<polygon fill="white" stroke="black" points="343.5,-112.5 343.5,-131.5 414.5,-131.5 414.5,-112.5 343.5,-112.5"/>
<text text-anchor="middle" x="379" y="-119.5" font-family="Helvetica,sans-Serif" font-size="10.00">Shader.hpp</text>
</a>
</g>
</g>
<!-- Node3&#45;&gt;Node16 -->
<g id="edge18" class="edge">
<title>Node3&#45;&gt;Node16</title>
<path fill="none" stroke="midnightblue" d="M548.37,-227.88C497.45,-221.27 419.39,-208.17 398,-188 382.09,-173 379.27,-145.48 378.92,-131.56"/>
<polygon fill="midnightblue" stroke="midnightblue" points="548.12,-231.38 558.48,-229.16 548.99,-224.43 548.12,-231.38"/>
</g>
<!-- Node5 -->
<g id="node5" class="node">
<title>Node5</title>
<g id="a_node5"><a xlink:href="_bloom_feature_8hpp.html" target="_top" xlink:title=" ">
<polygon fill="white" stroke="black" points="248,-56.5 248,-75.5 354,-75.5 354,-56.5 248,-56.5"/>
<text text-anchor="middle" x="301" y="-63.5" font-family="Helvetica,sans-Serif" font-size="10.00">BloomFeature.hpp</text>
</a>
</g>
</g>
<!-- Node4&#45;&gt;Node5 -->
<g id="edge4" class="edge">
<title>Node4&#45;&gt;Node5</title>
<path fill="none" stroke="midnightblue" d="M554.73,-112.52C498.43,-102.42 404.94,-85.65 348.53,-75.53"/>
<polygon fill="midnightblue" stroke="midnightblue" points="554.33,-116 564.79,-114.32 555.56,-109.11 554.33,-116"/>
</g>
<!-- Node6 -->
<g id="node6" class="node">
<title>Node6</title>
<g id="a_node6"><a xlink:href="_camera_data_collector_8hpp.html" target="_top" xlink:title=" ">
<polygon fill="white" stroke="black" points="949,-56.5 949,-75.5 1091,-75.5 1091,-56.5 949,-56.5"/>
<text text-anchor="middle" x="1020" y="-63.5" font-family="Helvetica,sans-Serif" font-size="10.00">CameraDataCollector.hpp</text>
</a>
</g>
</g>
<!-- Node4&#45;&gt;Node6 -->
<g id="edge5" class="edge">
<title>Node4&#45;&gt;Node6</title>
<path fill="none" stroke="midnightblue" d="M649.14,-114.91C723.75,-105.27 869.27,-86.47 954.15,-75.51"/>
<polygon fill="midnightblue" stroke="midnightblue" points="648.56,-111.46 639.09,-116.21 649.46,-118.4 648.56,-111.46"/>
</g>
<!-- Node7 -->
<g id="node7" class="node">
<title>Node7</title>
<g id="a_node7"><a xlink:href="_forward_render_feature_8hpp.html" target="_top" xlink:title=" ">
<polygon fill="white" stroke="black" points="372,-56.5 372,-75.5 520,-75.5 520,-56.5 372,-56.5"/>
<text text-anchor="middle" x="446" y="-63.5" font-family="Helvetica,sans-Serif" font-size="10.00">ForwardRenderFeature.hpp</text>
</a>
</g>
</g>
<!-- Node4&#45;&gt;Node7 -->
<g id="edge6" class="edge">
<title>Node4&#45;&gt;Node7</title>
<path fill="none" stroke="midnightblue" d="M567.83,-109.17C538.46,-99 496.8,-84.59 470.6,-75.52"/>
<polygon fill="midnightblue" stroke="midnightblue" points="566.69,-112.48 577.28,-112.44 568.98,-105.86 566.69,-112.48"/>
</g>
<!-- Node8 -->
<g id="node8" class="node">
<title>Node8</title>
<g id="a_node8"><a xlink:href="_particle_system_feature_8hpp.html" target="_top" xlink:title=" ">
<polygon fill="white" stroke="black" points="684.5,-56.5 684.5,-75.5 831.5,-75.5 831.5,-56.5 684.5,-56.5"/>
<text text-anchor="middle" x="758" y="-63.5" font-family="Helvetica,sans-Serif" font-size="10.00">ParticleSystemFeature.hpp</text>
</a>
</g>
</g>
<!-- Node4&#45;&gt;Node8 -->
<g id="edge7" class="edge">
<title>Node4&#45;&gt;Node8</title>
<path fill="none" stroke="midnightblue" d="M636.17,-109.17C665.54,-99 707.2,-84.59 733.4,-75.52"/>
<polygon fill="midnightblue" stroke="midnightblue" points="635.02,-105.86 626.72,-112.44 637.31,-112.48 635.02,-105.86"/>
</g>
<!-- Node9 -->
<g id="node9" class="node">
<title>Node9</title>
<g id="a_node9"><a xlink:href="_static_mesh_feature_8hpp.html" target="_top" xlink:title=" ">
<polygon fill="white" stroke="black" points="538,-56.5 538,-75.5 666,-75.5 666,-56.5 538,-56.5"/>
<text text-anchor="middle" x="602" y="-63.5" font-family="Helvetica,sans-Serif" font-size="10.00">StaticMeshFeature.hpp</text>
</a>
</g>
</g>
<!-- Node4&#45;&gt;Node9 -->
<g id="edge8" class="edge">
<title>Node4&#45;&gt;Node9</title>
<path fill="none" stroke="midnightblue" d="M602,-101.8C602,-92.91 602,-82.78 602,-75.75"/>
<polygon fill="midnightblue" stroke="midnightblue" points="598.5,-102.08 602,-112.08 605.5,-102.08 598.5,-102.08"/>
</g>
<!-- Node10 -->
<g id="node10" class="node">
<title>Node10</title>
<g id="a_node10"><a xlink:href="_tonemap_feature_8hpp.html" target="_top" xlink:title=" ">
<polygon fill="white" stroke="black" points="110.5,-56.5 110.5,-75.5 229.5,-75.5 229.5,-56.5 110.5,-56.5"/>
<text text-anchor="middle" x="170" y="-63.5" font-family="Helvetica,sans-Serif" font-size="10.00">TonemapFeature.hpp</text>
</a>
</g>
</g>
<!-- Node4&#45;&gt;Node10 -->
<g id="edge9" class="edge">
<title>Node4&#45;&gt;Node10</title>
<path fill="none" stroke="midnightblue" d="M554.73,-115.24C485.45,-106.77 352.25,-90.41 239,-76 236,-75.62 232.94,-75.23 229.84,-74.83"/>
<polygon fill="midnightblue" stroke="midnightblue" points="554.54,-118.74 564.89,-116.48 555.39,-111.79 554.54,-118.74"/>
</g>
<!-- Node11 -->
<g id="node11" class="node">
<title>Node11</title>
<g id="a_node11"><a xlink:href="_renderer_8hpp.html" target="_top" xlink:title=" ">
<polygon fill="white" stroke="black" points="849.5,-56.5 849.5,-75.5 930.5,-75.5 930.5,-56.5 849.5,-56.5"/>
<text text-anchor="middle" x="890" y="-63.5" font-family="Helvetica,sans-Serif" font-size="10.00">Renderer.hpp</text>
</a>
</g>
</g>
<!-- Node4&#45;&gt;Node11 -->
<g id="edge10" class="edge">
<title>Node4&#45;&gt;Node11</title>
<path fill="none" stroke="midnightblue" d="M649.03,-112.18C704.74,-101.74 796.62,-84.51 849.37,-74.62"/>
<polygon fill="midnightblue" stroke="midnightblue" points="648.25,-108.77 639.06,-114.05 649.54,-115.65 648.25,-108.77"/>
</g>
<!-- Node12&#45;&gt;Node4 -->
<g id="edge12" class="edge">
<title>Node12&#45;&gt;Node4</title>
<path fill="none" stroke="midnightblue" d="M638.32,-160.72C629.16,-151.2 617.95,-139.56 610.43,-131.75"/>
<polygon fill="midnightblue" stroke="midnightblue" points="635.96,-163.31 645.41,-168.08 641,-158.45 635.96,-163.31"/>
</g>
<!-- Node15&#45;&gt;Node6 -->
<g id="edge16" class="edge">
<title>Node15&#45;&gt;Node6</title>
<path fill="none" stroke="midnightblue" d="M809.38,-110.41C858.9,-100.2 932.86,-84.96 978.68,-75.52"/>
<polygon fill="midnightblue" stroke="midnightblue" points="808.6,-107 799.51,-112.44 810.02,-113.85 808.6,-107"/>
</g>
<!-- Node15&#45;&gt;Node8 -->
<g id="edge17" class="edge">
<title>Node15&#45;&gt;Node8</title>
<path fill="none" stroke="midnightblue" d="M758,-101.8C758,-92.91 758,-82.78 758,-75.75"/>
<polygon fill="midnightblue" stroke="midnightblue" points="754.5,-102.08 758,-112.08 761.5,-102.08 754.5,-102.08"/>
</g>
<!-- Node16&#45;&gt;Node5 -->
<g id="edge19" class="edge">
<title>Node16&#45;&gt;Node5</title>
<path fill="none" stroke="midnightblue" d="M358.23,-106.62C343.98,-96.76 325.54,-83.99 313.5,-75.65"/>
<polygon fill="midnightblue" stroke="midnightblue" points="356.25,-109.51 366.47,-112.32 360.24,-103.75 356.25,-109.51"/>
</g>
<!-- Node16&#45;&gt;Node7 -->
<g id="edge20" class="edge">
<title>Node16&#45;&gt;Node7</title>
<path fill="none" stroke="midnightblue" d="M397.83,-105.82C409.84,-96.15 424.97,-83.95 435.04,-75.83"/>
<polygon fill="midnightblue" stroke="midnightblue" points="395.35,-103.32 389.76,-112.32 399.75,-108.77 395.35,-103.32"/>
</g>
<!-- Node16&#45;&gt;Node8 -->
<g id="edge21" class="edge">
<title>Node16&#45;&gt;Node8</title>
<path fill="none" stroke="midnightblue" d="M424.69,-114.49C493.09,-104.74 622.16,-86.35 698.05,-75.54"/>
<polygon fill="midnightblue" stroke="midnightblue" points="424.06,-111.04 414.66,-115.92 425.05,-117.97 424.06,-111.04"/>
</g>
<!-- Node16&#45;&gt;Node9 -->
<g id="edge22" class="edge">
<title>Node16&#45;&gt;Node9</title>
<path fill="none" stroke="midnightblue" d="M424.06,-110.09C466.19,-99.89 528.24,-84.86 566.83,-75.52"/>
<polygon fill="midnightblue" stroke="midnightblue" points="423.23,-106.69 414.34,-112.44 424.88,-113.49 423.23,-106.69"/>
</g>
<!-- Node16&#45;&gt;Node10 -->
<g id="edge23" class="edge">
<title>Node16&#45;&gt;Node10</title>
<path fill="none" stroke="midnightblue" d="M336.02,-109.89C296.55,-99.7 238.9,-84.8 202.96,-75.52"/>
<polygon fill="midnightblue" stroke="midnightblue" points="335.33,-113.33 345.88,-112.44 337.08,-106.55 335.33,-113.33"/>
</g>
<!-- Node17 -->
<g id="node17" class="node">
<title>Node17</title>
<g id="a_node17"><a xlink:href="_compiler_8hpp.html" target="_top" xlink:title=" ">
<polygon fill="white" stroke="black" points="11.5,-56.5 11.5,-75.5 92.5,-75.5 92.5,-56.5 11.5,-56.5"/>
<text text-anchor="middle" x="52" y="-63.5" font-family="Helvetica,sans-Serif" font-size="10.00">Compiler.hpp</text>
</a>
</g>
</g>
<!-- Node16&#45;&gt;Node17 -->
<g id="edge24" class="edge">
<title>Node16&#45;&gt;Node17</title>
<path fill="none" stroke="midnightblue" d="M333.27,-113.9C278.14,-105.27 182.7,-90.11 101,-76 98.27,-75.53 95.46,-75.03 92.63,-74.53"/>
<polygon fill="midnightblue" stroke="midnightblue" points="332.99,-117.4 343.41,-115.49 334.07,-110.48 332.99,-117.4"/>
</g>
<!-- Node18 -->
<g id="node18" class="node">
<title>Node18</title>
<g id="a_node18"><a xlink:href="_shader_loader_8hpp.html" target="_top" xlink:title=" ">
<polygon fill="white" stroke="black" points="0,-0.5 0,-19.5 104,-19.5 104,-0.5 0,-0.5"/>
<text text-anchor="middle" x="52" y="-7.5" font-family="Helvetica,sans-Serif" font-size="10.00">ShaderLoader.hpp</text>
</a>
</g>
</g>
<!-- Node17&#45;&gt;Node18 -->
<g id="edge25" class="edge">
<title>Node17&#45;&gt;Node18</title>
<path fill="none" stroke="midnightblue" d="M52,-45.8C52,-36.91 52,-26.78 52,-19.75"/>
<polygon fill="midnightblue" stroke="midnightblue" points="48.5,-46.08 52,-56.08 55.5,-46.08 48.5,-46.08"/>
</g>
<!-- Node19&#45;&gt;Node17 -->
<g id="edge27" class="edge">
<title>Node19&#45;&gt;Node17</title>
<path fill="none" stroke="midnightblue" d="M162.96,-228.13C133.95,-222.71 100.4,-211.41 79,-188 49.23,-155.44 49.82,-97.43 51.24,-75.62"/>
<polygon fill="midnightblue" stroke="midnightblue" points="162.56,-231.61 173,-229.81 163.71,-224.71 162.56,-231.61"/>
</g>
<!-- Node20 -->
<g id="node20" class="node">
<title>Node20</title>
<g id="a_node20"><a xlink:href="_declaration_parser_8hpp.html" target="_top" xlink:title=" ">
<polygon fill="white" stroke="black" points="88.5,-168.5 88.5,-187.5 211.5,-187.5 211.5,-168.5 88.5,-168.5"/>
<text text-anchor="middle" x="150" y="-175.5" font-family="Helvetica,sans-Serif" font-size="10.00">DeclarationParser.hpp</text>
</a>
</g>
</g>
<!-- Node19&#45;&gt;Node20 -->
<g id="edge28" class="edge">
<title>Node19&#45;&gt;Node20</title>
<path fill="none" stroke="midnightblue" d="M200.69,-218.1C188.09,-208.38 172.07,-196.03 161.45,-187.83"/>
<polygon fill="midnightblue" stroke="midnightblue" points="198.7,-220.99 208.75,-224.32 202.97,-215.44 198.7,-220.99"/>
</g>
<!-- Node21 -->
<g id="node21" class="node">
<title>Node21</title>
<g id="a_node21"><a xlink:href="_declaration_stack_8hpp.html" target="_top" xlink:title=" ">
<polygon fill="white" stroke="black" points="229.5,-168.5 229.5,-187.5 350.5,-187.5 350.5,-168.5 229.5,-168.5"/>
<text text-anchor="middle" x="290" y="-175.5" font-family="Helvetica,sans-Serif" font-size="10.00">DeclarationStack.hpp</text>
</a>
</g>
</g>
<!-- Node19&#45;&gt;Node21 -->
<g id="edge29" class="edge">
<title>Node19&#45;&gt;Node21</title>
<path fill="none" stroke="midnightblue" d="M239.31,-218.1C251.91,-208.38 267.93,-196.03 278.55,-187.83"/>
<polygon fill="midnightblue" stroke="midnightblue" points="237.03,-215.44 231.25,-224.32 241.3,-220.99 237.03,-215.44"/>
</g>
<!-- Node21&#45;&gt;Node4 -->
<g id="edge30" class="edge">
<title>Node21&#45;&gt;Node4</title>
<path fill="none" stroke="midnightblue" d="M349.29,-166.74C412.65,-155.77 511.16,-138.72 564.54,-129.48"/>
<polygon fill="midnightblue" stroke="midnightblue" points="348.69,-163.29 339.44,-168.44 349.89,-170.19 348.69,-163.29"/>
</g>
<!-- Node23 -->
<g id="node23" class="node">
<title>Node23</title>
<g id="a_node23"><a xlink:href="_dependent_texture_info_8hpp.html" target="_top" xlink:title=" ">
<polygon fill="white" stroke="black" points="675,-336.5 675,-355.5 821,-355.5 821,-336.5 675,-336.5"/>
<text text-anchor="middle" x="748" y="-343.5" font-family="Helvetica,sans-Serif" font-size="10.00">DependentTextureInfo.hpp</text>
</a>
</g>
</g>
<!-- Node22&#45;&gt;Node23 -->
<g id="edge32" class="edge">
<title>Node22&#45;&gt;Node23</title>
<path fill="none" stroke="midnightblue" d="M633.92,-388.91C661.56,-378.75 700.34,-364.51 724.82,-355.52"/>
<polygon fill="midnightblue" stroke="midnightblue" points="632.47,-385.71 624.29,-392.44 634.89,-392.28 632.47,-385.71"/>
</g>
<!-- Node26 -->
<g id="node26" class="node">
<title>Node26</title>
<g id="a_node26"><a xlink:href="_swapchain_8hpp.html" target="_top" xlink:title=" ">
<polygon fill="white" stroke="black" points="556,-336.5 556,-355.5 646,-355.5 646,-336.5 556,-336.5"/>
<text text-anchor="middle" x="601" y="-343.5" font-family="Helvetica,sans-Serif" font-size="10.00">Swapchain.hpp</text>
</a>
</g>
</g>
<!-- Node22&#45;&gt;Node26 -->
<g id="edge37" class="edge">
<title>Node22&#45;&gt;Node26</title>
<path fill="none" stroke="midnightblue" d="M601,-381.8C601,-372.91 601,-362.78 601,-355.75"/>
<polygon fill="midnightblue" stroke="midnightblue" points="597.5,-382.08 601,-392.08 604.5,-382.08 597.5,-382.08"/>
</g>
<!-- Node24 -->
<g id="node24" class="node">
<title>Node24</title>
<g id="a_node24"><a xlink:href="_render_graph_8hpp.html" target="_top" xlink:title=" ">
<polygon fill="white" stroke="black" points="699.5,-280.5 699.5,-299.5 800.5,-299.5 800.5,-280.5 699.5,-280.5"/>
<text text-anchor="middle" x="750" y="-287.5" font-family="Helvetica,sans-Serif" font-size="10.00">RenderGraph.hpp</text>
</a>
</g>
</g>
<!-- Node23&#45;&gt;Node24 -->
<g id="edge33" class="edge">
<title>Node23&#45;&gt;Node24</title>
<path fill="none" stroke="midnightblue" d="M748.71,-325.8C749.04,-316.91 749.42,-306.78 749.68,-299.75"/>
<polygon fill="midnightblue" stroke="midnightblue" points="745.2,-325.96 748.33,-336.08 752.2,-326.22 745.2,-325.96"/>
</g>
<!-- Node24&#45;&gt;Node3 -->
<g id="edge36" class="edge">
<title>Node24&#45;&gt;Node3</title>
<path fill="none" stroke="midnightblue" d="M715.83,-277.17C686.46,-267 644.8,-252.59 618.6,-243.52"/>
<polygon fill="midnightblue" stroke="midnightblue" points="714.69,-280.48 725.28,-280.44 716.98,-273.86 714.69,-280.48"/>
</g>
<!-- Node24&#45;&gt;Node4 -->
<g id="edge35" class="edge">
<title>Node24&#45;&gt;Node4</title>
<path fill="none" stroke="midnightblue" d="M745.75,-270.2C739.02,-244.25 723.64,-197.34 695,-168 677.71,-150.29 652.04,-138.6 632.04,-131.58"/>
<polygon fill="midnightblue" stroke="midnightblue" points="742.42,-271.33 748.18,-280.22 749.23,-269.68 742.42,-271.33"/>
</g>
<!-- Node25 -->
<g id="node25" class="node">
<title>Node25</title>
<g id="a_node25"><a xlink:href="_output_texture_8hpp.html" target="_top" xlink:title=" ">
<polygon fill="white" stroke="black" points="780.5,-224.5 780.5,-243.5 887.5,-243.5 887.5,-224.5 780.5,-224.5"/>
<text text-anchor="middle" x="834" y="-231.5" font-family="Helvetica,sans-Serif" font-size="10.00">OutputTexture.hpp</text>
</a>
</g>
</g>
<!-- Node24&#45;&gt;Node25 -->
<g id="edge34" class="edge">
<title>Node24&#45;&gt;Node25</title>
<path fill="none" stroke="midnightblue" d="M771.93,-274.9C787.34,-265 807.45,-252.07 820.54,-243.65"/>
<polygon fill="midnightblue" stroke="midnightblue" points="770.02,-271.97 763.5,-280.32 773.8,-277.86 770.02,-271.97"/>
</g>
<!-- Node26&#45;&gt;Node3 -->
<g id="edge38" class="edge">
<title>Node26&#45;&gt;Node3</title>
<path fill="none" stroke="midnightblue" d="M599.81,-326.35C598.28,-302.25 595.67,-261.31 594.55,-243.59"/>
<polygon fill="midnightblue" stroke="midnightblue" points="596.32,-326.61 600.45,-336.37 603.31,-326.17 596.32,-326.61"/>
</g>
</g>
</svg>
