<?xml version="1.0" encoding="UTF-8" standalone="no"?>
<!DOCTYPE svg PUBLIC "-//W3C//DTD SVG 1.1//EN"
 "http://www.w3.org/Graphics/SVG/1.1/DTD/svg11.dtd">
<!-- Generated by graphviz version 2.43.0 (0)
 -->
<!-- Title: Format.hpp Pages: 1 -->
<svg width="350pt" height="308pt"
 viewBox="0.00 0.00 349.50 308.00" xmlns="http://www.w3.org/2000/svg" xmlns:xlink="http://www.w3.org/1999/xlink">
<g id="graph0" class="graph" transform="scale(1 1) rotate(0) translate(4 304)">
<title>Format.hpp</title>
<polygon fill="white" stroke="transparent" points="-4,4 -4,-304 345.5,-304 345.5,4 -4,4"/>
<!-- Node1 -->
<g id="node1" class="node">
<title>Node1</title>
<g id="a_node1"><a xlink:title=" ">
<polygon fill="#bfbfbf" stroke="black" points="73.5,-280.5 73.5,-299.5 145.5,-299.5 145.5,-280.5 73.5,-280.5"/>
<text text-anchor="middle" x="109.5" y="-287.5" font-family="Helvetica,sans-Serif" font-size="10.00">Format.hpp</text>
</a>
</g>
</g>
<!-- Node2 -->
<g id="node2" class="node">
<title>Node2</title>
<g id="a_node2"><a xlink:href="_graphics_pipeline_8hpp.html" target="_top" xlink:title=" ">
<polygon fill="white" stroke="black" points="0,-112.5 0,-131.5 119,-131.5 119,-112.5 0,-112.5"/>
<text text-anchor="middle" x="59.5" y="-119.5" font-family="Helvetica,sans-Serif" font-size="10.00">GraphicsPipeline.hpp</text>
</a>
</g>
</g>
<!-- Node1&#45;&gt;Node2 -->
<g id="edge1" class="edge">
<title>Node1&#45;&gt;Node2</title>
<path fill="none" stroke="midnightblue" d="M103.77,-270.6C97.49,-250.38 87.16,-216.91 78.5,-188 72.49,-167.95 65.65,-144.36 62.04,-131.84"/>
<polygon fill="midnightblue" stroke="midnightblue" points="100.5,-271.85 106.81,-280.37 107.18,-269.78 100.5,-271.85"/>
</g>
<!-- Node5 -->
<g id="node5" class="node">
<title>Node5</title>
<g id="a_node5"><a xlink:href="_texture_8hpp.html" target="_top" xlink:title=" ">
<polygon fill="white" stroke="black" points="123.5,-224.5 123.5,-243.5 197.5,-243.5 197.5,-224.5 123.5,-224.5"/>
<text text-anchor="middle" x="160.5" y="-231.5" font-family="Helvetica,sans-Serif" font-size="10.00">Texture.hpp</text>
</a>
</g>
</g>
<!-- Node1&#45;&gt;Node5 -->
<g id="edge4" class="edge">
<title>Node1&#45;&gt;Node5</title>
<path fill="none" stroke="midnightblue" d="M124.88,-272.72C133.87,-263.2 144.86,-251.56 152.24,-243.75"/>
<polygon fill="midnightblue" stroke="midnightblue" points="122.24,-270.41 117.92,-280.08 127.33,-275.22 122.24,-270.41"/>
</g>
<!-- Node3 -->
<g id="node3" class="node">
<title>Node3</title>
<g id="a_node3"><a xlink:href="_device_8hpp.html" target="_top" xlink:title=" ">
<polygon fill="white" stroke="black" points="152,-56.5 152,-75.5 223,-75.5 223,-56.5 152,-56.5"/>
<text text-anchor="middle" x="187.5" y="-63.5" font-family="Helvetica,sans-Serif" font-size="10.00">Device.hpp</text>
</a>
</g>
</g>
<!-- Node2&#45;&gt;Node3 -->
<g id="edge2" class="edge">
<title>Node2&#45;&gt;Node3</title>
<path fill="none" stroke="midnightblue" d="M89.12,-108.5C113.12,-98.38 146.28,-84.39 167.31,-75.52"/>
<polygon fill="midnightblue" stroke="midnightblue" points="87.64,-105.33 79.78,-112.44 90.36,-111.78 87.64,-105.33"/>
</g>
<!-- Node4 -->
<g id="node4" class="node">
<title>Node4</title>
<g id="a_node4"><a xlink:href="_instance_8hpp.html" target="_top" xlink:title=" ">
<polygon fill="white" stroke="black" points="148,-0.5 148,-19.5 227,-19.5 227,-0.5 148,-0.5"/>
<text text-anchor="middle" x="187.5" y="-7.5" font-family="Helvetica,sans-Serif" font-size="10.00">Instance.hpp</text>
</a>
</g>
</g>
<!-- Node3&#45;&gt;Node4 -->
<g id="edge3" class="edge">
<title>Node3&#45;&gt;Node4</title>
<path fill="none" stroke="midnightblue" d="M187.5,-45.8C187.5,-36.91 187.5,-26.78 187.5,-19.75"/>
<polygon fill="midnightblue" stroke="midnightblue" points="184,-46.08 187.5,-56.08 191,-46.08 184,-46.08"/>
</g>
<!-- Node6 -->
<g id="node6" class="node">
<title>Node6</title>
<g id="a_node6"><a xlink:href="_dependent_texture_info_8hpp.html" target="_top" xlink:title=" ">
<polygon fill="white" stroke="black" points="87.5,-168.5 87.5,-187.5 233.5,-187.5 233.5,-168.5 87.5,-168.5"/>
<text text-anchor="middle" x="160.5" y="-175.5" font-family="Helvetica,sans-Serif" font-size="10.00">DependentTextureInfo.hpp</text>
</a>
</g>
</g>
<!-- Node5&#45;&gt;Node6 -->
<g id="edge5" class="edge">
<title>Node5&#45;&gt;Node6</title>
<path fill="none" stroke="midnightblue" d="M160.5,-213.8C160.5,-204.91 160.5,-194.78 160.5,-187.75"/>
<polygon fill="midnightblue" stroke="midnightblue" points="157,-214.08 160.5,-224.08 164,-214.08 157,-214.08"/>
</g>
<!-- Node8 -->
<g id="node8" class="node">
<title>Node8</title>
<g id="a_node8"><a xlink:href="_swapchain_8hpp.html" target="_top" xlink:title=" ">
<polygon fill="white" stroke="black" points="251.5,-168.5 251.5,-187.5 341.5,-187.5 341.5,-168.5 251.5,-168.5"/>
<text text-anchor="middle" x="296.5" y="-175.5" font-family="Helvetica,sans-Serif" font-size="10.00">Swapchain.hpp</text>
</a>
</g>
</g>
<!-- Node5&#45;&gt;Node8 -->
<g id="edge8" class="edge">
<title>Node5&#45;&gt;Node8</title>
<path fill="none" stroke="midnightblue" d="M191.63,-220.64C217.16,-210.5 252.61,-196.43 275.05,-187.52"/>
<polygon fill="midnightblue" stroke="midnightblue" points="190.05,-217.5 182.05,-224.44 192.64,-224.01 190.05,-217.5"/>
</g>
<!-- Node7 -->
<g id="node7" class="node">
<title>Node7</title>
<g id="a_node7"><a xlink:href="_render_graph_8hpp.html" target="_top" xlink:title=" ">
<polygon fill="white" stroke="black" points="137,-112.5 137,-131.5 238,-131.5 238,-112.5 137,-112.5"/>
<text text-anchor="middle" x="187.5" y="-119.5" font-family="Helvetica,sans-Serif" font-size="10.00">RenderGraph.hpp</text>
</a>
</g>
</g>
<!-- Node6&#45;&gt;Node7 -->
<g id="edge6" class="edge">
<title>Node6&#45;&gt;Node7</title>
<path fill="none" stroke="midnightblue" d="M169.51,-158.98C174.09,-149.82 179.45,-139.09 183.12,-131.75"/>
<polygon fill="midnightblue" stroke="midnightblue" points="166.3,-157.57 164.96,-168.08 172.56,-160.7 166.3,-157.57"/>
</g>
<!-- Node7&#45;&gt;Node3 -->
<g id="edge7" class="edge">
<title>Node7&#45;&gt;Node3</title>
<path fill="none" stroke="midnightblue" d="M187.5,-101.8C187.5,-92.91 187.5,-82.78 187.5,-75.75"/>
<polygon fill="midnightblue" stroke="midnightblue" points="184,-102.08 187.5,-112.08 191,-102.08 184,-102.08"/>
</g>
<!-- Node8&#45;&gt;Node3 -->
<g id="edge9" class="edge">
<title>Node8&#45;&gt;Node3</title>
<path fill="none" stroke="midnightblue" d="M285.26,-159.96C275.78,-146.24 261.42,-126.86 246.5,-112 232.26,-97.82 213.47,-84.21 200.96,-75.74"/>
<polygon fill="midnightblue" stroke="midnightblue" points="282.48,-162.1 290.98,-168.43 288.28,-158.18 282.48,-162.1"/>
</g>
</g>
</svg>
