<?xml version="1.0" encoding="UTF-8" standalone="no"?>
<!DOCTYPE svg PUBLIC "-//W3C//DTD SVG 1.1//EN"
 "http://www.w3.org/Graphics/SVG/1.1/DTD/svg11.dtd">
<!-- Generated by graphviz version 2.43.0 (0)
 -->
<!-- Title: Formatting.hpp Pages: 1 -->
<svg width="1496pt" height="252pt"
 viewBox="0.00 0.00 1495.50 252.00" xmlns="http://www.w3.org/2000/svg" xmlns:xlink="http://www.w3.org/1999/xlink">
<g id="graph0" class="graph" transform="scale(1 1) rotate(0) translate(4 248)">
<title>Formatting.hpp</title>
<polygon fill="white" stroke="transparent" points="-4,4 -4,-248 1491.5,-248 1491.5,4 -4,4"/>
<!-- Node1 -->
<g id="node1" class="node">
<title>Node1</title>
<g id="a_node1"><a xlink:title=" ">
<polygon fill="#bfbfbf" stroke="black" points="473.5,-224.5 473.5,-243.5 564.5,-243.5 564.5,-224.5 473.5,-224.5"/>
<text text-anchor="middle" x="519" y="-231.5" font-family="Helvetica,sans-Serif" font-size="10.00">Formatting.hpp</text>
</a>
</g>
</g>
<!-- Node2 -->
<g id="node2" class="node">
<title>Node2</title>
<g id="a_node2"><a xlink:href="_math_8hpp.html" target="_top" xlink:title=" ">
<polygon fill="white" stroke="black" points="488,-168.5 488,-187.5 550,-187.5 550,-168.5 488,-168.5"/>
<text text-anchor="middle" x="519" y="-175.5" font-family="Helvetica,sans-Serif" font-size="10.00">Math.hpp</text>
</a>
</g>
</g>
<!-- Node1&#45;&gt;Node2 -->
<g id="edge1" class="edge">
<title>Node1&#45;&gt;Node2</title>
<path fill="none" stroke="midnightblue" d="M519,-213.8C519,-204.91 519,-194.78 519,-187.75"/>
<polygon fill="midnightblue" stroke="midnightblue" points="515.5,-214.08 519,-224.08 522.5,-214.08 515.5,-214.08"/>
</g>
<!-- Node3 -->
<g id="node3" class="node">
<title>Node3</title>
<g id="a_node3"><a xlink:href="_mouse_8hpp.html" target="_top" xlink:title=" ">
<polygon fill="white" stroke="black" points="203,-112.5 203,-131.5 273,-131.5 273,-112.5 203,-112.5"/>
<text text-anchor="middle" x="238" y="-119.5" font-family="Helvetica,sans-Serif" font-size="10.00">Mouse.hpp</text>
</a>
</g>
</g>
<!-- Node2&#45;&gt;Node3 -->
<g id="edge2" class="edge">
<title>Node2&#45;&gt;Node3</title>
<path fill="none" stroke="midnightblue" d="M477.71,-169.07C422.42,-158.44 325.27,-139.77 273.24,-129.77"/>
<polygon fill="midnightblue" stroke="midnightblue" points="477.37,-172.56 487.85,-171.01 478.69,-165.69 477.37,-172.56"/>
</g>
<!-- Node6 -->
<g id="node6" class="node">
<title>Node6</title>
<g id="a_node6"><a xlink:href="_default_components_8hpp.html" target="_top" xlink:title=" ">
<polygon fill="white" stroke="black" points="451.5,-112.5 451.5,-131.5 586.5,-131.5 586.5,-112.5 451.5,-112.5"/>
<text text-anchor="middle" x="519" y="-119.5" font-family="Helvetica,sans-Serif" font-size="10.00">DefaultComponents.hpp</text>
</a>
</g>
</g>
<!-- Node2&#45;&gt;Node6 -->
<g id="edge5" class="edge">
<title>Node2&#45;&gt;Node6</title>
<path fill="none" stroke="midnightblue" d="M519,-157.8C519,-148.91 519,-138.78 519,-131.75"/>
<polygon fill="midnightblue" stroke="midnightblue" points="515.5,-158.08 519,-168.08 522.5,-158.08 515.5,-158.08"/>
</g>
<!-- Node16 -->
<g id="node16" class="node">
<title>Node16</title>
<g id="a_node16"><a xlink:href="_shader_alignment_8hpp.html" target="_top" xlink:title=" ">
<polygon fill="white" stroke="black" points="978,-112.5 978,-131.5 1100,-131.5 1100,-112.5 978,-112.5"/>
<text text-anchor="middle" x="1039" y="-119.5" font-family="Helvetica,sans-Serif" font-size="10.00">ShaderAlignment.hpp</text>
</a>
</g>
</g>
<!-- Node2&#45;&gt;Node16 -->
<g id="edge15" class="edge">
<title>Node2&#45;&gt;Node16</title>
<path fill="none" stroke="midnightblue" d="M560.32,-172.71C651.49,-163.24 870.3,-140.52 977.59,-129.38"/>
<polygon fill="midnightblue" stroke="midnightblue" points="559.94,-169.23 550.36,-173.74 560.67,-176.19 559.94,-169.23"/>
</g>
<!-- Node4 -->
<g id="node4" class="node">
<title>Node4</title>
<g id="a_node4"><a xlink:href="_platform_layer_8hpp.html" target="_top" xlink:title=" ">
<polygon fill="white" stroke="black" points="25,-56.5 25,-75.5 131,-75.5 131,-56.5 25,-56.5"/>
<text text-anchor="middle" x="78" y="-63.5" font-family="Helvetica,sans-Serif" font-size="10.00">PlatformLayer.hpp</text>
</a>
</g>
</g>
<!-- Node3&#45;&gt;Node4 -->
<g id="edge3" class="edge">
<title>Node3&#45;&gt;Node4</title>
<path fill="none" stroke="midnightblue" d="M202.95,-109.17C172.83,-99 130.1,-84.59 103.23,-75.52"/>
<polygon fill="midnightblue" stroke="midnightblue" points="202.05,-112.56 212.65,-112.44 204.29,-105.93 202.05,-112.56"/>
</g>
<!-- Node5 -->
<g id="node5" class="node">
<title>Node5</title>
<g id="a_node5"><a xlink:href="_camera_movement_script_8hpp.html" target="_top" xlink:title=" ">
<polygon fill="white" stroke="black" points="0,-0.5 0,-19.5 156,-19.5 156,-0.5 0,-0.5"/>
<text text-anchor="middle" x="78" y="-7.5" font-family="Helvetica,sans-Serif" font-size="10.00">CameraMovementScript.hpp</text>
</a>
</g>
</g>
<!-- Node4&#45;&gt;Node5 -->
<g id="edge4" class="edge">
<title>Node4&#45;&gt;Node5</title>
<path fill="none" stroke="midnightblue" d="M78,-45.8C78,-36.91 78,-26.78 78,-19.75"/>
<polygon fill="midnightblue" stroke="midnightblue" points="74.5,-46.08 78,-56.08 81.5,-46.08 74.5,-46.08"/>
</g>
<!-- Node7 -->
<g id="node7" class="node">
<title>Node7</title>
<g id="a_node7"><a xlink:href="_camera_aspect_system_8hpp.html" target="_top" xlink:title=" ">
<polygon fill="white" stroke="black" points="307,-56.5 307,-75.5 453,-75.5 453,-56.5 307,-56.5"/>
<text text-anchor="middle" x="380" y="-63.5" font-family="Helvetica,sans-Serif" font-size="10.00">CameraAspectSystem.hpp</text>
</a>
</g>
</g>
<!-- Node6&#45;&gt;Node7 -->
<g id="edge6" class="edge">
<title>Node6&#45;&gt;Node7</title>
<path fill="none" stroke="midnightblue" d="M487.52,-108.77C461.41,-98.63 424.96,-84.47 401.92,-75.52"/>
<polygon fill="midnightblue" stroke="midnightblue" points="486.39,-112.08 496.98,-112.44 488.92,-105.56 486.39,-112.08"/>
</g>
<!-- Node8 -->
<g id="node8" class="node">
<title>Node8</title>
<g id="a_node8"><a xlink:href="_script_system_8hpp.html" target="_top" xlink:title=" ">
<polygon fill="white" stroke="black" points="187,-56.5 187,-75.5 289,-75.5 289,-56.5 187,-56.5"/>
<text text-anchor="middle" x="238" y="-63.5" font-family="Helvetica,sans-Serif" font-size="10.00">ScriptSystem.hpp</text>
</a>
</g>
</g>
<!-- Node6&#45;&gt;Node8 -->
<g id="edge7" class="edge">
<title>Node6&#45;&gt;Node8</title>
<path fill="none" stroke="midnightblue" d="M464.55,-110.54C411.45,-100.33 331.66,-85 282.32,-75.52"/>
<polygon fill="midnightblue" stroke="midnightblue" points="463.99,-113.99 474.47,-112.44 465.31,-107.12 463.99,-113.99"/>
</g>
<!-- Node9 -->
<g id="node9" class="node">
<title>Node9</title>
<g id="a_node9"><a xlink:href="_bloom_feature_8hpp.html" target="_top" xlink:title=" ">
<polygon fill="white" stroke="black" points="685,-56.5 685,-75.5 791,-75.5 791,-56.5 685,-56.5"/>
<text text-anchor="middle" x="738" y="-63.5" font-family="Helvetica,sans-Serif" font-size="10.00">BloomFeature.hpp</text>
</a>
</g>
</g>
<!-- Node6&#45;&gt;Node9 -->
<g id="edge8" class="edge">
<title>Node6&#45;&gt;Node9</title>
<path fill="none" stroke="midnightblue" d="M563.51,-110.02C604.88,-99.82 665.64,-84.84 703.46,-75.52"/>
<polygon fill="midnightblue" stroke="midnightblue" points="562.57,-106.65 553.7,-112.44 564.25,-113.45 562.57,-106.65"/>
</g>
<!-- Node10 -->
<g id="node10" class="node">
<title>Node10</title>
<g id="a_node10"><a xlink:href="_camera_data_collector_8hpp.html" target="_top" xlink:title=" ">
<polygon fill="white" stroke="black" points="693,-0.5 693,-19.5 835,-19.5 835,-0.5 693,-0.5"/>
<text text-anchor="middle" x="764" y="-7.5" font-family="Helvetica,sans-Serif" font-size="10.00">CameraDataCollector.hpp</text>
</a>
</g>
</g>
<!-- Node6&#45;&gt;Node10 -->
<g id="edge9" class="edge">
<title>Node6&#45;&gt;Node10</title>
<path fill="none" stroke="midnightblue" d="M507.98,-103.47C500.53,-89.16 493.89,-69.21 505,-56 517.06,-41.66 620.27,-27.2 692.69,-18.67"/>
<polygon fill="midnightblue" stroke="midnightblue" points="505.05,-105.39 513.06,-112.32 511.12,-101.91 505.05,-105.39"/>
</g>
<!-- Node11 -->
<g id="node11" class="node">
<title>Node11</title>
<g id="a_node11"><a xlink:href="_clustered_light_feature_8hpp.html" target="_top" xlink:title=" ">
<polygon fill="white" stroke="black" points="1137.5,-0.5 1137.5,-19.5 1282.5,-19.5 1282.5,-0.5 1137.5,-0.5"/>
<text text-anchor="middle" x="1210" y="-7.5" font-family="Helvetica,sans-Serif" font-size="10.00">ClusteredLightFeature.hpp</text>
</a>
</g>
</g>
<!-- Node6&#45;&gt;Node11 -->
<g id="edge10" class="edge">
<title>Node6&#45;&gt;Node11</title>
<path fill="none" stroke="midnightblue" d="M519.04,-101.94C520.19,-86.98 524.41,-66.91 538,-56 561.08,-37.47 968.12,-20.1 1137.24,-13.65"/>
<polygon fill="midnightblue" stroke="midnightblue" points="515.54,-102.03 518.66,-112.15 522.53,-102.29 515.54,-102.03"/>
</g>
<!-- Node12 -->
<g id="node12" class="node">
<title>Node12</title>
<g id="a_node12"><a xlink:href="_forward_render_feature_8hpp.html" target="_top" xlink:title=" ">
<polygon fill="white" stroke="black" points="809,-56.5 809,-75.5 957,-75.5 957,-56.5 809,-56.5"/>
<text text-anchor="middle" x="883" y="-63.5" font-family="Helvetica,sans-Serif" font-size="10.00">ForwardRenderFeature.hpp</text>
</a>
</g>
</g>
<!-- Node6&#45;&gt;Node12 -->
<g id="edge11" class="edge">
<title>Node6&#45;&gt;Node12</title>
<path fill="none" stroke="midnightblue" d="M586.97,-110.92C655.74,-100.71 760.87,-85.12 825.59,-75.52"/>
<polygon fill="midnightblue" stroke="midnightblue" points="586.05,-107.51 576.68,-112.44 587.08,-114.44 586.05,-107.51"/>
</g>
<!-- Node13 -->
<g id="node13" class="node">
<title>Node13</title>
<g id="a_node13"><a xlink:href="_particle_system_feature_8hpp.html" target="_top" xlink:title=" ">
<polygon fill="white" stroke="black" points="492.5,-0.5 492.5,-19.5 639.5,-19.5 639.5,-0.5 492.5,-0.5"/>
<text text-anchor="middle" x="566" y="-7.5" font-family="Helvetica,sans-Serif" font-size="10.00">ParticleSystemFeature.hpp</text>
</a>
</g>
</g>
<!-- Node6&#45;&gt;Node13 -->
<g id="edge12" class="edge">
<title>Node6&#45;&gt;Node13</title>
<path fill="none" stroke="midnightblue" d="M441.18,-116.08C345.93,-109.25 195.09,-95.5 178,-76 172.14,-69.32 172.09,-62.64 178,-56 198.49,-32.99 385.46,-19.97 492.19,-14.35"/>
<polygon fill="midnightblue" stroke="midnightblue" points="441.14,-119.59 451.37,-116.8 441.64,-112.6 441.14,-119.59"/>
</g>
<!-- Node14 -->
<g id="node14" class="node">
<title>Node14</title>
<g id="a_node14"><a xlink:href="_static_mesh_feature_8hpp.html" target="_top" xlink:title=" ">
<polygon fill="white" stroke="black" points="975,-56.5 975,-75.5 1103,-75.5 1103,-56.5 975,-56.5"/>
<text text-anchor="middle" x="1039" y="-63.5" font-family="Helvetica,sans-Serif" font-size="10.00">StaticMeshFeature.hpp</text>
</a>
</g>
</g>
<!-- Node6&#45;&gt;Node14 -->
<g id="edge13" class="edge">
<title>Node6&#45;&gt;Node14</title>
<path fill="none" stroke="midnightblue" d="M596.87,-113.69C686.1,-105.2 836.69,-90.48 966,-76 968.92,-75.67 971.9,-75.33 974.92,-74.98"/>
<polygon fill="midnightblue" stroke="midnightblue" points="596.45,-110.22 586.83,-114.65 597.11,-117.18 596.45,-110.22"/>
</g>
<!-- Node15 -->
<g id="node15" class="node">
<title>Node15</title>
<g id="a_node15"><a xlink:href="_tonemap_feature_8hpp.html" target="_top" xlink:title=" ">
<polygon fill="white" stroke="black" points="547.5,-56.5 547.5,-75.5 666.5,-75.5 666.5,-56.5 547.5,-56.5"/>
<text text-anchor="middle" x="607" y="-63.5" font-family="Helvetica,sans-Serif" font-size="10.00">TonemapFeature.hpp</text>
</a>
</g>
</g>
<!-- Node6&#45;&gt;Node15 -->
<g id="edge14" class="edge">
<title>Node6&#45;&gt;Node15</title>
<path fill="none" stroke="midnightblue" d="M541.98,-106.9C558.11,-97 579.18,-84.07 592.9,-75.65"/>
<polygon fill="midnightblue" stroke="midnightblue" points="539.83,-104.11 533.14,-112.32 543.49,-110.08 539.83,-104.11"/>
</g>
<!-- Node16&#45;&gt;Node9 -->
<g id="edge16" class="edge">
<title>Node16&#45;&gt;Node9</title>
<path fill="none" stroke="midnightblue" d="M981.39,-110.66C924.5,-100.46 838.55,-85.04 785.47,-75.52"/>
<polygon fill="midnightblue" stroke="midnightblue" points="980.84,-114.12 991.31,-112.44 982.08,-107.23 980.84,-114.12"/>
</g>
<!-- Node16&#45;&gt;Node11 -->
<g id="edge23" class="edge">
<title>Node16&#45;&gt;Node11</title>
<path fill="none" stroke="midnightblue" d="M1110.53,-113.38C1158.31,-106.64 1215.04,-94.89 1230,-76 1243.34,-59.15 1227.6,-33.41 1217.39,-19.93"/>
<polygon fill="midnightblue" stroke="midnightblue" points="1109.93,-109.93 1100.49,-114.74 1110.87,-116.86 1109.93,-109.93"/>
</g>
<!-- Node16&#45;&gt;Node12 -->
<g id="edge24" class="edge">
<title>Node16&#45;&gt;Node12</title>
<path fill="none" stroke="midnightblue" d="M1004.83,-109.17C975.46,-99 933.8,-84.59 907.6,-75.52"/>
<polygon fill="midnightblue" stroke="midnightblue" points="1003.69,-112.48 1014.28,-112.44 1005.98,-105.86 1003.69,-112.48"/>
</g>
<!-- Node16&#45;&gt;Node14 -->
<g id="edge25" class="edge">
<title>Node16&#45;&gt;Node14</title>
<path fill="none" stroke="midnightblue" d="M1039,-101.8C1039,-92.91 1039,-82.78 1039,-75.75"/>
<polygon fill="midnightblue" stroke="midnightblue" points="1035.5,-102.08 1039,-112.08 1042.5,-102.08 1035.5,-102.08"/>
</g>
<!-- Node16&#45;&gt;Node15 -->
<g id="edge26" class="edge">
<title>Node16&#45;&gt;Node15</title>
<path fill="none" stroke="midnightblue" d="M967.94,-112.33C894.75,-103.36 777.38,-88.9 676,-76 673,-75.62 669.94,-75.23 666.84,-74.83"/>
<polygon fill="midnightblue" stroke="midnightblue" points="967.62,-115.81 977.97,-113.55 968.47,-108.86 967.62,-115.81"/>
</g>
<!-- Node17 -->
<g id="node17" class="node">
<title>Node17</title>
<g id="a_node17"><a xlink:href="_camera_data_8hpp.html" target="_top" xlink:title=" ">
<polygon fill="white" stroke="black" points="1121.5,-56.5 1121.5,-75.5 1220.5,-75.5 1220.5,-56.5 1121.5,-56.5"/>
<text text-anchor="middle" x="1171" y="-63.5" font-family="Helvetica,sans-Serif" font-size="10.00">CameraData.hpp</text>
</a>
</g>
</g>
<!-- Node16&#45;&gt;Node17 -->
<g id="edge17" class="edge">
<title>Node16&#45;&gt;Node17</title>
<path fill="none" stroke="midnightblue" d="M1069.22,-108.64C1093.99,-98.5 1128.4,-84.43 1150.18,-75.52"/>
<polygon fill="midnightblue" stroke="midnightblue" points="1067.85,-105.42 1059.92,-112.44 1070.5,-111.9 1067.85,-105.42"/>
</g>
<!-- Node18 -->
<g id="node18" class="node">
<title>Node18</title>
<g id="a_node18"><a xlink:href="_clustered_light_data_8hpp.html" target="_top" xlink:title=" ">
<polygon fill="white" stroke="black" points="1277.5,-56.5 1277.5,-75.5 1408.5,-75.5 1408.5,-56.5 1277.5,-56.5"/>
<text text-anchor="middle" x="1343" y="-63.5" font-family="Helvetica,sans-Serif" font-size="10.00">ClusteredLightData.hpp</text>
</a>
</g>
</g>
<!-- Node16&#45;&gt;Node18 -->
<g id="edge21" class="edge">
<title>Node16&#45;&gt;Node18</title>
<path fill="none" stroke="midnightblue" d="M1097.19,-110.66C1154.64,-100.46 1241.45,-85.04 1295.06,-75.52"/>
<polygon fill="midnightblue" stroke="midnightblue" points="1096.4,-107.25 1087.17,-112.44 1097.63,-114.14 1096.4,-107.25"/>
</g>
<!-- Node19 -->
<g id="node19" class="node">
<title>Node19</title>
<g id="a_node19"><a xlink:href="_view_8hpp.html" target="_top" xlink:title=" ">
<polygon fill="white" stroke="black" points="1426.5,-56.5 1426.5,-75.5 1487.5,-75.5 1487.5,-56.5 1426.5,-56.5"/>
<text text-anchor="middle" x="1457" y="-63.5" font-family="Helvetica,sans-Serif" font-size="10.00">View.hpp</text>
</a>
</g>
</g>
<!-- Node16&#45;&gt;Node19 -->
<g id="edge27" class="edge">
<title>Node16&#45;&gt;Node19</title>
<path fill="none" stroke="midnightblue" d="M1110.01,-114.89C1186.41,-107.78 1311.33,-94.58 1418,-76 1420.74,-75.52 1423.57,-74.98 1426.41,-74.39"/>
<polygon fill="midnightblue" stroke="midnightblue" points="1109.65,-111.41 1100.01,-115.81 1110.29,-118.38 1109.65,-111.41"/>
</g>
<!-- Node17&#45;&gt;Node10 -->
<g id="edge18" class="edge">
<title>Node17&#45;&gt;Node10</title>
<path fill="none" stroke="midnightblue" d="M1111.49,-55.96C1008.53,-41.52 901.48,-27.95 833.39,-19.5"/>
<polygon fill="midnightblue" stroke="midnightblue" points="1111.05,-59.43 1121.44,-57.36 1112.02,-52.5 1111.05,-59.43"/>
</g>
<!-- Node17&#45;&gt;Node11 -->
<g id="edge19" class="edge">
<title>Node17&#45;&gt;Node11</title>
<path fill="none" stroke="midnightblue" d="M1183.38,-47.86C1190.14,-38.5 1198.21,-27.33 1203.68,-19.75"/>
<polygon fill="midnightblue" stroke="midnightblue" points="1180.46,-45.93 1177.44,-56.08 1186.13,-50.03 1180.46,-45.93"/>
</g>
<!-- Node17&#45;&gt;Node13 -->
<g id="edge20" class="edge">
<title>Node17&#45;&gt;Node13</title>
<path fill="none" stroke="midnightblue" d="M1111.3,-56.07C1037.38,-48.34 770.73,-27.12 639.57,-16.78"/>
<polygon fill="midnightblue" stroke="midnightblue" points="1111.14,-59.57 1121.46,-57.19 1111.9,-52.61 1111.14,-59.57"/>
</g>
<!-- Node18&#45;&gt;Node11 -->
<g id="edge22" class="edge">
<title>Node18&#45;&gt;Node11</title>
<path fill="none" stroke="midnightblue" d="M1312.55,-52.64C1287.59,-42.5 1252.92,-28.43 1230.98,-19.52"/>
<polygon fill="midnightblue" stroke="midnightblue" points="1311.34,-55.92 1321.93,-56.44 1313.98,-49.44 1311.34,-55.92"/>
</g>
</g>
</svg>
