<?xml version="1.0" encoding="UTF-8" standalone="no"?>
<!DOCTYPE svg PUBLIC "-//W3C//DTD SVG 1.1//EN"
 "http://www.w3.org/Graphics/SVG/1.1/DTD/svg11.dtd">
<!-- Generated by graphviz version 2.43.0 (0)
 -->
<!-- Title: Instance.hpp Pages: 1 -->
<svg width="2436pt" height="476pt"
 viewBox="0.00 0.00 2436.04 476.00" xmlns="http://www.w3.org/2000/svg" xmlns:xlink="http://www.w3.org/1999/xlink">
<g id="graph0" class="graph" transform="scale(1 1) rotate(0) translate(4 472)">
<title>Instance.hpp</title>
<polygon fill="white" stroke="transparent" points="-4,4 -4,-472 2432.04,-472 2432.04,4 -4,4"/>
<!-- Node1 -->
<g id="node1" class="node">
<title>Node1</title>
<g id="a_node1"><a xlink:title=" ">
<polygon fill="#bfbfbf" stroke="black" points="2199.82,-448.5 2199.82,-467.5 2278.82,-467.5 2278.82,-448.5 2199.82,-448.5"/>
<text text-anchor="middle" x="2239.32" y="-455.5" font-family="Helvetica,sans-Serif" font-size="10.00">Instance.hpp</text>
</a>
</g>
</g>
<!-- Node2 -->
<g id="node2" class="node">
<title>Node2</title>
<g id="a_node2"><a xlink:href="_device_8hpp.html" target="_top" xlink:title=" ">
<polygon fill="white" stroke="black" points="2079.82,-392.5 2079.82,-411.5 2234.82,-411.5 2234.82,-392.5 2079.82,-392.5"/>
<text text-anchor="middle" x="2157.32" y="-399.5" font-family="Helvetica,sans-Serif" font-size="10.00">Liger&#45;Engine/RHI/Device.hpp</text>
</a>
</g>
</g>
<!-- Node1&#45;&gt;Node2 -->
<g id="edge1" class="edge">
<title>Node1&#45;&gt;Node2</title>
<path fill="none" stroke="midnightblue" d="M2226.15,-448.32C2213.47,-439.98 2194.09,-427.21 2179.12,-417.35"/>
<polygon fill="midnightblue" stroke="midnightblue" points="2180.74,-414.23 2170.46,-411.65 2176.89,-420.08 2180.74,-414.23"/>
</g>
<!-- Node15 -->
<g id="node15" class="node">
<title>Node15</title>
<g id="a_node15"><a xlink:title=" ">
<polygon fill="white" stroke="#bfbfbf" points="2231.32,-112.5 2231.32,-131.5 2271.32,-131.5 2271.32,-112.5 2231.32,-112.5"/>
<text text-anchor="middle" x="2251.32" y="-119.5" font-family="Helvetica,sans-Serif" font-size="10.00">span</text>
</a>
</g>
</g>
<!-- Node1&#45;&gt;Node15 -->
<g id="edge75" class="edge">
<title>Node1&#45;&gt;Node15</title>
<path fill="none" stroke="midnightblue" d="M2279.05,-450.67C2331.78,-439.74 2418.32,-411.93 2418.32,-347 2418.32,-347 2418.32,-347 2418.32,-233 2418.32,-168.15 2329.41,-139.37 2281.34,-128.55"/>
<polygon fill="midnightblue" stroke="midnightblue" points="2281.97,-125.11 2271.47,-126.45 2280.52,-131.96 2281.97,-125.11"/>
</g>
<!-- Node3 -->
<g id="node3" class="node">
<title>Node3</title>
<g id="a_node3"><a xlink:href="_buffer_8hpp.html" target="_top" xlink:title=" ">
<polygon fill="white" stroke="black" points="1954.32,-168.5 1954.32,-187.5 2104.32,-187.5 2104.32,-168.5 1954.32,-168.5"/>
<text text-anchor="middle" x="2029.32" y="-175.5" font-family="Helvetica,sans-Serif" font-size="10.00">Liger&#45;Engine/RHI/Buffer.hpp</text>
</a>
</g>
</g>
<!-- Node2&#45;&gt;Node3 -->
<g id="edge2" class="edge">
<title>Node2&#45;&gt;Node3</title>
<path fill="none" stroke="midnightblue" d="M2152.3,-392.3C2133.31,-359.36 2065.59,-241.9 2039.59,-196.81"/>
<polygon fill="midnightblue" stroke="midnightblue" points="2042.47,-194.8 2034.44,-187.88 2036.41,-198.3 2042.47,-194.8"/>
</g>
<!-- Node10 -->
<g id="node10" class="node">
<title>Node10</title>
<g id="a_node10"><a xlink:title=" ">
<polygon fill="white" stroke="#bfbfbf" points="1887.32,-0.5 1887.32,-19.5 1931.32,-19.5 1931.32,-0.5 1887.32,-0.5"/>
<text text-anchor="middle" x="1909.32" y="-7.5" font-family="Helvetica,sans-Serif" font-size="10.00">string</text>
</a>
</g>
</g>
<!-- Node2&#45;&gt;Node10 -->
<g id="edge74" class="edge">
<title>Node2&#45;&gt;Node10</title>
<path fill="none" stroke="midnightblue" d="M2172.08,-392.41C2239.79,-352.03 2512.6,-177.92 2401.32,-56 2370.33,-22.04 2046.12,-13.4 1941.6,-11.49"/>
<polygon fill="midnightblue" stroke="midnightblue" points="1941.41,-7.98 1931.35,-11.31 1941.29,-14.98 1941.41,-7.98"/>
</g>
<!-- Node11 -->
<g id="node11" class="node">
<title>Node11</title>
<g id="a_node11"><a xlink:href="_pipeline_8hpp.html" target="_top" xlink:title=" ">
<polygon fill="white" stroke="black" points="1378.82,-280.5 1378.82,-299.5 1539.82,-299.5 1539.82,-280.5 1378.82,-280.5"/>
<text text-anchor="middle" x="1459.32" y="-287.5" font-family="Helvetica,sans-Serif" font-size="10.00">Liger&#45;Engine/RHI/Pipeline.hpp</text>
</a>
</g>
</g>
<!-- Node2&#45;&gt;Node11 -->
<g id="edge10" class="edge">
<title>Node2&#45;&gt;Node11</title>
<path fill="none" stroke="midnightblue" d="M2103.13,-392.46C1976.1,-372.44 1659.61,-322.56 1523.36,-301.09"/>
<polygon fill="midnightblue" stroke="midnightblue" points="1523.9,-297.63 1513.48,-299.53 1522.81,-304.55 1523.9,-297.63"/>
</g>
<!-- Node14 -->
<g id="node14" class="node">
<title>Node14</title>
<g id="a_node14"><a xlink:href="_shader_module_8hpp.html" target="_top" xlink:title=" ">
<polygon fill="white" stroke="black" points="2160.82,-168.5 2160.82,-187.5 2351.82,-187.5 2351.82,-168.5 2160.82,-168.5"/>
<text text-anchor="middle" x="2256.32" y="-175.5" font-family="Helvetica,sans-Serif" font-size="10.00">Liger&#45;Engine/RHI/ShaderModule.hpp</text>
</a>
</g>
</g>
<!-- Node2&#45;&gt;Node14 -->
<g id="edge67" class="edge">
<title>Node2&#45;&gt;Node14</title>
<path fill="none" stroke="midnightblue" d="M2212.06,-392.45C2252.21,-384.93 2301.82,-372.59 2314.32,-356 2330.51,-334.52 2376.53,-377.02 2302.32,-224 2296.65,-212.3 2286.63,-201.94 2277.38,-194.12"/>
<polygon fill="midnightblue" stroke="midnightblue" points="2279.27,-191.15 2269.26,-187.68 2274.92,-196.63 2279.27,-191.15"/>
</g>
<!-- Node17 -->
<g id="node17" class="node">
<title>Node17</title>
<g id="a_node17"><a xlink:href="_render_graph_8hpp.html" target="_top" xlink:title=" ">
<polygon fill="white" stroke="black" points="555.82,-336.5 555.82,-355.5 740.82,-355.5 740.82,-336.5 555.82,-336.5"/>
<text text-anchor="middle" x="648.32" y="-343.5" font-family="Helvetica,sans-Serif" font-size="10.00">Liger&#45;Engine/RHI/RenderGraph.hpp</text>
</a>
</g>
</g>
<!-- Node2&#45;&gt;Node17 -->
<g id="edge19" class="edge">
<title>Node2&#45;&gt;Node17</title>
<path fill="none" stroke="midnightblue" d="M2079.63,-398.22C1828.06,-389.22 1035.62,-360.86 751.2,-350.68"/>
<polygon fill="midnightblue" stroke="midnightblue" points="751.01,-347.17 740.89,-350.31 750.76,-354.17 751.01,-347.17"/>
</g>
<!-- Node43 -->
<g id="node43" class="node">
<title>Node43</title>
<g id="a_node43"><a xlink:href="_swapchain_8hpp.html" target="_top" xlink:title=" ">
<polygon fill="white" stroke="black" points="1759.32,-224.5 1759.32,-243.5 1933.32,-243.5 1933.32,-224.5 1759.32,-224.5"/>
<text text-anchor="middle" x="1846.32" y="-231.5" font-family="Helvetica,sans-Serif" font-size="10.00">Liger&#45;Engine/RHI/Swapchain.hpp</text>
</a>
</g>
</g>
<!-- Node2&#45;&gt;Node43 -->
<g id="edge68" class="edge">
<title>Node2&#45;&gt;Node43</title>
<path fill="none" stroke="midnightblue" d="M2121.6,-392.47C2093.05,-384.92 2052.47,-372.54 2019.32,-356 1958.43,-325.62 1894.86,-275.66 1864.53,-250.5"/>
<polygon fill="midnightblue" stroke="midnightblue" points="1866.47,-247.56 1856.55,-243.82 1861.97,-252.92 1866.47,-247.56"/>
</g>
<!-- Node45 -->
<g id="node45" class="node">
<title>Node45</title>
<g id="a_node45"><a xlink:title=" ">
<polygon fill="white" stroke="#bfbfbf" points="2273.32,-336.5 2273.32,-355.5 2305.32,-355.5 2305.32,-336.5 2273.32,-336.5"/>
<text text-anchor="middle" x="2289.32" y="-343.5" font-family="Helvetica,sans-Serif" font-size="10.00">list</text>
</a>
</g>
</g>
<!-- Node2&#45;&gt;Node45 -->
<g id="edge73" class="edge">
<title>Node2&#45;&gt;Node45</title>
<path fill="none" stroke="midnightblue" d="M2178.24,-392.44C2201.37,-382.98 2238.65,-367.73 2263.56,-357.54"/>
<polygon fill="midnightblue" stroke="midnightblue" points="2265.15,-360.67 2273.08,-353.64 2262.5,-354.19 2265.15,-360.67"/>
</g>
<!-- Node4 -->
<g id="node4" class="node">
<title>Node4</title>
<g id="a_node4"><a xlink:href="_descriptor_binding_8hpp.html" target="_top" xlink:title=" ">
<polygon fill="white" stroke="black" points="1965.82,-112.5 1965.82,-131.5 2174.82,-131.5 2174.82,-112.5 1965.82,-112.5"/>
<text text-anchor="middle" x="2070.32" y="-119.5" font-family="Helvetica,sans-Serif" font-size="10.00">Liger&#45;Engine/RHI/DescriptorBinding.hpp</text>
</a>
</g>
</g>
<!-- Node3&#45;&gt;Node4 -->
<g id="edge3" class="edge">
<title>Node3&#45;&gt;Node4</title>
<path fill="none" stroke="midnightblue" d="M2036.09,-168.08C2041.88,-160.46 2050.38,-149.26 2057.46,-139.94"/>
<polygon fill="midnightblue" stroke="midnightblue" points="2060.42,-141.83 2063.68,-131.75 2054.84,-137.6 2060.42,-141.83"/>
</g>
<!-- Node6 -->
<g id="node6" class="node">
<title>Node6</title>
<g id="a_node6"><a xlink:href="_device_resource_state_8hpp.html" target="_top" xlink:title=" ">
<polygon fill="white" stroke="black" points="1721.32,-112.5 1721.32,-131.5 1947.32,-131.5 1947.32,-112.5 1721.32,-112.5"/>
<text text-anchor="middle" x="1834.32" y="-119.5" font-family="Helvetica,sans-Serif" font-size="10.00">Liger&#45;Engine/RHI/DeviceResourceState.hpp</text>
</a>
</g>
</g>
<!-- Node3&#45;&gt;Node6 -->
<g id="edge5" class="edge">
<title>Node3&#45;&gt;Node6</title>
<path fill="none" stroke="midnightblue" d="M1998.42,-168.44C1965.05,-159.2 1911.73,-144.44 1874.97,-134.26"/>
<polygon fill="midnightblue" stroke="midnightblue" points="1875.65,-130.81 1865.08,-131.52 1873.78,-137.56 1875.65,-130.81"/>
</g>
<!-- Node3&#45;&gt;Node10 -->
<g id="edge9" class="edge">
<title>Node3&#45;&gt;Node10</title>
<path fill="none" stroke="midnightblue" d="M2082.97,-168.43C2122.68,-160.86 2171.95,-148.47 2184.32,-132 2189.66,-124.89 2189.41,-119.29 2184.32,-112 2128.3,-31.74 2001.1,-15.07 1941.39,-11.74"/>
<polygon fill="midnightblue" stroke="midnightblue" points="1941.55,-8.25 1931.4,-11.28 1941.23,-15.24 1941.55,-8.25"/>
</g>
<!-- Node5 -->
<g id="node5" class="node">
<title>Node5</title>
<g id="a_node5"><a xlink:title=" ">
<polygon fill="white" stroke="#bfbfbf" points="1185.32,-0.5 1185.32,-19.5 1235.32,-19.5 1235.32,-0.5 1185.32,-0.5"/>
<text text-anchor="middle" x="1210.32" y="-7.5" font-family="Helvetica,sans-Serif" font-size="10.00">cstdint</text>
</a>
</g>
</g>
<!-- Node4&#45;&gt;Node5 -->
<g id="edge4" class="edge">
<title>Node4&#45;&gt;Node5</title>
<path fill="none" stroke="midnightblue" d="M2003.55,-112.46C1831.2,-90.41 1375.75,-32.16 1245.54,-15.51"/>
<polygon fill="midnightblue" stroke="midnightblue" points="1245.71,-12 1235.35,-14.2 1244.82,-18.94 1245.71,-12"/>
</g>
<!-- Node7 -->
<g id="node7" class="node">
<title>Node7</title>
<g id="a_node7"><a xlink:href="_enum_bitmask_8hpp.html" target="_top" xlink:title=" ">
<polygon fill="white" stroke="black" points="2196.82,-56.5 2196.82,-75.5 2391.82,-75.5 2391.82,-56.5 2196.82,-56.5"/>
<text text-anchor="middle" x="2294.32" y="-63.5" font-family="Helvetica,sans-Serif" font-size="10.00">Liger&#45;Engine/Core/EnumBitmask.hpp</text>
</a>
</g>
</g>
<!-- Node6&#45;&gt;Node7 -->
<g id="edge6" class="edge">
<title>Node6&#45;&gt;Node7</title>
<path fill="none" stroke="midnightblue" d="M1906.96,-112.47C1989.76,-102.75 2124.83,-86.9 2211.61,-76.71"/>
<polygon fill="midnightblue" stroke="midnightblue" points="2212.17,-80.17 2221.69,-75.53 2211.35,-73.22 2212.17,-80.17"/>
</g>
<!-- Node8 -->
<g id="node8" class="node">
<title>Node8</title>
<g id="a_node8"><a xlink:title=" ">
<polygon fill="white" stroke="#bfbfbf" points="2200.82,-0.5 2200.82,-19.5 2269.82,-19.5 2269.82,-0.5 2200.82,-0.5"/>
<text text-anchor="middle" x="2235.32" y="-7.5" font-family="Helvetica,sans-Serif" font-size="10.00">type_traits</text>
</a>
</g>
</g>
<!-- Node7&#45;&gt;Node8 -->
<g id="edge7" class="edge">
<title>Node7&#45;&gt;Node8</title>
<path fill="none" stroke="midnightblue" d="M2284.84,-56.32C2276.12,-48.34 2262.98,-36.31 2252.42,-26.65"/>
<polygon fill="midnightblue" stroke="midnightblue" points="2254.71,-24 2244.97,-19.83 2249.99,-29.17 2254.71,-24"/>
</g>
<!-- Node9 -->
<g id="node9" class="node">
<title>Node9</title>
<g id="a_node9"><a xlink:title=" ">
<polygon fill="white" stroke="#bfbfbf" points="2287.82,-0.5 2287.82,-19.5 2416.82,-19.5 2416.82,-0.5 2287.82,-0.5"/>
<text text-anchor="middle" x="2352.32" y="-7.5" font-family="Helvetica,sans-Serif" font-size="10.00">magic_enum_flags.hpp</text>
</a>
</g>
</g>
<!-- Node7&#45;&gt;Node9 -->
<g id="edge8" class="edge">
<title>Node7&#45;&gt;Node9</title>
<path fill="none" stroke="midnightblue" d="M2303.64,-56.32C2312.21,-48.34 2325.13,-36.31 2335.51,-26.65"/>
<polygon fill="midnightblue" stroke="midnightblue" points="2337.9,-29.21 2342.83,-19.83 2333.13,-24.09 2337.9,-29.21"/>
</g>
<!-- Node12 -->
<g id="node12" class="node">
<title>Node12</title>
<g id="a_node12"><a xlink:href="_format_8hpp.html" target="_top" xlink:title=" ">
<polygon fill="white" stroke="black" points="1271.32,-112.5 1271.32,-131.5 1427.32,-131.5 1427.32,-112.5 1271.32,-112.5"/>
<text text-anchor="middle" x="1349.32" y="-119.5" font-family="Helvetica,sans-Serif" font-size="10.00">Liger&#45;Engine/RHI/Format.hpp</text>
</a>
</g>
</g>
<!-- Node11&#45;&gt;Node12 -->
<g id="edge11" class="edge">
<title>Node11&#45;&gt;Node12</title>
<path fill="none" stroke="midnightblue" d="M1453.41,-280.08C1435.87,-253.61 1383.92,-175.21 1360.73,-140.21"/>
<polygon fill="midnightblue" stroke="midnightblue" points="1363.44,-137.97 1355,-131.57 1357.61,-141.84 1363.44,-137.97"/>
</g>
<!-- Node13 -->
<g id="node13" class="node">
<title>Node13</title>
<g id="a_node13"><a xlink:href="_push_constant_info_8hpp.html" target="_top" xlink:title=" ">
<polygon fill="white" stroke="black" points="2085.82,-224.5 2085.82,-243.5 2292.82,-243.5 2292.82,-224.5 2085.82,-224.5"/>
<text text-anchor="middle" x="2189.32" y="-231.5" font-family="Helvetica,sans-Serif" font-size="10.00">Liger&#45;Engine/RHI/PushConstantInfo.hpp</text>
</a>
</g>
</g>
<!-- Node11&#45;&gt;Node13 -->
<g id="edge13" class="edge">
<title>Node11&#45;&gt;Node13</title>
<path fill="none" stroke="midnightblue" d="M1539.88,-283.04C1670.01,-273.41 1926.86,-254.41 2075.58,-243.41"/>
<polygon fill="midnightblue" stroke="midnightblue" points="2075.95,-246.9 2085.66,-242.67 2075.43,-239.92 2075.95,-246.9"/>
</g>
<!-- Node16 -->
<g id="node16" class="node">
<title>Node16</title>
<g id="a_node16"><a xlink:title=" ">
<polygon fill="white" stroke="#bfbfbf" points="268.82,-112.5 268.82,-131.5 315.82,-131.5 315.82,-112.5 268.82,-112.5"/>
<text text-anchor="middle" x="292.32" y="-119.5" font-family="Helvetica,sans-Serif" font-size="10.00">vector</text>
</a>
</g>
</g>
<!-- Node11&#45;&gt;Node16 -->
<g id="edge18" class="edge">
<title>Node11&#45;&gt;Node16</title>
<path fill="none" stroke="midnightblue" d="M1381.93,-280.46C1265.08,-267.65 1036.62,-242.96 842.32,-224 664.23,-206.63 614.68,-232.35 441.32,-188 395.14,-176.19 345.04,-151.67 316.29,-136.35"/>
<polygon fill="midnightblue" stroke="midnightblue" points="317.86,-133.22 307.39,-131.54 314.53,-139.37 317.86,-133.22"/>
</g>
<!-- Node12&#45;&gt;Node5 -->
<g id="edge12" class="edge">
<title>Node12&#45;&gt;Node5</title>
<path fill="none" stroke="midnightblue" d="M1338.41,-112.37C1314.76,-93.65 1258.53,-49.15 1229.06,-25.83"/>
<polygon fill="midnightblue" stroke="midnightblue" points="1231.19,-23.05 1221.18,-19.59 1226.85,-28.54 1231.19,-23.05"/>
</g>
<!-- Node13&#45;&gt;Node14 -->
<g id="edge14" class="edge">
<title>Node13&#45;&gt;Node14</title>
<path fill="none" stroke="midnightblue" d="M2200.09,-224.32C2210.09,-216.26 2225.21,-204.08 2237.25,-194.37"/>
<polygon fill="midnightblue" stroke="midnightblue" points="2239.77,-196.83 2245.36,-187.83 2235.38,-191.38 2239.77,-196.83"/>
</g>
<!-- Node14&#45;&gt;Node5 -->
<g id="edge16" class="edge">
<title>Node14&#45;&gt;Node5</title>
<path fill="none" stroke="midnightblue" d="M2264.48,-168.35C2276.3,-154.79 2295.22,-128.37 2280.32,-112 2209.02,-33.65 1422.1,-14.83 1245.4,-11.57"/>
<polygon fill="midnightblue" stroke="midnightblue" points="1245.41,-8.07 1235.35,-11.39 1245.28,-15.07 1245.41,-8.07"/>
</g>
<!-- Node14&#45;&gt;Node7 -->
<g id="edge15" class="edge">
<title>Node14&#45;&gt;Node7</title>
<path fill="none" stroke="midnightblue" d="M2274.4,-168.39C2287.88,-160.87 2305.29,-148.57 2313.32,-132 2320.75,-116.68 2313.69,-97.88 2306.16,-84.45"/>
<polygon fill="midnightblue" stroke="midnightblue" points="2309.02,-82.43 2300.79,-75.75 2303.06,-86.1 2309.02,-82.43"/>
</g>
<!-- Node14&#45;&gt;Node15 -->
<g id="edge17" class="edge">
<title>Node14&#45;&gt;Node15</title>
<path fill="none" stroke="midnightblue" d="M2255.5,-168.08C2254.84,-161.01 2253.9,-150.86 2253.08,-141.99"/>
<polygon fill="midnightblue" stroke="midnightblue" points="2256.54,-141.39 2252.13,-131.75 2249.57,-142.03 2256.54,-141.39"/>
</g>
<!-- Node17&#45;&gt;Node3 -->
<g id="edge24" class="edge">
<title>Node17&#45;&gt;Node3</title>
<path fill="none" stroke="midnightblue" d="M741.13,-343.99C938.92,-341.25 1396.3,-331.59 1548.32,-300 1642.24,-280.48 1657.62,-248.65 1750.32,-224 1814.26,-207 1888.26,-195.42 1943.98,-188.27"/>
<polygon fill="midnightblue" stroke="midnightblue" points="1944.68,-191.71 1954.16,-186.99 1943.8,-184.77 1944.68,-191.71"/>
</g>
<!-- Node18 -->
<g id="node18" class="node">
<title>Node18</title>
<g id="a_node18"><a xlink:href="_dependency_graph_8hpp.html" target="_top" xlink:title=" ">
<polygon fill="white" stroke="black" points="79.32,-168.5 79.32,-187.5 351.32,-187.5 351.32,-168.5 79.32,-168.5"/>
<text text-anchor="middle" x="215.32" y="-175.5" font-family="Helvetica,sans-Serif" font-size="10.00">Liger&#45;Engine/Core/Containers/DependencyGraph.hpp</text>
</a>
</g>
</g>
<!-- Node17&#45;&gt;Node18 -->
<g id="edge20" class="edge">
<title>Node17&#45;&gt;Node18</title>
<path fill="none" stroke="midnightblue" d="M625.95,-336.42C554.31,-308.96 330.37,-223.11 247.01,-191.15"/>
<polygon fill="midnightblue" stroke="midnightblue" points="248.15,-187.84 237.56,-187.52 245.64,-194.37 248.15,-187.84"/>
</g>
<!-- Node20 -->
<g id="node20" class="node">
<title>Node20</title>
<g id="a_node20"><a xlink:href="_command_buffer_8hpp.html" target="_top" xlink:title=" ">
<polygon fill="white" stroke="black" points="971.32,-168.5 971.32,-187.5 1171.32,-187.5 1171.32,-168.5 971.32,-168.5"/>
<text text-anchor="middle" x="1071.32" y="-175.5" font-family="Helvetica,sans-Serif" font-size="10.00">Liger&#45;Engine/RHI/CommandBuffer.hpp</text>
</a>
</g>
</g>
<!-- Node17&#45;&gt;Node20 -->
<g id="edge25" class="edge">
<title>Node17&#45;&gt;Node20</title>
<path fill="none" stroke="midnightblue" d="M670.17,-336.42C740.09,-308.99 958.49,-223.28 1040.12,-191.24"/>
<polygon fill="midnightblue" stroke="midnightblue" points="1041.57,-194.44 1049.6,-187.52 1039.01,-187.92 1041.57,-194.44"/>
</g>
<!-- Node26 -->
<g id="node26" class="node">
<title>Node26</title>
<g id="a_node26"><a xlink:href="_context_8hpp.html" target="_top" xlink:title=" ">
<polygon fill="white" stroke="black" points="568.32,-280.5 568.32,-299.5 728.32,-299.5 728.32,-280.5 568.32,-280.5"/>
<text text-anchor="middle" x="648.32" y="-287.5" font-family="Helvetica,sans-Serif" font-size="10.00">Liger&#45;Engine/RHI/Context.hpp</text>
</a>
</g>
</g>
<!-- Node17&#45;&gt;Node26 -->
<g id="edge36" class="edge">
<title>Node17&#45;&gt;Node26</title>
<path fill="none" stroke="midnightblue" d="M648.32,-336.08C648.32,-329.01 648.32,-318.86 648.32,-309.99"/>
<polygon fill="midnightblue" stroke="midnightblue" points="651.82,-309.75 648.32,-299.75 644.82,-309.75 651.82,-309.75"/>
</g>
<!-- Node30 -->
<g id="node30" class="node">
<title>Node30</title>
<g id="a_node30"><a xlink:title=" ">
<polygon fill="white" stroke="#bfbfbf" points="96.82,-0.5 96.82,-19.5 169.82,-19.5 169.82,-0.5 96.82,-0.5"/>
<text text-anchor="middle" x="133.32" y="-7.5" font-family="Helvetica,sans-Serif" font-size="10.00">string_view</text>
</a>
</g>
</g>
<!-- Node17&#45;&gt;Node30 -->
<g id="edge65" class="edge">
<title>Node17&#45;&gt;Node30</title>
<path fill="none" stroke="midnightblue" d="M555.6,-341.77C425.98,-336.47 197.59,-324.01 118.32,-300 61.02,-282.64 0.32,-294.87 0.32,-235 0.32,-235 0.32,-235 0.32,-121 0.32,-90.9 -0.96,-78.23 19.32,-56 36.89,-36.74 63.75,-25.61 86.98,-19.24"/>
<polygon fill="midnightblue" stroke="midnightblue" points="87.84,-22.63 96.68,-16.79 86.13,-15.85 87.84,-22.63"/>
</g>
<!-- Node35 -->
<g id="node35" class="node">
<title>Node35</title>
<g id="a_node35"><a xlink:title=" ">
<polygon fill="white" stroke="#bfbfbf" points="740.82,-224.5 740.82,-243.5 833.82,-243.5 833.82,-224.5 740.82,-224.5"/>
<text text-anchor="middle" x="787.32" y="-231.5" font-family="Helvetica,sans-Serif" font-size="10.00">unordered_map</text>
</a>
</g>
</g>
<!-- Node17&#45;&gt;Node35 -->
<g id="edge66" class="edge">
<title>Node17&#45;&gt;Node35</title>
<path fill="none" stroke="midnightblue" d="M671.94,-336.46C690.92,-328.83 717.58,-316.34 737.32,-300 753.72,-286.43 768.01,-266.54 777.07,-252.34"/>
<polygon fill="midnightblue" stroke="midnightblue" points="780.21,-253.92 782.47,-243.57 774.25,-250.25 780.21,-253.92"/>
</g>
<!-- Node36 -->
<g id="node36" class="node">
<title>Node36</title>
<g id="a_node36"><a xlink:href="_dependent_texture_info_8hpp.html" target="_top" xlink:title=" ">
<polygon fill="white" stroke="black" points="1113.32,-280.5 1113.32,-299.5 1343.32,-299.5 1343.32,-280.5 1113.32,-280.5"/>
<text text-anchor="middle" x="1228.32" y="-287.5" font-family="Helvetica,sans-Serif" font-size="10.00">Liger&#45;Engine/RHI/DependentTextureInfo.hpp</text>
</a>
</g>
</g>
<!-- Node17&#45;&gt;Node36 -->
<g id="edge50" class="edge">
<title>Node17&#45;&gt;Node36</title>
<path fill="none" stroke="midnightblue" d="M739.9,-336.47C845.15,-326.67 1017.39,-310.64 1126.69,-300.46"/>
<polygon fill="midnightblue" stroke="midnightblue" points="1127.11,-303.94 1136.74,-299.53 1126.46,-296.97 1127.11,-303.94"/>
</g>
<!-- Node39 -->
<g id="node39" class="node">
<title>Node39</title>
<g id="a_node39"><a xlink:href="_resource_version_registry_8hpp.html" target="_top" xlink:title=" ">
<polygon fill="white" stroke="black" points="212.32,-280.5 212.32,-299.5 454.32,-299.5 454.32,-280.5 212.32,-280.5"/>
<text text-anchor="middle" x="333.32" y="-287.5" font-family="Helvetica,sans-Serif" font-size="10.00">Liger&#45;Engine/RHI/ResourceVersionRegistry.hpp</text>
</a>
</g>
</g>
<!-- Node17&#45;&gt;Node39 -->
<g id="edge59" class="edge">
<title>Node17&#45;&gt;Node39</title>
<path fill="none" stroke="midnightblue" d="M598.41,-336.44C542.65,-326.89 452.44,-311.42 393,-301.23"/>
<polygon fill="midnightblue" stroke="midnightblue" points="393.45,-297.76 383,-299.52 392.27,-304.66 393.45,-297.76"/>
</g>
<!-- Node40 -->
<g id="node40" class="node">
<title>Node40</title>
<g id="a_node40"><a xlink:title=" ">
<polygon fill="white" stroke="#bfbfbf" points="157.32,-224.5 157.32,-243.5 213.32,-243.5 213.32,-224.5 157.32,-224.5"/>
<text text-anchor="middle" x="185.32" y="-231.5" font-family="Helvetica,sans-Serif" font-size="10.00">optional</text>
</a>
</g>
</g>
<!-- Node17&#45;&gt;Node40 -->
<g id="edge64" class="edge">
<title>Node17&#45;&gt;Node40</title>
<path fill="none" stroke="midnightblue" d="M555.72,-343.65C413.75,-340.61 155.63,-330.86 127.32,-300 111.24,-282.47 136.83,-261.93 158.94,-248.71"/>
<polygon fill="midnightblue" stroke="midnightblue" points="160.81,-251.68 167.77,-243.69 157.35,-245.59 160.81,-251.68"/>
</g>
<!-- Node42 -->
<g id="node42" class="node">
<title>Node42</title>
<g id="a_node42"><a xlink:title=" ">
<polygon fill="white" stroke="#bfbfbf" points="136.32,-280.5 136.32,-299.5 194.32,-299.5 194.32,-280.5 136.32,-280.5"/>
<text text-anchor="middle" x="165.32" y="-287.5" font-family="Helvetica,sans-Serif" font-size="10.00">memory</text>
</a>
</g>
</g>
<!-- Node17&#45;&gt;Node42 -->
<g id="edge63" class="edge">
<title>Node17&#45;&gt;Node42</title>
<path fill="none" stroke="midnightblue" d="M555.8,-339.21C467.76,-332.89 331.45,-320.98 204.6,-300.02"/>
<polygon fill="midnightblue" stroke="midnightblue" points="205.14,-296.56 194.7,-298.36 203.99,-303.47 205.14,-296.56"/>
</g>
<!-- Node18&#45;&gt;Node5 -->
<g id="edge22" class="edge">
<title>Node18&#45;&gt;Node5</title>
<path fill="none" stroke="midnightblue" d="M218.64,-168.2C224.51,-153.92 238.13,-125.91 259.32,-112 371.99,-38.06 423.65,-73.11 557.32,-56 791.99,-25.97 1076.86,-15.02 1175.06,-11.98"/>
<polygon fill="midnightblue" stroke="midnightblue" points="1175.42,-15.47 1185.31,-11.67 1175.21,-8.47 1175.42,-15.47"/>
</g>
<!-- Node18&#45;&gt;Node16 -->
<g id="edge23" class="edge">
<title>Node18&#45;&gt;Node16</title>
<path fill="none" stroke="midnightblue" d="M227.69,-168.32C239.48,-160.06 257.45,-147.45 271.46,-137.63"/>
<polygon fill="midnightblue" stroke="midnightblue" points="273.8,-140.26 279.98,-131.65 269.78,-134.53 273.8,-140.26"/>
</g>
<!-- Node19 -->
<g id="node19" class="node">
<title>Node19</title>
<g id="a_node19"><a xlink:title=" ">
<polygon fill="white" stroke="#bfbfbf" points="160.32,-112.5 160.32,-131.5 212.32,-131.5 212.32,-112.5 160.32,-112.5"/>
<text text-anchor="middle" x="186.32" y="-119.5" font-family="Helvetica,sans-Serif" font-size="10.00">cassert</text>
</a>
</g>
</g>
<!-- Node18&#45;&gt;Node19 -->
<g id="edge21" class="edge">
<title>Node18&#45;&gt;Node19</title>
<path fill="none" stroke="midnightblue" d="M210.53,-168.08C206.56,-160.69 200.8,-149.95 195.89,-140.81"/>
<polygon fill="midnightblue" stroke="midnightblue" points="198.84,-138.91 191.02,-131.75 192.67,-142.22 198.84,-138.91"/>
</g>
<!-- Node20&#45;&gt;Node6 -->
<g id="edge27" class="edge">
<title>Node20&#45;&gt;Node6</title>
<path fill="none" stroke="midnightblue" d="M1171.46,-169.91C1310.19,-160.09 1560.67,-142.37 1710.82,-131.74"/>
<polygon fill="midnightblue" stroke="midnightblue" points="1711.28,-135.22 1721.01,-131.02 1710.79,-128.23 1711.28,-135.22"/>
</g>
<!-- Node20&#45;&gt;Node7 -->
<g id="edge26" class="edge">
<title>Node20&#45;&gt;Node7</title>
<path fill="none" stroke="midnightblue" d="M1171.56,-174.28C1284.83,-169.98 1474.41,-159.1 1635.32,-132 1670.19,-126.13 1677.45,-117.83 1712.32,-112 1876.34,-84.58 2069.21,-73.82 2186.56,-69.63"/>
<polygon fill="midnightblue" stroke="midnightblue" points="2186.76,-73.13 2196.63,-69.28 2186.51,-66.13 2186.76,-73.13"/>
</g>
<!-- Node20&#45;&gt;Node15 -->
<g id="edge35" class="edge">
<title>Node20&#45;&gt;Node15</title>
<path fill="none" stroke="midnightblue" d="M1171.71,-174.14C1407.1,-167.24 1989.38,-149 2184.32,-132 2196.41,-130.95 2209.65,-129.28 2221.16,-127.66"/>
<polygon fill="midnightblue" stroke="midnightblue" points="2221.75,-131.11 2231.15,-126.21 2220.75,-124.18 2221.75,-131.11"/>
</g>
<!-- Node21 -->
<g id="node21" class="node">
<title>Node21</title>
<g id="a_node21"><a xlink:href="_extent_8hpp.html" target="_top" xlink:title=" ">
<polygon fill="white" stroke="black" points="1099.82,-112.5 1099.82,-131.5 1252.82,-131.5 1252.82,-112.5 1099.82,-112.5"/>
<text text-anchor="middle" x="1176.32" y="-119.5" font-family="Helvetica,sans-Serif" font-size="10.00">Liger&#45;Engine/RHI/Extent.hpp</text>
</a>
</g>
</g>
<!-- Node20&#45;&gt;Node21 -->
<g id="edge28" class="edge">
<title>Node20&#45;&gt;Node21</title>
<path fill="none" stroke="midnightblue" d="M1088.19,-168.32C1105.03,-159.66 1131.13,-146.24 1150.56,-136.25"/>
<polygon fill="midnightblue" stroke="midnightblue" points="1152.2,-139.34 1159.49,-131.65 1149,-133.12 1152.2,-139.34"/>
</g>
<!-- Node22 -->
<g id="node22" class="node">
<title>Node22</title>
<g id="a_node22"><a xlink:href="_filter_8hpp.html" target="_top" xlink:title=" ">
<polygon fill="white" stroke="black" points="1036.32,-56.5 1036.32,-75.5 1182.32,-75.5 1182.32,-56.5 1036.32,-56.5"/>
<text text-anchor="middle" x="1109.32" y="-63.5" font-family="Helvetica,sans-Serif" font-size="10.00">Liger&#45;Engine/RHI/Filter.hpp</text>
</a>
</g>
</g>
<!-- Node20&#45;&gt;Node22 -->
<g id="edge30" class="edge">
<title>Node20&#45;&gt;Node22</title>
<path fill="none" stroke="midnightblue" d="M1073.47,-168.49C1076.71,-155.97 1083.23,-131.94 1090.32,-112 1093.56,-102.9 1097.68,-92.99 1101.25,-84.79"/>
<polygon fill="midnightblue" stroke="midnightblue" points="1104.51,-86.07 1105.38,-75.51 1098.12,-83.22 1104.51,-86.07"/>
</g>
<!-- Node23 -->
<g id="node23" class="node">
<title>Node23</title>
<g id="a_node23"><a xlink:href="_job_type_8hpp.html" target="_top" xlink:title=" ">
<polygon fill="white" stroke="black" points="884.82,-112.5 884.82,-131.5 1043.82,-131.5 1043.82,-112.5 884.82,-112.5"/>
<text text-anchor="middle" x="964.32" y="-119.5" font-family="Helvetica,sans-Serif" font-size="10.00">Liger&#45;Engine/RHI/JobType.hpp</text>
</a>
</g>
</g>
<!-- Node20&#45;&gt;Node23 -->
<g id="edge32" class="edge">
<title>Node20&#45;&gt;Node23</title>
<path fill="none" stroke="midnightblue" d="M1054.13,-168.32C1036.97,-159.66 1010.38,-146.24 990.57,-136.25"/>
<polygon fill="midnightblue" stroke="midnightblue" points="991.97,-133.04 981.47,-131.65 988.82,-139.28 991.97,-133.04"/>
</g>
<!-- Node24 -->
<g id="node24" class="node">
<title>Node24</title>
<g id="a_node24"><a xlink:title=" ">
<polygon fill="white" stroke="#bfbfbf" points="690.82,-112.5 690.82,-131.5 769.82,-131.5 769.82,-112.5 690.82,-112.5"/>
<text text-anchor="middle" x="730.32" y="-119.5" font-family="Helvetica,sans-Serif" font-size="10.00">fmt/format.h</text>
</a>
</g>
</g>
<!-- Node20&#45;&gt;Node24 -->
<g id="edge33" class="edge">
<title>Node20&#45;&gt;Node24</title>
<path fill="none" stroke="midnightblue" d="M1012.79,-168.49C955.97,-160.11 867.02,-146.68 779.94,-132.06"/>
<polygon fill="midnightblue" stroke="midnightblue" points="780.33,-128.58 769.88,-130.37 779.16,-135.48 780.33,-128.58"/>
</g>
<!-- Node25 -->
<g id="node25" class="node">
<title>Node25</title>
<g id="a_node25"><a xlink:title=" ">
<polygon fill="white" stroke="#bfbfbf" points="788.32,-112.5 788.32,-131.5 866.32,-131.5 866.32,-112.5 788.32,-112.5"/>
<text text-anchor="middle" x="827.32" y="-119.5" font-family="Helvetica,sans-Serif" font-size="10.00">glm/glm.hpp</text>
</a>
</g>
</g>
<!-- Node20&#45;&gt;Node25 -->
<g id="edge34" class="edge">
<title>Node20&#45;&gt;Node25</title>
<path fill="none" stroke="midnightblue" d="M1032.66,-168.44C990.18,-159.04 921.89,-143.93 875.85,-133.74"/>
<polygon fill="midnightblue" stroke="midnightblue" points="876.32,-130.26 865.8,-131.52 874.81,-137.09 876.32,-130.26"/>
</g>
<!-- Node21&#45;&gt;Node5 -->
<g id="edge29" class="edge">
<title>Node21&#45;&gt;Node5</title>
<path fill="none" stroke="midnightblue" d="M1179.29,-112.4C1182.39,-103.37 1187.34,-88.73 1191.32,-76 1196.2,-60.4 1201.39,-42.56 1205.1,-29.53"/>
<polygon fill="midnightblue" stroke="midnightblue" points="1208.48,-30.44 1207.84,-19.86 1201.75,-28.53 1208.48,-30.44"/>
</g>
<!-- Node22&#45;&gt;Node5 -->
<g id="edge31" class="edge">
<title>Node22&#45;&gt;Node5</title>
<path fill="none" stroke="midnightblue" d="M1125.55,-56.32C1141.67,-47.7 1166.62,-34.36 1185.29,-24.39"/>
<polygon fill="midnightblue" stroke="midnightblue" points="1186.97,-27.46 1194.13,-19.65 1183.67,-21.28 1186.97,-27.46"/>
</g>
<!-- Node27 -->
<g id="node27" class="node">
<title>Node27</title>
<g id="a_node27"><a xlink:href="_r_h_i_2_log_channel_8hpp.html" target="_top" xlink:title=" ">
<polygon fill="white" stroke="black" points="407.82,-224.5 407.82,-243.5 586.82,-243.5 586.82,-224.5 407.82,-224.5"/>
<text text-anchor="middle" x="497.32" y="-231.5" font-family="Helvetica,sans-Serif" font-size="10.00">Liger&#45;Engine/RHI/LogChannel.hpp</text>
</a>
</g>
</g>
<!-- Node26&#45;&gt;Node27 -->
<g id="edge37" class="edge">
<title>Node26&#45;&gt;Node27</title>
<path fill="none" stroke="midnightblue" d="M624.4,-280.44C599.1,-271.4 559.02,-257.06 530.64,-246.92"/>
<polygon fill="midnightblue" stroke="midnightblue" points="531.73,-243.59 521.14,-243.52 529.37,-250.18 531.73,-243.59"/>
</g>
<!-- Node33 -->
<g id="node33" class="node">
<title>Node33</title>
<g id="a_node33"><a xlink:title=" ">
<polygon fill="white" stroke="#bfbfbf" points="687.82,-224.5 687.82,-243.5 722.82,-243.5 722.82,-224.5 687.82,-224.5"/>
<text text-anchor="middle" x="705.32" y="-231.5" font-family="Helvetica,sans-Serif" font-size="10.00">any</text>
</a>
</g>
</g>
<!-- Node26&#45;&gt;Node33 -->
<g id="edge47" class="edge">
<title>Node26&#45;&gt;Node33</title>
<path fill="none" stroke="midnightblue" d="M657.48,-280.32C665.82,-272.42 678.35,-260.55 688.5,-250.94"/>
<polygon fill="midnightblue" stroke="midnightblue" points="691.14,-253.25 696,-243.83 686.33,-248.17 691.14,-253.25"/>
</g>
<!-- Node34 -->
<g id="node34" class="node">
<title>Node34</title>
<g id="a_node34"><a xlink:title=" ">
<polygon fill="white" stroke="#bfbfbf" points="604.82,-224.5 604.82,-243.5 669.82,-243.5 669.82,-224.5 604.82,-224.5"/>
<text text-anchor="middle" x="637.32" y="-231.5" font-family="Helvetica,sans-Serif" font-size="10.00">typeindex</text>
</a>
</g>
</g>
<!-- Node26&#45;&gt;Node34 -->
<g id="edge48" class="edge">
<title>Node26&#45;&gt;Node34</title>
<path fill="none" stroke="midnightblue" d="M646.51,-280.08C645.05,-272.93 642.95,-262.64 641.13,-253.69"/>
<polygon fill="midnightblue" stroke="midnightblue" points="644.53,-252.85 639.1,-243.75 637.67,-254.25 644.53,-252.85"/>
</g>
<!-- Node26&#45;&gt;Node35 -->
<g id="edge49" class="edge">
<title>Node26&#45;&gt;Node35</title>
<path fill="none" stroke="midnightblue" d="M670.35,-280.44C693.43,-271.48 729.88,-257.31 755.96,-247.18"/>
<polygon fill="midnightblue" stroke="midnightblue" points="757.35,-250.4 765.4,-243.52 754.81,-243.88 757.35,-250.4"/>
</g>
<!-- Node28 -->
<g id="node28" class="node">
<title>Node28</title>
<g id="a_node28"><a xlink:href="_log_8hpp.html" target="_top" xlink:title=" ">
<polygon fill="white" stroke="black" points="483.32,-168.5 483.32,-187.5 647.32,-187.5 647.32,-168.5 483.32,-168.5"/>
<text text-anchor="middle" x="565.32" y="-175.5" font-family="Helvetica,sans-Serif" font-size="10.00">Liger&#45;Engine/Core/Log/Log.hpp</text>
</a>
</g>
</g>
<!-- Node27&#45;&gt;Node28 -->
<g id="edge38" class="edge">
<title>Node27&#45;&gt;Node28</title>
<path fill="none" stroke="midnightblue" d="M508.25,-224.32C518.5,-216.18 534.04,-203.84 546.32,-194.09"/>
<polygon fill="midnightblue" stroke="midnightblue" points="548.54,-196.79 554.2,-187.83 544.19,-191.31 548.54,-196.79"/>
</g>
<!-- Node28&#45;&gt;Node16 -->
<g id="edge46" class="edge">
<title>Node28&#45;&gt;Node16</title>
<path fill="none" stroke="midnightblue" d="M522.06,-168.44C467.6,-157.67 375.21,-139.39 325.81,-129.62"/>
<polygon fill="midnightblue" stroke="midnightblue" points="326.44,-126.18 315.96,-127.67 325.09,-133.05 326.44,-126.18"/>
</g>
<!-- Node29 -->
<g id="node29" class="node">
<title>Node29</title>
<g id="a_node29"><a xlink:href="_message_8hpp.html" target="_top" xlink:title=" ">
<polygon fill="white" stroke="black" points="566.82,-56.5 566.82,-75.5 757.82,-75.5 757.82,-56.5 566.82,-56.5"/>
<text text-anchor="middle" x="662.32" y="-63.5" font-family="Helvetica,sans-Serif" font-size="10.00">Liger&#45;Engine/Core/Log/Message.hpp</text>
</a>
</g>
</g>
<!-- Node28&#45;&gt;Node29 -->
<g id="edge39" class="edge">
<title>Node28&#45;&gt;Node29</title>
<path fill="none" stroke="midnightblue" d="M589.41,-168.43C606.47,-161.19 628.66,-149.23 642.32,-132 652.85,-118.71 657.86,-99.88 660.23,-85.9"/>
<polygon fill="midnightblue" stroke="midnightblue" points="663.71,-86.32 661.62,-75.93 656.77,-85.35 663.71,-86.32"/>
</g>
<!-- Node31 -->
<g id="node31" class="node">
<title>Node31</title>
<g id="a_node31"><a xlink:href="_writer_8hpp.html" target="_top" xlink:title=" ">
<polygon fill="white" stroke="black" points="372.32,-112.5 372.32,-131.5 548.32,-131.5 548.32,-112.5 372.32,-112.5"/>
<text text-anchor="middle" x="460.32" y="-119.5" font-family="Helvetica,sans-Serif" font-size="10.00">Liger&#45;Engine/Core/Log/Writer.hpp</text>
</a>
</g>
</g>
<!-- Node28&#45;&gt;Node31 -->
<g id="edge43" class="edge">
<title>Node28&#45;&gt;Node31</title>
<path fill="none" stroke="midnightblue" d="M548.45,-168.32C531.61,-159.66 505.51,-146.24 486.08,-136.25"/>
<polygon fill="midnightblue" stroke="midnightblue" points="487.64,-133.12 477.15,-131.65 484.44,-139.34 487.64,-133.12"/>
</g>
<!-- Node32 -->
<g id="node32" class="node">
<title>Node32</title>
<g id="a_node32"><a xlink:title=" ">
<polygon fill="white" stroke="#bfbfbf" points="566.82,-112.5 566.82,-131.5 633.82,-131.5 633.82,-112.5 566.82,-112.5"/>
<text text-anchor="middle" x="600.32" y="-119.5" font-family="Helvetica,sans-Serif" font-size="10.00">fmt/core.h</text>
</a>
</g>
</g>
<!-- Node28&#45;&gt;Node32 -->
<g id="edge45" class="edge">
<title>Node28&#45;&gt;Node32</title>
<path fill="none" stroke="midnightblue" d="M571.1,-168.08C575.99,-160.53 583.15,-149.49 589.15,-140.23"/>
<polygon fill="midnightblue" stroke="midnightblue" points="592.15,-142.05 594.65,-131.75 586.27,-138.24 592.15,-142.05"/>
</g>
<!-- Node29&#45;&gt;Node5 -->
<g id="edge40" class="edge">
<title>Node29&#45;&gt;Node5</title>
<path fill="none" stroke="midnightblue" d="M748.85,-56.47C871.34,-44.4 1089.87,-22.87 1175,-14.48"/>
<polygon fill="midnightblue" stroke="midnightblue" points="1175.57,-17.94 1185.17,-13.48 1174.88,-10.98 1175.57,-17.94"/>
</g>
<!-- Node29&#45;&gt;Node10 -->
<g id="edge41" class="edge">
<title>Node29&#45;&gt;Node10</title>
<path fill="none" stroke="midnightblue" d="M757.84,-60.86C1015.75,-49.7 1717.48,-19.31 1876.84,-12.41"/>
<polygon fill="midnightblue" stroke="midnightblue" points="1877.11,-15.9 1886.95,-11.97 1876.81,-8.9 1877.11,-15.9"/>
</g>
<!-- Node29&#45;&gt;Node30 -->
<g id="edge42" class="edge">
<title>Node29&#45;&gt;Node30</title>
<path fill="none" stroke="midnightblue" d="M578.79,-56.47C466.21,-44.98 269.58,-24.91 180.08,-15.77"/>
<polygon fill="midnightblue" stroke="midnightblue" points="180.27,-12.27 169.96,-14.74 179.56,-19.24 180.27,-12.27"/>
</g>
<!-- Node31&#45;&gt;Node29 -->
<g id="edge44" class="edge">
<title>Node31&#45;&gt;Node29</title>
<path fill="none" stroke="midnightblue" d="M492.33,-112.44C527.05,-103.16 582.61,-88.31 620.7,-78.13"/>
<polygon fill="midnightblue" stroke="midnightblue" points="621.71,-81.48 630.46,-75.52 619.9,-74.72 621.71,-81.48"/>
</g>
<!-- Node37 -->
<g id="node37" class="node">
<title>Node37</title>
<g id="a_node37"><a xlink:href="_texture_8hpp.html" target="_top" xlink:title=" ">
<polygon fill="white" stroke="black" points="1535.32,-168.5 1535.32,-187.5 1693.32,-187.5 1693.32,-168.5 1535.32,-168.5"/>
<text text-anchor="middle" x="1614.32" y="-175.5" font-family="Helvetica,sans-Serif" font-size="10.00">Liger&#45;Engine/RHI/Texture.hpp</text>
</a>
</g>
</g>
<!-- Node36&#45;&gt;Node37 -->
<g id="edge51" class="edge">
<title>Node36&#45;&gt;Node37</title>
<path fill="none" stroke="midnightblue" d="M1258.29,-280.46C1327.2,-260.82 1496.94,-212.45 1574.5,-190.35"/>
<polygon fill="midnightblue" stroke="midnightblue" points="1575.72,-193.64 1584.37,-187.53 1573.8,-186.91 1575.72,-193.64"/>
</g>
<!-- Node37&#45;&gt;Node4 -->
<g id="edge52" class="edge">
<title>Node37&#45;&gt;Node4</title>
<path fill="none" stroke="midnightblue" d="M1686.32,-168.47C1768.41,-158.75 1902.31,-142.9 1988.33,-132.71"/>
<polygon fill="midnightblue" stroke="midnightblue" points="1988.8,-136.18 1998.32,-131.53 1987.98,-129.23 1988.8,-136.18"/>
</g>
<!-- Node37&#45;&gt;Node6 -->
<g id="edge53" class="edge">
<title>Node37&#45;&gt;Node6</title>
<path fill="none" stroke="midnightblue" d="M1649.18,-168.44C1687.24,-159.1 1748.28,-144.12 1789.78,-133.93"/>
<polygon fill="midnightblue" stroke="midnightblue" points="1790.75,-137.3 1799.62,-131.52 1789.08,-130.5 1790.75,-137.3"/>
</g>
<!-- Node37&#45;&gt;Node10 -->
<g id="edge58" class="edge">
<title>Node37&#45;&gt;Node10</title>
<path fill="none" stroke="midnightblue" d="M1626.42,-168.34C1644.65,-155.43 1680.43,-130.67 1712.32,-112 1771.33,-77.45 1843.48,-42.14 1881.99,-23.81"/>
<polygon fill="midnightblue" stroke="midnightblue" points="1883.49,-26.97 1891.03,-19.53 1880.5,-20.65 1883.49,-26.97"/>
</g>
<!-- Node37&#45;&gt;Node12 -->
<g id="edge55" class="edge">
<title>Node37&#45;&gt;Node12</title>
<path fill="none" stroke="midnightblue" d="M1572.33,-168.44C1525.91,-158.98 1451.09,-143.74 1401.08,-133.55"/>
<polygon fill="midnightblue" stroke="midnightblue" points="1401.61,-130.08 1391.12,-131.52 1400.21,-136.94 1401.61,-130.08"/>
</g>
<!-- Node37&#45;&gt;Node21 -->
<g id="edge54" class="edge">
<title>Node37&#45;&gt;Node21</title>
<path fill="none" stroke="midnightblue" d="M1544.92,-168.44C1466.19,-158.74 1338.05,-142.94 1255.49,-132.76"/>
<polygon fill="midnightblue" stroke="midnightblue" points="1255.75,-129.27 1245.4,-131.52 1254.9,-136.21 1255.75,-129.27"/>
</g>
<!-- Node38 -->
<g id="node38" class="node">
<title>Node38</title>
<g id="a_node38"><a xlink:href="_sampler_info_8hpp.html" target="_top" xlink:title=" ">
<polygon fill="white" stroke="black" points="1445.82,-112.5 1445.82,-131.5 1626.82,-131.5 1626.82,-112.5 1445.82,-112.5"/>
<text text-anchor="middle" x="1536.32" y="-119.5" font-family="Helvetica,sans-Serif" font-size="10.00">Liger&#45;Engine/RHI/SamplerInfo.hpp</text>
</a>
</g>
</g>
<!-- Node37&#45;&gt;Node38 -->
<g id="edge56" class="edge">
<title>Node37&#45;&gt;Node38</title>
<path fill="none" stroke="midnightblue" d="M1601.79,-168.32C1589.74,-159.98 1571.29,-147.21 1557.05,-137.35"/>
<polygon fill="midnightblue" stroke="midnightblue" points="1559.04,-134.47 1548.82,-131.65 1555.05,-140.22 1559.04,-134.47"/>
</g>
<!-- Node38&#45;&gt;Node22 -->
<g id="edge57" class="edge">
<title>Node38&#45;&gt;Node22</title>
<path fill="none" stroke="midnightblue" d="M1468.66,-112.44C1391.99,-102.75 1267.24,-86.97 1186.74,-76.79"/>
<polygon fill="midnightblue" stroke="midnightblue" points="1187.02,-73.3 1176.66,-75.52 1186.15,-80.24 1187.02,-73.3"/>
</g>
<!-- Node39&#45;&gt;Node16 -->
<g id="edge62" class="edge">
<title>Node39&#45;&gt;Node16</title>
<path fill="none" stroke="midnightblue" d="M339.17,-280.23C352.19,-259.49 380.9,-206.3 360.32,-168 352.7,-153.82 338.42,-143.35 324.92,-136.1"/>
<polygon fill="midnightblue" stroke="midnightblue" points="326.29,-132.88 315.78,-131.59 323.19,-139.16 326.29,-132.88"/>
</g>
<!-- Node39&#45;&gt;Node40 -->
<g id="edge60" class="edge">
<title>Node39&#45;&gt;Node40</title>
<path fill="none" stroke="midnightblue" d="M309.87,-280.44C285.19,-271.44 246.14,-257.19 218.34,-247.05"/>
<polygon fill="midnightblue" stroke="midnightblue" points="219.26,-243.66 208.66,-243.52 216.86,-250.23 219.26,-243.66"/>
</g>
<!-- Node41 -->
<g id="node41" class="node">
<title>Node41</title>
<g id="a_node41"><a xlink:title=" ">
<polygon fill="white" stroke="#bfbfbf" points="261.82,-224.5 261.82,-243.5 312.82,-243.5 312.82,-224.5 261.82,-224.5"/>
<text text-anchor="middle" x="287.32" y="-231.5" font-family="Helvetica,sans-Serif" font-size="10.00">variant</text>
</a>
</g>
</g>
<!-- Node39&#45;&gt;Node41 -->
<g id="edge61" class="edge">
<title>Node39&#45;&gt;Node41</title>
<path fill="none" stroke="midnightblue" d="M325.73,-280.08C319.09,-272.3 309.3,-260.8 301.26,-251.37"/>
<polygon fill="midnightblue" stroke="midnightblue" points="303.93,-249.09 294.78,-243.75 298.6,-253.63 303.93,-249.09"/>
</g>
<!-- Node43&#45;&gt;Node15 -->
<g id="edge72" class="edge">
<title>Node43&#45;&gt;Node15</title>
<path fill="none" stroke="midnightblue" d="M1933.32,-225.16C1986.33,-218.72 2054.88,-207.4 2113.32,-188 2131.81,-181.86 2134.78,-176.48 2152.32,-168 2175.73,-156.68 2202.61,-144.52 2222.45,-135.69"/>
<polygon fill="midnightblue" stroke="midnightblue" points="2224.12,-138.78 2231.85,-131.53 2221.29,-132.38 2224.12,-138.78"/>
</g>
<!-- Node43&#45;&gt;Node37 -->
<g id="edge71" class="edge">
<title>Node43&#45;&gt;Node37</title>
<path fill="none" stroke="midnightblue" d="M1809.56,-224.44C1769.26,-215.06 1704.51,-199.99 1660.74,-189.8"/>
<polygon fill="midnightblue" stroke="midnightblue" points="1661.44,-186.37 1650.91,-187.52 1659.86,-193.19 1661.44,-186.37"/>
</g>
<!-- Node44 -->
<g id="node44" class="node">
<title>Node44</title>
<g id="a_node44"><a xlink:href="_window_8hpp.html" target="_top" xlink:title=" ">
<polygon fill="white" stroke="black" points="28.32,-56.5 28.32,-75.5 238.32,-75.5 238.32,-56.5 28.32,-56.5"/>
<text text-anchor="middle" x="133.32" y="-63.5" font-family="Helvetica,sans-Serif" font-size="10.00">Liger&#45;Engine/Core/Platform/Window.hpp</text>
</a>
</g>
</g>
<!-- Node43&#45;&gt;Node44 -->
<g id="edge69" class="edge">
<title>Node43&#45;&gt;Node44</title>
<path fill="none" stroke="midnightblue" d="M1759.11,-232.32C1476.67,-229.83 598.08,-219.6 474.32,-188 447.55,-181.16 387.95,-144.53 363.32,-132 345.96,-123.17 342.6,-118.73 324.32,-112 282.06,-96.45 232.52,-84.96 194.48,-77.48"/>
<polygon fill="midnightblue" stroke="midnightblue" points="195.05,-74.03 184.57,-75.57 193.73,-80.9 195.05,-74.03"/>
</g>
<!-- Node44&#45;&gt;Node30 -->
<g id="edge70" class="edge">
<title>Node44&#45;&gt;Node30</title>
<path fill="none" stroke="midnightblue" d="M133.32,-56.08C133.32,-49.01 133.32,-38.86 133.32,-29.99"/>
<polygon fill="midnightblue" stroke="midnightblue" points="136.82,-29.75 133.32,-19.75 129.82,-29.75 136.82,-29.75"/>
</g>
</g>
</svg>
