<?xml version="1.0" encoding="UTF-8" standalone="no"?>
<!DOCTYPE svg PUBLIC "-//W3C//DTD SVG 1.1//EN"
 "http://www.w3.org/Graphics/SVG/1.1/DTD/svg11.dtd">
<!-- Generated by graphviz version 2.43.0 (0)
 -->
<!-- Title: Instance.hpp Pages: 1 -->
<!--zoomable 420 -->
<svg id="main" version="1.1" xmlns="http://www.w3.org/2000/svg" xmlns:xlink="http://www.w3.org/1999/xlink" xml:space="preserve" onload="init(evt)">
<style type="text/css"><![CDATA[
.edge:hover path { stroke: red; }
.edge:hover polygon { stroke: red; fill: red; }
]]></style>
<script type="text/javascript"><![CDATA[
var edges = document.getElementsByTagName('g');
if (edges && edges.length) {
  for (var i=0;i<edges.length;i++) {
    if (edges[i].id.substr(0,4)=='edge') {
      edges[i].setAttribute('class','edge');
    }
  }
}
]]></script>
        <defs>
                <circle id="rim" cx="0" cy="0" r="7"/>
                <circle id="rim2" cx="0" cy="0" r="3.5"/>
                <g id="zoomPlus">
                        <use xlink:href="#rim" fill="#404040">
                                <set attributeName="fill" to="#808080" begin="zoomplus.mouseover" end="zoomplus.mouseout"/>
                        </use>
                        <path d="M-4,0h8M0,-4v8" fill="none" stroke="white" stroke-width="1.5" pointer-events="none"/>
                </g>
                <g id="zoomMin">
                        <use xlink:href="#rim" fill="#404040">
                                <set attributeName="fill" to="#808080" begin="zoomminus.mouseover" end="zoomminus.mouseout"/>
                        </use>
                        <path d="M-4,0h8" fill="none" stroke="white" stroke-width="1.5" pointer-events="none"/>
                </g>
                <g id="dirArrow">
                        <path fill="none" stroke="white" stroke-width="1.5" d="M0,-3.0v7 M-2.5,-0.5L0,-3.0L2.5,-0.5"/>
                </g>
               <g id="resetDef">
                       <use xlink:href="#rim2" fill="#404040">
                               <set attributeName="fill" to="#808080" begin="reset.mouseover" end="reset.mouseout"/>
                       </use>
               </g>
        </defs>

<script type="text/javascript">
var viewWidth = 1998;
var viewHeight = 420;
var sectionId = 'dynsection-0';
</script>
<script xlink:href="svgpan.js"/>
<svg id="graph" class="graph">
<g id="viewport">
<title>Instance.hpp</title>
<polygon fill="white" stroke="transparent" points="-4,4 -4,-416 1994,-416 1994,4 -4,4"/>
<!-- Node1 -->
<g id="node1" class="node">
<title>Node1</title>
<g id="a_node1"><a xlink:title=" ">
<polygon fill="#bfbfbf" stroke="black" points="82.5,-392.5 82.5,-411.5 161.5,-411.5 161.5,-392.5 82.5,-392.5"/>
<text text-anchor="middle" x="122" y="-399.5" font-family="Helvetica,sans-Serif" font-size="10.00">Instance.hpp</text>
</a>
</g>
</g>
<!-- Node2 -->
<g id="node2" class="node">
<title>Node2</title>
<g id="a_node2"><a xlink:href="_device_8hpp.html" target="_top" xlink:title=" ">
<polygon fill="white" stroke="black" points="265.5,-336.5 265.5,-355.5 420.5,-355.5 420.5,-336.5 265.5,-336.5"/>
<text text-anchor="middle" x="343" y="-343.5" font-family="Helvetica,sans-Serif" font-size="10.00">Liger&#45;Engine/RHI/Device.hpp</text>
</a>
</g>
</g>
<!-- Node1&#45;&gt;Node2 -->
<g id="edge1" class="edge">
<title>Node1&#45;&gt;Node2</title>
<path fill="none" stroke="midnightblue" d="M157.02,-392.44C195.25,-383.1 256.57,-368.12 298.26,-357.93"/>
<polygon fill="midnightblue" stroke="midnightblue" points="299.26,-361.29 308.15,-355.52 297.6,-354.49 299.26,-361.29"/>
</g>
<!-- Node14 -->
<g id="node14" class="node">
<title>Node14</title>
<g id="a_node14"><a xlink:title=" ">
<polygon fill="white" stroke="#bfbfbf" points="156,-56.5 156,-75.5 196,-75.5 196,-56.5 156,-56.5"/>
<text text-anchor="middle" x="176" y="-63.5" font-family="Helvetica,sans-Serif" font-size="10.00">span</text>
</a>
</g>
</g>
<!-- Node1&#45;&gt;Node14 -->
<g id="edge59" class="edge">
<title>Node1&#45;&gt;Node14</title>
<path fill="none" stroke="midnightblue" d="M99.05,-392.48C63.71,-377.71 0,-343.76 0,-291 0,-291 0,-291 0,-177 0,-109.05 95.51,-81.52 145.81,-71.73"/>
<polygon fill="midnightblue" stroke="midnightblue" points="146.6,-75.14 155.81,-69.9 145.34,-68.26 146.6,-75.14"/>
</g>
<!-- Node3 -->
<g id="node3" class="node">
<title>Node3</title>
<g id="a_node3"><a xlink:href="_buffer_8hpp.html" target="_top" xlink:title=" ">
<polygon fill="white" stroke="black" points="406,-168.5 406,-187.5 556,-187.5 556,-168.5 406,-168.5"/>
<text text-anchor="middle" x="481" y="-175.5" font-family="Helvetica,sans-Serif" font-size="10.00">Liger&#45;Engine/RHI/Buffer.hpp</text>
</a>
</g>
</g>
<!-- Node2&#45;&gt;Node3 -->
<g id="edge2" class="edge">
<title>Node2&#45;&gt;Node3</title>
<path fill="none" stroke="midnightblue" d="M347.5,-336.43C358.64,-315.69 389.16,-261.68 424,-224 434.54,-212.6 448.12,-201.76 459.38,-193.58"/>
<polygon fill="midnightblue" stroke="midnightblue" points="461.66,-196.25 467.81,-187.62 457.63,-190.53 461.66,-196.25"/>
</g>
<!-- Node10 -->
<g id="node10" class="node">
<title>Node10</title>
<g id="a_node10"><a xlink:title=" ">
<polygon fill="white" stroke="#bfbfbf" points="352,-112.5 352,-131.5 396,-131.5 396,-112.5 352,-112.5"/>
<text text-anchor="middle" x="374" y="-119.5" font-family="Helvetica,sans-Serif" font-size="10.00">string</text>
</a>
</g>
</g>
<!-- Node2&#45;&gt;Node10 -->
<g id="edge58" class="edge">
<title>Node2&#45;&gt;Node10</title>
<path fill="none" stroke="midnightblue" d="M292.73,-336.41C242.72,-324.9 168.59,-299.13 134,-244 116.05,-215.39 112.24,-193.83 134,-168 162.65,-134 282.37,-141.53 341.72,-131.75"/>
<polygon fill="midnightblue" stroke="midnightblue" points="342.59,-135.15 351.73,-129.79 341.24,-128.28 342.59,-135.15"/>
</g>
<!-- Node11 -->
<g id="node11" class="node">
<title>Node11</title>
<g id="a_node11"><a xlink:href="_compute_pipeline_8hpp.html" target="_top" xlink:title=" ">
<polygon fill="white" stroke="black" points="142.5,-224.5 142.5,-243.5 347.5,-243.5 347.5,-224.5 142.5,-224.5"/>
<text text-anchor="middle" x="245" y="-231.5" font-family="Helvetica,sans-Serif" font-size="10.00">Liger&#45;Engine/RHI/ComputePipeline.hpp</text>
</a>
</g>
</g>
<!-- Node2&#45;&gt;Node11 -->
<g id="edge10" class="edge">
<title>Node2&#45;&gt;Node11</title>
<path fill="none" stroke="midnightblue" d="M335.31,-336.37C318.99,-318.05 280.68,-275.05 259.58,-251.36"/>
<polygon fill="midnightblue" stroke="midnightblue" points="261.92,-248.73 252.65,-243.59 256.69,-253.39 261.92,-248.73"/>
</g>
<!-- Node13 -->
<g id="node13" class="node">
<title>Node13</title>
<g id="a_node13"><a xlink:href="_shader_module_8hpp.html" target="_top" xlink:title=" ">
<polygon fill="white" stroke="black" points="142.5,-112.5 142.5,-131.5 333.5,-131.5 333.5,-112.5 142.5,-112.5"/>
<text text-anchor="middle" x="238" y="-119.5" font-family="Helvetica,sans-Serif" font-size="10.00">Liger&#45;Engine/RHI/ShaderModule.hpp</text>
</a>
</g>
</g>
<!-- Node2&#45;&gt;Node13 -->
<g id="edge52" class="edge">
<title>Node2&#45;&gt;Node13</title>
<path fill="none" stroke="midnightblue" d="M265.48,-336.69C232.25,-330.4 194.21,-319.37 164,-300 137.12,-282.77 130.14,-273.92 119,-244 107.21,-212.33 97.72,-195.75 117,-168 128.38,-151.63 146.46,-141.2 165.22,-134.56"/>
<polygon fill="midnightblue" stroke="midnightblue" points="166.29,-137.89 174.75,-131.51 164.16,-131.22 166.29,-137.89"/>
</g>
<!-- Node15 -->
<g id="node15" class="node">
<title>Node15</title>
<g id="a_node15"><a xlink:href="_graphics_pipeline_8hpp.html" target="_top" xlink:title=" ">
<polygon fill="white" stroke="black" points="1510.5,-224.5 1510.5,-243.5 1713.5,-243.5 1713.5,-224.5 1510.5,-224.5"/>
<text text-anchor="middle" x="1612" y="-231.5" font-family="Helvetica,sans-Serif" font-size="10.00">Liger&#45;Engine/RHI/GraphicsPipeline.hpp</text>
</a>
</g>
</g>
<!-- Node2&#45;&gt;Node15 -->
<g id="edge17" class="edge">
<title>Node2&#45;&gt;Node15</title>
<path fill="none" stroke="midnightblue" d="M420.63,-340.75C544.81,-333.72 795.75,-318.59 1008,-300 1195.65,-283.56 1415.47,-258.42 1531.23,-244.72"/>
<polygon fill="midnightblue" stroke="midnightblue" points="1531.9,-248.17 1541.42,-243.51 1531.08,-241.22 1531.9,-248.17"/>
</g>
<!-- Node18 -->
<g id="node18" class="node">
<title>Node18</title>
<g id="a_node18"><a xlink:href="_render_graph_8hpp.html" target="_top" xlink:title=" ">
<polygon fill="white" stroke="black" points="813.5,-280.5 813.5,-299.5 998.5,-299.5 998.5,-280.5 813.5,-280.5"/>
<text text-anchor="middle" x="906" y="-287.5" font-family="Helvetica,sans-Serif" font-size="10.00">Liger&#45;Engine/RHI/RenderGraph.hpp</text>
</a>
</g>
</g>
<!-- Node2&#45;&gt;Node18 -->
<g id="edge22" class="edge">
<title>Node2&#45;&gt;Node18</title>
<path fill="none" stroke="midnightblue" d="M420.69,-337.55C521.32,-327.9 696.83,-311.06 806.94,-300.5"/>
<polygon fill="midnightblue" stroke="midnightblue" points="807.43,-303.97 817.05,-299.53 806.76,-297 807.43,-303.97"/>
</g>
<!-- Node33 -->
<g id="node33" class="node">
<title>Node33</title>
<g id="a_node33"><a xlink:href="_swapchain_8hpp.html" target="_top" xlink:title=" ">
<polygon fill="white" stroke="black" points="432,-280.5 432,-299.5 606,-299.5 606,-280.5 432,-280.5"/>
<text text-anchor="middle" x="519" y="-287.5" font-family="Helvetica,sans-Serif" font-size="10.00">Liger&#45;Engine/RHI/Swapchain.hpp</text>
</a>
</g>
</g>
<!-- Node2&#45;&gt;Node33 -->
<g id="edge53" class="edge">
<title>Node2&#45;&gt;Node33</title>
<path fill="none" stroke="midnightblue" d="M370.89,-336.44C400.75,-327.28 448.31,-312.69 481.46,-302.52"/>
<polygon fill="midnightblue" stroke="midnightblue" points="482.71,-305.8 491.24,-299.52 480.66,-299.1 482.71,-305.8"/>
</g>
<!-- Node4 -->
<g id="node4" class="node">
<title>Node4</title>
<g id="a_node4"><a xlink:href="_descriptor_binding_8hpp.html" target="_top" xlink:title=" ">
<polygon fill="white" stroke="black" points="876.5,-112.5 876.5,-131.5 1085.5,-131.5 1085.5,-112.5 876.5,-112.5"/>
<text text-anchor="middle" x="981" y="-119.5" font-family="Helvetica,sans-Serif" font-size="10.00">Liger&#45;Engine/RHI/DescriptorBinding.hpp</text>
</a>
</g>
</g>
<!-- Node3&#45;&gt;Node4 -->
<g id="edge3" class="edge">
<title>Node3&#45;&gt;Node4</title>
<path fill="none" stroke="midnightblue" d="M556.13,-168.89C646.04,-159.18 796.43,-142.93 892.06,-132.61"/>
<polygon fill="midnightblue" stroke="midnightblue" points="892.44,-136.09 902,-131.53 891.69,-129.13 892.44,-136.09"/>
</g>
<!-- Node6 -->
<g id="node6" class="node">
<title>Node6</title>
<g id="a_node6"><a xlink:href="_device_resource_state_8hpp.html" target="_top" xlink:title=" ">
<polygon fill="white" stroke="black" points="414,-112.5 414,-131.5 640,-131.5 640,-112.5 414,-112.5"/>
<text text-anchor="middle" x="527" y="-119.5" font-family="Helvetica,sans-Serif" font-size="10.00">Liger&#45;Engine/RHI/DeviceResourceState.hpp</text>
</a>
</g>
</g>
<!-- Node3&#45;&gt;Node6 -->
<g id="edge5" class="edge">
<title>Node3&#45;&gt;Node6</title>
<path fill="none" stroke="midnightblue" d="M488.6,-168.08C495.23,-160.3 505.02,-148.8 513.06,-139.37"/>
<polygon fill="midnightblue" stroke="midnightblue" points="515.73,-141.63 519.55,-131.75 510.4,-137.09 515.73,-141.63"/>
</g>
<!-- Node3&#45;&gt;Node10 -->
<g id="edge9" class="edge">
<title>Node3&#45;&gt;Node10</title>
<path fill="none" stroke="midnightblue" d="M463.81,-168.32C446.65,-159.66 420.05,-146.24 400.25,-136.25"/>
<polygon fill="midnightblue" stroke="midnightblue" points="401.65,-133.04 391.15,-131.65 398.5,-139.28 401.65,-133.04"/>
</g>
<!-- Node5 -->
<g id="node5" class="node">
<title>Node5</title>
<g id="a_node5"><a xlink:title=" ">
<polygon fill="white" stroke="#bfbfbf" points="1141,-0.5 1141,-19.5 1191,-19.5 1191,-0.5 1141,-0.5"/>
<text text-anchor="middle" x="1166" y="-7.5" font-family="Helvetica,sans-Serif" font-size="10.00">cstdint</text>
</a>
</g>
</g>
<!-- Node4&#45;&gt;Node5 -->
<g id="edge4" class="edge">
<title>Node4&#45;&gt;Node5</title>
<path fill="none" stroke="midnightblue" d="M981,-112.06C981.5,-98.1 984.55,-71.15 1000,-56 1034.93,-21.75 1093.14,-12.91 1130.52,-10.98"/>
<polygon fill="midnightblue" stroke="midnightblue" points="1131.08,-14.46 1140.94,-10.59 1130.82,-7.47 1131.08,-14.46"/>
</g>
<!-- Node7 -->
<g id="node7" class="node">
<title>Node7</title>
<g id="a_node7"><a xlink:href="_enum_bitmask_8hpp.html" target="_top" xlink:title=" ">
<polygon fill="white" stroke="black" points="429.5,-56.5 429.5,-75.5 624.5,-75.5 624.5,-56.5 429.5,-56.5"/>
<text text-anchor="middle" x="527" y="-63.5" font-family="Helvetica,sans-Serif" font-size="10.00">Liger&#45;Engine/Core/EnumBitmask.hpp</text>
</a>
</g>
</g>
<!-- Node6&#45;&gt;Node7 -->
<g id="edge6" class="edge">
<title>Node6&#45;&gt;Node7</title>
<path fill="none" stroke="midnightblue" d="M527,-112.08C527,-105.01 527,-94.86 527,-85.99"/>
<polygon fill="midnightblue" stroke="midnightblue" points="530.5,-85.75 527,-75.75 523.5,-85.75 530.5,-85.75"/>
</g>
<!-- Node8 -->
<g id="node8" class="node">
<title>Node8</title>
<g id="a_node8"><a xlink:title=" ">
<polygon fill="white" stroke="#bfbfbf" points="550.5,-0.5 550.5,-19.5 619.5,-19.5 619.5,-0.5 550.5,-0.5"/>
<text text-anchor="middle" x="585" y="-7.5" font-family="Helvetica,sans-Serif" font-size="10.00">type_traits</text>
</a>
</g>
</g>
<!-- Node7&#45;&gt;Node8 -->
<g id="edge7" class="edge">
<title>Node7&#45;&gt;Node8</title>
<path fill="none" stroke="midnightblue" d="M536.32,-56.32C544.89,-48.34 557.81,-36.31 568.19,-26.65"/>
<polygon fill="midnightblue" stroke="midnightblue" points="570.58,-29.21 575.51,-19.83 565.81,-24.09 570.58,-29.21"/>
</g>
<!-- Node9 -->
<g id="node9" class="node">
<title>Node9</title>
<g id="a_node9"><a xlink:title=" ">
<polygon fill="white" stroke="#bfbfbf" points="403.5,-0.5 403.5,-19.5 532.5,-19.5 532.5,-0.5 403.5,-0.5"/>
<text text-anchor="middle" x="468" y="-7.5" font-family="Helvetica,sans-Serif" font-size="10.00">magic_enum_flags.hpp</text>
</a>
</g>
</g>
<!-- Node7&#45;&gt;Node9 -->
<g id="edge8" class="edge">
<title>Node7&#45;&gt;Node9</title>
<path fill="none" stroke="midnightblue" d="M517.52,-56.32C508.8,-48.34 495.66,-36.31 485.1,-26.65"/>
<polygon fill="midnightblue" stroke="midnightblue" points="487.39,-24 477.65,-19.83 482.67,-29.17 487.39,-24"/>
</g>
<!-- Node11&#45;&gt;Node10 -->
<g id="edge16" class="edge">
<title>Node11&#45;&gt;Node10</title>
<path fill="none" stroke="midnightblue" d="M294.39,-224.46C317.12,-218.07 342.62,-207.03 359,-188 369.97,-175.26 373.32,-156.06 374.17,-141.83"/>
<polygon fill="midnightblue" stroke="midnightblue" points="377.67,-141.78 374.41,-131.7 370.67,-141.62 377.67,-141.78"/>
</g>
<!-- Node12 -->
<g id="node12" class="node">
<title>Node12</title>
<g id="a_node12"><a xlink:href="_push_constant_info_8hpp.html" target="_top" xlink:title=" ">
<polygon fill="white" stroke="black" points="142.5,-168.5 142.5,-187.5 349.5,-187.5 349.5,-168.5 142.5,-168.5"/>
<text text-anchor="middle" x="246" y="-175.5" font-family="Helvetica,sans-Serif" font-size="10.00">Liger&#45;Engine/RHI/PushConstantInfo.hpp</text>
</a>
</g>
</g>
<!-- Node11&#45;&gt;Node12 -->
<g id="edge11" class="edge">
<title>Node11&#45;&gt;Node12</title>
<path fill="none" stroke="midnightblue" d="M245.17,-224.08C245.3,-217.01 245.48,-206.86 245.65,-197.99"/>
<polygon fill="midnightblue" stroke="midnightblue" points="249.15,-197.81 245.84,-187.75 242.15,-197.68 249.15,-197.81"/>
</g>
<!-- Node12&#45;&gt;Node13 -->
<g id="edge12" class="edge">
<title>Node12&#45;&gt;Node13</title>
<path fill="none" stroke="midnightblue" d="M244.68,-168.08C243.62,-160.93 242.09,-150.64 240.77,-141.69"/>
<polygon fill="midnightblue" stroke="midnightblue" points="244.22,-141.13 239.3,-131.75 237.3,-142.16 244.22,-141.13"/>
</g>
<!-- Node13&#45;&gt;Node5 -->
<g id="edge14" class="edge">
<title>Node13&#45;&gt;Node5</title>
<path fill="none" stroke="midnightblue" d="M314.68,-112.48C394.47,-103.57 523.02,-89.08 634,-76 821.2,-53.93 1045.28,-26.08 1130.63,-15.43"/>
<polygon fill="midnightblue" stroke="midnightblue" points="1131.32,-18.87 1140.81,-14.15 1130.45,-11.92 1131.32,-18.87"/>
</g>
<!-- Node13&#45;&gt;Node7 -->
<g id="edge13" class="edge">
<title>Node13&#45;&gt;Node7</title>
<path fill="none" stroke="midnightblue" d="M283.79,-112.44C334.74,-102.92 417.03,-87.55 471.57,-77.36"/>
<polygon fill="midnightblue" stroke="midnightblue" points="472.23,-80.79 481.42,-75.52 470.95,-73.91 472.23,-80.79"/>
</g>
<!-- Node13&#45;&gt;Node14 -->
<g id="edge15" class="edge">
<title>Node13&#45;&gt;Node14</title>
<path fill="none" stroke="midnightblue" d="M228.04,-112.32C218.87,-104.34 205.06,-92.31 193.97,-82.65"/>
<polygon fill="midnightblue" stroke="midnightblue" points="195.98,-79.76 186.14,-75.83 191.38,-85.04 195.98,-79.76"/>
</g>
<!-- Node15&#45;&gt;Node12 -->
<g id="edge20" class="edge">
<title>Node15&#45;&gt;Node12</title>
<path fill="none" stroke="midnightblue" d="M1510.39,-224.56C1507.22,-224.36 1504.09,-224.18 1501,-224 1010.86,-196.15 887.41,-210.61 397,-188 384.89,-187.44 372.24,-186.79 359.63,-186.1"/>
<polygon fill="midnightblue" stroke="midnightblue" points="359.72,-182.6 349.55,-185.54 359.34,-189.59 359.72,-182.6"/>
</g>
<!-- Node16 -->
<g id="node16" class="node">
<title>Node16</title>
<g id="a_node16"><a xlink:href="_format_8hpp.html" target="_top" xlink:title=" ">
<polygon fill="white" stroke="black" points="1384,-112.5 1384,-131.5 1540,-131.5 1540,-112.5 1384,-112.5"/>
<text text-anchor="middle" x="1462" y="-119.5" font-family="Helvetica,sans-Serif" font-size="10.00">Liger&#45;Engine/RHI/Format.hpp</text>
</a>
</g>
</g>
<!-- Node15&#45;&gt;Node16 -->
<g id="edge18" class="edge">
<title>Node15&#45;&gt;Node16</title>
<path fill="none" stroke="midnightblue" d="M1611.88,-224.18C1611.22,-210.38 1607.94,-183.65 1593,-168 1577.16,-151.41 1554.94,-140.93 1533.29,-134.32"/>
<polygon fill="midnightblue" stroke="midnightblue" points="1533.98,-130.88 1523.4,-131.54 1532.08,-137.62 1533.98,-130.88"/>
</g>
<!-- Node17 -->
<g id="node17" class="node">
<title>Node17</title>
<g id="a_node17"><a xlink:title=" ">
<polygon fill="white" stroke="#bfbfbf" points="1536.5,-168.5 1536.5,-187.5 1583.5,-187.5 1583.5,-168.5 1536.5,-168.5"/>
<text text-anchor="middle" x="1560" y="-175.5" font-family="Helvetica,sans-Serif" font-size="10.00">vector</text>
</a>
</g>
</g>
<!-- Node15&#45;&gt;Node17 -->
<g id="edge21" class="edge">
<title>Node15&#45;&gt;Node17</title>
<path fill="none" stroke="midnightblue" d="M1603.41,-224.08C1595.84,-216.22 1584.62,-204.57 1575.49,-195.08"/>
<polygon fill="midnightblue" stroke="midnightblue" points="1577.88,-192.53 1568.43,-187.75 1572.84,-197.38 1577.88,-192.53"/>
</g>
<!-- Node16&#45;&gt;Node5 -->
<g id="edge19" class="edge">
<title>Node16&#45;&gt;Node5</title>
<path fill="none" stroke="midnightblue" d="M1452.59,-112.38C1436.76,-98.35 1403.27,-70.7 1370,-56 1313.88,-31.2 1242.85,-19.53 1201.12,-14.46"/>
<polygon fill="midnightblue" stroke="midnightblue" points="1201.51,-10.98 1191.17,-13.31 1200.7,-17.94 1201.51,-10.98"/>
</g>
<!-- Node18&#45;&gt;Node3 -->
<g id="edge27" class="edge">
<title>Node18&#45;&gt;Node3</title>
<path fill="none" stroke="midnightblue" d="M813.38,-286.75C682.92,-282.61 458.04,-271.54 433,-244 418.19,-227.71 439.58,-206.96 458.35,-193.34"/>
<polygon fill="midnightblue" stroke="midnightblue" points="460.4,-196.18 466.66,-187.63 456.43,-190.42 460.4,-196.18"/>
</g>
<!-- Node19 -->
<g id="node19" class="node">
<title>Node19</title>
<g id="a_node19"><a xlink:href="_dependency_graph_8hpp.html" target="_top" xlink:title=" ">
<polygon fill="white" stroke="black" points="1220,-224.5 1220,-243.5 1492,-243.5 1492,-224.5 1220,-224.5"/>
<text text-anchor="middle" x="1356" y="-231.5" font-family="Helvetica,sans-Serif" font-size="10.00">Liger&#45;Engine/Core/Containers/DependencyGraph.hpp</text>
</a>
</g>
</g>
<!-- Node18&#45;&gt;Node19 -->
<g id="edge23" class="edge">
<title>Node18&#45;&gt;Node19</title>
<path fill="none" stroke="midnightblue" d="M977.3,-280.44C1058.27,-270.73 1190.11,-254.91 1274.93,-244.73"/>
<polygon fill="midnightblue" stroke="midnightblue" points="1275.52,-248.18 1285.03,-243.52 1274.68,-241.23 1275.52,-248.18"/>
</g>
<!-- Node21 -->
<g id="node21" class="node">
<title>Node21</title>
<g id="a_node21"><a xlink:href="_command_buffer_8hpp.html" target="_top" xlink:title=" ">
<polygon fill="white" stroke="black" points="658,-112.5 658,-131.5 858,-131.5 858,-112.5 658,-112.5"/>
<text text-anchor="middle" x="758" y="-119.5" font-family="Helvetica,sans-Serif" font-size="10.00">Liger&#45;Engine/RHI/CommandBuffer.hpp</text>
</a>
</g>
</g>
<!-- Node18&#45;&gt;Node21 -->
<g id="edge28" class="edge">
<title>Node18&#45;&gt;Node21</title>
<path fill="none" stroke="midnightblue" d="M844.02,-280.5C801.41,-273.24 750.23,-261.21 737,-244 713.6,-213.56 733.52,-166.06 747.38,-140.58"/>
<polygon fill="midnightblue" stroke="midnightblue" points="750.55,-142.1 752.47,-131.68 744.47,-138.62 750.55,-142.1"/>
</g>
<!-- Node24 -->
<g id="node24" class="node">
<title>Node24</title>
<g id="a_node24"><a xlink:href="_dependent_texture_info_8hpp.html" target="_top" xlink:title=" ">
<polygon fill="white" stroke="black" points="972,-224.5 972,-243.5 1202,-243.5 1202,-224.5 972,-224.5"/>
<text text-anchor="middle" x="1087" y="-231.5" font-family="Helvetica,sans-Serif" font-size="10.00">Liger&#45;Engine/RHI/DependentTextureInfo.hpp</text>
</a>
</g>
</g>
<!-- Node18&#45;&gt;Node24 -->
<g id="edge35" class="edge">
<title>Node18&#45;&gt;Node24</title>
<path fill="none" stroke="midnightblue" d="M934.68,-280.44C965.53,-271.24 1014.73,-256.56 1048.83,-246.39"/>
<polygon fill="midnightblue" stroke="midnightblue" points="1049.87,-249.73 1058.45,-243.52 1047.87,-243.02 1049.87,-249.73"/>
</g>
<!-- Node27 -->
<g id="node27" class="node">
<title>Node27</title>
<g id="a_node27"><a xlink:href="_resource_version_registry_8hpp.html" target="_top" xlink:title=" ">
<polygon fill="white" stroke="black" points="1731,-224.5 1731,-243.5 1973,-243.5 1973,-224.5 1731,-224.5"/>
<text text-anchor="middle" x="1852" y="-231.5" font-family="Helvetica,sans-Serif" font-size="10.00">Liger&#45;Engine/RHI/ResourceVersionRegistry.hpp</text>
</a>
</g>
</g>
<!-- Node18&#45;&gt;Node27 -->
<g id="edge44" class="edge">
<title>Node18&#45;&gt;Node27</title>
<path fill="none" stroke="midnightblue" d="M998.53,-284.35C1148.09,-276.72 1452.5,-260.81 1720.49,-244.15"/>
<polygon fill="midnightblue" stroke="midnightblue" points="1721.05,-247.62 1730.81,-243.51 1720.61,-240.64 1721.05,-247.62"/>
</g>
<!-- Node28 -->
<g id="node28" class="node">
<title>Node28</title>
<g id="a_node28"><a xlink:title=" ">
<polygon fill="white" stroke="#bfbfbf" points="1934,-168.5 1934,-187.5 1990,-187.5 1990,-168.5 1934,-168.5"/>
<text text-anchor="middle" x="1962" y="-175.5" font-family="Helvetica,sans-Serif" font-size="10.00">optional</text>
</a>
</g>
</g>
<!-- Node18&#45;&gt;Node28 -->
<g id="edge49" class="edge">
<title>Node18&#45;&gt;Node28</title>
<path fill="none" stroke="midnightblue" d="M998.53,-288.57C1253.24,-286.93 1948.21,-279.23 1982,-244 1994.45,-231.02 1985,-210.46 1975.3,-195.95"/>
<polygon fill="midnightblue" stroke="midnightblue" points="1978.12,-193.87 1969.42,-187.81 1972.44,-197.97 1978.12,-193.87"/>
</g>
<!-- Node30 -->
<g id="node30" class="node">
<title>Node30</title>
<g id="a_node30"><a xlink:title=" ">
<polygon fill="white" stroke="#bfbfbf" points="746,-224.5 746,-243.5 804,-243.5 804,-224.5 746,-224.5"/>
<text text-anchor="middle" x="775" y="-231.5" font-family="Helvetica,sans-Serif" font-size="10.00">memory</text>
</a>
</g>
</g>
<!-- Node18&#45;&gt;Node30 -->
<g id="edge48" class="edge">
<title>Node18&#45;&gt;Node30</title>
<path fill="none" stroke="midnightblue" d="M885.24,-280.44C863.68,-271.56 829.74,-257.56 805.21,-247.45"/>
<polygon fill="midnightblue" stroke="midnightblue" points="806.24,-244.09 795.66,-243.52 803.57,-250.56 806.24,-244.09"/>
</g>
<!-- Node31 -->
<g id="node31" class="node">
<title>Node31</title>
<g id="a_node31"><a xlink:title=" ">
<polygon fill="white" stroke="#bfbfbf" points="595.5,-168.5 595.5,-187.5 668.5,-187.5 668.5,-168.5 595.5,-168.5"/>
<text text-anchor="middle" x="632" y="-175.5" font-family="Helvetica,sans-Serif" font-size="10.00">string_view</text>
</a>
</g>
</g>
<!-- Node18&#45;&gt;Node31 -->
<g id="edge50" class="edge">
<title>Node18&#45;&gt;Node31</title>
<path fill="none" stroke="midnightblue" d="M913.01,-280.36C923.11,-266.81 939.09,-240.42 925,-224 893.83,-187.68 753.28,-180.38 678.75,-179.11"/>
<polygon fill="midnightblue" stroke="midnightblue" points="678.74,-175.61 668.69,-178.96 678.64,-182.61 678.74,-175.61"/>
</g>
<!-- Node32 -->
<g id="node32" class="node">
<title>Node32</title>
<g id="a_node32"><a xlink:title=" ">
<polygon fill="white" stroke="#bfbfbf" points="822.5,-224.5 822.5,-243.5 915.5,-243.5 915.5,-224.5 822.5,-224.5"/>
<text text-anchor="middle" x="869" y="-231.5" font-family="Helvetica,sans-Serif" font-size="10.00">unordered_map</text>
</a>
</g>
</g>
<!-- Node18&#45;&gt;Node32 -->
<g id="edge51" class="edge">
<title>Node18&#45;&gt;Node32</title>
<path fill="none" stroke="midnightblue" d="M899.89,-280.08C894.72,-272.53 887.15,-261.49 880.81,-252.23"/>
<polygon fill="midnightblue" stroke="midnightblue" points="883.54,-250.02 875,-243.75 877.76,-253.98 883.54,-250.02"/>
</g>
<!-- Node19&#45;&gt;Node5 -->
<g id="edge25" class="edge">
<title>Node19&#45;&gt;Node5</title>
<path fill="none" stroke="midnightblue" d="M1358.05,-224.32C1364.17,-196.12 1379.25,-106.09 1336,-56 1318.59,-35.84 1245.92,-22.25 1201.42,-15.65"/>
<polygon fill="midnightblue" stroke="midnightblue" points="1201.7,-12.15 1191.3,-14.19 1200.7,-19.08 1201.7,-12.15"/>
</g>
<!-- Node19&#45;&gt;Node17 -->
<g id="edge26" class="edge">
<title>Node19&#45;&gt;Node17</title>
<path fill="none" stroke="midnightblue" d="M1388.32,-224.44C1426.01,-214.47 1488.01,-198.06 1526.29,-187.92"/>
<polygon fill="midnightblue" stroke="midnightblue" points="1527.64,-191.19 1536.41,-185.24 1525.85,-184.42 1527.64,-191.19"/>
</g>
<!-- Node20 -->
<g id="node20" class="node">
<title>Node20</title>
<g id="a_node20"><a xlink:title=" ">
<polygon fill="white" stroke="#bfbfbf" points="1276,-168.5 1276,-187.5 1328,-187.5 1328,-168.5 1276,-168.5"/>
<text text-anchor="middle" x="1302" y="-175.5" font-family="Helvetica,sans-Serif" font-size="10.00">cassert</text>
</a>
</g>
</g>
<!-- Node19&#45;&gt;Node20 -->
<g id="edge24" class="edge">
<title>Node19&#45;&gt;Node20</title>
<path fill="none" stroke="midnightblue" d="M1347.08,-224.08C1339.22,-216.22 1327.57,-204.57 1318.08,-195.08"/>
<polygon fill="midnightblue" stroke="midnightblue" points="1320.3,-192.35 1310.75,-187.75 1315.35,-197.3 1320.3,-192.35"/>
</g>
<!-- Node21&#45;&gt;Node7 -->
<g id="edge29" class="edge">
<title>Node21&#45;&gt;Node7</title>
<path fill="none" stroke="midnightblue" d="M721.4,-112.44C681.27,-103.06 616.8,-87.99 573.22,-77.8"/>
<polygon fill="midnightblue" stroke="midnightblue" points="573.97,-74.38 563.43,-75.52 572.37,-81.2 573.97,-74.38"/>
</g>
<!-- Node21&#45;&gt;Node14 -->
<g id="edge34" class="edge">
<title>Node21&#45;&gt;Node14</title>
<path fill="none" stroke="midnightblue" d="M666.1,-112.47C532.32,-100.06 290.69,-77.64 206.17,-69.8"/>
<polygon fill="midnightblue" stroke="midnightblue" points="206.49,-66.31 196.21,-68.88 205.85,-73.28 206.49,-66.31"/>
</g>
<!-- Node22 -->
<g id="node22" class="node">
<title>Node22</title>
<g id="a_node22"><a xlink:href="_extent_8hpp.html" target="_top" xlink:title=" ">
<polygon fill="white" stroke="black" points="1173.5,-56.5 1173.5,-75.5 1326.5,-75.5 1326.5,-56.5 1173.5,-56.5"/>
<text text-anchor="middle" x="1250" y="-63.5" font-family="Helvetica,sans-Serif" font-size="10.00">Liger&#45;Engine/RHI/Extent.hpp</text>
</a>
</g>
</g>
<!-- Node21&#45;&gt;Node22 -->
<g id="edge30" class="edge">
<title>Node21&#45;&gt;Node22</title>
<path fill="none" stroke="midnightblue" d="M835.69,-112.47C924.69,-102.7 1070.16,-86.74 1162.92,-76.56"/>
<polygon fill="midnightblue" stroke="midnightblue" points="1163.57,-80.01 1173.13,-75.44 1162.8,-73.05 1163.57,-80.01"/>
</g>
<!-- Node23 -->
<g id="node23" class="node">
<title>Node23</title>
<g id="a_node23"><a xlink:href="_filter_8hpp.html" target="_top" xlink:title=" ">
<polygon fill="white" stroke="black" points="1009,-56.5 1009,-75.5 1155,-75.5 1155,-56.5 1009,-56.5"/>
<text text-anchor="middle" x="1082" y="-63.5" font-family="Helvetica,sans-Serif" font-size="10.00">Liger&#45;Engine/RHI/Filter.hpp</text>
</a>
</g>
</g>
<!-- Node21&#45;&gt;Node23 -->
<g id="edge32" class="edge">
<title>Node21&#45;&gt;Node23</title>
<path fill="none" stroke="midnightblue" d="M809.34,-112.44C866.81,-102.87 959.87,-87.36 1021,-77.17"/>
<polygon fill="midnightblue" stroke="midnightblue" points="1021.61,-80.61 1030.9,-75.52 1020.46,-73.71 1021.61,-80.61"/>
</g>
<!-- Node22&#45;&gt;Node5 -->
<g id="edge31" class="edge">
<title>Node22&#45;&gt;Node5</title>
<path fill="none" stroke="midnightblue" d="M1236.5,-56.32C1223.4,-47.9 1203.29,-34.97 1187.89,-25.07"/>
<polygon fill="midnightblue" stroke="midnightblue" points="1189.77,-22.12 1179.46,-19.65 1185.98,-28.01 1189.77,-22.12"/>
</g>
<!-- Node23&#45;&gt;Node5 -->
<g id="edge33" class="edge">
<title>Node23&#45;&gt;Node5</title>
<path fill="none" stroke="midnightblue" d="M1095.5,-56.32C1108.6,-47.9 1128.71,-34.97 1144.11,-25.07"/>
<polygon fill="midnightblue" stroke="midnightblue" points="1146.02,-28.01 1152.54,-19.65 1142.23,-22.12 1146.02,-28.01"/>
</g>
<!-- Node25 -->
<g id="node25" class="node">
<title>Node25</title>
<g id="a_node25"><a xlink:href="_texture_8hpp.html" target="_top" xlink:title=" ">
<polygon fill="white" stroke="black" points="955,-168.5 955,-187.5 1113,-187.5 1113,-168.5 955,-168.5"/>
<text text-anchor="middle" x="1034" y="-175.5" font-family="Helvetica,sans-Serif" font-size="10.00">Liger&#45;Engine/RHI/Texture.hpp</text>
</a>
</g>
</g>
<!-- Node24&#45;&gt;Node25 -->
<g id="edge36" class="edge">
<title>Node24&#45;&gt;Node25</title>
<path fill="none" stroke="midnightblue" d="M1078.25,-224.08C1070.53,-216.22 1059.1,-204.57 1049.78,-195.08"/>
<polygon fill="midnightblue" stroke="midnightblue" points="1052.09,-192.44 1042.59,-187.75 1047.1,-197.34 1052.09,-192.44"/>
</g>
<!-- Node25&#45;&gt;Node4 -->
<g id="edge37" class="edge">
<title>Node25&#45;&gt;Node4</title>
<path fill="none" stroke="midnightblue" d="M1025.25,-168.08C1017.53,-160.22 1006.1,-148.57 996.78,-139.08"/>
<polygon fill="midnightblue" stroke="midnightblue" points="999.09,-136.44 989.59,-131.75 994.1,-141.34 999.09,-136.44"/>
</g>
<!-- Node25&#45;&gt;Node6 -->
<g id="edge38" class="edge">
<title>Node25&#45;&gt;Node6</title>
<path fill="none" stroke="midnightblue" d="M954.78,-168.56C863.19,-158.81 712.77,-142.79 616.89,-132.57"/>
<polygon fill="midnightblue" stroke="midnightblue" points="617.23,-129.09 606.92,-131.51 616.49,-136.05 617.23,-129.09"/>
</g>
<!-- Node25&#45;&gt;Node10 -->
<g id="edge43" class="edge">
<title>Node25&#45;&gt;Node10</title>
<path fill="none" stroke="midnightblue" d="M954.89,-176.67C836.95,-175.01 608.13,-167.24 406.12,-131.82"/>
<polygon fill="midnightblue" stroke="midnightblue" points="406.68,-128.37 396.22,-130.06 405.45,-135.26 406.68,-128.37"/>
</g>
<!-- Node25&#45;&gt;Node16 -->
<g id="edge40" class="edge">
<title>Node25&#45;&gt;Node16</title>
<path fill="none" stroke="midnightblue" d="M1101.82,-168.44C1178.67,-158.75 1303.71,-142.97 1384.4,-132.79"/>
<polygon fill="midnightblue" stroke="midnightblue" points="1385.02,-136.24 1394.5,-131.52 1384.14,-129.3 1385.02,-136.24"/>
</g>
<!-- Node25&#45;&gt;Node22 -->
<g id="edge39" class="edge">
<title>Node25&#45;&gt;Node22</title>
<path fill="none" stroke="midnightblue" d="M1113.13,-174.18C1180.94,-169.89 1271.17,-159.12 1294,-132 1307.65,-115.78 1288.47,-95.28 1271.31,-81.68"/>
<polygon fill="midnightblue" stroke="midnightblue" points="1273.31,-78.8 1263.21,-75.61 1269.11,-84.41 1273.31,-78.8"/>
</g>
<!-- Node26 -->
<g id="node26" class="node">
<title>Node26</title>
<g id="a_node26"><a xlink:href="_sampler_info_8hpp.html" target="_top" xlink:title=" ">
<polygon fill="white" stroke="black" points="1103.5,-112.5 1103.5,-131.5 1284.5,-131.5 1284.5,-112.5 1103.5,-112.5"/>
<text text-anchor="middle" x="1194" y="-119.5" font-family="Helvetica,sans-Serif" font-size="10.00">Liger&#45;Engine/RHI/SamplerInfo.hpp</text>
</a>
</g>
</g>
<!-- Node25&#45;&gt;Node26 -->
<g id="edge41" class="edge">
<title>Node25&#45;&gt;Node26</title>
<path fill="none" stroke="midnightblue" d="M1059.35,-168.44C1086.27,-159.36 1129,-144.94 1159.09,-134.78"/>
<polygon fill="midnightblue" stroke="midnightblue" points="1160.41,-138.03 1168.77,-131.52 1158.17,-131.4 1160.41,-138.03"/>
</g>
<!-- Node26&#45;&gt;Node23 -->
<g id="edge42" class="edge">
<title>Node26&#45;&gt;Node23</title>
<path fill="none" stroke="midnightblue" d="M1176.01,-112.32C1157.96,-103.62 1129.95,-90.12 1109.2,-80.11"/>
<polygon fill="midnightblue" stroke="midnightblue" points="1110.48,-76.84 1099.95,-75.65 1107.44,-83.15 1110.48,-76.84"/>
</g>
<!-- Node27&#45;&gt;Node17 -->
<g id="edge47" class="edge">
<title>Node27&#45;&gt;Node17</title>
<path fill="none" stroke="midnightblue" d="M1805.73,-224.44C1746.76,-213.54 1646.19,-194.94 1593.88,-185.26"/>
<polygon fill="midnightblue" stroke="midnightblue" points="1594.25,-181.77 1583.78,-183.4 1592.98,-188.66 1594.25,-181.77"/>
</g>
<!-- Node27&#45;&gt;Node28 -->
<g id="edge45" class="edge">
<title>Node27&#45;&gt;Node28</title>
<path fill="none" stroke="midnightblue" d="M1869.67,-224.32C1887.39,-215.62 1914.9,-202.12 1935.29,-192.11"/>
<polygon fill="midnightblue" stroke="midnightblue" points="1936.94,-195.2 1944.37,-187.65 1933.85,-188.92 1936.94,-195.2"/>
</g>
<!-- Node29 -->
<g id="node29" class="node">
<title>Node29</title>
<g id="a_node29"><a xlink:title=" ">
<polygon fill="white" stroke="#bfbfbf" points="1826.5,-168.5 1826.5,-187.5 1877.5,-187.5 1877.5,-168.5 1826.5,-168.5"/>
<text text-anchor="middle" x="1852" y="-175.5" font-family="Helvetica,sans-Serif" font-size="10.00">variant</text>
</a>
</g>
</g>
<!-- Node27&#45;&gt;Node29 -->
<g id="edge46" class="edge">
<title>Node27&#45;&gt;Node29</title>
<path fill="none" stroke="midnightblue" d="M1852,-224.08C1852,-217.01 1852,-206.86 1852,-197.99"/>
<polygon fill="midnightblue" stroke="midnightblue" points="1855.5,-197.75 1852,-187.75 1848.5,-197.75 1855.5,-197.75"/>
</g>
<!-- Node33&#45;&gt;Node14 -->
<g id="edge57" class="edge">
<title>Node33&#45;&gt;Node14</title>
<path fill="none" stroke="midnightblue" d="M431.79,-284.84C324.33,-278.8 153.46,-265.87 134,-244 95,-200.17 112.49,-166.58 134,-112 138.51,-100.55 147.47,-90.29 155.95,-82.47"/>
<polygon fill="midnightblue" stroke="midnightblue" points="158.47,-84.93 163.79,-75.76 153.91,-79.61 158.47,-84.93"/>
</g>
<!-- Node33&#45;&gt;Node25 -->
<g id="edge56" class="edge">
<title>Node33&#45;&gt;Node25</title>
<path fill="none" stroke="midnightblue" d="M546.13,-280.4C595.88,-264.7 700,-232.28 737,-224 807.48,-208.23 888.62,-196.36 948.26,-188.77"/>
<polygon fill="midnightblue" stroke="midnightblue" points="948.91,-192.22 958.39,-187.5 948.03,-185.28 948.91,-192.22"/>
</g>
<!-- Node34 -->
<g id="node34" class="node">
<title>Node34</title>
<g id="a_node34"><a xlink:href="_window_8hpp.html" target="_top" xlink:title=" ">
<polygon fill="white" stroke="black" points="442,-224.5 442,-243.5 652,-243.5 652,-224.5 442,-224.5"/>
<text text-anchor="middle" x="547" y="-231.5" font-family="Helvetica,sans-Serif" font-size="10.00">Liger&#45;Engine/Core/Platform/Window.hpp</text>
</a>
</g>
</g>
<!-- Node33&#45;&gt;Node34 -->
<g id="edge54" class="edge">
<title>Node33&#45;&gt;Node34</title>
<path fill="none" stroke="midnightblue" d="M523.62,-280.08C527.46,-272.69 533.02,-261.95 537.76,-252.81"/>
<polygon fill="midnightblue" stroke="midnightblue" points="540.97,-254.24 542.46,-243.75 534.75,-251.02 540.97,-254.24"/>
</g>
<!-- Node34&#45;&gt;Node31 -->
<g id="edge55" class="edge">
<title>Node34&#45;&gt;Node31</title>
<path fill="none" stroke="midnightblue" d="M560.66,-224.32C573.92,-215.9 594.27,-202.97 609.85,-193.07"/>
<polygon fill="midnightblue" stroke="midnightblue" points="611.81,-195.97 618.38,-187.65 608.06,-190.06 611.81,-195.97"/>
</g>
</g>
</svg>
        <g id="navigator" transform="translate(0 0)" fill="#404254">
                <rect fill="#f2f5e9" fill-opacity="0.5" stroke="#606060" stroke-width=".5" x="0" y="0" width="60" height="60"/>
                <use id="zoomplus" xlink:href="#zoomPlus" x="17" y="9" onmousedown="handleZoom(evt,'in')"/>
                <use id="zoomminus" xlink:href="#zoomMin" x="42" y="9" onmousedown="handleZoom(evt,'out')"/>
                <use id="reset" xlink:href="#resetDef" x="30" y="36" onmousedown="handleReset()"/>
                <g id="arrowUp" xlink:href="#dirArrow" transform="translate(30 24)" onmousedown="handlePan(0,-1)">
                  <use xlink:href="#rim" fill="#404040">
                        <set attributeName="fill" to="#808080" begin="arrowUp.mouseover" end="arrowUp.mouseout"/>
                  </use>
                  <path fill="none" stroke="white" stroke-width="1.5" d="M0,-3.0v7 M-2.5,-0.5L0,-3.0L2.5,-0.5"/>
                </g>
                <g id="arrowRight" xlink:href="#dirArrow" transform="rotate(90) translate(36 -43)" onmousedown="handlePan(1,0)">
                  <use xlink:href="#rim" fill="#404040">
                        <set attributeName="fill" to="#808080" begin="arrowRight.mouseover" end="arrowRight.mouseout"/>
                  </use>
                  <path fill="none" stroke="white" stroke-width="1.5" d="M0,-3.0v7 M-2.5,-0.5L0,-3.0L2.5,-0.5"/>
                </g>
                <g id="arrowDown" xlink:href="#dirArrow" transform="rotate(180) translate(-30 -48)" onmousedown="handlePan(0,1)">
                  <use xlink:href="#rim" fill="#404040">
                        <set attributeName="fill" to="#808080" begin="arrowDown.mouseover" end="arrowDown.mouseout"/>
                  </use>
                  <path fill="none" stroke="white" stroke-width="1.5" d="M0,-3.0v7 M-2.5,-0.5L0,-3.0L2.5,-0.5"/>
                </g>
                <g id="arrowLeft" xlink:href="#dirArrow" transform="rotate(270) translate(-36 17)" onmousedown="handlePan(-1,0)">
                  <use xlink:href="#rim" fill="#404040">
                        <set attributeName="fill" to="#808080" begin="arrowLeft.mouseover" end="arrowLeft.mouseout"/>
                  </use>
                  <path fill="none" stroke="white" stroke-width="1.5" d="M0,-3.0v7 M-2.5,-0.5L0,-3.0L2.5,-0.5"/>
                </g>
        </g>
        <svg viewBox="0 0 15 15" width="100%" height="30px" preserveAspectRatio="xMaxYMin meet">
         <g id="arrow_out" transform="scale(0.3 0.3)">
          <a xlink:href="_instance_8hpp__incl_org.svg" target="_base">
           <rect id="button" ry="5" rx="5" y="6" x="6" height="38" width="38"
                fill="#f2f5e9" fill-opacity="0.5" stroke="#606060" stroke-width="1.0"/>
           <path id="arrow"
             d="M 11.500037,31.436501 C 11.940474,20.09759 22.043105,11.32322 32.158766,21.979434 L 37.068811,17.246167 C 37.068811,17.246167 37.088388,32 37.088388,32 L 22.160133,31.978069 C 22.160133,31.978069 26.997745,27.140456 26.997745,27.140456 C 18.528582,18.264221 13.291696,25.230495 11.500037,31.436501 z"
             style="fill:#404040;"/>
          </a>
         </g>
        </svg>
</svg>
