<?xml version="1.0" encoding="UTF-8" standalone="no"?>
<!DOCTYPE svg PUBLIC "-//W3C//DTD SVG 1.1//EN"
 "http://www.w3.org/Graphics/SVG/1.1/DTD/svg11.dtd">
<!-- Generated by graphviz version 2.43.0 (0)
 -->
<!-- Title: JobType.hpp Pages: 1 -->
<svg width="1251pt" height="420pt"
 viewBox="0.00 0.00 1250.50 420.00" xmlns="http://www.w3.org/2000/svg" xmlns:xlink="http://www.w3.org/1999/xlink">
<g id="graph0" class="graph" transform="scale(1 1) rotate(0) translate(4 416)">
<title>JobType.hpp</title>
<polygon fill="white" stroke="transparent" points="-4,4 -4,-416 1246.5,-416 1246.5,4 -4,4"/>
<!-- Node1 -->
<g id="node1" class="node">
<title>Node1</title>
<g id="a_node1"><a xlink:title=" ">
<polygon fill="#bfbfbf" stroke="black" points="341,-392.5 341,-411.5 416,-411.5 416,-392.5 341,-392.5"/>
<text text-anchor="middle" x="378.5" y="-399.5" font-family="Helvetica,sans-Serif" font-size="10.00">JobType.hpp</text>
</a>
</g>
</g>
<!-- Node2 -->
<g id="node2" class="node">
<title>Node2</title>
<g id="a_node2"><a xlink:href="_command_buffer_8hpp.html" target="_top" xlink:title=" ">
<polygon fill="white" stroke="black" points="320.5,-336.5 320.5,-355.5 436.5,-355.5 436.5,-336.5 320.5,-336.5"/>
<text text-anchor="middle" x="378.5" y="-343.5" font-family="Helvetica,sans-Serif" font-size="10.00">CommandBuffer.hpp</text>
</a>
</g>
</g>
<!-- Node1&#45;&gt;Node2 -->
<g id="edge1" class="edge">
<title>Node1&#45;&gt;Node2</title>
<path fill="none" stroke="midnightblue" d="M378.5,-381.8C378.5,-372.91 378.5,-362.78 378.5,-355.75"/>
<polygon fill="midnightblue" stroke="midnightblue" points="375,-382.08 378.5,-392.08 382,-382.08 375,-382.08"/>
</g>
<!-- Node3 -->
<g id="node3" class="node">
<title>Node3</title>
<g id="a_node3"><a xlink:href="_render_graph_8hpp.html" target="_top" xlink:title=" ">
<polygon fill="white" stroke="black" points="328,-280.5 328,-299.5 429,-299.5 429,-280.5 328,-280.5"/>
<text text-anchor="middle" x="378.5" y="-287.5" font-family="Helvetica,sans-Serif" font-size="10.00">RenderGraph.hpp</text>
</a>
</g>
</g>
<!-- Node2&#45;&gt;Node3 -->
<g id="edge2" class="edge">
<title>Node2&#45;&gt;Node3</title>
<path fill="none" stroke="midnightblue" d="M378.5,-325.8C378.5,-316.91 378.5,-306.78 378.5,-299.75"/>
<polygon fill="midnightblue" stroke="midnightblue" points="375,-326.08 378.5,-336.08 382,-326.08 375,-326.08"/>
</g>
<!-- Node4 -->
<g id="node4" class="node">
<title>Node4</title>
<g id="a_node4"><a xlink:href="_clustered_light_data_8hpp.html" target="_top" xlink:title=" ">
<polygon fill="white" stroke="black" points="102,-224.5 102,-243.5 233,-243.5 233,-224.5 102,-224.5"/>
<text text-anchor="middle" x="167.5" y="-231.5" font-family="Helvetica,sans-Serif" font-size="10.00">ClusteredLightData.hpp</text>
</a>
</g>
</g>
<!-- Node3&#45;&gt;Node4 -->
<g id="edge3" class="edge">
<title>Node3&#45;&gt;Node4</title>
<path fill="none" stroke="midnightblue" d="M335.36,-277.96C295.51,-267.76 237.14,-252.82 200.78,-243.52"/>
<polygon fill="midnightblue" stroke="midnightblue" points="334.51,-281.35 345.07,-280.44 336.25,-274.57 334.51,-281.35"/>
</g>
<!-- Node6 -->
<g id="node6" class="node">
<title>Node6</title>
<g id="a_node6"><a xlink:href="_output_texture_8hpp.html" target="_top" xlink:title=" ">
<polygon fill="white" stroke="black" points="284,-224.5 284,-243.5 391,-243.5 391,-224.5 284,-224.5"/>
<text text-anchor="middle" x="337.5" y="-231.5" font-family="Helvetica,sans-Serif" font-size="10.00">OutputTexture.hpp</text>
</a>
</g>
</g>
<!-- Node3&#45;&gt;Node6 -->
<g id="edge5" class="edge">
<title>Node3&#45;&gt;Node6</title>
<path fill="none" stroke="midnightblue" d="M365.48,-271.86C358.38,-262.5 349.9,-251.33 344.14,-243.75"/>
<polygon fill="midnightblue" stroke="midnightblue" points="362.89,-274.24 371.73,-280.08 368.47,-270 362.89,-274.24"/>
</g>
<!-- Node7 -->
<g id="node7" class="node">
<title>Node7</title>
<g id="a_node7"><a xlink:href="_feature_8hpp.html" target="_top" xlink:title=" ">
<polygon fill="white" stroke="black" points="550.5,-112.5 550.5,-131.5 624.5,-131.5 624.5,-112.5 550.5,-112.5"/>
<text text-anchor="middle" x="587.5" y="-119.5" font-family="Helvetica,sans-Serif" font-size="10.00">Feature.hpp</text>
</a>
</g>
</g>
<!-- Node3&#45;&gt;Node7 -->
<g id="edge7" class="edge">
<title>Node3&#45;&gt;Node7</title>
<path fill="none" stroke="midnightblue" d="M397.37,-274.01C440.07,-240.1 543.03,-158.32 576.67,-131.61"/>
<polygon fill="midnightblue" stroke="midnightblue" points="395.1,-271.35 389.44,-280.31 399.45,-276.83 395.1,-271.35"/>
</g>
<!-- Node15 -->
<g id="node15" class="node">
<title>Node15</title>
<g id="a_node15"><a xlink:href="_device_8hpp.html" target="_top" xlink:title=" ">
<polygon fill="white" stroke="black" points="552,-224.5 552,-243.5 623,-243.5 623,-224.5 552,-224.5"/>
<text text-anchor="middle" x="587.5" y="-231.5" font-family="Helvetica,sans-Serif" font-size="10.00">Device.hpp</text>
</a>
</g>
</g>
<!-- Node3&#45;&gt;Node15 -->
<g id="edge16" class="edge">
<title>Node3&#45;&gt;Node15</title>
<path fill="none" stroke="midnightblue" d="M421.48,-277.89C460.95,-267.7 518.6,-252.8 554.54,-243.52"/>
<polygon fill="midnightblue" stroke="midnightblue" points="420.42,-274.55 411.62,-280.44 422.17,-281.33 420.42,-274.55"/>
</g>
<!-- Node5 -->
<g id="node5" class="node">
<title>Node5</title>
<g id="a_node5"><a xlink:href="_clustered_light_feature_8hpp.html" target="_top" xlink:title=" ">
<polygon fill="white" stroke="black" points="0,-56.5 0,-75.5 145,-75.5 145,-56.5 0,-56.5"/>
<text text-anchor="middle" x="72.5" y="-63.5" font-family="Helvetica,sans-Serif" font-size="10.00">ClusteredLightFeature.hpp</text>
</a>
</g>
</g>
<!-- Node4&#45;&gt;Node5 -->
<g id="edge4" class="edge">
<title>Node4&#45;&gt;Node5</title>
<path fill="none" stroke="midnightblue" d="M157.38,-215.31C137.12,-179.92 92.28,-101.56 77.4,-75.57"/>
<polygon fill="midnightblue" stroke="midnightblue" points="154.39,-217.13 162.39,-224.08 160.46,-213.66 154.39,-217.13"/>
</g>
<!-- Node6&#45;&gt;Node5 -->
<g id="edge6" class="edge">
<title>Node6&#45;&gt;Node5</title>
<path fill="none" stroke="midnightblue" d="M314.92,-218.85C261.62,-185.46 129.25,-102.55 86.24,-75.61"/>
<polygon fill="midnightblue" stroke="midnightblue" points="313.29,-221.97 323.63,-224.31 317.01,-216.03 313.29,-221.97"/>
</g>
<!-- Node7&#45;&gt;Node5 -->
<g id="edge10" class="edge">
<title>Node7&#45;&gt;Node5</title>
<path fill="none" stroke="midnightblue" d="M540.02,-115.16C530.89,-114.08 521.4,-112.98 512.5,-112 353.11,-94.45 312.97,-92.85 153.5,-76 150.83,-75.72 148.1,-75.43 145.35,-75.13"/>
<polygon fill="midnightblue" stroke="midnightblue" points="539.79,-118.66 550.13,-116.37 540.62,-111.71 539.79,-118.66"/>
</g>
<!-- Node8 -->
<g id="node8" class="node">
<title>Node8</title>
<g id="a_node8"><a xlink:href="_bloom_feature_8hpp.html" target="_top" xlink:title=" ">
<polygon fill="white" stroke="black" points="262.5,-56.5 262.5,-75.5 368.5,-75.5 368.5,-56.5 262.5,-56.5"/>
<text text-anchor="middle" x="315.5" y="-63.5" font-family="Helvetica,sans-Serif" font-size="10.00">BloomFeature.hpp</text>
</a>
</g>
</g>
<!-- Node7&#45;&gt;Node8 -->
<g id="edge8" class="edge">
<title>Node7&#45;&gt;Node8</title>
<path fill="none" stroke="midnightblue" d="M540.43,-111.66C489.24,-101.49 408.13,-85.39 358.57,-75.55"/>
<polygon fill="midnightblue" stroke="midnightblue" points="539.76,-115.09 550.25,-113.6 541.12,-108.22 539.76,-115.09"/>
</g>
<!-- Node9 -->
<g id="node9" class="node">
<title>Node9</title>
<g id="a_node9"><a xlink:href="_camera_data_collector_8hpp.html" target="_top" xlink:title=" ">
<polygon fill="white" stroke="black" points="1100.5,-56.5 1100.5,-75.5 1242.5,-75.5 1242.5,-56.5 1100.5,-56.5"/>
<text text-anchor="middle" x="1171.5" y="-63.5" font-family="Helvetica,sans-Serif" font-size="10.00">CameraDataCollector.hpp</text>
</a>
</g>
</g>
<!-- Node7&#45;&gt;Node9 -->
<g id="edge9" class="edge">
<title>Node7&#45;&gt;Node9</title>
<path fill="none" stroke="midnightblue" d="M634.59,-117.16C723.8,-109.8 923.56,-92.94 1091.5,-76 1094.42,-75.71 1097.4,-75.4 1100.41,-75.08"/>
<polygon fill="midnightblue" stroke="midnightblue" points="634.2,-113.68 624.52,-117.99 634.77,-120.66 634.2,-113.68"/>
</g>
<!-- Node10 -->
<g id="node10" class="node">
<title>Node10</title>
<g id="a_node10"><a xlink:href="_forward_render_feature_8hpp.html" target="_top" xlink:title=" ">
<polygon fill="white" stroke="black" points="386.5,-56.5 386.5,-75.5 534.5,-75.5 534.5,-56.5 386.5,-56.5"/>
<text text-anchor="middle" x="460.5" y="-63.5" font-family="Helvetica,sans-Serif" font-size="10.00">ForwardRenderFeature.hpp</text>
</a>
</g>
</g>
<!-- Node7&#45;&gt;Node10 -->
<g id="edge11" class="edge">
<title>Node7&#45;&gt;Node10</title>
<path fill="none" stroke="midnightblue" d="M558.11,-108.5C534.3,-98.38 501.39,-84.39 480.53,-75.52"/>
<polygon fill="midnightblue" stroke="midnightblue" points="556.8,-111.75 567.38,-112.44 559.54,-105.31 556.8,-111.75"/>
</g>
<!-- Node11 -->
<g id="node11" class="node">
<title>Node11</title>
<g id="a_node11"><a xlink:href="_particle_system_feature_8hpp.html" target="_top" xlink:title=" ">
<polygon fill="white" stroke="black" points="836,-56.5 836,-75.5 983,-75.5 983,-56.5 836,-56.5"/>
<text text-anchor="middle" x="909.5" y="-63.5" font-family="Helvetica,sans-Serif" font-size="10.00">ParticleSystemFeature.hpp</text>
</a>
</g>
</g>
<!-- Node7&#45;&gt;Node11 -->
<g id="edge12" class="edge">
<title>Node7&#45;&gt;Node11</title>
<path fill="none" stroke="midnightblue" d="M634.68,-113.09C694.46,-103.06 797.08,-85.85 858.58,-75.54"/>
<polygon fill="midnightblue" stroke="midnightblue" points="634.04,-109.65 624.75,-114.75 635.19,-116.55 634.04,-109.65"/>
</g>
<!-- Node12 -->
<g id="node12" class="node">
<title>Node12</title>
<g id="a_node12"><a xlink:href="_static_mesh_feature_8hpp.html" target="_top" xlink:title=" ">
<polygon fill="white" stroke="black" points="552.5,-56.5 552.5,-75.5 680.5,-75.5 680.5,-56.5 552.5,-56.5"/>
<text text-anchor="middle" x="616.5" y="-63.5" font-family="Helvetica,sans-Serif" font-size="10.00">StaticMeshFeature.hpp</text>
</a>
</g>
</g>
<!-- Node7&#45;&gt;Node12 -->
<g id="edge13" class="edge">
<title>Node7&#45;&gt;Node12</title>
<path fill="none" stroke="midnightblue" d="M597.18,-102.98C602.1,-93.82 607.86,-83.09 611.8,-75.75"/>
<polygon fill="midnightblue" stroke="midnightblue" points="593.94,-101.62 592.29,-112.08 600.1,-104.93 593.94,-101.62"/>
</g>
<!-- Node13 -->
<g id="node13" class="node">
<title>Node13</title>
<g id="a_node13"><a xlink:href="_tonemap_feature_8hpp.html" target="_top" xlink:title=" ">
<polygon fill="white" stroke="black" points="699,-56.5 699,-75.5 818,-75.5 818,-56.5 699,-56.5"/>
<text text-anchor="middle" x="758.5" y="-63.5" font-family="Helvetica,sans-Serif" font-size="10.00">TonemapFeature.hpp</text>
</a>
</g>
</g>
<!-- Node7&#45;&gt;Node13 -->
<g id="edge14" class="edge">
<title>Node7&#45;&gt;Node13</title>
<path fill="none" stroke="midnightblue" d="M624.54,-109.3C656.76,-99.13 702.69,-84.62 731.53,-75.52"/>
<polygon fill="midnightblue" stroke="midnightblue" points="623.08,-106.09 614.6,-112.44 625.19,-112.77 623.08,-106.09"/>
</g>
<!-- Node14 -->
<g id="node14" class="node">
<title>Node14</title>
<g id="a_node14"><a xlink:href="_renderer_8hpp.html" target="_top" xlink:title=" ">
<polygon fill="white" stroke="black" points="1001,-56.5 1001,-75.5 1082,-75.5 1082,-56.5 1001,-56.5"/>
<text text-anchor="middle" x="1041.5" y="-63.5" font-family="Helvetica,sans-Serif" font-size="10.00">Renderer.hpp</text>
</a>
</g>
</g>
<!-- Node7&#45;&gt;Node14 -->
<g id="edge15" class="edge">
<title>Node7&#45;&gt;Node14</title>
<path fill="none" stroke="midnightblue" d="M634.91,-116.83C710.68,-109.93 863.65,-94.97 992.5,-76 995.24,-75.6 998.06,-75.15 1000.89,-74.69"/>
<polygon fill="midnightblue" stroke="midnightblue" points="634.39,-113.37 624.75,-117.75 635.02,-120.34 634.39,-113.37"/>
</g>
<!-- Node15&#45;&gt;Node7 -->
<g id="edge17" class="edge">
<title>Node15&#45;&gt;Node7</title>
<path fill="none" stroke="midnightblue" d="M568.25,-217.75C559.87,-209.87 550.95,-199.5 546.5,-188 538.02,-166.1 560.58,-143.59 575.51,-131.66"/>
<polygon fill="midnightblue" stroke="midnightblue" points="566.13,-220.54 575.96,-224.49 570.74,-215.27 566.13,-220.54"/>
</g>
<!-- Node16 -->
<g id="node16" class="node">
<title>Node16</title>
<g id="a_node16"><a xlink:href="_layer_8hpp.html" target="_top" xlink:title=" ">
<polygon fill="white" stroke="black" points="555.5,-168.5 555.5,-187.5 619.5,-187.5 619.5,-168.5 555.5,-168.5"/>
<text text-anchor="middle" x="587.5" y="-175.5" font-family="Helvetica,sans-Serif" font-size="10.00">Layer.hpp</text>
</a>
</g>
</g>
<!-- Node15&#45;&gt;Node16 -->
<g id="edge18" class="edge">
<title>Node15&#45;&gt;Node16</title>
<path fill="none" stroke="midnightblue" d="M587.5,-213.8C587.5,-204.91 587.5,-194.78 587.5,-187.75"/>
<polygon fill="midnightblue" stroke="midnightblue" points="584,-214.08 587.5,-224.08 591,-214.08 584,-214.08"/>
</g>
<!-- Node17 -->
<g id="node17" class="node">
<title>Node17</title>
<g id="a_node17"><a xlink:href="_view_8hpp.html" target="_top" xlink:title=" ">
<polygon fill="white" stroke="black" points="676,-168.5 676,-187.5 737,-187.5 737,-168.5 676,-168.5"/>
<text text-anchor="middle" x="706.5" y="-175.5" font-family="Helvetica,sans-Serif" font-size="10.00">View.hpp</text>
</a>
</g>
</g>
<!-- Node15&#45;&gt;Node17 -->
<g id="edge20" class="edge">
<title>Node15&#45;&gt;Node17</title>
<path fill="none" stroke="midnightblue" d="M615.64,-220.23C637.9,-210.13 668.36,-196.31 687.73,-187.52"/>
<polygon fill="midnightblue" stroke="midnightblue" points="614.02,-217.12 606.36,-224.44 616.91,-223.5 614.02,-217.12"/>
</g>
<!-- Node18 -->
<g id="node18" class="node">
<title>Node18</title>
<g id="a_node18"><a xlink:href="_instance_8hpp.html" target="_top" xlink:title=" ">
<polygon fill="white" stroke="black" points="755,-168.5 755,-187.5 834,-187.5 834,-168.5 755,-168.5"/>
<text text-anchor="middle" x="794.5" y="-175.5" font-family="Helvetica,sans-Serif" font-size="10.00">Instance.hpp</text>
</a>
</g>
</g>
<!-- Node15&#45;&gt;Node18 -->
<g id="edge21" class="edge">
<title>Node15&#45;&gt;Node18</title>
<path fill="none" stroke="midnightblue" d="M630.32,-221.83C669.41,-211.63 726.33,-196.78 761.85,-187.52"/>
<polygon fill="midnightblue" stroke="midnightblue" points="629.09,-218.53 620.3,-224.44 630.86,-225.31 629.09,-218.53"/>
</g>
<!-- Node19 -->
<g id="node19" class="node">
<title>Node19</title>
<g id="a_node19"><a xlink:href="_mapped_buffer_8hpp.html" target="_top" xlink:title=" ">
<polygon fill="white" stroke="black" points="857,-112.5 857,-131.5 962,-131.5 962,-112.5 857,-112.5"/>
<text text-anchor="middle" x="909.5" y="-119.5" font-family="Helvetica,sans-Serif" font-size="10.00">MappedBuffer.hpp</text>
</a>
</g>
</g>
<!-- Node15&#45;&gt;Node19 -->
<g id="edge22" class="edge">
<title>Node15&#45;&gt;Node19</title>
<path fill="none" stroke="midnightblue" d="M602.72,-216.63C617.71,-201.55 642.01,-179.79 667.5,-168 728.59,-139.75 806.11,-129.23 856.72,-125.31"/>
<polygon fill="midnightblue" stroke="midnightblue" points="599.82,-214.59 595.4,-224.21 604.86,-219.45 599.82,-214.59"/>
</g>
<!-- Node20 -->
<g id="node20" class="node">
<title>Node20</title>
<g id="a_node20"><a xlink:href="_shader_8hpp.html" target="_top" xlink:title=" ">
<polygon fill="white" stroke="black" points="432,-112.5 432,-131.5 503,-131.5 503,-112.5 432,-112.5"/>
<text text-anchor="middle" x="467.5" y="-119.5" font-family="Helvetica,sans-Serif" font-size="10.00">Shader.hpp</text>
</a>
</g>
</g>
<!-- Node15&#45;&gt;Node20 -->
<g id="edge25" class="edge">
<title>Node15&#45;&gt;Node20</title>
<path fill="none" stroke="midnightblue" d="M570.6,-217.51C544.96,-194.01 497.07,-150.11 476.87,-131.59"/>
<polygon fill="midnightblue" stroke="midnightblue" points="568.35,-220.19 578.08,-224.37 573.08,-215.03 568.35,-220.19"/>
</g>
<!-- Node16&#45;&gt;Node7 -->
<g id="edge19" class="edge">
<title>Node16&#45;&gt;Node7</title>
<path fill="none" stroke="midnightblue" d="M587.5,-157.8C587.5,-148.91 587.5,-138.78 587.5,-131.75"/>
<polygon fill="midnightblue" stroke="midnightblue" points="584,-158.08 587.5,-168.08 591,-158.08 584,-158.08"/>
</g>
<!-- Node19&#45;&gt;Node9 -->
<g id="edge23" class="edge">
<title>Node19&#45;&gt;Node9</title>
<path fill="none" stroke="midnightblue" d="M960.88,-110.41C1010.4,-100.2 1084.36,-84.96 1130.18,-75.52"/>
<polygon fill="midnightblue" stroke="midnightblue" points="960.1,-107 951.01,-112.44 961.52,-113.85 960.1,-107"/>
</g>
<!-- Node19&#45;&gt;Node11 -->
<g id="edge24" class="edge">
<title>Node19&#45;&gt;Node11</title>
<path fill="none" stroke="midnightblue" d="M909.5,-101.8C909.5,-92.91 909.5,-82.78 909.5,-75.75"/>
<polygon fill="midnightblue" stroke="midnightblue" points="906,-102.08 909.5,-112.08 913,-102.08 906,-102.08"/>
</g>
<!-- Node20&#45;&gt;Node5 -->
<g id="edge27" class="edge">
<title>Node20&#45;&gt;Node5</title>
<path fill="none" stroke="midnightblue" d="M421.79,-114.75C350.97,-105.07 214.6,-86.43 134.81,-75.52"/>
<polygon fill="midnightblue" stroke="midnightblue" points="421.37,-118.23 431.75,-116.11 422.32,-111.29 421.37,-118.23"/>
</g>
<!-- Node20&#45;&gt;Node8 -->
<g id="edge26" class="edge">
<title>Node20&#45;&gt;Node8</title>
<path fill="none" stroke="midnightblue" d="M433.83,-109.04C405.23,-98.88 364.89,-84.55 339.47,-75.52"/>
<polygon fill="midnightblue" stroke="midnightblue" points="432.82,-112.39 443.42,-112.44 435.16,-105.8 432.82,-112.39"/>
</g>
<!-- Node20&#45;&gt;Node10 -->
<g id="edge28" class="edge">
<title>Node20&#45;&gt;Node10</title>
<path fill="none" stroke="midnightblue" d="M465.05,-102.1C463.89,-93.14 462.56,-82.86 461.63,-75.75"/>
<polygon fill="midnightblue" stroke="midnightblue" points="461.59,-102.62 466.34,-112.08 468.53,-101.72 461.59,-102.62"/>
</g>
<!-- Node20&#45;&gt;Node11 -->
<g id="edge29" class="edge">
<title>Node20&#45;&gt;Node11</title>
<path fill="none" stroke="midnightblue" d="M513.24,-115.41C590.75,-105.94 748.37,-86.69 839.73,-75.52"/>
<polygon fill="midnightblue" stroke="midnightblue" points="512.8,-111.94 503.3,-116.63 513.65,-118.89 512.8,-111.94"/>
</g>
<!-- Node20&#45;&gt;Node12 -->
<g id="edge30" class="edge">
<title>Node20&#45;&gt;Node12</title>
<path fill="none" stroke="midnightblue" d="M500.87,-108.91C528.88,-98.75 568.2,-84.51 593,-75.52"/>
<polygon fill="midnightblue" stroke="midnightblue" points="499.32,-105.75 491.11,-112.44 501.7,-112.33 499.32,-105.75"/>
</g>
<!-- Node20&#45;&gt;Node13 -->
<g id="edge31" class="edge">
<title>Node20&#45;&gt;Node13</title>
<path fill="none" stroke="midnightblue" d="M513.23,-112.51C567.63,-102.42 657.91,-85.67 712.45,-75.55"/>
<polygon fill="midnightblue" stroke="midnightblue" points="512.38,-109.11 503.18,-114.38 513.65,-116 512.38,-109.11"/>
</g>
<!-- Node21 -->
<g id="node21" class="node">
<title>Node21</title>
<g id="a_node21"><a xlink:href="_compiler_8hpp.html" target="_top" xlink:title=" ">
<polygon fill="white" stroke="black" points="163,-56.5 163,-75.5 244,-75.5 244,-56.5 163,-56.5"/>
<text text-anchor="middle" x="203.5" y="-63.5" font-family="Helvetica,sans-Serif" font-size="10.00">Compiler.hpp</text>
</a>
</g>
</g>
<!-- Node20&#45;&gt;Node21 -->
<g id="edge32" class="edge">
<title>Node20&#45;&gt;Node21</title>
<path fill="none" stroke="midnightblue" d="M421.99,-111.69C371.92,-101.45 292.2,-85.14 244.16,-75.32"/>
<polygon fill="midnightblue" stroke="midnightblue" points="421.4,-115.14 431.9,-113.72 422.8,-108.28 421.4,-115.14"/>
</g>
<!-- Node22 -->
<g id="node22" class="node">
<title>Node22</title>
<g id="a_node22"><a xlink:href="_shader_loader_8hpp.html" target="_top" xlink:title=" ">
<polygon fill="white" stroke="black" points="151.5,-0.5 151.5,-19.5 255.5,-19.5 255.5,-0.5 151.5,-0.5"/>
<text text-anchor="middle" x="203.5" y="-7.5" font-family="Helvetica,sans-Serif" font-size="10.00">ShaderLoader.hpp</text>
</a>
</g>
</g>
<!-- Node21&#45;&gt;Node22 -->
<g id="edge33" class="edge">
<title>Node21&#45;&gt;Node22</title>
<path fill="none" stroke="midnightblue" d="M203.5,-45.8C203.5,-36.91 203.5,-26.78 203.5,-19.75"/>
<polygon fill="midnightblue" stroke="midnightblue" points="200,-46.08 203.5,-56.08 207,-46.08 200,-46.08"/>
</g>
</g>
</svg>
