<?xml version="1.0" encoding="UTF-8" standalone="no"?>
<!DOCTYPE svg PUBLIC "-//W3C//DTD SVG 1.1//EN"
 "http://www.w3.org/Graphics/SVG/1.1/DTD/svg11.dtd">
<!-- Generated by graphviz version 2.43.0 (0)
 -->
<!-- Title: Keyboard.hpp Pages: 1 -->
<svg width="127pt" height="140pt"
 viewBox="0.00 0.00 127.00 140.00" xmlns="http://www.w3.org/2000/svg" xmlns:xlink="http://www.w3.org/1999/xlink">
<g id="graph0" class="graph" transform="scale(1 1) rotate(0) translate(4 136)">
<title>Keyboard.hpp</title>
<polygon fill="white" stroke="transparent" points="-4,4 -4,-136 123,-136 123,4 -4,4"/>
<!-- Node1 -->
<g id="node1" class="node">
<title>Node1</title>
<g id="a_node1"><a xlink:title=" ">
<polygon fill="#bfbfbf" stroke="black" points="24.5,-112.5 24.5,-131.5 107.5,-131.5 107.5,-112.5 24.5,-112.5"/>
<text text-anchor="middle" x="66" y="-119.5" font-family="Helvetica,sans-Serif" font-size="10.00">Keyboard.hpp</text>
</a>
</g>
</g>
<!-- Node2 -->
<g id="node2" class="node">
<title>Node2</title>
<g id="a_node2"><a xlink:href="_mouse_8hpp.html" target="_top" xlink:title=" ">
<polygon fill="white" stroke="black" points="0,-56.5 0,-75.5 70,-75.5 70,-56.5 0,-56.5"/>
<text text-anchor="middle" x="35" y="-63.5" font-family="Helvetica,sans-Serif" font-size="10.00">Mouse.hpp</text>
</a>
</g>
</g>
<!-- Node1&#45;&gt;Node2 -->
<g id="edge1" class="edge">
<title>Node1&#45;&gt;Node2</title>
<path fill="none" stroke="midnightblue" d="M55.82,-103.27C50.53,-94.05 44.28,-83.17 40.02,-75.75"/>
<polygon fill="midnightblue" stroke="midnightblue" points="52.87,-105.15 60.88,-112.08 58.94,-101.67 52.87,-105.15"/>
</g>
<!-- Node3 -->
<g id="node3" class="node">
<title>Node3</title>
<g id="a_node3"><a xlink:href="_platform_layer_8hpp.html" target="_top" xlink:title=" ">
<polygon fill="white" stroke="black" points="13,-0.5 13,-19.5 119,-19.5 119,-0.5 13,-0.5"/>
<text text-anchor="middle" x="66" y="-7.5" font-family="Helvetica,sans-Serif" font-size="10.00">PlatformLayer.hpp</text>
</a>
</g>
</g>
<!-- Node1&#45;&gt;Node3 -->
<g id="edge3" class="edge">
<title>Node1&#45;&gt;Node3</title>
<path fill="none" stroke="midnightblue" d="M72.55,-102.7C75.11,-94.63 77.73,-84.96 79,-76 81.87,-55.72 74.46,-32.22 69.68,-19.78"/>
<polygon fill="midnightblue" stroke="midnightblue" points="69.23,-101.6 69.34,-112.2 75.86,-103.84 69.23,-101.6"/>
</g>
<!-- Node2&#45;&gt;Node3 -->
<g id="edge2" class="edge">
<title>Node2&#45;&gt;Node3</title>
<path fill="none" stroke="midnightblue" d="M45.18,-47.27C50.47,-38.05 56.72,-27.17 60.98,-19.75"/>
<polygon fill="midnightblue" stroke="midnightblue" points="42.06,-45.67 40.12,-56.08 48.13,-49.15 42.06,-45.67"/>
</g>
</g>
</svg>
