<?xml version="1.0" encoding="UTF-8" standalone="no"?>
<!DOCTYPE svg PUBLIC "-//W3C//DTD SVG 1.1//EN"
 "http://www.w3.org/Graphics/SVG/1.1/DTD/svg11.dtd">
<!-- Generated by graphviz version 2.43.0 (0)
 -->
<!-- Title: Loader.hpp Pages: 1 -->
<svg width="937pt" height="196pt"
 viewBox="0.00 0.00 937.00 196.00" xmlns="http://www.w3.org/2000/svg" xmlns:xlink="http://www.w3.org/1999/xlink">
<g id="graph0" class="graph" transform="scale(1 1) rotate(0) translate(4 192)">
<title>Loader.hpp</title>
<polygon fill="white" stroke="transparent" points="-4,4 -4,-192 933,-192 933,4 -4,4"/>
<!-- Node1 -->
<g id="node1" class="node">
<title>Node1</title>
<g id="a_node1"><a xlink:title=" ">
<polygon fill="#bfbfbf" stroke="black" points="576,-168.5 576,-187.5 646,-187.5 646,-168.5 576,-168.5"/>
<text text-anchor="middle" x="611" y="-175.5" font-family="Helvetica,sans-Serif" font-size="10.00">Loader.hpp</text>
</a>
</g>
</g>
<!-- Node2 -->
<g id="node2" class="node">
<title>Node2</title>
<g id="a_node2"><a xlink:href="_loader_library_8hpp.html" target="_top" xlink:title=" ">
<polygon fill="white" stroke="black" points="309.5,-112.5 309.5,-131.5 412.5,-131.5 412.5,-112.5 309.5,-112.5"/>
<text text-anchor="middle" x="361" y="-119.5" font-family="Helvetica,sans-Serif" font-size="10.00">LoaderLibrary.hpp</text>
</a>
</g>
</g>
<!-- Node1&#45;&gt;Node2 -->
<g id="edge1" class="edge">
<title>Node1&#45;&gt;Node2</title>
<path fill="none" stroke="midnightblue" d="M566.06,-167.29C518.99,-157.12 445.76,-141.31 400.74,-131.58"/>
<polygon fill="midnightblue" stroke="midnightblue" points="565.46,-170.74 575.98,-169.43 566.94,-163.9 565.46,-170.74"/>
</g>
<!-- Node9 -->
<g id="node9" class="node">
<title>Node9</title>
<g id="a_node9"><a xlink:href="_material_loader_8hpp.html" target="_top" xlink:title=" ">
<polygon fill="white" stroke="black" points="431,-112.5 431,-131.5 541,-131.5 541,-112.5 431,-112.5"/>
<text text-anchor="middle" x="486" y="-119.5" font-family="Helvetica,sans-Serif" font-size="10.00">MaterialLoader.hpp</text>
</a>
</g>
</g>
<!-- Node1&#45;&gt;Node9 -->
<g id="edge8" class="edge">
<title>Node1&#45;&gt;Node9</title>
<path fill="none" stroke="midnightblue" d="M581.76,-164.37C558.35,-154.26 526.16,-140.35 505.71,-131.52"/>
<polygon fill="midnightblue" stroke="midnightblue" points="580.63,-167.69 591.19,-168.44 583.4,-161.26 580.63,-167.69"/>
</g>
<!-- Node10 -->
<g id="node10" class="node">
<title>Node10</title>
<g id="a_node10"><a xlink:href="_shader_loader_8hpp.html" target="_top" xlink:title=" ">
<polygon fill="white" stroke="black" points="559,-112.5 559,-131.5 663,-131.5 663,-112.5 559,-112.5"/>
<text text-anchor="middle" x="611" y="-119.5" font-family="Helvetica,sans-Serif" font-size="10.00">ShaderLoader.hpp</text>
</a>
</g>
</g>
<!-- Node1&#45;&gt;Node10 -->
<g id="edge9" class="edge">
<title>Node1&#45;&gt;Node10</title>
<path fill="none" stroke="midnightblue" d="M611,-157.8C611,-148.91 611,-138.78 611,-131.75"/>
<polygon fill="midnightblue" stroke="midnightblue" points="607.5,-158.08 611,-168.08 614.5,-158.08 607.5,-158.08"/>
</g>
<!-- Node11 -->
<g id="node11" class="node">
<title>Node11</title>
<g id="a_node11"><a xlink:href="_static_mesh_loader_8hpp.html" target="_top" xlink:title=" ">
<polygon fill="white" stroke="black" points="681,-112.5 681,-131.5 805,-131.5 805,-112.5 681,-112.5"/>
<text text-anchor="middle" x="743" y="-119.5" font-family="Helvetica,sans-Serif" font-size="10.00">StaticMeshLoader.hpp</text>
</a>
</g>
</g>
<!-- Node1&#45;&gt;Node11 -->
<g id="edge10" class="edge">
<title>Node1&#45;&gt;Node11</title>
<path fill="none" stroke="midnightblue" d="M641.22,-164.64C665.99,-154.5 700.4,-140.43 722.18,-131.52"/>
<polygon fill="midnightblue" stroke="midnightblue" points="639.85,-161.42 631.92,-168.44 642.5,-167.9 639.85,-161.42"/>
</g>
<!-- Node12 -->
<g id="node12" class="node">
<title>Node12</title>
<g id="a_node12"><a xlink:href="_texture_loader_8hpp.html" target="_top" xlink:title=" ">
<polygon fill="white" stroke="black" points="823,-112.5 823,-131.5 929,-131.5 929,-112.5 823,-112.5"/>
<text text-anchor="middle" x="876" y="-119.5" font-family="Helvetica,sans-Serif" font-size="10.00">TextureLoader.hpp</text>
</a>
</g>
</g>
<!-- Node1&#45;&gt;Node12 -->
<g id="edge11" class="edge">
<title>Node1&#45;&gt;Node12</title>
<path fill="none" stroke="midnightblue" d="M656.05,-167.82C705.89,-157.66 785.56,-141.43 834.1,-131.54"/>
<polygon fill="midnightblue" stroke="midnightblue" points="655.29,-164.4 646.19,-169.83 656.69,-171.26 655.29,-164.4"/>
</g>
<!-- Node3 -->
<g id="node3" class="node">
<title>Node3</title>
<g id="a_node3"><a xlink:href="_manager_8hpp.html" target="_top" xlink:title=" ">
<polygon fill="white" stroke="black" points="321,-56.5 321,-75.5 401,-75.5 401,-56.5 321,-56.5"/>
<text text-anchor="middle" x="361" y="-63.5" font-family="Helvetica,sans-Serif" font-size="10.00">Manager.hpp</text>
</a>
</g>
</g>
<!-- Node2&#45;&gt;Node3 -->
<g id="edge2" class="edge">
<title>Node2&#45;&gt;Node3</title>
<path fill="none" stroke="midnightblue" d="M361,-101.8C361,-92.91 361,-82.78 361,-75.75"/>
<polygon fill="midnightblue" stroke="midnightblue" points="357.5,-102.08 361,-112.08 364.5,-102.08 357.5,-102.08"/>
</g>
<!-- Node4 -->
<g id="node4" class="node">
<title>Node4</title>
<g id="a_node4"><a xlink:href="_bloom_feature_8hpp.html" target="_top" xlink:title=" ">
<polygon fill="white" stroke="black" points="0,-0.5 0,-19.5 106,-19.5 106,-0.5 0,-0.5"/>
<text text-anchor="middle" x="53" y="-7.5" font-family="Helvetica,sans-Serif" font-size="10.00">BloomFeature.hpp</text>
</a>
</g>
</g>
<!-- Node3&#45;&gt;Node4 -->
<g id="edge3" class="edge">
<title>Node3&#45;&gt;Node4</title>
<path fill="none" stroke="midnightblue" d="M310.74,-56.19C252.95,-46.06 158.75,-29.54 101.65,-19.53"/>
<polygon fill="midnightblue" stroke="midnightblue" points="310.28,-59.66 320.73,-57.94 311.49,-52.77 310.28,-59.66"/>
</g>
<!-- Node5 -->
<g id="node5" class="node">
<title>Node5</title>
<g id="a_node5"><a xlink:href="_clustered_light_feature_8hpp.html" target="_top" xlink:title=" ">
<polygon fill="white" stroke="black" points="124.5,-0.5 124.5,-19.5 269.5,-19.5 269.5,-0.5 124.5,-0.5"/>
<text text-anchor="middle" x="197" y="-7.5" font-family="Helvetica,sans-Serif" font-size="10.00">ClusteredLightFeature.hpp</text>
</a>
</g>
</g>
<!-- Node3&#45;&gt;Node5 -->
<g id="edge4" class="edge">
<title>Node3&#45;&gt;Node5</title>
<path fill="none" stroke="midnightblue" d="M325.48,-53.3C294.58,-43.13 250.53,-28.62 222.86,-19.52"/>
<polygon fill="midnightblue" stroke="midnightblue" points="324.42,-56.64 335.01,-56.44 326.61,-49.99 324.42,-56.64"/>
</g>
<!-- Node6 -->
<g id="node6" class="node">
<title>Node6</title>
<g id="a_node6"><a xlink:href="_particle_system_feature_8hpp.html" target="_top" xlink:title=" ">
<polygon fill="white" stroke="black" points="287.5,-0.5 287.5,-19.5 434.5,-19.5 434.5,-0.5 287.5,-0.5"/>
<text text-anchor="middle" x="361" y="-7.5" font-family="Helvetica,sans-Serif" font-size="10.00">ParticleSystemFeature.hpp</text>
</a>
</g>
</g>
<!-- Node3&#45;&gt;Node6 -->
<g id="edge5" class="edge">
<title>Node3&#45;&gt;Node6</title>
<path fill="none" stroke="midnightblue" d="M361,-45.8C361,-36.91 361,-26.78 361,-19.75"/>
<polygon fill="midnightblue" stroke="midnightblue" points="357.5,-46.08 361,-56.08 364.5,-46.08 357.5,-46.08"/>
</g>
<!-- Node7 -->
<g id="node7" class="node">
<title>Node7</title>
<g id="a_node7"><a xlink:href="_static_mesh_feature_8hpp.html" target="_top" xlink:title=" ">
<polygon fill="white" stroke="black" points="453,-0.5 453,-19.5 581,-19.5 581,-0.5 453,-0.5"/>
<text text-anchor="middle" x="517" y="-7.5" font-family="Helvetica,sans-Serif" font-size="10.00">StaticMeshFeature.hpp</text>
</a>
</g>
</g>
<!-- Node3&#45;&gt;Node7 -->
<g id="edge6" class="edge">
<title>Node3&#45;&gt;Node7</title>
<path fill="none" stroke="midnightblue" d="M395.17,-53.17C424.54,-43 466.2,-28.59 492.4,-19.52"/>
<polygon fill="midnightblue" stroke="midnightblue" points="394.02,-49.86 385.72,-56.44 396.31,-56.48 394.02,-49.86"/>
</g>
<!-- Node8 -->
<g id="node8" class="node">
<title>Node8</title>
<g id="a_node8"><a xlink:href="_tonemap_feature_8hpp.html" target="_top" xlink:title=" ">
<polygon fill="white" stroke="black" points="599.5,-0.5 599.5,-19.5 718.5,-19.5 718.5,-0.5 599.5,-0.5"/>
<text text-anchor="middle" x="659" y="-7.5" font-family="Helvetica,sans-Serif" font-size="10.00">TonemapFeature.hpp</text>
</a>
</g>
</g>
<!-- Node3&#45;&gt;Node8 -->
<g id="edge7" class="edge">
<title>Node3&#45;&gt;Node8</title>
<path fill="none" stroke="midnightblue" d="M411.24,-55.9C467.24,-45.75 557.12,-29.46 611.85,-19.54"/>
<polygon fill="midnightblue" stroke="midnightblue" points="410.41,-52.49 401.19,-57.72 411.65,-59.38 410.41,-52.49"/>
</g>
</g>
</svg>
