<?xml version="1.0" encoding="UTF-8" standalone="no"?>
<!DOCTYPE svg PUBLIC "-//W3C//DTD SVG 1.1//EN"
 "http://www.w3.org/Graphics/SVG/1.1/DTD/svg11.dtd">
<!-- Generated by graphviz version 2.43.0 (0)
 -->
<!-- Title: Loader.hpp Pages: 1 -->
<svg width="852pt" height="196pt"
 viewBox="0.00 0.00 852.00 196.00" xmlns="http://www.w3.org/2000/svg" xmlns:xlink="http://www.w3.org/1999/xlink">
<g id="graph0" class="graph" transform="scale(1 1) rotate(0) translate(4 192)">
<title>Loader.hpp</title>
<polygon fill="white" stroke="transparent" points="-4,4 -4,-192 848,-192 848,4 -4,4"/>
<!-- Node1 -->
<g id="node1" class="node">
<title>Node1</title>
<g id="a_node1"><a xlink:title=" ">
<polygon fill="#bfbfbf" stroke="black" points="491,-168.5 491,-187.5 561,-187.5 561,-168.5 491,-168.5"/>
<text text-anchor="middle" x="526" y="-175.5" font-family="Helvetica,sans-Serif" font-size="10.00">Loader.hpp</text>
</a>
</g>
</g>
<!-- Node2 -->
<g id="node2" class="node">
<title>Node2</title>
<g id="a_node2"><a xlink:href="_loader_library_8hpp.html" target="_top" xlink:title=" ">
<polygon fill="white" stroke="black" points="224.5,-112.5 224.5,-131.5 327.5,-131.5 327.5,-112.5 224.5,-112.5"/>
<text text-anchor="middle" x="276" y="-119.5" font-family="Helvetica,sans-Serif" font-size="10.00">LoaderLibrary.hpp</text>
</a>
</g>
</g>
<!-- Node1&#45;&gt;Node2 -->
<g id="edge1" class="edge">
<title>Node1&#45;&gt;Node2</title>
<path fill="none" stroke="midnightblue" d="M481.06,-167.29C433.99,-157.12 360.76,-141.31 315.74,-131.58"/>
<polygon fill="midnightblue" stroke="midnightblue" points="480.46,-170.74 490.98,-169.43 481.94,-163.9 480.46,-170.74"/>
</g>
<!-- Node8 -->
<g id="node8" class="node">
<title>Node8</title>
<g id="a_node8"><a xlink:href="_material_loader_8hpp.html" target="_top" xlink:title=" ">
<polygon fill="white" stroke="black" points="346,-112.5 346,-131.5 456,-131.5 456,-112.5 346,-112.5"/>
<text text-anchor="middle" x="401" y="-119.5" font-family="Helvetica,sans-Serif" font-size="10.00">MaterialLoader.hpp</text>
</a>
</g>
</g>
<!-- Node1&#45;&gt;Node8 -->
<g id="edge7" class="edge">
<title>Node1&#45;&gt;Node8</title>
<path fill="none" stroke="midnightblue" d="M496.76,-164.37C473.35,-154.26 441.16,-140.35 420.71,-131.52"/>
<polygon fill="midnightblue" stroke="midnightblue" points="495.63,-167.69 506.19,-168.44 498.4,-161.26 495.63,-167.69"/>
</g>
<!-- Node9 -->
<g id="node9" class="node">
<title>Node9</title>
<g id="a_node9"><a xlink:href="_shader_loader_8hpp.html" target="_top" xlink:title=" ">
<polygon fill="white" stroke="black" points="474,-112.5 474,-131.5 578,-131.5 578,-112.5 474,-112.5"/>
<text text-anchor="middle" x="526" y="-119.5" font-family="Helvetica,sans-Serif" font-size="10.00">ShaderLoader.hpp</text>
</a>
</g>
</g>
<!-- Node1&#45;&gt;Node9 -->
<g id="edge8" class="edge">
<title>Node1&#45;&gt;Node9</title>
<path fill="none" stroke="midnightblue" d="M526,-157.8C526,-148.91 526,-138.78 526,-131.75"/>
<polygon fill="midnightblue" stroke="midnightblue" points="522.5,-158.08 526,-168.08 529.5,-158.08 522.5,-158.08"/>
</g>
<!-- Node10 -->
<g id="node10" class="node">
<title>Node10</title>
<g id="a_node10"><a xlink:href="_static_mesh_loader_8hpp.html" target="_top" xlink:title=" ">
<polygon fill="white" stroke="black" points="596,-112.5 596,-131.5 720,-131.5 720,-112.5 596,-112.5"/>
<text text-anchor="middle" x="658" y="-119.5" font-family="Helvetica,sans-Serif" font-size="10.00">StaticMeshLoader.hpp</text>
</a>
</g>
</g>
<!-- Node1&#45;&gt;Node10 -->
<g id="edge9" class="edge">
<title>Node1&#45;&gt;Node10</title>
<path fill="none" stroke="midnightblue" d="M556.22,-164.64C580.99,-154.5 615.4,-140.43 637.18,-131.52"/>
<polygon fill="midnightblue" stroke="midnightblue" points="554.85,-161.42 546.92,-168.44 557.5,-167.9 554.85,-161.42"/>
</g>
<!-- Node11 -->
<g id="node11" class="node">
<title>Node11</title>
<g id="a_node11"><a xlink:href="_texture_loader_8hpp.html" target="_top" xlink:title=" ">
<polygon fill="white" stroke="black" points="738,-112.5 738,-131.5 844,-131.5 844,-112.5 738,-112.5"/>
<text text-anchor="middle" x="791" y="-119.5" font-family="Helvetica,sans-Serif" font-size="10.00">TextureLoader.hpp</text>
</a>
</g>
</g>
<!-- Node1&#45;&gt;Node11 -->
<g id="edge10" class="edge">
<title>Node1&#45;&gt;Node11</title>
<path fill="none" stroke="midnightblue" d="M571.05,-167.82C620.89,-157.66 700.56,-141.43 749.1,-131.54"/>
<polygon fill="midnightblue" stroke="midnightblue" points="570.29,-164.4 561.19,-169.83 571.69,-171.26 570.29,-164.4"/>
</g>
<!-- Node3 -->
<g id="node3" class="node">
<title>Node3</title>
<g id="a_node3"><a xlink:href="_manager_8hpp.html" target="_top" xlink:title=" ">
<polygon fill="white" stroke="black" points="236,-56.5 236,-75.5 316,-75.5 316,-56.5 236,-56.5"/>
<text text-anchor="middle" x="276" y="-63.5" font-family="Helvetica,sans-Serif" font-size="10.00">Manager.hpp</text>
</a>
</g>
</g>
<!-- Node2&#45;&gt;Node3 -->
<g id="edge2" class="edge">
<title>Node2&#45;&gt;Node3</title>
<path fill="none" stroke="midnightblue" d="M276,-101.8C276,-92.91 276,-82.78 276,-75.75"/>
<polygon fill="midnightblue" stroke="midnightblue" points="272.5,-102.08 276,-112.08 279.5,-102.08 272.5,-102.08"/>
</g>
<!-- Node4 -->
<g id="node4" class="node">
<title>Node4</title>
<g id="a_node4"><a xlink:href="_bloom_feature_8hpp.html" target="_top" xlink:title=" ">
<polygon fill="white" stroke="black" points="0,-0.5 0,-19.5 106,-19.5 106,-0.5 0,-0.5"/>
<text text-anchor="middle" x="53" y="-7.5" font-family="Helvetica,sans-Serif" font-size="10.00">BloomFeature.hpp</text>
</a>
</g>
</g>
<!-- Node3&#45;&gt;Node4 -->
<g id="edge3" class="edge">
<title>Node3&#45;&gt;Node4</title>
<path fill="none" stroke="midnightblue" d="M230.94,-54.09C188.81,-43.89 126.76,-28.86 88.17,-19.52"/>
<polygon fill="midnightblue" stroke="midnightblue" points="230.12,-57.49 240.66,-56.44 231.77,-50.69 230.12,-57.49"/>
</g>
<!-- Node5 -->
<g id="node5" class="node">
<title>Node5</title>
<g id="a_node5"><a xlink:href="_particle_system_feature_8hpp.html" target="_top" xlink:title=" ">
<polygon fill="white" stroke="black" points="124.5,-0.5 124.5,-19.5 271.5,-19.5 271.5,-0.5 124.5,-0.5"/>
<text text-anchor="middle" x="198" y="-7.5" font-family="Helvetica,sans-Serif" font-size="10.00">ParticleSystemFeature.hpp</text>
</a>
</g>
</g>
<!-- Node3&#45;&gt;Node5 -->
<g id="edge4" class="edge">
<title>Node3&#45;&gt;Node5</title>
<path fill="none" stroke="midnightblue" d="M255.23,-50.62C240.98,-40.76 222.54,-27.99 210.5,-19.65"/>
<polygon fill="midnightblue" stroke="midnightblue" points="253.25,-53.51 263.47,-56.32 257.24,-47.75 253.25,-53.51"/>
</g>
<!-- Node6 -->
<g id="node6" class="node">
<title>Node6</title>
<g id="a_node6"><a xlink:href="_static_mesh_feature_8hpp.html" target="_top" xlink:title=" ">
<polygon fill="white" stroke="black" points="290,-0.5 290,-19.5 418,-19.5 418,-0.5 290,-0.5"/>
<text text-anchor="middle" x="354" y="-7.5" font-family="Helvetica,sans-Serif" font-size="10.00">StaticMeshFeature.hpp</text>
</a>
</g>
</g>
<!-- Node3&#45;&gt;Node6 -->
<g id="edge5" class="edge">
<title>Node3&#45;&gt;Node6</title>
<path fill="none" stroke="midnightblue" d="M296.77,-50.62C311.02,-40.76 329.46,-27.99 341.5,-19.65"/>
<polygon fill="midnightblue" stroke="midnightblue" points="294.76,-47.75 288.53,-56.32 298.75,-53.51 294.76,-47.75"/>
</g>
<!-- Node7 -->
<g id="node7" class="node">
<title>Node7</title>
<g id="a_node7"><a xlink:href="_tonemap_feature_8hpp.html" target="_top" xlink:title=" ">
<polygon fill="white" stroke="black" points="436.5,-0.5 436.5,-19.5 555.5,-19.5 555.5,-0.5 436.5,-0.5"/>
<text text-anchor="middle" x="496" y="-7.5" font-family="Helvetica,sans-Serif" font-size="10.00">TonemapFeature.hpp</text>
</a>
</g>
</g>
<!-- Node3&#45;&gt;Node7 -->
<g id="edge6" class="edge">
<title>Node3&#45;&gt;Node7</title>
<path fill="none" stroke="midnightblue" d="M320.72,-54.02C362.28,-43.82 423.31,-28.84 461.3,-19.52"/>
<polygon fill="midnightblue" stroke="midnightblue" points="319.74,-50.66 310.86,-56.44 321.41,-57.46 319.74,-50.66"/>
</g>
</g>
</svg>
