<?xml version="1.0" encoding="UTF-8" standalone="no"?>
<!DOCTYPE svg PUBLIC "-//W3C//DTD SVG 1.1//EN"
 "http://www.w3.org/Graphics/SVG/1.1/DTD/svg11.dtd">
<!-- Generated by graphviz version 2.43.0 (0)
 -->
<!-- Title: Manager.hpp Pages: 1 -->
<!--zoomable 420 -->
<svg id="main" version="1.1" xmlns="http://www.w3.org/2000/svg" xmlns:xlink="http://www.w3.org/1999/xlink" xml:space="preserve" onload="init(evt)">
<style type="text/css"><![CDATA[
.edge:hover path { stroke: red; }
.edge:hover polygon { stroke: red; fill: red; }
]]></style>
<script type="text/javascript"><![CDATA[
var edges = document.getElementsByTagName('g');
if (edges && edges.length) {
  for (var i=0;i<edges.length;i++) {
    if (edges[i].id.substr(0,4)=='edge') {
      edges[i].setAttribute('class','edge');
    }
  }
}
]]></script>
        <defs>
                <circle id="rim" cx="0" cy="0" r="7"/>
                <circle id="rim2" cx="0" cy="0" r="3.5"/>
                <g id="zoomPlus">
                        <use xlink:href="#rim" fill="#404040">
                                <set attributeName="fill" to="#808080" begin="zoomplus.mouseover" end="zoomplus.mouseout"/>
                        </use>
                        <path d="M-4,0h8M0,-4v8" fill="none" stroke="white" stroke-width="1.5" pointer-events="none"/>
                </g>
                <g id="zoomMin">
                        <use xlink:href="#rim" fill="#404040">
                                <set attributeName="fill" to="#808080" begin="zoomminus.mouseover" end="zoomminus.mouseout"/>
                        </use>
                        <path d="M-4,0h8" fill="none" stroke="white" stroke-width="1.5" pointer-events="none"/>
                </g>
                <g id="dirArrow">
                        <path fill="none" stroke="white" stroke-width="1.5" d="M0,-3.0v7 M-2.5,-0.5L0,-3.0L2.5,-0.5"/>
                </g>
               <g id="resetDef">
                       <use xlink:href="#rim2" fill="#404040">
                               <set attributeName="fill" to="#808080" begin="reset.mouseover" end="reset.mouseout"/>
                       </use>
               </g>
        </defs>

<script type="text/javascript">
var viewWidth = 1334;
var viewHeight = 420;
var sectionId = 'dynsection-0';
</script>
<script xlink:href="svgpan.js"/>
<svg id="graph" class="graph">
<g id="viewport">
<title>Manager.hpp</title>
<polygon fill="white" stroke="transparent" points="-4,4 -4,-416 1330,-416 1330,4 -4,4"/>
<!-- Node1 -->
<g id="node1" class="node">
<title>Node1</title>
<g id="a_node1"><a xlink:title=" ">
<polygon fill="#bfbfbf" stroke="black" points="917,-392.5 917,-411.5 997,-411.5 997,-392.5 917,-392.5"/>
<text text-anchor="middle" x="957" y="-399.5" font-family="Helvetica,sans-Serif" font-size="10.00">Manager.hpp</text>
</a>
</g>
</g>
<!-- Node2 -->
<g id="node2" class="node">
<title>Node2</title>
<g id="a_node2"><a xlink:href="_loader_library_8hpp.html" target="_top" xlink:title=" ">
<polygon fill="white" stroke="black" points="922.5,-336.5 922.5,-355.5 1119.5,-355.5 1119.5,-336.5 922.5,-336.5"/>
<text text-anchor="middle" x="1021" y="-343.5" font-family="Helvetica,sans-Serif" font-size="10.00">Liger&#45;Engine/Asset/LoaderLibrary.hpp</text>
</a>
</g>
</g>
<!-- Node1&#45;&gt;Node2 -->
<g id="edge1" class="edge">
<title>Node1&#45;&gt;Node2</title>
<path fill="none" stroke="midnightblue" d="M967.28,-392.32C976.84,-384.26 991.28,-372.08 1002.78,-362.37"/>
<polygon fill="midnightblue" stroke="midnightblue" points="1005.14,-364.96 1010.53,-355.83 1000.63,-359.61 1005.14,-364.96"/>
</g>
<!-- Node14 -->
<g id="node14" class="node">
<title>Node14</title>
<g id="a_node14"><a xlink:href="_asset_2_log_channel_8hpp.html" target="_top" xlink:title=" ">
<polygon fill="white" stroke="black" points="0,-280.5 0,-299.5 188,-299.5 188,-280.5 0,-280.5"/>
<text text-anchor="middle" x="94" y="-287.5" font-family="Helvetica,sans-Serif" font-size="10.00">Liger&#45;Engine/Asset/LogChannel.hpp</text>
</a>
</g>
</g>
<!-- Node1&#45;&gt;Node14 -->
<g id="edge13" class="edge">
<title>Node1&#45;&gt;Node14</title>
<path fill="none" stroke="midnightblue" d="M916.82,-395.88C782.66,-378.78 348.59,-323.45 170.91,-300.8"/>
<polygon fill="midnightblue" stroke="midnightblue" points="171.22,-297.31 160.85,-299.52 170.33,-304.26 171.22,-297.31"/>
</g>
<!-- Node21 -->
<g id="node21" class="node">
<title>Node21</title>
<g id="a_node21"><a xlink:href="_registry_8hpp.html" target="_top" xlink:title=" ">
<polygon fill="white" stroke="black" points="816,-280.5 816,-299.5 986,-299.5 986,-280.5 816,-280.5"/>
<text text-anchor="middle" x="901" y="-287.5" font-family="Helvetica,sans-Serif" font-size="10.00">Liger&#45;Engine/Asset/Registry.hpp</text>
</a>
</g>
</g>
<!-- Node1&#45;&gt;Node21 -->
<g id="edge23" class="edge">
<title>Node1&#45;&gt;Node21</title>
<path fill="none" stroke="midnightblue" d="M945.62,-392.29C935.68,-384.05 921.68,-370.76 914,-356 906.53,-341.65 903.34,-323.45 901.99,-309.96"/>
<polygon fill="midnightblue" stroke="midnightblue" points="905.47,-309.63 901.23,-299.93 898.49,-310.16 905.47,-309.63"/>
</g>
<!-- Node24 -->
<g id="node24" class="node">
<title>Node24</title>
<g id="a_node24"><a xlink:href="_storage_8hpp.html" target="_top" xlink:title=" ">
<polygon fill="white" stroke="black" points="619.5,-336.5 619.5,-355.5 788.5,-355.5 788.5,-336.5 619.5,-336.5"/>
<text text-anchor="middle" x="704" y="-343.5" font-family="Helvetica,sans-Serif" font-size="10.00">Liger&#45;Engine/Asset/Storage.hpp</text>
</a>
</g>
</g>
<!-- Node1&#45;&gt;Node24 -->
<g id="edge29" class="edge">
<title>Node1&#45;&gt;Node24</title>
<path fill="none" stroke="midnightblue" d="M916.91,-392.44C872.68,-383 801.46,-367.8 753.72,-357.61"/>
<polygon fill="midnightblue" stroke="midnightblue" points="754.41,-354.18 743.9,-355.52 752.95,-361.03 754.41,-354.18"/>
</g>
<!-- Node31 -->
<g id="node31" class="node">
<title>Node31</title>
<g id="a_node31"><a xlink:title=" ">
<polygon fill="white" stroke="#bfbfbf" points="1138,-336.5 1138,-355.5 1260,-355.5 1260,-336.5 1138,-336.5"/>
<text text-anchor="middle" x="1199" y="-343.5" font-family="Helvetica,sans-Serif" font-size="10.00">taskflow/taskflow.hpp</text>
</a>
</g>
</g>
<!-- Node1&#45;&gt;Node31 -->
<g id="edge44" class="edge">
<title>Node1&#45;&gt;Node31</title>
<path fill="none" stroke="midnightblue" d="M995.35,-392.44C1037.47,-383.04 1105.21,-367.93 1150.87,-357.74"/>
<polygon fill="midnightblue" stroke="midnightblue" points="1151.84,-361.11 1160.83,-355.52 1150.31,-354.28 1151.84,-361.11"/>
</g>
<!-- Node32 -->
<g id="node32" class="node">
<title>Node32</title>
<g id="a_node32"><a xlink:title=" ">
<polygon fill="white" stroke="#bfbfbf" points="1278,-336.5 1278,-355.5 1326,-355.5 1326,-336.5 1278,-336.5"/>
<text text-anchor="middle" x="1302" y="-343.5" font-family="Helvetica,sans-Serif" font-size="10.00">mutex</text>
</a>
</g>
</g>
<!-- Node1&#45;&gt;Node32 -->
<g id="edge45" class="edge">
<title>Node1&#45;&gt;Node32</title>
<path fill="none" stroke="midnightblue" d="M997.17,-396.81C1054.98,-390.42 1165.12,-376.96 1268,-355.98"/>
<polygon fill="midnightblue" stroke="midnightblue" points="1268.85,-359.38 1277.93,-353.93 1267.43,-352.53 1268.85,-359.38"/>
</g>
<!-- Node3 -->
<g id="node3" class="node">
<title>Node3</title>
<g id="a_node3"><a xlink:href="_loader_8hpp.html" target="_top" xlink:title=" ">
<polygon fill="white" stroke="black" points="1042,-280.5 1042,-299.5 1206,-299.5 1206,-280.5 1042,-280.5"/>
<text text-anchor="middle" x="1124" y="-287.5" font-family="Helvetica,sans-Serif" font-size="10.00">Liger&#45;Engine/Asset/Loader.hpp</text>
</a>
</g>
</g>
<!-- Node2&#45;&gt;Node3 -->
<g id="edge2" class="edge">
<title>Node2&#45;&gt;Node3</title>
<path fill="none" stroke="midnightblue" d="M1037.55,-336.32C1053.99,-327.7 1079.43,-314.36 1098.47,-304.39"/>
<polygon fill="midnightblue" stroke="midnightblue" points="1100.26,-307.4 1107.49,-299.65 1097.01,-301.2 1100.26,-307.4"/>
</g>
<!-- Node12 -->
<g id="node12" class="node">
<title>Node12</title>
<g id="a_node12"><a xlink:title=" ">
<polygon fill="white" stroke="#bfbfbf" points="1024,-224.5 1024,-243.5 1062,-243.5 1062,-224.5 1024,-224.5"/>
<text text-anchor="middle" x="1043" y="-231.5" font-family="Helvetica,sans-Serif" font-size="10.00">map</text>
</a>
</g>
</g>
<!-- Node2&#45;&gt;Node12 -->
<g id="edge11" class="edge">
<title>Node2&#45;&gt;Node12</title>
<path fill="none" stroke="midnightblue" d="M1022.53,-336.15C1024.72,-323.62 1028.93,-300.02 1033,-280 1034.78,-271.27 1036.9,-261.61 1038.73,-253.5"/>
<polygon fill="midnightblue" stroke="midnightblue" points="1042.18,-254.14 1040.99,-243.61 1035.35,-252.58 1042.18,-254.14"/>
</g>
<!-- Node13 -->
<g id="node13" class="node">
<title>Node13</title>
<g id="a_node13"><a xlink:title=" ">
<polygon fill="white" stroke="#bfbfbf" points="988,-0.5 988,-19.5 1032,-19.5 1032,-0.5 988,-0.5"/>
<text text-anchor="middle" x="1010" y="-7.5" font-family="Helvetica,sans-Serif" font-size="10.00">string</text>
</a>
</g>
</g>
<!-- Node2&#45;&gt;Node13 -->
<g id="edge12" class="edge">
<title>Node2&#45;&gt;Node13</title>
<path fill="none" stroke="midnightblue" d="M1089.77,-336.48C1137.99,-329.16 1196.94,-317.07 1215,-300 1236.87,-279.33 1234,-265.1 1234,-235 1234,-235 1234,-235 1234,-121 1234,-36.63 1104.39,-16.97 1042.35,-12.39"/>
<polygon fill="midnightblue" stroke="midnightblue" points="1042.5,-8.89 1032.3,-11.74 1042.05,-15.88 1042.5,-8.89"/>
</g>
<!-- Node4 -->
<g id="node4" class="node">
<title>Node4</title>
<g id="a_node4"><a xlink:href="_id_8hpp.html" target="_top" xlink:title=" ">
<polygon fill="white" stroke="black" points="762,-224.5 762,-243.5 902,-243.5 902,-224.5 762,-224.5"/>
<text text-anchor="middle" x="832" y="-231.5" font-family="Helvetica,sans-Serif" font-size="10.00">Liger&#45;Engine/Asset/Id.hpp</text>
</a>
</g>
</g>
<!-- Node3&#45;&gt;Node4 -->
<g id="edge3" class="edge">
<title>Node3&#45;&gt;Node4</title>
<path fill="none" stroke="midnightblue" d="M1077.73,-280.44C1026.26,-270.92 943.11,-255.55 888,-245.36"/>
<polygon fill="midnightblue" stroke="midnightblue" points="888.52,-241.89 878.05,-243.52 887.25,-248.78 888.52,-241.89"/>
</g>
<!-- Node10 -->
<g id="node10" class="node">
<title>Node10</title>
<g id="a_node10"><a xlink:title=" ">
<polygon fill="white" stroke="#bfbfbf" points="1080,-224.5 1080,-243.5 1148,-243.5 1148,-224.5 1080,-224.5"/>
<text text-anchor="middle" x="1114" y="-231.5" font-family="Helvetica,sans-Serif" font-size="10.00">filesystem</text>
</a>
</g>
</g>
<!-- Node3&#45;&gt;Node10 -->
<g id="edge9" class="edge">
<title>Node3&#45;&gt;Node10</title>
<path fill="none" stroke="midnightblue" d="M1122.35,-280.08C1121.02,-272.93 1119.12,-262.64 1117.46,-253.69"/>
<polygon fill="midnightblue" stroke="midnightblue" points="1120.88,-252.95 1115.62,-243.75 1114,-254.22 1120.88,-252.95"/>
</g>
<!-- Node11 -->
<g id="node11" class="node">
<title>Node11</title>
<g id="a_node11"><a xlink:title=" ">
<polygon fill="white" stroke="#bfbfbf" points="1166,-224.5 1166,-243.5 1206,-243.5 1206,-224.5 1166,-224.5"/>
<text text-anchor="middle" x="1186" y="-231.5" font-family="Helvetica,sans-Serif" font-size="10.00">span</text>
</a>
</g>
</g>
<!-- Node3&#45;&gt;Node11 -->
<g id="edge10" class="edge">
<title>Node3&#45;&gt;Node11</title>
<path fill="none" stroke="midnightblue" d="M1133.96,-280.32C1143.13,-272.34 1156.94,-260.31 1168.03,-250.65"/>
<polygon fill="midnightblue" stroke="midnightblue" points="1170.62,-253.04 1175.86,-243.83 1166.02,-247.76 1170.62,-253.04"/>
</g>
<!-- Node5 -->
<g id="node5" class="node">
<title>Node5</title>
<g id="a_node5"><a xlink:href="_u_u_i_d_8hpp.html" target="_top" xlink:title=" ">
<polygon fill="white" stroke="black" points="762,-168.5 762,-187.5 914,-187.5 914,-168.5 762,-168.5"/>
<text text-anchor="middle" x="838" y="-175.5" font-family="Helvetica,sans-Serif" font-size="10.00">Liger&#45;Engine/Core/UUID.hpp</text>
</a>
</g>
</g>
<!-- Node4&#45;&gt;Node5 -->
<g id="edge4" class="edge">
<title>Node4&#45;&gt;Node5</title>
<path fill="none" stroke="midnightblue" d="M832.99,-224.08C833.79,-216.93 834.93,-206.64 835.92,-197.69"/>
<polygon fill="midnightblue" stroke="midnightblue" points="839.4,-198.08 837.03,-187.75 832.44,-197.3 839.4,-198.08"/>
</g>
<!-- Node6 -->
<g id="node6" class="node">
<title>Node6</title>
<g id="a_node6"><a xlink:title=" ">
<polygon fill="white" stroke="#bfbfbf" points="920,-112.5 920,-131.5 980,-131.5 980,-112.5 920,-112.5"/>
<text text-anchor="middle" x="950" y="-119.5" font-family="Helvetica,sans-Serif" font-size="10.00">concepts</text>
</a>
</g>
</g>
<!-- Node5&#45;&gt;Node6 -->
<g id="edge5" class="edge">
<title>Node5&#45;&gt;Node6</title>
<path fill="none" stroke="midnightblue" d="M855.99,-168.32C874.04,-159.62 902.05,-146.12 922.8,-136.11"/>
<polygon fill="midnightblue" stroke="midnightblue" points="924.56,-139.15 932.05,-131.65 921.52,-132.84 924.56,-139.15"/>
</g>
<!-- Node7 -->
<g id="node7" class="node">
<title>Node7</title>
<g id="a_node7"><a xlink:title=" ">
<polygon fill="white" stroke="#bfbfbf" points="697,-0.5 697,-19.5 747,-19.5 747,-0.5 697,-0.5"/>
<text text-anchor="middle" x="722" y="-7.5" font-family="Helvetica,sans-Serif" font-size="10.00">cstdint</text>
</a>
</g>
</g>
<!-- Node5&#45;&gt;Node7 -->
<g id="edge6" class="edge">
<title>Node5&#45;&gt;Node7</title>
<path fill="none" stroke="midnightblue" d="M815.38,-168.47C798.74,-161.13 776.72,-149.02 763,-132 738.37,-101.45 728.2,-55.34 724.27,-29.77"/>
<polygon fill="midnightblue" stroke="midnightblue" points="727.7,-29.02 722.87,-19.59 720.77,-29.97 727.7,-29.02"/>
</g>
<!-- Node8 -->
<g id="node8" class="node">
<title>Node8</title>
<g id="a_node8"><a xlink:title=" ">
<polygon fill="white" stroke="#bfbfbf" points="772,-112.5 772,-131.5 830,-131.5 830,-112.5 772,-112.5"/>
<text text-anchor="middle" x="801" y="-119.5" font-family="Helvetica,sans-Serif" font-size="10.00">memory</text>
</a>
</g>
</g>
<!-- Node5&#45;&gt;Node8 -->
<g id="edge7" class="edge">
<title>Node5&#45;&gt;Node8</title>
<path fill="none" stroke="midnightblue" d="M831.89,-168.08C826.72,-160.53 819.15,-149.49 812.81,-140.23"/>
<polygon fill="midnightblue" stroke="midnightblue" points="815.54,-138.02 807,-131.75 809.76,-141.98 815.54,-138.02"/>
</g>
<!-- Node9 -->
<g id="node9" class="node">
<title>Node9</title>
<g id="a_node9"><a xlink:title=" ">
<polygon fill="white" stroke="#bfbfbf" points="848,-112.5 848,-131.5 902,-131.5 902,-112.5 848,-112.5"/>
<text text-anchor="middle" x="875" y="-119.5" font-family="Helvetica,sans-Serif" font-size="10.00">random</text>
</a>
</g>
</g>
<!-- Node5&#45;&gt;Node9 -->
<g id="edge8" class="edge">
<title>Node5&#45;&gt;Node9</title>
<path fill="none" stroke="midnightblue" d="M844.11,-168.08C849.28,-160.53 856.85,-149.49 863.19,-140.23"/>
<polygon fill="midnightblue" stroke="midnightblue" points="866.24,-141.98 869,-131.75 860.46,-138.02 866.24,-141.98"/>
</g>
<!-- Node15 -->
<g id="node15" class="node">
<title>Node15</title>
<g id="a_node15"><a xlink:href="_log_8hpp.html" target="_top" xlink:title=" ">
<polygon fill="white" stroke="black" points="352,-168.5 352,-187.5 516,-187.5 516,-168.5 352,-168.5"/>
<text text-anchor="middle" x="434" y="-175.5" font-family="Helvetica,sans-Serif" font-size="10.00">Liger&#45;Engine/Core/Log/Log.hpp</text>
</a>
</g>
</g>
<!-- Node14&#45;&gt;Node15 -->
<g id="edge14" class="edge">
<title>Node14&#45;&gt;Node15</title>
<path fill="none" stroke="midnightblue" d="M91.41,-280.08C87.96,-266.14 83.83,-239.23 98,-224 130.14,-189.47 253.8,-180.54 341.75,-178.69"/>
<polygon fill="midnightblue" stroke="midnightblue" points="341.82,-182.19 351.75,-178.5 341.69,-175.19 341.82,-182.19"/>
</g>
<!-- Node16 -->
<g id="node16" class="node">
<title>Node16</title>
<g id="a_node16"><a xlink:href="_message_8hpp.html" target="_top" xlink:title=" ">
<polygon fill="white" stroke="black" points="524.5,-56.5 524.5,-75.5 715.5,-75.5 715.5,-56.5 524.5,-56.5"/>
<text text-anchor="middle" x="620" y="-63.5" font-family="Helvetica,sans-Serif" font-size="10.00">Liger&#45;Engine/Core/Log/Message.hpp</text>
</a>
</g>
</g>
<!-- Node15&#45;&gt;Node16 -->
<g id="edge15" class="edge">
<title>Node15&#45;&gt;Node16</title>
<path fill="none" stroke="midnightblue" d="M516.25,-171.52C546.33,-165.59 578.47,-154.06 601,-132 613.2,-120.06 617.67,-100.75 619.26,-86.28"/>
<polygon fill="midnightblue" stroke="midnightblue" points="622.78,-86.17 620,-75.94 615.79,-85.66 622.78,-86.17"/>
</g>
<!-- Node18 -->
<g id="node18" class="node">
<title>Node18</title>
<g id="a_node18"><a xlink:href="_writer_8hpp.html" target="_top" xlink:title=" ">
<polygon fill="white" stroke="black" points="416,-112.5 416,-131.5 592,-131.5 592,-112.5 416,-112.5"/>
<text text-anchor="middle" x="504" y="-119.5" font-family="Helvetica,sans-Serif" font-size="10.00">Liger&#45;Engine/Core/Log/Writer.hpp</text>
</a>
</g>
</g>
<!-- Node15&#45;&gt;Node18 -->
<g id="edge19" class="edge">
<title>Node15&#45;&gt;Node18</title>
<path fill="none" stroke="midnightblue" d="M445.25,-168.32C455.8,-160.18 471.8,-147.84 484.44,-138.09"/>
<polygon fill="midnightblue" stroke="midnightblue" points="486.77,-140.71 492.55,-131.83 482.49,-135.17 486.77,-140.71"/>
</g>
<!-- Node19 -->
<g id="node19" class="node">
<title>Node19</title>
<g id="a_node19"><a xlink:title=" ">
<polygon fill="white" stroke="#bfbfbf" points="330.5,-112.5 330.5,-131.5 397.5,-131.5 397.5,-112.5 330.5,-112.5"/>
<text text-anchor="middle" x="364" y="-119.5" font-family="Helvetica,sans-Serif" font-size="10.00">fmt/core.h</text>
</a>
</g>
</g>
<!-- Node15&#45;&gt;Node19 -->
<g id="edge21" class="edge">
<title>Node15&#45;&gt;Node19</title>
<path fill="none" stroke="midnightblue" d="M422.75,-168.32C412.2,-160.18 396.2,-147.84 383.56,-138.09"/>
<polygon fill="midnightblue" stroke="midnightblue" points="385.51,-135.17 375.45,-131.83 381.23,-140.71 385.51,-135.17"/>
</g>
<!-- Node20 -->
<g id="node20" class="node">
<title>Node20</title>
<g id="a_node20"><a xlink:title=" ">
<polygon fill="white" stroke="#bfbfbf" points="658.5,-112.5 658.5,-131.5 705.5,-131.5 705.5,-112.5 658.5,-112.5"/>
<text text-anchor="middle" x="682" y="-119.5" font-family="Helvetica,sans-Serif" font-size="10.00">vector</text>
</a>
</g>
</g>
<!-- Node15&#45;&gt;Node20 -->
<g id="edge22" class="edge">
<title>Node15&#45;&gt;Node20</title>
<path fill="none" stroke="midnightblue" d="M473.3,-168.44C521.57,-157.93 602.66,-140.28 648.25,-130.35"/>
<polygon fill="midnightblue" stroke="midnightblue" points="649.2,-133.72 658.22,-128.18 647.71,-126.88 649.2,-133.72"/>
</g>
<!-- Node16&#45;&gt;Node7 -->
<g id="edge16" class="edge">
<title>Node16&#45;&gt;Node7</title>
<path fill="none" stroke="midnightblue" d="M636.39,-56.32C652.67,-47.7 677.87,-34.36 696.72,-24.39"/>
<polygon fill="midnightblue" stroke="midnightblue" points="698.45,-27.43 705.65,-19.65 695.18,-21.24 698.45,-27.43"/>
</g>
<!-- Node16&#45;&gt;Node13 -->
<g id="edge17" class="edge">
<title>Node16&#45;&gt;Node13</title>
<path fill="none" stroke="midnightblue" d="M681.8,-56.44C765.82,-44.81 913.06,-24.42 977.85,-15.45"/>
<polygon fill="midnightblue" stroke="midnightblue" points="978.46,-18.9 987.88,-14.06 977.5,-11.97 978.46,-18.9"/>
</g>
<!-- Node17 -->
<g id="node17" class="node">
<title>Node17</title>
<g id="a_node17"><a xlink:title=" ">
<polygon fill="white" stroke="#bfbfbf" points="583.5,-0.5 583.5,-19.5 656.5,-19.5 656.5,-0.5 583.5,-0.5"/>
<text text-anchor="middle" x="620" y="-7.5" font-family="Helvetica,sans-Serif" font-size="10.00">string_view</text>
</a>
</g>
</g>
<!-- Node16&#45;&gt;Node17 -->
<g id="edge18" class="edge">
<title>Node16&#45;&gt;Node17</title>
<path fill="none" stroke="midnightblue" d="M620,-56.08C620,-49.01 620,-38.86 620,-29.99"/>
<polygon fill="midnightblue" stroke="midnightblue" points="623.5,-29.75 620,-19.75 616.5,-29.75 623.5,-29.75"/>
</g>
<!-- Node18&#45;&gt;Node16 -->
<g id="edge20" class="edge">
<title>Node18&#45;&gt;Node16</title>
<path fill="none" stroke="midnightblue" d="M522.38,-112.44C541.22,-103.68 570.73,-89.94 592.38,-79.86"/>
<polygon fill="midnightblue" stroke="midnightblue" points="594.12,-82.91 601.71,-75.52 591.16,-76.56 594.12,-82.91"/>
</g>
<!-- Node21&#45;&gt;Node4 -->
<g id="edge24" class="edge">
<title>Node21&#45;&gt;Node4</title>
<path fill="none" stroke="midnightblue" d="M889.91,-280.32C879.51,-272.18 863.74,-259.84 851.28,-250.09"/>
<polygon fill="midnightblue" stroke="midnightblue" points="853.32,-247.24 843.29,-243.83 849.01,-252.75 853.32,-247.24"/>
</g>
<!-- Node21&#45;&gt;Node10 -->
<g id="edge25" class="edge">
<title>Node21&#45;&gt;Node10</title>
<path fill="none" stroke="midnightblue" d="M934.75,-280.44C971.52,-271.12 1030.45,-256.18 1070.62,-246"/>
<polygon fill="midnightblue" stroke="midnightblue" points="1071.57,-249.37 1080.41,-243.52 1069.85,-242.58 1071.57,-249.37"/>
</g>
<!-- Node21&#45;&gt;Node12 -->
<g id="edge26" class="edge">
<title>Node21&#45;&gt;Node12</title>
<path fill="none" stroke="midnightblue" d="M923.5,-280.44C948.05,-271.11 987.41,-256.14 1014.2,-245.95"/>
<polygon fill="midnightblue" stroke="midnightblue" points="1015.69,-249.13 1023.79,-242.3 1013.2,-242.59 1015.69,-249.13"/>
</g>
<!-- Node22 -->
<g id="node22" class="node">
<title>Node22</title>
<g id="a_node22"><a xlink:title=" ">
<polygon fill="white" stroke="#bfbfbf" points="506.5,-224.5 506.5,-243.5 599.5,-243.5 599.5,-224.5 506.5,-224.5"/>
<text text-anchor="middle" x="553" y="-231.5" font-family="Helvetica,sans-Serif" font-size="10.00">unordered_map</text>
</a>
</g>
</g>
<!-- Node21&#45;&gt;Node22 -->
<g id="edge27" class="edge">
<title>Node21&#45;&gt;Node22</title>
<path fill="none" stroke="midnightblue" d="M845.86,-280.44C781.28,-270.42 674.85,-253.91 609.63,-243.79"/>
<polygon fill="midnightblue" stroke="midnightblue" points="609.95,-240.3 599.53,-242.22 608.88,-247.21 609.95,-240.3"/>
</g>
<!-- Node23 -->
<g id="node23" class="node">
<title>Node23</title>
<g id="a_node23"><a xlink:title=" ">
<polygon fill="white" stroke="#bfbfbf" points="920,-224.5 920,-243.5 1006,-243.5 1006,-224.5 920,-224.5"/>
<text text-anchor="middle" x="963" y="-231.5" font-family="Helvetica,sans-Serif" font-size="10.00">unordered_set</text>
</a>
</g>
</g>
<!-- Node21&#45;&gt;Node23 -->
<g id="edge28" class="edge">
<title>Node21&#45;&gt;Node23</title>
<path fill="none" stroke="midnightblue" d="M910.96,-280.32C920.13,-272.34 933.94,-260.31 945.03,-250.65"/>
<polygon fill="midnightblue" stroke="midnightblue" points="947.62,-253.04 952.86,-243.83 943.02,-247.76 947.62,-253.04"/>
</g>
<!-- Node24&#45;&gt;Node4 -->
<g id="edge30" class="edge">
<title>Node24&#45;&gt;Node4</title>
<path fill="none" stroke="midnightblue" d="M718.01,-336.43C731.58,-327.88 752.46,-314.02 769,-300 787.07,-284.68 805.7,-264.87 817.96,-251.17"/>
<polygon fill="midnightblue" stroke="midnightblue" points="820.72,-253.33 824.72,-243.52 815.48,-248.7 820.72,-253.33"/>
</g>
<!-- Node25 -->
<g id="node25" class="node">
<title>Node25</title>
<g id="a_node25"><a xlink:href="_ref_count_storage_8hpp.html" target="_top" xlink:title=" ">
<polygon fill="white" stroke="black" points="494.5,-280.5 494.5,-299.5 759.5,-299.5 759.5,-280.5 494.5,-280.5"/>
<text text-anchor="middle" x="627" y="-287.5" font-family="Helvetica,sans-Serif" font-size="10.00">Liger&#45;Engine/Core/Containers/RefCountStorage.hpp</text>
</a>
</g>
</g>
<!-- Node24&#45;&gt;Node25 -->
<g id="edge31" class="edge">
<title>Node24&#45;&gt;Node25</title>
<path fill="none" stroke="midnightblue" d="M691.63,-336.32C679.84,-328.06 661.87,-315.45 647.86,-305.63"/>
<polygon fill="midnightblue" stroke="midnightblue" points="649.54,-302.53 639.34,-299.65 645.52,-308.26 649.54,-302.53"/>
</g>
<!-- Node28 -->
<g id="node28" class="node">
<title>Node28</title>
<g id="a_node28"><a xlink:href="_type_map_8hpp.html" target="_top" xlink:title=" ">
<polygon fill="white" stroke="black" points="235,-280.5 235,-299.5 461,-299.5 461,-280.5 235,-280.5"/>
<text text-anchor="middle" x="348" y="-287.5" font-family="Helvetica,sans-Serif" font-size="10.00">Liger&#45;Engine/Core/Containers/TypeMap.hpp</text>
</a>
</g>
</g>
<!-- Node24&#45;&gt;Node28 -->
<g id="edge38" class="edge">
<title>Node24&#45;&gt;Node28</title>
<path fill="none" stroke="midnightblue" d="M647.59,-336.44C584.19,-326.83 481.35,-311.23 414.2,-301.04"/>
<polygon fill="midnightblue" stroke="midnightblue" points="414.56,-297.56 404.15,-299.52 413.51,-304.48 414.56,-297.56"/>
</g>
<!-- Node25&#45;&gt;Node15 -->
<g id="edge32" class="edge">
<title>Node25&#45;&gt;Node15</title>
<path fill="none" stroke="midnightblue" d="M627.04,-280.49C626.62,-266.64 623.7,-239.22 608,-224 586.06,-202.73 555.44,-191.15 526,-184.96"/>
<polygon fill="midnightblue" stroke="midnightblue" points="526.55,-181.5 516.07,-183.06 525.23,-188.38 526.55,-181.5"/>
</g>
<!-- Node25&#45;&gt;Node20 -->
<g id="edge37" class="edge">
<title>Node25&#45;&gt;Node20</title>
<path fill="none" stroke="midnightblue" d="M662.85,-280.4C681.88,-273.81 703.63,-262.59 715,-244 735.45,-210.57 710.83,-164.33 694.41,-139.82"/>
<polygon fill="midnightblue" stroke="midnightblue" points="697.23,-137.75 688.62,-131.56 691.49,-141.76 697.23,-137.75"/>
</g>
<!-- Node25&#45;&gt;Node22 -->
<g id="edge36" class="edge">
<title>Node25&#45;&gt;Node22</title>
<path fill="none" stroke="midnightblue" d="M615.11,-280.32C603.85,-272.11 586.71,-259.6 573.29,-249.81"/>
<polygon fill="midnightblue" stroke="midnightblue" points="575.25,-246.9 565.11,-243.83 571.12,-252.56 575.25,-246.9"/>
</g>
<!-- Node26 -->
<g id="node26" class="node">
<title>Node26</title>
<g id="a_node26"><a xlink:href="_core_2_log_channel_8hpp.html" target="_top" xlink:title=" ">
<polygon fill="white" stroke="black" points="304,-224.5 304,-243.5 488,-243.5 488,-224.5 304,-224.5"/>
<text text-anchor="middle" x="396" y="-231.5" font-family="Helvetica,sans-Serif" font-size="10.00">Liger&#45;Engine/Core/LogChannel.hpp</text>
</a>
</g>
</g>
<!-- Node25&#45;&gt;Node26 -->
<g id="edge33" class="edge">
<title>Node25&#45;&gt;Node26</title>
<path fill="none" stroke="midnightblue" d="M590.4,-280.44C550.27,-271.06 485.8,-255.99 442.22,-245.8"/>
<polygon fill="midnightblue" stroke="midnightblue" points="442.97,-242.38 432.43,-243.52 441.37,-249.2 442.97,-242.38"/>
</g>
<!-- Node27 -->
<g id="node27" class="node">
<title>Node27</title>
<g id="a_node27"><a xlink:title=" ">
<polygon fill="white" stroke="#bfbfbf" points="656,-224.5 656,-243.5 706,-243.5 706,-224.5 656,-224.5"/>
<text text-anchor="middle" x="681" y="-231.5" font-family="Helvetica,sans-Serif" font-size="10.00">atomic</text>
</a>
</g>
</g>
<!-- Node25&#45;&gt;Node27 -->
<g id="edge35" class="edge">
<title>Node25&#45;&gt;Node27</title>
<path fill="none" stroke="midnightblue" d="M635.92,-280.08C643.78,-272.22 655.43,-260.57 664.92,-251.08"/>
<polygon fill="midnightblue" stroke="midnightblue" points="667.65,-253.3 672.25,-243.75 662.7,-248.35 667.65,-253.3"/>
</g>
<!-- Node26&#45;&gt;Node15 -->
<g id="edge34" class="edge">
<title>Node26&#45;&gt;Node15</title>
<path fill="none" stroke="midnightblue" d="M402.27,-224.08C407.64,-216.46 415.52,-205.26 422.08,-195.94"/>
<polygon fill="midnightblue" stroke="midnightblue" points="424.95,-197.94 427.84,-187.75 419.22,-193.91 424.95,-197.94"/>
</g>
<!-- Node28&#45;&gt;Node15 -->
<g id="edge39" class="edge">
<title>Node28&#45;&gt;Node15</title>
<path fill="none" stroke="midnightblue" d="M331.99,-280.41C311.33,-268.2 279.75,-244.96 295,-224 306.74,-207.86 324.4,-197.38 343.23,-190.62"/>
<polygon fill="midnightblue" stroke="midnightblue" points="344.42,-193.92 352.85,-187.51 342.26,-187.26 344.42,-193.92"/>
</g>
<!-- Node28&#45;&gt;Node22 -->
<g id="edge43" class="edge">
<title>Node28&#45;&gt;Node22</title>
<path fill="none" stroke="midnightblue" d="M380.48,-280.44C415.72,-271.16 472.1,-256.31 510.76,-246.13"/>
<polygon fill="midnightblue" stroke="midnightblue" points="511.89,-249.45 520.67,-243.52 510.11,-242.68 511.89,-249.45"/>
</g>
<!-- Node28&#45;&gt;Node26 -->
<g id="edge40" class="edge">
<title>Node28&#45;&gt;Node26</title>
<path fill="none" stroke="midnightblue" d="M355.93,-280.08C362.85,-272.3 373.07,-260.8 381.45,-251.37"/>
<polygon fill="midnightblue" stroke="midnightblue" points="384.19,-253.55 388.22,-243.75 378.96,-248.9 384.19,-253.55"/>
</g>
<!-- Node29 -->
<g id="node29" class="node">
<title>Node29</title>
<g id="a_node29"><a xlink:title=" ">
<polygon fill="white" stroke="#bfbfbf" points="182.5,-224.5 182.5,-243.5 247.5,-243.5 247.5,-224.5 182.5,-224.5"/>
<text text-anchor="middle" x="215" y="-231.5" font-family="Helvetica,sans-Serif" font-size="10.00">typeindex</text>
</a>
</g>
</g>
<!-- Node28&#45;&gt;Node29 -->
<g id="edge41" class="edge">
<title>Node28&#45;&gt;Node29</title>
<path fill="none" stroke="midnightblue" d="M326.93,-280.44C304.94,-271.52 270.27,-257.44 245.34,-247.32"/>
<polygon fill="midnightblue" stroke="midnightblue" points="246.56,-244.04 235.98,-243.52 243.92,-250.52 246.56,-244.04"/>
</g>
<!-- Node30 -->
<g id="node30" class="node">
<title>Node30</title>
<g id="a_node30"><a xlink:title=" ">
<polygon fill="white" stroke="#bfbfbf" points="107.5,-224.5 107.5,-243.5 164.5,-243.5 164.5,-224.5 107.5,-224.5"/>
<text text-anchor="middle" x="136" y="-231.5" font-family="Helvetica,sans-Serif" font-size="10.00">typeinfo</text>
</a>
</g>
</g>
<!-- Node28&#45;&gt;Node30 -->
<g id="edge42" class="edge">
<title>Node28&#45;&gt;Node30</title>
<path fill="none" stroke="midnightblue" d="M314.41,-280.44C276.39,-270.76 214.56,-255.01 174.59,-244.83"/>
<polygon fill="midnightblue" stroke="midnightblue" points="175.23,-241.38 164.68,-242.3 173.5,-248.16 175.23,-241.38"/>
</g>
</g>
</svg>
        <g id="navigator" transform="translate(0 0)" fill="#404254">
                <rect fill="#f2f5e9" fill-opacity="0.5" stroke="#606060" stroke-width=".5" x="0" y="0" width="60" height="60"/>
                <use id="zoomplus" xlink:href="#zoomPlus" x="17" y="9" onmousedown="handleZoom(evt,'in')"/>
                <use id="zoomminus" xlink:href="#zoomMin" x="42" y="9" onmousedown="handleZoom(evt,'out')"/>
                <use id="reset" xlink:href="#resetDef" x="30" y="36" onmousedown="handleReset()"/>
                <g id="arrowUp" xlink:href="#dirArrow" transform="translate(30 24)" onmousedown="handlePan(0,-1)">
                  <use xlink:href="#rim" fill="#404040">
                        <set attributeName="fill" to="#808080" begin="arrowUp.mouseover" end="arrowUp.mouseout"/>
                  </use>
                  <path fill="none" stroke="white" stroke-width="1.5" d="M0,-3.0v7 M-2.5,-0.5L0,-3.0L2.5,-0.5"/>
                </g>
                <g id="arrowRight" xlink:href="#dirArrow" transform="rotate(90) translate(36 -43)" onmousedown="handlePan(1,0)">
                  <use xlink:href="#rim" fill="#404040">
                        <set attributeName="fill" to="#808080" begin="arrowRight.mouseover" end="arrowRight.mouseout"/>
                  </use>
                  <path fill="none" stroke="white" stroke-width="1.5" d="M0,-3.0v7 M-2.5,-0.5L0,-3.0L2.5,-0.5"/>
                </g>
                <g id="arrowDown" xlink:href="#dirArrow" transform="rotate(180) translate(-30 -48)" onmousedown="handlePan(0,1)">
                  <use xlink:href="#rim" fill="#404040">
                        <set attributeName="fill" to="#808080" begin="arrowDown.mouseover" end="arrowDown.mouseout"/>
                  </use>
                  <path fill="none" stroke="white" stroke-width="1.5" d="M0,-3.0v7 M-2.5,-0.5L0,-3.0L2.5,-0.5"/>
                </g>
                <g id="arrowLeft" xlink:href="#dirArrow" transform="rotate(270) translate(-36 17)" onmousedown="handlePan(-1,0)">
                  <use xlink:href="#rim" fill="#404040">
                        <set attributeName="fill" to="#808080" begin="arrowLeft.mouseover" end="arrowLeft.mouseout"/>
                  </use>
                  <path fill="none" stroke="white" stroke-width="1.5" d="M0,-3.0v7 M-2.5,-0.5L0,-3.0L2.5,-0.5"/>
                </g>
        </g>
        <svg viewBox="0 0 15 15" width="100%" height="30px" preserveAspectRatio="xMaxYMin meet">
         <g id="arrow_out" transform="scale(0.3 0.3)">
          <a xlink:href="_manager_8hpp__incl_org.svg" target="_base">
           <rect id="button" ry="5" rx="5" y="6" x="6" height="38" width="38"
                fill="#f2f5e9" fill-opacity="0.5" stroke="#606060" stroke-width="1.0"/>
           <path id="arrow"
             d="M 11.500037,31.436501 C 11.940474,20.09759 22.043105,11.32322 32.158766,21.979434 L 37.068811,17.246167 C 37.068811,17.246167 37.088388,32 37.088388,32 L 22.160133,31.978069 C 22.160133,31.978069 26.997745,27.140456 26.997745,27.140456 C 18.528582,18.264221 13.291696,25.230495 11.500037,31.436501 z"
             style="fill:#404040;"/>
          </a>
         </g>
        </svg>
</svg>
