<?xml version="1.0" encoding="UTF-8" standalone="no"?>
<!DOCTYPE svg PUBLIC "-//W3C//DTD SVG 1.1//EN"
 "http://www.w3.org/Graphics/SVG/1.1/DTD/svg11.dtd">
<!-- Generated by graphviz version 2.43.0 (0)
 -->
<!-- Title: Math.hpp Pages: 1 -->
<svg width="869pt" height="140pt"
 viewBox="0.00 0.00 868.50 140.00" xmlns="http://www.w3.org/2000/svg" xmlns:xlink="http://www.w3.org/1999/xlink">
<g id="graph0" class="graph" transform="scale(1 1) rotate(0) translate(4 136)">
<title>Math.hpp</title>
<polygon fill="white" stroke="transparent" points="-4,4 -4,-136 864.5,-136 864.5,4 -4,4"/>
<!-- Node1 -->
<g id="node1" class="node">
<title>Node1</title>
<g id="a_node1"><a xlink:title=" ">
<polygon fill="#bfbfbf" stroke="black" points="293,-112.5 293,-131.5 355,-131.5 355,-112.5 293,-112.5"/>
<text text-anchor="middle" x="324" y="-119.5" font-family="Helvetica,sans-Serif" font-size="10.00">Math.hpp</text>
</a>
</g>
</g>
<!-- Node2 -->
<g id="node2" class="node">
<title>Node2</title>
<g id="a_node2"><a xlink:href="_formatting_8hpp.html" target="_top" xlink:title=" ">
<polygon fill="white" stroke="black" points="0,-56.5 0,-75.5 208,-75.5 208,-56.5 0,-56.5"/>
<text text-anchor="middle" x="104" y="-63.5" font-family="Helvetica,sans-Serif" font-size="10.00">Liger&#45;Engine/Core/Math/Formatting.hpp</text>
</a>
</g>
</g>
<!-- Node1&#45;&gt;Node2 -->
<g id="edge1" class="edge">
<title>Node1&#45;&gt;Node2</title>
<path fill="none" stroke="midnightblue" d="M292.95,-113.38C255.34,-104.15 191.7,-88.53 148.79,-77.99"/>
<polygon fill="midnightblue" stroke="midnightblue" points="149.44,-74.55 138.89,-75.56 147.77,-81.35 149.44,-74.55"/>
</g>
<!-- Node5 -->
<g id="node5" class="node">
<title>Node5</title>
<g id="a_node5"><a xlink:href="_random_8hpp.html" target="_top" xlink:title=" ">
<polygon fill="white" stroke="black" points="226.5,-56.5 226.5,-75.5 421.5,-75.5 421.5,-56.5 226.5,-56.5"/>
<text text-anchor="middle" x="324" y="-63.5" font-family="Helvetica,sans-Serif" font-size="10.00">Liger&#45;Engine/Core/Math/Random.hpp</text>
</a>
</g>
</g>
<!-- Node1&#45;&gt;Node5 -->
<g id="edge4" class="edge">
<title>Node1&#45;&gt;Node5</title>
<path fill="none" stroke="midnightblue" d="M324,-112.08C324,-105.01 324,-94.86 324,-85.99"/>
<polygon fill="midnightblue" stroke="midnightblue" points="327.5,-85.75 324,-75.75 320.5,-85.75 327.5,-85.75"/>
</g>
<!-- Node7 -->
<g id="node7" class="node">
<title>Node7</title>
<g id="a_node7"><a xlink:href="_transform3_d_8hpp.html" target="_top" xlink:title=" ">
<polygon fill="white" stroke="black" points="477.5,-56.5 477.5,-75.5 694.5,-75.5 694.5,-56.5 477.5,-56.5"/>
<text text-anchor="middle" x="586" y="-63.5" font-family="Helvetica,sans-Serif" font-size="10.00">Liger&#45;Engine/Core/Math/Transform3D.hpp</text>
</a>
</g>
</g>
<!-- Node1&#45;&gt;Node7 -->
<g id="edge7" class="edge">
<title>Node1&#45;&gt;Node7</title>
<path fill="none" stroke="midnightblue" d="M355.08,-114.59C399.4,-105.46 481.27,-88.59 534.67,-77.58"/>
<polygon fill="midnightblue" stroke="midnightblue" points="535.53,-80.98 544.62,-75.53 534.12,-74.12 535.53,-80.98"/>
</g>
<!-- Node3 -->
<g id="node3" class="node">
<title>Node3</title>
<g id="a_node3"><a xlink:title=" ">
<polygon fill="white" stroke="#bfbfbf" points="70.5,-0.5 70.5,-19.5 137.5,-19.5 137.5,-0.5 70.5,-0.5"/>
<text text-anchor="middle" x="104" y="-7.5" font-family="Helvetica,sans-Serif" font-size="10.00">fmt/core.h</text>
</a>
</g>
</g>
<!-- Node2&#45;&gt;Node3 -->
<g id="edge2" class="edge">
<title>Node2&#45;&gt;Node3</title>
<path fill="none" stroke="midnightblue" d="M104,-56.08C104,-49.01 104,-38.86 104,-29.99"/>
<polygon fill="midnightblue" stroke="midnightblue" points="107.5,-29.75 104,-19.75 100.5,-29.75 107.5,-29.75"/>
</g>
<!-- Node4 -->
<g id="node4" class="node">
<title>Node4</title>
<g id="a_node4"><a xlink:title=" ">
<polygon fill="white" stroke="#bfbfbf" points="178,-0.5 178,-19.5 256,-19.5 256,-0.5 178,-0.5"/>
<text text-anchor="middle" x="217" y="-7.5" font-family="Helvetica,sans-Serif" font-size="10.00">glm/glm.hpp</text>
</a>
</g>
</g>
<!-- Node2&#45;&gt;Node4 -->
<g id="edge3" class="edge">
<title>Node2&#45;&gt;Node4</title>
<path fill="none" stroke="midnightblue" d="M121.91,-56.44C140.25,-47.68 169.01,-33.94 190.09,-23.86"/>
<polygon fill="midnightblue" stroke="midnightblue" points="191.67,-26.99 199.18,-19.52 188.65,-20.67 191.67,-26.99"/>
</g>
<!-- Node5&#45;&gt;Node4 -->
<g id="edge5" class="edge">
<title>Node5&#45;&gt;Node4</title>
<path fill="none" stroke="midnightblue" d="M306.81,-56.32C289.65,-47.66 263.05,-34.24 243.25,-24.25"/>
<polygon fill="midnightblue" stroke="midnightblue" points="244.65,-21.04 234.15,-19.65 241.5,-27.28 244.65,-21.04"/>
</g>
<!-- Node6 -->
<g id="node6" class="node">
<title>Node6</title>
<g id="a_node6"><a xlink:title=" ">
<polygon fill="white" stroke="#bfbfbf" points="285,-0.5 285,-19.5 339,-19.5 339,-0.5 285,-0.5"/>
<text text-anchor="middle" x="312" y="-7.5" font-family="Helvetica,sans-Serif" font-size="10.00">random</text>
</a>
</g>
</g>
<!-- Node5&#45;&gt;Node6 -->
<g id="edge6" class="edge">
<title>Node5&#45;&gt;Node6</title>
<path fill="none" stroke="midnightblue" d="M322.02,-56.08C320.43,-48.93 318.14,-38.64 316.15,-29.69"/>
<polygon fill="midnightblue" stroke="midnightblue" points="319.53,-28.75 313.94,-19.75 312.7,-30.27 319.53,-28.75"/>
</g>
<!-- Node8 -->
<g id="node8" class="node">
<title>Node8</title>
<g id="a_node8"><a xlink:title=" ">
<polygon fill="white" stroke="#bfbfbf" points="357.5,-0.5 357.5,-19.5 520.5,-19.5 520.5,-0.5 357.5,-0.5"/>
<text text-anchor="middle" x="439" y="-7.5" font-family="Helvetica,sans-Serif" font-size="10.00">glm/gtc/matrix_transform.hpp</text>
</a>
</g>
</g>
<!-- Node7&#45;&gt;Node8 -->
<g id="edge8" class="edge">
<title>Node7&#45;&gt;Node8</title>
<path fill="none" stroke="midnightblue" d="M562.71,-56.44C538.19,-47.44 499.4,-33.19 471.8,-23.05"/>
<polygon fill="midnightblue" stroke="midnightblue" points="472.78,-19.68 462.18,-19.52 470.36,-26.25 472.78,-19.68"/>
</g>
<!-- Node9 -->
<g id="node9" class="node">
<title>Node9</title>
<g id="a_node9"><a xlink:title=" ">
<polygon fill="white" stroke="#bfbfbf" points="539,-0.5 539,-19.5 711,-19.5 711,-0.5 539,-0.5"/>
<text text-anchor="middle" x="625" y="-7.5" font-family="Helvetica,sans-Serif" font-size="10.00">glm/gtx/matrix_decompose.hpp</text>
</a>
</g>
</g>
<!-- Node7&#45;&gt;Node9 -->
<g id="edge9" class="edge">
<title>Node7&#45;&gt;Node9</title>
<path fill="none" stroke="midnightblue" d="M592.44,-56.08C597.95,-48.46 606.03,-37.26 612.76,-27.94"/>
<polygon fill="midnightblue" stroke="midnightblue" points="615.66,-29.91 618.68,-19.75 609.99,-25.81 615.66,-29.91"/>
</g>
<!-- Node10 -->
<g id="node10" class="node">
<title>Node10</title>
<g id="a_node10"><a xlink:title=" ">
<polygon fill="white" stroke="#bfbfbf" points="729.5,-0.5 729.5,-19.5 860.5,-19.5 860.5,-0.5 729.5,-0.5"/>
<text text-anchor="middle" x="795" y="-7.5" font-family="Helvetica,sans-Serif" font-size="10.00">glm/gtx/quaternion.hpp</text>
</a>
</g>
</g>
<!-- Node7&#45;&gt;Node10 -->
<g id="edge10" class="edge">
<title>Node7&#45;&gt;Node10</title>
<path fill="none" stroke="midnightblue" d="M619.12,-56.44C655.12,-47.14 712.77,-32.25 752.19,-22.06"/>
<polygon fill="midnightblue" stroke="midnightblue" points="753.23,-25.41 762.04,-19.52 751.48,-18.63 753.23,-25.41"/>
</g>
</g>
</svg>
