<?xml version="1.0" encoding="UTF-8" standalone="no"?>
<!DOCTYPE svg PUBLIC "-//W3C//DTD SVG 1.1//EN"
 "http://www.w3.org/Graphics/SVG/1.1/DTD/svg11.dtd">
<!-- Generated by graphviz version 2.43.0 (0)
 -->
<!-- Title: Message.hpp Pages: 1 -->
<svg width="526pt" height="420pt"
 viewBox="0.00 0.00 525.50 420.00" xmlns="http://www.w3.org/2000/svg" xmlns:xlink="http://www.w3.org/1999/xlink">
<g id="graph0" class="graph" transform="scale(1 1) rotate(0) translate(4 416)">
<title>Message.hpp</title>
<polygon fill="white" stroke="transparent" points="-4,4 -4,-416 521.5,-416 521.5,4 -4,4"/>
<!-- Node1 -->
<g id="node1" class="node">
<title>Node1</title>
<g id="a_node1"><a xlink:title=" ">
<polygon fill="#bfbfbf" stroke="black" points="228,-392.5 228,-411.5 309,-411.5 309,-392.5 228,-392.5"/>
<text text-anchor="middle" x="268.5" y="-399.5" font-family="Helvetica,sans-Serif" font-size="10.00">Message.hpp</text>
</a>
</g>
</g>
<!-- Node2 -->
<g id="node2" class="node">
<title>Node2</title>
<g id="a_node2"><a xlink:href="_log_8hpp.html" target="_top" xlink:title=" ">
<polygon fill="white" stroke="black" points="210,-280.5 210,-299.5 265,-299.5 265,-280.5 210,-280.5"/>
<text text-anchor="middle" x="237.5" y="-287.5" font-family="Helvetica,sans-Serif" font-size="10.00">Log.hpp</text>
</a>
</g>
</g>
<!-- Node1&#45;&gt;Node2 -->
<g id="edge1" class="edge">
<title>Node1&#45;&gt;Node2</title>
<path fill="none" stroke="midnightblue" d="M263.34,-382.67C256.56,-358.62 244.94,-317.39 239.92,-299.59"/>
<polygon fill="midnightblue" stroke="midnightblue" points="259.99,-383.69 266.07,-392.37 266.72,-381.79 259.99,-383.69"/>
</g>
<!-- Node15 -->
<g id="node15" class="node">
<title>Node15</title>
<g id="a_node15"><a xlink:href="_writer_8hpp.html" target="_top" xlink:title=" ">
<polygon fill="white" stroke="black" points="266,-336.5 266,-355.5 333,-355.5 333,-336.5 266,-336.5"/>
<text text-anchor="middle" x="299.5" y="-343.5" font-family="Helvetica,sans-Serif" font-size="10.00">Writer.hpp</text>
</a>
</g>
</g>
<!-- Node1&#45;&gt;Node15 -->
<g id="edge19" class="edge">
<title>Node1&#45;&gt;Node15</title>
<path fill="none" stroke="midnightblue" d="M278.68,-383.27C283.97,-374.05 290.22,-363.17 294.48,-355.75"/>
<polygon fill="midnightblue" stroke="midnightblue" points="275.56,-381.67 273.62,-392.08 281.63,-385.15 275.56,-381.67"/>
</g>
<!-- Node3 -->
<g id="node3" class="node">
<title>Node3</title>
<g id="a_node3"><a xlink:href="_asset_2_log_channel_8hpp.html" target="_top" xlink:title=" ">
<polygon fill="white" stroke="black" points="0,-224.5 0,-243.5 95,-243.5 95,-224.5 0,-224.5"/>
<text text-anchor="middle" x="47.5" y="-231.5" font-family="Helvetica,sans-Serif" font-size="10.00">LogChannel.hpp</text>
</a>
</g>
</g>
<!-- Node2&#45;&gt;Node3 -->
<g id="edge2" class="edge">
<title>Node2&#45;&gt;Node3</title>
<path fill="none" stroke="midnightblue" d="M199.81,-278.29C163.98,-268.1 110.78,-252.99 77.67,-243.58"/>
<polygon fill="midnightblue" stroke="midnightblue" points="199.3,-281.78 209.87,-281.15 201.21,-275.05 199.3,-281.78"/>
</g>
<!-- Node4 -->
<g id="node4" class="node">
<title>Node4</title>
<g id="a_node4"><a xlink:href="_ref_count_storage_8hpp.html" target="_top" xlink:title=" ">
<polygon fill="white" stroke="black" points="43.5,-168.5 43.5,-187.5 163.5,-187.5 163.5,-168.5 43.5,-168.5"/>
<text text-anchor="middle" x="103.5" y="-175.5" font-family="Helvetica,sans-Serif" font-size="10.00">RefCountStorage.hpp</text>
</a>
</g>
</g>
<!-- Node2&#45;&gt;Node4 -->
<g id="edge3" class="edge">
<title>Node2&#45;&gt;Node4</title>
<path fill="none" stroke="midnightblue" d="M216.24,-274.77C203.8,-266.21 187.95,-254.89 174.5,-244 151.12,-225.07 125.52,-200.62 112.38,-187.78"/>
<polygon fill="midnightblue" stroke="midnightblue" points="214.38,-277.74 224.62,-280.47 218.32,-271.95 214.38,-277.74"/>
</g>
<!-- Node7 -->
<g id="node7" class="node">
<title>Node7</title>
<g id="a_node7"><a xlink:href="_type_map_8hpp.html" target="_top" xlink:title=" ">
<polygon fill="white" stroke="black" points="182,-168.5 182,-187.5 263,-187.5 263,-168.5 182,-168.5"/>
<text text-anchor="middle" x="222.5" y="-175.5" font-family="Helvetica,sans-Serif" font-size="10.00">TypeMap.hpp</text>
</a>
</g>
</g>
<!-- Node2&#45;&gt;Node7 -->
<g id="edge6" class="edge">
<title>Node2&#45;&gt;Node7</title>
<path fill="none" stroke="midnightblue" d="M210.83,-275.22C199.25,-267.7 186.9,-257.2 180.5,-244 170.13,-222.6 194.18,-199.72 210.01,-187.64"/>
<polygon fill="midnightblue" stroke="midnightblue" points="209.05,-278.23 219.42,-280.39 212.66,-272.23 209.05,-278.23"/>
</g>
<!-- Node8 -->
<g id="node8" class="node">
<title>Node8</title>
<g id="a_node8"><a xlink:href="_callback_8hpp.html" target="_top" xlink:title=" ">
<polygon fill="white" stroke="black" points="281.5,-168.5 281.5,-187.5 361.5,-187.5 361.5,-168.5 281.5,-168.5"/>
<text text-anchor="middle" x="321.5" y="-175.5" font-family="Helvetica,sans-Serif" font-size="10.00">Callback.hpp</text>
</a>
</g>
</g>
<!-- Node2&#45;&gt;Node8 -->
<g id="edge8" class="edge">
<title>Node2&#45;&gt;Node8</title>
<path fill="none" stroke="midnightblue" d="M260.95,-274.59C272.29,-266.69 285.37,-256.06 294.5,-244 307.93,-226.27 315.91,-200.9 319.4,-187.71"/>
<polygon fill="midnightblue" stroke="midnightblue" points="258.74,-271.86 252.35,-280.32 262.61,-277.69 258.74,-271.86"/>
</g>
<!-- Node12 -->
<g id="node12" class="node">
<title>Node12</title>
<g id="a_node12"><a xlink:href="_core_2_log_channel_8hpp.html" target="_top" xlink:title=" ">
<polygon fill="white" stroke="black" points="190,-224.5 190,-243.5 285,-243.5 285,-224.5 190,-224.5"/>
<text text-anchor="middle" x="237.5" y="-231.5" font-family="Helvetica,sans-Serif" font-size="10.00">LogChannel.hpp</text>
</a>
</g>
</g>
<!-- Node2&#45;&gt;Node12 -->
<g id="edge12" class="edge">
<title>Node2&#45;&gt;Node12</title>
<path fill="none" stroke="midnightblue" d="M237.5,-269.8C237.5,-260.91 237.5,-250.78 237.5,-243.75"/>
<polygon fill="midnightblue" stroke="midnightblue" points="234,-270.08 237.5,-280.08 241,-270.08 234,-270.08"/>
</g>
<!-- Node13 -->
<g id="node13" class="node">
<title>Node13</title>
<g id="a_node13"><a xlink:href="_r_h_i_2_log_channel_8hpp.html" target="_top" xlink:title=" ">
<polygon fill="white" stroke="black" points="342,-224.5 342,-243.5 437,-243.5 437,-224.5 342,-224.5"/>
<text text-anchor="middle" x="389.5" y="-231.5" font-family="Helvetica,sans-Serif" font-size="10.00">LogChannel.hpp</text>
</a>
</g>
</g>
<!-- Node2&#45;&gt;Node13 -->
<g id="edge16" class="edge">
<title>Node2&#45;&gt;Node13</title>
<path fill="none" stroke="midnightblue" d="M271.17,-277.04C299.77,-266.88 340.11,-252.55 365.53,-243.52"/>
<polygon fill="midnightblue" stroke="midnightblue" points="269.84,-273.8 261.58,-280.44 272.18,-280.39 269.84,-273.8"/>
</g>
<!-- Node14 -->
<g id="node14" class="node">
<title>Node14</title>
<g id="a_node14"><a xlink:href="_shader_alignment_8hpp.html" target="_top" xlink:title=" ">
<polygon fill="white" stroke="black" points="395.5,-168.5 395.5,-187.5 517.5,-187.5 517.5,-168.5 395.5,-168.5"/>
<text text-anchor="middle" x="456.5" y="-175.5" font-family="Helvetica,sans-Serif" font-size="10.00">ShaderAlignment.hpp</text>
</a>
</g>
</g>
<!-- Node2&#45;&gt;Node14 -->
<g id="edge18" class="edge">
<title>Node2&#45;&gt;Node14</title>
<path fill="none" stroke="midnightblue" d="M275.16,-280.11C353.98,-265.59 394.87,-298.47 446.5,-244 460.95,-228.75 459.79,-201.84 458,-187.91"/>
<polygon fill="midnightblue" stroke="midnightblue" points="274.45,-276.68 265.36,-282.12 275.86,-283.54 274.45,-276.68"/>
</g>
<!-- Node5 -->
<g id="node5" class="node">
<title>Node5</title>
<g id="a_node5"><a xlink:href="_storage_8hpp.html" target="_top" xlink:title=" ">
<polygon fill="white" stroke="black" points="117,-112.5 117,-131.5 192,-131.5 192,-112.5 117,-112.5"/>
<text text-anchor="middle" x="154.5" y="-119.5" font-family="Helvetica,sans-Serif" font-size="10.00">Storage.hpp</text>
</a>
</g>
</g>
<!-- Node4&#45;&gt;Node5 -->
<g id="edge4" class="edge">
<title>Node4&#45;&gt;Node5</title>
<path fill="none" stroke="midnightblue" d="M118.88,-160.72C127.87,-151.2 138.86,-139.56 146.24,-131.75"/>
<polygon fill="midnightblue" stroke="midnightblue" points="116.24,-158.41 111.92,-168.08 121.33,-163.22 116.24,-158.41"/>
</g>
<!-- Node6 -->
<g id="node6" class="node">
<title>Node6</title>
<g id="a_node6"><a xlink:href="_manager_8hpp.html" target="_top" xlink:title=" ">
<polygon fill="white" stroke="black" points="114.5,-56.5 114.5,-75.5 194.5,-75.5 194.5,-56.5 114.5,-56.5"/>
<text text-anchor="middle" x="154.5" y="-63.5" font-family="Helvetica,sans-Serif" font-size="10.00">Manager.hpp</text>
</a>
</g>
</g>
<!-- Node5&#45;&gt;Node6 -->
<g id="edge5" class="edge">
<title>Node5&#45;&gt;Node6</title>
<path fill="none" stroke="midnightblue" d="M154.5,-101.8C154.5,-92.91 154.5,-82.78 154.5,-75.75"/>
<polygon fill="midnightblue" stroke="midnightblue" points="151,-102.08 154.5,-112.08 158,-102.08 151,-102.08"/>
</g>
<!-- Node7&#45;&gt;Node5 -->
<g id="edge7" class="edge">
<title>Node7&#45;&gt;Node5</title>
<path fill="none" stroke="midnightblue" d="M203.74,-162.1C191.5,-152.38 175.94,-140.03 165.62,-131.83"/>
<polygon fill="midnightblue" stroke="midnightblue" points="201.57,-164.85 211.57,-168.32 205.92,-159.36 201.57,-164.85"/>
</g>
<!-- Node9 -->
<g id="node9" class="node">
<title>Node9</title>
<g id="a_node9"><a xlink:href="_event_sink_8hpp.html" target="_top" xlink:title=" ">
<polygon fill="white" stroke="black" points="278.5,-112.5 278.5,-131.5 364.5,-131.5 364.5,-112.5 278.5,-112.5"/>
<text text-anchor="middle" x="321.5" y="-119.5" font-family="Helvetica,sans-Serif" font-size="10.00">EventSink.hpp</text>
</a>
</g>
</g>
<!-- Node8&#45;&gt;Node9 -->
<g id="edge9" class="edge">
<title>Node8&#45;&gt;Node9</title>
<path fill="none" stroke="midnightblue" d="M321.5,-157.8C321.5,-148.91 321.5,-138.78 321.5,-131.75"/>
<polygon fill="midnightblue" stroke="midnightblue" points="318,-158.08 321.5,-168.08 325,-158.08 318,-158.08"/>
</g>
<!-- Node10 -->
<g id="node10" class="node">
<title>Node10</title>
<g id="a_node10"><a xlink:href="_event_dispatcher_8hpp.html" target="_top" xlink:title=" ">
<polygon fill="white" stroke="black" points="263,-56.5 263,-75.5 380,-75.5 380,-56.5 263,-56.5"/>
<text text-anchor="middle" x="321.5" y="-63.5" font-family="Helvetica,sans-Serif" font-size="10.00">EventDispatcher.hpp</text>
</a>
</g>
</g>
<!-- Node9&#45;&gt;Node10 -->
<g id="edge10" class="edge">
<title>Node9&#45;&gt;Node10</title>
<path fill="none" stroke="midnightblue" d="M321.5,-101.8C321.5,-92.91 321.5,-82.78 321.5,-75.75"/>
<polygon fill="midnightblue" stroke="midnightblue" points="318,-102.08 321.5,-112.08 325,-102.08 318,-102.08"/>
</g>
<!-- Node11 -->
<g id="node11" class="node">
<title>Node11</title>
<g id="a_node11"><a xlink:href="_platform_layer_8hpp.html" target="_top" xlink:title=" ">
<polygon fill="white" stroke="black" points="268.5,-0.5 268.5,-19.5 374.5,-19.5 374.5,-0.5 268.5,-0.5"/>
<text text-anchor="middle" x="321.5" y="-7.5" font-family="Helvetica,sans-Serif" font-size="10.00">PlatformLayer.hpp</text>
</a>
</g>
</g>
<!-- Node10&#45;&gt;Node11 -->
<g id="edge11" class="edge">
<title>Node10&#45;&gt;Node11</title>
<path fill="none" stroke="midnightblue" d="M321.5,-45.8C321.5,-36.91 321.5,-26.78 321.5,-19.75"/>
<polygon fill="midnightblue" stroke="midnightblue" points="318,-46.08 321.5,-56.08 325,-46.08 318,-46.08"/>
</g>
<!-- Node12&#45;&gt;Node4 -->
<g id="edge13" class="edge">
<title>Node12&#45;&gt;Node4</title>
<path fill="none" stroke="midnightblue" d="M206.82,-220.64C181.68,-210.5 146.75,-196.43 124.63,-187.52"/>
<polygon fill="midnightblue" stroke="midnightblue" points="205.68,-223.95 216.27,-224.44 208.3,-217.46 205.68,-223.95"/>
</g>
<!-- Node12&#45;&gt;Node7 -->
<g id="edge14" class="edge">
<title>Node12&#45;&gt;Node7</title>
<path fill="none" stroke="midnightblue" d="M232.33,-214.4C229.82,-205.36 226.93,-194.94 224.93,-187.75"/>
<polygon fill="midnightblue" stroke="midnightblue" points="228.97,-215.38 235.02,-224.08 235.72,-213.51 228.97,-215.38"/>
</g>
<!-- Node12&#45;&gt;Node8 -->
<g id="edge15" class="edge">
<title>Node12&#45;&gt;Node8</title>
<path fill="none" stroke="midnightblue" d="M259.43,-218.9C274.84,-209 294.95,-196.07 308.04,-187.65"/>
<polygon fill="midnightblue" stroke="midnightblue" points="257.52,-215.97 251,-224.32 261.3,-221.86 257.52,-215.97"/>
</g>
<!-- Node13&#45;&gt;Node14 -->
<g id="edge17" class="edge">
<title>Node13&#45;&gt;Node14</title>
<path fill="none" stroke="midnightblue" d="M408.33,-217.82C420.34,-208.15 435.47,-195.95 445.54,-187.83"/>
<polygon fill="midnightblue" stroke="midnightblue" points="405.85,-215.32 400.26,-224.32 410.25,-220.77 405.85,-215.32"/>
</g>
<!-- Node15&#45;&gt;Node2 -->
<g id="edge21" class="edge">
<title>Node15&#45;&gt;Node2</title>
<path fill="none" stroke="midnightblue" d="M281.75,-329.54C270.69,-319.91 256.87,-307.87 247.64,-299.83"/>
<polygon fill="midnightblue" stroke="midnightblue" points="279.7,-332.4 289.54,-336.32 284.3,-327.12 279.7,-332.4"/>
</g>
<!-- Node16 -->
<g id="node16" class="node">
<title>Node16</title>
<g id="a_node16"><a xlink:href="_console_writer_8hpp.html" target="_top" xlink:title=" ">
<polygon fill="white" stroke="black" points="283.5,-280.5 283.5,-299.5 389.5,-299.5 389.5,-280.5 283.5,-280.5"/>
<text text-anchor="middle" x="336.5" y="-287.5" font-family="Helvetica,sans-Serif" font-size="10.00">ConsoleWriter.hpp</text>
</a>
</g>
</g>
<!-- Node15&#45;&gt;Node16 -->
<g id="edge20" class="edge">
<title>Node15&#45;&gt;Node16</title>
<path fill="none" stroke="midnightblue" d="M311.45,-327.57C317.81,-318.27 325.37,-307.25 330.5,-299.75"/>
<polygon fill="midnightblue" stroke="midnightblue" points="308.37,-325.86 305.61,-336.08 314.15,-329.81 308.37,-325.86"/>
</g>
</g>
</svg>
