<?xml version="1.0" encoding="UTF-8" standalone="no"?>
<!DOCTYPE svg PUBLIC "-//W3C//DTD SVG 1.1//EN"
 "http://www.w3.org/Graphics/SVG/1.1/DTD/svg11.dtd">
<!-- Generated by graphviz version 2.43.0 (0)
 -->
<!-- Title: Pipeline.hpp Pages: 1 -->
<svg width="1099pt" height="308pt"
 viewBox="0.00 0.00 1099.00 308.00" xmlns="http://www.w3.org/2000/svg" xmlns:xlink="http://www.w3.org/1999/xlink">
<g id="graph0" class="graph" transform="scale(1 1) rotate(0) translate(4 304)">
<title>Pipeline.hpp</title>
<polygon fill="white" stroke="transparent" points="-4,4 -4,-304 1095,-304 1095,4 -4,4"/>
<!-- Node1 -->
<g id="node1" class="node">
<title>Node1</title>
<g id="a_node1"><a xlink:title=" ">
<polygon fill="#bfbfbf" stroke="black" points="642.5,-280.5 642.5,-299.5 719.5,-299.5 719.5,-280.5 642.5,-280.5"/>
<text text-anchor="middle" x="681" y="-287.5" font-family="Helvetica,sans-Serif" font-size="10.00">Pipeline.hpp</text>
</a>
</g>
</g>
<!-- Node2 -->
<g id="node2" class="node">
<title>Node2</title>
<g id="a_node2"><a xlink:href="_device_8hpp.html" target="_top" xlink:title=" ">
<polygon fill="white" stroke="black" points="523.5,-224.5 523.5,-243.5 594.5,-243.5 594.5,-224.5 523.5,-224.5"/>
<text text-anchor="middle" x="559" y="-231.5" font-family="Helvetica,sans-Serif" font-size="10.00">Device.hpp</text>
</a>
</g>
</g>
<!-- Node1&#45;&gt;Node2 -->
<g id="edge1" class="edge">
<title>Node1&#45;&gt;Node2</title>
<path fill="none" stroke="midnightblue" d="M652.46,-276.37C629.61,-266.26 598.19,-252.35 578.24,-243.52"/>
<polygon fill="midnightblue" stroke="midnightblue" points="651.11,-279.6 661.67,-280.44 653.94,-273.2 651.11,-279.6"/>
</g>
<!-- Node18 -->
<g id="node18" class="node">
<title>Node18</title>
<g id="a_node18"><a xlink:href="_declaration_8hpp.html" target="_top" xlink:title=" ">
<polygon fill="white" stroke="black" points="801,-224.5 801,-243.5 895,-243.5 895,-224.5 801,-224.5"/>
<text text-anchor="middle" x="848" y="-231.5" font-family="Helvetica,sans-Serif" font-size="10.00">Declaration.hpp</text>
</a>
</g>
</g>
<!-- Node1&#45;&gt;Node18 -->
<g id="edge25" class="edge">
<title>Node1&#45;&gt;Node18</title>
<path fill="none" stroke="midnightblue" d="M717.17,-277.3C748.64,-267.13 793.49,-252.62 821.66,-243.52"/>
<polygon fill="midnightblue" stroke="midnightblue" points="715.9,-274.04 707.46,-280.44 718.05,-280.7 715.9,-274.04"/>
</g>
<!-- Node3 -->
<g id="node3" class="node">
<title>Node3</title>
<g id="a_node3"><a xlink:href="_feature_8hpp.html" target="_top" xlink:title=" ">
<polygon fill="white" stroke="black" points="441,-112.5 441,-131.5 515,-131.5 515,-112.5 441,-112.5"/>
<text text-anchor="middle" x="478" y="-119.5" font-family="Helvetica,sans-Serif" font-size="10.00">Feature.hpp</text>
</a>
</g>
</g>
<!-- Node2&#45;&gt;Node3 -->
<g id="edge2" class="edge">
<title>Node2&#45;&gt;Node3</title>
<path fill="none" stroke="midnightblue" d="M513.2,-228.83C486.22,-223.74 454.11,-212.55 437,-188 423.27,-168.3 449.12,-144.17 465.67,-131.58"/>
<polygon fill="midnightblue" stroke="midnightblue" points="512.81,-232.31 523.24,-230.49 513.95,-225.4 512.81,-232.31"/>
</g>
<!-- Node11 -->
<g id="node11" class="node">
<title>Node11</title>
<g id="a_node11"><a xlink:href="_layer_8hpp.html" target="_top" xlink:title=" ">
<polygon fill="white" stroke="black" points="446,-168.5 446,-187.5 510,-187.5 510,-168.5 446,-168.5"/>
<text text-anchor="middle" x="478" y="-175.5" font-family="Helvetica,sans-Serif" font-size="10.00">Layer.hpp</text>
</a>
</g>
</g>
<!-- Node2&#45;&gt;Node11 -->
<g id="edge10" class="edge">
<title>Node2&#45;&gt;Node11</title>
<path fill="none" stroke="midnightblue" d="M537.43,-218.62C522.64,-208.76 503.49,-195.99 490.98,-187.65"/>
<polygon fill="midnightblue" stroke="midnightblue" points="535.72,-221.69 545.99,-224.32 539.61,-215.86 535.72,-221.69"/>
</g>
<!-- Node12 -->
<g id="node12" class="node">
<title>Node12</title>
<g id="a_node12"><a xlink:href="_view_8hpp.html" target="_top" xlink:title=" ">
<polygon fill="white" stroke="black" points="528.5,-168.5 528.5,-187.5 589.5,-187.5 589.5,-168.5 528.5,-168.5"/>
<text text-anchor="middle" x="559" y="-175.5" font-family="Helvetica,sans-Serif" font-size="10.00">View.hpp</text>
</a>
</g>
</g>
<!-- Node2&#45;&gt;Node12 -->
<g id="edge12" class="edge">
<title>Node2&#45;&gt;Node12</title>
<path fill="none" stroke="midnightblue" d="M559,-213.8C559,-204.91 559,-194.78 559,-187.75"/>
<polygon fill="midnightblue" stroke="midnightblue" points="555.5,-214.08 559,-224.08 562.5,-214.08 555.5,-214.08"/>
</g>
<!-- Node13 -->
<g id="node13" class="node">
<title>Node13</title>
<g id="a_node13"><a xlink:href="_instance_8hpp.html" target="_top" xlink:title=" ">
<polygon fill="white" stroke="black" points="607.5,-168.5 607.5,-187.5 686.5,-187.5 686.5,-168.5 607.5,-168.5"/>
<text text-anchor="middle" x="647" y="-175.5" font-family="Helvetica,sans-Serif" font-size="10.00">Instance.hpp</text>
</a>
</g>
</g>
<!-- Node2&#45;&gt;Node13 -->
<g id="edge13" class="edge">
<title>Node2&#45;&gt;Node13</title>
<path fill="none" stroke="midnightblue" d="M581.98,-218.9C598.11,-209 619.18,-196.07 632.9,-187.65"/>
<polygon fill="midnightblue" stroke="midnightblue" points="579.83,-216.11 573.14,-224.32 583.49,-222.08 579.83,-216.11"/>
</g>
<!-- Node14 -->
<g id="node14" class="node">
<title>Node14</title>
<g id="a_node14"><a xlink:href="_mapped_buffer_8hpp.html" target="_top" xlink:title=" ">
<polygon fill="white" stroke="black" points="280.5,-112.5 280.5,-131.5 385.5,-131.5 385.5,-112.5 280.5,-112.5"/>
<text text-anchor="middle" x="333" y="-119.5" font-family="Helvetica,sans-Serif" font-size="10.00">MappedBuffer.hpp</text>
</a>
</g>
</g>
<!-- Node2&#45;&gt;Node14 -->
<g id="edge14" class="edge">
<title>Node2&#45;&gt;Node14</title>
<path fill="none" stroke="midnightblue" d="M517.74,-221.55C491.87,-213.66 458.2,-202.08 430,-188 396.63,-171.34 361.12,-145.05 343.78,-131.58"/>
<polygon fill="midnightblue" stroke="midnightblue" points="517.02,-224.99 527.6,-224.5 519.02,-218.28 517.02,-224.99"/>
</g>
<!-- Node15 -->
<g id="node15" class="node">
<title>Node15</title>
<g id="a_node15"><a xlink:href="_shader_8hpp.html" target="_top" xlink:title=" ">
<polygon fill="white" stroke="black" points="679.5,-112.5 679.5,-131.5 750.5,-131.5 750.5,-112.5 679.5,-112.5"/>
<text text-anchor="middle" x="715" y="-119.5" font-family="Helvetica,sans-Serif" font-size="10.00">Shader.hpp</text>
</a>
</g>
</g>
<!-- Node2&#45;&gt;Node15 -->
<g id="edge17" class="edge">
<title>Node2&#45;&gt;Node15</title>
<path fill="none" stroke="midnightblue" d="M604.92,-228.83C634.67,-223.78 672.17,-212.62 696,-188 711.04,-172.45 714.28,-145.68 714.91,-131.84"/>
<polygon fill="midnightblue" stroke="midnightblue" points="604.11,-225.41 594.75,-230.38 605.16,-232.33 604.11,-225.41"/>
</g>
<!-- Node4 -->
<g id="node4" class="node">
<title>Node4</title>
<g id="a_node4"><a xlink:href="_bloom_feature_8hpp.html" target="_top" xlink:title=" ">
<polygon fill="white" stroke="black" points="425,-56.5 425,-75.5 531,-75.5 531,-56.5 425,-56.5"/>
<text text-anchor="middle" x="478" y="-63.5" font-family="Helvetica,sans-Serif" font-size="10.00">BloomFeature.hpp</text>
</a>
</g>
</g>
<!-- Node3&#45;&gt;Node4 -->
<g id="edge3" class="edge">
<title>Node3&#45;&gt;Node4</title>
<path fill="none" stroke="midnightblue" d="M478,-101.8C478,-92.91 478,-82.78 478,-75.75"/>
<polygon fill="midnightblue" stroke="midnightblue" points="474.5,-102.08 478,-112.08 481.5,-102.08 474.5,-102.08"/>
</g>
<!-- Node5 -->
<g id="node5" class="node">
<title>Node5</title>
<g id="a_node5"><a xlink:href="_camera_data_collector_8hpp.html" target="_top" xlink:title=" ">
<polygon fill="white" stroke="black" points="0,-56.5 0,-75.5 142,-75.5 142,-56.5 0,-56.5"/>
<text text-anchor="middle" x="71" y="-63.5" font-family="Helvetica,sans-Serif" font-size="10.00">CameraDataCollector.hpp</text>
</a>
</g>
</g>
<!-- Node3&#45;&gt;Node5 -->
<g id="edge4" class="edge">
<title>Node3&#45;&gt;Node5</title>
<path fill="none" stroke="midnightblue" d="M430.52,-114.7C357.4,-105 217.11,-86.39 135.07,-75.5"/>
<polygon fill="midnightblue" stroke="midnightblue" points="430.43,-118.22 440.8,-116.06 431.35,-111.28 430.43,-118.22"/>
</g>
<!-- Node6 -->
<g id="node6" class="node">
<title>Node6</title>
<g id="a_node6"><a xlink:href="_forward_render_feature_8hpp.html" target="_top" xlink:title=" ">
<polygon fill="white" stroke="black" points="549,-56.5 549,-75.5 697,-75.5 697,-56.5 549,-56.5"/>
<text text-anchor="middle" x="623" y="-63.5" font-family="Helvetica,sans-Serif" font-size="10.00">ForwardRenderFeature.hpp</text>
</a>
</g>
</g>
<!-- Node3&#45;&gt;Node6 -->
<g id="edge5" class="edge">
<title>Node3&#45;&gt;Node6</title>
<path fill="none" stroke="midnightblue" d="M510.48,-108.91C537.74,-98.75 575.99,-84.51 600.13,-75.52"/>
<polygon fill="midnightblue" stroke="midnightblue" points="509.13,-105.67 500.98,-112.44 511.57,-112.23 509.13,-105.67"/>
</g>
<!-- Node7 -->
<g id="node7" class="node">
<title>Node7</title>
<g id="a_node7"><a xlink:href="_particle_system_feature_8hpp.html" target="_top" xlink:title=" ">
<polygon fill="white" stroke="black" points="259.5,-56.5 259.5,-75.5 406.5,-75.5 406.5,-56.5 259.5,-56.5"/>
<text text-anchor="middle" x="333" y="-63.5" font-family="Helvetica,sans-Serif" font-size="10.00">ParticleSystemFeature.hpp</text>
</a>
</g>
</g>
<!-- Node3&#45;&gt;Node7 -->
<g id="edge6" class="edge">
<title>Node3&#45;&gt;Node7</title>
<path fill="none" stroke="midnightblue" d="M445.52,-108.91C418.26,-98.75 380.01,-84.51 355.87,-75.52"/>
<polygon fill="midnightblue" stroke="midnightblue" points="444.43,-112.23 455.02,-112.44 446.87,-105.67 444.43,-112.23"/>
</g>
<!-- Node8 -->
<g id="node8" class="node">
<title>Node8</title>
<g id="a_node8"><a xlink:href="_static_mesh_feature_8hpp.html" target="_top" xlink:title=" ">
<polygon fill="white" stroke="black" points="715,-56.5 715,-75.5 843,-75.5 843,-56.5 715,-56.5"/>
<text text-anchor="middle" x="779" y="-63.5" font-family="Helvetica,sans-Serif" font-size="10.00">StaticMeshFeature.hpp</text>
</a>
</g>
</g>
<!-- Node3&#45;&gt;Node8 -->
<g id="edge7" class="edge">
<title>Node3&#45;&gt;Node8</title>
<path fill="none" stroke="midnightblue" d="M525.27,-112.52C581.57,-102.42 675.06,-85.65 731.47,-75.53"/>
<polygon fill="midnightblue" stroke="midnightblue" points="524.44,-109.11 515.21,-114.32 525.67,-116 524.44,-109.11"/>
</g>
<!-- Node9 -->
<g id="node9" class="node">
<title>Node9</title>
<g id="a_node9"><a xlink:href="_tonemap_feature_8hpp.html" target="_top" xlink:title=" ">
<polygon fill="white" stroke="black" points="861.5,-56.5 861.5,-75.5 980.5,-75.5 980.5,-56.5 861.5,-56.5"/>
<text text-anchor="middle" x="921" y="-63.5" font-family="Helvetica,sans-Serif" font-size="10.00">TonemapFeature.hpp</text>
</a>
</g>
</g>
<!-- Node3&#45;&gt;Node9 -->
<g id="edge8" class="edge">
<title>Node3&#45;&gt;Node9</title>
<path fill="none" stroke="midnightblue" d="M525.14,-115.48C596.08,-107.14 734.49,-90.73 852,-76 855,-75.62 858.07,-75.24 861.17,-74.84"/>
<polygon fill="midnightblue" stroke="midnightblue" points="524.7,-112.01 515.17,-116.65 525.51,-118.96 524.7,-112.01"/>
</g>
<!-- Node10 -->
<g id="node10" class="node">
<title>Node10</title>
<g id="a_node10"><a xlink:href="_renderer_8hpp.html" target="_top" xlink:title=" ">
<polygon fill="white" stroke="black" points="160.5,-56.5 160.5,-75.5 241.5,-75.5 241.5,-56.5 160.5,-56.5"/>
<text text-anchor="middle" x="201" y="-63.5" font-family="Helvetica,sans-Serif" font-size="10.00">Renderer.hpp</text>
</a>
</g>
</g>
<!-- Node3&#45;&gt;Node10 -->
<g id="edge9" class="edge">
<title>Node3&#45;&gt;Node10</title>
<path fill="none" stroke="midnightblue" d="M431.09,-111.85C378,-101.51 292.37,-84.81 241.9,-74.97"/>
<polygon fill="midnightblue" stroke="midnightblue" points="430.45,-115.3 440.93,-113.77 431.78,-108.42 430.45,-115.3"/>
</g>
<!-- Node11&#45;&gt;Node3 -->
<g id="edge11" class="edge">
<title>Node11&#45;&gt;Node3</title>
<path fill="none" stroke="midnightblue" d="M478,-157.8C478,-148.91 478,-138.78 478,-131.75"/>
<polygon fill="midnightblue" stroke="midnightblue" points="474.5,-158.08 478,-168.08 481.5,-158.08 474.5,-158.08"/>
</g>
<!-- Node14&#45;&gt;Node5 -->
<g id="edge15" class="edge">
<title>Node14&#45;&gt;Node5</title>
<path fill="none" stroke="midnightblue" d="M281.62,-110.41C232.1,-100.2 158.14,-84.96 112.32,-75.52"/>
<polygon fill="midnightblue" stroke="midnightblue" points="280.98,-113.85 291.49,-112.44 282.4,-107 280.98,-113.85"/>
</g>
<!-- Node14&#45;&gt;Node7 -->
<g id="edge16" class="edge">
<title>Node14&#45;&gt;Node7</title>
<path fill="none" stroke="midnightblue" d="M333,-101.8C333,-92.91 333,-82.78 333,-75.75"/>
<polygon fill="midnightblue" stroke="midnightblue" points="329.5,-102.08 333,-112.08 336.5,-102.08 329.5,-102.08"/>
</g>
<!-- Node15&#45;&gt;Node4 -->
<g id="edge18" class="edge">
<title>Node15&#45;&gt;Node4</title>
<path fill="none" stroke="midnightblue" d="M669.25,-110.58C624.53,-100.39 557.29,-85.06 515.6,-75.57"/>
<polygon fill="midnightblue" stroke="midnightblue" points="668.73,-114.05 679.26,-112.86 670.29,-107.22 668.73,-114.05"/>
</g>
<!-- Node15&#45;&gt;Node6 -->
<g id="edge19" class="edge">
<title>Node15&#45;&gt;Node6</title>
<path fill="none" stroke="midnightblue" d="M691.45,-107.18C674.52,-97.24 652.22,-84.15 637.74,-75.65"/>
<polygon fill="midnightblue" stroke="midnightblue" points="689.82,-110.28 700.22,-112.32 693.37,-104.24 689.82,-110.28"/>
</g>
<!-- Node15&#45;&gt;Node7 -->
<g id="edge20" class="edge">
<title>Node15&#45;&gt;Node7</title>
<path fill="none" stroke="midnightblue" d="M669.3,-114.54C600.38,-104.8 469.81,-86.34 393.21,-75.51"/>
<polygon fill="midnightblue" stroke="midnightblue" points="669.01,-118.03 679.41,-115.97 669.99,-111.1 669.01,-118.03"/>
</g>
<!-- Node15&#45;&gt;Node8 -->
<g id="edge21" class="edge">
<title>Node15&#45;&gt;Node8</title>
<path fill="none" stroke="midnightblue" d="M732.99,-105.82C744.46,-96.15 758.91,-83.95 768.53,-75.83"/>
<polygon fill="midnightblue" stroke="midnightblue" points="730.67,-103.2 725.28,-112.32 735.18,-108.55 730.67,-103.2"/>
</g>
<!-- Node15&#45;&gt;Node9 -->
<g id="edge22" class="edge">
<title>Node15&#45;&gt;Node9</title>
<path fill="none" stroke="midnightblue" d="M757.62,-109.83C796.51,-99.63 853.16,-84.78 888.51,-75.52"/>
<polygon fill="midnightblue" stroke="midnightblue" points="756.43,-106.52 747.64,-112.44 758.2,-113.29 756.43,-106.52"/>
</g>
<!-- Node16 -->
<g id="node16" class="node">
<title>Node16</title>
<g id="a_node16"><a xlink:href="_compiler_8hpp.html" target="_top" xlink:title=" ">
<polygon fill="white" stroke="black" points="998.5,-56.5 998.5,-75.5 1079.5,-75.5 1079.5,-56.5 998.5,-56.5"/>
<text text-anchor="middle" x="1039" y="-63.5" font-family="Helvetica,sans-Serif" font-size="10.00">Compiler.hpp</text>
</a>
</g>
</g>
<!-- Node15&#45;&gt;Node16 -->
<g id="edge23" class="edge">
<title>Node15&#45;&gt;Node16</title>
<path fill="none" stroke="midnightblue" d="M760.69,-113.8C815.29,-105.14 909.4,-90 990,-76 992.73,-75.53 995.54,-75.03 998.37,-74.53"/>
<polygon fill="midnightblue" stroke="midnightblue" points="759.96,-110.37 750.64,-115.4 761.06,-117.29 759.96,-110.37"/>
</g>
<!-- Node17 -->
<g id="node17" class="node">
<title>Node17</title>
<g id="a_node17"><a xlink:href="_shader_loader_8hpp.html" target="_top" xlink:title=" ">
<polygon fill="white" stroke="black" points="987,-0.5 987,-19.5 1091,-19.5 1091,-0.5 987,-0.5"/>
<text text-anchor="middle" x="1039" y="-7.5" font-family="Helvetica,sans-Serif" font-size="10.00">ShaderLoader.hpp</text>
</a>
</g>
</g>
<!-- Node16&#45;&gt;Node17 -->
<g id="edge24" class="edge">
<title>Node16&#45;&gt;Node17</title>
<path fill="none" stroke="midnightblue" d="M1039,-45.8C1039,-36.91 1039,-26.78 1039,-19.75"/>
<polygon fill="midnightblue" stroke="midnightblue" points="1035.5,-46.08 1039,-56.08 1042.5,-46.08 1035.5,-46.08"/>
</g>
<!-- Node18&#45;&gt;Node16 -->
<g id="edge26" class="edge">
<title>Node18&#45;&gt;Node16</title>
<path fill="none" stroke="midnightblue" d="M863.28,-216.76C876.16,-203.3 895.28,-183.87 913,-168 953.51,-131.71 1004.98,-92.42 1027.54,-75.52"/>
<polygon fill="midnightblue" stroke="midnightblue" points="860.48,-214.62 856.13,-224.28 865.55,-219.44 860.48,-214.62"/>
</g>
<!-- Node19 -->
<g id="node19" class="node">
<title>Node19</title>
<g id="a_node19"><a xlink:href="_declaration_parser_8hpp.html" target="_top" xlink:title=" ">
<polygon fill="white" stroke="black" points="921.5,-168.5 921.5,-187.5 1044.5,-187.5 1044.5,-168.5 921.5,-168.5"/>
<text text-anchor="middle" x="983" y="-175.5" font-family="Helvetica,sans-Serif" font-size="10.00">DeclarationParser.hpp</text>
</a>
</g>
</g>
<!-- Node18&#45;&gt;Node19 -->
<g id="edge27" class="edge">
<title>Node18&#45;&gt;Node19</title>
<path fill="none" stroke="midnightblue" d="M878.91,-220.64C904.24,-210.5 939.43,-196.43 961.71,-187.52"/>
<polygon fill="midnightblue" stroke="midnightblue" points="877.38,-217.48 869.39,-224.44 879.98,-223.98 877.38,-217.48"/>
</g>
<!-- Node20 -->
<g id="node20" class="node">
<title>Node20</title>
<g id="a_node20"><a xlink:href="_declaration_stack_8hpp.html" target="_top" xlink:title=" ">
<polygon fill="white" stroke="black" points="743.5,-168.5 743.5,-187.5 864.5,-187.5 864.5,-168.5 743.5,-168.5"/>
<text text-anchor="middle" x="804" y="-175.5" font-family="Helvetica,sans-Serif" font-size="10.00">DeclarationStack.hpp</text>
</a>
</g>
</g>
<!-- Node18&#45;&gt;Node20 -->
<g id="edge28" class="edge">
<title>Node18&#45;&gt;Node20</title>
<path fill="none" stroke="midnightblue" d="M834.27,-216.14C826.6,-206.74 817.37,-195.4 811.13,-187.75"/>
<polygon fill="midnightblue" stroke="midnightblue" points="831.7,-218.54 840.73,-224.08 837.13,-214.12 831.7,-218.54"/>
</g>
<!-- Node20&#45;&gt;Node3 -->
<g id="edge29" class="edge">
<title>Node20&#45;&gt;Node3</title>
<path fill="none" stroke="midnightblue" d="M742.34,-166.79C675.39,-155.7 570.61,-138.34 515.22,-129.16"/>
<polygon fill="midnightblue" stroke="midnightblue" points="741.91,-170.26 752.34,-168.44 743.05,-163.36 741.91,-170.26"/>
</g>
</g>
</svg>
