<?xml version="1.0" encoding="UTF-8" standalone="no"?>
<!DOCTYPE svg PUBLIC "-//W3C//DTD SVG 1.1//EN"
 "http://www.w3.org/Graphics/SVG/1.1/DTD/svg11.dtd">
<!-- Generated by graphviz version 2.43.0 (0)
 -->
<!-- Title: PlatformLayer.hpp Pages: 1 -->
<svg width="1143pt" height="476pt"
 viewBox="0.00 0.00 1143.00 476.00" xmlns="http://www.w3.org/2000/svg" xmlns:xlink="http://www.w3.org/1999/xlink">
<g id="graph0" class="graph" transform="scale(1 1) rotate(0) translate(4 472)">
<title>PlatformLayer.hpp</title>
<polygon fill="white" stroke="transparent" points="-4,4 -4,-472 1139,-472 1139,4 -4,4"/>
<!-- Node1 -->
<g id="node1" class="node">
<title>Node1</title>
<g id="a_node1"><a xlink:title=" ">
<polygon fill="#bfbfbf" stroke="black" points="636,-448.5 636,-467.5 742,-467.5 742,-448.5 636,-448.5"/>
<text text-anchor="middle" x="689" y="-455.5" font-family="Helvetica,sans-Serif" font-size="10.00">PlatformLayer.hpp</text>
</a>
</g>
</g>
<!-- Node2 -->
<g id="node2" class="node">
<title>Node2</title>
<g id="a_node2"><a xlink:href="_event_dispatcher_8hpp.html" target="_top" xlink:title=" ">
<polygon fill="white" stroke="black" points="197.5,-392.5 197.5,-411.5 434.5,-411.5 434.5,-392.5 197.5,-392.5"/>
<text text-anchor="middle" x="316" y="-399.5" font-family="Helvetica,sans-Serif" font-size="10.00">Liger&#45;Engine/Core/Event/EventDispatcher.hpp</text>
</a>
</g>
</g>
<!-- Node1&#45;&gt;Node2 -->
<g id="edge1" class="edge">
<title>Node1&#45;&gt;Node2</title>
<path fill="none" stroke="midnightblue" d="M635.95,-449.32C570.07,-439.78 457.51,-423.49 384.98,-412.99"/>
<polygon fill="midnightblue" stroke="midnightblue" points="385.42,-409.51 375.02,-411.54 384.41,-416.44 385.42,-409.51"/>
</g>
<!-- Node17 -->
<g id="node17" class="node">
<title>Node17</title>
<g id="a_node17"><a xlink:href="_keyboard_8hpp.html" target="_top" xlink:title=" ">
<polygon fill="white" stroke="black" points="515,-336.5 515,-355.5 733,-355.5 733,-336.5 515,-336.5"/>
<text text-anchor="middle" x="624" y="-343.5" font-family="Helvetica,sans-Serif" font-size="10.00">Liger&#45;Engine/Core/Platform/Keyboard.hpp</text>
</a>
</g>
</g>
<!-- Node1&#45;&gt;Node17 -->
<g id="edge19" class="edge">
<title>Node1&#45;&gt;Node17</title>
<path fill="none" stroke="midnightblue" d="M677.13,-448.29C666.7,-440.04 651.85,-426.75 643,-412 634.4,-397.67 629.49,-379.2 626.83,-365.62"/>
<polygon fill="midnightblue" stroke="midnightblue" points="630.24,-364.81 625.09,-355.55 623.34,-366 630.24,-364.81"/>
</g>
<!-- Node19 -->
<g id="node19" class="node">
<title>Node19</title>
<g id="a_node19"><a xlink:href="_mouse_8hpp.html" target="_top" xlink:title=" ">
<polygon fill="white" stroke="black" points="652,-392.5 652,-411.5 856,-411.5 856,-392.5 652,-392.5"/>
<text text-anchor="middle" x="754" y="-399.5" font-family="Helvetica,sans-Serif" font-size="10.00">Liger&#45;Engine/Core/Platform/Mouse.hpp</text>
</a>
</g>
</g>
<!-- Node1&#45;&gt;Node19 -->
<g id="edge21" class="edge">
<title>Node1&#45;&gt;Node19</title>
<path fill="none" stroke="midnightblue" d="M699.44,-448.32C709.15,-440.26 723.82,-428.08 735.5,-418.37"/>
<polygon fill="midnightblue" stroke="midnightblue" points="737.91,-420.92 743.37,-411.83 733.44,-415.53 737.91,-420.92"/>
</g>
<!-- Node25 -->
<g id="node25" class="node">
<title>Node25</title>
<g id="a_node25"><a xlink:href="_window_8hpp.html" target="_top" xlink:title=" ">
<polygon fill="white" stroke="black" points="925,-168.5 925,-187.5 1135,-187.5 1135,-168.5 925,-168.5"/>
<text text-anchor="middle" x="1030" y="-175.5" font-family="Helvetica,sans-Serif" font-size="10.00">Liger&#45;Engine/Core/Platform/Window.hpp</text>
</a>
</g>
</g>
<!-- Node1&#45;&gt;Node25 -->
<g id="edge30" class="edge">
<title>Node1&#45;&gt;Node25</title>
<path fill="none" stroke="midnightblue" d="M742.12,-454.98C859.97,-449.05 1133,-426.71 1133,-347 1133,-347 1133,-347 1133,-289 1133,-244.43 1087.38,-210.46 1056.86,-192.73"/>
<polygon fill="midnightblue" stroke="midnightblue" points="1058.38,-189.57 1047.94,-187.75 1054.97,-195.68 1058.38,-189.57"/>
</g>
<!-- Node3 -->
<g id="node3" class="node">
<title>Node3</title>
<g id="a_node3"><a xlink:href="_event_type_8hpp.html" target="_top" xlink:title=" ">
<polygon fill="white" stroke="black" points="0,-56.5 0,-75.5 240,-75.5 240,-56.5 0,-56.5"/>
<text text-anchor="middle" x="120" y="-63.5" font-family="Helvetica,sans-Serif" font-size="10.00">Liger&#45;Engine/Core/Event/Detail/EventType.hpp</text>
</a>
</g>
</g>
<!-- Node2&#45;&gt;Node3 -->
<g id="edge2" class="edge">
<title>Node2&#45;&gt;Node3</title>
<path fill="none" stroke="midnightblue" d="M263.44,-392.44C178.87,-377.16 22,-341.95 22,-291 22,-291 22,-291 22,-177 22,-133.38 65.49,-99.06 94.53,-81.01"/>
<polygon fill="midnightblue" stroke="midnightblue" points="96.58,-83.86 103.38,-75.73 93,-77.85 96.58,-83.86"/>
</g>
<!-- Node5 -->
<g id="node5" class="node">
<title>Node5</title>
<g id="a_node5"><a xlink:href="_event_sink_8hpp.html" target="_top" xlink:title=" ">
<polygon fill="white" stroke="black" points="129,-336.5 129,-355.5 335,-355.5 335,-336.5 129,-336.5"/>
<text text-anchor="middle" x="232" y="-343.5" font-family="Helvetica,sans-Serif" font-size="10.00">Liger&#45;Engine/Core/Event/EventSink.hpp</text>
</a>
</g>
</g>
<!-- Node2&#45;&gt;Node5 -->
<g id="edge4" class="edge">
<title>Node2&#45;&gt;Node5</title>
<path fill="none" stroke="midnightblue" d="M302.5,-392.32C289.4,-383.9 269.29,-370.97 253.89,-361.07"/>
<polygon fill="midnightblue" stroke="midnightblue" points="255.77,-358.12 245.46,-355.65 251.98,-364.01 255.77,-358.12"/>
</g>
<!-- Node16 -->
<g id="node16" class="node">
<title>Node16</title>
<g id="a_node16"><a xlink:title=" ">
<polygon fill="white" stroke="#bfbfbf" points="353.5,-336.5 353.5,-355.5 446.5,-355.5 446.5,-336.5 353.5,-336.5"/>
<text text-anchor="middle" x="400" y="-343.5" font-family="Helvetica,sans-Serif" font-size="10.00">unordered_map</text>
</a>
</g>
</g>
<!-- Node2&#45;&gt;Node16 -->
<g id="edge18" class="edge">
<title>Node2&#45;&gt;Node16</title>
<path fill="none" stroke="midnightblue" d="M329.5,-392.32C342.6,-383.9 362.71,-370.97 378.11,-361.07"/>
<polygon fill="midnightblue" stroke="midnightblue" points="380.02,-364.01 386.54,-355.65 376.23,-358.12 380.02,-364.01"/>
</g>
<!-- Node4 -->
<g id="node4" class="node">
<title>Node4</title>
<g id="a_node4"><a xlink:title=" ">
<polygon fill="white" stroke="#bfbfbf" points="258,-0.5 258,-19.5 308,-19.5 308,-0.5 258,-0.5"/>
<text text-anchor="middle" x="283" y="-7.5" font-family="Helvetica,sans-Serif" font-size="10.00">cstdint</text>
</a>
</g>
</g>
<!-- Node3&#45;&gt;Node4 -->
<g id="edge3" class="edge">
<title>Node3&#45;&gt;Node4</title>
<path fill="none" stroke="midnightblue" d="M145.83,-56.44C173.41,-47.31 217.29,-32.77 247.97,-22.6"/>
<polygon fill="midnightblue" stroke="midnightblue" points="249.44,-25.81 257.83,-19.34 247.24,-19.16 249.44,-25.81"/>
</g>
<!-- Node6 -->
<g id="node6" class="node">
<title>Node6</title>
<g id="a_node6"><a xlink:href="_base_event_sink_8hpp.html" target="_top" xlink:title=" ">
<polygon fill="white" stroke="black" points="50.5,-280.5 50.5,-299.5 313.5,-299.5 313.5,-280.5 50.5,-280.5"/>
<text text-anchor="middle" x="182" y="-287.5" font-family="Helvetica,sans-Serif" font-size="10.00">Liger&#45;Engine/Core/Event/Detail/BaseEventSink.hpp</text>
</a>
</g>
</g>
<!-- Node5&#45;&gt;Node6 -->
<g id="edge5" class="edge">
<title>Node5&#45;&gt;Node6</title>
<path fill="none" stroke="midnightblue" d="M223.74,-336.08C216.54,-328.3 205.89,-316.8 197.15,-307.37"/>
<polygon fill="midnightblue" stroke="midnightblue" points="199.47,-304.71 190.1,-299.75 194.33,-309.47 199.47,-304.71"/>
</g>
<!-- Node7 -->
<g id="node7" class="node">
<title>Node7</title>
<g id="a_node7"><a xlink:href="_callback_8hpp.html" target="_top" xlink:title=" ">
<polygon fill="white" stroke="black" points="332,-280.5 332,-299.5 564,-299.5 564,-280.5 332,-280.5"/>
<text text-anchor="middle" x="448" y="-287.5" font-family="Helvetica,sans-Serif" font-size="10.00">Liger&#45;Engine/Core/Event/Detail/Callback.hpp</text>
</a>
</g>
</g>
<!-- Node5&#45;&gt;Node7 -->
<g id="edge6" class="edge">
<title>Node5&#45;&gt;Node7</title>
<path fill="none" stroke="midnightblue" d="M266.23,-336.44C303.51,-327.12 363.27,-312.18 404.01,-302"/>
<polygon fill="midnightblue" stroke="midnightblue" points="405.08,-305.34 413.93,-299.52 403.38,-298.55 405.08,-305.34"/>
</g>
<!-- Node8 -->
<g id="node8" class="node">
<title>Node8</title>
<g id="a_node8"><a xlink:href="_log_8hpp.html" target="_top" xlink:title=" ">
<polygon fill="white" stroke="black" points="486,-168.5 486,-187.5 650,-187.5 650,-168.5 486,-168.5"/>
<text text-anchor="middle" x="568" y="-175.5" font-family="Helvetica,sans-Serif" font-size="10.00">Liger&#45;Engine/Core/Log/Log.hpp</text>
</a>
</g>
</g>
<!-- Node7&#45;&gt;Node8 -->
<g id="edge7" class="edge">
<title>Node7&#45;&gt;Node8</title>
<path fill="none" stroke="midnightblue" d="M448.29,-280.33C449.18,-266.74 452.77,-240.29 467,-224 480.77,-208.24 501.12,-197.74 519.96,-190.89"/>
<polygon fill="midnightblue" stroke="midnightblue" points="521.27,-194.14 529.62,-187.62 519.03,-187.5 521.27,-194.14"/>
</g>
<!-- Node15 -->
<g id="node15" class="node">
<title>Node15</title>
<g id="a_node15"><a xlink:href="_core_2_log_channel_8hpp.html" target="_top" xlink:title=" ">
<polygon fill="white" stroke="black" points="476,-224.5 476,-243.5 660,-243.5 660,-224.5 476,-224.5"/>
<text text-anchor="middle" x="568" y="-231.5" font-family="Helvetica,sans-Serif" font-size="10.00">Liger&#45;Engine/Core/LogChannel.hpp</text>
</a>
</g>
</g>
<!-- Node7&#45;&gt;Node15 -->
<g id="edge16" class="edge">
<title>Node7&#45;&gt;Node15</title>
<path fill="none" stroke="midnightblue" d="M467.01,-280.44C486.59,-271.64 517.31,-257.81 539.73,-247.72"/>
<polygon fill="midnightblue" stroke="midnightblue" points="541.39,-250.81 549.07,-243.52 538.52,-244.43 541.39,-250.81"/>
</g>
<!-- Node9 -->
<g id="node9" class="node">
<title>Node9</title>
<g id="a_node9"><a xlink:href="_message_8hpp.html" target="_top" xlink:title=" ">
<polygon fill="white" stroke="black" points="414.5,-56.5 414.5,-75.5 605.5,-75.5 605.5,-56.5 414.5,-56.5"/>
<text text-anchor="middle" x="510" y="-63.5" font-family="Helvetica,sans-Serif" font-size="10.00">Liger&#45;Engine/Core/Log/Message.hpp</text>
</a>
</g>
</g>
<!-- Node8&#45;&gt;Node9 -->
<g id="edge8" class="edge">
<title>Node8&#45;&gt;Node9</title>
<path fill="none" stroke="midnightblue" d="M525.61,-168.45C505.42,-162.02 483.09,-150.93 471,-132 460.24,-115.15 475.98,-95.42 490.55,-82.15"/>
<polygon fill="midnightblue" stroke="midnightblue" points="493.01,-84.65 498.36,-75.51 488.48,-79.32 493.01,-84.65"/>
</g>
<!-- Node12 -->
<g id="node12" class="node">
<title>Node12</title>
<g id="a_node12"><a xlink:href="_writer_8hpp.html" target="_top" xlink:title=" ">
<polygon fill="white" stroke="black" points="480,-112.5 480,-131.5 656,-131.5 656,-112.5 480,-112.5"/>
<text text-anchor="middle" x="568" y="-119.5" font-family="Helvetica,sans-Serif" font-size="10.00">Liger&#45;Engine/Core/Log/Writer.hpp</text>
</a>
</g>
</g>
<!-- Node8&#45;&gt;Node12 -->
<g id="edge12" class="edge">
<title>Node8&#45;&gt;Node12</title>
<path fill="none" stroke="midnightblue" d="M568,-168.08C568,-161.01 568,-150.86 568,-141.99"/>
<polygon fill="midnightblue" stroke="midnightblue" points="571.5,-141.75 568,-131.75 564.5,-141.75 571.5,-141.75"/>
</g>
<!-- Node13 -->
<g id="node13" class="node">
<title>Node13</title>
<g id="a_node13"><a xlink:title=" ">
<polygon fill="white" stroke="#bfbfbf" points="746.5,-112.5 746.5,-131.5 813.5,-131.5 813.5,-112.5 746.5,-112.5"/>
<text text-anchor="middle" x="780" y="-119.5" font-family="Helvetica,sans-Serif" font-size="10.00">fmt/core.h</text>
</a>
</g>
</g>
<!-- Node8&#45;&gt;Node13 -->
<g id="edge14" class="edge">
<title>Node8&#45;&gt;Node13</title>
<path fill="none" stroke="midnightblue" d="M601.59,-168.44C638.19,-159.12 696.84,-144.18 736.83,-134"/>
<polygon fill="midnightblue" stroke="midnightblue" points="737.74,-137.38 746.57,-131.52 736.01,-130.59 737.74,-137.38"/>
</g>
<!-- Node14 -->
<g id="node14" class="node">
<title>Node14</title>
<g id="a_node14"><a xlink:title=" ">
<polygon fill="white" stroke="#bfbfbf" points="674.5,-112.5 674.5,-131.5 721.5,-131.5 721.5,-112.5 674.5,-112.5"/>
<text text-anchor="middle" x="698" y="-119.5" font-family="Helvetica,sans-Serif" font-size="10.00">vector</text>
</a>
</g>
</g>
<!-- Node8&#45;&gt;Node14 -->
<g id="edge15" class="edge">
<title>Node8&#45;&gt;Node14</title>
<path fill="none" stroke="midnightblue" d="M588.6,-168.44C609.99,-159.56 643.68,-145.56 668.02,-135.45"/>
<polygon fill="midnightblue" stroke="midnightblue" points="669.61,-138.58 677.5,-131.52 666.92,-132.12 669.61,-138.58"/>
</g>
<!-- Node9&#45;&gt;Node4 -->
<g id="edge9" class="edge">
<title>Node9&#45;&gt;Node4</title>
<path fill="none" stroke="midnightblue" d="M474.03,-56.44C431.3,-46.28 360.48,-29.43 318.12,-19.36"/>
<polygon fill="midnightblue" stroke="midnightblue" points="318.8,-15.92 308.26,-17.01 317.18,-22.73 318.8,-15.92"/>
</g>
<!-- Node10 -->
<g id="node10" class="node">
<title>Node10</title>
<g id="a_node10"><a xlink:title=" ">
<polygon fill="white" stroke="#bfbfbf" points="488,-0.5 488,-19.5 532,-19.5 532,-0.5 488,-0.5"/>
<text text-anchor="middle" x="510" y="-7.5" font-family="Helvetica,sans-Serif" font-size="10.00">string</text>
</a>
</g>
</g>
<!-- Node9&#45;&gt;Node10 -->
<g id="edge10" class="edge">
<title>Node9&#45;&gt;Node10</title>
<path fill="none" stroke="midnightblue" d="M510,-56.08C510,-49.01 510,-38.86 510,-29.99"/>
<polygon fill="midnightblue" stroke="midnightblue" points="513.5,-29.75 510,-19.75 506.5,-29.75 513.5,-29.75"/>
</g>
<!-- Node11 -->
<g id="node11" class="node">
<title>Node11</title>
<g id="a_node11"><a xlink:title=" ">
<polygon fill="white" stroke="#bfbfbf" points="694.5,-0.5 694.5,-19.5 767.5,-19.5 767.5,-0.5 694.5,-0.5"/>
<text text-anchor="middle" x="731" y="-7.5" font-family="Helvetica,sans-Serif" font-size="10.00">string_view</text>
</a>
</g>
</g>
<!-- Node9&#45;&gt;Node11 -->
<g id="edge11" class="edge">
<title>Node9&#45;&gt;Node11</title>
<path fill="none" stroke="midnightblue" d="M545.02,-56.44C583.25,-47.1 644.57,-32.12 686.26,-21.93"/>
<polygon fill="midnightblue" stroke="midnightblue" points="687.26,-25.29 696.15,-19.52 685.6,-18.49 687.26,-25.29"/>
</g>
<!-- Node12&#45;&gt;Node9 -->
<g id="edge13" class="edge">
<title>Node12&#45;&gt;Node9</title>
<path fill="none" stroke="midnightblue" d="M558.68,-112.32C550.11,-104.34 537.19,-92.31 526.81,-82.65"/>
<polygon fill="midnightblue" stroke="midnightblue" points="529.19,-80.09 519.49,-75.83 524.42,-85.21 529.19,-80.09"/>
</g>
<!-- Node15&#45;&gt;Node8 -->
<g id="edge17" class="edge">
<title>Node15&#45;&gt;Node8</title>
<path fill="none" stroke="midnightblue" d="M568,-224.08C568,-217.01 568,-206.86 568,-197.99"/>
<polygon fill="midnightblue" stroke="midnightblue" points="571.5,-197.75 568,-187.75 564.5,-197.75 571.5,-197.75"/>
</g>
<!-- Node18 -->
<g id="node18" class="node">
<title>Node18</title>
<g id="a_node18"><a xlink:title=" ">
<polygon fill="white" stroke="#bfbfbf" points="582.5,-280.5 582.5,-299.5 665.5,-299.5 665.5,-280.5 582.5,-280.5"/>
<text text-anchor="middle" x="624" y="-287.5" font-family="Helvetica,sans-Serif" font-size="10.00">GLFW/glfw3.h</text>
</a>
</g>
</g>
<!-- Node17&#45;&gt;Node18 -->
<g id="edge20" class="edge">
<title>Node17&#45;&gt;Node18</title>
<path fill="none" stroke="midnightblue" d="M624,-336.08C624,-329.01 624,-318.86 624,-309.99"/>
<polygon fill="midnightblue" stroke="midnightblue" points="627.5,-309.75 624,-299.75 620.5,-309.75 627.5,-309.75"/>
</g>
<!-- Node19&#45;&gt;Node17 -->
<g id="edge29" class="edge">
<title>Node19&#45;&gt;Node17</title>
<path fill="none" stroke="midnightblue" d="M733.4,-392.44C712.01,-383.56 678.32,-369.56 653.98,-359.45"/>
<polygon fill="midnightblue" stroke="midnightblue" points="655.08,-356.12 644.5,-355.52 652.39,-362.58 655.08,-356.12"/>
</g>
<!-- Node20 -->
<g id="node20" class="node">
<title>Node20</title>
<g id="a_node20"><a xlink:href="_math_8hpp.html" target="_top" xlink:title=" ">
<polygon fill="white" stroke="black" points="751.5,-336.5 751.5,-355.5 930.5,-355.5 930.5,-336.5 751.5,-336.5"/>
<text text-anchor="middle" x="841" y="-343.5" font-family="Helvetica,sans-Serif" font-size="10.00">Liger&#45;Engine/Core/Math/Math.hpp</text>
</a>
</g>
</g>
<!-- Node19&#45;&gt;Node20 -->
<g id="edge22" class="edge">
<title>Node19&#45;&gt;Node20</title>
<path fill="none" stroke="midnightblue" d="M767.98,-392.32C781.55,-383.9 802.38,-370.97 818.32,-361.07"/>
<polygon fill="midnightblue" stroke="midnightblue" points="820.41,-363.9 827.06,-355.65 816.71,-357.95 820.41,-363.9"/>
</g>
<!-- Node21 -->
<g id="node21" class="node">
<title>Node21</title>
<g id="a_node21"><a xlink:href="_formatting_8hpp.html" target="_top" xlink:title=" ">
<polygon fill="white" stroke="black" points="684,-280.5 684,-299.5 892,-299.5 892,-280.5 684,-280.5"/>
<text text-anchor="middle" x="788" y="-287.5" font-family="Helvetica,sans-Serif" font-size="10.00">Liger&#45;Engine/Core/Math/Formatting.hpp</text>
</a>
</g>
</g>
<!-- Node20&#45;&gt;Node21 -->
<g id="edge23" class="edge">
<title>Node20&#45;&gt;Node21</title>
<path fill="none" stroke="midnightblue" d="M832.25,-336.08C824.53,-328.22 813.1,-316.57 803.78,-307.08"/>
<polygon fill="midnightblue" stroke="midnightblue" points="806.09,-304.44 796.59,-299.75 801.1,-309.34 806.09,-304.44"/>
</g>
<!-- Node23 -->
<g id="node23" class="node">
<title>Node23</title>
<g id="a_node23"><a xlink:href="_random_8hpp.html" target="_top" xlink:title=" ">
<polygon fill="white" stroke="black" points="910.5,-280.5 910.5,-299.5 1105.5,-299.5 1105.5,-280.5 910.5,-280.5"/>
<text text-anchor="middle" x="1008" y="-287.5" font-family="Helvetica,sans-Serif" font-size="10.00">Liger&#45;Engine/Core/Math/Random.hpp</text>
</a>
</g>
</g>
<!-- Node20&#45;&gt;Node23 -->
<g id="edge26" class="edge">
<title>Node20&#45;&gt;Node23</title>
<path fill="none" stroke="midnightblue" d="M867.46,-336.44C895.68,-327.32 940.54,-312.81 971.97,-302.65"/>
<polygon fill="midnightblue" stroke="midnightblue" points="973.22,-305.92 981.66,-299.52 971.07,-299.26 973.22,-305.92"/>
</g>
<!-- Node21&#45;&gt;Node13 -->
<g id="edge24" class="edge">
<title>Node21&#45;&gt;Node13</title>
<path fill="none" stroke="midnightblue" d="M787.57,-280.08C786.31,-253.95 782.61,-177.21 780.9,-141.58"/>
<polygon fill="midnightblue" stroke="midnightblue" points="784.39,-141.39 780.41,-131.57 777.4,-141.73 784.39,-141.39"/>
</g>
<!-- Node22 -->
<g id="node22" class="node">
<title>Node22</title>
<g id="a_node22"><a xlink:title=" ">
<polygon fill="white" stroke="#bfbfbf" points="843,-224.5 843,-243.5 921,-243.5 921,-224.5 843,-224.5"/>
<text text-anchor="middle" x="882" y="-231.5" font-family="Helvetica,sans-Serif" font-size="10.00">glm/glm.hpp</text>
</a>
</g>
</g>
<!-- Node21&#45;&gt;Node22 -->
<g id="edge25" class="edge">
<title>Node21&#45;&gt;Node22</title>
<path fill="none" stroke="midnightblue" d="M803.1,-280.32C817.9,-271.82 840.69,-258.73 857.98,-248.8"/>
<polygon fill="midnightblue" stroke="midnightblue" points="860.01,-251.67 866.93,-243.65 856.52,-245.6 860.01,-251.67"/>
</g>
<!-- Node23&#45;&gt;Node22 -->
<g id="edge27" class="edge">
<title>Node23&#45;&gt;Node22</title>
<path fill="none" stroke="midnightblue" d="M988.03,-280.44C967.39,-271.6 934.94,-257.69 911.37,-247.59"/>
<polygon fill="midnightblue" stroke="midnightblue" points="912.44,-244.24 901.87,-243.52 909.68,-250.67 912.44,-244.24"/>
</g>
<!-- Node24 -->
<g id="node24" class="node">
<title>Node24</title>
<g id="a_node24"><a xlink:title=" ">
<polygon fill="white" stroke="#bfbfbf" points="981,-224.5 981,-243.5 1035,-243.5 1035,-224.5 981,-224.5"/>
<text text-anchor="middle" x="1008" y="-231.5" font-family="Helvetica,sans-Serif" font-size="10.00">random</text>
</a>
</g>
</g>
<!-- Node23&#45;&gt;Node24 -->
<g id="edge28" class="edge">
<title>Node23&#45;&gt;Node24</title>
<path fill="none" stroke="midnightblue" d="M1008,-280.08C1008,-273.01 1008,-262.86 1008,-253.99"/>
<polygon fill="midnightblue" stroke="midnightblue" points="1011.5,-253.75 1008,-243.75 1004.5,-253.75 1011.5,-253.75"/>
</g>
<!-- Node25&#45;&gt;Node11 -->
<g id="edge31" class="edge">
<title>Node25&#45;&gt;Node11</title>
<path fill="none" stroke="midnightblue" d="M1014.35,-168.31C965.4,-141.14 815,-57.64 755.55,-24.63"/>
<polygon fill="midnightblue" stroke="midnightblue" points="756.94,-21.4 746.5,-19.61 753.54,-27.52 756.94,-21.4"/>
</g>
</g>
</svg>
