<?xml version="1.0" encoding="UTF-8" standalone="no"?>
<!DOCTYPE svg PUBLIC "-//W3C//DTD SVG 1.1//EN"
 "http://www.w3.org/Graphics/SVG/1.1/DTD/svg11.dtd">
<!-- Generated by graphviz version 2.43.0 (0)
 -->
<!-- Title: PlatformLayer.hpp Pages: 1 -->
<!--zoomable 476 -->
<svg id="main" version="1.1" xmlns="http://www.w3.org/2000/svg" xmlns:xlink="http://www.w3.org/1999/xlink" xml:space="preserve" onload="init(evt)">
<style type="text/css"><![CDATA[
.edge:hover path { stroke: red; }
.edge:hover polygon { stroke: red; fill: red; }
]]></style>
<script type="text/javascript"><![CDATA[
var edges = document.getElementsByTagName('g');
if (edges && edges.length) {
  for (var i=0;i<edges.length;i++) {
    if (edges[i].id.substr(0,4)=='edge') {
      edges[i].setAttribute('class','edge');
    }
  }
}
]]></script>
        <defs>
                <circle id="rim" cx="0" cy="0" r="7"/>
                <circle id="rim2" cx="0" cy="0" r="3.5"/>
                <g id="zoomPlus">
                        <use xlink:href="#rim" fill="#404040">
                                <set attributeName="fill" to="#808080" begin="zoomplus.mouseover" end="zoomplus.mouseout"/>
                        </use>
                        <path d="M-4,0h8M0,-4v8" fill="none" stroke="white" stroke-width="1.5" pointer-events="none"/>
                </g>
                <g id="zoomMin">
                        <use xlink:href="#rim" fill="#404040">
                                <set attributeName="fill" to="#808080" begin="zoomminus.mouseover" end="zoomminus.mouseout"/>
                        </use>
                        <path d="M-4,0h8" fill="none" stroke="white" stroke-width="1.5" pointer-events="none"/>
                </g>
                <g id="dirArrow">
                        <path fill="none" stroke="white" stroke-width="1.5" d="M0,-3.0v7 M-2.5,-0.5L0,-3.0L2.5,-0.5"/>
                </g>
               <g id="resetDef">
                       <use xlink:href="#rim2" fill="#404040">
                               <set attributeName="fill" to="#808080" begin="reset.mouseover" end="reset.mouseout"/>
                       </use>
               </g>
        </defs>

<script type="text/javascript">
var viewWidth = 1507;
var viewHeight = 476;
var sectionId = 'dynsection-0';
</script>
<script xlink:href="svgpan.js"/>
<svg id="graph" class="graph">
<g id="viewport">
<title>PlatformLayer.hpp</title>
<polygon fill="white" stroke="transparent" points="-4,4 -4,-472 1502.89,-472 1502.89,4 -4,4"/>
<!-- Node1 -->
<g id="node1" class="node">
<title>Node1</title>
<g id="a_node1"><a xlink:title=" ">
<polygon fill="#bfbfbf" stroke="black" points="680,-448.5 680,-467.5 786,-467.5 786,-448.5 680,-448.5"/>
<text text-anchor="middle" x="733" y="-455.5" font-family="Helvetica,sans-Serif" font-size="10.00">PlatformLayer.hpp</text>
</a>
</g>
</g>
<!-- Node2 -->
<g id="node2" class="node">
<title>Node2</title>
<g id="a_node2"><a xlink:href="_event_dispatcher_8hpp.html" target="_top" xlink:title=" ">
<polygon fill="white" stroke="black" points="241.5,-392.5 241.5,-411.5 478.5,-411.5 478.5,-392.5 241.5,-392.5"/>
<text text-anchor="middle" x="360" y="-399.5" font-family="Helvetica,sans-Serif" font-size="10.00">Liger&#45;Engine/Core/Event/EventDispatcher.hpp</text>
</a>
</g>
</g>
<!-- Node1&#45;&gt;Node2 -->
<g id="edge1" class="edge">
<title>Node1&#45;&gt;Node2</title>
<path fill="none" stroke="midnightblue" d="M679.95,-449.32C614.07,-439.78 501.51,-423.49 428.98,-412.99"/>
<polygon fill="midnightblue" stroke="midnightblue" points="429.42,-409.51 419.02,-411.54 428.41,-416.44 429.42,-409.51"/>
</g>
<!-- Node17 -->
<g id="node17" class="node">
<title>Node17</title>
<g id="a_node17"><a xlink:href="_keyboard_8hpp.html" target="_top" xlink:title=" ">
<polygon fill="white" stroke="black" points="559,-336.5 559,-355.5 777,-355.5 777,-336.5 559,-336.5"/>
<text text-anchor="middle" x="668" y="-343.5" font-family="Helvetica,sans-Serif" font-size="10.00">Liger&#45;Engine/Core/Platform/Keyboard.hpp</text>
</a>
</g>
</g>
<!-- Node1&#45;&gt;Node17 -->
<g id="edge19" class="edge">
<title>Node1&#45;&gt;Node17</title>
<path fill="none" stroke="midnightblue" d="M721.13,-448.29C710.7,-440.04 695.85,-426.75 687,-412 678.4,-397.67 673.49,-379.2 670.83,-365.62"/>
<polygon fill="midnightblue" stroke="midnightblue" points="674.24,-364.81 669.09,-355.55 667.34,-366 674.24,-364.81"/>
</g>
<!-- Node19 -->
<g id="node19" class="node">
<title>Node19</title>
<g id="a_node19"><a xlink:href="_mouse_8hpp.html" target="_top" xlink:title=" ">
<polygon fill="white" stroke="black" points="696,-392.5 696,-411.5 900,-411.5 900,-392.5 696,-392.5"/>
<text text-anchor="middle" x="798" y="-399.5" font-family="Helvetica,sans-Serif" font-size="10.00">Liger&#45;Engine/Core/Platform/Mouse.hpp</text>
</a>
</g>
</g>
<!-- Node1&#45;&gt;Node19 -->
<g id="edge21" class="edge">
<title>Node1&#45;&gt;Node19</title>
<path fill="none" stroke="midnightblue" d="M743.44,-448.32C753.15,-440.26 767.82,-428.08 779.5,-418.37"/>
<polygon fill="midnightblue" stroke="midnightblue" points="781.91,-420.92 787.37,-411.83 777.44,-415.53 781.91,-420.92"/>
</g>
<!-- Node29 -->
<g id="node29" class="node">
<title>Node29</title>
<g id="a_node29"><a xlink:href="_window_8hpp.html" target="_top" xlink:title=" ">
<polygon fill="white" stroke="black" points="1095,-168.5 1095,-187.5 1305,-187.5 1305,-168.5 1095,-168.5"/>
<text text-anchor="middle" x="1200" y="-175.5" font-family="Helvetica,sans-Serif" font-size="10.00">Liger&#45;Engine/Core/Platform/Window.hpp</text>
</a>
</g>
</g>
<!-- Node1&#45;&gt;Node29 -->
<g id="edge34" class="edge">
<title>Node1&#45;&gt;Node29</title>
<path fill="none" stroke="midnightblue" d="M786.19,-454.96C959.67,-447.62 1498,-419.04 1498,-347 1498,-347 1498,-347 1498,-289 1498,-258.9 1501.56,-243.92 1479,-224 1454.64,-202.5 1380.8,-191.2 1315.21,-185.3"/>
<polygon fill="midnightblue" stroke="midnightblue" points="1315.44,-181.81 1305.18,-184.44 1314.84,-188.78 1315.44,-181.81"/>
</g>
<!-- Node3 -->
<g id="node3" class="node">
<title>Node3</title>
<g id="a_node3"><a xlink:href="_event_type_8hpp.html" target="_top" xlink:title=" ">
<polygon fill="white" stroke="black" points="0,-56.5 0,-75.5 240,-75.5 240,-56.5 0,-56.5"/>
<text text-anchor="middle" x="120" y="-63.5" font-family="Helvetica,sans-Serif" font-size="10.00">Liger&#45;Engine/Core/Event/Detail/EventType.hpp</text>
</a>
</g>
</g>
<!-- Node2&#45;&gt;Node3 -->
<g id="edge2" class="edge">
<title>Node2&#45;&gt;Node3</title>
<path fill="none" stroke="midnightblue" d="M289.97,-392.45C191.5,-378.45 24,-346.47 24,-291 24,-291 24,-291 24,-177 24,-133.54 67.06,-98.96 95.5,-80.85"/>
<polygon fill="midnightblue" stroke="midnightblue" points="97.44,-83.77 104.15,-75.56 93.79,-77.79 97.44,-83.77"/>
</g>
<!-- Node5 -->
<g id="node5" class="node">
<title>Node5</title>
<g id="a_node5"><a xlink:href="_event_sink_8hpp.html" target="_top" xlink:title=" ">
<polygon fill="white" stroke="black" points="173,-336.5 173,-355.5 379,-355.5 379,-336.5 173,-336.5"/>
<text text-anchor="middle" x="276" y="-343.5" font-family="Helvetica,sans-Serif" font-size="10.00">Liger&#45;Engine/Core/Event/EventSink.hpp</text>
</a>
</g>
</g>
<!-- Node2&#45;&gt;Node5 -->
<g id="edge4" class="edge">
<title>Node2&#45;&gt;Node5</title>
<path fill="none" stroke="midnightblue" d="M346.5,-392.32C333.4,-383.9 313.29,-370.97 297.89,-361.07"/>
<polygon fill="midnightblue" stroke="midnightblue" points="299.77,-358.12 289.46,-355.65 295.98,-364.01 299.77,-358.12"/>
</g>
<!-- Node16 -->
<g id="node16" class="node">
<title>Node16</title>
<g id="a_node16"><a xlink:title=" ">
<polygon fill="white" stroke="#bfbfbf" points="397.5,-336.5 397.5,-355.5 490.5,-355.5 490.5,-336.5 397.5,-336.5"/>
<text text-anchor="middle" x="444" y="-343.5" font-family="Helvetica,sans-Serif" font-size="10.00">unordered_map</text>
</a>
</g>
</g>
<!-- Node2&#45;&gt;Node16 -->
<g id="edge18" class="edge">
<title>Node2&#45;&gt;Node16</title>
<path fill="none" stroke="midnightblue" d="M373.5,-392.32C386.6,-383.9 406.71,-370.97 422.11,-361.07"/>
<polygon fill="midnightblue" stroke="midnightblue" points="424.02,-364.01 430.54,-355.65 420.23,-358.12 424.02,-364.01"/>
</g>
<!-- Node4 -->
<g id="node4" class="node">
<title>Node4</title>
<g id="a_node4"><a xlink:title=" ">
<polygon fill="white" stroke="#bfbfbf" points="256,-0.5 256,-19.5 306,-19.5 306,-0.5 256,-0.5"/>
<text text-anchor="middle" x="281" y="-7.5" font-family="Helvetica,sans-Serif" font-size="10.00">cstdint</text>
</a>
</g>
</g>
<!-- Node3&#45;&gt;Node4 -->
<g id="edge3" class="edge">
<title>Node3&#45;&gt;Node4</title>
<path fill="none" stroke="midnightblue" d="M145.51,-56.44C172.68,-47.33 215.84,-32.85 246.14,-22.69"/>
<polygon fill="midnightblue" stroke="midnightblue" points="247.51,-25.93 255.87,-19.43 245.28,-19.29 247.51,-25.93"/>
</g>
<!-- Node6 -->
<g id="node6" class="node">
<title>Node6</title>
<g id="a_node6"><a xlink:href="_base_event_sink_8hpp.html" target="_top" xlink:title=" ">
<polygon fill="white" stroke="black" points="52.5,-280.5 52.5,-299.5 315.5,-299.5 315.5,-280.5 52.5,-280.5"/>
<text text-anchor="middle" x="184" y="-287.5" font-family="Helvetica,sans-Serif" font-size="10.00">Liger&#45;Engine/Core/Event/Detail/BaseEventSink.hpp</text>
</a>
</g>
</g>
<!-- Node5&#45;&gt;Node6 -->
<g id="edge5" class="edge">
<title>Node5&#45;&gt;Node6</title>
<path fill="none" stroke="midnightblue" d="M261.22,-336.32C246.73,-327.82 224.43,-314.73 207.51,-304.8"/>
<polygon fill="midnightblue" stroke="midnightblue" points="209.14,-301.7 198.74,-299.65 205.6,-307.74 209.14,-301.7"/>
</g>
<!-- Node7 -->
<g id="node7" class="node">
<title>Node7</title>
<g id="a_node7"><a xlink:href="_callback_8hpp.html" target="_top" xlink:title=" ">
<polygon fill="white" stroke="black" points="334,-280.5 334,-299.5 566,-299.5 566,-280.5 334,-280.5"/>
<text text-anchor="middle" x="450" y="-287.5" font-family="Helvetica,sans-Serif" font-size="10.00">Liger&#45;Engine/Core/Event/Detail/Callback.hpp</text>
</a>
</g>
</g>
<!-- Node5&#45;&gt;Node7 -->
<g id="edge6" class="edge">
<title>Node5&#45;&gt;Node7</title>
<path fill="none" stroke="midnightblue" d="M303.57,-336.44C333.1,-327.28 380.12,-312.69 412.88,-302.52"/>
<polygon fill="midnightblue" stroke="midnightblue" points="414.04,-305.82 422.56,-299.52 411.97,-299.14 414.04,-305.82"/>
</g>
<!-- Node8 -->
<g id="node8" class="node">
<title>Node8</title>
<g id="a_node8"><a xlink:href="_log_8hpp.html" target="_top" xlink:title=" ">
<polygon fill="white" stroke="black" points="484,-168.5 484,-187.5 648,-187.5 648,-168.5 484,-168.5"/>
<text text-anchor="middle" x="566" y="-175.5" font-family="Helvetica,sans-Serif" font-size="10.00">Liger&#45;Engine/Core/Log/Log.hpp</text>
</a>
</g>
</g>
<!-- Node7&#45;&gt;Node8 -->
<g id="edge7" class="edge">
<title>Node7&#45;&gt;Node8</title>
<path fill="none" stroke="midnightblue" d="M450,-280.36C450.44,-266.81 453.17,-240.42 467,-224 480.26,-208.26 500.17,-197.77 518.67,-190.9"/>
<polygon fill="midnightblue" stroke="midnightblue" points="519.86,-194.2 528.18,-187.64 517.58,-187.58 519.86,-194.2"/>
</g>
<!-- Node15 -->
<g id="node15" class="node">
<title>Node15</title>
<g id="a_node15"><a xlink:href="_core_2_log_channel_8hpp.html" target="_top" xlink:title=" ">
<polygon fill="white" stroke="black" points="476,-224.5 476,-243.5 660,-243.5 660,-224.5 476,-224.5"/>
<text text-anchor="middle" x="568" y="-231.5" font-family="Helvetica,sans-Serif" font-size="10.00">Liger&#45;Engine/Core/LogChannel.hpp</text>
</a>
</g>
</g>
<!-- Node7&#45;&gt;Node15 -->
<g id="edge16" class="edge">
<title>Node7&#45;&gt;Node15</title>
<path fill="none" stroke="midnightblue" d="M468.7,-280.44C487.94,-271.64 518.15,-257.81 540.2,-247.72"/>
<polygon fill="midnightblue" stroke="midnightblue" points="541.75,-250.86 549.39,-243.52 538.84,-244.5 541.75,-250.86"/>
</g>
<!-- Node9 -->
<g id="node9" class="node">
<title>Node9</title>
<g id="a_node9"><a xlink:href="_message_8hpp.html" target="_top" xlink:title=" ">
<polygon fill="white" stroke="black" points="411.5,-56.5 411.5,-75.5 602.5,-75.5 602.5,-56.5 411.5,-56.5"/>
<text text-anchor="middle" x="507" y="-63.5" font-family="Helvetica,sans-Serif" font-size="10.00">Liger&#45;Engine/Core/Log/Message.hpp</text>
</a>
</g>
</g>
<!-- Node8&#45;&gt;Node9 -->
<g id="edge8" class="edge">
<title>Node8&#45;&gt;Node9</title>
<path fill="none" stroke="midnightblue" d="M522.93,-168.49C502.6,-162.07 480.18,-150.99 468,-132 457.21,-115.17 472.95,-95.44 487.54,-82.16"/>
<polygon fill="midnightblue" stroke="midnightblue" points="490,-84.66 495.35,-75.51 485.47,-79.33 490,-84.66"/>
</g>
<!-- Node12 -->
<g id="node12" class="node">
<title>Node12</title>
<g id="a_node12"><a xlink:href="_writer_8hpp.html" target="_top" xlink:title=" ">
<polygon fill="white" stroke="black" points="477,-112.5 477,-131.5 653,-131.5 653,-112.5 477,-112.5"/>
<text text-anchor="middle" x="565" y="-119.5" font-family="Helvetica,sans-Serif" font-size="10.00">Liger&#45;Engine/Core/Log/Writer.hpp</text>
</a>
</g>
</g>
<!-- Node8&#45;&gt;Node12 -->
<g id="edge12" class="edge">
<title>Node8&#45;&gt;Node12</title>
<path fill="none" stroke="midnightblue" d="M565.83,-168.08C565.7,-161.01 565.52,-150.86 565.35,-141.99"/>
<polygon fill="midnightblue" stroke="midnightblue" points="568.85,-141.68 565.16,-131.75 561.85,-141.81 568.85,-141.68"/>
</g>
<!-- Node13 -->
<g id="node13" class="node">
<title>Node13</title>
<g id="a_node13"><a xlink:title=" ">
<polygon fill="white" stroke="#bfbfbf" points="736.5,-112.5 736.5,-131.5 803.5,-131.5 803.5,-112.5 736.5,-112.5"/>
<text text-anchor="middle" x="770" y="-119.5" font-family="Helvetica,sans-Serif" font-size="10.00">fmt/core.h</text>
</a>
</g>
</g>
<!-- Node8&#45;&gt;Node13 -->
<g id="edge14" class="edge">
<title>Node8&#45;&gt;Node13</title>
<path fill="none" stroke="midnightblue" d="M598.32,-168.44C633.39,-159.16 689.5,-144.31 727.96,-134.13"/>
<polygon fill="midnightblue" stroke="midnightblue" points="729.06,-137.46 737.83,-131.52 727.26,-130.69 729.06,-137.46"/>
</g>
<!-- Node14 -->
<g id="node14" class="node">
<title>Node14</title>
<g id="a_node14"><a xlink:title=" ">
<polygon fill="white" stroke="#bfbfbf" points="671.5,-112.5 671.5,-131.5 718.5,-131.5 718.5,-112.5 671.5,-112.5"/>
<text text-anchor="middle" x="695" y="-119.5" font-family="Helvetica,sans-Serif" font-size="10.00">vector</text>
</a>
</g>
</g>
<!-- Node8&#45;&gt;Node14 -->
<g id="edge15" class="edge">
<title>Node8&#45;&gt;Node14</title>
<path fill="none" stroke="midnightblue" d="M586.44,-168.44C607.67,-159.56 641.1,-145.56 665.25,-135.45"/>
<polygon fill="midnightblue" stroke="midnightblue" points="666.78,-138.61 674.66,-131.52 664.08,-132.15 666.78,-138.61"/>
</g>
<!-- Node9&#45;&gt;Node4 -->
<g id="edge9" class="edge">
<title>Node9&#45;&gt;Node4</title>
<path fill="none" stroke="midnightblue" d="M471.19,-56.44C428.65,-46.28 358.14,-29.43 315.97,-19.36"/>
<polygon fill="midnightblue" stroke="midnightblue" points="316.69,-15.93 306.15,-17.01 315.06,-22.74 316.69,-15.93"/>
</g>
<!-- Node10 -->
<g id="node10" class="node">
<title>Node10</title>
<g id="a_node10"><a xlink:title=" ">
<polygon fill="white" stroke="#bfbfbf" points="485,-0.5 485,-19.5 529,-19.5 529,-0.5 485,-0.5"/>
<text text-anchor="middle" x="507" y="-7.5" font-family="Helvetica,sans-Serif" font-size="10.00">string</text>
</a>
</g>
</g>
<!-- Node9&#45;&gt;Node10 -->
<g id="edge10" class="edge">
<title>Node9&#45;&gt;Node10</title>
<path fill="none" stroke="midnightblue" d="M507,-56.08C507,-49.01 507,-38.86 507,-29.99"/>
<polygon fill="midnightblue" stroke="midnightblue" points="510.5,-29.75 507,-19.75 503.5,-29.75 510.5,-29.75"/>
</g>
<!-- Node11 -->
<g id="node11" class="node">
<title>Node11</title>
<g id="a_node11"><a xlink:title=" ">
<polygon fill="white" stroke="#bfbfbf" points="734.5,-0.5 734.5,-19.5 807.5,-19.5 807.5,-0.5 734.5,-0.5"/>
<text text-anchor="middle" x="771" y="-7.5" font-family="Helvetica,sans-Serif" font-size="10.00">string_view</text>
</a>
</g>
</g>
<!-- Node9&#45;&gt;Node11 -->
<g id="edge11" class="edge">
<title>Node9&#45;&gt;Node11</title>
<path fill="none" stroke="midnightblue" d="M548.83,-56.44C596.71,-46.65 674.91,-30.66 724.62,-20.49"/>
<polygon fill="midnightblue" stroke="midnightblue" points="725.37,-23.91 734.47,-18.47 723.97,-17.05 725.37,-23.91"/>
</g>
<!-- Node12&#45;&gt;Node9 -->
<g id="edge13" class="edge">
<title>Node12&#45;&gt;Node9</title>
<path fill="none" stroke="midnightblue" d="M555.68,-112.32C547.11,-104.34 534.19,-92.31 523.81,-82.65"/>
<polygon fill="midnightblue" stroke="midnightblue" points="526.19,-80.09 516.49,-75.83 521.42,-85.21 526.19,-80.09"/>
</g>
<!-- Node15&#45;&gt;Node8 -->
<g id="edge17" class="edge">
<title>Node15&#45;&gt;Node8</title>
<path fill="none" stroke="midnightblue" d="M567.67,-224.08C567.41,-217.01 567.03,-206.86 566.7,-197.99"/>
<polygon fill="midnightblue" stroke="midnightblue" points="570.19,-197.61 566.32,-187.75 563.2,-197.87 570.19,-197.61"/>
</g>
<!-- Node18 -->
<g id="node18" class="node">
<title>Node18</title>
<g id="a_node18"><a xlink:title=" ">
<polygon fill="white" stroke="#bfbfbf" points="584.5,-280.5 584.5,-299.5 667.5,-299.5 667.5,-280.5 584.5,-280.5"/>
<text text-anchor="middle" x="626" y="-287.5" font-family="Helvetica,sans-Serif" font-size="10.00">GLFW/glfw3.h</text>
</a>
</g>
</g>
<!-- Node17&#45;&gt;Node18 -->
<g id="edge20" class="edge">
<title>Node17&#45;&gt;Node18</title>
<path fill="none" stroke="midnightblue" d="M661.06,-336.08C655.07,-328.38 646.25,-317.03 638.95,-307.65"/>
<polygon fill="midnightblue" stroke="midnightblue" points="641.71,-305.5 632.81,-299.75 636.18,-309.79 641.71,-305.5"/>
</g>
<!-- Node19&#45;&gt;Node17 -->
<g id="edge33" class="edge">
<title>Node19&#45;&gt;Node17</title>
<path fill="none" stroke="midnightblue" d="M777.4,-392.44C756.01,-383.56 722.32,-369.56 697.98,-359.45"/>
<polygon fill="midnightblue" stroke="midnightblue" points="699.08,-356.12 688.5,-355.52 696.39,-362.58 699.08,-356.12"/>
</g>
<!-- Node20 -->
<g id="node20" class="node">
<title>Node20</title>
<g id="a_node20"><a xlink:href="_math_8hpp.html" target="_top" xlink:title=" ">
<polygon fill="white" stroke="black" points="837.5,-336.5 837.5,-355.5 1016.5,-355.5 1016.5,-336.5 837.5,-336.5"/>
<text text-anchor="middle" x="927" y="-343.5" font-family="Helvetica,sans-Serif" font-size="10.00">Liger&#45;Engine/Core/Math/Math.hpp</text>
</a>
</g>
</g>
<!-- Node19&#45;&gt;Node20 -->
<g id="edge22" class="edge">
<title>Node19&#45;&gt;Node20</title>
<path fill="none" stroke="midnightblue" d="M818.44,-392.44C839.67,-383.56 873.1,-369.56 897.25,-359.45"/>
<polygon fill="midnightblue" stroke="midnightblue" points="898.78,-362.61 906.66,-355.52 896.08,-356.15 898.78,-362.61"/>
</g>
<!-- Node21 -->
<g id="node21" class="node">
<title>Node21</title>
<g id="a_node21"><a xlink:href="_formatting_8hpp.html" target="_top" xlink:title=" ">
<polygon fill="white" stroke="black" points="686,-280.5 686,-299.5 894,-299.5 894,-280.5 686,-280.5"/>
<text text-anchor="middle" x="790" y="-287.5" font-family="Helvetica,sans-Serif" font-size="10.00">Liger&#45;Engine/Core/Math/Formatting.hpp</text>
</a>
</g>
</g>
<!-- Node20&#45;&gt;Node21 -->
<g id="edge23" class="edge">
<title>Node20&#45;&gt;Node21</title>
<path fill="none" stroke="midnightblue" d="M905.29,-336.44C882.65,-327.52 846.93,-313.44 821.25,-303.32"/>
<polygon fill="midnightblue" stroke="midnightblue" points="822.19,-299.93 811.61,-299.52 819.63,-306.44 822.19,-299.93"/>
</g>
<!-- Node23 -->
<g id="node23" class="node">
<title>Node23</title>
<g id="a_node23"><a xlink:href="_random_8hpp.html" target="_top" xlink:title=" ">
<polygon fill="white" stroke="black" points="912.5,-280.5 912.5,-299.5 1107.5,-299.5 1107.5,-280.5 912.5,-280.5"/>
<text text-anchor="middle" x="1010" y="-287.5" font-family="Helvetica,sans-Serif" font-size="10.00">Liger&#45;Engine/Core/Math/Random.hpp</text>
</a>
</g>
</g>
<!-- Node20&#45;&gt;Node23 -->
<g id="edge26" class="edge">
<title>Node20&#45;&gt;Node23</title>
<path fill="none" stroke="midnightblue" d="M940.34,-336.32C953.16,-327.98 972.78,-315.21 987.94,-305.35"/>
<polygon fill="midnightblue" stroke="midnightblue" points="990.22,-308.04 996.7,-299.65 986.41,-302.17 990.22,-308.04"/>
</g>
<!-- Node25 -->
<g id="node25" class="node">
<title>Node25</title>
<g id="a_node25"><a xlink:href="_transform3_d_8hpp.html" target="_top" xlink:title=" ">
<polygon fill="white" stroke="black" points="1125.5,-280.5 1125.5,-299.5 1342.5,-299.5 1342.5,-280.5 1125.5,-280.5"/>
<text text-anchor="middle" x="1234" y="-287.5" font-family="Helvetica,sans-Serif" font-size="10.00">Liger&#45;Engine/Core/Math/Transform3D.hpp</text>
</a>
</g>
</g>
<!-- Node20&#45;&gt;Node25 -->
<g id="edge29" class="edge">
<title>Node20&#45;&gt;Node25</title>
<path fill="none" stroke="midnightblue" d="M975.65,-336.44C1029.87,-326.9 1117.55,-311.48 1175.48,-301.29"/>
<polygon fill="midnightblue" stroke="midnightblue" points="1176.34,-304.7 1185.58,-299.52 1175.13,-297.8 1176.34,-304.7"/>
</g>
<!-- Node21&#45;&gt;Node13 -->
<g id="edge24" class="edge">
<title>Node21&#45;&gt;Node13</title>
<path fill="none" stroke="midnightblue" d="M788.92,-280.08C785.78,-253.95 776.53,-177.21 772.24,-141.58"/>
<polygon fill="midnightblue" stroke="midnightblue" points="775.7,-141.08 771.03,-131.57 768.75,-141.92 775.7,-141.08"/>
</g>
<!-- Node22 -->
<g id="node22" class="node">
<title>Node22</title>
<g id="a_node22"><a xlink:title=" ">
<polygon fill="white" stroke="#bfbfbf" points="798,-224.5 798,-243.5 876,-243.5 876,-224.5 798,-224.5"/>
<text text-anchor="middle" x="837" y="-231.5" font-family="Helvetica,sans-Serif" font-size="10.00">glm/glm.hpp</text>
</a>
</g>
</g>
<!-- Node21&#45;&gt;Node22 -->
<g id="edge25" class="edge">
<title>Node21&#45;&gt;Node22</title>
<path fill="none" stroke="midnightblue" d="M797.76,-280.08C804.54,-272.3 814.54,-260.8 822.76,-251.37"/>
<polygon fill="midnightblue" stroke="midnightblue" points="825.46,-253.59 829.38,-243.75 820.18,-249 825.46,-253.59"/>
</g>
<!-- Node23&#45;&gt;Node22 -->
<g id="edge27" class="edge">
<title>Node23&#45;&gt;Node22</title>
<path fill="none" stroke="midnightblue" d="M982.59,-280.44C953.23,-271.28 906.48,-256.69 873.9,-246.52"/>
<polygon fill="midnightblue" stroke="midnightblue" points="874.87,-243.16 864.28,-243.52 872.79,-249.84 874.87,-243.16"/>
</g>
<!-- Node24 -->
<g id="node24" class="node">
<title>Node24</title>
<g id="a_node24"><a xlink:title=" ">
<polygon fill="white" stroke="#bfbfbf" points="894,-224.5 894,-243.5 948,-243.5 948,-224.5 894,-224.5"/>
<text text-anchor="middle" x="921" y="-231.5" font-family="Helvetica,sans-Serif" font-size="10.00">random</text>
</a>
</g>
</g>
<!-- Node23&#45;&gt;Node24 -->
<g id="edge28" class="edge">
<title>Node23&#45;&gt;Node24</title>
<path fill="none" stroke="midnightblue" d="M995.7,-280.32C981.82,-271.9 960.51,-258.97 944.2,-249.07"/>
<polygon fill="midnightblue" stroke="midnightblue" points="945.63,-245.85 935.26,-243.65 942,-251.83 945.63,-245.85"/>
</g>
<!-- Node26 -->
<g id="node26" class="node">
<title>Node26</title>
<g id="a_node26"><a xlink:title=" ">
<polygon fill="white" stroke="#bfbfbf" points="966.5,-224.5 966.5,-243.5 1129.5,-243.5 1129.5,-224.5 966.5,-224.5"/>
<text text-anchor="middle" x="1048" y="-231.5" font-family="Helvetica,sans-Serif" font-size="10.00">glm/gtc/matrix_transform.hpp</text>
</a>
</g>
</g>
<!-- Node25&#45;&gt;Node26 -->
<g id="edge30" class="edge">
<title>Node25&#45;&gt;Node26</title>
<path fill="none" stroke="midnightblue" d="M1204.53,-280.44C1172.83,-271.24 1122.27,-256.56 1087.23,-246.39"/>
<polygon fill="midnightblue" stroke="midnightblue" points="1087.91,-242.94 1077.33,-243.52 1085.96,-249.67 1087.91,-242.94"/>
</g>
<!-- Node27 -->
<g id="node27" class="node">
<title>Node27</title>
<g id="a_node27"><a xlink:title=" ">
<polygon fill="white" stroke="#bfbfbf" points="1148,-224.5 1148,-243.5 1320,-243.5 1320,-224.5 1148,-224.5"/>
<text text-anchor="middle" x="1234" y="-231.5" font-family="Helvetica,sans-Serif" font-size="10.00">glm/gtx/matrix_decompose.hpp</text>
</a>
</g>
</g>
<!-- Node25&#45;&gt;Node27 -->
<g id="edge31" class="edge">
<title>Node25&#45;&gt;Node27</title>
<path fill="none" stroke="midnightblue" d="M1234,-280.08C1234,-273.01 1234,-262.86 1234,-253.99"/>
<polygon fill="midnightblue" stroke="midnightblue" points="1237.5,-253.75 1234,-243.75 1230.5,-253.75 1237.5,-253.75"/>
</g>
<!-- Node28 -->
<g id="node28" class="node">
<title>Node28</title>
<g id="a_node28"><a xlink:title=" ">
<polygon fill="white" stroke="#bfbfbf" points="1338.5,-224.5 1338.5,-243.5 1469.5,-243.5 1469.5,-224.5 1338.5,-224.5"/>
<text text-anchor="middle" x="1404" y="-231.5" font-family="Helvetica,sans-Serif" font-size="10.00">glm/gtx/quaternion.hpp</text>
</a>
</g>
</g>
<!-- Node25&#45;&gt;Node28 -->
<g id="edge32" class="edge">
<title>Node25&#45;&gt;Node28</title>
<path fill="none" stroke="midnightblue" d="M1260.94,-280.44C1289.66,-271.32 1335.33,-256.81 1367.32,-246.65"/>
<polygon fill="midnightblue" stroke="midnightblue" points="1368.72,-249.88 1377.19,-243.52 1366.6,-243.21 1368.72,-249.88"/>
</g>
<!-- Node29&#45;&gt;Node11 -->
<g id="edge35" class="edge">
<title>Node29&#45;&gt;Node11</title>
<path fill="none" stroke="midnightblue" d="M1177.84,-168.42C1106.86,-140.96 884.99,-55.11 802.39,-23.15"/>
<polygon fill="midnightblue" stroke="midnightblue" points="803.62,-19.87 793.03,-19.52 801.09,-26.4 803.62,-19.87"/>
</g>
</g>
</svg>
        <g id="navigator" transform="translate(0 0)" fill="#404254">
                <rect fill="#f2f5e9" fill-opacity="0.5" stroke="#606060" stroke-width=".5" x="0" y="0" width="60" height="60"/>
                <use id="zoomplus" xlink:href="#zoomPlus" x="17" y="9" onmousedown="handleZoom(evt,'in')"/>
                <use id="zoomminus" xlink:href="#zoomMin" x="42" y="9" onmousedown="handleZoom(evt,'out')"/>
                <use id="reset" xlink:href="#resetDef" x="30" y="36" onmousedown="handleReset()"/>
                <g id="arrowUp" xlink:href="#dirArrow" transform="translate(30 24)" onmousedown="handlePan(0,-1)">
                  <use xlink:href="#rim" fill="#404040">
                        <set attributeName="fill" to="#808080" begin="arrowUp.mouseover" end="arrowUp.mouseout"/>
                  </use>
                  <path fill="none" stroke="white" stroke-width="1.5" d="M0,-3.0v7 M-2.5,-0.5L0,-3.0L2.5,-0.5"/>
                </g>
                <g id="arrowRight" xlink:href="#dirArrow" transform="rotate(90) translate(36 -43)" onmousedown="handlePan(1,0)">
                  <use xlink:href="#rim" fill="#404040">
                        <set attributeName="fill" to="#808080" begin="arrowRight.mouseover" end="arrowRight.mouseout"/>
                  </use>
                  <path fill="none" stroke="white" stroke-width="1.5" d="M0,-3.0v7 M-2.5,-0.5L0,-3.0L2.5,-0.5"/>
                </g>
                <g id="arrowDown" xlink:href="#dirArrow" transform="rotate(180) translate(-30 -48)" onmousedown="handlePan(0,1)">
                  <use xlink:href="#rim" fill="#404040">
                        <set attributeName="fill" to="#808080" begin="arrowDown.mouseover" end="arrowDown.mouseout"/>
                  </use>
                  <path fill="none" stroke="white" stroke-width="1.5" d="M0,-3.0v7 M-2.5,-0.5L0,-3.0L2.5,-0.5"/>
                </g>
                <g id="arrowLeft" xlink:href="#dirArrow" transform="rotate(270) translate(-36 17)" onmousedown="handlePan(-1,0)">
                  <use xlink:href="#rim" fill="#404040">
                        <set attributeName="fill" to="#808080" begin="arrowLeft.mouseover" end="arrowLeft.mouseout"/>
                  </use>
                  <path fill="none" stroke="white" stroke-width="1.5" d="M0,-3.0v7 M-2.5,-0.5L0,-3.0L2.5,-0.5"/>
                </g>
        </g>
        <svg viewBox="0 0 15 15" width="100%" height="30px" preserveAspectRatio="xMaxYMin meet">
         <g id="arrow_out" transform="scale(0.3 0.3)">
          <a xlink:href="_platform_layer_8hpp__incl_org.svg" target="_base">
           <rect id="button" ry="5" rx="5" y="6" x="6" height="38" width="38"
                fill="#f2f5e9" fill-opacity="0.5" stroke="#606060" stroke-width="1.0"/>
           <path id="arrow"
             d="M 11.500037,31.436501 C 11.940474,20.09759 22.043105,11.32322 32.158766,21.979434 L 37.068811,17.246167 C 37.068811,17.246167 37.088388,32 37.088388,32 L 22.160133,31.978069 C 22.160133,31.978069 26.997745,27.140456 26.997745,27.140456 C 18.528582,18.264221 13.291696,25.230495 11.500037,31.436501 z"
             style="fill:#404040;"/>
          </a>
         </g>
        </svg>
</svg>
