<?xml version="1.0" encoding="UTF-8" standalone="no"?>
<!DOCTYPE svg PUBLIC "-//W3C//DTD SVG 1.1//EN"
 "http://www.w3.org/Graphics/SVG/1.1/DTD/svg11.dtd">
<!-- Generated by graphviz version 2.43.0 (0)
 -->
<!-- Title: LogChannel.hpp Pages: 1 -->
<!--zoomable 420 -->
<svg id="main" version="1.1" xmlns="http://www.w3.org/2000/svg" xmlns:xlink="http://www.w3.org/1999/xlink" xml:space="preserve" onload="init(evt)">
<style type="text/css"><![CDATA[
.edge:hover path { stroke: red; }
.edge:hover polygon { stroke: red; fill: red; }
]]></style>
<script type="text/javascript"><![CDATA[
var edges = document.getElementsByTagName('g');
if (edges && edges.length) {
  for (var i=0;i<edges.length;i++) {
    if (edges[i].id.substr(0,4)=='edge') {
      edges[i].setAttribute('class','edge');
    }
  }
}
]]></script>
        <defs>
                <circle id="rim" cx="0" cy="0" r="7"/>
                <circle id="rim2" cx="0" cy="0" r="3.5"/>
                <g id="zoomPlus">
                        <use xlink:href="#rim" fill="#404040">
                                <set attributeName="fill" to="#808080" begin="zoomplus.mouseover" end="zoomplus.mouseout"/>
                        </use>
                        <path d="M-4,0h8M0,-4v8" fill="none" stroke="white" stroke-width="1.5" pointer-events="none"/>
                </g>
                <g id="zoomMin">
                        <use xlink:href="#rim" fill="#404040">
                                <set attributeName="fill" to="#808080" begin="zoomminus.mouseover" end="zoomminus.mouseout"/>
                        </use>
                        <path d="M-4,0h8" fill="none" stroke="white" stroke-width="1.5" pointer-events="none"/>
                </g>
                <g id="dirArrow">
                        <path fill="none" stroke="white" stroke-width="1.5" d="M0,-3.0v7 M-2.5,-0.5L0,-3.0L2.5,-0.5"/>
                </g>
               <g id="resetDef">
                       <use xlink:href="#rim2" fill="#404040">
                               <set attributeName="fill" to="#808080" begin="reset.mouseover" end="reset.mouseout"/>
                       </use>
               </g>
        </defs>

<script type="text/javascript">
var viewWidth = 1099;
var viewHeight = 420;
var sectionId = 'dynsection-1';
</script>
<script xlink:href="svgpan.js"/>
<svg id="graph" class="graph">
<g id="viewport">
<title>LogChannel.hpp</title>
<polygon fill="white" stroke="transparent" points="-4,4 -4,-416 1095,-416 1095,4 -4,4"/>
<!-- Node1 -->
<g id="node1" class="node">
<title>Node1</title>
<g id="a_node1"><a xlink:title=" ">
<polygon fill="#bfbfbf" stroke="black" points="576.5,-392.5 576.5,-411.5 671.5,-411.5 671.5,-392.5 576.5,-392.5"/>
<text text-anchor="middle" x="624" y="-399.5" font-family="Helvetica,sans-Serif" font-size="10.00">LogChannel.hpp</text>
</a>
</g>
</g>
<!-- Node2 -->
<g id="node2" class="node">
<title>Node2</title>
<g id="a_node2"><a xlink:href="_context_8hpp.html" target="_top" xlink:title=" ">
<polygon fill="white" stroke="black" points="586,-336.5 586,-355.5 662,-355.5 662,-336.5 586,-336.5"/>
<text text-anchor="middle" x="624" y="-343.5" font-family="Helvetica,sans-Serif" font-size="10.00">Context.hpp</text>
</a>
</g>
</g>
<!-- Node1&#45;&gt;Node2 -->
<g id="edge1" class="edge">
<title>Node1&#45;&gt;Node2</title>
<path fill="none" stroke="midnightblue" d="M624,-381.8C624,-372.91 624,-362.78 624,-355.75"/>
<polygon fill="midnightblue" stroke="midnightblue" points="620.5,-382.08 624,-392.08 627.5,-382.08 620.5,-382.08"/>
</g>
<!-- Node17 -->
<g id="node17" class="node">
<title>Node17</title>
<g id="a_node17"><a xlink:href="_mapped_buffer_8hpp.html" target="_top" xlink:title=" ">
<polygon fill="white" stroke="black" points="826.5,-168.5 826.5,-187.5 931.5,-187.5 931.5,-168.5 826.5,-168.5"/>
<text text-anchor="middle" x="879" y="-175.5" font-family="Helvetica,sans-Serif" font-size="10.00">MappedBuffer.hpp</text>
</a>
</g>
</g>
<!-- Node1&#45;&gt;Node17 -->
<g id="edge29" class="edge">
<title>Node1&#45;&gt;Node17</title>
<path fill="none" stroke="midnightblue" d="M641.66,-385.62C691.25,-342.45 830.63,-221.11 869.07,-187.64"/>
<polygon fill="midnightblue" stroke="midnightblue" points="639.24,-383.09 634,-392.3 643.84,-388.37 639.24,-383.09"/>
</g>
<!-- Node21 -->
<g id="node21" class="node">
<title>Node21</title>
<g id="a_node21"><a xlink:href="_shader_alignment_8hpp.html" target="_top" xlink:title=" ">
<polygon fill="white" stroke="black" points="392,-168.5 392,-187.5 514,-187.5 514,-168.5 392,-168.5"/>
<text text-anchor="middle" x="453" y="-175.5" font-family="Helvetica,sans-Serif" font-size="10.00">ShaderAlignment.hpp</text>
</a>
</g>
</g>
<!-- Node1&#45;&gt;Node21 -->
<g id="edge30" class="edge">
<title>Node1&#45;&gt;Node21</title>
<path fill="none" stroke="midnightblue" d="M605.99,-385.3C596.88,-376.99 585.9,-366.37 577,-356 525.21,-295.63 474.16,-213.86 458.14,-187.54"/>
<polygon fill="midnightblue" stroke="midnightblue" points="603.93,-388.16 613.72,-392.22 608.6,-382.94 603.93,-388.16"/>
</g>
<!-- Node3 -->
<g id="node3" class="node">
<title>Node3</title>
<g id="a_node3"><a xlink:href="_render_graph_8hpp.html" target="_top" xlink:title=" ">
<polygon fill="white" stroke="black" points="573.5,-280.5 573.5,-299.5 674.5,-299.5 674.5,-280.5 573.5,-280.5"/>
<text text-anchor="middle" x="624" y="-287.5" font-family="Helvetica,sans-Serif" font-size="10.00">RenderGraph.hpp</text>
</a>
</g>
</g>
<!-- Node2&#45;&gt;Node3 -->
<g id="edge2" class="edge">
<title>Node2&#45;&gt;Node3</title>
<path fill="none" stroke="midnightblue" d="M624,-325.8C624,-316.91 624,-306.78 624,-299.75"/>
<polygon fill="midnightblue" stroke="midnightblue" points="620.5,-326.08 624,-336.08 627.5,-326.08 620.5,-326.08"/>
</g>
<!-- Node4 -->
<g id="node4" class="node">
<title>Node4</title>
<g id="a_node4"><a xlink:href="_output_texture_8hpp.html" target="_top" xlink:title=" ">
<polygon fill="white" stroke="black" points="570.5,-224.5 570.5,-243.5 677.5,-243.5 677.5,-224.5 570.5,-224.5"/>
<text text-anchor="middle" x="624" y="-231.5" font-family="Helvetica,sans-Serif" font-size="10.00">OutputTexture.hpp</text>
</a>
</g>
</g>
<!-- Node3&#45;&gt;Node4 -->
<g id="edge3" class="edge">
<title>Node3&#45;&gt;Node4</title>
<path fill="none" stroke="midnightblue" d="M624,-269.8C624,-260.91 624,-250.78 624,-243.75"/>
<polygon fill="midnightblue" stroke="midnightblue" points="620.5,-270.08 624,-280.08 627.5,-270.08 620.5,-270.08"/>
</g>
<!-- Node5 -->
<g id="node5" class="node">
<title>Node5</title>
<g id="a_node5"><a xlink:href="_feature_8hpp.html" target="_top" xlink:title=" ">
<polygon fill="white" stroke="black" points="659,-112.5 659,-131.5 733,-131.5 733,-112.5 659,-112.5"/>
<text text-anchor="middle" x="696" y="-119.5" font-family="Helvetica,sans-Serif" font-size="10.00">Feature.hpp</text>
</a>
</g>
</g>
<!-- Node3&#45;&gt;Node5 -->
<g id="edge4" class="edge">
<title>Node3&#45;&gt;Node5</title>
<path fill="none" stroke="midnightblue" d="M594.9,-275.65C582.37,-268.25 569,-257.73 562,-244 546.66,-213.91 542.28,-195.42 562,-168 573.5,-152.01 623.25,-138.38 658.77,-130.44"/>
<polygon fill="midnightblue" stroke="midnightblue" points="593.32,-278.78 603.78,-280.49 596.67,-272.63 593.32,-278.78"/>
</g>
<!-- Node13 -->
<g id="node13" class="node">
<title>Node13</title>
<g id="a_node13"><a xlink:href="_device_8hpp.html" target="_top" xlink:title=" ">
<polygon fill="white" stroke="black" points="695.5,-224.5 695.5,-243.5 766.5,-243.5 766.5,-224.5 695.5,-224.5"/>
<text text-anchor="middle" x="731" y="-231.5" font-family="Helvetica,sans-Serif" font-size="10.00">Device.hpp</text>
</a>
</g>
</g>
<!-- Node3&#45;&gt;Node13 -->
<g id="edge12" class="edge">
<title>Node3&#45;&gt;Node13</title>
<path fill="none" stroke="midnightblue" d="M650.3,-275.73C670.11,-265.73 696.71,-252.31 713.85,-243.65"/>
<polygon fill="midnightblue" stroke="midnightblue" points="648.54,-272.69 641.19,-280.32 651.7,-278.94 648.54,-272.69"/>
</g>
<!-- Node6 -->
<g id="node6" class="node">
<title>Node6</title>
<g id="a_node6"><a xlink:href="_bloom_feature_8hpp.html" target="_top" xlink:title=" ">
<polygon fill="white" stroke="black" points="111,-56.5 111,-75.5 217,-75.5 217,-56.5 111,-56.5"/>
<text text-anchor="middle" x="164" y="-63.5" font-family="Helvetica,sans-Serif" font-size="10.00">BloomFeature.hpp</text>
</a>
</g>
</g>
<!-- Node5&#45;&gt;Node6 -->
<g id="edge5" class="edge">
<title>Node5&#45;&gt;Node6</title>
<path fill="none" stroke="midnightblue" d="M648.7,-113.15C645.76,-112.74 642.84,-112.35 640,-112 456.7,-89.33 409.46,-97.27 226,-76 223.08,-75.66 220.09,-75.29 217.07,-74.91"/>
<polygon fill="midnightblue" stroke="midnightblue" points="648.3,-116.63 658.7,-114.62 649.32,-109.7 648.3,-116.63"/>
</g>
<!-- Node7 -->
<g id="node7" class="node">
<title>Node7</title>
<g id="a_node7"><a xlink:href="_camera_data_collector_8hpp.html" target="_top" xlink:title=" ">
<polygon fill="white" stroke="black" points="949,-56.5 949,-75.5 1091,-75.5 1091,-56.5 949,-56.5"/>
<text text-anchor="middle" x="1020" y="-63.5" font-family="Helvetica,sans-Serif" font-size="10.00">CameraDataCollector.hpp</text>
</a>
</g>
</g>
<!-- Node5&#45;&gt;Node7 -->
<g id="edge6" class="edge">
<title>Node5&#45;&gt;Node7</title>
<path fill="none" stroke="midnightblue" d="M743.15,-113.14C803.31,-103.12 906.96,-85.84 968.93,-75.51"/>
<polygon fill="midnightblue" stroke="midnightblue" points="742.46,-109.71 733.17,-114.81 743.61,-116.61 742.46,-109.71"/>
</g>
<!-- Node8 -->
<g id="node8" class="node">
<title>Node8</title>
<g id="a_node8"><a xlink:href="_forward_render_feature_8hpp.html" target="_top" xlink:title=" ">
<polygon fill="white" stroke="black" points="381,-56.5 381,-75.5 529,-75.5 529,-56.5 381,-56.5"/>
<text text-anchor="middle" x="455" y="-63.5" font-family="Helvetica,sans-Serif" font-size="10.00">ForwardRenderFeature.hpp</text>
</a>
</g>
</g>
<!-- Node5&#45;&gt;Node8 -->
<g id="edge7" class="edge">
<title>Node5&#45;&gt;Node8</title>
<path fill="none" stroke="midnightblue" d="M648.94,-110.46C603.38,-100.25 535.17,-84.96 492.97,-75.51"/>
<polygon fill="midnightblue" stroke="midnightblue" points="648.35,-113.91 658.87,-112.68 649.88,-107.08 648.35,-113.91"/>
</g>
<!-- Node9 -->
<g id="node9" class="node">
<title>Node9</title>
<g id="a_node9"><a xlink:href="_particle_system_feature_8hpp.html" target="_top" xlink:title=" ">
<polygon fill="white" stroke="black" points="783.5,-56.5 783.5,-75.5 930.5,-75.5 930.5,-56.5 783.5,-56.5"/>
<text text-anchor="middle" x="857" y="-63.5" font-family="Helvetica,sans-Serif" font-size="10.00">ParticleSystemFeature.hpp</text>
</a>
</g>
</g>
<!-- Node5&#45;&gt;Node9 -->
<g id="edge8" class="edge">
<title>Node5&#45;&gt;Node9</title>
<path fill="none" stroke="midnightblue" d="M731.26,-109.17C761.58,-99 804.57,-84.59 831.61,-75.52"/>
<polygon fill="midnightblue" stroke="midnightblue" points="729.88,-105.95 721.51,-112.44 732.1,-112.58 729.88,-105.95"/>
</g>
<!-- Node10 -->
<g id="node10" class="node">
<title>Node10</title>
<g id="a_node10"><a xlink:href="_static_mesh_feature_8hpp.html" target="_top" xlink:title=" ">
<polygon fill="white" stroke="black" points="235,-56.5 235,-75.5 363,-75.5 363,-56.5 235,-56.5"/>
<text text-anchor="middle" x="299" y="-63.5" font-family="Helvetica,sans-Serif" font-size="10.00">StaticMeshFeature.hpp</text>
</a>
</g>
</g>
<!-- Node5&#45;&gt;Node10 -->
<g id="edge9" class="edge">
<title>Node5&#45;&gt;Node10</title>
<path fill="none" stroke="midnightblue" d="M648.82,-113.32C645.84,-112.86 642.88,-112.42 640,-112 543.69,-97.91 431.78,-83.52 363.18,-74.92"/>
<polygon fill="midnightblue" stroke="midnightblue" points="648.55,-116.82 658.97,-114.9 649.63,-109.9 648.55,-116.82"/>
</g>
<!-- Node11 -->
<g id="node11" class="node">
<title>Node11</title>
<g id="a_node11"><a xlink:href="_tonemap_feature_8hpp.html" target="_top" xlink:title=" ">
<polygon fill="white" stroke="black" points="547.5,-56.5 547.5,-75.5 666.5,-75.5 666.5,-56.5 547.5,-56.5"/>
<text text-anchor="middle" x="607" y="-63.5" font-family="Helvetica,sans-Serif" font-size="10.00">TonemapFeature.hpp</text>
</a>
</g>
</g>
<!-- Node5&#45;&gt;Node11 -->
<g id="edge10" class="edge">
<title>Node5&#45;&gt;Node11</title>
<path fill="none" stroke="midnightblue" d="M672.76,-106.9C656.44,-97 635.13,-84.07 621.26,-75.65"/>
<polygon fill="midnightblue" stroke="midnightblue" points="671.34,-110.13 681.7,-112.32 674.97,-104.14 671.34,-110.13"/>
</g>
<!-- Node12 -->
<g id="node12" class="node">
<title>Node12</title>
<g id="a_node12"><a xlink:href="_renderer_8hpp.html" target="_top" xlink:title=" ">
<polygon fill="white" stroke="black" points="684.5,-56.5 684.5,-75.5 765.5,-75.5 765.5,-56.5 684.5,-56.5"/>
<text text-anchor="middle" x="725" y="-63.5" font-family="Helvetica,sans-Serif" font-size="10.00">Renderer.hpp</text>
</a>
</g>
</g>
<!-- Node5&#45;&gt;Node12 -->
<g id="edge11" class="edge">
<title>Node5&#45;&gt;Node12</title>
<path fill="none" stroke="midnightblue" d="M705.68,-102.98C710.6,-93.82 716.36,-83.09 720.3,-75.75"/>
<polygon fill="midnightblue" stroke="midnightblue" points="702.44,-101.62 700.79,-112.08 708.6,-104.93 702.44,-101.62"/>
</g>
<!-- Node13&#45;&gt;Node5 -->
<g id="edge13" class="edge">
<title>Node13&#45;&gt;Node5</title>
<path fill="none" stroke="midnightblue" d="M725.17,-214.67C717.52,-190.62 704.4,-149.39 698.73,-131.59"/>
<polygon fill="midnightblue" stroke="midnightblue" points="721.89,-215.9 728.25,-224.37 728.56,-213.78 721.89,-215.9"/>
</g>
<!-- Node14 -->
<g id="node14" class="node">
<title>Node14</title>
<g id="a_node14"><a xlink:href="_layer_8hpp.html" target="_top" xlink:title=" ">
<polygon fill="white" stroke="black" points="744,-168.5 744,-187.5 808,-187.5 808,-168.5 744,-168.5"/>
<text text-anchor="middle" x="776" y="-175.5" font-family="Helvetica,sans-Serif" font-size="10.00">Layer.hpp</text>
</a>
</g>
</g>
<!-- Node13&#45;&gt;Node14 -->
<g id="edge14" class="edge">
<title>Node13&#45;&gt;Node14</title>
<path fill="none" stroke="midnightblue" d="M745.05,-216.14C752.89,-206.74 762.33,-195.4 768.71,-187.75"/>
<polygon fill="midnightblue" stroke="midnightblue" points="742.14,-214.16 738.43,-224.08 747.52,-218.64 742.14,-214.16"/>
</g>
<!-- Node15 -->
<g id="node15" class="node">
<title>Node15</title>
<g id="a_node15"><a xlink:href="_view_8hpp.html" target="_top" xlink:title=" ">
<polygon fill="white" stroke="black" points="569.5,-112.5 569.5,-131.5 630.5,-131.5 630.5,-112.5 569.5,-112.5"/>
<text text-anchor="middle" x="600" y="-119.5" font-family="Helvetica,sans-Serif" font-size="10.00">View.hpp</text>
</a>
</g>
</g>
<!-- Node13&#45;&gt;Node15 -->
<g id="edge16" class="edge">
<title>Node13&#45;&gt;Node15</title>
<path fill="none" stroke="midnightblue" d="M714.32,-217.22C699.95,-203.8 678.49,-184.19 659,-168 643.14,-154.83 624.06,-140.55 611.98,-131.68"/>
<polygon fill="midnightblue" stroke="midnightblue" points="712.21,-220.04 721.9,-224.34 717,-214.94 712.21,-220.04"/>
</g>
<!-- Node16 -->
<g id="node16" class="node">
<title>Node16</title>
<g id="a_node16"><a xlink:href="_instance_8hpp.html" target="_top" xlink:title=" ">
<polygon fill="white" stroke="black" points="570.5,-168.5 570.5,-187.5 649.5,-187.5 649.5,-168.5 570.5,-168.5"/>
<text text-anchor="middle" x="610" y="-175.5" font-family="Helvetica,sans-Serif" font-size="10.00">Instance.hpp</text>
</a>
</g>
</g>
<!-- Node13&#45;&gt;Node16 -->
<g id="edge17" class="edge">
<title>Node13&#45;&gt;Node16</title>
<path fill="none" stroke="midnightblue" d="M702.69,-220.37C680.03,-210.26 648.87,-196.35 629.08,-187.52"/>
<polygon fill="midnightblue" stroke="midnightblue" points="701.27,-223.56 711.83,-224.44 704.12,-217.17 701.27,-223.56"/>
</g>
<!-- Node13&#45;&gt;Node17 -->
<g id="edge18" class="edge">
<title>Node13&#45;&gt;Node17</title>
<path fill="none" stroke="midnightblue" d="M764.15,-220.91C791.97,-210.75 831.02,-196.51 855.66,-187.52"/>
<polygon fill="midnightblue" stroke="midnightblue" points="762.65,-217.73 754.45,-224.44 765.04,-224.3 762.65,-217.73"/>
</g>
<!-- Node18 -->
<g id="node18" class="node">
<title>Node18</title>
<g id="a_node18"><a xlink:href="_shader_8hpp.html" target="_top" xlink:title=" ">
<polygon fill="white" stroke="black" points="328.5,-112.5 328.5,-131.5 399.5,-131.5 399.5,-112.5 328.5,-112.5"/>
<text text-anchor="middle" x="364" y="-119.5" font-family="Helvetica,sans-Serif" font-size="10.00">Shader.hpp</text>
</a>
</g>
</g>
<!-- Node13&#45;&gt;Node18 -->
<g id="edge21" class="edge">
<title>Node13&#45;&gt;Node18</title>
<path fill="none" stroke="midnightblue" d="M684.75,-223.98C604.19,-214.67 432.7,-230.05 383,-188 366.3,-173.88 363.84,-145.96 363.74,-131.75"/>
<polygon fill="midnightblue" stroke="midnightblue" points="684.64,-227.49 695.03,-225.39 685.6,-220.56 684.64,-227.49"/>
</g>
<!-- Node14&#45;&gt;Node5 -->
<g id="edge15" class="edge">
<title>Node14&#45;&gt;Node5</title>
<path fill="none" stroke="midnightblue" d="M754.7,-162.62C740.08,-152.76 721.17,-139.99 708.82,-131.65"/>
<polygon fill="midnightblue" stroke="midnightblue" points="752.9,-165.63 763.15,-168.32 756.82,-159.83 752.9,-165.63"/>
</g>
<!-- Node17&#45;&gt;Node7 -->
<g id="edge19" class="edge">
<title>Node17&#45;&gt;Node7</title>
<path fill="none" stroke="midnightblue" d="M933.69,-165.53C954.75,-158.77 977.65,-148.23 994,-132 1009.87,-116.25 1016.36,-89.56 1018.75,-75.79"/>
<polygon fill="midnightblue" stroke="midnightblue" points="932.44,-162.25 923.86,-168.46 934.44,-168.95 932.44,-162.25"/>
</g>
<!-- Node17&#45;&gt;Node9 -->
<g id="edge20" class="edge">
<title>Node17&#45;&gt;Node9</title>
<path fill="none" stroke="midnightblue" d="M875.27,-158.35C870.45,-134.25 862.26,-93.31 858.72,-75.59"/>
<polygon fill="midnightblue" stroke="midnightblue" points="871.88,-159.25 877.27,-168.37 878.74,-157.88 871.88,-159.25"/>
</g>
<!-- Node18&#45;&gt;Node6 -->
<g id="edge22" class="edge">
<title>Node18&#45;&gt;Node6</title>
<path fill="none" stroke="midnightblue" d="M322.63,-109.83C284.86,-99.63 229.86,-84.78 195.54,-75.52"/>
<polygon fill="midnightblue" stroke="midnightblue" points="321.74,-113.22 332.31,-112.44 323.57,-106.46 321.74,-113.22"/>
</g>
<!-- Node18&#45;&gt;Node8 -->
<g id="edge23" class="edge">
<title>Node18&#45;&gt;Node8</title>
<path fill="none" stroke="midnightblue" d="M387.29,-107.18C404.04,-97.24 426.1,-84.15 440.42,-75.65"/>
<polygon fill="midnightblue" stroke="midnightblue" points="385.43,-104.21 378.62,-112.32 389.01,-110.23 385.43,-104.21"/>
</g>
<!-- Node18&#45;&gt;Node9 -->
<g id="edge24" class="edge">
<title>Node18&#45;&gt;Node9</title>
<path fill="none" stroke="midnightblue" d="M409.91,-115.98C485.86,-107.67 642.45,-90.53 775,-76 777.7,-75.7 780.46,-75.4 783.24,-75.1"/>
<polygon fill="midnightblue" stroke="midnightblue" points="409.29,-112.52 399.73,-117.09 410.06,-119.48 409.29,-112.52"/>
</g>
<!-- Node18&#45;&gt;Node10 -->
<g id="edge25" class="edge">
<title>Node18&#45;&gt;Node10</title>
<path fill="none" stroke="midnightblue" d="M345.73,-105.82C334.08,-96.15 319.4,-83.95 309.63,-75.83"/>
<polygon fill="midnightblue" stroke="midnightblue" points="343.63,-108.63 353.56,-112.32 348.1,-103.24 343.63,-108.63"/>
</g>
<!-- Node18&#45;&gt;Node11 -->
<g id="edge26" class="edge">
<title>Node18&#45;&gt;Node11</title>
<path fill="none" stroke="midnightblue" d="M409.56,-110.88C455.41,-100.69 525.34,-85.15 568.5,-75.56"/>
<polygon fill="midnightblue" stroke="midnightblue" points="408.6,-107.5 399.59,-113.09 410.12,-114.34 408.6,-107.5"/>
</g>
<!-- Node19 -->
<g id="node19" class="node">
<title>Node19</title>
<g id="a_node19"><a xlink:href="_compiler_8hpp.html" target="_top" xlink:title=" ">
<polygon fill="white" stroke="black" points="11.5,-56.5 11.5,-75.5 92.5,-75.5 92.5,-56.5 11.5,-56.5"/>
<text text-anchor="middle" x="52" y="-63.5" font-family="Helvetica,sans-Serif" font-size="10.00">Compiler.hpp</text>
</a>
</g>
</g>
<!-- Node18&#45;&gt;Node19 -->
<g id="edge27" class="edge">
<title>Node18&#45;&gt;Node19</title>
<path fill="none" stroke="midnightblue" d="M318.43,-113.29C266.14,-104.41 177.85,-89.34 102,-76 98.96,-75.47 95.82,-74.91 92.65,-74.35"/>
<polygon fill="midnightblue" stroke="midnightblue" points="317.94,-116.75 328.39,-114.98 319.11,-109.85 317.94,-116.75"/>
</g>
<!-- Node20 -->
<g id="node20" class="node">
<title>Node20</title>
<g id="a_node20"><a xlink:href="_shader_loader_8hpp.html" target="_top" xlink:title=" ">
<polygon fill="white" stroke="black" points="0,-0.5 0,-19.5 104,-19.5 104,-0.5 0,-0.5"/>
<text text-anchor="middle" x="52" y="-7.5" font-family="Helvetica,sans-Serif" font-size="10.00">ShaderLoader.hpp</text>
</a>
</g>
</g>
<!-- Node19&#45;&gt;Node20 -->
<g id="edge28" class="edge">
<title>Node19&#45;&gt;Node20</title>
<path fill="none" stroke="midnightblue" d="M52,-45.8C52,-36.91 52,-26.78 52,-19.75"/>
<polygon fill="midnightblue" stroke="midnightblue" points="48.5,-46.08 52,-56.08 55.5,-46.08 48.5,-46.08"/>
</g>
<!-- Node21&#45;&gt;Node6 -->
<g id="edge31" class="edge">
<title>Node21&#45;&gt;Node6</title>
<path fill="none" stroke="midnightblue" d="M410.24,-165.82C380.16,-157.53 339.16,-145.4 304,-132 258.17,-114.54 206.32,-88.83 180.48,-75.58"/>
<polygon fill="midnightblue" stroke="midnightblue" points="409.43,-169.23 420,-168.48 411.27,-162.47 409.43,-169.23"/>
</g>
<!-- Node21&#45;&gt;Node8 -->
<g id="edge35" class="edge">
<title>Node21&#45;&gt;Node8</title>
<path fill="none" stroke="midnightblue" d="M453.34,-158.35C453.78,-134.25 454.52,-93.31 454.84,-75.59"/>
<polygon fill="midnightblue" stroke="midnightblue" points="449.84,-158.31 453.16,-168.37 456.84,-158.43 449.84,-158.31"/>
</g>
<!-- Node21&#45;&gt;Node10 -->
<g id="edge36" class="edge">
<title>Node21&#45;&gt;Node10</title>
<path fill="none" stroke="midnightblue" d="M382.12,-165.99C359.78,-159.4 336.63,-148.86 320,-132 304.68,-116.46 300.53,-89.68 299.41,-75.85"/>
<polygon fill="midnightblue" stroke="midnightblue" points="381.39,-169.42 391.96,-168.67 383.22,-162.67 381.39,-169.42"/>
</g>
<!-- Node21&#45;&gt;Node11 -->
<g id="edge37" class="edge">
<title>Node21&#45;&gt;Node11</title>
<path fill="none" stroke="midnightblue" d="M473.42,-162.42C505.99,-139.15 568.71,-94.35 594.97,-75.59"/>
<polygon fill="midnightblue" stroke="midnightblue" points="471.19,-159.71 465.08,-168.37 475.26,-165.4 471.19,-159.71"/>
</g>
<!-- Node21&#45;&gt;Node15 -->
<g id="edge38" class="edge">
<title>Node21&#45;&gt;Node15</title>
<path fill="none" stroke="midnightblue" d="M485.92,-164.91C513.56,-154.75 552.34,-140.51 576.82,-131.52"/>
<polygon fill="midnightblue" stroke="midnightblue" points="484.47,-161.71 476.29,-168.44 486.89,-168.28 484.47,-161.71"/>
</g>
<!-- Node22 -->
<g id="node22" class="node">
<title>Node22</title>
<g id="a_node22"><a xlink:href="_camera_data_8hpp.html" target="_top" xlink:title=" ">
<polygon fill="white" stroke="black" points="885.5,-112.5 885.5,-131.5 984.5,-131.5 984.5,-112.5 885.5,-112.5"/>
<text text-anchor="middle" x="935" y="-119.5" font-family="Helvetica,sans-Serif" font-size="10.00">CameraData.hpp</text>
</a>
</g>
</g>
<!-- Node21&#45;&gt;Node22 -->
<g id="edge32" class="edge">
<title>Node21&#45;&gt;Node22</title>
<path fill="none" stroke="midnightblue" d="M524.25,-169.02C623.16,-157.94 799.57,-138.17 885.38,-128.56"/>
<polygon fill="midnightblue" stroke="midnightblue" points="523.59,-165.57 514.05,-170.16 524.37,-172.53 523.59,-165.57"/>
</g>
<!-- Node22&#45;&gt;Node7 -->
<g id="edge33" class="edge">
<title>Node22&#45;&gt;Node7</title>
<path fill="none" stroke="midnightblue" d="M957.19,-106.9C972.78,-97 993.13,-84.07 1006.38,-75.65"/>
<polygon fill="midnightblue" stroke="midnightblue" points="955.22,-104.01 948.66,-112.32 958.97,-109.92 955.22,-104.01"/>
</g>
<!-- Node22&#45;&gt;Node9 -->
<g id="edge34" class="edge">
<title>Node22&#45;&gt;Node9</title>
<path fill="none" stroke="midnightblue" d="M914.23,-106.62C899.98,-96.76 881.54,-83.99 869.5,-75.65"/>
<polygon fill="midnightblue" stroke="midnightblue" points="912.25,-109.51 922.47,-112.32 916.24,-103.75 912.25,-109.51"/>
</g>
</g>
</svg>
        <g id="navigator" transform="translate(0 0)" fill="#404254">
                <rect fill="#f2f5e9" fill-opacity="0.5" stroke="#606060" stroke-width=".5" x="0" y="0" width="60" height="60"/>
                <use id="zoomplus" xlink:href="#zoomPlus" x="17" y="9" onmousedown="handleZoom(evt,'in')"/>
                <use id="zoomminus" xlink:href="#zoomMin" x="42" y="9" onmousedown="handleZoom(evt,'out')"/>
                <use id="reset" xlink:href="#resetDef" x="30" y="36" onmousedown="handleReset()"/>
                <g id="arrowUp" xlink:href="#dirArrow" transform="translate(30 24)" onmousedown="handlePan(0,-1)">
                  <use xlink:href="#rim" fill="#404040">
                        <set attributeName="fill" to="#808080" begin="arrowUp.mouseover" end="arrowUp.mouseout"/>
                  </use>
                  <path fill="none" stroke="white" stroke-width="1.5" d="M0,-3.0v7 M-2.5,-0.5L0,-3.0L2.5,-0.5"/>
                </g>
                <g id="arrowRight" xlink:href="#dirArrow" transform="rotate(90) translate(36 -43)" onmousedown="handlePan(1,0)">
                  <use xlink:href="#rim" fill="#404040">
                        <set attributeName="fill" to="#808080" begin="arrowRight.mouseover" end="arrowRight.mouseout"/>
                  </use>
                  <path fill="none" stroke="white" stroke-width="1.5" d="M0,-3.0v7 M-2.5,-0.5L0,-3.0L2.5,-0.5"/>
                </g>
                <g id="arrowDown" xlink:href="#dirArrow" transform="rotate(180) translate(-30 -48)" onmousedown="handlePan(0,1)">
                  <use xlink:href="#rim" fill="#404040">
                        <set attributeName="fill" to="#808080" begin="arrowDown.mouseover" end="arrowDown.mouseout"/>
                  </use>
                  <path fill="none" stroke="white" stroke-width="1.5" d="M0,-3.0v7 M-2.5,-0.5L0,-3.0L2.5,-0.5"/>
                </g>
                <g id="arrowLeft" xlink:href="#dirArrow" transform="rotate(270) translate(-36 17)" onmousedown="handlePan(-1,0)">
                  <use xlink:href="#rim" fill="#404040">
                        <set attributeName="fill" to="#808080" begin="arrowLeft.mouseover" end="arrowLeft.mouseout"/>
                  </use>
                  <path fill="none" stroke="white" stroke-width="1.5" d="M0,-3.0v7 M-2.5,-0.5L0,-3.0L2.5,-0.5"/>
                </g>
        </g>
        <svg viewBox="0 0 15 15" width="100%" height="30px" preserveAspectRatio="xMaxYMin meet">
         <g id="arrow_out" transform="scale(0.3 0.3)">
          <a xlink:href="_r_h_i_2_log_channel_8hpp__dep__incl_org.svg" target="_base">
           <rect id="button" ry="5" rx="5" y="6" x="6" height="38" width="38"
                fill="#f2f5e9" fill-opacity="0.5" stroke="#606060" stroke-width="1.0"/>
           <path id="arrow"
             d="M 11.500037,31.436501 C 11.940474,20.09759 22.043105,11.32322 32.158766,21.979434 L 37.068811,17.246167 C 37.068811,17.246167 37.088388,32 37.088388,32 L 22.160133,31.978069 C 22.160133,31.978069 26.997745,27.140456 26.997745,27.140456 C 18.528582,18.264221 13.291696,25.230495 11.500037,31.436501 z"
             style="fill:#404040;"/>
          </a>
         </g>
        </svg>
</svg>
