<?xml version="1.0" encoding="UTF-8" standalone="no"?>
<!DOCTYPE svg PUBLIC "-//W3C//DTD SVG 1.1//EN"
 "http://www.w3.org/Graphics/SVG/1.1/DTD/svg11.dtd">
<!-- Generated by graphviz version 2.43.0 (0)
 -->
<!-- Title: LogChannel.hpp Pages: 1 -->
<!--zoomable 420 -->
<svg id="main" version="1.1" xmlns="http://www.w3.org/2000/svg" xmlns:xlink="http://www.w3.org/1999/xlink" xml:space="preserve" onload="init(evt)">
<style type="text/css"><![CDATA[
.edge:hover path { stroke: red; }
.edge:hover polygon { stroke: red; fill: red; }
]]></style>
<script type="text/javascript"><![CDATA[
var edges = document.getElementsByTagName('g');
if (edges && edges.length) {
  for (var i=0;i<edges.length;i++) {
    if (edges[i].id.substr(0,4)=='edge') {
      edges[i].setAttribute('class','edge');
    }
  }
}
]]></script>
        <defs>
                <circle id="rim" cx="0" cy="0" r="7"/>
                <circle id="rim2" cx="0" cy="0" r="3.5"/>
                <g id="zoomPlus">
                        <use xlink:href="#rim" fill="#404040">
                                <set attributeName="fill" to="#808080" begin="zoomplus.mouseover" end="zoomplus.mouseout"/>
                        </use>
                        <path d="M-4,0h8M0,-4v8" fill="none" stroke="white" stroke-width="1.5" pointer-events="none"/>
                </g>
                <g id="zoomMin">
                        <use xlink:href="#rim" fill="#404040">
                                <set attributeName="fill" to="#808080" begin="zoomminus.mouseover" end="zoomminus.mouseout"/>
                        </use>
                        <path d="M-4,0h8" fill="none" stroke="white" stroke-width="1.5" pointer-events="none"/>
                </g>
                <g id="dirArrow">
                        <path fill="none" stroke="white" stroke-width="1.5" d="M0,-3.0v7 M-2.5,-0.5L0,-3.0L2.5,-0.5"/>
                </g>
               <g id="resetDef">
                       <use xlink:href="#rim2" fill="#404040">
                               <set attributeName="fill" to="#808080" begin="reset.mouseover" end="reset.mouseout"/>
                       </use>
               </g>
        </defs>

<script type="text/javascript">
var viewWidth = 1263;
var viewHeight = 420;
var sectionId = 'dynsection-1';
</script>
<script xlink:href="svgpan.js"/>
<svg id="graph" class="graph">
<g id="viewport">
<title>LogChannel.hpp</title>
<polygon fill="white" stroke="transparent" points="-4,4 -4,-416 1258.5,-416 1258.5,4 -4,4"/>
<!-- Node1 -->
<g id="node1" class="node">
<title>Node1</title>
<g id="a_node1"><a xlink:title=" ">
<polygon fill="#bfbfbf" stroke="black" points="398,-392.5 398,-411.5 493,-411.5 493,-392.5 398,-392.5"/>
<text text-anchor="middle" x="445.5" y="-399.5" font-family="Helvetica,sans-Serif" font-size="10.00">LogChannel.hpp</text>
</a>
</g>
</g>
<!-- Node2 -->
<g id="node2" class="node">
<title>Node2</title>
<g id="a_node2"><a xlink:href="_context_8hpp.html" target="_top" xlink:title=" ">
<polygon fill="white" stroke="black" points="407.5,-336.5 407.5,-355.5 483.5,-355.5 483.5,-336.5 407.5,-336.5"/>
<text text-anchor="middle" x="445.5" y="-343.5" font-family="Helvetica,sans-Serif" font-size="10.00">Context.hpp</text>
</a>
</g>
</g>
<!-- Node1&#45;&gt;Node2 -->
<g id="edge1" class="edge">
<title>Node1&#45;&gt;Node2</title>
<path fill="none" stroke="midnightblue" d="M445.5,-381.8C445.5,-372.91 445.5,-362.78 445.5,-355.75"/>
<polygon fill="midnightblue" stroke="midnightblue" points="442,-382.08 445.5,-392.08 449,-382.08 442,-382.08"/>
</g>
<!-- Node19 -->
<g id="node19" class="node">
<title>Node19</title>
<g id="a_node19"><a xlink:href="_mapped_buffer_8hpp.html" target="_top" xlink:title=" ">
<polygon fill="white" stroke="black" points="312,-168.5 312,-187.5 417,-187.5 417,-168.5 312,-168.5"/>
<text text-anchor="middle" x="364.5" y="-175.5" font-family="Helvetica,sans-Serif" font-size="10.00">MappedBuffer.hpp</text>
</a>
</g>
</g>
<!-- Node1&#45;&gt;Node19 -->
<g id="edge34" class="edge">
<title>Node1&#45;&gt;Node19</title>
<path fill="none" stroke="midnightblue" d="M425.27,-386.19C415.79,-378.25 405.16,-367.69 398.5,-356 365.68,-298.35 363.9,-214.8 364.26,-187.78"/>
<polygon fill="midnightblue" stroke="midnightblue" points="423.15,-388.98 433.16,-392.46 427.51,-383.5 423.15,-388.98"/>
</g>
<!-- Node23 -->
<g id="node23" class="node">
<title>Node23</title>
<g id="a_node23"><a xlink:href="_shader_alignment_8hpp.html" target="_top" xlink:title=" ">
<polygon fill="white" stroke="black" points="729.5,-168.5 729.5,-187.5 851.5,-187.5 851.5,-168.5 729.5,-168.5"/>
<text text-anchor="middle" x="790.5" y="-175.5" font-family="Helvetica,sans-Serif" font-size="10.00">ShaderAlignment.hpp</text>
</a>
</g>
</g>
<!-- Node1&#45;&gt;Node23 -->
<g id="edge35" class="edge">
<title>Node1&#45;&gt;Node23</title>
<path fill="none" stroke="midnightblue" d="M467.76,-386.68C533.36,-344.46 724.63,-221.39 777.07,-187.64"/>
<polygon fill="midnightblue" stroke="midnightblue" points="465.54,-383.94 459.02,-392.3 469.33,-389.83 465.54,-383.94"/>
</g>
<!-- Node3 -->
<g id="node3" class="node">
<title>Node3</title>
<g id="a_node3"><a xlink:href="_render_graph_8hpp.html" target="_top" xlink:title=" ">
<polygon fill="white" stroke="black" points="395,-280.5 395,-299.5 496,-299.5 496,-280.5 395,-280.5"/>
<text text-anchor="middle" x="445.5" y="-287.5" font-family="Helvetica,sans-Serif" font-size="10.00">RenderGraph.hpp</text>
</a>
</g>
</g>
<!-- Node2&#45;&gt;Node3 -->
<g id="edge2" class="edge">
<title>Node2&#45;&gt;Node3</title>
<path fill="none" stroke="midnightblue" d="M445.5,-325.8C445.5,-316.91 445.5,-306.78 445.5,-299.75"/>
<polygon fill="midnightblue" stroke="midnightblue" points="442,-326.08 445.5,-336.08 449,-326.08 442,-326.08"/>
</g>
<!-- Node4 -->
<g id="node4" class="node">
<title>Node4</title>
<g id="a_node4"><a xlink:href="_clustered_light_data_8hpp.html" target="_top" xlink:title=" ">
<polygon fill="white" stroke="black" points="7,-112.5 7,-131.5 138,-131.5 138,-112.5 7,-112.5"/>
<text text-anchor="middle" x="72.5" y="-119.5" font-family="Helvetica,sans-Serif" font-size="10.00">ClusteredLightData.hpp</text>
</a>
</g>
</g>
<!-- Node3&#45;&gt;Node4 -->
<g id="edge3" class="edge">
<title>Node3&#45;&gt;Node4</title>
<path fill="none" stroke="midnightblue" d="M384.78,-289.39C329.46,-287.31 247.08,-277.97 184.5,-244 132.68,-215.87 91.73,-154.66 77.72,-131.82"/>
<polygon fill="midnightblue" stroke="midnightblue" points="384.68,-292.89 394.78,-289.69 384.89,-285.89 384.68,-292.89"/>
</g>
<!-- Node6 -->
<g id="node6" class="node">
<title>Node6</title>
<g id="a_node6"><a xlink:href="_output_texture_8hpp.html" target="_top" xlink:title=" ">
<polygon fill="white" stroke="black" points="194,-224.5 194,-243.5 301,-243.5 301,-224.5 194,-224.5"/>
<text text-anchor="middle" x="247.5" y="-231.5" font-family="Helvetica,sans-Serif" font-size="10.00">OutputTexture.hpp</text>
</a>
</g>
</g>
<!-- Node3&#45;&gt;Node6 -->
<g id="edge5" class="edge">
<title>Node3&#45;&gt;Node6</title>
<path fill="none" stroke="midnightblue" d="M404.06,-277.7C366.69,-267.51 312.56,-252.74 278.73,-243.52"/>
<polygon fill="midnightblue" stroke="midnightblue" points="403.56,-281.19 414.13,-280.44 405.4,-274.44 403.56,-281.19"/>
</g>
<!-- Node7 -->
<g id="node7" class="node">
<title>Node7</title>
<g id="a_node7"><a xlink:href="_feature_8hpp.html" target="_top" xlink:title=" ">
<polygon fill="white" stroke="black" points="492.5,-112.5 492.5,-131.5 566.5,-131.5 566.5,-112.5 492.5,-112.5"/>
<text text-anchor="middle" x="529.5" y="-119.5" font-family="Helvetica,sans-Serif" font-size="10.00">Feature.hpp</text>
</a>
</g>
</g>
<!-- Node3&#45;&gt;Node7 -->
<g id="edge7" class="edge">
<title>Node3&#45;&gt;Node7</title>
<path fill="none" stroke="midnightblue" d="M451.65,-270.82C460.18,-246.59 476.8,-202.74 496.5,-168 504.15,-154.52 515.12,-140.31 522.28,-131.55"/>
<polygon fill="midnightblue" stroke="midnightblue" points="448.28,-269.87 448.32,-280.47 454.89,-272.16 448.28,-269.87"/>
</g>
<!-- Node15 -->
<g id="node15" class="node">
<title>Node15</title>
<g id="a_node15"><a xlink:href="_device_8hpp.html" target="_top" xlink:title=" ">
<polygon fill="white" stroke="black" points="516,-224.5 516,-243.5 587,-243.5 587,-224.5 516,-224.5"/>
<text text-anchor="middle" x="551.5" y="-231.5" font-family="Helvetica,sans-Serif" font-size="10.00">Device.hpp</text>
</a>
</g>
</g>
<!-- Node3&#45;&gt;Node15 -->
<g id="edge16" class="edge">
<title>Node3&#45;&gt;Node15</title>
<path fill="none" stroke="midnightblue" d="M471.56,-275.73C491.18,-265.73 517.53,-252.31 534.51,-243.65"/>
<polygon fill="midnightblue" stroke="midnightblue" points="469.85,-272.67 462.53,-280.32 473.03,-278.9 469.85,-272.67"/>
</g>
<!-- Node5 -->
<g id="node5" class="node">
<title>Node5</title>
<g id="a_node5"><a xlink:href="_clustered_light_feature_8hpp.html" target="_top" xlink:title=" ">
<polygon fill="white" stroke="black" points="0,-56.5 0,-75.5 145,-75.5 145,-56.5 0,-56.5"/>
<text text-anchor="middle" x="72.5" y="-63.5" font-family="Helvetica,sans-Serif" font-size="10.00">ClusteredLightFeature.hpp</text>
</a>
</g>
</g>
<!-- Node4&#45;&gt;Node5 -->
<g id="edge4" class="edge">
<title>Node4&#45;&gt;Node5</title>
<path fill="none" stroke="midnightblue" d="M72.5,-101.8C72.5,-92.91 72.5,-82.78 72.5,-75.75"/>
<polygon fill="midnightblue" stroke="midnightblue" points="69,-102.08 72.5,-112.08 76,-102.08 69,-102.08"/>
</g>
<!-- Node6&#45;&gt;Node5 -->
<g id="edge6" class="edge">
<title>Node6&#45;&gt;Node5</title>
<path fill="none" stroke="midnightblue" d="M235.95,-215.84C218.6,-190.9 183.83,-144.14 146.5,-112 128.95,-96.89 105.74,-83.68 90.02,-75.54"/>
<polygon fill="midnightblue" stroke="midnightblue" points="233.18,-217.98 241.72,-224.25 238.95,-214.02 233.18,-217.98"/>
</g>
<!-- Node7&#45;&gt;Node5 -->
<g id="edge10" class="edge">
<title>Node7&#45;&gt;Node5</title>
<path fill="none" stroke="midnightblue" d="M482.21,-115.41C402.07,-105.94 239.1,-86.69 144.64,-75.52"/>
<polygon fill="midnightblue" stroke="midnightblue" points="482.15,-118.93 492.49,-116.63 482.97,-111.98 482.15,-118.93"/>
</g>
<!-- Node8 -->
<g id="node8" class="node">
<title>Node8</title>
<g id="a_node8"><a xlink:href="_bloom_feature_8hpp.html" target="_top" xlink:title=" ">
<polygon fill="white" stroke="black" points="754.5,-56.5 754.5,-75.5 860.5,-75.5 860.5,-56.5 754.5,-56.5"/>
<text text-anchor="middle" x="807.5" y="-63.5" font-family="Helvetica,sans-Serif" font-size="10.00">BloomFeature.hpp</text>
</a>
</g>
</g>
<!-- Node7&#45;&gt;Node8 -->
<g id="edge8" class="edge">
<title>Node7&#45;&gt;Node8</title>
<path fill="none" stroke="midnightblue" d="M576.73,-111.83C629.05,-101.66 712.73,-85.41 763.65,-75.52"/>
<polygon fill="midnightblue" stroke="midnightblue" points="575.85,-108.43 566.7,-113.77 577.19,-115.3 575.85,-108.43"/>
</g>
<!-- Node9 -->
<g id="node9" class="node">
<title>Node9</title>
<g id="a_node9"><a xlink:href="_camera_data_collector_8hpp.html" target="_top" xlink:title=" ">
<polygon fill="white" stroke="black" points="163.5,-56.5 163.5,-75.5 305.5,-75.5 305.5,-56.5 163.5,-56.5"/>
<text text-anchor="middle" x="234.5" y="-63.5" font-family="Helvetica,sans-Serif" font-size="10.00">CameraDataCollector.hpp</text>
</a>
</g>
</g>
<!-- Node7&#45;&gt;Node9 -->
<g id="edge9" class="edge">
<title>Node7&#45;&gt;Node9</title>
<path fill="none" stroke="midnightblue" d="M482.56,-112.41C427.33,-102.3 336.21,-85.62 281.12,-75.53"/>
<polygon fill="midnightblue" stroke="midnightblue" points="481.97,-115.86 492.44,-114.22 483.23,-108.97 481.97,-115.86"/>
</g>
<!-- Node10 -->
<g id="node10" class="node">
<title>Node10</title>
<g id="a_node10"><a xlink:href="_forward_render_feature_8hpp.html" target="_top" xlink:title=" ">
<polygon fill="white" stroke="black" points="588.5,-56.5 588.5,-75.5 736.5,-75.5 736.5,-56.5 588.5,-56.5"/>
<text text-anchor="middle" x="662.5" y="-63.5" font-family="Helvetica,sans-Serif" font-size="10.00">ForwardRenderFeature.hpp</text>
</a>
</g>
</g>
<!-- Node7&#45;&gt;Node10 -->
<g id="edge11" class="edge">
<title>Node7&#45;&gt;Node10</title>
<path fill="none" stroke="midnightblue" d="M559.95,-108.64C584.91,-98.5 619.58,-84.43 641.52,-75.52"/>
<polygon fill="midnightblue" stroke="midnightblue" points="558.52,-105.44 550.57,-112.44 561.16,-111.92 558.52,-105.44"/>
</g>
<!-- Node11 -->
<g id="node11" class="node">
<title>Node11</title>
<g id="a_node11"><a xlink:href="_particle_system_feature_8hpp.html" target="_top" xlink:title=" ">
<polygon fill="white" stroke="black" points="324,-56.5 324,-75.5 471,-75.5 471,-56.5 324,-56.5"/>
<text text-anchor="middle" x="397.5" y="-63.5" font-family="Helvetica,sans-Serif" font-size="10.00">ParticleSystemFeature.hpp</text>
</a>
</g>
</g>
<!-- Node7&#45;&gt;Node11 -->
<g id="edge12" class="edge">
<title>Node7&#45;&gt;Node11</title>
<path fill="none" stroke="midnightblue" d="M499.28,-108.64C474.51,-98.5 440.1,-84.43 418.32,-75.52"/>
<polygon fill="midnightblue" stroke="midnightblue" points="498,-111.9 508.58,-112.44 500.65,-105.42 498,-111.9"/>
</g>
<!-- Node12 -->
<g id="node12" class="node">
<title>Node12</title>
<g id="a_node12"><a xlink:href="_static_mesh_feature_8hpp.html" target="_top" xlink:title=" ">
<polygon fill="white" stroke="black" points="878.5,-56.5 878.5,-75.5 1006.5,-75.5 1006.5,-56.5 878.5,-56.5"/>
<text text-anchor="middle" x="942.5" y="-63.5" font-family="Helvetica,sans-Serif" font-size="10.00">StaticMeshFeature.hpp</text>
</a>
</g>
</g>
<!-- Node7&#45;&gt;Node12 -->
<g id="edge13" class="edge">
<title>Node7&#45;&gt;Node12</title>
<path fill="none" stroke="midnightblue" d="M576.49,-114.86C650.59,-105.17 794.74,-86.32 878.32,-75.39"/>
<polygon fill="midnightblue" stroke="midnightblue" points="575.98,-111.39 566.51,-116.16 576.88,-118.33 575.98,-111.39"/>
</g>
<!-- Node13 -->
<g id="node13" class="node">
<title>Node13</title>
<g id="a_node13"><a xlink:href="_tonemap_feature_8hpp.html" target="_top" xlink:title=" ">
<polygon fill="white" stroke="black" points="1025,-56.5 1025,-75.5 1144,-75.5 1144,-56.5 1025,-56.5"/>
<text text-anchor="middle" x="1084.5" y="-63.5" font-family="Helvetica,sans-Serif" font-size="10.00">TonemapFeature.hpp</text>
</a>
</g>
</g>
<!-- Node7&#45;&gt;Node13 -->
<g id="edge14" class="edge">
<title>Node7&#45;&gt;Node13</title>
<path fill="none" stroke="midnightblue" d="M576.82,-117.21C663.79,-110.11 854.86,-93.91 1015.5,-76 1018.5,-75.67 1021.57,-75.31 1024.68,-74.94"/>
<polygon fill="midnightblue" stroke="midnightblue" points="576.42,-113.73 566.74,-118.03 576.99,-120.71 576.42,-113.73"/>
</g>
<!-- Node14 -->
<g id="node14" class="node">
<title>Node14</title>
<g id="a_node14"><a xlink:href="_renderer_8hpp.html" target="_top" xlink:title=" ">
<polygon fill="white" stroke="black" points="489,-56.5 489,-75.5 570,-75.5 570,-56.5 489,-56.5"/>
<text text-anchor="middle" x="529.5" y="-63.5" font-family="Helvetica,sans-Serif" font-size="10.00">Renderer.hpp</text>
</a>
</g>
</g>
<!-- Node7&#45;&gt;Node14 -->
<g id="edge15" class="edge">
<title>Node7&#45;&gt;Node14</title>
<path fill="none" stroke="midnightblue" d="M529.5,-101.8C529.5,-92.91 529.5,-82.78 529.5,-75.75"/>
<polygon fill="midnightblue" stroke="midnightblue" points="526,-102.08 529.5,-112.08 533,-102.08 526,-102.08"/>
</g>
<!-- Node15&#45;&gt;Node7 -->
<g id="edge17" class="edge">
<title>Node15&#45;&gt;Node7</title>
<path fill="none" stroke="midnightblue" d="M528.86,-218.26C519.12,-210.54 508.77,-200.16 503.5,-188 494.9,-168.15 510.83,-144.48 521.33,-131.9"/>
<polygon fill="midnightblue" stroke="midnightblue" points="527,-221.23 537.13,-224.33 531.14,-215.59 527,-221.23"/>
</g>
<!-- Node16 -->
<g id="node16" class="node">
<title>Node16</title>
<g id="a_node16"><a xlink:href="_layer_8hpp.html" target="_top" xlink:title=" ">
<polygon fill="white" stroke="black" points="609.5,-168.5 609.5,-187.5 673.5,-187.5 673.5,-168.5 609.5,-168.5"/>
<text text-anchor="middle" x="641.5" y="-175.5" font-family="Helvetica,sans-Serif" font-size="10.00">Layer.hpp</text>
</a>
</g>
</g>
<!-- Node15&#45;&gt;Node16 -->
<g id="edge18" class="edge">
<title>Node15&#45;&gt;Node16</title>
<path fill="none" stroke="midnightblue" d="M574.54,-219.18C591.1,-209.24 612.92,-196.15 627.08,-187.65"/>
<polygon fill="midnightblue" stroke="midnightblue" points="572.73,-216.18 565.96,-224.32 576.34,-222.18 572.73,-216.18"/>
</g>
<!-- Node17 -->
<g id="node17" class="node">
<title>Node17</title>
<g id="a_node17"><a xlink:href="_view_8hpp.html" target="_top" xlink:title=" ">
<polygon fill="white" stroke="black" points="895,-112.5 895,-131.5 956,-131.5 956,-112.5 895,-112.5"/>
<text text-anchor="middle" x="925.5" y="-119.5" font-family="Helvetica,sans-Serif" font-size="10.00">View.hpp</text>
</a>
</g>
</g>
<!-- Node15&#45;&gt;Node17 -->
<g id="edge20" class="edge">
<title>Node15&#45;&gt;Node17</title>
<path fill="none" stroke="midnightblue" d="M597.21,-229.88C671.63,-224.22 815.26,-210.7 860.5,-188 887.03,-174.69 909.32,-146.41 919.53,-131.94"/>
<polygon fill="midnightblue" stroke="midnightblue" points="596.89,-226.4 587.18,-230.63 597.41,-233.38 596.89,-226.4"/>
</g>
<!-- Node18 -->
<g id="node18" class="node">
<title>Node18</title>
<g id="a_node18"><a xlink:href="_instance_8hpp.html" target="_top" xlink:title=" ">
<polygon fill="white" stroke="black" points="512,-168.5 512,-187.5 591,-187.5 591,-168.5 512,-168.5"/>
<text text-anchor="middle" x="551.5" y="-175.5" font-family="Helvetica,sans-Serif" font-size="10.00">Instance.hpp</text>
</a>
</g>
</g>
<!-- Node15&#45;&gt;Node18 -->
<g id="edge21" class="edge">
<title>Node15&#45;&gt;Node18</title>
<path fill="none" stroke="midnightblue" d="M551.5,-213.8C551.5,-204.91 551.5,-194.78 551.5,-187.75"/>
<polygon fill="midnightblue" stroke="midnightblue" points="548,-214.08 551.5,-224.08 555,-214.08 548,-214.08"/>
</g>
<!-- Node15&#45;&gt;Node19 -->
<g id="edge22" class="edge">
<title>Node15&#45;&gt;Node19</title>
<path fill="none" stroke="midnightblue" d="M511.91,-221.57C476.63,-211.38 425.81,-196.7 393.99,-187.52"/>
<polygon fill="midnightblue" stroke="midnightblue" points="511.29,-225.03 521.87,-224.44 513.23,-218.31 511.29,-225.03"/>
</g>
<!-- Node20 -->
<g id="node20" class="node">
<title>Node20</title>
<g id="a_node20"><a xlink:href="_shader_8hpp.html" target="_top" xlink:title=" ">
<polygon fill="white" stroke="black" points="691,-112.5 691,-131.5 762,-131.5 762,-112.5 691,-112.5"/>
<text text-anchor="middle" x="726.5" y="-119.5" font-family="Helvetica,sans-Serif" font-size="10.00">Shader.hpp</text>
</a>
</g>
</g>
<!-- Node15&#45;&gt;Node20 -->
<g id="edge25" class="edge">
<title>Node15&#45;&gt;Node20</title>
<path fill="none" stroke="midnightblue" d="M597.21,-224.89C624.1,-218.37 657.61,-207.05 682.5,-188 702.41,-172.76 716.43,-145.85 722.74,-131.92"/>
<polygon fill="midnightblue" stroke="midnightblue" points="596.23,-221.52 587.26,-227.16 597.78,-228.35 596.23,-221.52"/>
</g>
<!-- Node16&#45;&gt;Node7 -->
<g id="edge19" class="edge">
<title>Node16&#45;&gt;Node7</title>
<path fill="none" stroke="midnightblue" d="M614.25,-163.86C593.48,-153.85 565.48,-140.35 547.45,-131.65"/>
<polygon fill="midnightblue" stroke="midnightblue" points="612.98,-167.13 623.51,-168.32 616.02,-160.83 612.98,-167.13"/>
</g>
<!-- Node19&#45;&gt;Node9 -->
<g id="edge23" class="edge">
<title>Node19&#45;&gt;Node9</title>
<path fill="none" stroke="midnightblue" d="M318.41,-165.28C298.8,-158.33 276.94,-147.72 261.5,-132 245.75,-115.96 238.69,-89.4 235.97,-75.73"/>
<polygon fill="midnightblue" stroke="midnightblue" points="317.52,-168.67 328.12,-168.49 319.72,-162.02 317.52,-168.67"/>
</g>
<!-- Node19&#45;&gt;Node11 -->
<g id="edge24" class="edge">
<title>Node19&#45;&gt;Node11</title>
<path fill="none" stroke="midnightblue" d="M370.25,-158.77C372.81,-150.59 375.84,-140.82 378.5,-132 384.54,-111.96 391.37,-88.37 394.97,-75.85"/>
<polygon fill="midnightblue" stroke="midnightblue" points="366.89,-157.8 367.23,-168.39 373.56,-159.9 366.89,-157.8"/>
</g>
<!-- Node20&#45;&gt;Node5 -->
<g id="edge27" class="edge">
<title>Node20&#45;&gt;Node5</title>
<path fill="none" stroke="midnightblue" d="M680.95,-117.9C584.02,-111.18 350.18,-94.43 154.5,-76 151.51,-75.72 148.45,-75.42 145.37,-75.12"/>
<polygon fill="midnightblue" stroke="midnightblue" points="680.77,-121.39 690.99,-118.59 681.26,-114.41 680.77,-121.39"/>
</g>
<!-- Node20&#45;&gt;Node8 -->
<g id="edge26" class="edge">
<title>Node20&#45;&gt;Node8</title>
<path fill="none" stroke="midnightblue" d="M748.07,-106.62C762.86,-96.76 782.01,-83.99 794.52,-75.65"/>
<polygon fill="midnightblue" stroke="midnightblue" points="745.89,-103.86 739.51,-112.32 749.78,-109.69 745.89,-103.86"/>
</g>
<!-- Node20&#45;&gt;Node10 -->
<g id="edge28" class="edge">
<title>Node20&#45;&gt;Node10</title>
<path fill="none" stroke="midnightblue" d="M708.51,-105.82C697.04,-96.15 682.59,-83.95 672.97,-75.83"/>
<polygon fill="midnightblue" stroke="midnightblue" points="706.32,-108.55 716.22,-112.32 710.83,-103.2 706.32,-108.55"/>
</g>
<!-- Node20&#45;&gt;Node11 -->
<g id="edge29" class="edge">
<title>Node20&#45;&gt;Node11</title>
<path fill="none" stroke="midnightblue" d="M680.92,-113.52C620.19,-103.55 513.02,-85.96 449.3,-75.5"/>
<polygon fill="midnightblue" stroke="midnightblue" points="680.54,-117 690.98,-115.17 681.68,-110.1 680.54,-117"/>
</g>
<!-- Node20&#45;&gt;Node12 -->
<g id="edge30" class="edge">
<title>Node20&#45;&gt;Node12</title>
<path fill="none" stroke="midnightblue" d="M770.66,-109.96C811.46,-99.76 871.21,-84.82 908.43,-75.52"/>
<polygon fill="midnightblue" stroke="midnightblue" points="769.58,-106.62 760.73,-112.44 771.28,-113.41 769.58,-106.62"/>
</g>
<!-- Node20&#45;&gt;Node13 -->
<g id="edge31" class="edge">
<title>Node20&#45;&gt;Node13</title>
<path fill="none" stroke="midnightblue" d="M772.12,-114.12C837.35,-104.28 957.2,-86.2 1027.97,-75.53"/>
<polygon fill="midnightblue" stroke="midnightblue" points="771.5,-110.67 762.14,-115.62 772.55,-117.59 771.5,-110.67"/>
</g>
<!-- Node21 -->
<g id="node21" class="node">
<title>Node21</title>
<g id="a_node21"><a xlink:href="_compiler_8hpp.html" target="_top" xlink:title=" ">
<polygon fill="white" stroke="black" points="1162,-56.5 1162,-75.5 1243,-75.5 1243,-56.5 1162,-56.5"/>
<text text-anchor="middle" x="1202.5" y="-63.5" font-family="Helvetica,sans-Serif" font-size="10.00">Compiler.hpp</text>
</a>
</g>
</g>
<!-- Node20&#45;&gt;Node21 -->
<g id="edge32" class="edge">
<title>Node20&#45;&gt;Node21</title>
<path fill="none" stroke="midnightblue" d="M772.04,-117.35C850.27,-110.84 1015.11,-95.97 1153.5,-76 1156.24,-75.6 1159.06,-75.17 1161.9,-74.71"/>
<polygon fill="midnightblue" stroke="midnightblue" points="771.72,-113.87 762.04,-118.18 772.3,-120.85 771.72,-113.87"/>
</g>
<!-- Node22 -->
<g id="node22" class="node">
<title>Node22</title>
<g id="a_node22"><a xlink:href="_shader_loader_8hpp.html" target="_top" xlink:title=" ">
<polygon fill="white" stroke="black" points="1150.5,-0.5 1150.5,-19.5 1254.5,-19.5 1254.5,-0.5 1150.5,-0.5"/>
<text text-anchor="middle" x="1202.5" y="-7.5" font-family="Helvetica,sans-Serif" font-size="10.00">ShaderLoader.hpp</text>
</a>
</g>
</g>
<!-- Node21&#45;&gt;Node22 -->
<g id="edge33" class="edge">
<title>Node21&#45;&gt;Node22</title>
<path fill="none" stroke="midnightblue" d="M1202.5,-45.8C1202.5,-36.91 1202.5,-26.78 1202.5,-19.75"/>
<polygon fill="midnightblue" stroke="midnightblue" points="1199,-46.08 1202.5,-56.08 1206,-46.08 1199,-46.08"/>
</g>
<!-- Node23&#45;&gt;Node4 -->
<g id="edge41" class="edge">
<title>Node23&#45;&gt;Node4</title>
<path fill="none" stroke="midnightblue" d="M719.22,-170.96C706.97,-169.95 694.37,-168.93 682.5,-168 463.92,-150.9 409.14,-148.34 190.5,-132 173.49,-130.73 155.11,-129.34 138.03,-128.03"/>
<polygon fill="midnightblue" stroke="midnightblue" points="719.14,-174.46 729.39,-171.8 719.72,-167.49 719.14,-174.46"/>
</g>
<!-- Node23&#45;&gt;Node5 -->
<g id="edge42" class="edge">
<title>Node23&#45;&gt;Node5</title>
<path fill="none" stroke="midnightblue" d="M719.29,-171.06C576.24,-159.1 267.04,-133.17 261.5,-132 197.84,-118.56 126.05,-89.94 92.18,-75.58"/>
<polygon fill="midnightblue" stroke="midnightblue" points="719.04,-174.55 729.3,-171.89 719.62,-167.57 719.04,-174.55"/>
</g>
<!-- Node23&#45;&gt;Node8 -->
<g id="edge36" class="edge">
<title>Node23&#45;&gt;Node8</title>
<path fill="none" stroke="midnightblue" d="M793.38,-158.35C797.11,-134.25 803.43,-93.31 806.17,-75.59"/>
<polygon fill="midnightblue" stroke="midnightblue" points="789.9,-157.95 791.83,-168.37 796.82,-159.02 789.9,-157.95"/>
</g>
<!-- Node23&#45;&gt;Node10 -->
<g id="edge43" class="edge">
<title>Node23&#45;&gt;Node10</title>
<path fill="none" stroke="midnightblue" d="M738.41,-165.44C718.54,-158.67 697.17,-148.15 682.5,-132 667.9,-115.92 663.95,-89.37 662.89,-75.72"/>
<polygon fill="midnightblue" stroke="midnightblue" points="737.42,-168.8 748.01,-168.48 739.53,-162.13 737.42,-168.8"/>
</g>
<!-- Node23&#45;&gt;Node12 -->
<g id="edge44" class="edge">
<title>Node23&#45;&gt;Node12</title>
<path fill="none" stroke="midnightblue" d="M803.74,-160.15C815.46,-146.02 833.6,-125.97 852.5,-112 873.72,-96.32 901.22,-83.49 920.21,-75.59"/>
<polygon fill="midnightblue" stroke="midnightblue" points="800.9,-158.1 797.32,-168.07 806.34,-162.5 800.9,-158.1"/>
</g>
<!-- Node23&#45;&gt;Node13 -->
<g id="edge45" class="edge">
<title>Node23&#45;&gt;Node13</title>
<path fill="none" stroke="midnightblue" d="M810.31,-162.3C833.51,-145.32 870.78,-118.82 886.5,-112 930.81,-92.78 984.4,-81.24 1024.64,-74.67"/>
<polygon fill="midnightblue" stroke="midnightblue" points="808.16,-159.54 802.18,-168.29 812.3,-165.18 808.16,-159.54"/>
</g>
<!-- Node23&#45;&gt;Node17 -->
<g id="edge46" class="edge">
<title>Node23&#45;&gt;Node17</title>
<path fill="none" stroke="midnightblue" d="M821.41,-164.64C846.74,-154.5 881.93,-140.43 904.21,-131.52"/>
<polygon fill="midnightblue" stroke="midnightblue" points="819.88,-161.48 811.89,-168.44 822.48,-167.98 819.88,-161.48"/>
</g>
<!-- Node24 -->
<g id="node24" class="node">
<title>Node24</title>
<g id="a_node24"><a xlink:href="_camera_data_8hpp.html" target="_top" xlink:title=" ">
<polygon fill="white" stroke="black" points="271,-112.5 271,-131.5 370,-131.5 370,-112.5 271,-112.5"/>
<text text-anchor="middle" x="320.5" y="-119.5" font-family="Helvetica,sans-Serif" font-size="10.00">CameraData.hpp</text>
</a>
</g>
</g>
<!-- Node23&#45;&gt;Node24 -->
<g id="edge37" class="edge">
<title>Node23&#45;&gt;Node24</title>
<path fill="none" stroke="midnightblue" d="M719.11,-168.8C622.8,-157.73 453.71,-138.3 370.13,-128.7"/>
<polygon fill="midnightblue" stroke="midnightblue" points="718.72,-172.28 729.06,-169.94 719.52,-165.32 718.72,-172.28"/>
</g>
<!-- Node24&#45;&gt;Node5 -->
<g id="edge39" class="edge">
<title>Node24&#45;&gt;Node5</title>
<path fill="none" stroke="midnightblue" d="M271.27,-110.28C224.41,-100.08 154.8,-84.92 111.61,-75.52"/>
<polygon fill="midnightblue" stroke="midnightblue" points="270.69,-113.74 281.2,-112.44 272.18,-106.9 270.69,-113.74"/>
</g>
<!-- Node24&#45;&gt;Node9 -->
<g id="edge38" class="edge">
<title>Node24&#45;&gt;Node9</title>
<path fill="none" stroke="midnightblue" d="M298.05,-106.9C282.28,-97 261.69,-84.07 248.28,-75.65"/>
<polygon fill="midnightblue" stroke="midnightblue" points="296.35,-109.97 306.68,-112.32 300.07,-104.04 296.35,-109.97"/>
</g>
<!-- Node24&#45;&gt;Node11 -->
<g id="edge40" class="edge">
<title>Node24&#45;&gt;Node11</title>
<path fill="none" stroke="midnightblue" d="M341.4,-106.34C355.41,-96.52 373.38,-83.91 385.16,-75.65"/>
<polygon fill="midnightblue" stroke="midnightblue" points="339.05,-103.72 332.87,-112.32 343.07,-109.45 339.05,-103.72"/>
</g>
</g>
</svg>
        <g id="navigator" transform="translate(0 0)" fill="#404254">
                <rect fill="#f2f5e9" fill-opacity="0.5" stroke="#606060" stroke-width=".5" x="0" y="0" width="60" height="60"/>
                <use id="zoomplus" xlink:href="#zoomPlus" x="17" y="9" onmousedown="handleZoom(evt,'in')"/>
                <use id="zoomminus" xlink:href="#zoomMin" x="42" y="9" onmousedown="handleZoom(evt,'out')"/>
                <use id="reset" xlink:href="#resetDef" x="30" y="36" onmousedown="handleReset()"/>
                <g id="arrowUp" xlink:href="#dirArrow" transform="translate(30 24)" onmousedown="handlePan(0,-1)">
                  <use xlink:href="#rim" fill="#404040">
                        <set attributeName="fill" to="#808080" begin="arrowUp.mouseover" end="arrowUp.mouseout"/>
                  </use>
                  <path fill="none" stroke="white" stroke-width="1.5" d="M0,-3.0v7 M-2.5,-0.5L0,-3.0L2.5,-0.5"/>
                </g>
                <g id="arrowRight" xlink:href="#dirArrow" transform="rotate(90) translate(36 -43)" onmousedown="handlePan(1,0)">
                  <use xlink:href="#rim" fill="#404040">
                        <set attributeName="fill" to="#808080" begin="arrowRight.mouseover" end="arrowRight.mouseout"/>
                  </use>
                  <path fill="none" stroke="white" stroke-width="1.5" d="M0,-3.0v7 M-2.5,-0.5L0,-3.0L2.5,-0.5"/>
                </g>
                <g id="arrowDown" xlink:href="#dirArrow" transform="rotate(180) translate(-30 -48)" onmousedown="handlePan(0,1)">
                  <use xlink:href="#rim" fill="#404040">
                        <set attributeName="fill" to="#808080" begin="arrowDown.mouseover" end="arrowDown.mouseout"/>
                  </use>
                  <path fill="none" stroke="white" stroke-width="1.5" d="M0,-3.0v7 M-2.5,-0.5L0,-3.0L2.5,-0.5"/>
                </g>
                <g id="arrowLeft" xlink:href="#dirArrow" transform="rotate(270) translate(-36 17)" onmousedown="handlePan(-1,0)">
                  <use xlink:href="#rim" fill="#404040">
                        <set attributeName="fill" to="#808080" begin="arrowLeft.mouseover" end="arrowLeft.mouseout"/>
                  </use>
                  <path fill="none" stroke="white" stroke-width="1.5" d="M0,-3.0v7 M-2.5,-0.5L0,-3.0L2.5,-0.5"/>
                </g>
        </g>
        <svg viewBox="0 0 15 15" width="100%" height="30px" preserveAspectRatio="xMaxYMin meet">
         <g id="arrow_out" transform="scale(0.3 0.3)">
          <a xlink:href="_r_h_i_2_log_channel_8hpp__dep__incl_org.svg" target="_base">
           <rect id="button" ry="5" rx="5" y="6" x="6" height="38" width="38"
                fill="#f2f5e9" fill-opacity="0.5" stroke="#606060" stroke-width="1.0"/>
           <path id="arrow"
             d="M 11.500037,31.436501 C 11.940474,20.09759 22.043105,11.32322 32.158766,21.979434 L 37.068811,17.246167 C 37.068811,17.246167 37.088388,32 37.088388,32 L 22.160133,31.978069 C 22.160133,31.978069 26.997745,27.140456 26.997745,27.140456 C 18.528582,18.264221 13.291696,25.230495 11.500037,31.436501 z"
             style="fill:#404040;"/>
          </a>
         </g>
        </svg>
</svg>
