<?xml version="1.0" encoding="UTF-8" standalone="no"?>
<!DOCTYPE svg PUBLIC "-//W3C//DTD SVG 1.1//EN"
 "http://www.w3.org/Graphics/SVG/1.1/DTD/svg11.dtd">
<!-- Generated by graphviz version 2.43.0 (0)
 -->
<!-- Title: Registry.hpp Pages: 1 -->
<svg width="1009pt" height="196pt"
 viewBox="0.00 0.00 1008.50 196.00" xmlns="http://www.w3.org/2000/svg" xmlns:xlink="http://www.w3.org/1999/xlink">
<g id="graph0" class="graph" transform="scale(1 1) rotate(0) translate(4 192)">
<title>Registry.hpp</title>
<polygon fill="white" stroke="transparent" points="-4,4 -4,-192 1004.5,-192 1004.5,4 -4,4"/>
<!-- Node1 -->
<g id="node1" class="node">
<title>Node1</title>
<g id="a_node1"><a xlink:title=" ">
<polygon fill="#bfbfbf" stroke="black" points="299.5,-168.5 299.5,-187.5 376.5,-187.5 376.5,-168.5 299.5,-168.5"/>
<text text-anchor="middle" x="338" y="-175.5" font-family="Helvetica,sans-Serif" font-size="10.00">Registry.hpp</text>
</a>
</g>
</g>
<!-- Node2 -->
<g id="node2" class="node">
<title>Node2</title>
<g id="a_node2"><a xlink:href="_importer_8hpp.html" target="_top" xlink:title=" ">
<polygon fill="white" stroke="black" points="157.5,-112.5 157.5,-131.5 236.5,-131.5 236.5,-112.5 157.5,-112.5"/>
<text text-anchor="middle" x="197" y="-119.5" font-family="Helvetica,sans-Serif" font-size="10.00">Importer.hpp</text>
</a>
</g>
</g>
<!-- Node1&#45;&gt;Node2 -->
<g id="edge1" class="edge">
<title>Node1&#45;&gt;Node2</title>
<path fill="none" stroke="midnightblue" d="M306.07,-164.77C279.59,-154.63 242.61,-140.47 219.24,-131.52"/>
<polygon fill="midnightblue" stroke="midnightblue" points="305.07,-168.14 315.66,-168.44 307.57,-161.6 305.07,-168.14"/>
</g>
<!-- Node6 -->
<g id="node6" class="node">
<title>Node6</title>
<g id="a_node6"><a xlink:href="_manager_8hpp.html" target="_top" xlink:title=" ">
<polygon fill="white" stroke="black" points="521,-112.5 521,-131.5 601,-131.5 601,-112.5 521,-112.5"/>
<text text-anchor="middle" x="561" y="-119.5" font-family="Helvetica,sans-Serif" font-size="10.00">Manager.hpp</text>
</a>
</g>
</g>
<!-- Node1&#45;&gt;Node6 -->
<g id="edge5" class="edge">
<title>Node1&#45;&gt;Node6</title>
<path fill="none" stroke="midnightblue" d="M383.06,-166.09C425.19,-155.89 487.24,-140.86 525.83,-131.52"/>
<polygon fill="midnightblue" stroke="midnightblue" points="382.23,-162.69 373.34,-168.44 383.88,-169.49 382.23,-162.69"/>
</g>
<!-- Node3 -->
<g id="node3" class="node">
<title>Node3</title>
<g id="a_node3"><a xlink:href="_importer_library_8hpp.html" target="_top" xlink:title=" ">
<polygon fill="white" stroke="black" points="0,-56.5 0,-75.5 112,-75.5 112,-56.5 0,-56.5"/>
<text text-anchor="middle" x="56" y="-63.5" font-family="Helvetica,sans-Serif" font-size="10.00">ImporterLibrary.hpp</text>
</a>
</g>
</g>
<!-- Node2&#45;&gt;Node3 -->
<g id="edge2" class="edge">
<title>Node2&#45;&gt;Node3</title>
<path fill="none" stroke="midnightblue" d="M165.07,-108.77C138.59,-98.63 101.61,-84.47 78.24,-75.52"/>
<polygon fill="midnightblue" stroke="midnightblue" points="164.07,-112.14 174.66,-112.44 166.57,-105.6 164.07,-112.14"/>
</g>
<!-- Node4 -->
<g id="node4" class="node">
<title>Node4</title>
<g id="a_node4"><a xlink:href="_static_mesh_importer_8hpp.html" target="_top" xlink:title=" ">
<polygon fill="white" stroke="black" points="130.5,-56.5 130.5,-75.5 263.5,-75.5 263.5,-56.5 130.5,-56.5"/>
<text text-anchor="middle" x="197" y="-63.5" font-family="Helvetica,sans-Serif" font-size="10.00">StaticMeshImporter.hpp</text>
</a>
</g>
</g>
<!-- Node2&#45;&gt;Node4 -->
<g id="edge3" class="edge">
<title>Node2&#45;&gt;Node4</title>
<path fill="none" stroke="midnightblue" d="M197,-101.8C197,-92.91 197,-82.78 197,-75.75"/>
<polygon fill="midnightblue" stroke="midnightblue" points="193.5,-102.08 197,-112.08 200.5,-102.08 193.5,-102.08"/>
</g>
<!-- Node5 -->
<g id="node5" class="node">
<title>Node5</title>
<g id="a_node5"><a xlink:href="_gltf_importer_8hpp.html" target="_top" xlink:title=" ">
<polygon fill="white" stroke="black" points="148.5,-0.5 148.5,-19.5 245.5,-19.5 245.5,-0.5 148.5,-0.5"/>
<text text-anchor="middle" x="197" y="-7.5" font-family="Helvetica,sans-Serif" font-size="10.00">GltfImporter.hpp</text>
</a>
</g>
</g>
<!-- Node4&#45;&gt;Node5 -->
<g id="edge4" class="edge">
<title>Node4&#45;&gt;Node5</title>
<path fill="none" stroke="midnightblue" d="M197,-45.8C197,-36.91 197,-26.78 197,-19.75"/>
<polygon fill="midnightblue" stroke="midnightblue" points="193.5,-46.08 197,-56.08 200.5,-46.08 193.5,-46.08"/>
</g>
<!-- Node7 -->
<g id="node7" class="node">
<title>Node7</title>
<g id="a_node7"><a xlink:href="_bloom_feature_8hpp.html" target="_top" xlink:title=" ">
<polygon fill="white" stroke="black" points="282,-56.5 282,-75.5 388,-75.5 388,-56.5 282,-56.5"/>
<text text-anchor="middle" x="335" y="-63.5" font-family="Helvetica,sans-Serif" font-size="10.00">BloomFeature.hpp</text>
</a>
</g>
</g>
<!-- Node6&#45;&gt;Node7 -->
<g id="edge6" class="edge">
<title>Node6&#45;&gt;Node7</title>
<path fill="none" stroke="midnightblue" d="M515.33,-110.09C472.64,-99.89 409.75,-84.86 370.64,-75.52"/>
<polygon fill="midnightblue" stroke="midnightblue" points="514.65,-113.52 525.19,-112.44 516.28,-106.72 514.65,-113.52"/>
</g>
<!-- Node8 -->
<g id="node8" class="node">
<title>Node8</title>
<g id="a_node8"><a xlink:href="_clustered_light_feature_8hpp.html" target="_top" xlink:title=" ">
<polygon fill="white" stroke="black" points="406.5,-56.5 406.5,-75.5 551.5,-75.5 551.5,-56.5 406.5,-56.5"/>
<text text-anchor="middle" x="479" y="-63.5" font-family="Helvetica,sans-Serif" font-size="10.00">ClusteredLightFeature.hpp</text>
</a>
</g>
</g>
<!-- Node6&#45;&gt;Node8 -->
<g id="edge7" class="edge">
<title>Node6&#45;&gt;Node8</title>
<path fill="none" stroke="midnightblue" d="M539.17,-106.62C524.19,-96.76 504.8,-83.99 492.14,-75.65"/>
<polygon fill="midnightblue" stroke="midnightblue" points="537.55,-109.75 547.83,-112.32 541.4,-103.9 537.55,-109.75"/>
</g>
<!-- Node9 -->
<g id="node9" class="node">
<title>Node9</title>
<g id="a_node9"><a xlink:href="_particle_system_feature_8hpp.html" target="_top" xlink:title=" ">
<polygon fill="white" stroke="black" points="569.5,-56.5 569.5,-75.5 716.5,-75.5 716.5,-56.5 569.5,-56.5"/>
<text text-anchor="middle" x="643" y="-63.5" font-family="Helvetica,sans-Serif" font-size="10.00">ParticleSystemFeature.hpp</text>
</a>
</g>
</g>
<!-- Node6&#45;&gt;Node9 -->
<g id="edge8" class="edge">
<title>Node6&#45;&gt;Node9</title>
<path fill="none" stroke="midnightblue" d="M582.83,-106.62C597.81,-96.76 617.2,-83.99 629.86,-75.65"/>
<polygon fill="midnightblue" stroke="midnightblue" points="580.6,-103.9 574.17,-112.32 584.45,-109.75 580.6,-103.9"/>
</g>
<!-- Node10 -->
<g id="node10" class="node">
<title>Node10</title>
<g id="a_node10"><a xlink:href="_static_mesh_feature_8hpp.html" target="_top" xlink:title=" ">
<polygon fill="white" stroke="black" points="735,-56.5 735,-75.5 863,-75.5 863,-56.5 735,-56.5"/>
<text text-anchor="middle" x="799" y="-63.5" font-family="Helvetica,sans-Serif" font-size="10.00">StaticMeshFeature.hpp</text>
</a>
</g>
</g>
<!-- Node6&#45;&gt;Node10 -->
<g id="edge9" class="edge">
<title>Node6&#45;&gt;Node10</title>
<path fill="none" stroke="midnightblue" d="M608.52,-110.22C653.5,-100.01 720.1,-84.9 761.46,-75.52"/>
<polygon fill="midnightblue" stroke="midnightblue" points="607.69,-106.82 598.71,-112.44 609.24,-113.64 607.69,-106.82"/>
</g>
<!-- Node11 -->
<g id="node11" class="node">
<title>Node11</title>
<g id="a_node11"><a xlink:href="_tonemap_feature_8hpp.html" target="_top" xlink:title=" ">
<polygon fill="white" stroke="black" points="881.5,-56.5 881.5,-75.5 1000.5,-75.5 1000.5,-56.5 881.5,-56.5"/>
<text text-anchor="middle" x="941" y="-63.5" font-family="Helvetica,sans-Serif" font-size="10.00">TonemapFeature.hpp</text>
</a>
</g>
</g>
<!-- Node6&#45;&gt;Node11 -->
<g id="edge10" class="edge">
<title>Node6&#45;&gt;Node11</title>
<path fill="none" stroke="midnightblue" d="M611.6,-113.81C681.38,-103.89 806.93,-86.05 881.25,-75.49"/>
<polygon fill="midnightblue" stroke="midnightblue" points="610.71,-110.4 601.31,-115.27 611.7,-117.33 610.71,-110.4"/>
</g>
</g>
</svg>
