<?xml version="1.0" encoding="UTF-8" standalone="no"?>
<!DOCTYPE svg PUBLIC "-//W3C//DTD SVG 1.1//EN"
 "http://www.w3.org/Graphics/SVG/1.1/DTD/svg11.dtd">
<!-- Generated by graphviz version 2.43.0 (0)
 -->
<!-- Title: Registry.hpp Pages: 1 -->
<svg width="519pt" height="196pt"
 viewBox="0.00 0.00 519.00 196.00" xmlns="http://www.w3.org/2000/svg" xmlns:xlink="http://www.w3.org/1999/xlink">
<g id="graph0" class="graph" transform="scale(1 1) rotate(0) translate(4 192)">
<title>Registry.hpp</title>
<polygon fill="white" stroke="transparent" points="-4,4 -4,-192 515,-192 515,4 -4,4"/>
<!-- Node1 -->
<g id="node1" class="node">
<title>Node1</title>
<g id="a_node1"><a xlink:title=" ">
<polygon fill="#bfbfbf" stroke="black" points="271.5,-168.5 271.5,-187.5 348.5,-187.5 348.5,-168.5 271.5,-168.5"/>
<text text-anchor="middle" x="310" y="-175.5" font-family="Helvetica,sans-Serif" font-size="10.00">Registry.hpp</text>
</a>
</g>
</g>
<!-- Node2 -->
<g id="node2" class="node">
<title>Node2</title>
<g id="a_node2"><a xlink:href="_id_8hpp.html" target="_top" xlink:title=" ">
<polygon fill="white" stroke="black" points="69,-112.5 69,-131.5 209,-131.5 209,-112.5 69,-112.5"/>
<text text-anchor="middle" x="139" y="-119.5" font-family="Helvetica,sans-Serif" font-size="10.00">Liger&#45;Engine/Asset/Id.hpp</text>
</a>
</g>
</g>
<!-- Node1&#45;&gt;Node2 -->
<g id="edge1" class="edge">
<title>Node1&#45;&gt;Node2</title>
<path fill="none" stroke="midnightblue" d="M282.9,-168.44C254.01,-159.32 208.08,-144.81 175.89,-134.65"/>
<polygon fill="midnightblue" stroke="midnightblue" points="176.56,-131.19 165.97,-131.52 174.45,-137.87 176.56,-131.19"/>
</g>
<!-- Node8 -->
<g id="node8" class="node">
<title>Node8</title>
<g id="a_node8"><a xlink:title=" ">
<polygon fill="white" stroke="#bfbfbf" points="227,-112.5 227,-131.5 295,-131.5 295,-112.5 227,-112.5"/>
<text text-anchor="middle" x="261" y="-119.5" font-family="Helvetica,sans-Serif" font-size="10.00">filesystem</text>
</a>
</g>
</g>
<!-- Node1&#45;&gt;Node8 -->
<g id="edge7" class="edge">
<title>Node1&#45;&gt;Node8</title>
<path fill="none" stroke="midnightblue" d="M301.91,-168.08C294.84,-160.3 284.41,-148.8 275.85,-139.37"/>
<polygon fill="midnightblue" stroke="midnightblue" points="278.25,-136.8 268.94,-131.75 273.07,-141.51 278.25,-136.8"/>
</g>
<!-- Node9 -->
<g id="node9" class="node">
<title>Node9</title>
<g id="a_node9"><a xlink:title=" ">
<polygon fill="white" stroke="#bfbfbf" points="313.5,-112.5 313.5,-131.5 406.5,-131.5 406.5,-112.5 313.5,-112.5"/>
<text text-anchor="middle" x="360" y="-119.5" font-family="Helvetica,sans-Serif" font-size="10.00">unordered_map</text>
</a>
</g>
</g>
<!-- Node1&#45;&gt;Node9 -->
<g id="edge8" class="edge">
<title>Node1&#45;&gt;Node9</title>
<path fill="none" stroke="midnightblue" d="M318.26,-168.08C325.46,-160.3 336.11,-148.8 344.85,-139.37"/>
<polygon fill="midnightblue" stroke="midnightblue" points="347.67,-141.47 351.9,-131.75 342.53,-136.71 347.67,-141.47"/>
</g>
<!-- Node10 -->
<g id="node10" class="node">
<title>Node10</title>
<g id="a_node10"><a xlink:title=" ">
<polygon fill="white" stroke="#bfbfbf" points="425,-112.5 425,-131.5 511,-131.5 511,-112.5 425,-112.5"/>
<text text-anchor="middle" x="468" y="-119.5" font-family="Helvetica,sans-Serif" font-size="10.00">unordered_set</text>
</a>
</g>
</g>
<!-- Node1&#45;&gt;Node10 -->
<g id="edge9" class="edge">
<title>Node1&#45;&gt;Node10</title>
<path fill="none" stroke="midnightblue" d="M335.04,-168.44C361.62,-159.36 403.81,-144.94 433.52,-134.78"/>
<polygon fill="midnightblue" stroke="midnightblue" points="434.75,-138.06 443.08,-131.52 432.49,-131.44 434.75,-138.06"/>
</g>
<!-- Node3 -->
<g id="node3" class="node">
<title>Node3</title>
<g id="a_node3"><a xlink:href="_u_u_i_d_8hpp.html" target="_top" xlink:title=" ">
<polygon fill="white" stroke="black" points="63,-56.5 63,-75.5 215,-75.5 215,-56.5 63,-56.5"/>
<text text-anchor="middle" x="139" y="-63.5" font-family="Helvetica,sans-Serif" font-size="10.00">Liger&#45;Engine/Core/UUID.hpp</text>
</a>
</g>
</g>
<!-- Node2&#45;&gt;Node3 -->
<g id="edge2" class="edge">
<title>Node2&#45;&gt;Node3</title>
<path fill="none" stroke="midnightblue" d="M139,-112.08C139,-105.01 139,-94.86 139,-85.99"/>
<polygon fill="midnightblue" stroke="midnightblue" points="142.5,-85.75 139,-75.75 135.5,-85.75 142.5,-85.75"/>
</g>
<!-- Node4 -->
<g id="node4" class="node">
<title>Node4</title>
<g id="a_node4"><a xlink:title=" ">
<polygon fill="white" stroke="#bfbfbf" points="0,-0.5 0,-19.5 60,-19.5 60,-0.5 0,-0.5"/>
<text text-anchor="middle" x="30" y="-7.5" font-family="Helvetica,sans-Serif" font-size="10.00">concepts</text>
</a>
</g>
</g>
<!-- Node3&#45;&gt;Node4 -->
<g id="edge3" class="edge">
<title>Node3&#45;&gt;Node4</title>
<path fill="none" stroke="midnightblue" d="M121.49,-56.32C103.93,-47.62 76.67,-34.12 56.47,-24.11"/>
<polygon fill="midnightblue" stroke="midnightblue" points="57.98,-20.96 47.47,-19.65 54.88,-27.23 57.98,-20.96"/>
</g>
<!-- Node5 -->
<g id="node5" class="node">
<title>Node5</title>
<g id="a_node5"><a xlink:title=" ">
<polygon fill="white" stroke="#bfbfbf" points="78,-0.5 78,-19.5 128,-19.5 128,-0.5 78,-0.5"/>
<text text-anchor="middle" x="103" y="-7.5" font-family="Helvetica,sans-Serif" font-size="10.00">cstdint</text>
</a>
</g>
</g>
<!-- Node3&#45;&gt;Node5 -->
<g id="edge4" class="edge">
<title>Node3&#45;&gt;Node5</title>
<path fill="none" stroke="midnightblue" d="M133.06,-56.08C128.02,-48.53 120.66,-37.49 114.49,-28.23"/>
<polygon fill="midnightblue" stroke="midnightblue" points="117.29,-26.13 108.83,-19.75 111.47,-30.01 117.29,-26.13"/>
</g>
<!-- Node6 -->
<g id="node6" class="node">
<title>Node6</title>
<g id="a_node6"><a xlink:title=" ">
<polygon fill="white" stroke="#bfbfbf" points="146,-0.5 146,-19.5 204,-19.5 204,-0.5 146,-0.5"/>
<text text-anchor="middle" x="175" y="-7.5" font-family="Helvetica,sans-Serif" font-size="10.00">memory</text>
</a>
</g>
</g>
<!-- Node3&#45;&gt;Node6 -->
<g id="edge5" class="edge">
<title>Node3&#45;&gt;Node6</title>
<path fill="none" stroke="midnightblue" d="M144.94,-56.08C149.98,-48.53 157.34,-37.49 163.51,-28.23"/>
<polygon fill="midnightblue" stroke="midnightblue" points="166.53,-30.01 169.17,-19.75 160.71,-26.13 166.53,-30.01"/>
</g>
<!-- Node7 -->
<g id="node7" class="node">
<title>Node7</title>
<g id="a_node7"><a xlink:title=" ">
<polygon fill="white" stroke="#bfbfbf" points="222,-0.5 222,-19.5 276,-19.5 276,-0.5 222,-0.5"/>
<text text-anchor="middle" x="249" y="-7.5" font-family="Helvetica,sans-Serif" font-size="10.00">random</text>
</a>
</g>
</g>
<!-- Node3&#45;&gt;Node7 -->
<g id="edge6" class="edge">
<title>Node3&#45;&gt;Node7</title>
<path fill="none" stroke="midnightblue" d="M156.67,-56.32C174.39,-47.62 201.9,-34.12 222.29,-24.11"/>
<polygon fill="midnightblue" stroke="midnightblue" points="223.94,-27.2 231.37,-19.65 220.85,-20.92 223.94,-27.2"/>
</g>
</g>
</svg>
