<?xml version="1.0" encoding="UTF-8" standalone="no"?>
<!DOCTYPE svg PUBLIC "-//W3C//DTD SVG 1.1//EN"
 "http://www.w3.org/Graphics/SVG/1.1/DTD/svg11.dtd">
<!-- Generated by graphviz version 2.43.0 (0)
 -->
<!-- Title: RenderGraph.hpp Pages: 1 -->
<svg width="2234pt" height="364pt"
 viewBox="0.00 0.00 2233.50 364.00" xmlns="http://www.w3.org/2000/svg" xmlns:xlink="http://www.w3.org/1999/xlink">
<g id="graph0" class="graph" transform="scale(1 1) rotate(0) translate(4 360)">
<title>RenderGraph.hpp</title>
<polygon fill="white" stroke="transparent" points="-4,4 -4,-360 2229.5,-360 2229.5,4 -4,4"/>
<!-- Node1 -->
<g id="node1" class="node">
<title>Node1</title>
<g id="a_node1"><a xlink:title=" ">
<polygon fill="#bfbfbf" stroke="black" points="1697,-336.5 1697,-355.5 1798,-355.5 1798,-336.5 1697,-336.5"/>
<text text-anchor="middle" x="1747.5" y="-343.5" font-family="Helvetica,sans-Serif" font-size="10.00">RenderGraph.hpp</text>
</a>
</g>
</g>
<!-- Node2 -->
<g id="node2" class="node">
<title>Node2</title>
<g id="a_node2"><a xlink:href="_dependency_graph_8hpp.html" target="_top" xlink:title=" ">
<polygon fill="white" stroke="black" points="1720.5,-168.5 1720.5,-187.5 1992.5,-187.5 1992.5,-168.5 1720.5,-168.5"/>
<text text-anchor="middle" x="1856.5" y="-175.5" font-family="Helvetica,sans-Serif" font-size="10.00">Liger&#45;Engine/Core/Containers/DependencyGraph.hpp</text>
</a>
</g>
</g>
<!-- Node1&#45;&gt;Node2 -->
<g id="edge1" class="edge">
<title>Node1&#45;&gt;Node2</title>
<path fill="none" stroke="midnightblue" d="M1753.36,-336.08C1770.74,-309.61 1822.22,-231.21 1845.2,-196.21"/>
<polygon fill="midnightblue" stroke="midnightblue" points="1848.31,-197.85 1850.87,-187.57 1842.46,-194.01 1848.31,-197.85"/>
</g>
<!-- Node6 -->
<g id="node6" class="node">
<title>Node6</title>
<g id="a_node6"><a xlink:href="_buffer_8hpp.html" target="_top" xlink:title=" ">
<polygon fill="white" stroke="black" points="1207.5,-168.5 1207.5,-187.5 1357.5,-187.5 1357.5,-168.5 1207.5,-168.5"/>
<text text-anchor="middle" x="1282.5" y="-175.5" font-family="Helvetica,sans-Serif" font-size="10.00">Liger&#45;Engine/RHI/Buffer.hpp</text>
</a>
</g>
</g>
<!-- Node1&#45;&gt;Node6 -->
<g id="edge5" class="edge">
<title>Node1&#45;&gt;Node6</title>
<path fill="none" stroke="midnightblue" d="M1696.92,-340.83C1636.72,-335.09 1533.54,-322.77 1447.5,-300 1380.72,-282.33 1349.61,-294.53 1302.5,-244 1290.81,-231.46 1285.95,-212.24 1283.93,-197.95"/>
<polygon fill="midnightblue" stroke="midnightblue" points="1287.38,-197.33 1282.84,-187.76 1280.42,-198.08 1287.38,-197.33"/>
</g>
<!-- Node13 -->
<g id="node13" class="node">
<title>Node13</title>
<g id="a_node13"><a xlink:href="_command_buffer_8hpp.html" target="_top" xlink:title=" ">
<polygon fill="white" stroke="black" points="338.5,-168.5 338.5,-187.5 538.5,-187.5 538.5,-168.5 338.5,-168.5"/>
<text text-anchor="middle" x="438.5" y="-175.5" font-family="Helvetica,sans-Serif" font-size="10.00">Liger&#45;Engine/RHI/CommandBuffer.hpp</text>
</a>
</g>
</g>
<!-- Node1&#45;&gt;Node13 -->
<g id="edge13" class="edge">
<title>Node1&#45;&gt;Node13</title>
<path fill="none" stroke="midnightblue" d="M1696.59,-344.58C1575.52,-343.01 1261.17,-335.53 1001.5,-300 803.87,-272.96 572.31,-214.57 479.76,-190.12"/>
<polygon fill="midnightblue" stroke="midnightblue" points="480.51,-186.7 469.95,-187.52 478.72,-193.47 480.51,-186.7"/>
</g>
<!-- Node20 -->
<g id="node20" class="node">
<title>Node20</title>
<g id="a_node20"><a xlink:href="_context_8hpp.html" target="_top" xlink:title=" ">
<polygon fill="white" stroke="black" points="1456.5,-280.5 1456.5,-299.5 1616.5,-299.5 1616.5,-280.5 1456.5,-280.5"/>
<text text-anchor="middle" x="1536.5" y="-287.5" font-family="Helvetica,sans-Serif" font-size="10.00">Liger&#45;Engine/RHI/Context.hpp</text>
</a>
</g>
</g>
<!-- Node1&#45;&gt;Node20 -->
<g id="edge24" class="edge">
<title>Node1&#45;&gt;Node20</title>
<path fill="none" stroke="midnightblue" d="M1714.07,-336.44C1677.64,-327.12 1619.27,-312.18 1579.47,-302"/>
<polygon fill="midnightblue" stroke="midnightblue" points="1580.33,-298.61 1569.78,-299.52 1578.6,-305.39 1580.33,-298.61"/>
</g>
<!-- Node24 -->
<g id="node24" class="node">
<title>Node24</title>
<g id="a_node24"><a xlink:title=" ">
<polygon fill="white" stroke="#bfbfbf" points="1792,-0.5 1792,-19.5 1865,-19.5 1865,-0.5 1792,-0.5"/>
<text text-anchor="middle" x="1828.5" y="-7.5" font-family="Helvetica,sans-Serif" font-size="10.00">string_view</text>
</a>
</g>
</g>
<!-- Node1&#45;&gt;Node24 -->
<g id="edge54" class="edge">
<title>Node1&#45;&gt;Node24</title>
<path fill="none" stroke="midnightblue" d="M1762.17,-336.46C1815.27,-305.51 1994.62,-200.34 2001.5,-188 2042.43,-114.59 1919.8,-50.02 1859.67,-23.65"/>
<polygon fill="midnightblue" stroke="midnightblue" points="1860.82,-20.33 1850.25,-19.6 1858.06,-26.76 1860.82,-20.33"/>
</g>
<!-- Node29 -->
<g id="node29" class="node">
<title>Node29</title>
<g id="a_node29"><a xlink:title=" ">
<polygon fill="white" stroke="#bfbfbf" points="1644,-224.5 1644,-243.5 1737,-243.5 1737,-224.5 1644,-224.5"/>
<text text-anchor="middle" x="1690.5" y="-231.5" font-family="Helvetica,sans-Serif" font-size="10.00">unordered_map</text>
</a>
</g>
</g>
<!-- Node1&#45;&gt;Node29 -->
<g id="edge55" class="edge">
<title>Node1&#45;&gt;Node29</title>
<path fill="none" stroke="midnightblue" d="M1743.03,-336.37C1733.7,-318.38 1712.03,-276.55 1699.63,-252.63"/>
<polygon fill="midnightblue" stroke="midnightblue" points="1702.66,-250.86 1694.95,-243.59 1696.45,-254.08 1702.66,-250.86"/>
</g>
<!-- Node30 -->
<g id="node30" class="node">
<title>Node30</title>
<g id="a_node30"><a xlink:href="_dependent_texture_info_8hpp.html" target="_top" xlink:title=" ">
<polygon fill="white" stroke="black" points="1010.5,-280.5 1010.5,-299.5 1240.5,-299.5 1240.5,-280.5 1010.5,-280.5"/>
<text text-anchor="middle" x="1125.5" y="-287.5" font-family="Helvetica,sans-Serif" font-size="10.00">Liger&#45;Engine/RHI/DependentTextureInfo.hpp</text>
</a>
</g>
</g>
<!-- Node1&#45;&gt;Node30 -->
<g id="edge38" class="edge">
<title>Node1&#45;&gt;Node30</title>
<path fill="none" stroke="midnightblue" d="M1696.86,-340.6C1596.26,-331.87 1369.23,-312.16 1233.59,-300.38"/>
<polygon fill="midnightblue" stroke="midnightblue" points="1233.85,-296.89 1223.58,-299.52 1233.24,-303.87 1233.85,-296.89"/>
</g>
<!-- Node34 -->
<g id="node34" class="node">
<title>Node34</title>
<g id="a_node34"><a xlink:href="_resource_version_registry_8hpp.html" target="_top" xlink:title=" ">
<polygon fill="white" stroke="black" points="1869.5,-280.5 1869.5,-299.5 2111.5,-299.5 2111.5,-280.5 1869.5,-280.5"/>
<text text-anchor="middle" x="1990.5" y="-287.5" font-family="Helvetica,sans-Serif" font-size="10.00">Liger&#45;Engine/RHI/ResourceVersionRegistry.hpp</text>
</a>
</g>
</g>
<!-- Node1&#45;&gt;Node34 -->
<g id="edge48" class="edge">
<title>Node1&#45;&gt;Node34</title>
<path fill="none" stroke="midnightblue" d="M1786,-336.44C1828.31,-327.04 1896.32,-311.93 1942.17,-301.74"/>
<polygon fill="midnightblue" stroke="midnightblue" points="1943.17,-305.1 1952.18,-299.52 1941.65,-298.27 1943.17,-305.1"/>
</g>
<!-- Node35 -->
<g id="node35" class="node">
<title>Node35</title>
<g id="a_node35"><a xlink:title=" ">
<polygon fill="white" stroke="#bfbfbf" points="2072.5,-224.5 2072.5,-243.5 2128.5,-243.5 2128.5,-224.5 2072.5,-224.5"/>
<text text-anchor="middle" x="2100.5" y="-231.5" font-family="Helvetica,sans-Serif" font-size="10.00">optional</text>
</a>
</g>
</g>
<!-- Node1&#45;&gt;Node35 -->
<g id="edge53" class="edge">
<title>Node1&#45;&gt;Node35</title>
<path fill="none" stroke="midnightblue" d="M1798.09,-342.57C1895.08,-337.38 2099.46,-323.73 2120.5,-300 2132.32,-286.67 2123.25,-266.46 2113.81,-252.12"/>
<polygon fill="midnightblue" stroke="midnightblue" points="2116.44,-249.77 2107.78,-243.68 2110.75,-253.85 2116.44,-249.77"/>
</g>
<!-- Node37 -->
<g id="node37" class="node">
<title>Node37</title>
<g id="a_node37"><a xlink:title=" ">
<polygon fill="white" stroke="#bfbfbf" points="2167.5,-280.5 2167.5,-299.5 2225.5,-299.5 2225.5,-280.5 2167.5,-280.5"/>
<text text-anchor="middle" x="2196.5" y="-287.5" font-family="Helvetica,sans-Serif" font-size="10.00">memory</text>
</a>
</g>
</g>
<!-- Node1&#45;&gt;Node37 -->
<g id="edge52" class="edge">
<title>Node1&#45;&gt;Node37</title>
<path fill="none" stroke="midnightblue" d="M1798.03,-340.97C1875.03,-334.47 2026.22,-320.33 2153.5,-300 2154.77,-299.8 2156.06,-299.58 2157.36,-299.36"/>
<polygon fill="midnightblue" stroke="midnightblue" points="2158.24,-302.75 2167.43,-297.48 2156.95,-295.87 2158.24,-302.75"/>
</g>
<!-- Node3 -->
<g id="node3" class="node">
<title>Node3</title>
<g id="a_node3"><a xlink:title=" ">
<polygon fill="white" stroke="#bfbfbf" points="1884.5,-112.5 1884.5,-131.5 1936.5,-131.5 1936.5,-112.5 1884.5,-112.5"/>
<text text-anchor="middle" x="1910.5" y="-119.5" font-family="Helvetica,sans-Serif" font-size="10.00">cassert</text>
</a>
</g>
</g>
<!-- Node2&#45;&gt;Node3 -->
<g id="edge2" class="edge">
<title>Node2&#45;&gt;Node3</title>
<path fill="none" stroke="midnightblue" d="M1865.42,-168.08C1873.28,-160.22 1884.93,-148.57 1894.42,-139.08"/>
<polygon fill="midnightblue" stroke="midnightblue" points="1897.15,-141.3 1901.75,-131.75 1892.2,-136.35 1897.15,-141.3"/>
</g>
<!-- Node4 -->
<g id="node4" class="node">
<title>Node4</title>
<g id="a_node4"><a xlink:title=" ">
<polygon fill="white" stroke="#bfbfbf" points="1185.5,-0.5 1185.5,-19.5 1235.5,-19.5 1235.5,-0.5 1185.5,-0.5"/>
<text text-anchor="middle" x="1210.5" y="-7.5" font-family="Helvetica,sans-Serif" font-size="10.00">cstdint</text>
</a>
</g>
</g>
<!-- Node2&#45;&gt;Node4 -->
<g id="edge3" class="edge">
<title>Node2&#45;&gt;Node4</title>
<path fill="none" stroke="midnightblue" d="M1856.76,-168.25C1856.66,-154.04 1854.2,-126.12 1837.5,-112 1785.39,-67.93 1599.89,-86.76 1532.5,-76 1427.57,-59.25 1304.82,-32.45 1245.77,-19.1"/>
<polygon fill="midnightblue" stroke="midnightblue" points="1246.36,-15.65 1235.83,-16.85 1244.81,-22.48 1246.36,-15.65"/>
</g>
<!-- Node5 -->
<g id="node5" class="node">
<title>Node5</title>
<g id="a_node5"><a xlink:title=" ">
<polygon fill="white" stroke="#bfbfbf" points="1781,-112.5 1781,-131.5 1828,-131.5 1828,-112.5 1781,-112.5"/>
<text text-anchor="middle" x="1804.5" y="-119.5" font-family="Helvetica,sans-Serif" font-size="10.00">vector</text>
</a>
</g>
</g>
<!-- Node2&#45;&gt;Node5 -->
<g id="edge4" class="edge">
<title>Node2&#45;&gt;Node5</title>
<path fill="none" stroke="midnightblue" d="M1847.91,-168.08C1840.34,-160.22 1829.12,-148.57 1819.99,-139.08"/>
<polygon fill="midnightblue" stroke="midnightblue" points="1822.38,-136.53 1812.93,-131.75 1817.34,-141.38 1822.38,-136.53"/>
</g>
<!-- Node7 -->
<g id="node7" class="node">
<title>Node7</title>
<g id="a_node7"><a xlink:href="_descriptor_binding_8hpp.html" target="_top" xlink:title=" ">
<polygon fill="white" stroke="black" points="1159,-112.5 1159,-131.5 1368,-131.5 1368,-112.5 1159,-112.5"/>
<text text-anchor="middle" x="1263.5" y="-119.5" font-family="Helvetica,sans-Serif" font-size="10.00">Liger&#45;Engine/RHI/DescriptorBinding.hpp</text>
</a>
</g>
</g>
<!-- Node6&#45;&gt;Node7 -->
<g id="edge6" class="edge">
<title>Node6&#45;&gt;Node7</title>
<path fill="none" stroke="midnightblue" d="M1279.36,-168.08C1276.82,-160.85 1273.14,-150.41 1269.97,-141.4"/>
<polygon fill="midnightblue" stroke="midnightblue" points="1273.2,-140.02 1266.58,-131.75 1266.6,-142.35 1273.2,-140.02"/>
</g>
<!-- Node8 -->
<g id="node8" class="node">
<title>Node8</title>
<g id="a_node8"><a xlink:href="_device_resource_state_8hpp.html" target="_top" xlink:title=" ">
<polygon fill="white" stroke="black" points="676.5,-112.5 676.5,-131.5 902.5,-131.5 902.5,-112.5 676.5,-112.5"/>
<text text-anchor="middle" x="789.5" y="-119.5" font-family="Helvetica,sans-Serif" font-size="10.00">Liger&#45;Engine/RHI/DeviceResourceState.hpp</text>
</a>
</g>
</g>
<!-- Node6&#45;&gt;Node8 -->
<g id="edge8" class="edge">
<title>Node6&#45;&gt;Node8</title>
<path fill="none" stroke="midnightblue" d="M1207.36,-168.77C1118.67,-159.06 971.42,-142.93 877.49,-132.64"/>
<polygon fill="midnightblue" stroke="midnightblue" points="877.76,-129.15 867.44,-131.54 877,-136.1 877.76,-129.15"/>
</g>
<!-- Node12 -->
<g id="node12" class="node">
<title>Node12</title>
<g id="a_node12"><a xlink:title=" ">
<polygon fill="white" stroke="#bfbfbf" points="1412.5,-0.5 1412.5,-19.5 1456.5,-19.5 1456.5,-0.5 1412.5,-0.5"/>
<text text-anchor="middle" x="1434.5" y="-7.5" font-family="Helvetica,sans-Serif" font-size="10.00">string</text>
</a>
</g>
</g>
<!-- Node6&#45;&gt;Node12 -->
<g id="edge12" class="edge">
<title>Node6&#45;&gt;Node12</title>
<path fill="none" stroke="midnightblue" d="M1345,-168.45C1368.68,-162.13 1393.91,-151.13 1410.5,-132 1435.55,-103.1 1437.33,-55.64 1436.12,-29.58"/>
<polygon fill="midnightblue" stroke="midnightblue" points="1439.61,-29.29 1435.45,-19.54 1432.62,-29.75 1439.61,-29.29"/>
</g>
<!-- Node7&#45;&gt;Node4 -->
<g id="edge7" class="edge">
<title>Node7&#45;&gt;Node4</title>
<path fill="none" stroke="midnightblue" d="M1261.98,-112.21C1259.54,-99.36 1254,-74.91 1244.5,-56 1239.34,-45.74 1231.78,-35.44 1225.09,-27.28"/>
<polygon fill="midnightblue" stroke="midnightblue" points="1227.73,-24.99 1218.58,-19.66 1222.41,-29.54 1227.73,-24.99"/>
</g>
<!-- Node9 -->
<g id="node9" class="node">
<title>Node9</title>
<g id="a_node9"><a xlink:href="_enum_bitmask_8hpp.html" target="_top" xlink:title=" ">
<polygon fill="white" stroke="black" points="422,-56.5 422,-75.5 617,-75.5 617,-56.5 422,-56.5"/>
<text text-anchor="middle" x="519.5" y="-63.5" font-family="Helvetica,sans-Serif" font-size="10.00">Liger&#45;Engine/Core/EnumBitmask.hpp</text>
</a>
</g>
</g>
<!-- Node8&#45;&gt;Node9 -->
<g id="edge9" class="edge">
<title>Node8&#45;&gt;Node9</title>
<path fill="none" stroke="midnightblue" d="M746.72,-112.44C699.32,-102.96 622.87,-87.67 571.92,-77.48"/>
<polygon fill="midnightblue" stroke="midnightblue" points="572.57,-74.05 562.08,-75.52 571.2,-80.91 572.57,-74.05"/>
</g>
<!-- Node10 -->
<g id="node10" class="node">
<title>Node10</title>
<g id="a_node10"><a xlink:title=" ">
<polygon fill="white" stroke="#bfbfbf" points="427,-0.5 427,-19.5 496,-19.5 496,-0.5 427,-0.5"/>
<text text-anchor="middle" x="461.5" y="-7.5" font-family="Helvetica,sans-Serif" font-size="10.00">type_traits</text>
</a>
</g>
</g>
<!-- Node9&#45;&gt;Node10 -->
<g id="edge10" class="edge">
<title>Node9&#45;&gt;Node10</title>
<path fill="none" stroke="midnightblue" d="M510.18,-56.32C501.61,-48.34 488.69,-36.31 478.31,-26.65"/>
<polygon fill="midnightblue" stroke="midnightblue" points="480.69,-24.09 470.99,-19.83 475.92,-29.21 480.69,-24.09"/>
</g>
<!-- Node11 -->
<g id="node11" class="node">
<title>Node11</title>
<g id="a_node11"><a xlink:title=" ">
<polygon fill="white" stroke="#bfbfbf" points="514,-0.5 514,-19.5 643,-19.5 643,-0.5 514,-0.5"/>
<text text-anchor="middle" x="578.5" y="-7.5" font-family="Helvetica,sans-Serif" font-size="10.00">magic_enum_flags.hpp</text>
</a>
</g>
</g>
<!-- Node9&#45;&gt;Node11 -->
<g id="edge11" class="edge">
<title>Node9&#45;&gt;Node11</title>
<path fill="none" stroke="midnightblue" d="M528.98,-56.32C537.7,-48.34 550.84,-36.31 561.4,-26.65"/>
<polygon fill="midnightblue" stroke="midnightblue" points="563.83,-29.17 568.85,-19.83 559.11,-24 563.83,-29.17"/>
</g>
<!-- Node13&#45;&gt;Node8 -->
<g id="edge15" class="edge">
<title>Node13&#45;&gt;Node8</title>
<path fill="none" stroke="midnightblue" d="M494.12,-168.44C556.63,-158.83 658.02,-143.23 724.23,-133.04"/>
<polygon fill="midnightblue" stroke="midnightblue" points="724.79,-136.5 734.14,-131.52 723.73,-129.58 724.79,-136.5"/>
</g>
<!-- Node13&#45;&gt;Node9 -->
<g id="edge14" class="edge">
<title>Node13&#45;&gt;Node9</title>
<path fill="none" stroke="midnightblue" d="M439.26,-168.23C440.77,-154.97 445.18,-129.49 457.5,-112 466.68,-98.96 480.86,-88.27 493.35,-80.58"/>
<polygon fill="midnightblue" stroke="midnightblue" points="495.16,-83.58 502.04,-75.52 491.64,-77.52 495.16,-83.58"/>
</g>
<!-- Node14 -->
<g id="node14" class="node">
<title>Node14</title>
<g id="a_node14"><a xlink:href="_extent_8hpp.html" target="_top" xlink:title=" ">
<polygon fill="white" stroke="black" points="467,-112.5 467,-131.5 620,-131.5 620,-112.5 467,-112.5"/>
<text text-anchor="middle" x="543.5" y="-119.5" font-family="Helvetica,sans-Serif" font-size="10.00">Liger&#45;Engine/RHI/Extent.hpp</text>
</a>
</g>
</g>
<!-- Node13&#45;&gt;Node14 -->
<g id="edge16" class="edge">
<title>Node13&#45;&gt;Node14</title>
<path fill="none" stroke="midnightblue" d="M455.37,-168.32C472.21,-159.66 498.31,-146.24 517.74,-136.25"/>
<polygon fill="midnightblue" stroke="midnightblue" points="519.38,-139.34 526.67,-131.65 516.18,-133.12 519.38,-139.34"/>
</g>
<!-- Node15 -->
<g id="node15" class="node">
<title>Node15</title>
<g id="a_node15"><a xlink:href="_filter_8hpp.html" target="_top" xlink:title=" ">
<polygon fill="white" stroke="black" points="915.5,-56.5 915.5,-75.5 1061.5,-75.5 1061.5,-56.5 915.5,-56.5"/>
<text text-anchor="middle" x="988.5" y="-63.5" font-family="Helvetica,sans-Serif" font-size="10.00">Liger&#45;Engine/RHI/Filter.hpp</text>
</a>
</g>
</g>
<!-- Node13&#45;&gt;Node15 -->
<g id="edge18" class="edge">
<title>Node13&#45;&gt;Node15</title>
<path fill="none" stroke="midnightblue" d="M489.08,-168.47C527.93,-161.1 582.54,-148.94 628.5,-132 646.78,-125.26 648.93,-117.88 667.5,-112 745.8,-87.21 839.15,-76.06 904.94,-71.06"/>
<polygon fill="midnightblue" stroke="midnightblue" points="905.54,-74.52 915.26,-70.31 905.03,-67.54 905.54,-74.52"/>
</g>
<!-- Node16 -->
<g id="node16" class="node">
<title>Node16</title>
<g id="a_node16"><a xlink:href="_job_type_8hpp.html" target="_top" xlink:title=" ">
<polygon fill="white" stroke="black" points="0,-112.5 0,-131.5 159,-131.5 159,-112.5 0,-112.5"/>
<text text-anchor="middle" x="79.5" y="-119.5" font-family="Helvetica,sans-Serif" font-size="10.00">Liger&#45;Engine/RHI/JobType.hpp</text>
</a>
</g>
</g>
<!-- Node13&#45;&gt;Node16 -->
<g id="edge20" class="edge">
<title>Node13&#45;&gt;Node16</title>
<path fill="none" stroke="midnightblue" d="M381.62,-168.44C317.68,-158.83 213.98,-143.23 146.25,-133.04"/>
<polygon fill="midnightblue" stroke="midnightblue" points="146.53,-129.54 136.12,-131.52 145.49,-136.47 146.53,-129.54"/>
</g>
<!-- Node17 -->
<g id="node17" class="node">
<title>Node17</title>
<g id="a_node17"><a xlink:title=" ">
<polygon fill="white" stroke="#bfbfbf" points="177,-112.5 177,-131.5 256,-131.5 256,-112.5 177,-112.5"/>
<text text-anchor="middle" x="216.5" y="-119.5" font-family="Helvetica,sans-Serif" font-size="10.00">fmt/format.h</text>
</a>
</g>
</g>
<!-- Node13&#45;&gt;Node17 -->
<g id="edge21" class="edge">
<title>Node13&#45;&gt;Node17</title>
<path fill="none" stroke="midnightblue" d="M403.32,-168.44C364.92,-159.1 303.32,-144.12 261.44,-133.93"/>
<polygon fill="midnightblue" stroke="midnightblue" points="262.06,-130.48 251.51,-131.52 260.4,-137.28 262.06,-130.48"/>
</g>
<!-- Node18 -->
<g id="node18" class="node">
<title>Node18</title>
<g id="a_node18"><a xlink:title=" ">
<polygon fill="white" stroke="#bfbfbf" points="274.5,-112.5 274.5,-131.5 352.5,-131.5 352.5,-112.5 274.5,-112.5"/>
<text text-anchor="middle" x="313.5" y="-119.5" font-family="Helvetica,sans-Serif" font-size="10.00">glm/glm.hpp</text>
</a>
</g>
</g>
<!-- Node13&#45;&gt;Node18 -->
<g id="edge22" class="edge">
<title>Node13&#45;&gt;Node18</title>
<path fill="none" stroke="midnightblue" d="M418.69,-168.44C398.21,-159.6 366.02,-145.69 342.64,-135.59"/>
<polygon fill="midnightblue" stroke="midnightblue" points="343.78,-132.27 333.21,-131.52 341.01,-138.7 343.78,-132.27"/>
</g>
<!-- Node19 -->
<g id="node19" class="node">
<title>Node19</title>
<g id="a_node19"><a xlink:title=" ">
<polygon fill="white" stroke="#bfbfbf" points="370.5,-112.5 370.5,-131.5 410.5,-131.5 410.5,-112.5 370.5,-112.5"/>
<text text-anchor="middle" x="390.5" y="-119.5" font-family="Helvetica,sans-Serif" font-size="10.00">span</text>
</a>
</g>
</g>
<!-- Node13&#45;&gt;Node19 -->
<g id="edge23" class="edge">
<title>Node13&#45;&gt;Node19</title>
<path fill="none" stroke="midnightblue" d="M430.57,-168.08C423.65,-160.3 413.43,-148.8 405.05,-139.37"/>
<polygon fill="midnightblue" stroke="midnightblue" points="407.54,-136.9 398.28,-131.75 402.31,-141.55 407.54,-136.9"/>
</g>
<!-- Node14&#45;&gt;Node4 -->
<g id="edge17" class="edge">
<title>Node14&#45;&gt;Node4</title>
<path fill="none" stroke="midnightblue" d="M588.7,-112.45C657.29,-99.59 791.82,-74.75 906.5,-56 1003.45,-40.15 1118.21,-23.82 1175,-15.9"/>
<polygon fill="midnightblue" stroke="midnightblue" points="1175.81,-19.32 1185.24,-14.48 1174.85,-12.39 1175.81,-19.32"/>
</g>
<!-- Node15&#45;&gt;Node4 -->
<g id="edge19" class="edge">
<title>Node15&#45;&gt;Node4</title>
<path fill="none" stroke="midnightblue" d="M1023.68,-56.44C1065.27,-46.33 1134.06,-29.59 1175.55,-19.5"/>
<polygon fill="midnightblue" stroke="midnightblue" points="1176.59,-22.85 1185.48,-17.09 1174.93,-16.05 1176.59,-22.85"/>
</g>
<!-- Node21 -->
<g id="node21" class="node">
<title>Node21</title>
<g id="a_node21"><a xlink:href="_r_h_i_2_log_channel_8hpp.html" target="_top" xlink:title=" ">
<polygon fill="white" stroke="black" points="1447,-224.5 1447,-243.5 1626,-243.5 1626,-224.5 1447,-224.5"/>
<text text-anchor="middle" x="1536.5" y="-231.5" font-family="Helvetica,sans-Serif" font-size="10.00">Liger&#45;Engine/RHI/LogChannel.hpp</text>
</a>
</g>
</g>
<!-- Node20&#45;&gt;Node21 -->
<g id="edge25" class="edge">
<title>Node20&#45;&gt;Node21</title>
<path fill="none" stroke="midnightblue" d="M1536.5,-280.08C1536.5,-273.01 1536.5,-262.86 1536.5,-253.99"/>
<polygon fill="midnightblue" stroke="midnightblue" points="1540,-253.75 1536.5,-243.75 1533,-253.75 1540,-253.75"/>
</g>
<!-- Node27 -->
<g id="node27" class="node">
<title>Node27</title>
<g id="a_node27"><a xlink:title=" ">
<polygon fill="white" stroke="#bfbfbf" points="1311,-224.5 1311,-243.5 1346,-243.5 1346,-224.5 1311,-224.5"/>
<text text-anchor="middle" x="1328.5" y="-231.5" font-family="Helvetica,sans-Serif" font-size="10.00">any</text>
</a>
</g>
</g>
<!-- Node20&#45;&gt;Node27 -->
<g id="edge35" class="edge">
<title>Node20&#45;&gt;Node27</title>
<path fill="none" stroke="midnightblue" d="M1498.48,-280.46C1463.78,-272.46 1410.89,-259.77 1356.05,-243.98"/>
<polygon fill="midnightblue" stroke="midnightblue" points="1356.74,-240.54 1346.16,-241.11 1354.78,-247.26 1356.74,-240.54"/>
</g>
<!-- Node28 -->
<g id="node28" class="node">
<title>Node28</title>
<g id="a_node28"><a xlink:title=" ">
<polygon fill="white" stroke="#bfbfbf" points="1364,-224.5 1364,-243.5 1429,-243.5 1429,-224.5 1364,-224.5"/>
<text text-anchor="middle" x="1396.5" y="-231.5" font-family="Helvetica,sans-Serif" font-size="10.00">typeindex</text>
</a>
</g>
</g>
<!-- Node20&#45;&gt;Node28 -->
<g id="edge36" class="edge">
<title>Node20&#45;&gt;Node28</title>
<path fill="none" stroke="midnightblue" d="M1514.32,-280.44C1491.07,-271.48 1454.35,-257.31 1428.08,-247.18"/>
<polygon fill="midnightblue" stroke="midnightblue" points="1429.17,-243.85 1418.58,-243.52 1426.65,-250.38 1429.17,-243.85"/>
</g>
<!-- Node20&#45;&gt;Node29 -->
<g id="edge37" class="edge">
<title>Node20&#45;&gt;Node29</title>
<path fill="none" stroke="midnightblue" d="M1560.9,-280.44C1586.7,-271.4 1627.58,-257.06 1656.52,-246.92"/>
<polygon fill="midnightblue" stroke="midnightblue" points="1657.93,-250.13 1666.21,-243.52 1655.62,-243.52 1657.93,-250.13"/>
</g>
<!-- Node22 -->
<g id="node22" class="node">
<title>Node22</title>
<g id="a_node22"><a xlink:href="_log_8hpp.html" target="_top" xlink:title=" ">
<polygon fill="white" stroke="black" points="1500.5,-168.5 1500.5,-187.5 1664.5,-187.5 1664.5,-168.5 1500.5,-168.5"/>
<text text-anchor="middle" x="1582.5" y="-175.5" font-family="Helvetica,sans-Serif" font-size="10.00">Liger&#45;Engine/Core/Log/Log.hpp</text>
</a>
</g>
</g>
<!-- Node21&#45;&gt;Node22 -->
<g id="edge26" class="edge">
<title>Node21&#45;&gt;Node22</title>
<path fill="none" stroke="midnightblue" d="M1544.1,-224.08C1550.73,-216.3 1560.52,-204.8 1568.56,-195.37"/>
<polygon fill="midnightblue" stroke="midnightblue" points="1571.23,-197.63 1575.05,-187.75 1565.9,-193.09 1571.23,-197.63"/>
</g>
<!-- Node22&#45;&gt;Node5 -->
<g id="edge34" class="edge">
<title>Node22&#45;&gt;Node5</title>
<path fill="none" stroke="midnightblue" d="M1617.68,-168.44C1659.72,-158.22 1729.56,-141.23 1770.89,-131.18"/>
<polygon fill="midnightblue" stroke="midnightblue" points="1771.86,-134.54 1780.75,-128.78 1770.21,-127.74 1771.86,-134.54"/>
</g>
<!-- Node23 -->
<g id="node23" class="node">
<title>Node23</title>
<g id="a_node23"><a xlink:href="_message_8hpp.html" target="_top" xlink:title=" ">
<polygon fill="white" stroke="black" points="1541,-56.5 1541,-75.5 1732,-75.5 1732,-56.5 1541,-56.5"/>
<text text-anchor="middle" x="1636.5" y="-63.5" font-family="Helvetica,sans-Serif" font-size="10.00">Liger&#45;Engine/Core/Log/Message.hpp</text>
</a>
</g>
</g>
<!-- Node22&#45;&gt;Node23 -->
<g id="edge27" class="edge">
<title>Node22&#45;&gt;Node23</title>
<path fill="none" stroke="midnightblue" d="M1664.56,-171.58C1690.8,-165.48 1717.23,-153.82 1733.5,-132 1751.75,-107.52 1714.94,-89.34 1681.55,-78.53"/>
<polygon fill="midnightblue" stroke="midnightblue" points="1682.4,-75.13 1671.81,-75.54 1680.35,-81.82 1682.4,-75.13"/>
</g>
<!-- Node25 -->
<g id="node25" class="node">
<title>Node25</title>
<g id="a_node25"><a xlink:href="_writer_8hpp.html" target="_top" xlink:title=" ">
<polygon fill="white" stroke="black" points="1548.5,-112.5 1548.5,-131.5 1724.5,-131.5 1724.5,-112.5 1548.5,-112.5"/>
<text text-anchor="middle" x="1636.5" y="-119.5" font-family="Helvetica,sans-Serif" font-size="10.00">Liger&#45;Engine/Core/Log/Writer.hpp</text>
</a>
</g>
</g>
<!-- Node22&#45;&gt;Node25 -->
<g id="edge31" class="edge">
<title>Node22&#45;&gt;Node25</title>
<path fill="none" stroke="midnightblue" d="M1591.42,-168.08C1599.28,-160.22 1610.93,-148.57 1620.42,-139.08"/>
<polygon fill="midnightblue" stroke="midnightblue" points="1623.15,-141.3 1627.75,-131.75 1618.2,-136.35 1623.15,-141.3"/>
</g>
<!-- Node26 -->
<g id="node26" class="node">
<title>Node26</title>
<g id="a_node26"><a xlink:title=" ">
<polygon fill="white" stroke="#bfbfbf" points="1463,-112.5 1463,-131.5 1530,-131.5 1530,-112.5 1463,-112.5"/>
<text text-anchor="middle" x="1496.5" y="-119.5" font-family="Helvetica,sans-Serif" font-size="10.00">fmt/core.h</text>
</a>
</g>
</g>
<!-- Node22&#45;&gt;Node26 -->
<g id="edge33" class="edge">
<title>Node22&#45;&gt;Node26</title>
<path fill="none" stroke="midnightblue" d="M1568.68,-168.32C1555.27,-159.9 1534.68,-146.97 1518.91,-137.07"/>
<polygon fill="midnightblue" stroke="midnightblue" points="1520.61,-134.01 1510.28,-131.65 1516.89,-139.94 1520.61,-134.01"/>
</g>
<!-- Node23&#45;&gt;Node4 -->
<g id="edge28" class="edge">
<title>Node23&#45;&gt;Node4</title>
<path fill="none" stroke="midnightblue" d="M1569,-56.44C1477.28,-44.82 1316.62,-24.45 1245.77,-15.47"/>
<polygon fill="midnightblue" stroke="midnightblue" points="1245.95,-11.97 1235.59,-14.18 1245.07,-18.91 1245.95,-11.97"/>
</g>
<!-- Node23&#45;&gt;Node12 -->
<g id="edge29" class="edge">
<title>Node23&#45;&gt;Node12</title>
<path fill="none" stroke="midnightblue" d="M1604.49,-56.44C1566.77,-46.36 1504.44,-29.7 1466.65,-19.6"/>
<polygon fill="midnightblue" stroke="midnightblue" points="1467.25,-16.13 1456.69,-16.93 1465.44,-22.89 1467.25,-16.13"/>
</g>
<!-- Node23&#45;&gt;Node24 -->
<g id="edge30" class="edge">
<title>Node23&#45;&gt;Node24</title>
<path fill="none" stroke="midnightblue" d="M1666.92,-56.44C1699.78,-47.2 1752.28,-32.44 1788.47,-22.26"/>
<polygon fill="midnightblue" stroke="midnightblue" points="1789.54,-25.59 1798.22,-19.52 1787.65,-18.85 1789.54,-25.59"/>
</g>
<!-- Node25&#45;&gt;Node23 -->
<g id="edge32" class="edge">
<title>Node25&#45;&gt;Node23</title>
<path fill="none" stroke="midnightblue" d="M1636.5,-112.08C1636.5,-105.01 1636.5,-94.86 1636.5,-85.99"/>
<polygon fill="midnightblue" stroke="midnightblue" points="1640,-85.75 1636.5,-75.75 1633,-85.75 1640,-85.75"/>
</g>
<!-- Node31 -->
<g id="node31" class="node">
<title>Node31</title>
<g id="a_node31"><a xlink:href="_texture_8hpp.html" target="_top" xlink:title=" ">
<polygon fill="white" stroke="black" points="1031.5,-168.5 1031.5,-187.5 1189.5,-187.5 1189.5,-168.5 1031.5,-168.5"/>
<text text-anchor="middle" x="1110.5" y="-175.5" font-family="Helvetica,sans-Serif" font-size="10.00">Liger&#45;Engine/RHI/Texture.hpp</text>
</a>
</g>
</g>
<!-- Node30&#45;&gt;Node31 -->
<g id="edge39" class="edge">
<title>Node30&#45;&gt;Node31</title>
<path fill="none" stroke="midnightblue" d="M1124.32,-280.37C1121.9,-262.62 1116.32,-221.67 1113.04,-197.6"/>
<polygon fill="midnightblue" stroke="midnightblue" points="1116.49,-197.03 1111.67,-187.59 1109.55,-197.97 1116.49,-197.03"/>
</g>
<!-- Node31&#45;&gt;Node7 -->
<g id="edge40" class="edge">
<title>Node31&#45;&gt;Node7</title>
<path fill="none" stroke="midnightblue" d="M1134.74,-168.44C1160.37,-159.4 1200.99,-145.06 1229.74,-134.92"/>
<polygon fill="midnightblue" stroke="midnightblue" points="1231.11,-138.15 1239.37,-131.52 1228.78,-131.54 1231.11,-138.15"/>
</g>
<!-- Node31&#45;&gt;Node8 -->
<g id="edge41" class="edge">
<title>Node31&#45;&gt;Node8</title>
<path fill="none" stroke="midnightblue" d="M1059.64,-168.44C1002.82,-158.89 910.88,-143.42 850.31,-133.23"/>
<polygon fill="midnightblue" stroke="midnightblue" points="850.57,-129.72 840.13,-131.52 849.41,-136.63 850.57,-129.72"/>
</g>
<!-- Node31&#45;&gt;Node12 -->
<g id="edge47" class="edge">
<title>Node31&#45;&gt;Node12</title>
<path fill="none" stroke="midnightblue" d="M1181.54,-168.47C1255.28,-159.07 1362.03,-143.73 1377.5,-132 1410.85,-106.71 1425.5,-57.05 1431.24,-29.87"/>
<polygon fill="midnightblue" stroke="midnightblue" points="1434.74,-30.22 1433.19,-19.74 1427.86,-28.9 1434.74,-30.22"/>
</g>
<!-- Node31&#45;&gt;Node14 -->
<g id="edge42" class="edge">
<title>Node31&#45;&gt;Node14</title>
<path fill="none" stroke="midnightblue" d="M1031.36,-169.46C925.79,-159.41 739.51,-141.67 630.23,-131.26"/>
<polygon fill="midnightblue" stroke="midnightblue" points="630.51,-127.77 620.22,-130.31 629.84,-134.74 630.51,-127.77"/>
</g>
<!-- Node32 -->
<g id="node32" class="node">
<title>Node32</title>
<g id="a_node32"><a xlink:href="_format_8hpp.html" target="_top" xlink:title=" ">
<polygon fill="white" stroke="black" points="1079.5,-56.5 1079.5,-75.5 1235.5,-75.5 1235.5,-56.5 1079.5,-56.5"/>
<text text-anchor="middle" x="1157.5" y="-63.5" font-family="Helvetica,sans-Serif" font-size="10.00">Liger&#45;Engine/RHI/Format.hpp</text>
</a>
</g>
</g>
<!-- Node31&#45;&gt;Node32 -->
<g id="edge43" class="edge">
<title>Node31&#45;&gt;Node32</title>
<path fill="none" stroke="midnightblue" d="M1114.19,-168.37C1121.84,-150.46 1139.59,-108.92 1149.83,-84.95"/>
<polygon fill="midnightblue" stroke="midnightblue" points="1153.12,-86.16 1153.83,-75.59 1146.68,-83.41 1153.12,-86.16"/>
</g>
<!-- Node33 -->
<g id="node33" class="node">
<title>Node33</title>
<g id="a_node33"><a xlink:href="_sampler_info_8hpp.html" target="_top" xlink:title=" ">
<polygon fill="white" stroke="black" points="921,-112.5 921,-131.5 1102,-131.5 1102,-112.5 921,-112.5"/>
<text text-anchor="middle" x="1011.5" y="-119.5" font-family="Helvetica,sans-Serif" font-size="10.00">Liger&#45;Engine/RHI/SamplerInfo.hpp</text>
</a>
</g>
</g>
<!-- Node31&#45;&gt;Node33 -->
<g id="edge45" class="edge">
<title>Node31&#45;&gt;Node33</title>
<path fill="none" stroke="midnightblue" d="M1094.59,-168.32C1078.86,-159.74 1054.56,-146.49 1036.29,-136.52"/>
<polygon fill="midnightblue" stroke="midnightblue" points="1037.82,-133.37 1027.37,-131.65 1034.47,-139.52 1037.82,-133.37"/>
</g>
<!-- Node32&#45;&gt;Node4 -->
<g id="edge44" class="edge">
<title>Node32&#45;&gt;Node4</title>
<path fill="none" stroke="midnightblue" d="M1166.25,-56.08C1173.97,-48.22 1185.4,-36.57 1194.72,-27.08"/>
<polygon fill="midnightblue" stroke="midnightblue" points="1197.4,-29.34 1201.91,-19.75 1192.41,-24.44 1197.4,-29.34"/>
</g>
<!-- Node33&#45;&gt;Node15 -->
<g id="edge46" class="edge">
<title>Node33&#45;&gt;Node15</title>
<path fill="none" stroke="midnightblue" d="M1007.7,-112.08C1004.59,-104.77 1000.08,-94.18 996.21,-85.1"/>
<polygon fill="midnightblue" stroke="midnightblue" points="999.37,-83.58 992.23,-75.75 992.93,-86.32 999.37,-83.58"/>
</g>
<!-- Node34&#45;&gt;Node5 -->
<g id="edge51" class="edge">
<title>Node34&#45;&gt;Node5</title>
<path fill="none" stroke="midnightblue" d="M1950.86,-280.5C1880.78,-264.58 1739.72,-228.22 1711.5,-188 1692.79,-161.33 1737.07,-141.99 1770.76,-131.64"/>
<polygon fill="midnightblue" stroke="midnightblue" points="1772.17,-134.88 1780.8,-128.72 1770.22,-128.15 1772.17,-134.88"/>
</g>
<!-- Node34&#45;&gt;Node35 -->
<g id="edge49" class="edge">
<title>Node34&#45;&gt;Node35</title>
<path fill="none" stroke="midnightblue" d="M2008.17,-280.32C2025.89,-271.62 2053.4,-258.12 2073.79,-248.11"/>
<polygon fill="midnightblue" stroke="midnightblue" points="2075.44,-251.2 2082.87,-243.65 2072.35,-244.92 2075.44,-251.2"/>
</g>
<!-- Node36 -->
<g id="node36" class="node">
<title>Node36</title>
<g id="a_node36"><a xlink:title=" ">
<polygon fill="white" stroke="#bfbfbf" points="1965,-224.5 1965,-243.5 2016,-243.5 2016,-224.5 1965,-224.5"/>
<text text-anchor="middle" x="1990.5" y="-231.5" font-family="Helvetica,sans-Serif" font-size="10.00">variant</text>
</a>
</g>
</g>
<!-- Node34&#45;&gt;Node36 -->
<g id="edge50" class="edge">
<title>Node34&#45;&gt;Node36</title>
<path fill="none" stroke="midnightblue" d="M1990.5,-280.08C1990.5,-273.01 1990.5,-262.86 1990.5,-253.99"/>
<polygon fill="midnightblue" stroke="midnightblue" points="1994,-253.75 1990.5,-243.75 1987,-253.75 1994,-253.75"/>
</g>
</g>
</svg>
