<?xml version="1.0" encoding="UTF-8" standalone="no"?>
<!DOCTYPE svg PUBLIC "-//W3C//DTD SVG 1.1//EN"
 "http://www.w3.org/Graphics/SVG/1.1/DTD/svg11.dtd">
<!-- Generated by graphviz version 2.43.0 (0)
 -->
<!-- Title: Script.hpp Pages: 1 -->
<!--zoomable 476 -->
<svg id="main" version="1.1" xmlns="http://www.w3.org/2000/svg" xmlns:xlink="http://www.w3.org/1999/xlink" xml:space="preserve" onload="init(evt)">
<style type="text/css"><![CDATA[
.edge:hover path { stroke: red; }
.edge:hover polygon { stroke: red; fill: red; }
]]></style>
<script type="text/javascript"><![CDATA[
var edges = document.getElementsByTagName('g');
if (edges && edges.length) {
  for (var i=0;i<edges.length;i++) {
    if (edges[i].id.substr(0,4)=='edge') {
      edges[i].setAttribute('class','edge');
    }
  }
}
]]></script>
        <defs>
                <circle id="rim" cx="0" cy="0" r="7"/>
                <circle id="rim2" cx="0" cy="0" r="3.5"/>
                <g id="zoomPlus">
                        <use xlink:href="#rim" fill="#404040">
                                <set attributeName="fill" to="#808080" begin="zoomplus.mouseover" end="zoomplus.mouseout"/>
                        </use>
                        <path d="M-4,0h8M0,-4v8" fill="none" stroke="white" stroke-width="1.5" pointer-events="none"/>
                </g>
                <g id="zoomMin">
                        <use xlink:href="#rim" fill="#404040">
                                <set attributeName="fill" to="#808080" begin="zoomminus.mouseover" end="zoomminus.mouseout"/>
                        </use>
                        <path d="M-4,0h8" fill="none" stroke="white" stroke-width="1.5" pointer-events="none"/>
                </g>
                <g id="dirArrow">
                        <path fill="none" stroke="white" stroke-width="1.5" d="M0,-3.0v7 M-2.5,-0.5L0,-3.0L2.5,-0.5"/>
                </g>
               <g id="resetDef">
                       <use xlink:href="#rim2" fill="#404040">
                               <set attributeName="fill" to="#808080" begin="reset.mouseover" end="reset.mouseout"/>
                       </use>
               </g>
        </defs>

<script type="text/javascript">
var viewWidth = 1058;
var viewHeight = 476;
var sectionId = 'dynsection-0';
</script>
<script xlink:href="svgpan.js"/>
<svg id="graph" class="graph">
<g id="viewport">
<title>Script.hpp</title>
<polygon fill="white" stroke="transparent" points="-4,4 -4,-472 1054,-472 1054,4 -4,4"/>
<!-- Node1 -->
<g id="node1" class="node">
<title>Node1</title>
<g id="a_node1"><a xlink:title=" ">
<polygon fill="#bfbfbf" stroke="black" points="505.5,-448.5 505.5,-467.5 570.5,-467.5 570.5,-448.5 505.5,-448.5"/>
<text text-anchor="middle" x="538" y="-455.5" font-family="Helvetica,sans-Serif" font-size="10.00">Script.hpp</text>
</a>
</g>
</g>
<!-- Node2 -->
<g id="node2" class="node">
<title>Node2</title>
<g id="a_node2"><a xlink:href="_event_dispatcher_8hpp.html" target="_top" xlink:title=" ">
<polygon fill="white" stroke="black" points="271.5,-392.5 271.5,-411.5 508.5,-411.5 508.5,-392.5 271.5,-392.5"/>
<text text-anchor="middle" x="390" y="-399.5" font-family="Helvetica,sans-Serif" font-size="10.00">Liger&#45;Engine/Core/Event/EventDispatcher.hpp</text>
</a>
</g>
</g>
<!-- Node1&#45;&gt;Node2 -->
<g id="edge1" class="edge">
<title>Node1&#45;&gt;Node2</title>
<path fill="none" stroke="midnightblue" d="M514.55,-448.44C489.87,-439.44 450.81,-425.19 423.02,-415.05"/>
<polygon fill="midnightblue" stroke="midnightblue" points="423.94,-411.66 413.34,-411.52 421.54,-418.23 423.94,-411.66"/>
</g>
<!-- Node17 -->
<g id="node17" class="node">
<title>Node17</title>
<g id="a_node17"><a xlink:href="_scene_8hpp.html" target="_top" xlink:title=" ">
<polygon fill="white" stroke="black" points="668,-392.5 668,-411.5 820,-411.5 820,-392.5 668,-392.5"/>
<text text-anchor="middle" x="744" y="-399.5" font-family="Helvetica,sans-Serif" font-size="10.00">Liger&#45;Engine/ECS/Scene.hpp</text>
</a>
</g>
</g>
<!-- Node1&#45;&gt;Node17 -->
<g id="edge19" class="edge">
<title>Node1&#45;&gt;Node17</title>
<path fill="none" stroke="midnightblue" d="M570.64,-448.44C606.05,-439.16 662.71,-424.31 701.55,-414.13"/>
<polygon fill="midnightblue" stroke="midnightblue" points="702.73,-417.44 711.51,-411.52 700.95,-410.67 702.73,-417.44"/>
</g>
<!-- Node3 -->
<g id="node3" class="node">
<title>Node3</title>
<g id="a_node3"><a xlink:href="_event_type_8hpp.html" target="_top" xlink:title=" ">
<polygon fill="white" stroke="black" points="0,-224.5 0,-243.5 240,-243.5 240,-224.5 0,-224.5"/>
<text text-anchor="middle" x="120" y="-231.5" font-family="Helvetica,sans-Serif" font-size="10.00">Liger&#45;Engine/Core/Event/Detail/EventType.hpp</text>
</a>
</g>
</g>
<!-- Node2&#45;&gt;Node3 -->
<g id="edge2" class="edge">
<title>Node2&#45;&gt;Node3</title>
<path fill="none" stroke="midnightblue" d="M306.11,-392.42C269.91,-386.09 228.13,-375.09 194,-356 163.55,-338.97 156.65,-330.09 139,-300 130.54,-285.58 125.62,-267.13 122.91,-253.57"/>
<polygon fill="midnightblue" stroke="midnightblue" points="126.32,-252.76 121.13,-243.53 119.43,-253.98 126.32,-252.76"/>
</g>
<!-- Node5 -->
<g id="node5" class="node">
<title>Node5</title>
<g id="a_node5"><a xlink:href="_event_sink_8hpp.html" target="_top" xlink:title=" ">
<polygon fill="white" stroke="black" points="203,-336.5 203,-355.5 409,-355.5 409,-336.5 203,-336.5"/>
<text text-anchor="middle" x="306" y="-343.5" font-family="Helvetica,sans-Serif" font-size="10.00">Liger&#45;Engine/Core/Event/EventSink.hpp</text>
</a>
</g>
</g>
<!-- Node2&#45;&gt;Node5 -->
<g id="edge4" class="edge">
<title>Node2&#45;&gt;Node5</title>
<path fill="none" stroke="midnightblue" d="M376.5,-392.32C363.4,-383.9 343.29,-370.97 327.89,-361.07"/>
<polygon fill="midnightblue" stroke="midnightblue" points="329.77,-358.12 319.46,-355.65 325.98,-364.01 329.77,-358.12"/>
</g>
<!-- Node16 -->
<g id="node16" class="node">
<title>Node16</title>
<g id="a_node16"><a xlink:title=" ">
<polygon fill="white" stroke="#bfbfbf" points="427.5,-336.5 427.5,-355.5 520.5,-355.5 520.5,-336.5 427.5,-336.5"/>
<text text-anchor="middle" x="474" y="-343.5" font-family="Helvetica,sans-Serif" font-size="10.00">unordered_map</text>
</a>
</g>
</g>
<!-- Node2&#45;&gt;Node16 -->
<g id="edge18" class="edge">
<title>Node2&#45;&gt;Node16</title>
<path fill="none" stroke="midnightblue" d="M403.5,-392.32C416.6,-383.9 436.71,-370.97 452.11,-361.07"/>
<polygon fill="midnightblue" stroke="midnightblue" points="454.02,-364.01 460.54,-355.65 450.23,-358.12 454.02,-364.01"/>
</g>
<!-- Node4 -->
<g id="node4" class="node">
<title>Node4</title>
<g id="a_node4"><a xlink:title=" ">
<polygon fill="white" stroke="#bfbfbf" points="124,-0.5 124,-19.5 174,-19.5 174,-0.5 124,-0.5"/>
<text text-anchor="middle" x="149" y="-7.5" font-family="Helvetica,sans-Serif" font-size="10.00">cstdint</text>
</a>
</g>
</g>
<!-- Node3&#45;&gt;Node4 -->
<g id="edge3" class="edge">
<title>Node3&#45;&gt;Node4</title>
<path fill="none" stroke="midnightblue" d="M120.58,-224.48C122.38,-198.87 128.43,-120.35 139,-56 140.44,-47.2 142.53,-37.54 144.41,-29.44"/>
<polygon fill="midnightblue" stroke="midnightblue" points="147.85,-30.11 146.8,-19.57 141.05,-28.47 147.85,-30.11"/>
</g>
<!-- Node6 -->
<g id="node6" class="node">
<title>Node6</title>
<g id="a_node6"><a xlink:href="_base_event_sink_8hpp.html" target="_top" xlink:title=" ">
<polygon fill="white" stroke="black" points="148.5,-280.5 148.5,-299.5 411.5,-299.5 411.5,-280.5 148.5,-280.5"/>
<text text-anchor="middle" x="280" y="-287.5" font-family="Helvetica,sans-Serif" font-size="10.00">Liger&#45;Engine/Core/Event/Detail/BaseEventSink.hpp</text>
</a>
</g>
</g>
<!-- Node5&#45;&gt;Node6 -->
<g id="edge5" class="edge">
<title>Node5&#45;&gt;Node6</title>
<path fill="none" stroke="midnightblue" d="M301.71,-336.08C298.15,-328.69 292.98,-317.95 288.58,-308.81"/>
<polygon fill="midnightblue" stroke="midnightblue" points="291.71,-307.24 284.21,-299.75 285.4,-310.28 291.71,-307.24"/>
</g>
<!-- Node7 -->
<g id="node7" class="node">
<title>Node7</title>
<g id="a_node7"><a xlink:href="_callback_8hpp.html" target="_top" xlink:title=" ">
<polygon fill="white" stroke="black" points="430,-280.5 430,-299.5 662,-299.5 662,-280.5 430,-280.5"/>
<text text-anchor="middle" x="546" y="-287.5" font-family="Helvetica,sans-Serif" font-size="10.00">Liger&#45;Engine/Core/Event/Detail/Callback.hpp</text>
</a>
</g>
</g>
<!-- Node5&#45;&gt;Node7 -->
<g id="edge6" class="edge">
<title>Node5&#45;&gt;Node7</title>
<path fill="none" stroke="midnightblue" d="M344.03,-336.44C385.81,-327.04 452.98,-311.93 498.27,-301.74"/>
<polygon fill="midnightblue" stroke="midnightblue" points="499.16,-305.13 508.15,-299.52 497.62,-298.3 499.16,-305.13"/>
</g>
<!-- Node8 -->
<g id="node8" class="node">
<title>Node8</title>
<g id="a_node8"><a xlink:href="_log_8hpp.html" target="_top" xlink:title=" ">
<polygon fill="white" stroke="black" points="371,-168.5 371,-187.5 535,-187.5 535,-168.5 371,-168.5"/>
<text text-anchor="middle" x="453" y="-175.5" font-family="Helvetica,sans-Serif" font-size="10.00">Liger&#45;Engine/Core/Log/Log.hpp</text>
</a>
</g>
</g>
<!-- Node7&#45;&gt;Node8 -->
<g id="edge7" class="edge">
<title>Node7&#45;&gt;Node8</title>
<path fill="none" stroke="midnightblue" d="M507.74,-280.45C488.13,-273.93 465.91,-262.76 454,-244 445.31,-230.32 446.06,-211.53 448.39,-197.67"/>
<polygon fill="midnightblue" stroke="midnightblue" points="451.83,-198.31 450.44,-187.81 444.98,-196.88 451.83,-198.31"/>
</g>
<!-- Node15 -->
<g id="node15" class="node">
<title>Node15</title>
<g id="a_node15"><a xlink:href="_core_2_log_channel_8hpp.html" target="_top" xlink:title=" ">
<polygon fill="white" stroke="black" points="463,-224.5 463,-243.5 647,-243.5 647,-224.5 463,-224.5"/>
<text text-anchor="middle" x="555" y="-231.5" font-family="Helvetica,sans-Serif" font-size="10.00">Liger&#45;Engine/Core/LogChannel.hpp</text>
</a>
</g>
</g>
<!-- Node7&#45;&gt;Node15 -->
<g id="edge16" class="edge">
<title>Node7&#45;&gt;Node15</title>
<path fill="none" stroke="midnightblue" d="M547.49,-280.08C548.68,-272.93 550.39,-262.64 551.88,-253.69"/>
<polygon fill="midnightblue" stroke="midnightblue" points="555.35,-254.19 553.54,-243.75 548.45,-253.04 555.35,-254.19"/>
</g>
<!-- Node9 -->
<g id="node9" class="node">
<title>Node9</title>
<g id="a_node9"><a xlink:href="_message_8hpp.html" target="_top" xlink:title=" ">
<polygon fill="white" stroke="black" points="148.5,-56.5 148.5,-75.5 339.5,-75.5 339.5,-56.5 148.5,-56.5"/>
<text text-anchor="middle" x="244" y="-63.5" font-family="Helvetica,sans-Serif" font-size="10.00">Liger&#45;Engine/Core/Log/Message.hpp</text>
</a>
</g>
</g>
<!-- Node8&#45;&gt;Node9 -->
<g id="edge8" class="edge">
<title>Node8&#45;&gt;Node9</title>
<path fill="none" stroke="midnightblue" d="M370.91,-171.5C313.65,-165.76 244.33,-154.32 226,-132 214.78,-118.34 223.05,-98.19 231.73,-83.96"/>
<polygon fill="midnightblue" stroke="midnightblue" points="234.67,-85.85 237.28,-75.58 228.84,-81.98 234.67,-85.85"/>
</g>
<!-- Node12 -->
<g id="node12" class="node">
<title>Node12</title>
<g id="a_node12"><a xlink:href="_writer_8hpp.html" target="_top" xlink:title=" ">
<polygon fill="white" stroke="black" points="235,-112.5 235,-131.5 411,-131.5 411,-112.5 235,-112.5"/>
<text text-anchor="middle" x="323" y="-119.5" font-family="Helvetica,sans-Serif" font-size="10.00">Liger&#45;Engine/Core/Log/Writer.hpp</text>
</a>
</g>
</g>
<!-- Node8&#45;&gt;Node12 -->
<g id="edge12" class="edge">
<title>Node8&#45;&gt;Node12</title>
<path fill="none" stroke="midnightblue" d="M432.4,-168.44C411.01,-159.56 377.32,-145.56 352.98,-135.45"/>
<polygon fill="midnightblue" stroke="midnightblue" points="354.08,-132.12 343.5,-131.52 351.39,-138.58 354.08,-132.12"/>
</g>
<!-- Node13 -->
<g id="node13" class="node">
<title>Node13</title>
<g id="a_node13"><a xlink:title=" ">
<polygon fill="white" stroke="#bfbfbf" points="429.5,-112.5 429.5,-131.5 496.5,-131.5 496.5,-112.5 429.5,-112.5"/>
<text text-anchor="middle" x="463" y="-119.5" font-family="Helvetica,sans-Serif" font-size="10.00">fmt/core.h</text>
</a>
</g>
</g>
<!-- Node8&#45;&gt;Node13 -->
<g id="edge14" class="edge">
<title>Node8&#45;&gt;Node13</title>
<path fill="none" stroke="midnightblue" d="M454.65,-168.08C455.98,-160.93 457.88,-150.64 459.54,-141.69"/>
<polygon fill="midnightblue" stroke="midnightblue" points="463,-142.22 461.38,-131.75 456.12,-140.95 463,-142.22"/>
</g>
<!-- Node14 -->
<g id="node14" class="node">
<title>Node14</title>
<g id="a_node14"><a xlink:title=" ">
<polygon fill="white" stroke="#bfbfbf" points="514.5,-112.5 514.5,-131.5 561.5,-131.5 561.5,-112.5 514.5,-112.5"/>
<text text-anchor="middle" x="538" y="-119.5" font-family="Helvetica,sans-Serif" font-size="10.00">vector</text>
</a>
</g>
</g>
<!-- Node8&#45;&gt;Node14 -->
<g id="edge15" class="edge">
<title>Node8&#45;&gt;Node14</title>
<path fill="none" stroke="midnightblue" d="M466.66,-168.32C479.92,-159.9 500.27,-146.97 515.85,-137.07"/>
<polygon fill="midnightblue" stroke="midnightblue" points="517.81,-139.97 524.38,-131.65 514.06,-134.06 517.81,-139.97"/>
</g>
<!-- Node9&#45;&gt;Node4 -->
<g id="edge9" class="edge">
<title>Node9&#45;&gt;Node4</title>
<path fill="none" stroke="midnightblue" d="M228.74,-56.32C213.78,-47.82 190.75,-34.73 173.27,-24.8"/>
<polygon fill="midnightblue" stroke="midnightblue" points="174.65,-21.55 164.23,-19.65 171.19,-27.64 174.65,-21.55"/>
</g>
<!-- Node10 -->
<g id="node10" class="node">
<title>Node10</title>
<g id="a_node10"><a xlink:title=" ">
<polygon fill="white" stroke="#bfbfbf" points="207,-0.5 207,-19.5 251,-19.5 251,-0.5 207,-0.5"/>
<text text-anchor="middle" x="229" y="-7.5" font-family="Helvetica,sans-Serif" font-size="10.00">string</text>
</a>
</g>
</g>
<!-- Node9&#45;&gt;Node10 -->
<g id="edge10" class="edge">
<title>Node9&#45;&gt;Node10</title>
<path fill="none" stroke="midnightblue" d="M241.52,-56.08C239.51,-48.85 236.61,-38.41 234.11,-29.4"/>
<polygon fill="midnightblue" stroke="midnightblue" points="237.48,-28.45 231.43,-19.75 230.74,-30.32 237.48,-28.45"/>
</g>
<!-- Node11 -->
<g id="node11" class="node">
<title>Node11</title>
<g id="a_node11"><a xlink:title=" ">
<polygon fill="white" stroke="#bfbfbf" points="269.5,-0.5 269.5,-19.5 342.5,-19.5 342.5,-0.5 269.5,-0.5"/>
<text text-anchor="middle" x="306" y="-7.5" font-family="Helvetica,sans-Serif" font-size="10.00">string_view</text>
</a>
</g>
</g>
<!-- Node9&#45;&gt;Node11 -->
<g id="edge11" class="edge">
<title>Node9&#45;&gt;Node11</title>
<path fill="none" stroke="midnightblue" d="M253.96,-56.32C263.13,-48.34 276.94,-36.31 288.03,-26.65"/>
<polygon fill="midnightblue" stroke="midnightblue" points="290.62,-29.04 295.86,-19.83 286.02,-23.76 290.62,-29.04"/>
</g>
<!-- Node12&#45;&gt;Node9 -->
<g id="edge13" class="edge">
<title>Node12&#45;&gt;Node9</title>
<path fill="none" stroke="midnightblue" d="M310.31,-112.32C298.1,-103.98 279.42,-91.21 265,-81.35"/>
<polygon fill="midnightblue" stroke="midnightblue" points="266.89,-78.41 256.66,-75.65 262.94,-84.19 266.89,-78.41"/>
</g>
<!-- Node15&#45;&gt;Node8 -->
<g id="edge17" class="edge">
<title>Node15&#45;&gt;Node8</title>
<path fill="none" stroke="midnightblue" d="M538.61,-224.32C522.33,-215.7 497.13,-202.36 478.28,-192.39"/>
<polygon fill="midnightblue" stroke="midnightblue" points="479.82,-189.24 469.35,-187.65 476.55,-195.43 479.82,-189.24"/>
</g>
<!-- Node18 -->
<g id="node18" class="node">
<title>Node18</title>
<g id="a_node18"><a xlink:href="_entity_8hpp.html" target="_top" xlink:title=" ">
<polygon fill="white" stroke="black" points="566,-336.5 566,-355.5 716,-355.5 716,-336.5 566,-336.5"/>
<text text-anchor="middle" x="641" y="-343.5" font-family="Helvetica,sans-Serif" font-size="10.00">Liger&#45;Engine/ECS/Entity.hpp</text>
</a>
</g>
</g>
<!-- Node17&#45;&gt;Node18 -->
<g id="edge20" class="edge">
<title>Node17&#45;&gt;Node18</title>
<path fill="none" stroke="midnightblue" d="M727.45,-392.32C711.01,-383.7 685.57,-370.36 666.53,-360.39"/>
<polygon fill="midnightblue" stroke="midnightblue" points="667.99,-357.2 657.51,-355.65 664.74,-363.4 667.99,-357.2"/>
</g>
<!-- Node19 -->
<g id="node19" class="node">
<title>Node19</title>
<g id="a_node19"><a xlink:title=" ">
<polygon fill="white" stroke="#bfbfbf" points="680,-280.5 680,-299.5 808,-299.5 808,-280.5 680,-280.5"/>
<text text-anchor="middle" x="744" y="-287.5" font-family="Helvetica,sans-Serif" font-size="10.00">entt/entity/registry.hpp</text>
</a>
</g>
</g>
<!-- Node17&#45;&gt;Node19 -->
<g id="edge23" class="edge">
<title>Node17&#45;&gt;Node19</title>
<path fill="none" stroke="midnightblue" d="M744,-392.37C744,-374.62 744,-333.67 744,-309.6"/>
<polygon fill="midnightblue" stroke="midnightblue" points="747.5,-309.59 744,-299.59 740.5,-309.59 747.5,-309.59"/>
</g>
<!-- Node20 -->
<g id="node20" class="node">
<title>Node20</title>
<g id="a_node20"><a xlink:title=" ">
<polygon fill="white" stroke="#bfbfbf" points="772.5,-336.5 772.5,-355.5 909.5,-355.5 909.5,-336.5 772.5,-336.5"/>
<text text-anchor="middle" x="841" y="-343.5" font-family="Helvetica,sans-Serif" font-size="10.00">entt/entity/organizer.hpp</text>
</a>
</g>
</g>
<!-- Node17&#45;&gt;Node20 -->
<g id="edge22" class="edge">
<title>Node17&#45;&gt;Node20</title>
<path fill="none" stroke="midnightblue" d="M759.58,-392.32C775,-383.74 798.81,-370.49 816.71,-360.52"/>
<polygon fill="midnightblue" stroke="midnightblue" points="818.42,-363.58 825.45,-355.65 815.01,-357.46 818.42,-363.58"/>
</g>
<!-- Node21 -->
<g id="node21" class="node">
<title>Node21</title>
<g id="a_node21"><a xlink:title=" ">
<polygon fill="white" stroke="#bfbfbf" points="928,-336.5 928,-355.5 1050,-355.5 1050,-336.5 928,-336.5"/>
<text text-anchor="middle" x="989" y="-343.5" font-family="Helvetica,sans-Serif" font-size="10.00">taskflow/taskflow.hpp</text>
</a>
</g>
</g>
<!-- Node17&#45;&gt;Node21 -->
<g id="edge24" class="edge">
<title>Node17&#45;&gt;Node21</title>
<path fill="none" stroke="midnightblue" d="M782.82,-392.44C825.56,-383.02 894.33,-367.87 940.57,-357.68"/>
<polygon fill="midnightblue" stroke="midnightblue" points="941.35,-361.09 950.36,-355.52 939.84,-354.25 941.35,-361.09"/>
</g>
<!-- Node18&#45;&gt;Node19 -->
<g id="edge21" class="edge">
<title>Node18&#45;&gt;Node19</title>
<path fill="none" stroke="midnightblue" d="M657.55,-336.32C673.99,-327.7 699.43,-314.36 718.47,-304.39"/>
<polygon fill="midnightblue" stroke="midnightblue" points="720.26,-307.4 727.49,-299.65 717.01,-301.2 720.26,-307.4"/>
</g>
</g>
</svg>
        <g id="navigator" transform="translate(0 0)" fill="#404254">
                <rect fill="#f2f5e9" fill-opacity="0.5" stroke="#606060" stroke-width=".5" x="0" y="0" width="60" height="60"/>
                <use id="zoomplus" xlink:href="#zoomPlus" x="17" y="9" onmousedown="handleZoom(evt,'in')"/>
                <use id="zoomminus" xlink:href="#zoomMin" x="42" y="9" onmousedown="handleZoom(evt,'out')"/>
                <use id="reset" xlink:href="#resetDef" x="30" y="36" onmousedown="handleReset()"/>
                <g id="arrowUp" xlink:href="#dirArrow" transform="translate(30 24)" onmousedown="handlePan(0,-1)">
                  <use xlink:href="#rim" fill="#404040">
                        <set attributeName="fill" to="#808080" begin="arrowUp.mouseover" end="arrowUp.mouseout"/>
                  </use>
                  <path fill="none" stroke="white" stroke-width="1.5" d="M0,-3.0v7 M-2.5,-0.5L0,-3.0L2.5,-0.5"/>
                </g>
                <g id="arrowRight" xlink:href="#dirArrow" transform="rotate(90) translate(36 -43)" onmousedown="handlePan(1,0)">
                  <use xlink:href="#rim" fill="#404040">
                        <set attributeName="fill" to="#808080" begin="arrowRight.mouseover" end="arrowRight.mouseout"/>
                  </use>
                  <path fill="none" stroke="white" stroke-width="1.5" d="M0,-3.0v7 M-2.5,-0.5L0,-3.0L2.5,-0.5"/>
                </g>
                <g id="arrowDown" xlink:href="#dirArrow" transform="rotate(180) translate(-30 -48)" onmousedown="handlePan(0,1)">
                  <use xlink:href="#rim" fill="#404040">
                        <set attributeName="fill" to="#808080" begin="arrowDown.mouseover" end="arrowDown.mouseout"/>
                  </use>
                  <path fill="none" stroke="white" stroke-width="1.5" d="M0,-3.0v7 M-2.5,-0.5L0,-3.0L2.5,-0.5"/>
                </g>
                <g id="arrowLeft" xlink:href="#dirArrow" transform="rotate(270) translate(-36 17)" onmousedown="handlePan(-1,0)">
                  <use xlink:href="#rim" fill="#404040">
                        <set attributeName="fill" to="#808080" begin="arrowLeft.mouseover" end="arrowLeft.mouseout"/>
                  </use>
                  <path fill="none" stroke="white" stroke-width="1.5" d="M0,-3.0v7 M-2.5,-0.5L0,-3.0L2.5,-0.5"/>
                </g>
        </g>
        <svg viewBox="0 0 15 15" width="100%" height="30px" preserveAspectRatio="xMaxYMin meet">
         <g id="arrow_out" transform="scale(0.3 0.3)">
          <a xlink:href="_script_8hpp__incl_org.svg" target="_base">
           <rect id="button" ry="5" rx="5" y="6" x="6" height="38" width="38"
                fill="#f2f5e9" fill-opacity="0.5" stroke="#606060" stroke-width="1.0"/>
           <path id="arrow"
             d="M 11.500037,31.436501 C 11.940474,20.09759 22.043105,11.32322 32.158766,21.979434 L 37.068811,17.246167 C 37.068811,17.246167 37.088388,32 37.088388,32 L 22.160133,31.978069 C 22.160133,31.978069 26.997745,27.140456 26.997745,27.140456 C 18.528582,18.264221 13.291696,25.230495 11.500037,31.436501 z"
             style="fill:#404040;"/>
          </a>
         </g>
        </svg>
</svg>
