<?xml version="1.0" encoding="UTF-8" standalone="no"?>
<!DOCTYPE svg PUBLIC "-//W3C//DTD SVG 1.1//EN"
 "http://www.w3.org/Graphics/SVG/1.1/DTD/svg11.dtd">
<!-- Generated by graphviz version 2.43.0 (0)
 -->
<!-- Title: ScriptSystem.hpp Pages: 1 -->
<svg width="1776pt" height="588pt"
 viewBox="0.00 0.00 1775.50 588.00" xmlns="http://www.w3.org/2000/svg" xmlns:xlink="http://www.w3.org/1999/xlink">
<g id="graph0" class="graph" transform="scale(1 1) rotate(0) translate(4 584)">
<title>ScriptSystem.hpp</title>
<polygon fill="white" stroke="transparent" points="-4,4 -4,-584 1771.5,-584 1771.5,4 -4,4"/>
<!-- Node1 -->
<g id="node1" class="node">
<title>Node1</title>
<g id="a_node1"><a xlink:title=" ">
<polygon fill="#bfbfbf" stroke="black" points="690,-560.5 690,-579.5 792,-579.5 792,-560.5 690,-560.5"/>
<text text-anchor="middle" x="741" y="-567.5" font-family="Helvetica,sans-Serif" font-size="10.00">ScriptSystem.hpp</text>
</a>
</g>
</g>
<!-- Node2 -->
<g id="node2" class="node">
<title>Node2</title>
<g id="a_node2"><a xlink:href="_time_8hpp.html" target="_top" xlink:title=" ">
<polygon fill="white" stroke="black" points="0,-504.5 0,-523.5 152,-523.5 152,-504.5 0,-504.5"/>
<text text-anchor="middle" x="76" y="-511.5" font-family="Helvetica,sans-Serif" font-size="10.00">Liger&#45;Engine/Core/Time.hpp</text>
</a>
</g>
</g>
<!-- Node1&#45;&gt;Node2 -->
<g id="edge1" class="edge">
<title>Node1&#45;&gt;Node2</title>
<path fill="none" stroke="midnightblue" d="M689.92,-564.85C576.58,-555.65 302.98,-533.43 162.46,-522.02"/>
<polygon fill="midnightblue" stroke="midnightblue" points="162.42,-518.51 152.17,-521.19 161.85,-525.48 162.42,-518.51"/>
</g>
<!-- Node5 -->
<g id="node5" class="node">
<title>Node5</title>
<g id="a_node5"><a xlink:href="_default_components_8hpp.html" target="_top" xlink:title=" ">
<polygon fill="white" stroke="black" points="630.5,-504.5 630.5,-523.5 851.5,-523.5 851.5,-504.5 630.5,-504.5"/>
<text text-anchor="middle" x="741" y="-511.5" font-family="Helvetica,sans-Serif" font-size="10.00">Liger&#45;Engine/ECS/DefaultComponents.hpp</text>
</a>
</g>
</g>
<!-- Node1&#45;&gt;Node5 -->
<g id="edge4" class="edge">
<title>Node1&#45;&gt;Node5</title>
<path fill="none" stroke="midnightblue" d="M741,-560.08C741,-553.01 741,-542.86 741,-533.99"/>
<polygon fill="midnightblue" stroke="midnightblue" points="744.5,-533.75 741,-523.75 737.5,-533.75 744.5,-533.75"/>
</g>
<!-- Node35 -->
<g id="node35" class="node">
<title>Node35</title>
<g id="a_node35"><a xlink:href="_system_8hpp.html" target="_top" xlink:title=" ">
<polygon fill="white" stroke="black" points="1158,-504.5 1158,-523.5 1318,-523.5 1318,-504.5 1158,-504.5"/>
<text text-anchor="middle" x="1238" y="-511.5" font-family="Helvetica,sans-Serif" font-size="10.00">Liger&#45;Engine/ECS/System.hpp</text>
</a>
</g>
</g>
<!-- Node1&#45;&gt;Node35 -->
<g id="edge43" class="edge">
<title>Node1&#45;&gt;Node35</title>
<path fill="none" stroke="midnightblue" d="M792.32,-563.42C876.56,-554.27 1045.2,-535.95 1149.16,-524.65"/>
<polygon fill="midnightblue" stroke="midnightblue" points="1149.77,-528.11 1159.33,-523.55 1149.01,-521.15 1149.77,-528.11"/>
</g>
<!-- Node3 -->
<g id="node3" class="node">
<title>Node3</title>
<g id="a_node3"><a xlink:title=" ">
<polygon fill="white" stroke="#bfbfbf" points="51,-448.5 51,-467.5 101,-467.5 101,-448.5 51,-448.5"/>
<text text-anchor="middle" x="76" y="-455.5" font-family="Helvetica,sans-Serif" font-size="10.00">chrono</text>
</a>
</g>
</g>
<!-- Node2&#45;&gt;Node3 -->
<g id="edge2" class="edge">
<title>Node2&#45;&gt;Node3</title>
<path fill="none" stroke="midnightblue" d="M76,-504.08C76,-497.01 76,-486.86 76,-477.99"/>
<polygon fill="midnightblue" stroke="midnightblue" points="79.5,-477.75 76,-467.75 72.5,-477.75 79.5,-477.75"/>
</g>
<!-- Node4 -->
<g id="node4" class="node">
<title>Node4</title>
<g id="a_node4"><a xlink:title=" ">
<polygon fill="white" stroke="#bfbfbf" points="107,-0.5 107,-19.5 151,-19.5 151,-0.5 107,-0.5"/>
<text text-anchor="middle" x="129" y="-7.5" font-family="Helvetica,sans-Serif" font-size="10.00">string</text>
</a>
</g>
</g>
<!-- Node2&#45;&gt;Node4 -->
<g id="edge3" class="edge">
<title>Node2&#45;&gt;Node4</title>
<path fill="none" stroke="midnightblue" d="M67.92,-504.34C60.27,-495.72 48.95,-481.82 42,-468 28.48,-441.11 23,-433.1 23,-403 23,-403 23,-403 23,-121 23,-75.81 69.95,-42.05 101.36,-24.52"/>
<polygon fill="midnightblue" stroke="midnightblue" points="103.37,-27.41 110.54,-19.61 100.07,-21.24 103.37,-27.41"/>
</g>
<!-- Node5&#45;&gt;Node4 -->
<g id="edge42" class="edge">
<title>Node5&#45;&gt;Node4</title>
<path fill="none" stroke="midnightblue" d="M633.35,-504.49C457.74,-489.14 129,-453.64 129,-403 129,-403 129,-403 129,-121 129,-88.95 129,-51.64 129,-29.75"/>
<polygon fill="midnightblue" stroke="midnightblue" points="132.5,-29.56 129,-19.56 125.5,-29.56 132.5,-29.56"/>
</g>
<!-- Node6 -->
<g id="node6" class="node">
<title>Node6</title>
<g id="a_node6"><a xlink:href="_math_8hpp.html" target="_top" xlink:title=" ">
<polygon fill="white" stroke="black" points="478.5,-448.5 478.5,-467.5 657.5,-467.5 657.5,-448.5 478.5,-448.5"/>
<text text-anchor="middle" x="568" y="-455.5" font-family="Helvetica,sans-Serif" font-size="10.00">Liger&#45;Engine/Core/Math/Math.hpp</text>
</a>
</g>
</g>
<!-- Node5&#45;&gt;Node6 -->
<g id="edge5" class="edge">
<title>Node5&#45;&gt;Node6</title>
<path fill="none" stroke="midnightblue" d="M713.59,-504.44C684.23,-495.28 637.48,-480.69 604.9,-470.52"/>
<polygon fill="midnightblue" stroke="midnightblue" points="605.87,-467.16 595.28,-467.52 603.79,-473.84 605.87,-467.16"/>
</g>
<!-- Node16 -->
<g id="node16" class="node">
<title>Node16</title>
<g id="a_node16"><a xlink:href="_scene_8hpp.html" target="_top" xlink:title=" ">
<polygon fill="white" stroke="black" points="1269,-392.5 1269,-411.5 1421,-411.5 1421,-392.5 1269,-392.5"/>
<text text-anchor="middle" x="1345" y="-399.5" font-family="Helvetica,sans-Serif" font-size="10.00">Liger&#45;Engine/ECS/Scene.hpp</text>
</a>
</g>
</g>
<!-- Node5&#45;&gt;Node16 -->
<g id="edge16" class="edge">
<title>Node5&#45;&gt;Node16</title>
<path fill="none" stroke="midnightblue" d="M851.5,-513.29C947.83,-510.99 1090.44,-501.37 1210,-468 1251.95,-456.29 1296.78,-432.09 1322.77,-416.75"/>
<polygon fill="midnightblue" stroke="midnightblue" points="1324.68,-419.69 1331.46,-411.54 1321.08,-413.68 1324.68,-419.69"/>
</g>
<!-- Node21 -->
<g id="node21" class="node">
<title>Node21</title>
<g id="a_node21"><a xlink:href="_script_8hpp.html" target="_top" xlink:title=" ">
<polygon fill="white" stroke="black" points="1049.5,-448.5 1049.5,-467.5 1200.5,-467.5 1200.5,-448.5 1049.5,-448.5"/>
<text text-anchor="middle" x="1125" y="-455.5" font-family="Helvetica,sans-Serif" font-size="10.00">Liger&#45;Engine/ECS/Script.hpp</text>
</a>
</g>
</g>
<!-- Node5&#45;&gt;Node21 -->
<g id="edge22" class="edge">
<title>Node5&#45;&gt;Node21</title>
<path fill="none" stroke="midnightblue" d="M801.85,-504.44C870.52,-494.79 982.07,-479.1 1054.49,-468.92"/>
<polygon fill="midnightblue" stroke="midnightblue" points="1055.02,-472.37 1064.44,-467.52 1054.05,-465.44 1055.02,-472.37"/>
</g>
<!-- Node7 -->
<g id="node7" class="node">
<title>Node7</title>
<g id="a_node7"><a xlink:href="_formatting_8hpp.html" target="_top" xlink:title=" ">
<polygon fill="white" stroke="black" points="157,-392.5 157,-411.5 365,-411.5 365,-392.5 157,-392.5"/>
<text text-anchor="middle" x="261" y="-399.5" font-family="Helvetica,sans-Serif" font-size="10.00">Liger&#45;Engine/Core/Math/Formatting.hpp</text>
</a>
</g>
</g>
<!-- Node6&#45;&gt;Node7 -->
<g id="edge6" class="edge">
<title>Node6&#45;&gt;Node7</title>
<path fill="none" stroke="midnightblue" d="M519.35,-448.44C465.13,-438.9 377.45,-423.48 319.52,-413.29"/>
<polygon fill="midnightblue" stroke="midnightblue" points="319.87,-409.8 309.42,-411.52 318.66,-416.7 319.87,-409.8"/>
</g>
<!-- Node10 -->
<g id="node10" class="node">
<title>Node10</title>
<g id="a_node10"><a xlink:href="_random_8hpp.html" target="_top" xlink:title=" ">
<polygon fill="white" stroke="black" points="383.5,-392.5 383.5,-411.5 578.5,-411.5 578.5,-392.5 383.5,-392.5"/>
<text text-anchor="middle" x="481" y="-399.5" font-family="Helvetica,sans-Serif" font-size="10.00">Liger&#45;Engine/Core/Math/Random.hpp</text>
</a>
</g>
</g>
<!-- Node6&#45;&gt;Node10 -->
<g id="edge9" class="edge">
<title>Node6&#45;&gt;Node10</title>
<path fill="none" stroke="midnightblue" d="M554.02,-448.32C540.45,-439.9 519.62,-426.97 503.68,-417.07"/>
<polygon fill="midnightblue" stroke="midnightblue" points="505.29,-413.95 494.94,-411.65 501.59,-419.9 505.29,-413.95"/>
</g>
<!-- Node12 -->
<g id="node12" class="node">
<title>Node12</title>
<g id="a_node12"><a xlink:href="_transform3_d_8hpp.html" target="_top" xlink:title=" ">
<polygon fill="white" stroke="black" points="596.5,-392.5 596.5,-411.5 813.5,-411.5 813.5,-392.5 596.5,-392.5"/>
<text text-anchor="middle" x="705" y="-399.5" font-family="Helvetica,sans-Serif" font-size="10.00">Liger&#45;Engine/Core/Math/Transform3D.hpp</text>
</a>
</g>
</g>
<!-- Node6&#45;&gt;Node12 -->
<g id="edge12" class="edge">
<title>Node6&#45;&gt;Node12</title>
<path fill="none" stroke="midnightblue" d="M589.71,-448.44C612.35,-439.52 648.07,-425.44 673.75,-415.32"/>
<polygon fill="midnightblue" stroke="midnightblue" points="675.37,-418.44 683.39,-411.52 672.81,-411.93 675.37,-418.44"/>
</g>
<!-- Node8 -->
<g id="node8" class="node">
<title>Node8</title>
<g id="a_node8"><a xlink:title=" ">
<polygon fill="white" stroke="#bfbfbf" points="494.5,-112.5 494.5,-131.5 561.5,-131.5 561.5,-112.5 494.5,-112.5"/>
<text text-anchor="middle" x="528" y="-119.5" font-family="Helvetica,sans-Serif" font-size="10.00">fmt/core.h</text>
</a>
</g>
</g>
<!-- Node7&#45;&gt;Node8 -->
<g id="edge7" class="edge">
<title>Node7&#45;&gt;Node8</title>
<path fill="none" stroke="midnightblue" d="M248.6,-392.4C237.71,-384.23 222.21,-370.99 213,-356 197.24,-330.36 194,-321.1 194,-291 194,-291 194,-291 194,-233 194,-172.53 394.03,-139.77 484.49,-128.05"/>
<polygon fill="midnightblue" stroke="midnightblue" points="484.97,-131.52 494.45,-126.79 484.08,-124.58 484.97,-131.52"/>
</g>
<!-- Node9 -->
<g id="node9" class="node">
<title>Node9</title>
<g id="a_node9"><a xlink:title=" ">
<polygon fill="white" stroke="#bfbfbf" points="222,-336.5 222,-355.5 300,-355.5 300,-336.5 222,-336.5"/>
<text text-anchor="middle" x="261" y="-343.5" font-family="Helvetica,sans-Serif" font-size="10.00">glm/glm.hpp</text>
</a>
</g>
</g>
<!-- Node7&#45;&gt;Node9 -->
<g id="edge8" class="edge">
<title>Node7&#45;&gt;Node9</title>
<path fill="none" stroke="midnightblue" d="M261,-392.08C261,-385.01 261,-374.86 261,-365.99"/>
<polygon fill="midnightblue" stroke="midnightblue" points="264.5,-365.75 261,-355.75 257.5,-365.75 264.5,-365.75"/>
</g>
<!-- Node10&#45;&gt;Node9 -->
<g id="edge10" class="edge">
<title>Node10&#45;&gt;Node9</title>
<path fill="none" stroke="midnightblue" d="M446.14,-392.44C408.08,-383.1 347.04,-368.12 305.54,-357.93"/>
<polygon fill="midnightblue" stroke="midnightblue" points="306.24,-354.5 295.7,-355.52 304.57,-361.3 306.24,-354.5"/>
</g>
<!-- Node11 -->
<g id="node11" class="node">
<title>Node11</title>
<g id="a_node11"><a xlink:title=" ">
<polygon fill="white" stroke="#bfbfbf" points="318,-336.5 318,-355.5 372,-355.5 372,-336.5 318,-336.5"/>
<text text-anchor="middle" x="345" y="-343.5" font-family="Helvetica,sans-Serif" font-size="10.00">random</text>
</a>
</g>
</g>
<!-- Node10&#45;&gt;Node11 -->
<g id="edge11" class="edge">
<title>Node10&#45;&gt;Node11</title>
<path fill="none" stroke="midnightblue" d="M459.45,-392.44C436.97,-383.52 401.51,-369.44 376.02,-359.32"/>
<polygon fill="midnightblue" stroke="midnightblue" points="377.03,-355.95 366.45,-355.52 374.45,-362.46 377.03,-355.95"/>
</g>
<!-- Node13 -->
<g id="node13" class="node">
<title>Node13</title>
<g id="a_node13"><a xlink:title=" ">
<polygon fill="white" stroke="#bfbfbf" points="729.5,-336.5 729.5,-355.5 892.5,-355.5 892.5,-336.5 729.5,-336.5"/>
<text text-anchor="middle" x="811" y="-343.5" font-family="Helvetica,sans-Serif" font-size="10.00">glm/gtc/matrix_transform.hpp</text>
</a>
</g>
</g>
<!-- Node12&#45;&gt;Node13 -->
<g id="edge13" class="edge">
<title>Node12&#45;&gt;Node13</title>
<path fill="none" stroke="midnightblue" d="M722.03,-392.32C739.03,-383.66 765.38,-370.24 784.99,-360.25"/>
<polygon fill="midnightblue" stroke="midnightblue" points="786.69,-363.31 794.01,-355.65 783.51,-357.08 786.69,-363.31"/>
</g>
<!-- Node14 -->
<g id="node14" class="node">
<title>Node14</title>
<g id="a_node14"><a xlink:title=" ">
<polygon fill="white" stroke="#bfbfbf" points="390,-336.5 390,-355.5 562,-355.5 562,-336.5 390,-336.5"/>
<text text-anchor="middle" x="476" y="-343.5" font-family="Helvetica,sans-Serif" font-size="10.00">glm/gtx/matrix_decompose.hpp</text>
</a>
</g>
</g>
<!-- Node12&#45;&gt;Node14 -->
<g id="edge14" class="edge">
<title>Node12&#45;&gt;Node14</title>
<path fill="none" stroke="midnightblue" d="M668.71,-392.44C629.02,-383.08 565.29,-368.06 522.09,-357.87"/>
<polygon fill="midnightblue" stroke="midnightblue" points="522.65,-354.41 512.12,-355.52 521.05,-361.22 522.65,-354.41"/>
</g>
<!-- Node15 -->
<g id="node15" class="node">
<title>Node15</title>
<g id="a_node15"><a xlink:title=" ">
<polygon fill="white" stroke="#bfbfbf" points="580.5,-336.5 580.5,-355.5 711.5,-355.5 711.5,-336.5 580.5,-336.5"/>
<text text-anchor="middle" x="646" y="-343.5" font-family="Helvetica,sans-Serif" font-size="10.00">glm/gtx/quaternion.hpp</text>
</a>
</g>
</g>
<!-- Node12&#45;&gt;Node15 -->
<g id="edge15" class="edge">
<title>Node12&#45;&gt;Node15</title>
<path fill="none" stroke="midnightblue" d="M695.52,-392.32C686.8,-384.34 673.66,-372.31 663.1,-362.65"/>
<polygon fill="midnightblue" stroke="midnightblue" points="665.39,-360 655.65,-355.83 660.67,-365.17 665.39,-360"/>
</g>
<!-- Node17 -->
<g id="node17" class="node">
<title>Node17</title>
<g id="a_node17"><a xlink:href="_entity_8hpp.html" target="_top" xlink:title=" ">
<polygon fill="white" stroke="black" points="1462,-336.5 1462,-355.5 1612,-355.5 1612,-336.5 1462,-336.5"/>
<text text-anchor="middle" x="1537" y="-343.5" font-family="Helvetica,sans-Serif" font-size="10.00">Liger&#45;Engine/ECS/Entity.hpp</text>
</a>
</g>
</g>
<!-- Node16&#45;&gt;Node17 -->
<g id="edge17" class="edge">
<title>Node16&#45;&gt;Node17</title>
<path fill="none" stroke="midnightblue" d="M1375.42,-392.44C1408.28,-383.2 1460.78,-368.44 1496.97,-358.26"/>
<polygon fill="midnightblue" stroke="midnightblue" points="1498.04,-361.59 1506.72,-355.52 1496.15,-354.85 1498.04,-361.59"/>
</g>
<!-- Node18 -->
<g id="node18" class="node">
<title>Node18</title>
<g id="a_node18"><a xlink:title=" ">
<polygon fill="white" stroke="#bfbfbf" points="1421,-280.5 1421,-299.5 1549,-299.5 1549,-280.5 1421,-280.5"/>
<text text-anchor="middle" x="1485" y="-287.5" font-family="Helvetica,sans-Serif" font-size="10.00">entt/entity/registry.hpp</text>
</a>
</g>
</g>
<!-- Node16&#45;&gt;Node18 -->
<g id="edge20" class="edge">
<title>Node16&#45;&gt;Node18</title>
<path fill="none" stroke="midnightblue" d="M1359.99,-392.42C1374.53,-383.85 1396.97,-369.99 1415,-356 1434.93,-340.53 1455.9,-320.49 1469.63,-306.78"/>
<polygon fill="midnightblue" stroke="midnightblue" points="1472.27,-309.09 1476.81,-299.52 1467.29,-304.16 1472.27,-309.09"/>
</g>
<!-- Node19 -->
<g id="node19" class="node">
<title>Node19</title>
<g id="a_node19"><a xlink:title=" ">
<polygon fill="white" stroke="#bfbfbf" points="1630.5,-336.5 1630.5,-355.5 1767.5,-355.5 1767.5,-336.5 1630.5,-336.5"/>
<text text-anchor="middle" x="1699" y="-343.5" font-family="Helvetica,sans-Serif" font-size="10.00">entt/entity/organizer.hpp</text>
</a>
</g>
</g>
<!-- Node16&#45;&gt;Node19 -->
<g id="edge19" class="edge">
<title>Node16&#45;&gt;Node19</title>
<path fill="none" stroke="midnightblue" d="M1401.09,-392.44C1464.14,-382.83 1566.4,-367.23 1633.18,-357.04"/>
<polygon fill="midnightblue" stroke="midnightblue" points="1633.81,-360.48 1643.17,-355.52 1632.76,-353.56 1633.81,-360.48"/>
</g>
<!-- Node20 -->
<g id="node20" class="node">
<title>Node20</title>
<g id="a_node20"><a xlink:title=" ">
<polygon fill="white" stroke="#bfbfbf" points="1284,-336.5 1284,-355.5 1406,-355.5 1406,-336.5 1284,-336.5"/>
<text text-anchor="middle" x="1345" y="-343.5" font-family="Helvetica,sans-Serif" font-size="10.00">taskflow/taskflow.hpp</text>
</a>
</g>
</g>
<!-- Node16&#45;&gt;Node20 -->
<g id="edge21" class="edge">
<title>Node16&#45;&gt;Node20</title>
<path fill="none" stroke="midnightblue" d="M1345,-392.08C1345,-385.01 1345,-374.86 1345,-365.99"/>
<polygon fill="midnightblue" stroke="midnightblue" points="1348.5,-365.75 1345,-355.75 1341.5,-365.75 1348.5,-365.75"/>
</g>
<!-- Node17&#45;&gt;Node18 -->
<g id="edge18" class="edge">
<title>Node17&#45;&gt;Node18</title>
<path fill="none" stroke="midnightblue" d="M1528.41,-336.08C1520.84,-328.22 1509.62,-316.57 1500.49,-307.08"/>
<polygon fill="midnightblue" stroke="midnightblue" points="1502.88,-304.53 1493.43,-299.75 1497.84,-309.38 1502.88,-304.53"/>
</g>
<!-- Node21&#45;&gt;Node16 -->
<g id="edge41" class="edge">
<title>Node21&#45;&gt;Node16</title>
<path fill="none" stroke="midnightblue" d="M1159.86,-448.44C1197.92,-439.1 1258.96,-424.12 1300.46,-413.93"/>
<polygon fill="midnightblue" stroke="midnightblue" points="1301.43,-417.3 1310.3,-411.52 1299.76,-410.5 1301.43,-417.3"/>
</g>
<!-- Node22 -->
<g id="node22" class="node">
<title>Node22</title>
<g id="a_node22"><a xlink:href="_event_dispatcher_8hpp.html" target="_top" xlink:title=" ">
<polygon fill="white" stroke="black" points="1006.5,-392.5 1006.5,-411.5 1243.5,-411.5 1243.5,-392.5 1006.5,-392.5"/>
<text text-anchor="middle" x="1125" y="-399.5" font-family="Helvetica,sans-Serif" font-size="10.00">Liger&#45;Engine/Core/Event/EventDispatcher.hpp</text>
</a>
</g>
</g>
<!-- Node21&#45;&gt;Node22 -->
<g id="edge23" class="edge">
<title>Node21&#45;&gt;Node22</title>
<path fill="none" stroke="midnightblue" d="M1125,-448.08C1125,-441.01 1125,-430.86 1125,-421.99"/>
<polygon fill="midnightblue" stroke="midnightblue" points="1128.5,-421.75 1125,-411.75 1121.5,-421.75 1128.5,-421.75"/>
</g>
<!-- Node23 -->
<g id="node23" class="node">
<title>Node23</title>
<g id="a_node23"><a xlink:href="_event_type_8hpp.html" target="_top" xlink:title=" ">
<polygon fill="white" stroke="black" points="1136,-224.5 1136,-243.5 1376,-243.5 1376,-224.5 1136,-224.5"/>
<text text-anchor="middle" x="1256" y="-231.5" font-family="Helvetica,sans-Serif" font-size="10.00">Liger&#45;Engine/Core/Event/Detail/EventType.hpp</text>
</a>
</g>
</g>
<!-- Node22&#45;&gt;Node23 -->
<g id="edge24" class="edge">
<title>Node22&#45;&gt;Node23</title>
<path fill="none" stroke="midnightblue" d="M1174.98,-392.49C1197.24,-386.14 1221.8,-375.1 1237,-356 1260.53,-326.43 1260.55,-279.61 1258.36,-253.74"/>
<polygon fill="midnightblue" stroke="midnightblue" points="1261.84,-253.33 1257.31,-243.75 1254.87,-254.06 1261.84,-253.33"/>
</g>
<!-- Node25 -->
<g id="node25" class="node">
<title>Node25</title>
<g id="a_node25"><a xlink:href="_event_sink_8hpp.html" target="_top" xlink:title=" ">
<polygon fill="white" stroke="black" points="1022,-336.5 1022,-355.5 1228,-355.5 1228,-336.5 1022,-336.5"/>
<text text-anchor="middle" x="1125" y="-343.5" font-family="Helvetica,sans-Serif" font-size="10.00">Liger&#45;Engine/Core/Event/EventSink.hpp</text>
</a>
</g>
</g>
<!-- Node22&#45;&gt;Node25 -->
<g id="edge26" class="edge">
<title>Node22&#45;&gt;Node25</title>
<path fill="none" stroke="midnightblue" d="M1125,-392.08C1125,-385.01 1125,-374.86 1125,-365.99"/>
<polygon fill="midnightblue" stroke="midnightblue" points="1128.5,-365.75 1125,-355.75 1121.5,-365.75 1128.5,-365.75"/>
</g>
<!-- Node34 -->
<g id="node34" class="node">
<title>Node34</title>
<g id="a_node34"><a xlink:title=" ">
<polygon fill="white" stroke="#bfbfbf" points="910.5,-336.5 910.5,-355.5 1003.5,-355.5 1003.5,-336.5 910.5,-336.5"/>
<text text-anchor="middle" x="957" y="-343.5" font-family="Helvetica,sans-Serif" font-size="10.00">unordered_map</text>
</a>
</g>
</g>
<!-- Node22&#45;&gt;Node34 -->
<g id="edge40" class="edge">
<title>Node22&#45;&gt;Node34</title>
<path fill="none" stroke="midnightblue" d="M1098.38,-392.44C1069.99,-383.32 1024.86,-368.81 993.25,-358.65"/>
<polygon fill="midnightblue" stroke="midnightblue" points="994.09,-355.24 983.5,-355.52 991.94,-361.91 994.09,-355.24"/>
</g>
<!-- Node24 -->
<g id="node24" class="node">
<title>Node24</title>
<g id="a_node24"><a xlink:title=" ">
<polygon fill="white" stroke="#bfbfbf" points="1170,-0.5 1170,-19.5 1220,-19.5 1220,-0.5 1170,-0.5"/>
<text text-anchor="middle" x="1195" y="-7.5" font-family="Helvetica,sans-Serif" font-size="10.00">cstdint</text>
</a>
</g>
</g>
<!-- Node23&#45;&gt;Node24 -->
<g id="edge25" class="edge">
<title>Node23&#45;&gt;Node24</title>
<path fill="none" stroke="midnightblue" d="M1253.61,-224.3C1244.61,-191.56 1212.69,-75.38 1200.13,-29.67"/>
<polygon fill="midnightblue" stroke="midnightblue" points="1203.47,-28.6 1197.44,-19.88 1196.72,-30.45 1203.47,-28.6"/>
</g>
<!-- Node26 -->
<g id="node26" class="node">
<title>Node26</title>
<g id="a_node26"><a xlink:href="_base_event_sink_8hpp.html" target="_top" xlink:title=" ">
<polygon fill="white" stroke="black" points="712.5,-280.5 712.5,-299.5 975.5,-299.5 975.5,-280.5 712.5,-280.5"/>
<text text-anchor="middle" x="844" y="-287.5" font-family="Helvetica,sans-Serif" font-size="10.00">Liger&#45;Engine/Core/Event/Detail/BaseEventSink.hpp</text>
</a>
</g>
</g>
<!-- Node25&#45;&gt;Node26 -->
<g id="edge27" class="edge">
<title>Node25&#45;&gt;Node26</title>
<path fill="none" stroke="midnightblue" d="M1080.47,-336.44C1031.04,-326.94 951.25,-311.61 898.22,-301.42"/>
<polygon fill="midnightblue" stroke="midnightblue" points="898.8,-297.97 888.32,-299.52 897.48,-304.84 898.8,-297.97"/>
</g>
<!-- Node27 -->
<g id="node27" class="node">
<title>Node27</title>
<g id="a_node27"><a xlink:href="_callback_8hpp.html" target="_top" xlink:title=" ">
<polygon fill="white" stroke="black" points="994,-280.5 994,-299.5 1226,-299.5 1226,-280.5 994,-280.5"/>
<text text-anchor="middle" x="1110" y="-287.5" font-family="Helvetica,sans-Serif" font-size="10.00">Liger&#45;Engine/Core/Event/Detail/Callback.hpp</text>
</a>
</g>
</g>
<!-- Node25&#45;&gt;Node27 -->
<g id="edge28" class="edge">
<title>Node25&#45;&gt;Node27</title>
<path fill="none" stroke="midnightblue" d="M1122.52,-336.08C1120.51,-328.85 1117.61,-318.41 1115.11,-309.4"/>
<polygon fill="midnightblue" stroke="midnightblue" points="1118.48,-308.45 1112.43,-299.75 1111.74,-310.32 1118.48,-308.45"/>
</g>
<!-- Node28 -->
<g id="node28" class="node">
<title>Node28</title>
<g id="a_node28"><a xlink:href="_log_8hpp.html" target="_top" xlink:title=" ">
<polygon fill="white" stroke="black" points="906,-168.5 906,-187.5 1070,-187.5 1070,-168.5 906,-168.5"/>
<text text-anchor="middle" x="988" y="-175.5" font-family="Helvetica,sans-Serif" font-size="10.00">Liger&#45;Engine/Core/Log/Log.hpp</text>
</a>
</g>
</g>
<!-- Node27&#45;&gt;Node28 -->
<g id="edge29" class="edge">
<title>Node27&#45;&gt;Node28</title>
<path fill="none" stroke="midnightblue" d="M1109.41,-280.32C1108.05,-266.71 1103.59,-240.23 1089,-224 1074.9,-208.32 1054.31,-197.81 1035.39,-190.92"/>
<polygon fill="midnightblue" stroke="midnightblue" points="1036.28,-187.53 1025.69,-187.64 1034.04,-194.16 1036.28,-187.53"/>
</g>
<!-- Node33 -->
<g id="node33" class="node">
<title>Node33</title>
<g id="a_node33"><a xlink:href="_core_2_log_channel_8hpp.html" target="_top" xlink:title=" ">
<polygon fill="white" stroke="black" points="896,-224.5 896,-243.5 1080,-243.5 1080,-224.5 896,-224.5"/>
<text text-anchor="middle" x="988" y="-231.5" font-family="Helvetica,sans-Serif" font-size="10.00">Liger&#45;Engine/Core/LogChannel.hpp</text>
</a>
</g>
</g>
<!-- Node27&#45;&gt;Node33 -->
<g id="edge38" class="edge">
<title>Node27&#45;&gt;Node33</title>
<path fill="none" stroke="midnightblue" d="M1090.67,-280.44C1070.68,-271.6 1039.26,-257.69 1016.44,-247.59"/>
<polygon fill="midnightblue" stroke="midnightblue" points="1017.8,-244.36 1007.24,-243.52 1014.97,-250.76 1017.8,-244.36"/>
</g>
<!-- Node28&#45;&gt;Node8 -->
<g id="edge36" class="edge">
<title>Node28&#45;&gt;Node8</title>
<path fill="none" stroke="midnightblue" d="M915.37,-168.47C818.69,-157.12 650.75,-137.41 571.62,-128.12"/>
<polygon fill="midnightblue" stroke="midnightblue" points="571.86,-124.62 561.52,-126.93 571.04,-131.58 571.86,-124.62"/>
</g>
<!-- Node29 -->
<g id="node29" class="node">
<title>Node29</title>
<g id="a_node29"><a xlink:href="_message_8hpp.html" target="_top" xlink:title=" ">
<polygon fill="white" stroke="black" points="934.5,-56.5 934.5,-75.5 1125.5,-75.5 1125.5,-56.5 934.5,-56.5"/>
<text text-anchor="middle" x="1030" y="-63.5" font-family="Helvetica,sans-Serif" font-size="10.00">Liger&#45;Engine/Core/Log/Message.hpp</text>
</a>
</g>
</g>
<!-- Node28&#45;&gt;Node29 -->
<g id="edge30" class="edge">
<title>Node28&#45;&gt;Node29</title>
<path fill="none" stroke="midnightblue" d="M989.96,-168.41C992.96,-155.81 999.18,-131.67 1007,-112 1010.69,-102.73 1015.64,-92.81 1020,-84.65"/>
<polygon fill="midnightblue" stroke="midnightblue" points="1023.16,-86.18 1024.91,-75.74 1017.02,-82.81 1023.16,-86.18"/>
</g>
<!-- Node31 -->
<g id="node31" class="node">
<title>Node31</title>
<g id="a_node31"><a xlink:href="_writer_8hpp.html" target="_top" xlink:title=" ">
<polygon fill="white" stroke="black" points="1016,-112.5 1016,-131.5 1192,-131.5 1192,-112.5 1016,-112.5"/>
<text text-anchor="middle" x="1104" y="-119.5" font-family="Helvetica,sans-Serif" font-size="10.00">Liger&#45;Engine/Core/Log/Writer.hpp</text>
</a>
</g>
</g>
<!-- Node28&#45;&gt;Node31 -->
<g id="edge34" class="edge">
<title>Node28&#45;&gt;Node31</title>
<path fill="none" stroke="midnightblue" d="M1006.38,-168.44C1025.22,-159.68 1054.73,-145.94 1076.38,-135.86"/>
<polygon fill="midnightblue" stroke="midnightblue" points="1078.12,-138.91 1085.71,-131.52 1075.16,-132.56 1078.12,-138.91"/>
</g>
<!-- Node32 -->
<g id="node32" class="node">
<title>Node32</title>
<g id="a_node32"><a xlink:title=" ">
<polygon fill="white" stroke="#bfbfbf" points="912.5,-112.5 912.5,-131.5 959.5,-131.5 959.5,-112.5 912.5,-112.5"/>
<text text-anchor="middle" x="936" y="-119.5" font-family="Helvetica,sans-Serif" font-size="10.00">vector</text>
</a>
</g>
</g>
<!-- Node28&#45;&gt;Node32 -->
<g id="edge37" class="edge">
<title>Node28&#45;&gt;Node32</title>
<path fill="none" stroke="midnightblue" d="M979.41,-168.08C971.84,-160.22 960.62,-148.57 951.49,-139.08"/>
<polygon fill="midnightblue" stroke="midnightblue" points="953.88,-136.53 944.43,-131.75 948.84,-141.38 953.88,-136.53"/>
</g>
<!-- Node29&#45;&gt;Node4 -->
<g id="edge32" class="edge">
<title>Node29&#45;&gt;Node4</title>
<path fill="none" stroke="midnightblue" d="M934.43,-59.27C735.52,-47.35 285.2,-20.36 161.16,-12.93"/>
<polygon fill="midnightblue" stroke="midnightblue" points="161.35,-9.43 151.16,-12.33 160.93,-16.42 161.35,-9.43"/>
</g>
<!-- Node29&#45;&gt;Node24 -->
<g id="edge31" class="edge">
<title>Node29&#45;&gt;Node24</title>
<path fill="none" stroke="midnightblue" d="M1056.14,-56.44C1084.27,-47.24 1129.13,-32.56 1160.22,-22.38"/>
<polygon fill="midnightblue" stroke="midnightblue" points="1161.37,-25.69 1169.79,-19.25 1159.2,-19.03 1161.37,-25.69"/>
</g>
<!-- Node30 -->
<g id="node30" class="node">
<title>Node30</title>
<g id="a_node30"><a xlink:title=" ">
<polygon fill="white" stroke="#bfbfbf" points="993.5,-0.5 993.5,-19.5 1066.5,-19.5 1066.5,-0.5 993.5,-0.5"/>
<text text-anchor="middle" x="1030" y="-7.5" font-family="Helvetica,sans-Serif" font-size="10.00">string_view</text>
</a>
</g>
</g>
<!-- Node29&#45;&gt;Node30 -->
<g id="edge33" class="edge">
<title>Node29&#45;&gt;Node30</title>
<path fill="none" stroke="midnightblue" d="M1030,-56.08C1030,-49.01 1030,-38.86 1030,-29.99"/>
<polygon fill="midnightblue" stroke="midnightblue" points="1033.5,-29.75 1030,-19.75 1026.5,-29.75 1033.5,-29.75"/>
</g>
<!-- Node31&#45;&gt;Node29 -->
<g id="edge35" class="edge">
<title>Node31&#45;&gt;Node29</title>
<path fill="none" stroke="midnightblue" d="M1092.11,-112.32C1080.85,-104.11 1063.71,-91.6 1050.29,-81.81"/>
<polygon fill="midnightblue" stroke="midnightblue" points="1052.25,-78.9 1042.11,-75.83 1048.12,-84.56 1052.25,-78.9"/>
</g>
<!-- Node33&#45;&gt;Node28 -->
<g id="edge39" class="edge">
<title>Node33&#45;&gt;Node28</title>
<path fill="none" stroke="midnightblue" d="M988,-224.08C988,-217.01 988,-206.86 988,-197.99"/>
<polygon fill="midnightblue" stroke="midnightblue" points="991.5,-197.75 988,-187.75 984.5,-197.75 991.5,-197.75"/>
</g>
<!-- Node35&#45;&gt;Node16 -->
<g id="edge44" class="edge">
<title>Node35&#45;&gt;Node16</title>
<path fill="none" stroke="midnightblue" d="M1246.45,-504.38C1255.31,-495.33 1269.65,-480.68 1282,-468 1298.16,-451.4 1316.6,-432.37 1329.33,-419.21"/>
<polygon fill="midnightblue" stroke="midnightblue" points="1332.02,-421.46 1336.45,-411.84 1326.98,-416.6 1332.02,-421.46"/>
</g>
</g>
</svg>
