<?xml version="1.0" encoding="UTF-8" standalone="no"?>
<!DOCTYPE svg PUBLIC "-//W3C//DTD SVG 1.1//EN"
 "http://www.w3.org/Graphics/SVG/1.1/DTD/svg11.dtd">
<!-- Generated by graphviz version 2.43.0 (0)
 -->
<!-- Title: LogChannel.hpp Pages: 1 -->
<!--zoomable 196 -->
<svg id="main" version="1.1" xmlns="http://www.w3.org/2000/svg" xmlns:xlink="http://www.w3.org/1999/xlink" xml:space="preserve" onload="init(evt)">
<style type="text/css"><![CDATA[
.edge:hover path { stroke: red; }
.edge:hover polygon { stroke: red; fill: red; }
]]></style>
<script type="text/javascript"><![CDATA[
var edges = document.getElementsByTagName('g');
if (edges && edges.length) {
  for (var i=0;i<edges.length;i++) {
    if (edges[i].id.substr(0,4)=='edge') {
      edges[i].setAttribute('class','edge');
    }
  }
}
]]></script>
        <defs>
                <circle id="rim" cx="0" cy="0" r="7"/>
                <circle id="rim2" cx="0" cy="0" r="3.5"/>
                <g id="zoomPlus">
                        <use xlink:href="#rim" fill="#404040">
                                <set attributeName="fill" to="#808080" begin="zoomplus.mouseover" end="zoomplus.mouseout"/>
                        </use>
                        <path d="M-4,0h8M0,-4v8" fill="none" stroke="white" stroke-width="1.5" pointer-events="none"/>
                </g>
                <g id="zoomMin">
                        <use xlink:href="#rim" fill="#404040">
                                <set attributeName="fill" to="#808080" begin="zoomminus.mouseover" end="zoomminus.mouseout"/>
                        </use>
                        <path d="M-4,0h8" fill="none" stroke="white" stroke-width="1.5" pointer-events="none"/>
                </g>
                <g id="dirArrow">
                        <path fill="none" stroke="white" stroke-width="1.5" d="M0,-3.0v7 M-2.5,-0.5L0,-3.0L2.5,-0.5"/>
                </g>
               <g id="resetDef">
                       <use xlink:href="#rim2" fill="#404040">
                               <set attributeName="fill" to="#808080" begin="reset.mouseover" end="reset.mouseout"/>
                       </use>
               </g>
        </defs>

<script type="text/javascript">
var viewWidth = 840;
var viewHeight = 196;
var sectionId = 'dynsection-1';
</script>
<script xlink:href="svgpan.js"/>
<svg id="graph" class="graph">
<g id="viewport">
<title>LogChannel.hpp</title>
<polygon fill="white" stroke="transparent" points="-4,4 -4,-192 836,-192 836,4 -4,4"/>
<!-- Node1 -->
<g id="node1" class="node">
<title>Node1</title>
<g id="a_node1"><a xlink:title=" ">
<polygon fill="#bfbfbf" stroke="black" points="394.5,-168.5 394.5,-187.5 489.5,-187.5 489.5,-168.5 394.5,-168.5"/>
<text text-anchor="middle" x="442" y="-175.5" font-family="Helvetica,sans-Serif" font-size="10.00">LogChannel.hpp</text>
</a>
</g>
</g>
<!-- Node2 -->
<g id="node2" class="node">
<title>Node2</title>
<g id="a_node2"><a xlink:href="_shader_8hpp.html" target="_top" xlink:title=" ">
<polygon fill="white" stroke="black" points="406.5,-112.5 406.5,-131.5 477.5,-131.5 477.5,-112.5 406.5,-112.5"/>
<text text-anchor="middle" x="442" y="-119.5" font-family="Helvetica,sans-Serif" font-size="10.00">Shader.hpp</text>
</a>
</g>
</g>
<!-- Node1&#45;&gt;Node2 -->
<g id="edge1" class="edge">
<title>Node1&#45;&gt;Node2</title>
<path fill="none" stroke="midnightblue" d="M442,-157.8C442,-148.91 442,-138.78 442,-131.75"/>
<polygon fill="midnightblue" stroke="midnightblue" points="438.5,-158.08 442,-168.08 445.5,-158.08 438.5,-158.08"/>
</g>
<!-- Node3 -->
<g id="node3" class="node">
<title>Node3</title>
<g id="a_node3"><a xlink:href="_bloom_feature_8hpp.html" target="_top" xlink:title=" ">
<polygon fill="white" stroke="black" points="0,-56.5 0,-75.5 106,-75.5 106,-56.5 0,-56.5"/>
<text text-anchor="middle" x="53" y="-63.5" font-family="Helvetica,sans-Serif" font-size="10.00">BloomFeature.hpp</text>
</a>
</g>
</g>
<!-- Node2&#45;&gt;Node3 -->
<g id="edge2" class="edge">
<title>Node2&#45;&gt;Node3</title>
<path fill="none" stroke="midnightblue" d="M396.13,-114.8C332.86,-106.21 215.24,-90.17 115,-76 112.09,-75.59 109.11,-75.16 106.1,-74.73"/>
<polygon fill="midnightblue" stroke="midnightblue" points="395.8,-118.28 406.18,-116.16 396.74,-111.35 395.8,-118.28"/>
</g>
<!-- Node4 -->
<g id="node4" class="node">
<title>Node4</title>
<g id="a_node4"><a xlink:href="_forward_render_feature_8hpp.html" target="_top" xlink:title=" ">
<polygon fill="white" stroke="black" points="124,-56.5 124,-75.5 272,-75.5 272,-56.5 124,-56.5"/>
<text text-anchor="middle" x="198" y="-63.5" font-family="Helvetica,sans-Serif" font-size="10.00">ForwardRenderFeature.hpp</text>
</a>
</g>
</g>
<!-- Node2&#45;&gt;Node4 -->
<g id="edge3" class="edge">
<title>Node2&#45;&gt;Node4</title>
<path fill="none" stroke="midnightblue" d="M396.25,-110.88C350.21,-100.69 280,-85.15 236.66,-75.56"/>
<polygon fill="midnightblue" stroke="midnightblue" points="395.74,-114.35 406.26,-113.09 397.25,-107.51 395.74,-114.35"/>
</g>
<!-- Node5 -->
<g id="node5" class="node">
<title>Node5</title>
<g id="a_node5"><a xlink:href="_particle_system_feature_8hpp.html" target="_top" xlink:title=" ">
<polygon fill="white" stroke="black" points="290.5,-56.5 290.5,-75.5 437.5,-75.5 437.5,-56.5 290.5,-56.5"/>
<text text-anchor="middle" x="364" y="-63.5" font-family="Helvetica,sans-Serif" font-size="10.00">ParticleSystemFeature.hpp</text>
</a>
</g>
</g>
<!-- Node2&#45;&gt;Node5 -->
<g id="edge4" class="edge">
<title>Node2&#45;&gt;Node5</title>
<path fill="none" stroke="midnightblue" d="M421.23,-106.62C406.98,-96.76 388.54,-83.99 376.5,-75.65"/>
<polygon fill="midnightblue" stroke="midnightblue" points="419.25,-109.51 429.47,-112.32 423.24,-103.75 419.25,-109.51"/>
</g>
<!-- Node6 -->
<g id="node6" class="node">
<title>Node6</title>
<g id="a_node6"><a xlink:href="_static_mesh_feature_8hpp.html" target="_top" xlink:title=" ">
<polygon fill="white" stroke="black" points="456,-56.5 456,-75.5 584,-75.5 584,-56.5 456,-56.5"/>
<text text-anchor="middle" x="520" y="-63.5" font-family="Helvetica,sans-Serif" font-size="10.00">StaticMeshFeature.hpp</text>
</a>
</g>
</g>
<!-- Node2&#45;&gt;Node6 -->
<g id="edge5" class="edge">
<title>Node2&#45;&gt;Node6</title>
<path fill="none" stroke="midnightblue" d="M462.77,-106.62C477.02,-96.76 495.46,-83.99 507.5,-75.65"/>
<polygon fill="midnightblue" stroke="midnightblue" points="460.76,-103.75 454.53,-112.32 464.75,-109.51 460.76,-103.75"/>
</g>
<!-- Node7 -->
<g id="node7" class="node">
<title>Node7</title>
<g id="a_node7"><a xlink:href="_tonemap_feature_8hpp.html" target="_top" xlink:title=" ">
<polygon fill="white" stroke="black" points="602.5,-56.5 602.5,-75.5 721.5,-75.5 721.5,-56.5 602.5,-56.5"/>
<text text-anchor="middle" x="662" y="-63.5" font-family="Helvetica,sans-Serif" font-size="10.00">TonemapFeature.hpp</text>
</a>
</g>
</g>
<!-- Node2&#45;&gt;Node7 -->
<g id="edge6" class="edge">
<title>Node2&#45;&gt;Node7</title>
<path fill="none" stroke="midnightblue" d="M486.72,-110.02C528.28,-99.82 589.31,-84.84 627.3,-75.52"/>
<polygon fill="midnightblue" stroke="midnightblue" points="485.74,-106.66 476.86,-112.44 487.41,-113.46 485.74,-106.66"/>
</g>
<!-- Node8 -->
<g id="node8" class="node">
<title>Node8</title>
<g id="a_node8"><a xlink:href="_compiler_8hpp.html" target="_top" xlink:title=" ">
<polygon fill="white" stroke="black" points="739.5,-56.5 739.5,-75.5 820.5,-75.5 820.5,-56.5 739.5,-56.5"/>
<text text-anchor="middle" x="780" y="-63.5" font-family="Helvetica,sans-Serif" font-size="10.00">Compiler.hpp</text>
</a>
</g>
</g>
<!-- Node2&#45;&gt;Node8 -->
<g id="edge7" class="edge">
<title>Node2&#45;&gt;Node8</title>
<path fill="none" stroke="midnightblue" d="M487.78,-114.26C544.81,-105.78 645.22,-90.55 731,-76 733.73,-75.54 736.54,-75.05 739.37,-74.55"/>
<polygon fill="midnightblue" stroke="midnightblue" points="487.02,-110.84 477.64,-115.77 488.05,-117.76 487.02,-110.84"/>
</g>
<!-- Node9 -->
<g id="node9" class="node">
<title>Node9</title>
<g id="a_node9"><a xlink:href="_shader_loader_8hpp.html" target="_top" xlink:title=" ">
<polygon fill="white" stroke="black" points="728,-0.5 728,-19.5 832,-19.5 832,-0.5 728,-0.5"/>
<text text-anchor="middle" x="780" y="-7.5" font-family="Helvetica,sans-Serif" font-size="10.00">ShaderLoader.hpp</text>
</a>
</g>
</g>
<!-- Node8&#45;&gt;Node9 -->
<g id="edge8" class="edge">
<title>Node8&#45;&gt;Node9</title>
<path fill="none" stroke="midnightblue" d="M780,-45.8C780,-36.91 780,-26.78 780,-19.75"/>
<polygon fill="midnightblue" stroke="midnightblue" points="776.5,-46.08 780,-56.08 783.5,-46.08 776.5,-46.08"/>
</g>
</g>
</svg>
        <g id="navigator" transform="translate(0 0)" fill="#404254">
                <rect fill="#f2f5e9" fill-opacity="0.5" stroke="#606060" stroke-width=".5" x="0" y="0" width="60" height="60"/>
                <use id="zoomplus" xlink:href="#zoomPlus" x="17" y="9" onmousedown="handleZoom(evt,'in')"/>
                <use id="zoomminus" xlink:href="#zoomMin" x="42" y="9" onmousedown="handleZoom(evt,'out')"/>
                <use id="reset" xlink:href="#resetDef" x="30" y="36" onmousedown="handleReset()"/>
                <g id="arrowUp" xlink:href="#dirArrow" transform="translate(30 24)" onmousedown="handlePan(0,-1)">
                  <use xlink:href="#rim" fill="#404040">
                        <set attributeName="fill" to="#808080" begin="arrowUp.mouseover" end="arrowUp.mouseout"/>
                  </use>
                  <path fill="none" stroke="white" stroke-width="1.5" d="M0,-3.0v7 M-2.5,-0.5L0,-3.0L2.5,-0.5"/>
                </g>
                <g id="arrowRight" xlink:href="#dirArrow" transform="rotate(90) translate(36 -43)" onmousedown="handlePan(1,0)">
                  <use xlink:href="#rim" fill="#404040">
                        <set attributeName="fill" to="#808080" begin="arrowRight.mouseover" end="arrowRight.mouseout"/>
                  </use>
                  <path fill="none" stroke="white" stroke-width="1.5" d="M0,-3.0v7 M-2.5,-0.5L0,-3.0L2.5,-0.5"/>
                </g>
                <g id="arrowDown" xlink:href="#dirArrow" transform="rotate(180) translate(-30 -48)" onmousedown="handlePan(0,1)">
                  <use xlink:href="#rim" fill="#404040">
                        <set attributeName="fill" to="#808080" begin="arrowDown.mouseover" end="arrowDown.mouseout"/>
                  </use>
                  <path fill="none" stroke="white" stroke-width="1.5" d="M0,-3.0v7 M-2.5,-0.5L0,-3.0L2.5,-0.5"/>
                </g>
                <g id="arrowLeft" xlink:href="#dirArrow" transform="rotate(270) translate(-36 17)" onmousedown="handlePan(-1,0)">
                  <use xlink:href="#rim" fill="#404040">
                        <set attributeName="fill" to="#808080" begin="arrowLeft.mouseover" end="arrowLeft.mouseout"/>
                  </use>
                  <path fill="none" stroke="white" stroke-width="1.5" d="M0,-3.0v7 M-2.5,-0.5L0,-3.0L2.5,-0.5"/>
                </g>
        </g>
        <svg viewBox="0 0 15 15" width="100%" height="30px" preserveAspectRatio="xMaxYMin meet">
         <g id="arrow_out" transform="scale(0.3 0.3)">
          <a xlink:href="_shader_system_2_log_channel_8hpp__dep__incl_org.svg" target="_base">
           <rect id="button" ry="5" rx="5" y="6" x="6" height="38" width="38"
                fill="#f2f5e9" fill-opacity="0.5" stroke="#606060" stroke-width="1.0"/>
           <path id="arrow"
             d="M 11.500037,31.436501 C 11.940474,20.09759 22.043105,11.32322 32.158766,21.979434 L 37.068811,17.246167 C 37.068811,17.246167 37.088388,32 37.088388,32 L 22.160133,31.978069 C 22.160133,31.978069 26.997745,27.140456 26.997745,27.140456 C 18.528582,18.264221 13.291696,25.230495 11.500037,31.436501 z"
             style="fill:#404040;"/>
          </a>
         </g>
        </svg>
</svg>
