<?xml version="1.0" encoding="UTF-8" standalone="no"?>
<!DOCTYPE svg PUBLIC "-//W3C//DTD SVG 1.1//EN"
 "http://www.w3.org/Graphics/SVG/1.1/DTD/svg11.dtd">
<!-- Generated by graphviz version 2.43.0 (0)
 -->
<!-- Title: LogChannel.hpp Pages: 1 -->
<svg width="1004pt" height="196pt"
 viewBox="0.00 0.00 1004.00 196.00" xmlns="http://www.w3.org/2000/svg" xmlns:xlink="http://www.w3.org/1999/xlink">
<g id="graph0" class="graph" transform="scale(1 1) rotate(0) translate(4 192)">
<title>LogChannel.hpp</title>
<polygon fill="white" stroke="transparent" points="-4,4 -4,-192 1000,-192 1000,4 -4,4"/>
<!-- Node1 -->
<g id="node1" class="node">
<title>Node1</title>
<g id="a_node1"><a xlink:title=" ">
<polygon fill="#bfbfbf" stroke="black" points="480.5,-168.5 480.5,-187.5 575.5,-187.5 575.5,-168.5 480.5,-168.5"/>
<text text-anchor="middle" x="528" y="-175.5" font-family="Helvetica,sans-Serif" font-size="10.00">LogChannel.hpp</text>
</a>
</g>
</g>
<!-- Node2 -->
<g id="node2" class="node">
<title>Node2</title>
<g id="a_node2"><a xlink:href="_shader_8hpp.html" target="_top" xlink:title=" ">
<polygon fill="white" stroke="black" points="492.5,-112.5 492.5,-131.5 563.5,-131.5 563.5,-112.5 492.5,-112.5"/>
<text text-anchor="middle" x="528" y="-119.5" font-family="Helvetica,sans-Serif" font-size="10.00">Shader.hpp</text>
</a>
</g>
</g>
<!-- Node1&#45;&gt;Node2 -->
<g id="edge1" class="edge">
<title>Node1&#45;&gt;Node2</title>
<path fill="none" stroke="midnightblue" d="M528,-157.8C528,-148.91 528,-138.78 528,-131.75"/>
<polygon fill="midnightblue" stroke="midnightblue" points="524.5,-158.08 528,-168.08 531.5,-158.08 524.5,-158.08"/>
</g>
<!-- Node3 -->
<g id="node3" class="node">
<title>Node3</title>
<g id="a_node3"><a xlink:href="_bloom_feature_8hpp.html" target="_top" xlink:title=" ">
<polygon fill="white" stroke="black" points="0,-56.5 0,-75.5 106,-75.5 106,-56.5 0,-56.5"/>
<text text-anchor="middle" x="53" y="-63.5" font-family="Helvetica,sans-Serif" font-size="10.00">BloomFeature.hpp</text>
</a>
</g>
</g>
<!-- Node2&#45;&gt;Node3 -->
<g id="edge2" class="edge">
<title>Node2&#45;&gt;Node3</title>
<path fill="none" stroke="midnightblue" d="M482.22,-116.5C406.11,-108.91 248.78,-92.73 116,-76 112.82,-75.6 109.55,-75.17 106.26,-74.73"/>
<polygon fill="midnightblue" stroke="midnightblue" points="482.11,-120.01 492.41,-117.51 482.8,-113.04 482.11,-120.01"/>
</g>
<!-- Node4 -->
<g id="node4" class="node">
<title>Node4</title>
<g id="a_node4"><a xlink:href="_clustered_light_feature_8hpp.html" target="_top" xlink:title=" ">
<polygon fill="white" stroke="black" points="124.5,-56.5 124.5,-75.5 269.5,-75.5 269.5,-56.5 124.5,-56.5"/>
<text text-anchor="middle" x="197" y="-63.5" font-family="Helvetica,sans-Serif" font-size="10.00">ClusteredLightFeature.hpp</text>
</a>
</g>
</g>
<!-- Node2&#45;&gt;Node4 -->
<g id="edge3" class="edge">
<title>Node2&#45;&gt;Node4</title>
<path fill="none" stroke="midnightblue" d="M482.15,-113.52C421.05,-103.55 313.22,-85.96 249.11,-75.5"/>
<polygon fill="midnightblue" stroke="midnightblue" points="481.83,-117.01 492.26,-115.17 482.96,-110.11 481.83,-117.01"/>
</g>
<!-- Node5 -->
<g id="node5" class="node">
<title>Node5</title>
<g id="a_node5"><a xlink:href="_forward_render_feature_8hpp.html" target="_top" xlink:title=" ">
<polygon fill="white" stroke="black" points="288,-56.5 288,-75.5 436,-75.5 436,-56.5 288,-56.5"/>
<text text-anchor="middle" x="362" y="-63.5" font-family="Helvetica,sans-Serif" font-size="10.00">ForwardRenderFeature.hpp</text>
</a>
</g>
</g>
<!-- Node2&#45;&gt;Node5 -->
<g id="edge4" class="edge">
<title>Node2&#45;&gt;Node5</title>
<path fill="none" stroke="midnightblue" d="M492.05,-109.3C460.77,-99.13 416.18,-84.62 388.18,-75.52"/>
<polygon fill="midnightblue" stroke="midnightblue" points="491.1,-112.68 501.7,-112.44 493.27,-106.02 491.1,-112.68"/>
</g>
<!-- Node6 -->
<g id="node6" class="node">
<title>Node6</title>
<g id="a_node6"><a xlink:href="_particle_system_feature_8hpp.html" target="_top" xlink:title=" ">
<polygon fill="white" stroke="black" points="454.5,-56.5 454.5,-75.5 601.5,-75.5 601.5,-56.5 454.5,-56.5"/>
<text text-anchor="middle" x="528" y="-63.5" font-family="Helvetica,sans-Serif" font-size="10.00">ParticleSystemFeature.hpp</text>
</a>
</g>
</g>
<!-- Node2&#45;&gt;Node6 -->
<g id="edge5" class="edge">
<title>Node2&#45;&gt;Node6</title>
<path fill="none" stroke="midnightblue" d="M528,-101.8C528,-92.91 528,-82.78 528,-75.75"/>
<polygon fill="midnightblue" stroke="midnightblue" points="524.5,-102.08 528,-112.08 531.5,-102.08 524.5,-102.08"/>
</g>
<!-- Node7 -->
<g id="node7" class="node">
<title>Node7</title>
<g id="a_node7"><a xlink:href="_static_mesh_feature_8hpp.html" target="_top" xlink:title=" ">
<polygon fill="white" stroke="black" points="620,-56.5 620,-75.5 748,-75.5 748,-56.5 620,-56.5"/>
<text text-anchor="middle" x="684" y="-63.5" font-family="Helvetica,sans-Serif" font-size="10.00">StaticMeshFeature.hpp</text>
</a>
</g>
</g>
<!-- Node2&#45;&gt;Node7 -->
<g id="edge6" class="edge">
<title>Node2&#45;&gt;Node7</title>
<path fill="none" stroke="midnightblue" d="M562.17,-109.17C591.54,-99 633.2,-84.59 659.4,-75.52"/>
<polygon fill="midnightblue" stroke="midnightblue" points="561.02,-105.86 552.72,-112.44 563.31,-112.48 561.02,-105.86"/>
</g>
<!-- Node8 -->
<g id="node8" class="node">
<title>Node8</title>
<g id="a_node8"><a xlink:href="_tonemap_feature_8hpp.html" target="_top" xlink:title=" ">
<polygon fill="white" stroke="black" points="766.5,-56.5 766.5,-75.5 885.5,-75.5 885.5,-56.5 766.5,-56.5"/>
<text text-anchor="middle" x="826" y="-63.5" font-family="Helvetica,sans-Serif" font-size="10.00">TonemapFeature.hpp</text>
</a>
</g>
</g>
<!-- Node2&#45;&gt;Node8 -->
<g id="edge7" class="edge">
<title>Node2&#45;&gt;Node8</title>
<path fill="none" stroke="midnightblue" d="M573.58,-112.74C629.21,-102.66 722.79,-85.7 779.04,-75.51"/>
<polygon fill="midnightblue" stroke="midnightblue" points="572.87,-109.31 563.65,-114.54 574.11,-116.2 572.87,-109.31"/>
</g>
<!-- Node9 -->
<g id="node9" class="node">
<title>Node9</title>
<g id="a_node9"><a xlink:href="_compiler_8hpp.html" target="_top" xlink:title=" ">
<polygon fill="white" stroke="black" points="903.5,-56.5 903.5,-75.5 984.5,-75.5 984.5,-56.5 903.5,-56.5"/>
<text text-anchor="middle" x="944" y="-63.5" font-family="Helvetica,sans-Serif" font-size="10.00">Compiler.hpp</text>
</a>
</g>
</g>
<!-- Node2&#45;&gt;Node9 -->
<g id="edge8" class="edge">
<title>Node2&#45;&gt;Node9</title>
<path fill="none" stroke="midnightblue" d="M573.69,-116.28C643.23,-108.91 779.72,-93.64 895,-76 897.74,-75.58 900.55,-75.13 903.39,-74.65"/>
<polygon fill="midnightblue" stroke="midnightblue" points="573.1,-112.83 563.52,-117.36 573.84,-119.79 573.1,-112.83"/>
</g>
<!-- Node10 -->
<g id="node10" class="node">
<title>Node10</title>
<g id="a_node10"><a xlink:href="_shader_loader_8hpp.html" target="_top" xlink:title=" ">
<polygon fill="white" stroke="black" points="892,-0.5 892,-19.5 996,-19.5 996,-0.5 892,-0.5"/>
<text text-anchor="middle" x="944" y="-7.5" font-family="Helvetica,sans-Serif" font-size="10.00">ShaderLoader.hpp</text>
</a>
</g>
</g>
<!-- Node9&#45;&gt;Node10 -->
<g id="edge9" class="edge">
<title>Node9&#45;&gt;Node10</title>
<path fill="none" stroke="midnightblue" d="M944,-45.8C944,-36.91 944,-26.78 944,-19.75"/>
<polygon fill="midnightblue" stroke="midnightblue" points="940.5,-46.08 944,-56.08 947.5,-46.08 940.5,-46.08"/>
</g>
</g>
</svg>
