<?xml version="1.0" encoding="UTF-8" standalone="no"?>
<!DOCTYPE svg PUBLIC "-//W3C//DTD SVG 1.1//EN"
 "http://www.w3.org/Graphics/SVG/1.1/DTD/svg11.dtd">
<!-- Generated by graphviz version 2.43.0 (0)
 -->
<!-- Title: System.hpp Pages: 1 -->
<svg width="492pt" height="196pt"
 viewBox="0.00 0.00 492.00 196.00" xmlns="http://www.w3.org/2000/svg" xmlns:xlink="http://www.w3.org/1999/xlink">
<g id="graph0" class="graph" transform="scale(1 1) rotate(0) translate(4 192)">
<title>System.hpp</title>
<polygon fill="white" stroke="transparent" points="-4,4 -4,-192 488,-192 488,4 -4,4"/>
<!-- Node1 -->
<g id="node1" class="node">
<title>Node1</title>
<g id="a_node1"><a xlink:title=" ">
<polygon fill="#bfbfbf" stroke="black" points="189,-168.5 189,-187.5 263,-187.5 263,-168.5 189,-168.5"/>
<text text-anchor="middle" x="226" y="-175.5" font-family="Helvetica,sans-Serif" font-size="10.00">System.hpp</text>
</a>
</g>
</g>
<!-- Node2 -->
<g id="node2" class="node">
<title>Node2</title>
<g id="a_node2"><a xlink:href="_scene_8hpp.html" target="_top" xlink:title=" ">
<polygon fill="white" stroke="black" points="150,-112.5 150,-131.5 302,-131.5 302,-112.5 150,-112.5"/>
<text text-anchor="middle" x="226" y="-119.5" font-family="Helvetica,sans-Serif" font-size="10.00">Liger&#45;Engine/ECS/Scene.hpp</text>
</a>
</g>
</g>
<!-- Node1&#45;&gt;Node2 -->
<g id="edge1" class="edge">
<title>Node1&#45;&gt;Node2</title>
<path fill="none" stroke="midnightblue" d="M226,-168.08C226,-161.01 226,-150.86 226,-141.99"/>
<polygon fill="midnightblue" stroke="midnightblue" points="229.5,-141.75 226,-131.75 222.5,-141.75 229.5,-141.75"/>
</g>
<!-- Node3 -->
<g id="node3" class="node">
<title>Node3</title>
<g id="a_node3"><a xlink:href="_entity_8hpp.html" target="_top" xlink:title=" ">
<polygon fill="white" stroke="black" points="0,-56.5 0,-75.5 150,-75.5 150,-56.5 0,-56.5"/>
<text text-anchor="middle" x="75" y="-63.5" font-family="Helvetica,sans-Serif" font-size="10.00">Liger&#45;Engine/ECS/Entity.hpp</text>
</a>
</g>
</g>
<!-- Node2&#45;&gt;Node3 -->
<g id="edge2" class="edge">
<title>Node2&#45;&gt;Node3</title>
<path fill="none" stroke="midnightblue" d="M202.07,-112.44C176.78,-103.4 136.7,-89.06 108.32,-78.92"/>
<polygon fill="midnightblue" stroke="midnightblue" points="109.41,-75.59 98.81,-75.52 107.05,-82.18 109.41,-75.59"/>
</g>
<!-- Node4 -->
<g id="node4" class="node">
<title>Node4</title>
<g id="a_node4"><a xlink:title=" ">
<polygon fill="white" stroke="#bfbfbf" points="62,-0.5 62,-19.5 190,-19.5 190,-0.5 62,-0.5"/>
<text text-anchor="middle" x="126" y="-7.5" font-family="Helvetica,sans-Serif" font-size="10.00">entt/entity/registry.hpp</text>
</a>
</g>
</g>
<!-- Node2&#45;&gt;Node4 -->
<g id="edge5" class="edge">
<title>Node2&#45;&gt;Node4</title>
<path fill="none" stroke="midnightblue" d="M218.15,-112.37C201.43,-93.97 162.06,-50.67 140.59,-27.05"/>
<polygon fill="midnightblue" stroke="midnightblue" points="143.13,-24.64 133.81,-19.59 137.95,-29.35 143.13,-24.64"/>
</g>
<!-- Node5 -->
<g id="node5" class="node">
<title>Node5</title>
<g id="a_node5"><a xlink:title=" ">
<polygon fill="white" stroke="#bfbfbf" points="206.5,-56.5 206.5,-75.5 343.5,-75.5 343.5,-56.5 206.5,-56.5"/>
<text text-anchor="middle" x="275" y="-63.5" font-family="Helvetica,sans-Serif" font-size="10.00">entt/entity/organizer.hpp</text>
</a>
</g>
</g>
<!-- Node2&#45;&gt;Node5 -->
<g id="edge4" class="edge">
<title>Node2&#45;&gt;Node5</title>
<path fill="none" stroke="midnightblue" d="M234.09,-112.08C241.16,-104.3 251.59,-92.8 260.15,-83.37"/>
<polygon fill="midnightblue" stroke="midnightblue" points="262.93,-85.51 267.06,-75.75 257.75,-80.8 262.93,-85.51"/>
</g>
<!-- Node6 -->
<g id="node6" class="node">
<title>Node6</title>
<g id="a_node6"><a xlink:title=" ">
<polygon fill="white" stroke="#bfbfbf" points="362,-56.5 362,-75.5 484,-75.5 484,-56.5 362,-56.5"/>
<text text-anchor="middle" x="423" y="-63.5" font-family="Helvetica,sans-Serif" font-size="10.00">taskflow/taskflow.hpp</text>
</a>
</g>
</g>
<!-- Node2&#45;&gt;Node6 -->
<g id="edge6" class="edge">
<title>Node2&#45;&gt;Node6</title>
<path fill="none" stroke="midnightblue" d="M257.22,-112.44C290.93,-103.2 344.8,-88.44 381.93,-78.26"/>
<polygon fill="midnightblue" stroke="midnightblue" points="383.21,-81.54 391.93,-75.52 381.36,-74.78 383.21,-81.54"/>
</g>
<!-- Node3&#45;&gt;Node4 -->
<g id="edge3" class="edge">
<title>Node3&#45;&gt;Node4</title>
<path fill="none" stroke="midnightblue" d="M83.42,-56.08C90.85,-48.22 101.85,-36.57 110.81,-27.08"/>
<polygon fill="midnightblue" stroke="midnightblue" points="113.41,-29.42 117.74,-19.75 108.32,-24.62 113.41,-29.42"/>
</g>
</g>
</svg>
