<?xml version="1.0" encoding="UTF-8" standalone="no"?>
<!DOCTYPE svg PUBLIC "-//W3C//DTD SVG 1.1//EN"
 "http://www.w3.org/Graphics/SVG/1.1/DTD/svg11.dtd">
<!-- Generated by graphviz version 2.43.0 (0)
 -->
<!-- Title: Transform3D.hpp Pages: 1 -->
<svg width="1270pt" height="252pt"
 viewBox="0.00 0.00 1269.50 252.00" xmlns="http://www.w3.org/2000/svg" xmlns:xlink="http://www.w3.org/1999/xlink">
<g id="graph0" class="graph" transform="scale(1 1) rotate(0) translate(4 248)">
<title>Transform3D.hpp</title>
<polygon fill="white" stroke="transparent" points="-4,4 -4,-248 1265.5,-248 1265.5,4 -4,4"/>
<!-- Node1 -->
<g id="node1" class="node">
<title>Node1</title>
<g id="a_node1"><a xlink:title=" ">
<polygon fill="#bfbfbf" stroke="black" points="475,-224.5 475,-243.5 575,-243.5 575,-224.5 475,-224.5"/>
<text text-anchor="middle" x="525" y="-231.5" font-family="Helvetica,sans-Serif" font-size="10.00">Transform3D.hpp</text>
</a>
</g>
</g>
<!-- Node2 -->
<g id="node2" class="node">
<title>Node2</title>
<g id="a_node2"><a xlink:href="_math_8hpp.html" target="_top" xlink:title=" ">
<polygon fill="white" stroke="black" points="494,-168.5 494,-187.5 556,-187.5 556,-168.5 494,-168.5"/>
<text text-anchor="middle" x="525" y="-175.5" font-family="Helvetica,sans-Serif" font-size="10.00">Math.hpp</text>
</a>
</g>
</g>
<!-- Node1&#45;&gt;Node2 -->
<g id="edge1" class="edge">
<title>Node1&#45;&gt;Node2</title>
<path fill="none" stroke="midnightblue" d="M525,-213.8C525,-204.91 525,-194.78 525,-187.75"/>
<polygon fill="midnightblue" stroke="midnightblue" points="521.5,-214.08 525,-224.08 528.5,-214.08 521.5,-214.08"/>
</g>
<!-- Node3 -->
<g id="node3" class="node">
<title>Node3</title>
<g id="a_node3"><a xlink:href="_mouse_8hpp.html" target="_top" xlink:title=" ">
<polygon fill="white" stroke="black" points="228,-112.5 228,-131.5 298,-131.5 298,-112.5 228,-112.5"/>
<text text-anchor="middle" x="263" y="-119.5" font-family="Helvetica,sans-Serif" font-size="10.00">Mouse.hpp</text>
</a>
</g>
</g>
<!-- Node2&#45;&gt;Node3 -->
<g id="edge2" class="edge">
<title>Node2&#45;&gt;Node3</title>
<path fill="none" stroke="midnightblue" d="M483.88,-168.52C432.77,-157.99 346.41,-140.19 298.21,-130.26"/>
<polygon fill="midnightblue" stroke="midnightblue" points="483.42,-172 493.92,-170.59 484.83,-165.15 483.42,-172"/>
</g>
<!-- Node6 -->
<g id="node6" class="node">
<title>Node6</title>
<g id="a_node6"><a xlink:href="_default_components_8hpp.html" target="_top" xlink:title=" ">
<polygon fill="white" stroke="black" points="457.5,-112.5 457.5,-131.5 592.5,-131.5 592.5,-112.5 457.5,-112.5"/>
<text text-anchor="middle" x="525" y="-119.5" font-family="Helvetica,sans-Serif" font-size="10.00">DefaultComponents.hpp</text>
</a>
</g>
</g>
<!-- Node2&#45;&gt;Node6 -->
<g id="edge5" class="edge">
<title>Node2&#45;&gt;Node6</title>
<path fill="none" stroke="midnightblue" d="M525,-157.8C525,-148.91 525,-138.78 525,-131.75"/>
<polygon fill="midnightblue" stroke="midnightblue" points="521.5,-158.08 525,-168.08 528.5,-158.08 521.5,-158.08"/>
</g>
<!-- Node15 -->
<g id="node15" class="node">
<title>Node15</title>
<g id="a_node15"><a xlink:href="_shader_alignment_8hpp.html" target="_top" xlink:title=" ">
<polygon fill="white" stroke="black" points="784,-112.5 784,-131.5 906,-131.5 906,-112.5 784,-112.5"/>
<text text-anchor="middle" x="845" y="-119.5" font-family="Helvetica,sans-Serif" font-size="10.00">ShaderAlignment.hpp</text>
</a>
</g>
</g>
<!-- Node2&#45;&gt;Node15 -->
<g id="edge14" class="edge">
<title>Node2&#45;&gt;Node15</title>
<path fill="none" stroke="midnightblue" d="M566.25,-170.04C624.68,-160.18 731.45,-142.16 794.54,-131.52"/>
<polygon fill="midnightblue" stroke="midnightblue" points="565.54,-166.61 556.27,-171.72 566.71,-173.51 565.54,-166.61"/>
</g>
<!-- Node4 -->
<g id="node4" class="node">
<title>Node4</title>
<g id="a_node4"><a xlink:href="_platform_layer_8hpp.html" target="_top" xlink:title=" ">
<polygon fill="white" stroke="black" points="25,-56.5 25,-75.5 131,-75.5 131,-56.5 25,-56.5"/>
<text text-anchor="middle" x="78" y="-63.5" font-family="Helvetica,sans-Serif" font-size="10.00">PlatformLayer.hpp</text>
</a>
</g>
</g>
<!-- Node3&#45;&gt;Node4 -->
<g id="edge3" class="edge">
<title>Node3&#45;&gt;Node4</title>
<path fill="none" stroke="midnightblue" d="M223.83,-109.57C188.93,-99.38 138.65,-84.7 107.18,-75.52"/>
<polygon fill="midnightblue" stroke="midnightblue" points="223.11,-113 233.69,-112.44 225.07,-106.28 223.11,-113"/>
</g>
<!-- Node5 -->
<g id="node5" class="node">
<title>Node5</title>
<g id="a_node5"><a xlink:href="_camera_movement_script_8hpp.html" target="_top" xlink:title=" ">
<polygon fill="white" stroke="black" points="0,-0.5 0,-19.5 156,-19.5 156,-0.5 0,-0.5"/>
<text text-anchor="middle" x="78" y="-7.5" font-family="Helvetica,sans-Serif" font-size="10.00">CameraMovementScript.hpp</text>
</a>
</g>
</g>
<!-- Node4&#45;&gt;Node5 -->
<g id="edge4" class="edge">
<title>Node4&#45;&gt;Node5</title>
<path fill="none" stroke="midnightblue" d="M78,-45.8C78,-36.91 78,-26.78 78,-19.75"/>
<polygon fill="midnightblue" stroke="midnightblue" points="74.5,-46.08 78,-56.08 81.5,-46.08 74.5,-46.08"/>
</g>
<!-- Node7 -->
<g id="node7" class="node">
<title>Node7</title>
<g id="a_node7"><a xlink:href="_camera_aspect_system_8hpp.html" target="_top" xlink:title=" ">
<polygon fill="white" stroke="black" points="307,-56.5 307,-75.5 453,-75.5 453,-56.5 307,-56.5"/>
<text text-anchor="middle" x="380" y="-63.5" font-family="Helvetica,sans-Serif" font-size="10.00">CameraAspectSystem.hpp</text>
</a>
</g>
</g>
<!-- Node6&#45;&gt;Node7 -->
<g id="edge6" class="edge">
<title>Node6&#45;&gt;Node7</title>
<path fill="none" stroke="midnightblue" d="M492.52,-108.91C465.26,-98.75 427.01,-84.51 402.87,-75.52"/>
<polygon fill="midnightblue" stroke="midnightblue" points="491.43,-112.23 502.02,-112.44 493.87,-105.67 491.43,-112.23"/>
</g>
<!-- Node8 -->
<g id="node8" class="node">
<title>Node8</title>
<g id="a_node8"><a xlink:href="_script_system_8hpp.html" target="_top" xlink:title=" ">
<polygon fill="white" stroke="black" points="187,-56.5 187,-75.5 289,-75.5 289,-56.5 187,-56.5"/>
<text text-anchor="middle" x="238" y="-63.5" font-family="Helvetica,sans-Serif" font-size="10.00">ScriptSystem.hpp</text>
</a>
</g>
</g>
<!-- Node6&#45;&gt;Node8 -->
<g id="edge7" class="edge">
<title>Node6&#45;&gt;Node8</title>
<path fill="none" stroke="midnightblue" d="M469.39,-110.54C415.15,-100.33 333.66,-85 283.26,-75.52"/>
<polygon fill="midnightblue" stroke="midnightblue" points="469.05,-114.03 479.52,-112.44 470.34,-107.15 469.05,-114.03"/>
</g>
<!-- Node9 -->
<g id="node9" class="node">
<title>Node9</title>
<g id="a_node9"><a xlink:href="_bloom_feature_8hpp.html" target="_top" xlink:title=" ">
<polygon fill="white" stroke="black" points="647,-56.5 647,-75.5 753,-75.5 753,-56.5 647,-56.5"/>
<text text-anchor="middle" x="700" y="-63.5" font-family="Helvetica,sans-Serif" font-size="10.00">BloomFeature.hpp</text>
</a>
</g>
</g>
<!-- Node6&#45;&gt;Node9 -->
<g id="edge8" class="edge">
<title>Node6&#45;&gt;Node9</title>
<path fill="none" stroke="midnightblue" d="M562.47,-109.44C595.47,-99.26 642.76,-84.66 672.4,-75.52"/>
<polygon fill="midnightblue" stroke="midnightblue" points="561.25,-106.15 552.73,-112.44 563.32,-112.84 561.25,-106.15"/>
</g>
<!-- Node10 -->
<g id="node10" class="node">
<title>Node10</title>
<g id="a_node10"><a xlink:href="_camera_data_collector_8hpp.html" target="_top" xlink:title=" ">
<polygon fill="white" stroke="black" points="736,-0.5 736,-19.5 878,-19.5 878,-0.5 736,-0.5"/>
<text text-anchor="middle" x="807" y="-7.5" font-family="Helvetica,sans-Serif" font-size="10.00">CameraDataCollector.hpp</text>
</a>
</g>
</g>
<!-- Node6&#45;&gt;Node10 -->
<g id="edge9" class="edge">
<title>Node6&#45;&gt;Node10</title>
<path fill="none" stroke="midnightblue" d="M510.5,-104.49C499.8,-90.26 489.02,-69.87 501,-56 516.16,-38.45 650.2,-24.09 735.78,-16.61"/>
<polygon fill="midnightblue" stroke="midnightblue" points="507.92,-106.88 516.94,-112.44 513.36,-102.47 507.92,-106.88"/>
</g>
<!-- Node11 -->
<g id="node11" class="node">
<title>Node11</title>
<g id="a_node11"><a xlink:href="_forward_render_feature_8hpp.html" target="_top" xlink:title=" ">
<polygon fill="white" stroke="black" points="771,-56.5 771,-75.5 919,-75.5 919,-56.5 771,-56.5"/>
<text text-anchor="middle" x="845" y="-63.5" font-family="Helvetica,sans-Serif" font-size="10.00">ForwardRenderFeature.hpp</text>
</a>
</g>
</g>
<!-- Node6&#45;&gt;Node11 -->
<g id="edge10" class="edge">
<title>Node6&#45;&gt;Node11</title>
<path fill="none" stroke="midnightblue" d="M585.87,-110.73C646.34,-100.52 737.99,-85.06 794.53,-75.52"/>
<polygon fill="midnightblue" stroke="midnightblue" points="584.98,-107.33 575.7,-112.44 586.15,-114.23 584.98,-107.33"/>
</g>
<!-- Node12 -->
<g id="node12" class="node">
<title>Node12</title>
<g id="a_node12"><a xlink:href="_particle_system_feature_8hpp.html" target="_top" xlink:title=" ">
<polygon fill="white" stroke="black" points="535.5,-0.5 535.5,-19.5 682.5,-19.5 682.5,-0.5 535.5,-0.5"/>
<text text-anchor="middle" x="609" y="-7.5" font-family="Helvetica,sans-Serif" font-size="10.00">ParticleSystemFeature.hpp</text>
</a>
</g>
</g>
<!-- Node6&#45;&gt;Node12 -->
<g id="edge11" class="edge">
<title>Node6&#45;&gt;Node12</title>
<path fill="none" stroke="midnightblue" d="M447.32,-116.28C350.49,-109.6 195.5,-95.92 178,-76 172.13,-69.32 172.05,-62.6 178,-56 201.42,-30.01 418.33,-18.03 535.2,-13.42"/>
<polygon fill="midnightblue" stroke="midnightblue" points="447.16,-119.78 457.38,-116.97 447.64,-112.8 447.16,-119.78"/>
</g>
<!-- Node13 -->
<g id="node13" class="node">
<title>Node13</title>
<g id="a_node13"><a xlink:href="_static_mesh_feature_8hpp.html" target="_top" xlink:title=" ">
<polygon fill="white" stroke="black" points="937,-56.5 937,-75.5 1065,-75.5 1065,-56.5 937,-56.5"/>
<text text-anchor="middle" x="1001" y="-63.5" font-family="Helvetica,sans-Serif" font-size="10.00">StaticMeshFeature.hpp</text>
</a>
</g>
</g>
<!-- Node6&#45;&gt;Node13 -->
<g id="edge12" class="edge">
<title>Node6&#45;&gt;Node13</title>
<path fill="none" stroke="midnightblue" d="M602.91,-112.57C684.1,-103.72 815.02,-89.27 928,-76 930.92,-75.66 933.9,-75.3 936.91,-74.94"/>
<polygon fill="midnightblue" stroke="midnightblue" points="602.33,-109.11 592.77,-113.67 603.09,-116.07 602.33,-109.11"/>
</g>
<!-- Node14 -->
<g id="node14" class="node">
<title>Node14</title>
<g id="a_node14"><a xlink:href="_tonemap_feature_8hpp.html" target="_top" xlink:title=" ">
<polygon fill="white" stroke="black" points="509.5,-56.5 509.5,-75.5 628.5,-75.5 628.5,-56.5 509.5,-56.5"/>
<text text-anchor="middle" x="569" y="-63.5" font-family="Helvetica,sans-Serif" font-size="10.00">TonemapFeature.hpp</text>
</a>
</g>
</g>
<!-- Node6&#45;&gt;Node14 -->
<g id="edge13" class="edge">
<title>Node6&#45;&gt;Node14</title>
<path fill="none" stroke="midnightblue" d="M538.73,-104.14C546.4,-94.74 555.63,-83.4 561.87,-75.75"/>
<polygon fill="midnightblue" stroke="midnightblue" points="535.87,-102.12 532.27,-112.08 541.3,-106.54 535.87,-102.12"/>
</g>
<!-- Node15&#45;&gt;Node9 -->
<g id="edge15" class="edge">
<title>Node15&#45;&gt;Node9</title>
<path fill="none" stroke="midnightblue" d="M812.52,-108.91C785.26,-98.75 747.01,-84.51 722.87,-75.52"/>
<polygon fill="midnightblue" stroke="midnightblue" points="811.43,-112.23 822.02,-112.44 813.87,-105.67 811.43,-112.23"/>
</g>
<!-- Node15&#45;&gt;Node11 -->
<g id="edge19" class="edge">
<title>Node15&#45;&gt;Node11</title>
<path fill="none" stroke="midnightblue" d="M845,-101.8C845,-92.91 845,-82.78 845,-75.75"/>
<polygon fill="midnightblue" stroke="midnightblue" points="841.5,-102.08 845,-112.08 848.5,-102.08 841.5,-102.08"/>
</g>
<!-- Node15&#45;&gt;Node13 -->
<g id="edge20" class="edge">
<title>Node15&#45;&gt;Node13</title>
<path fill="none" stroke="midnightblue" d="M879.17,-109.17C908.54,-99 950.2,-84.59 976.4,-75.52"/>
<polygon fill="midnightblue" stroke="midnightblue" points="878.02,-105.86 869.72,-112.44 880.31,-112.48 878.02,-105.86"/>
</g>
<!-- Node15&#45;&gt;Node14 -->
<g id="edge21" class="edge">
<title>Node15&#45;&gt;Node14</title>
<path fill="none" stroke="midnightblue" d="M791.2,-110.47C739.04,-100.27 660.89,-84.98 612.53,-75.52"/>
<polygon fill="midnightblue" stroke="midnightblue" points="790.78,-113.96 801.27,-112.44 792.13,-107.09 790.78,-113.96"/>
</g>
<!-- Node16 -->
<g id="node16" class="node">
<title>Node16</title>
<g id="a_node16"><a xlink:href="_camera_data_8hpp.html" target="_top" xlink:title=" ">
<polygon fill="white" stroke="black" points="1083.5,-56.5 1083.5,-75.5 1182.5,-75.5 1182.5,-56.5 1083.5,-56.5"/>
<text text-anchor="middle" x="1133" y="-63.5" font-family="Helvetica,sans-Serif" font-size="10.00">CameraData.hpp</text>
</a>
</g>
</g>
<!-- Node15&#45;&gt;Node16 -->
<g id="edge16" class="edge">
<title>Node15&#45;&gt;Node16</title>
<path fill="none" stroke="midnightblue" d="M900.8,-110.54C955.23,-100.33 1037,-85 1087.58,-75.52"/>
<polygon fill="midnightblue" stroke="midnightblue" points="899.82,-107.16 890.63,-112.44 901.11,-114.04 899.82,-107.16"/>
</g>
<!-- Node17 -->
<g id="node17" class="node">
<title>Node17</title>
<g id="a_node17"><a xlink:href="_view_8hpp.html" target="_top" xlink:title=" ">
<polygon fill="white" stroke="black" points="1200.5,-56.5 1200.5,-75.5 1261.5,-75.5 1261.5,-56.5 1200.5,-56.5"/>
<text text-anchor="middle" x="1231" y="-63.5" font-family="Helvetica,sans-Serif" font-size="10.00">View.hpp</text>
</a>
</g>
</g>
<!-- Node15&#45;&gt;Node17 -->
<g id="edge22" class="edge">
<title>Node15&#45;&gt;Node17</title>
<path fill="none" stroke="midnightblue" d="M916.16,-113.83C986.53,-106.26 1097.12,-93.06 1192,-76 1194.74,-75.51 1197.57,-74.95 1200.4,-74.36"/>
<polygon fill="midnightblue" stroke="midnightblue" points="915.65,-110.37 906.08,-114.91 916.39,-117.33 915.65,-110.37"/>
</g>
<!-- Node16&#45;&gt;Node10 -->
<g id="edge17" class="edge">
<title>Node16&#45;&gt;Node10</title>
<path fill="none" stroke="midnightblue" d="M1073.53,-55.15C1011.94,-44.95 916.72,-29.17 858.33,-19.5"/>
<polygon fill="midnightblue" stroke="midnightblue" points="1073.05,-58.62 1083.49,-56.8 1074.19,-51.71 1073.05,-58.62"/>
</g>
<!-- Node16&#45;&gt;Node12 -->
<g id="edge18" class="edge">
<title>Node16&#45;&gt;Node12</title>
<path fill="none" stroke="midnightblue" d="M1073.51,-56.01C928.95,-38.19 772.6,-24.32 682.83,-16.89"/>
<polygon fill="midnightblue" stroke="midnightblue" points="1073.1,-59.48 1083.45,-57.24 1073.96,-52.54 1073.1,-59.48"/>
</g>
</g>
</svg>
