<?xml version="1.0" encoding="UTF-8" standalone="no"?>
<!DOCTYPE svg PUBLIC "-//W3C//DTD SVG 1.1//EN"
 "http://www.w3.org/Graphics/SVG/1.1/DTD/svg11.dtd">
<!-- Generated by graphviz version 2.43.0 (0)
 -->
<!-- Title: TypeMap.hpp Pages: 1 -->
<svg width="653pt" height="308pt"
 viewBox="0.00 0.00 653.00 308.00" xmlns="http://www.w3.org/2000/svg" xmlns:xlink="http://www.w3.org/1999/xlink">
<g id="graph0" class="graph" transform="scale(1 1) rotate(0) translate(4 304)">
<title>TypeMap.hpp</title>
<polygon fill="white" stroke="transparent" points="-4,4 -4,-304 649,-304 649,4 -4,4"/>
<!-- Node1 -->
<g id="node1" class="node">
<title>Node1</title>
<g id="a_node1"><a xlink:title=" ">
<polygon fill="#bfbfbf" stroke="black" points="386,-280.5 386,-299.5 467,-299.5 467,-280.5 386,-280.5"/>
<text text-anchor="middle" x="426.5" y="-287.5" font-family="Helvetica,sans-Serif" font-size="10.00">TypeMap.hpp</text>
</a>
</g>
</g>
<!-- Node2 -->
<g id="node2" class="node">
<title>Node2</title>
<g id="a_node2"><a xlink:href="_log_8hpp.html" target="_top" xlink:title=" ">
<polygon fill="white" stroke="black" points="141.5,-168.5 141.5,-187.5 305.5,-187.5 305.5,-168.5 141.5,-168.5"/>
<text text-anchor="middle" x="223.5" y="-175.5" font-family="Helvetica,sans-Serif" font-size="10.00">Liger&#45;Engine/Core/Log/Log.hpp</text>
</a>
</g>
</g>
<!-- Node1&#45;&gt;Node2 -->
<g id="edge1" class="edge">
<title>Node1&#45;&gt;Node2</title>
<path fill="none" stroke="midnightblue" d="M385.98,-287.58C323.44,-284.43 207.92,-274.54 182.5,-244 169.34,-228.19 186.89,-207.86 202.94,-194.18"/>
<polygon fill="midnightblue" stroke="midnightblue" points="205.42,-196.68 211.03,-187.69 201.04,-191.22 205.42,-196.68"/>
</g>
<!-- Node10 -->
<g id="node10" class="node">
<title>Node10</title>
<g id="a_node10"><a xlink:href="_core_2_log_channel_8hpp.html" target="_top" xlink:title=" ">
<polygon fill="white" stroke="black" points="191.5,-224.5 191.5,-243.5 375.5,-243.5 375.5,-224.5 191.5,-224.5"/>
<text text-anchor="middle" x="283.5" y="-231.5" font-family="Helvetica,sans-Serif" font-size="10.00">Liger&#45;Engine/Core/LogChannel.hpp</text>
</a>
</g>
</g>
<!-- Node1&#45;&gt;Node10 -->
<g id="edge10" class="edge">
<title>Node1&#45;&gt;Node10</title>
<path fill="none" stroke="midnightblue" d="M403.84,-280.44C380.1,-271.48 342.59,-257.31 315.76,-247.18"/>
<polygon fill="midnightblue" stroke="midnightblue" points="316.64,-243.77 306.05,-243.52 314.17,-250.32 316.64,-243.77"/>
</g>
<!-- Node11 -->
<g id="node11" class="node">
<title>Node11</title>
<g id="a_node11"><a xlink:title=" ">
<polygon fill="white" stroke="#bfbfbf" points="394,-224.5 394,-243.5 459,-243.5 459,-224.5 394,-224.5"/>
<text text-anchor="middle" x="426.5" y="-231.5" font-family="Helvetica,sans-Serif" font-size="10.00">typeindex</text>
</a>
</g>
</g>
<!-- Node1&#45;&gt;Node11 -->
<g id="edge12" class="edge">
<title>Node1&#45;&gt;Node11</title>
<path fill="none" stroke="midnightblue" d="M426.5,-280.08C426.5,-273.01 426.5,-262.86 426.5,-253.99"/>
<polygon fill="midnightblue" stroke="midnightblue" points="430,-253.75 426.5,-243.75 423,-253.75 430,-253.75"/>
</g>
<!-- Node12 -->
<g id="node12" class="node">
<title>Node12</title>
<g id="a_node12"><a xlink:title=" ">
<polygon fill="white" stroke="#bfbfbf" points="477,-224.5 477,-243.5 534,-243.5 534,-224.5 477,-224.5"/>
<text text-anchor="middle" x="505.5" y="-231.5" font-family="Helvetica,sans-Serif" font-size="10.00">typeinfo</text>
</a>
</g>
</g>
<!-- Node1&#45;&gt;Node12 -->
<g id="edge13" class="edge">
<title>Node1&#45;&gt;Node12</title>
<path fill="none" stroke="midnightblue" d="M439.19,-280.32C451.4,-271.98 470.08,-259.21 484.5,-249.35"/>
<polygon fill="midnightblue" stroke="midnightblue" points="486.56,-252.19 492.84,-243.65 482.61,-246.41 486.56,-252.19"/>
</g>
<!-- Node13 -->
<g id="node13" class="node">
<title>Node13</title>
<g id="a_node13"><a xlink:title=" ">
<polygon fill="white" stroke="#bfbfbf" points="552,-224.5 552,-243.5 645,-243.5 645,-224.5 552,-224.5"/>
<text text-anchor="middle" x="598.5" y="-231.5" font-family="Helvetica,sans-Serif" font-size="10.00">unordered_map</text>
</a>
</g>
</g>
<!-- Node1&#45;&gt;Node13 -->
<g id="edge14" class="edge">
<title>Node1&#45;&gt;Node13</title>
<path fill="none" stroke="midnightblue" d="M453.75,-280.44C482.94,-271.28 529.42,-256.69 561.81,-246.52"/>
<polygon fill="midnightblue" stroke="midnightblue" points="562.88,-249.85 571.37,-243.52 560.78,-243.17 562.88,-249.85"/>
</g>
<!-- Node3 -->
<g id="node3" class="node">
<title>Node3</title>
<g id="a_node3"><a xlink:href="_message_8hpp.html" target="_top" xlink:title=" ">
<polygon fill="white" stroke="black" points="0,-56.5 0,-75.5 191,-75.5 191,-56.5 0,-56.5"/>
<text text-anchor="middle" x="95.5" y="-63.5" font-family="Helvetica,sans-Serif" font-size="10.00">Liger&#45;Engine/Core/Log/Message.hpp</text>
</a>
</g>
</g>
<!-- Node2&#45;&gt;Node3 -->
<g id="edge2" class="edge">
<title>Node2&#45;&gt;Node3</title>
<path fill="none" stroke="midnightblue" d="M162.68,-168.47C120.49,-161.17 69.6,-149.1 56.5,-132 44.16,-115.9 60.82,-95.62 76.03,-82.04"/>
<polygon fill="midnightblue" stroke="midnightblue" points="78.29,-84.71 83.69,-75.6 73.78,-79.35 78.29,-84.71"/>
</g>
<!-- Node7 -->
<g id="node7" class="node">
<title>Node7</title>
<g id="a_node7"><a xlink:href="_writer_8hpp.html" target="_top" xlink:title=" ">
<polygon fill="white" stroke="black" points="65.5,-112.5 65.5,-131.5 241.5,-131.5 241.5,-112.5 65.5,-112.5"/>
<text text-anchor="middle" x="153.5" y="-119.5" font-family="Helvetica,sans-Serif" font-size="10.00">Liger&#45;Engine/Core/Log/Writer.hpp</text>
</a>
</g>
</g>
<!-- Node2&#45;&gt;Node7 -->
<g id="edge6" class="edge">
<title>Node2&#45;&gt;Node7</title>
<path fill="none" stroke="midnightblue" d="M212.25,-168.32C201.7,-160.18 185.7,-147.84 173.06,-138.09"/>
<polygon fill="midnightblue" stroke="midnightblue" points="175.01,-135.17 164.95,-131.83 170.73,-140.71 175.01,-135.17"/>
</g>
<!-- Node8 -->
<g id="node8" class="node">
<title>Node8</title>
<g id="a_node8"><a xlink:title=" ">
<polygon fill="white" stroke="#bfbfbf" points="260,-112.5 260,-131.5 327,-131.5 327,-112.5 260,-112.5"/>
<text text-anchor="middle" x="293.5" y="-119.5" font-family="Helvetica,sans-Serif" font-size="10.00">fmt/core.h</text>
</a>
</g>
</g>
<!-- Node2&#45;&gt;Node8 -->
<g id="edge8" class="edge">
<title>Node2&#45;&gt;Node8</title>
<path fill="none" stroke="midnightblue" d="M234.75,-168.32C245.3,-160.18 261.3,-147.84 273.94,-138.09"/>
<polygon fill="midnightblue" stroke="midnightblue" points="276.27,-140.71 282.05,-131.83 271.99,-135.17 276.27,-140.71"/>
</g>
<!-- Node9 -->
<g id="node9" class="node">
<title>Node9</title>
<g id="a_node9"><a xlink:title=" ">
<polygon fill="white" stroke="#bfbfbf" points="345,-112.5 345,-131.5 392,-131.5 392,-112.5 345,-112.5"/>
<text text-anchor="middle" x="368.5" y="-119.5" font-family="Helvetica,sans-Serif" font-size="10.00">vector</text>
</a>
</g>
</g>
<!-- Node2&#45;&gt;Node9 -->
<g id="edge9" class="edge">
<title>Node2&#45;&gt;Node9</title>
<path fill="none" stroke="midnightblue" d="M246.48,-168.44C270.66,-159.44 308.92,-145.19 336.15,-135.05"/>
<polygon fill="midnightblue" stroke="midnightblue" points="337.48,-138.29 345.63,-131.52 335.04,-131.73 337.48,-138.29"/>
</g>
<!-- Node4 -->
<g id="node4" class="node">
<title>Node4</title>
<g id="a_node4"><a xlink:title=" ">
<polygon fill="white" stroke="#bfbfbf" points="5.5,-0.5 5.5,-19.5 55.5,-19.5 55.5,-0.5 5.5,-0.5"/>
<text text-anchor="middle" x="30.5" y="-7.5" font-family="Helvetica,sans-Serif" font-size="10.00">cstdint</text>
</a>
</g>
</g>
<!-- Node3&#45;&gt;Node4 -->
<g id="edge3" class="edge">
<title>Node3&#45;&gt;Node4</title>
<path fill="none" stroke="midnightblue" d="M85.06,-56.32C75.35,-48.26 60.68,-36.08 49,-26.37"/>
<polygon fill="midnightblue" stroke="midnightblue" points="51.06,-23.53 41.13,-19.83 46.59,-28.92 51.06,-23.53"/>
</g>
<!-- Node5 -->
<g id="node5" class="node">
<title>Node5</title>
<g id="a_node5"><a xlink:title=" ">
<polygon fill="white" stroke="#bfbfbf" points="73.5,-0.5 73.5,-19.5 117.5,-19.5 117.5,-0.5 73.5,-0.5"/>
<text text-anchor="middle" x="95.5" y="-7.5" font-family="Helvetica,sans-Serif" font-size="10.00">string</text>
</a>
</g>
</g>
<!-- Node3&#45;&gt;Node5 -->
<g id="edge4" class="edge">
<title>Node3&#45;&gt;Node5</title>
<path fill="none" stroke="midnightblue" d="M95.5,-56.08C95.5,-49.01 95.5,-38.86 95.5,-29.99"/>
<polygon fill="midnightblue" stroke="midnightblue" points="99,-29.75 95.5,-19.75 92,-29.75 99,-29.75"/>
</g>
<!-- Node6 -->
<g id="node6" class="node">
<title>Node6</title>
<g id="a_node6"><a xlink:title=" ">
<polygon fill="white" stroke="#bfbfbf" points="136,-0.5 136,-19.5 209,-19.5 209,-0.5 136,-0.5"/>
<text text-anchor="middle" x="172.5" y="-7.5" font-family="Helvetica,sans-Serif" font-size="10.00">string_view</text>
</a>
</g>
</g>
<!-- Node3&#45;&gt;Node6 -->
<g id="edge5" class="edge">
<title>Node3&#45;&gt;Node6</title>
<path fill="none" stroke="midnightblue" d="M107.87,-56.32C119.66,-48.06 137.63,-35.45 151.64,-25.63"/>
<polygon fill="midnightblue" stroke="midnightblue" points="153.98,-28.26 160.16,-19.65 149.96,-22.53 153.98,-28.26"/>
</g>
<!-- Node7&#45;&gt;Node3 -->
<g id="edge7" class="edge">
<title>Node7&#45;&gt;Node3</title>
<path fill="none" stroke="midnightblue" d="M144.18,-112.32C135.61,-104.34 122.69,-92.31 112.31,-82.65"/>
<polygon fill="midnightblue" stroke="midnightblue" points="114.69,-80.09 104.99,-75.83 109.92,-85.21 114.69,-80.09"/>
</g>
<!-- Node10&#45;&gt;Node2 -->
<g id="edge11" class="edge">
<title>Node10&#45;&gt;Node2</title>
<path fill="none" stroke="midnightblue" d="M273.86,-224.32C264.99,-216.34 251.63,-204.31 240.89,-194.65"/>
<polygon fill="midnightblue" stroke="midnightblue" points="243.09,-191.92 233.32,-187.83 238.41,-197.13 243.09,-191.92"/>
</g>
</g>
</svg>
