<?xml version="1.0" encoding="UTF-8" standalone="no"?>
<!DOCTYPE svg PUBLIC "-//W3C//DTD SVG 1.1//EN"
 "http://www.w3.org/Graphics/SVG/1.1/DTD/svg11.dtd">
<!-- Generated by graphviz version 2.43.0 (0)
 -->
<!-- Title: Window.hpp Pages: 1 -->
<svg width="1264pt" height="364pt"
 viewBox="0.00 0.00 1264.00 364.00" xmlns="http://www.w3.org/2000/svg" xmlns:xlink="http://www.w3.org/1999/xlink">
<g id="graph0" class="graph" transform="scale(1 1) rotate(0) translate(4 360)">
<title>Window.hpp</title>
<polygon fill="white" stroke="transparent" points="-4,4 -4,-360 1260,-360 1260,4 -4,4"/>
<!-- Node1 -->
<g id="node1" class="node">
<title>Node1</title>
<g id="a_node1"><a xlink:title=" ">
<polygon fill="#bfbfbf" stroke="black" points="528,-336.5 528,-355.5 604,-355.5 604,-336.5 528,-336.5"/>
<text text-anchor="middle" x="566" y="-343.5" font-family="Helvetica,sans-Serif" font-size="10.00">Window.hpp</text>
</a>
</g>
</g>
<!-- Node2 -->
<g id="node2" class="node">
<title>Node2</title>
<g id="a_node2"><a xlink:href="_platform_layer_8hpp.html" target="_top" xlink:title=" ">
<polygon fill="white" stroke="black" points="369,-280.5 369,-299.5 475,-299.5 475,-280.5 369,-280.5"/>
<text text-anchor="middle" x="422" y="-287.5" font-family="Helvetica,sans-Serif" font-size="10.00">PlatformLayer.hpp</text>
</a>
</g>
</g>
<!-- Node1&#45;&gt;Node2 -->
<g id="edge1" class="edge">
<title>Node1&#45;&gt;Node2</title>
<path fill="none" stroke="midnightblue" d="M533.75,-332.91C506.68,-322.75 468.68,-308.51 444.71,-299.52"/>
<polygon fill="midnightblue" stroke="midnightblue" points="532.59,-336.21 543.18,-336.44 535.05,-329.66 532.59,-336.21"/>
</g>
<!-- Node4 -->
<g id="node4" class="node">
<title>Node4</title>
<g id="a_node4"><a xlink:href="_camera_aspect_system_8hpp.html" target="_top" xlink:title=" ">
<polygon fill="white" stroke="black" points="493,-280.5 493,-299.5 639,-299.5 639,-280.5 493,-280.5"/>
<text text-anchor="middle" x="566" y="-287.5" font-family="Helvetica,sans-Serif" font-size="10.00">CameraAspectSystem.hpp</text>
</a>
</g>
</g>
<!-- Node1&#45;&gt;Node4 -->
<g id="edge3" class="edge">
<title>Node1&#45;&gt;Node4</title>
<path fill="none" stroke="midnightblue" d="M566,-325.8C566,-316.91 566,-306.78 566,-299.75"/>
<polygon fill="midnightblue" stroke="midnightblue" points="562.5,-326.08 566,-336.08 569.5,-326.08 562.5,-326.08"/>
</g>
<!-- Node5 -->
<g id="node5" class="node">
<title>Node5</title>
<g id="a_node5"><a xlink:href="_swapchain_8hpp.html" target="_top" xlink:title=" ">
<polygon fill="white" stroke="black" points="657,-280.5 657,-299.5 747,-299.5 747,-280.5 657,-280.5"/>
<text text-anchor="middle" x="702" y="-287.5" font-family="Helvetica,sans-Serif" font-size="10.00">Swapchain.hpp</text>
</a>
</g>
</g>
<!-- Node1&#45;&gt;Node5 -->
<g id="edge4" class="edge">
<title>Node1&#45;&gt;Node5</title>
<path fill="none" stroke="midnightblue" d="M597.13,-332.64C622.66,-322.5 658.11,-308.43 680.55,-299.52"/>
<polygon fill="midnightblue" stroke="midnightblue" points="595.55,-329.5 587.55,-336.44 598.14,-336.01 595.55,-329.5"/>
</g>
<!-- Node3 -->
<g id="node3" class="node">
<title>Node3</title>
<g id="a_node3"><a xlink:href="_camera_movement_script_8hpp.html" target="_top" xlink:title=" ">
<polygon fill="white" stroke="black" points="344,-224.5 344,-243.5 500,-243.5 500,-224.5 344,-224.5"/>
<text text-anchor="middle" x="422" y="-231.5" font-family="Helvetica,sans-Serif" font-size="10.00">CameraMovementScript.hpp</text>
</a>
</g>
</g>
<!-- Node2&#45;&gt;Node3 -->
<g id="edge2" class="edge">
<title>Node2&#45;&gt;Node3</title>
<path fill="none" stroke="midnightblue" d="M422,-269.8C422,-260.91 422,-250.78 422,-243.75"/>
<polygon fill="midnightblue" stroke="midnightblue" points="418.5,-270.08 422,-280.08 425.5,-270.08 418.5,-270.08"/>
</g>
<!-- Node6 -->
<g id="node6" class="node">
<title>Node6</title>
<g id="a_node6"><a xlink:href="_device_8hpp.html" target="_top" xlink:title=" ">
<polygon fill="white" stroke="black" points="666.5,-224.5 666.5,-243.5 737.5,-243.5 737.5,-224.5 666.5,-224.5"/>
<text text-anchor="middle" x="702" y="-231.5" font-family="Helvetica,sans-Serif" font-size="10.00">Device.hpp</text>
</a>
</g>
</g>
<!-- Node5&#45;&gt;Node6 -->
<g id="edge5" class="edge">
<title>Node5&#45;&gt;Node6</title>
<path fill="none" stroke="midnightblue" d="M702,-269.8C702,-260.91 702,-250.78 702,-243.75"/>
<polygon fill="midnightblue" stroke="midnightblue" points="698.5,-270.08 702,-280.08 705.5,-270.08 698.5,-270.08"/>
</g>
<!-- Node7 -->
<g id="node7" class="node">
<title>Node7</title>
<g id="a_node7"><a xlink:href="_feature_8hpp.html" target="_top" xlink:title=" ">
<polygon fill="white" stroke="black" points="612,-112.5 612,-131.5 686,-131.5 686,-112.5 612,-112.5"/>
<text text-anchor="middle" x="649" y="-119.5" font-family="Helvetica,sans-Serif" font-size="10.00">Feature.hpp</text>
</a>
</g>
</g>
<!-- Node6&#45;&gt;Node7 -->
<g id="edge6" class="edge">
<title>Node6&#45;&gt;Node7</title>
<path fill="none" stroke="midnightblue" d="M667.4,-219.92C653.49,-212.75 638.89,-202.34 631,-188 620.84,-169.53 633.87,-144.9 642.5,-131.9"/>
<polygon fill="midnightblue" stroke="midnightblue" points="666.3,-223.27 676.84,-224.38 669.29,-216.94 666.3,-223.27"/>
</g>
<!-- Node16 -->
<g id="node16" class="node">
<title>Node16</title>
<g id="a_node16"><a xlink:href="_layer_8hpp.html" target="_top" xlink:title=" ">
<polygon fill="white" stroke="black" points="640,-168.5 640,-187.5 704,-187.5 704,-168.5 640,-168.5"/>
<text text-anchor="middle" x="672" y="-175.5" font-family="Helvetica,sans-Serif" font-size="10.00">Layer.hpp</text>
</a>
</g>
</g>
<!-- Node6&#45;&gt;Node16 -->
<g id="edge15" class="edge">
<title>Node6&#45;&gt;Node16</title>
<path fill="none" stroke="midnightblue" d="M692.15,-215.27C687.03,-206.05 680.98,-195.17 676.86,-187.75"/>
<polygon fill="midnightblue" stroke="midnightblue" points="689.13,-217.04 697.05,-224.08 695.25,-213.64 689.13,-217.04"/>
</g>
<!-- Node17 -->
<g id="node17" class="node">
<title>Node17</title>
<g id="a_node17"><a xlink:href="_view_8hpp.html" target="_top" xlink:title=" ">
<polygon fill="white" stroke="black" points="760.5,-168.5 760.5,-187.5 821.5,-187.5 821.5,-168.5 760.5,-168.5"/>
<text text-anchor="middle" x="791" y="-175.5" font-family="Helvetica,sans-Serif" font-size="10.00">View.hpp</text>
</a>
</g>
</g>
<!-- Node6&#45;&gt;Node17 -->
<g id="edge17" class="edge">
<title>Node6&#45;&gt;Node17</title>
<path fill="none" stroke="midnightblue" d="M725.24,-218.9C741.56,-209 762.87,-196.07 776.74,-187.65"/>
<polygon fill="midnightblue" stroke="midnightblue" points="723.03,-216.14 716.3,-224.32 726.66,-222.13 723.03,-216.14"/>
</g>
<!-- Node18 -->
<g id="node18" class="node">
<title>Node18</title>
<g id="a_node18"><a xlink:href="_instance_8hpp.html" target="_top" xlink:title=" ">
<polygon fill="white" stroke="black" points="839.5,-168.5 839.5,-187.5 918.5,-187.5 918.5,-168.5 839.5,-168.5"/>
<text text-anchor="middle" x="879" y="-175.5" font-family="Helvetica,sans-Serif" font-size="10.00">Instance.hpp</text>
</a>
</g>
</g>
<!-- Node6&#45;&gt;Node18 -->
<g id="edge18" class="edge">
<title>Node6&#45;&gt;Node18</title>
<path fill="none" stroke="midnightblue" d="M739.9,-221.44C773.28,-211.26 821.1,-196.66 851.09,-187.52"/>
<polygon fill="midnightblue" stroke="midnightblue" points="738.59,-218.18 730.05,-224.44 740.63,-224.87 738.59,-218.18"/>
</g>
<!-- Node19 -->
<g id="node19" class="node">
<title>Node19</title>
<g id="a_node19"><a xlink:href="_mapped_buffer_8hpp.html" target="_top" xlink:title=" ">
<polygon fill="white" stroke="black" points="969.5,-112.5 969.5,-131.5 1074.5,-131.5 1074.5,-112.5 969.5,-112.5"/>
<text text-anchor="middle" x="1022" y="-119.5" font-family="Helvetica,sans-Serif" font-size="10.00">MappedBuffer.hpp</text>
</a>
</g>
</g>
<!-- Node6&#45;&gt;Node19 -->
<g id="edge19" class="edge">
<title>Node6&#45;&gt;Node19</title>
<path fill="none" stroke="midnightblue" d="M710.77,-215.22C719.19,-200.12 733.37,-179.17 752,-168 787.76,-146.56 901.39,-133.36 969.31,-127.19"/>
<polygon fill="midnightblue" stroke="midnightblue" points="707.63,-213.65 706.08,-224.13 713.83,-216.91 707.63,-213.65"/>
</g>
<!-- Node20 -->
<g id="node20" class="node">
<title>Node20</title>
<g id="a_node20"><a xlink:href="_shader_8hpp.html" target="_top" xlink:title=" ">
<polygon fill="white" stroke="black" points="499.5,-112.5 499.5,-131.5 570.5,-131.5 570.5,-112.5 499.5,-112.5"/>
<text text-anchor="middle" x="535" y="-119.5" font-family="Helvetica,sans-Serif" font-size="10.00">Shader.hpp</text>
</a>
</g>
</g>
<!-- Node6&#45;&gt;Node20 -->
<g id="edge22" class="edge">
<title>Node6&#45;&gt;Node20</title>
<path fill="none" stroke="midnightblue" d="M676.52,-219.49C660.82,-210.92 640.42,-199.34 623,-188 594.19,-169.25 562.13,-144.52 545.81,-131.64"/>
<polygon fill="midnightblue" stroke="midnightblue" points="675.17,-222.73 685.63,-224.41 678.5,-216.58 675.17,-222.73"/>
</g>
<!-- Node8 -->
<g id="node8" class="node">
<title>Node8</title>
<g id="a_node8"><a xlink:href="_bloom_feature_8hpp.html" target="_top" xlink:title=" ">
<polygon fill="white" stroke="black" points="395,-56.5 395,-75.5 501,-75.5 501,-56.5 395,-56.5"/>
<text text-anchor="middle" x="448" y="-63.5" font-family="Helvetica,sans-Serif" font-size="10.00">BloomFeature.hpp</text>
</a>
</g>
</g>
<!-- Node7&#45;&gt;Node8 -->
<g id="edge7" class="edge">
<title>Node7&#45;&gt;Node8</title>
<path fill="none" stroke="midnightblue" d="M607.42,-109.83C569.47,-99.63 514.19,-84.78 479.7,-75.52"/>
<polygon fill="midnightblue" stroke="midnightblue" points="606.59,-113.23 617.15,-112.44 608.4,-106.47 606.59,-113.23"/>
</g>
<!-- Node9 -->
<g id="node9" class="node">
<title>Node9</title>
<g id="a_node9"><a xlink:href="_camera_data_collector_8hpp.html" target="_top" xlink:title=" ">
<polygon fill="white" stroke="black" points="1114,-56.5 1114,-75.5 1256,-75.5 1256,-56.5 1114,-56.5"/>
<text text-anchor="middle" x="1185" y="-63.5" font-family="Helvetica,sans-Serif" font-size="10.00">CameraDataCollector.hpp</text>
</a>
</g>
</g>
<!-- Node7&#45;&gt;Node9 -->
<g id="edge8" class="edge">
<title>Node7&#45;&gt;Node9</title>
<path fill="none" stroke="midnightblue" d="M696.36,-116.54C779.24,-108.69 955.92,-91.74 1105,-76 1107.92,-75.69 1110.9,-75.37 1113.91,-75.05"/>
<polygon fill="midnightblue" stroke="midnightblue" points="695.88,-113.07 686.26,-117.5 696.54,-120.04 695.88,-113.07"/>
</g>
<!-- Node10 -->
<g id="node10" class="node">
<title>Node10</title>
<g id="a_node10"><a xlink:href="_clustered_light_feature_8hpp.html" target="_top" xlink:title=" ">
<polygon fill="white" stroke="black" points="519.5,-56.5 519.5,-75.5 664.5,-75.5 664.5,-56.5 519.5,-56.5"/>
<text text-anchor="middle" x="592" y="-63.5" font-family="Helvetica,sans-Serif" font-size="10.00">ClusteredLightFeature.hpp</text>
</a>
</g>
</g>
<!-- Node7&#45;&gt;Node10 -->
<g id="edge9" class="edge">
<title>Node7&#45;&gt;Node10</title>
<path fill="none" stroke="midnightblue" d="M632.38,-105.25C622.27,-95.67 609.72,-83.79 601.32,-75.83"/>
<polygon fill="midnightblue" stroke="midnightblue" points="630.18,-107.99 639.84,-112.32 634.99,-102.91 630.18,-107.99"/>
</g>
<!-- Node11 -->
<g id="node11" class="node">
<title>Node11</title>
<g id="a_node11"><a xlink:href="_forward_render_feature_8hpp.html" target="_top" xlink:title=" ">
<polygon fill="white" stroke="black" points="683,-56.5 683,-75.5 831,-75.5 831,-56.5 683,-56.5"/>
<text text-anchor="middle" x="757" y="-63.5" font-family="Helvetica,sans-Serif" font-size="10.00">ForwardRenderFeature.hpp</text>
</a>
</g>
</g>
<!-- Node7&#45;&gt;Node11 -->
<g id="edge10" class="edge">
<title>Node7&#45;&gt;Node11</title>
<path fill="none" stroke="midnightblue" d="M675.55,-107.73C695.55,-97.73 722.39,-84.31 739.69,-75.65"/>
<polygon fill="midnightblue" stroke="midnightblue" points="673.73,-104.72 666.35,-112.32 676.86,-110.98 673.73,-104.72"/>
</g>
<!-- Node12 -->
<g id="node12" class="node">
<title>Node12</title>
<g id="a_node12"><a xlink:href="_particle_system_feature_8hpp.html" target="_top" xlink:title=" ">
<polygon fill="white" stroke="black" points="948.5,-56.5 948.5,-75.5 1095.5,-75.5 1095.5,-56.5 948.5,-56.5"/>
<text text-anchor="middle" x="1022" y="-63.5" font-family="Helvetica,sans-Serif" font-size="10.00">ParticleSystemFeature.hpp</text>
</a>
</g>
</g>
<!-- Node7&#45;&gt;Node12 -->
<g id="edge11" class="edge">
<title>Node7&#45;&gt;Node12</title>
<path fill="none" stroke="midnightblue" d="M696.11,-114.18C763.98,-104.35 889.21,-86.22 963.1,-75.53"/>
<polygon fill="midnightblue" stroke="midnightblue" points="695.52,-110.73 686.13,-115.62 696.53,-117.66 695.52,-110.73"/>
</g>
<!-- Node13 -->
<g id="node13" class="node">
<title>Node13</title>
<g id="a_node13"><a xlink:href="_static_mesh_feature_8hpp.html" target="_top" xlink:title=" ">
<polygon fill="white" stroke="black" points="111,-56.5 111,-75.5 239,-75.5 239,-56.5 111,-56.5"/>
<text text-anchor="middle" x="175" y="-63.5" font-family="Helvetica,sans-Serif" font-size="10.00">StaticMeshFeature.hpp</text>
</a>
</g>
</g>
<!-- Node7&#45;&gt;Node13 -->
<g id="edge12" class="edge">
<title>Node7&#45;&gt;Node13</title>
<path fill="none" stroke="midnightblue" d="M601.68,-114.69C594.42,-113.76 587.01,-112.84 580,-112 432.63,-94.4 395.43,-93.08 248,-76 245.08,-75.66 242.1,-75.31 239.09,-74.96"/>
<polygon fill="midnightblue" stroke="midnightblue" points="601.41,-118.18 611.78,-115.99 602.31,-111.24 601.41,-118.18"/>
</g>
<!-- Node14 -->
<g id="node14" class="node">
<title>Node14</title>
<g id="a_node14"><a xlink:href="_tonemap_feature_8hpp.html" target="_top" xlink:title=" ">
<polygon fill="white" stroke="black" points="257.5,-56.5 257.5,-75.5 376.5,-75.5 376.5,-56.5 257.5,-56.5"/>
<text text-anchor="middle" x="317" y="-63.5" font-family="Helvetica,sans-Serif" font-size="10.00">TonemapFeature.hpp</text>
</a>
</g>
</g>
<!-- Node7&#45;&gt;Node14 -->
<g id="edge13" class="edge">
<title>Node7&#45;&gt;Node14</title>
<path fill="none" stroke="midnightblue" d="M601.69,-113.3C540.22,-103.31 433.24,-85.91 369.39,-75.52"/>
<polygon fill="midnightblue" stroke="midnightblue" points="601.45,-116.81 611.88,-114.96 602.57,-109.9 601.45,-116.81"/>
</g>
<!-- Node15 -->
<g id="node15" class="node">
<title>Node15</title>
<g id="a_node15"><a xlink:href="_renderer_8hpp.html" target="_top" xlink:title=" ">
<polygon fill="white" stroke="black" points="849.5,-56.5 849.5,-75.5 930.5,-75.5 930.5,-56.5 849.5,-56.5"/>
<text text-anchor="middle" x="890" y="-63.5" font-family="Helvetica,sans-Serif" font-size="10.00">Renderer.hpp</text>
</a>
</g>
</g>
<!-- Node7&#45;&gt;Node15 -->
<g id="edge14" class="edge">
<title>Node7&#45;&gt;Node15</title>
<path fill="none" stroke="midnightblue" d="M696.06,-110.46C741.62,-100.25 809.83,-84.96 852.03,-75.51"/>
<polygon fill="midnightblue" stroke="midnightblue" points="695.12,-107.08 686.13,-112.68 696.65,-113.91 695.12,-107.08"/>
</g>
<!-- Node16&#45;&gt;Node7 -->
<g id="edge16" class="edge">
<title>Node16&#45;&gt;Node7</title>
<path fill="none" stroke="midnightblue" d="M664.2,-158.69C660.32,-149.59 655.82,-139.01 652.73,-131.75"/>
<polygon fill="midnightblue" stroke="midnightblue" points="661.06,-160.25 668.2,-168.08 667.5,-157.51 661.06,-160.25"/>
</g>
<!-- Node19&#45;&gt;Node9 -->
<g id="edge20" class="edge">
<title>Node19&#45;&gt;Node9</title>
<path fill="none" stroke="midnightblue" d="M1057.7,-109.17C1088.4,-99 1131.92,-84.59 1159.29,-75.52"/>
<polygon fill="midnightblue" stroke="midnightblue" points="1056.22,-105.98 1047.83,-112.44 1058.42,-112.62 1056.22,-105.98"/>
</g>
<!-- Node19&#45;&gt;Node12 -->
<g id="edge21" class="edge">
<title>Node19&#45;&gt;Node12</title>
<path fill="none" stroke="midnightblue" d="M1022,-101.8C1022,-92.91 1022,-82.78 1022,-75.75"/>
<polygon fill="midnightblue" stroke="midnightblue" points="1018.5,-102.08 1022,-112.08 1025.5,-102.08 1018.5,-102.08"/>
</g>
<!-- Node20&#45;&gt;Node8 -->
<g id="edge23" class="edge">
<title>Node20&#45;&gt;Node8</title>
<path fill="none" stroke="midnightblue" d="M512.28,-106.9C496.33,-97 475.5,-84.07 461.94,-75.65"/>
<polygon fill="midnightblue" stroke="midnightblue" points="510.68,-110.02 521.02,-112.32 514.37,-104.08 510.68,-110.02"/>
</g>
<!-- Node20&#45;&gt;Node10 -->
<g id="edge24" class="edge">
<title>Node20&#45;&gt;Node10</title>
<path fill="none" stroke="midnightblue" d="M551.62,-105.25C561.73,-95.67 574.28,-83.79 582.68,-75.83"/>
<polygon fill="midnightblue" stroke="midnightblue" points="549.01,-102.91 544.16,-112.32 553.82,-107.99 549.01,-102.91"/>
</g>
<!-- Node20&#45;&gt;Node11 -->
<g id="edge25" class="edge">
<title>Node20&#45;&gt;Node11</title>
<path fill="none" stroke="midnightblue" d="M580.12,-110.02C622.06,-99.82 683.65,-84.84 721.99,-75.52"/>
<polygon fill="midnightblue" stroke="midnightblue" points="579.07,-106.68 570.18,-112.44 580.72,-113.48 579.07,-106.68"/>
</g>
<!-- Node20&#45;&gt;Node12 -->
<g id="edge26" class="edge">
<title>Node20&#45;&gt;Node12</title>
<path fill="none" stroke="midnightblue" d="M580.63,-114.8C588.1,-113.83 595.77,-112.87 603,-112 752.56,-94.12 790.25,-92.22 940,-76 942.71,-75.71 945.46,-75.41 948.24,-75.11"/>
<polygon fill="midnightblue" stroke="midnightblue" points="580.08,-111.34 570.62,-116.11 580.99,-118.28 580.08,-111.34"/>
</g>
<!-- Node20&#45;&gt;Node13 -->
<g id="edge27" class="edge">
<title>Node20&#45;&gt;Node13</title>
<path fill="none" stroke="midnightblue" d="M489.48,-114.17C424,-104.35 303.28,-86.24 231.97,-75.55"/>
<polygon fill="midnightblue" stroke="midnightblue" points="489.09,-117.65 499.5,-115.67 490.13,-110.73 489.09,-117.65"/>
</g>
<!-- Node20&#45;&gt;Node14 -->
<g id="edge28" class="edge">
<title>Node20&#45;&gt;Node14</title>
<path fill="none" stroke="midnightblue" d="M490.69,-110.02C449.51,-99.82 389.03,-84.84 351.38,-75.52"/>
<polygon fill="midnightblue" stroke="midnightblue" points="489.91,-113.44 500.46,-112.44 491.59,-106.64 489.91,-113.44"/>
</g>
<!-- Node21 -->
<g id="node21" class="node">
<title>Node21</title>
<g id="a_node21"><a xlink:href="_compiler_8hpp.html" target="_top" xlink:title=" ">
<polygon fill="white" stroke="black" points="11.5,-56.5 11.5,-75.5 92.5,-75.5 92.5,-56.5 11.5,-56.5"/>
<text text-anchor="middle" x="52" y="-63.5" font-family="Helvetica,sans-Serif" font-size="10.00">Compiler.hpp</text>
</a>
</g>
</g>
<!-- Node20&#45;&gt;Node21 -->
<g id="edge29" class="edge">
<title>Node20&#45;&gt;Node21</title>
<path fill="none" stroke="midnightblue" d="M489.12,-117.36C409.93,-110.83 242.54,-95.92 102,-76 98.94,-75.57 95.79,-75.08 92.62,-74.57"/>
<polygon fill="midnightblue" stroke="midnightblue" points="489,-120.87 499.25,-118.19 489.57,-113.89 489,-120.87"/>
</g>
<!-- Node22 -->
<g id="node22" class="node">
<title>Node22</title>
<g id="a_node22"><a xlink:href="_shader_loader_8hpp.html" target="_top" xlink:title=" ">
<polygon fill="white" stroke="black" points="0,-0.5 0,-19.5 104,-19.5 104,-0.5 0,-0.5"/>
<text text-anchor="middle" x="52" y="-7.5" font-family="Helvetica,sans-Serif" font-size="10.00">ShaderLoader.hpp</text>
</a>
</g>
</g>
<!-- Node21&#45;&gt;Node22 -->
<g id="edge30" class="edge">
<title>Node21&#45;&gt;Node22</title>
<path fill="none" stroke="midnightblue" d="M52,-45.8C52,-36.91 52,-26.78 52,-19.75"/>
<polygon fill="midnightblue" stroke="midnightblue" points="48.5,-46.08 52,-56.08 55.5,-46.08 48.5,-46.08"/>
</g>
</g>
</svg>
