<?xml version="1.0" encoding="UTF-8" standalone="no"?>
<!DOCTYPE svg PUBLIC "-//W3C//DTD SVG 1.1//EN"
 "http://www.w3.org/Graphics/SVG/1.1/DTD/svg11.dtd">
<!-- Generated by graphviz version 2.43.0 (0)
 -->
<!-- Title: Writer.hpp Pages: 1 -->
<svg width="519pt" height="364pt"
 viewBox="0.00 0.00 518.50 364.00" xmlns="http://www.w3.org/2000/svg" xmlns:xlink="http://www.w3.org/1999/xlink">
<g id="graph0" class="graph" transform="scale(1 1) rotate(0) translate(4 360)">
<title>Writer.hpp</title>
<polygon fill="white" stroke="transparent" points="-4,4 -4,-360 514.5,-360 514.5,4 -4,4"/>
<!-- Node1 -->
<g id="node1" class="node">
<title>Node1</title>
<g id="a_node1"><a xlink:title=" ">
<polygon fill="#bfbfbf" stroke="black" points="154,-336.5 154,-355.5 221,-355.5 221,-336.5 154,-336.5"/>
<text text-anchor="middle" x="187.5" y="-343.5" font-family="Helvetica,sans-Serif" font-size="10.00">Writer.hpp</text>
</a>
</g>
</g>
<!-- Node2 -->
<g id="node2" class="node">
<title>Node2</title>
<g id="a_node2"><a xlink:href="_console_writer_8hpp.html" target="_top" xlink:title=" ">
<polygon fill="white" stroke="black" points="85.5,-280.5 85.5,-299.5 191.5,-299.5 191.5,-280.5 85.5,-280.5"/>
<text text-anchor="middle" x="138.5" y="-287.5" font-family="Helvetica,sans-Serif" font-size="10.00">ConsoleWriter.hpp</text>
</a>
</g>
</g>
<!-- Node1&#45;&gt;Node2 -->
<g id="edge1" class="edge">
<title>Node1&#45;&gt;Node2</title>
<path fill="none" stroke="midnightblue" d="M172.47,-328.43C163.88,-318.97 153.46,-307.48 146.44,-299.75"/>
<polygon fill="midnightblue" stroke="midnightblue" points="170.1,-331.03 179.41,-336.08 175.28,-326.33 170.1,-331.03"/>
</g>
<!-- Node3 -->
<g id="node3" class="node">
<title>Node3</title>
<g id="a_node3"><a xlink:href="_log_8hpp.html" target="_top" xlink:title=" ">
<polygon fill="white" stroke="black" points="210,-280.5 210,-299.5 265,-299.5 265,-280.5 210,-280.5"/>
<text text-anchor="middle" x="237.5" y="-287.5" font-family="Helvetica,sans-Serif" font-size="10.00">Log.hpp</text>
</a>
</g>
</g>
<!-- Node1&#45;&gt;Node3 -->
<g id="edge2" class="edge">
<title>Node1&#45;&gt;Node3</title>
<path fill="none" stroke="midnightblue" d="M202.58,-328.72C211.39,-319.2 222.17,-307.56 229.4,-299.75"/>
<polygon fill="midnightblue" stroke="midnightblue" points="199.98,-326.37 195.76,-336.08 205.12,-331.12 199.98,-326.37"/>
</g>
<!-- Node4 -->
<g id="node4" class="node">
<title>Node4</title>
<g id="a_node4"><a xlink:href="_asset_2_log_channel_8hpp.html" target="_top" xlink:title=" ">
<polygon fill="white" stroke="black" points="0,-224.5 0,-243.5 95,-243.5 95,-224.5 0,-224.5"/>
<text text-anchor="middle" x="47.5" y="-231.5" font-family="Helvetica,sans-Serif" font-size="10.00">LogChannel.hpp</text>
</a>
</g>
</g>
<!-- Node3&#45;&gt;Node4 -->
<g id="edge3" class="edge">
<title>Node3&#45;&gt;Node4</title>
<path fill="none" stroke="midnightblue" d="M199.81,-278.29C163.98,-268.1 110.78,-252.99 77.67,-243.58"/>
<polygon fill="midnightblue" stroke="midnightblue" points="199.3,-281.78 209.87,-281.15 201.21,-275.05 199.3,-281.78"/>
</g>
<!-- Node5 -->
<g id="node5" class="node">
<title>Node5</title>
<g id="a_node5"><a xlink:href="_ref_count_storage_8hpp.html" target="_top" xlink:title=" ">
<polygon fill="white" stroke="black" points="47.5,-168.5 47.5,-187.5 167.5,-187.5 167.5,-168.5 47.5,-168.5"/>
<text text-anchor="middle" x="107.5" y="-175.5" font-family="Helvetica,sans-Serif" font-size="10.00">RefCountStorage.hpp</text>
</a>
</g>
</g>
<!-- Node3&#45;&gt;Node5 -->
<g id="edge4" class="edge">
<title>Node3&#45;&gt;Node5</title>
<path fill="none" stroke="midnightblue" d="M215.66,-274.59C203.25,-266.12 187.62,-254.95 174.5,-244 152.1,-225.31 128.08,-200.77 115.79,-187.84"/>
<polygon fill="midnightblue" stroke="midnightblue" points="213.79,-277.56 224.04,-280.25 217.71,-271.75 213.79,-277.56"/>
</g>
<!-- Node8 -->
<g id="node8" class="node">
<title>Node8</title>
<g id="a_node8"><a xlink:href="_type_map_8hpp.html" target="_top" xlink:title=" ">
<polygon fill="white" stroke="black" points="186,-168.5 186,-187.5 267,-187.5 267,-168.5 186,-168.5"/>
<text text-anchor="middle" x="226.5" y="-175.5" font-family="Helvetica,sans-Serif" font-size="10.00">TypeMap.hpp</text>
</a>
</g>
</g>
<!-- Node3&#45;&gt;Node8 -->
<g id="edge7" class="edge">
<title>Node3&#45;&gt;Node8</title>
<path fill="none" stroke="midnightblue" d="M210.83,-275.22C199.25,-267.7 186.9,-257.2 180.5,-244 169.89,-222.1 195.61,-199.59 212.72,-187.66"/>
<polygon fill="midnightblue" stroke="midnightblue" points="209.05,-278.23 219.42,-280.39 212.66,-272.23 209.05,-278.23"/>
</g>
<!-- Node9 -->
<g id="node9" class="node">
<title>Node9</title>
<g id="a_node9"><a xlink:href="_callback_8hpp.html" target="_top" xlink:title=" ">
<polygon fill="white" stroke="black" points="285.5,-168.5 285.5,-187.5 365.5,-187.5 365.5,-168.5 285.5,-168.5"/>
<text text-anchor="middle" x="325.5" y="-175.5" font-family="Helvetica,sans-Serif" font-size="10.00">Callback.hpp</text>
</a>
</g>
</g>
<!-- Node3&#45;&gt;Node9 -->
<g id="edge9" class="edge">
<title>Node3&#45;&gt;Node9</title>
<path fill="none" stroke="midnightblue" d="M259.78,-274.58C270.92,-266.56 284.02,-255.83 293.5,-244 307.82,-226.14 317.95,-200.82 322.61,-187.68"/>
<polygon fill="midnightblue" stroke="midnightblue" points="257.6,-271.83 251.36,-280.4 261.58,-277.59 257.6,-271.83"/>
</g>
<!-- Node13 -->
<g id="node13" class="node">
<title>Node13</title>
<g id="a_node13"><a xlink:href="_core_2_log_channel_8hpp.html" target="_top" xlink:title=" ">
<polygon fill="white" stroke="black" points="190,-224.5 190,-243.5 285,-243.5 285,-224.5 190,-224.5"/>
<text text-anchor="middle" x="237.5" y="-231.5" font-family="Helvetica,sans-Serif" font-size="10.00">LogChannel.hpp</text>
</a>
</g>
</g>
<!-- Node3&#45;&gt;Node13 -->
<g id="edge13" class="edge">
<title>Node3&#45;&gt;Node13</title>
<path fill="none" stroke="midnightblue" d="M237.5,-269.8C237.5,-260.91 237.5,-250.78 237.5,-243.75"/>
<polygon fill="midnightblue" stroke="midnightblue" points="234,-270.08 237.5,-280.08 241,-270.08 234,-270.08"/>
</g>
<!-- Node14 -->
<g id="node14" class="node">
<title>Node14</title>
<g id="a_node14"><a xlink:href="_r_h_i_2_log_channel_8hpp.html" target="_top" xlink:title=" ">
<polygon fill="white" stroke="black" points="342,-224.5 342,-243.5 437,-243.5 437,-224.5 342,-224.5"/>
<text text-anchor="middle" x="389.5" y="-231.5" font-family="Helvetica,sans-Serif" font-size="10.00">LogChannel.hpp</text>
</a>
</g>
</g>
<!-- Node3&#45;&gt;Node14 -->
<g id="edge17" class="edge">
<title>Node3&#45;&gt;Node14</title>
<path fill="none" stroke="midnightblue" d="M271.17,-277.04C299.77,-266.88 340.11,-252.55 365.53,-243.52"/>
<polygon fill="midnightblue" stroke="midnightblue" points="269.84,-273.8 261.58,-280.44 272.18,-280.39 269.84,-273.8"/>
</g>
<!-- Node15 -->
<g id="node15" class="node">
<title>Node15</title>
<g id="a_node15"><a xlink:href="_shader_alignment_8hpp.html" target="_top" xlink:title=" ">
<polygon fill="white" stroke="black" points="388.5,-168.5 388.5,-187.5 510.5,-187.5 510.5,-168.5 388.5,-168.5"/>
<text text-anchor="middle" x="449.5" y="-175.5" font-family="Helvetica,sans-Serif" font-size="10.00">ShaderAlignment.hpp</text>
</a>
</g>
</g>
<!-- Node3&#45;&gt;Node15 -->
<g id="edge19" class="edge">
<title>Node3&#45;&gt;Node15</title>
<path fill="none" stroke="midnightblue" d="M275.27,-286.27C329.37,-281.51 424.81,-269.63 446.5,-244 459.93,-228.13 455.6,-201.5 452.11,-187.77"/>
<polygon fill="midnightblue" stroke="midnightblue" points="274.71,-282.81 265.04,-287.13 275.3,-289.78 274.71,-282.81"/>
</g>
<!-- Node6 -->
<g id="node6" class="node">
<title>Node6</title>
<g id="a_node6"><a xlink:href="_storage_8hpp.html" target="_top" xlink:title=" ">
<polygon fill="white" stroke="black" points="121,-112.5 121,-131.5 196,-131.5 196,-112.5 121,-112.5"/>
<text text-anchor="middle" x="158.5" y="-119.5" font-family="Helvetica,sans-Serif" font-size="10.00">Storage.hpp</text>
</a>
</g>
</g>
<!-- Node5&#45;&gt;Node6 -->
<g id="edge5" class="edge">
<title>Node5&#45;&gt;Node6</title>
<path fill="none" stroke="midnightblue" d="M122.88,-160.72C131.87,-151.2 142.86,-139.56 150.24,-131.75"/>
<polygon fill="midnightblue" stroke="midnightblue" points="120.24,-158.41 115.92,-168.08 125.33,-163.22 120.24,-158.41"/>
</g>
<!-- Node7 -->
<g id="node7" class="node">
<title>Node7</title>
<g id="a_node7"><a xlink:href="_manager_8hpp.html" target="_top" xlink:title=" ">
<polygon fill="white" stroke="black" points="118.5,-56.5 118.5,-75.5 198.5,-75.5 198.5,-56.5 118.5,-56.5"/>
<text text-anchor="middle" x="158.5" y="-63.5" font-family="Helvetica,sans-Serif" font-size="10.00">Manager.hpp</text>
</a>
</g>
</g>
<!-- Node6&#45;&gt;Node7 -->
<g id="edge6" class="edge">
<title>Node6&#45;&gt;Node7</title>
<path fill="none" stroke="midnightblue" d="M158.5,-101.8C158.5,-92.91 158.5,-82.78 158.5,-75.75"/>
<polygon fill="midnightblue" stroke="midnightblue" points="155,-102.08 158.5,-112.08 162,-102.08 155,-102.08"/>
</g>
<!-- Node8&#45;&gt;Node6 -->
<g id="edge8" class="edge">
<title>Node8&#45;&gt;Node6</title>
<path fill="none" stroke="midnightblue" d="M207.74,-162.1C195.5,-152.38 179.94,-140.03 169.62,-131.83"/>
<polygon fill="midnightblue" stroke="midnightblue" points="205.57,-164.85 215.57,-168.32 209.92,-159.36 205.57,-164.85"/>
</g>
<!-- Node10 -->
<g id="node10" class="node">
<title>Node10</title>
<g id="a_node10"><a xlink:href="_event_sink_8hpp.html" target="_top" xlink:title=" ">
<polygon fill="white" stroke="black" points="282.5,-112.5 282.5,-131.5 368.5,-131.5 368.5,-112.5 282.5,-112.5"/>
<text text-anchor="middle" x="325.5" y="-119.5" font-family="Helvetica,sans-Serif" font-size="10.00">EventSink.hpp</text>
</a>
</g>
</g>
<!-- Node9&#45;&gt;Node10 -->
<g id="edge10" class="edge">
<title>Node9&#45;&gt;Node10</title>
<path fill="none" stroke="midnightblue" d="M325.5,-157.8C325.5,-148.91 325.5,-138.78 325.5,-131.75"/>
<polygon fill="midnightblue" stroke="midnightblue" points="322,-158.08 325.5,-168.08 329,-158.08 322,-158.08"/>
</g>
<!-- Node11 -->
<g id="node11" class="node">
<title>Node11</title>
<g id="a_node11"><a xlink:href="_event_dispatcher_8hpp.html" target="_top" xlink:title=" ">
<polygon fill="white" stroke="black" points="267,-56.5 267,-75.5 384,-75.5 384,-56.5 267,-56.5"/>
<text text-anchor="middle" x="325.5" y="-63.5" font-family="Helvetica,sans-Serif" font-size="10.00">EventDispatcher.hpp</text>
</a>
</g>
</g>
<!-- Node10&#45;&gt;Node11 -->
<g id="edge11" class="edge">
<title>Node10&#45;&gt;Node11</title>
<path fill="none" stroke="midnightblue" d="M325.5,-101.8C325.5,-92.91 325.5,-82.78 325.5,-75.75"/>
<polygon fill="midnightblue" stroke="midnightblue" points="322,-102.08 325.5,-112.08 329,-102.08 322,-102.08"/>
</g>
<!-- Node12 -->
<g id="node12" class="node">
<title>Node12</title>
<g id="a_node12"><a xlink:href="_platform_layer_8hpp.html" target="_top" xlink:title=" ">
<polygon fill="white" stroke="black" points="272.5,-0.5 272.5,-19.5 378.5,-19.5 378.5,-0.5 272.5,-0.5"/>
<text text-anchor="middle" x="325.5" y="-7.5" font-family="Helvetica,sans-Serif" font-size="10.00">PlatformLayer.hpp</text>
</a>
</g>
</g>
<!-- Node11&#45;&gt;Node12 -->
<g id="edge12" class="edge">
<title>Node11&#45;&gt;Node12</title>
<path fill="none" stroke="midnightblue" d="M325.5,-45.8C325.5,-36.91 325.5,-26.78 325.5,-19.75"/>
<polygon fill="midnightblue" stroke="midnightblue" points="322,-46.08 325.5,-56.08 329,-46.08 322,-46.08"/>
</g>
<!-- Node13&#45;&gt;Node5 -->
<g id="edge14" class="edge">
<title>Node13&#45;&gt;Node5</title>
<path fill="none" stroke="midnightblue" d="M207.41,-220.5C183.04,-210.38 149.36,-196.39 128,-187.52"/>
<polygon fill="midnightblue" stroke="midnightblue" points="206.32,-223.84 216.9,-224.44 209.01,-217.38 206.32,-223.84"/>
</g>
<!-- Node13&#45;&gt;Node8 -->
<g id="edge15" class="edge">
<title>Node13&#45;&gt;Node8</title>
<path fill="none" stroke="midnightblue" d="M233.65,-214.1C231.82,-205.14 229.73,-194.86 228.28,-187.75"/>
<polygon fill="midnightblue" stroke="midnightblue" points="230.26,-214.98 235.68,-224.08 237.12,-213.59 230.26,-214.98"/>
</g>
<!-- Node13&#45;&gt;Node9 -->
<g id="edge16" class="edge">
<title>Node13&#45;&gt;Node9</title>
<path fill="none" stroke="midnightblue" d="M260.48,-218.9C276.61,-209 297.68,-196.07 311.4,-187.65"/>
<polygon fill="midnightblue" stroke="midnightblue" points="258.33,-216.11 251.64,-224.32 261.99,-222.08 258.33,-216.11"/>
</g>
<!-- Node14&#45;&gt;Node15 -->
<g id="edge18" class="edge">
<title>Node14&#45;&gt;Node15</title>
<path fill="none" stroke="midnightblue" d="M406.68,-217.54C417.38,-207.91 430.76,-195.87 439.68,-187.83"/>
<polygon fill="midnightblue" stroke="midnightblue" points="404.23,-215.03 399.14,-224.32 408.91,-220.24 404.23,-215.03"/>
</g>
</g>
</svg>
