<?xml version="1.0" encoding="UTF-8" standalone="no"?>
<!DOCTYPE svg PUBLIC "-//W3C//DTD SVG 1.1//EN"
 "http://www.w3.org/Graphics/SVG/1.1/DTD/svg11.dtd">
<!-- Generated by graphviz version 2.43.0 (0)
 -->
<!-- Title: liger::ecs::IScript Pages: 1 -->
<svg width="193pt" height="204pt"
 viewBox="0.00 0.00 193.00 204.00" xmlns="http://www.w3.org/2000/svg" xmlns:xlink="http://www.w3.org/1999/xlink">
<g id="graph0" class="graph" transform="scale(1 1) rotate(0) translate(4 200)">
<title>liger::ecs::IScript</title>
<polygon fill="white" stroke="transparent" points="-4,4 -4,-200 189,-200 189,4 -4,4"/>
<!-- Node1 -->
<g id="node1" class="node">
<title>Node1</title>
<g id="a_node1"><a xlink:title=" ">
<polygon fill="#bfbfbf" stroke="black" points="43.5,-116.5 43.5,-195.5 141.5,-195.5 141.5,-116.5 43.5,-116.5"/>
<text text-anchor="middle" x="92.5" y="-183.5" font-family="Helvetica,sans-Serif" font-size="10.00">liger::ecs::IScript</text>
<polyline fill="none" stroke="black" points="43.5,-176.5 141.5,-176.5 "/>
<text text-anchor="middle" x="92.5" y="-164.5" font-family="Helvetica,sans-Serif" font-size="10.00"> </text>
<polyline fill="none" stroke="black" points="43.5,-157.5 141.5,-157.5 "/>
<text text-anchor="start" x="51.5" y="-145.5" font-family="Helvetica,sans-Serif" font-size="10.00">+ ~IScript()</text>
<text text-anchor="start" x="51.5" y="-134.5" font-family="Helvetica,sans-Serif" font-size="10.00">+ OnAttach()</text>
<text text-anchor="start" x="51.5" y="-123.5" font-family="Helvetica,sans-Serif" font-size="10.00">+ OnUpdate()</text>
</a>
</g>
</g>
<!-- Node2 -->
<g id="node2" class="node">
<title>Node2</title>
<g id="a_node2"><a xlink:href="classliger_1_1ecs_1_1_camera_movement_script.html" target="_top" xlink:title=" ">
<polygon fill="white" stroke="black" points="0,-0.5 0,-79.5 185,-79.5 185,-0.5 0,-0.5"/>
<text text-anchor="middle" x="92.5" y="-67.5" font-family="Helvetica,sans-Serif" font-size="10.00">liger::ecs::CameraMovementScript</text>
<polyline fill="none" stroke="black" points="0,-60.5 185,-60.5 "/>
<text text-anchor="start" x="8" y="-48.5" font-family="Helvetica,sans-Serif" font-size="10.00">+ kSpeed</text>
<polyline fill="none" stroke="black" points="0,-41.5 185,-41.5 "/>
<text text-anchor="start" x="8" y="-29.5" font-family="Helvetica,sans-Serif" font-size="10.00">+ CameraMovementScript()</text>
<text text-anchor="start" x="8" y="-18.5" font-family="Helvetica,sans-Serif" font-size="10.00">+ OnAttach()</text>
<text text-anchor="start" x="8" y="-7.5" font-family="Helvetica,sans-Serif" font-size="10.00">+ OnUpdate()</text>
</a>
</g>
</g>
<!-- Node1&#45;&gt;Node2 -->
<g id="edge1" class="edge">
<title>Node1&#45;&gt;Node2</title>
<path fill="none" stroke="midnightblue" d="M92.5,-106.15C92.5,-97.26 92.5,-88.1 92.5,-79.56"/>
<polygon fill="none" stroke="midnightblue" points="89,-106.4 92.5,-116.4 96,-106.4 89,-106.4"/>
</g>
</g>
</svg>
