<?xml version="1.0" encoding="UTF-8" standalone="no"?>
<!DOCTYPE svg PUBLIC "-//W3C//DTD SVG 1.1//EN"
 "http://www.w3.org/Graphics/SVG/1.1/DTD/svg11.dtd">
<!-- Generated by graphviz version 2.43.0 (0)
 -->
<!-- Title: liger::RefCountStorage&lt; Key, Value &gt; Pages: 1 -->
<svg width="208pt" height="281pt"
 viewBox="0.00 0.00 208.00 281.00" xmlns="http://www.w3.org/2000/svg" xmlns:xlink="http://www.w3.org/1999/xlink">
<g id="graph0" class="graph" transform="scale(1 1) rotate(0) translate(4 277)">
<title>liger::RefCountStorage&lt; Key, Value &gt;</title>
<polygon fill="white" stroke="transparent" points="-4,4 -4,-277 204,-277 204,4 -4,4"/>
<!-- Node1 -->
<g id="node1" class="node">
<title>Node1</title>
<g id="a_node1"><a xlink:title=" ">
<polygon fill="#bfbfbf" stroke="black" points="0,-160.5 0,-272.5 200,-272.5 200,-160.5 0,-160.5"/>
<text text-anchor="middle" x="100" y="-260.5" font-family="Helvetica,sans-Serif" font-size="10.00">liger::RefCountStorage&lt; Key, Value &gt;</text>
<polyline fill="none" stroke="black" points="0,-253.5 200,-253.5 "/>
<text text-anchor="middle" x="100" y="-241.5" font-family="Helvetica,sans-Serif" font-size="10.00"> </text>
<polyline fill="none" stroke="black" points="0,-234.5 200,-234.5 "/>
<text text-anchor="start" x="8" y="-222.5" font-family="Helvetica,sans-Serif" font-size="10.00">+ RefCountStorage()</text>
<text text-anchor="start" x="8" y="-211.5" font-family="Helvetica,sans-Serif" font-size="10.00">+ ~RefCountStorage()</text>
<text text-anchor="start" x="8" y="-200.5" font-family="Helvetica,sans-Serif" font-size="10.00">+ RefCountStorage()</text>
<text text-anchor="start" x="8" y="-189.5" font-family="Helvetica,sans-Serif" font-size="10.00">+ operator=()</text>
<text text-anchor="start" x="8" y="-178.5" font-family="Helvetica,sans-Serif" font-size="10.00">+ RefCountStorage()</text>
<text text-anchor="start" x="8" y="-167.5" font-family="Helvetica,sans-Serif" font-size="10.00">and 5 more...</text>
</a>
</g>
</g>
<!-- Node2 -->
<g id="node2" class="node">
<title>Node2</title>
<g id="a_node2"><a xlink:href="classliger_1_1_ref_count_storage.html" target="_top" xlink:title=" ">
<polygon fill="white" stroke="black" points="12,-0.5 12,-112.5 188,-112.5 188,-0.5 12,-0.5"/>
<text text-anchor="middle" x="100" y="-100.5" font-family="Helvetica,sans-Serif" font-size="10.00">liger::RefCountStorage&lt; Asset &gt;</text>
<polyline fill="none" stroke="black" points="12,-93.5 188,-93.5 "/>
<text text-anchor="middle" x="100" y="-81.5" font-family="Helvetica,sans-Serif" font-size="10.00"> </text>
<polyline fill="none" stroke="black" points="12,-74.5 188,-74.5 "/>
<text text-anchor="start" x="20" y="-62.5" font-family="Helvetica,sans-Serif" font-size="10.00">+ RefCountStorage()</text>
<text text-anchor="start" x="20" y="-51.5" font-family="Helvetica,sans-Serif" font-size="10.00">+ RefCountStorage()</text>
<text text-anchor="start" x="20" y="-40.5" font-family="Helvetica,sans-Serif" font-size="10.00">+ RefCountStorage()</text>
<text text-anchor="start" x="20" y="-29.5" font-family="Helvetica,sans-Serif" font-size="10.00">+ ~RefCountStorage()</text>
<text text-anchor="start" x="20" y="-18.5" font-family="Helvetica,sans-Serif" font-size="10.00">+ operator=()</text>
<text text-anchor="start" x="20" y="-7.5" font-family="Helvetica,sans-Serif" font-size="10.00">and 5 more...</text>
</a>
</g>
</g>
<!-- Node1&#45;&gt;Node2 -->
<g id="edge1" class="edge">
<title>Node1&#45;&gt;Node2</title>
<path fill="none" stroke="orange" d="M100,-149.97C100,-137.59 100,-124.76 100,-112.73"/>
<polygon fill="orange" stroke="orange" points="96.5,-150.24 100,-160.24 103.5,-150.24 96.5,-150.24"/>
<text text-anchor="middle" x="126.5" y="-134" font-family="Helvetica,sans-Serif" font-size="10.00"> &lt; Asset &gt;</text>
</g>
</g>
</svg>
