<?xml version="1.0" encoding="UTF-8" standalone="no"?>
<!DOCTYPE svg PUBLIC "-//W3C//DTD SVG 1.1//EN"
 "http://www.w3.org/Graphics/SVG/1.1/DTD/svg11.dtd">
<!-- Generated by graphviz version 2.43.0 (0)
 -->
<!-- Title: liger::asset::Handle&lt; Asset &gt; Pages: 1 -->
<svg width="889pt" height="292pt"
 viewBox="0.00 0.00 889.00 292.00" xmlns="http://www.w3.org/2000/svg" xmlns:xlink="http://www.w3.org/1999/xlink">
<g id="graph0" class="graph" transform="scale(1 1) rotate(0) translate(4 288)">
<title>liger::asset::Handle&lt; Asset &gt;</title>
<polygon fill="white" stroke="transparent" points="-4,4 -4,-288 885,-288 885,4 -4,4"/>
<!-- Node1 -->
<g id="node1" class="node">
<title>Node1</title>
<g id="a_node1"><a xlink:title="Ref&#45;counted asset handle with state info.">
<polygon fill="#bfbfbf" stroke="black" points="349.5,-171.5 349.5,-283.5 510.5,-283.5 510.5,-171.5 349.5,-171.5"/>
<text text-anchor="middle" x="430" y="-271.5" font-family="Helvetica,sans-Serif" font-size="10.00">liger::asset::Handle&lt; Asset &gt;</text>
<polyline fill="none" stroke="black" points="349.5,-264.5 510.5,-264.5 "/>
<text text-anchor="middle" x="430" y="-252.5" font-family="Helvetica,sans-Serif" font-size="10.00"> </text>
<polyline fill="none" stroke="black" points="349.5,-245.5 510.5,-245.5 "/>
<text text-anchor="start" x="357.5" y="-233.5" font-family="Helvetica,sans-Serif" font-size="10.00">+ Handle()</text>
<text text-anchor="start" x="357.5" y="-222.5" font-family="Helvetica,sans-Serif" font-size="10.00">+ operator*()</text>
<text text-anchor="start" x="357.5" y="-211.5" font-family="Helvetica,sans-Serif" font-size="10.00">+ operator&#45;&gt;()</text>
<text text-anchor="start" x="357.5" y="-200.5" font-family="Helvetica,sans-Serif" font-size="10.00">+ operator*()</text>
<text text-anchor="start" x="357.5" y="-189.5" font-family="Helvetica,sans-Serif" font-size="10.00">+ operator&#45;&gt;()</text>
<text text-anchor="start" x="357.5" y="-178.5" font-family="Helvetica,sans-Serif" font-size="10.00">and 3 more...</text>
</a>
</g>
</g>
<!-- Node2 -->
<g id="node2" class="node">
<title>Node2</title>
<g id="a_node2"><a xlink:href="classliger_1_1asset_1_1_handle.html" target="_top" xlink:title=" ">
<polygon fill="white" stroke="black" points="0,-0.5 0,-123.5 182,-123.5 182,-0.5 0,-0.5"/>
<text text-anchor="start" x="8" y="-111.5" font-family="Helvetica,sans-Serif" font-size="10.00">liger::asset::Handle&lt; liger::render</text>
<text text-anchor="middle" x="91" y="-100.5" font-family="Helvetica,sans-Serif" font-size="10.00">::Material &gt;</text>
<polyline fill="none" stroke="black" points="0,-93.5 182,-93.5 "/>
<text text-anchor="middle" x="91" y="-81.5" font-family="Helvetica,sans-Serif" font-size="10.00"> </text>
<polyline fill="none" stroke="black" points="0,-74.5 182,-74.5 "/>
<text text-anchor="start" x="8" y="-62.5" font-family="Helvetica,sans-Serif" font-size="10.00">+ Handle()</text>
<text text-anchor="start" x="8" y="-51.5" font-family="Helvetica,sans-Serif" font-size="10.00">+ operator*()</text>
<text text-anchor="start" x="8" y="-40.5" font-family="Helvetica,sans-Serif" font-size="10.00">+ operator*()</text>
<text text-anchor="start" x="8" y="-29.5" font-family="Helvetica,sans-Serif" font-size="10.00">+ operator&#45;&gt;()</text>
<text text-anchor="start" x="8" y="-18.5" font-family="Helvetica,sans-Serif" font-size="10.00">+ operator&#45;&gt;()</text>
<text text-anchor="start" x="8" y="-7.5" font-family="Helvetica,sans-Serif" font-size="10.00">and 3 more...</text>
</a>
</g>
</g>
<!-- Node1&#45;&gt;Node2 -->
<g id="edge1" class="edge">
<title>Node1&#45;&gt;Node2</title>
<path fill="none" stroke="orange" d="M339.61,-196.08C306.72,-183.98 269.63,-169.09 237,-153 218.84,-144.04 200.03,-133.5 182.19,-122.83"/>
<polygon fill="orange" stroke="orange" points="338.62,-199.45 349.22,-199.58 341.02,-192.87 338.62,-199.45"/>
<text text-anchor="middle" x="303" y="-145" font-family="Helvetica,sans-Serif" font-size="10.00"> &lt; liger::render::Material &gt;</text>
</g>
<!-- Node3 -->
<g id="node3" class="node">
<title>Node3</title>
<g id="a_node3"><a xlink:href="classliger_1_1asset_1_1_handle.html" target="_top" xlink:title=" ">
<polygon fill="white" stroke="black" points="200,-6 200,-118 434,-118 434,-6 200,-6"/>
<text text-anchor="middle" x="317" y="-106" font-family="Helvetica,sans-Serif" font-size="10.00">liger::asset::Handle&lt; liger::shader::Shader &gt;</text>
<polyline fill="none" stroke="black" points="200,-99 434,-99 "/>
<text text-anchor="middle" x="317" y="-87" font-family="Helvetica,sans-Serif" font-size="10.00"> </text>
<polyline fill="none" stroke="black" points="200,-80 434,-80 "/>
<text text-anchor="start" x="208" y="-68" font-family="Helvetica,sans-Serif" font-size="10.00">+ Handle()</text>
<text text-anchor="start" x="208" y="-57" font-family="Helvetica,sans-Serif" font-size="10.00">+ operator*()</text>
<text text-anchor="start" x="208" y="-46" font-family="Helvetica,sans-Serif" font-size="10.00">+ operator*()</text>
<text text-anchor="start" x="208" y="-35" font-family="Helvetica,sans-Serif" font-size="10.00">+ operator&#45;&gt;()</text>
<text text-anchor="start" x="208" y="-24" font-family="Helvetica,sans-Serif" font-size="10.00">+ operator&#45;&gt;()</text>
<text text-anchor="start" x="208" y="-13" font-family="Helvetica,sans-Serif" font-size="10.00">and 3 more...</text>
</a>
</g>
</g>
<!-- Node1&#45;&gt;Node3 -->
<g id="edge2" class="edge">
<title>Node1&#45;&gt;Node3</title>
<path fill="none" stroke="orange" d="M385.83,-162.59C375.65,-147.86 364.91,-132.33 355.03,-118.02"/>
<polygon fill="orange" stroke="orange" points="383.18,-164.91 391.74,-171.15 388.94,-160.93 383.18,-164.91"/>
<text text-anchor="middle" x="439.5" y="-145" font-family="Helvetica,sans-Serif" font-size="10.00"> &lt; liger::shader::Shader &gt;</text>
</g>
<!-- Node4 -->
<g id="node4" class="node">
<title>Node4</title>
<g id="a_node4"><a xlink:href="classliger_1_1asset_1_1_handle.html" target="_top" xlink:title=" ">
<polygon fill="white" stroke="black" points="452,-0.5 452,-123.5 634,-123.5 634,-0.5 452,-0.5"/>
<text text-anchor="start" x="460" y="-111.5" font-family="Helvetica,sans-Serif" font-size="10.00">liger::asset::Handle&lt; liger::render</text>
<text text-anchor="middle" x="543" y="-100.5" font-family="Helvetica,sans-Serif" font-size="10.00">::StaticMesh &gt;</text>
<polyline fill="none" stroke="black" points="452,-93.5 634,-93.5 "/>
<text text-anchor="middle" x="543" y="-81.5" font-family="Helvetica,sans-Serif" font-size="10.00"> </text>
<polyline fill="none" stroke="black" points="452,-74.5 634,-74.5 "/>
<text text-anchor="start" x="460" y="-62.5" font-family="Helvetica,sans-Serif" font-size="10.00">+ Handle()</text>
<text text-anchor="start" x="460" y="-51.5" font-family="Helvetica,sans-Serif" font-size="10.00">+ operator*()</text>
<text text-anchor="start" x="460" y="-40.5" font-family="Helvetica,sans-Serif" font-size="10.00">+ operator*()</text>
<text text-anchor="start" x="460" y="-29.5" font-family="Helvetica,sans-Serif" font-size="10.00">+ operator&#45;&gt;()</text>
<text text-anchor="start" x="460" y="-18.5" font-family="Helvetica,sans-Serif" font-size="10.00">+ operator&#45;&gt;()</text>
<text text-anchor="start" x="460" y="-7.5" font-family="Helvetica,sans-Serif" font-size="10.00">and 3 more...</text>
</a>
</g>
</g>
<!-- Node1&#45;&gt;Node4 -->
<g id="edge3" class="edge">
<title>Node1&#45;&gt;Node4</title>
<path fill="none" stroke="orange" d="M499.31,-163.45C502.03,-160.02 504.61,-156.53 507,-153 513.03,-144.08 518.3,-133.99 522.81,-123.88"/>
<polygon fill="orange" stroke="orange" points="496.45,-161.41 492.73,-171.33 501.82,-165.9 496.45,-161.41"/>
<text text-anchor="middle" x="584.5" y="-145" font-family="Helvetica,sans-Serif" font-size="10.00"> &lt; liger::render::StaticMesh &gt;</text>
</g>
<!-- Node5 -->
<g id="node5" class="node">
<title>Node5</title>
<g id="a_node5"><a xlink:href="classliger_1_1asset_1_1_handle.html" target="_top" xlink:title=" ">
<polygon fill="white" stroke="black" points="652,-0.5 652,-123.5 828,-123.5 828,-0.5 652,-0.5"/>
<text text-anchor="start" x="660" y="-111.5" font-family="Helvetica,sans-Serif" font-size="10.00">liger::asset::Handle&lt; std::unique</text>
<text text-anchor="middle" x="740" y="-100.5" font-family="Helvetica,sans-Serif" font-size="10.00">_ptr&lt; liger::rhi::ITexture &gt; &gt;</text>
<polyline fill="none" stroke="black" points="652,-93.5 828,-93.5 "/>
<text text-anchor="middle" x="740" y="-81.5" font-family="Helvetica,sans-Serif" font-size="10.00"> </text>
<polyline fill="none" stroke="black" points="652,-74.5 828,-74.5 "/>
<text text-anchor="start" x="660" y="-62.5" font-family="Helvetica,sans-Serif" font-size="10.00">+ Handle()</text>
<text text-anchor="start" x="660" y="-51.5" font-family="Helvetica,sans-Serif" font-size="10.00">+ operator*()</text>
<text text-anchor="start" x="660" y="-40.5" font-family="Helvetica,sans-Serif" font-size="10.00">+ operator*()</text>
<text text-anchor="start" x="660" y="-29.5" font-family="Helvetica,sans-Serif" font-size="10.00">+ operator&#45;&gt;()</text>
<text text-anchor="start" x="660" y="-18.5" font-family="Helvetica,sans-Serif" font-size="10.00">+ operator&#45;&gt;()</text>
<text text-anchor="start" x="660" y="-7.5" font-family="Helvetica,sans-Serif" font-size="10.00">and 3 more...</text>
</a>
</g>
</g>
<!-- Node1&#45;&gt;Node5 -->
<g id="edge4" class="edge">
<title>Node1&#45;&gt;Node5</title>
<path fill="none" stroke="orange" d="M520.33,-209.77C565.18,-198.58 618.67,-180.69 661,-153 673.18,-145.03 684.61,-134.7 694.78,-123.88"/>
<polygon fill="orange" stroke="orange" points="519.5,-206.37 510.6,-212.12 521.14,-213.17 519.5,-206.37"/>
<text text-anchor="middle" x="777.5" y="-145" font-family="Helvetica,sans-Serif" font-size="10.00"> &lt; std::unique_ptr&lt; liger::rhi::ITexture &gt; &gt;</text>
</g>
</g>
</svg>
