<?xml version="1.0" encoding="UTF-8" standalone="no"?>
<!DOCTYPE svg PUBLIC "-//W3C//DTD SVG 1.1//EN"
 "http://www.w3.org/Graphics/SVG/1.1/DTD/svg11.dtd">
<!-- Generated by graphviz version 2.43.0 (0)
 -->
<!-- Title: liger::render::BloomFeature Pages: 1 -->
<svg width="158pt" height="259pt"
 viewBox="0.00 0.00 158.00 259.00" xmlns="http://www.w3.org/2000/svg" xmlns:xlink="http://www.w3.org/1999/xlink">
<g id="graph0" class="graph" transform="scale(1 1) rotate(0) translate(4 255)">
<title>liger::render::BloomFeature</title>
<polygon fill="white" stroke="transparent" points="-4,4 -4,-255 154,-255 154,4 -4,4"/>
<!-- Node1 -->
<g id="node1" class="node">
<title>Node1</title>
<g id="a_node1"><a xlink:title=" ">
<polygon fill="#bfbfbf" stroke="black" points="0,-0.5 0,-101.5 150,-101.5 150,-0.5 0,-0.5"/>
<text text-anchor="middle" x="75" y="-89.5" font-family="Helvetica,sans-Serif" font-size="10.00">liger::render::BloomFeature</text>
<polyline fill="none" stroke="black" points="0,-82.5 150,-82.5 "/>
<text text-anchor="middle" x="75" y="-70.5" font-family="Helvetica,sans-Serif" font-size="10.00"> </text>
<polyline fill="none" stroke="black" points="0,-63.5 150,-63.5 "/>
<text text-anchor="start" x="8" y="-51.5" font-family="Helvetica,sans-Serif" font-size="10.00">+ BloomFeature()</text>
<text text-anchor="start" x="8" y="-40.5" font-family="Helvetica,sans-Serif" font-size="10.00">+ ~BloomFeature()</text>
<text text-anchor="start" x="8" y="-29.5" font-family="Helvetica,sans-Serif" font-size="10.00">+ Name()</text>
<text text-anchor="start" x="8" y="-18.5" font-family="Helvetica,sans-Serif" font-size="10.00">+ SetupRenderGraph()</text>
<text text-anchor="start" x="8" y="-7.5" font-family="Helvetica,sans-Serif" font-size="10.00">+ UpdateInfo()</text>
</a>
</g>
</g>
<!-- Node2 -->
<g id="node2" class="node">
<title>Node2</title>
<g id="a_node2"><a xlink:href="classliger_1_1render_1_1_i_feature.html" target="_top" xlink:title=" ">
<polygon fill="white" stroke="black" points="6,-138.5 6,-250.5 144,-250.5 144,-138.5 6,-138.5"/>
<text text-anchor="middle" x="75" y="-238.5" font-family="Helvetica,sans-Serif" font-size="10.00">liger::render::IFeature</text>
<polyline fill="none" stroke="black" points="6,-231.5 144,-231.5 "/>
<text text-anchor="middle" x="75" y="-219.5" font-family="Helvetica,sans-Serif" font-size="10.00"> </text>
<polyline fill="none" stroke="black" points="6,-212.5 144,-212.5 "/>
<text text-anchor="start" x="14" y="-200.5" font-family="Helvetica,sans-Serif" font-size="10.00">+ ~IFeature()</text>
<text text-anchor="start" x="14" y="-189.5" font-family="Helvetica,sans-Serif" font-size="10.00">+ Name()</text>
<text text-anchor="start" x="14" y="-178.5" font-family="Helvetica,sans-Serif" font-size="10.00">+ DependencyFeatures()</text>
<text text-anchor="start" x="14" y="-167.5" font-family="Helvetica,sans-Serif" font-size="10.00">+ Layers()</text>
<text text-anchor="start" x="14" y="-156.5" font-family="Helvetica,sans-Serif" font-size="10.00">+ SetupRenderGraph()</text>
<text text-anchor="start" x="14" y="-145.5" font-family="Helvetica,sans-Serif" font-size="10.00">and 4 more...</text>
</a>
</g>
</g>
<!-- Node2&#45;&gt;Node1 -->
<g id="edge1" class="edge">
<title>Node2&#45;&gt;Node1</title>
<path fill="none" stroke="midnightblue" d="M75,-128.34C75,-119.38 75,-110.29 75,-101.66"/>
<polygon fill="none" stroke="midnightblue" points="71.5,-128.39 75,-138.39 78.5,-128.39 71.5,-128.39"/>
</g>
</g>
</svg>
