<?xml version="1.0" encoding="UTF-8" standalone="no"?>
<!DOCTYPE svg PUBLIC "-//W3C//DTD SVG 1.1//EN"
 "http://www.w3.org/Graphics/SVG/1.1/DTD/svg11.dtd">
<!-- Generated by graphviz version 2.43.0 (0)
 -->
<!-- Title: liger::render::ClusteredLightFeature Pages: 1 -->
<svg width="440pt" height="281pt"
 viewBox="0.00 0.00 439.50 281.00" xmlns="http://www.w3.org/2000/svg" xmlns:xlink="http://www.w3.org/1999/xlink">
<g id="graph0" class="graph" transform="scale(1 1) rotate(0) translate(4 277)">
<title>liger::render::ClusteredLightFeature</title>
<polygon fill="white" stroke="transparent" points="-4,4 -4,-277 435.5,-277 435.5,4 -4,4"/>
<!-- Node1 -->
<g id="node1" class="node">
<title>Node1</title>
<g id="a_node1"><a xlink:title=" ">
<polygon fill="#bfbfbf" stroke="black" points="86.5,-0.5 86.5,-123.5 275.5,-123.5 275.5,-0.5 86.5,-0.5"/>
<text text-anchor="middle" x="181" y="-111.5" font-family="Helvetica,sans-Serif" font-size="10.00">liger::render::ClusteredLightFeature</text>
<polyline fill="none" stroke="black" points="86.5,-104.5 275.5,-104.5 "/>
<text text-anchor="start" x="94.5" y="-92.5" font-family="Helvetica,sans-Serif" font-size="10.00">+ kClusterSizeXY</text>
<text text-anchor="start" x="94.5" y="-81.5" font-family="Helvetica,sans-Serif" font-size="10.00">+ kMaxLightsPerCluster</text>
<polyline fill="none" stroke="black" points="86.5,-74.5 275.5,-74.5 "/>
<text text-anchor="start" x="94.5" y="-62.5" font-family="Helvetica,sans-Serif" font-size="10.00">+ ClusteredLightFeature()</text>
<text text-anchor="start" x="94.5" y="-51.5" font-family="Helvetica,sans-Serif" font-size="10.00">+ ~ClusteredLightFeature()</text>
<text text-anchor="start" x="94.5" y="-40.5" font-family="Helvetica,sans-Serif" font-size="10.00">+ Name()</text>
<text text-anchor="start" x="94.5" y="-29.5" font-family="Helvetica,sans-Serif" font-size="10.00">+ SetupRenderGraph()</text>
<text text-anchor="start" x="94.5" y="-18.5" font-family="Helvetica,sans-Serif" font-size="10.00">+ SetupEntitySystems()</text>
<text text-anchor="start" x="94.5" y="-7.5" font-family="Helvetica,sans-Serif" font-size="10.00">and 3 more...</text>
</a>
</g>
</g>
<!-- Node2 -->
<g id="node2" class="node">
<title>Node2</title>
<g id="a_node2"><a xlink:href="classliger_1_1render_1_1_i_feature.html" target="_top" xlink:title=" ">
<polygon fill="white" stroke="black" points="0,-160.5 0,-272.5 138,-272.5 138,-160.5 0,-160.5"/>
<text text-anchor="middle" x="69" y="-260.5" font-family="Helvetica,sans-Serif" font-size="10.00">liger::render::IFeature</text>
<polyline fill="none" stroke="black" points="0,-253.5 138,-253.5 "/>
<text text-anchor="middle" x="69" y="-241.5" font-family="Helvetica,sans-Serif" font-size="10.00"> </text>
<polyline fill="none" stroke="black" points="0,-234.5 138,-234.5 "/>
<text text-anchor="start" x="8" y="-222.5" font-family="Helvetica,sans-Serif" font-size="10.00">+ ~IFeature()</text>
<text text-anchor="start" x="8" y="-211.5" font-family="Helvetica,sans-Serif" font-size="10.00">+ Name()</text>
<text text-anchor="start" x="8" y="-200.5" font-family="Helvetica,sans-Serif" font-size="10.00">+ DependencyFeatures()</text>
<text text-anchor="start" x="8" y="-189.5" font-family="Helvetica,sans-Serif" font-size="10.00">+ Layers()</text>
<text text-anchor="start" x="8" y="-178.5" font-family="Helvetica,sans-Serif" font-size="10.00">+ SetupRenderGraph()</text>
<text text-anchor="start" x="8" y="-167.5" font-family="Helvetica,sans-Serif" font-size="10.00">and 4 more...</text>
</a>
</g>
</g>
<!-- Node2&#45;&gt;Node1 -->
<g id="edge1" class="edge">
<title>Node2&#45;&gt;Node1</title>
<path fill="none" stroke="midnightblue" d="M115.47,-152.22C122.41,-142.77 129.55,-133.05 136.45,-123.66"/>
<polygon fill="none" stroke="midnightblue" points="112.53,-150.31 109.43,-160.44 118.17,-154.46 112.53,-150.31"/>
</g>
<!-- Node3 -->
<g id="node3" class="node">
<title>Node3</title>
<g id="a_node3"><a xlink:title=" ">
<polygon fill="white" stroke="#bfbfbf" points="156.5,-182.5 156.5,-250.5 431.5,-250.5 431.5,-182.5 156.5,-182.5"/>
<text text-anchor="start" x="164.5" y="-238.5" font-family="Helvetica,sans-Serif" font-size="10.00">ecs::ComponentSystem&lt; const ecs::WorldTransform,</text>
<text text-anchor="middle" x="294" y="-227.5" font-family="Helvetica,sans-Serif" font-size="10.00"> const PointLightInfo &gt;</text>
<polyline fill="none" stroke="#bfbfbf" points="156.5,-220.5 431.5,-220.5 "/>
<text text-anchor="middle" x="294" y="-208.5" font-family="Helvetica,sans-Serif" font-size="10.00"> </text>
<polyline fill="none" stroke="#bfbfbf" points="156.5,-201.5 431.5,-201.5 "/>
<text text-anchor="middle" x="294" y="-189.5" font-family="Helvetica,sans-Serif" font-size="10.00"> </text>
</a>
</g>
</g>
<!-- Node3&#45;&gt;Node1 -->
<g id="edge2" class="edge">
<title>Node3&#45;&gt;Node1</title>
<path fill="none" stroke="#8b1a1a" d="M263.3,-174.06C251.8,-158.55 238.49,-140.59 225.97,-123.69"/>
<polygon fill="none" stroke="#8b1a1a" points="260.71,-176.46 269.48,-182.41 266.34,-172.29 260.71,-176.46"/>
</g>
</g>
</svg>
