<?xml version="1.0" encoding="UTF-8" standalone="no"?>
<!DOCTYPE svg PUBLIC "-//W3C//DTD SVG 1.1//EN"
 "http://www.w3.org/Graphics/SVG/1.1/DTD/svg11.dtd">
<!-- Generated by graphviz version 2.43.0 (0)
 -->
<!-- Title: liger::rhi::detail::DependentTextureValue&lt; T, DependencyT &gt; Pages: 1 -->
<!--zoomable 303 -->
<svg id="main" version="1.1" xmlns="http://www.w3.org/2000/svg" xmlns:xlink="http://www.w3.org/1999/xlink" xml:space="preserve" onload="init(evt)">
<style type="text/css"><![CDATA[
.edge:hover path { stroke: red; }
.edge:hover polygon { stroke: red; fill: red; }
]]></style>
<script type="text/javascript"><![CDATA[
var edges = document.getElementsByTagName('g');
if (edges && edges.length) {
  for (var i=0;i<edges.length;i++) {
    if (edges[i].id.substr(0,4)=='edge') {
      edges[i].setAttribute('class','edge');
    }
  }
}
]]></script>
        <defs>
                <circle id="rim" cx="0" cy="0" r="7"/>
                <circle id="rim2" cx="0" cy="0" r="3.5"/>
                <g id="zoomPlus">
                        <use xlink:href="#rim" fill="#404040">
                                <set attributeName="fill" to="#808080" begin="zoomplus.mouseover" end="zoomplus.mouseout"/>
                        </use>
                        <path d="M-4,0h8M0,-4v8" fill="none" stroke="white" stroke-width="1.5" pointer-events="none"/>
                </g>
                <g id="zoomMin">
                        <use xlink:href="#rim" fill="#404040">
                                <set attributeName="fill" to="#808080" begin="zoomminus.mouseover" end="zoomminus.mouseout"/>
                        </use>
                        <path d="M-4,0h8" fill="none" stroke="white" stroke-width="1.5" pointer-events="none"/>
                </g>
                <g id="dirArrow">
                        <path fill="none" stroke="white" stroke-width="1.5" d="M0,-3.0v7 M-2.5,-0.5L0,-3.0L2.5,-0.5"/>
                </g>
               <g id="resetDef">
                       <use xlink:href="#rim2" fill="#404040">
                               <set attributeName="fill" to="#808080" begin="reset.mouseover" end="reset.mouseout"/>
                       </use>
               </g>
        </defs>

<script type="text/javascript">
var viewWidth = 914;
var viewHeight = 303;
var sectionId = 'dynsection-0';
</script>
<script xlink:href="svgpan.js"/>
<svg id="graph" class="graph">
<g id="viewport">
<title>liger::rhi::detail::DependentTextureValue&lt; T, DependencyT &gt;</title>
<polygon fill="white" stroke="transparent" points="-4,4 -4,-299 910,-299 910,4 -4,4"/>
<!-- Node1 -->
<g id="node1" class="node">
<title>Node1</title>
<g id="a_node1"><a xlink:title=" ">
<polygon fill="#bfbfbf" stroke="black" points="346,-171.5 346,-294.5 559,-294.5 559,-171.5 346,-171.5"/>
<text text-anchor="start" x="354" y="-282.5" font-family="Helvetica,sans-Serif" font-size="10.00">liger::rhi::detail::DependentTextureValue</text>
<text text-anchor="middle" x="452.5" y="-271.5" font-family="Helvetica,sans-Serif" font-size="10.00">&lt; T, DependencyT &gt;</text>
<polyline fill="none" stroke="black" points="346,-264.5 559,-264.5 "/>
<text text-anchor="middle" x="452.5" y="-252.5" font-family="Helvetica,sans-Serif" font-size="10.00"> </text>
<polyline fill="none" stroke="black" points="346,-245.5 559,-245.5 "/>
<text text-anchor="start" x="354" y="-233.5" font-family="Helvetica,sans-Serif" font-size="10.00">+ DependentTextureValue()</text>
<text text-anchor="start" x="354" y="-222.5" font-family="Helvetica,sans-Serif" font-size="10.00">+ explicit()</text>
<text text-anchor="start" x="354" y="-211.5" font-family="Helvetica,sans-Serif" font-size="10.00">+ Get()</text>
<text text-anchor="start" x="354" y="-200.5" font-family="Helvetica,sans-Serif" font-size="10.00">+ IsDependent()</text>
<text text-anchor="start" x="354" y="-189.5" font-family="Helvetica,sans-Serif" font-size="10.00">+ SetIndependent()</text>
<text text-anchor="start" x="354" y="-178.5" font-family="Helvetica,sans-Serif" font-size="10.00">and 3 more...</text>
</a>
</g>
</g>
<!-- Node2 -->
<g id="node2" class="node">
<title>Node2</title>
<g id="a_node2"><a xlink:href="classliger_1_1rhi_1_1detail_1_1_dependent_texture_value.html" target="_top" xlink:title=" ">
<polygon fill="white" stroke="black" points="0,-0.5 0,-123.5 213,-123.5 213,-0.5 0,-0.5"/>
<text text-anchor="start" x="8" y="-111.5" font-family="Helvetica,sans-Serif" font-size="10.00">liger::rhi::detail::DependentTextureValue</text>
<text text-anchor="middle" x="106.5" y="-100.5" font-family="Helvetica,sans-Serif" font-size="10.00">&lt; uint32_t, DependencyT &gt;</text>
<polyline fill="none" stroke="black" points="0,-93.5 213,-93.5 "/>
<text text-anchor="middle" x="106.5" y="-81.5" font-family="Helvetica,sans-Serif" font-size="10.00"> </text>
<polyline fill="none" stroke="black" points="0,-74.5 213,-74.5 "/>
<text text-anchor="start" x="8" y="-62.5" font-family="Helvetica,sans-Serif" font-size="10.00">+ DependentTextureValue()</text>
<text text-anchor="start" x="8" y="-51.5" font-family="Helvetica,sans-Serif" font-size="10.00">+ explicit()</text>
<text text-anchor="start" x="8" y="-40.5" font-family="Helvetica,sans-Serif" font-size="10.00">+ Get()</text>
<text text-anchor="start" x="8" y="-29.5" font-family="Helvetica,sans-Serif" font-size="10.00">+ IsDependent()</text>
<text text-anchor="start" x="8" y="-18.5" font-family="Helvetica,sans-Serif" font-size="10.00">+ SetIndependent()</text>
<text text-anchor="start" x="8" y="-7.5" font-family="Helvetica,sans-Serif" font-size="10.00">and 3 more...</text>
</a>
</g>
</g>
<!-- Node1&#45;&gt;Node2 -->
<g id="edge1" class="edge">
<title>Node1&#45;&gt;Node2</title>
<path fill="none" stroke="orange" d="M336.13,-204.56C294.62,-192.12 248.51,-175.14 209.5,-153 195.15,-144.85 181,-134.5 167.99,-123.73"/>
<polygon fill="orange" stroke="orange" points="335.16,-207.92 345.74,-207.38 337.14,-201.2 335.16,-207.92"/>
<text text-anchor="middle" x="279" y="-145" font-family="Helvetica,sans-Serif" font-size="10.00"> &lt; uint32_t, DependencyT &gt;</text>
</g>
<!-- Node3 -->
<g id="node3" class="node">
<title>Node3</title>
<g id="a_node3"><a xlink:href="classliger_1_1rhi_1_1detail_1_1_dependent_texture_value.html" target="_top" xlink:title=" ">
<polygon fill="white" stroke="black" points="231,-0.5 231,-123.5 444,-123.5 444,-0.5 231,-0.5"/>
<text text-anchor="start" x="239" y="-111.5" font-family="Helvetica,sans-Serif" font-size="10.00">liger::rhi::detail::DependentTextureValue</text>
<text text-anchor="middle" x="337.5" y="-100.5" font-family="Helvetica,sans-Serif" font-size="10.00">&lt; liger::rhi::Extent3D, DependencyT &gt;</text>
<polyline fill="none" stroke="black" points="231,-93.5 444,-93.5 "/>
<text text-anchor="middle" x="337.5" y="-81.5" font-family="Helvetica,sans-Serif" font-size="10.00"> </text>
<polyline fill="none" stroke="black" points="231,-74.5 444,-74.5 "/>
<text text-anchor="start" x="239" y="-62.5" font-family="Helvetica,sans-Serif" font-size="10.00">+ DependentTextureValue()</text>
<text text-anchor="start" x="239" y="-51.5" font-family="Helvetica,sans-Serif" font-size="10.00">+ explicit()</text>
<text text-anchor="start" x="239" y="-40.5" font-family="Helvetica,sans-Serif" font-size="10.00">+ Get()</text>
<text text-anchor="start" x="239" y="-29.5" font-family="Helvetica,sans-Serif" font-size="10.00">+ IsDependent()</text>
<text text-anchor="start" x="239" y="-18.5" font-family="Helvetica,sans-Serif" font-size="10.00">+ SetIndependent()</text>
<text text-anchor="start" x="239" y="-7.5" font-family="Helvetica,sans-Serif" font-size="10.00">and 3 more...</text>
</a>
</g>
</g>
<!-- Node1&#45;&gt;Node3 -->
<g id="edge2" class="edge">
<title>Node1&#45;&gt;Node3</title>
<path fill="none" stroke="orange" d="M363.75,-163.62C361.14,-160.18 358.7,-156.63 356.5,-153 351.12,-144.12 347.24,-133.95 344.46,-123.72"/>
<polygon fill="orange" stroke="orange" points="361.12,-165.93 370.15,-171.47 366.54,-161.51 361.12,-165.93"/>
<text text-anchor="middle" x="451.5" y="-145" font-family="Helvetica,sans-Serif" font-size="10.00"> &lt; liger::rhi::Extent3D, DependencyT &gt;</text>
</g>
<!-- Node4 -->
<g id="node4" class="node">
<title>Node4</title>
<g id="a_node4"><a xlink:href="classliger_1_1rhi_1_1detail_1_1_dependent_texture_value.html" target="_top" xlink:title=" ">
<polygon fill="white" stroke="black" points="462,-0.5 462,-123.5 675,-123.5 675,-0.5 462,-0.5"/>
<text text-anchor="start" x="470" y="-111.5" font-family="Helvetica,sans-Serif" font-size="10.00">liger::rhi::detail::DependentTextureValue</text>
<text text-anchor="middle" x="568.5" y="-100.5" font-family="Helvetica,sans-Serif" font-size="10.00">&lt; Format, DependencyT &gt;</text>
<polyline fill="none" stroke="black" points="462,-93.5 675,-93.5 "/>
<text text-anchor="middle" x="568.5" y="-81.5" font-family="Helvetica,sans-Serif" font-size="10.00"> </text>
<polyline fill="none" stroke="black" points="462,-74.5 675,-74.5 "/>
<text text-anchor="start" x="470" y="-62.5" font-family="Helvetica,sans-Serif" font-size="10.00">+ DependentTextureValue()</text>
<text text-anchor="start" x="470" y="-51.5" font-family="Helvetica,sans-Serif" font-size="10.00">+ explicit()</text>
<text text-anchor="start" x="470" y="-40.5" font-family="Helvetica,sans-Serif" font-size="10.00">+ Get()</text>
<text text-anchor="start" x="470" y="-29.5" font-family="Helvetica,sans-Serif" font-size="10.00">+ IsDependent()</text>
<text text-anchor="start" x="470" y="-18.5" font-family="Helvetica,sans-Serif" font-size="10.00">+ SetIndependent()</text>
<text text-anchor="start" x="470" y="-7.5" font-family="Helvetica,sans-Serif" font-size="10.00">and 3 more...</text>
</a>
</g>
</g>
<!-- Node1&#45;&gt;Node4 -->
<g id="edge3" class="edge">
<title>Node1&#45;&gt;Node4</title>
<path fill="none" stroke="orange" d="M539.26,-163.44C541.86,-160.05 544.29,-156.57 546.5,-153 552.02,-144.12 556.15,-133.95 559.25,-123.71"/>
<polygon fill="orange" stroke="orange" points="536.54,-161.24 532.91,-171.2 541.95,-165.68 536.54,-161.24"/>
<text text-anchor="middle" x="618" y="-145" font-family="Helvetica,sans-Serif" font-size="10.00"> &lt; Format, DependencyT &gt;</text>
</g>
<!-- Node5 -->
<g id="node5" class="node">
<title>Node5</title>
<g id="a_node5"><a xlink:href="classliger_1_1rhi_1_1detail_1_1_dependent_texture_value.html" target="_top" xlink:title=" ">
<polygon fill="white" stroke="black" points="693,-0.5 693,-123.5 906,-123.5 906,-0.5 693,-0.5"/>
<text text-anchor="start" x="701" y="-111.5" font-family="Helvetica,sans-Serif" font-size="10.00">liger::rhi::detail::DependentTextureValue</text>
<text text-anchor="middle" x="799.5" y="-100.5" font-family="Helvetica,sans-Serif" font-size="10.00">&lt; uint8_t, DependencyT &gt;</text>
<polyline fill="none" stroke="black" points="693,-93.5 906,-93.5 "/>
<text text-anchor="middle" x="799.5" y="-81.5" font-family="Helvetica,sans-Serif" font-size="10.00"> </text>
<polyline fill="none" stroke="black" points="693,-74.5 906,-74.5 "/>
<text text-anchor="start" x="701" y="-62.5" font-family="Helvetica,sans-Serif" font-size="10.00">+ DependentTextureValue()</text>
<text text-anchor="start" x="701" y="-51.5" font-family="Helvetica,sans-Serif" font-size="10.00">+ explicit()</text>
<text text-anchor="start" x="701" y="-40.5" font-family="Helvetica,sans-Serif" font-size="10.00">+ Get()</text>
<text text-anchor="start" x="701" y="-29.5" font-family="Helvetica,sans-Serif" font-size="10.00">+ IsDependent()</text>
<text text-anchor="start" x="701" y="-18.5" font-family="Helvetica,sans-Serif" font-size="10.00">+ SetIndependent()</text>
<text text-anchor="start" x="701" y="-7.5" font-family="Helvetica,sans-Serif" font-size="10.00">and 3 more...</text>
</a>
</g>
</g>
<!-- Node1&#45;&gt;Node5 -->
<g id="edge4" class="edge">
<title>Node1&#45;&gt;Node5</title>
<path fill="none" stroke="orange" d="M569.15,-202.05C608.35,-189.64 651.49,-173.32 688.5,-153 703.51,-144.76 718.49,-134.42 732.36,-123.72"/>
<polygon fill="orange" stroke="orange" points="567.78,-198.81 559.27,-205.12 569.86,-205.49 567.78,-198.81"/>
<text text-anchor="middle" x="771" y="-145" font-family="Helvetica,sans-Serif" font-size="10.00"> &lt; uint8_t, DependencyT &gt;</text>
</g>
</g>
</svg>
        <g id="navigator" transform="translate(0 0)" fill="#404254">
                <rect fill="#f2f5e9" fill-opacity="0.5" stroke="#606060" stroke-width=".5" x="0" y="0" width="60" height="60"/>
                <use id="zoomplus" xlink:href="#zoomPlus" x="17" y="9" onmousedown="handleZoom(evt,'in')"/>
                <use id="zoomminus" xlink:href="#zoomMin" x="42" y="9" onmousedown="handleZoom(evt,'out')"/>
                <use id="reset" xlink:href="#resetDef" x="30" y="36" onmousedown="handleReset()"/>
                <g id="arrowUp" xlink:href="#dirArrow" transform="translate(30 24)" onmousedown="handlePan(0,-1)">
                  <use xlink:href="#rim" fill="#404040">
                        <set attributeName="fill" to="#808080" begin="arrowUp.mouseover" end="arrowUp.mouseout"/>
                  </use>
                  <path fill="none" stroke="white" stroke-width="1.5" d="M0,-3.0v7 M-2.5,-0.5L0,-3.0L2.5,-0.5"/>
                </g>
                <g id="arrowRight" xlink:href="#dirArrow" transform="rotate(90) translate(36 -43)" onmousedown="handlePan(1,0)">
                  <use xlink:href="#rim" fill="#404040">
                        <set attributeName="fill" to="#808080" begin="arrowRight.mouseover" end="arrowRight.mouseout"/>
                  </use>
                  <path fill="none" stroke="white" stroke-width="1.5" d="M0,-3.0v7 M-2.5,-0.5L0,-3.0L2.5,-0.5"/>
                </g>
                <g id="arrowDown" xlink:href="#dirArrow" transform="rotate(180) translate(-30 -48)" onmousedown="handlePan(0,1)">
                  <use xlink:href="#rim" fill="#404040">
                        <set attributeName="fill" to="#808080" begin="arrowDown.mouseover" end="arrowDown.mouseout"/>
                  </use>
                  <path fill="none" stroke="white" stroke-width="1.5" d="M0,-3.0v7 M-2.5,-0.5L0,-3.0L2.5,-0.5"/>
                </g>
                <g id="arrowLeft" xlink:href="#dirArrow" transform="rotate(270) translate(-36 17)" onmousedown="handlePan(-1,0)">
                  <use xlink:href="#rim" fill="#404040">
                        <set attributeName="fill" to="#808080" begin="arrowLeft.mouseover" end="arrowLeft.mouseout"/>
                  </use>
                  <path fill="none" stroke="white" stroke-width="1.5" d="M0,-3.0v7 M-2.5,-0.5L0,-3.0L2.5,-0.5"/>
                </g>
        </g>
        <svg viewBox="0 0 15 15" width="100%" height="30px" preserveAspectRatio="xMaxYMin meet">
         <g id="arrow_out" transform="scale(0.3 0.3)">
          <a xlink:href="classliger_1_1rhi_1_1detail_1_1_dependent_texture_value__inherit__graph_org.svg" target="_base">
           <rect id="button" ry="5" rx="5" y="6" x="6" height="38" width="38"
                fill="#f2f5e9" fill-opacity="0.5" stroke="#606060" stroke-width="1.0"/>
           <path id="arrow"
             d="M 11.500037,31.436501 C 11.940474,20.09759 22.043105,11.32322 32.158766,21.979434 L 37.068811,17.246167 C 37.068811,17.246167 37.088388,32 37.088388,32 L 22.160133,31.978069 C 22.160133,31.978069 26.997745,27.140456 26.997745,27.140456 C 18.528582,18.264221 13.291696,25.230495 11.500037,31.436501 z"
             style="fill:#404040;"/>
          </a>
         </g>
        </svg>
</svg>
