<?xml version="1.0" encoding="UTF-8" standalone="no"?>
<!DOCTYPE svg PUBLIC "-//W3C//DTD SVG 1.1//EN"
 "http://www.w3.org/Graphics/SVG/1.1/DTD/svg11.dtd">
<!-- Generated by graphviz version 2.43.0 (0)
 -->
<!-- Title: liger::asset::loaders::TextureLoader Pages: 1 -->
<svg width="196pt" height="215pt"
 viewBox="0.00 0.00 196.00 215.00" xmlns="http://www.w3.org/2000/svg" xmlns:xlink="http://www.w3.org/1999/xlink">
<g id="graph0" class="graph" transform="scale(1 1) rotate(0) translate(4 211)">
<title>liger::asset::loaders::TextureLoader</title>
<polygon fill="white" stroke="transparent" points="-4,4 -4,-211 192,-211 192,4 -4,4"/>
<!-- Node1 -->
<g id="node1" class="node">
<title>Node1</title>
<g id="a_node1"><a xlink:title=" ">
<polygon fill="#bfbfbf" stroke="black" points="0,-0.5 0,-90.5 188,-90.5 188,-0.5 0,-0.5"/>
<text text-anchor="middle" x="94" y="-78.5" font-family="Helvetica,sans-Serif" font-size="10.00">liger::asset::loaders::TextureLoader</text>
<polyline fill="none" stroke="black" points="0,-71.5 188,-71.5 "/>
<text text-anchor="middle" x="94" y="-59.5" font-family="Helvetica,sans-Serif" font-size="10.00"> </text>
<polyline fill="none" stroke="black" points="0,-52.5 188,-52.5 "/>
<text text-anchor="start" x="8" y="-40.5" font-family="Helvetica,sans-Serif" font-size="10.00">+ TextureLoader()</text>
<text text-anchor="start" x="8" y="-29.5" font-family="Helvetica,sans-Serif" font-size="10.00">+ ~TextureLoader()</text>
<text text-anchor="start" x="8" y="-18.5" font-family="Helvetica,sans-Serif" font-size="10.00">+ FileExtensions()</text>
<text text-anchor="start" x="8" y="-7.5" font-family="Helvetica,sans-Serif" font-size="10.00">+ Load()</text>
</a>
</g>
</g>
<!-- Node2 -->
<g id="node2" class="node">
<title>Node2</title>
<g id="a_node2"><a xlink:href="classliger_1_1asset_1_1_i_loader.html" target="_top" xlink:title=" ">
<polygon fill="white" stroke="black" points="37.5,-127.5 37.5,-206.5 150.5,-206.5 150.5,-127.5 37.5,-127.5"/>
<text text-anchor="middle" x="94" y="-194.5" font-family="Helvetica,sans-Serif" font-size="10.00">liger::asset::ILoader</text>
<polyline fill="none" stroke="black" points="37.5,-187.5 150.5,-187.5 "/>
<text text-anchor="middle" x="94" y="-175.5" font-family="Helvetica,sans-Serif" font-size="10.00"> </text>
<polyline fill="none" stroke="black" points="37.5,-168.5 150.5,-168.5 "/>
<text text-anchor="start" x="45.5" y="-156.5" font-family="Helvetica,sans-Serif" font-size="10.00">+ ~ILoader()</text>
<text text-anchor="start" x="45.5" y="-145.5" font-family="Helvetica,sans-Serif" font-size="10.00">+ FileExtensions()</text>
<text text-anchor="start" x="45.5" y="-134.5" font-family="Helvetica,sans-Serif" font-size="10.00">+ Load()</text>
</a>
</g>
</g>
<!-- Node2&#45;&gt;Node1 -->
<g id="edge1" class="edge">
<title>Node2&#45;&gt;Node1</title>
<path fill="none" stroke="midnightblue" d="M94,-117.19C94,-108.49 94,-99.48 94,-90.91"/>
<polygon fill="none" stroke="midnightblue" points="90.5,-117.2 94,-127.2 97.5,-117.2 90.5,-117.2"/>
</g>
</g>
</svg>
