<?xml version="1.0" encoding="UTF-8" standalone="no"?>
<!DOCTYPE svg PUBLIC "-//W3C//DTD SVG 1.1//EN"
 "http://www.w3.org/Graphics/SVG/1.1/DTD/svg11.dtd">
<!-- Generated by graphviz version 2.43.0 (0)
 -->
<!-- Title: liger::render::IFeature Pages: 1 -->
<!--zoomable 281 -->
<svg id="main" version="1.1" xmlns="http://www.w3.org/2000/svg" xmlns:xlink="http://www.w3.org/1999/xlink" xml:space="preserve" onload="init(evt)">
<style type="text/css"><![CDATA[
.edge:hover path { stroke: red; }
.edge:hover polygon { stroke: red; fill: red; }
]]></style>
<script type="text/javascript"><![CDATA[
var edges = document.getElementsByTagName('g');
if (edges && edges.length) {
  for (var i=0;i<edges.length;i++) {
    if (edges[i].id.substr(0,4)=='edge') {
      edges[i].setAttribute('class','edge');
    }
  }
}
]]></script>
        <defs>
                <circle id="rim" cx="0" cy="0" r="7"/>
                <circle id="rim2" cx="0" cy="0" r="3.5"/>
                <g id="zoomPlus">
                        <use xlink:href="#rim" fill="#404040">
                                <set attributeName="fill" to="#808080" begin="zoomplus.mouseover" end="zoomplus.mouseout"/>
                        </use>
                        <path d="M-4,0h8M0,-4v8" fill="none" stroke="white" stroke-width="1.5" pointer-events="none"/>
                </g>
                <g id="zoomMin">
                        <use xlink:href="#rim" fill="#404040">
                                <set attributeName="fill" to="#808080" begin="zoomminus.mouseover" end="zoomminus.mouseout"/>
                        </use>
                        <path d="M-4,0h8" fill="none" stroke="white" stroke-width="1.5" pointer-events="none"/>
                </g>
                <g id="dirArrow">
                        <path fill="none" stroke="white" stroke-width="1.5" d="M0,-3.0v7 M-2.5,-0.5L0,-3.0L2.5,-0.5"/>
                </g>
               <g id="resetDef">
                       <use xlink:href="#rim2" fill="#404040">
                               <set attributeName="fill" to="#808080" begin="reset.mouseover" end="reset.mouseout"/>
                       </use>
               </g>
        </defs>

<script type="text/javascript">
var viewWidth = 1155;
var viewHeight = 281;
var sectionId = 'dynsection-0';
</script>
<script xlink:href="svgpan.js"/>
<svg id="graph" class="graph">
<g id="viewport">
<title>liger::render::IFeature</title>
<polygon fill="white" stroke="transparent" points="-4,4 -4,-277 1150.5,-277 1150.5,4 -4,4"/>
<!-- Node1 -->
<g id="node1" class="node">
<title>Node1</title>
<g id="a_node1"><a xlink:title=" ">
<polygon fill="#bfbfbf" stroke="black" points="505,-160.5 505,-272.5 643,-272.5 643,-160.5 505,-160.5"/>
<text text-anchor="middle" x="574" y="-260.5" font-family="Helvetica,sans-Serif" font-size="10.00">liger::render::IFeature</text>
<polyline fill="none" stroke="black" points="505,-253.5 643,-253.5 "/>
<text text-anchor="middle" x="574" y="-241.5" font-family="Helvetica,sans-Serif" font-size="10.00"> </text>
<polyline fill="none" stroke="black" points="505,-234.5 643,-234.5 "/>
<text text-anchor="start" x="513" y="-222.5" font-family="Helvetica,sans-Serif" font-size="10.00">+ ~IFeature()</text>
<text text-anchor="start" x="513" y="-211.5" font-family="Helvetica,sans-Serif" font-size="10.00">+ Name()</text>
<text text-anchor="start" x="513" y="-200.5" font-family="Helvetica,sans-Serif" font-size="10.00">+ DependencyFeatures()</text>
<text text-anchor="start" x="513" y="-189.5" font-family="Helvetica,sans-Serif" font-size="10.00">+ Layers()</text>
<text text-anchor="start" x="513" y="-178.5" font-family="Helvetica,sans-Serif" font-size="10.00">+ SetupRenderGraph()</text>
<text text-anchor="start" x="513" y="-167.5" font-family="Helvetica,sans-Serif" font-size="10.00">and 4 more...</text>
</a>
</g>
</g>
<!-- Node2 -->
<g id="node2" class="node">
<title>Node2</title>
<g id="a_node2"><a xlink:href="classliger_1_1render_1_1_bloom_feature.html" target="_top" xlink:title=" ">
<polygon fill="white" stroke="black" points="0,-11.5 0,-112.5 150,-112.5 150,-11.5 0,-11.5"/>
<text text-anchor="middle" x="75" y="-100.5" font-family="Helvetica,sans-Serif" font-size="10.00">liger::render::BloomFeature</text>
<polyline fill="none" stroke="black" points="0,-93.5 150,-93.5 "/>
<text text-anchor="middle" x="75" y="-81.5" font-family="Helvetica,sans-Serif" font-size="10.00"> </text>
<polyline fill="none" stroke="black" points="0,-74.5 150,-74.5 "/>
<text text-anchor="start" x="8" y="-62.5" font-family="Helvetica,sans-Serif" font-size="10.00">+ BloomFeature()</text>
<text text-anchor="start" x="8" y="-51.5" font-family="Helvetica,sans-Serif" font-size="10.00">+ ~BloomFeature()</text>
<text text-anchor="start" x="8" y="-40.5" font-family="Helvetica,sans-Serif" font-size="10.00">+ Name()</text>
<text text-anchor="start" x="8" y="-29.5" font-family="Helvetica,sans-Serif" font-size="10.00">+ SetupRenderGraph()</text>
<text text-anchor="start" x="8" y="-18.5" font-family="Helvetica,sans-Serif" font-size="10.00">+ UpdateInfo()</text>
</a>
</g>
</g>
<!-- Node1&#45;&gt;Node2 -->
<g id="edge1" class="edge">
<title>Node1&#45;&gt;Node2</title>
<path fill="none" stroke="midnightblue" d="M495.01,-208.02C408.96,-197.64 268.81,-174.17 158,-124 150.83,-120.75 143.68,-116.82 136.74,-112.54"/>
<polygon fill="none" stroke="midnightblue" points="494.63,-211.49 504.97,-209.19 495.45,-204.54 494.63,-211.49"/>
</g>
<!-- Node3 -->
<g id="node3" class="node">
<title>Node3</title>
<g id="a_node3"><a xlink:href="classliger_1_1render_1_1_camera_data_collector.html" target="_top" xlink:title=" ">
<polygon fill="white" stroke="black" points="167.5,-6 167.5,-118 354.5,-118 354.5,-6 167.5,-6"/>
<text text-anchor="middle" x="261" y="-106" font-family="Helvetica,sans-Serif" font-size="10.00">liger::render::CameraDataCollector</text>
<polyline fill="none" stroke="black" points="167.5,-99 354.5,-99 "/>
<text text-anchor="middle" x="261" y="-87" font-family="Helvetica,sans-Serif" font-size="10.00"> </text>
<polyline fill="none" stroke="black" points="167.5,-80 354.5,-80 "/>
<text text-anchor="start" x="175.5" y="-68" font-family="Helvetica,sans-Serif" font-size="10.00">+ CameraDataCollector()</text>
<text text-anchor="start" x="175.5" y="-57" font-family="Helvetica,sans-Serif" font-size="10.00">+ ~CameraDataCollector()</text>
<text text-anchor="start" x="175.5" y="-46" font-family="Helvetica,sans-Serif" font-size="10.00">+ Name()</text>
<text text-anchor="start" x="175.5" y="-35" font-family="Helvetica,sans-Serif" font-size="10.00">+ SetupEntitySystems()</text>
<text text-anchor="start" x="175.5" y="-24" font-family="Helvetica,sans-Serif" font-size="10.00">+ Run()</text>
<text text-anchor="start" x="175.5" y="-13" font-family="Helvetica,sans-Serif" font-size="10.00">+ PreRender()</text>
</a>
</g>
</g>
<!-- Node1&#45;&gt;Node3 -->
<g id="edge2" class="edge">
<title>Node1&#45;&gt;Node3</title>
<path fill="none" stroke="midnightblue" d="M495.49,-184.01C455.57,-167.32 406.61,-145.8 364,-124 360.3,-122.11 356.55,-120.14 352.78,-118.12"/>
<polygon fill="none" stroke="midnightblue" points="494.33,-187.32 504.91,-187.93 497.02,-180.86 494.33,-187.32"/>
</g>
<!-- Node4 -->
<g id="node4" class="node">
<title>Node4</title>
<g id="a_node4"><a xlink:href="classliger_1_1render_1_1_forward_render_feature.html" target="_top" xlink:title=" ">
<polygon fill="white" stroke="black" points="373,-11.5 373,-112.5 565,-112.5 565,-11.5 373,-11.5"/>
<text text-anchor="middle" x="469" y="-100.5" font-family="Helvetica,sans-Serif" font-size="10.00">liger::render::ForwardRenderFeature</text>
<polyline fill="none" stroke="black" points="373,-93.5 565,-93.5 "/>
<text text-anchor="middle" x="469" y="-81.5" font-family="Helvetica,sans-Serif" font-size="10.00"> </text>
<polyline fill="none" stroke="black" points="373,-74.5 565,-74.5 "/>
<text text-anchor="start" x="381" y="-62.5" font-family="Helvetica,sans-Serif" font-size="10.00">+ ForwardRenderFeature()</text>
<text text-anchor="start" x="381" y="-51.5" font-family="Helvetica,sans-Serif" font-size="10.00">+ ~ForwardRenderFeature()</text>
<text text-anchor="start" x="381" y="-40.5" font-family="Helvetica,sans-Serif" font-size="10.00">+ Name()</text>
<text text-anchor="start" x="381" y="-29.5" font-family="Helvetica,sans-Serif" font-size="10.00">+ Layers()</text>
<text text-anchor="start" x="381" y="-18.5" font-family="Helvetica,sans-Serif" font-size="10.00">+ SetupRenderGraph()</text>
</a>
</g>
</g>
<!-- Node1&#45;&gt;Node4 -->
<g id="edge3" class="edge">
<title>Node1&#45;&gt;Node4</title>
<path fill="none" stroke="midnightblue" d="M530.22,-151.92C521.2,-138.81 511.82,-125.19 503.19,-112.66"/>
<polygon fill="none" stroke="midnightblue" points="527.54,-154.19 536.09,-160.44 533.3,-150.22 527.54,-154.19"/>
</g>
<!-- Node5 -->
<g id="node5" class="node">
<title>Node5</title>
<g id="a_node5"><a xlink:href="classliger_1_1render_1_1_particle_system_feature.html" target="_top" xlink:title=" ">
<polygon fill="white" stroke="black" points="583.5,-0.5 583.5,-123.5 774.5,-123.5 774.5,-0.5 583.5,-0.5"/>
<text text-anchor="middle" x="679" y="-111.5" font-family="Helvetica,sans-Serif" font-size="10.00">liger::render::ParticleSystemFeature</text>
<polyline fill="none" stroke="black" points="583.5,-104.5 774.5,-104.5 "/>
<text text-anchor="start" x="591.5" y="-92.5" font-family="Helvetica,sans-Serif" font-size="10.00">+ kMaxParticleSystems</text>
<text text-anchor="start" x="591.5" y="-81.5" font-family="Helvetica,sans-Serif" font-size="10.00">+ kMaxParticlesPerEmitter</text>
<polyline fill="none" stroke="black" points="583.5,-74.5 774.5,-74.5 "/>
<text text-anchor="start" x="591.5" y="-62.5" font-family="Helvetica,sans-Serif" font-size="10.00">+ ParticleSystemFeature()</text>
<text text-anchor="start" x="591.5" y="-51.5" font-family="Helvetica,sans-Serif" font-size="10.00">+ ~ParticleSystemFeature()</text>
<text text-anchor="start" x="591.5" y="-40.5" font-family="Helvetica,sans-Serif" font-size="10.00">+ Name()</text>
<text text-anchor="start" x="591.5" y="-29.5" font-family="Helvetica,sans-Serif" font-size="10.00">+ SetupRenderGraph()</text>
<text text-anchor="start" x="591.5" y="-18.5" font-family="Helvetica,sans-Serif" font-size="10.00">+ AddLayerJobs()</text>
<text text-anchor="start" x="591.5" y="-7.5" font-family="Helvetica,sans-Serif" font-size="10.00">and 3 more...</text>
</a>
</g>
</g>
<!-- Node1&#45;&gt;Node5 -->
<g id="edge4" class="edge">
<title>Node1&#45;&gt;Node5</title>
<path fill="none" stroke="midnightblue" d="M617.76,-151.94C624.21,-142.58 630.83,-132.96 637.24,-123.66"/>
<polygon fill="none" stroke="midnightblue" points="614.7,-150.22 611.91,-160.44 620.46,-154.19 614.7,-150.22"/>
</g>
<!-- Node6 -->
<g id="node6" class="node">
<title>Node6</title>
<g id="a_node6"><a xlink:href="classliger_1_1render_1_1_static_mesh_feature.html" target="_top" xlink:title=" ">
<polygon fill="white" stroke="black" points="792.5,-0.5 792.5,-123.5 965.5,-123.5 965.5,-0.5 792.5,-0.5"/>
<text text-anchor="middle" x="879" y="-111.5" font-family="Helvetica,sans-Serif" font-size="10.00">liger::render::StaticMeshFeature</text>
<polyline fill="none" stroke="black" points="792.5,-104.5 965.5,-104.5 "/>
<text text-anchor="middle" x="879" y="-92.5" font-family="Helvetica,sans-Serif" font-size="10.00"> </text>
<polyline fill="none" stroke="black" points="792.5,-85.5 965.5,-85.5 "/>
<text text-anchor="start" x="800.5" y="-73.5" font-family="Helvetica,sans-Serif" font-size="10.00">+ StaticMeshFeature()</text>
<text text-anchor="start" x="800.5" y="-62.5" font-family="Helvetica,sans-Serif" font-size="10.00">+ ~StaticMeshFeature()</text>
<text text-anchor="start" x="800.5" y="-51.5" font-family="Helvetica,sans-Serif" font-size="10.00">+ Name()</text>
<text text-anchor="start" x="800.5" y="-40.5" font-family="Helvetica,sans-Serif" font-size="10.00">+ SetupRenderGraph()</text>
<text text-anchor="start" x="800.5" y="-29.5" font-family="Helvetica,sans-Serif" font-size="10.00">+ AddLayerJobs()</text>
<text text-anchor="start" x="800.5" y="-18.5" font-family="Helvetica,sans-Serif" font-size="10.00">+ SetupEntitySystems()</text>
<text text-anchor="start" x="800.5" y="-7.5" font-family="Helvetica,sans-Serif" font-size="10.00">+ Run()</text>
</a>
</g>
</g>
<!-- Node1&#45;&gt;Node6 -->
<g id="edge5" class="edge">
<title>Node1&#45;&gt;Node6</title>
<path fill="none" stroke="midnightblue" d="M652.85,-184.66C692.85,-168.13 741.79,-146.56 784,-124 786.77,-122.52 789.56,-120.99 792.36,-119.42"/>
<polygon fill="none" stroke="midnightblue" points="651.33,-181.5 643.4,-188.53 653.98,-187.97 651.33,-181.5"/>
</g>
<!-- Node7 -->
<g id="node7" class="node">
<title>Node7</title>
<g id="a_node7"><a xlink:href="classliger_1_1render_1_1_tonemap_feature.html" target="_top" xlink:title=" ">
<polygon fill="white" stroke="black" points="983.5,-17 983.5,-107 1146.5,-107 1146.5,-17 983.5,-17"/>
<text text-anchor="middle" x="1065" y="-95" font-family="Helvetica,sans-Serif" font-size="10.00">liger::render::TonemapFeature</text>
<polyline fill="none" stroke="black" points="983.5,-88 1146.5,-88 "/>
<text text-anchor="middle" x="1065" y="-76" font-family="Helvetica,sans-Serif" font-size="10.00"> </text>
<polyline fill="none" stroke="black" points="983.5,-69 1146.5,-69 "/>
<text text-anchor="start" x="991.5" y="-57" font-family="Helvetica,sans-Serif" font-size="10.00">+ TonemapFeature()</text>
<text text-anchor="start" x="991.5" y="-46" font-family="Helvetica,sans-Serif" font-size="10.00">+ ~TonemapFeature()</text>
<text text-anchor="start" x="991.5" y="-35" font-family="Helvetica,sans-Serif" font-size="10.00">+ Name()</text>
<text text-anchor="start" x="991.5" y="-24" font-family="Helvetica,sans-Serif" font-size="10.00">+ SetupRenderGraph()</text>
</a>
</g>
</g>
<!-- Node1&#45;&gt;Node7 -->
<g id="edge6" class="edge">
<title>Node1&#45;&gt;Node7</title>
<path fill="none" stroke="midnightblue" d="M653.22,-206.25C736.13,-194.57 868.75,-170.18 975,-124 985.56,-119.41 996.2,-113.54 1006.28,-107.27"/>
<polygon fill="none" stroke="midnightblue" points="652.54,-202.81 643.11,-207.65 653.5,-209.75 652.54,-202.81"/>
</g>
</g>
</svg>
        <g id="navigator" transform="translate(0 0)" fill="#404254">
                <rect fill="#f2f5e9" fill-opacity="0.5" stroke="#606060" stroke-width=".5" x="0" y="0" width="60" height="60"/>
                <use id="zoomplus" xlink:href="#zoomPlus" x="17" y="9" onmousedown="handleZoom(evt,'in')"/>
                <use id="zoomminus" xlink:href="#zoomMin" x="42" y="9" onmousedown="handleZoom(evt,'out')"/>
                <use id="reset" xlink:href="#resetDef" x="30" y="36" onmousedown="handleReset()"/>
                <g id="arrowUp" xlink:href="#dirArrow" transform="translate(30 24)" onmousedown="handlePan(0,-1)">
                  <use xlink:href="#rim" fill="#404040">
                        <set attributeName="fill" to="#808080" begin="arrowUp.mouseover" end="arrowUp.mouseout"/>
                  </use>
                  <path fill="none" stroke="white" stroke-width="1.5" d="M0,-3.0v7 M-2.5,-0.5L0,-3.0L2.5,-0.5"/>
                </g>
                <g id="arrowRight" xlink:href="#dirArrow" transform="rotate(90) translate(36 -43)" onmousedown="handlePan(1,0)">
                  <use xlink:href="#rim" fill="#404040">
                        <set attributeName="fill" to="#808080" begin="arrowRight.mouseover" end="arrowRight.mouseout"/>
                  </use>
                  <path fill="none" stroke="white" stroke-width="1.5" d="M0,-3.0v7 M-2.5,-0.5L0,-3.0L2.5,-0.5"/>
                </g>
                <g id="arrowDown" xlink:href="#dirArrow" transform="rotate(180) translate(-30 -48)" onmousedown="handlePan(0,1)">
                  <use xlink:href="#rim" fill="#404040">
                        <set attributeName="fill" to="#808080" begin="arrowDown.mouseover" end="arrowDown.mouseout"/>
                  </use>
                  <path fill="none" stroke="white" stroke-width="1.5" d="M0,-3.0v7 M-2.5,-0.5L0,-3.0L2.5,-0.5"/>
                </g>
                <g id="arrowLeft" xlink:href="#dirArrow" transform="rotate(270) translate(-36 17)" onmousedown="handlePan(-1,0)">
                  <use xlink:href="#rim" fill="#404040">
                        <set attributeName="fill" to="#808080" begin="arrowLeft.mouseover" end="arrowLeft.mouseout"/>
                  </use>
                  <path fill="none" stroke="white" stroke-width="1.5" d="M0,-3.0v7 M-2.5,-0.5L0,-3.0L2.5,-0.5"/>
                </g>
        </g>
        <svg viewBox="0 0 15 15" width="100%" height="30px" preserveAspectRatio="xMaxYMin meet">
         <g id="arrow_out" transform="scale(0.3 0.3)">
          <a xlink:href="classliger_1_1render_1_1_i_feature__inherit__graph_org.svg" target="_base">
           <rect id="button" ry="5" rx="5" y="6" x="6" height="38" width="38"
                fill="#f2f5e9" fill-opacity="0.5" stroke="#606060" stroke-width="1.0"/>
           <path id="arrow"
             d="M 11.500037,31.436501 C 11.940474,20.09759 22.043105,11.32322 32.158766,21.979434 L 37.068811,17.246167 C 37.068811,17.246167 37.088388,32 37.088388,32 L 22.160133,31.978069 C 22.160133,31.978069 26.997745,27.140456 26.997745,27.140456 C 18.528582,18.264221 13.291696,25.230495 11.500037,31.436501 z"
             style="fill:#404040;"/>
          </a>
         </g>
        </svg>
</svg>
