<?xml version="1.0" encoding="UTF-8" standalone="no"?>
<!DOCTYPE svg PUBLIC "-//W3C//DTD SVG 1.1//EN"
 "http://www.w3.org/Graphics/SVG/1.1/DTD/svg11.dtd">
<!-- Generated by graphviz version 2.43.0 (0)
 -->
<!-- Title: liger::render::IFeature Pages: 1 -->
<svg width="1155pt" height="281pt"
 viewBox="0.00 0.00 1154.50 281.00" xmlns="http://www.w3.org/2000/svg" xmlns:xlink="http://www.w3.org/1999/xlink">
<g id="graph0" class="graph" transform="scale(1 1) rotate(0) translate(4 277)">
<title>liger::render::IFeature</title>
<polygon fill="white" stroke="transparent" points="-4,4 -4,-277 1150.5,-277 1150.5,4 -4,4"/>
<!-- Node1 -->
<g id="node1" class="node">
<title>Node1</title>
<g id="a_node1"><a xlink:title=" ">
<polygon fill="#bfbfbf" stroke="black" points="505,-160.5 505,-272.5 643,-272.5 643,-160.5 505,-160.5"/>
<text text-anchor="middle" x="574" y="-260.5" font-family="Helvetica,sans-Serif" font-size="10.00">liger::render::IFeature</text>
<polyline fill="none" stroke="black" points="505,-253.5 643,-253.5 "/>
<text text-anchor="middle" x="574" y="-241.5" font-family="Helvetica,sans-Serif" font-size="10.00"> </text>
<polyline fill="none" stroke="black" points="505,-234.5 643,-234.5 "/>
<text text-anchor="start" x="513" y="-222.5" font-family="Helvetica,sans-Serif" font-size="10.00">+ ~IFeature()</text>
<text text-anchor="start" x="513" y="-211.5" font-family="Helvetica,sans-Serif" font-size="10.00">+ Name()</text>
<text text-anchor="start" x="513" y="-200.5" font-family="Helvetica,sans-Serif" font-size="10.00">+ DependencyFeatures()</text>
<text text-anchor="start" x="513" y="-189.5" font-family="Helvetica,sans-Serif" font-size="10.00">+ Layers()</text>
<text text-anchor="start" x="513" y="-178.5" font-family="Helvetica,sans-Serif" font-size="10.00">+ SetupRenderGraph()</text>
<text text-anchor="start" x="513" y="-167.5" font-family="Helvetica,sans-Serif" font-size="10.00">and 4 more...</text>
</a>
</g>
</g>
<!-- Node2 -->
<g id="node2" class="node">
<title>Node2</title>
<g id="a_node2"><a xlink:href="classliger_1_1render_1_1_bloom_feature.html" target="_top" xlink:title=" ">
<polygon fill="white" stroke="black" points="0,-11.5 0,-112.5 150,-112.5 150,-11.5 0,-11.5"/>
<text text-anchor="middle" x="75" y="-100.5" font-family="Helvetica,sans-Serif" font-size="10.00">liger::render::BloomFeature</text>
<polyline fill="none" stroke="black" points="0,-93.5 150,-93.5 "/>
<text text-anchor="middle" x="75" y="-81.5" font-family="Helvetica,sans-Serif" font-size="10.00"> </text>
<polyline fill="none" stroke="black" points="0,-74.5 150,-74.5 "/>
<text text-anchor="start" x="8" y="-62.5" font-family="Helvetica,sans-Serif" font-size="10.00">+ BloomFeature()</text>
<text text-anchor="start" x="8" y="-51.5" font-family="Helvetica,sans-Serif" font-size="10.00">+ ~BloomFeature()</text>
<text text-anchor="start" x="8" y="-40.5" font-family="Helvetica,sans-Serif" font-size="10.00">+ Name()</text>
<text text-anchor="start" x="8" y="-29.5" font-family="Helvetica,sans-Serif" font-size="10.00">+ SetupRenderGraph()</text>
<text text-anchor="start" x="8" y="-18.5" font-family="Helvetica,sans-Serif" font-size="10.00">+ UpdateInfo()</text>
</a>
</g>
</g>
<!-- Node1&#45;&gt;Node2 -->
<g id="edge1" class="edge">
<title>Node1&#45;&gt;Node2</title>
<path fill="none" stroke="midnightblue" d="M495.01,-208.02C408.96,-197.64 268.81,-174.17 158,-124 150.83,-120.75 143.68,-116.82 136.74,-112.54"/>
<polygon fill="none" stroke="midnightblue" points="494.63,-211.49 504.97,-209.19 495.45,-204.54 494.63,-211.49"/>
</g>
<!-- Node3 -->
<g id="node3" class="node">
<title>Node3</title>
<g id="a_node3"><a xlink:href="classliger_1_1render_1_1_camera_data_collector.html" target="_top" xlink:title=" ">
<polygon fill="white" stroke="black" points="167.5,-6 167.5,-118 354.5,-118 354.5,-6 167.5,-6"/>
<text text-anchor="middle" x="261" y="-106" font-family="Helvetica,sans-Serif" font-size="10.00">liger::render::CameraDataCollector</text>
<polyline fill="none" stroke="black" points="167.5,-99 354.5,-99 "/>
<text text-anchor="middle" x="261" y="-87" font-family="Helvetica,sans-Serif" font-size="10.00"> </text>
<polyline fill="none" stroke="black" points="167.5,-80 354.5,-80 "/>
<text text-anchor="start" x="175.5" y="-68" font-family="Helvetica,sans-Serif" font-size="10.00">+ CameraDataCollector()</text>
<text text-anchor="start" x="175.5" y="-57" font-family="Helvetica,sans-Serif" font-size="10.00">+ ~CameraDataCollector()</text>
<text text-anchor="start" x="175.5" y="-46" font-family="Helvetica,sans-Serif" font-size="10.00">+ Name()</text>
<text text-anchor="start" x="175.5" y="-35" font-family="Helvetica,sans-Serif" font-size="10.00">+ SetupEntitySystems()</text>
<text text-anchor="start" x="175.5" y="-24" font-family="Helvetica,sans-Serif" font-size="10.00">+ Run()</text>
<text text-anchor="start" x="175.5" y="-13" font-family="Helvetica,sans-Serif" font-size="10.00">+ PreRender()</text>
</a>
</g>
</g>
<!-- Node1&#45;&gt;Node3 -->
<g id="edge2" class="edge">
<title>Node1&#45;&gt;Node3</title>
<path fill="none" stroke="midnightblue" d="M495.49,-184.01C455.57,-167.32 406.61,-145.8 364,-124 360.3,-122.11 356.55,-120.14 352.78,-118.12"/>
<polygon fill="none" stroke="midnightblue" points="494.33,-187.32 504.91,-187.93 497.02,-180.86 494.33,-187.32"/>
</g>
<!-- Node4 -->
<g id="node4" class="node">
<title>Node4</title>
<g id="a_node4"><a xlink:href="classliger_1_1render_1_1_forward_render_feature.html" target="_top" xlink:title=" ">
<polygon fill="white" stroke="black" points="373,-11.5 373,-112.5 565,-112.5 565,-11.5 373,-11.5"/>
<text text-anchor="middle" x="469" y="-100.5" font-family="Helvetica,sans-Serif" font-size="10.00">liger::render::ForwardRenderFeature</text>
<polyline fill="none" stroke="black" points="373,-93.5 565,-93.5 "/>
<text text-anchor="middle" x="469" y="-81.5" font-family="Helvetica,sans-Serif" font-size="10.00"> </text>
<polyline fill="none" stroke="black" points="373,-74.5 565,-74.5 "/>
<text text-anchor="start" x="381" y="-62.5" font-family="Helvetica,sans-Serif" font-size="10.00">+ ForwardRenderFeature()</text>
<text text-anchor="start" x="381" y="-51.5" font-family="Helvetica,sans-Serif" font-size="10.00">+ ~ForwardRenderFeature()</text>
<text text-anchor="start" x="381" y="-40.5" font-family="Helvetica,sans-Serif" font-size="10.00">+ Name()</text>
<text text-anchor="start" x="381" y="-29.5" font-family="Helvetica,sans-Serif" font-size="10.00">+ Layers()</text>
<text text-anchor="start" x="381" y="-18.5" font-family="Helvetica,sans-Serif" font-size="10.00">+ SetupRenderGraph()</text>
</a>
</g>
</g>
<!-- Node1&#45;&gt;Node4 -->
<g id="edge3" class="edge">
<title>Node1&#45;&gt;Node4</title>
<path fill="none" stroke="midnightblue" d="M530.22,-151.92C521.2,-138.81 511.82,-125.19 503.19,-112.66"/>
<polygon fill="none" stroke="midnightblue" points="527.54,-154.19 536.09,-160.44 533.3,-150.22 527.54,-154.19"/>
</g>
<!-- Node5 -->
<g id="node5" class="node">
<title>Node5</title>
<g id="a_node5"><a xlink:href="classliger_1_1render_1_1_particle_system_feature.html" target="_top" xlink:title=" ">
<polygon fill="white" stroke="black" points="583.5,-0.5 583.5,-123.5 774.5,-123.5 774.5,-0.5 583.5,-0.5"/>
<text text-anchor="middle" x="679" y="-111.5" font-family="Helvetica,sans-Serif" font-size="10.00">liger::render::ParticleSystemFeature</text>
<polyline fill="none" stroke="black" points="583.5,-104.5 774.5,-104.5 "/>
<text text-anchor="start" x="591.5" y="-92.5" font-family="Helvetica,sans-Serif" font-size="10.00">+ kMaxParticleSystems</text>
<text text-anchor="start" x="591.5" y="-81.5" font-family="Helvetica,sans-Serif" font-size="10.00">+ kMaxParticlesPerEmitter</text>
<polyline fill="none" stroke="black" points="583.5,-74.5 774.5,-74.5 "/>
<text text-anchor="start" x="591.5" y="-62.5" font-family="Helvetica,sans-Serif" font-size="10.00">+ ParticleSystemFeature()</text>
<text text-anchor="start" x="591.5" y="-51.5" font-family="Helvetica,sans-Serif" font-size="10.00">+ ~ParticleSystemFeature()</text>
<text text-anchor="start" x="591.5" y="-40.5" font-family="Helvetica,sans-Serif" font-size="10.00">+ Name()</text>
<text text-anchor="start" x="591.5" y="-29.5" font-family="Helvetica,sans-Serif" font-size="10.00">+ SetupRenderGraph()</text>
<text text-anchor="start" x="591.5" y="-18.5" font-family="Helvetica,sans-Serif" font-size="10.00">+ AddLayerJobs()</text>
<text text-anchor="start" x="591.5" y="-7.5" font-family="Helvetica,sans-Serif" font-size="10.00">and 3 more...</text>
</a>
</g>
</g>
<!-- Node1&#45;&gt;Node5 -->
<g id="edge4" class="edge">
<title>Node1&#45;&gt;Node5</title>
<path fill="none" stroke="midnightblue" d="M617.76,-151.94C624.21,-142.58 630.83,-132.96 637.24,-123.66"/>
<polygon fill="none" stroke="midnightblue" points="614.7,-150.22 611.91,-160.44 620.46,-154.19 614.7,-150.22"/>
</g>
<!-- Node6 -->
<g id="node6" class="node">
<title>Node6</title>
<g id="a_node6"><a xlink:href="classliger_1_1render_1_1_static_mesh_feature.html" target="_top" xlink:title=" ">
<polygon fill="white" stroke="black" points="792.5,-0.5 792.5,-123.5 965.5,-123.5 965.5,-0.5 792.5,-0.5"/>
<text text-anchor="middle" x="879" y="-111.5" font-family="Helvetica,sans-Serif" font-size="10.00">liger::render::StaticMeshFeature</text>
<polyline fill="none" stroke="black" points="792.5,-104.5 965.5,-104.5 "/>
<text text-anchor="middle" x="879" y="-92.5" font-family="Helvetica,sans-Serif" font-size="10.00"> </text>
<polyline fill="none" stroke="black" points="792.5,-85.5 965.5,-85.5 "/>
<text text-anchor="start" x="800.5" y="-73.5" font-family="Helvetica,sans-Serif" font-size="10.00">+ StaticMeshFeature()</text>
<text text-anchor="start" x="800.5" y="-62.5" font-family="Helvetica,sans-Serif" font-size="10.00">+ ~StaticMeshFeature()</text>
<text text-anchor="start" x="800.5" y="-51.5" font-family="Helvetica,sans-Serif" font-size="10.00">+ Name()</text>
<text text-anchor="start" x="800.5" y="-40.5" font-family="Helvetica,sans-Serif" font-size="10.00">+ SetupRenderGraph()</text>
<text text-anchor="start" x="800.5" y="-29.5" font-family="Helvetica,sans-Serif" font-size="10.00">+ AddLayerJobs()</text>
<text text-anchor="start" x="800.5" y="-18.5" font-family="Helvetica,sans-Serif" font-size="10.00">+ SetupEntitySystems()</text>
<text text-anchor="start" x="800.5" y="-7.5" font-family="Helvetica,sans-Serif" font-size="10.00">+ Run()</text>
</a>
</g>
</g>
<!-- Node1&#45;&gt;Node6 -->
<g id="edge5" class="edge">
<title>Node1&#45;&gt;Node6</title>
<path fill="none" stroke="midnightblue" d="M652.85,-184.66C692.85,-168.13 741.79,-146.56 784,-124 786.77,-122.52 789.56,-120.99 792.36,-119.42"/>
<polygon fill="none" stroke="midnightblue" points="651.33,-181.5 643.4,-188.53 653.98,-187.97 651.33,-181.5"/>
</g>
<!-- Node7 -->
<g id="node7" class="node">
<title>Node7</title>
<g id="a_node7"><a xlink:href="classliger_1_1render_1_1_tonemap_feature.html" target="_top" xlink:title=" ">
<polygon fill="white" stroke="black" points="983.5,-17 983.5,-107 1146.5,-107 1146.5,-17 983.5,-17"/>
<text text-anchor="middle" x="1065" y="-95" font-family="Helvetica,sans-Serif" font-size="10.00">liger::render::TonemapFeature</text>
<polyline fill="none" stroke="black" points="983.5,-88 1146.5,-88 "/>
<text text-anchor="middle" x="1065" y="-76" font-family="Helvetica,sans-Serif" font-size="10.00"> </text>
<polyline fill="none" stroke="black" points="983.5,-69 1146.5,-69 "/>
<text text-anchor="start" x="991.5" y="-57" font-family="Helvetica,sans-Serif" font-size="10.00">+ TonemapFeature()</text>
<text text-anchor="start" x="991.5" y="-46" font-family="Helvetica,sans-Serif" font-size="10.00">+ ~TonemapFeature()</text>
<text text-anchor="start" x="991.5" y="-35" font-family="Helvetica,sans-Serif" font-size="10.00">+ Name()</text>
<text text-anchor="start" x="991.5" y="-24" font-family="Helvetica,sans-Serif" font-size="10.00">+ SetupRenderGraph()</text>
</a>
</g>
</g>
<!-- Node1&#45;&gt;Node7 -->
<g id="edge6" class="edge">
<title>Node1&#45;&gt;Node7</title>
<path fill="none" stroke="midnightblue" d="M653.22,-206.25C736.13,-194.57 868.75,-170.18 975,-124 985.56,-119.41 996.2,-113.54 1006.28,-107.27"/>
<polygon fill="none" stroke="midnightblue" points="652.54,-202.81 643.11,-207.65 653.5,-209.75 652.54,-202.81"/>
</g>
</g>
</svg>
