<?xml version="1.0" encoding="UTF-8" standalone="no"?>
<!DOCTYPE svg PUBLIC "-//W3C//DTD SVG 1.1//EN"
 "http://www.w3.org/Graphics/SVG/1.1/DTD/svg11.dtd">
<!-- Generated by graphviz version 2.43.0 (0)
 -->
<!-- Title: liger::rhi::ResourceVersionRegistry&lt; ResourceTypes &gt; Pages: 1 -->
<svg width="339pt" height="314pt"
 viewBox="0.00 0.00 338.50 314.00" xmlns="http://www.w3.org/2000/svg" xmlns:xlink="http://www.w3.org/1999/xlink">
<g id="graph0" class="graph" transform="scale(1 1) rotate(0) translate(4 310)">
<title>liger::rhi::ResourceVersionRegistry&lt; ResourceTypes &gt;</title>
<polygon fill="white" stroke="transparent" points="-4,4 -4,-310 334.5,-310 334.5,4 -4,4"/>
<!-- Node1 -->
<g id="node1" class="node">
<title>Node1</title>
<g id="a_node1"><a xlink:title=" ">
<polygon fill="#bfbfbf" stroke="black" points="59,-182.5 59,-305.5 244,-305.5 244,-182.5 59,-182.5"/>
<text text-anchor="start" x="67" y="-293.5" font-family="Helvetica,sans-Serif" font-size="10.00">liger::rhi::ResourceVersionRegistry</text>
<text text-anchor="middle" x="151.5" y="-282.5" font-family="Helvetica,sans-Serif" font-size="10.00">&lt; ResourceTypes &gt;</text>
<polyline fill="none" stroke="black" points="59,-275.5 244,-275.5 "/>
<text text-anchor="start" x="67" y="-263.5" font-family="Helvetica,sans-Serif" font-size="10.00">+ kInvalidVersion</text>
<polyline fill="none" stroke="black" points="59,-256.5 244,-256.5 "/>
<text text-anchor="start" x="67" y="-244.5" font-family="Helvetica,sans-Serif" font-size="10.00">+ AddResource()</text>
<text text-anchor="start" x="67" y="-233.5" font-family="Helvetica,sans-Serif" font-size="10.00">+ DeclareResource()</text>
<text text-anchor="start" x="67" y="-222.5" font-family="Helvetica,sans-Serif" font-size="10.00">+ UpdateResource()</text>
<text text-anchor="start" x="67" y="-211.5" font-family="Helvetica,sans-Serif" font-size="10.00">+ NextVersion()</text>
<text text-anchor="start" x="67" y="-200.5" font-family="Helvetica,sans-Serif" font-size="10.00">+ GetResourceByVersion()</text>
<text text-anchor="start" x="67" y="-189.5" font-family="Helvetica,sans-Serif" font-size="10.00">and 13 more...</text>
</a>
</g>
</g>
<!-- Node2 -->
<g id="node2" class="node">
<title>Node2</title>
<g id="a_node2"><a xlink:href="classliger_1_1rhi_1_1_resource_version_registry.html" target="_top" xlink:title=" ">
<polygon fill="white" stroke="black" points="0,-0.5 0,-123.5 303,-123.5 303,-0.5 0,-0.5"/>
<text text-anchor="start" x="8" y="-111.5" font-family="Helvetica,sans-Serif" font-size="10.00">liger::rhi::ResourceVersionRegistry</text>
<text text-anchor="middle" x="151.5" y="-100.5" font-family="Helvetica,sans-Serif" font-size="10.00">&lt; TextureResource, BufferResource, BufferPackResource &gt;</text>
<polyline fill="none" stroke="black" points="0,-93.5 303,-93.5 "/>
<text text-anchor="start" x="8" y="-81.5" font-family="Helvetica,sans-Serif" font-size="10.00">+ kInvalidVersion</text>
<polyline fill="none" stroke="black" points="0,-74.5 303,-74.5 "/>
<text text-anchor="start" x="8" y="-62.5" font-family="Helvetica,sans-Serif" font-size="10.00">+ AddResource()</text>
<text text-anchor="start" x="8" y="-51.5" font-family="Helvetica,sans-Serif" font-size="10.00">+ DeclareResource()</text>
<text text-anchor="start" x="8" y="-40.5" font-family="Helvetica,sans-Serif" font-size="10.00">+ UpdateResource()</text>
<text text-anchor="start" x="8" y="-29.5" font-family="Helvetica,sans-Serif" font-size="10.00">+ NextVersion()</text>
<text text-anchor="start" x="8" y="-18.5" font-family="Helvetica,sans-Serif" font-size="10.00">+ GetResourceByVersion()</text>
<text text-anchor="start" x="8" y="-7.5" font-family="Helvetica,sans-Serif" font-size="10.00">and 13 more...</text>
</a>
</g>
</g>
<!-- Node1&#45;&gt;Node2 -->
<g id="edge1" class="edge">
<title>Node1&#45;&gt;Node2</title>
<path fill="none" stroke="orange" d="M151.5,-171.97C151.5,-156.01 151.5,-139.22 151.5,-123.73"/>
<polygon fill="orange" stroke="orange" points="148,-172.31 151.5,-182.31 155,-172.31 148,-172.31"/>
<text text-anchor="start" x="151.5" y="-156" font-family="Helvetica,sans-Serif" font-size="10.00"> &lt; TextureResource, BufferResource,</text>
<text text-anchor="middle" x="241" y="-145" font-family="Helvetica,sans-Serif" font-size="10.00"> BufferPackResource &gt;</text>
</g>
</g>
</svg>
