<?xml version="1.0" encoding="UTF-8" standalone="no"?>
<!DOCTYPE svg PUBLIC "-//W3C//DTD SVG 1.1//EN"
 "http://www.w3.org/Graphics/SVG/1.1/DTD/svg11.dtd">
<!-- Generated by graphviz version 2.43.0 (0)
 -->
<!-- Title: liger::EventSink&lt; EventT &gt; Pages: 1 -->
<svg width="162pt" height="215pt"
 viewBox="0.00 0.00 162.00 215.00" xmlns="http://www.w3.org/2000/svg" xmlns:xlink="http://www.w3.org/1999/xlink">
<g id="graph0" class="graph" transform="scale(1 1) rotate(0) translate(4 211)">
<title>liger::EventSink&lt; EventT &gt;</title>
<polygon fill="white" stroke="transparent" points="-4,4 -4,-211 158,-211 158,4 -4,4"/>
<!-- Node1 -->
<g id="node1" class="node">
<title>Node1</title>
<g id="a_node1"><a xlink:title="Event sink for callbacks of the specified event.">
<polygon fill="#bfbfbf" stroke="black" points="2.5,-0.5 2.5,-112.5 151.5,-112.5 151.5,-0.5 2.5,-0.5"/>
<text text-anchor="middle" x="77" y="-100.5" font-family="Helvetica,sans-Serif" font-size="10.00">liger::EventSink&lt; EventT &gt;</text>
<polyline fill="none" stroke="black" points="2.5,-93.5 151.5,-93.5 "/>
<text text-anchor="middle" x="77" y="-81.5" font-family="Helvetica,sans-Serif" font-size="10.00"> </text>
<polyline fill="none" stroke="black" points="2.5,-74.5 151.5,-74.5 "/>
<text text-anchor="start" x="10.5" y="-62.5" font-family="Helvetica,sans-Serif" font-size="10.00">+ ~EventSink()</text>
<text text-anchor="start" x="10.5" y="-51.5" font-family="Helvetica,sans-Serif" font-size="10.00">+ Connect()</text>
<text text-anchor="start" x="10.5" y="-40.5" font-family="Helvetica,sans-Serif" font-size="10.00">+ Connect()</text>
<text text-anchor="start" x="10.5" y="-29.5" font-family="Helvetica,sans-Serif" font-size="10.00">+ Remove()</text>
<text text-anchor="start" x="10.5" y="-18.5" font-family="Helvetica,sans-Serif" font-size="10.00">+ Remove()</text>
<text text-anchor="start" x="10.5" y="-7.5" font-family="Helvetica,sans-Serif" font-size="10.00">+ Dispatch()</text>
</a>
</g>
</g>
<!-- Node2 -->
<g id="node2" class="node">
<title>Node2</title>
<g id="a_node2"><a xlink:href="classliger_1_1detail_1_1_i_base_event_sink.html" target="_top" xlink:title=" ">
<polygon fill="white" stroke="black" points="0,-149.5 0,-206.5 154,-206.5 154,-149.5 0,-149.5"/>
<text text-anchor="middle" x="77" y="-194.5" font-family="Helvetica,sans-Serif" font-size="10.00">liger::detail::IBaseEventSink</text>
<polyline fill="none" stroke="black" points="0,-187.5 154,-187.5 "/>
<text text-anchor="middle" x="77" y="-175.5" font-family="Helvetica,sans-Serif" font-size="10.00"> </text>
<polyline fill="none" stroke="black" points="0,-168.5 154,-168.5 "/>
<text text-anchor="start" x="8" y="-156.5" font-family="Helvetica,sans-Serif" font-size="10.00">+ ~IBaseEventSink()</text>
</a>
</g>
</g>
<!-- Node2&#45;&gt;Node1 -->
<g id="edge1" class="edge">
<title>Node2&#45;&gt;Node1</title>
<path fill="none" stroke="midnightblue" d="M77,-139.11C77,-130.75 77,-121.73 77,-112.83"/>
<polygon fill="none" stroke="midnightblue" points="73.5,-139.28 77,-149.28 80.5,-139.28 73.5,-139.28"/>
</g>
</g>
</svg>
