<?xml version="1.0" encoding="UTF-8" standalone="no"?>
<!DOCTYPE svg PUBLIC "-//W3C//DTD SVG 1.1//EN"
 "http://www.w3.org/Graphics/SVG/1.1/DTD/svg11.dtd">
<!-- Generated by graphviz version 2.43.0 (0)
 -->
<!-- Title: liger::asset::importers::StaticMeshImporter Pages: 1 -->
<svg width="234pt" height="298pt"
 viewBox="0.00 0.00 234.00 298.00" xmlns="http://www.w3.org/2000/svg" xmlns:xlink="http://www.w3.org/1999/xlink">
<g id="graph0" class="graph" transform="scale(1 1) rotate(0) translate(4 294)">
<title>liger::asset::importers::StaticMeshImporter</title>
<polygon fill="white" stroke="transparent" points="-4,4 -4,-294 230,-294 230,4 -4,4"/>
<!-- Node1 -->
<g id="node1" class="node">
<title>Node1</title>
<g id="a_node1"><a xlink:title=" ">
<polygon fill="#bfbfbf" stroke="black" points="0,-105.5 0,-173.5 226,-173.5 226,-105.5 0,-105.5"/>
<text text-anchor="middle" x="113" y="-161.5" font-family="Helvetica,sans-Serif" font-size="10.00">liger::asset::importers::StaticMeshImporter</text>
<polyline fill="none" stroke="black" points="0,-154.5 226,-154.5 "/>
<text text-anchor="middle" x="113" y="-142.5" font-family="Helvetica,sans-Serif" font-size="10.00"> </text>
<polyline fill="none" stroke="black" points="0,-135.5 226,-135.5 "/>
<text text-anchor="start" x="8" y="-123.5" font-family="Helvetica,sans-Serif" font-size="10.00">+ ~StaticMeshImporter()</text>
<text text-anchor="start" x="8" y="-112.5" font-family="Helvetica,sans-Serif" font-size="10.00">+ Import()</text>
</a>
</g>
</g>
<!-- Node3 -->
<g id="node3" class="node">
<title>Node3</title>
<g id="a_node3"><a xlink:href="classliger_1_1asset_1_1importers_1_1_gltf_importer.html" target="_top" xlink:title=" ">
<polygon fill="white" stroke="black" points="18,-0.5 18,-68.5 208,-68.5 208,-0.5 18,-0.5"/>
<text text-anchor="middle" x="113" y="-56.5" font-family="Helvetica,sans-Serif" font-size="10.00">liger::asset::importers::GltfImporter</text>
<polyline fill="none" stroke="black" points="18,-49.5 208,-49.5 "/>
<text text-anchor="middle" x="113" y="-37.5" font-family="Helvetica,sans-Serif" font-size="10.00"> </text>
<polyline fill="none" stroke="black" points="18,-30.5 208,-30.5 "/>
<text text-anchor="start" x="26" y="-18.5" font-family="Helvetica,sans-Serif" font-size="10.00">+ ~GltfImporter()</text>
<text text-anchor="start" x="26" y="-7.5" font-family="Helvetica,sans-Serif" font-size="10.00">+ FileExtension()</text>
</a>
</g>
</g>
<!-- Node1&#45;&gt;Node3 -->
<g id="edge2" class="edge">
<title>Node1&#45;&gt;Node3</title>
<path fill="none" stroke="midnightblue" d="M113,-95.14C113,-86.26 113,-77.04 113,-68.59"/>
<polygon fill="none" stroke="midnightblue" points="109.5,-95.34 113,-105.34 116.5,-95.34 109.5,-95.34"/>
</g>
<!-- Node2 -->
<g id="node2" class="node">
<title>Node2</title>
<g id="a_node2"><a xlink:href="classliger_1_1asset_1_1_i_importer.html" target="_top" xlink:title="Importer interface.">
<polygon fill="white" stroke="black" points="52,-210.5 52,-289.5 174,-289.5 174,-210.5 52,-210.5"/>
<text text-anchor="middle" x="113" y="-277.5" font-family="Helvetica,sans-Serif" font-size="10.00">liger::asset::IImporter</text>
<polyline fill="none" stroke="black" points="52,-270.5 174,-270.5 "/>
<text text-anchor="middle" x="113" y="-258.5" font-family="Helvetica,sans-Serif" font-size="10.00"> </text>
<polyline fill="none" stroke="black" points="52,-251.5 174,-251.5 "/>
<text text-anchor="start" x="60" y="-239.5" font-family="Helvetica,sans-Serif" font-size="10.00">+ ~IImporter()</text>
<text text-anchor="start" x="60" y="-228.5" font-family="Helvetica,sans-Serif" font-size="10.00">+ FileExtension()</text>
<text text-anchor="start" x="60" y="-217.5" font-family="Helvetica,sans-Serif" font-size="10.00">+ Import()</text>
</a>
</g>
</g>
<!-- Node2&#45;&gt;Node1 -->
<g id="edge1" class="edge">
<title>Node2&#45;&gt;Node1</title>
<path fill="none" stroke="midnightblue" d="M113,-200.35C113,-191.28 113,-182 113,-173.54"/>
<polygon fill="none" stroke="midnightblue" points="109.5,-200.44 113,-210.44 116.5,-200.44 109.5,-200.44"/>
</g>
</g>
</svg>
