<?xml version="1.0" encoding="UTF-8" standalone="no"?>
<!DOCTYPE svg PUBLIC "-//W3C//DTD SVG 1.1//EN"
 "http://www.w3.org/Graphics/SVG/1.1/DTD/svg11.dtd">
<!-- Generated by graphviz version 2.43.0 (0)
 -->
<!-- Title: liger::render::IFeature Pages: 1 -->
<!--zoomable 281 -->
<svg id="main" version="1.1" xmlns="http://www.w3.org/2000/svg" xmlns:xlink="http://www.w3.org/1999/xlink" xml:space="preserve" onload="init(evt)">
<style type="text/css"><![CDATA[
.edge:hover path { stroke: red; }
.edge:hover polygon { stroke: red; fill: red; }
]]></style>
<script type="text/javascript"><![CDATA[
var edges = document.getElementsByTagName('g');
if (edges && edges.length) {
  for (var i=0;i<edges.length;i++) {
    if (edges[i].id.substr(0,4)=='edge') {
      edges[i].setAttribute('class','edge');
    }
  }
}
]]></script>
        <defs>
                <circle id="rim" cx="0" cy="0" r="7"/>
                <circle id="rim2" cx="0" cy="0" r="3.5"/>
                <g id="zoomPlus">
                        <use xlink:href="#rim" fill="#404040">
                                <set attributeName="fill" to="#808080" begin="zoomplus.mouseover" end="zoomplus.mouseout"/>
                        </use>
                        <path d="M-4,0h8M0,-4v8" fill="none" stroke="white" stroke-width="1.5" pointer-events="none"/>
                </g>
                <g id="zoomMin">
                        <use xlink:href="#rim" fill="#404040">
                                <set attributeName="fill" to="#808080" begin="zoomminus.mouseover" end="zoomminus.mouseout"/>
                        </use>
                        <path d="M-4,0h8" fill="none" stroke="white" stroke-width="1.5" pointer-events="none"/>
                </g>
                <g id="dirArrow">
                        <path fill="none" stroke="white" stroke-width="1.5" d="M0,-3.0v7 M-2.5,-0.5L0,-3.0L2.5,-0.5"/>
                </g>
               <g id="resetDef">
                       <use xlink:href="#rim2" fill="#404040">
                               <set attributeName="fill" to="#808080" begin="reset.mouseover" end="reset.mouseout"/>
                       </use>
               </g>
        </defs>

<script type="text/javascript">
var viewWidth = 1362;
var viewHeight = 281;
var sectionId = 'dynsection-0';
</script>
<script xlink:href="svgpan.js"/>
<svg id="graph" class="graph">
<g id="viewport">
<title>liger::render::IFeature</title>
<polygon fill="white" stroke="transparent" points="-4,4 -4,-277 1357.5,-277 1357.5,4 -4,4"/>
<!-- Node1 -->
<g id="node1" class="node">
<title>Node1</title>
<g id="a_node1"><a xlink:title=" ">
<polygon fill="#bfbfbf" stroke="black" points="607,-160.5 607,-272.5 745,-272.5 745,-160.5 607,-160.5"/>
<text text-anchor="middle" x="676" y="-260.5" font-family="Helvetica,sans-Serif" font-size="10.00">liger::render::IFeature</text>
<polyline fill="none" stroke="black" points="607,-253.5 745,-253.5 "/>
<text text-anchor="middle" x="676" y="-241.5" font-family="Helvetica,sans-Serif" font-size="10.00"> </text>
<polyline fill="none" stroke="black" points="607,-234.5 745,-234.5 "/>
<text text-anchor="start" x="615" y="-222.5" font-family="Helvetica,sans-Serif" font-size="10.00">+ ~IFeature()</text>
<text text-anchor="start" x="615" y="-211.5" font-family="Helvetica,sans-Serif" font-size="10.00">+ Name()</text>
<text text-anchor="start" x="615" y="-200.5" font-family="Helvetica,sans-Serif" font-size="10.00">+ DependencyFeatures()</text>
<text text-anchor="start" x="615" y="-189.5" font-family="Helvetica,sans-Serif" font-size="10.00">+ Layers()</text>
<text text-anchor="start" x="615" y="-178.5" font-family="Helvetica,sans-Serif" font-size="10.00">+ SetupRenderGraph()</text>
<text text-anchor="start" x="615" y="-167.5" font-family="Helvetica,sans-Serif" font-size="10.00">and 4 more...</text>
</a>
</g>
</g>
<!-- Node2 -->
<g id="node2" class="node">
<title>Node2</title>
<g id="a_node2"><a xlink:href="classliger_1_1render_1_1_bloom_feature.html" target="_top" xlink:title=" ">
<polygon fill="white" stroke="black" points="0,-11.5 0,-112.5 150,-112.5 150,-11.5 0,-11.5"/>
<text text-anchor="middle" x="75" y="-100.5" font-family="Helvetica,sans-Serif" font-size="10.00">liger::render::BloomFeature</text>
<polyline fill="none" stroke="black" points="0,-93.5 150,-93.5 "/>
<text text-anchor="middle" x="75" y="-81.5" font-family="Helvetica,sans-Serif" font-size="10.00"> </text>
<polyline fill="none" stroke="black" points="0,-74.5 150,-74.5 "/>
<text text-anchor="start" x="8" y="-62.5" font-family="Helvetica,sans-Serif" font-size="10.00">+ BloomFeature()</text>
<text text-anchor="start" x="8" y="-51.5" font-family="Helvetica,sans-Serif" font-size="10.00">+ ~BloomFeature()</text>
<text text-anchor="start" x="8" y="-40.5" font-family="Helvetica,sans-Serif" font-size="10.00">+ Name()</text>
<text text-anchor="start" x="8" y="-29.5" font-family="Helvetica,sans-Serif" font-size="10.00">+ SetupRenderGraph()</text>
<text text-anchor="start" x="8" y="-18.5" font-family="Helvetica,sans-Serif" font-size="10.00">+ UpdateInfo()</text>
</a>
</g>
</g>
<!-- Node1&#45;&gt;Node2 -->
<g id="edge1" class="edge">
<title>Node1&#45;&gt;Node2</title>
<path fill="none" stroke="midnightblue" d="M596.8,-212.66C492.36,-206.47 304.66,-186.76 158,-124 150.6,-120.83 143.24,-116.9 136.13,-112.56"/>
<polygon fill="none" stroke="midnightblue" points="596.77,-216.17 606.95,-213.24 597.17,-209.18 596.77,-216.17"/>
</g>
<!-- Node3 -->
<g id="node3" class="node">
<title>Node3</title>
<g id="a_node3"><a xlink:href="classliger_1_1render_1_1_camera_data_collector.html" target="_top" xlink:title=" ">
<polygon fill="white" stroke="black" points="167.5,-6 167.5,-118 354.5,-118 354.5,-6 167.5,-6"/>
<text text-anchor="middle" x="261" y="-106" font-family="Helvetica,sans-Serif" font-size="10.00">liger::render::CameraDataCollector</text>
<polyline fill="none" stroke="black" points="167.5,-99 354.5,-99 "/>
<text text-anchor="middle" x="261" y="-87" font-family="Helvetica,sans-Serif" font-size="10.00"> </text>
<polyline fill="none" stroke="black" points="167.5,-80 354.5,-80 "/>
<text text-anchor="start" x="175.5" y="-68" font-family="Helvetica,sans-Serif" font-size="10.00">+ CameraDataCollector()</text>
<text text-anchor="start" x="175.5" y="-57" font-family="Helvetica,sans-Serif" font-size="10.00">+ ~CameraDataCollector()</text>
<text text-anchor="start" x="175.5" y="-46" font-family="Helvetica,sans-Serif" font-size="10.00">+ Name()</text>
<text text-anchor="start" x="175.5" y="-35" font-family="Helvetica,sans-Serif" font-size="10.00">+ SetupEntitySystems()</text>
<text text-anchor="start" x="175.5" y="-24" font-family="Helvetica,sans-Serif" font-size="10.00">+ Run()</text>
<text text-anchor="start" x="175.5" y="-13" font-family="Helvetica,sans-Serif" font-size="10.00">+ PreRender()</text>
</a>
</g>
</g>
<!-- Node1&#45;&gt;Node3 -->
<g id="edge2" class="edge">
<title>Node1&#45;&gt;Node3</title>
<path fill="none" stroke="midnightblue" d="M596.67,-198.24C532.2,-182.82 439.71,-157.49 363,-124 358.75,-122.14 354.45,-120.14 350.16,-118.03"/>
<polygon fill="none" stroke="midnightblue" points="596.24,-201.73 606.77,-200.63 597.85,-194.92 596.24,-201.73"/>
</g>
<!-- Node4 -->
<g id="node4" class="node">
<title>Node4</title>
<g id="a_node4"><a xlink:href="classliger_1_1render_1_1_clustered_light_feature.html" target="_top" xlink:title=" ">
<polygon fill="white" stroke="black" points="372.5,-0.5 372.5,-123.5 561.5,-123.5 561.5,-0.5 372.5,-0.5"/>
<text text-anchor="middle" x="467" y="-111.5" font-family="Helvetica,sans-Serif" font-size="10.00">liger::render::ClusteredLightFeature</text>
<polyline fill="none" stroke="black" points="372.5,-104.5 561.5,-104.5 "/>
<text text-anchor="start" x="380.5" y="-92.5" font-family="Helvetica,sans-Serif" font-size="10.00">+ kClusterSizeXY</text>
<text text-anchor="start" x="380.5" y="-81.5" font-family="Helvetica,sans-Serif" font-size="10.00">+ kMaxLightsPerCluster</text>
<polyline fill="none" stroke="black" points="372.5,-74.5 561.5,-74.5 "/>
<text text-anchor="start" x="380.5" y="-62.5" font-family="Helvetica,sans-Serif" font-size="10.00">+ ClusteredLightFeature()</text>
<text text-anchor="start" x="380.5" y="-51.5" font-family="Helvetica,sans-Serif" font-size="10.00">+ ~ClusteredLightFeature()</text>
<text text-anchor="start" x="380.5" y="-40.5" font-family="Helvetica,sans-Serif" font-size="10.00">+ Name()</text>
<text text-anchor="start" x="380.5" y="-29.5" font-family="Helvetica,sans-Serif" font-size="10.00">+ SetupRenderGraph()</text>
<text text-anchor="start" x="380.5" y="-18.5" font-family="Helvetica,sans-Serif" font-size="10.00">+ SetupEntitySystems()</text>
<text text-anchor="start" x="380.5" y="-7.5" font-family="Helvetica,sans-Serif" font-size="10.00">and 3 more...</text>
</a>
</g>
</g>
<!-- Node1&#45;&gt;Node4 -->
<g id="edge3" class="edge">
<title>Node1&#45;&gt;Node4</title>
<path fill="none" stroke="midnightblue" d="M598.79,-159.16C582.93,-147.59 566.18,-135.37 550.12,-123.65"/>
<polygon fill="none" stroke="midnightblue" points="596.85,-162.08 606.99,-165.14 600.97,-156.42 596.85,-162.08"/>
</g>
<!-- Node5 -->
<g id="node5" class="node">
<title>Node5</title>
<g id="a_node5"><a xlink:href="classliger_1_1render_1_1_forward_render_feature.html" target="_top" xlink:title=" ">
<polygon fill="white" stroke="black" points="580,-0.5 580,-123.5 772,-123.5 772,-0.5 580,-0.5"/>
<text text-anchor="middle" x="676" y="-111.5" font-family="Helvetica,sans-Serif" font-size="10.00">liger::render::ForwardRenderFeature</text>
<polyline fill="none" stroke="black" points="580,-104.5 772,-104.5 "/>
<text text-anchor="middle" x="676" y="-92.5" font-family="Helvetica,sans-Serif" font-size="10.00"> </text>
<polyline fill="none" stroke="black" points="580,-85.5 772,-85.5 "/>
<text text-anchor="start" x="588" y="-73.5" font-family="Helvetica,sans-Serif" font-size="10.00">+ ForwardRenderFeature()</text>
<text text-anchor="start" x="588" y="-62.5" font-family="Helvetica,sans-Serif" font-size="10.00">+ ~ForwardRenderFeature()</text>
<text text-anchor="start" x="588" y="-51.5" font-family="Helvetica,sans-Serif" font-size="10.00">+ Name()</text>
<text text-anchor="start" x="588" y="-40.5" font-family="Helvetica,sans-Serif" font-size="10.00">+ Layers()</text>
<text text-anchor="start" x="588" y="-29.5" font-family="Helvetica,sans-Serif" font-size="10.00">+ SetupRenderGraph()</text>
<text text-anchor="start" x="588" y="-18.5" font-family="Helvetica,sans-Serif" font-size="10.00">+ UpdateSampleCount()</text>
<text text-anchor="start" x="588" y="-7.5" font-family="Helvetica,sans-Serif" font-size="10.00">+ PreRender()</text>
</a>
</g>
</g>
<!-- Node1&#45;&gt;Node5 -->
<g id="edge4" class="edge">
<title>Node1&#45;&gt;Node5</title>
<path fill="none" stroke="midnightblue" d="M676,-150.22C676,-141.4 676,-132.39 676,-123.66"/>
<polygon fill="none" stroke="midnightblue" points="672.5,-150.44 676,-160.44 679.5,-150.44 672.5,-150.44"/>
</g>
<!-- Node6 -->
<g id="node6" class="node">
<title>Node6</title>
<g id="a_node6"><a xlink:href="classliger_1_1render_1_1_particle_system_feature.html" target="_top" xlink:title=" ">
<polygon fill="white" stroke="black" points="790.5,-0.5 790.5,-123.5 981.5,-123.5 981.5,-0.5 790.5,-0.5"/>
<text text-anchor="middle" x="886" y="-111.5" font-family="Helvetica,sans-Serif" font-size="10.00">liger::render::ParticleSystemFeature</text>
<polyline fill="none" stroke="black" points="790.5,-104.5 981.5,-104.5 "/>
<text text-anchor="start" x="798.5" y="-92.5" font-family="Helvetica,sans-Serif" font-size="10.00">+ kMaxParticleSystems</text>
<text text-anchor="start" x="798.5" y="-81.5" font-family="Helvetica,sans-Serif" font-size="10.00">+ kMaxParticlesPerEmitter</text>
<polyline fill="none" stroke="black" points="790.5,-74.5 981.5,-74.5 "/>
<text text-anchor="start" x="798.5" y="-62.5" font-family="Helvetica,sans-Serif" font-size="10.00">+ ParticleSystemFeature()</text>
<text text-anchor="start" x="798.5" y="-51.5" font-family="Helvetica,sans-Serif" font-size="10.00">+ ~ParticleSystemFeature()</text>
<text text-anchor="start" x="798.5" y="-40.5" font-family="Helvetica,sans-Serif" font-size="10.00">+ Name()</text>
<text text-anchor="start" x="798.5" y="-29.5" font-family="Helvetica,sans-Serif" font-size="10.00">+ SetupRenderGraph()</text>
<text text-anchor="start" x="798.5" y="-18.5" font-family="Helvetica,sans-Serif" font-size="10.00">+ AddLayerJobs()</text>
<text text-anchor="start" x="798.5" y="-7.5" font-family="Helvetica,sans-Serif" font-size="10.00">and 3 more...</text>
</a>
</g>
</g>
<!-- Node1&#45;&gt;Node6 -->
<g id="edge5" class="edge">
<title>Node1&#45;&gt;Node6</title>
<path fill="none" stroke="midnightblue" d="M753.35,-159.33C769.4,-147.67 786.38,-135.34 802.64,-123.54"/>
<polygon fill="none" stroke="midnightblue" points="751.09,-156.65 745.05,-165.35 755.2,-162.31 751.09,-156.65"/>
</g>
<!-- Node7 -->
<g id="node7" class="node">
<title>Node7</title>
<g id="a_node7"><a xlink:href="classliger_1_1render_1_1_static_mesh_feature.html" target="_top" xlink:title=" ">
<polygon fill="white" stroke="black" points="999.5,-6 999.5,-118 1172.5,-118 1172.5,-6 999.5,-6"/>
<text text-anchor="middle" x="1086" y="-106" font-family="Helvetica,sans-Serif" font-size="10.00">liger::render::StaticMeshFeature</text>
<polyline fill="none" stroke="black" points="999.5,-99 1172.5,-99 "/>
<text text-anchor="middle" x="1086" y="-87" font-family="Helvetica,sans-Serif" font-size="10.00"> </text>
<polyline fill="none" stroke="black" points="999.5,-80 1172.5,-80 "/>
<text text-anchor="start" x="1007.5" y="-68" font-family="Helvetica,sans-Serif" font-size="10.00">+ StaticMeshFeature()</text>
<text text-anchor="start" x="1007.5" y="-57" font-family="Helvetica,sans-Serif" font-size="10.00">+ ~StaticMeshFeature()</text>
<text text-anchor="start" x="1007.5" y="-46" font-family="Helvetica,sans-Serif" font-size="10.00">+ Name()</text>
<text text-anchor="start" x="1007.5" y="-35" font-family="Helvetica,sans-Serif" font-size="10.00">+ UpdateMode()</text>
<text text-anchor="start" x="1007.5" y="-24" font-family="Helvetica,sans-Serif" font-size="10.00">+ SetupRenderGraph()</text>
<text text-anchor="start" x="1007.5" y="-13" font-family="Helvetica,sans-Serif" font-size="10.00">and 3 more...</text>
</a>
</g>
</g>
<!-- Node1&#45;&gt;Node7 -->
<g id="edge6" class="edge">
<title>Node1&#45;&gt;Node7</title>
<path fill="none" stroke="midnightblue" d="M755.1,-199.2C820.2,-184.23 913.95,-159.03 991,-124 995.01,-122.17 999.06,-120.2 1003.09,-118.11"/>
<polygon fill="none" stroke="midnightblue" points="754.29,-195.8 745.31,-201.43 755.84,-202.62 754.29,-195.8"/>
</g>
<!-- Node8 -->
<g id="node8" class="node">
<title>Node8</title>
<g id="a_node8"><a xlink:href="classliger_1_1render_1_1_tonemap_feature.html" target="_top" xlink:title=" ">
<polygon fill="white" stroke="black" points="1190.5,-17 1190.5,-107 1353.5,-107 1353.5,-17 1190.5,-17"/>
<text text-anchor="middle" x="1272" y="-95" font-family="Helvetica,sans-Serif" font-size="10.00">liger::render::TonemapFeature</text>
<polyline fill="none" stroke="black" points="1190.5,-88 1353.5,-88 "/>
<text text-anchor="middle" x="1272" y="-76" font-family="Helvetica,sans-Serif" font-size="10.00"> </text>
<polyline fill="none" stroke="black" points="1190.5,-69 1353.5,-69 "/>
<text text-anchor="start" x="1198.5" y="-57" font-family="Helvetica,sans-Serif" font-size="10.00">+ TonemapFeature()</text>
<text text-anchor="start" x="1198.5" y="-46" font-family="Helvetica,sans-Serif" font-size="10.00">+ ~TonemapFeature()</text>
<text text-anchor="start" x="1198.5" y="-35" font-family="Helvetica,sans-Serif" font-size="10.00">+ Name()</text>
<text text-anchor="start" x="1198.5" y="-24" font-family="Helvetica,sans-Serif" font-size="10.00">+ SetupRenderGraph()</text>
</a>
</g>
</g>
<!-- Node1&#45;&gt;Node8 -->
<g id="edge7" class="edge">
<title>Node1&#45;&gt;Node8</title>
<path fill="none" stroke="midnightblue" d="M755.45,-211.32C857.57,-203.68 1038.75,-182.43 1182,-124 1193.01,-119.51 1204.05,-113.53 1214.44,-107.08"/>
<polygon fill="none" stroke="midnightblue" points="754.94,-207.84 745.22,-212.05 755.44,-214.82 754.94,-207.84"/>
</g>
</g>
</svg>
        <g id="navigator" transform="translate(0 0)" fill="#404254">
                <rect fill="#f2f5e9" fill-opacity="0.5" stroke="#606060" stroke-width=".5" x="0" y="0" width="60" height="60"/>
                <use id="zoomplus" xlink:href="#zoomPlus" x="17" y="9" onmousedown="handleZoom(evt,'in')"/>
                <use id="zoomminus" xlink:href="#zoomMin" x="42" y="9" onmousedown="handleZoom(evt,'out')"/>
                <use id="reset" xlink:href="#resetDef" x="30" y="36" onmousedown="handleReset()"/>
                <g id="arrowUp" xlink:href="#dirArrow" transform="translate(30 24)" onmousedown="handlePan(0,-1)">
                  <use xlink:href="#rim" fill="#404040">
                        <set attributeName="fill" to="#808080" begin="arrowUp.mouseover" end="arrowUp.mouseout"/>
                  </use>
                  <path fill="none" stroke="white" stroke-width="1.5" d="M0,-3.0v7 M-2.5,-0.5L0,-3.0L2.5,-0.5"/>
                </g>
                <g id="arrowRight" xlink:href="#dirArrow" transform="rotate(90) translate(36 -43)" onmousedown="handlePan(1,0)">
                  <use xlink:href="#rim" fill="#404040">
                        <set attributeName="fill" to="#808080" begin="arrowRight.mouseover" end="arrowRight.mouseout"/>
                  </use>
                  <path fill="none" stroke="white" stroke-width="1.5" d="M0,-3.0v7 M-2.5,-0.5L0,-3.0L2.5,-0.5"/>
                </g>
                <g id="arrowDown" xlink:href="#dirArrow" transform="rotate(180) translate(-30 -48)" onmousedown="handlePan(0,1)">
                  <use xlink:href="#rim" fill="#404040">
                        <set attributeName="fill" to="#808080" begin="arrowDown.mouseover" end="arrowDown.mouseout"/>
                  </use>
                  <path fill="none" stroke="white" stroke-width="1.5" d="M0,-3.0v7 M-2.5,-0.5L0,-3.0L2.5,-0.5"/>
                </g>
                <g id="arrowLeft" xlink:href="#dirArrow" transform="rotate(270) translate(-36 17)" onmousedown="handlePan(-1,0)">
                  <use xlink:href="#rim" fill="#404040">
                        <set attributeName="fill" to="#808080" begin="arrowLeft.mouseover" end="arrowLeft.mouseout"/>
                  </use>
                  <path fill="none" stroke="white" stroke-width="1.5" d="M0,-3.0v7 M-2.5,-0.5L0,-3.0L2.5,-0.5"/>
                </g>
        </g>
        <svg viewBox="0 0 15 15" width="100%" height="30px" preserveAspectRatio="xMaxYMin meet">
         <g id="arrow_out" transform="scale(0.3 0.3)">
          <a xlink:href="classliger_1_1render_1_1_i_feature__inherit__graph_org.svg" target="_base">
           <rect id="button" ry="5" rx="5" y="6" x="6" height="38" width="38"
                fill="#f2f5e9" fill-opacity="0.5" stroke="#606060" stroke-width="1.0"/>
           <path id="arrow"
             d="M 11.500037,31.436501 C 11.940474,20.09759 22.043105,11.32322 32.158766,21.979434 L 37.068811,17.246167 C 37.068811,17.246167 37.088388,32 37.088388,32 L 22.160133,31.978069 C 22.160133,31.978069 26.997745,27.140456 26.997745,27.140456 C 18.528582,18.264221 13.291696,25.230495 11.500037,31.436501 z"
             style="fill:#404040;"/>
          </a>
         </g>
        </svg>
</svg>
