<?xml version="1.0" encoding="UTF-8" standalone="no"?>
<!DOCTYPE svg PUBLIC "-//W3C//DTD SVG 1.1//EN"
 "http://www.w3.org/Graphics/SVG/1.1/DTD/svg11.dtd">
<!-- Generated by graphviz version 2.43.0 (0)
 -->
<!-- Title: liger::asset::ILoader Pages: 1 -->
<!--zoomable 215 -->
<svg id="main" version="1.1" xmlns="http://www.w3.org/2000/svg" xmlns:xlink="http://www.w3.org/1999/xlink" xml:space="preserve" onload="init(evt)">
<style type="text/css"><![CDATA[
.edge:hover path { stroke: red; }
.edge:hover polygon { stroke: red; fill: red; }
]]></style>
<script type="text/javascript"><![CDATA[
var edges = document.getElementsByTagName('g');
if (edges && edges.length) {
  for (var i=0;i<edges.length;i++) {
    if (edges[i].id.substr(0,4)=='edge') {
      edges[i].setAttribute('class','edge');
    }
  }
}
]]></script>
        <defs>
                <circle id="rim" cx="0" cy="0" r="7"/>
                <circle id="rim2" cx="0" cy="0" r="3.5"/>
                <g id="zoomPlus">
                        <use xlink:href="#rim" fill="#404040">
                                <set attributeName="fill" to="#808080" begin="zoomplus.mouseover" end="zoomplus.mouseout"/>
                        </use>
                        <path d="M-4,0h8M0,-4v8" fill="none" stroke="white" stroke-width="1.5" pointer-events="none"/>
                </g>
                <g id="zoomMin">
                        <use xlink:href="#rim" fill="#404040">
                                <set attributeName="fill" to="#808080" begin="zoomminus.mouseover" end="zoomminus.mouseout"/>
                        </use>
                        <path d="M-4,0h8" fill="none" stroke="white" stroke-width="1.5" pointer-events="none"/>
                </g>
                <g id="dirArrow">
                        <path fill="none" stroke="white" stroke-width="1.5" d="M0,-3.0v7 M-2.5,-0.5L0,-3.0L2.5,-0.5"/>
                </g>
               <g id="resetDef">
                       <use xlink:href="#rim2" fill="#404040">
                               <set attributeName="fill" to="#808080" begin="reset.mouseover" end="reset.mouseout"/>
                       </use>
               </g>
        </defs>

<script type="text/javascript">
var viewWidth = 834;
var viewHeight = 215;
var sectionId = 'dynsection-0';
</script>
<script xlink:href="svgpan.js"/>
<svg id="graph" class="graph">
<g id="viewport">
<title>liger::asset::ILoader</title>
<polygon fill="white" stroke="transparent" points="-4,4 -4,-211 830,-211 830,4 -4,4"/>
<!-- Node1 -->
<g id="node1" class="node">
<title>Node1</title>
<g id="a_node1"><a xlink:title=" ">
<polygon fill="#bfbfbf" stroke="black" points="353.5,-127.5 353.5,-206.5 466.5,-206.5 466.5,-127.5 353.5,-127.5"/>
<text text-anchor="middle" x="410" y="-194.5" font-family="Helvetica,sans-Serif" font-size="10.00">liger::asset::ILoader</text>
<polyline fill="none" stroke="black" points="353.5,-187.5 466.5,-187.5 "/>
<text text-anchor="middle" x="410" y="-175.5" font-family="Helvetica,sans-Serif" font-size="10.00"> </text>
<polyline fill="none" stroke="black" points="353.5,-168.5 466.5,-168.5 "/>
<text text-anchor="start" x="361.5" y="-156.5" font-family="Helvetica,sans-Serif" font-size="10.00">+ ~ILoader()</text>
<text text-anchor="start" x="361.5" y="-145.5" font-family="Helvetica,sans-Serif" font-size="10.00">+ FileExtensions()</text>
<text text-anchor="start" x="361.5" y="-134.5" font-family="Helvetica,sans-Serif" font-size="10.00">+ Load()</text>
</a>
</g>
</g>
<!-- Node2 -->
<g id="node2" class="node">
<title>Node2</title>
<g id="a_node2"><a xlink:href="classliger_1_1asset_1_1loaders_1_1_material_loader.html" target="_top" xlink:title="Static mesh material asset loader.">
<polygon fill="white" stroke="black" points="0,-0.5 0,-90.5 192,-90.5 192,-0.5 0,-0.5"/>
<text text-anchor="middle" x="96" y="-78.5" font-family="Helvetica,sans-Serif" font-size="10.00">liger::asset::loaders::MaterialLoader</text>
<polyline fill="none" stroke="black" points="0,-71.5 192,-71.5 "/>
<text text-anchor="middle" x="96" y="-59.5" font-family="Helvetica,sans-Serif" font-size="10.00"> </text>
<polyline fill="none" stroke="black" points="0,-52.5 192,-52.5 "/>
<text text-anchor="start" x="8" y="-40.5" font-family="Helvetica,sans-Serif" font-size="10.00">+ MaterialLoader()</text>
<text text-anchor="start" x="8" y="-29.5" font-family="Helvetica,sans-Serif" font-size="10.00">+ ~MaterialLoader()</text>
<text text-anchor="start" x="8" y="-18.5" font-family="Helvetica,sans-Serif" font-size="10.00">+ FileExtensions()</text>
<text text-anchor="start" x="8" y="-7.5" font-family="Helvetica,sans-Serif" font-size="10.00">+ Load()</text>
</a>
</g>
</g>
<!-- Node1&#45;&gt;Node2 -->
<g id="edge1" class="edge">
<title>Node1&#45;&gt;Node2</title>
<path fill="none" stroke="midnightblue" d="M343.68,-143.27C302.42,-128.87 248.37,-109.52 201,-91 198.05,-89.85 195.06,-88.66 192.04,-87.46"/>
<polygon fill="none" stroke="midnightblue" points="342.76,-146.66 353.35,-146.64 345.06,-140.05 342.76,-146.66"/>
</g>
<!-- Node3 -->
<g id="node3" class="node">
<title>Node3</title>
<g id="a_node3"><a xlink:href="classliger_1_1asset_1_1loaders_1_1_shader_loader.html" target="_top" xlink:title=" ">
<polygon fill="white" stroke="black" points="210.5,-0.5 210.5,-90.5 395.5,-90.5 395.5,-0.5 210.5,-0.5"/>
<text text-anchor="middle" x="303" y="-78.5" font-family="Helvetica,sans-Serif" font-size="10.00">liger::asset::loaders::ShaderLoader</text>
<polyline fill="none" stroke="black" points="210.5,-71.5 395.5,-71.5 "/>
<text text-anchor="middle" x="303" y="-59.5" font-family="Helvetica,sans-Serif" font-size="10.00"> </text>
<polyline fill="none" stroke="black" points="210.5,-52.5 395.5,-52.5 "/>
<text text-anchor="start" x="218.5" y="-40.5" font-family="Helvetica,sans-Serif" font-size="10.00">+ ShaderLoader()</text>
<text text-anchor="start" x="218.5" y="-29.5" font-family="Helvetica,sans-Serif" font-size="10.00">+ ~ShaderLoader()</text>
<text text-anchor="start" x="218.5" y="-18.5" font-family="Helvetica,sans-Serif" font-size="10.00">+ FileExtensions()</text>
<text text-anchor="start" x="218.5" y="-7.5" font-family="Helvetica,sans-Serif" font-size="10.00">+ Load()</text>
</a>
</g>
</g>
<!-- Node1&#45;&gt;Node3 -->
<g id="edge2" class="edge">
<title>Node1&#45;&gt;Node3</title>
<path fill="none" stroke="midnightblue" d="M368.57,-119.73C360.09,-110.26 351.18,-100.31 342.77,-90.91"/>
<polygon fill="none" stroke="midnightblue" points="365.98,-122.09 375.26,-127.2 371.2,-117.42 365.98,-122.09"/>
</g>
<!-- Node4 -->
<g id="node4" class="node">
<title>Node4</title>
<g id="a_node4"><a xlink:href="classliger_1_1asset_1_1loaders_1_1_static_mesh_loader.html" target="_top" xlink:title="Static mesh asset loader.">
<polygon fill="white" stroke="black" points="414,-0.5 414,-90.5 620,-90.5 620,-0.5 414,-0.5"/>
<text text-anchor="middle" x="517" y="-78.5" font-family="Helvetica,sans-Serif" font-size="10.00">liger::asset::loaders::StaticMeshLoader</text>
<polyline fill="none" stroke="black" points="414,-71.5 620,-71.5 "/>
<text text-anchor="middle" x="517" y="-59.5" font-family="Helvetica,sans-Serif" font-size="10.00"> </text>
<polyline fill="none" stroke="black" points="414,-52.5 620,-52.5 "/>
<text text-anchor="start" x="422" y="-40.5" font-family="Helvetica,sans-Serif" font-size="10.00">+ StaticMeshLoader()</text>
<text text-anchor="start" x="422" y="-29.5" font-family="Helvetica,sans-Serif" font-size="10.00">+ ~StaticMeshLoader()</text>
<text text-anchor="start" x="422" y="-18.5" font-family="Helvetica,sans-Serif" font-size="10.00">+ FileExtensions()</text>
<text text-anchor="start" x="422" y="-7.5" font-family="Helvetica,sans-Serif" font-size="10.00">+ Load()</text>
</a>
</g>
</g>
<!-- Node1&#45;&gt;Node4 -->
<g id="edge3" class="edge">
<title>Node1&#45;&gt;Node4</title>
<path fill="none" stroke="midnightblue" d="M451.43,-119.73C459.91,-110.26 468.82,-100.31 477.23,-90.91"/>
<polygon fill="none" stroke="midnightblue" points="448.8,-117.42 444.74,-127.2 454.02,-122.09 448.8,-117.42"/>
</g>
<!-- Node5 -->
<g id="node5" class="node">
<title>Node5</title>
<g id="a_node5"><a xlink:href="classliger_1_1asset_1_1loaders_1_1_texture_loader.html" target="_top" xlink:title=" ">
<polygon fill="white" stroke="black" points="638,-0.5 638,-90.5 826,-90.5 826,-0.5 638,-0.5"/>
<text text-anchor="middle" x="732" y="-78.5" font-family="Helvetica,sans-Serif" font-size="10.00">liger::asset::loaders::TextureLoader</text>
<polyline fill="none" stroke="black" points="638,-71.5 826,-71.5 "/>
<text text-anchor="middle" x="732" y="-59.5" font-family="Helvetica,sans-Serif" font-size="10.00"> </text>
<polyline fill="none" stroke="black" points="638,-52.5 826,-52.5 "/>
<text text-anchor="start" x="646" y="-40.5" font-family="Helvetica,sans-Serif" font-size="10.00">+ TextureLoader()</text>
<text text-anchor="start" x="646" y="-29.5" font-family="Helvetica,sans-Serif" font-size="10.00">+ ~TextureLoader()</text>
<text text-anchor="start" x="646" y="-18.5" font-family="Helvetica,sans-Serif" font-size="10.00">+ FileExtensions()</text>
<text text-anchor="start" x="646" y="-7.5" font-family="Helvetica,sans-Serif" font-size="10.00">+ Load()</text>
</a>
</g>
</g>
<!-- Node1&#45;&gt;Node5 -->
<g id="edge4" class="edge">
<title>Node1&#45;&gt;Node5</title>
<path fill="none" stroke="midnightblue" d="M476.35,-144.77C520.03,-130.43 578.29,-110.6 629,-91 631.91,-89.88 634.85,-88.72 637.82,-87.54"/>
<polygon fill="none" stroke="midnightblue" points="475.11,-141.49 466.7,-147.93 477.29,-148.14 475.11,-141.49"/>
</g>
</g>
</svg>
        <g id="navigator" transform="translate(0 0)" fill="#404254">
                <rect fill="#f2f5e9" fill-opacity="0.5" stroke="#606060" stroke-width=".5" x="0" y="0" width="60" height="60"/>
                <use id="zoomplus" xlink:href="#zoomPlus" x="17" y="9" onmousedown="handleZoom(evt,'in')"/>
                <use id="zoomminus" xlink:href="#zoomMin" x="42" y="9" onmousedown="handleZoom(evt,'out')"/>
                <use id="reset" xlink:href="#resetDef" x="30" y="36" onmousedown="handleReset()"/>
                <g id="arrowUp" xlink:href="#dirArrow" transform="translate(30 24)" onmousedown="handlePan(0,-1)">
                  <use xlink:href="#rim" fill="#404040">
                        <set attributeName="fill" to="#808080" begin="arrowUp.mouseover" end="arrowUp.mouseout"/>
                  </use>
                  <path fill="none" stroke="white" stroke-width="1.5" d="M0,-3.0v7 M-2.5,-0.5L0,-3.0L2.5,-0.5"/>
                </g>
                <g id="arrowRight" xlink:href="#dirArrow" transform="rotate(90) translate(36 -43)" onmousedown="handlePan(1,0)">
                  <use xlink:href="#rim" fill="#404040">
                        <set attributeName="fill" to="#808080" begin="arrowRight.mouseover" end="arrowRight.mouseout"/>
                  </use>
                  <path fill="none" stroke="white" stroke-width="1.5" d="M0,-3.0v7 M-2.5,-0.5L0,-3.0L2.5,-0.5"/>
                </g>
                <g id="arrowDown" xlink:href="#dirArrow" transform="rotate(180) translate(-30 -48)" onmousedown="handlePan(0,1)">
                  <use xlink:href="#rim" fill="#404040">
                        <set attributeName="fill" to="#808080" begin="arrowDown.mouseover" end="arrowDown.mouseout"/>
                  </use>
                  <path fill="none" stroke="white" stroke-width="1.5" d="M0,-3.0v7 M-2.5,-0.5L0,-3.0L2.5,-0.5"/>
                </g>
                <g id="arrowLeft" xlink:href="#dirArrow" transform="rotate(270) translate(-36 17)" onmousedown="handlePan(-1,0)">
                  <use xlink:href="#rim" fill="#404040">
                        <set attributeName="fill" to="#808080" begin="arrowLeft.mouseover" end="arrowLeft.mouseout"/>
                  </use>
                  <path fill="none" stroke="white" stroke-width="1.5" d="M0,-3.0v7 M-2.5,-0.5L0,-3.0L2.5,-0.5"/>
                </g>
        </g>
        <svg viewBox="0 0 15 15" width="100%" height="30px" preserveAspectRatio="xMaxYMin meet">
         <g id="arrow_out" transform="scale(0.3 0.3)">
          <a xlink:href="classliger_1_1asset_1_1_i_loader__inherit__graph_org.svg" target="_base">
           <rect id="button" ry="5" rx="5" y="6" x="6" height="38" width="38"
                fill="#f2f5e9" fill-opacity="0.5" stroke="#606060" stroke-width="1.0"/>
           <path id="arrow"
             d="M 11.500037,31.436501 C 11.940474,20.09759 22.043105,11.32322 32.158766,21.979434 L 37.068811,17.246167 C 37.068811,17.246167 37.088388,32 37.088388,32 L 22.160133,31.978069 C 22.160133,31.978069 26.997745,27.140456 26.997745,27.140456 C 18.528582,18.264221 13.291696,25.230495 11.500037,31.436501 z"
             style="fill:#404040;"/>
          </a>
         </g>
        </svg>
</svg>
