<?xml version="1.0" encoding="UTF-8" standalone="no"?>
<!DOCTYPE svg PUBLIC "-//W3C//DTD SVG 1.1//EN"
 "http://www.w3.org/Graphics/SVG/1.1/DTD/svg11.dtd">
<!-- Generated by graphviz version 2.43.0 (0)
 -->
<!-- Title: ExclusiveComponentSystem Pages: 1 -->
<svg width="275pt" height="215pt"
 viewBox="0.00 0.00 275.00 215.00" xmlns="http://www.w3.org/2000/svg" xmlns:xlink="http://www.w3.org/1999/xlink">
<g id="graph0" class="graph" transform="scale(1 1) rotate(0) translate(4 211)">
<title>ExclusiveComponentSystem</title>
<polygon fill="white" stroke="transparent" points="-4,4 -4,-211 271,-211 271,4 -4,4"/>
<!-- Node1 -->
<g id="node1" class="node">
<title>Node1</title>
<g id="a_node1"><a xlink:title=" ">
<polygon fill="#bfbfbf" stroke="black" points="55.5,-149.5 55.5,-206.5 211.5,-206.5 211.5,-149.5 55.5,-149.5"/>
<text text-anchor="middle" x="133.5" y="-194.5" font-family="Helvetica,sans-Serif" font-size="10.00">ExclusiveComponentSystem</text>
<polyline fill="none" stroke="black" points="55.5,-187.5 211.5,-187.5 "/>
<text text-anchor="middle" x="133.5" y="-175.5" font-family="Helvetica,sans-Serif" font-size="10.00"> </text>
<polyline fill="none" stroke="black" points="55.5,-168.5 211.5,-168.5 "/>
<text text-anchor="middle" x="133.5" y="-156.5" font-family="Helvetica,sans-Serif" font-size="10.00"> </text>
</a>
</g>
</g>
<!-- Node2 -->
<g id="node2" class="node">
<title>Node2</title>
<g id="a_node2"><a xlink:href="classliger_1_1ecs_1_1_script_system.html" target="_top" xlink:title=" ">
<polygon fill="white" stroke="black" points="0,-0.5 0,-112.5 267,-112.5 267,-0.5 0,-0.5"/>
<text text-anchor="middle" x="133.5" y="-100.5" font-family="Helvetica,sans-Serif" font-size="10.00">liger::ecs::ScriptSystem&lt; const ScriptComponent &gt;</text>
<polyline fill="none" stroke="black" points="0,-93.5 267,-93.5 "/>
<text text-anchor="middle" x="133.5" y="-81.5" font-family="Helvetica,sans-Serif" font-size="10.00"> </text>
<polyline fill="none" stroke="black" points="0,-74.5 267,-74.5 "/>
<text text-anchor="start" x="8" y="-62.5" font-family="Helvetica,sans-Serif" font-size="10.00">+ ScriptSystem()</text>
<text text-anchor="start" x="8" y="-51.5" font-family="Helvetica,sans-Serif" font-size="10.00">+ ~ScriptSystem()</text>
<text text-anchor="start" x="8" y="-40.5" font-family="Helvetica,sans-Serif" font-size="10.00">+ Setup()</text>
<text text-anchor="start" x="8" y="-29.5" font-family="Helvetica,sans-Serif" font-size="10.00">+ Run()</text>
<text text-anchor="start" x="8" y="-18.5" font-family="Helvetica,sans-Serif" font-size="10.00">+ OnAttach()</text>
<text text-anchor="start" x="8" y="-7.5" font-family="Helvetica,sans-Serif" font-size="10.00">+ Name()</text>
</a>
</g>
</g>
<!-- Node1&#45;&gt;Node2 -->
<g id="edge1" class="edge">
<title>Node1&#45;&gt;Node2</title>
<path fill="none" stroke="midnightblue" d="M133.5,-139.11C133.5,-130.75 133.5,-121.73 133.5,-112.83"/>
<polygon fill="none" stroke="midnightblue" points="130,-139.28 133.5,-149.28 137,-139.28 130,-139.28"/>
</g>
</g>
</svg>
