<?xml version="1.0" encoding="UTF-8" standalone="no"?>
<!DOCTYPE svg PUBLIC "-//W3C//DTD SVG 1.1//EN"
 "http://www.w3.org/Graphics/SVG/1.1/DTD/svg11.dtd">
<!-- Generated by graphviz version 2.43.0 (0)
 -->
<!-- Title: liger::render::ParticleSystemFeature Pages: 1 -->
<svg width="199pt" height="281pt"
 viewBox="0.00 0.00 199.00 281.00" xmlns="http://www.w3.org/2000/svg" xmlns:xlink="http://www.w3.org/1999/xlink">
<g id="graph0" class="graph" transform="scale(1 1) rotate(0) translate(4 277)">
<title>liger::render::ParticleSystemFeature</title>
<polygon fill="white" stroke="transparent" points="-4,4 -4,-277 195,-277 195,4 -4,4"/>
<!-- Node1 -->
<g id="node1" class="node">
<title>Node1</title>
<g id="a_node1"><a xlink:title=" ">
<polygon fill="#bfbfbf" stroke="black" points="0,-0.5 0,-123.5 191,-123.5 191,-0.5 0,-0.5"/>
<text text-anchor="middle" x="95.5" y="-111.5" font-family="Helvetica,sans-Serif" font-size="10.00">liger::render::ParticleSystemFeature</text>
<polyline fill="none" stroke="black" points="0,-104.5 191,-104.5 "/>
<text text-anchor="start" x="8" y="-92.5" font-family="Helvetica,sans-Serif" font-size="10.00">+ kMaxParticleSystems</text>
<text text-anchor="start" x="8" y="-81.5" font-family="Helvetica,sans-Serif" font-size="10.00">+ kMaxParticlesPerEmitter</text>
<polyline fill="none" stroke="black" points="0,-74.5 191,-74.5 "/>
<text text-anchor="start" x="8" y="-62.5" font-family="Helvetica,sans-Serif" font-size="10.00">+ ParticleSystemFeature()</text>
<text text-anchor="start" x="8" y="-51.5" font-family="Helvetica,sans-Serif" font-size="10.00">+ ~ParticleSystemFeature()</text>
<text text-anchor="start" x="8" y="-40.5" font-family="Helvetica,sans-Serif" font-size="10.00">+ Name()</text>
<text text-anchor="start" x="8" y="-29.5" font-family="Helvetica,sans-Serif" font-size="10.00">+ SetupRenderGraph()</text>
<text text-anchor="start" x="8" y="-18.5" font-family="Helvetica,sans-Serif" font-size="10.00">+ AddLayerJobs()</text>
<text text-anchor="start" x="8" y="-7.5" font-family="Helvetica,sans-Serif" font-size="10.00">and 3 more...</text>
</a>
</g>
</g>
<!-- Node2 -->
<g id="node2" class="node">
<title>Node2</title>
<g id="a_node2"><a xlink:href="classliger_1_1render_1_1_i_feature.html" target="_top" xlink:title=" ">
<polygon fill="white" stroke="black" points="26.5,-160.5 26.5,-272.5 164.5,-272.5 164.5,-160.5 26.5,-160.5"/>
<text text-anchor="middle" x="95.5" y="-260.5" font-family="Helvetica,sans-Serif" font-size="10.00">liger::render::IFeature</text>
<polyline fill="none" stroke="black" points="26.5,-253.5 164.5,-253.5 "/>
<text text-anchor="middle" x="95.5" y="-241.5" font-family="Helvetica,sans-Serif" font-size="10.00"> </text>
<polyline fill="none" stroke="black" points="26.5,-234.5 164.5,-234.5 "/>
<text text-anchor="start" x="34.5" y="-222.5" font-family="Helvetica,sans-Serif" font-size="10.00">+ ~IFeature()</text>
<text text-anchor="start" x="34.5" y="-211.5" font-family="Helvetica,sans-Serif" font-size="10.00">+ Name()</text>
<text text-anchor="start" x="34.5" y="-200.5" font-family="Helvetica,sans-Serif" font-size="10.00">+ DependencyFeatures()</text>
<text text-anchor="start" x="34.5" y="-189.5" font-family="Helvetica,sans-Serif" font-size="10.00">+ Layers()</text>
<text text-anchor="start" x="34.5" y="-178.5" font-family="Helvetica,sans-Serif" font-size="10.00">+ SetupRenderGraph()</text>
<text text-anchor="start" x="34.5" y="-167.5" font-family="Helvetica,sans-Serif" font-size="10.00">and 4 more...</text>
</a>
</g>
</g>
<!-- Node2&#45;&gt;Node1 -->
<g id="edge1" class="edge">
<title>Node2&#45;&gt;Node1</title>
<path fill="none" stroke="midnightblue" d="M95.5,-150.22C95.5,-141.4 95.5,-132.39 95.5,-123.66"/>
<polygon fill="none" stroke="midnightblue" points="92,-150.44 95.5,-160.44 99,-150.44 92,-150.44"/>
</g>
</g>
</svg>
