<?xml version="1.0" encoding="UTF-8" standalone="no"?>
<!DOCTYPE svg PUBLIC "-//W3C//DTD SVG 1.1//EN"
 "http://www.w3.org/Graphics/SVG/1.1/DTD/svg11.dtd">
<!-- Generated by graphviz version 2.43.0 (0)
 -->
<!-- Title: liger::rhi::UniqueMappedBuffer&lt; T &gt; Pages: 1 -->
<svg width="508pt" height="292pt"
 viewBox="0.00 0.00 507.50 292.00" xmlns="http://www.w3.org/2000/svg" xmlns:xlink="http://www.w3.org/1999/xlink">
<g id="graph0" class="graph" transform="scale(1 1) rotate(0) translate(4 288)">
<title>liger::rhi::UniqueMappedBuffer&lt; T &gt;</title>
<polygon fill="white" stroke="transparent" points="-4,4 -4,-288 503.5,-288 503.5,4 -4,4"/>
<!-- Node1 -->
<g id="node1" class="node">
<title>Node1</title>
<g id="a_node1"><a xlink:title=" ">
<polygon fill="#bfbfbf" stroke="black" points="131.5,-171.5 131.5,-283.5 325.5,-283.5 325.5,-171.5 131.5,-171.5"/>
<text text-anchor="middle" x="228.5" y="-271.5" font-family="Helvetica,sans-Serif" font-size="10.00">liger::rhi::UniqueMappedBuffer&lt; T &gt;</text>
<polyline fill="none" stroke="black" points="131.5,-264.5 325.5,-264.5 "/>
<text text-anchor="middle" x="228.5" y="-252.5" font-family="Helvetica,sans-Serif" font-size="10.00"> </text>
<polyline fill="none" stroke="black" points="131.5,-245.5 325.5,-245.5 "/>
<text text-anchor="start" x="139.5" y="-233.5" font-family="Helvetica,sans-Serif" font-size="10.00">+ UniqueMappedBuffer()</text>
<text text-anchor="start" x="139.5" y="-222.5" font-family="Helvetica,sans-Serif" font-size="10.00">+ UniqueMappedBuffer()</text>
<text text-anchor="start" x="139.5" y="-211.5" font-family="Helvetica,sans-Serif" font-size="10.00">+ ~UniqueMappedBuffer()</text>
<text text-anchor="start" x="139.5" y="-200.5" font-family="Helvetica,sans-Serif" font-size="10.00">+ UniqueMappedBuffer()</text>
<text text-anchor="start" x="139.5" y="-189.5" font-family="Helvetica,sans-Serif" font-size="10.00">+ operator=()</text>
<text text-anchor="start" x="139.5" y="-178.5" font-family="Helvetica,sans-Serif" font-size="10.00">and 9 more...</text>
</a>
</g>
</g>
<!-- Node2 -->
<g id="node2" class="node">
<title>Node2</title>
<g id="a_node2"><a xlink:href="classliger_1_1rhi_1_1_unique_mapped_buffer.html" target="_top" xlink:title=" ">
<polygon fill="white" stroke="black" points="0,-0.5 0,-123.5 199,-123.5 199,-0.5 0,-0.5"/>
<text text-anchor="start" x="8" y="-111.5" font-family="Helvetica,sans-Serif" font-size="10.00">liger::rhi::UniqueMappedBuffer&lt; liger</text>
<text text-anchor="middle" x="99.5" y="-100.5" font-family="Helvetica,sans-Serif" font-size="10.00">::render::CameraData &gt;</text>
<polyline fill="none" stroke="black" points="0,-93.5 199,-93.5 "/>
<text text-anchor="middle" x="99.5" y="-81.5" font-family="Helvetica,sans-Serif" font-size="10.00"> </text>
<polyline fill="none" stroke="black" points="0,-74.5 199,-74.5 "/>
<text text-anchor="start" x="8" y="-62.5" font-family="Helvetica,sans-Serif" font-size="10.00">+ UniqueMappedBuffer()</text>
<text text-anchor="start" x="8" y="-51.5" font-family="Helvetica,sans-Serif" font-size="10.00">+ UniqueMappedBuffer()</text>
<text text-anchor="start" x="8" y="-40.5" font-family="Helvetica,sans-Serif" font-size="10.00">+ UniqueMappedBuffer()</text>
<text text-anchor="start" x="8" y="-29.5" font-family="Helvetica,sans-Serif" font-size="10.00">+ UniqueMappedBuffer()</text>
<text text-anchor="start" x="8" y="-18.5" font-family="Helvetica,sans-Serif" font-size="10.00">+ ~UniqueMappedBuffer()</text>
<text text-anchor="start" x="8" y="-7.5" font-family="Helvetica,sans-Serif" font-size="10.00">and 9 more...</text>
</a>
</g>
</g>
<!-- Node1&#45;&gt;Node2 -->
<g id="edge1" class="edge">
<title>Node1&#45;&gt;Node2</title>
<path fill="none" stroke="orange" d="M178.52,-163.15C168.27,-150.16 157.51,-136.52 147.33,-123.63"/>
<polygon fill="orange" stroke="orange" points="175.88,-165.46 184.83,-171.15 181.38,-161.13 175.88,-165.46"/>
<text text-anchor="middle" x="245" y="-145" font-family="Helvetica,sans-Serif" font-size="10.00"> &lt; liger::render::CameraData &gt;</text>
</g>
<!-- Node3 -->
<g id="node3" class="node">
<title>Node3</title>
<g id="a_node3"><a xlink:href="classliger_1_1rhi_1_1_unique_mapped_buffer.html" target="_top" xlink:title=" ">
<polygon fill="white" stroke="black" points="217.5,-6 217.5,-118 499.5,-118 499.5,-6 217.5,-6"/>
<text text-anchor="middle" x="358.5" y="-106" font-family="Helvetica,sans-Serif" font-size="10.00">liger::rhi::UniqueMappedBuffer&lt; ParticleEmitterUBO &gt;</text>
<polyline fill="none" stroke="black" points="217.5,-99 499.5,-99 "/>
<text text-anchor="middle" x="358.5" y="-87" font-family="Helvetica,sans-Serif" font-size="10.00"> </text>
<polyline fill="none" stroke="black" points="217.5,-80 499.5,-80 "/>
<text text-anchor="start" x="225.5" y="-68" font-family="Helvetica,sans-Serif" font-size="10.00">+ UniqueMappedBuffer()</text>
<text text-anchor="start" x="225.5" y="-57" font-family="Helvetica,sans-Serif" font-size="10.00">+ UniqueMappedBuffer()</text>
<text text-anchor="start" x="225.5" y="-46" font-family="Helvetica,sans-Serif" font-size="10.00">+ UniqueMappedBuffer()</text>
<text text-anchor="start" x="225.5" y="-35" font-family="Helvetica,sans-Serif" font-size="10.00">+ UniqueMappedBuffer()</text>
<text text-anchor="start" x="225.5" y="-24" font-family="Helvetica,sans-Serif" font-size="10.00">+ ~UniqueMappedBuffer()</text>
<text text-anchor="start" x="225.5" y="-13" font-family="Helvetica,sans-Serif" font-size="10.00">and 9 more...</text>
</a>
</g>
</g>
<!-- Node1&#45;&gt;Node3 -->
<g id="edge2" class="edge">
<title>Node1&#45;&gt;Node3</title>
<path fill="none" stroke="orange" d="M316.3,-164.17C319.58,-160.56 322.66,-156.83 325.5,-153 333.12,-142.7 339.14,-130.45 343.84,-118.36"/>
<polygon fill="orange" stroke="orange" points="313.74,-161.78 309.34,-171.42 318.79,-166.63 313.74,-161.78"/>
<text text-anchor="middle" x="392.5" y="-145" font-family="Helvetica,sans-Serif" font-size="10.00"> &lt; ParticleEmitterUBO &gt;</text>
</g>
</g>
</svg>
