<?xml version="1.0" encoding="UTF-8" standalone="no"?>
<!DOCTYPE svg PUBLIC "-//W3C//DTD SVG 1.1//EN"
 "http://www.w3.org/Graphics/SVG/1.1/DTD/svg11.dtd">
<!-- Generated by graphviz version 2.43.0 (0)
 -->
<!-- Title: ComponentSystem Pages: 1 -->
<svg width="244pt" height="193pt"
 viewBox="0.00 0.00 244.00 193.00" xmlns="http://www.w3.org/2000/svg" xmlns:xlink="http://www.w3.org/1999/xlink">
<g id="graph0" class="graph" transform="scale(1 1) rotate(0) translate(4 189)">
<title>ComponentSystem</title>
<polygon fill="white" stroke="transparent" points="-4,4 -4,-189 240,-189 240,4 -4,4"/>
<!-- Node1 -->
<g id="node1" class="node">
<title>Node1</title>
<g id="a_node1"><a xlink:title=" ">
<polygon fill="#bfbfbf" stroke="black" points="63,-127.5 63,-184.5 173,-184.5 173,-127.5 63,-127.5"/>
<text text-anchor="middle" x="118" y="-172.5" font-family="Helvetica,sans-Serif" font-size="10.00">ComponentSystem</text>
<polyline fill="none" stroke="black" points="63,-165.5 173,-165.5 "/>
<text text-anchor="middle" x="118" y="-153.5" font-family="Helvetica,sans-Serif" font-size="10.00"> </text>
<polyline fill="none" stroke="black" points="63,-146.5 173,-146.5 "/>
<text text-anchor="middle" x="118" y="-134.5" font-family="Helvetica,sans-Serif" font-size="10.00"> </text>
</a>
</g>
</g>
<!-- Node2 -->
<g id="node2" class="node">
<title>Node2</title>
<g id="a_node2"><a xlink:href="classliger_1_1ecs_1_1_camera_aspect_system.html" target="_top" xlink:title=" ">
<polygon fill="white" stroke="black" points="0,-0.5 0,-90.5 236,-90.5 236,-0.5 0,-0.5"/>
<text text-anchor="middle" x="118" y="-78.5" font-family="Helvetica,sans-Serif" font-size="10.00">liger::ecs::CameraAspectSystem&lt; Camera &gt;</text>
<polyline fill="none" stroke="black" points="0,-71.5 236,-71.5 "/>
<text text-anchor="middle" x="118" y="-59.5" font-family="Helvetica,sans-Serif" font-size="10.00"> </text>
<polyline fill="none" stroke="black" points="0,-52.5 236,-52.5 "/>
<text text-anchor="start" x="8" y="-40.5" font-family="Helvetica,sans-Serif" font-size="10.00">+ CameraAspectSystem()</text>
<text text-anchor="start" x="8" y="-29.5" font-family="Helvetica,sans-Serif" font-size="10.00">+ ~CameraAspectSystem()</text>
<text text-anchor="start" x="8" y="-18.5" font-family="Helvetica,sans-Serif" font-size="10.00">+ Run()</text>
<text text-anchor="start" x="8" y="-7.5" font-family="Helvetica,sans-Serif" font-size="10.00">+ Name()</text>
</a>
</g>
</g>
<!-- Node1&#45;&gt;Node2 -->
<g id="edge1" class="edge">
<title>Node1&#45;&gt;Node2</title>
<path fill="none" stroke="midnightblue" d="M118,-117.21C118,-108.61 118,-99.39 118,-90.55"/>
<polygon fill="none" stroke="midnightblue" points="114.5,-117.34 118,-127.34 121.5,-117.34 114.5,-117.34"/>
</g>
</g>
</svg>
