<?xml version="1.0" encoding="UTF-8" standalone="no"?>
<!DOCTYPE svg PUBLIC "-//W3C//DTD SVG 1.1//EN"
 "http://www.w3.org/Graphics/SVG/1.1/DTD/svg11.dtd">
<!-- Generated by graphviz version 2.43.0 (0)
 -->
<!-- Title: console_log_writer.cpp Pages: 1 -->
<!--zoomable 420 -->
<svg id="main" version="1.1" xmlns="http://www.w3.org/2000/svg" xmlns:xlink="http://www.w3.org/1999/xlink" xml:space="preserve" onload="init(evt)">
<style type="text/css"><![CDATA[
.edge:hover path { stroke: red; }
.edge:hover polygon { stroke: red; fill: red; }
]]></style>
<script type="text/javascript"><![CDATA[
var edges = document.getElementsByTagName('g');
if (edges && edges.length) {
  for (var i=0;i<edges.length;i++) {
    if (edges[i].id.substr(0,4)=='edge') {
      edges[i].setAttribute('class','edge');
    }
  }
}
]]></script>
        <defs>
                <circle id="rim" cx="0" cy="0" r="7"/>
                <circle id="rim2" cx="0" cy="0" r="3.5"/>
                <g id="zoomPlus">
                        <use xlink:href="#rim" fill="#404040">
                                <set attributeName="fill" to="#808080" begin="zoomplus.mouseover" end="zoomplus.mouseout"/>
                        </use>
                        <path d="M-4,0h8M0,-4v8" fill="none" stroke="white" stroke-width="1.5" pointer-events="none"/>
                </g>
                <g id="zoomMin">
                        <use xlink:href="#rim" fill="#404040">
                                <set attributeName="fill" to="#808080" begin="zoomminus.mouseover" end="zoomminus.mouseout"/>
                        </use>
                        <path d="M-4,0h8" fill="none" stroke="white" stroke-width="1.5" pointer-events="none"/>
                </g>
                <g id="dirArrow">
                        <path fill="none" stroke="white" stroke-width="1.5" d="M0,-3.0v7 M-2.5,-0.5L0,-3.0L2.5,-0.5"/>
                </g>
               <g id="resetDef">
                       <use xlink:href="#rim2" fill="#404040">
                               <set attributeName="fill" to="#808080" begin="reset.mouseover" end="reset.mouseout"/>
                       </use>
               </g>
        </defs>

<script type="text/javascript">
var viewWidth = 878;
var viewHeight = 420;
var sectionId = 'dynsection-0';
</script>
<script xlink:href="svgpan.js"/>
<svg id="graph" class="graph">
<g id="viewport">
<title>console_log_writer.cpp</title>
<polygon fill="white" stroke="transparent" points="-4,4 -4,-416 873.5,-416 873.5,4 -4,4"/>
<!-- Node1 -->
<g id="node1" class="node">
<title>Node1</title>
<g id="a_node1"><a xlink:title=" ">
<polygon fill="#bfbfbf" stroke="black" points="393,-392.5 393,-411.5 521,-411.5 521,-392.5 393,-392.5"/>
<text text-anchor="middle" x="457" y="-399.5" font-family="Helvetica,sans-Serif" font-size="10.00">console_log_writer.cpp</text>
</a>
</g>
</g>
<!-- Node2 -->
<g id="node2" class="node">
<title>Node2</title>
<g id="a_node2"><a xlink:href="console__log__writer_8hpp.html" target="_top" xlink:title=" ">
<polygon fill="white" stroke="black" points="211.5,-336.5 211.5,-355.5 406.5,-355.5 406.5,-336.5 211.5,-336.5"/>
<text text-anchor="middle" x="309" y="-343.5" font-family="Helvetica,sans-Serif" font-size="10.00">liger/core/log/console_log_writer.hpp</text>
</a>
</g>
</g>
<!-- Node1&#45;&gt;Node2 -->
<g id="edge1" class="edge">
<title>Node1&#45;&gt;Node2</title>
<path fill="none" stroke="midnightblue" d="M433.55,-392.44C408.87,-383.44 369.81,-369.19 342.02,-359.05"/>
<polygon fill="midnightblue" stroke="midnightblue" points="342.94,-355.66 332.34,-355.52 340.54,-362.23 342.94,-355.66"/>
</g>
<!-- Node8 -->
<g id="node8" class="node">
<title>Node8</title>
<g id="a_node8"><a xlink:href="log__level_8hpp.html" target="_top" xlink:title=" ">
<polygon fill="white" stroke="black" points="379.5,-168.5 379.5,-187.5 528.5,-187.5 528.5,-168.5 379.5,-168.5"/>
<text text-anchor="middle" x="454" y="-175.5" font-family="Helvetica,sans-Serif" font-size="10.00">liger/core/log/log_level.hpp</text>
</a>
</g>
</g>
<!-- Node1&#45;&gt;Node8 -->
<g id="edge24" class="edge">
<title>Node1&#45;&gt;Node8</title>
<path fill="none" stroke="midnightblue" d="M456.88,-392.3C456.44,-359.63 454.88,-243.87 454.26,-197.96"/>
<polygon fill="midnightblue" stroke="midnightblue" points="457.75,-197.84 454.12,-187.88 450.76,-197.93 457.75,-197.84"/>
</g>
<!-- Node22 -->
<g id="node22" class="node">
<title>Node22</title>
<g id="a_node22"><a xlink:href="log__channels_8hpp_source.html" target="_top" xlink:title=" ">
<polygon fill="white" stroke="black" points="485,-224.5 485,-243.5 653,-243.5 653,-224.5 485,-224.5"/>
<text text-anchor="middle" x="569" y="-231.5" font-family="Helvetica,sans-Serif" font-size="10.00">liger/core/log/log_channels.hpp</text>
</a>
</g>
</g>
<!-- Node1&#45;&gt;Node22 -->
<g id="edge22" class="edge">
<title>Node1&#45;&gt;Node22</title>
<path fill="none" stroke="midnightblue" d="M463.02,-392.08C480.88,-365.61 533.77,-287.21 557.39,-252.21"/>
<polygon fill="midnightblue" stroke="midnightblue" points="560.53,-253.82 563.22,-243.57 554.72,-249.9 560.53,-253.82"/>
</g>
<!-- Node3 -->
<g id="node3" class="node">
<title>Node3</title>
<g id="a_node3"><a xlink:title=" ">
<polygon fill="white" stroke="#bfbfbf" points="274.5,-280.5 274.5,-299.5 343.5,-299.5 343.5,-280.5 274.5,-280.5"/>
<text text-anchor="middle" x="309" y="-287.5" font-family="Helvetica,sans-Serif" font-size="10.00">fmt/color.h</text>
</a>
</g>
</g>
<!-- Node2&#45;&gt;Node3 -->
<g id="edge2" class="edge">
<title>Node2&#45;&gt;Node3</title>
<path fill="none" stroke="midnightblue" d="M309,-336.08C309,-329.01 309,-318.86 309,-309.99"/>
<polygon fill="midnightblue" stroke="midnightblue" points="312.5,-309.75 309,-299.75 305.5,-309.75 312.5,-309.75"/>
</g>
<!-- Node4 -->
<g id="node4" class="node">
<title>Node4</title>
<g id="a_node4"><a xlink:title=" ">
<polygon fill="white" stroke="#bfbfbf" points="361.5,-280.5 361.5,-299.5 428.5,-299.5 428.5,-280.5 361.5,-280.5"/>
<text text-anchor="middle" x="395" y="-287.5" font-family="Helvetica,sans-Serif" font-size="10.00">fmt/core.h</text>
</a>
</g>
</g>
<!-- Node2&#45;&gt;Node4 -->
<g id="edge3" class="edge">
<title>Node2&#45;&gt;Node4</title>
<path fill="none" stroke="midnightblue" d="M322.82,-336.32C336.23,-327.9 356.82,-314.97 372.59,-305.07"/>
<polygon fill="midnightblue" stroke="midnightblue" points="374.61,-307.94 381.22,-299.65 370.89,-302.01 374.61,-307.94"/>
</g>
<!-- Node5 -->
<g id="node5" class="node">
<title>Node5</title>
<g id="a_node5"><a xlink:title=" ">
<polygon fill="white" stroke="#bfbfbf" points="0,-280.5 0,-299.5 86,-299.5 86,-280.5 0,-280.5"/>
<text text-anchor="middle" x="43" y="-287.5" font-family="Helvetica,sans-Serif" font-size="10.00">fmt/ostream.h</text>
</a>
</g>
</g>
<!-- Node2&#45;&gt;Node5 -->
<g id="edge4" class="edge">
<title>Node2&#45;&gt;Node5</title>
<path fill="none" stroke="midnightblue" d="M266.85,-336.44C220.25,-326.98 145.16,-311.74 94.95,-301.55"/>
<polygon fill="midnightblue" stroke="midnightblue" points="95.45,-298.08 84.95,-299.52 94.06,-304.94 95.45,-298.08"/>
</g>
<!-- Node6 -->
<g id="node6" class="node">
<title>Node6</title>
<g id="a_node6"><a xlink:href="log__writer_8hpp.html" target="_top" xlink:title=" ">
<polygon fill="white" stroke="black" points="104,-280.5 104,-299.5 256,-299.5 256,-280.5 104,-280.5"/>
<text text-anchor="middle" x="180" y="-287.5" font-family="Helvetica,sans-Serif" font-size="10.00">liger/core/log/log_writer.hpp</text>
</a>
</g>
</g>
<!-- Node2&#45;&gt;Node6 -->
<g id="edge5" class="edge">
<title>Node2&#45;&gt;Node6</title>
<path fill="none" stroke="midnightblue" d="M288.56,-336.44C267.33,-327.56 233.9,-313.56 209.75,-303.45"/>
<polygon fill="midnightblue" stroke="midnightblue" points="210.92,-300.15 200.34,-299.52 208.22,-306.61 210.92,-300.15"/>
</g>
<!-- Node7 -->
<g id="node7" class="node">
<title>Node7</title>
<g id="a_node7"><a xlink:href="log__message_8hpp.html" target="_top" xlink:title=" ">
<polygon fill="white" stroke="black" points="260.5,-224.5 260.5,-243.5 429.5,-243.5 429.5,-224.5 260.5,-224.5"/>
<text text-anchor="middle" x="345" y="-231.5" font-family="Helvetica,sans-Serif" font-size="10.00">liger/core/log/log_message.hpp</text>
</a>
</g>
</g>
<!-- Node6&#45;&gt;Node7 -->
<g id="edge6" class="edge">
<title>Node6&#45;&gt;Node7</title>
<path fill="none" stroke="midnightblue" d="M206.14,-280.44C234.02,-271.32 278.35,-256.81 309.4,-246.65"/>
<polygon fill="midnightblue" stroke="midnightblue" points="310.56,-249.95 318.98,-243.52 308.38,-243.3 310.56,-249.95"/>
</g>
<!-- Node7&#45;&gt;Node8 -->
<g id="edge7" class="edge">
<title>Node7&#45;&gt;Node8</title>
<path fill="none" stroke="midnightblue" d="M362.51,-224.32C380.07,-215.62 407.33,-202.12 427.53,-192.11"/>
<polygon fill="midnightblue" stroke="midnightblue" points="429.12,-195.23 436.53,-187.65 426.02,-188.96 429.12,-195.23"/>
</g>
<!-- Node10 -->
<g id="node10" class="node">
<title>Node10</title>
<g id="a_node10"><a xlink:href="types_8hpp.html" target="_top" xlink:title=" ">
<polygon fill="white" stroke="black" points="397.5,-56.5 397.5,-75.5 510.5,-75.5 510.5,-56.5 397.5,-56.5"/>
<text text-anchor="middle" x="454" y="-63.5" font-family="Helvetica,sans-Serif" font-size="10.00">liger/core/types.hpp</text>
</a>
</g>
</g>
<!-- Node7&#45;&gt;Node10 -->
<g id="edge21" class="edge">
<title>Node7&#45;&gt;Node10</title>
<path fill="none" stroke="midnightblue" d="M344.72,-224.4C344.47,-203.11 346.54,-147.14 373,-112 384.06,-97.32 401.39,-86.77 417.18,-79.6"/>
<polygon fill="midnightblue" stroke="midnightblue" points="418.9,-82.68 426.75,-75.57 416.18,-76.23 418.9,-82.68"/>
</g>
<!-- Node9 -->
<g id="node9" class="node">
<title>Node9</title>
<g id="a_node9"><a xlink:href="enum__class_8hpp.html" target="_top" xlink:title=" ">
<polygon fill="white" stroke="black" points="382,-112.5 382,-131.5 526,-131.5 526,-112.5 382,-112.5"/>
<text text-anchor="middle" x="454" y="-119.5" font-family="Helvetica,sans-Serif" font-size="10.00">liger/core/enum_class.hpp</text>
</a>
</g>
</g>
<!-- Node8&#45;&gt;Node9 -->
<g id="edge8" class="edge">
<title>Node8&#45;&gt;Node9</title>
<path fill="none" stroke="midnightblue" d="M454,-168.08C454,-161.01 454,-150.86 454,-141.99"/>
<polygon fill="midnightblue" stroke="midnightblue" points="457.5,-141.75 454,-131.75 450.5,-141.75 457.5,-141.75"/>
</g>
<!-- Node9&#45;&gt;Node10 -->
<g id="edge9" class="edge">
<title>Node9&#45;&gt;Node10</title>
<path fill="none" stroke="midnightblue" d="M454,-112.08C454,-105.01 454,-94.86 454,-85.99"/>
<polygon fill="midnightblue" stroke="midnightblue" points="457.5,-85.75 454,-75.75 450.5,-85.75 457.5,-85.75"/>
</g>
<!-- Node11 -->
<g id="node11" class="node">
<title>Node11</title>
<g id="a_node11"><a xlink:title=" ">
<polygon fill="white" stroke="#bfbfbf" points="55,-0.5 55,-19.5 105,-19.5 105,-0.5 55,-0.5"/>
<text text-anchor="middle" x="80" y="-7.5" font-family="Helvetica,sans-Serif" font-size="10.00">cstdint</text>
</a>
</g>
</g>
<!-- Node10&#45;&gt;Node11 -->
<g id="edge10" class="edge">
<title>Node10&#45;&gt;Node11</title>
<path fill="none" stroke="midnightblue" d="M397.39,-59.73C331.73,-53.13 220.11,-40.37 115.29,-20.04"/>
<polygon fill="midnightblue" stroke="midnightblue" points="115.66,-16.54 105.17,-18.04 114.3,-23.41 115.66,-16.54"/>
</g>
<!-- Node12 -->
<g id="node12" class="node">
<title>Node12</title>
<g id="a_node12"><a xlink:title=" ">
<polygon fill="white" stroke="#bfbfbf" points="123.5,-0.5 123.5,-19.5 178.5,-19.5 178.5,-0.5 123.5,-0.5"/>
<text text-anchor="middle" x="151" y="-7.5" font-family="Helvetica,sans-Serif" font-size="10.00">fstream</text>
</a>
</g>
</g>
<!-- Node10&#45;&gt;Node12 -->
<g id="edge11" class="edge">
<title>Node10&#45;&gt;Node12</title>
<path fill="none" stroke="midnightblue" d="M397.48,-56.63C345.7,-48.69 266.71,-35.91 188.82,-20.05"/>
<polygon fill="midnightblue" stroke="midnightblue" points="189.33,-16.58 178.83,-17.99 187.92,-23.44 189.33,-16.58"/>
</g>
<!-- Node13 -->
<g id="node13" class="node">
<title>Node13</title>
<g id="a_node13"><a xlink:title=" ">
<polygon fill="white" stroke="#bfbfbf" points="197,-0.5 197,-19.5 275,-19.5 275,-0.5 197,-0.5"/>
<text text-anchor="middle" x="236" y="-7.5" font-family="Helvetica,sans-Serif" font-size="10.00">glm/glm.hpp</text>
</a>
</g>
</g>
<!-- Node10&#45;&gt;Node13 -->
<g id="edge12" class="edge">
<title>Node10&#45;&gt;Node13</title>
<path fill="none" stroke="midnightblue" d="M419.46,-56.44C381.75,-47.1 321.26,-32.12 280.14,-21.93"/>
<polygon fill="midnightblue" stroke="midnightblue" points="280.93,-18.52 270.38,-19.52 279.25,-25.32 280.93,-18.52"/>
</g>
<!-- Node14 -->
<g id="node14" class="node">
<title>Node14</title>
<g id="a_node14"><a xlink:title=" ">
<polygon fill="white" stroke="#bfbfbf" points="293,-0.5 293,-19.5 353,-19.5 353,-0.5 293,-0.5"/>
<text text-anchor="middle" x="323" y="-7.5" font-family="Helvetica,sans-Serif" font-size="10.00">iostream</text>
</a>
</g>
</g>
<!-- Node10&#45;&gt;Node14 -->
<g id="edge13" class="edge">
<title>Node10&#45;&gt;Node14</title>
<path fill="none" stroke="midnightblue" d="M433.24,-56.44C411.68,-47.56 377.74,-33.56 353.21,-23.45"/>
<polygon fill="midnightblue" stroke="midnightblue" points="354.24,-20.09 343.66,-19.52 351.57,-26.56 354.24,-20.09"/>
</g>
<!-- Node15 -->
<g id="node15" class="node">
<title>Node15</title>
<g id="a_node15"><a xlink:title=" ">
<polygon fill="white" stroke="#bfbfbf" points="371,-0.5 371,-19.5 409,-19.5 409,-0.5 371,-0.5"/>
<text text-anchor="middle" x="390" y="-7.5" font-family="Helvetica,sans-Serif" font-size="10.00">map</text>
</a>
</g>
</g>
<!-- Node10&#45;&gt;Node15 -->
<g id="edge14" class="edge">
<title>Node10&#45;&gt;Node15</title>
<path fill="none" stroke="midnightblue" d="M443.72,-56.32C434.16,-48.26 419.72,-36.08 408.22,-26.37"/>
<polygon fill="midnightblue" stroke="midnightblue" points="410.37,-23.61 400.47,-19.83 405.86,-28.96 410.37,-23.61"/>
</g>
<!-- Node16 -->
<g id="node16" class="node">
<title>Node16</title>
<g id="a_node16"><a xlink:title=" ">
<polygon fill="white" stroke="#bfbfbf" points="427,-0.5 427,-19.5 481,-19.5 481,-0.5 427,-0.5"/>
<text text-anchor="middle" x="454" y="-7.5" font-family="Helvetica,sans-Serif" font-size="10.00">random</text>
</a>
</g>
</g>
<!-- Node10&#45;&gt;Node16 -->
<g id="edge15" class="edge">
<title>Node10&#45;&gt;Node16</title>
<path fill="none" stroke="midnightblue" d="M454,-56.08C454,-49.01 454,-38.86 454,-29.99"/>
<polygon fill="midnightblue" stroke="midnightblue" points="457.5,-29.75 454,-19.75 450.5,-29.75 457.5,-29.75"/>
</g>
<!-- Node17 -->
<g id="node17" class="node">
<title>Node17</title>
<g id="a_node17"><a xlink:title=" ">
<polygon fill="white" stroke="#bfbfbf" points="499,-0.5 499,-19.5 543,-19.5 543,-0.5 499,-0.5"/>
<text text-anchor="middle" x="521" y="-7.5" font-family="Helvetica,sans-Serif" font-size="10.00">string</text>
</a>
</g>
</g>
<!-- Node10&#45;&gt;Node17 -->
<g id="edge16" class="edge">
<title>Node10&#45;&gt;Node17</title>
<path fill="none" stroke="midnightblue" d="M464.76,-56.32C474.77,-48.26 489.89,-36.08 501.93,-26.37"/>
<polygon fill="midnightblue" stroke="midnightblue" points="504.45,-28.83 510.04,-19.83 500.06,-23.38 504.45,-28.83"/>
</g>
<!-- Node18 -->
<g id="node18" class="node">
<title>Node18</title>
<g id="a_node18"><a xlink:title=" ">
<polygon fill="white" stroke="#bfbfbf" points="561.5,-0.5 561.5,-19.5 634.5,-19.5 634.5,-0.5 561.5,-0.5"/>
<text text-anchor="middle" x="598" y="-7.5" font-family="Helvetica,sans-Serif" font-size="10.00">string_view</text>
</a>
</g>
</g>
<!-- Node10&#45;&gt;Node18 -->
<g id="edge17" class="edge">
<title>Node10&#45;&gt;Node18</title>
<path fill="none" stroke="midnightblue" d="M476.82,-56.44C500.83,-47.44 538.83,-33.19 565.87,-23.05"/>
<polygon fill="midnightblue" stroke="midnightblue" points="567.16,-26.3 575.29,-19.52 564.7,-19.75 567.16,-26.3"/>
</g>
<!-- Node19 -->
<g id="node19" class="node">
<title>Node19</title>
<g id="a_node19"><a xlink:title=" ">
<polygon fill="white" stroke="#bfbfbf" points="652.5,-0.5 652.5,-19.5 721.5,-19.5 721.5,-0.5 652.5,-0.5"/>
<text text-anchor="middle" x="687" y="-7.5" font-family="Helvetica,sans-Serif" font-size="10.00">type_traits</text>
</a>
</g>
</g>
<!-- Node10&#45;&gt;Node19 -->
<g id="edge18" class="edge">
<title>Node10&#45;&gt;Node19</title>
<path fill="none" stroke="midnightblue" d="M490.92,-56.44C531.99,-46.92 598.34,-31.55 642.31,-21.36"/>
<polygon fill="midnightblue" stroke="midnightblue" points="643.2,-24.74 652.16,-19.08 641.62,-17.92 643.2,-24.74"/>
</g>
<!-- Node20 -->
<g id="node20" class="node">
<title>Node20</title>
<g id="a_node20"><a xlink:title=" ">
<polygon fill="white" stroke="#bfbfbf" points="739.5,-0.5 739.5,-19.5 804.5,-19.5 804.5,-0.5 739.5,-0.5"/>
<text text-anchor="middle" x="772" y="-7.5" font-family="Helvetica,sans-Serif" font-size="10.00">typeindex</text>
</a>
</g>
</g>
<!-- Node10&#45;&gt;Node20 -->
<g id="edge19" class="edge">
<title>Node10&#45;&gt;Node20</title>
<path fill="none" stroke="midnightblue" d="M510.66,-56.73C564.57,-48.65 648.18,-35.57 729.46,-20.22"/>
<polygon fill="midnightblue" stroke="midnightblue" points="730.19,-23.64 739.36,-18.33 728.88,-16.77 730.19,-23.64"/>
</g>
<!-- Node21 -->
<g id="node21" class="node">
<title>Node21</title>
<g id="a_node21"><a xlink:title=" ">
<polygon fill="white" stroke="#bfbfbf" points="822.5,-0.5 822.5,-19.5 869.5,-19.5 869.5,-0.5 822.5,-0.5"/>
<text text-anchor="middle" x="846" y="-7.5" font-family="Helvetica,sans-Serif" font-size="10.00">vector</text>
</a>
</g>
</g>
<!-- Node10&#45;&gt;Node21 -->
<g id="edge20" class="edge">
<title>Node10&#45;&gt;Node21</title>
<path fill="none" stroke="midnightblue" d="M510.54,-60.57C579.71,-54.57 700.47,-42.2 812.24,-20.11"/>
<polygon fill="midnightblue" stroke="midnightblue" points="813.22,-23.48 822.33,-18.08 811.84,-16.62 813.22,-23.48"/>
</g>
<!-- Node22&#45;&gt;Node10 -->
<g id="edge23" class="edge">
<title>Node22&#45;&gt;Node10</title>
<path fill="none" stroke="midnightblue" d="M568.78,-224.37C567.8,-203.02 562.6,-146.92 535,-112 523.52,-97.47 505.99,-86.91 490.16,-79.69"/>
<polygon fill="midnightblue" stroke="midnightblue" points="491.18,-76.31 480.6,-75.61 488.43,-82.75 491.18,-76.31"/>
</g>
</g>
</svg>
        <g id="navigator" transform="translate(0 0)" fill="#404254">
                <rect fill="#f2f5e9" fill-opacity="0.5" stroke="#606060" stroke-width=".5" x="0" y="0" width="60" height="60"/>
                <use id="zoomplus" xlink:href="#zoomPlus" x="17" y="9" onmousedown="handleZoom(evt,'in')"/>
                <use id="zoomminus" xlink:href="#zoomMin" x="42" y="9" onmousedown="handleZoom(evt,'out')"/>
                <use id="reset" xlink:href="#resetDef" x="30" y="36" onmousedown="handleReset()"/>
                <g id="arrowUp" xlink:href="#dirArrow" transform="translate(30 24)" onmousedown="handlePan(0,-1)">
                  <use xlink:href="#rim" fill="#404040">
                        <set attributeName="fill" to="#808080" begin="arrowUp.mouseover" end="arrowUp.mouseout"/>
                  </use>
                  <path fill="none" stroke="white" stroke-width="1.5" d="M0,-3.0v7 M-2.5,-0.5L0,-3.0L2.5,-0.5"/>
                </g>
                <g id="arrowRight" xlink:href="#dirArrow" transform="rotate(90) translate(36 -43)" onmousedown="handlePan(1,0)">
                  <use xlink:href="#rim" fill="#404040">
                        <set attributeName="fill" to="#808080" begin="arrowRight.mouseover" end="arrowRight.mouseout"/>
                  </use>
                  <path fill="none" stroke="white" stroke-width="1.5" d="M0,-3.0v7 M-2.5,-0.5L0,-3.0L2.5,-0.5"/>
                </g>
                <g id="arrowDown" xlink:href="#dirArrow" transform="rotate(180) translate(-30 -48)" onmousedown="handlePan(0,1)">
                  <use xlink:href="#rim" fill="#404040">
                        <set attributeName="fill" to="#808080" begin="arrowDown.mouseover" end="arrowDown.mouseout"/>
                  </use>
                  <path fill="none" stroke="white" stroke-width="1.5" d="M0,-3.0v7 M-2.5,-0.5L0,-3.0L2.5,-0.5"/>
                </g>
                <g id="arrowLeft" xlink:href="#dirArrow" transform="rotate(270) translate(-36 17)" onmousedown="handlePan(-1,0)">
                  <use xlink:href="#rim" fill="#404040">
                        <set attributeName="fill" to="#808080" begin="arrowLeft.mouseover" end="arrowLeft.mouseout"/>
                  </use>
                  <path fill="none" stroke="white" stroke-width="1.5" d="M0,-3.0v7 M-2.5,-0.5L0,-3.0L2.5,-0.5"/>
                </g>
        </g>
        <svg viewBox="0 0 15 15" width="100%" height="30px" preserveAspectRatio="xMaxYMin meet">
         <g id="arrow_out" transform="scale(0.3 0.3)">
          <a xlink:href="console__log__writer_8cpp__incl_org.svg" target="_base">
           <rect id="button" ry="5" rx="5" y="6" x="6" height="38" width="38"
                fill="#f2f5e9" fill-opacity="0.5" stroke="#606060" stroke-width="1.0"/>
           <path id="arrow"
             d="M 11.500037,31.436501 C 11.940474,20.09759 22.043105,11.32322 32.158766,21.979434 L 37.068811,17.246167 C 37.068811,17.246167 37.088388,32 37.088388,32 L 22.160133,31.978069 C 22.160133,31.978069 26.997745,27.140456 26.997745,27.140456 C 18.528582,18.264221 13.291696,25.230495 11.500037,31.436501 z"
             style="fill:#404040;"/>
          </a>
         </g>
        </svg>
</svg>
