<?xml version="1.0" encoding="UTF-8" standalone="no"?>
<!DOCTYPE svg PUBLIC "-//W3C//DTD SVG 1.1//EN"
 "http://www.w3.org/Graphics/SVG/1.1/DTD/svg11.dtd">
<!-- Generated by graphviz version 2.43.0 (0)
 -->
<!-- Title: Render Pages: 1 -->
<svg width="226pt" height="391pt"
 viewBox="0.00 0.00 226.00 391.00" xmlns="http://www.w3.org/2000/svg" xmlns:xlink="http://www.w3.org/1999/xlink">
<g id="graph0" class="graph" transform="scale(1 1) rotate(0) translate(4 387)">
<title>Render</title>
<polygon fill="white" stroke="transparent" points="-4,4 -4,-387 222,-387 222,4 -4,4"/>
<g id="clust1" class="cluster">
<title>clusterdir_b0e0df8ca61baa2b2f9ca6c93fc6b46e</title>
<g id="a_clust1"><a xlink:href="dir_b0e0df8ca61baa2b2f9ca6c93fc6b46e.html" target="_top" xlink:title="Liger&#45;Engine">
<polygon fill="#ddddee" stroke="black" points="8,-8 8,-375 210,-375 210,-8 8,-8"/>
<text text-anchor="middle" x="109" y="-363" font-family="Helvetica,sans-Serif" font-size="10.00">Liger&#45;Engine</text>
</a>
</g>
</g>
<g id="clust2" class="cluster">
<title>clusterdir_4d2eff2471a826c58e5e9c039c795be6</title>
<g id="a_clust2"><a xlink:href="dir_4d2eff2471a826c58e5e9c039c795be6.html" target="_top">
<polygon fill="#eeeeff" stroke="black" points="60,-296 60,-348 202,-348 202,-296 60,-296"/>
</a>
</g>
</g>
<!-- dir_69e2a34ed588b03fe08b6d084419d32e -->
<g id="node1" class="node">
<title>dir_69e2a34ed588b03fe08b6d084419d32e</title>
<g id="a_node1"><a xlink:href="dir_69e2a34ed588b03fe08b6d084419d32e.html" target="_top" xlink:title="ShaderSystem">
<polygon fill="none" stroke="black" points="161.5,-196 74.5,-196 74.5,-160 161.5,-160 161.5,-196"/>
<text text-anchor="middle" x="118" y="-175.5" font-family="Helvetica,sans-Serif" font-size="10.00">ShaderSystem</text>
</a>
</g>
</g>
<!-- dir_ad105bcae6b0ad3d3b71fda549467dc2 -->
<g id="node3" class="node">
<title>dir_ad105bcae6b0ad3d3b71fda549467dc2</title>
<g id="a_node3"><a xlink:href="dir_ad105bcae6b0ad3d3b71fda549467dc2.html" target="_top" xlink:title="RHI">
<polygon fill="none" stroke="black" points="125,-124 71,-124 71,-88 125,-88 125,-124"/>
<text text-anchor="middle" x="98" y="-103.5" font-family="Helvetica,sans-Serif" font-size="10.00">RHI</text>
</a>
</g>
</g>
<!-- dir_69e2a34ed588b03fe08b6d084419d32e&#45;&gt;dir_ad105bcae6b0ad3d3b71fda549467dc2 -->
<g id="edge2" class="edge">
<title>dir_69e2a34ed588b03fe08b6d084419d32e&#45;&gt;dir_ad105bcae6b0ad3d3b71fda549467dc2</title>
<path fill="none" stroke="black" d="M113.06,-159.7C110.83,-151.9 108.15,-142.51 105.67,-133.83"/>
<polygon fill="black" stroke="black" points="109,-132.76 102.89,-124.1 102.27,-134.68 109,-132.76"/>
<g id="a_edge2&#45;headlabel"><a xlink:href="dir_000011_000008.html" target="_top" xlink:title="2">
<text text-anchor="middle" x="112.72" y="-132.93" font-family="Helvetica,sans-Serif" font-size="10.00">2</text>
</a>
</g>
</g>
<!-- dir_f114d42120a77b16f93146c19dbd5b81 -->
<g id="node5" class="node">
<title>dir_f114d42120a77b16f93146c19dbd5b81</title>
<g id="a_node5"><a xlink:href="dir_f114d42120a77b16f93146c19dbd5b81.html" target="_top" xlink:title="Core">
<polygon fill="white" stroke="red" points="171,-52 117,-52 117,-16 171,-16 171,-52"/>
<text text-anchor="middle" x="144" y="-31.5" font-family="Helvetica,sans-Serif" font-size="10.00">Core</text>
</a>
</g>
</g>
<!-- dir_69e2a34ed588b03fe08b6d084419d32e&#45;&gt;dir_f114d42120a77b16f93146c19dbd5b81 -->
<g id="edge3" class="edge">
<title>dir_69e2a34ed588b03fe08b6d084419d32e&#45;&gt;dir_f114d42120a77b16f93146c19dbd5b81</title>
<path fill="none" stroke="black" d="M124.14,-159.54C127.53,-149.3 131.53,-136.05 134,-124 138.2,-103.57 140.74,-80.11 142.21,-62.41"/>
<polygon fill="black" stroke="black" points="145.72,-62.44 142.99,-52.21 138.74,-61.91 145.72,-62.44"/>
<g id="a_edge3&#45;headlabel"><a xlink:href="dir_000011_000003.html" target="_top" xlink:title="1">
<text text-anchor="middle" x="148.28" y="-63.75" font-family="Helvetica,sans-Serif" font-size="10.00">1</text>
</a>
</g>
</g>
<!-- dir_780f1b92810cb878bdca0c8f4af8e59d -->
<g id="node2" class="node">
<title>dir_780f1b92810cb878bdca0c8f4af8e59d</title>
<g id="a_node2"><a xlink:href="dir_780f1b92810cb878bdca0c8f4af8e59d.html" target="_top" xlink:title="ECS">
<polygon fill="white" stroke="red" points="70,-268 16,-268 16,-232 70,-232 70,-268"/>
<text text-anchor="middle" x="43" y="-247.5" font-family="Helvetica,sans-Serif" font-size="10.00">ECS</text>
</a>
</g>
</g>
<!-- dir_780f1b92810cb878bdca0c8f4af8e59d&#45;&gt;dir_f114d42120a77b16f93146c19dbd5b81 -->
<g id="edge6" class="edge">
<title>dir_780f1b92810cb878bdca0c8f4af8e59d&#45;&gt;dir_f114d42120a77b16f93146c19dbd5b81</title>
<path fill="none" stroke="black" d="M40.55,-231.96C36.99,-200.79 33.57,-133.63 62,-88 72.66,-70.88 91.13,-58.23 107.84,-49.59"/>
<polygon fill="black" stroke="black" points="109.41,-52.71 116.88,-45.2 106.35,-46.42 109.41,-52.71"/>
<g id="a_edge6&#45;headlabel"><a xlink:href="dir_000009_000003.html" target="_top" xlink:title="6">
<text text-anchor="middle" x="107.42" y="-54.34" font-family="Helvetica,sans-Serif" font-size="10.00">6</text>
</a>
</g>
</g>
<!-- dir_ad105bcae6b0ad3d3b71fda549467dc2&#45;&gt;dir_f114d42120a77b16f93146c19dbd5b81 -->
<g id="edge1" class="edge">
<title>dir_ad105bcae6b0ad3d3b71fda549467dc2&#45;&gt;dir_f114d42120a77b16f93146c19dbd5b81</title>
<path fill="none" stroke="black" d="M109.37,-87.7C114.72,-79.56 121.2,-69.69 127.11,-60.7"/>
<polygon fill="black" stroke="black" points="130.19,-62.38 132.76,-52.1 124.34,-58.54 130.19,-62.38"/>
<g id="a_edge1&#45;headlabel"><a xlink:href="dir_000008_000003.html" target="_top" xlink:title="8">
<text text-anchor="middle" x="130.59" y="-64.45" font-family="Helvetica,sans-Serif" font-size="10.00">8</text>
</a>
</g>
</g>
<!-- dir_b4117c9fe557ded8b543d1b18b285d99 -->
<g id="node4" class="node">
<title>dir_b4117c9fe557ded8b543d1b18b285d99</title>
<g id="a_node4"><a xlink:href="dir_b4117c9fe557ded8b543d1b18b285d99.html" target="_top" xlink:title="Asset">
<polygon fill="white" stroke="red" points="182,-268 128,-268 128,-232 182,-232 182,-268"/>
<text text-anchor="middle" x="155" y="-247.5" font-family="Helvetica,sans-Serif" font-size="10.00">Asset</text>
</a>
</g>
</g>
<!-- dir_b4117c9fe557ded8b543d1b18b285d99&#45;&gt;dir_69e2a34ed588b03fe08b6d084419d32e -->
<g id="edge5" class="edge">
<title>dir_b4117c9fe557ded8b543d1b18b285d99&#45;&gt;dir_69e2a34ed588b03fe08b6d084419d32e</title>
<path fill="none" stroke="black" d="M145.85,-231.7C141.6,-223.64 136.44,-213.89 131.73,-204.98"/>
<polygon fill="black" stroke="black" points="134.81,-203.31 127.04,-196.1 128.62,-206.58 134.81,-203.31"/>
<g id="a_edge5&#45;headlabel"><a xlink:href="dir_000015_000011.html" target="_top" xlink:title="1">
<text text-anchor="middle" x="139" y="-202.66" font-family="Helvetica,sans-Serif" font-size="10.00">1</text>
</a>
</g>
</g>
<!-- dir_b4117c9fe557ded8b543d1b18b285d99&#45;&gt;dir_f114d42120a77b16f93146c19dbd5b81 -->
<g id="edge4" class="edge">
<title>dir_b4117c9fe557ded8b543d1b18b285d99&#45;&gt;dir_f114d42120a77b16f93146c19dbd5b81</title>
<path fill="none" stroke="black" d="M161.65,-231.63C165.2,-221.42 169.2,-208.17 171,-196 177.99,-148.69 164.03,-93.8 153.71,-61.88"/>
<polygon fill="black" stroke="black" points="157.01,-60.72 150.51,-52.36 150.38,-62.95 157.01,-60.72"/>
<g id="a_edge4&#45;headlabel"><a xlink:href="dir_000015_000003.html" target="_top" xlink:title="4">
<text text-anchor="middle" x="160.85" y="-60.73" font-family="Helvetica,sans-Serif" font-size="10.00">4</text>
</a>
</g>
</g>
<!-- dir_4d2eff2471a826c58e5e9c039c795be6 -->
<g id="node6" class="node">
<title>dir_4d2eff2471a826c58e5e9c039c795be6</title>
<text text-anchor="middle" x="167" y="-319.5" font-family="Helvetica,sans-Serif" font-size="10.00">Render</text>
</g>
<!-- dir_25816241cf2d2438c05f383c2f5c582b -->
<g id="node7" class="node">
<title>dir_25816241cf2d2438c05f383c2f5c582b</title>
<g id="a_node7"><a xlink:href="dir_25816241cf2d2438c05f383c2f5c582b.html" target="_top" xlink:title="BuiltIn">
<polygon fill="white" stroke="black" points="122,-340 68,-340 68,-304 122,-304 122,-340"/>
<text text-anchor="middle" x="95" y="-319.5" font-family="Helvetica,sans-Serif" font-size="10.00">BuiltIn</text>
</a>
</g>
</g>
<!-- dir_25816241cf2d2438c05f383c2f5c582b&#45;&gt;dir_69e2a34ed588b03fe08b6d084419d32e -->
<g id="edge7" class="edge">
<title>dir_25816241cf2d2438c05f383c2f5c582b&#45;&gt;dir_69e2a34ed588b03fe08b6d084419d32e</title>
<path fill="none" stroke="black" d="M97.77,-303.87C101.69,-279.67 108.9,-235.21 113.56,-206.39"/>
<polygon fill="black" stroke="black" points="117.07,-206.62 115.22,-196.19 110.16,-205.5 117.07,-206.62"/>
<g id="a_edge7&#45;headlabel"><a xlink:href="dir_000007_000011.html" target="_top" xlink:title="6">
<text text-anchor="middle" x="119.3" y="-208.12" font-family="Helvetica,sans-Serif" font-size="10.00">6</text>
</a>
</g>
</g>
<!-- dir_25816241cf2d2438c05f383c2f5c582b&#45;&gt;dir_780f1b92810cb878bdca0c8f4af8e59d -->
<g id="edge8" class="edge">
<title>dir_25816241cf2d2438c05f383c2f5c582b&#45;&gt;dir_780f1b92810cb878bdca0c8f4af8e59d</title>
<path fill="none" stroke="black" d="M82.15,-303.7C75.97,-295.39 68.46,-285.28 61.68,-276.14"/>
<polygon fill="black" stroke="black" points="64.48,-274.04 55.71,-268.1 58.86,-278.22 64.48,-274.04"/>
<g id="a_edge8&#45;headlabel"><a xlink:href="dir_000007_000009.html" target="_top" xlink:title="7">
<text text-anchor="middle" x="68.9" y="-272.74" font-family="Helvetica,sans-Serif" font-size="10.00">7</text>
</a>
</g>
</g>
<!-- dir_25816241cf2d2438c05f383c2f5c582b&#45;&gt;dir_ad105bcae6b0ad3d3b71fda549467dc2 -->
<g id="edge9" class="edge">
<title>dir_25816241cf2d2438c05f383c2f5c582b&#45;&gt;dir_ad105bcae6b0ad3d3b71fda549467dc2</title>
<path fill="none" stroke="black" d="M92.9,-303.72C90.47,-285.62 85.89,-256.48 79,-232 74.35,-215.47 68.17,-212.87 65,-196 62.05,-180.27 60.6,-175.38 65,-160 67.71,-150.51 72.67,-141.06 77.93,-132.83"/>
<polygon fill="black" stroke="black" points="80.92,-134.67 83.67,-124.43 75.14,-130.72 80.92,-134.67"/>
<g id="a_edge9&#45;headlabel"><a xlink:href="dir_000007_000008.html" target="_top" xlink:title="13">
<text text-anchor="middle" x="81.24" y="-136.74" font-family="Helvetica,sans-Serif" font-size="10.00">13</text>
</a>
</g>
</g>
<!-- dir_25816241cf2d2438c05f383c2f5c582b&#45;&gt;dir_b4117c9fe557ded8b543d1b18b285d99 -->
<g id="edge10" class="edge">
<title>dir_25816241cf2d2438c05f383c2f5c582b&#45;&gt;dir_b4117c9fe557ded8b543d1b18b285d99</title>
<path fill="none" stroke="black" d="M109.83,-303.7C117.02,-295.3 125.8,-285.07 133.69,-275.86"/>
<polygon fill="black" stroke="black" points="136.49,-277.97 140.34,-268.1 131.17,-273.42 136.49,-277.97"/>
<g id="a_edge10&#45;headlabel"><a xlink:href="dir_000007_000015.html" target="_top" xlink:title="5">
<text text-anchor="middle" x="136.31" y="-280.05" font-family="Helvetica,sans-Serif" font-size="10.00">5</text>
</a>
</g>
</g>
<!-- dir_25816241cf2d2438c05f383c2f5c582b&#45;&gt;dir_f114d42120a77b16f93146c19dbd5b81 -->
<g id="edge11" class="edge">
<title>dir_25816241cf2d2438c05f383c2f5c582b&#45;&gt;dir_f114d42120a77b16f93146c19dbd5b81</title>
<path fill="none" stroke="black" d="M118.64,-303.74C122.69,-301.03 126.91,-298.35 131,-296 156.51,-281.33 175.19,-292.82 191,-268 233,-202.06 187.1,-106.11 160.39,-60.68"/>
<polygon fill="black" stroke="black" points="163.34,-58.8 155.18,-52.04 157.35,-62.41 163.34,-58.8"/>
<g id="a_edge11&#45;headlabel"><a xlink:href="dir_000007_000003.html" target="_top" xlink:title="1">
<text text-anchor="middle" x="167.63" y="-57.91" font-family="Helvetica,sans-Serif" font-size="10.00">1</text>
</a>
</g>
</g>
</g>
</svg>
