<?xml version="1.0" encoding="UTF-8" standalone="no"?>
<!DOCTYPE svg PUBLIC "-//W3C//DTD SVG 1.1//EN"
 "http://www.w3.org/Graphics/SVG/1.1/DTD/svg11.dtd">
<!-- Generated by graphviz version 2.43.0 (0)
 -->
<!-- Title: Liger&#45;Engine Pages: 1 -->
<svg width="276pt" height="399pt"
 viewBox="0.00 0.00 276.00 399.00" xmlns="http://www.w3.org/2000/svg" xmlns:xlink="http://www.w3.org/1999/xlink">
<g id="graph0" class="graph" transform="scale(1 1) rotate(0) translate(4 395)">
<title>Liger&#45;Engine</title>
<polygon fill="white" stroke="transparent" points="-4,4 -4,-395 272,-395 272,4 -4,4"/>
<g id="clust1" class="cluster">
<title>clusterdir_9489d5db78fc615ef9cbc4cd8d3e450a</title>
<g id="a_clust1"><a xlink:href="dir_9489d5db78fc615ef9cbc4cd8d3e450a.html" target="_top" xlink:title="Include">
<polygon fill="#ddddee" stroke="black" points="8,-8 8,-383 260,-383 260,-8 8,-8"/>
<text text-anchor="middle" x="134" y="-371" font-family="Helvetica,sans-Serif" font-size="10.00">Include</text>
</a>
</g>
</g>
<g id="clust2" class="cluster">
<title>clusterdir_b0e0df8ca61baa2b2f9ca6c93fc6b46e</title>
<g id="a_clust2"><a xlink:href="dir_b0e0df8ca61baa2b2f9ca6c93fc6b46e.html" target="_top">
<polygon fill="#eeeeff" stroke="black" points="16,-16 16,-356 252,-356 252,-16 16,-16"/>
</a>
</g>
</g>
<!-- dir_b0e0df8ca61baa2b2f9ca6c93fc6b46e -->
<g id="node1" class="node">
<title>dir_b0e0df8ca61baa2b2f9ca6c93fc6b46e</title>
<text text-anchor="middle" x="204" y="-327.5" font-family="Helvetica,sans-Serif" font-size="10.00">Liger&#45;Engine</text>
</g>
<!-- dir_b4117c9fe557ded8b543d1b18b285d99 -->
<g id="node2" class="node">
<title>dir_b4117c9fe557ded8b543d1b18b285d99</title>
<g id="a_node2"><a xlink:href="dir_b4117c9fe557ded8b543d1b18b285d99.html" target="_top" xlink:title="Asset">
<polygon fill="white" stroke="red" points="145,-276 91,-276 91,-240 145,-240 145,-276"/>
<text text-anchor="middle" x="118" y="-255.5" font-family="Helvetica,sans-Serif" font-size="10.00">Asset</text>
</a>
</g>
</g>
<!-- dir_f114d42120a77b16f93146c19dbd5b81 -->
<g id="node3" class="node">
<title>dir_f114d42120a77b16f93146c19dbd5b81</title>
<g id="a_node3"><a xlink:href="dir_f114d42120a77b16f93146c19dbd5b81.html" target="_top" xlink:title="Core">
<polygon fill="white" stroke="red" points="144,-60 90,-60 90,-24 144,-24 144,-60"/>
<text text-anchor="middle" x="117" y="-39.5" font-family="Helvetica,sans-Serif" font-size="10.00">Core</text>
</a>
</g>
</g>
<!-- dir_b4117c9fe557ded8b543d1b18b285d99&#45;&gt;dir_f114d42120a77b16f93146c19dbd5b81 -->
<g id="edge4" class="edge">
<title>dir_b4117c9fe557ded8b543d1b18b285d99&#45;&gt;dir_f114d42120a77b16f93146c19dbd5b81</title>
<path fill="none" stroke="black" d="M117.92,-239.85C117.75,-202.83 117.34,-115.18 117.13,-70.39"/>
<polygon fill="black" stroke="black" points="120.63,-70.22 117.08,-60.23 113.63,-70.25 120.63,-70.22"/>
<g id="a_edge4&#45;headlabel"><a xlink:href="dir_000015_000003.html" target="_top" xlink:title="4">
<text text-anchor="middle" x="123.48" y="-71.3" font-family="Helvetica,sans-Serif" font-size="10.00">4</text>
</a>
</g>
</g>
<!-- dir_69e2a34ed588b03fe08b6d084419d32e -->
<g id="node7" class="node">
<title>dir_69e2a34ed588b03fe08b6d084419d32e</title>
<g id="a_node7"><a xlink:href="dir_69e2a34ed588b03fe08b6d084419d32e.html" target="_top" xlink:title="ShaderSystem">
<polygon fill="white" stroke="black" points="223.5,-204 136.5,-204 136.5,-168 223.5,-168 223.5,-204"/>
<text text-anchor="middle" x="180" y="-183.5" font-family="Helvetica,sans-Serif" font-size="10.00">ShaderSystem</text>
</a>
</g>
</g>
<!-- dir_b4117c9fe557ded8b543d1b18b285d99&#45;&gt;dir_69e2a34ed588b03fe08b6d084419d32e -->
<g id="edge5" class="edge">
<title>dir_b4117c9fe557ded8b543d1b18b285d99&#45;&gt;dir_69e2a34ed588b03fe08b6d084419d32e</title>
<path fill="none" stroke="black" d="M133.33,-239.7C140.76,-231.3 149.82,-221.07 157.98,-211.86"/>
<polygon fill="black" stroke="black" points="160.84,-213.91 164.85,-204.1 155.6,-209.27 160.84,-213.91"/>
<g id="a_edge5&#45;headlabel"><a xlink:href="dir_000015_000011.html" target="_top" xlink:title="1">
<text text-anchor="middle" x="160.58" y="-215.98" font-family="Helvetica,sans-Serif" font-size="10.00">1</text>
</a>
</g>
</g>
<!-- dir_780f1b92810cb878bdca0c8f4af8e59d -->
<g id="node4" class="node">
<title>dir_780f1b92810cb878bdca0c8f4af8e59d</title>
<g id="a_node4"><a xlink:href="dir_780f1b92810cb878bdca0c8f4af8e59d.html" target="_top" xlink:title="ECS">
<polygon fill="white" stroke="red" points="98,-204 44,-204 44,-168 98,-168 98,-204"/>
<text text-anchor="middle" x="71" y="-183.5" font-family="Helvetica,sans-Serif" font-size="10.00">ECS</text>
</a>
</g>
</g>
<!-- dir_780f1b92810cb878bdca0c8f4af8e59d&#45;&gt;dir_f114d42120a77b16f93146c19dbd5b81 -->
<g id="edge11" class="edge">
<title>dir_780f1b92810cb878bdca0c8f4af8e59d&#45;&gt;dir_f114d42120a77b16f93146c19dbd5b81</title>
<path fill="none" stroke="black" d="M76.55,-167.87C84.42,-143.56 98.92,-98.82 108.25,-70.01"/>
<polygon fill="black" stroke="black" points="111.68,-70.78 111.43,-60.19 105.02,-68.62 111.68,-70.78"/>
<g id="a_edge11&#45;headlabel"><a xlink:href="dir_000009_000003.html" target="_top" xlink:title="6">
<text text-anchor="middle" x="113.27" y="-72.58" font-family="Helvetica,sans-Serif" font-size="10.00">6</text>
</a>
</g>
</g>
<!-- dir_4d2eff2471a826c58e5e9c039c795be6 -->
<g id="node5" class="node">
<title>dir_4d2eff2471a826c58e5e9c039c795be6</title>
<g id="a_node5"><a xlink:href="dir_4d2eff2471a826c58e5e9c039c795be6.html" target="_top" xlink:title="Render">
<polygon fill="white" stroke="red" points="145,-348 91,-348 91,-312 145,-312 145,-348"/>
<text text-anchor="middle" x="118" y="-327.5" font-family="Helvetica,sans-Serif" font-size="10.00">Render</text>
</a>
</g>
</g>
<!-- dir_4d2eff2471a826c58e5e9c039c795be6&#45;&gt;dir_b4117c9fe557ded8b543d1b18b285d99 -->
<g id="edge9" class="edge">
<title>dir_4d2eff2471a826c58e5e9c039c795be6&#45;&gt;dir_b4117c9fe557ded8b543d1b18b285d99</title>
<path fill="none" stroke="black" d="M118,-311.7C118,-303.98 118,-294.71 118,-286.11"/>
<polygon fill="black" stroke="black" points="121.5,-286.1 118,-276.1 114.5,-286.1 121.5,-286.1"/>
<g id="a_edge9&#45;headlabel"><a xlink:href="dir_000006_000015.html" target="_top" xlink:title="5">
<text text-anchor="middle" x="124.34" y="-287.2" font-family="Helvetica,sans-Serif" font-size="10.00">5</text>
</a>
</g>
</g>
<!-- dir_4d2eff2471a826c58e5e9c039c795be6&#45;&gt;dir_f114d42120a77b16f93146c19dbd5b81 -->
<g id="edge10" class="edge">
<title>dir_4d2eff2471a826c58e5e9c039c795be6&#45;&gt;dir_f114d42120a77b16f93146c19dbd5b81</title>
<path fill="none" stroke="black" d="M98.55,-311.58C69.11,-283 18.35,-223.74 35,-168 46.5,-129.52 74.06,-91.88 94.06,-68.13"/>
<polygon fill="black" stroke="black" points="96.91,-70.19 100.78,-60.33 91.6,-65.62 96.91,-70.19"/>
<g id="a_edge10&#45;headlabel"><a xlink:href="dir_000006_000003.html" target="_top" xlink:title="2">
<text text-anchor="middle" x="96.71" y="-72.27" font-family="Helvetica,sans-Serif" font-size="10.00">2</text>
</a>
</g>
</g>
<!-- dir_4d2eff2471a826c58e5e9c039c795be6&#45;&gt;dir_780f1b92810cb878bdca0c8f4af8e59d -->
<g id="edge7" class="edge">
<title>dir_4d2eff2471a826c58e5e9c039c795be6&#45;&gt;dir_780f1b92810cb878bdca0c8f4af8e59d</title>
<path fill="none" stroke="black" d="M103.03,-311.56C95.45,-301.75 86.86,-288.91 82,-276 74.57,-256.24 71.92,-232.44 71.08,-214.42"/>
<polygon fill="black" stroke="black" points="74.57,-214.19 70.76,-204.3 67.58,-214.4 74.57,-214.19"/>
<g id="a_edge7&#45;headlabel"><a xlink:href="dir_000006_000009.html" target="_top" xlink:title="8">
<text text-anchor="middle" x="77.52" y="-215.19" font-family="Helvetica,sans-Serif" font-size="10.00">8</text>
</a>
</g>
</g>
<!-- dir_ad105bcae6b0ad3d3b71fda549467dc2 -->
<g id="node6" class="node">
<title>dir_ad105bcae6b0ad3d3b71fda549467dc2</title>
<g id="a_node6"><a xlink:href="dir_ad105bcae6b0ad3d3b71fda549467dc2.html" target="_top" xlink:title="RHI">
<polygon fill="white" stroke="black" points="210,-132 156,-132 156,-96 210,-96 210,-132"/>
<text text-anchor="middle" x="183" y="-111.5" font-family="Helvetica,sans-Serif" font-size="10.00">RHI</text>
</a>
</g>
</g>
<!-- dir_4d2eff2471a826c58e5e9c039c795be6&#45;&gt;dir_ad105bcae6b0ad3d3b71fda549467dc2 -->
<g id="edge8" class="edge">
<title>dir_4d2eff2471a826c58e5e9c039c795be6&#45;&gt;dir_ad105bcae6b0ad3d3b71fda549467dc2</title>
<path fill="none" stroke="black" d="M142.05,-311.97C170.05,-290.5 214.78,-250.7 233,-204 238.81,-189.09 238.91,-182.87 233,-168 228.71,-157.2 221.06,-147.32 213.01,-139.1"/>
<polygon fill="black" stroke="black" points="215.25,-136.4 205.6,-132.04 210.42,-141.47 215.25,-136.4"/>
<g id="a_edge8&#45;headlabel"><a xlink:href="dir_000006_000008.html" target="_top" xlink:title="18">
<text text-anchor="middle" x="219.81" y="-134.32" font-family="Helvetica,sans-Serif" font-size="10.00">18</text>
</a>
</g>
</g>
<!-- dir_4d2eff2471a826c58e5e9c039c795be6&#45;&gt;dir_69e2a34ed588b03fe08b6d084419d32e -->
<g id="edge6" class="edge">
<title>dir_4d2eff2471a826c58e5e9c039c795be6&#45;&gt;dir_69e2a34ed588b03fe08b6d084419d32e</title>
<path fill="none" stroke="black" d="M131.8,-311.69C139.21,-301.72 148.02,-288.68 154,-276 163.35,-256.16 170.11,-232.23 174.39,-214.18"/>
<polygon fill="black" stroke="black" points="177.83,-214.83 176.63,-204.31 171.01,-213.29 177.83,-214.83"/>
<g id="a_edge6&#45;headlabel"><a xlink:href="dir_000006_000011.html" target="_top" xlink:title="7">
<text text-anchor="middle" x="179.81" y="-216.46" font-family="Helvetica,sans-Serif" font-size="10.00">7</text>
</a>
</g>
</g>
<!-- dir_ad105bcae6b0ad3d3b71fda549467dc2&#45;&gt;dir_f114d42120a77b16f93146c19dbd5b81 -->
<g id="edge1" class="edge">
<title>dir_ad105bcae6b0ad3d3b71fda549467dc2&#45;&gt;dir_f114d42120a77b16f93146c19dbd5b81</title>
<path fill="none" stroke="black" d="M166.69,-95.7C158.69,-87.22 148.93,-76.86 140.18,-67.58"/>
<polygon fill="black" stroke="black" points="142.53,-64.98 133.13,-60.1 137.44,-69.78 142.53,-64.98"/>
<g id="a_edge1&#45;headlabel"><a xlink:href="dir_000008_000003.html" target="_top" xlink:title="8">
<text text-anchor="middle" x="147.07" y="-63.15" font-family="Helvetica,sans-Serif" font-size="10.00">8</text>
</a>
</g>
</g>
<!-- dir_69e2a34ed588b03fe08b6d084419d32e&#45;&gt;dir_f114d42120a77b16f93146c19dbd5b81 -->
<g id="edge3" class="edge">
<title>dir_69e2a34ed588b03fe08b6d084419d32e&#45;&gt;dir_f114d42120a77b16f93146c19dbd5b81</title>
<path fill="none" stroke="black" d="M167.94,-167.91C161.17,-157.8 152.92,-144.55 147,-132 137.52,-111.91 129.63,-87.99 124.33,-70.01"/>
<polygon fill="black" stroke="black" points="127.63,-68.84 121.51,-60.19 120.9,-70.76 127.63,-68.84"/>
<g id="a_edge3&#45;headlabel"><a xlink:href="dir_000011_000003.html" target="_top" xlink:title="1">
<text text-anchor="middle" x="131.35" y="-69.01" font-family="Helvetica,sans-Serif" font-size="10.00">1</text>
</a>
</g>
</g>
<!-- dir_69e2a34ed588b03fe08b6d084419d32e&#45;&gt;dir_ad105bcae6b0ad3d3b71fda549467dc2 -->
<g id="edge2" class="edge">
<title>dir_69e2a34ed588b03fe08b6d084419d32e&#45;&gt;dir_ad105bcae6b0ad3d3b71fda549467dc2</title>
<path fill="none" stroke="black" d="M180.74,-167.7C181.07,-159.98 181.47,-150.71 181.84,-142.11"/>
<polygon fill="black" stroke="black" points="185.34,-142.25 182.27,-132.1 178.34,-141.95 185.34,-142.25"/>
<g id="a_edge2&#45;headlabel"><a xlink:href="dir_000011_000008.html" target="_top" xlink:title="2">
<text text-anchor="middle" x="188.02" y="-143.46" font-family="Helvetica,sans-Serif" font-size="10.00">2</text>
</a>
</g>
</g>
</g>
</svg>
