<?xml version="1.0" encoding="UTF-8" standalone="no"?>
<!DOCTYPE svg PUBLIC "-//W3C//DTD SVG 1.1//EN"
 "http://www.w3.org/Graphics/SVG/1.1/DTD/svg11.dtd">
<!-- Generated by graphviz version 2.43.0 (0)
 -->
<!-- Title: ShaderSystem Pages: 1 -->
<svg width="128pt" height="239pt"
 viewBox="0.00 0.00 128.00 239.00" xmlns="http://www.w3.org/2000/svg" xmlns:xlink="http://www.w3.org/1999/xlink">
<g id="graph0" class="graph" transform="scale(1 1) rotate(0) translate(4 235)">
<title>ShaderSystem</title>
<polygon fill="white" stroke="transparent" points="-4,4 -4,-235 124,-235 124,4 -4,4"/>
<g id="clust1" class="cluster">
<title>clusterdir_b0e0df8ca61baa2b2f9ca6c93fc6b46e</title>
<g id="a_clust1"><a xlink:href="dir_b0e0df8ca61baa2b2f9ca6c93fc6b46e.html" target="_top" xlink:title="Liger&#45;Engine">
<polygon fill="#ddddee" stroke="black" points="8,-8 8,-223 112,-223 112,-8 8,-8"/>
<text text-anchor="middle" x="60" y="-211" font-family="Helvetica,sans-Serif" font-size="10.00">Liger&#45;Engine</text>
</a>
</g>
</g>
<!-- dir_ad105bcae6b0ad3d3b71fda549467dc2 -->
<g id="node1" class="node">
<title>dir_ad105bcae6b0ad3d3b71fda549467dc2</title>
<g id="a_node1"><a xlink:href="dir_ad105bcae6b0ad3d3b71fda549467dc2.html" target="_top" xlink:title="RHI">
<polygon fill="none" stroke="black" points="70,-124 16,-124 16,-88 70,-88 70,-124"/>
<text text-anchor="middle" x="43" y="-103.5" font-family="Helvetica,sans-Serif" font-size="10.00">RHI</text>
</a>
</g>
</g>
<!-- dir_f114d42120a77b16f93146c19dbd5b81 -->
<g id="node2" class="node">
<title>dir_f114d42120a77b16f93146c19dbd5b81</title>
<g id="a_node2"><a xlink:href="dir_f114d42120a77b16f93146c19dbd5b81.html" target="_top" xlink:title="Core">
<polygon fill="white" stroke="red" points="87,-52 33,-52 33,-16 87,-16 87,-52"/>
<text text-anchor="middle" x="60" y="-31.5" font-family="Helvetica,sans-Serif" font-size="10.00">Core</text>
</a>
</g>
</g>
<!-- dir_ad105bcae6b0ad3d3b71fda549467dc2&#45;&gt;dir_f114d42120a77b16f93146c19dbd5b81 -->
<g id="edge1" class="edge">
<title>dir_ad105bcae6b0ad3d3b71fda549467dc2&#45;&gt;dir_f114d42120a77b16f93146c19dbd5b81</title>
<path fill="none" stroke="black" d="M47.2,-87.7C49.1,-79.9 51.38,-70.51 53.48,-61.83"/>
<polygon fill="black" stroke="black" points="56.89,-62.65 55.85,-52.1 50.08,-61 56.89,-62.65"/>
<g id="a_edge1&#45;headlabel"><a xlink:href="dir_000008_000003.html" target="_top" xlink:title="8">
<text text-anchor="middle" x="58.8" y="-64.31" font-family="Helvetica,sans-Serif" font-size="10.00">8</text>
</a>
</g>
</g>
<!-- dir_69e2a34ed588b03fe08b6d084419d32e -->
<g id="node3" class="node">
<title>dir_69e2a34ed588b03fe08b6d084419d32e</title>
<g id="a_node3"><a xlink:href="dir_69e2a34ed588b03fe08b6d084419d32e.html" target="_top" xlink:title="ShaderSystem">
<polygon fill="#eeeeff" stroke="black" points="103.5,-196 16.5,-196 16.5,-160 103.5,-160 103.5,-196"/>
<text text-anchor="middle" x="60" y="-175.5" font-family="Helvetica,sans-Serif" font-size="10.00">ShaderSystem</text>
</a>
</g>
</g>
<!-- dir_69e2a34ed588b03fe08b6d084419d32e&#45;&gt;dir_ad105bcae6b0ad3d3b71fda549467dc2 -->
<g id="edge2" class="edge">
<title>dir_69e2a34ed588b03fe08b6d084419d32e&#45;&gt;dir_ad105bcae6b0ad3d3b71fda549467dc2</title>
<path fill="none" stroke="black" d="M55.8,-159.7C53.9,-151.9 51.62,-142.51 49.52,-133.83"/>
<polygon fill="black" stroke="black" points="52.92,-133 47.15,-124.1 46.11,-134.65 52.92,-133"/>
<g id="a_edge2&#45;headlabel"><a xlink:href="dir_000011_000008.html" target="_top" xlink:title="2">
<text text-anchor="middle" x="56.52" y="-133.32" font-family="Helvetica,sans-Serif" font-size="10.00">2</text>
</a>
</g>
</g>
<!-- dir_69e2a34ed588b03fe08b6d084419d32e&#45;&gt;dir_f114d42120a77b16f93146c19dbd5b81 -->
<g id="edge3" class="edge">
<title>dir_69e2a34ed588b03fe08b6d084419d32e&#45;&gt;dir_f114d42120a77b16f93146c19dbd5b81</title>
<path fill="none" stroke="black" d="M67.89,-159.75C72.11,-149.58 76.86,-136.33 79,-124 81.74,-108.24 81.74,-103.76 79,-88 77.48,-79.24 74.64,-70.01 71.61,-61.75"/>
<polygon fill="black" stroke="black" points="74.79,-60.29 67.89,-52.25 68.28,-62.84 74.79,-60.29"/>
<g id="a_edge3&#45;headlabel"><a xlink:href="dir_000011_000003.html" target="_top" xlink:title="1">
<text text-anchor="middle" x="78.75" y="-60.11" font-family="Helvetica,sans-Serif" font-size="10.00">1</text>
</a>
</g>
</g>
</g>
</svg>
