<?xml version="1.0" encoding="UTF-8" standalone="no"?>
<!DOCTYPE svg PUBLIC "-//W3C//DTD SVG 1.1//EN"
 "http://www.w3.org/Graphics/SVG/1.1/DTD/svg11.dtd">
<!-- Generated by graphviz version 2.43.0 (0)
 -->
<!-- Title: Core Pages: 1 -->
<svg width="270pt" height="255pt"
 viewBox="0.00 0.00 270.00 255.00" xmlns="http://www.w3.org/2000/svg" xmlns:xlink="http://www.w3.org/1999/xlink">
<g id="graph0" class="graph" transform="scale(1 1) rotate(0) translate(4 251)">
<title>Core</title>
<polygon fill="white" stroke="transparent" points="-4,4 -4,-251 266,-251 266,4 -4,4"/>
<g id="clust1" class="cluster">
<title>clusterdir_b0e0df8ca61baa2b2f9ca6c93fc6b46e</title>
<g id="a_clust1"><a xlink:href="dir_b0e0df8ca61baa2b2f9ca6c93fc6b46e.html" target="_top" xlink:title="Liger&#45;Engine">
<polygon fill="#ddddee" stroke="black" points="8,-8 8,-239 254,-239 254,-8 8,-8"/>
<text text-anchor="middle" x="131" y="-227" font-family="Helvetica,sans-Serif" font-size="10.00">Liger&#45;Engine</text>
</a>
</g>
</g>
<g id="clust2" class="cluster">
<title>clusterdir_f114d42120a77b16f93146c19dbd5b81</title>
<g id="a_clust2"><a xlink:href="dir_f114d42120a77b16f93146c19dbd5b81.html" target="_top">
<polygon fill="#eeeeff" stroke="black" points="16,-16 16,-212 246,-212 246,-16 16,-16"/>
</a>
</g>
</g>
<!-- dir_f114d42120a77b16f93146c19dbd5b81 -->
<g id="node1" class="node">
<title>dir_f114d42120a77b16f93146c19dbd5b81</title>
<text text-anchor="middle" x="187" y="-183.5" font-family="Helvetica,sans-Serif" font-size="10.00">Core</text>
</g>
<!-- dir_2ff0141c0dcf8beea7879e572ae20b62 -->
<g id="node2" class="node">
<title>dir_2ff0141c0dcf8beea7879e572ae20b62</title>
<g id="a_node2"><a xlink:href="dir_2ff0141c0dcf8beea7879e572ae20b62.html" target="_top" xlink:title="Containers">
<polygon fill="white" stroke="black" points="237.5,-132 168.5,-132 168.5,-96 237.5,-96 237.5,-132"/>
<text text-anchor="middle" x="203" y="-111.5" font-family="Helvetica,sans-Serif" font-size="10.00">Containers</text>
</a>
</g>
</g>
<!-- dir_483e7648d128a451452a2ba0358c3f12 -->
<g id="node4" class="node">
<title>dir_483e7648d128a451452a2ba0358c3f12</title>
<g id="a_node4"><a xlink:href="dir_483e7648d128a451452a2ba0358c3f12.html" target="_top" xlink:title="Log">
<polygon fill="white" stroke="black" points="154,-60 100,-60 100,-24 154,-24 154,-60"/>
<text text-anchor="middle" x="127" y="-39.5" font-family="Helvetica,sans-Serif" font-size="10.00">Log</text>
</a>
</g>
</g>
<!-- dir_2ff0141c0dcf8beea7879e572ae20b62&#45;&gt;dir_483e7648d128a451452a2ba0358c3f12 -->
<g id="edge1" class="edge">
<title>dir_2ff0141c0dcf8beea7879e572ae20b62&#45;&gt;dir_483e7648d128a451452a2ba0358c3f12</title>
<path fill="none" stroke="black" d="M184.21,-95.7C174.83,-87.05 163.32,-76.45 153.09,-67.03"/>
<polygon fill="black" stroke="black" points="155.3,-64.3 145.57,-60.1 150.55,-69.45 155.3,-64.3"/>
<g id="a_edge1&#45;headlabel"><a xlink:href="dir_000008_000007.html" target="_top" xlink:title="2">
<text text-anchor="middle" x="159.86" y="-62.15" font-family="Helvetica,sans-Serif" font-size="10.00">2</text>
</a>
</g>
</g>
<!-- dir_ec45f73b4de7e2f9d48d206594960c82 -->
<g id="node3" class="node">
<title>dir_ec45f73b4de7e2f9d48d206594960c82</title>
<g id="a_node3"><a xlink:href="dir_ec45f73b4de7e2f9d48d206594960c82.html" target="_top" xlink:title="Event">
<polygon fill="white" stroke="red" points="78,-132 24,-132 24,-96 78,-96 78,-132"/>
<text text-anchor="middle" x="51" y="-111.5" font-family="Helvetica,sans-Serif" font-size="10.00">Event</text>
</a>
</g>
</g>
<!-- dir_ec45f73b4de7e2f9d48d206594960c82&#45;&gt;dir_483e7648d128a451452a2ba0358c3f12 -->
<g id="edge4" class="edge">
<title>dir_ec45f73b4de7e2f9d48d206594960c82&#45;&gt;dir_483e7648d128a451452a2ba0358c3f12</title>
<path fill="none" stroke="black" d="M69.79,-95.7C79.17,-87.05 90.68,-76.45 100.91,-67.03"/>
<polygon fill="black" stroke="black" points="103.45,-69.45 108.43,-60.1 98.7,-64.3 103.45,-69.45"/>
<g id="a_edge4&#45;headlabel"><a xlink:href="dir_000004_000007.html" target="_top" xlink:title="1">
<text text-anchor="middle" x="102.72" y="-71.48" font-family="Helvetica,sans-Serif" font-size="10.00">1</text>
</a>
</g>
</g>
<!-- dir_68f8a3692f686ed07ef2c90556b36ce6 -->
<g id="node5" class="node">
<title>dir_68f8a3692f686ed07ef2c90556b36ce6</title>
<g id="a_node5"><a xlink:href="dir_68f8a3692f686ed07ef2c90556b36ce6.html" target="_top" xlink:title="Math">
<polygon fill="white" stroke="black" points="150,-132 96,-132 96,-96 150,-96 150,-132"/>
<text text-anchor="middle" x="123" y="-111.5" font-family="Helvetica,sans-Serif" font-size="10.00">Math</text>
</a>
</g>
</g>
<!-- dir_5cb8b41ae88bce6635faf633814d2403 -->
<g id="node6" class="node">
<title>dir_5cb8b41ae88bce6635faf633814d2403</title>
<g id="a_node6"><a xlink:href="dir_5cb8b41ae88bce6635faf633814d2403.html" target="_top" xlink:title="Platform">
<polygon fill="white" stroke="black" points="117.5,-204 58.5,-204 58.5,-168 117.5,-168 117.5,-204"/>
<text text-anchor="middle" x="88" y="-183.5" font-family="Helvetica,sans-Serif" font-size="10.00">Platform</text>
</a>
</g>
</g>
<!-- dir_5cb8b41ae88bce6635faf633814d2403&#45;&gt;dir_ec45f73b4de7e2f9d48d206594960c82 -->
<g id="edge3" class="edge">
<title>dir_5cb8b41ae88bce6635faf633814d2403&#45;&gt;dir_ec45f73b4de7e2f9d48d206594960c82</title>
<path fill="none" stroke="black" d="M78.85,-167.7C74.6,-159.64 69.44,-149.89 64.73,-140.98"/>
<polygon fill="black" stroke="black" points="67.81,-139.31 60.04,-132.1 61.62,-142.58 67.81,-139.31"/>
<g id="a_edge3&#45;headlabel"><a xlink:href="dir_000011_000004.html" target="_top" xlink:title="1">
<text text-anchor="middle" x="72" y="-138.66" font-family="Helvetica,sans-Serif" font-size="10.00">1</text>
</a>
</g>
</g>
<!-- dir_5cb8b41ae88bce6635faf633814d2403&#45;&gt;dir_68f8a3692f686ed07ef2c90556b36ce6 -->
<g id="edge2" class="edge">
<title>dir_5cb8b41ae88bce6635faf633814d2403&#45;&gt;dir_68f8a3692f686ed07ef2c90556b36ce6</title>
<path fill="none" stroke="black" d="M96.65,-167.7C100.64,-159.73 105.45,-150.1 109.87,-141.26"/>
<polygon fill="black" stroke="black" points="113.11,-142.61 114.45,-132.1 106.85,-139.48 113.11,-142.61"/>
<g id="a_edge2&#45;headlabel"><a xlink:href="dir_000011_000009.html" target="_top" xlink:title="1">
<text text-anchor="middle" x="114.04" y="-144.6" font-family="Helvetica,sans-Serif" font-size="10.00">1</text>
</a>
</g>
</g>
</g>
</svg>
