<?xml version="1.0" encoding="UTF-8" standalone="no"?>
<!DOCTYPE svg PUBLIC "-//W3C//DTD SVG 1.1//EN"
 "http://www.w3.org/Graphics/SVG/1.1/DTD/svg11.dtd">
<!-- Generated by graphviz version 2.43.0 (0)
 -->
<!-- Title: Asset Pages: 1 -->
<svg width="266pt" height="247pt"
 viewBox="0.00 0.00 266.00 247.00" xmlns="http://www.w3.org/2000/svg" xmlns:xlink="http://www.w3.org/1999/xlink">
<g id="graph0" class="graph" transform="scale(1 1) rotate(0) translate(4 243)">
<title>Asset</title>
<polygon fill="white" stroke="transparent" points="-4,4 -4,-243 262,-243 262,4 -4,4"/>
<g id="clust1" class="cluster">
<title>clusterdir_b0e0df8ca61baa2b2f9ca6c93fc6b46e</title>
<g id="a_clust1"><a xlink:href="dir_b0e0df8ca61baa2b2f9ca6c93fc6b46e.html" target="_top" xlink:title="Liger&#45;Engine">
<polygon fill="#ddddee" stroke="black" points="8,-8 8,-231 250,-231 250,-8 8,-8"/>
<text text-anchor="middle" x="129" y="-219" font-family="Helvetica,sans-Serif" font-size="10.00">Liger&#45;Engine</text>
</a>
</g>
</g>
<g id="clust2" class="cluster">
<title>clusterdir_b4117c9fe557ded8b543d1b18b285d99</title>
<g id="a_clust2"><a xlink:href="dir_b4117c9fe557ded8b543d1b18b285d99.html" target="_top">
<polygon fill="#eeeeff" stroke="black" points="16,-152 16,-204 242,-204 242,-152 16,-152"/>
</a>
</g>
</g>
<!-- dir_f114d42120a77b16f93146c19dbd5b81 -->
<g id="node1" class="node">
<title>dir_f114d42120a77b16f93146c19dbd5b81</title>
<g id="a_node1"><a xlink:href="dir_f114d42120a77b16f93146c19dbd5b81.html" target="_top" xlink:title="Core">
<polygon fill="white" stroke="red" points="130,-52 76,-52 76,-16 130,-16 130,-52"/>
<text text-anchor="middle" x="103" y="-31.5" font-family="Helvetica,sans-Serif" font-size="10.00">Core</text>
</a>
</g>
</g>
<!-- dir_69e2a34ed588b03fe08b6d084419d32e -->
<g id="node2" class="node">
<title>dir_69e2a34ed588b03fe08b6d084419d32e</title>
<g id="a_node2"><a xlink:href="dir_69e2a34ed588b03fe08b6d084419d32e.html" target="_top" xlink:title="ShaderSystem">
<polygon fill="none" stroke="black" points="220.5,-124 133.5,-124 133.5,-88 220.5,-88 220.5,-124"/>
<text text-anchor="middle" x="177" y="-103.5" font-family="Helvetica,sans-Serif" font-size="10.00">ShaderSystem</text>
</a>
</g>
</g>
<!-- dir_69e2a34ed588b03fe08b6d084419d32e&#45;&gt;dir_f114d42120a77b16f93146c19dbd5b81 -->
<g id="edge1" class="edge">
<title>dir_69e2a34ed588b03fe08b6d084419d32e&#45;&gt;dir_f114d42120a77b16f93146c19dbd5b81</title>
<path fill="none" stroke="black" d="M158.71,-87.7C149.57,-79.05 138.36,-68.45 128.4,-59.03"/>
<polygon fill="black" stroke="black" points="130.75,-56.43 121.08,-52.1 125.94,-61.52 130.75,-56.43"/>
<g id="a_edge1&#45;headlabel"><a xlink:href="dir_000011_000003.html" target="_top" xlink:title="1">
<text text-anchor="middle" x="135.31" y="-54.34" font-family="Helvetica,sans-Serif" font-size="10.00">1</text>
</a>
</g>
</g>
<!-- dir_b4117c9fe557ded8b543d1b18b285d99 -->
<g id="node3" class="node">
<title>dir_b4117c9fe557ded8b543d1b18b285d99</title>
<text text-anchor="middle" x="51" y="-175.5" font-family="Helvetica,sans-Serif" font-size="10.00">Asset</text>
</g>
<!-- dir_b4117c9fe557ded8b543d1b18b285d99&#45;&gt;dir_f114d42120a77b16f93146c19dbd5b81 -->
<g id="edge2" class="edge">
<title>dir_b4117c9fe557ded8b543d1b18b285d99&#45;&gt;dir_f114d42120a77b16f93146c19dbd5b81</title>
<path fill="none" stroke="black" d="M57.27,-159.87C66.21,-135.46 82.7,-90.43 93.25,-61.64"/>
<polygon fill="black" stroke="black" points="96.55,-62.78 96.71,-52.19 89.98,-60.38 96.55,-62.78"/>
<g id="a_edge2&#45;headlabel"><a xlink:href="dir_000015_000003.html" target="_top" xlink:title="4">
<text text-anchor="middle" x="97.98" y="-64.63" font-family="Helvetica,sans-Serif" font-size="10.00">4</text>
</a>
</g>
</g>
<!-- dir_a54c5c2801d38bbb8d160a1d2f13be6c -->
<g id="node4" class="node">
<title>dir_a54c5c2801d38bbb8d160a1d2f13be6c</title>
<g id="a_node4"><a xlink:href="dir_a54c5c2801d38bbb8d160a1d2f13be6c.html" target="_top" xlink:title="Importers">
<polygon fill="white" stroke="black" points="160,-196 96,-196 96,-160 160,-160 160,-196"/>
<text text-anchor="middle" x="128" y="-175.5" font-family="Helvetica,sans-Serif" font-size="10.00">Importers</text>
</a>
</g>
</g>
<!-- dir_483895c946f40b9be63ce9022f530a02 -->
<g id="node5" class="node">
<title>dir_483895c946f40b9be63ce9022f530a02</title>
<g id="a_node5"><a xlink:href="dir_483895c946f40b9be63ce9022f530a02.html" target="_top" xlink:title="Loaders">
<polygon fill="white" stroke="black" points="233.5,-196 178.5,-196 178.5,-160 233.5,-160 233.5,-196"/>
<text text-anchor="middle" x="206" y="-175.5" font-family="Helvetica,sans-Serif" font-size="10.00">Loaders</text>
</a>
</g>
</g>
<!-- dir_483895c946f40b9be63ce9022f530a02&#45;&gt;dir_69e2a34ed588b03fe08b6d084419d32e -->
<g id="edge3" class="edge">
<title>dir_483895c946f40b9be63ce9022f530a02&#45;&gt;dir_69e2a34ed588b03fe08b6d084419d32e</title>
<path fill="none" stroke="black" d="M198.83,-159.7C195.57,-151.81 191.63,-142.3 188,-133.55"/>
<polygon fill="black" stroke="black" points="191.15,-132 184.09,-124.1 184.68,-134.68 191.15,-132"/>
<g id="a_edge3&#45;headlabel"><a xlink:href="dir_000018_000011.html" target="_top" xlink:title="1">
<text text-anchor="middle" x="195.15" y="-131.74" font-family="Helvetica,sans-Serif" font-size="10.00">1</text>
</a>
</g>
</g>
</g>
</svg>
