<?xml version="1.0" encoding="UTF-8" standalone="no"?>
<!DOCTYPE svg PUBLIC "-//W3C//DTD SVG 1.1//EN"
 "http://www.w3.org/Graphics/SVG/1.1/DTD/svg11.dtd">
<!-- Generated by graphviz version 2.43.0 (0)
 -->
<!-- Title: event Pages: 1 -->
<svg width="110pt" height="247pt"
 viewBox="0.00 0.00 110.00 247.00" xmlns="http://www.w3.org/2000/svg" xmlns:xlink="http://www.w3.org/1999/xlink">
<g id="graph0" class="graph" transform="scale(1 1) rotate(0) translate(4 243)">
<title>event</title>
<polygon fill="white" stroke="transparent" points="-4,4 -4,-243 106,-243 106,4 -4,4"/>
<g id="clust1" class="cluster">
<title>clusterdir_f2fdbd745c0d6e6eb4e34e31c74fc19e</title>
<g id="a_clust1"><a xlink:href="dir_f2fdbd745c0d6e6eb4e34e31c74fc19e.html" target="_top" xlink:title="core">
<polygon fill="#ddddee" stroke="black" points="8,-8 8,-231 94,-231 94,-8 8,-8"/>
<text text-anchor="middle" x="51" y="-219" font-family="Helvetica,sans-Serif" font-size="10.00">core</text>
</a>
</g>
</g>
<g id="clust2" class="cluster">
<title>clusterdir_6dd9f77f40155350fa52c5e6a31bebf7</title>
<g id="a_clust2"><a xlink:href="dir_6dd9f77f40155350fa52c5e6a31bebf7.html" target="_top">
<polygon fill="#eeeeff" stroke="black" points="16,-80 16,-204 86,-204 86,-80 16,-80"/>
</a>
</g>
</g>
<!-- dir_61e0d4cc473d0f584c2472a554d1d7b3 -->
<g id="node1" class="node">
<title>dir_61e0d4cc473d0f584c2472a554d1d7b3</title>
<g id="a_node1"><a xlink:href="dir_61e0d4cc473d0f584c2472a554d1d7b3.html" target="_top" xlink:title="log">
<polygon fill="none" stroke="black" points="78,-52 24,-52 24,-16 78,-16 78,-52"/>
<text text-anchor="middle" x="51" y="-31.5" font-family="Helvetica,sans-Serif" font-size="10.00">log</text>
</a>
</g>
</g>
<!-- dir_6dd9f77f40155350fa52c5e6a31bebf7 -->
<g id="node2" class="node">
<title>dir_6dd9f77f40155350fa52c5e6a31bebf7</title>
<text text-anchor="middle" x="51" y="-175.5" font-family="Helvetica,sans-Serif" font-size="10.00">event</text>
</g>
<!-- dir_b79d3eb1e553caba3795359e61b8e138 -->
<g id="node3" class="node">
<title>dir_b79d3eb1e553caba3795359e61b8e138</title>
<g id="a_node3"><a xlink:href="dir_b79d3eb1e553caba3795359e61b8e138.html" target="_top" xlink:title="detail">
<polygon fill="white" stroke="black" points="78,-124 24,-124 24,-88 78,-88 78,-124"/>
<text text-anchor="middle" x="51" y="-103.5" font-family="Helvetica,sans-Serif" font-size="10.00">detail</text>
</a>
</g>
</g>
<!-- dir_6dd9f77f40155350fa52c5e6a31bebf7&#45;&gt;dir_b79d3eb1e553caba3795359e61b8e138 -->
<g id="edge1" class="edge">
<title>dir_6dd9f77f40155350fa52c5e6a31bebf7&#45;&gt;dir_b79d3eb1e553caba3795359e61b8e138</title>
<path fill="none" stroke="black" d="M51,-159.7C51,-151.98 51,-142.71 51,-134.11"/>
<polygon fill="black" stroke="black" points="54.5,-134.1 51,-124.1 47.5,-134.1 54.5,-134.1"/>
<g id="a_edge1&#45;headlabel"><a xlink:href="dir_000004_000005.html" target="_top" xlink:title="2">
<text text-anchor="middle" x="57.34" y="-135.2" font-family="Helvetica,sans-Serif" font-size="10.00">2</text>
</a>
</g>
</g>
<!-- dir_b79d3eb1e553caba3795359e61b8e138&#45;&gt;dir_61e0d4cc473d0f584c2472a554d1d7b3 -->
<g id="edge2" class="edge">
<title>dir_b79d3eb1e553caba3795359e61b8e138&#45;&gt;dir_61e0d4cc473d0f584c2472a554d1d7b3</title>
<path fill="none" stroke="black" d="M51,-87.7C51,-79.98 51,-70.71 51,-62.11"/>
<polygon fill="black" stroke="black" points="54.5,-62.1 51,-52.1 47.5,-62.1 54.5,-62.1"/>
<g id="a_edge2&#45;headlabel"><a xlink:href="dir_000005_000006.html" target="_top" xlink:title="1">
<text text-anchor="middle" x="57.34" y="-63.2" font-family="Helvetica,sans-Serif" font-size="10.00">1</text>
</a>
</g>
</g>
</g>
</svg>
