<?xml version="1.0" encoding="UTF-8" standalone="no"?>
<!DOCTYPE svg PUBLIC "-//W3C//DTD SVG 1.1//EN"
 "http://www.w3.org/Graphics/SVG/1.1/DTD/svg11.dtd">
<!-- Generated by graphviz version 2.43.0 (0)
 -->
<!-- Title: enum_class.hpp Pages: 1 -->
<!--zoomable 532 -->
<svg id="main" version="1.1" xmlns="http://www.w3.org/2000/svg" xmlns:xlink="http://www.w3.org/1999/xlink" xml:space="preserve" onload="init(evt)">
<style type="text/css"><![CDATA[
.edge:hover path { stroke: red; }
.edge:hover polygon { stroke: red; fill: red; }
]]></style>
<script type="text/javascript"><![CDATA[
var edges = document.getElementsByTagName('g');
if (edges && edges.length) {
  for (var i=0;i<edges.length;i++) {
    if (edges[i].id.substr(0,4)=='edge') {
      edges[i].setAttribute('class','edge');
    }
  }
}
]]></script>
        <defs>
                <circle id="rim" cx="0" cy="0" r="7"/>
                <circle id="rim2" cx="0" cy="0" r="3.5"/>
                <g id="zoomPlus">
                        <use xlink:href="#rim" fill="#404040">
                                <set attributeName="fill" to="#808080" begin="zoomplus.mouseover" end="zoomplus.mouseout"/>
                        </use>
                        <path d="M-4,0h8M0,-4v8" fill="none" stroke="white" stroke-width="1.5" pointer-events="none"/>
                </g>
                <g id="zoomMin">
                        <use xlink:href="#rim" fill="#404040">
                                <set attributeName="fill" to="#808080" begin="zoomminus.mouseover" end="zoomminus.mouseout"/>
                        </use>
                        <path d="M-4,0h8" fill="none" stroke="white" stroke-width="1.5" pointer-events="none"/>
                </g>
                <g id="dirArrow">
                        <path fill="none" stroke="white" stroke-width="1.5" d="M0,-3.0v7 M-2.5,-0.5L0,-3.0L2.5,-0.5"/>
                </g>
               <g id="resetDef">
                       <use xlink:href="#rim2" fill="#404040">
                               <set attributeName="fill" to="#808080" begin="reset.mouseover" end="reset.mouseout"/>
                       </use>
               </g>
        </defs>

<script type="text/javascript">
var viewWidth = 446;
var viewHeight = 532;
var sectionId = 'dynsection-1';
</script>
<script xlink:href="svgpan.js"/>
<svg id="graph" class="graph">
<g id="viewport">
<title>enum_class.hpp</title>
<polygon fill="white" stroke="transparent" points="-4,4 -4,-528 442,-528 442,4 -4,4"/>
<!-- Node1 -->
<g id="node1" class="node">
<title>Node1</title>
<g id="a_node1"><a xlink:title=" ">
<polygon fill="#bfbfbf" stroke="black" points="135.5,-504.5 135.5,-523.5 230.5,-523.5 230.5,-504.5 135.5,-504.5"/>
<text text-anchor="middle" x="183" y="-511.5" font-family="Helvetica,sans-Serif" font-size="10.00">enum_class.hpp</text>
</a>
</g>
</g>
<!-- Node2 -->
<g id="node2" class="node">
<title>Node2</title>
<g id="a_node2"><a xlink:href="core_8hpp.html" target="_top" xlink:title=" ">
<polygon fill="white" stroke="black" points="52.5,-0.5 52.5,-19.5 111.5,-19.5 111.5,-0.5 52.5,-0.5"/>
<text text-anchor="middle" x="82" y="-7.5" font-family="Helvetica,sans-Serif" font-size="10.00">core.hpp</text>
</a>
</g>
</g>
<!-- Node1&#45;&gt;Node2 -->
<g id="edge1" class="edge">
<title>Node1&#45;&gt;Node2</title>
<path fill="none" stroke="midnightblue" d="M125.61,-503.34C71.94,-490.63 0,-462.5 0,-403 0,-403 0,-403 0,-121 0,-75.27 46.12,-36.26 69.19,-19.61"/>
<polygon fill="midnightblue" stroke="midnightblue" points="124.87,-506.76 135.4,-505.54 126.41,-499.93 124.87,-506.76"/>
</g>
<!-- Node3 -->
<g id="node3" class="node">
<title>Node3</title>
<g id="a_node3"><a xlink:href="enum__class_8cpp.html" target="_top" xlink:title=" ">
<polygon fill="white" stroke="black" points="242.5,-448.5 242.5,-467.5 337.5,-467.5 337.5,-448.5 242.5,-448.5"/>
<text text-anchor="middle" x="290" y="-455.5" font-family="Helvetica,sans-Serif" font-size="10.00">enum_class.cpp</text>
</a>
</g>
</g>
<!-- Node1&#45;&gt;Node3 -->
<g id="edge2" class="edge">
<title>Node1&#45;&gt;Node3</title>
<path fill="none" stroke="midnightblue" d="M209.3,-499.73C229.11,-489.73 255.71,-476.31 272.85,-467.65"/>
<polygon fill="midnightblue" stroke="midnightblue" points="207.54,-496.69 200.19,-504.32 210.7,-502.94 207.54,-496.69"/>
</g>
<!-- Node4 -->
<g id="node4" class="node">
<title>Node4</title>
<g id="a_node4"><a xlink:href="log__level_8hpp.html" target="_top" xlink:title=" ">
<polygon fill="white" stroke="black" points="142,-448.5 142,-467.5 224,-467.5 224,-448.5 142,-448.5"/>
<text text-anchor="middle" x="183" y="-455.5" font-family="Helvetica,sans-Serif" font-size="10.00">log_level.hpp</text>
</a>
</g>
</g>
<!-- Node1&#45;&gt;Node4 -->
<g id="edge3" class="edge">
<title>Node1&#45;&gt;Node4</title>
<path fill="none" stroke="midnightblue" d="M183,-493.8C183,-484.91 183,-474.78 183,-467.75"/>
<polygon fill="midnightblue" stroke="midnightblue" points="179.5,-494.08 183,-504.08 186.5,-494.08 179.5,-494.08"/>
</g>
<!-- Node5 -->
<g id="node5" class="node">
<title>Node5</title>
<g id="a_node5"><a xlink:href="console__log__writer_8cpp.html" target="_top" xlink:title=" ">
<polygon fill="white" stroke="black" points="310,-224.5 310,-243.5 438,-243.5 438,-224.5 310,-224.5"/>
<text text-anchor="middle" x="374" y="-231.5" font-family="Helvetica,sans-Serif" font-size="10.00">console_log_writer.cpp</text>
</a>
</g>
</g>
<!-- Node4&#45;&gt;Node5 -->
<g id="edge4" class="edge">
<title>Node4&#45;&gt;Node5</title>
<path fill="none" stroke="midnightblue" d="M221.99,-445.18C262.15,-430.86 323.22,-402.67 355,-356 379.41,-320.14 376.98,-264.6 374.99,-243.51"/>
<polygon fill="midnightblue" stroke="midnightblue" points="220.82,-441.88 212.51,-448.45 223.1,-448.5 220.82,-441.88"/>
</g>
<!-- Node6 -->
<g id="node6" class="node">
<title>Node6</title>
<g id="a_node6"><a xlink:href="log__message_8hpp.html" target="_top" xlink:title=" ">
<polygon fill="white" stroke="black" points="132,-392.5 132,-411.5 234,-411.5 234,-392.5 132,-392.5"/>
<text text-anchor="middle" x="183" y="-399.5" font-family="Helvetica,sans-Serif" font-size="10.00">log_message.hpp</text>
</a>
</g>
</g>
<!-- Node4&#45;&gt;Node6 -->
<g id="edge5" class="edge">
<title>Node4&#45;&gt;Node6</title>
<path fill="none" stroke="midnightblue" d="M183,-437.8C183,-428.91 183,-418.78 183,-411.75"/>
<polygon fill="midnightblue" stroke="midnightblue" points="179.5,-438.08 183,-448.08 186.5,-438.08 179.5,-438.08"/>
</g>
<!-- Node7 -->
<g id="node7" class="node">
<title>Node7</title>
<g id="a_node7"><a xlink:href="log_8hpp.html" target="_top" xlink:title=" ">
<polygon fill="white" stroke="black" points="115.5,-280.5 115.5,-299.5 168.5,-299.5 168.5,-280.5 115.5,-280.5"/>
<text text-anchor="middle" x="142" y="-287.5" font-family="Helvetica,sans-Serif" font-size="10.00">log.hpp</text>
</a>
</g>
</g>
<!-- Node6&#45;&gt;Node7 -->
<g id="edge6" class="edge">
<title>Node6&#45;&gt;Node7</title>
<path fill="none" stroke="midnightblue" d="M158.63,-386.73C148.05,-379.09 136.78,-368.64 131,-356 122.44,-337.26 131.35,-312.74 137.4,-299.83"/>
<polygon fill="midnightblue" stroke="midnightblue" points="156.96,-389.82 167.22,-392.47 160.85,-384 156.96,-389.82"/>
</g>
<!-- Node14 -->
<g id="node14" class="node">
<title>Node14</title>
<g id="a_node14"><a xlink:href="log__message_8cpp.html" target="_top" xlink:title=" ">
<polygon fill="white" stroke="black" points="244.5,-336.5 244.5,-355.5 345.5,-355.5 345.5,-336.5 244.5,-336.5"/>
<text text-anchor="middle" x="295" y="-343.5" font-family="Helvetica,sans-Serif" font-size="10.00">log_message.cpp</text>
</a>
</g>
</g>
<!-- Node6&#45;&gt;Node14 -->
<g id="edge15" class="edge">
<title>Node6&#45;&gt;Node14</title>
<path fill="none" stroke="midnightblue" d="M210.25,-387.86C231.02,-377.85 259.02,-364.35 277.05,-355.65"/>
<polygon fill="midnightblue" stroke="midnightblue" points="208.48,-384.83 200.99,-392.32 211.52,-391.13 208.48,-384.83"/>
</g>
<!-- Node15 -->
<g id="node15" class="node">
<title>Node15</title>
<g id="a_node15"><a xlink:href="log__writer_8hpp.html" target="_top" xlink:title=" ">
<polygon fill="white" stroke="black" points="140,-336.5 140,-355.5 226,-355.5 226,-336.5 140,-336.5"/>
<text text-anchor="middle" x="183" y="-343.5" font-family="Helvetica,sans-Serif" font-size="10.00">log_writer.hpp</text>
</a>
</g>
</g>
<!-- Node6&#45;&gt;Node15 -->
<g id="edge16" class="edge">
<title>Node6&#45;&gt;Node15</title>
<path fill="none" stroke="midnightblue" d="M183,-381.8C183,-372.91 183,-362.78 183,-355.75"/>
<polygon fill="midnightblue" stroke="midnightblue" points="179.5,-382.08 183,-392.08 186.5,-382.08 179.5,-382.08"/>
</g>
<!-- Node8 -->
<g id="node8" class="node">
<title>Node8</title>
<g id="a_node8"><a xlink:href="default__log_8hpp.html" target="_top" xlink:title=" ">
<polygon fill="white" stroke="black" points="59,-224.5 59,-243.5 151,-243.5 151,-224.5 59,-224.5"/>
<text text-anchor="middle" x="105" y="-231.5" font-family="Helvetica,sans-Serif" font-size="10.00">default_log.hpp</text>
</a>
</g>
</g>
<!-- Node7&#45;&gt;Node8 -->
<g id="edge7" class="edge">
<title>Node7&#45;&gt;Node8</title>
<path fill="none" stroke="midnightblue" d="M130.05,-271.57C123.69,-262.27 116.13,-251.25 111,-243.75"/>
<polygon fill="midnightblue" stroke="midnightblue" points="127.35,-273.81 135.89,-280.08 133.13,-269.86 127.35,-273.81"/>
</g>
<!-- Node13 -->
<g id="node13" class="node">
<title>Node13</title>
<g id="a_node13"><a xlink:href="log_8cpp.html" target="_top" xlink:title=" ">
<polygon fill="white" stroke="black" points="169,-224.5 169,-243.5 221,-243.5 221,-224.5 169,-224.5"/>
<text text-anchor="middle" x="195" y="-231.5" font-family="Helvetica,sans-Serif" font-size="10.00">log.cpp</text>
</a>
</g>
</g>
<!-- Node7&#45;&gt;Node13 -->
<g id="edge14" class="edge">
<title>Node7&#45;&gt;Node13</title>
<path fill="none" stroke="midnightblue" d="M157.98,-272.72C167.32,-263.2 178.75,-251.56 186.41,-243.75"/>
<polygon fill="midnightblue" stroke="midnightblue" points="155.26,-270.49 150.75,-280.08 160.25,-275.4 155.26,-270.49"/>
</g>
<!-- Node8&#45;&gt;Node2 -->
<g id="edge8" class="edge">
<title>Node8&#45;&gt;Node2</title>
<path fill="none" stroke="midnightblue" d="M82.36,-218.26C72.62,-210.54 62.27,-200.16 57,-188 33.68,-134.17 42.28,-112.79 57,-56 60.54,-42.33 69.23,-28.39 75.37,-19.73"/>
<polygon fill="midnightblue" stroke="midnightblue" points="80.5,-221.23 90.63,-224.33 84.64,-215.59 80.5,-221.23"/>
</g>
<!-- Node9 -->
<g id="node9" class="node">
<title>Node9</title>
<g id="a_node9"><a xlink:href="callback_8hpp.html" target="_top" xlink:title=" ">
<polygon fill="white" stroke="black" points="66,-168.5 66,-187.5 144,-187.5 144,-168.5 66,-168.5"/>
<text text-anchor="middle" x="105" y="-175.5" font-family="Helvetica,sans-Serif" font-size="10.00">callback.hpp</text>
</a>
</g>
</g>
<!-- Node8&#45;&gt;Node9 -->
<g id="edge9" class="edge">
<title>Node8&#45;&gt;Node9</title>
<path fill="none" stroke="midnightblue" d="M105,-213.8C105,-204.91 105,-194.78 105,-187.75"/>
<polygon fill="midnightblue" stroke="midnightblue" points="101.5,-214.08 105,-224.08 108.5,-214.08 101.5,-214.08"/>
</g>
<!-- Node12 -->
<g id="node12" class="node">
<title>Node12</title>
<g id="a_node12"><a xlink:href="default__log_8cpp.html" target="_top" xlink:title=" ">
<polygon fill="white" stroke="black" points="162,-168.5 162,-187.5 254,-187.5 254,-168.5 162,-168.5"/>
<text text-anchor="middle" x="208" y="-175.5" font-family="Helvetica,sans-Serif" font-size="10.00">default_log.cpp</text>
</a>
</g>
</g>
<!-- Node8&#45;&gt;Node12 -->
<g id="edge13" class="edge">
<title>Node8&#45;&gt;Node12</title>
<path fill="none" stroke="midnightblue" d="M130.58,-219.59C149.62,-209.61 175.06,-196.27 191.49,-187.65"/>
<polygon fill="midnightblue" stroke="midnightblue" points="128.78,-216.58 121.55,-224.32 132.03,-222.78 128.78,-216.58"/>
</g>
<!-- Node10 -->
<g id="node10" class="node">
<title>Node10</title>
<g id="a_node10"><a xlink:href="event__sink_8hpp.html" target="_top" xlink:title=" ">
<polygon fill="white" stroke="black" points="74.5,-112.5 74.5,-131.5 165.5,-131.5 165.5,-112.5 74.5,-112.5"/>
<text text-anchor="middle" x="120" y="-119.5" font-family="Helvetica,sans-Serif" font-size="10.00">event_sink.hpp</text>
</a>
</g>
</g>
<!-- Node9&#45;&gt;Node10 -->
<g id="edge10" class="edge">
<title>Node9&#45;&gt;Node10</title>
<path fill="none" stroke="midnightblue" d="M110.17,-158.4C112.68,-149.36 115.57,-138.94 117.57,-131.75"/>
<polygon fill="midnightblue" stroke="midnightblue" points="106.78,-157.51 107.48,-168.08 113.53,-159.38 106.78,-157.51"/>
</g>
<!-- Node11 -->
<g id="node11" class="node">
<title>Node11</title>
<g id="a_node11"><a xlink:href="event__dispatcher_8hpp.html" target="_top" xlink:title=" ">
<polygon fill="white" stroke="black" points="66.5,-56.5 66.5,-75.5 187.5,-75.5 187.5,-56.5 66.5,-56.5"/>
<text text-anchor="middle" x="127" y="-63.5" font-family="Helvetica,sans-Serif" font-size="10.00">event_dispatcher.hpp</text>
</a>
</g>
</g>
<!-- Node10&#45;&gt;Node11 -->
<g id="edge11" class="edge">
<title>Node10&#45;&gt;Node11</title>
<path fill="none" stroke="midnightblue" d="M122.45,-102.1C123.61,-93.14 124.94,-82.86 125.87,-75.75"/>
<polygon fill="midnightblue" stroke="midnightblue" points="118.97,-101.72 121.16,-112.08 125.91,-102.62 118.97,-101.72"/>
</g>
<!-- Node11&#45;&gt;Node2 -->
<g id="edge12" class="edge">
<title>Node11&#45;&gt;Node2</title>
<path fill="none" stroke="midnightblue" d="M112.95,-48.14C105.11,-38.74 95.67,-27.4 89.29,-19.75"/>
<polygon fill="midnightblue" stroke="midnightblue" points="110.48,-50.64 119.57,-56.08 115.86,-46.16 110.48,-50.64"/>
</g>
<!-- Node15&#45;&gt;Node7 -->
<g id="edge20" class="edge">
<title>Node15&#45;&gt;Node7</title>
<path fill="none" stroke="midnightblue" d="M169.98,-327.86C162.88,-318.5 154.4,-307.33 148.64,-299.75"/>
<polygon fill="midnightblue" stroke="midnightblue" points="167.39,-330.24 176.23,-336.08 172.97,-326 167.39,-330.24"/>
</g>
<!-- Node16 -->
<g id="node16" class="node">
<title>Node16</title>
<g id="a_node16"><a xlink:href="console__log__writer_8hpp.html" target="_top" xlink:title=" ">
<polygon fill="white" stroke="black" points="218,-280.5 218,-299.5 346,-299.5 346,-280.5 218,-280.5"/>
<text text-anchor="middle" x="282" y="-287.5" font-family="Helvetica,sans-Serif" font-size="10.00">console_log_writer.hpp</text>
</a>
</g>
</g>
<!-- Node15&#45;&gt;Node16 -->
<g id="edge17" class="edge">
<title>Node15&#45;&gt;Node16</title>
<path fill="none" stroke="midnightblue" d="M207.84,-331.45C226.11,-321.48 250.42,-308.23 266.13,-299.65"/>
<polygon fill="midnightblue" stroke="midnightblue" points="206.01,-328.46 198.91,-336.32 209.36,-334.61 206.01,-328.46"/>
</g>
<!-- Node16&#45;&gt;Node2 -->
<g id="edge18" class="edge">
<title>Node16&#45;&gt;Node2</title>
<path fill="none" stroke="midnightblue" d="M282,-270.25C282,-248.36 282,-211.05 282,-179 282,-179 282,-179 282,-121 282,-44.12 167.14,-20.59 111.51,-13.7"/>
<polygon fill="midnightblue" stroke="midnightblue" points="278.5,-270.44 282,-280.44 285.5,-270.44 278.5,-270.44"/>
</g>
<!-- Node16&#45;&gt;Node5 -->
<g id="edge19" class="edge">
<title>Node16&#45;&gt;Node5</title>
<path fill="none" stroke="midnightblue" d="M305.55,-275.18C322.48,-265.24 344.78,-252.15 359.26,-243.65"/>
<polygon fill="midnightblue" stroke="midnightblue" points="303.63,-272.24 296.78,-280.32 307.18,-278.28 303.63,-272.24"/>
</g>
</g>
</svg>
        <g id="navigator" transform="translate(0 0)" fill="#404254">
                <rect fill="#f2f5e9" fill-opacity="0.5" stroke="#606060" stroke-width=".5" x="0" y="0" width="60" height="60"/>
                <use id="zoomplus" xlink:href="#zoomPlus" x="17" y="9" onmousedown="handleZoom(evt,'in')"/>
                <use id="zoomminus" xlink:href="#zoomMin" x="42" y="9" onmousedown="handleZoom(evt,'out')"/>
                <use id="reset" xlink:href="#resetDef" x="30" y="36" onmousedown="handleReset()"/>
                <g id="arrowUp" xlink:href="#dirArrow" transform="translate(30 24)" onmousedown="handlePan(0,-1)">
                  <use xlink:href="#rim" fill="#404040">
                        <set attributeName="fill" to="#808080" begin="arrowUp.mouseover" end="arrowUp.mouseout"/>
                  </use>
                  <path fill="none" stroke="white" stroke-width="1.5" d="M0,-3.0v7 M-2.5,-0.5L0,-3.0L2.5,-0.5"/>
                </g>
                <g id="arrowRight" xlink:href="#dirArrow" transform="rotate(90) translate(36 -43)" onmousedown="handlePan(1,0)">
                  <use xlink:href="#rim" fill="#404040">
                        <set attributeName="fill" to="#808080" begin="arrowRight.mouseover" end="arrowRight.mouseout"/>
                  </use>
                  <path fill="none" stroke="white" stroke-width="1.5" d="M0,-3.0v7 M-2.5,-0.5L0,-3.0L2.5,-0.5"/>
                </g>
                <g id="arrowDown" xlink:href="#dirArrow" transform="rotate(180) translate(-30 -48)" onmousedown="handlePan(0,1)">
                  <use xlink:href="#rim" fill="#404040">
                        <set attributeName="fill" to="#808080" begin="arrowDown.mouseover" end="arrowDown.mouseout"/>
                  </use>
                  <path fill="none" stroke="white" stroke-width="1.5" d="M0,-3.0v7 M-2.5,-0.5L0,-3.0L2.5,-0.5"/>
                </g>
                <g id="arrowLeft" xlink:href="#dirArrow" transform="rotate(270) translate(-36 17)" onmousedown="handlePan(-1,0)">
                  <use xlink:href="#rim" fill="#404040">
                        <set attributeName="fill" to="#808080" begin="arrowLeft.mouseover" end="arrowLeft.mouseout"/>
                  </use>
                  <path fill="none" stroke="white" stroke-width="1.5" d="M0,-3.0v7 M-2.5,-0.5L0,-3.0L2.5,-0.5"/>
                </g>
        </g>
        <svg viewBox="0 0 15 15" width="100%" height="30px" preserveAspectRatio="xMaxYMin meet">
         <g id="arrow_out" transform="scale(0.3 0.3)">
          <a xlink:href="enum__class_8hpp__dep__incl_org.svg" target="_base">
           <rect id="button" ry="5" rx="5" y="6" x="6" height="38" width="38"
                fill="#f2f5e9" fill-opacity="0.5" stroke="#606060" stroke-width="1.0"/>
           <path id="arrow"
             d="M 11.500037,31.436501 C 11.940474,20.09759 22.043105,11.32322 32.158766,21.979434 L 37.068811,17.246167 C 37.068811,17.246167 37.088388,32 37.088388,32 L 22.160133,31.978069 C 22.160133,31.978069 26.997745,27.140456 26.997745,27.140456 C 18.528582,18.264221 13.291696,25.230495 11.500037,31.436501 z"
             style="fill:#404040;"/>
          </a>
         </g>
        </svg>
</svg>
