<?xml version="1.0" encoding="UTF-8" standalone="no"?>
<!DOCTYPE svg PUBLIC "-//W3C//DTD SVG 1.1//EN"
 "http://www.w3.org/Graphics/SVG/1.1/DTD/svg11.dtd">
<!-- Generated by graphviz version 2.43.0 (0)
 -->
<!-- Title: Graphical Class Hierarchy Pages: 1 -->
<svg width="368pt" height="256pt"
 viewBox="0.00 0.00 368.00 256.00" xmlns="http://www.w3.org/2000/svg" xmlns:xlink="http://www.w3.org/1999/xlink">
<g id="graph0" class="graph" transform="scale(1 1) rotate(0) translate(4 252)">
<title>Graphical Class Hierarchy</title>
<polygon fill="white" stroke="transparent" points="-4,4 -4,-252 364,-252 364,4 -4,4"/>
<!-- Node18 -->
<g id="node1" class="node">
<title>Node18</title>
<g id="a_node1"><a xlink:title=" ">
<polygon fill="white" stroke="#bfbfbf" points="0,-190.5 0,-209.5 132,-209.5 132,-190.5 0,-190.5"/>
<text text-anchor="middle" x="66" y="-197.5" font-family="Helvetica,sans-Serif" font-size="10.00">ecs::ComponentSystem</text>
</a>
</g>
</g>
<!-- Node0 -->
<g id="node2" class="node">
<title>Node0</title>
<g id="a_node2"><a xlink:href="classliger_1_1render_1_1_camera_data_collector.html" target="_top" xlink:title=" ">
<polygon fill="white" stroke="black" points="170.5,-228.5 170.5,-247.5 357.5,-247.5 357.5,-228.5 170.5,-228.5"/>
<text text-anchor="middle" x="264" y="-235.5" font-family="Helvetica,sans-Serif" font-size="10.00">liger::render::CameraDataCollector</text>
</a>
</g>
</g>
<!-- Node18&#45;&gt;Node0 -->
<g id="edge1" class="edge">
<title>Node18&#45;&gt;Node0</title>
<path fill="none" stroke="midnightblue" d="M126.26,-211.49C154.23,-216.91 187.21,-223.31 213.77,-228.46"/>
<polygon fill="midnightblue" stroke="midnightblue" points="126.69,-208.01 116.21,-209.54 125.36,-214.88 126.69,-208.01"/>
</g>
<!-- Node20 -->
<g id="node3" class="node">
<title>Node20</title>
<g id="a_node3"><a xlink:href="classliger_1_1render_1_1_clustered_light_feature.html" target="_top" xlink:title=" ">
<polygon fill="white" stroke="black" points="169.5,-190.5 169.5,-209.5 358.5,-209.5 358.5,-190.5 169.5,-190.5"/>
<text text-anchor="middle" x="264" y="-197.5" font-family="Helvetica,sans-Serif" font-size="10.00">liger::render::ClusteredLightFeature</text>
</a>
</g>
</g>
<!-- Node18&#45;&gt;Node20 -->
<g id="edge2" class="edge">
<title>Node18&#45;&gt;Node20</title>
<path fill="none" stroke="#8b1a1a" d="M142.47,-200C151.29,-200 160.36,-200 169.37,-200"/>
<polygon fill="#8b1a1a" stroke="#8b1a1a" points="142.27,-196.5 132.27,-200 142.27,-203.5 142.27,-196.5"/>
</g>
<!-- Node21 -->
<g id="node4" class="node">
<title>Node21</title>
<g id="a_node4"><a xlink:href="classliger_1_1render_1_1_static_mesh_feature.html" target="_top" xlink:title=" ">
<polygon fill="white" stroke="black" points="177.5,-152.5 177.5,-171.5 350.5,-171.5 350.5,-152.5 177.5,-152.5"/>
<text text-anchor="middle" x="264" y="-159.5" font-family="Helvetica,sans-Serif" font-size="10.00">liger::render::StaticMeshFeature</text>
</a>
</g>
</g>
<!-- Node18&#45;&gt;Node21 -->
<g id="edge3" class="edge">
<title>Node18&#45;&gt;Node21</title>
<path fill="none" stroke="midnightblue" d="M126.26,-188.51C154.23,-183.09 187.21,-176.69 213.77,-171.54"/>
<polygon fill="midnightblue" stroke="midnightblue" points="125.36,-185.12 116.21,-190.46 126.69,-191.99 125.36,-185.12"/>
</g>
<!-- Node69 -->
<g id="node5" class="node">
<title>Node69</title>
<g id="a_node5"><a xlink:href="classliger_1_1render_1_1_i_feature.html" target="_top" xlink:title=" ">
<polygon fill="white" stroke="black" points="5,-114.5 5,-133.5 127,-133.5 127,-114.5 5,-114.5"/>
<text text-anchor="middle" x="66" y="-121.5" font-family="Helvetica,sans-Serif" font-size="10.00">liger::render::IFeature</text>
</a>
</g>
</g>
<!-- Node69&#45;&gt;Node0 -->
<g id="edge5" class="edge">
<title>Node69&#45;&gt;Node0</title>
<path fill="none" stroke="midnightblue" d="M86.71,-140.46C99.82,-151.61 117.27,-166.83 132,-181 148.76,-197.13 147.64,-207.75 168,-219 175.07,-222.91 182.82,-226.01 190.76,-228.49"/>
<polygon fill="midnightblue" stroke="midnightblue" points="88.69,-137.55 78.8,-133.78 84.18,-142.9 88.69,-137.55"/>
</g>
<!-- Node69&#45;&gt;Node20 -->
<g id="edge6" class="edge">
<title>Node69&#45;&gt;Node20</title>
<path fill="none" stroke="midnightblue" d="M89.28,-139.32C109.11,-152.26 139.32,-170.35 168,-181 178.33,-184.84 189.59,-187.95 200.63,-190.47"/>
<polygon fill="midnightblue" stroke="midnightblue" points="90.96,-136.23 80.69,-133.61 87.08,-142.06 90.96,-136.23"/>
</g>
<!-- Node69&#45;&gt;Node21 -->
<g id="edge9" class="edge">
<title>Node69&#45;&gt;Node21</title>
<path fill="none" stroke="midnightblue" d="M126.26,-135.49C154.23,-140.91 187.21,-147.31 213.77,-152.46"/>
<polygon fill="midnightblue" stroke="midnightblue" points="126.69,-132.01 116.21,-133.54 125.36,-138.88 126.69,-132.01"/>
</g>
<!-- Node70 -->
<g id="node6" class="node">
<title>Node70</title>
<g id="a_node6"><a xlink:href="classliger_1_1render_1_1_bloom_feature.html" target="_top" xlink:title=" ">
<polygon fill="white" stroke="black" points="189,-76.5 189,-95.5 339,-95.5 339,-76.5 189,-76.5"/>
<text text-anchor="middle" x="264" y="-83.5" font-family="Helvetica,sans-Serif" font-size="10.00">liger::render::BloomFeature</text>
</a>
</g>
</g>
<!-- Node69&#45;&gt;Node70 -->
<g id="edge4" class="edge">
<title>Node69&#45;&gt;Node70</title>
<path fill="none" stroke="midnightblue" d="M126.26,-112.51C154.23,-107.09 187.21,-100.69 213.77,-95.54"/>
<polygon fill="midnightblue" stroke="midnightblue" points="125.36,-109.12 116.21,-114.46 126.69,-115.99 125.36,-109.12"/>
</g>
<!-- Node71 -->
<g id="node7" class="node">
<title>Node71</title>
<g id="a_node7"><a xlink:href="classliger_1_1render_1_1_forward_render_feature.html" target="_top" xlink:title=" ">
<polygon fill="white" stroke="black" points="168,-38.5 168,-57.5 360,-57.5 360,-38.5 168,-38.5"/>
<text text-anchor="middle" x="264" y="-45.5" font-family="Helvetica,sans-Serif" font-size="10.00">liger::render::ForwardRenderFeature</text>
</a>
</g>
</g>
<!-- Node69&#45;&gt;Node71 -->
<g id="edge7" class="edge">
<title>Node69&#45;&gt;Node71</title>
<path fill="none" stroke="midnightblue" d="M89.28,-108.68C109.11,-95.74 139.32,-77.65 168,-67 178.33,-63.16 189.59,-60.05 200.63,-57.53"/>
<polygon fill="midnightblue" stroke="midnightblue" points="87.08,-105.94 80.69,-114.39 90.96,-111.77 87.08,-105.94"/>
</g>
<!-- Node72 -->
<g id="node8" class="node">
<title>Node72</title>
<g id="a_node8"><a xlink:href="classliger_1_1render_1_1_particle_system_feature.html" target="_top" xlink:title=" ">
<polygon fill="white" stroke="black" points="168.5,-0.5 168.5,-19.5 359.5,-19.5 359.5,-0.5 168.5,-0.5"/>
<text text-anchor="middle" x="264" y="-7.5" font-family="Helvetica,sans-Serif" font-size="10.00">liger::render::ParticleSystemFeature</text>
</a>
</g>
</g>
<!-- Node69&#45;&gt;Node72 -->
<g id="edge8" class="edge">
<title>Node69&#45;&gt;Node72</title>
<path fill="none" stroke="midnightblue" d="M80.52,-106.26C98.16,-84.45 131.14,-48.01 168,-29 175.47,-25.15 183.65,-22.07 191.98,-19.62"/>
<polygon fill="midnightblue" stroke="midnightblue" points="77.58,-104.33 74.13,-114.35 83.07,-108.67 77.58,-104.33"/>
</g>
<!-- Node73 -->
<g id="node9" class="node">
<title>Node73</title>
<g id="a_node9"><a xlink:href="classliger_1_1render_1_1_tonemap_feature.html" target="_top" xlink:title=" ">
<polygon fill="white" stroke="black" points="182.5,-114.5 182.5,-133.5 345.5,-133.5 345.5,-114.5 182.5,-114.5"/>
<text text-anchor="middle" x="264" y="-121.5" font-family="Helvetica,sans-Serif" font-size="10.00">liger::render::TonemapFeature</text>
</a>
</g>
</g>
<!-- Node69&#45;&gt;Node73 -->
<g id="edge10" class="edge">
<title>Node69&#45;&gt;Node73</title>
<path fill="none" stroke="midnightblue" d="M137.55,-124C152.1,-124 167.52,-124 182.39,-124"/>
<polygon fill="midnightblue" stroke="midnightblue" points="137.14,-120.5 127.14,-124 137.14,-127.5 137.14,-120.5"/>
</g>
</g>
</svg>
