<?xml version="1.0" encoding="UTF-8" standalone="no"?>
<!DOCTYPE svg PUBLIC "-//W3C//DTD SVG 1.1//EN"
 "http://www.w3.org/Graphics/SVG/1.1/DTD/svg11.dtd">
<!-- Generated by graphviz version 2.43.0 (0)
 -->
<!-- Title: Graphical Class Hierarchy Pages: 1 -->
<svg width="363pt" height="142pt"
 viewBox="0.00 0.00 363.00 142.00" xmlns="http://www.w3.org/2000/svg" xmlns:xlink="http://www.w3.org/1999/xlink">
<g id="graph0" class="graph" transform="scale(1 1) rotate(0) translate(4 138)">
<title>Graphical Class Hierarchy</title>
<polygon fill="white" stroke="transparent" points="-4,4 -4,-138 359,-138 359,4 -4,4"/>
<!-- Node0 -->
<g id="node1" class="node">
<title>Node0</title>
<g id="a_node1"><a xlink:href="classliger_1_1asset_1_1_i_loader.html" target="_top" xlink:title=" ">
<polygon fill="white" stroke="black" points="0,-57.5 0,-76.5 113,-76.5 113,-57.5 0,-57.5"/>
<text text-anchor="middle" x="56.5" y="-64.5" font-family="Helvetica,sans-Serif" font-size="10.00">liger::asset::ILoader</text>
</a>
</g>
</g>
<!-- Node1 -->
<g id="node2" class="node">
<title>Node1</title>
<g id="a_node2"><a xlink:href="classliger_1_1asset_1_1loaders_1_1_material_loader.html" target="_top" xlink:title="Static mesh material asset loader.">
<polygon fill="white" stroke="black" points="156,-114.5 156,-133.5 348,-133.5 348,-114.5 156,-114.5"/>
<text text-anchor="middle" x="252" y="-121.5" font-family="Helvetica,sans-Serif" font-size="10.00">liger::asset::loaders::MaterialLoader</text>
</a>
</g>
</g>
<!-- Node0&#45;&gt;Node1 -->
<g id="edge1" class="edge">
<title>Node0&#45;&gt;Node1</title>
<path fill="none" stroke="midnightblue" d="M86.28,-80.78C104.03,-88.81 127.44,-98.59 149,-105 161.6,-108.75 175.31,-111.9 188.47,-114.5"/>
<polygon fill="midnightblue" stroke="midnightblue" points="87.6,-77.54 77.06,-76.53 84.67,-83.89 87.6,-77.54"/>
</g>
<!-- Node2 -->
<g id="node3" class="node">
<title>Node2</title>
<g id="a_node3"><a xlink:href="classliger_1_1asset_1_1loaders_1_1_shader_loader.html" target="_top" xlink:title=" ">
<polygon fill="white" stroke="black" points="159.5,-76.5 159.5,-95.5 344.5,-95.5 344.5,-76.5 159.5,-76.5"/>
<text text-anchor="middle" x="252" y="-83.5" font-family="Helvetica,sans-Serif" font-size="10.00">liger::asset::loaders::ShaderLoader</text>
</a>
</g>
</g>
<!-- Node0&#45;&gt;Node2 -->
<g id="edge2" class="edge">
<title>Node0&#45;&gt;Node2</title>
<path fill="none" stroke="midnightblue" d="M123.21,-73.45C134.8,-74.59 147.06,-75.79 159.22,-76.99"/>
<polygon fill="midnightblue" stroke="midnightblue" points="123.5,-69.96 113.21,-72.47 122.82,-76.93 123.5,-69.96"/>
</g>
<!-- Node3 -->
<g id="node4" class="node">
<title>Node3</title>
<g id="a_node4"><a xlink:href="classliger_1_1asset_1_1loaders_1_1_static_mesh_loader.html" target="_top" xlink:title="Static mesh asset loader.">
<polygon fill="white" stroke="black" points="149,-38.5 149,-57.5 355,-57.5 355,-38.5 149,-38.5"/>
<text text-anchor="middle" x="252" y="-45.5" font-family="Helvetica,sans-Serif" font-size="10.00">liger::asset::loaders::StaticMeshLoader</text>
</a>
</g>
</g>
<!-- Node0&#45;&gt;Node3 -->
<g id="edge3" class="edge">
<title>Node0&#45;&gt;Node3</title>
<path fill="none" stroke="midnightblue" d="M123.36,-60.53C133.28,-59.56 143.69,-58.54 154.1,-57.51"/>
<polygon fill="midnightblue" stroke="midnightblue" points="122.82,-57.07 113.21,-61.53 123.5,-64.04 122.82,-57.07"/>
</g>
<!-- Node4 -->
<g id="node5" class="node">
<title>Node4</title>
<g id="a_node5"><a xlink:href="classliger_1_1asset_1_1loaders_1_1_texture_loader.html" target="_top" xlink:title=" ">
<polygon fill="white" stroke="black" points="158,-0.5 158,-19.5 346,-19.5 346,-0.5 158,-0.5"/>
<text text-anchor="middle" x="252" y="-7.5" font-family="Helvetica,sans-Serif" font-size="10.00">liger::asset::loaders::TextureLoader</text>
</a>
</g>
</g>
<!-- Node0&#45;&gt;Node4 -->
<g id="edge4" class="edge">
<title>Node0&#45;&gt;Node4</title>
<path fill="none" stroke="midnightblue" d="M86.28,-53.22C104.03,-45.19 127.44,-35.41 149,-29 161.6,-25.25 175.31,-22.1 188.47,-19.5"/>
<polygon fill="midnightblue" stroke="midnightblue" points="84.67,-50.11 77.06,-57.47 87.6,-56.46 84.67,-50.11"/>
</g>
</g>
</svg>
