<?xml version="1.0" encoding="UTF-8" standalone="no"?>
<!DOCTYPE svg PUBLIC "-//W3C//DTD SVG 1.1//EN"
 "http://www.w3.org/Graphics/SVG/1.1/DTD/svg11.dtd">
<!-- Generated by graphviz version 2.43.0 (0)
 -->
<!-- Title: log.hpp Pages: 1 -->
<svg width="221pt" height="308pt"
 viewBox="0.00 0.00 220.61 308.00" xmlns="http://www.w3.org/2000/svg" xmlns:xlink="http://www.w3.org/1999/xlink">
<g id="graph0" class="graph" transform="scale(1 1) rotate(0) translate(4 304)">
<title>log.hpp</title>
<polygon fill="white" stroke="transparent" points="-4,4 -4,-304 216.61,-304 216.61,4 -4,4"/>
<!-- Node1 -->
<g id="node1" class="node">
<title>Node1</title>
<g id="a_node1"><a xlink:title=" ">
<polygon fill="#bfbfbf" stroke="black" points="82.11,-280.5 82.11,-299.5 135.11,-299.5 135.11,-280.5 82.11,-280.5"/>
<text text-anchor="middle" x="108.61" y="-287.5" font-family="Helvetica,sans-Serif" font-size="10.00">log.hpp</text>
</a>
</g>
</g>
<!-- Node2 -->
<g id="node2" class="node">
<title>Node2</title>
<g id="a_node2"><a xlink:href="default__log_8hpp.html" target="_top" xlink:title=" ">
<polygon fill="white" stroke="black" points="17.61,-224.5 17.61,-243.5 109.61,-243.5 109.61,-224.5 17.61,-224.5"/>
<text text-anchor="middle" x="63.61" y="-231.5" font-family="Helvetica,sans-Serif" font-size="10.00">default_log.hpp</text>
</a>
</g>
</g>
<!-- Node1&#45;&gt;Node2 -->
<g id="edge1" class="edge">
<title>Node1&#45;&gt;Node2</title>
<path fill="none" stroke="midnightblue" d="M94.56,-272.14C86.72,-262.74 77.28,-251.4 70.9,-243.75"/>
<polygon fill="midnightblue" stroke="midnightblue" points="92.09,-274.64 101.18,-280.08 97.47,-270.16 92.09,-274.64"/>
</g>
<!-- Node8 -->
<g id="node8" class="node">
<title>Node8</title>
<g id="a_node8"><a xlink:href="log_8cpp.html" target="_top" xlink:title=" ">
<polygon fill="white" stroke="black" points="127.61,-224.5 127.61,-243.5 179.61,-243.5 179.61,-224.5 127.61,-224.5"/>
<text text-anchor="middle" x="153.61" y="-231.5" font-family="Helvetica,sans-Serif" font-size="10.00">log.cpp</text>
</a>
</g>
</g>
<!-- Node1&#45;&gt;Node8 -->
<g id="edge8" class="edge">
<title>Node1&#45;&gt;Node8</title>
<path fill="none" stroke="midnightblue" d="M122.66,-272.14C130.5,-262.74 139.94,-251.4 146.32,-243.75"/>
<polygon fill="midnightblue" stroke="midnightblue" points="119.76,-270.16 116.04,-280.08 125.13,-274.64 119.76,-270.16"/>
</g>
<!-- Node3 -->
<g id="node3" class="node">
<title>Node3</title>
<g id="a_node3"><a xlink:href="core_8hpp.html" target="_top" xlink:title=" ">
<polygon fill="white" stroke="black" points="8.11,-0.5 8.11,-19.5 67.11,-19.5 67.11,-0.5 8.11,-0.5"/>
<text text-anchor="middle" x="37.61" y="-7.5" font-family="Helvetica,sans-Serif" font-size="10.00">core.hpp</text>
</a>
</g>
</g>
<!-- Node2&#45;&gt;Node3 -->
<g id="edge2" class="edge">
<title>Node2&#45;&gt;Node3</title>
<path fill="none" stroke="midnightblue" d="M41.07,-218.21C31.35,-210.49 20.99,-200.11 15.61,-188 -8.19,-134.37 -0.62,-112.92 13.61,-56 17,-42.43 25.35,-28.47 31.24,-19.77"/>
<polygon fill="midnightblue" stroke="midnightblue" points="39.19,-221.17 49.31,-224.3 43.35,-215.54 39.19,-221.17"/>
</g>
<!-- Node4 -->
<g id="node4" class="node">
<title>Node4</title>
<g id="a_node4"><a xlink:href="callback_8hpp.html" target="_top" xlink:title=" ">
<polygon fill="white" stroke="black" points="24.61,-168.5 24.61,-187.5 102.61,-187.5 102.61,-168.5 24.61,-168.5"/>
<text text-anchor="middle" x="63.61" y="-175.5" font-family="Helvetica,sans-Serif" font-size="10.00">callback.hpp</text>
</a>
</g>
</g>
<!-- Node2&#45;&gt;Node4 -->
<g id="edge3" class="edge">
<title>Node2&#45;&gt;Node4</title>
<path fill="none" stroke="midnightblue" d="M63.61,-213.8C63.61,-204.91 63.61,-194.78 63.61,-187.75"/>
<polygon fill="midnightblue" stroke="midnightblue" points="60.11,-214.08 63.61,-224.08 67.11,-214.08 60.11,-214.08"/>
</g>
<!-- Node7 -->
<g id="node7" class="node">
<title>Node7</title>
<g id="a_node7"><a xlink:href="default__log_8cpp.html" target="_top" xlink:title=" ">
<polygon fill="white" stroke="black" points="120.61,-168.5 120.61,-187.5 212.61,-187.5 212.61,-168.5 120.61,-168.5"/>
<text text-anchor="middle" x="166.61" y="-175.5" font-family="Helvetica,sans-Serif" font-size="10.00">default_log.cpp</text>
</a>
</g>
</g>
<!-- Node2&#45;&gt;Node7 -->
<g id="edge7" class="edge">
<title>Node2&#45;&gt;Node7</title>
<path fill="none" stroke="midnightblue" d="M89.19,-219.59C108.23,-209.61 133.68,-196.27 150.1,-187.65"/>
<polygon fill="midnightblue" stroke="midnightblue" points="87.39,-216.58 80.16,-224.32 90.64,-222.78 87.39,-216.58"/>
</g>
<!-- Node5 -->
<g id="node5" class="node">
<title>Node5</title>
<g id="a_node5"><a xlink:href="event__sink_8hpp.html" target="_top" xlink:title=" ">
<polygon fill="white" stroke="black" points="29.11,-112.5 29.11,-131.5 120.11,-131.5 120.11,-112.5 29.11,-112.5"/>
<text text-anchor="middle" x="74.61" y="-119.5" font-family="Helvetica,sans-Serif" font-size="10.00">event_sink.hpp</text>
</a>
</g>
</g>
<!-- Node4&#45;&gt;Node5 -->
<g id="edge4" class="edge">
<title>Node4&#45;&gt;Node5</title>
<path fill="none" stroke="midnightblue" d="M67.46,-158.1C69.29,-149.14 71.38,-138.86 72.83,-131.75"/>
<polygon fill="midnightblue" stroke="midnightblue" points="63.99,-157.59 65.43,-168.08 70.85,-158.98 63.99,-157.59"/>
</g>
<!-- Node6 -->
<g id="node6" class="node">
<title>Node6</title>
<g id="a_node6"><a xlink:href="event__dispatcher_8hpp.html" target="_top" xlink:title=" ">
<polygon fill="white" stroke="black" points="22.11,-56.5 22.11,-75.5 143.11,-75.5 143.11,-56.5 22.11,-56.5"/>
<text text-anchor="middle" x="82.61" y="-63.5" font-family="Helvetica,sans-Serif" font-size="10.00">event_dispatcher.hpp</text>
</a>
</g>
</g>
<!-- Node5&#45;&gt;Node6 -->
<g id="edge5" class="edge">
<title>Node5&#45;&gt;Node6</title>
<path fill="none" stroke="midnightblue" d="M77.41,-102.1C78.74,-93.14 80.26,-82.86 81.31,-75.75"/>
<polygon fill="midnightblue" stroke="midnightblue" points="73.94,-101.68 75.93,-112.08 80.86,-102.7 73.94,-101.68"/>
</g>
<!-- Node6&#45;&gt;Node3 -->
<g id="edge6" class="edge">
<title>Node6&#45;&gt;Node3</title>
<path fill="none" stroke="midnightblue" d="M68.56,-48.14C60.72,-38.74 51.28,-27.4 44.9,-19.75"/>
<polygon fill="midnightblue" stroke="midnightblue" points="66.09,-50.64 75.18,-56.08 71.47,-46.16 66.09,-50.64"/>
</g>
</g>
</svg>
