<?xml version="1.0" encoding="UTF-8" standalone="no"?>
<!DOCTYPE svg PUBLIC "-//W3C//DTD SVG 1.1//EN"
 "http://www.w3.org/Graphics/SVG/1.1/DTD/svg11.dtd">
<!-- Generated by graphviz version 2.43.0 (0)
 -->
<!-- Title: liger::Transform3D Pages: 1 -->
<svg width="151pt" height="270pt"
 viewBox="0.00 0.00 151.00 270.00" xmlns="http://www.w3.org/2000/svg" xmlns:xlink="http://www.w3.org/1999/xlink">
<g id="graph0" class="graph" transform="scale(1 1) rotate(0) translate(4 266)">
<title>liger::Transform3D</title>
<polygon fill="white" stroke="transparent" points="-4,4 -4,-266 147,-266 147,4 -4,4"/>
<!-- Node1 -->
<g id="node1" class="node">
<title>Node1</title>
<g id="a_node1"><a xlink:title=" ">
<polygon fill="#bfbfbf" stroke="black" points="11.5,-94.5 11.5,-261.5 131.5,-261.5 131.5,-94.5 11.5,-94.5"/>
<text text-anchor="middle" x="71.5" y="-249.5" font-family="Helvetica,sans-Serif" font-size="10.00">liger::Transform3D</text>
<polyline fill="none" stroke="black" points="11.5,-242.5 131.5,-242.5 "/>
<text text-anchor="start" x="19.5" y="-230.5" font-family="Helvetica,sans-Serif" font-size="10.00">+ position</text>
<text text-anchor="start" x="19.5" y="-219.5" font-family="Helvetica,sans-Serif" font-size="10.00">+ rotation</text>
<text text-anchor="start" x="19.5" y="-208.5" font-family="Helvetica,sans-Serif" font-size="10.00">+ scale</text>
<text text-anchor="start" x="19.5" y="-197.5" font-family="Helvetica,sans-Serif" font-size="10.00">+ kForward</text>
<text text-anchor="start" x="19.5" y="-186.5" font-family="Helvetica,sans-Serif" font-size="10.00">+ kUp</text>
<text text-anchor="start" x="19.5" y="-175.5" font-family="Helvetica,sans-Serif" font-size="10.00">+ kRight</text>
<polyline fill="none" stroke="black" points="11.5,-168.5 131.5,-168.5 "/>
<text text-anchor="start" x="19.5" y="-156.5" font-family="Helvetica,sans-Serif" font-size="10.00">+ Transform3D()</text>
<text text-anchor="start" x="19.5" y="-145.5" font-family="Helvetica,sans-Serif" font-size="10.00">+ Transform3D()</text>
<text text-anchor="start" x="19.5" y="-134.5" font-family="Helvetica,sans-Serif" font-size="10.00">+ TranslationMatrix()</text>
<text text-anchor="start" x="19.5" y="-123.5" font-family="Helvetica,sans-Serif" font-size="10.00">+ RotationMatrix()</text>
<text text-anchor="start" x="19.5" y="-112.5" font-family="Helvetica,sans-Serif" font-size="10.00">+ ScaleMatrix()</text>
<text text-anchor="start" x="19.5" y="-101.5" font-family="Helvetica,sans-Serif" font-size="10.00">and 6 more...</text>
</a>
</g>
</g>
<!-- Node2 -->
<g id="node2" class="node">
<title>Node2</title>
<g id="a_node2"><a xlink:href="structliger_1_1ecs_1_1_world_transform.html" target="_top" xlink:title=" ">
<polygon fill="white" stroke="black" points="0,-0.5 0,-57.5 143,-57.5 143,-0.5 0,-0.5"/>
<text text-anchor="middle" x="71.5" y="-45.5" font-family="Helvetica,sans-Serif" font-size="10.00">liger::ecs::WorldTransform</text>
<polyline fill="none" stroke="black" points="0,-38.5 143,-38.5 "/>
<text text-anchor="middle" x="71.5" y="-26.5" font-family="Helvetica,sans-Serif" font-size="10.00"> </text>
<polyline fill="none" stroke="black" points="0,-19.5 143,-19.5 "/>
<text text-anchor="middle" x="71.5" y="-7.5" font-family="Helvetica,sans-Serif" font-size="10.00"> </text>
</a>
</g>
</g>
<!-- Node1&#45;&gt;Node2 -->
<g id="edge1" class="edge">
<title>Node1&#45;&gt;Node2</title>
<path fill="none" stroke="midnightblue" d="M71.5,-84.36C71.5,-74.79 71.5,-65.68 71.5,-57.75"/>
<polygon fill="none" stroke="midnightblue" points="68,-84.48 71.5,-94.48 75,-84.48 68,-84.48"/>
</g>
</g>
</svg>
