<?xml version="1.0" encoding="UTF-8" standalone="no"?>
<!DOCTYPE svg PUBLIC "-//W3C//DTD SVG 1.1//EN"
 "http://www.w3.org/Graphics/SVG/1.1/DTD/svg11.dtd">
<!-- Generated by graphviz version 2.43.0 (0)
 -->
<!-- Title: liger::EnumBitMask&lt; EnumT, UnderlyingT &gt; Pages: 1 -->
<svg width="241pt" height="303pt"
 viewBox="0.00 0.00 241.00 303.00" xmlns="http://www.w3.org/2000/svg" xmlns:xlink="http://www.w3.org/1999/xlink">
<g id="graph0" class="graph" transform="scale(1 1) rotate(0) translate(4 299)">
<title>liger::EnumBitMask&lt; EnumT, UnderlyingT &gt;</title>
<polygon fill="white" stroke="transparent" points="-4,4 -4,-299 237,-299 237,4 -4,4"/>
<!-- Node1 -->
<g id="node1" class="node">
<title>Node1</title>
<g id="a_node1"><a xlink:title="Convenience struct for storing a bit mask of the specified enum class values.">
<polygon fill="#bfbfbf" stroke="black" points="0,-171.5 0,-294.5 233,-294.5 233,-171.5 0,-171.5"/>
<text text-anchor="middle" x="116.5" y="-282.5" font-family="Helvetica,sans-Serif" font-size="10.00">liger::EnumBitMask&lt; EnumT, UnderlyingT &gt;</text>
<polyline fill="none" stroke="black" points="0,-275.5 233,-275.5 "/>
<text text-anchor="start" x="8" y="-263.5" font-family="Helvetica,sans-Serif" font-size="10.00">+ mask</text>
<polyline fill="none" stroke="black" points="0,-256.5 233,-256.5 "/>
<text text-anchor="start" x="8" y="-244.5" font-family="Helvetica,sans-Serif" font-size="10.00">+ EnumBitMask()</text>
<text text-anchor="start" x="8" y="-233.5" font-family="Helvetica,sans-Serif" font-size="10.00">+ EnumBitMask()</text>
<text text-anchor="start" x="8" y="-222.5" font-family="Helvetica,sans-Serif" font-size="10.00">+ EnumBitMask()</text>
<text text-anchor="start" x="8" y="-211.5" font-family="Helvetica,sans-Serif" font-size="10.00">+ operator|=()</text>
<text text-anchor="start" x="8" y="-200.5" font-family="Helvetica,sans-Serif" font-size="10.00">+ operator&amp;=()</text>
<text text-anchor="start" x="8" y="-189.5" font-family="Helvetica,sans-Serif" font-size="10.00">+ operator|=()</text>
<text text-anchor="start" x="8" y="-178.5" font-family="Helvetica,sans-Serif" font-size="10.00">+ operator&amp;=()</text>
</a>
</g>
</g>
<!-- Node2 -->
<g id="node2" class="node">
<title>Node2</title>
<g id="a_node2"><a xlink:href="structliger_1_1_enum_bit_mask.html" target="_top" xlink:title=" ">
<polygon fill="white" stroke="black" points="5,-0.5 5,-123.5 228,-123.5 228,-0.5 5,-0.5"/>
<text text-anchor="middle" x="116.5" y="-111.5" font-family="Helvetica,sans-Serif" font-size="10.00">liger::EnumBitMask&lt; KeyModifier, uint8 &gt;</text>
<polyline fill="none" stroke="black" points="5,-104.5 228,-104.5 "/>
<text text-anchor="start" x="13" y="-92.5" font-family="Helvetica,sans-Serif" font-size="10.00">+ mask</text>
<polyline fill="none" stroke="black" points="5,-85.5 228,-85.5 "/>
<text text-anchor="start" x="13" y="-73.5" font-family="Helvetica,sans-Serif" font-size="10.00">+ EnumBitMask()</text>
<text text-anchor="start" x="13" y="-62.5" font-family="Helvetica,sans-Serif" font-size="10.00">+ EnumBitMask()</text>
<text text-anchor="start" x="13" y="-51.5" font-family="Helvetica,sans-Serif" font-size="10.00">+ EnumBitMask()</text>
<text text-anchor="start" x="13" y="-40.5" font-family="Helvetica,sans-Serif" font-size="10.00">+ operator|=()</text>
<text text-anchor="start" x="13" y="-29.5" font-family="Helvetica,sans-Serif" font-size="10.00">+ operator|=()</text>
<text text-anchor="start" x="13" y="-18.5" font-family="Helvetica,sans-Serif" font-size="10.00">+ operator&amp;=()</text>
<text text-anchor="start" x="13" y="-7.5" font-family="Helvetica,sans-Serif" font-size="10.00">+ operator&amp;=()</text>
</a>
</g>
</g>
<!-- Node1&#45;&gt;Node2 -->
<g id="edge1" class="edge">
<title>Node1&#45;&gt;Node2</title>
<path fill="none" stroke="orange" d="M116.5,-161.13C116.5,-148.68 116.5,-135.82 116.5,-123.68"/>
<polygon fill="orange" stroke="orange" points="113,-161.46 116.5,-171.46 120,-161.46 113,-161.46"/>
<text text-anchor="middle" x="174" y="-145" font-family="Helvetica,sans-Serif" font-size="10.00"> &lt; KeyModifier, uint8 &gt;</text>
</g>
</g>
</svg>
